<?xml version="1.0" encoding="UTF-8"?>
<svg width="18px" height="20px" viewBox="0 0 18 20" version="1.1" xmlns="http://www.w3.org/2000/svg" xmlns:xlink="http://www.w3.org/1999/xlink">
    <title>Group 21</title>
    <defs>
        <polygon id="path-1" points="0 0.0289737273 8.38920588 0.0289737273 8.38920588 8.16704902 0 8.16704902"></polygon>
        <polygon id="path-3" points="0.0845980392 -0.000392156863 8.52832353 -0.000392156863 8.52832353 10.361598 0.0845980392 10.361598"></polygon>
    </defs>
    <g id="Page-1" stroke="none" stroke-width="1" fill="none" fill-rule="evenodd">
        <g id="Group-21">
            <g id="Group-13" transform="translate(0.000000, 0.000392)">
                <path d="M8.3892451,11.9787059 L8.3892451,18.1319412 C8.3892451,18.8758627 8.99493137,19.4808627 9.73885294,19.4808627 L15.2298333,19.4808627 C15.9737549,19.4808627 16.5787549,18.8758627 16.5787549,18.1319412 L16.5787549,14.4801765 C16.5787549,13.7362549 15.9737549,13.1311569 15.2298333,13.1311569 L9.68169608,13.1311569 C9.61385294,13.1311569 9.5492451,13.1049804 9.50061765,13.0580196 L8.3892451,11.9787059 Z M15.2298333,19.9999804 L9.73885294,19.9999804 C8.70806863,19.9999804 7.87022549,19.1621373 7.87022549,18.1319412 L7.87022549,11.3644902 C7.87022549,11.2603725 7.93267647,11.1658627 8.0287549,11.1252745 C8.12493137,11.0846863 8.2360098,11.1055686 8.31071569,11.1781176 L9.78689216,12.6120392 L15.2298333,12.6120392 C16.2599314,12.6120392 17.0978725,13.4499804 17.0978725,14.4801765 L17.0978725,18.1319412 C17.0978725,19.1621373 16.2599314,19.9999804 15.2298333,19.9999804 L15.2298333,19.9999804 Z" id="Fill-1" fill="#344154"></path>
                <path d="M15.5182451,12.0283039 C15.4316765,12.0283039 15.3473627,11.9855588 15.2982451,11.9066373 C15.1310882,11.6395784 14.9291275,11.4104608 14.6990294,11.2256569 C13.6383431,10.3733039 10.8651078,8.8662451 10.8373627,8.85134314 C10.7112843,8.78291176 10.6642255,8.62487255 10.7326569,8.49889216 C10.8015784,8.37173529 10.9585392,8.32526471 11.0851078,8.39418627 C11.2005,8.45722549 13.9272647,9.93869608 15.0248137,10.820951 C15.2997157,11.0419314 15.5401078,11.3143824 15.7382451,11.630951 C15.8145196,11.7523235 15.7777549,11.9130098 15.6559902,11.9888922 C15.6133431,12.0155588 15.5656961,12.0283039 15.5182451,12.0283039" id="Fill-3" fill="#344154"></path>
                <g id="Group-7" transform="translate(0.000000, 8.333333)">
                    <mask id="mask-2" fill="white">
                        <use xlink:href="#path-1"></use>
                    </mask>
                    <g id="Clip-6"></g>
                    <path d="M8.12969608,8.16704902 L-9.80392157e-06,8.16704902 L-9.80392157e-06,5.19783333 C-9.80392157e-06,4.49979412 0.179990196,3.84302941 0.521754902,3.29763725 C0.719892157,2.98106863 0.960186275,2.70861765 1.23528431,2.48753922 C2.33273529,1.60528431 5.05959804,0.123911765 5.17489216,0.0607745098 C5.29989216,-0.00804901961 5.45793137,0.0384215686 5.52734314,0.165578431 C5.59567647,0.291558824 5.54871569,0.449598039 5.42273529,0.517931373 C5.39489216,0.532931373 2.62155882,2.0399902 1.56097059,2.89234314 C1.33077451,3.07714706 1.1290098,3.30626471 0.961852941,3.57332353 C0.672441176,4.03567647 0.519107843,4.59753922 0.519107843,5.19783333 L0.519107843,7.64802941 L8.12969608,7.64802941 C8.27342157,7.64802941 8.38920588,7.76391176 8.38920588,7.90753922 C8.38920588,8.05116667 8.27342157,8.16704902 8.12969608,8.16704902" id="Fill-5" fill="#344154" mask="url(#mask-2)"></path>
                </g>
                <g id="Group-10" transform="translate(3.823529, 0.000000)">
                    <mask id="mask-4" fill="white">
                        <use xlink:href="#path-3"></use>
                    </mask>
                    <g id="Clip-9"></g>
                    <path d="M4.30616667,0.518656863 C2.26459804,0.518656863 0.603617647,2.60993137 0.603617647,5.18032353 C0.603617647,7.75110784 2.26459804,9.84257843 4.30616667,9.84257843 C6.34783333,9.84257843 8.00920588,7.75110784 8.00920588,5.18032353 C8.00920588,2.60993137 6.34783333,0.518656863 4.30616667,0.518656863 M4.30616667,10.361598 C1.97832353,10.361598 0.0845980392,8.03738235 0.0845980392,5.18032353 C0.0845980392,2.3237549 1.97832353,-0.000460784314 4.30616667,-0.000460784314 C6.63459804,-0.000460784314 8.52832353,2.3237549 8.52832353,5.18032353 C8.52832353,8.03738235 6.63459804,10.361598 4.30616667,10.361598" id="Fill-8" fill="#344154" mask="url(#mask-4)"></path>
                </g>
                <path d="M8.12988235,1.17266667 C7.82703922,1.17266667 7.53468627,1.23188235 7.25831373,1.34031373 C8.51605882,1.83452941 9.43576471,3.36864706 9.43576471,5.18060784 C9.43576471,6.99247059 8.51605882,8.5264902 7.25831373,9.02070588 C7.53468627,9.12923529 7.82703922,9.18845098 8.12988235,9.18845098 C9.81105882,9.18845098 11.179,7.3905098 11.179,5.18060784 C11.179,2.9705098 9.81105882,1.17266667 8.12988235,1.17266667" id="Fill-11" fill="#F7778A"></path>
            </g>
            <g id="Group-20" transform="translate(9.509804, 14.510196)" fill="#344154">
                <path d="M5.64846078,0.00624509804 L0.339539216,0.00624509804 C0.177186275,0.00624509804 0.0453235294,0.138303922 0.0453235294,0.300460784 C0.0453235294,0.462715686 0.177186275,0.594676471 0.339539216,0.594676471 L5.64846078,0.594676471 C5.81051961,0.594676471 5.94140196,0.462715686 5.94140196,0.300460784 C5.94140196,0.138303922 5.81051961,0.00624509804 5.64846078,0.00624509804" id="Fill-14"></path>
                <path d="M0.3395,1.92001961 L4.0590098,1.92001961 C4.22126471,1.92001961 4.35322549,1.78805882 4.35322549,1.62580392 C4.35322549,1.46247059 4.22126471,1.33031373 4.0590098,1.33031373 L0.3395,1.33031373 C0.177245098,1.33031373 0.0452843137,1.46247059 0.0452843137,1.62580392 C0.0452843137,1.78805882 0.177245098,1.92001961 0.3395,1.92001961" id="Fill-16"></path>
                <path d="M5.64846078,2.97116667 L0.339539216,2.97116667 C0.177186275,2.97116667 0.0453235294,3.10322549 0.0453235294,3.26538235 C0.0453235294,3.42763725 0.177186275,3.55959804 0.339539216,3.55959804 L5.64846078,3.55959804 C5.81051961,3.55959804 5.94140196,3.42763725 5.94140196,3.26538235 C5.94140196,3.10322549 5.81051961,2.97116667 5.64846078,2.97116667" id="Fill-18"></path>
            </g>
        </g>
    </g>
</svg>