<?xml version="1.0" encoding="UTF-8"?>
<svg width="14px" height="20px" viewBox="0 0 14 20" version="1.1" xmlns="http://www.w3.org/2000/svg" xmlns:xlink="http://www.w3.org/1999/xlink">
    <title>Group 18</title>
    <defs>
        <polygon id="path-1" points="0.0593614458 0.0681566265 9.78192771 0.0681566265 9.78192771 13.9759036 0.0593614458 13.9759036"></polygon>
    </defs>
    <g id="Page-1" stroke="none" stroke-width="1" fill="none" fill-rule="evenodd">
        <g id="아바타" transform="translate(-401.000000, -1242.000000)">
            <g id="Group-18" transform="translate(401.000000, 1242.000000)">
                <path d="M10.2136386,17.3152892 L0.726409639,17.3152892 L0.726409639,4.42372289 L7.01195181,4.42372289 L7.01195181,7.25986747 C7.01195181,7.46119277 7.17460241,7.62396386 7.37592771,7.62396386 L10.2136386,7.62396386 L10.2136386,17.3152892 Z M9.6993012,6.89745783 L7.73833735,6.89745783 L7.73833735,4.93637349 L9.6993012,6.89745783 Z M10.9323133,7.1916747 L10.9323133,7.19010843 C10.9260482,7.15745783 10.913759,7.12818072 10.8997831,7.1003494 C10.8966506,7.09408434 10.8936386,7.08781928 10.8889398,7.08179518 C10.8735181,7.05215663 10.8562892,7.02589157 10.8331566,7.00275904 L7.63303614,3.80420482 C7.60990361,3.78095181 7.58351807,3.76239759 7.55412048,3.74685542 C7.54785542,3.74227711 7.54171084,3.73914458 7.53544578,3.73601205 C7.50761446,3.72215663 7.47833735,3.70962651 7.44568675,3.70348193 L7.44424096,3.70348193 C7.42074699,3.69890361 7.3993012,3.69733735 7.37592771,3.69733735 L0.364,3.69733735 C0.162674699,3.69733735 2.40963855e-05,3.85986747 2.40963855e-05,4.05974699 L2.40963855e-05,17.6792651 C2.40963855e-05,17.8792651 0.162674699,18.0433614 0.364,18.0433614 L10.5760482,18.0433614 C10.7759277,18.0433614 10.9384578,17.8792651 10.9384578,17.6792651 L10.9384578,7.25986747 C10.9384578,7.23661446 10.9368916,7.21492771 10.9323133,7.1916747 L10.9323133,7.1916747 Z" id="Fill-1" fill="#344154"></path>
                <g id="Group-5" transform="translate(3.012048, 5.968072)">
                    <mask id="mask-2" fill="white">
                        <use xlink:href="#path-1"></use>
                    </mask>
                    <g id="Clip-4"></g>
                    <path d="M9.41803614,0.0681566265 L6.85454217,0.0681566265 L7.57948193,0.796108434 L9.05406024,0.796108434 L9.05406024,13.2509277 L0.78586747,13.2509277 L0.78586747,12.0752651 L0.0593614458,12.0752651 L0.0593614458,13.6133373 C0.0593614458,13.8147831 0.22213253,13.975988 0.423457831,13.975988 L9.41803614,13.975988 C9.61779518,13.975988 9.78201205,13.8147831 9.78201205,13.6133373 L9.78201205,0.43213253 C9.78201205,0.232253012 9.61779518,0.0681566265 9.41803614,0.0681566265" id="Fill-3" fill="#344154" mask="url(#mask-2)"></path>
                </g>
                <path d="M8.95740964,9.39419277 L1.95319277,9.39419277 C1.75174699,9.39419277 1.5876506,9.23166265 1.5876506,9.03178313 C1.5876506,8.8320241 1.75174699,8.66780723 1.95319277,8.66780723 L8.95740964,8.66780723 C9.15873494,8.66780723 9.31993976,8.8320241 9.31993976,9.03178313 C9.31993976,9.23166265 9.15873494,9.39419277 8.95740964,9.39419277" id="Fill-6" fill="#344154"></path>
                <path d="M8.976,11.6973494 L1.95322892,11.6973494 C1.75178313,11.6973494 1.58768675,11.5363855 1.58768675,11.3349398 C1.58768675,11.1353012 1.75178313,10.9725301 1.95322892,10.9725301 L8.976,10.9725301 C9.17744578,10.9725301 9.33840964,11.1353012 9.33840964,11.3349398 C9.33840964,11.5363855 9.17744578,11.6973494 8.976,11.6973494" id="Fill-8" fill="#344154"></path>
                <path d="M5.75898795,7.09091566 L1.95320482,7.09091566 C1.75175904,7.09091566 1.58766265,6.92826506 1.58766265,6.72850602 C1.58766265,6.52718072 1.75175904,6.36453012 1.95320482,6.36453012 L5.75898795,6.36453012 C5.96019277,6.36453012 6.12296386,6.52718072 6.12296386,6.72850602 C6.12296386,6.92826506 5.96019277,7.09091566 5.75898795,7.09091566" id="Fill-10" fill="#344154"></path>
                <path d="M8.95740964,14.0022771 L1.95319277,14.0022771 C1.75174699,14.0022771 1.5876506,13.839506 1.5876506,13.6398675 C1.5876506,13.4384217 1.75174699,13.2743253 1.95319277,13.2743253 L8.95740964,13.2743253 C9.15873494,13.2743253 9.31993976,13.4384217 9.31993976,13.6398675 C9.31993976,13.839506 9.15873494,14.0022771 8.95740964,14.0022771" id="Fill-12" fill="#344154"></path>
                <path d="M4.20531325,16.3054337 L1.95326506,16.3054337 C1.75181928,16.3054337 1.58760241,16.1429036 1.58760241,15.9414578 C1.58760241,15.7415783 1.75181928,15.5790482 1.95326506,15.5790482 L4.20531325,15.5790482 C4.40519277,15.5790482 4.56784337,15.7415783 4.56784337,15.9414578 C4.56784337,16.1429036 4.40519277,16.3054337 4.20531325,16.3054337" id="Fill-14" fill="#344154"></path>
                <path d="M12.685759,3.78872289 C12.5446747,3.64763855 12.3139518,3.64763855 12.1728675,3.78872289 L11.6432289,4.32004819 C11.5875663,1.92860241 9.62961446,4.81927711e-05 7.22419277,4.81927711e-05 C5.84708434,4.81927711e-05 4.57395181,0.622698795 3.72985542,1.71161446 C3.55166265,1.94089157 3.39527711,2.19016867 3.26359036,2.45354217 C3.17383133,2.63318072 3.24503614,2.85161446 3.42624096,2.94137349 C3.606,3.03137349 3.82274699,2.95848193 3.91262651,2.77884337 C4.02262651,2.55715663 4.15419277,2.34824096 4.30298795,2.15775904 C5.00913253,1.24860241 6.07322892,0.724987952 7.22419277,0.724987952 C9.22383133,0.724987952 10.8549157,2.32342169 10.9153976,4.30775904 L10.3963614,3.78872289 C10.2538313,3.64763855 10.0245542,3.64763855 9.88371084,3.78872289 C9.74118072,3.93137349 9.74118072,4.16053012 9.88371084,4.30293976 L11.0281687,5.44763855 C11.0996145,5.51872289 11.192506,5.55293976 11.2855181,5.55293976 C11.3769639,5.55293976 11.4713012,5.51872289 11.5426265,5.44763855 L12.685759,4.30293976 C12.8281687,4.16053012 12.8281687,3.93137349 12.685759,3.78872289" id="Fill-16" fill="#27C4AA"></path>
            </g>
        </g>
    </g>
</svg>