<?xml version="1.0" encoding="UTF-8"?>
<svg width="12px" height="16px" viewBox="0 0 12 16" version="1.1" xmlns="http://www.w3.org/2000/svg" xmlns:xlink="http://www.w3.org/1999/xlink">
    <!-- Generator: Sketch 53.2 (72643) - https://sketchapp.com -->
    <title>ico_data_list</title>
    <desc>Created with Sketch.</desc>
    <defs>
        <polygon id="path-1" points="0 0.0586851064 10.3886553 0.0586851064 10.3886553 13.6595362 0 13.6595362"></polygon>
        <polygon id="path-3" points="0.0931148936 0.0227234043 10.482 0.0227234043 10.482 13.6218383 0.0931148936 13.6218383"></polygon>
    </defs>
    <g id="Page-1" stroke="none" stroke-width="1" fill="none" fill-rule="evenodd">
        <g id="new_console_menu_icons_puble" transform="translate(-23.000000, -501.000000)">
            <g id="ico_data_list" transform="translate(23.000000, 501.000000)">
                <g id="Group-3" transform="translate(0.000000, 1.509191)">
                    <mask id="mask-2" fill="white">
                        <use xlink:href="#path-1"></use>
                    </mask>
                    <g id="Clip-2"></g>
                    <path d="M9.62282553,12.8937064 L0.764144681,12.8937064 L0.764144681,0.826174468 L6.60686809,0.826174468 L6.60686809,3.45851489 C6.60686809,3.67068511 6.77844255,3.8406 6.99061277,3.8406 L9.62282553,3.8406 L9.62282553,12.8937064 Z M9.08078298,3.07477021 L7.37269787,3.07477021 L7.37269787,1.36655745 L9.08078298,3.07477021 Z M10.3821447,3.38651489 L10.3821447,3.38345106 C10.3742298,3.34911064 10.3626128,3.3179617 10.3479319,3.2886 C10.3447404,3.28208936 10.3414213,3.27545106 10.3382298,3.26894043 C10.3202298,3.23791915 10.3006979,3.21021702 10.2761872,3.18749362 L7.26163404,0.172940426 C7.23725106,0.146770213 7.20954894,0.128897872 7.18005957,0.110770213 C7.17188936,0.107706383 7.1670383,0.104259574 7.15874043,0.101068085 C7.12937872,0.086387234 7.09848511,0.0733659574 7.06414468,0.0667276596 C7.04116596,0.0617489362 7.0151234,0.0586851064 6.99061277,0.0586851064 L0.383591489,0.0586851064 C0.171421277,0.0586851064 -2.55319149e-05,0.230131915 -2.55319149e-05,0.442429787 L-2.55319149e-05,13.2757915 C-2.55319149e-05,13.4865574 0.171421277,13.6595362 0.383591489,13.6595362 L10.0066979,13.6595362 C10.2173362,13.6595362 10.3886553,13.4865574 10.3886553,13.2757915 L10.3886553,3.45851489 C10.3886553,3.4338766 10.3855915,3.40949362 10.3821447,3.38651489 L10.3821447,3.38651489 Z" id="Fill-1" fill="#344154" mask="url(#mask-2)"></path>
                </g>
                <g id="Group-6" transform="translate(1.404255, 0.104936)">
                    <mask id="mask-4" fill="white">
                        <use xlink:href="#path-3"></use>
                    </mask>
                    <g id="Clip-5"></g>
                    <path d="M10.0983064,0.0226468085 L0.4752,0.0226468085 C0.264561702,0.0226468085 0.0931148936,0.192434043 0.0931148936,0.404731915 L0.0931148936,1.46290213 L0.858944681,1.46290213 L0.858944681,0.788476596 L9.71609362,0.788476596 L9.71609362,12.8560085 L8.98434894,12.8560085 L8.98434894,13.6218383 L10.0983064,13.6218383 C10.3086894,13.6218383 10.4820511,13.4503915 10.4820511,13.2380936 L10.4820511,0.404731915 C10.4820511,0.192434043 10.3086894,0.0226468085 10.0983064,0.0226468085" id="Fill-4" fill="#344154" mask="url(#mask-4)"></path>
                </g>
                <path d="M7.55246809,7.02020426 L3.74259574,7.02020426 C3.53208511,7.02020426 3.36051064,6.84875745 3.36051064,6.63811915 C3.36051064,6.42594894 3.53208511,6.25271489 3.74259574,6.25271489 L7.55246809,6.25271489 C7.7646383,6.25271489 7.93442553,6.42594894 7.93442553,6.63811915 C7.93442553,6.84875745 7.7646383,7.02020426 7.55246809,7.02020426" id="Fill-7" fill="#344154"></path>
                <path d="M5.46703404,4.12505106 L1.87941702,4.12505106 C1.66877872,4.12505106 1.49733191,3.9534766 1.49733191,3.74130638 C1.49733191,3.53066809 1.66877872,3.35922128 1.87941702,3.35922128 L5.46703404,3.35922128 C5.67767234,3.35922128 5.85090638,3.53066809 5.85090638,3.74130638 C5.85090638,3.9534766 5.67767234,4.12505106 5.46703404,4.12505106" id="Fill-9" fill="#344154"></path>
                <path d="M2.40370213,7.02020426 L1.87953191,7.02020426 C1.66876596,7.02020426 1.49731915,6.84875745 1.49731915,6.63811915 C1.49731915,6.42594894 1.66876596,6.25271489 1.87953191,6.25271489 L2.40370213,6.25271489 C2.61421277,6.25271489 2.78731915,6.42594894 2.78731915,6.63811915 C2.78731915,6.84875745 2.61421277,7.02020426 2.40370213,7.02020426" id="Fill-11" fill="#344154"></path>
                <path d="M8.49782553,9.19054468 L3.74263404,9.19054468 C3.5321234,9.19054468 3.36054894,9.01884255 3.36054894,8.80845957 C3.36054894,8.59603404 3.5321234,8.42471489 3.74263404,8.42471489 L8.49782553,8.42471489 C8.70999574,8.42471489 8.88157021,8.59603404 8.88157021,8.80845957 C8.88157021,9.01884255 8.70999574,9.19054468 8.49782553,9.19054468" id="Fill-13" fill="#344154"></path>
                <path d="M2.40370213,9.19054468 L1.87953191,9.19054468 C1.66876596,9.19054468 1.49731915,9.01884255 1.49731915,8.80845957 C1.49731915,8.59603404 1.66876596,8.42471489 1.87953191,8.42471489 L2.40370213,8.42471489 C2.61421277,8.42471489 2.78731915,8.59603404 2.78731915,8.80845957 C2.78731915,9.01884255 2.61421277,9.19054468 2.40370213,9.19054468" id="Fill-15" fill="#344154"></path>
                <path d="M6.3390766,11.3606298 L3.74260851,11.3606298 C3.53209787,11.3606298 3.3605234,11.189183 3.3605234,10.9785447 C3.3605234,10.7663745 3.53209787,10.5948 3.74260851,10.5948 L6.3390766,10.5948 C6.54958723,10.5948 6.72282128,10.7663745 6.72282128,10.9785447 C6.72282128,11.189183 6.54958723,11.3606298 6.3390766,11.3606298" id="Fill-17" fill="#344154"></path>
                <path d="M8.49782553,13.5308426 L3.74263404,13.5308426 C3.5321234,13.5308426 3.36054894,13.3592681 3.36054894,13.1488851 C3.36054894,12.9364596 3.5321234,12.7650128 3.74263404,12.7650128 L8.49782553,12.7650128 C8.70999574,12.7650128 8.88157021,12.9364596 8.88157021,13.1488851 C8.88157021,13.3592681 8.70999574,13.5308426 8.49782553,13.5308426" id="Fill-19" fill="#344154"></path>
                <path d="M2.40370213,13.5308426 L1.87953191,13.5308426 C1.66876596,13.5308426 1.49731915,13.3592681 1.49731915,13.1488851 C1.49731915,12.9364596 1.66876596,12.7650128 1.87953191,12.7650128 L2.40370213,12.7650128 C2.61421277,12.7650128 2.78731915,12.9364596 2.78731915,13.1488851 C2.78731915,13.3592681 2.61421277,13.5308426 2.40370213,13.5308426" id="Fill-21" fill="#344154"></path>
            </g>
        </g>
    </g>
</svg>