<?xml version="1.0" encoding="UTF-8"?>
<svg width="24px" height="22px" viewBox="0 0 24 22" version="1.1" xmlns="http://www.w3.org/2000/svg" xmlns:xlink="http://www.w3.org/1999/xlink">
    <!-- Generator: Sketch 53.2 (72643) - https://sketchapp.com -->
    <title>ico_layer3_dataanal</title>
    <desc>Created with Sketch.</desc>
    <defs>
        <polygon id="path-1" points="0.09806 0.147014073 11.3526 0.147014073 11.3526 3.81448 0.09806 3.81448"></polygon>
        <polygon id="path-3" points="0 0.15918 12.91272 0.15918 12.91272 4.79998 0 4.79998"></polygon>
    </defs>
    <g id="Page-1" stroke="none" stroke-width="1" fill="none" fill-rule="evenodd">
        <g id="Landing_8th" transform="translate(-740.000000, -695.000000)">
            <g id="ico_layer3_dataanal" transform="translate(740.000000, 695.000000)">
                <path d="M18.3253,16.06764 C16.7571,16.06764 15.1893,15.86404 13.6649,15.45804 C13.1839,15.33004 12.8479,14.89224 12.8479,14.39444 L12.8479,13.42864 C12.8479,13.26684 12.9785,13.13664 13.1399,13.13664 C13.3015,13.13664 13.4319,13.26684 13.4319,13.42864 L13.4319,14.39444 C13.4319,14.62804 13.5897,14.83344 13.8151,14.89344 C16.7661,15.67984 19.8847,15.67984 22.8355,14.89344 C23.0609,14.83344 23.2189,14.62804 23.2189,14.39444 L23.2189,13.42864 C23.2189,13.26684 23.3491,13.13664 23.5107,13.13664 C23.6721,13.13664 23.8027,13.26684 23.8027,13.42864 L23.8027,14.39444 C23.8027,14.89284 23.4669,15.33004 22.9857,15.45804 C21.4613,15.86404 19.8931,16.06764 18.3253,16.06764" id="Fill-1" fill="#344154"></path>
                <path d="M13.13996,13.28658 C13.06156,13.28658 12.99796,13.35018 12.99796,13.42858 L12.99796,14.39438 C12.99796,14.82478 13.28796,15.20258 13.70336,15.31318 C16.71556,16.11558 19.93536,16.11558 22.94696,15.31318 C23.36256,15.20258 23.65256,14.82478 23.65256,14.39438 L23.65256,13.42858 C23.65256,13.35018 23.58896,13.28658 23.51076,13.28658 C23.43256,13.28658 23.36896,13.35018 23.36896,13.42858 L23.36896,14.39438 C23.36896,14.69598 23.16536,14.96078 22.87396,15.03838 C19.89876,15.83158 16.75276,15.83138 13.77656,15.03838 C13.48536,14.96078 13.28196,14.69618 13.28196,14.39438 L13.28196,13.42858 C13.28196,13.35018 13.21836,13.28658 13.13996,13.28658 M18.32536,16.21758 C16.73836,16.21758 15.15756,16.01078 13.62636,15.60298 C13.07976,15.45758 12.69796,14.96058 12.69796,14.39438 L12.69796,13.42858 C12.69796,13.18478 12.89616,12.98658 13.13996,12.98658 C13.38376,12.98658 13.58196,13.18478 13.58196,13.42858 L13.58196,14.39438 C13.58196,14.56018 13.69376,14.70598 13.85356,14.74858 C16.77956,15.52778 19.87196,15.52778 22.79676,14.74858 C22.95696,14.70598 23.06896,14.56018 23.06896,14.39438 L23.06896,13.42858 C23.06896,13.18478 23.26716,12.98658 23.51076,12.98658 C23.75436,12.98658 23.95256,13.18478 23.95256,13.42858 L23.95256,14.39438 C23.95256,14.96078 23.57076,15.45758 23.02416,15.60298 C21.49316,16.01078 19.91216,16.21758 18.32536,16.21758" id="Fill-3" fill="#344154"></path>
                <path d="M18.3253,18.74304 C16.7571,18.74304 15.1893,18.53984 13.6649,18.13324 C13.1839,18.00544 12.8479,17.56804 12.8479,17.07024 L12.8479,16.10444 C12.8479,15.94284 12.9785,15.81244 13.1399,15.81244 C13.3015,15.81244 13.4319,15.94284 13.4319,16.10444 L13.4319,17.07024 C13.4319,17.30384 13.5897,17.50864 13.8151,17.56884 C16.7655,18.35564 19.8853,18.35564 22.8355,17.56884 C23.0609,17.50864 23.2189,17.30384 23.2189,17.07024 L23.2189,16.10444 C23.2189,15.94284 23.3491,15.81244 23.5107,15.81244 C23.6721,15.81244 23.8027,15.94284 23.8027,16.10444 L23.8027,17.07024 C23.8027,17.56804 23.4669,18.00544 22.9857,18.13324 C21.4613,18.53984 19.8931,18.74304 18.3253,18.74304" id="Fill-5" fill="#344154"></path>
                <path d="M13.13996,15.96236 C13.06156,15.96236 12.99796,16.02596 12.99796,16.10436 L12.99796,17.07016 C12.99796,17.50016 13.28796,17.87776 13.70336,17.98836 C16.71196,18.79076 19.93876,18.79076 22.94696,17.98836 C23.36256,17.87776 23.65256,17.50016 23.65256,17.07016 L23.65256,16.10436 C23.65256,16.02596 23.58896,15.96236 23.51076,15.96236 C23.43256,15.96236 23.36896,16.02596 23.36896,16.10436 L23.36896,17.07016 C23.36896,17.37136 23.16536,17.63596 22.87416,17.71376 C19.89836,18.50716 16.75256,18.50756 13.77656,17.71376 C13.48536,17.63596 13.28196,17.37136 13.28196,17.07016 L13.28196,16.10436 C13.28196,16.02596 13.21836,15.96236 13.13996,15.96236 M18.32536,18.89296 C16.73656,18.89296 15.15576,18.68616 13.62636,18.27816 C13.07976,18.13296 12.69796,17.63596 12.69796,17.07016 L12.69796,16.10436 C12.69796,15.86056 12.89616,15.66236 13.13996,15.66236 C13.38376,15.66236 13.58196,15.86056 13.58196,16.10436 L13.58196,17.07016 C13.58196,17.23576 13.69376,17.38116 13.85376,17.42396 C16.77936,18.20416 19.87196,18.20376 22.79676,17.42396 C22.95696,17.38116 23.06896,17.23556 23.06896,17.07016 L23.06896,16.10436 C23.06896,15.86056 23.26716,15.66236 23.51076,15.66236 C23.75436,15.66236 23.95256,15.86056 23.95256,16.10436 L23.95256,17.07016 C23.95256,17.63616 23.57076,18.13296 23.02416,18.27816 C21.49476,18.68616 19.91396,18.89296 18.32536,18.89296" id="Fill-7" fill="#344154"></path>
                <path d="M18.3253,21.41882 C16.7571,21.41882 15.1893,21.21582 13.6649,20.80922 C13.1839,20.68122 12.8479,20.24402 12.8479,19.74622 L12.8479,18.78022 C12.8479,18.61862 12.9785,18.48842 13.1399,18.48842 C13.3015,18.48842 13.4319,18.61862 13.4319,18.78022 L13.4319,19.74622 C13.4319,19.97982 13.5897,20.18442 13.8151,20.24462 C16.7655,21.03142 19.8853,21.03142 22.8355,20.24462 C23.0609,20.18442 23.2189,19.97982 23.2189,19.74622 L23.2189,18.78022 C23.2189,18.61862 23.3491,18.48842 23.5107,18.48842 C23.6721,18.48842 23.8027,18.61862 23.8027,18.78022 L23.8027,19.74622 C23.8027,20.24402 23.4669,20.68122 22.9857,20.80922 C21.4613,21.21582 19.8931,21.41882 18.3253,21.41882" id="Fill-9" fill="#344154"></path>
                <path d="M13.13996,18.63834 C13.06156,18.63834 12.99796,18.70194 12.99796,18.78014 L12.99796,19.74614 C12.99796,20.17614 13.28796,20.55374 13.70336,20.66434 C16.71116,21.46674 19.93956,21.46674 22.94696,20.66434 C23.36256,20.55374 23.65256,20.17614 23.65256,19.74614 L23.65256,18.78014 C23.65256,18.70194 23.58896,18.63834 23.51076,18.63834 C23.43256,18.63834 23.36896,18.70194 23.36896,18.78014 L23.36896,19.74614 C23.36896,20.04714 23.16536,20.31174 22.87416,20.38954 C19.89836,21.18334 16.75256,21.18334 13.77656,20.38954 C13.48536,20.31174 13.28196,20.04734 13.28196,19.74614 L13.28196,18.78014 C13.28196,18.70194 13.21836,18.63834 13.13996,18.63834 M18.32536,21.56874 C16.73616,21.56874 15.15516,21.36194 13.62636,20.95414 C13.07976,20.80894 12.69796,20.31194 12.69796,19.74614 L12.69796,18.78014 C12.69796,18.53654 12.89616,18.33834 13.13996,18.33834 C13.38376,18.33834 13.58196,18.53654 13.58196,18.78014 L13.58196,19.74614 C13.58196,19.91154 13.69376,20.05694 13.85376,20.09974 C16.77936,20.87974 19.87196,20.88014 22.79676,20.09974 C22.95696,20.05694 23.06896,19.91154 23.06896,19.74614 L23.06896,18.78014 C23.06896,18.53654 23.26716,18.33834 23.51076,18.33834 C23.75436,18.33834 23.95256,18.53654 23.95256,18.78014 L23.95256,19.74614 C23.95256,20.31214 23.57076,20.80894 23.02416,20.95414 C21.49536,21.36194 19.91436,21.56874 18.32536,21.56874" id="Fill-11" fill="#344154"></path>
                <path d="M18.3253,13.43386 C15.6033,13.43386 12.8479,12.82906 12.8479,11.67346 C12.8479,10.62286 15.0363,10.20126 15.9769,10.06846 C16.1329,10.05106 16.2837,10.15726 16.3071,10.31726 C16.3295,10.47706 16.2183,10.62466 16.0585,10.64746 C14.2469,10.90226 13.4319,11.40066 13.4319,11.67346 C13.4319,12.08426 15.1125,12.85006 18.3253,12.85006 C21.5381,12.85006 23.2189,12.08426 23.2189,11.67346 C23.2189,11.40066 22.4037,10.90226 20.5921,10.64746 C20.4323,10.62466 20.3211,10.47706 20.3435,10.31726 C20.3663,10.15726 20.5153,10.05106 20.6737,10.06846 C21.6143,10.20126 23.8027,10.62286 23.8027,11.67346 C23.8027,12.82906 21.0473,13.43386 18.3253,13.43386" id="Fill-13" fill="#344154"></path>
                <g id="Group-17" transform="translate(12.600000, 9.769400)">
                    <mask id="mask-2" fill="white">
                        <use xlink:href="#path-1"></use>
                    </mask>
                    <g id="Clip-16"></g>
                    <path d="M3.41066,0.44708 C3.40506,0.44708 3.39926,0.44748 3.39346,0.44808 C2.69406,0.54688 0.39806,0.94568 0.39806,1.90408 C0.39806,2.82208 2.68826,3.51448 5.72526,3.51448 C8.76246,3.51448 11.05266,2.82208 11.05266,1.90408 C11.05266,0.94568 8.75646,0.54688 8.05286,0.44748 C7.97626,0.43788 7.90306,0.49208 7.89186,0.56908 C7.88126,0.64628 7.93566,0.71848 8.01346,0.72968 C9.63566,0.95788 10.76886,1.44068 10.76886,1.90408 C10.76886,2.53168 8.69766,3.23068 5.72526,3.23068 C2.75326,3.23068 0.68186,2.53168 0.68186,1.90408 C0.68186,1.44068 1.81506,0.95768 3.43766,0.72948 C3.51486,0.71848 3.56946,0.64628 3.55846,0.56848 C3.54826,0.49908 3.48386,0.44708 3.41066,0.44708 M5.72526,3.81448 C3.01486,3.81448 0.09806,3.21668 0.09806,1.90408 C0.09806,0.77848 2.13926,0.32228 3.35606,0.15068 C3.59926,0.12448 3.82146,0.29228 3.85566,0.52628 C3.88946,0.76808 3.72066,0.99228 3.47986,1.02648 C1.63606,1.28568 0.99526,1.76788 0.98186,1.90468 C0.98186,2.14308 2.46046,2.93068 5.72526,2.93068 C8.99006,2.93068 10.46886,2.14308 10.46886,1.90408 C10.45566,1.76788 9.81466,1.28568 7.97126,1.02668 C7.73006,0.99228 7.56126,0.76808 7.59486,0.52708 C7.62886,0.28888 7.84646,0.12208 8.09006,0.15008 C9.31146,0.32228 11.35266,0.77848 11.35266,1.90408 C11.35266,3.21668 8.43566,3.81448 5.72526,3.81448" id="Fill-15" fill="#344154" mask="url(#mask-2)"></path>
                </g>
                <path d="M18.58176,5.81178 C18.42016,5.81178 18.28996,5.68138 18.28996,5.51978 L18.28996,1.77718 C18.28996,1.20178 17.82196,0.73378 17.24656,0.73378 L15.99316,0.73378 C15.83136,0.73378 15.70116,0.60358 15.70116,0.44198 C15.70116,0.28038 15.83136,0.14998 15.99316,0.14998 L17.24656,0.14998 C18.14396,0.14998 18.87376,0.87978 18.87376,1.77718 L18.87376,5.51978 C18.87376,5.68138 18.74356,5.81178 18.58176,5.81178" id="Fill-18" fill="#344154"></path>
                <path d="M15.99308,0.30006 C15.91468,0.30006 15.85108,0.36366 15.85108,0.44206 C15.85108,0.52026 15.91468,0.58386 15.99308,0.58386 L17.24668,0.58386 C17.90468,0.58386 18.43988,1.11926 18.43988,1.77726 L18.43988,5.51986 C18.43988,5.59806 18.50368,5.66186 18.58168,5.66186 C18.66008,5.66186 18.72368,5.59806 18.72368,5.51986 L18.72368,1.77726 C18.72368,0.96266 18.06108,0.30006 17.24668,0.30006 L15.99308,0.30006 Z M18.58168,5.96186 C18.33828,5.96186 18.13988,5.76346 18.13988,5.51986 L18.13988,1.77726 C18.13988,1.28466 17.73908,0.88386 17.24668,0.88386 L15.99308,0.88386 C15.74928,0.88386 15.55108,0.68566 15.55108,0.44206 C15.55108,0.19826 15.74928,6e-05 15.99308,6e-05 L17.24668,6e-05 C18.22648,6e-05 19.02368,0.79726 19.02368,1.77726 L19.02368,5.51986 C19.02368,5.76346 18.82548,5.96186 18.58168,5.96186 L18.58168,5.96186 Z" id="Fill-20" fill="#344154"></path>
                <path d="M11.87374,14.04166 L1.99274,14.04166 C1.09514,14.04166 0.36554,13.31206 0.36554,12.41446 L0.36554,1.77726 C0.36554,0.87966 1.09514,0.15006 1.99274,0.15006 L15.99314,0.15006 C16.15454,0.15006 16.28494,0.28026 16.28494,0.44206 C16.28494,0.60366 16.15454,0.73386 15.99314,0.73386 L1.99274,0.73386 C1.41734,0.73386 0.94934,1.20186 0.94934,1.77726 L0.94934,12.41446 C0.94934,12.99006 1.41734,13.45786 1.99274,13.45786 L11.87374,13.45786 C12.03554,13.45786 12.16574,13.58826 12.16574,13.74986 C12.16574,13.91146 12.03554,14.04166 11.87374,14.04166" id="Fill-22" fill="#344154"></path>
                <path d="M1.99268,0.30006 C1.17828,0.30006 0.51548,0.96266 0.51548,1.77726 L0.51548,12.41446 C0.51548,13.22906 1.17828,13.89166 1.99268,13.89166 L11.87368,13.89166 C11.95208,13.89166 12.01568,13.82806 12.01568,13.74986 C12.01568,13.67146 11.95208,13.60786 11.87368,13.60786 L1.99268,13.60786 C1.33468,13.60786 0.79928,13.07246 0.79928,12.41446 L0.79928,1.77726 C0.79928,1.11926 1.33468,0.58386 1.99268,0.58386 L15.99308,0.58386 C16.07128,0.58386 16.13488,0.52026 16.13488,0.44206 C16.13488,0.36366 16.07128,0.30006 15.99308,0.30006 L1.99268,0.30006 Z M11.87368,14.19166 L1.99268,14.19166 C1.01288,14.19166 0.21548,13.39446 0.21548,12.41446 L0.21548,1.77726 C0.21548,0.79726 1.01288,6e-05 1.99268,6e-05 L15.99308,6e-05 C16.23668,6e-05 16.43488,0.19826 16.43488,0.44206 C16.43488,0.68566 16.23668,0.88386 15.99308,0.88386 L1.99268,0.88386 C1.50008,0.88386 1.09928,1.28466 1.09928,1.77726 L1.09928,12.41446 C1.09928,12.90706 1.50008,13.30786 1.99268,13.30786 L11.87368,13.30786 C12.11748,13.30786 12.31568,13.50606 12.31568,13.74986 C12.31568,13.99346 12.11748,14.19166 11.87368,14.19166 L11.87368,14.19166 Z" id="Fill-24" fill="#344154"></path>
                <path d="M12.06594,16.10144 L4.23314,16.10144 C4.13634,16.10144 4.04554,16.05404 3.99154,15.97344 C3.93674,15.89364 3.92554,15.79204 3.96154,15.70204 L4.77674,13.64224 C4.83554,13.49224 5.00534,13.41824 5.15554,13.47844 C5.30574,13.53784 5.37894,13.70704 5.31974,13.85724 L4.66294,15.51744 L12.06594,15.51744 C12.22774,15.51744 12.35794,15.64784 12.35794,15.80944 C12.35794,15.97104 12.22774,16.10144 12.06594,16.10144" id="Fill-26" fill="#344154"></path>
                <path d="M5.04718,13.60748 C5.02818,13.60748 5.00958,13.61148 4.99178,13.61908 C4.95698,13.63408 4.93018,13.66168 4.91638,13.69688 L4.10098,15.75728 C4.08338,15.80108 4.08878,15.85008 4.11538,15.88868 C4.14198,15.92828 4.18558,15.95148 4.23318,15.95148 L12.06598,15.95148 C12.14418,15.95148 12.20798,15.88768 12.20798,15.80948 C12.20798,15.73108 12.14418,15.66748 12.06598,15.66748 L4.44238,15.66748 L5.18018,13.80228 C5.20898,13.72928 5.17318,13.64648 5.10058,13.61788 C5.08318,13.61108 5.06518,13.60748 5.04718,13.60748 M12.06598,16.25148 L4.23318,16.25148 C4.08558,16.25148 3.94878,16.17868 3.86718,16.05728 C3.78478,15.93688 3.76778,15.78288 3.82218,15.64628 L4.63718,13.58688 C4.68018,13.47728 4.76378,13.39068 4.87258,13.34388 C4.98098,13.29648 5.10138,13.29508 5.21138,13.33908 C5.43718,13.42828 5.54878,13.68588 5.45918,13.91228 L4.88378,15.36748 L12.06598,15.36748 C12.30978,15.36748 12.50798,15.56568 12.50798,15.80948 C12.50798,16.05328 12.30978,16.25148 12.06598,16.25148" id="Fill-28" fill="#344154"></path>
                <path d="M12.47082,21.4194 L1.07842,21.4194 C0.74702,21.4194 0.44782,21.2488 0.27962,20.963 C0.11142,20.6776 0.10722,20.3334 0.26802,20.0434 L1.82802,17.2288 C1.87902,17.1362 1.97702,17.0786 2.08322,17.0786 L12.06602,17.0786 C12.22762,17.0786 12.35802,17.2088 12.35802,17.3706 C12.35802,17.532 12.22762,17.6624 12.06602,17.6624 L2.25582,17.6624 L0.77862,20.3268 C0.69342,20.4814 0.75342,20.6158 0.78302,20.6668 C0.81302,20.7172 0.90182,20.8356 1.07842,20.8356 L12.47082,20.8356 C12.63242,20.8356 12.76282,20.9658 12.76282,21.1276 C12.76282,21.2892 12.63242,21.4194 12.47082,21.4194" id="Fill-30" fill="#344154"></path>
                <g id="Group-34" transform="translate(0.000000, 16.769400)">
                    <mask id="mask-4" fill="white">
                        <use xlink:href="#path-3"></use>
                    </mask>
                    <g id="Clip-33"></g>
                    <path d="M2.08332,0.45918 C2.03152,0.45918 1.98412,0.48698 1.95952,0.53158 L0.39932,3.34678 C0.26412,3.58998 0.26792,3.87818 0.40892,4.11738 C0.54972,4.35698 0.80012,4.49998 1.07852,4.49998 L12.47092,4.49998 C12.54912,4.49998 12.61272,4.43638 12.61272,4.35818 C12.61272,4.27998 12.54912,4.21618 12.47092,4.21618 L1.07852,4.21618 C0.82572,4.21618 0.69752,4.04698 0.65412,3.97438 C0.61092,3.89938 0.52572,3.70558 0.64712,3.48498 L2.16752,0.74298 L12.06592,0.74298 C12.14432,0.74298 12.20792,0.67938 12.20792,0.60118 C12.20792,0.52278 12.14432,0.45918 12.06592,0.45918 L2.08332,0.45918 Z M12.47092,4.79998 L1.07852,4.79998 C0.69272,4.79998 0.34572,4.60178 0.15032,4.26958 C-0.04528,3.93798 -0.05028,3.53838 0.13692,3.20118 L1.69672,0.38678 C1.77392,0.24658 1.92212,0.15918 2.08332,0.15918 L12.06592,0.15918 C12.30972,0.15918 12.50792,0.35738 12.50792,0.60118 C12.50792,0.84478 12.30972,1.04298 12.06592,1.04298 L2.34412,1.04298 L0.90992,3.62998 C0.86612,3.70938 0.88752,3.77838 0.91272,3.82218 C0.93772,3.86418 0.98772,3.91618 1.07852,3.91618 L12.47092,3.91618 C12.71452,3.91618 12.91272,4.11438 12.91272,4.35818 C12.91272,4.60178 12.71452,4.79998 12.47092,4.79998 L12.47092,4.79998 Z" id="Fill-32" fill="#344154" mask="url(#mask-4)"></path>
                </g>
                <path d="M18.3253,9.26354 C17.8063,9.26354 17.3841,9.68574 17.3841,10.20474 C17.3841,10.72374 17.8063,11.14594 18.3253,11.14594 C18.8443,11.14594 19.2671,10.72374 19.2671,10.20474 C19.2671,9.68574 18.8443,9.26354 18.3253,9.26354 M18.3253,11.72994 C17.4845,11.72994 16.8003,11.04574 16.8003,10.20474 C16.8003,9.36394 17.4845,8.67974 18.3253,8.67974 C19.1669,8.67974 19.8509,9.36394 19.8509,10.20474 C19.8509,11.04574 19.1669,11.72994 18.3253,11.72994" id="Fill-35" fill="#2475F9"></path>
                <path d="M18.3253,9.36354 C17.8615,9.36354 17.4841,9.74094 17.4841,10.20474 C17.4841,10.66854 17.8615,11.04594 18.3253,11.04594 C18.7895,11.04594 19.1671,10.66854 19.1671,10.20474 C19.1671,9.74094 18.7895,9.36354 18.3253,9.36354 M18.3253,11.24594 C17.7511,11.24594 17.2841,10.77894 17.2841,10.20474 C17.2841,9.63054 17.7511,9.16354 18.3253,9.16354 C18.8997,9.16354 19.3671,9.63054 19.3671,10.20474 C19.3671,10.77894 18.8997,11.24594 18.3253,11.24594 M18.3253,8.77974 C17.5395,8.77974 16.9003,9.41894 16.9003,10.20474 C16.9003,10.99074 17.5395,11.62994 18.3253,11.62994 C19.1115,11.62994 19.7509,10.99074 19.7509,10.20474 C19.7509,9.41894 19.1115,8.77974 18.3253,8.77974 M18.3253,11.82994 C17.4293,11.82994 16.7003,11.10094 16.7003,10.20474 C16.7003,9.30874 17.4293,8.57974 18.3253,8.57974 C19.2215,8.57974 19.9509,9.30874 19.9509,10.20474 C19.9509,11.10094 19.2215,11.82994 18.3253,11.82994" id="Fill-37" fill="#2475F9"></path>
                <path d="M12.1423,5.81178 C11.6233,5.81178 11.2011,6.23398 11.2011,6.75298 C11.2011,7.27198 11.6233,7.69478 12.1423,7.69478 C12.6613,7.69478 13.0835,7.27198 13.0835,6.75298 C13.0835,6.23398 12.6613,5.81178 12.1423,5.81178 M12.1423,8.27858 C11.3015,8.27858 10.6173,7.59438 10.6173,6.75298 C10.6173,5.91198 11.3015,5.22798 12.1423,5.22798 C12.9831,5.22798 13.6673,5.91198 13.6673,6.75298 C13.6673,7.59438 12.9831,8.27858 12.1423,8.27858" id="Fill-39" fill="#2475F9"></path>
                <path d="M12.1423,5.91178 C11.6785,5.91178 11.3011,6.28918 11.3011,6.75298 C11.3011,7.21718 11.6785,7.59478 12.1423,7.59478 C12.6061,7.59478 12.9835,7.21718 12.9835,6.75298 C12.9835,6.28918 12.6061,5.91178 12.1423,5.91178 M12.1423,7.79478 C11.5681,7.79478 11.1011,7.32738 11.1011,6.75298 C11.1011,6.17878 11.5681,5.71178 12.1423,5.71178 C12.7165,5.71178 13.1835,6.17878 13.1835,6.75298 C13.1835,7.32738 12.7165,7.79478 12.1423,7.79478 M12.1423,5.32798 C11.3565,5.32798 10.7173,5.96718 10.7173,6.75298 C10.7173,7.53918 11.3565,8.17858 12.1423,8.17858 C12.9281,8.17858 13.5673,7.53918 13.5673,6.75298 C13.5673,5.96718 12.9281,5.32798 12.1423,5.32798 M12.1423,8.37858 C11.2463,8.37858 10.5173,7.64938 10.5173,6.75298 C10.5173,5.85698 11.2463,5.12798 12.1423,5.12798 C13.0383,5.12798 13.7673,5.85698 13.7673,6.75298 C13.7673,7.64938 13.0383,8.37858 12.1423,8.37858" id="Fill-41" fill="#2475F9"></path>
                <path d="M6.53058,9.06432 C6.01138,9.06432 5.58858,9.48692 5.58858,10.00612 C5.58858,10.52512 6.01138,10.94712 6.53058,10.94712 C7.04958,10.94712 7.47178,10.52512 7.47178,10.00612 C7.47178,9.48692 7.04958,9.06432 6.53058,9.06432 M6.53058,11.53112 C5.68898,11.53112 5.00478,10.84692 5.00478,10.00612 C5.00478,9.16452 5.68898,8.48032 6.53058,8.48032 C7.37138,8.48032 8.05558,9.16452 8.05558,10.00612 C8.05558,10.84692 7.37138,11.53112 6.53058,11.53112" id="Fill-43" fill="#2475F9"></path>
                <path d="M6.53058,9.16432 C6.06638,9.16432 5.68858,9.54192 5.68858,10.00612 C5.68858,10.46972 6.06638,10.84712 6.53058,10.84712 C6.99438,10.84712 7.37178,10.46972 7.37178,10.00612 C7.37178,9.54192 6.99438,9.16432 6.53058,9.16432 M6.53058,11.04712 C5.95598,11.04712 5.48858,10.58012 5.48858,10.00612 C5.48858,9.43172 5.95598,8.96432 6.53058,8.96432 C7.10478,8.96432 7.57178,9.43172 7.57178,10.00612 C7.57178,10.58012 7.10478,11.04712 6.53058,11.04712 M6.53058,8.58032 C5.74438,8.58032 5.10478,9.21992 5.10478,10.00612 C5.10478,10.79192 5.74438,11.43112 6.53058,11.43112 C7.31638,11.43112 7.95558,10.79192 7.95558,10.00612 C7.95558,9.21992 7.31638,8.58032 6.53058,8.58032 M6.53058,11.63112 C5.63418,11.63112 4.90478,10.90212 4.90478,10.00612 C4.90478,9.10972 5.63418,8.38032 6.53058,8.38032 C7.42658,8.38032 8.15558,9.10972 8.15558,10.00612 C8.15558,10.90212 7.42658,11.63112 6.53058,11.63112" id="Fill-45" fill="#2475F9"></path>
                <path d="M5.22354,3.5948 C4.70454,3.5948 4.28174,4.0176 4.28174,4.5366 C4.28174,5.0556 4.70454,5.4778 5.22354,5.4778 C5.74254,5.4778 6.16474,5.0556 6.16474,4.5366 C6.16474,4.0176 5.74254,3.5948 5.22354,3.5948 M5.22354,6.0616 C4.38194,6.0616 3.69774,5.3774 3.69774,4.5366 C3.69774,3.695 4.38194,3.011 5.22354,3.011 C6.06434,3.011 6.74854,3.695 6.74854,4.5366 C6.74854,5.3774 6.06434,6.0616 5.22354,6.0616" id="Fill-47" fill="#2475F9"></path>
                <path d="M5.22354,3.6948 C4.75934,3.6948 4.38174,4.0724 4.38174,4.5366 C4.38174,5.0004 4.75934,5.3778 5.22354,5.3778 C5.68734,5.3778 6.06474,5.0004 6.06474,4.5366 C6.06474,4.0724 5.68734,3.6948 5.22354,3.6948 M5.22354,5.5778 C4.64914,5.5778 4.18174,5.1108 4.18174,4.5366 C4.18174,3.9622 4.64914,3.4948 5.22354,3.4948 C5.79774,3.4948 6.26474,3.9622 6.26474,4.5366 C6.26474,5.1108 5.79774,5.5778 5.22354,5.5778 M5.22354,3.111 C4.43734,3.111 3.79774,3.7504 3.79774,4.5366 C3.79774,5.3224 4.43734,5.9616 5.22354,5.9616 C6.00934,5.9616 6.64854,5.3224 6.64854,4.5366 C6.64854,3.7504 6.00934,3.111 5.22354,3.111 M5.22354,6.1616 C4.32714,6.1616 3.59774,5.4326 3.59774,4.5366 C3.59774,3.6404 4.32714,2.911 5.22354,2.911 C6.11954,2.911 6.84854,3.6404 6.84854,4.5366 C6.84854,5.4326 6.11954,6.1616 5.22354,6.1616" id="Fill-49" fill="#2475F9"></path>
                <path d="M18.3253,9.26354 C18.1637,9.26354 18.0335,9.13334 18.0335,8.97174 L18.0335,7.04474 L13.3729,7.04474 C13.2115,7.04474 13.0811,6.91454 13.0811,6.75294 C13.0811,6.59134 13.2115,6.46094 13.3729,6.46094 L18.3253,6.46094 C18.4869,6.46094 18.6173,6.59134 18.6173,6.75294 L18.6173,8.97174 C18.6173,9.13334 18.4869,9.26354 18.3253,9.26354" id="Fill-51" fill="#2475F9"></path>
                <path d="M13.37296,6.561 C13.26736,6.561 13.18116,6.6472 13.18116,6.753 C13.18116,6.8586 13.26736,6.9448 13.37296,6.9448 L18.13356,6.9448 L18.13356,8.9718 C18.13356,9.0774 18.21956,9.1636 18.32536,9.1636 C18.43116,9.1636 18.51736,9.0774 18.51736,8.9718 L18.51736,6.753 C18.51736,6.6472 18.43116,6.561 18.32536,6.561 L13.37296,6.561 Z M18.32536,9.3636 C18.10936,9.3636 17.93356,9.1878 17.93356,8.9718 L17.93356,7.1448 L13.37296,7.1448 C13.15696,7.1448 12.98116,6.969 12.98116,6.753 C12.98116,6.5368 13.15696,6.361 13.37296,6.361 L18.32536,6.361 C18.54156,6.361 18.71736,6.5368 18.71736,6.753 L18.71736,8.9718 C18.71736,9.1878 18.54156,9.3636 18.32536,9.3636 L18.32536,9.3636 Z" id="Fill-53" fill="#2475F9"></path>
                <path d="M10.96554,6.67604 C10.93674,6.67604 10.90674,6.67124 10.87814,6.66224 L6.29994,5.21964 C6.14594,5.17084 6.06034,5.00684 6.10894,4.85324 C6.15754,4.69864 6.32194,4.61584 6.47534,4.66224 L11.05334,6.10484 C11.20714,6.15364 11.29314,6.31744 11.24434,6.47124 C11.20454,6.59624 11.08994,6.67604 10.96554,6.67604" id="Fill-55" fill="#2475F9"></path>
                <path d="M6.38918,4.74928 C6.30698,4.74928 6.22998,4.80168 6.20418,4.88328 C6.17238,4.98408 6.22878,5.09208 6.33018,5.12428 L10.90818,6.56688 C11.01598,6.60068 11.11798,6.53908 11.14898,6.44088 C11.18098,6.34028 11.12458,6.23228 11.02318,6.20008 L6.44518,4.75748 C6.42658,4.75208 6.40798,4.74928 6.38918,4.74928 M10.96558,6.77608 C10.92718,6.77608 10.88658,6.76968 10.84818,6.75768 L6.26978,5.31488 C6.06338,5.24948 5.94858,5.02868 6.01358,4.82308 C6.07758,4.61908 6.29718,4.50348 6.50418,4.56648 L11.08358,6.00948 C11.18358,6.04108 11.26518,6.10968 11.31338,6.20248 C11.36198,6.29528 11.37118,6.40168 11.33958,6.50148 C11.28738,6.66568 11.13718,6.77608 10.96558,6.77608" id="Fill-57" fill="#2475F9"></path>
                <path d="M7.61886,9.65768 C7.51926,9.65768 7.42126,9.60668 7.36706,9.51348 C7.28546,9.37468 7.33166,9.19568 7.47106,9.11408 L10.91166,7.09168 C11.04966,7.01068 11.23006,7.05628 11.31106,7.19548 C11.39266,7.33448 11.34646,7.51328 11.20706,7.59508 L7.76666,9.61748 C7.72046,9.64508 7.66926,9.65768 7.61886,9.65768" id="Fill-59" fill="#2475F9"></path>
                <path d="M11.0589,7.15162 C11.0251,7.15162 10.9919,7.16042 10.9623,7.17802 L7.5215,9.20022 C7.4775,9.22622 7.4461,9.26782 7.4331,9.31742 C7.4201,9.36702 7.4273,9.41862 7.4533,9.46302 C7.5047,9.55102 7.6301,9.58282 7.7155,9.53142 L11.1565,7.50882 C11.2007,7.48282 11.2321,7.44122 11.2451,7.39162 C11.2581,7.34202 11.2509,7.29042 11.2249,7.24622 C11.1991,7.20222 11.1579,7.17102 11.1085,7.15802 C11.0921,7.15382 11.0753,7.15162 11.0589,7.15162 M7.6189,9.75762 C7.4797,9.75762 7.3501,9.68342 7.2805,9.56382 C7.2279,9.47382 7.2131,9.36842 7.2395,9.26702 C7.2657,9.16562 7.3301,9.08082 7.4205,9.02782 L10.8611,7.00562 C10.9513,6.95242 11.0573,6.93822 11.1593,6.96442 C11.2605,6.99102 11.3451,7.05542 11.3973,7.14522 C11.4503,7.23522 11.4649,7.34062 11.4385,7.44202 C11.4125,7.54342 11.3479,7.62842 11.2577,7.68122 L7.8173,9.70362 C7.7581,9.73902 7.6893,9.75762 7.6189,9.75762" id="Fill-61" fill="#2475F9"></path>
            </g>
        </g>
    </g>
</svg>