<?xml version="1.0" encoding="UTF-8"?>
<svg xmlns:xlink="http://www.w3.org/1999/xlink" width="18px" height="20px" viewBox="0 0 18 20" version="1.1" xmlns="http://www.w3.org/2000/svg">
    <title>Group 20</title>
    <defs>
        <polygon id="path-1" points="0 1.61554544e-15 5.99885866 1.61554544e-15 5.99885866 2.02614275 0 2.02614275"></polygon>
        <polygon id="path-3" points="0 1.61554544e-15 5.99884753 1.61554544e-15 5.99884753 2.02618822 0 2.02618822"></polygon>
        <polygon id="path-5" points="0 1.61554544e-15 5.99877528 1.61554544e-15 5.99877528 2.02618822 0 2.02618822"></polygon>
    </defs>
    <g id="Page-1" stroke="none" stroke-width="1" fill="none" fill-rule="evenodd">
        <g id="실신감지-1" transform="translate(-744.000000, -869.000000)">
            <g id="Group-20" transform="translate(744.000000, 869.000000)">
                <path d="M9.00017959,14.1374348 C8.25924346,14.1374348 7.65648221,14.7478036 7.65648221,15.4982311 C7.65648221,16.2484312 8.25924346,16.8588 9.00017959,16.8588 C9.74111573,16.8588 10.3437647,16.2484312 10.3437647,15.4982311 C10.3437647,14.7478036 9.74111573,14.1374348 9.00017959,14.1374348 M9.00017959,17.5818297 C7.86570883,17.5818297 6.94270962,16.6471206 6.94270962,15.4982311 C6.94270962,14.3492279 7.86570883,13.4146325 9.00017959,13.4146325 C10.1345381,13.4146325 11.0574251,14.3492279 11.0574251,15.4982311 C11.0574251,16.6471206 10.1345381,17.5818297 9.00017959,17.5818297" id="Fill-1" fill="#505050"></path>
                <g id="Group-5" transform="translate(6.000714, 17.973857)">
                    <mask id="mask-2" fill="white">
                        <use xlink:href="#path-1"></use>
                    </mask>
                    <g id="Clip-4"></g>
                    <path d="M5.64196238,2.02618822 C5.49884868,2.02618822 5.36370444,1.93831056 5.30904062,1.79495516 C5.064232,1.15366426 4.44328689,0.722802262 3.76419833,0.722802262 L2.23462149,0.722802262 C1.55553293,0.722802262 0.934700065,1.15366426 0.689779199,1.79484148 C0.6188397,1.98105571 0.411857996,2.07359441 0.228335715,2.00151881 C0.0443644498,1.9295569 -0.0470038295,1.72026484 0.024160162,1.53416429 C0.374592309,0.616507812 1.26301974,1.61554544e-15 2.23462149,1.61554544e-15 L3.76419833,1.61554544e-15 C4.73602457,1.61554544e-15 5.62433976,0.616507812 5.9747719,1.53427797 C6.04582365,1.72037852 5.95434312,1.92967059 5.77059635,2.0016325 C5.72839184,2.01834403 5.68472813,2.02618822 5.64196238,2.02618822" id="Fill-3" fill="#505050" mask="url(#mask-2)"></path>
                </g>
                <path d="M2.99950612,12.3937624 C2.25845774,12.3937624 1.65569649,13.0041313 1.65569649,13.7545587 C1.65569649,14.5047588 2.25845774,15.1151277 2.99950612,15.1151277 C3.74033,15.1151277 4.34297901,14.5047588 4.34297901,13.7545587 C4.34297901,13.0041313 3.74033,12.3937624 2.99950612,12.3937624 M2.99950612,15.8381573 C1.86503536,15.8381573 0.942036143,14.9034483 0.942036143,13.7545587 C0.942036143,12.6055555 1.86503536,11.6709601 2.99950612,11.6709601 C4.13386463,11.6709601 5.0567516,12.6055555 5.0567516,13.7545587 C5.0567516,14.9034483 4.13386463,15.8381573 2.99950612,15.8381573" id="Fill-6" fill="#505050"></path>
                <g id="Group-10" transform="translate(0.000000, 16.230071)">
                    <mask id="mask-4" fill="white">
                        <use xlink:href="#path-3"></use>
                    </mask>
                    <g id="Clip-9"></g>
                    <path d="M5.64200247,2.02618822 C5.49877652,2.02618822 5.36374453,1.93842425 5.30896846,1.79506884 C5.06415984,1.15366426 4.44332697,0.722802262 3.76423841,0.722802262 L2.23454933,0.722802262 C1.55546077,0.722802262 0.934627904,1.15366426 0.689819284,1.79484148 C0.618767538,1.98094203 0.412122573,2.07359441 0.228263554,2.00151881 C0.0444045347,1.92944322 -0.0469637445,1.72026484 0.0240880009,1.5340506 C0.374632394,0.616507812 1.26294758,1.61554544e-15 2.23454933,1.61554544e-15 L3.76423841,1.61554544e-15 C4.73595241,1.61554544e-15 5.62437984,0.616621496 5.97469974,1.53427797 C6.04586373,1.72060589 5.95438321,1.92967059 5.77063644,2.00174618 C5.72831968,2.01834403 5.68476821,2.02618822 5.64200247,2.02618822" id="Fill-8" fill="#505050" mask="url(#mask-4)"></path>
                </g>
                <path d="M15.0006286,12.553079 C14.2595802,12.553079 13.6569312,13.1634479 13.6569312,13.9138754 C13.6569312,14.6640754 14.2595802,15.2744443 15.0006286,15.2744443 C15.7415647,15.2744443 16.3442137,14.6640754 16.3442137,13.9138754 C16.3442137,13.1634479 15.7415647,12.553079 15.0006286,12.553079 M15.0006286,15.9974739 C13.8662701,15.9974739 12.9432708,15.0627649 12.9432708,13.9138754 C12.9432708,12.7648721 13.8662701,11.8302768 15.0006286,11.8302768 C16.1349871,11.8302768 17.0579863,12.7648721 17.0579863,13.9138754 C17.0579863,15.0627649 16.1349871,15.9974739 15.0006286,15.9974739" id="Fill-11" fill="#505050"></path>
                <g id="Group-15" transform="translate(12.001225, 16.389388)">
                    <mask id="mask-6" fill="white">
                        <use xlink:href="#path-5"></use>
                    </mask>
                    <g id="Clip-14"></g>
                    <path d="M5.64200123,2.02618822 C5.49877528,2.02618822 5.36374329,1.93842425 5.30907946,1.79506884 C5.06427084,1.15366426 4.44332573,0.722802262 3.76423717,0.722802262 L2.23454809,0.722802262 C1.55557177,0.722802262 0.934626663,1.15366426 0.689818043,1.79495516 C0.618654051,1.98105571 0.412233578,2.07382178 0.228262313,2.0016325 C0.0445155396,1.9295569 -0.0469649857,1.72037852 0.0240867598,1.53416429 C0.374518907,0.616507812 1.26283409,1.61554544e-15 2.23454809,1.61554544e-15 L3.76423717,1.61554544e-15 C4.73606341,1.61554544e-15 5.6243786,0.616621496 5.9746985,1.53427797 C6.04586249,1.72060589 5.95438197,1.92967059 5.77063519,2.00174618 C5.72831844,2.01834403 5.68476697,2.02618822 5.64200123,2.02618822" id="Fill-13" fill="#505050" mask="url(#mask-6)"></path>
                </g>
                <path d="M8.62321248,8.05746041 C8.53195645,8.05746041 8.44058817,8.02210471 8.37088338,7.95162069 L6.73815243,6.29786094 C6.59874284,6.1568929 6.59874284,5.92793352 6.73815243,5.78673811 C6.87756202,5.64565638 7.10340106,5.64565638 7.24281064,5.78673811 L8.62321248,7.18493644 L11.0398698,4.73732199 C11.1792794,4.59612658 11.4051184,4.59612658 11.544528,4.73732199 C11.6840498,4.87840371 11.6840498,5.1073631 11.544528,5.24844482 L8.87554159,7.95162069 C8.80583679,8.02210471 8.71446851,8.05746041 8.62321248,8.05746041" id="Fill-16" fill="#F7778A"></path>
                <path d="M4.73087889,2.68788541 L4.73087889,7.36586438 C4.73087889,8.29602608 5.09859692,9.12671437 5.71460321,9.5877026 C6.41883489,10.1147412 8.49718262,11.5047543 8.7318891,11.6616381 L9.00015714,11.8408039 L9.26618027,11.6632296 C9.50335616,11.5047543 11.5817039,10.1147412 12.2860478,9.58758891 C12.9019419,9.12671437 13.2696599,8.29602608 13.2696599,7.36586438 L13.2696599,2.68788541 C11.5099787,2.52918268 9.63255135,1.26979239 9.00015714,0.81085047 C8.36787518,1.26979239 6.49067235,2.52918268 4.73087889,2.68788541 M9.00015714,12.6351133 C8.9317993,12.6351133 8.86332922,12.6152186 8.80372657,12.5754293 L8.34149736,12.2668912 C8.10252554,12.1070516 6.00958581,10.7072617 5.29031317,10.1691958 C4.49302952,9.57224159 4.0171063,8.52441704 4.0171063,7.36586438 L4.0171063,2.34285476 C4.0171063,2.14322582 4.17683242,1.98145363 4.37393647,1.98145363 C6.33274217,1.98145363 8.75714446,0.094755558 8.78150185,0.075770346 C8.91002357,-0.0251809607 9.09006623,-0.0252946446 9.21881244,0.0756566621 C9.24305758,0.094755558 11.6713885,1.98145363 13.6266023,1.98145363 C13.8237064,1.98145363 13.9834325,2.14322582 13.9834325,2.34285476 L13.9834325,7.36586438 C13.9834325,8.52441704 13.507397,9.57224159 12.7102256,10.1689684 C11.9910652,10.7072617 9.897901,12.1070516 9.66173532,12.2650722 L9.19647547,12.5754293 C9.13709732,12.6152186 9.06873948,12.6351133 9.00015714,12.6351133" id="Fill-18" fill="#F7778A"></path>
            </g>
        </g>
    </g>
</svg>