<?xml version="1.0" encoding="UTF-8"?>
<svg width="16px" height="18px" viewBox="0 0 16 18" version="1.1" xmlns="http://www.w3.org/2000/svg" xmlns:xlink="http://www.w3.org/1999/xlink">
    <!-- Generator: Sketch 53.2 (72643) - https://sketchapp.com -->
    <title>ico_lan_itf@1x</title>
    <desc>Created with Sketch.</desc>
    <defs>
        <polygon id="path-1" points="0.0388820513 0.0452205128 6.67538462 0.0452205128 6.67538462 6.68163077 0.0388820513 6.68163077"></polygon>
        <polygon id="path-3" points="0 17.4358974 15.9061538 17.4358974 15.9061538 0.0742564103 0 0.0742564103"></polygon>
    </defs>
    <g id="Page-1" stroke="none" stroke-width="1" fill="none" fill-rule="evenodd">
        <g id="new_console_menu_icons_puble" transform="translate(-122.000000, -223.000000)">
            <g id="ico_lan_itf" transform="translate(122.000000, 223.000000)">
                <polygon id="Fill-1" fill="#344154" points="0 0.102605128 0 17.4642462 10.3087179 17.4642462 10.3087179 16.8609641 0.603282051 16.8609641 0.603282051 0.705887179 9.73025641 0.705887179 12.2865641 3.26188718 12.2865641 4.47768205 12.8895385 4.47768205 12.8895385 3.01204103 9.98010256 0.102605128"></polygon>
                <polygon id="Fill-2" fill="#344154" points="12.5879077 3.43872821 9.55344615 3.43872821 9.55344615 0.404369231 10.1568308 0.404369231 10.1568308 2.83534359 12.5879077 2.83534359"></polygon>
                <g id="Group-32" transform="translate(0.000000, 0.028308)">
                    <g id="Group-5" transform="translate(9.230769, 4.102564)">
                        <mask id="mask-2" fill="white">
                            <use xlink:href="#path-1"></use>
                        </mask>
                        <g id="Clip-4"></g>
                        <path d="M3.35713846,0.648502564 C1.85990769,0.648502564 0.642266667,1.86634872 0.642266667,3.36347692 C0.642266667,4.8604 1.85990769,6.07824615 3.35713846,6.07824615 C4.85406154,6.07824615 6.07201026,4.8604 6.07201026,3.36347692 C6.07201026,1.86634872 4.85406154,0.648502564 3.35713846,0.648502564 M3.35713846,6.68163077 C1.52729231,6.68163077 0.0388820513,5.19311795 0.0388820513,3.36347692 C0.0388820513,1.53373333 1.52729231,0.0452205128 3.35713846,0.0452205128 C5.18667692,0.0452205128 6.67539487,1.53373333 6.67539487,3.36347692 C6.67539487,5.19311795 5.18667692,6.68163077 3.35713846,6.68163077" id="Fill-3" fill="#27C4AA" mask="url(#mask-2)"></path>
                    </g>
                    <path d="M11.1464923,7.46601026 L10.5431077,7.46601026 C10.5431077,6.33872821 11.4603385,5.42149744 12.5879282,5.42149744 L12.5879282,6.02467692 C11.7932615,6.02467692 11.1464923,6.67124103 11.1464923,7.46601026" id="Fill-6" fill="#27C4AA"></path>
                    <path d="M12.5879077,17.4358667 C12.2567282,17.4358667 11.9453436,17.306841 11.7110872,17.0727897 C11.4767282,16.8384308 11.3478051,16.5270462 11.3478051,16.1956615 L11.3478051,10.3105333 L11.9508821,10.3105333 L11.9508821,16.1956615 C11.9508821,16.3657128 12.0173436,16.5258154 12.1376513,16.6459179 C12.257959,16.7663282 12.4178564,16.8326872 12.5879077,16.8326872 C12.757959,16.8326872 12.9181641,16.7663282 13.0384718,16.6459179 C13.1584718,16.5258154 13.2246256,16.3657128 13.2246256,16.1956615 L13.2246256,10.3105333 L13.8280103,10.3105333 L13.8280103,16.1956615 C13.8280103,16.5269436 13.6990872,16.8383282 13.4651385,17.0724821 C13.2303692,17.306841 12.9190872,17.4358667 12.5879077,17.4358667" id="Fill-8" fill="#27C4AA"></path>
                    <mask id="mask-4" fill="white">
                        <use xlink:href="#path-3"></use>
                    </mask>
                    <g id="Clip-11"></g>
                    <polygon id="Fill-10" fill="#344154" mask="url(#mask-4)" points="2.98297436 15.4764103 10.3087179 15.4764103 10.3087179 14.8732308 2.98297436 14.8732308"></polygon>
                    <polygon id="Fill-12" fill="#344154" mask="url(#mask-4)" points="2.98297436 14.1358974 10.3087179 14.1358974 10.3087179 13.5327179 2.98297436 13.5327179"></polygon>
                    <polygon id="Fill-13" fill="#344154" mask="url(#mask-4)" points="2.98297436 12.7953846 10.3087179 12.7953846 10.3087179 12.1918974 2.98297436 12.1918974"></polygon>
                    <polygon id="Fill-14" fill="#344154" mask="url(#mask-4)" points="2.98297436 11.4544615 10.3087179 11.4544615 10.3087179 10.8511795 2.98297436 10.8511795"></polygon>
                    <polygon id="Fill-15" fill="#344154" mask="url(#mask-4)" points="2.98307692 10.1137436 8.23066667 10.1137436 8.23066667 9.51035897 2.98307692 9.51035897"></polygon>
                    <polygon id="Fill-16" fill="#344154" mask="url(#mask-4)" points="2.98307692 8.77312821 8.23066667 8.77312821 8.23066667 8.16984615 2.98307692 8.16984615"></polygon>
                    <polygon id="Fill-17" fill="#344154" mask="url(#mask-4)" points="2.98307692 7.43241026 8.23066667 7.43241026 8.23066667 6.82902564 2.98307692 6.82902564"></polygon>
                    <polygon id="Fill-18" fill="#344154" mask="url(#mask-4)" points="2.98307692 6.09169231 8.23066667 6.09169231 8.23066667 5.48851282 2.98307692 5.48851282"></polygon>
                    <polygon id="Fill-19" fill="#344154" mask="url(#mask-4)" points="2.98307692 4.75107692 8.23066667 4.75107692 8.23066667 4.14779487 2.98307692 4.14779487"></polygon>
                    <polygon id="Fill-20" fill="#344154" mask="url(#mask-4)" points="1.64235897 15.4764103 2.31271795 15.4764103 2.31271795 14.8732308 1.64235897 14.8732308"></polygon>
                    <polygon id="Fill-21" fill="#344154" mask="url(#mask-4)" points="1.64235897 14.1358974 2.31271795 14.1358974 2.31271795 13.5327179 1.64235897 13.5327179"></polygon>
                    <polygon id="Fill-22" fill="#344154" mask="url(#mask-4)" points="1.64235897 12.7953846 2.31271795 12.7953846 2.31271795 12.1918974 1.64235897 12.1918974"></polygon>
                    <polygon id="Fill-23" fill="#344154" mask="url(#mask-4)" points="1.64235897 11.4544615 2.31271795 11.4544615 2.31271795 10.8511795 1.64235897 10.8511795"></polygon>
                    <polygon id="Fill-24" fill="#344154" mask="url(#mask-4)" points="1.64235897 10.1137436 2.31271795 10.1137436 2.31271795 9.51035897 1.64235897 9.51035897"></polygon>
                    <polygon id="Fill-25" fill="#344154" mask="url(#mask-4)" points="1.64235897 8.77312821 2.31271795 8.77312821 2.31271795 8.16984615 1.64235897 8.16984615"></polygon>
                    <polygon id="Fill-26" fill="#344154" mask="url(#mask-4)" points="1.64235897 7.43241026 2.31271795 7.43241026 2.31271795 6.82902564 1.64235897 6.82902564"></polygon>
                    <polygon id="Fill-27" fill="#344154" mask="url(#mask-4)" points="1.64235897 6.09169231 2.31271795 6.09169231 2.31271795 5.48851282 1.64235897 5.48851282"></polygon>
                    <polygon id="Fill-28" fill="#344154" mask="url(#mask-4)" points="1.64235897 4.75107692 2.31271795 4.75107692 2.31271795 4.14779487 1.64235897 4.14779487"></polygon>
                    <polygon id="Fill-29" fill="#344154" mask="url(#mask-4)" points="1.64235897 3.41046154 2.31271795 3.41046154 2.31271795 2.80707692 1.64235897 2.80707692"></polygon>
                    <polygon id="Fill-30" fill="#344154" mask="url(#mask-4)" points="2.98307692 3.41046154 3.6534359 3.41046154 3.6534359 2.80707692 2.98307692 2.80707692"></polygon>
                    <polygon id="Fill-31" fill="#344154" mask="url(#mask-4)" points="4.32379487 3.41046154 4.99394872 3.41046154 4.99394872 2.80707692 4.32379487 2.80707692"></polygon>
                </g>
            </g>
        </g>
    </g>
</svg>