<svg xmlns="http://www.w3.org/2000/svg" xmlns:xlink="http://www.w3.org/1999/xlink" width="17" height="20" viewBox="0 0 17 20">
    <defs>
        <path id="prefix__a" d="M0.073 0.101L2.208 0.101 2.208 2.236 0.073 2.236z"/>
        <path id="prefix__c" d="M0.073 0.027L2.208 0.027 2.208 2.161 0.073 2.161z"/>
        <path id="prefix__e" d="M0.003 0.072L11.739 0.072 11.739 5.056 0.003 5.056z"/>
    </defs>
    <g fill="none" fill-rule="evenodd">
        <path fill="#F7778A" d="M2.135 5.606c0 .589-.478 1.067-1.068 1.067C.478 6.673 0 6.195 0 5.606c0-.59.478-1.068 1.067-1.068.59 0 1.068.478 1.068 1.068"/>
        <g transform="translate(13.915 4.437)">
            <mask id="prefix__b" fill="#fff">
                <use xlink:href="#prefix__a"/>
            </mask>
            <path fill="#2CACE5" d="M2.208 1.168c0 .59-.478 1.068-1.068 1.068-.59 0-1.067-.478-1.067-1.068C.073.578.55.101 1.14.101c.59 0 1.068.478 1.068 1.067" mask="url(#prefix__b)"/>
        </g>
        <path fill="#27C4AA" d="M2.135 14.292c0 .59-.478 1.068-1.068 1.068C.478 15.36 0 14.882 0 14.292c0-.59.478-1.067 1.067-1.067.59 0 1.068.478 1.068 1.067"/>
        <g transform="translate(13.915 13.198)">
            <mask id="prefix__d" fill="#fff">
                <use xlink:href="#prefix__c"/>
            </mask>
            <path fill="#7D71D1" d="M2.208 1.094c0 .59-.478 1.067-1.068 1.067-.59 0-1.067-.478-1.067-1.067C.073.504.55.027 1.14.027c.59 0 1.068.477 1.068 1.067" mask="url(#prefix__d)"/>
        </g>
        <g transform="translate(2.19 .057)">
            <mask id="prefix__f" fill="#fff">
                <use xlink:href="#prefix__e"/>
            </mask>
            <path fill="#344154" d="M6.567 1.511c0 .384-.312.696-.696.696-.384 0-.696-.312-.696-.696 0-.384.312-.696.696-.696.384 0 .696.312.696.696m4.986 2.852l-3.999-2.31c-.086-.049-.186-.062-.282-.036-.022.006-.044.014-.064.024.065-.164.102-.343.102-.53C7.31.718 6.665.072 5.871.072s-1.44.646-1.44 1.44c0 .186.038.365.103.529-.02-.01-.043-.019-.066-.025-.096-.025-.196-.012-.28.038L.188 4.363c-.086.05-.148.13-.174.226-.025.096-.012.196.038.281.066.115.19.186.322.186.065 0 .13-.017.186-.05l3.998-2.308c.086-.05.148-.13.174-.227.006-.022.01-.045.01-.068.265.333.672.547 1.128.547.456 0 .863-.214 1.126-.546.002.022.006.045.012.067.025.097.087.177.173.226l4 2.31c.056.032.12.05.186.05.132 0 .255-.072.321-.186.05-.086.063-.186.038-.282-.026-.097-.088-.177-.174-.226" mask="url(#prefix__f)"/>
        </g>
        <path fill="#344154" d="M1.067 6.964c-.205 0-.371.167-.371.372v5.145c0 .205.166.372.371.372s.372-.167.372-.372V7.336c0-.205-.167-.372-.372-.372M15.055 6.964c-.205 0-.372.167-.372.372v5.226c0 .205.167.372.372.372s.372-.167.372-.372V7.336c0-.205-.167-.372-.372-.372M7.458 9.298l.001-.002v-.001c.121-.208.346-.348.602-.348.257 0 .48.14.601.347l.001.002.002.002c.058.102.092.22.092.346 0 .383-.312.695-.696.695-.383 0-.696-.312-.696-.695 0-.126.034-.244.093-.346m.603 8.336c.384 0 .696.312.696.696 0 .384-.312.696-.696.696-.383 0-.696-.312-.696-.696 0-.384.313-.696.696-.696m5.591-2.83c-.096-.026-.196-.012-.28.037l-4 2.309c-.086.05-.147.13-.173.226-.006.02-.009.042-.01.063-.245-.309-.612-.514-1.028-.543.156-.044.272-.186.272-.356v-5.508c.614-.164 1.067-.723 1.067-1.388 0-.13-.018-.254-.05-.373l4.293-2.479c.086-.05.148-.13.174-.226.025-.096.012-.196-.038-.281-.05-.087-.13-.148-.226-.174-.096-.026-.197-.013-.281.037L9.079 8.627c-.26-.261-.62-.423-1.018-.423-.397 0-.757.162-1.017.423L2.75 6.149c-.086-.05-.186-.064-.282-.038-.096.026-.177.087-.226.173-.05.086-.063.186-.037.282.026.096.087.176.173.226l4.294 2.479c-.032.119-.05.244-.05.373 0 .665.453 1.224 1.067 1.388v5.508c0 .17.115.312.272.356-.417.029-.786.235-1.03.545-.002-.022-.005-.044-.011-.066-.026-.097-.088-.177-.174-.226l-3.998-2.31c-.086-.049-.186-.062-.282-.037-.097.026-.177.088-.226.173-.05.086-.063.186-.038.282.026.096.088.177.174.226l3.999 2.31c.056.032.12.049.186.049.057 0 .112-.016.162-.04-.065.164-.102.342-.102.528 0 .794.646 1.44 1.44 1.44.793 0 1.438-.646 1.438-1.44 0-.185-.036-.362-.1-.525.049.023.102.038.158.038.066 0 .13-.017.186-.05l3.999-2.308c.086-.05.148-.13.174-.226.025-.096.012-.197-.038-.282-.05-.086-.13-.147-.227-.173"/>
    </g>
</svg>
