<?xml version="1.0" encoding="UTF-8"?>
<svg width="18px" height="18px" viewBox="0 0 18 18" version="1.1" xmlns="http://www.w3.org/2000/svg" xmlns:xlink="http://www.w3.org/1999/xlink">
    <!-- Generator: Sketch 53.2 (72643) - https://sketchapp.com -->
    <title>ico_myvoice</title>
    <desc>Created with Sketch.</desc>
    <defs>
        <polygon id="path-1" points="0 0.0546214286 0.642835714 0.0546214286 0.642835714 3.14772857 0 3.14772857"></polygon>
        <polygon id="path-3" points="0 17.1428571 17.9663571 17.1428571 17.9663571 0.0620357143 0 0.0620357143"></polygon>
    </defs>
    <g id="Page-1" stroke="none" stroke-width="1" fill="none" fill-rule="evenodd">
        <g id="new_console_menu_icons_puble" transform="translate(-19.000000, -404.000000)">
            <g id="ico_myvoice" transform="translate(19.000000, 404.000000)">
                <path d="M14.728575,9.14611071 L14.728575,5.28950357 L14.728575,9.14611071 Z" id="Fill-1" fill="#344154"></path>
                <g id="Group-38" transform="translate(0.000000, 0.045107)">
                    <path d="M14.7258429,9.42237857 C14.5483071,9.42237857 14.4044143,9.27848571 14.4044143,9.10095 L14.4044143,5.24434286 C14.4044143,5.06680714 14.5483071,4.92291429 14.7258429,4.92291429 C14.9033786,4.92291429 15.0472714,5.06680714 15.0472714,5.24434286 L15.0472714,9.10095 C15.0472714,9.27848571 14.9033786,9.42237857 14.7258429,9.42237857" id="Fill-2" fill="#344154"></path>
                    <path d="M16.1880214,3.77697857 L16.1880214,10.5684429" id="Fill-4" fill="#344154"></path>
                    <path d="M16.1853429,10.8897429 C16.0078071,10.8897429 15.8639143,10.74585 15.8639143,10.5683143 L15.8639143,3.77685 C15.8639143,3.59931429 16.0078071,3.45542143 16.1853429,3.45542143 C16.3628786,3.45542143 16.5067714,3.59931429 16.5067714,3.77685 L16.5067714,10.5683143 C16.5067714,10.74585 16.3628786,10.8897429 16.1853429,10.8897429" id="Fill-6" fill="#344154"></path>
                    <path d="M17.6475321,5.94756429 L17.6475321,8.39781429" id="Fill-8" fill="#344154"></path>
                    <path d="M17.6448536,8.71915714 C17.4673179,8.71915714 17.323425,8.57526429 17.323425,8.39772857 L17.323425,5.94747857 C17.323425,5.76994286 17.4673179,5.62605 17.6448536,5.62605 C17.8223893,5.62605 17.9662821,5.76994286 17.9662821,5.94747857 L17.9662821,8.39772857 C17.9662821,8.57526429 17.8223893,8.71915714 17.6448536,8.71915714" id="Fill-10" fill="#344154"></path>
                    <path d="M3.24304286,5.24433214 L3.24304286,9.10093929" id="Fill-12" fill="#344154"></path>
                    <path d="M3.24031071,9.42237857 C3.41784643,9.42237857 3.56173929,9.27848571 3.56173929,9.10095 L3.56173929,5.24434286 C3.56173929,5.06680714 3.41784643,4.92291429 3.24031071,4.92291429 C3.062775,4.92291429 2.91888214,5.06680714 2.91888214,5.24434286 L2.91888214,9.10095 C2.91888214,9.27848571 3.062775,9.42237857 3.24031071,9.42237857" id="Fill-14" fill="#344154"></path>
                    <path d="M1.78353214,3.77697857 L1.78353214,10.5684429" id="Fill-16" fill="#344154"></path>
                    <path d="M1.7808,10.8897429 C1.95833571,10.8897429 2.10222857,10.74585 2.10222857,10.5683143 L2.10222857,3.77685 C2.10222857,3.59931429 1.95833571,3.45542143 1.7808,3.45542143 C1.60326429,3.45542143 1.45937143,3.59931429 1.45937143,3.77685 L1.45937143,10.5683143 C1.45937143,10.74585 1.60326429,10.8897429 1.7808,10.8897429" id="Fill-18" fill="#344154"></path>
                    <path d="M0.324085714,5.94756429 L0.324085714,8.39781429" id="Fill-20" fill="#344154"></path>
                    <g id="Group-24" transform="translate(0.000000, 5.571429)">
                        <mask id="mask-2" fill="white">
                            <use xlink:href="#path-1"></use>
                        </mask>
                        <g id="Clip-23"></g>
                        <path d="M0.321407143,3.14772857 C0.498942857,3.14772857 0.642835714,3.00383571 0.642835714,2.8263 L0.642835714,0.37605 C0.642835714,0.198514286 0.498942857,0.0546214286 0.321407143,0.0546214286 C0.143871429,0.0546214286 -2.14285714e-05,0.198514286 -2.14285714e-05,0.37605 L-2.14285714e-05,2.8263 C-2.14285714e-05,3.00383571 0.143871429,3.14772857 0.321407143,3.14772857" id="Fill-22" fill="#344154" mask="url(#mask-2)"></path>
                    </g>
                    <path d="M7.28395714,0.704892857 C6.2406,0.704892857 5.39170714,1.55367857 5.39170714,2.59703571 L5.39170714,10.6233214 C5.39170714,11.6667857 6.2406,12.5154643 7.28395714,12.5154643 L10.6824214,12.5154643 C11.4540643,12.5154643 12.1417071,12.0520714 12.4344214,11.3349643 C12.5034214,11.1657857 12.54735,10.9896429 12.5650286,10.8117857 C12.57135,10.7483571 12.5745643,10.6849286 12.5745643,10.6233214 L12.5745643,2.59703571 C12.5745643,1.55367857 11.7257786,0.704892857 10.6824214,0.704892857 L7.28395714,0.704892857 Z M10.6824214,13.1583214 L7.28395714,13.1583214 C5.88606429,13.1583214 4.74885,12.0211071 4.74885,10.6233214 L4.74885,2.59703571 C4.74885,1.19925 5.88606429,0.0620357143 7.28395714,0.0620357143 L10.6824214,0.0620357143 C12.0802071,0.0620357143 13.2174214,1.19925 13.2174214,2.59703571 L13.2174214,10.6233214 C13.2174214,10.70625 13.2131357,10.791 13.2047786,10.8754286 C13.1809929,11.1147857 13.1220643,11.3510357 13.0297071,11.57775 C12.6377786,12.5379643 11.7164571,13.1583214 10.6824214,13.1583214 L10.6824214,13.1583214 Z" id="Fill-25" fill="#344154"></path>
                    <path d="M10.0079464,14.7171643 L7.95808929,14.7171643 C7.78494643,14.7171643 7.62176786,14.6497714 7.49908929,14.5272 C7.37673214,14.4047357 7.309125,14.2415571 7.309125,14.0682 L7.309125,13.0432714 L7.924125,13.0432714 L7.924125,14.0682 C7.924125,14.0774143 7.92744643,14.08545 7.93398214,14.0920929 C7.94073214,14.0988429 7.94876786,14.1023786 7.95808929,14.1023786 L10.0079464,14.1023786 C10.0171607,14.1023786 10.025625,14.0988429 10.0320536,14.0923071 C10.0389107,14.08545 10.0422321,14.0774143 10.0422321,14.0682 L10.0422321,13.0432714 L10.6572321,13.0432714 L10.6572321,14.0682 C10.6572321,14.2415571 10.5895179,14.4047357 10.4668393,14.5272 C10.3441607,14.6497714 10.1813036,14.7171643 10.0079464,14.7171643" id="Fill-27" fill="#344154"></path>
                    <mask id="mask-4" fill="white">
                        <use xlink:href="#path-3"></use>
                    </mask>
                    <g id="Clip-30"></g>
                    <polygon id="Fill-29" fill="#344154" mask="url(#mask-4)" points="9.35892857 17.1428571 9.97392857 17.1428571 9.97392857 14.4096429 9.35892857 14.4096429"></polygon>
                    <polygon id="Fill-31" fill="#344154" mask="url(#mask-4)" points="7.99232143 17.1428571 8.60732143 17.1428571 8.60732143 14.4096429 7.99232143 14.4096429"></polygon>
                    <path d="M8.185725,9.70551429 C8.30358214,9.58755 8.38168929,9.43883571 8.41811786,9.27940714 C8.43279643,9.21522857 8.44233214,9.14976429 8.44233214,9.08301429 C8.44233214,9.01637143 8.43279643,8.95090714 8.41811786,8.88662143 C8.38168929,8.7273 8.30358214,8.57858571 8.185725,8.46094286 C8.08115357,8.35508571 7.94765357,8.28737143 7.80526071,8.24987143 C7.50708214,8.17165714 7.16604643,8.23937143 6.94468929,8.46094286 C6.77936786,8.62605 6.68443929,8.85094286 6.68443929,9.08301429 C6.68443929,9.31508571 6.77936786,9.54008571 6.94468929,9.70551429 C7.11001071,9.86719286 7.33490357,9.96201429 7.56333214,9.96201429 C7.64583214,9.96201429 7.72661786,9.94615714 7.80526071,9.92355 C7.94818929,9.8823 8.081475,9.80976429 8.185725,9.70551429" id="Fill-32" fill="#344154" mask="url(#mask-4)"></path>
                    <path d="M7.56698571,5.00483571 C7.79552143,5.00483571 8.02405714,4.90969286 8.18573571,4.74458571 C8.35105714,4.58290714 8.44234286,4.35415714 8.44234286,4.12594286 C8.44234286,3.89376429 8.35105714,3.66512143 8.18573571,3.50333571 C7.85884286,3.17655 7.2717,3.17655 6.9447,3.50333571 C6.77937857,3.66512143 6.68809286,3.89376429 6.68809286,4.12594286 C6.68809286,4.35415714 6.77937857,4.58290714 6.9447,4.74458571 C7.10637857,4.90969286 7.33491429,5.00483571 7.56698571,5.00483571" id="Fill-33" fill="#344154" mask="url(#mask-4)"></path>
                    <path d="M7.56338571,7.48345714 C7.64588571,7.48345714 7.72656429,7.4676 7.80531429,7.44477857 C7.94813571,7.40320714 8.08142143,7.32981429 8.18577857,7.22320714 C8.30117143,7.11027857 8.37970714,6.96392143 8.41817143,6.80856429 C8.43467143,6.74149286 8.44602857,6.67335 8.44602857,6.60445714 C8.44602857,6.53449286 8.43467143,6.46570714 8.41817143,6.3981 C8.37970714,6.24156429 8.30117143,6.09531429 8.18577857,5.98227857 C8.1366,5.93256429 8.08002857,5.89302857 8.02045714,5.85852857 C7.68767143,5.66524286 7.22202857,5.70477857 6.94474286,5.98227857 C6.77942143,6.14406429 6.68438571,6.37238571 6.68438571,6.60445714 C6.68438571,6.8331 6.77942143,7.06152857 6.94474286,7.22320714 C7.10642143,7.38863571 7.33495714,7.48345714 7.56338571,7.48345714" id="Fill-34" fill="#344154" mask="url(#mask-4)"></path>
                    <path d="M10.9402607,8.39573571 C10.743975,8.24605714 10.4855464,8.18895 10.2426536,8.22955714 C10.0692964,8.2587 9.90504643,8.33498571 9.78065357,8.46087857 C9.61533214,8.62598571 9.52393929,8.85098571 9.52393929,9.08305714 C9.52393929,9.31512857 9.61533214,9.54012857 9.78065357,9.70555714 C9.94233214,9.86712857 10.1707607,9.96195 10.4029393,9.96195 C10.4854393,9.96195 10.5663321,9.94577143 10.6452964,9.92230714 C10.7849036,9.88084286 10.9159393,9.80873571 11.0216893,9.70555714 C11.1319393,9.59509286 11.2072607,9.4572 11.2476536,9.30945 C11.2677964,9.23573571 11.2818321,9.16030714 11.2818321,9.08305714 C11.2818321,8.85098571 11.1870107,8.62598571 11.0216893,8.46087857 C10.9968321,8.43612857 10.9679036,8.41673571 10.9402607,8.39573571" id="Fill-35" fill="#344154" mask="url(#mask-4)"></path>
                    <path d="M10.3638,5.00483571 C10.5959786,5.00483571 10.8244071,4.90969286 10.9861929,4.74458571 C11.1515143,4.58290714 11.2428,4.35415714 11.2428,4.12594286 C11.2428,3.89376429 11.1515143,3.66512143 10.9861929,3.50333571 C10.6590857,3.17655 10.07205,3.17655 9.74515714,3.50333571 C9.57983571,3.66512143 9.48855,3.89376429 9.48855,4.12594286 C9.48855,4.35415714 9.57983571,4.58290714 9.74515714,4.74458571 C9.90683571,4.90969286 10.1353714,5.00483571 10.3638,5.00483571" id="Fill-36" fill="#344154" mask="url(#mask-4)"></path>
                    <path d="M10.3674107,7.48345714 C10.5959464,7.48345714 10.824375,7.38863571 10.9861607,7.22320714 C11.1514821,7.06152857 11.2464107,6.8331 11.2464107,6.60445714 C11.2464107,6.47877857 11.2164107,6.35524286 11.1646607,6.24167143 C11.1207321,6.14567143 11.0619107,6.05652857 10.9861607,5.98227857 C10.6591607,5.65517143 10.0685893,5.65517143 9.745125,5.98227857 C9.669375,6.05652857 9.61055357,6.14567143 9.566625,6.24167143 C9.51476786,6.35524286 9.484875,6.47877857 9.484875,6.60445714 C9.484875,6.8331 9.57980357,7.06152857 9.745125,7.22320714 C9.90680357,7.38863571 10.1353393,7.48345714 10.3674107,7.48345714" id="Fill-37" fill="#344154" mask="url(#mask-4)"></path>
                </g>
            </g>
        </g>
    </g>
</svg>