<?xml version="1.0" encoding="UTF-8"?>
<svg width="19px" height="19px" viewBox="0 0 19 19" version="1.1" xmlns="http://www.w3.org/2000/svg" xmlns:xlink="http://www.w3.org/1999/xlink">
    <title>Group 20</title>
    <defs>
        <polygon id="path-1" points="0 0 6.3572536 0 6.3572536 6.35868067 0 6.35868067"></polygon>
        <polygon id="path-3" points="0 -2.06936377e-15 6.3572536 -2.06936377e-15 6.3572536 6.35865154 0 6.35865154"></polygon>
        <polygon id="path-5" points="0 0 6.35741378 0 6.35741378 6.35868067 0 6.35868067"></polygon>
    </defs>
    <g id="Page-1" stroke="none" stroke-width="1" fill="none" fill-rule="evenodd">
        <g id="3D-인테리어3-(예제)" transform="translate(-971.000000, -882.000000)">
            <g id="Group-20" transform="translate(971.000000, 882.000000)">
                <g id="Group-3">
                    <mask id="mask-2" fill="white">
                        <use xlink:href="#path-1"></use>
                    </mask>
                    <g id="Clip-2"></g>
                    <path d="M5.88588642,-4.3685559e-05 L2.28328399,-4.3685559e-05 C1.02426618,-4.3685559e-05 -1.4561853e-05,1.02452829 -1.4561853e-05,2.28398296 L-1.4561853e-05,5.88702225 C-1.4561853e-05,6.14709694 0.211423544,6.35868067 0.471207001,6.35868067 C0.731136077,6.35868067 0.942574183,6.14709694 0.942574183,5.88702225 L0.942574183,2.28398296 C0.942574183,1.54467768 1.54397871,0.943418771 2.28328399,0.943418771 L5.88588642,0.943418771 C6.1458155,0.943418771 6.3572536,0.731689428 6.3572536,0.471614733 C6.3572536,0.211540039 6.1458155,-4.3685559e-05 5.88588642,-4.3685559e-05" id="Fill-1" fill="#344154" mask="url(#mask-2)"></path>
                </g>
                <g id="Group-6" transform="translate(0.000000, 12.642819)">
                    <mask id="mask-4" fill="white">
                        <use xlink:href="#path-3"></use>
                    </mask>
                    <g id="Clip-5"></g>
                    <path d="M5.88588642,5.41526189 L2.28328399,5.41526189 C1.54397871,5.41526189 0.942574183,4.81385737 0.942574183,4.07455209 L0.942574183,0.471658419 C0.942574183,0.211583724 0.731136077,-2.06936377e-15 0.471207001,-2.06936377e-15 C0.211423544,-2.06936377e-15 -1.4561853e-05,0.211583724 -1.4561853e-05,0.471658419 L-1.4561853e-05,4.07455209 C-1.4561853e-05,5.33400676 1.02426618,6.35872435 2.28328399,6.35872435 L5.88588642,6.35872435 C6.1458155,6.35872435 6.3572536,6.14699501 6.3572536,5.88692031 C6.3572536,5.62684562 6.1458155,5.41526189 5.88588642,5.41526189" id="Fill-4" fill="#344154" mask="url(#mask-4)"></path>
                </g>
                <path d="M18.5286765,12.6427464 C18.268893,12.6427464 18.0574549,12.8543301 18.0574549,13.1144048 L18.0574549,16.7172985 C18.0574549,17.4567494 17.4560504,18.0580083 16.7167451,18.0580083 L13.1139971,18.0580083 C12.854068,18.0580083 12.6426299,18.2697376 12.6426299,18.5298123 C12.6426299,18.789887 12.854068,19.0014707 13.1139971,19.0014707 L16.7167451,19.0014707 C17.9756173,19.0014707 18.9998981,17.9768988 18.9998981,16.7172985 L18.9998981,13.1144048 C18.9998981,12.8543301 18.78846,12.6427464 18.5286765,12.6427464" id="Fill-7" fill="#344154"></path>
                <g id="Group-11" transform="translate(12.642586, 0.000000)">
                    <mask id="mask-6" fill="white">
                        <use xlink:href="#path-5"></use>
                    </mask>
                    <g id="Clip-10"></g>
                    <path d="M4.07411523,-4.3685559e-05 L0.4715128,-4.3685559e-05 C0.211583724,-4.3685559e-05 0,0.211540039 0,0.471614733 C0,0.731689428 0.211583724,0.943418771 0.4715128,0.943418771 L4.07411523,0.943418771 C4.81342051,0.943418771 5.41482504,1.54467768 5.41482504,2.28398296 L5.41482504,5.88702225 C5.41482504,6.14709694 5.62626314,6.35868067 5.8860466,6.35868067 C6.14597568,6.35868067 6.35741378,6.14709694 6.35741378,5.88702225 L6.35741378,2.28398296 C6.35741378,1.02452829 5.33313304,-4.3685559e-05 4.07411523,-4.3685559e-05" id="Fill-9" fill="#344154" mask="url(#mask-6)"></path>
                </g>
                <path d="M15.1420555,15.7441153 C14.3870234,15.3551682 13.5387955,15.0474762 12.6192144,14.8289028 C12.0582919,14.7039621 11.6591515,14.2628836 11.5778963,13.679827 L11.5452778,13.4050448 C12.1715831,12.8764496 12.7578433,12.1068556 13.2456654,11.1732952 C13.8212954,11.0447141 14.3267373,10.4760737 14.6057424,9.63920403 C14.6456419,9.51979684 14.6364679,9.39194377 14.5801136,9.27923503 C14.5237592,9.16638067 14.4269229,9.08250439 14.3079525,9.04275053 C14.1885453,9.00270544 14.0608379,9.0110057 13.9482748,9.06736007 C13.8351292,9.12371444 13.7509617,9.220842 13.7110622,9.34097728 C13.5053032,9.9595648 13.1550906,10.2723534 12.9852994,10.2567722 C12.7929373,10.241191 12.6046526,10.3455995 12.5193201,10.5196137 C12.0256733,11.5296238 11.402426,12.3469806 10.7647625,12.8209689 C10.6305022,12.9204264 10.5575473,13.0954598 10.5788076,13.2656879 L10.6422973,13.7979236 C10.7778681,14.7742959 11.4715948,15.5399581 12.407922,15.7479014 C13.2493058,15.9482725 14.0238508,16.229025 14.7094228,16.5821499 C14.7755336,16.6166615 14.8505272,16.6348638 14.9261032,16.6348638 C15.1031753,16.6348638 15.2639382,16.5370082 15.3456302,16.3790121 C15.464018,16.1476242 15.3727152,15.8627944 15.1420555,15.7441153" id="Fill-12" fill="#344154"></path>
                <path d="M8.23911099,12.8234881 C7.62591136,12.358965 7.03790374,11.6136894 6.5834283,10.725562 C6.52634584,10.6134357 6.42921828,10.5302875 6.30951985,10.4914074 C6.18953018,10.4525272 6.06124026,10.4622837 5.94853151,10.5200942 C5.71743491,10.6383365 5.62554961,10.9230207 5.74379186,11.1544085 C6.21020801,12.0678736 6.79501203,12.8387781 7.43718975,13.3883424 C7.42481217,13.4707625 7.41345393,13.5620653 7.4006395,13.6807444 C7.33685858,14.2544814 6.93451458,14.7056076 6.37402886,14.8304027 C5.476145,15.0438795 4.62413098,15.3504065 3.84128577,15.7413922 C3.60902421,15.8580327 3.51480902,16.1418432 3.63086699,16.3738135 C3.71095718,16.534722 3.87259375,16.6349075 4.05257825,16.6349075 C4.12669808,16.6349075 4.19775993,16.618307 4.26387074,16.5852516 C4.98060514,16.2267388 5.76228541,15.9454038 6.58546696,15.7495469 C7.54101576,15.5367982 8.22877208,14.7656025 8.3374035,13.7851529 C8.35516896,13.628613 8.37366251,13.4668308 8.41196019,13.3137857 C8.45783002,13.1308888 8.38997179,12.9385268 8.23911099,12.8234881" id="Fill-14" fill="#344154"></path>
                <path d="M13.3882259,7.13156558 C13.3901189,7.27834905 13.462637,7.41814284 13.582481,7.50536834 C13.6981021,7.58924462 13.7947928,7.82310797 13.8410995,8.1313824 C13.8799797,8.38694292 14.1196678,8.56445191 14.3774126,8.52790166 C14.6344293,8.48916713 14.8120839,8.24875094 14.7740774,7.99173423 C14.7057824,7.5349289 14.5502618,7.16199985 14.3233881,6.91007979 C14.1735466,4.35913438 12.057855,2.36649042 9.48943538,2.36649042 C6.93921806,2.36649042 4.82396329,4.36146428 4.65693884,6.91532206 C4.24148917,7.38989285 4.09223018,8.22530635 4.26012834,9.17066185 L4.30133839,9.32108579 C4.3320639,9.43423139 4.36337188,9.5466489 4.39409739,9.63926228 C4.4586064,9.83220683 4.63829967,9.96180733 4.84158313,9.96180733 C4.89269524,9.96180733 4.94307925,9.95350707 4.99040527,9.93748903 C5.1101037,9.89773517 5.20694003,9.81371328 5.2632944,9.70100454 C5.31964877,9.5882958 5.3285315,9.46044273 5.28892326,9.34088991 C5.2632944,9.26444018 5.23795677,9.17109871 5.21087173,9.07149563 L5.17825318,8.96111679 C5.04180861,8.18016461 5.23082146,7.63409512 5.40876731,7.49575752 C5.52045672,7.40867764 5.58671315,7.27762096 5.59035362,7.13607975 C5.64830979,4.99053633 7.36092932,3.30980725 9.48943538,3.30980725 C11.6371631,3.30980725 13.349637,4.98878891 13.3882259,7.13156558" id="Fill-16" fill="#F7778A"></path>
                <path d="M16.7167014,9.01835943 L2.28328399,9.01835943 C2.02350053,9.01835943 1.81206243,9.22994316 1.81206243,9.49001785 C1.81206243,9.75009254 2.02350053,9.96182189 2.28328399,9.96182189 L16.7167014,9.96182189 C16.9764849,9.96182189 17.187923,9.75009254 17.187923,9.49001785 C17.187923,9.22994316 16.9764849,9.01835943 16.7167014,9.01835943" id="Fill-18" fill="#F7778A"></path>
            </g>
        </g>
    </g>
</svg>