<?xml version="1.0" encoding="UTF-8"?>
<svg width="75px" height="58px" viewBox="0 0 75 58" version="1.1" xmlns="http://www.w3.org/2000/svg" xmlns:xlink="http://www.w3.org/1999/xlink">
    <!-- Generator: Sketch 58 (84663) - https://sketch.com -->
    <title>Group 173</title>
    <desc>Created with Sketch.</desc>
    <defs>
        <path d="M0.04106375,1.57056375 L2.364075,7.52497375 C4.1525925,6.81758 6.10187375,6.4239 8.14375625,6.4239 L8.14375625,6.4239 C10.1854725,6.4239 12.1347537,6.81758 13.9236037,7.52497375 L13.9236037,7.52497375 L16.25526,1.54795375 C13.7458825,0.57771875 11.011735,0.04139625 8.14375625,0.04139625 L8.14375625,0.04139625 C5.283425,0.04139625 2.5512725,0.58786 0.04106375,1.57056375 L0.04106375,1.57056375 Z" id="path-1"></path>
        <path d="M0.12019875,8.240015 C0.12019875,11.1005125 0.66649625,13.8324987 1.64936625,16.3428737 L1.64936625,16.3428737 L7.60361,14.0200287 C6.89605,12.2311787 6.5027025,10.2818975 6.5027025,8.240015 L6.5027025,8.240015 C6.5027025,6.198465 6.89605,4.24885125 7.60361,2.46033375 L7.60361,2.46033375 L1.62642375,0.1286775 C0.65618875,2.6377225 0.12019875,5.3722025 0.12019875,8.240015 L0.12019875,8.240015 Z" id="path-3"></path>
        <path d="M26.18105,0.14746375 C25.83924,0.14746375 25.4944375,0.15428 25.149635,0.16758 L25.149635,0.16758 C11.6019225,0.69209875 0.62227375,11.671415 0.09725625,25.2189612 L0.09725625,25.2189612 C0.0847875,25.53999 0.0781375,25.8595225 0.07730625,26.1782237 L0.07730625,26.1782237 L0.07730625,26.3211987 C0.11571,40.6825387 11.8108987,52.3546188 26.1808837,52.3546188 L26.1808837,52.3546188 C29.831235,52.3546188 33.362385,51.61597 36.6765787,50.1587887 L36.6765787,50.1587887 C36.974665,50.0277837 37.1610312,49.702765 37.0842237,49.3865575 L37.0842237,49.3865575 C36.9828112,48.9707662 36.5409187,48.76445 36.167355,48.92937 L36.167355,48.92937 C33.0150888,50.3193862 29.6551763,51.0242863 26.1808837,51.0242863 L26.1808837,51.0242863 C12.1961,51.0242863 0.88062625,39.3764787 1.4267575,25.2723275 L1.4267575,25.2723275 C1.92467625,12.4150513 12.3445612,1.99516625 25.2016712,1.49708125 L25.2016712,1.49708125 C39.3056562,0.9506175 50.9537963,12.2664238 50.9537963,26.2510412 L50.9537963,26.2510412 C50.9537963,28.127505 50.7436563,29.9976512 50.3281975,31.8094437 L50.3281975,31.8094437 C50.2372588,32.2067812 50.5223775,32.6024562 50.9498063,32.6234037 L50.9498063,32.6234037 C51.2753237,32.6391975 51.559445,32.3951425 51.6317637,32.0772725 L51.6317637,32.0772725 C52.0651775,30.1775337 52.2847937,28.2174462 52.2847937,26.2510412 L52.2847937,26.2510412 C52.2847937,11.8579475 40.5754737,0.14812875 26.18238,0.14746375 L26.18238,0.14746375 C26.1815487,0.14746375 26.1818812,0.14746375 26.18105,0.14746375 L26.18105,0.14746375 Z" id="path-5"></path>
        <path d="M12.1339225,0.133665 C5.6867475,0.54546625 0.47896625,5.7532475 0.06666625,12.2004225 L0.06666625,12.2004225 C-0.43225,20.001205 6.0252325,26.45902 13.8258487,25.959605 L13.8258487,25.959605 C20.2733562,25.5471387 25.4809712,20.3391912 25.8929387,13.89185 L25.8929387,13.89185 C26.3730688,6.3750225 20.3950512,0.105735 12.97947,0.10656625 L12.97947,0.10656625 C12.7000037,0.10656625 12.4172125,0.11554375 12.1339225,0.133665 L12.1339225,0.133665 Z M11.9197925,24.6119825 C6.374025,24.1177212 1.90838375,19.65208 1.41428875,14.1063125 L1.41428875,14.1063125 C0.7697375,6.8717775 6.804945,0.83640375 14.0391475,1.480955 L14.0391475,1.480955 C19.584915,1.9753825 24.0505562,6.4408575 24.54515,11.9864587 L24.54515,11.9864587 C25.1584462,18.8648862 19.7333762,24.6593637 12.9798025,24.6593637 L12.9798025,24.6593637 C12.6300125,24.6593637 12.2762325,24.6437362 11.9197925,24.6119825 L11.9197925,24.6119825 Z" id="path-7"></path>
        <path d="M12.97947,0.10656625 C12.7000037,0.10656625 12.4172125,0.11554375 12.1339225,0.133665 L12.1339225,0.133665 C5.6867475,0.54546625 0.47896625,5.7532475 0.06666625,12.2004225 L0.06666625,12.2004225 C-0.43225,20.001205 6.0252325,26.45902 13.8258488,25.959605 L13.8258488,25.959605 C20.2733562,25.5471387 25.4809712,20.3391912 25.8929387,13.89185 L25.8929387,13.89185 C26.3730688,6.37552125 20.3957162,0.10656625 12.9808,0.10656625 L12.9808,0.10656625 C12.9803012,0.10656625 12.9799688,0.10656625 12.97947,0.10656625 L12.97947,0.10656625 Z M11.9197925,24.6119825 C6.374025,24.1177212 1.90838375,19.65208 1.41428875,14.1063125 L1.41428875,14.1063125 C0.7697375,6.8717775 6.804945,0.83640375 14.0391475,1.480955 L14.0391475,1.480955 C19.584915,1.9753825 24.0505562,6.4408575 24.54515,11.9864587 L24.54515,11.9864587 C25.1584462,18.8648862 19.7333762,24.65953 12.9798025,24.6591975 L12.9798025,24.6591975 C12.6300125,24.6591975 12.2762325,24.6437362 11.9197925,24.6119825 L11.9197925,24.6119825 Z" id="path-9"></path>
        <path d="M4.77918875,0.13566 C2.30073375,0.383705 0.29642375,2.388015 0.0482125,4.86663625 L0.0482125,4.86663625 C-0.2862825,8.2144125 2.51652625,11.0175537 5.86446875,10.6830587 L5.86446875,10.6830587 C8.34309,10.4353463 10.3477325,8.43087 10.595445,5.952415 L10.595445,5.952415 C10.9121512,2.78684875 8.4238875,0.10822875 5.32133,0.10856125 L5.32133,0.10856125 C5.1427775,0.10856125 4.961565,0.11753875 4.77918875,0.13566 L4.77918875,0.13566 Z M4.8062875,9.33809625 C3.04220875,9.11432375 1.617945,7.69022625 1.39334125,5.9261475 L1.39334125,5.9261475 C1.064,3.33879875 3.2501875,1.15194625 5.8383675,1.48078875 L5.8383675,1.48078875 C7.6019475,1.70522625 9.0263775,3.12932375 9.25064875,4.89323625 L9.25064875,4.89323625 C9.55738,7.30652125 7.67626125,9.3708475 5.321995,9.3708475 L5.321995,9.3708475 C5.15225375,9.3708475 4.980185,9.3602075 4.8062875,9.33809625 L4.8062875,9.33809625 Z" id="path-11"></path>
        <path d="M5.32133,0.10856125 C5.1427775,0.10856125 4.961565,0.1173725 4.77918875,0.13566 L4.77918875,0.13566 C2.30073375,0.383705 0.29642375,2.388015 0.0482125,4.86663625 L0.0482125,4.86663625 C-0.2862825,8.2144125 2.51652625,11.0175537 5.86446875,10.6830587 L5.86446875,10.6830587 C8.34309,10.4353463 10.3477325,8.43087 10.595445,5.952415 L10.595445,5.952415 C10.9121512,2.787015 8.42405375,0.1087275 5.32182875,0.10856125 L5.32182875,0.10856125 C5.3216625,0.10856125 5.32149625,0.10856125 5.32133,0.10856125 L5.32133,0.10856125 Z M4.8062875,9.33809625 C3.04220875,9.11432375 1.617945,7.69022625 1.39334125,5.9261475 L1.39334125,5.9261475 C1.064,3.33879875 3.2501875,1.15194625 5.8383675,1.48078875 L5.8383675,1.48078875 C7.6019475,1.70522625 9.0263775,3.12932375 9.25064875,4.89323625 L9.25064875,4.89323625 C9.55738,7.30652125 7.67626125,9.3708475 5.321995,9.3708475 L5.321995,9.3708475 C5.15225375,9.3708475 4.980185,9.3602075 4.8062875,9.33809625 L4.8062875,9.33809625 Z" id="path-13"></path>
        <path d="M4.77918875,0.13566 C2.30073375,0.383705 0.29642375,2.388015 0.0482125,4.86663625 L0.0482125,4.86663625 C-0.2862825,8.2144125 2.51652625,11.0175537 5.86446875,10.6830587 L5.86446875,10.6830587 C8.34309,10.4353463 10.3477325,8.43087 10.595445,5.952415 L10.595445,5.952415 C10.9121512,2.78684875 8.4238875,0.10822875 5.32133,0.10856125 L5.32133,0.10856125 C5.1427775,0.10856125 4.961565,0.11753875 4.77918875,0.13566 L4.77918875,0.13566 Z M4.8062875,9.33809625 C3.04220875,9.11432375 1.617945,7.69022625 1.39334125,5.9261475 L1.39334125,5.9261475 C1.064,3.33879875 3.2501875,1.15194625 5.8383675,1.48078875 L5.8383675,1.48078875 C7.6019475,1.70522625 9.0263775,3.12932375 9.25064875,4.89323625 L9.25064875,4.89323625 C9.55738,7.30652125 7.67626125,9.3708475 5.321995,9.3708475 L5.321995,9.3708475 C5.15225375,9.3708475 4.980185,9.3602075 4.8062875,9.33809625 L4.8062875,9.33809625 Z" id="path-15"></path>
        <path d="M6.33030125,0.46732875 C3.4144425,4.9811825 0.44039625,6.98865125 0.41146875,7.00793625 L0.41146875,7.00793625 C0.09958375,7.21375375 0.015295,7.63170625 0.222775,7.94093125 L0.222775,7.94093125 C0.3534475,8.13577625 0.56840875,8.2410125 0.7876925,8.2410125 L0.7876925,8.2410125 C0.91686875,8.2410125 1.047375,8.20460375 1.163085,8.128295 L1.163085,8.128295 C1.293425,8.04167875 4.39964,5.957735 7.48540625,1.17256125 L7.48540625,1.17256125 C7.72580375,0.8003275 7.54957875,0.28179375 7.07609875,0.1546125 L7.07609875,0.1546125 C7.02356375,0.14048125 6.97053,0.13383125 6.917995,0.13383125 L6.917995,0.13383125 C6.68474625,0.13383125 6.4608075,0.26550125 6.33030125,0.46732875 L6.33030125,0.46732875 Z" id="path-17"></path>
        <path d="M6.33030125,0.46732875 C3.4144425,4.9811825 0.44039625,6.98865125 0.41146875,7.00793625 L0.41146875,7.00793625 C0.09958375,7.21375375 0.015295,7.63170625 0.222775,7.94093125 L0.222775,7.94093125 C0.3534475,8.13577625 0.56840875,8.2410125 0.7876925,8.2410125 L0.7876925,8.2410125 C0.91686875,8.2410125 1.047375,8.20460375 1.163085,8.128295 L1.163085,8.128295 C1.293425,8.04167875 4.39964,5.957735 7.48540625,1.17256125 L7.48540625,1.17256125 C7.72580375,0.8003275 7.54957875,0.28179375 7.07609875,0.1546125 L7.07609875,0.1546125 C7.02356375,0.14048125 6.97053,0.13383125 6.91782875,0.13383125 L6.91782875,0.13383125 C6.68474625,0.13383125 6.4608075,0.26550125 6.33030125,0.46732875 L6.33030125,0.46732875 Z" id="path-19"></path>
        <path d="M6.33030125,0.46732875 C3.4144425,4.9811825 0.44039625,6.98865125 0.41146875,7.00793625 L0.41146875,7.00793625 C0.09958375,7.21375375 0.015295,7.63170625 0.222775,7.94093125 L0.222775,7.94093125 C0.3534475,8.13577625 0.56840875,8.2410125 0.7876925,8.2410125 L0.7876925,8.2410125 C0.91686875,8.2410125 1.047375,8.20460375 1.163085,8.128295 L1.163085,8.128295 C1.293425,8.04167875 4.39964,5.957735 7.48540625,1.17256125 L7.48540625,1.17256125 C7.72580375,0.8003275 7.54957875,0.28179375 7.07609875,0.1546125 L7.07609875,0.1546125 C7.02356375,0.14048125 6.97053,0.13383125 6.917995,0.13383125 L6.917995,0.13383125 C6.68474625,0.13383125 6.4608075,0.26550125 6.33030125,0.46732875 L6.33030125,0.46732875 Z" id="path-21"></path>
        <path d="M0.37821875,1.33980875 C0.011305,1.57455375 -0.04638375,2.1117075 0.322525,2.41976875 L0.322525,2.41976875 C0.5456325,2.60596875 0.8694875,2.596825 1.1148725,2.44104875 L1.1148725,2.44104875 C2.5905075,1.50406375 4.06996625,1.19616875 5.512185,1.52684 L5.512185,1.52684 C8.4212275,2.19433375 10.31548,5.2272325 10.34075,5.26813 L10.34075,5.26813 C13.3502075,9.9819825 16.3794488,12.0346712 16.5069625,12.1199575 L16.5069625,12.1199575 C16.6193475,12.1951025 16.7463625,12.2310125 16.87238,12.2310125 L16.87238,12.2310125 C17.085845,12.2310125 17.2954863,12.1272725 17.4226675,11.9357525 L17.4226675,11.9357525 C17.6256587,11.6320137 17.5438637,11.2202125 17.2404575,11.0168887 L17.2404575,11.0168887 C17.21153,10.9974375 14.3024875,9.01390875 11.4616075,4.56439375 L11.4616075,4.56439375 C11.373495,4.4205875 9.26960125,1.03424125 5.81609,0.23690625 L5.81609,0.23690625 C5.33512875,0.125685 4.85300375,0.0701575 4.37038,0.0703233778 L4.37038,0.0703233778 C3.03555875,0.0703233778 1.697745,0.49476 0.37821875,1.33980875 L0.37821875,1.33980875 Z" id="path-23"></path>
        <path d="M0.37821875,1.33980875 C0.011305,1.57455375 -0.04638375,2.1117075 0.322525,2.41976875 L0.322525,2.41976875 C0.5456325,2.60596875 0.8694875,2.596825 1.1148725,2.44104875 L1.1148725,2.44104875 C2.5905075,1.50406375 4.06996625,1.19616875 5.512185,1.52684 L5.512185,1.52684 C8.4212275,2.19433375 10.31548,5.2272325 10.34075,5.26813 L10.34075,5.26813 C13.3502075,9.9819825 16.3794488,12.0346712 16.5069625,12.1199575 L16.5069625,12.1199575 C16.6193475,12.1951025 16.7463625,12.2310125 16.87238,12.2310125 L16.87238,12.2310125 C17.085845,12.2310125 17.2954863,12.1272725 17.4226675,11.9357525 L17.4226675,11.9357525 C17.6256587,11.6320138 17.5438637,11.2202125 17.2404575,11.0168887 L17.2404575,11.0168887 C17.21153,10.9974375 14.3024875,9.01390875 11.4616075,4.56439375 L11.4616075,4.56439375 C11.373495,4.4205875 9.26960125,1.03424125 5.81609,0.23690625 L5.81609,0.23690625 C5.3349625,0.125685 4.85300375,0.07032375 4.37038,0.07032375 L4.37038,0.07032375 C3.03555875,0.07032375 1.69757875,0.49476 0.37821875,1.33980875 L0.37821875,1.33980875 Z" id="path-25"></path>
        <path d="M0.37821875,1.33980875 C0.011305,1.57455375 -0.04638375,2.1117075 0.322525,2.41976875 L0.322525,2.41976875 C0.5456325,2.60596875 0.8694875,2.596825 1.1148725,2.44104875 L1.1148725,2.44104875 C2.5905075,1.50406375 4.06996625,1.19616875 5.512185,1.52684 L5.512185,1.52684 C8.4212275,2.19433375 10.31548,5.2272325 10.34075,5.26813 L10.34075,5.26813 C13.3502075,9.9819825 16.3794488,12.0346712 16.5069625,12.1199575 L16.5069625,12.1199575 C16.6193475,12.1951025 16.7463625,12.2310125 16.87238,12.2310125 L16.87238,12.2310125 C17.085845,12.2310125 17.2954863,12.1272725 17.4226675,11.9357525 L17.4226675,11.9357525 C17.6256587,11.6320137 17.5438637,11.2202125 17.2404575,11.0168887 L17.2404575,11.0168887 C17.21153,10.9974375 14.3024875,9.01390875 11.4616075,4.56439375 L11.4616075,4.56439375 C11.373495,4.4205875 9.26960125,1.03424125 5.81609,0.23690625 L5.81609,0.23690625 C5.33512875,0.125685 4.85300375,0.0701575 4.37038,0.0703233778 L4.37038,0.0703233778 C3.03555875,0.0703233778 1.697745,0.49476 0.37821875,1.33980875 L0.37821875,1.33980875 Z" id="path-27"></path>
        <path d="M11.5864612,0.1825425 C10.590125,0.75793375 10.01091,1.3841975 9.98780125,1.409135 L9.98780125,1.409135 C6.593475,5.09739125 0.9718975,3.90770625 0.91637,3.8959025 L0.91637,3.8959025 C0.56142625,3.8154375 0.206815,4.03438875 0.12585125,4.3820175 L0.12585125,4.3820175 C0.044555,4.73031125 0.26683125,5.07661 0.62244,5.1560775 L0.62244,5.1560775 C0.72435125,5.17902 1.72650625,5.393815 3.1444525,5.393815 L3.1444525,5.393815 C5.35674125,5.393815 8.57999625,4.86996125 10.9683438,2.2746325 L10.9683438,2.2746325 C10.973165,2.26981125 11.4365037,1.774885 12.23068,1.31138 L12.23068,1.31138 C12.5063225,1.15028375 12.6544513,0.82077625 12.5453912,0.5250175 L12.5453912,0.5250175 C12.44348,0.249375 12.1864575,0.0931 11.9211225,0.0931 L11.9211225,0.0931 C11.8072413,0.0931 11.6916975,0.1220275 11.5864612,0.1825425 L11.5864612,0.1825425 Z" id="path-29"></path>
        <path d="M11.5864612,0.1825425 C10.590125,0.75793375 10.01091,1.3841975 9.98780125,1.409135 L9.98780125,1.409135 C6.593475,5.09739125 0.9718975,3.90770625 0.91637,3.8959025 L0.91637,3.8959025 C0.56142625,3.8154375 0.206815,4.03438875 0.12585125,4.3820175 L0.12585125,4.3820175 C0.044555,4.73031125 0.26683125,5.07661 0.62244,5.1560775 L0.62244,5.1560775 C0.72435125,5.17902 1.72650625,5.393815 3.1444525,5.393815 L3.1444525,5.393815 C5.35674125,5.393815 8.57999625,4.86996125 10.9683438,2.2746325 L10.9683438,2.2746325 C10.973165,2.26981125 11.4365037,1.774885 12.23068,1.31138 L12.23068,1.31138 C12.5063225,1.15028375 12.6544513,0.82077625 12.5453912,0.5250175 L12.5453912,0.5250175 C12.44348,0.249375 12.1862912,0.0931 11.9211225,0.0931 L11.9211225,0.0931 C11.8072413,0.0931 11.6918637,0.1220275 11.5864612,0.1825425 L11.5864612,0.1825425 Z" id="path-31"></path>
        <path d="M11.5864612,0.1825425 C10.590125,0.75793375 10.01091,1.3841975 9.98780125,1.409135 L9.98780125,1.409135 C6.593475,5.09739125 0.9718975,3.90770625 0.91637,3.8959025 L0.91637,3.8959025 C0.56142625,3.8154375 0.206815,4.03438875 0.12585125,4.3820175 L0.12585125,4.3820175 C0.044555,4.73031125 0.26683125,5.07661 0.62244,5.1560775 L0.62244,5.1560775 C0.72435125,5.17902 1.72650625,5.393815 3.1444525,5.393815 L3.1444525,5.393815 C5.35674125,5.393815 8.57999625,4.86996125 10.9683438,2.2746325 L10.9683438,2.2746325 C10.973165,2.26981125 11.4365037,1.774885 12.23068,1.31138 L12.23068,1.31138 C12.5063225,1.15028375 12.6544513,0.82077625 12.5453912,0.5250175 L12.5453912,0.5250175 C12.44348,0.249375 12.1864575,0.0931 11.9211225,0.0931 L11.9211225,0.0931 C11.8072413,0.0931 11.6916975,0.1220275 11.5864612,0.1825425 L11.5864612,0.1825425 Z" id="path-33"></path>
        <path d="M3.29357875,0.71155 C2.4754625,0.3733975 1.6442125,0.1865325 0.818615,0.15610875 L0.818615,0.15610875 C0.4086425,0.14763 0.0821275,0.487445 0.14098,0.90456625 L0.14098,0.90456625 C0.18487,1.21578625 0.467495,1.44521125 0.7856975,1.4580125 L0.7856975,1.4580125 C1.5238475,1.48777125 2.2743,1.6748025 3.01644,2.01411875 L3.01644,2.01411875 C3.1923325,2.0944175 3.39532375,2.0944175 3.57121625,2.01411875 L3.57121625,2.01411875 C7.37435125,0.27381375 10.0609512,3.12599875 10.17317,3.24786 L10.17317,3.24786 C12.5606862,5.86397 15.78178,6.391315 17.9925725,6.391315 L17.9925725,6.391315 C19.4088562,6.391315 20.4111775,6.1748575 20.5129225,6.1515825 L20.5129225,6.1515825 C20.8677,6.0717825 21.0894775,5.72348875 21.0090125,5.3732 L21.0090125,5.3732 C20.928215,5.0224125 20.5747675,4.80312875 20.2198237,4.881765 L20.2198237,4.881765 C20.1636313,4.8944 14.545545,6.09256375 11.1543775,2.37754125 L11.1543775,2.37754125 C11.1284425,2.34861375 9.09005125,0.154945 5.99298,0.1552775 L5.99298,0.1552775 C5.16306,0.1552775 4.2569975,0.31271625 3.29357875,0.71155 L3.29357875,0.71155 Z" id="path-35"></path>
        <path d="M5.99298,0.15511125 C5.16306,0.1552775 4.2569975,0.3128825 3.29357875,0.71155 L3.29357875,0.71155 C2.4754625,0.3733975 1.6442125,0.1865325 0.818615,0.15610875 L0.818615,0.15610875 C0.4086425,0.14763 0.0821275,0.487445 0.14098,0.90456625 L0.14098,0.90456625 C0.18487,1.21578625 0.467495,1.44521125 0.7856975,1.4580125 L0.7856975,1.4580125 C1.5238475,1.48777125 2.2743,1.6748025 3.01644,2.01411875 L3.01644,2.01411875 C3.1923325,2.0944175 3.39532375,2.0944175 3.57121625,2.01411875 L3.57121625,2.01411875 C7.37435125,0.27381375 10.0609512,3.12599875 10.17317,3.24786 L10.17317,3.24786 C12.5606862,5.86397 15.78178,6.391315 17.9925725,6.391315 L17.9925725,6.391315 C19.4088562,6.391315 20.4111775,6.1748575 20.5129225,6.1515825 L20.5129225,6.1515825 C20.8677,6.0717825 21.0894775,5.72348875 21.0090125,5.3732 L21.0090125,5.3732 C20.928215,5.0224125 20.5747675,4.80312875 20.2198237,4.881765 L20.2198237,4.881765 C20.1636313,4.8944 14.545545,6.09256375 11.1543775,2.37754125 L11.1543775,2.37754125 C11.1284425,2.34861375 9.0902175,0.1552775 5.9933125,0.15511125 L5.9933125,0.15511125 C5.99314625,0.15511125 5.99314625,0.15511125 5.99298,0.15511125 L5.99298,0.15511125 Z" id="path-37"></path>
        <path d="M3.29357875,0.71155 C2.4754625,0.3733975 1.6442125,0.1865325 0.818615,0.15610875 L0.818615,0.15610875 C0.4086425,0.14763 0.0821275,0.487445 0.14098,0.90456625 L0.14098,0.90456625 C0.18487,1.21578625 0.467495,1.44521125 0.7856975,1.4580125 L0.7856975,1.4580125 C1.5238475,1.48777125 2.2743,1.6748025 3.01644,2.01411875 L3.01644,2.01411875 C3.1923325,2.0944175 3.39532375,2.0944175 3.57121625,2.01411875 L3.57121625,2.01411875 C7.37435125,0.27381375 10.0609512,3.12599875 10.17317,3.24786 L10.17317,3.24786 C12.5606862,5.86397 15.78178,6.391315 17.9925725,6.391315 L17.9925725,6.391315 C19.4088562,6.391315 20.4111775,6.1748575 20.5129225,6.1515825 L20.5129225,6.1515825 C20.8677,6.0717825 21.0894775,5.72348875 21.0090125,5.3732 L21.0090125,5.3732 C20.928215,5.0224125 20.5747675,4.80312875 20.2198237,4.881765 L20.2198237,4.881765 C20.1636313,4.8944 14.545545,6.09256375 11.1543775,2.37754125 L11.1543775,2.37754125 C11.1284425,2.34861375 9.09005125,0.154945 5.99298,0.1552775 L5.99298,0.1552775 C5.16306,0.1552775 4.2569975,0.31271625 3.29357875,0.71155 L3.29357875,0.71155 Z" id="path-39"></path>
        <path d="M0.06101375,0.5183675 C-0.0821275,0.838565 0.073815,1.208305 0.40947375,1.34512875 L0.40947375,1.34512875 C0.5383175,1.39766375 3.62707625,2.6297425 8.89454125,2.6297425 L8.89454125,2.6297425 C14.1621725,2.6297425 17.250765,1.39766375 17.3796087,1.34512875 L17.3796087,1.34512875 C17.714935,1.2086375 17.8707112,0.83923 17.7280687,0.51919875 L17.7280687,0.51919875 C17.5857587,0.19966625 17.19823,0.0508725 16.8619062,0.1858675 L16.8619062,0.1858675 C16.8326462,0.19767125 13.8687412,1.3695675 8.89454125,1.3695675 L8.89454125,1.3695675 C3.9205075,1.3695675 0.95643625,0.19767125 0.92817375,0.18603375 L0.92817375,0.18603375 C0.8435525,0.15162 0.75560625,0.1353275 0.66915625,0.1353275 L0.66915625,0.1353275 C0.4123,0.1353275 0.168245,0.2789675 0.06101375,0.5183675 L0.06101375,0.5183675 Z" id="path-41"></path>
        <path d="M0.06101375,0.5183675 C-0.0821275,0.838565 0.073815,1.208305 0.40947375,1.34512875 L0.40947375,1.34512875 C0.5383175,1.39766375 3.62707625,2.6297425 8.89454125,2.6297425 L8.89454125,2.6297425 C14.1621725,2.6297425 17.250765,1.39766375 17.3796087,1.34512875 L17.3796087,1.34512875 C17.714935,1.2086375 17.8707112,0.83923 17.7280687,0.51919875 L17.7280687,0.51919875 C17.5857587,0.19966625 17.19823,0.0508725 16.8619062,0.1858675 L16.8619062,0.1858675 C16.8326462,0.19767125 13.8687412,1.3695675 8.89454125,1.3695675 L8.89454125,1.3695675 C3.9205075,1.3695675 0.95643625,0.19767125 0.92817375,0.18603375 L0.92817375,0.18603375 C0.8435525,0.15162 0.7557725,0.13516125 0.66915625,0.13516125 L0.66915625,0.13516125 C0.4123,0.13516125 0.168245,0.27880125 0.06101375,0.5183675 L0.06101375,0.5183675 Z" id="path-43"></path>
        <path d="M0.06101375,0.5183675 C-0.0821275,0.838565 0.073815,1.208305 0.40947375,1.34512875 L0.40947375,1.34512875 C0.5383175,1.39766375 3.62707625,2.6297425 8.89454125,2.6297425 L8.89454125,2.6297425 C14.1621725,2.6297425 17.250765,1.39766375 17.3796087,1.34512875 L17.3796087,1.34512875 C17.714935,1.2086375 17.8707112,0.83923 17.7280687,0.51919875 L17.7280687,0.51919875 C17.5857587,0.19966625 17.19823,0.0508725 16.8619062,0.1858675 L16.8619062,0.1858675 C16.8326462,0.19767125 13.8687412,1.3695675 8.89454125,1.3695675 L8.89454125,1.3695675 C3.9205075,1.3695675 0.95643625,0.19767125 0.92817375,0.18603375 L0.92817375,0.18603375 C0.8435525,0.15162 0.75560625,0.1353275 0.66915625,0.1353275 L0.66915625,0.1353275 C0.4123,0.1353275 0.168245,0.2789675 0.06101375,0.5183675 L0.06101375,0.5183675 Z" id="path-45"></path>
        <polygon id="path-47" points="0.159852868 0.07448 35.934605 0.07448 35.934605 13.10715 0.159852868 13.10715"></polygon>
        <path d="M35.2666125,0.07448 C35.1061812,0.07497875 34.9455837,0.13349875 34.8184025,0.25137 L34.8184025,0.25137 C34.7073475,0.35378 32.0712875,2.804305 29.64038,6.20162375 L29.64038,6.20162375 C28.2588425,8.13211875 26.48163,9.6122425 24.5009275,10.4815637 L24.5009275,10.4815637 C22.55281,11.3367537 20.3812525,11.7703337 18.0469362,11.7703337 L18.0469362,11.7703337 C15.7129525,11.7703337 13.5415613,11.3367537 11.5932775,10.4815637 L11.5932775,10.4815637 C9.61274125,9.6122425 7.835695,8.13211875 6.4541575,6.20162375 L6.4541575,6.20162375 C4.02308375,2.804305 1.38719,0.3541125 1.27596875,0.25137 L1.27596875,0.25137 C1.0058125,0.00149625 0.58503375,0.01878625 0.335825,0.2902725 L0.335825,0.2902725 C0.0867825,0.561925 0.10423875,0.98436625 0.374395,1.23440625 L0.374395,1.23440625 C0.4006625,1.258845 3.025085,3.70006 5.37303375,6.9815025 L5.37303375,6.9815025 C6.894055,9.1075075 8.86062625,10.7412462 11.06028,11.7063275 L11.06028,11.7063275 C13.17764,12.6359975 15.528415,13.10715 18.0472688,13.10715 L18.0472688,13.10715 C20.5661225,13.10715 22.9167313,12.6359975 25.0340913,11.7063275 L25.0340913,11.7063275 C27.233745,10.74108 29.2003163,9.10734125 30.7213375,6.9815025 L30.7213375,6.9815025 C33.06912,3.70006 35.6937087,1.258845 35.7201425,1.23473875 L35.7201425,1.23473875 C35.8602912,1.10473125 35.9324437,0.92850625 35.934605,0.7511175 L35.934605,0.7511175 L35.934605,0.7344925 C35.9327762,0.5755575 35.8745888,0.4166225 35.7587125,0.2902725 L35.7587125,0.2902725 C35.6278737,0.14763 35.44982,0.07497875 35.270935,0.07448 L35.270935,0.07448 L35.2666125,0.07448 Z" id="path-49"></path>
        <path d="M35.2666125,0.07448 C35.1061812,0.07497875 34.9455837,0.13349875 34.8184025,0.25137 L34.8184025,0.25137 C34.7073475,0.35378 32.0712875,2.804305 29.64038,6.20162375 L29.64038,6.20162375 C28.2588425,8.13211875 26.48163,9.6122425 24.5009275,10.4815637 L24.5009275,10.4815637 C22.55281,11.3367537 20.3812525,11.7703337 18.0469362,11.7703337 L18.0469362,11.7703337 C15.7129525,11.7703337 13.5415613,11.3367537 11.5932775,10.4815637 L11.5932775,10.4815637 C9.61274125,9.6122425 7.835695,8.13211875 6.4541575,6.20162375 L6.4541575,6.20162375 C4.02308375,2.804305 1.38719,0.3541125 1.27596875,0.25137 L1.27596875,0.25137 C1.0058125,0.00149625 0.58503375,0.01878625 0.335825,0.2902725 L0.335825,0.2902725 C0.0867825,0.561925 0.10423875,0.98436625 0.374395,1.23440625 L0.374395,1.23440625 C0.4006625,1.258845 3.025085,3.70006 5.37303375,6.9815025 L5.37303375,6.9815025 C6.894055,9.1075075 8.86062625,10.7412462 11.06028,11.7063275 L11.06028,11.7063275 C13.17764,12.6359975 15.528415,13.10715 18.0472688,13.10715 L18.0472688,13.10715 C20.5661225,13.10715 22.9167313,12.6359975 25.0340913,11.7063275 L25.0340913,11.7063275 C27.233745,10.74108 29.2003163,9.10734125 30.7213375,6.9815025 L30.7213375,6.9815025 C33.06912,3.70006 35.6937087,1.258845 35.7201425,1.23473875 L35.7201425,1.23473875 C35.8602912,1.10473125 35.9324437,0.92850625 35.934605,0.7511175 L35.934605,0.7511175 L35.934605,0.73465875 C35.9327762,0.5755575 35.8745888,0.4166225 35.7587125,0.2902725 L35.7587125,0.2902725 C35.6278737,0.14763 35.44982,0.07497875 35.2707688,0.07448 L35.2707688,0.07448 L35.2666125,0.07448 Z" id="path-51"></path>
        <path d="M21.7704375,0.14846125 C17.5576625,2.73098875 14.177135,2.7354775 11.4654313,2.73049 L11.4654313,2.73049 L11.2197138,2.73049 C8.6892225,2.7301575 5.21908625,2.7334825 1.002155,0.14846125 L1.002155,0.14846125 C0.65352875,-0.06533625 0.19334875,0.09260125 0.04505375,0.5077275 L0.04505375,0.5077275 C-0.06733125,0.82310375 0.0788025,1.17987625 0.3574375,1.3502825 L0.3574375,1.3502825 C4.77386875,4.0488525 8.37883375,4.10687375 11.04166,4.10687375 L11.04166,4.10687375 L11.2202125,4.10687375 L11.4654313,4.10687375 C14.1846163,4.09656625 17.9089488,4.10720625 22.4247975,1.34446375 L22.4247975,1.34446375 C22.6723437,1.19301 22.81881,0.8911 22.7538063,0.6001625 L22.7538063,0.6001625 C22.6765,0.2530325 22.3957037,0.0532 22.1050988,0.05336625 L22.1050988,0.05336625 C21.9912175,0.05336625 21.8756738,0.08395625 21.7704375,0.14846125 L21.7704375,0.14846125 Z" id="path-53"></path>
        <path d="M21.7704375,0.14846125 C17.5576625,2.73098875 14.177135,2.7354775 11.4654313,2.73049 L11.4654313,2.73049 L11.2197138,2.73049 C8.6892225,2.7301575 5.21908625,2.7334825 1.002155,0.14846125 L1.002155,0.14846125 C0.65352875,-0.06533625 0.19334875,0.09260125 0.04505375,0.5077275 L0.04505375,0.5077275 C-0.06733125,0.82310375 0.0788025,1.17987625 0.3574375,1.3502825 L0.3574375,1.3502825 C4.77386875,4.0488525 8.37883375,4.10687375 11.04166,4.10687375 L11.04166,4.10687375 L11.2202125,4.10687375 L11.4654313,4.10687375 C14.1846163,4.09656625 17.9089488,4.10720625 22.4247975,1.34446375 L22.4247975,1.34446375 C22.6723437,1.19301 22.81881,0.8911 22.7538063,0.6001625 L22.7538063,0.6001625 C22.6765,0.25286625 22.3957037,0.05336625 22.1050988,0.05336625 L22.1050988,0.05336625 C21.9912175,0.05336625 21.8756738,0.08395625 21.7704375,0.14846125 L21.7704375,0.14846125 Z" id="path-55"></path>
        <path d="M21.7704375,0.14846125 C17.5576625,2.73098875 14.177135,2.7354775 11.4654313,2.73049 L11.4654313,2.73049 L11.2197138,2.73049 C8.6892225,2.7301575 5.21908625,2.7334825 1.002155,0.14846125 L1.002155,0.14846125 C0.65352875,-0.06533625 0.19334875,0.09260125 0.04505375,0.5077275 L0.04505375,0.5077275 C-0.06733125,0.82310375 0.0788025,1.17987625 0.3574375,1.3502825 L0.3574375,1.3502825 C4.77386875,4.0488525 8.37883375,4.10687375 11.04166,4.10687375 L11.04166,4.10687375 L11.2202125,4.10687375 L11.4654313,4.10687375 C14.1846163,4.09656625 17.9089488,4.10720625 22.4247975,1.34446375 L22.4247975,1.34446375 C22.6723437,1.19301 22.81881,0.8911 22.7538063,0.6001625 L22.7538063,0.6001625 C22.6765,0.2530325 22.3957037,0.0532 22.1050988,0.05336625 L22.1050988,0.05336625 C21.9912175,0.05336625 21.8756738,0.08395625 21.7704375,0.14846125 L21.7704375,0.14846125 Z" id="path-57"></path>
        <path d="M25.5348362,0.1625925 C11.7954375,0.69475875 0.61579,11.8739075 0.083125,25.6134725 L0.083125,25.6134725 C-0.19866875,32.888905 2.4269175,39.786285 7.47609625,45.0349637 L7.47609625,45.0349637 C12.5294312,50.287965 19.3145925,53.1808812 26.582045,53.1808812 L26.582045,53.1808812 C30.2904175,53.1808812 33.8779263,52.4300962 37.24532,50.9498062 L37.24532,50.9498062 C37.7417425,50.7311875 38.0125637,50.2051725 37.8892063,49.698775 L37.8892063,49.698775 C37.8123987,49.3832325 37.60309,49.1207237 37.3149787,48.9789125 L37.3149787,48.9789125 C37.0272,48.836935 36.6938687,48.8299525 36.40077,48.9596275 L36.40077,48.9596275 C33.3017038,50.3260362 29.9983162,51.0189662 26.582045,51.0189662 L26.582045,51.0189662 C19.90744,51.0189662 13.6752262,48.3619587 9.0336925,43.5370512 L9.0336925,43.5370512 C4.3959825,38.7164662 1.98452625,32.3813437 2.2433775,25.6990912 L2.2433775,25.6990912 C2.7321525,13.0795525 13.000085,2.81162 25.619125,2.322845 L25.619125,2.322845 C32.3032063,2.0638275 38.6365,4.47545 43.4574175,9.11316 L43.4574175,9.11316 C48.282325,13.7546938 50.9394987,19.9870737 50.9394987,26.6616788 L50.9394987,26.6616788 C50.9394987,28.5075525 50.7325175,30.3464437 50.3242075,32.1271475 L50.3242075,32.1271475 C50.25272,32.4396975 50.3227112,32.76588 50.5163925,33.0217387 L50.5163925,33.0217387 C50.7100737,33.2774312 51.0066637,33.4332075 51.3310175,33.4493337 L51.3310175,33.4493337 C51.8515462,33.4746037 52.3178775,33.1086875 52.4382425,32.5801787 L52.4382425,32.5801787 C52.87814,30.6506812 53.1014137,28.6593387 53.1014137,26.6616788 L53.1014137,26.6616788 C53.1014137,19.3943925 50.20883,12.609065 44.9558288,7.55573 L44.9558288,7.55573 C39.9633412,2.75260125 33.4802562,0.1419775 26.5971737,0.1419775 L26.5971737,0.1419775 C26.2443912,0.1419775 25.8896137,0.14879375 25.5348362,0.1625925 L25.5348362,0.1625925 Z" id="path-59"></path>
        <path d="M26.5971737,0.1419775 C26.2443912,0.1419775 25.8896137,0.14896 25.5348362,0.1625925 L25.5348362,0.1625925 C23.8483962,0.22792875 22.201025,0.45353 20.6066875,0.82476625 L20.6066875,0.82476625 L32.6079425,0.82476625 C30.65916,0.37323125 28.646205,0.14214375 26.5978387,0.1419775 L26.5978387,0.1419775 C26.59734,0.1419775 26.5976725,0.1419775 26.5971737,0.1419775 L26.5971737,0.1419775 Z M0.083125,25.6134725 C0.0708225,25.9326725 0.06400625,26.2513737 0.0628425,26.5690775 L0.0628425,26.5690775 L0.0628425,26.7770562 C0.07132125,29.0041412 0.353115,31.1886662 0.8940925,33.2940562 L0.8940925,33.2940562 L0.8940925,20.0793425 C0.434245,21.8610437 0.15694,23.7124037 0.083125,25.6134725 L0.083125,25.6134725 Z M52.44722,32.5407775 C52.8812988,30.6235825 53.1014137,28.6457062 53.1014137,26.6616787 L53.1014137,26.6616787 C53.1014137,24.64889 52.8796363,22.6735075 52.44722,20.7611337 L52.44722,20.7611337 L52.44722,32.5407775 Z M20.0588937,52.3777275 C22.1636187,52.908065 24.3499725,53.1808812 26.582045,53.1808812 L26.582045,53.1808812 C28.8029787,53.1808812 30.9801887,52.9117225 33.0928938,52.3777275 L33.0928938,52.3777275 L20.0588937,52.3777275 Z" id="path-61"></path>
        <path d="M34.7425925,0.17705625 C34.6317038,0.27979875 31.9954775,2.7301575 29.5647363,6.12731 L29.5647363,6.12731 C28.1830325,8.05797125 26.4061525,9.538095 24.42545,10.4074162 L24.42545,10.4074162 C22.4771663,11.2626062 20.3056088,11.6963525 17.9712925,11.6963525 L17.9712925,11.6963525 C15.6373088,11.6963525 13.4657513,11.2626062 11.5174675,10.4074162 L11.5174675,10.4074162 C9.5370975,9.538095 7.7602175,8.05797125 6.37851375,6.12731 L6.37851375,6.12731 C3.94744,2.7301575 1.31154625,0.279965 1.200325,0.17705625 L1.200325,0.17705625 C0.9300025,-0.07265125 0.50939,-0.05536125 0.260015,0.21629125 L0.260015,0.21629125 C0.01113875,0.4877775 0.028595,0.910385 0.29875125,1.160425 L0.29875125,1.160425 C0.32501875,1.18486375 2.94944125,3.62574625 5.29739,6.907355 L5.29739,6.907355 C6.81841125,9.03336 8.7849825,10.6670987 10.9846362,11.6323462 L10.9846362,11.6323462 C13.1019963,12.56185 15.452605,13.0331687 17.971625,13.0331687 L17.971625,13.0331687 C20.4904788,13.0331687 22.8409213,12.56185 24.9582812,11.6323462 L24.9582812,11.6323462 C27.157935,10.6667663 29.1248388,9.0330275 30.6455275,6.907355 L30.6455275,6.907355 C32.9934763,3.62574625 35.6182313,1.18486375 35.6443325,1.1607575 L35.6443325,1.1607575 C35.914655,0.910385 35.9321112,0.4877775 35.683235,0.21629125 L35.683235,0.21629125 C35.5517313,0.0728175 35.37268,0.00016625 35.19313,0.00016625 L35.19313,0.00016625 C35.0320337,0.00016625 34.870605,0.05868625 34.7425925,0.17705625 L34.7425925,0.17705625 Z" id="path-63"></path>
        <path d="M34.7425925,0.17705625 C34.6317038,0.27979875 31.9954775,2.7301575 29.5647363,6.12731 L29.5647363,6.12731 C28.1830325,8.05797125 26.4061525,9.538095 24.42545,10.4074162 L24.42545,10.4074162 C22.4771663,11.2626062 20.3056088,11.6963525 17.9712925,11.6963525 L17.9712925,11.6963525 C15.6373088,11.6963525 13.4657513,11.2626062 11.5174675,10.4074162 L11.5174675,10.4074162 C9.5370975,9.538095 7.7602175,8.05797125 6.37851375,6.12731 L6.37851375,6.12731 C3.94744,2.7301575 1.31154625,0.279965 1.200325,0.17705625 L1.200325,0.17705625 C0.9300025,-0.07265125 0.50939,-0.05536125 0.260015,0.21629125 L0.260015,0.21629125 C0.01113875,0.4877775 0.028595,0.910385 0.29875125,1.160425 L0.29875125,1.160425 C0.32501875,1.18486375 2.94944125,3.62574625 5.29739,6.907355 L5.29739,6.907355 C6.81841125,9.03336 8.7849825,10.6670987 10.9846362,11.6323462 L10.9846362,11.6323462 C13.1019963,12.56185 15.452605,13.0331687 17.971625,13.0331687 L17.971625,13.0331687 C20.4904788,13.0331687 22.8409213,12.56185 24.9582812,11.6323462 L24.9582812,11.6323462 C27.157935,10.6667663 29.1248388,9.0330275 30.6455275,6.907355 L30.6455275,6.907355 C32.9934763,3.62574625 35.6182313,1.18486375 35.6443325,1.1607575 L35.6443325,1.1607575 C35.914655,0.910385 35.9321112,0.4877775 35.683235,0.21629125 L35.683235,0.21629125 C35.551565,0.07298375 35.37268,0.00016625 35.19313,0.00016625 L35.19313,0.00016625 C35.0320337,0.00016625 34.870605,0.05868625 34.7425925,0.17705625 L34.7425925,0.17705625 Z" id="path-65"></path>
        <path d="M34.7425925,0.17705625 C34.6317038,0.27979875 31.9954775,2.7301575 29.5647363,6.12731 L29.5647363,6.12731 C28.1830325,8.05797125 26.4061525,9.538095 24.42545,10.4074162 L24.42545,10.4074162 C22.4771663,11.2626062 20.3056088,11.6963525 17.9712925,11.6963525 L17.9712925,11.6963525 C15.6373088,11.6963525 13.4657513,11.2626062 11.5174675,10.4074162 L11.5174675,10.4074162 C9.5370975,9.538095 7.7602175,8.05797125 6.37851375,6.12731 L6.37851375,6.12731 C3.94744,2.7301575 1.31154625,0.279965 1.200325,0.17705625 L1.200325,0.17705625 C0.9300025,-0.07265125 0.50939,-0.05536125 0.260015,0.21629125 L0.260015,0.21629125 C0.01113875,0.4877775 0.028595,0.910385 0.29875125,1.160425 L0.29875125,1.160425 C0.32501875,1.18486375 2.94944125,3.62574625 5.29739,6.907355 L5.29739,6.907355 C6.81841125,9.03336 8.7849825,10.6670987 10.9846362,11.6323462 L10.9846362,11.6323462 C13.1019963,12.56185 15.452605,13.0331687 17.971625,13.0331687 L17.971625,13.0331687 C20.4904788,13.0331687 22.8409213,12.56185 24.9582812,11.6323462 L24.9582812,11.6323462 C27.157935,10.6667663 29.1248388,9.0330275 30.6455275,6.907355 L30.6455275,6.907355 C32.9934763,3.62574625 35.6182313,1.18486375 35.6443325,1.1607575 L35.6443325,1.1607575 C35.914655,0.910385 35.9321112,0.4877775 35.683235,0.21629125 L35.683235,0.21629125 C35.5517313,0.0728175 35.37268,0.00016625 35.19313,0.00016625 L35.19313,0.00016625 C35.0320337,0.00016625 34.870605,0.05868625 34.7425925,0.17705625 L34.7425925,0.17705625 Z" id="path-67"></path>
    </defs>
    <g id="Page-1" stroke="none" stroke-width="1" fill="none" fill-rule="evenodd">
        <g id="보이스앨범1218" transform="translate(-226.000000, -897.000000)">
            <g id="Group-173" transform="translate(227.000000, 898.000000)">
                <path d="M26.7637396,4.78304575 C23.9034084,4.78304575 21.1714221,5.3295095 18.6610471,6.31221325 L20.9840584,12.2666232 C22.7727421,11.5592295 24.7220234,11.1655495 26.7637396,11.1655495 C28.8056221,11.1655495 30.7549034,11.5592295 32.5435871,12.2666232 L34.8752434,6.28960325 C32.3658659,5.31936825 29.6317184,4.78304575 26.7637396,4.78304575" id="Fill-1" fill="#7056D4"></path>
                <g id="Group-6" transform="translate(18.620000, 4.741616)">
                    <mask id="mask-2" fill="white">
                        <use xlink:href="#path-1"></use>
                    </mask>
                    <g id="Clip-4"></g>
                    <polygon id="Fill-3" fill="#7056D4" mask="url(#mask-2)" points="-19.2911512 53.0493775 56.1670637 53.0493775 56.1670637 -5.5710375 -19.2911512 -5.5710375"></polygon>
                    <polygon id="Fill-5" fill="#7056D4" mask="url(#mask-2)" points="-1.5178625 9.08406625 17.8143525 9.08406625 17.8143525 -1.51753 -1.5178625 -1.51753"></polygon>
                </g>
                <path d="M4.94146537,26.6140647 C4.94146537,29.4745622 5.48776288,32.2067147 6.47063287,34.7169235 L12.4248766,32.3942447 C11.7171504,30.6053947 11.3239691,28.6559472 11.3239691,26.6140647 C11.3239691,24.572681 11.7171504,22.622901 12.4248766,20.8343835 L6.44769038,18.5027272 C5.47745538,21.0119385 4.94146537,23.7464185 4.94146537,26.6140647" id="Fill-7" fill="#7056D4"></path>
                <g id="Group-12" transform="translate(4.821250, 18.374116)">
                    <mask id="mask-4" fill="white">
                        <use xlink:href="#path-3"></use>
                    </mask>
                    <g id="Clip-10"></g>
                    <polygon id="Fill-9" fill="#7056D4" mask="url(#mask-4)" points="-5.49240125 39.4168775 69.9658137 39.4168775 69.9658137 -19.2035375 -5.49240125 -19.2035375"></polygon>
                    <polygon id="Fill-11" fill="#7056D4" mask="url(#mask-4)" points="-1.43889375 17.9019663 9.1627025 17.9019663 9.1627025 -1.430415 -1.43889375 -1.430415"></polygon>
                </g>
                <g id="Group-15" transform="translate(0.498750, 0.419116)">
                    <mask id="mask-6" fill="white">
                        <use xlink:href="#path-5"></use>
                    </mask>
                    <g id="Clip-14"></g>
                    <polygon id="Fill-13" fill="#FFFFFF" mask="url(#mask-6)" points="-1.48178625 53.9137112 53.84372 53.9137112 53.84372 -1.41162875 -1.48178625 -1.41162875"></polygon>
                </g>
                <path d="M27.6716143,15.2001377 C20.4374118,14.5555865 14.4022043,20.5909602 15.0467555,27.825329 C15.5408505,33.3712627 20.006658,37.836904 25.5522593,38.3311652 C32.787293,38.9762152 38.8226668,32.9403427 38.1776168,25.7054752 C37.683023,20.1600402 33.2173818,15.6945652 27.6716143,15.2001377 M27.4583155,39.6787878 C19.6576993,40.1780365 13.2002168,33.7202215 13.6992993,25.9196053 C14.111433,19.472264 19.3193805,14.264649 25.7665555,13.8528478 C33.5665068,13.3540978 40.0236567,19.8109153 39.5254055,27.6108665 C39.113438,34.058374 33.905823,39.2663215 27.4583155,39.6787878" id="Fill-16" fill="#7056D4"></path>
                <g id="Group-20" transform="translate(13.632500, 13.719116)">
                    <mask id="mask-8" fill="white">
                        <use xlink:href="#path-7"></use>
                    </mask>
                    <g id="Clip-19"></g>
                    <polygon id="Fill-18" fill="#7056D4" mask="url(#mask-8)" points="-14.3036512 44.0718775 61.1545637 44.0718775 61.1545637 -14.5485375 -14.3036512 -14.5485375"></polygon>
                </g>
                <g id="Group-23" transform="translate(13.632500, 13.719116)">
                    <mask id="mask-10" fill="white">
                        <use xlink:href="#path-9"></use>
                    </mask>
                    <g id="Clip-22"></g>
                    <polygon id="Fill-21" fill="#7056D4" mask="url(#mask-10)" points="-1.51935875 27.5459625 27.4789638 27.5459625 27.4789638 -1.45252625 -1.51935875 -1.45252625"></polygon>
                </g>
                <path d="M27.2845676,22.6812215 C24.6965539,22.3522127 22.5102001,24.5390653 22.8397076,27.1265802 C23.0643114,28.890659 24.4885751,30.3145902 26.2524876,30.538529 C28.8400026,30.8668727 31.0258576,28.6806852 30.6968489,26.0935027 C30.4725776,24.3295902 29.0481476,22.905659 27.2845676,22.6812215 M27.3108351,31.8834915 C23.9628926,32.2178203 21.1599176,29.4148453 21.4945789,26.0669028 C21.7426239,23.5884478 23.7469339,21.5839715 26.2255551,21.3360928 C29.5738301,21.001764 32.3766389,23.8049053 32.0418114,27.1526815 C31.7939326,29.6313028 29.7892901,31.6356128 27.3108351,31.8834915" id="Fill-24" fill="#7056D4"></path>
                <g id="Group-28" transform="translate(21.446250, 21.200366)">
                    <mask id="mask-12" fill="white">
                        <use xlink:href="#path-11"></use>
                    </mask>
                    <g id="Clip-27"></g>
                    <polygon id="Fill-26" fill="#7056D4" mask="url(#mask-12)" points="-22.1174013 36.5906275 53.3408137 36.5906275 53.3408137 -22.0297875 -22.1174013 -22.0297875"></polygon>
                </g>
                <g id="Group-32" transform="translate(21.446250, 21.200366)">
                    <mask id="mask-14" fill="white">
                        <use xlink:href="#path-13"></use>
                    </mask>
                    <g id="Clip-30"></g>
                    <polygon id="Fill-29" fill="#7056D4" mask="url(#mask-14)" points="-1.5378125 12.26925 12.1818025 12.26925 12.1818025 -1.45019875 -1.5378125 -1.45019875"></polygon>
                    <polygon id="Stroke-31" stroke="#7056D4" stroke-width="0.5" mask="url(#mask-14)" points="-1.5378125 12.26925 12.1818025 12.26925 12.1818025 -1.45019875 -1.5378125 -1.45019875"></polygon>
                </g>
                <g id="Group-35" transform="translate(21.446250, 21.200366)">
                    <mask id="mask-16" fill="white">
                        <use xlink:href="#path-15"></use>
                    </mask>
                    <g id="Clip-34"></g>
                    <polygon id="Stroke-33" stroke="#7056D4" stroke-width="0.5" mask="url(#mask-16)" points="-22.1174013 36.5906275 53.3408137 36.5906275 53.3408137 -22.0297875 -22.1174013 -22.0297875"></polygon>
                </g>
                <g id="Group-40" transform="translate(21.446250, 21.200366)">
                    <path d="M5.83831763,1.48085525 C3.25030388,1.1518465 1.06395013,3.338699 1.39345763,5.926214 C1.61806138,7.69029275 3.04232512,9.114224 4.80623763,9.33816275 C7.39375263,9.6665065 9.57960762,7.480319 9.25059888,4.8931365 C9.02632762,3.129224 7.60189763,1.70529275 5.83831763,1.48085525 M5.86458512,10.6831253 C2.51664262,11.017454 -0.286332375,8.214479 0.048328875,4.8665365 C0.296373875,2.3880815 2.30068387,0.38360525 4.77930512,0.1357265 C8.12758012,-0.19860225 10.9303889,2.604539 10.5955614,5.95231525 C10.3476826,8.4309365 8.34304012,10.4352465 5.86458512,10.6831253" id="Stroke-36" stroke="#7056D4" stroke-width="0.5"></path>
                    <path d="M16.9139924,22.8709294 C16.6947086,22.8709294 16.4795811,22.7656931 16.3490749,22.5708481 C16.1415949,22.2616231 16.2258836,21.8436706 16.5377686,21.6378531 C16.5666961,21.6187344 19.5407424,19.6112656 22.4566011,15.0972456 C22.6165336,14.8500319 22.9167811,14.7078881 23.2023986,14.7845294 C23.6758786,14.9117106 23.8521036,15.4304106 23.6117061,15.8026444 C20.5257736,20.5878181 17.4197249,22.6715956 17.2892186,22.7582119 C17.1736749,22.8345206 17.0431686,22.8709294 16.9139924,22.8709294" id="Fill-38" fill="#7056D4"></path>
                </g>
                <g id="Group-43" transform="translate(37.572500, 35.830366)">
                    <mask id="mask-18" fill="white">
                        <use xlink:href="#path-17"></use>
                    </mask>
                    <g id="Clip-42"></g>
                    <polygon id="Fill-41" fill="#7056D4" mask="url(#mask-18)" points="-38.2436512 21.9606275 37.2145637 21.9606275 37.2145637 -36.6597875 -38.2436512 -36.6597875"></polygon>
                </g>
                <g id="Group-47" transform="translate(37.572500, 35.830366)">
                    <mask id="mask-20" fill="white">
                        <use xlink:href="#path-19"></use>
                    </mask>
                    <g id="Clip-45"></g>
                    <polygon id="Fill-44" fill="#7056D4" mask="url(#mask-20)" points="-1.4500325 9.79993875 9.15156375 9.79993875 9.15156375 -1.42526125 -1.4500325 -1.42526125"></polygon>
                    <polygon id="Stroke-46" stroke="#7056D4" stroke-width="0.5" mask="url(#mask-20)" points="-1.4500325 9.79993875 9.15156375 9.79993875 9.15156375 -1.42526125 -1.4500325 -1.42526125"></polygon>
                </g>
                <g id="Group-50" transform="translate(37.572500, 35.830366)">
                    <mask id="mask-22" fill="white">
                        <use xlink:href="#path-21"></use>
                    </mask>
                    <g id="Clip-49"></g>
                    <polygon id="Stroke-48" stroke="#7056D4" stroke-width="0.5" mask="url(#mask-22)" points="-38.2436512 21.9606275 37.2145637 21.9606275 37.2145637 -36.6597875 -38.2436512 -36.6597875"></polygon>
                </g>
                <g id="Group-55" transform="translate(37.572500, 31.840366)">
                    <path d="M0.787742375,12.2309294 C0.568458625,12.2309294 0.353331125,12.1256931 0.222824875,11.9308481 C0.015344875,11.6216231 0.099633625,11.2036706 0.411518625,10.9978531 C0.440446125,10.9787344 3.41449238,8.97126562 6.33035113,4.45724562 C6.49028363,4.21003187 6.79053113,4.06788813 7.07614863,4.14452937 C7.54962862,4.27171063 7.72585363,4.79041062 7.48545613,5.16264437 C4.39952363,9.94781812 1.29347488,12.0315956 1.16296863,12.1182119 C1.04742488,12.1945206 0.916918625,12.2309294 0.787742375,12.2309294" id="Stroke-51" stroke="#7056D4" stroke-width="0.5"></path>
                    <path d="M34.9936799,12.2309294 C34.8678286,12.2309294 34.7408136,12.1950194 34.6282624,12.1198744 C34.5005824,12.0345881 31.4715074,9.98189937 28.4618836,5.26804687 C28.4367799,5.22731562 26.5425274,2.19441687 23.6333186,1.52675687 C22.1910999,1.19625187 20.7118074,1.50414687 19.2360061,2.44096563 C18.9906211,2.59690812 18.6669324,2.60588562 18.4438249,2.41968562 C18.0749161,2.11179062 18.1326049,1.57447062 18.4995186,1.33972562 C20.2960161,0.189275625 22.1260961,-0.181628125 23.9372236,0.236823125 C27.3907349,1.03415812 29.4947949,4.42067062 29.5829074,4.56447687 C32.4237874,9.01382562 35.3328299,10.9973544 35.3617574,11.0168056 C35.6649974,11.2202956 35.7469586,11.6319306 35.5439674,11.9358356 C35.4166199,12.1271894 35.2071449,12.2309294 34.9936799,12.2309294" id="Fill-53" fill="#7056D4"></path>
                </g>
                <g id="Group-58" transform="translate(55.693750, 31.840366)">
                    <mask id="mask-24" fill="white">
                        <use xlink:href="#path-23"></use>
                    </mask>
                    <g id="Clip-57"></g>
                    <polygon id="Fill-56" fill="#7056D4" mask="url(#mask-24)" points="-56.3649012 25.9506275 19.0933138 25.9506275 19.0933138 -32.6697875 -56.3649012 -32.6697875"></polygon>
                </g>
                <g id="Group-62" transform="translate(55.693750, 31.840366)">
                    <mask id="mask-26" fill="white">
                        <use xlink:href="#path-25"></use>
                    </mask>
                    <g id="Clip-60"></g>
                    <polygon id="Fill-59" fill="#7056D4" mask="url(#mask-26)" points="-1.486275 13.7897725 19.0933137 13.7897725 19.0933137 -1.48876875 -1.486275 -1.48876875"></polygon>
                    <polygon id="Stroke-61" stroke="#7056D4" stroke-width="0.5" mask="url(#mask-26)" points="-1.486275 13.7897725 19.0933137 13.7897725 19.0933137 -1.48876875 -1.486275 -1.48876875"></polygon>
                </g>
                <g id="Group-65" transform="translate(55.693750, 31.840366)">
                    <mask id="mask-28" fill="white">
                        <use xlink:href="#path-27"></use>
                    </mask>
                    <g id="Clip-64"></g>
                    <polygon id="Stroke-63" stroke="#7056D4" stroke-width="0.5" mask="url(#mask-28)" points="-56.3649012 25.9506275 19.0933138 25.9506275 19.0933138 -32.6697875 -56.3649012 -32.6697875"></polygon>
                </g>
                <g id="Group-70" transform="translate(37.572500, 31.840366)">
                    <path d="M34.9936799,12.2309294 C34.8678286,12.2309294 34.7408136,12.1950194 34.6282624,12.1198744 C34.5005824,12.0345881 31.4715074,9.98189937 28.4618836,5.26804687 C28.4367799,5.22731562 26.5425274,2.19441687 23.6333186,1.52675687 C22.1910999,1.19625187 20.7118074,1.50414687 19.2360061,2.44096563 C18.9906211,2.59690812 18.6669324,2.60588562 18.4438249,2.41968562 C18.0749161,2.11179062 18.1326049,1.57447062 18.4995186,1.33972562 C20.2960161,0.189275625 22.1260961,-0.181628125 23.9372236,0.236823125 C27.3907349,1.03415812 29.4947949,4.42067062 29.5829074,4.56447687 C32.4237874,9.01382562 35.3328299,10.9973544 35.3617574,11.0168056 C35.6649974,11.2202956 35.7469586,11.6319306 35.5439674,11.9358356 C35.4166199,12.1271894 35.2071449,12.2309294 34.9936799,12.2309294" id="Stroke-66" stroke="#7056D4" stroke-width="0.5"></path>
                    <path d="M3.14446913,12.5426481 C1.72652288,12.5426481 0.724201625,12.3276869 0.622456625,12.3047444 C0.266847875,12.2254431 0.044571625,11.8789781 0.125867875,11.5308506 C0.206831625,11.1830556 0.561442875,10.9642706 0.916386625,11.0447356 C0.972080375,11.0565394 6.59349162,12.2462244 9.98781788,8.55796812 C10.0109266,8.53303062 10.5901416,7.90676687 11.5864779,7.33120937 C11.9369329,7.12954812 12.3997729,7.27983812 12.5454079,7.67385062 C12.6546341,7.96944312 12.5063391,8.29911687 12.2305304,8.46004687 C11.4365204,8.92355187 10.9731816,9.41864437 10.9685266,9.42329937 C8.58001288,12.0187944 5.35675788,12.5426481 3.14446913,12.5426481" id="Fill-68" fill="#7056D4"></path>
                </g>
                <g id="Group-73" transform="translate(37.572500, 38.989116)">
                    <mask id="mask-30" fill="white">
                        <use xlink:href="#path-29"></use>
                    </mask>
                    <g id="Clip-72"></g>
                    <polygon id="Fill-71" fill="#7056D4" mask="url(#mask-30)" points="-38.2436512 18.8018775 37.2145637 18.8018775 37.2145637 -39.8185375 -38.2436512 -39.8185375"></polygon>
                </g>
                <g id="Group-77" transform="translate(37.572500, 38.989116)">
                    <mask id="mask-32" fill="white">
                        <use xlink:href="#path-31"></use>
                    </mask>
                    <g id="Clip-75"></g>
                    <polygon id="Fill-74" fill="#7056D4" mask="url(#mask-32)" points="-1.4500325 6.95307375 14.1403937 6.95307375 14.1403937 -1.46582625 -1.4500325 -1.46582625"></polygon>
                    <polygon id="Stroke-76" stroke="#7056D4" stroke-width="0.5" mask="url(#mask-32)" points="-1.4500325 6.95307375 14.1403937 6.95307375 14.1403937 -1.46582625 -1.4500325 -1.46582625"></polygon>
                </g>
                <g id="Group-80" transform="translate(37.572500, 38.989116)">
                    <mask id="mask-34" fill="white">
                        <use xlink:href="#path-33"></use>
                    </mask>
                    <g id="Clip-79"></g>
                    <polygon id="Stroke-78" stroke="#7056D4" stroke-width="0.5" mask="url(#mask-34)" points="-38.2436512 18.8018775 37.2145637 18.8018775 37.2145637 -39.8185375 -38.2436512 -39.8185375"></polygon>
                </g>
                <g id="Group-85" transform="translate(37.572500, 37.991616)">
                    <path d="M3.14446913,6.39139812 C1.72652288,6.39139812 0.724201625,6.17643687 0.622456625,6.15349437 C0.266847875,6.07419312 0.044571625,5.72772812 0.125867875,5.37960062 C0.206831625,5.03180562 0.561442875,4.81302062 0.916386625,4.89348562 C0.972080375,4.90528937 6.59349162,6.09497437 9.98781788,2.40671812 C10.0109266,2.38178062 10.5901416,1.75551687 11.5864779,1.17995937 C11.9369329,0.978298125 12.3997729,1.12858812 12.5454079,1.52260062 C12.6546341,1.81819312 12.5063391,2.14786687 12.2305304,2.30879687 C11.4365204,2.77230187 10.9731816,3.26739437 10.9685266,3.27204937 C8.58001288,5.86754437 5.35675788,6.39139812 3.14446913,6.39139812" id="Stroke-81" stroke="#7056D4" stroke-width="0.5"></path>
                    <path d="M32.622506,6.39139812 C30.4117135,6.39139812 27.190786,5.86388687 24.8031035,3.24794312 C24.691051,3.12608187 22.0042848,0.273730625 18.2011498,2.01403562 C18.0252573,2.09433437 17.8224323,2.09433437 17.6465398,2.01403562 C16.9043998,1.67471937 16.153781,1.48768812 15.415631,1.45809562 C15.0974285,1.44512812 14.8149698,1.21586937 14.7710798,0.904649375 C14.7122273,0.487361875 15.038576,0.147546875 15.4485485,0.156025625 C16.2743123,0.186615625 17.1055623,0.373480625 17.9235123,0.711633125 C22.4827523,-1.17580313 25.7513935,2.34088312 25.7844773,2.37745812 C29.1754785,6.09248062 34.7935648,4.89431687 34.8499235,4.88184812 C35.2048673,4.80304562 35.5583148,5.02249562 35.638946,5.37311687 C35.719411,5.72340562 35.4976335,6.07169937 35.142856,6.15166562 C35.041111,6.17477437 34.038956,6.39139812 32.622506,6.39139812" id="Fill-83" fill="#7056D4"></path>
                </g>
                <g id="Group-88" transform="translate(52.202500, 37.991616)">
                    <mask id="mask-36" fill="white">
                        <use xlink:href="#path-35"></use>
                    </mask>
                    <g id="Clip-87"></g>
                    <polygon id="Fill-86" fill="#7056D4" mask="url(#mask-36)" points="-52.8736512 19.7993775 22.5845638 19.7993775 22.5845638 -38.8210375 -52.8736512 -38.8210375"></polygon>
                </g>
                <g id="Group-92" transform="translate(52.202500, 37.991616)">
                    <mask id="mask-38" fill="white">
                        <use xlink:href="#path-37"></use>
                    </mask>
                    <g id="Clip-90"></g>
                    <polygon id="Fill-89" fill="#7056D4" mask="url(#mask-38)" points="-1.42492875 7.95057375 22.5843975 7.95057375 22.5843975 -1.403815 -1.42492875 -1.403815"></polygon>
                    <polygon id="Stroke-91" stroke="#7056D4" stroke-width="0.5" mask="url(#mask-38)" points="-1.42492875 7.95057375 22.5843975 7.95057375 22.5843975 -1.403815 -1.42492875 -1.403815"></polygon>
                </g>
                <g id="Group-95" transform="translate(52.202500, 37.991616)">
                    <mask id="mask-40" fill="white">
                        <use xlink:href="#path-39"></use>
                    </mask>
                    <g id="Clip-94"></g>
                    <polygon id="Stroke-93" stroke="#7056D4" stroke-width="0.5" mask="url(#mask-40)" points="-52.8736512 19.7993775 22.5845638 19.7993775 22.5845638 -38.8210375 -52.8736512 -38.8210375"></polygon>
                </g>
                <g id="Group-100" transform="translate(46.716250, 37.991616)">
                    <path d="M23.478756,6.39139812 C21.2679635,6.39139812 18.047036,5.86388687 15.6593535,3.24794312 C15.547301,3.12608187 12.8605348,0.273730625 9.05739975,2.01403562 C8.88150725,2.09433437 8.67868225,2.09433437 8.50278975,2.01403562 C7.76064975,1.67471937 7.010031,1.48768812 6.271881,1.45809562 C5.9536785,1.44512812 5.67121975,1.21586937 5.62732975,0.904649375 C5.56847725,0.487361875 5.894826,0.147546875 6.3047985,0.156025625 C7.13056225,0.186615625 7.96181225,0.373480625 8.77976225,0.711633125 C13.3390023,-1.17580313 16.6076435,2.34088312 16.6407273,2.37745812 C20.0317285,6.09248062 25.6498148,4.89431687 25.7061735,4.88184812 C26.0611173,4.80304562 26.4145648,5.02249562 26.495196,5.37311687 C26.575661,5.72340562 26.3538835,6.07169937 25.999106,6.15166562 C25.897361,6.17477437 24.895206,6.39139812 23.478756,6.39139812" id="Stroke-96" stroke="#7056D4" stroke-width="0.5"></path>
                    <path d="M8.89462438,5.45607563 C3.62699313,5.45607563 0.538234375,4.22383063 0.409556875,4.17129563 C0.073898125,4.03463813 -0.082210625,3.66473188 0.060930625,3.34470063 C0.204404375,3.02450313 0.592265625,2.87570938 0.928256875,3.01220063 C0.956519375,3.02383813 3.92059063,4.19573438 8.89462438,4.19573438 C13.8686581,4.19573438 16.8325631,3.02383813 16.8619894,3.01203438 C17.1981469,2.87703938 17.5858419,3.02599938 17.7281519,3.34553188 C17.8706281,3.66539688 17.7150181,4.03480438 17.3796919,4.17129563 C17.2508481,4.22383063 14.1620894,5.45607563 8.89462438,5.45607563" id="Fill-98" fill="#7056D4"></path>
                </g>
                <g id="Group-103" transform="translate(46.716250, 40.817866)">
                    <mask id="mask-42" fill="white">
                        <use xlink:href="#path-41"></use>
                    </mask>
                    <g id="Clip-102"></g>
                    <polygon id="Fill-101" fill="#7056D4" mask="url(#mask-42)" points="-47.3874012 16.9731275 28.0708138 16.9731275 28.0708138 -41.6472875 -47.3874012 -41.6472875"></polygon>
                </g>
                <g id="Group-107" transform="translate(46.716250, 40.817866)">
                    <mask id="mask-44" fill="white">
                        <use xlink:href="#path-43"></use>
                    </mask>
                    <g id="Clip-105"></g>
                    <polygon id="Fill-104" fill="#7056D4" mask="url(#mask-44)" points="-1.55127875 4.188835 19.3400288 4.188835 19.3400288 -1.423765 -1.55127875 -1.423765"></polygon>
                    <polygon id="Stroke-106" stroke="#7056D4" stroke-width="0.5" mask="url(#mask-44)" points="-1.55127875 4.188835 19.3400288 4.188835 19.3400288 -1.423765 -1.55127875 -1.423765"></polygon>
                </g>
                <g id="Group-110" transform="translate(46.716250, 40.817866)">
                    <mask id="mask-46" fill="white">
                        <use xlink:href="#path-45"></use>
                    </mask>
                    <g id="Clip-109"></g>
                    <polygon id="Stroke-108" stroke="#7056D4" stroke-width="0.5" mask="url(#mask-46)" points="-47.3874012 16.9731275 28.0708138 16.9731275 28.0708138 -41.6472875 -47.3874012 -41.6472875"></polygon>
                </g>
                <path d="M55.6108744,43.4476919 C50.3432431,43.4476919 47.2544844,42.2154469 47.1258069,42.1629119 C46.7901481,42.0262544 46.6340394,41.6563481 46.7771806,41.3363169 C46.9206544,41.0161194 47.3085156,40.8673256 47.6445069,41.0038169 C47.6727694,41.0154544 50.6368406,42.1873506 55.6108744,42.1873506 C60.5849081,42.1873506 63.5488131,41.0154544 63.5782394,41.0036506 C63.9143969,40.8686556 64.3020919,41.0176156 64.4444019,41.3371481 C64.5868781,41.6570131 64.4312681,42.0264206 64.0959419,42.1629119 C63.9670981,42.2154469 60.8783394,43.4476919 55.6108744,43.4476919" id="Stroke-111" stroke="#7056D4" stroke-width="0.5"></path>
                <g id="Group-115" transform="translate(37.406250, 42.812866)">
                    <mask id="mask-48" fill="white">
                        <use xlink:href="#path-47"></use>
                    </mask>
                    <g id="Clip-114"></g>
                    <path d="M18.047302,13.10715 C15.5284482,13.10715 13.177507,12.6359975 11.0603133,11.7063275 C8.8606595,10.7412462 6.89408825,9.10734125 5.373067,6.98133625 C3.02511825,3.70006 0.40069575,1.258845 0.37442825,1.2345725 C0.104272,0.98436625 0.08681575,0.561925 0.335692,0.2902725 C0.585067,0.01878625 1.00584575,0.00149625 1.276002,0.25137 C1.38722325,0.3541125 4.023117,2.804305 6.45419075,6.20162375 C7.83572825,8.13211875 9.6127745,9.61240875 11.5933107,10.4815637 C13.5414282,11.3367537 15.7129857,11.7703338 18.0471358,11.7703338 C20.381452,11.7703338 22.5528432,11.3367537 24.5009607,10.4815637 C26.4816632,9.61240875 28.2587095,8.13211875 29.6404132,6.20162375 C32.0711545,2.804305 34.7073807,0.35378 34.8182695,0.25137 C35.0887582,0.0009975 35.509537,0.01845375 35.7587457,0.2902725 C36.0077882,0.561925 35.990332,0.98436625 35.7201757,1.23473875 C35.6939082,1.258845 33.0691532,3.70006 30.7212045,6.98133625 C29.2003495,9.107175 27.2337782,10.74108 25.0339582,11.7063275 C22.9167645,12.6359975 20.5661558,13.10715 18.047302,13.10715" id="Fill-113" fill="#7056D4" mask="url(#mask-48)"></path>
                </g>
                <g id="Group-118" transform="translate(37.406250, 42.812866)">
                    <mask id="mask-50" fill="white">
                        <use xlink:href="#path-49"></use>
                    </mask>
                    <g id="Clip-117"></g>
                    <polygon id="Fill-116" fill="#7056D4" mask="url(#mask-50)" points="-0.036575 13.419035 36.13344 13.419035 36.13344 0.01113875 -0.036575 0.01113875"></polygon>
                </g>
                <g id="Group-121" transform="translate(37.406250, 42.812866)">
                    <mask id="mask-52" fill="white">
                        <use xlink:href="#path-51"></use>
                    </mask>
                    <g id="Clip-120"></g>
                    <polygon id="Fill-119" fill="#7056D4" mask="url(#mask-52)" points="-1.39932625 14.6660762 37.4936975 14.6660762 37.4936975 -1.4846125 -1.39932625 -1.4846125"></polygon>
                </g>
                <path d="M55.26416,48.7483736 C52.6013338,48.7483736 48.9963687,48.6905186 44.5799375,45.9919486 C44.3013025,45.8215424 44.155335,45.4647699 44.2675538,45.1493936 C44.4158488,44.7342674 44.8760287,44.5761636 45.224655,44.7899611 C49.4417525,47.3751486 52.9117225,47.3718236 55.4422138,47.3721561 L55.6879312,47.3721561 C58.399635,47.3771436 61.7801625,47.3726549 65.9929375,44.7899611 C66.3666675,44.5610349 66.8685762,44.7585399 66.9763062,45.2418286 C67.04131,45.5325999 66.8946775,45.8346761 66.6472975,45.9861299 C62.131615,48.7488724 58.4071163,48.7380661 55.6879312,48.7483736 L55.4427125,48.7483736 L55.26416,48.7483736 Z" id="Fill-122" fill="#7056D4"></path>
                <g id="Group-126" transform="translate(44.222500, 44.641616)">
                    <mask id="mask-54" fill="white">
                        <use xlink:href="#path-53"></use>
                    </mask>
                    <g id="Clip-125"></g>
                    <polygon id="Fill-124" fill="#7056D4" mask="url(#mask-54)" points="-44.8936512 13.1493775 30.5645638 13.1493775 30.5645638 -45.4710375 -44.8936512 -45.4710375"></polygon>
                </g>
                <g id="Group-130" transform="translate(44.222500, 44.641616)">
                    <mask id="mask-56" fill="white">
                        <use xlink:href="#path-55"></use>
                    </mask>
                    <g id="Clip-128"></g>
                    <polygon id="Fill-127" fill="#7056D4" mask="url(#mask-56)" points="-1.55194375 5.66596625 24.32836 5.66596625 24.32836 -1.50572625 -1.55194375 -1.50572625"></polygon>
                    <polygon id="Stroke-129" stroke="#7056D4" stroke-width="0.5" mask="url(#mask-56)" points="-1.55194375 5.66596625 24.32836 5.66596625 24.32836 -1.50572625 -1.55194375 -1.50572625"></polygon>
                </g>
                <g id="Group-133" transform="translate(44.222500, 44.641616)">
                    <mask id="mask-58" fill="white">
                        <use xlink:href="#path-57"></use>
                    </mask>
                    <g id="Clip-132"></g>
                    <polygon id="Stroke-131" stroke="#7056D4" stroke-width="0.5" mask="url(#mask-58)" points="-44.8936512 13.1493775 30.5645638 13.1493775 30.5645638 -45.4710375 -44.8936512 -45.4710375"></polygon>
                </g>
                <path d="M55.26416,48.7483736 C52.6013338,48.7483736 48.9963687,48.6905186 44.5799375,45.9919486 C44.3013025,45.8215424 44.155335,45.4647699 44.2675538,45.1493936 C44.4158488,44.7342674 44.8760287,44.5761636 45.224655,44.7899611 C49.4417525,47.3751486 52.9117225,47.3718236 55.4422138,47.3721561 L55.6879312,47.3721561 C58.399635,47.3771436 61.7801625,47.3726549 65.9929375,44.7899611 C66.3666675,44.5610349 66.8685762,44.7585399 66.9763062,45.2418286 C67.04131,45.5325999 66.8946775,45.8346761 66.6472975,45.9861299 C62.131615,48.7488724 58.4071163,48.7380661 55.6879312,48.7483736 L55.4427125,48.7483736 L55.26416,48.7483736 Z" id="Stroke-134" stroke="#7056D4" stroke-width="0.5"></path>
                <path d="M26.5821447,53.2674809 C19.3146923,53.2674809 12.529531,50.3745646 7.476196,45.1215634 C2.426851,39.8730509 -0.19873525,32.9755046 0.08322475,25.7000721 C0.6157235,11.9605071 11.795371,0.781192125 25.5347697,0.249358375 C32.810701,-0.033599125 39.707416,2.59298463 44.9559285,7.64232963 C50.2087635,12.6956646 53.1015135,19.4809921 53.1015135,26.7482784 C53.1015135,28.7459384 52.8782397,30.7372809 52.438176,32.6669446 C52.317811,33.1954534 51.8514797,33.5612034 51.330951,33.5357671 C51.0067635,33.5198071 50.7100072,33.3638646 50.5164922,33.1081721 C50.322811,32.8523134 50.2526535,32.5262971 50.3243072,32.2137471 C50.7326172,30.4330434 50.9395985,28.5943184 50.9395985,26.7482784 C50.9395985,20.0736734 48.2822585,13.8414596 43.457351,9.19975963 C38.6364335,4.56204963 32.303306,2.15042713 25.6192247,2.40944463 C13.0000185,2.89821963 2.73225225,13.1661521 2.243311,25.7855246 C1.98445975,32.4679434 4.39608225,38.8030659 9.033626,43.6236509 C13.675326,48.4485584 19.9075398,51.1055659 26.5821447,51.1055659 C29.9982497,51.1055659 33.3018035,50.4126359 36.4008697,49.0460609 C36.6939685,48.9165521 37.0272997,48.9235346 37.3150785,49.0655121 C37.6031898,49.2073234 37.8123323,49.4696659 37.889306,49.7853746 C38.0124973,50.2919384 37.741676,50.8179534 37.2452535,51.0364059 C33.878026,52.5166959 30.290351,53.2674809 26.5821447,53.2674809" id="Fill-136" fill="#7056D4"></path>
                <g id="Group-140" transform="translate(0.000000, 0.086616)">
                    <mask id="mask-60" fill="white">
                        <use xlink:href="#path-59"></use>
                    </mask>
                    <g id="Clip-139"></g>
                    <path d="M0.8940925,52.3777275 L52.4470537,52.3777275 L52.4470537,0.82476625 L0.8940925,0.82476625 L0.8940925,52.3777275 Z M0.0628425,53.2089775 L53.2783037,53.2089775 L53.2783037,-0.00648375 L0.0628425,-0.00648375 L0.0628425,53.2089775 Z" id="Fill-138" fill="#7056D4" mask="url(#mask-60)"></path>
                </g>
                <g id="Group-144" transform="translate(0.000000, 0.086616)">
                    <mask id="mask-62" fill="white">
                        <use xlink:href="#path-61"></use>
                    </mask>
                    <g id="Clip-142"></g>
                    <polygon id="Fill-141" fill="#7056D4" mask="url(#mask-62)" points="-1.080625 54.3241825 54.2450475 54.3241825 54.2450475 -1.00099125 -1.080625 -1.00099125"></polygon>
                    <path d="M-0.665,53.9085575 L53.8294225,53.9085575 L53.8294225,-0.58536625 L-0.665,-0.58536625 L-0.665,53.9085575 Z M-1.49625,54.7398075 L54.6606725,54.7398075 L54.6606725,-1.41661625 L-1.49625,-1.41661625 L-1.49625,54.7398075 Z" id="Fill-143" fill="#7056D4" mask="url(#mask-62)"></path>
                </g>
                <g id="Group-149" transform="translate(0.000000, 0.086616)">
                    <path d="M26.5821447,53.1808646 C19.3146923,53.1808646 12.529531,50.2879484 7.476196,45.0349471 C2.426851,39.7864346 -0.19873525,32.8888884 0.08322475,25.6134559 C0.6157235,11.8738909 11.795371,0.694575875 25.5347697,0.162742125 C32.810701,-0.120215375 39.707416,2.50636837 44.9559285,7.55571337 C50.2087635,12.6090484 53.1015135,19.3943759 53.1015135,26.6616621 C53.1015135,28.6593221 52.8782397,30.6506646 52.438176,32.5803284 C52.317811,33.1088371 51.8514797,33.4745871 51.330951,33.4491509 C51.0067635,33.4331909 50.7100072,33.2772484 50.5164922,33.0215559 C50.322811,32.7656971 50.2526535,32.4396809 50.3243072,32.1271309 C50.7326172,30.3464271 50.9395985,28.5077021 50.9395985,26.6616621 C50.9395985,19.9870571 48.2822585,13.7548434 43.457351,9.11314337 C38.6364335,4.47543337 32.303306,2.06381088 25.6192247,2.32282838 C13.0000185,2.81160338 2.73225225,13.0795359 2.243311,25.6989084 C1.98445975,32.3813271 4.39608225,38.7164496 9.033626,43.5370346 C13.675326,48.3619421 19.9075398,51.0189496 26.5821447,51.0189496 C29.9982497,51.0189496 33.3018035,50.3260196 36.4008697,48.9594446 C36.6939685,48.8299359 37.0272997,48.8369184 37.3150785,48.9788959 C37.6031898,49.1207071 37.8123323,49.3830496 37.889306,49.6987584 C38.0124973,50.2053221 37.741676,50.7313371 37.2452535,50.9497896 C33.878026,52.4300796 30.290351,53.1808646 26.5821447,53.1808646 Z" id="Stroke-145" stroke="#7056D4" stroke-width="0.5"></path>
                    <path d="M55.3778085,55.7593689 C52.8589547,55.7593689 50.5081797,55.2880501 48.3908197,54.3585464 C46.191166,53.3934651 44.224761,51.7595601 42.7035735,49.6335551 C40.355791,46.3521126 37.7312023,43.9110639 37.7049347,43.8866251 C37.4347785,43.6365851 37.4173222,43.2139776 37.6663647,42.9424914 C37.9155735,42.6708389 38.3363522,42.6535489 38.6065085,42.9034226 C38.7177297,43.0061651 41.3537897,45.4563576 43.7846972,48.8536764 C45.166401,50.7841714 46.943281,52.2644614 48.9238172,53.1336164 C50.872101,53.9889726 53.0434922,54.4225526 55.3776423,54.4225526 C57.7119585,54.4225526 59.8833497,53.9889726 61.8316335,53.1336164 C63.812336,52.2644614 65.5893822,50.7841714 66.9709197,48.8536764 C69.401661,45.4563576 72.0378872,43.0059989 72.1489423,42.9034226 C72.4192647,42.6530501 72.8400435,42.6706726 73.0894185,42.9424914 C73.3382947,43.2139776 73.3208385,43.6365851 73.0506822,43.8869576 C73.0244147,43.9110639 70.3996597,46.3521126 68.0518772,49.6335551 C66.5310222,51.7592276 64.5642847,53.3931326 62.3644647,54.3585464 C60.247271,55.2880501 57.8966622,55.7593689 55.3778085,55.7593689" id="Fill-147" fill="#7056D4"></path>
                </g>
                <g id="Group-152" transform="translate(37.406250, 42.812866)">
                    <mask id="mask-64" fill="white">
                        <use xlink:href="#path-63"></use>
                    </mask>
                    <g id="Clip-151"></g>
                    <polygon id="Fill-150" fill="#7056D4" mask="url(#mask-64)" points="-0.11221875 13.3448875 36.0577962 13.3448875 36.0577962 -0.0628425 -0.11221875 -0.0628425"></polygon>
                </g>
                <g id="Group-156" transform="translate(37.406250, 42.812866)">
                    <mask id="mask-66" fill="white">
                        <use xlink:href="#path-65"></use>
                    </mask>
                    <g id="Clip-154"></g>
                    <polygon id="Fill-153" fill="#7056D4" mask="url(#mask-66)" points="-1.47497 14.5919287 37.4180537 14.5919287 37.4180537 -1.55876 -1.47497 -1.55876"></polygon>
                    <polygon id="Stroke-155" stroke="#7056D4" stroke-width="0.5" mask="url(#mask-66)" points="-1.47497 14.5919287 37.4180537 14.5919287 37.4180537 -1.55876 -1.47497 -1.55876"></polygon>
                </g>
                <g id="Group-159" transform="translate(37.406250, 42.812866)">
                    <mask id="mask-68" fill="white">
                        <use xlink:href="#path-67"></use>
                    </mask>
                    <g id="Clip-158"></g>
                    <polygon id="Stroke-157" stroke="#7056D4" stroke-width="0.5" mask="url(#mask-68)" points="-0.11221875 13.3448875 36.0577962 13.3448875 36.0577962 -0.0628425 -0.11221875 -0.0628425"></polygon>
                </g>
                <g id="Group-164" transform="translate(13.632500, 13.885366)">
                    <path d="M41.7453085,41.9606189 C39.2264547,41.9606189 36.8756797,41.4893001 34.7583197,40.5597964 C32.558666,39.5947151 30.592261,37.9608101 29.0710735,35.8348051 C26.723291,32.5533626 24.0987023,30.1123139 24.0724347,30.0878751 C23.8022785,29.8378351 23.7848222,29.4152276 24.0338647,29.1437414 C24.2830735,28.8720889 24.7038522,28.8547989 24.9740085,29.1046726 C25.0852297,29.2074151 27.7212897,31.6576076 30.1521972,35.0549264 C31.533901,36.9854214 33.310781,38.4657114 35.2913172,39.3348664 C37.239601,40.1902226 39.4109922,40.6238026 41.7451423,40.6238026 C44.0794585,40.6238026 46.2508498,40.1902226 48.1991335,39.3348664 C50.179836,38.4657114 51.9568822,36.9854214 53.3384197,35.0549264 C55.769161,31.6576076 58.4053872,29.2072489 58.5164422,29.1046726 C58.7867647,28.8543001 59.2075435,28.8719226 59.4569185,29.1437414 C59.7057947,29.4152276 59.6883385,29.8378351 59.4181822,30.0882076 C59.3919147,30.1123139 56.7671597,32.5533626 54.4193772,35.8348051 C52.8985222,37.9604776 50.9317847,39.5943826 48.7319647,40.5597964 C46.614771,41.4893001 44.2641622,41.9606189 41.7453085,41.9606189" id="Stroke-160" stroke="#7056D4" stroke-width="0.5"></path>
                    <path d="M14.0714998,1.38230225 C6.83729725,0.737751 0.80208975,6.77312475 1.446641,14.0074935 C1.940736,19.5534272 6.4065435,24.0190685 11.9521448,24.5133297 C19.1871785,25.1583797 25.2225522,19.1225072 24.5776685,11.8876397 C24.0829085,6.34220475 19.6172673,1.87672975 14.0714998,1.38230225 M13.858201,25.8609523 C6.05758475,26.360201 -0.39989775,19.902386 0.09918475,12.1017698 C0.5113185,5.6544285 5.719266,0.4468135 12.166441,0.03501225 C19.9663922,-0.46373775 26.4235422,5.99307975 25.925291,13.793031 C25.5133235,20.2407048 20.3057085,25.4486523 13.858201,25.8609523" id="Fill-162" fill="#7056D4"></path>
                </g>
                <path d="M27.7039998,15.2676685 C20.4697972,14.6231172 14.4345897,20.658491 15.079141,27.8928597 C15.573236,33.4387935 20.0390435,37.9044347 25.5846448,38.398696 C32.8196785,39.043746 38.8550522,33.0078735 38.2101685,25.773006 C37.7154085,20.227571 33.2497672,15.762096 27.7039998,15.2676685 M27.490701,39.7463185 C19.6900847,40.2455673 13.2326022,33.7877523 13.7316847,25.987136 C14.1438185,19.5397948 19.351766,14.3321798 25.798941,13.9203785 C33.5988922,13.4216285 40.0560422,19.878446 39.557791,27.6783973 C39.1458235,34.126071 33.9382085,39.3340185 27.490701,39.7463185" id="Stroke-171" stroke="#7056D4" stroke-width="0.5"></path>
            </g>
        </g>
    </g>
</svg>