<?xml version="1.0" encoding="utf-8"?>
<!-- Generator: Adobe Illustrator 24.2.1, SVG Export Plug-In . SVG Version: 6.00 Build 0)  -->
<svg version="1.1" xmlns="http://www.w3.org/2000/svg" xmlns:xlink="http://www.w3.org/1999/xlink" x="0px" y="0px"
	 viewBox="0 0 20 20" style="enable-background:new 0 0 20 20;" xml:space="preserve">
<style type="text/css">
	.st0{display:none;}
	.st1{display:inline;}
	.st2{fill:#FFFFFF;}
</style>
<g id="레이어_2" class="st0">
	<g class="st1">
		<rect x="40" width="20" height="20"/>
	</g>
</g>
<g id="레이어_1">
	<g>
		<g>
			<path class="st2" d="M19.52,11.71c-0.27,0-0.48,0.22-0.48,0.48v0.8c0,0.08-0.06,0.16-0.14,0.18c-2.39,0.64-4.92,0.64-7.31,0
				c-0.08-0.02-0.14-0.09-0.14-0.18v-0.8c0-0.27-0.22-0.48-0.48-0.48c-0.27,0-0.48,0.22-0.48,0.48V13c0,0.38,0.19,0.71,0.48,0.93
				c-0.17,0-0.31,0.1-0.4,0.23c0-0.26-0.22-0.48-0.48-0.48H4.33l0.29-0.73h5.3c0.27,0,0.48-0.22,0.48-0.48
				c0-0.27-0.22-0.48-0.48-0.48H1.76c-0.34,0-0.62-0.28-0.62-0.62V2.59c0-0.34,0.28-0.62,0.62-0.62h11.55h1.03
				c0.34,0,0.62,0.28,0.62,0.62v3.09c0,0.27,0.22,0.48,0.48,0.48v0c0.27,0,0.48-0.22,0.48-0.48V2.59c0-0.87-0.71-1.59-1.59-1.59
				h-1.03H1.76C0.89,1,0.18,1.71,0.18,2.59v8.78c0,0.87,0.71,1.58,1.59,1.58h1.81l-0.41,1.04c-0.06,0.15-0.04,0.32,0.05,0.45
				s0.24,0.21,0.4,0.21h6.46c0.17,0,0.32-0.09,0.4-0.23v0.78c-0.09-0.13-0.23-0.23-0.4-0.23H1.84c-0.18,0-0.34,0.1-0.42,0.25
				l-1.29,2.32c-0.17,0.31-0.17,0.7,0.01,1c0.18,0.31,0.51,0.5,0.87,0.5c0,0,0,0,0,0h9.4v0c0.27,0,0.48-0.22,0.48-0.48
				c0-0.27-0.22-0.48-0.48-0.48h-9.4l-0.03-0.06h0l1.15-2.07h7.95c0.23,0,0.41-0.16,0.46-0.37c0.08,0.23,0.22,0.42,0.42,0.56
				c-0.26,0-0.48,0.22-0.48,0.48v0.8c0,0.52,0.35,0.98,0.86,1.11c1.28,0.34,2.59,0.51,3.91,0.51c1.32,0,2.64-0.17,3.91-0.51
				c0.5-0.13,0.86-0.59,0.86-1.11v-0.8c0-0.27-0.21-0.48-0.48-0.48C19.81,15.92,20,15.58,20,15.2v-0.8c0-0.27-0.21-0.48-0.48-0.48
				C19.81,13.71,20,13.37,20,13v-0.8C20,11.93,19.78,11.71,19.52,11.71z M19.03,17.41c0,0.08-0.06,0.15-0.14,0.18
				c-2.39,0.64-4.92,0.64-7.31,0c-0.08-0.02-0.14-0.09-0.14-0.18v-0.8c0-0.11-0.05-0.21-0.11-0.3c1.27,0.34,2.59,0.51,3.9,0.51
				c1.32,0,2.64-0.17,3.91-0.51c-0.07,0.08-0.11,0.18-0.11,0.3V17.41z M19.03,15.2c0,0.08-0.06,0.16-0.14,0.18
				c-2.39,0.64-4.92,0.64-7.31,0c-0.08-0.02-0.14-0.09-0.14-0.18v-0.8c0-0.11-0.05-0.22-0.11-0.3c1.27,0.34,2.59,0.51,3.91,0.51
				c1.32,0,2.63-0.17,3.91-0.51c-0.07,0.08-0.11,0.18-0.11,0.3V15.2z"/>
		</g>
		<g>
			<path class="st2" d="M15.72,8.18V6.69c0-0.27-0.22-0.48-0.49-0.48h-3.73c-0.07-0.2-0.17-0.38-0.32-0.53
				c-0.27-0.3-0.64-0.47-1.05-0.48c-0.5,0-0.93,0.24-1.21,0.61L5.87,4.84C5.86,4.05,5.24,3.39,4.43,3.36c-0.83,0-1.5,0.67-1.5,1.5
				s0.67,1.5,1.5,1.5h0h0.01c0.46-0.02,0.87-0.25,1.13-0.6l3.07,0.97c0,0.08,0.01,0.15,0.02,0.23L6.48,8.24
				c-0.26-0.23-0.6-0.37-0.97-0.37c-0.83,0-1.5,0.67-1.5,1.5c0,0.83,0.67,1.5,1.5,1.5s1.5-0.67,1.5-1.5c0-0.1-0.01-0.21-0.03-0.3
				L9.14,7.8c0.27,0.24,0.62,0.39,1,0.39h0h0.01c0.63-0.03,1.16-0.45,1.35-1.02h3.25v0.99c-0.2,0.07-0.38,0.17-0.53,0.31
				c-0.27,0.25-0.43,0.58-0.47,0.94c-0.09-0.16-0.28-0.26-0.49-0.24c-1.04,0.15-2.79,0.54-2.79,1.57c0,1.34,2.99,1.7,4.76,1.7
				S20,12.09,20,10.75c0-0.97-1.52-1.39-2.79-1.57c-0.2-0.03-0.38,0.07-0.48,0.24C16.66,8.84,16.26,8.36,15.72,8.18z M15.23,9.01
				L15.23,9.01c0.28,0.01,0.5,0.24,0.51,0.51C15.75,9.66,15.7,9.8,15.6,9.9c-0.1,0.1-0.23,0.16-0.36,0.17c0,0,0,0,0,0
				c-0.29,0-0.53-0.24-0.53-0.53C14.7,9.25,14.94,9.01,15.23,9.01z M9.58,6.67c0-0.04,0.02-0.07,0.02-0.1
				c0.01-0.01,0.02-0.02,0.03-0.04c0.01-0.03,0-0.05,0.01-0.08C9.66,6.4,9.7,6.35,9.75,6.3c0.1-0.09,0.23-0.14,0.36-0.14
				c0.01,0,0.01,0,0.02,0l0.01,0c0,0,0,0,0,0c0.14,0,0.28,0.06,0.38,0.16c0.1,0.1,0.15,0.23,0.15,0.37c0,0,0,0.01,0,0.01
				c0,0,0,0.01,0,0.01c0,0.14-0.06,0.27-0.15,0.37c-0.1,0.1-0.23,0.16-0.43,0.16c-0.14,0-0.27-0.07-0.37-0.17S9.57,6.82,9.58,6.67z
				 M4.96,4.86c0,0.14-0.06,0.28-0.16,0.38C4.7,5.34,4.57,5.4,4.43,5.4c0,0,0,0,0,0c-0.14,0-0.28-0.06-0.38-0.16
				c-0.1-0.1-0.16-0.23-0.16-0.38c0-0.29,0.24-0.53,0.53-0.53c0,0,0,0,0,0C4.72,4.33,4.96,4.57,4.96,4.86z M4.97,9.37
				c0-0.29,0.24-0.53,0.53-0.53c0,0,0,0,0,0c0.29,0,0.53,0.24,0.53,0.53c0,0.14-0.06,0.28-0.16,0.38c-0.1,0.1-0.23,0.16-0.38,0.16
				c0,0,0,0,0,0C5.21,9.91,4.97,9.67,4.97,9.37z M17.07,10.15c1.27,0.18,1.8,0.48,1.93,0.61c-0.22,0.21-1.36,0.72-3.77,0.72
				c-2.41,0-3.55-0.52-3.77-0.72c0.13-0.12,0.66-0.43,1.93-0.61c0.13-0.02,0.24-0.09,0.32-0.19c0.02-0.03,0.03-0.07,0.05-0.1
				c0.15,0.68,0.75,1.19,1.47,1.19c0.72,0,1.32-0.51,1.47-1.19C16.77,10,16.9,10.12,17.07,10.15z"/>
		</g>
	</g>
</g>
</svg>
