<svg xmlns="http://www.w3.org/2000/svg" width="52" height="46" viewBox="0 0 52 46">
    <g fill="none" fill-rule="evenodd">
        <path stroke="#344154" stroke-linecap="round" stroke-width="1.425" d="M7.98 18.233L7.98 11.994 43.17 11.994 43.17 18.233" transform="translate(0 1)"/>
        <g>
            <path stroke="#344154" stroke-linecap="round" stroke-width="1.425" d="M.712 17.716V.194h12.214c1.51 0 2.844.986 3.29 2.429l1.135 2.96h29.732c1.852 0 3.354 1.5 3.354 3.353v31.278c0 1.42-1.15 2.574-2.573 2.574H3.287c-1.422 0-2.575-1.153-2.575-2.574V17.716M4.138 17.716L47.011 17.716" transform="translate(0 1) translate(0 .517)"/>
            <path stroke="#344154" stroke-linecap="round" stroke-width="1.425" d="M16.614 39.936c0-4.949 4.013-8.961 8.961-8.961 4.949 0 8.96 4.012 8.96 8.961" transform="translate(0 1) translate(0 .517)"/>
            <path stroke="#344154" stroke-linecap="round" stroke-width="1.425" d="M39.195 39.958v-.068c-.006-2.002.727-3.936 2.116-5.379l.678-.705-2.898-5.02-.95.235c-1.943.48-3.985.15-5.717-.856-.018-.012-.038-.023-.059-.035-1.743-1.002-3.063-2.602-3.62-4.534l-.27-.94h-5.798l-.272.943c-.556 1.927-1.872 3.528-3.613 4.528l-.026.015-.027.015c-1.735 1.008-3.778 1.347-5.728.864l-.953-.235-2.898 5.02.68.705c1.393 1.45 2.12 3.393 2.116 5.403v.07" transform="translate(0 1) translate(0 .517)"/>
            <path fill="#2575F9" d="M25.575 33.482c-3.293 0-6.012 2.48-6.402 5.668 1.786-1.15 4.002-1.833 6.402-1.833 2.401 0 4.617.683 6.403 1.833-.39-3.189-3.11-5.668-6.403-5.668" transform="translate(0 1) translate(0 .517)"/>
        </g>
    </g>
</svg>
