<svg xmlns="http://www.w3.org/2000/svg" width="484" height="120" viewBox="0 0 484 120">
    <defs>
        <style>
            .cls-1{fill:#fff}.cls-2{fill:#00094f}
        </style>
    </defs>
    <g id="kbs로고" transform="translate(-706 -1492)">
        <g id="그룹_128" transform="translate(706 1492)">
            <rect id="사각형_106" width="484" height="120" class="cls-1" rx="6"/>
            <g id="그룹_156" transform="translate(-947 -1464)">
                <rect id="사각형_106-2" width="419" height="104" class="cls-1" rx="6" transform="translate(992 1472)"/>
                <g id="그룹_119" transform="translate(1059.396 1488.944)">
                    <path id="패스_53" d="M451.6 277.635l-27.355-34.417 26.364-31.832h-18.572l-25.1 31.508v-31.507h-14.142v66.249h14.142v-34.062l24.6 34.061z" class="cls-2" transform="translate(-392.795 -211.387)"/>
                    <path id="패스_54" d="M544.771 237.3c4.1 0 21.563 2.632 21.563 19.99 0 18.361-17.615 20.342-17.615 20.342h-41.193V266.9l33.14.021c9.61 0 9.517-9.167 9.517-9.167 0-10.051-11.356-9.641-11.356-9.641h-12.691c-5.826 0-20.841-2.1-20.841-17.619 0-18.648 18.61-19.107 18.61-19.107h37.712v10.592l-30.958.028c-10 0-9.843 7.765-9.843 7.765s.088 7.57 8.754 7.57z" class="cls-2" transform="translate(-385.697 -211.387)"/>
                    <path id="패스_55" d="M489.152 277.636c9.961 0 19.017-7.294 19.017-18.5 0-12.8-9.457-16.784-9.457-16.784s7.513-2.58 6.8-14.06c-1.019-16.632-19.8-16.9-19.8-16.9H449.28v66.217s31.482.027 39.872.027zm-26.488-55.5H480.9s9.913-.444 9.913 7.787c0 7.085-6.235 7.55-8.249 7.689h-19.9zm16.618 44.713h-16.618v-18.625l20.5.008s10.359.381 10.359 9.2-7.761 9.421-14.24 9.421z" class="cls-2" transform="translate(-389.231 -211.387)"/>
                </g>
                <path id="패스_56" fill="#0080cc" d="M474.5 342.808a42.144 42.144 0 0 0-.5-5.227c0-.019-.005-.039-.009-.057a44.265 44.265 0 0 0-1.29-5.672 47.814 47.814 0 0 0-4.772-10.859c-5.929-9.98-14.76-16.842-23.929-19.653h.005s-20.953-6.977-32.268 4.52c-.2.217-.4.44-.6.669a41.02 41.02 0 0 0-18.109 12.5 33.81 33.81 0 0 0-7.062 14.639c-.1.454-.344 1.79-.361 1.915a48.577 48.577 0 0 0-.641 9.305h.006c0 .154-.005.308-.005.466a43.293 43.293 0 0 0 1.8 11.147 47.936 47.936 0 0 0 4.771 10.861c5.94 9.977 14.762 16.84 23.936 19.652v-.006s20.951 6.977 32.267-4.519c.206-.218.4-.443.6-.67a41.037 41.037 0 0 0 18.11-12.493 34.883 34.883 0 0 0 5.1-8.367c2.801-6.346 3.16-13.327 2.951-18.151zm-66.047-32.242a52.626 52.626 0 0 1 12.217-3.9 59.521 59.521 0 0 1 19.464-.777c13.382 1.772 24.262 8.484 29.406 18.714.043.085.087.17.129.258a.2.2 0 0 1-.06.255c-.084.056-.226.02-.332-.109-.051-.084-.1-.172-.156-.253-4.2-6.6-10.922-11.6-19.159-14.51a55.982 55.982 0 0 0-28.53-1.837 51.372 51.372 0 0 0-13.931 4.449 18.478 18.478 0 0 1 .956-2.29zm-1.908 7.637a76.19 76.19 0 0 1 13.384-4.638c15.223-3.78 28.892-1.921 38.728 3.707a30.615 30.615 0 0 1 14.182 16.564c.034.095.069.187.1.283a.1.1 0 0 0 0 .03c.105.341-.023.472-.147.487a.222.222 0 0 1-.2-.109c-.032-.077-.065-.156-.092-.235a30.108 30.108 0 0 0-10.618-13.014c-10.032-7.1-25.086-9.7-42-5.3a80.871 80.871 0 0 0-13.2 4.865c-.021-.173-.05-.348-.068-.52a18.113 18.113 0 0 1-.065-2.123zm44.467 59.585a52.44 52.44 0 0 1-12.216 3.9 59.492 59.492 0 0 1-19.464.778c-13.383-1.769-24.262-8.481-29.4-18.712-.043-.085-.088-.171-.131-.26a.2.2 0 0 1 .059-.254.263.263 0 0 1 .331.108c.054.084.1.171.158.255 4.2 6.594 10.925 11.6 19.159 14.508a55.962 55.962 0 0 0 28.531 1.835 51.307 51.307 0 0 0 13.931-4.446 18.385 18.385 0 0 1-.954 2.289zm1.91-7.636a76.314 76.314 0 0 1-13.386 4.64c-15.222 3.78-28.89 1.921-38.728-3.711a30.62 30.62 0 0 1-14.182-16.561c-.03-.095-.067-.188-.1-.284v-.03c-.1-.341.024-.471.149-.487a.227.227 0 0 1 .2.108c.032.078.062.158.1.236a30.124 30.124 0 0 0 10.615 13.015c10.031 7.094 25.087 9.7 42 5.3a80.788 80.788 0 0 0 13.2-4.866c.024.175.049.348.068.52a17.88 17.88 0 0 1 .067 2.12zm20.948-26.432c-.067.007-.131-.05-.178-.138-.015-.072-.034-.141-.053-.211a25.67 25.67 0 0 0-6.952-12.025c-9.648-9.585-27.126-13.419-45.564-8.946-1.4.346-2.775.743-4.123 1.172a63.19 63.19 0 0 0-8.338 3.323 17.621 17.621 0 0 0 1.99 2.929 61.46 61.46 0 0 1 18.129-5.326 56.476 56.476 0 0 1 12.61-.273c10.936 1.012 20.443 5.285 26.246 11.737a22.3 22.3 0 0 1 5.99 14.83v.468c0 .141 0 .278-.008.419a.238.238 0 0 1-.286.229.215.215 0 0 1-.188-.131l-.053-.411a23.97 23.97 0 0 0-5.2-11.942 32.533 32.533 0 0 0-15.4-10.088 53.743 53.743 0 0 0-26.761-1.159 64.411 64.411 0 0 0-12.91 3.841 19.311 19.311 0 0 0 3.5 2.378 50.439 50.439 0 0 1 15.3-3.984c11.112-1.129 21.536 1.207 29 5.869a27.083 27.083 0 0 1 7.183 6.374 18.99 18.99 0 0 1 4.1 11.4 19.491 19.491 0 0 1-1.143 6.863c-.027.078-.06.153-.086.229-.06.088-.135.142-.2.125s-.116-.12-.116-.247c.019-.077.037-.155.054-.232a18.2 18.2 0 0 0 .365-5.426 18.857 18.857 0 0 0-3.433-9.339q-.624-.892-1.346-1.731c-7.174-8.344-21.4-12.721-36.355-9.93a53.835 53.835 0 0 0-8.091 1.944 21.316 21.316 0 0 0 7.335.3s4.073-.538 5.76-.895c.337-.054.859-.134 1.1-.143l.119-.012a42.528 42.528 0 0 1 17.621 2.155s8.728 2.96 12.546 9.583a2.519 2.519 0 0 1-.4 2.92 37.575 37.575 0 0 1-3.813 4.209c-1.348 1.228-3.681 2.883-3.681 2.883a59.651 59.651 0 0 1-6.773 3.927l-.015-.034c-.175.087-.354.169-.531.255l.021.038c.088.164.176.329.26.5a18.473 18.473 0 0 1 .762 1.78 66.993 66.993 0 0 1-12.951 4.615c-17.879 4.468-34.795 1.349-44.7-7.386a25.746 25.746 0 0 1-8.7-15.852c-.016-.106-.03-.211-.044-.316 0-.16.07-.192.142-.2s.13.052.175.139c.019.073.039.14.055.21a25.711 25.711 0 0 0 6.954 12.026c9.651 9.586 27.125 13.418 45.566 8.947 1.4-.347 2.773-.742 4.12-1.172a63.775 63.775 0 0 0 8.34-3.323 17.749 17.749 0 0 0-1.993-2.931 61.386 61.386 0 0 1-18.128 5.327 56.327 56.327 0 0 1-12.608.272c-10.937-1.011-20.443-5.284-26.244-11.736a22.3 22.3 0 0 1-5.994-14.83v-.467c0-.157 0-.279.007-.419a.239.239 0 0 1 .283-.23.215.215 0 0 1 .19.13l.056.413a23.943 23.943 0 0 0 5.194 11.941 32.532 32.532 0 0 0 15.4 10.088 53.7 53.7 0 0 0 26.757 1.159 64.666 64.666 0 0 0 12.913-3.839 19.384 19.384 0 0 0-3.5-2.378 50.416 50.416 0 0 1-15.3 3.981c-11.113 1.131-21.536-1.2-28.995-5.865a27.1 27.1 0 0 1-7.184-6.377 18.978 18.978 0 0 1-4.1-11.4 19.486 19.486 0 0 1 1.144-6.861c.027-.079.058-.152.087-.23.058-.088.132-.143.2-.126s.117.122.113.247c-.017.077-.038.154-.054.229a18.394 18.394 0 0 0-.366 5.429 18.838 18.838 0 0 0 3.437 9.338 21.317 21.317 0 0 0 1.345 1.733c7.174 8.345 21.4 12.721 36.354 9.928a53.794 53.794 0 0 0 8.1-1.943 21.381 21.381 0 0 0-7.339-.3s-4.074.538-5.757.893c-.339.055-.861.135-1.1.145l-.116.012A42.53 42.53 0 0 1 406 350.637s-8.726-2.958-12.546-9.584a2.517 2.517 0 0 1 .392-2.919 37.9 37.9 0 0 1 3.819-4.208c1.344-1.227 3.679-2.883 3.679-2.883a60.11 60.11 0 0 1 6.774-3.925l.016.033c.176-.087.354-.171.532-.254-.008-.012-.014-.026-.022-.039-.086-.164-.178-.328-.26-.5a17.455 17.455 0 0 1-.761-1.78 67.094 67.094 0 0 1 12.951-4.613c17.876-4.469 34.794-1.35 44.7 7.385a25.735 25.735 0 0 1 8.7 15.851c.015.1.029.21.041.314.001.163-.073.196-.145.205z" transform="translate(869.464 1179.665)"/>
            </g>
        </g>
    </g>
</svg>
