<svg xmlns="http://www.w3.org/2000/svg" width="484" height="120" viewBox="0 0 484 120">
    <defs>
        <style>
            .cls-2{fill:#1a1311}
        </style>
    </defs>
    <g id="경상남도청_로고" transform="translate(-706 -1492)">
        <g id="그룹_128" transform="translate(706 1492)">
            <rect id="사각형_106" width="484" height="120" fill="#fff" rx="6"/>
            <g id="그룹_190" transform="translate(-235.704 -404.8)">
                <g id="그룹_193" transform="translate(454.76 429.21)">
                    <g id="그룹_190-2" transform="translate(.827 55.48)">
                        <path id="패스_126" d="M445.184 489.435a22.02 22.02 0 0 1-6.731.937c-4.639 0-10-2.756-10-10.5 0-7.713 4.613-10.678 10.994-10.678a14.441 14.441 0 0 1 5.265.913l-.376 4.457a7.824 7.824 0 0 0-4.239-1.319c-3.764 0-6.857 1.847-6.857 6.628 0 4.019 2.42 6.454 5.81 6.454a3.506 3.506 0 0 0 1.646-.353v-4.049h-2.716v-3.872h7.2z" class="cls-2" transform="translate(-428.452 -469.194)"/>
                        <path id="패스_127" d="M449.366 482.23l-6.439-12.757h5.339l3.419 8.211 3.369-8.211h5.338l-6.384 12.757v7.714h-4.642z" class="cls-2" transform="translate(-424.474 -469.117)"/>
                        <path id="패스_128" d="M457.82 469.473h12.265v3.87h-7.628v4.225h7.205v3.87h-7.205v4.635h7.9v3.87H457.82z" class="cls-2" transform="translate(-420.382 -469.117)"/>
                        <path id="패스_129" d="M473.949 479.784c0-3.549 1.123-6.54 3.94-6.54s3.938 2.991 3.938 6.54c0 3.373-1.122 6.542-3.938 6.542s-3.94-3.169-3.94-6.542zm-4.787 0c0 6.512 3.043 10.588 8.727 10.588s8.725-4.077 8.725-10.588c0-6.569-2.991-10.59-8.725-10.59s-8.727 4.021-8.727 10.59z" class="cls-2" transform="translate(-417.265 -469.194)"/>
                        <path id="패스_130" d="M484.748 469.473h5.91l5.882 13.9h.052l-.077-13.9h4.24v20.473h-5.762l-6.079-13.992h-.052l.15 13.992h-4.264z" class="cls-2" transform="translate(-412.982 -469.117)"/>
                        <path id="패스_131" d="M515.928 489.435a22 22 0 0 1-6.73.937c-4.638 0-10-2.756-10-10.5 0-7.713 4.608-10.678 11-10.678a14.406 14.406 0 0 1 5.258.913l-.373 4.457a7.821 7.821 0 0 0-4.239-1.319c-3.764 0-6.853 1.847-6.853 6.628 0 4.019 2.417 6.454 5.809 6.454a3.5 3.5 0 0 0 1.643-.353v-4.049h-2.717v-3.87h7.2z" class="cls-2" transform="translate(-409.011 -469.194)"/>
                        <path id="패스_132" d="M514.787 469.473h5.913l5.885 13.9h.051l-.075-13.9h4.237v20.473h-5.761l-6.082-13.992h-.055l.148 13.992h-4.263z" class="cls-2" transform="translate(-404.728 -469.117)"/>
                        <path id="패스_133" d="M540.152 481.7h-4.364l2.242-8.007h.051zm-11.518 8.244h4.709l1.373-4.372h6.529l1.3 4.372h5.085l-6.705-20.473h-5.687z" class="cls-2" transform="translate(-400.923 -469.117)"/>
                        <path id="패스_134" d="M544.67 469.473h7.3l3.688 13.607h.052l3.861-13.607h7.029v20.473h-4.538l.075-15.722h-.05l-4.436 15.722h-4.264l-4.239-15.722h-.05l.1 15.722h-4.528z" class="cls-2" transform="translate(-396.516 -469.117)"/>
                    </g>
                    <g id="그룹_192">
                        <g id="그룹_191">
                            <path id="패스_135" d="M522.875 440.646H507.4v-14.489h-6.226v19.4h21.7z" class="cls-2" transform="translate(-407.642 -425.54)"/>
                            <path id="패스_136" d="M452.392 448.688h6.239v-23.015h-6.239v4.427h-6.7v4.911h6.7v3.224h-6.7v4.917h6.7z" class="cls-2" transform="translate(-422.887 -425.673)"/>
                            <path id="패스_137" d="M556.014 461.563v-11.877h10.525v-4.907h-22.456v-13.058h22.456v-4.905h-28.685v22.87h11.929v11.877h-14.947v4.915h34.726v-4.915z" class="cls-2" transform="translate(-398.391 -425.359)"/>
                            <path id="패스_138" d="M527.312 425.673h-6.23V448h6.23v-10.4h5.451v-4.914h-5.451z" class="cls-2" transform="translate(-402.171 -425.673)"/>
                            <path id="패스_139" d="M506.656 445.344v17.968h24.62v-17.968zM512.9 458.4v-8.141h12.15v8.141z" class="cls-2" transform="translate(-406.135 -420.267)"/>
                            <path id="패스_140" d="M448.207 443.272c-6.918 0-12.525 5.08-12.525 11.351s5.607 11.341 12.525 11.341 12.53-5.074 12.53-11.341-5.611-11.351-12.53-11.351zm0 17.429a6.082 6.082 0 1 1 6.062-6.078 6.068 6.068 0 0 1-6.062 6.077z" class="cls-2" transform="translate(-425.638 -420.837)"/>
                            <path id="패스_141" d="M482.4 443.272c-6.913 0-12.518 5.08-12.518 11.351s5.605 11.341 12.518 11.341 12.521-5.074 12.521-11.341-5.609-11.351-12.521-11.351zm0 17.429a6.082 6.082 0 1 1 6.055-6.078 6.067 6.067 0 0 1-6.055 6.077z" class="cls-2" transform="translate(-416.241 -420.837)"/>
                            <path id="패스_142" d="M447.629 436.3a28.693 28.693 0 0 0 1.562-9.723h-20.556v5.028h13.05s.46 10-13.883 12.113l2.487 4.316c4.552-.386 13.703-2.681 17.34-11.734z" class="cls-2" transform="translate(-427.803 -425.424)"/>
                        </g>
                        <path id="패스_143" d="M485.649 446.816l2.537-4.189c-9.742-3.239-9.686-13.009-9.686-14.055v-2.244h-7.651v2.3c0 .9.371 11.448-9.563 15.2l2.672 4.022a20.365 20.365 0 0 0 10.922-8.852c3.473 6.072 10.769 7.818 10.769 7.818z" class="cls-2" transform="translate(-418.602 -425.493)"/>
                        <path id="패스_144" d="M491.537 425.673H485.3v23.012h6.232V437.6h5.449v-4.911h-5.449z" class="cls-2" transform="translate(-412.002 -425.673)"/>
                    </g>
                </g>
                <g id="그룹_195" transform="translate(329.704 412.8)">
                    <g id="그룹_194">
                        <path id="패스_145" fill="#e33c1c" d="M380.786 412.81a51.929 51.929 0 0 0-44.058 22.837c.175.2.333.4.469.574.1.12.194.24.278.338a.737.737 0 0 1 .14.028 4.87 4.87 0 0 1 2.573 1.1 7.074 7.074 0 0 1 1.188 1.5 4.825 4.825 0 0 0 .366.528 7.228 7.228 0 0 0 .622.5 11.1 11.1 0 0 1 1.272 1.08c.365.37.7.744 1.016 1.11.219.264.432.506.65.737.164.182.4.384.635.6a12.984 12.984 0 0 1 1.154 1.131 6.487 6.487 0 0 1 1.012 1.616c.093.175.226.44.28.52V447c.351.413.687.843 1.011 1.252l.507.639a4.673 4.673 0 0 0 .5.46 8.183 8.183 0 0 1 1.288 1.3c.323.421.584.827.836 1.228.191.288.366.557.538.8a8.333 8.333 0 0 1 .863 1.587 3.848 3.848 0 0 0 .312.64 5.7 5.7 0 0 0 .479.529 9.3 9.3 0 0 1 1.114 1.313 7.907 7.907 0 0 1 .788 1.622c.07.184.147.372.209.51.066.048.156.106.229.157a5.389 5.389 0 0 1 1.7 1.634 8.239 8.239 0 0 1 .628 1.324l1 .676c1.622 1.091 2.3.524 1.516-1.265l-9.152-20.858c-.783-1.792-.463-1.98.718-.422l13.645 18.051c1.18 1.56 2.007 1.244 1.841-.7l-1.919-22.642c-.164-1.948.208-2.021.822-.169l6.6 21.373c.625 1.857 1.442 1.808 1.824-.108l3.692-22.044c.382-1.926.764-1.892.849.06l.941 22.542c.083 1.954.942 2.165 1.924.475l11.264-19.5c.976-1.693 1.325-1.546.766.331l-6.379 21.533c-.556 1.871.2 2.353 1.674 1.073l16.9-14.668c1.472-1.282 1.759-1.025.622.566l-9.724 13.642a3.091 3.091 0 0 0 1.377-.246c.792-.426 1.252-1.509 2.066-1.908s1.882-.254 2.713-.617 1.4-1.341 2.23-1.678 1.708-.575 2.541-.88c.917-.338 1.766-.861 2.668-1.165s1.873-.437 2.768-.71 1.972.11 2.845-.138c.951-.268 1.68-1.284 2.6-1.518s1.926-.1 2.8-.3c.954-.227 1.929-.194 2.82-.384.963-.209 1.815-.714 2.69-.881a3.209 3.209 0 0 1 .52-.055 52.01 52.01 0 0 0-48.661-36.651z" transform="translate(-327.774 -412.8)"/>
                        <path id="패스_146" fill="#00924d" d="M374.83 507.57a.8.8 0 0 1 .033-.149 2.387 2.387 0 0 0-.121-.215 6.291 6.291 0 0 1-.756-1.806c-.061-.294-.158-.627-.268-.982-.122-.389-.256-.834-.366-1.3a9.57 9.57 0 0 1-.176-1.638 4.643 4.643 0 0 0-.055-.716c-.117-.491-.186-.947-.247-1.364-.05-.344-.094-.676-.162-.941a7.057 7.057 0 0 0-.293-.817 10.534 10.534 0 0 1-.478-1.377l-.136-.5-.453-1.713c-.078-.274-.194-.585-.317-.911-.14-.374-.3-.788-.426-1.238a6.167 6.167 0 0 1-.182-2.063c.006-.161.013-.351.008-.445-.1-.308-.221-.637-.356-.984-.14-.365-.287-.737-.414-1.145-.037-.075-.172-.254-.269-.4a6.339 6.339 0 0 1-.965-1.72 5.827 5.827 0 0 0-.354-.78 10.533 10.533 0 0 1-.6-1.335c-.14-.4-.293-.794-.456-1.207l-.356-.934a5.3 5.3 0 0 1-.233-2.3c.009-.074.014-.163.018-.241-.09-.191-.2-.411-.34-.645a13.745 13.745 0 0 1-.663-1.325 4.731 4.731 0 0 0-.371-.605 8.388 8.388 0 0 1-.824-1.441c-.2-.484-.348-.946-.474-1.351a8.529 8.529 0 0 0-.286-.843c-.168-.382-.311-.755-.454-1.113s-.284-.7-.427-1.01l-.43-.948c-.19-.428-.374-.836-.563-1.226a4.175 4.175 0 0 0-.426-.606 8.336 8.336 0 0 1-.905-1.364 7.918 7.918 0 0 1-.581-1.671c-.041-.15-.088-.34-.122-.464-.073-.064-.164-.136-.24-.2a5.311 5.311 0 0 1-1.457-1.6 5.986 5.986 0 0 1-.632-2.032c-.023-.145-.054-.33-.079-.417a10.013 10.013 0 0 1-.614-1.359c-.078-.2-.154-.41-.227-.561l-.237-.167a5.1 5.1 0 0 1-1.638-1.545 7.855 7.855 0 0 1-.746-1.557 4.558 4.558 0 0 0-.265-.6 4.973 4.973 0 0 0-.515-.578 9.153 9.153 0 0 1-1.017-1.184 8.938 8.938 0 0 1-.811-1.522 6.527 6.527 0 0 0-.293-.607c-.274-.374-.509-.737-.714-1.064s-.408-.63-.594-.871a4.97 4.97 0 0 0-.544-.5 8.9 8.9 0 0 1-1.172-1.156l-.535-.673c-.314-.4-.607-.771-.9-1.121a6.8 6.8 0 0 1-.969-1.582c-.083-.163-.2-.39-.249-.465-.205-.224-.463-.458-.738-.7-.293-.268-.627-.574-.959-.919-.279-.3-.532-.588-.78-.875-.274-.32-.535-.623-.783-.872a8.49 8.49 0 0 0-.729-.6 12.726 12.726 0 0 1-1.068-.886 8.1 8.1 0 0 1-1.145-1.471c-.055-.084-.116-.177-.167-.263-.056-.011-.107-.018-.153-.029a4.761 4.761 0 0 1-2.365-.97c-.148-.13-.289-.26-.419-.386a51.983 51.983 0 0 0 38.968 76c-.048-.178-.1-.357-.133-.547a5.255 5.255 0 0 1 .165-2.288z" transform="translate(-329.704 -406.865)"/>
                        <path id="패스_147" fill="#003e92" d="M361.548 465.861c.087.213.233.474.388.761a12.279 12.279 0 0 1 .725 1.451 5.255 5.255 0 0 1 .244 2.337c-.005.088-.017.2-.019.286l.265.687c.171.437.343.885.511 1.358.073.2.208.458.343.734a11.415 11.415 0 0 1 .64 1.453c-.017-.034-.024-.054-.024-.054.042.068.176.258.268.4a6.238 6.238 0 0 1 .994 1.8c.092.282.212.585.334.919.171.436.342.886.492 1.382a6.306 6.306 0 0 1 .2 2.11c-.014.153-.014.359-.014.455.078.24.176.515.287.8a13.947 13.947 0 0 1 .469 1.368l.473 1.777.134.509a6.4 6.4 0 0 0 .277.764 12.1 12.1 0 0 1 .511 1.488c.122.512.2 1.007.264 1.443.048.335.094.658.158.924a8.749 8.749 0 0 1 .187 1.69 4.693 4.693 0 0 0 .061.73c.065.274.159.58.256.909.122.407.263.867.374 1.362a3.706 3.706 0 0 0 .2.368 5.913 5.913 0 0 1 .771 1.873 5.1 5.1 0 0 1-.152 2.306c-.024.079-.043.171-.061.255.048.163.106.367.177.584a10.779 10.779 0 0 1 .339 1.193c.131.005.245.017.367.017a51.835 51.835 0 0 0 39.028-16.519c-18.046-13.87-40.21-18.731-49.616-20.25.052.11.101.221.149.33z" transform="translate(-320.996 -398.31)"/>
                        <path id="패스_148" fill="#f99900" d="M420.745 456.877a52.223 52.223 0 0 0-1.07-11.506c-.321.056-.65.108-.968.166-.89.161-1.683.741-2.529.909-.871.177-1.7.444-2.537.635-.92.214-1.851.247-2.731.478-.895.224-1.851.15-2.708.394s-1.592.926-2.411 1.189c-.908.291-1.859.362-2.711.667-.875.307-1.866.263-2.69.585s-1.518 1-2.3 1.341c-.864.368-1.826.474-2.62.852-.881.418-1.53 1.217-2.325 1.639-.825.431-1.648.785-2.394 1.223-.817.477-1.706.771-2.431 1.239-.8.514-1.36 1.3-2.058 1.795-.8.575-1.4 1.3-2.072 1.839-.776.626-1.722.917-2.324 1.474s-1.275.937-1.79 1.347l-1.161 1.868c-.243.88-.243 1.527-.616.985l-2.511 4.033c10.535 3.224 23.153 8.54 34.37 17.272a51.806 51.806 0 0 0 10.587-30.424z" transform="translate(-317.04 -403.85)"/>
                    </g>
                </g>
            </g>
        </g>
    </g>
</svg>
