<svg xmlns="http://www.w3.org/2000/svg" width="124" height="124" viewBox="0 0 124 124">
    <g>
        <path fill="none" d="M0 0H124V124H0z" transform="translate(-211.557 -2721.557) translate(211.557 2721.557)"/>
        <path fill="#2d6191" d="M121 426v-34a8 8 0 0 0-8-8H71v12.2c0 6.4 4.8 6.8 8.1 4.8 3.933-2.383 9.109-1.593 11.575 2.29a10.611 10.611 0 0 1 1.654 5.71 10.617 10.617 0 0 1-1.655 5.709c-2.466 3.882-7.642 4.673-11.575 2.289-3.3-2-8.1-1.6-8.1 4.8L71 434h12.2c6.4 0 6.8 4.8 4.8 8.1-2.384 3.932-1.593 9.109 2.289 11.574A10.617 10.617 0 0 0 96 455.327a10.611 10.611 0 0 0 5.708-1.655c3.883-2.465 4.673-7.642 2.29-11.574-2-3.3-1.6-8.1 4.8-8.1H113a7.939 7.939 0 0 0 4.019-1.09v41.364a5.709 5.709 0 0 1-5.681 5.728H71v-8.2c0-6.4-4.8-6.8-8.1-4.8-3.933 2.384-9.11 1.593-11.575-2.289a10.614 10.614 0 0 1-1.655-5.709 10.617 10.617 0 0 1 1.66-5.702c2.465-3.882 7.642-4.673 11.575-2.289 3.3 2 8.1 1.6 8.1-4.8v-12.2h-12.2c-6.4 0-6.8-4.8-4.8-8.1 2.384-3.933 1.593-9.109-2.289-11.574a10.617 10.617 0 0 0-5.709-1.655 10.611 10.611 0 0 0-5.708 1.655c-3.883 2.465-4.673 7.641-2.29 11.574 2 3.3 1.6 8.1-4.8 8.1h-12.2v42a8 8 0 0 0 8 8H71V484h40.336a9.715 9.715 0 0 0 9.683-9.724V426z" transform="translate(-211.557 -2721.557) translate(202.535 2349.55)"/>
    </g>
</svg>
