<svg xmlns="http://www.w3.org/2000/svg" width="484" height="120" viewBox="0 0 484 120">
    <defs>
        <style>
            .cls-2{fill:#00255e}
        </style>
    </defs>
    <g id="현대해상_로고" transform="translate(-706 -1492)">
        <g id="그룹_128" transform="translate(706 1492)">
            <rect id="사각형_106" width="484" height="120" fill="#fff" rx="6"/>
        </g>
        <g id="그룹_224" transform="translate(614 1126.258)">
            <g id="그룹_179" transform="translate(92 375.715)">
                <g id="그룹_168" transform="translate(428.224 59.781)">
                    <path id="패스_85" d="M377.72 445.741c0-11.031 9.664-20.083 22.731-20.083s22.719 9.053 22.719 20.083-9.667 20.192-22.719 20.192-22.731-9.154-22.731-20.192m22.615 10.059c5.9 0 10.68-4.418 10.68-10.073s-4.78-9.955-10.68-9.955-10.46 4.309-10.46 9.955a10.136 10.136 0 0 0 10.46 10.073" class="cls-2" transform="translate(-377.72 -425.658)"/>
                </g>
                <g id="그룹_169" transform="translate(162.255 71.897)">
                    <path id="패스_86" d="M262.49 430.907h12.55v15.754h37.34v10.26h-49.89z" class="cls-2" transform="translate(-262.49 -430.907)"/>
                </g>
                <g id="그룹_170" transform="translate(461.933 19.799)">
                    <path id="패스_87" d="M404.528 408.336V421.6h9.864v10.46h-9.864v15.49h-12.2v-39.214z" class="cls-2" transform="translate(-392.324 -408.336)"/>
                </g>
                <g id="그룹_171" transform="translate(405.071 19.825)">
                    <path id="패스_88" d="M384.451 408.347c-.058 11.024-.616 20.09-16.762 27.626l5.877 8.988c6.971-2.015 14.807-8.079 17.8-13.473 3 5.394 10.832 11.458 17.8 13.473l5.884-8.988c-16.143-7.536-16.709-16.6-16.762-27.626z" class="cls-2" transform="translate(-367.689 -408.347)"/>
                </g>
                <g id="그룹_172" transform="translate(270.341 19.95)">
                    <path id="패스_89" d="M327.264 426.783h-6.438V408.4h-11.509v79.255h11.509v-49.33h6.438v49.33h11.847V408.4h-11.847z" class="cls-2" transform="translate(-309.317 -408.401)"/>
                </g>
                <g id="그룹_173" transform="translate(363.309 19.95)">
                    <path id="패스_90" d="M366.816 426.783h-5.579V408.4H349.6v79.255h11.642v-49.33h5.579v49.33h11.976V408.4h-11.981z" class="cls-2" transform="translate(-349.596 -408.401)"/>
                </g>
                <g id="그룹_174" transform="translate(190.715 19.913)">
                    <path id="패스_91" d="M284.1 450.285h-9.262v-10.2h9.262v-6.832h-9.28v-10.2h9.28v-14.668h12.2v58.282h-12.2z" class="cls-2" transform="translate(-274.82 -408.385)"/>
                </g>
                <g id="그룹_175" transform="translate(319.372 16.446)">
                    <path id="패스_92" d="M344.487 406.883v6.3H330.56v9.683h6.867c-4.1 2.758-6.491 8.014-6.491 13.6 0 9.632 8.282 17.863 19.73 17.863s19.728-8.231 19.728-17.863c0-5.583-2.382-10.839-6.5-13.6h6.874v-9.683h-13.93v-6.3zm14.461 29.374a8.3 8.3 0 1 1-8.3-8.3 8.463 8.463 0 0 1 8.3 8.3" class="cls-2" transform="translate(-330.56 -406.883)"/>
                </g>
                <g id="그룹_176" transform="translate(143.793 16.501)">
                    <path id="패스_93" d="M269.988 406.907v6.306h-15.5v9.687h8.612c-4.014 2.67-6.327 7.857-6.327 12.759 0 9.632 8.282 17.445 19.728 17.445s19.728-7.813 19.728-17.445c0-4.9-2.313-10.089-6.334-12.759h8.616v-9.683h-15.5v-6.306zm14.8 28.536a8.315 8.315 0 1 1-8.3-7.88 8.122 8.122 0 0 1 8.3 7.88" class="cls-2" transform="translate(-254.491 -406.907)"/>
                </g>
                <g id="그룹_177" transform="translate(233.792 22.184)">
                    <path id="패스_94" d="M325.848 449.838h-19.924v-30.072h16.369v-10.4h-28.81v50.91h32.365z" class="cls-2" transform="translate(-293.483 -409.369)"/>
                </g>
                <g id="그룹_178">
                    <path id="패스_95" fill="#f07700" d="M229.366 431.982a32.2 32.2 0 0 0 32.254-32.219h29.745l-.019 99.147h-37.184v-42.136h-24.8v42.144h-37.169v-99.155h37.173z" transform="translate(-192.193 -399.758)"/>
                </g>
            </g>
        </g>
    </g>
</svg>
