<?xml version="1.0" encoding="utf-8"?>
<!-- Generator: Adobe Illustrator 24.2.1, SVG Export Plug-In . SVG Version: 6.00 Build 0)  -->
<svg version="1.1" xmlns="http://www.w3.org/2000/svg" xmlns:xlink="http://www.w3.org/1999/xlink" x="0px" y="0px"
	 viewBox="0 0 20 20" style="enable-background:new 0 0 20 20;" xml:space="preserve">
<style type="text/css">
	.st0{display:none;}
	.st1{display:inline;}
	.st2{fill-rule:evenodd;clip-rule:evenodd;fill:#FFFFFF;}
</style>
<g id="레이어_2" class="st0">
	<g class="st1">
		<rect x="40" width="20" height="20"/>
	</g>
</g>
<g id="레이어_1">
	<g id="Clip-6">
	</g>
	<g>
		<path class="st2" d="M12.77,5.75h-1.76V3.99c0-0.79-1.23-0.79-1.23,0v1.76H8.01c-0.79,0-0.79,1.23,0,1.23h1.76v1.76
			c0,0.79,1.23,0.79,1.23,0V6.98h1.76C13.57,6.98,13.57,5.75,12.77,5.75z"/>
		<path class="st2" d="M18.5,2.37c-1.03-1.34-2.34-2.12-3.9-2.32c-1.64-0.21-3.29,0.27-4.61,0.86C8.67,0.32,7.02-0.16,5.37,0.05
			c-1.56,0.2-2.87,0.98-3.9,2.32c-2.39,3.12-0.89,5.76,0.2,7.69c0.26,0.46,0.51,0.9,0.67,1.28c0.72,1.74,0.8,3.49,0.87,4.9
			C3.3,18.17,3.39,20,5.48,20c2.02,0,3.63-3.25,3.75-7.56v-0.02c0-0.41,0.34-0.75,0.75-0.75c0.41,0,0.75,0.34,0.75,0.75
			c0,0.03,0,0.07,0.01,0.1c0.14,4.27,1.74,7.48,3.75,7.48c2.09,0,2.18-1.83,2.27-3.77c0.07-1.41,0.15-3.16,0.87-4.9
			c0.16-0.38,0.41-0.82,0.67-1.28C19.39,8.13,20.89,5.49,18.5,2.37z M17.46,9.58c-0.28,0.49-0.54,0.95-0.72,1.39
			c-0.78,1.9-0.87,3.74-0.94,5.22c-0.1,2.16-0.22,2.86-1.31,2.86c-1.26,0-2.68-2.67-2.79-6.64c0-0.04-0.01-0.08-0.02-0.12
			c-0.07-0.88-0.8-1.58-1.7-1.58c-0.94,0-1.7,0.76-1.71,1.7c-0.11,3.97-1.53,6.63-2.79,6.63c-1.09,0-1.21-0.7-1.31-2.86
			c-0.07-1.48-0.16-3.32-0.94-5.22c-0.18-0.44-0.44-0.9-0.72-1.39C1.45,7.7,0.23,5.57,2.24,2.95C3.1,1.82,4.2,1.17,5.49,1
			C6.63,0.86,7.8,1.1,8.84,1.49c0.4,0.15,0.79,0.32,1.14,0.49c1.27,0.62,2.14,1.3,2.16,1.31c0.21,0.16,0.51,0.13,0.67-0.08
			c0.16-0.21,0.13-0.51-0.08-0.67c-0.06-0.05-0.67-0.52-1.61-1.05C12.17,1.1,13.34,0.86,14.48,1c1.29,0.17,2.39,0.82,3.25,1.95
			C19.74,5.57,18.53,7.7,17.46,9.58z"/>
	</g>
</g>
</svg>
