<svg xmlns="http://www.w3.org/2000/svg" xmlns:xlink="http://www.w3.org/1999/xlink" width="40" height="54" viewBox="0 0 40 54">
    <defs>
        <filter id="prefix__a" width="108.1%" height="141.5%" x="-3.8%" y="-19.5%" filterUnits="objectBoundingBox">
            <feOffset dy="2" in="SourceAlpha" result="shadowOffsetOuter1"/>
            <feGaussianBlur in="shadowOffsetOuter1" result="shadowBlurOuter1" stdDeviation="2"/>
            <feColorMatrix in="shadowBlurOuter1" result="shadowMatrixOuter1" values="0 0 0 0 0 0 0 0 0 0.149019608 0 0 0 0 0.243137255 0 0 0 0.4 0"/>
            <feMerge>
                <feMergeNode in="shadowMatrixOuter1"/>
                <feMergeNode in="SourceGraphic"/>
            </feMerge>
        </filter>
        <path id="prefix__b" d="M0 0.066L31.324 0.066 31.324 23.517 0 23.517z"/>
    </defs>
    <g fill="none" fill-rule="evenodd" filter="url(#prefix__a)" transform="translate(-18 -16)">
        <g>
            <g transform="translate(22 18) translate(0 14.826)">
                <mask id="prefix__c" fill="#fff">
                    <use xlink:href="#prefix__b"/>
                </mask>
                <path fill="#FFF" d="M15.662 23.517C7.026 23.517 0 16.49 0 7.854V.912C0 .445.379.065.847.065h6.866a.847.847 0 010 1.694h-6.02v6.095c0 7.702 6.267 13.969 13.969 13.969 7.702 0 13.969-6.267 13.969-13.969V1.76h-6.02a.847.847 0 010-1.693h6.866c.468 0 .847.38.847.847v6.942c0 8.636-7.026 15.662-15.662 15.662" mask="url(#prefix__c)"/>
            </g>
            <path fill="#FFF" d="M15.661 1.694c-3.917 0-7.103 3.187-7.103 7.103V22.68c0 3.916 3.186 7.103 7.103 7.103s7.104-3.187 7.104-7.103V8.797c0-3.916-3.187-7.103-7.104-7.103m0 29.782c-4.85 0-8.795-3.946-8.795-8.796V8.797C6.866 3.947 10.811 0 15.661 0c4.851 0 8.797 3.947 8.797 8.797V22.68c0 4.85-3.946 8.796-8.797 8.796" transform="translate(22 18)"/>
            <path fill="#FFF" d="M15.662 23.931a2.584 2.584 0 01-2.581-2.58V9.581a2.585 2.585 0 012.58-2.58 2.585 2.585 0 012.582 2.58V21.35a2.584 2.584 0 01-2.581 2.581M15.662 45.826a.94.94 0 01-.94-.94v-7.391a.94.94 0 111.881 0v7.39a.94.94 0 01-.941.94" transform="translate(22 18)"/>
        </g>
    </g>
</svg>
