<svg xmlns="http://www.w3.org/2000/svg" xmlns:xlink="http://www.w3.org/1999/xlink" width="33" height="40" viewBox="0 0 33 40">
    <defs>
        <path id="prefix__a" d="M0.148 0.188L3.958 0.188 3.958 7.8 0.148 7.8z"/>
    </defs>
    <g fill="none" fill-rule="evenodd">
        <path fill="#344154" d="M3.734 28.35L10.561 28.35 10.561 26.307 3.734 26.307z"/>
        <path fill="#344154" d="M0 0L0 34.435 18.706 34.435 18.706 33.535 0.9 33.535 0.9 0.9 24.403 0.9 24.403 15.06 25.303 15.06 25.303 0z"/>
        <path fill="#344154" d="M4.184 14.61H14.61V4.185H4.184V14.61zm-.9.9H15.51V3.285H3.284V15.51zM3.735 20.471L15.068 20.471 15.068 19.571 3.735 19.571zM3.735 23.971L15.068 23.971 15.068 23.071 3.735 23.071z"/>
        <g>
            <path fill="#5D77FF" d="M7.753.957a6.644 6.644 0 00-6.636 6.637 6.644 6.644 0 006.636 6.636 6.644 6.644 0 006.636-6.636A6.644 6.644 0 007.753.957m0 14.173c-4.155 0-7.536-3.38-7.536-7.536S3.597.057 7.753.057s7.536 3.381 7.536 7.537c0 4.156-3.38 7.536-7.536 7.536" transform="translate(17.1 15.855)"/>
            <path fill="#5D77FF" d="M12.38 8.044a.45.45 0 01-.45-.45 4.182 4.182 0 00-4.177-4.178.45.45 0 010-.9c2.8 0 5.078 2.278 5.078 5.078a.45.45 0 01-.45.45" transform="translate(17.1 15.855)"/>
            <g transform="translate(17.1 15.855) translate(5.7 15.9)">
                <mask id="prefix__b" fill="#fff">
                    <use xlink:href="#prefix__a"/>
                </mask>
                <path fill="#5D77FF" d="M2.053 7.8A1.907 1.907 0 01.148 5.895V.188h.9v5.707a1.006 1.006 0 002.01 0V.188h.9v5.707c0 1.05-.855 1.905-1.905 1.905" mask="url(#prefix__b)"/>
            </g>
        </g>
    </g>
</svg>
