<svg xmlns="http://www.w3.org/2000/svg" xmlns:xlink="http://www.w3.org/1999/xlink" width="215" height="31" viewBox="0 0 215 31">
    <defs>
        <path id="prefix__a" d="M0.708 0.328L25.583 0.328 25.583 30.35 0.708 30.35z"/>
        <path id="prefix__c" d="M0.559 0.328L28.275 0.328 28.275 30.35 0.559 30.35z"/>
        <path id="prefix__e" d="M0.529 0.328L28.245 0.328 28.245 30.35 0.529 30.35z"/>
        <path id="prefix__g" d="M0 0.734L26.629 0.734 26.629 19.76 0 19.76z"/>
        <path id="prefix__i" d="M0.486 0.924L19.513 0.924 19.513 19.95 0.486 19.95z"/>
    </defs>
    <g fill="none" fill-rule="evenodd">
        <g transform="translate(111.15 .097)">
            <mask id="prefix__b" fill="#fff">
                <use xlink:href="#prefix__a"/>
            </mask>
            <path fill="#506DF5" d="M11.045 25.613c5.436 0 7.948-2.636 7.948-9.596v-1.523c0-7.289-3.006-9.472-8.319-9.472H6.926v20.591h4.119zM.708.327h10.295c9.267 0 14.58 4.325 14.58 14.25v.906c0 9.76-4.942 14.867-14.538 14.867H.708V.327z" mask="url(#prefix__b)"/>
        </g>
        <g transform="translate(138.225 .097)">
            <mask id="prefix__d" fill="#fff">
                <use xlink:href="#prefix__c"/>
            </mask>
            <path fill="#506DF5" d="M10.114 18.777h7.824L14.025 7.37h-.163l-3.748 11.407zM11.225.327h6.507L28.275 30.35h-6.384l-2.512-7.167H8.672l-2.43 7.167H.56L11.225.328z" mask="url(#prefix__d)"/>
        </g>
        <path fill="#506DF5" d="M173.742 5.12L165.34 5.12 165.34 0.426 188.362 0.426 188.362 5.12 179.919 5.12 179.919 30.447 173.742 30.447z"/>
        <g transform="translate(186.675 .097)">
            <mask id="prefix__f" fill="#fff">
                <use xlink:href="#prefix__e"/>
            </mask>
            <path fill="#506DF5" d="M10.084 18.777h7.825L13.995 7.37h-.163l-3.748 11.407zM11.195.327h6.507L28.245 30.35h-6.384l-2.512-7.167H8.642l-2.43 7.167H.53L11.195.328z" mask="url(#prefix__f)"/>
        </g>
        <g transform="translate(0 10.497)">
            <mask id="prefix__h" fill="#fff">
                <use xlink:href="#prefix__g"/>
            </mask>
            <path fill="#00263E" d="M19.016.734c-2.18 0-4.257.936-5.702 2.57A7.558 7.558 0 007.602.735a7.56 7.56 0 00-5.026 1.904A7.615 7.615 0 000 8.346V18.8c0 .53.43.96.96.96h1.901a.96.96 0 00.96-.96V8.346a3.797 3.797 0 013.791-3.792 3.797 3.797 0 013.792 3.792V18.8c0 .53.43.96.96.96h1.902a.96.96 0 00.959-.96V8.346a3.797 3.797 0 013.791-3.792 3.797 3.797 0 013.792 3.792V18.8c0 .53.43.96.96.96h1.902a.96.96 0 00.959-.96V8.346c0-2.032-.791-3.944-2.23-5.383a7.564 7.564 0 00-5.383-2.23" mask="url(#prefix__h)"/>
        </g>
        <g transform="translate(29.925 10.497)">
            <mask id="prefix__j" fill="#fff">
                <use xlink:href="#prefix__i"/>
            </mask>
            <path fill="#00263E" d="M16.727 3.711a9.454 9.454 0 00-3.024-2.039A9.461 9.461 0 009.999.924c-1.284 0-2.53.252-3.702.748a9.454 9.454 0 00-3.024 2.04 9.454 9.454 0 00-2.039 3.023 9.454 9.454 0 00-.748 3.702c0 1.286.252 2.53.748 3.704a9.448 9.448 0 002.04 3.022 9.481 9.481 0 006.725 2.788c1.46 0 2.921-.342 4.23-.99a.957.957 0 00.533-.862v-2.203a.963.963 0 00-.96-.96.95.95 0 00-.55.174A5.671 5.671 0 0110 16.13a5.699 5.699 0 01-5.691-5.693 5.7 5.7 0 015.691-5.693 5.7 5.7 0 015.693 5.693v8.364c0 .528.43.96.96.96h1.901a.962.962 0 00.96-.96v-8.364a9.477 9.477 0 00-2.786-6.726" mask="url(#prefix__j)"/>
        </g>
        <path fill="#00263E" d="M69.386 11.422h-1.9a.96.96 0 00-.96.959v9.503a4.748 4.748 0 01-4.743 4.744 4.75 4.75 0 01-4.744-4.744v-9.503a.96.96 0 00-.957-.959h-1.903a.96.96 0 00-.959.959v9.503a8.522 8.522 0 002.508 6.057 8.515 8.515 0 002.722 1.834 8.494 8.494 0 003.333.672 8.547 8.547 0 006.055-2.507 8.522 8.522 0 002.508-6.056v-9.503a.96.96 0 00-.96-.959M93.144 11.231a7.61 7.61 0 00-5.701 2.571 7.561 7.561 0 00-5.713-2.57 7.556 7.556 0 00-5.025 1.903 7.613 7.613 0 00-2.577 5.709v10.453c0 .53.43.96.96.96h1.901a.96.96 0 00.96-.96V18.844a3.797 3.797 0 013.791-3.792 3.797 3.797 0 013.793 3.792v10.453c0 .53.43.96.96.96h1.9a.96.96 0 00.96-.96V18.844a3.797 3.797 0 013.791-3.792 3.797 3.797 0 013.794 3.792v10.453c0 .53.43.96.959.96h1.9a.96.96 0 00.96-.96V18.844c0-2.032-.791-3.945-2.23-5.384a7.57 7.57 0 00-5.383-2.229"/>
    </g>
</svg>
