<svg xmlns="http://www.w3.org/2000/svg" xmlns:xlink="http://www.w3.org/1999/xlink" width="125" height="50" viewBox="0 0 125 50">
    <defs>
        <path id="prefix__a" d="M0.593 0.755L14.137 0.755 14.137 14.3 0.593 14.3z"/>
        <path id="prefix__c" d="M0.57 0.581L3.288 0.581 3.288 3.3 0.57 3.3z"/>
        <path id="prefix__e" d="M0 50.735L124.769 50.735 124.769 0.999 0 0.999z"/>
    </defs>
    <g fill="none" fill-rule="evenodd" transform="translate(0 -1)">
        <path fill="#FEFEFE" d="M16.432 50.688C7.372 50.688 0 43.317 0 34.256a16.435 16.435 0 0112.07-15.842C12.8 8.69 20.944 1 30.851 1c7.581 0 14.34 4.548 17.285 11.346a14.012 14.012 0 016.748-1.733c7.097 0 12.979 5.297 13.903 12.144a14.03 14.03 0 019.746 6.056 2.013 2.013 0 01-3.336 2.253 10.004 10.004 0 00-8.297-4.412H64.89v-2.012c0-5.515-4.488-10.003-10.004-10.003-2.37 0-4.67.845-6.476 2.382l-2.427 2.065-.821-3.079C43.435 9.541 37.55 5.025 30.85 5.025c-8.165 0-14.81 6.644-14.81 14.81l.002.04c0 .047.003.092.003.138l.02 1.725-1.7.284A12.404 12.404 0 004.025 34.256c0 6.84 5.566 12.407 12.407 12.407a2.013 2.013 0 010 4.025"/>
        <path fill="#FEFEFE" d="M38.68 37.056a5.42 5.42 0 00-4.058 1.83 5.385 5.385 0 00-4.067-1.83c-1.955 0-3.775 1.04-4.815 2.9-.407.728-.597 1.558-.597 2.393V50.6h2.72v-8.487c0-.677.313-1.324.864-1.713 2.178-1.538 4.535-.002 4.535 2.076V50.6h2.72v-8.487c0-.677.312-1.324.863-1.713 2.179-1.538 4.535-.002 4.535 2.076V50.6h2.72v-8.243c0-.698-.122-1.396-.416-2.029-.966-2.074-2.892-3.272-5.003-3.272"/>
        <g transform="translate(46.2 36.435)">
            <mask id="prefix__b" fill="#fff">
                <use xlink:href="#prefix__a"/>
            </mask>
            <path fill="#FEFEFE" d="M12.154 2.74A6.763 6.763 0 007.364.754a6.751 6.751 0 00-4.788 1.984A6.751 6.751 0 00.593 7.53a6.734 6.734 0 001.983 4.787A6.736 6.736 0 007.365 14.3a6.803 6.803 0 003.39-.908v-2.249a.06.06 0 00-.012-.035c-.327-.438-.801-.47-1.107-.22a2.484 2.484 0 01-.662.38c-3.61 1.415-7.01-2.222-5.124-5.843a3.343 3.343 0 011.421-1.416c3.068-1.59 6.147.613 6.147 3.52v6.636h2.72V7.53a6.751 6.751 0 00-1.983-4.79" mask="url(#prefix__b)"/>
        </g>
        <path fill="#FEFEFE" d="M75.221 37.19h-2.72v7.813c0 .967-.492 1.876-1.312 2.387-2.659 1.658-5.44-.227-5.44-2.75v-7.45H63.03v7.45a6.061 6.061 0 001.785 4.31 6.072 6.072 0 004.31 1.784 6.07 6.07 0 004.31-1.785 6.062 6.062 0 001.786-4.31V37.19zM91.451 37.056a5.42 5.42 0 00-4.059 1.83 5.388 5.388 0 00-4.066-1.83c-1.956 0-3.78 1.043-4.818 2.905-.405.727-.594 1.557-.594 2.388V50.6h2.72v-8.488c0-.677.312-1.325.864-1.714 2.18-1.535 4.535 0 4.535 2.078V50.6h2.719v-8.49c0-.675.313-1.323.864-1.712 2.18-1.535 4.535 0 4.535 2.078V50.6h2.719v-8.248c0-.688-.12-1.377-.407-2.003-.96-2.087-2.893-3.293-5.012-3.293"/>
        <g transform="translate(99 47.435)">
            <mask id="prefix__d" fill="#fff">
                <use xlink:href="#prefix__c"/>
            </mask>
            <path fill="#FEFEFE" d="M2.803.862C1.427-.05-.06 1.435.85 2.813a.718.718 0 00.209.21c1.377.903 2.855-.575 1.954-1.952a.756.756 0 00-.209-.21" mask="url(#prefix__d)"/>
        </g>
        <mask id="prefix__f" fill="#fff">
            <use xlink:href="#prefix__e"/>
        </mask>
        <path fill="#FEFEFE" d="M119.866 50.6L122.856 50.6 122.856 37.072 119.866 37.072zM115.19 39.174a6.763 6.763 0 00-4.79-1.984 6.751 6.751 0 00-4.788 1.984 6.751 6.751 0 00-1.984 4.79c0 .914.18 1.8.533 2.635.34.807.829 1.531 1.45 2.152a6.736 6.736 0 004.789 1.984 6.803 6.803 0 003.39-.908v-2.25a.06.06 0 00-.012-.036c-.33-.437-.802-.468-1.11-.217-.197.16-.423.287-.66.38-3.61 1.413-7.007-2.225-5.124-5.844a3.346 3.346 0 011.421-1.416c3.07-1.59 6.147.611 6.147 3.52V50.6h2.72v-6.636a6.751 6.751 0 00-1.983-4.79M124.77 31.369a3.378 3.378 0 11-6.757 0 3.378 3.378 0 016.756 0" mask="url(#prefix__f)"/>
    </g>
</svg>
