<svg xmlns="http://www.w3.org/2000/svg" xmlns:xlink="http://www.w3.org/1999/xlink" width="244" height="271" viewBox="0 0 244 271">
    <defs>
        <path id="prefix__a" d="M9.076.649C8.56.709 8.038.773 7.51.832 5.44.512 3.804 1.935 2.975 3.836c-.968 2.224-.921 5.102-.506 6.612 1.348 4.91-1.028 7.048-1.902 9.336-.385 1.008-.552 2.328-.504 3.783.058 1.758 1.072 2.664 1.92 4.238.215 1.608.61 3.097 1.238 4.352 2.329 4.658 10.161 6.906 17.68 6.562 6.016-.275 11.832-2.405 14.465-4.852 2.89-2.685 3.263-9.503-1.59-10.198-1.13-.162-2.447-.407-3.413-1.577-.664-.805-.022-2.925.137-5.748.155-2.733-.47-5.61-4.443-6.569-1.522-.367-3.005-.519-4.275-1.352-2.775-1.822-1.76-5.206-4.77-7.197-1.089-.72-2.576-1.104-4.28-1.104-1.14 0-2.376.171-3.656.527"/>
        <path id="prefix__d" d="M4.03.093C1.804.239 2.453.74.25.39c-.55.796.486 1.349.95 1.374.262.034.563.01.854-.016.536-.045 1.04-.091 1.21.23.296.557 3.771-.591 3.734-.626C5.61.353 4.328.092 4.05.092h-.02"/>
        <path id="prefix__g" d="M18.03 5.367c-1.894 3.051-3.297 4.878-5.52 7.696-2.363-1.532-5.622-1.684-8.69-2.444-.5-.125-.954-.14-1.41-.04-.372-.07-.728-.219-1.068-.373-.348.095-1.5 2.084-1.302 3.257.245.07.786.235 1.04.326.364.128.568.475.927.668 1.22.658 6.706 3.385 9.437 4.002 1.04.235 2.713.776 3.532-.109.07-.076.138-.15.203-.224 2.875-2.682 6.953-6.578 8.412-9.657.948-2.002 1.125-7.62-1.933-8.33-.072-.046-.147-.068-.225-.068-1.016 0-2.428 3.726-3.403 5.296"/>
        <path id="prefix__j" d="M0.103 0.11L48.932 0.11 48.932 27.178 0.103 27.178z"/>
        <path id="prefix__l" d="M.213 7.205c.303 5.322 1.238 9.826 4.824 20.47.002.122 3.277 6.63 3.496 7.312 2.233 6.944 5.016 14.483 7.382 21.498.877.678 3.53.468 3.87-1.183-.73-7.008.066-13.917-1.135-18.712-.916-3.654-2.117-5.32-4.08-8.027-.603-6.888-1.038-20.704-2.606-26L.87.167c.27 1.217-.974 5.421-.656 7.038"/>
        <path id="prefix__o" d="M6.576 10c.184 4.948 1.574 11.176 1.922 15.757.42 5.535 1.09 10.74 1.421 16.353.342 5.77.454 10.668.272 17.812.633.793 4.507 1.464 5.327-.076.871-4.985 2.026-12.037 2.387-16.147.49-5.587-.153-9.613-.495-13.21.29-6.97 1.455-11.783 2.027-15.751.855-5.933.755-8.67-3.189-13.607L.308.04H.281C-1.058.04 5.841 7.682 6.576 10"/>
        <path id="prefix__r" d="M4.222 1.014c-.23.328-.443.705-.539 1.106-.152.472-.3 1.168-.446 2.025-.48 1.12-1.04 2.13-2.002 3.535-1.525 2.228-1.687 5.95.887 7.874-.063.69-.19 1.118-.255 1.8-.255 2.693-.037 3.93-.502 6.259-.147.733-.475 3.51.024 4.608l.06 2.294c2.898 4.601 14.458 4.428 17.69 2.107l-.334-1.91c1.084-2.824-1.927-5.092-.156-9.19.9-2.081 1.921-4.816 2.513-7.455.922-4.106.986-6.005-.621-7.717C18.33 3.996 13.379 1.5 8.57.396 7.644.183 6.897.07 6.288.07c-.985 0-1.612.296-2.066.944"/>
        <path id="prefix__u" d="M5.347 1.118c-.223.134-1.822 1.128-2.72 1.732-.962.646-1.233 1.578-1.807 2.614C.408 6.31.233 6.92.173 7.342c-.061.437 1.048 1.276 1.52 1.172 1.07-.237 2.163-1.551 2.446-1.698C6.538 5.572 7.686 5.45 8.553 4.46c.37-.423.597-1.658 1.36-2.77L8.443.36 7.437.158c-.589.357-1.66.703-2.09.96"/>
        <path id="prefix__x" d="M1.37 7.838c2.994 3.647 4.835 4.488 8.048 7.965-1.85 2.028-3.335 4.696-4.502 7.35-.138.314-.116.542-.143.91-.216.296-.428.575-.636.832.809-.128 2.591 1.793 2.294 2.176.24-.194.555-.53.78-.716.4-.11.775-.205 1.043-.433 3.583-3.048 5.22-5.244 6.897-7.708.324-.476.548-.887.693-1.248.37-.66.549-1.84-.149-2.736C12.168 8.721 8.231 2.531 4.668.287 4.36.092 4.013.002 3.651.002c-2.4 0-5.44 3.986-2.28 7.836"/>
        <path id="prefix__A" d="M.36 2.917c-.071.67-.178 1.29-.287 1.922.4 1.634 4.245.247 4.754-1.808-.072-.983-.024-1.973.154-2.99L.36 2.918z"/>
        <path id="prefix__D" d="M.836 3.706c.051.496-.02.807-.161 1.124C-.133 6.654-.061 7.22.339 8.68c.175.638.266 1.139.357 1.542.309.462.925.696 1.51.436.54-.24 1.071-.879 1.205-1.944.095-.756 1.645-1.255 1.965-2.024.265-.637-.45-1.348-.884-1.715C2.974 3.69 2.028 1.946 1.387.056c-.48 1.054-.7 2.192-.55 3.65"/>
        <path id="prefix__G" d="M79.725.95L5.718 41.973c-3.752 2.08-6.257 7.445-5.593 11.97l26.04 177.748c.663 4.526 4.244 6.518 7.997 4.438l74.008-41.023c3.752-2.08 6.247-7.44 5.584-11.966L87.714 5.393C87.229 2.083 85.189.126 82.66.126c-.93 0-1.926.265-2.935.824"/>
        <path id="prefix__J" d="M78.542.371c1.606.625 2.807 2.25 3.153 4.617l4.572 32.207c.617 4.213-1.705 9.203-5.198 11.139L12.18 86.52c-3.494 1.935-6.827.081-7.444-4.131L.165 50.18c-.618-4.213 1.713-9.208 5.206-11.144L74.259.851"/>
        <path id="prefix__M" d="M72.04.237L1.332 39.462c-.835.462-1.392 1.657-1.244 2.663.99 6.994 1.838 14.1 2.987 21.058.148 1.007.945 1.45 1.78.988l70.71-39.225c.834-.463 1.39-1.656 1.242-2.663L73.82 1.226c-.083-.566-.37-.955-.754-1.104-.116-.045-.241-.068-.372-.068-.206 0-.428.059-.652.183"/>
        <path id="prefix__P" d="M71.978.282L1.268 39.508C.435 39.97-.123 41.164.025 42.17l.263 1.588c.147 1.007.944 1.45 1.779.988l70.71-39.225c.834-.463 1.39-1.656 1.242-2.663l-.262-1.587c-.083-.566-.37-.955-.754-1.104C72.886.123 72.76.1 72.63.1c-.206 0-.428.058-.652.182"/>
        <path id="prefix__S" d="M35.866.343c1.771.69 3.096 2.482 3.478 5.092l3.183 22.73c.68 4.649-1.881 10.152-5.733 12.288L11.152 54.621c-.602.333-1.2.565-1.782.7l-4.702-1.368L.063 22.656c.83-3.206 2.843-6.176 5.439-7.615L31.142.873"/>
        <path id="prefix__V" d="M8.26.2C3.555 1.274-.059 6.878.188 12.712c.247 5.835 4.262 9.692 8.968 8.616 4.705-1.077 8.319-6.68 8.072-12.515C17.008 3.638 13.824.02 9.823.02c-.51 0-1.032.059-1.563.18M4.182 11.8c-.13-3.1 1.789-6.075 4.288-6.646 2.5-.572 4.632 1.476 4.763 4.576.132 3.099-1.788 6.074-4.288 6.647-.282.064-.559.095-.83.095-2.124 0-3.816-1.922-3.933-4.671"/>
        <path id="prefix__Y" d="M19.338.098l5.864 40.028-13.697 7.519c-3.814 2.112-7.453.089-8.127-4.51L.112 19.698C-.562 15.1 1.983 9.646 5.796 7.533"/>
        <path id="prefix__ab" d="M31.799.822L5.404 15.312C1.912 17.25-.42 22.244.198 26.457l2.991 21.466c.617 4.213 3.95 6.067 7.444 4.131l26.396-14.49c3.493-1.937 5.815-6.926 5.198-11.14L39.235 4.958c-.347-2.367-1.548-3.99-3.153-4.616-.485-.189-1.006-.287-1.552-.287-.865 0-1.792.247-2.731.767"/>
        <path id="prefix__ae" d="M6.583 2.133c4.68-3.732 9.469-2.024 10.695 3.81 1.227 5.836-1.572 13.588-6.253 17.32-4.679 3.73-9.468 2.028-10.695-3.808"/>
        <path id="prefix__ah" d="M5.746 1.936C1.69 5.28-.738 12.23.326 17.456c1.063 5.23 5.215 6.756 9.27 3.413 4.058-3.344 6.484-10.29 5.42-15.52C14.335 1.997 12.384.165 10 .165c-1.333 0-2.8.572-4.254 1.771"/>
        <path id="prefix__ak" d="M19.884.375c1.811.705 3.166 2.537 3.557 5.207l1.193 8.4c.696 4.753-1.924 10.382-5.864 12.566l-9.017 5.075c-3.94 2.183-7.7.092-8.397-4.66l-1.192-8.4C-.533 13.81 2.097 8.175 6.037 5.992L15.052.916"/>
        <path id="prefix__an" d="M13.4.774l-7.992 4.5C1.916 7.209-.416 12.204.202 16.417l1.057 7.446c.617 4.213 3.95 6.066 7.443 4.131l7.993-4.499c3.493-1.936 5.816-6.926 5.198-11.139L20.836 4.91C20.489 2.543 19.288.92 17.682.294c-.484-.189-1.005-.286-1.55-.286-.866 0-1.793.246-2.732.766"/>
        <path id="prefix__aq" d="M62.673.32c1.66.645 2.9 2.324 3.259 4.77l6.03 42.749c.638 4.354-1.762 9.51-5.371 11.51L12.345 89.418l-4.758-1.456L.065 33.067 58.248.815c1.582-.876 3.131-1 4.425-.495z"/>
        <path id="prefix__at" d="M74.314.79L5.425 38.976C1.933 40.912-.399 45.906.22 50.119l5.835 41.37c.617 4.213 3.95 6.067 7.444 4.131l68.89-38.185c3.492-1.936 5.814-6.926 5.197-11.14L81.75 4.927C81.403 2.56 80.202.935 78.596.31c-.484-.189-1.005-.287-1.55-.287-.866 0-1.793.247-2.732.767"/>
        <path id="prefix__aw" d="M50.806.113l7.554 49.779-45.338 25.13c-3.604 1.997-7.042.086-7.679-4.26L.242 36.659c-.638-4.345 1.767-9.496 5.37-11.493"/>
        <path id="prefix__az" d="M0.143 0.041L81.133 0.041 81.133 85.566 0.143 85.566z"/>
        <path id="prefix__aB" d="M7.913 1.527C2.797 4.734-.627 12.515.269 18.899c.896 6.39 5.77 8.967 10.886 5.76 5.12-3.211 8.539-10.989 7.643-17.379C18.164 2.76 15.538.146 12.24.146c-1.359 0-2.832.444-4.326 1.38"/>
        <path id="prefix__aE" d="M16.932 1.17c-.437.349-1.43.525-2.111.795-1.811.72-6.734 4.23-9.876 6.856-1.65 1.38-3.548 2.83-4.24 4.259-1.1 2.266-.572 3.814.294 4.826 1.614 1.888 5.343 1.62 8.533-1.416 2.67-2.542 7.493-6.1 9.65-8.988.347-.465.526-1.667.877-2.11.471-.594.945-1.164 1.422-1.698-.77-1.558-2.034-3.223-3.122-3.647-.264.188-.951.746-1.427 1.124"/>
        <path id="prefix__aH" d="M4.819.655c-3.017 1.555-3.173 6.803-3.587 9.66-.594 4.089-2.384 13.428.439 16.596 1.166 1.308 3.324 1.474 5.521-.518.143-.095.285-.196.427-.304l.168-.422c.258-.403.417-.82.484-1.244.277-.721.56-1.48.816-2.207.97-2.74 2.99-9.167 3.554-13.965.626-5.338-2.486-8.144-5.554-8.144-.78 0-1.556.182-2.268.548"/>
        <path id="prefix__aK" d="M2.541 17.02c2.006 6.296 4.407 15.379 4.917 18.9-1.244 3.223-1.5 9.182-.728 14.086.69 4.38 2.383 11.285 3.574 19.165 1.483 2.356 6.578.419 6.802-3.287-.015-8.82-.392-18.86.93-27.17.878-5.526-2.281-25.656-2.843-31.96L1.962.117c-4.245 7.295-.145 14.633.58 16.905"/>
        <path id="prefix__aN" d="M13.938 17.527c-.866 5.089-1.99 14.493-2.886 17.975-1.152 1.512-4.35 6.607-5.217 8.725C3.002 51.146 1.407 63.314.05 71.203c-.012 2.337 6.136 2.598 7.86.092 3.333-9.436 9.599-24.519 12.995-32.207 6.363-14.404 10.446-21.34 9.85-37.973-3.691 2.085-11.832.914-14.465-.96-6.526 6.12-3.13 13.16-2.352 17.372"/>
        <path id="prefix__aQ" d="M1.471 22.667c.548 4.94-.938 9.8.575 14.31.068.467.11 2.296.19 2.793.997 5.843 13.357 11.756 23.665 6.15.057-.725-.009-1.482.048-2.824-.191-1.253.35-2.597.347-3.362-.015-3.18-1.005-4.805-.53-8.344.966-7.199 4.954-14.118 2.748-19.782-.474-1.215-1.304-1.804-2.243-2.56C23.835 7.092 11.235.677 7.415.224c-.411-.054-.802-.08-1.172-.08C-3.343.142.9 17.505 1.471 22.667"/>
        <path id="prefix__aT" d="M2.969 2.187C-.058 4.591-.41 8.197.555 11.444c.604 2.031 2.306 3.524 3.135 4.864.22.356.188 3.052.205 3.777.916 3.45 7.045 4.266 9.318 3.708-.153-2.18-.627-3.148-.678-4.74-.052-.157.772-.123 1.706-.09.969.035 2.056.07 2.413-.108.86-.425.92-6.971.609-7.615-.226-.465-.504-.684-.51-.894-.035-1.072.953-1.751.604-3.005C16.14 2.982 12.492.143 8.544.143c-1.867 0-3.8.635-5.575 2.044"/>
        <path id="prefix__aW" d="M2.969 2.187C-.058 4.591-.41 8.197.555 11.444c.604 2.031 2.307 3.524 3.135 4.864.23.371 2.308-.629 4.379-1.628 2.529-1.221 5.046-2.442 4.172-1.166-1.631 2.38-.579 3.874-.104 4.066.112.045.633.663 1.355.94 1.144.44 2.681.571 3.053.372.845-.454 1.029-7.008.718-7.652-.226-.465-.504-.684-.51-.894-.035-1.072.953-1.751.604-3.005C16.14 2.982 12.492.143 8.544.143c-1.867 0-3.8.635-5.575 2.044"/>
        <path id="prefix__aZ" d="M3.232.836C1.751 1.789 1.141 2.48.085 5.738c2.42-.446 4.502-.1 6.091.246 1.648.36 2.765.718 3.183.195.66-.827 1.052-2.726.074-4.366C8.798.746 7.298.148 5.79.148c-.913 0-1.83.22-2.558.688"/>
        <path id="prefix__bc" d="M.278 8.642c.939 4.74 3.46 10.988 4.642 13.643.313.703.655 1.438.988 2.136.1.416.29.82.58 1.201l.2.408c.15.097.3.186.45.27.666.558 1.599 1.038 2.835 1.389 1.796.03 3.04-.563 4.583-1.202 3.405-1.412 9.184-2.998 12.235-4.918.491-.31 1.09-1.368 1.577-1.654.653-.385 1.3-.747 1.938-1.073-.159-1.73-.74-3.739-1.603-4.526-.314.08-1.155.354-1.735.536-.343.107-.874.066-1.404.025-.295-.023-.59-.045-.852-.043-2.752.03-7.66 1.534-11.213 2.77-.474-2.35-1.106-5.249-1.685-7.802-.638-2.815-1.206-8.035-4.337-9.347C6.863.197 6.215.072 5.567.072 2.37.072-.811 3.144.278 8.642"/>
        <linearGradient id="prefix__b" x1="61.601%" x2="44.806%" y1="28.319%" y2="61.637%">
            <stop offset="0%" stop-color="#592D67"/>
            <stop offset="100%" stop-color="#21043D"/>
        </linearGradient>
        <linearGradient id="prefix__e" x1="46.633%" x2="51.231%" y1="53.364%" y2="48.431%">
            <stop offset="0%" stop-color="#FF8977"/>
            <stop offset="100%" stop-color="#FFA799"/>
        </linearGradient>
        <linearGradient id="prefix__h" x1="27.796%" x2="74.402%" y1="72.538%" y2="29.24%">
            <stop offset="0%" stop-color="#955BF2"/>
            <stop offset="100%" stop-color="#FF89DB"/>
        </linearGradient>
        <linearGradient id="prefix__m" x1="46.556%" x2="56.807%" y1="18.74%" y2="76.492%">
            <stop offset="0%" stop-color="#3D4695"/>
            <stop offset="100%" stop-color="#262F87"/>
        </linearGradient>
        <linearGradient id="prefix__p" x1="43.877%" x2="57.679%" y1="23.069%" y2="70.747%">
            <stop offset="0%" stop-color="#3D4695"/>
            <stop offset="100%" stop-color="#262F87"/>
        </linearGradient>
        <linearGradient id="prefix__s" x1="45.365%" x2="52.168%" y1="83.436%" y2="19.942%">
            <stop offset="0%" stop-color="#955BF2"/>
            <stop offset="100%" stop-color="#FF89DB"/>
        </linearGradient>
        <linearGradient id="prefix__v" x1="55.602%" x2="47.378%" y1="60.856%" y2="48.071%">
            <stop offset="0%" stop-color="#FF8977"/>
            <stop offset="100%" stop-color="#FFA799"/>
        </linearGradient>
        <linearGradient id="prefix__y" x1="54.544%" x2="44.976%" y1="74.357%" y2="6.729%">
            <stop offset="0%" stop-color="#955BF2"/>
            <stop offset="100%" stop-color="#FF89DB"/>
        </linearGradient>
        <linearGradient id="prefix__B" x1="51.745%" x2="57.414%" y1="53.285%" y2="85.152%">
            <stop offset="0%" stop-color="#FF8977"/>
            <stop offset="100%" stop-color="#FFA799"/>
        </linearGradient>
        <linearGradient id="prefix__E" x1="39.578%" x2="52.291%" y1="37.268%" y2="78.227%">
            <stop offset="0%" stop-color="#FFB89E"/>
            <stop offset="100%" stop-color="#FFA799"/>
        </linearGradient>
        <linearGradient id="prefix__H" x1="52.919%" x2="44.508%" y1="74.332%" y2="4.225%">
            <stop offset="0%" stop-color="#955BF2"/>
            <stop offset="100%" stop-color="#FF89DB"/>
        </linearGradient>
        <linearGradient id="prefix__K" x1="60.392%" x2="43.854%" y1="6.916%" y2="75.49%">
            <stop offset="0%" stop-color="#FD90DA"/>
            <stop offset="100%" stop-color="#8E6DFD"/>
        </linearGradient>
        <linearGradient id="prefix__N" x1="54.311%" x2="47.008%" y1="60.217%" y2="42.909%">
            <stop offset="0%" stop-color="#1C8EF4"/>
            <stop offset="100%" stop-color="#00CFDD"/>
        </linearGradient>
        <linearGradient id="prefix__Q" x1="51.115%" x2="49.009%" y1="51.382%" y2="48.773%">
            <stop offset="0%" stop-color="#1C8EF4"/>
            <stop offset="100%" stop-color="#00CFDD"/>
        </linearGradient>
        <linearGradient id="prefix__T" x1="55.854%" x2="45.885%" y1="8.575%" y2="76.264%">
            <stop offset="0%" stop-color="#FD90DA"/>
            <stop offset="100%" stop-color="#8E6DFD"/>
        </linearGradient>
        <linearGradient id="prefix__W" x1="56.896%" x2="41.236%" y1="87.505%" y2="2.336%">
            <stop offset="0%" stop-color="#6D69FD"/>
            <stop offset="100%" stop-color="#3FAFF6"/>
        </linearGradient>
        <linearGradient id="prefix__Z" x1="57.266%" x2="48.989%" y1="-11.949%" y2="68.713%">
            <stop offset="0%" stop-color="#FD90DA"/>
            <stop offset="100%" stop-color="#8E6DFD"/>
        </linearGradient>
        <linearGradient id="prefix__ac" x1="53.808%" x2="44.376%" y1="67.483%" y2="24.193%">
            <stop offset="0%" stop-color="#6D69FD"/>
            <stop offset="100%" stop-color="#3FAFF6"/>
        </linearGradient>
        <linearGradient id="prefix__af" x1="57.258%" x2="34.73%" y1="65.514%" y2="17.369%">
            <stop offset="0%" stop-color="#955BF2"/>
            <stop offset="100%" stop-color="#FF89DB"/>
        </linearGradient>
        <linearGradient id="prefix__ai" x1="57.098%" x2="45.816%" y1="73.422%" y2="36.197%">
            <stop offset="0%" stop-color="#1C8EF4"/>
            <stop offset="100%" stop-color="#00CFDD"/>
        </linearGradient>
        <linearGradient id="prefix__al" x1="55.581%" x2="38.584%" y1="68.559%" y2="12.068%">
            <stop offset="0%" stop-color="#955BF2"/>
            <stop offset="100%" stop-color="#FF89DB"/>
        </linearGradient>
        <linearGradient id="prefix__ao" x1="54.851%" x2="47.227%" y1="78.293%" y2="33.856%">
            <stop offset="0%" stop-color="#1C8EF4"/>
            <stop offset="100%" stop-color="#00CFDD"/>
        </linearGradient>
        <linearGradient id="prefix__ar" x1="66.385%" x2="46.804%" y1="-19.765%" y2="60.012%">
            <stop offset="0%" stop-color="#FD90DA"/>
            <stop offset="100%" stop-color="#8E6DFD"/>
        </linearGradient>
        <linearGradient id="prefix__au" x1="45.262%" x2="54.889%" y1="34.158%" y2="66.35%">
            <stop offset="0%" stop-color="#A77EF6"/>
            <stop offset="100%" stop-color="#5D64D6"/>
        </linearGradient>
        <linearGradient id="prefix__ax" x1="66.469%" x2="48.452%" y1="-18.599%" y2="61.905%">
            <stop offset="0%" stop-color="#FD90DA"/>
            <stop offset="100%" stop-color="#8E6DFD"/>
        </linearGradient>
        <linearGradient id="prefix__aC" x1="55.455%" x2="36.736%" y1="57.866%" y2="30.86%">
            <stop offset="0%" stop-color="#6D69FD"/>
            <stop offset="100%" stop-color="#3FAFF6"/>
        </linearGradient>
        <linearGradient id="prefix__aF" x1="57.04%" x2="41.812%" y1="60.585%" y2="41.848%">
            <stop offset="0%" stop-color="#1C8EF4"/>
            <stop offset="100%" stop-color="#00CFDD"/>
        </linearGradient>
        <linearGradient id="prefix__aI" x1="48.411%" x2="51.508%" y1="80.508%" y2="15.133%">
            <stop offset="0%" stop-color="#1C8EF4"/>
            <stop offset="100%" stop-color="#00CFDD"/>
        </linearGradient>
        <linearGradient id="prefix__aL" x1="51.366%" x2="48.347%" y1="22.076%" y2="77.927%">
            <stop offset="0%" stop-color="#3D4695"/>
            <stop offset="100%" stop-color="#262F87"/>
        </linearGradient>
        <linearGradient id="prefix__aO" x1="56.256%" x2="40.11%" y1="22.043%" y2="74.234%">
            <stop offset="0%" stop-color="#3D4695"/>
            <stop offset="100%" stop-color="#262F87"/>
        </linearGradient>
        <linearGradient id="prefix__aR" x1="48.067%" x2="49.587%" y1="93.857%" y2="40.184%">
            <stop offset="0%" stop-color="#1C8EF4"/>
            <stop offset="100%" stop-color="#00CFDD"/>
        </linearGradient>
        <linearGradient id="prefix__aU" x1="59.547%" x2="42.932%" y1="28.379%" y2="64.345%">
            <stop offset="0%" stop-color="#FF8977"/>
            <stop offset="100%" stop-color="#FFA799"/>
        </linearGradient>
        <linearGradient id="prefix__aX" x1="59.399%" x2="44.656%" y1="31.549%" y2="79.044%">
            <stop offset="0%" stop-color="#FFB89E"/>
            <stop offset="100%" stop-color="#FFA799"/>
        </linearGradient>
        <linearGradient id="prefix__ba" x1="98.844%" x2="33.133%" y1="37.455%" y2="62.823%">
            <stop offset="0%" stop-color="#894690"/>
            <stop offset="100%" stop-color="#562D64"/>
        </linearGradient>
        <linearGradient id="prefix__bd" x1="57.676%" x2="33.5%" y1="67.225%" y2="17.478%">
            <stop offset="0%" stop-color="#1C8EF4"/>
            <stop offset="100%" stop-color="#00CFDD"/>
        </linearGradient>
    </defs>
    <g fill="none" fill-rule="evenodd">
        <g transform="rotate(2 180.29 280.725) translate(200.52 95.179)">
            <mask id="prefix__c" fill="#fff">
                <use xlink:href="#prefix__a"/>
            </mask>
            <path fill="url(#prefix__b)" d="M9.076.649C8.56.709 8.038.773 7.51.832 5.44.512 3.804 1.935 2.975 3.836c-.968 2.224-.921 5.102-.506 6.612 1.348 4.91-1.028 7.048-1.902 9.336-.385 1.008-.552 2.328-.504 3.783.058 1.758 1.072 2.664 1.92 4.238.215 1.608.61 3.097 1.238 4.352 2.329 4.658 10.161 6.906 17.68 6.562 6.016-.275 11.832-2.405 14.465-4.852 2.89-2.685 3.263-9.503-1.59-10.198-1.13-.162-2.447-.407-3.413-1.577-.664-.805-.022-2.925.137-5.748.155-2.733-.47-5.61-4.443-6.569-1.522-.367-3.005-.519-4.275-1.352-2.775-1.822-1.76-5.206-4.77-7.197-1.089-.72-2.576-1.104-4.28-1.104-1.14 0-2.376.171-3.656.527" mask="url(#prefix__c)"/>
        </g>
        <path fill="#22043D" d="M206.233 98.584c-.172 1.334.317 2.496 1.11 3.615 1.85 2.61 2.821 2.406 3.833 5.731 1.664-1.11 2.807-1.28 3.287-.189.771 1.754.285 2.791.464 4.606.293 2.949 3.818-1.093 6.582 1.167 2.718 2.222.853 3.782 1.903 6.927.392 1.177.697 2.726 1.797 3.246 3.418 1.619 4.727 5.693-1.359 7.715-3.77 1.253-9.244.94-13.818-.62-6.039-2.058-9.763-10.967-8.222-15.2.638-1.75 2.36-3.059 2.369-4.427.03-4.702-.878-7.717 2.054-12.571" transform="rotate(2 180.29 280.725)"/>
        <g transform="rotate(2 180.29 280.725) translate(177.12 121.279)">
            <mask id="prefix__f" fill="#fff">
                <use xlink:href="#prefix__d"/>
            </mask>
            <path fill="url(#prefix__e)" d="M4.03.093C1.804.239 2.453.74.25.39c-.55.796.486 1.349.95 1.374.262.034.563.01.854-.016.536-.045 1.04-.091 1.21.23.296.557 3.771-.591 3.734-.626C5.61.353 4.328.092 4.05.092h-.02" mask="url(#prefix__f)"/>
        </g>
        <path fill="#FFA698" d="M183.623 125.868c3.189.901 7.546 4.016 10.58 4.701.958.217 2.455.637 3.21-.178 3.9-4.216-1.523-2.83-1.98-4.423-2.776-2.065-7.121-1.09-10.676-3.005-.236-.156-.47-.296-.693-.407-1.394-.695-2.173-.638-4.594.578-.705.354-1.067.308-1.683.29l-2.434-.312c-.747-.028-1.223.15-1.339.395-.129.272.138 1.81.574 2.416l.002.002c.093.284.645.5 1.513.511l3.558 1.09.166-.094c2.12-1.203 3.024-1.602 3.796-1.564" transform="rotate(2 180.29 280.725)"/>
        <g transform="rotate(2 180.29 280.725) translate(183.6 112.639)">
            <mask id="prefix__i" fill="#fff">
                <use xlink:href="#prefix__g"/>
            </mask>
            <path fill="url(#prefix__h)" d="M18.03 5.367c-1.894 3.051-3.297 4.878-5.52 7.696-2.363-1.532-5.622-1.684-8.69-2.444-.5-.125-.954-.14-1.41-.04-.372-.07-.728-.219-1.068-.373-.348.095-1.5 2.084-1.302 3.257.245.07.786.235 1.04.326.364.128.568.475.927.668 1.22.658 6.706 3.385 9.437 4.002 1.04.235 2.713.776 3.532-.109.07-.076.138-.15.203-.224 2.875-2.682 6.953-6.578 8.412-9.657.948-2.002 1.125-7.62-1.933-8.33-.072-.046-.147-.068-.225-.068-1.016 0-2.428 3.726-3.403 5.296" mask="url(#prefix__i)"/>
        </g>
        <g>
            <path fill="#59CAAF" d="M7.26 17.586c2.874-2.682 6.952-6.578 8.41-9.657.82-1.73 1.063-6.158-.858-7.79-1-.103-1.576-.128-2.054.27-.598.5-.838 1.74-1.705 3.573-1.311 2.773-3.303 4.39-3.462 7.652-.119 2.408-1.217 5.247-3.01 6.53.903.185 1.9.268 2.475-.354.07-.076.138-.15.203-.224" transform="rotate(2 180.29 280.725) translate(191.52 113.179)"/>
            <g transform="rotate(2 180.29 280.725) translate(191.52 113.179) translate(0 86.76)">
                <mask id="prefix__k" fill="#fff">
                    <use xlink:href="#prefix__j"/>
                </mask>
                <path fill="#59CAAF" d="M2.435 15.637L27.09 1.596C29.776.368 33.623-.61 36.36.816c2.495 1.298 6.605 3.955 8.422 4.992 1.38.787 6.172 3.658 3.188 5.28-8.78 4.774-17.468 10.144-26.383 14.993-1.686.917-4.152 1.249-6.742 1.034-2.578-.214-5.222-.965-7.302-2.175l-4.371-2.545C1.239 21.27.213 19.938.112 18.707c-.1-1.203.673-2.317 2.323-3.07" mask="url(#prefix__k)"/>
            </g>
            <path fill="#FFA698" d="M28.83 82.319c-.133.583.24 1.43.304 1.524 1.43 2.076-.273 1.9-.198 4.863.007.272-1.203 4.952-1.203 4.952s-2.851.69-3.064.653c-.212-.038-1.944-.707-1.944-.707.146-.252.34-.871.459-1.103.82-1.6 1.255-3.54 1.572-5.487.21-1.287.602-3.289.337-4.64l3.736-.055z" transform="rotate(2 180.29 280.725) translate(191.52 113.179)"/>
            <path fill="#161F69" d="M22.634 93.57c-.386.764-.603 1.283-.801 1.887-.1.303-.084.59.038.765.652.938 4.126-.616 5.306-1.59.762-.628.802-1.4 1.007-2.338.31-1.408.36-1.566.748-3.01l.251 3.965.32.208c.124-1.607.365-3.73.66-5.099.118-.545.308-1.164.342-1.467.201-1.785-.654-2.695-1.45-3.226.261 1.098-.712 2.842-1.146 5.058-.525 2.683-2.895 4.864-5.275 4.847" transform="rotate(2 180.29 280.725) translate(191.52 113.179)"/>
        </g>
        <g transform="rotate(2 180.29 280.725) translate(200.7 140.719)">
            <mask id="prefix__n" fill="#fff">
                <use xlink:href="#prefix__l"/>
            </mask>
            <path fill="url(#prefix__m)" d="M.213 7.205c.303 5.322 1.238 9.826 4.824 20.47.002.122 3.277 6.63 3.496 7.312 2.233 6.944 5.016 14.483 7.382 21.498.877.678 3.53.468 3.87-1.183-.73-7.008.066-13.917-1.135-18.712-.916-3.654-2.117-5.32-4.08-8.027-.603-6.888-1.038-20.704-2.606-26L.87.167c.27 1.217-.974 5.421-.656 7.038" mask="url(#prefix__n)"/>
        </g>
        <g>
            <path fill="#1E2353" d="M.149.167c.27 1.217 1.072 3.472 1.39 5.089 1 2.45 3.108 5.803 4.53 8.62.426 3.417.307 7.957 2.44 14.287l1.93 14.634c1.589 4.583 3.256 9.24 4.756 13.688.877.678 3.53.468 3.87-1.183-.73-7.008.066-13.917-1.135-18.712-.916-3.654-2.117-5.32-4.08-8.027-.603-6.888-1.038-20.704-2.606-26L.15.167z" transform="rotate(2 180.29 280.725) translate(201.42 140.719)"/>
            <path fill="#FFA698" d="M16.12 61.88c-.067.647.232 1.302.307 1.947.114.974.25 2.085.212 3.445-.047 1.712-.204 3.736-.767 6.194-.197.86-.581 1.23-.84 2.41l-5.08.83c.5-1.922 1.188-5.814 1.707-9.072l.97-6.09 3.492.336z" transform="rotate(2 180.29 280.725) translate(201.42 140.719)"/>
            <path fill="#161F69" d="M16.38 63.487c.294 1.02.63 1.564.674 2.955.044 1.391-.598 3.565-.544 5.288l.085 2.733c.05 1.592-.355 2.697-2.163 4.013-1.64 1.193-3.237 1.682-4.106 1.258-.64-.312-1.15-1.439-.17-4.412.817-2.477 1.027-4.897 1.507-7.584-.168 2.642-.232 3.524-.869 6.11-.178.723-.284 1.933.575 2.055 3.55.508 3.728-.447 4.02-1.542.783-2.925 1.355-8.13.992-10.874" transform="rotate(2 180.29 280.725) translate(201.42 140.719)"/>
        </g>
        <g transform="rotate(2 180.29 280.725) translate(202.86 143.959)">
            <mask id="prefix__q" fill="#fff">
                <use xlink:href="#prefix__o"/>
            </mask>
            <path fill="url(#prefix__p)" d="M6.576 10c.184 4.948 1.574 11.176 1.922 15.757.42 5.535 1.09 10.74 1.421 16.353.342 5.77.454 10.668.272 17.812.633.793 4.507 1.464 5.327-.076.871-4.985 2.026-12.037 2.387-16.147.49-5.587-.153-9.613-.495-13.21.29-6.97 1.455-11.783 2.027-15.751.855-5.933.755-8.67-3.189-13.607L.308.04H.281C-1.058.04 5.841 7.682 6.576 10" mask="url(#prefix__q)"/>
        </g>
        <g transform="rotate(2 180.29 280.725) translate(199.98 112.459)">
            <mask id="prefix__t" fill="#fff">
                <use xlink:href="#prefix__r"/>
            </mask>
            <path fill="url(#prefix__s)" d="M4.222 1.014c-.23.328-.443.705-.539 1.106-.152.472-.3 1.168-.446 2.025-.48 1.12-1.04 2.13-2.002 3.535-1.525 2.228-1.687 5.95.887 7.874-.063.69-.19 1.118-.255 1.8-.255 2.693-.037 3.93-.502 6.259-.147.733-.475 3.51.024 4.608l.06 2.294c2.898 4.601 14.458 4.428 17.69 2.107l-.334-1.91c1.084-2.824-1.927-5.092-.156-9.19.9-2.081 1.921-4.816 2.513-7.455.922-4.106.986-6.005-.621-7.717C18.33 3.996 13.379 1.5 8.57.396 7.644.183 6.897.07 6.288.07c-.985 0-1.612.296-2.066.944" mask="url(#prefix__t)"/>
        </g>
        <path fill="#59CAAF" d="M218.663 133.956c-1.771 4.098 1.167 6.44.083 9.262l.335 1.887c-3.232 2.516-14.792 2.397-17.69-2.204l.06-2.002c.002-.08 5.677 5.033 12.137 2.19 1.403-.617 2.674-3.688.857-9.553-.173-.558-2.232-.596-5.148-2.744 2.153.912 6.212 2.163 6.412-3.314.09-2.45.45-4.29 1.704-5.993.608-.825 4.171 3.505 3.628 5.582-.692 2.647-1.708 5.34-2.378 6.889" transform="rotate(2 180.29 280.725)"/>
        <g transform="rotate(2 180.29 280.725) translate(212.76 142.879)">
            <mask id="prefix__w" fill="#fff">
                <use xlink:href="#prefix__u"/>
            </mask>
            <path fill="url(#prefix__v)" d="M5.347 1.118c-.223.134-1.822 1.128-2.72 1.732-.962.646-1.233 1.578-1.807 2.614C.408 6.31.233 6.92.173 7.342c-.061.437 1.048 1.276 1.52 1.172 1.07-.237 2.163-1.551 2.446-1.698C6.538 5.572 7.686 5.45 8.553 4.46c.37-.423.597-1.658 1.36-2.77L8.443.36 7.437.158c-.589.357-1.66.703-2.09.96" mask="url(#prefix__w)"/>
        </g>
        <g transform="rotate(2 180.29 280.725) translate(215.82 118.219)">
            <mask id="prefix__z" fill="#fff">
                <use xlink:href="#prefix__x"/>
            </mask>
            <path fill="url(#prefix__y)" d="M1.37 7.838c2.994 3.647 4.835 4.488 8.048 7.965-1.85 2.028-3.335 4.696-4.502 7.35-.138.314-.116.542-.143.91-.216.296-.428.575-.636.832.809-.128 2.591 1.793 2.294 2.176.24-.194.555-.53.78-.716.4-.11.775-.205 1.043-.433 3.583-3.048 5.22-5.244 6.897-7.708.324-.476.548-.887.693-1.248.37-.66.549-1.84-.149-2.736C12.168 8.721 8.231 2.531 4.668.287 4.36.092 4.013.002 3.651.002c-2.4 0-5.44 3.986-2.28 7.836" mask="url(#prefix__z)"/>
        </g>
        <path fill="#FFA698" d="M213.062 109.44c-.373 2.118-.176 4.123.48 6.177-1.733 1.605-4.816.923-5.532-.531.152-.94.327-1.805.43-2.77l4.622-2.876z" transform="rotate(2 180.29 280.725)"/>
        <g transform="rotate(2 180.29 280.725) translate(208.08 109.399)">
            <mask id="prefix__C" fill="#fff">
                <use xlink:href="#prefix__A"/>
            </mask>
            <path fill="url(#prefix__B)" d="M.36 2.917c-.071.67-.178 1.29-.287 1.922.4 1.634 4.245.247 4.754-1.808-.072-.983-.024-1.973.154-2.99L.36 2.918z" mask="url(#prefix__C)"/>
        </g>
        <path fill="#FFA698" d="M205.901 100.482c-.864 1.373-1.325 2.75-1.125 4.702.051.497-.02.808-.161 1.124-.808 1.825-.736 2.39-.335 3.852.389 1.421.363 2.164.848 2.652.497.502 1.242.617 1.873.657 1.294.081 3.515-.772 4.806-1.478.957-.524.92-.881 1.325-1.789 1.35-1.175.476-2.033.023-2.12-1.298-.253-1.508 1.243-2.278 1.574.128-2.628-4.88-7.064-4.976-9.174" transform="rotate(2 180.29 280.725)"/>
        <g transform="rotate(2 180.29 280.725) translate(203.94 101.479)">
            <mask id="prefix__F" fill="#fff">
                <use xlink:href="#prefix__D"/>
            </mask>
            <path fill="url(#prefix__E)" d="M.836 3.706c.051.496-.02.807-.161 1.124C-.133 6.654-.061 7.22.339 8.68c.175.638.266 1.139.357 1.542.309.462.925.696 1.51.436.54-.24 1.071-.879 1.205-1.944.095-.756 1.645-1.255 1.965-2.024.265-.637-.45-1.348-.884-1.715C2.974 3.69 2.028 1.946 1.387.056c-.48 1.054-.7 2.192-.55 3.65" mask="url(#prefix__F)"/>
        </g>
        <g>
            <path fill="#FF8F7F" d="M144.701 96.563c.727 3.227 4.941 5.67 4.976 9.174-1.152-3.642-5.24-6.135-4.976-9.174" transform="rotate(2 180.29 280.725) translate(61.2 3.919)"/>
            <path fill="#59CAAF" d="M26.447 233.397l76.345-42.529c2.397-1.095 5.918-2.127 8.268-.696l6.015 3.664c1.209.737 5.188 3.184 2.527 4.63-7.83 4.257-69.623 39.133-77.572 43.458-1.503.817-3.703 1.113-6.012.921-2.298-.19-4.685-.813-6.511-1.939l-2.402-1.482c-1.698-1.047-2.64-2.19-2.73-3.289-.088-1.072.6-2.066 2.072-2.738" transform="rotate(2 180.29 280.725) translate(61.2 3.919)"/>
            <path fill="#273087" d="M79.807.882c1.408-.8 3.058-1.097 4.603-.514l4.78 1.867c-.8-.311-84.838 49.193-84.205 53.508l29.423 182.7-4.779-1.865c-2.024-.798-3.087-2.906-3.384-4.955L.205 53.877l-.003-.02c-.424-2.989.475-6.1 2.119-8.598.884-1.346 2.048-2.58 3.478-3.354L79.807.882z" transform="rotate(2 180.29 280.725) translate(61.2 3.919)"/>
        </g>
        <g transform="rotate(2 180.29 280.725) translate(66.06 5.719)">
            <mask id="prefix__I" fill="#fff">
                <use xlink:href="#prefix__G"/>
            </mask>
            <path fill="url(#prefix__H)" d="M79.725.95L5.718 41.973c-3.752 2.08-6.257 7.445-5.593 11.97l26.04 177.748c.663 4.526 4.244 6.518 7.997 4.438l74.008-41.023c3.752-2.08 6.247-7.44 5.584-11.966L87.714 5.393C87.229 2.083 85.189.126 82.66.126c-.93 0-1.926.265-2.935.824" mask="url(#prefix__I)"/>
        </g>
        <g>
            <g transform="rotate(2 180.29 280.725) translate(94.32 144.679) translate(0 5.58)">
                <mask id="prefix__L" fill="#fff">
                    <use xlink:href="#prefix__J"/>
                </mask>
                <path fill="url(#prefix__K)" d="M5.37 39.037L74.26.851c1.53-.848 3.03-.968 4.282-.48 1.606.625 2.807 2.25 3.153 4.617l4.572 32.207c.617 4.213-1.705 9.203-5.198 11.139L12.18 86.52c-3.494 1.935-6.827.081-7.444-4.131L.165 50.18c-.618-4.213 1.713-9.208 5.206-11.144" mask="url(#prefix__L)"/>
            </g>
            <path fill="#273087" d="M6.197 51.999l5.62 35.672-.63.076-1.718-.667c-1.885-.743-2.873-2.705-3.15-4.612L1.748 50.262l-.003-.02c-.395-2.782.441-5.678 1.971-8.003.824-1.253 1.907-2.4 3.238-3.122L75.844.932c1.31-.745 2.847-1.022 4.285-.48l1.515.593c.763.286.999.515.994.563-.715 6.667-77.445 43.553-76.441 50.39" transform="rotate(2 180.29 280.725) translate(94.32 144.679)"/>
            <path fill="#D0E7FF" d="M8.688 39.8L77.577 1.612c1.53-.848 3.03-.968 4.282-.48 1.606.625 2.807 2.25 3.154 4.616l4.571 32.208c.618 4.214-1.705 9.203-5.197 11.139l-68.89 38.186c-3.493 1.935-6.827.081-7.444-4.131L3.482 50.942C2.864 46.73 5.195 41.735 8.688 39.8" transform="rotate(2 180.29 280.725) translate(94.32 144.679)"/>
        </g>
        <g transform="rotate(2 180.29 280.725) translate(102.06 151.159)">
            <mask id="prefix__O" fill="#fff">
                <use xlink:href="#prefix__M"/>
            </mask>
            <path fill="url(#prefix__N)" d="M72.04.237L1.332 39.462c-.835.462-1.392 1.657-1.244 2.663.99 6.994 1.838 14.1 2.987 21.058.148 1.007.945 1.45 1.78.988l70.71-39.225c.834-.463 1.39-1.656 1.242-2.663L73.82 1.226c-.083-.566-.37-.955-.754-1.104-.116-.045-.241-.068-.372-.068-.206 0-.428.059-.652.183" mask="url(#prefix__O)"/>
        </g>
        <g transform="rotate(2 180.29 280.725) translate(105.48 181.759)">
            <mask id="prefix__R" fill="#fff">
                <use xlink:href="#prefix__P"/>
            </mask>
            <path fill="url(#prefix__Q)" d="M71.978.282L1.268 39.508C.435 39.97-.123 41.164.025 42.17l.263 1.588c.147 1.007.944 1.45 1.779.988l70.71-39.225c.834-.463 1.39-1.656 1.242-2.663l-.262-1.587c-.083-.566-.37-.955-.754-1.104C72.886.123 72.76.1 72.63.1c-.206 0-.428.058-.652.182" mask="url(#prefix__R)"/>
        </g>
        <g>
            <g transform="rotate(2 180.29 280.725) translate(59.22 42.799) translate(3.24)">
                <mask id="prefix__U" fill="#fff">
                    <use xlink:href="#prefix__S"/>
                </mask>
                <path fill="url(#prefix__T)" d="M5.502 15.04L31.142.874c1.689-.936 3.342-1.067 4.724-.53 1.771.69 3.096 2.482 3.478 5.092l3.183 22.73c.68 4.649-1.881 10.152-5.733 12.288L11.152 54.621c-.602.333-1.2.565-1.782.7l-4.702-1.368L.063 22.656c.83-3.206 2.843-6.176 5.439-7.615" mask="url(#prefix__U)"/>
            </g>
            <path fill="#273087" d="M4.584 28.328l4.041 24.93-.63.076-1.719-.667c-1.884-.742-2.873-2.705-3.15-4.612L.135 26.591l-.002-.019c-.395-2.782.441-5.68 1.972-8.004.823-1.253 1.906-2.4 3.237-3.122L31.738.956c1.31-.744 2.846-1.02 4.284-.479l1.516.592c.762.287.998.516.993.563C37.816 8.3 3.581 21.49 4.584 28.328" transform="rotate(2 180.29 280.725) translate(59.22 42.799)"/>
            <path fill="#FFF" d="M7.075 16.128L33.47 1.638C35 .789 36.5.67 37.752 1.158c1.606.625 2.807 2.249 3.154 4.616l2.992 21.465c.617 4.213-1.705 9.203-5.197 11.14l-26.397 14.49c-3.494 1.935-6.827.082-7.444-4.13L1.87 27.27c-.618-4.212 1.714-9.207 5.206-11.143" transform="rotate(2 180.29 280.725) translate(59.22 42.799)"/>
        </g>
        <g transform="rotate(2 180.29 280.725) translate(75.42 59.899)">
            <mask id="prefix__X" fill="#fff">
                <use xlink:href="#prefix__V"/>
            </mask>
            <path fill="url(#prefix__W)" d="M8.26.2C3.555 1.274-.059 6.878.188 12.712c.247 5.835 4.262 9.692 8.968 8.616 4.705-1.077 8.319-6.68 8.072-12.515C17.008 3.638 13.824.02 9.823.02c-.51 0-1.032.059-1.563.18M4.182 11.8c-.13-3.1 1.789-6.075 4.288-6.646 2.5-.572 4.632 1.476 4.763 4.576.132 3.099-1.788 6.074-4.288 6.647-.282.064-.559.095-.83.095-2.124 0-3.816-1.922-3.933-4.671" mask="url(#prefix__X)"/>
        </g>
        <g>
            <g transform="rotate(2 180.29 280.725) translate(143.46 63.499) translate(0 9.9)">
                <mask id="prefix__aa" fill="#fff">
                    <use xlink:href="#prefix__Y"/>
                </mask>
                <path fill="url(#prefix__Z)" d="M5.796 7.533L19.338.098l5.864 40.028-13.697 7.519c-3.814 2.112-7.453.089-8.127-4.51L.112 19.698C-.562 15.1 1.983 9.646 5.796 7.533" mask="url(#prefix__aa)"/>
            </g>
            <path fill="#273087" d="M6.693 28.232l4.042 24.93-.63.077-1.72-.668c-1.884-.742-2.873-2.704-3.15-4.612L2.244 26.495l-.002-.019c-.395-2.782.441-5.679 1.972-8.003.823-1.253 1.906-2.401 3.237-3.123L33.846.86c1.311-.744 2.847-1.02 4.285-.478l1.515.592c.763.286.999.515.994.563C39.925 8.203 5.69 21.394 6.693 28.232" transform="rotate(2 180.29 280.725) translate(143.46 63.499)"/>
        </g>
        <g transform="rotate(2 180.29 280.725) translate(147.24 64.219)">
            <mask id="prefix__ad" fill="#fff">
                <use xlink:href="#prefix__ab"/>
            </mask>
            <path fill="url(#prefix__ac)" d="M31.799.822L5.404 15.312C1.912 17.25-.42 22.244.198 26.457l2.991 21.466c.617 4.213 3.95 6.067 7.444 4.131l26.396-14.49c3.493-1.937 5.815-6.926 5.198-11.14L39.235 4.958c-.347-2.367-1.548-3.99-3.153-4.616-.485-.189-1.006-.287-1.552-.287-.865 0-1.792.247-2.731.767" mask="url(#prefix__ad)"/>
        </g>
        <g transform="rotate(2 180.29 280.725) translate(87.84 87.439)">
            <mask id="prefix__ag" fill="#fff">
                <use xlink:href="#prefix__ae"/>
            </mask>
            <path fill="url(#prefix__af)" d="M11.025 23.264c4.681-3.733 7.48-11.485 6.253-17.321C16.052.109 11.264-1.6 6.583 2.133 1.904 5.863-.897 13.622.33 19.455c1.227 5.836 6.016 7.539 10.695 3.809" mask="url(#prefix__ag)"/>
            <path fill="#273087" d="M16.24 1.764C15.388.877 13.251.368 12.054.304 10.659.229 9.1.796 7.555 2.069c-4.056 3.342-6.483 10.294-5.42 15.52.316 1.553.884 2.795 1.68 3.648.742.796 3.131 1.801 4.234 1.89 6.61.92 10.692-18.755 8.19-21.363"/>
        </g>
        <g transform="rotate(2 180.29 280.725) translate(91.26 87.979)">
            <mask id="prefix__aj" fill="#fff">
                <use xlink:href="#prefix__ah"/>
            </mask>
            <path fill="url(#prefix__ai)" d="M5.746 1.936C1.69 5.28-.738 12.23.326 17.456c1.063 5.23 5.215 6.756 9.27 3.413 4.058-3.344 6.484-10.29 5.42-15.52C14.335 1.997 12.384.165 10 .165c-1.333 0-2.8.572-4.254 1.771" mask="url(#prefix__aj)"/>
        </g>
        <g>
            <path fill="#FFF" d="M1.11 0.008L0.007 0.798 7.989 8.457 10.989 0.57 9.517 1.415 7.553 4.206z" transform="rotate(2 180.29 280.725) translate(93.78 96.079)"/>
            <g transform="rotate(2 180.29 280.725) translate(93.78 96.079) translate(50.94 25.2)">
                <mask id="prefix__am" fill="#fff">
                    <use xlink:href="#prefix__ak"/>
                </mask>
                <path fill="url(#prefix__al)" d="M6.037 5.992L15.052.916C16.78-.04 18.471-.176 19.884.375c1.811.705 3.166 2.537 3.557 5.207l1.193 8.4c.696 4.753-1.924 10.382-5.864 12.566l-9.017 5.075c-3.94 2.183-7.7.092-8.397-4.66l-1.192-8.4C-.533 13.81 2.097 8.175 6.037 5.992" mask="url(#prefix__am)"/>
            </g>
            <path fill="#273087" d="M57.637 43.033l2.107 10.91-.63.076-1.72-.667c-1.884-.742-2.873-2.705-3.15-4.612l-1.056-7.445-.003-.018c-.395-2.782.441-5.68 1.972-8.004.823-1.253 1.906-2.4 3.237-3.122l7.994-4.499c1.31-.744 2.846-1.02 4.284-.478l1.515.592c.763.286 1 .517.994.563-.714 6.667-16.548 9.866-15.544 16.704" transform="rotate(2 180.29 280.725) translate(93.78 96.079)"/>
        </g>
        <g transform="rotate(2 180.29 280.725) translate(148.5 121.639)">
            <mask id="prefix__ap" fill="#fff">
                <use xlink:href="#prefix__an"/>
            </mask>
            <path fill="url(#prefix__ao)" d="M13.4.774l-7.992 4.5C1.916 7.209-.416 12.204.202 16.417l1.057 7.446c.617 4.213 3.95 6.066 7.443 4.131l7.993-4.499c3.493-1.936 5.816-6.926 5.198-11.139L20.836 4.91C20.489 2.543 19.288.92 17.682.294c-.484-.189-1.005-.286-1.55-.286-.866 0-1.793.246-2.732.766" mask="url(#prefix__ap)"/>
        </g>
        <g>
            <path fill="#FFF" d="M100.225 37.36c.264 1.796 1.684 2.574 3.153 1.76 1.057-.586 1.856-1.809 2.146-3.109l4.922.842c-.034.288-.011.566.03.854.04.269.096.528.202.731l-3.954 5.763c-.599-.802-1.61-1.028-2.666-.442-1.47.814-2.462 2.951-2.203 4.727.264 1.795 1.683 2.566 3.152 1.753 1.484-.823 2.487-2.938 2.224-4.733l-.031-.096 4.174-6.019c.587.483 1.403.54 2.26.065 1.485-.823 2.463-2.944 2.202-4.72-.262-1.795-1.667-2.582-3.152-1.76-.856.475-1.537 1.342-1.905 2.353l-5.176-.815-.002-.133c-.263-1.795-1.688-2.564-3.173-1.74-1.468.813-2.465 2.924-2.203 4.72m11.347-.261c-.155-1.055.434-2.316 1.306-2.8.867-.48 1.699-.006 1.853 1.049.154 1.048-.427 2.284-1.294 2.765-.872.483-1.712.034-1.865-1.014m-5.452 9.022c.155 1.054-.417 2.307-1.306 2.8-.872.483-1.699.006-1.853-1.049-.155-1.054.42-2.288 1.294-2.771.888-.492 1.711-.035 1.865 1.02m-4.789-9.374c-.153-1.049.422-2.282 1.294-2.765.889-.492 1.712-.035 1.865 1.013.155 1.056-.417 2.308-1.306 2.8-.873.484-1.698.007-1.853-1.048" transform="rotate(2 180.29 280.725) translate(52.2 96.979)"/>
            <g transform="rotate(2 180.29 280.725) translate(52.2 96.979) translate(20.16 .72)">
                <mask id="prefix__as" fill="#fff">
                    <use xlink:href="#prefix__aq"/>
                </mask>
                <path fill="url(#prefix__ar)" d="M.065 33.067L58.248.815c1.582-.876 3.131-1 4.425-.495 1.66.645 2.9 2.324 3.259 4.77l6.03 42.749c.638 4.354-1.762 9.51-5.371 11.51L12.345 89.418l-4.758-1.456L.065 33.067z" mask="url(#prefix__as)"/>
            </g>
            <path fill="#273087" d="M4.554 51.895l6.885 44.835-.63.076-1.719-.667c-1.884-.743-2.874-2.705-3.15-4.612L.105 50.158l-.003-.018c-.395-2.783.441-5.68 1.972-8.004.823-1.253 1.906-2.401 3.237-3.122L74.201.828C75.513.084 77.049-.193 78.487.35L80 .94c.763.287 1 .516.994.564C80.28 8.17 3.55 45.057 4.554 51.895" transform="rotate(2 180.29 280.725) translate(52.2 96.979)"/>
        </g>
        <g transform="rotate(2 180.29 280.725) translate(53.82 97.699)">
            <mask id="prefix__av" fill="#fff">
                <use xlink:href="#prefix__at"/>
            </mask>
            <path fill="url(#prefix__au)" d="M74.314.79L5.425 38.976C1.933 40.912-.399 45.906.22 50.119l5.835 41.37c.617 4.213 3.95 6.067 7.444 4.131l68.89-38.185c3.492-1.936 5.814-6.926 5.197-11.14L81.75 4.927C81.403 2.56 80.202.935 78.596.31c-.484-.189-1.005-.287-1.55-.287-.866 0-1.793.247-2.732.767" mask="url(#prefix__av)"/>
        </g>
        <g>
            <path fill="#F2F4FF" d="M1.29 161.872l70.709-39.226c.366-.202.725-.231 1.024-.114.384.15.671.538.754 1.104l.262 1.587c.148 1.007-.407 2.2-1.242 2.663L2.087 167.11c-.835.463-1.632.02-1.78-.987l-.261-1.588c-.149-1.007.409-2.2 1.244-2.663M2.712 171.587l70.709-39.225c.366-.203.724-.232 1.024-.115.383.15.67.538.753 1.104l.263 1.587c.147 1.007-.408 2.2-1.242 2.663l-70.71 39.225c-.835.462-1.632.02-1.78-.988l-.262-1.588c-.148-1.007.41-2.2 1.245-2.663M37.464 162.662l37.378-20.585c.366-.203.725-.232 1.024-.115.384.15.671.538.754 1.104l.263 1.587c.147 1.007-.408 2.2-1.243 2.663l-37.378 20.585c-.836.462-1.632.02-1.78-.988l-.262-1.588c-.148-1.007.41-2.2 1.244-2.663M29.495 128.152l-1.055-.58c.33-.916.736-1.795 1.222-2.618l1.049.583c.682-1.104 1.521-2.072 2.471-2.808l-.224-1.529c.338-.251.68-.47 1.038-.668.357-.198.708-.364 1.062-.495l.225 1.528c1.006-.35 1.982-.386 2.86-.148l.734-1.57c.636.2 1.224.528 1.747.97l-.738 1.575c.692.63 1.243 1.51 1.577 2.612l1.265-.702c.104.388.194.798.258 1.23.062.426.097.867.113 1.303l-1.265.701c.015 1.278-.214 2.592-.632 3.837l1.054.586c-.325.907-.736 1.789-1.222 2.612l-1.048-.584c-.683 1.105-1.522 2.073-2.471 2.815l.223 1.522c-.338.251-.68.477-1.037.675-.357.198-.708.357-1.064.489l-.223-1.522c-1.008.343-1.983.38-2.862.142l-.733 1.57c-.636-.2-1.219-.531-1.747-.965l.738-1.58c-.692-.63-1.244-1.51-1.577-2.612l-1.265.701c-.104-.387-.194-.798-.256-1.223-.063-.432-.099-.873-.115-1.31l1.265-.7c-.015-1.279.214-2.592.633-3.837m2.34 3.561c-.343-2.346.95-5.119 2.891-6.195 1.941-1.076 3.792-.046 4.135 2.3.344 2.347-.95 5.12-2.89 6.195-1.94 1.076-3.792.047-4.136-2.3m3.106-4.727c-1.27.705-2.116 2.518-1.89 4.054.223 1.528 1.433 2.201 2.703 1.498 1.27-.704 2.117-2.517 1.893-4.047-.225-1.535-1.436-2.208-2.706-1.505" transform="rotate(2 180.29 280.725) translate(61.38 .139)"/>
            <g transform="rotate(2 180.29 280.725) translate(61.38 .139) translate(41.94 14.94)">
                <mask id="prefix__ay" fill="#fff">
                    <use xlink:href="#prefix__aw"/>
                </mask>
                <path fill="url(#prefix__ax)" d="M5.611 25.165L50.806.113l7.554 49.779-45.338 25.13c-3.604 1.997-7.042.086-7.679-4.26L.242 36.659c-.638-4.345 1.767-9.496 5.37-11.493" mask="url(#prefix__ay)"/>
            </g>
            <g transform="rotate(2 180.29 280.725) translate(61.38 .139) translate(43.38)">
                <mask id="prefix__aA" fill="#fff">
                    <use xlink:href="#prefix__az"/>
                </mask>
                <path fill="#273087" d="M4.692 51.87l5.384 33.62-.63.076-1.719-.668c-1.884-.742-2.873-2.705-3.15-4.612L.244 50.133l-.003-.018c-.395-2.783.441-5.68 1.972-8.004.823-1.253 1.906-2.401 3.237-3.122L74.34.803c1.31-.744 2.847-1.02 4.285-.478l1.515.591c.763.287.999.516.994.564-.715 6.666-77.445 43.552-76.441 50.39" mask="url(#prefix__aA)"/>
            </g>
            <path fill="#FFF" d="M50.563 39.67l68.889-38.185c1.53-.848 3.03-.968 4.282-.48 1.606.625 2.807 2.25 3.154 4.616l4.334 30.154c.617 4.213-1.705 9.203-5.197 11.14L57.135 85.1c-3.493 1.935-6.827.082-7.444-4.13l-4.334-30.156c-.618-4.213 1.714-9.207 5.206-11.143" transform="rotate(2 180.29 280.725) translate(61.38 .139)"/>
        </g>
        <g transform="rotate(2 180.29 280.725) translate(168.3 15.439)">
            <mask id="prefix__aD" fill="#fff">
                <use xlink:href="#prefix__aB"/>
            </mask>
            <path fill="url(#prefix__aC)" d="M7.913 1.527C2.797 4.734-.627 12.515.269 18.899c.896 6.39 5.77 8.967 10.886 5.76 5.12-3.211 8.539-10.989 7.643-17.379C18.164 2.76 15.538.146 12.24.146c-1.359 0-2.832.444-4.326 1.38" mask="url(#prefix__aD)"/>
        </g>
        <g>
            <path fill="#FFF" d="M180.932 0.069L182.507 11.627 172.648 12.443z" transform="rotate(2 180.29 280.725) translate(0 19.759)"/>
            <path fill="#6D6AFD" d="M114.096 37.483l48.667-27.195c.338-.186.668-.212.945-.105.353.138.619.496.695 1.019l.243 1.464c.135.93-.377 2.03-1.147 2.458l-48.667 27.194c-.77.427-1.506.018-1.642-.912l-.242-1.465c-.137-.929.378-2.031 1.148-2.458M115.262 46.485L163.93 19.29c.338-.186.669-.212.945-.105.354.138.619.496.695 1.018l.243 1.466c.136.928-.377 2.03-1.147 2.456L115.998 51.32c-.77.426-1.506.018-1.642-.911l-.242-1.466c-.137-.929.378-2.031 1.148-2.458M116.647 55.45l48.667-27.194c.338-.187.669-.213.945-.105.353.137.619.496.695 1.018l.243 1.465c.136.93-.377 2.03-1.147 2.457l-48.667 27.194c-.77.427-1.506.018-1.642-.911l-.242-1.465c-.137-.93.378-2.032 1.148-2.458" transform="rotate(2 180.29 280.725) translate(0 19.759)"/>
            <path fill="#44A7F7" d="M112.784 27.97L161.45.778c.338-.188.67-.213.946-.106.353.138.619.496.695 1.019l.242 1.464c.136.93-.376 2.03-1.146 2.458L113.52 32.806c-.771.427-1.506.018-1.642-.912l-.243-1.465c-.136-.93.378-2.031 1.149-2.458" transform="rotate(2 180.29 280.725) translate(0 19.759)"/>
            <path fill="#59CAAF" d="M3.065 240.967l32.414-18.46c3.533-1.615 8.59-2.9 12.19-1.027 3.28 1.707 8.684 5.201 11.073 6.564 1.815 1.035 8.115 4.81 4.191 6.943-11.542 6.276-22.965 13.335-34.686 19.71-2.217 1.207-5.46 1.643-8.864 1.36-3.39-.282-6.866-1.269-9.6-2.859-1.948-1.133-3.864-2.248-5.748-3.346-2.542-1.48-3.89-3.23-4.024-4.849-.13-1.581.886-3.046 3.054-4.036" transform="rotate(2 180.29 280.725) translate(0 19.759)"/>
            <path fill="#0960AC" d="M25.106 144.071c-.433-1.883-1.041-4.051-1.598-6.263-1.115-4.43-2.024-9.036-.912-11.89.473-1.215 1.304-1.805 2.243-2.56 2.436-1.956 2.07 3.297 5.89 2.844.607.813.419 2.644.22 4.395-.722 6.325-3.754 15.427-5.843 13.474" transform="rotate(2 180.29 280.725) translate(0 19.759)"/>
            <path fill="#FFA698" d="M49.404 123.624c-.433-1.337-1.984-.63-2.422-.116-.766.77-1.65 1.74-2.702 2.068-.726.226-2.486.553-3.23 3.066-.189.635.318.594.945 1.501 1.992-1.554 4.239-1.627 4.42-1.9 1.793-2.694.644-2.387 2.989-4.62" transform="rotate(2 180.29 280.725) translate(0 19.759)"/>
            <path fill="#FFA698" d="M43.348 132.56l-2.085 2.418-2.424-4.255c.348-.493.991-.569 1.274-1.119.155-.381.319-.74.494-1.056 1.097-1.976 1.85-2.295 5.744-2.827 1.135-.155 1.252-.35 1.973-.876l2.656-2.372c.87-.646 1.586-.823 1.926-.626.377.22 1.32 2.279 1.296 3.361v.005c.076.262-.088.642-.476 1.068-1.157 1.268-2.138 2.39-3.164 3.635-1.761 2.137-1.265 1.33-4.25 1.73-1.657.223-2.344.441-2.964.913" transform="rotate(2 180.29 280.725) translate(0 19.759)"/>
            <path fill="#FF9483" d="M52.38 125.315c-.1-.48-.786-2.788-1.026-2.856-.475-.134-1.115.655-1.72 1.253-.906.893-2.447 2.809-3.685 3.08-2.942.645-4.28 1.617-5.656 5.714l.756-.481c1.594-4.876 4.393-1.175 7.289-2.992 1.76-1.104 4.123-3.34 4.043-3.718" transform="rotate(2 180.29 280.725) translate(0 19.759)"/>
        </g>
        <g transform="rotate(2 180.29 280.725) translate(21.6 149.179)">
            <mask id="prefix__aG" fill="#fff">
                <use xlink:href="#prefix__aE"/>
            </mask>
            <path fill="url(#prefix__aF)" d="M16.932 1.17c-.437.349-1.43.525-2.111.795-1.811.72-6.734 4.23-9.876 6.856-1.65 1.38-3.548 2.83-4.24 4.259-1.1 2.266-.572 3.814.294 4.826 1.614 1.888 5.343 1.62 8.533-1.416 2.67-2.542 7.493-6.1 9.65-8.988.347-.465.526-1.667.877-2.11.471-.594.945-1.164 1.422-1.698-.77-1.558-2.034-3.223-3.122-3.647-.264.188-.951.746-1.427 1.124" mask="url(#prefix__aG)"/>
        </g>
        <g transform="rotate(2 180.29 280.725) translate(19.08 141.979)">
            <mask id="prefix__aJ" fill="#fff">
                <use xlink:href="#prefix__aH"/>
            </mask>
            <path fill="url(#prefix__aI)" d="M4.819.655c-3.017 1.555-3.173 6.803-3.587 9.66-.594 4.089-2.384 13.428.439 16.596 1.166 1.308 3.324 1.474 5.521-.518.143-.095.285-.196.427-.304l.168-.422c.258-.403.417-.82.484-1.244.277-.721.56-1.48.816-2.207.97-2.74 2.99-9.167 3.554-13.965.626-5.338-2.486-8.144-5.554-8.144-.78 0-1.556.182-2.268.548" mask="url(#prefix__aJ)"/>
        </g>
        <g>
            <path fill="#FFF" d="M3.2 13.806c.688-.015 3.013-2.2 5.215-1.097 2.644 1.325 7.665.151 10.198.76.451.108 1.334-.224 1.508.086.546.97 1.075 2.422-.268 3.372-.988.699-3.103 1.624-4.49 2.116-1.472.521-3.992 1.343-5.68 1.607-1.871.293-2.724.413-3.425.954-1 .504-2.034.72-2.611.628-1.234-.196-2.672-.918-3.33-2.324-.21-.45-.217-2.414.025-3.687.191-1.005.74-2.15 1.178-3.219l1.68.804z" transform="rotate(2 180.29 280.725) translate(14.4 245.659)"/>
            <path fill="#FFA495" d="M8.607 9.107c-.836 2.008-.58 5.115-2.562 6.194-1.325.721-3.4.728-4.304-1.331-.505-1.15.165-3.111.017-5.632l6.85.769z" transform="rotate(2 180.29 280.725) translate(14.4 245.659)"/>
            <path fill="#273087" d="M9.158 12.217c1.52.442 5.713.147 8.365.361 1.14.093 2.161.084 2.694 1.119.49.951.233 1.767-.877 2.552-.988.699-2.663 1.496-4.05 1.988-1.473.521-3.992 1.343-5.68 1.608-1.871.292-2.725.413-3.425.953-1 .504-2.035.72-2.612.628-1.233-.196-2.671-1.065-3.33-2.47-.21-.45-.216-2.267.027-3.541.046-.243.113-.494.194-.75.209-1.996.868-2.803 1.489-2.46.85.467 1.17 1.308 1.494 2 .275.585.684.953 1.156 1.102 1.017.32 1.944-.247 2.546-1.12.336-.583.535-1.288.697-2.021.004-.068.004-.136.003-.203.2-1.744 1.048-1.592.92-1.224-.12.338-.07 1.123.39 1.478" transform="rotate(2 180.29 280.725) translate(14.4 245.659)"/>
            <path fill="#FFF" d="M19.687 13.403c-.02.674 1.013.738.714 1.923.497-.487-.196-1.885-.503-2.098-.126-.087-.233-.123-.211.175" transform="rotate(2 180.29 280.725) translate(14.4 245.659)"/>
            <path fill="#FFF" d="M20.48 6.892c.641-.252 2.073-3.103 4.519-2.825.987.112 2.574-.145 4.185-.603 2.568-.73 6.147-3.026 6.757-2.65 1.33.818 1.437 2.311.504 3.665-.688.996-1.987 2.32-3.12 3.26-1.203.996-2.91 2.52-4.404 3.349-1.413.784-1.882.714-2.887 2.073-.766.818-1.663 1.304-2.236 1.415-1.468.288-3.6-.655-4.368-1.64-.489-1.579-1.335-3.074-.793-5.445l1.842-.6z" transform="rotate(2 180.29 280.725) translate(14.4 245.659)"/>
            <path fill="#FFA495" d="M23.872.163c-.04 2.175 1.342 4.97-.105 6.703-.967 1.157-2.894 1.926-4.493.344-.89-.883-.99-2.954-2.054-5.243L23.872.163z" transform="rotate(2 180.29 280.725) translate(14.4 245.659)"/>
            <path fill="#273087" d="M28.525 2.815c.146-.038.292-.078.44-.12 2.568-.73 6-2.5 6.61-2.124 1.33.819 1.584 1.785.65 3.139-.688.996-1.987 2.32-3.12 3.26-1.203.996-2.909 2.52-4.404 3.349-1.412.784-1.881.714-2.887 2.073-.766.817-1.663 1.304-2.236 1.416-1.468.286-3.665-.665-4.433-1.65-.363-1.176-.86-2.296-.9-3.773-.214-1.935-.081-2.919.76-2.894 1.566.045 2.212.87 2.858 1.274 1.393.868 2.326-.254 2.554-1.642.042-.582-.027-1.204-.128-1.835-.021-.064-.046-.128-.072-.19-.456-1.695.39-1.865.405-1.477.034.882.584 1.375 1.291 1.481.849.128 1.924-.228 2.612-.287" transform="rotate(2 180.29 280.725) translate(14.4 245.659)"/>
            <path fill="#FFF" d="M35.417.787c.273.618 1.232.23 1.473 1.428.24-.654-.989-1.616-1.357-1.676-.151-.024-.263-.01-.116.248" transform="rotate(2 180.29 280.725) translate(14.4 245.659)"/>
        </g>
        <g transform="rotate(2 180.29 280.725) translate(21.6 180.319)">
            <mask id="prefix__aM" fill="#fff">
                <use xlink:href="#prefix__aK"/>
            </mask>
            <path fill="url(#prefix__aL)" d="M2.541 17.02c2.006 6.296 4.407 15.379 4.917 18.9-1.244 3.223-1.5 9.182-.728 14.086.69 4.38 2.383 11.285 3.574 19.165 1.483 2.356 6.578.419 6.802-3.287-.015-8.82-.392-18.86.93-27.17.878-5.526-2.281-25.656-2.843-31.96L1.962.117c-4.245 7.295-.145 14.633.58 16.905" mask="url(#prefix__aM)"/>
        </g>
        <g>
            <path fill="#4C57B7" d="M12.149 55.238c.004.654-.02 1.65-.02 2.292-.223 3.707-5.382 5.716-6.865 3.362-.088-.581-.215-1.157-.308-1.726 1.995 2.149 5.904-.643 7.193-3.928" transform="rotate(2 180.29 280.725) translate(26.64 188.599)"/>
            <path fill="#060921" d="M13.131 26.684c-1.662 8.333-6.36 19.466-8.926 27.845C2.87 47.35-.472 35.123 2.418 27.64c-.29-2.005-1.195-5.814-2.29-9.885 2.224-4.216.099-7.58 1.149-13.518 5.887-1.026-2.998-8.211 9.46-.643 1.114 8.943 2.16 14.566 2.394 23.091" transform="rotate(2 180.29 280.725) translate(26.64 188.599)"/>
        </g>
        <g transform="rotate(2 180.29 280.725) translate(15.48 184.099)">
            <mask id="prefix__aP" fill="#fff">
                <use xlink:href="#prefix__aN"/>
            </mask>
            <path fill="url(#prefix__aO)" d="M13.938 17.527c-.866 5.089-1.99 14.493-2.886 17.975-1.152 1.512-4.35 6.607-5.217 8.725C3.002 51.146 1.407 63.314.05 71.203c-.012 2.337 6.136 2.598 7.86.092 3.333-9.436 9.599-24.519 12.995-32.207 6.363-14.404 10.446-21.34 9.85-37.973-3.691 2.085-11.832.914-14.465-.96-6.526 6.12-3.13 13.16-2.352 17.372" mask="url(#prefix__aP)"/>
        </g>
        <path fill="#4C57B7" d="M24.08 253.749c-.148.412-.443 1.245-.582 1.64-1.775 2.58-8.104 2.311-8.092-.096l.203-1.198c1.509 1.538 6.072 1.558 8.472-.346" transform="rotate(2 180.29 280.725)"/>
        <g transform="rotate(2 180.29 280.725) translate(20.52 141.799)">
            <mask id="prefix__aS" fill="#fff">
                <use xlink:href="#prefix__aQ"/>
            </mask>
            <path fill="url(#prefix__aR)" d="M1.471 22.667c.548 4.94-.938 9.8.575 14.31.068.467.11 2.296.19 2.793.997 5.843 13.357 11.756 23.665 6.15.057-.725-.009-1.482.048-2.824-.191-1.253.35-2.597.347-3.362-.015-3.18-1.005-4.805-.53-8.344.966-7.199 4.954-14.118 2.748-19.782-.474-1.215-1.304-1.804-2.243-2.56C23.835 7.092 11.235.677 7.415.224c-.411-.054-.802-.08-1.172-.08C-3.343.142.9 17.505 1.471 22.667" mask="url(#prefix__aS)"/>
        </g>
        <path fill="#E7A376" d="M43.51 141.97c-.7.347-4.26-.157-4.155.162.05 1.592.525 2.559.679 4.74-3.914-.547-9.048-1.112-9.252-4.114.016-.24.03-.48.04-.716.005-.028.008-.055.014-.083l-.01-.001c.04-1.091-.012-2.08-.316-2.571-.828-1.34-2.531-2.833-3.135-4.864-.964-3.247-.613-6.854 2.414-9.257 5.528-4.39 12.597-1.267 14.388 5.154.35 1.254-.64 1.933-.604 3.005.006.21.284.428.51.893.311.644.287 7.227-.573 7.652" transform="rotate(2 180.29 280.725)"/>
        <g transform="rotate(2 180.29 280.725) translate(26.82 123.079)">
            <mask id="prefix__aV" fill="#fff">
                <use xlink:href="#prefix__aT"/>
            </mask>
            <path fill="url(#prefix__aU)" d="M2.969 2.187C-.058 4.591-.41 8.197.555 11.444c.604 2.031 2.306 3.524 3.135 4.864.22.356.188 3.052.205 3.777.916 3.45 7.045 4.266 9.318 3.708-.153-2.18-.627-3.148-.678-4.74-.052-.157.772-.123 1.706-.09.969.035 2.056.07 2.413-.108.86-.425.92-6.971.609-7.615-.226-.465-.504-.684-.51-.894-.035-1.072.953-1.751.604-3.005C16.14 2.982 12.492.143 8.544.143c-1.867 0-3.8.635-5.575 2.044" mask="url(#prefix__aV)"/>
        </g>
        <g transform="rotate(2 180.29 280.725) translate(26.82 123.079)">
            <mask id="prefix__aY" fill="#fff">
                <use xlink:href="#prefix__aW"/>
            </mask>
            <path fill="url(#prefix__aX)" d="M2.969 2.187C-.058 4.591-.41 8.197.555 11.444c.604 2.031 2.307 3.524 3.135 4.864.23.371 2.308-.629 4.379-1.628 2.529-1.221 5.046-2.442 4.172-1.166-1.631 2.38-.579 3.874-.104 4.066.112.045.633.663 1.355.94 1.144.44 2.681.571 3.053.372.845-.454 1.029-7.008.718-7.652-.226-.465-.504-.684-.51-.894-.035-1.072.953-1.751.604-3.005C16.14 2.982 12.492.143 8.544.143c-1.867 0-3.8.635-5.575 2.044" mask="url(#prefix__aY)"/>
        </g>
        <g>
            <path fill="#FFA698" d="M12.764 14.484c-1.98-1.847-3.892 4.026-.705 3.964-1.244-1.316-.3-3.4.705-3.964" transform="rotate(2 180.29 280.725) translate(26.64 122.179)"/>
            <path fill="#FFB49C" d="M12.754 15.341c.298-.82.047-1.12-.315-1.03-.396.097-.96.667-1.253 1.518-.474 1.372.204 3.106 1.53 2.429-1.14.066-1.033-1.308-.691-2.156.231-.576.591-.984.73-.76" transform="rotate(2 180.29 280.725) translate(26.64 122.179)"/>
            <path fill="#FFA698" d="M12.23 15.713c.319.594.43.946.327 1.15-.071.142-.291.304-.651-.044-.01-.412.134-.793.324-1.106" transform="rotate(2 180.29 280.725) translate(26.64 122.179)"/>
            <path fill="#562E65" d="M14.725 6.74l.076-.04c2.661-1.419 2.243-4.354 1.119-5.352-2.171-1.926-8.062-1.725-11.797.199C.321 3.504-.61 8.377.526 12.205c.757 2.547 2.597 3.878 3.517 5.808.507.654 1.354 1.058 2.341.854 2.637-.545 3.246-3.326 4.83-4.55.869-.671 1.762-.85 2.089.981.063.807.074 1.624.133 2.365.093 1.165-.198 1.382.789 1.782.946.383 2.79.759 3.105.635.246-.096.23-1.55.185-2.637-.1-.008-.104.373-.155.365-.097-.014-.214-.038-.354-.051.006-.583.03-.88.157-1.32.123-.424.178-.732.434-.99.1-.099.097-.686.053-.853-.554.346-.925.898-1.127 1.59-.136.471-.22.833-.293 1.445-.565-.108-1.133-.192-1.35-.442-.555-.642-.654-1.448-.854-2.704-.047-2.21.05-2.538 1.2-4.178.317-.453.333-1.38-.454-3.447-.018-.04-.034-.079-.047-.117" transform="rotate(2 180.29 280.725) translate(26.64 122.179)"/>
        </g>
        <g transform="rotate(2 180.29 280.725) translate(33.48 121.459)">
            <mask id="prefix__bb" fill="#fff">
                <use xlink:href="#prefix__aZ"/>
            </mask>
            <path fill="url(#prefix__ba)" d="M3.232.836C1.751 1.789 1.141 2.48.085 5.738c2.42-.446 4.502-.1 6.091.246 1.648.36 2.765.718 3.183.195.66-.827 1.052-2.726.074-4.366C8.798.746 7.298.148 5.79.148c-.913 0-1.83.22-2.558.688" mask="url(#prefix__bb)"/>
        </g>
        <g>
            <path fill="#0AB7E4" d="M2.033.06C.964.39-.111 1.447.083 2.152c1.065 4.347 9.143 5.17 14.098 4.124.06-.012-1.928-2.617-2.876-2.925-3.119.305-8.31-.725-9.272-3.291" transform="rotate(2 180.29 280.725) translate(28.62 142.159)"/>
            <path fill="#0960AC" d="M17.945 34.955c.366-8.738 1.96-18.317 2.169-21.372.089-1.302-.412-2.189-.94-3.271-.517-1.057-6.921-1.042-8.61 3.95-.686 13.146 4.06 21.677 7.381 20.693" transform="rotate(2 180.29 280.725) translate(28.62 142.159)"/>
            <path fill="#FFA698" d="M41.734 26.7l-2.815 1.507-.733-4.842c.502-.335 1.13-.174 1.591-.585.282-.301.564-.577.841-.81 1.734-1.448 2.552-1.475 6.377-.572 1.115.264 1.293.124 2.155-.108l3.332-1.26c1.045-.29 1.775-.197 2.021.11.274.34.414 2.6.002 3.602l-.002.004c-.023.273-.312.567-.828.826-1.535.767-2.855 1.462-4.259 2.255-2.412 1.36-1.659.785-4.588.086-1.626-.387-2.346-.431-3.094-.213" transform="rotate(2 180.29 280.725) translate(28.62 142.159)"/>
            <path fill="#FF9483" d="M52.767 23.186c.078-.484.137-2.337-.063-2.487-.395-.295-1.328.35-2.109.69-1.218.53-2.148.402-2.57.206-1.442 1.042-5.521-.394-9.123 3.957l1.1.386c1.236-.328 4.382.43 7.738-.225 2.04-.398 4.965-2.144 5.027-2.527" transform="rotate(2 180.29 280.725) translate(28.62 142.159)"/>
            <path fill="#FFA698" d="M50.93 24.3c.235-1.384-1.467-1.475-2.094-1.222-1.035.329-2.268.78-3.351.584-.749-.136-2.46-.66-4.283 1.224-.46.475.008.674.144 1.767 2.485-.456 4.51.519 4.799.36 2.834-1.558 1.674-1.818 4.785-2.712" transform="rotate(2 180.29 280.725) translate(28.62 142.159)"/>
        </g>
        <g transform="rotate(2 180.29 280.725) translate(39.6 150.439)">
            <mask id="prefix__be" fill="#fff">
                <use xlink:href="#prefix__bc"/>
            </mask>
            <path fill="url(#prefix__bd)" d="M.278 8.642c.939 4.74 3.46 10.988 4.642 13.643.313.703.655 1.438.988 2.136.1.416.29.82.58 1.201l.2.408c.15.097.3.186.45.27.666.558 1.599 1.038 2.835 1.389 1.796.03 3.04-.563 4.583-1.202 3.405-1.412 9.184-2.998 12.235-4.918.491-.31 1.09-1.368 1.577-1.654.653-.385 1.3-.747 1.938-1.073-.159-1.73-.74-3.739-1.603-4.526-.314.08-1.155.354-1.735.536-.343.107-.874.066-1.404.025-.295-.023-.59-.045-.852-.043-2.752.03-7.66 1.534-11.213 2.77-.474-2.35-1.106-5.249-1.685-7.802-.638-2.815-1.206-8.035-4.337-9.347C6.863.197 6.215.072 5.567.072 2.37.072-.811 3.144.278 8.642" mask="url(#prefix__be)"/>
        </g>
    </g>
</svg>
