<svg xmlns="http://www.w3.org/2000/svg" width="124" height="124" viewBox="0 0 124 124">
    <defs>
        <style>
            .cls-1{fill:#757a8a}.cls-2{fill:none;stroke:#000;stroke-miterlimit:10}
        </style>
    </defs>
    <g id="icon_warning" transform="translate(-845 -547.35)">
        <g id="그룹_275">
            <rect id="사각형_200" width="72" height="16" class="cls-1" rx="3" transform="translate(871 637.35)"/>
            <path id="패스_224" fill="#3599ff" d="M907 583.35a30 30 0 0 0-30 30v20h60v-20a30 30 0 0 0-30-30zm24 31.5a1.5 1.5 0 0 1-1.5-1.5 22.526 22.526 0 0 0-22.5-22.5 1.5 1.5 0 0 1 0-3 25.529 25.529 0 0 1 25.5 25.5 1.5 1.5 0 0 1-1.5 1.5z"/>
            <rect id="사각형_202" width="8" height="18" class="cls-1" rx="4" transform="translate(903 557.35)"/>
            <rect id="사각형_203" width="8" height="18" class="cls-1" rx="4" transform="rotate(-45 1128.281 -759.342)"/>
            <rect id="사각형_204" width="8" height="18" class="cls-1" rx="4" transform="matrix(0 -1 1 0 853 613.35)"/>
            <rect id="사각형_205" width="8" height="18" class="cls-1" rx="4" transform="rotate(45 -217.281 1420.692)"/>
            <rect id="사각형_206" width="8" height="18" class="cls-1" rx="4" transform="rotate(90 177.825 783.175)"/>
        </g>
        <path id="사각형_91" fill="none" d="M0 0H124V124H0z" transform="translate(845 547.35)"/>
    </g>
</svg>
