<svg xmlns="http://www.w3.org/2000/svg" width="124" height="124" viewBox="0 0 124 124">
    <g>
        <path fill="none" d="M0 0H124V124H0z" transform="translate(-211.881 -2721.882) translate(211.881 2721.882)"/>
        <path fill="#757a8a" d="M117.524 436.919v37.827a5.739 5.739 0 0 1-5.713 5.754H71.264v-8.236c0-6.431-4.823-6.834-8.139-4.824-3.954 2.4-9.158 1.6-11.636-2.3a10.67 10.67 0 0 1-1.664-5.739 10.673 10.673 0 0 1 1.664-5.739c2.478-3.9 7.682-4.7 11.636-2.3 3.316 2.009 8.139 1.607 8.139-4.824v-12.264H58.998c-6.432 0-6.834-4.824-4.824-8.14 2.4-3.954 1.6-9.157-2.3-11.635a10.673 10.673 0 0 0-5.739-1.664 10.667 10.667 0 0 0-5.738 1.664c-3.9 2.478-4.7 7.681-2.3 11.635 2.01 3.316 1.608 8.14-4.823 8.14H21.006v42.22a8.039 8.039 0 0 0 8.039 8.039h42.219v-.01h40.547a9.766 9.766 0 0 0 9.734-9.775V432.7s.061 3.125-4.021 4.219z" transform="translate(-211.881 -2721.882) translate(202.598 2349.613)"/>
        <path fill="#3599ff" d="M97.071 426.222v-34.183A8.038 8.038 0 0 0 89.032 384H46.81v12.267c0 6.432 4.823 6.834 8.139 4.823 3.954-2.4 9.157-1.6 11.636 2.3a10.666 10.666 0 0 1 1.664 5.738 10.672 10.672 0 0 1-1.664 5.739c-2.479 3.9-7.682 4.7-11.636 2.3-3.316-2.01-8.139-1.607-8.139 4.824v12.264h12.266c6.432 0 6.834 4.824 4.824 8.14-2.4 3.953-1.6 9.157 2.3 11.635a10.672 10.672 0 0 0 5.739 1.664 10.666 10.666 0 0 0 5.738-1.664c3.9-2.478 4.7-7.682 2.3-11.635-2.01-3.316-1.608-8.14 4.823-8.14h4.228a7.981 7.981 0 0 0 4.04-1.1 8.8 8.8 0 0 0 4.021-6.943z" transform="translate(-211.881 -2721.882) translate(227.073 2349.613)"/>
    </g>
</svg>
