<svg xmlns="http://www.w3.org/2000/svg" width="124.148" height="124" viewBox="0 0 124.148 124">
    <defs>
        <style>
            .cls-1{fill:#767a88}
        </style>
    </defs>
    <g id="icon_warning" transform="translate(-946.197 -126.033)">
        <g id="icon_warning-2">
            <g id="그룹_275">
                <rect id="사각형_200" width="62.772" height="13.949" class="cls-1" rx="2.616" transform="translate(947.889 225.277)"/>
                <path id="패스_224" d="M979.275 178.2a26.155 26.155 0 0 0-26.155 26.155v17.435h52.31v-17.437a26.155 26.155 0 0 0-26.155-26.153zm20.924 27.463a1.307 1.307 0 0 1-1.307-1.308 19.639 19.639 0 0 0-19.617-19.616 1.308 1.308 0 0 1 0-2.616 22.258 22.258 0 0 1 22.232 22.232 1.307 1.307 0 0 1-1.307 1.306z" class="cls-1"/>
                <path id="사각형_202" d="M979.275 155.53a3.488 3.488 0 0 1 3.488 3.488v8.718a3.488 3.488 0 0 1-3.488 3.487 3.487 3.487 0 0 1-3.487-3.487v-8.718a3.488 3.488 0 0 1 3.487-3.488z" class="cls-1"/>
                <path id="사각형_203" d="M947.218 168.809a3.487 3.487 0 0 1 4.932 0l6.165 6.165a3.487 3.487 0 0 1 0 4.932 3.487 3.487 0 0 1-4.932 0l-6.165-6.165a3.487 3.487 0 0 1 0-4.932z" class="cls-1"/>
                <path id="사각형_205" d="M1011.332 168.809a3.487 3.487 0 0 1 0 4.932l-6.165 6.165a3.488 3.488 0 0 1-4.931 0 3.487 3.487 0 0 1 0-4.932l6.164-6.165a3.487 3.487 0 0 1 4.932 0z" class="cls-1"/>
            </g>
            <path id="사각형_91" fill="none" d="M0 0H124V124H0z" transform="translate(946.344 126.033)"/>
        </g>
        <path id="패스_259" fill="#5697f7" d="M1044.491 145.76a25.809 25.809 0 0 0-21.967 39.357l-2.668 9.376 8.763-2.58a25.807 25.807 0 1 0 15.872-46.153zm15.44 33.042a2.2 2.2 0 0 1-2.2 2.195h-26.49a2.195 2.195 0 0 1-2.194-2.195v-13.064l14.411 11.169a2.2 2.2 0 0 0 2.707-.014l13.761-10.9zm0-16.728l-13.789 10.918a2.192 2.192 0 0 1-2.706.014l-14.174-10.984h30.669z"/>
    </g>
</svg>
