<svg xmlns="http://www.w3.org/2000/svg" width="124" height="124" viewBox="0 0 124 124">
    <g>
        <path fill="none" d="M0 0H124V124H0z" transform="translate(-1168 -1351.35) translate(1168 1351.35)"/>
        <path fill="#3599ff" d="M1267 1361.35a8.993 8.993 0 0 0-7.975 13.162l-11.171 10.74a8.972 8.972 0 0 0-12.794 1.812l-8.512-5.32a8.995 8.995 0 1 0-17.155 2.149l-10.485 9.678a9.026 9.026 0 1 0 2.733 4.281l10.929-10.088a8.977 8.977 0 0 0 11.835-1.462l8.951 5.594c-.007.151-.023.3-.023.454a9 9 0 1 0 17.476-3l11.672-11.224a9 9 0 1 0 4.519-16.776z" transform="translate(-1168 -1351.35)"/>
        <path fill="#757a8a" d="M1276.99 1461.33h-.99v-62.97a3.01 3.01 0 0 0-3.01-3.01h-11.98a3.01 3.01 0 0 0-3.01 3.01v62.97h-6.667v-46.97a3.009 3.009 0 0 0-3.01-3.01h-11.98a3.01 3.01 0 0 0-3.01 3.01v46.97h-6.666v-22.97a3.01 3.01 0 0 0-3.01-3.01h-11.98a3.009 3.009 0 0 0-3.01 3.01v22.97H1202v-34.97a3.01 3.01 0 0 0-3.01-3.01h-11.98a3.01 3.01 0 0 0-3.01 3.01v34.97h-.99a3.01 3.01 0 0 0 0 6.02h93.98a3.01 3.01 0 0 0 0-6.02z" transform="translate(-1168 -1351.35)"/>
    </g>
</svg>
