<svg xmlns="http://www.w3.org/2000/svg" width="124" height="124" viewBox="0 0 124 124">
    <defs>
        <clipPath id="clip-path">
            <path id="사각형_91" d="M0 0H124V124H0z" class="cls-1" transform="translate(632 547.35)"/>
        </clipPath>
        <style>
            .cls-1{fill:none}.cls-3{fill:#757a8a}
        </style>
    </defs>
    <g id="icon_cctv" transform="translate(-632 -547.35)">
        <g id="마스크_그룹_59" clip-path="url(#clip-path)">
            <path id="사각형_191" d="M2.187 0h2.165a6.561 6.561 0 0 1 6.561 6.561v17.433a6.561 6.561 0 0 1-6.561 6.561H2.187A2.187 2.187 0 0 1 0 28.368V2.187A2.187 2.187 0 0 1 2.187 0z" class="cls-3" transform="translate(652.083 609.62)"/>
            <g id="그룹_270" transform="rotate(-14.98 687.93 590.392)">
                <path id="패스_213" d="M728.418 588.619l-1.018 2.8a4.182 4.182 0 0 1-3.9 2.752l-1.753.014-3.9 10.72 7.224 3.862a1.819 1.819 0 0 0 2.567-.982l5.817-15.982a1.819 1.819 0 0 0-1.335-2.4z" class="cls-3"/>
                <path id="패스_214" d="M683.433 591.6l-29.77-10.835a2 2 0 0 1-1.2-2.565l7.838-21.534a2 2 0 0 1 2.564-1.2l64.6 23.514a2 2 0 0 1 1.2 2.564l-3.319 9.12a2 2 0 0 1-1.865 1.316l-36.237.274a10.9 10.9 0 0 1-3.811-.654z" class="cls-3"/>
                <path id="패스_215" d="M684.534 594.324l-29.4-10.7-2.115 5.811a1.818 1.818 0 0 0 1.087 2.331l56.742 20.652a1.818 1.818 0 0 0 2.331-1.087l6.286-17.271z" class="cls-3"/>
            </g>
            <path id="패스_216" d="M683.184 604.672v9.313a6.372 6.372 0 0 1-6.365 6.365h-11.64v9.094h11.64a15.477 15.477 0 0 0 15.459-15.459v-8.426z" class="cls-3"/>
            <path id="사각형_91-2" d="M0 0H124V124H0z" class="cls-1" transform="translate(632 547.35)"/>
            <circle id="타원_17" cx="24.445" cy="24.445" r="24.445" fill="#3599ff" transform="rotate(-9.217 4186.553 -4002.892)"/>
            <g id="그룹_271">
                <path id="패스_217" fill="#fff" d="M720.9 650.425a1.5 1.5 0 0 1-1.06-.44l-8.9-8.9a1.5 1.5 0 0 1 2.122-2.121l7.838 7.836 14.514-14.514a1.5 1.5 0 0 1 2.121 2.121l-15.574 15.575a1.5 1.5 0 0 1-1.061.443z"/>
            </g>
        </g>
    </g>
</svg>
