<svg xmlns="http://www.w3.org/2000/svg" width="192" height="192" viewBox="0 0 192 192">
    <defs>
        <filter id="v7feoqli5a" width="192" height="192" x="0" y="0" filterUnits="userSpaceOnUse">
            <feOffset dy="3"/>
            <feGaussianBlur result="blur" stdDeviation="12"/>
            <feFlood flood-opacity=".161"/>
            <feComposite in2="blur" operator="in"/>
            <feComposite in="SourceGraphic"/>
        </filter>
    </defs>
    <g filter="url(#v7feoqli5a)">
        <path fill="rgba(255,255,255,0.8)" d="M5363-2961a59.623 59.623 0 0 1-23.354-4.715 60 60 0 0 1-10.192-5.532 60.426 60.426 0 0 1-8.879-7.326 60.477 60.477 0 0 1-7.327-8.88 60.025 60.025 0 0 1-5.532-10.192A59.63 59.63 0 0 1 5303-3021a59.632 59.632 0 0 1 4.715-23.355 60.036 60.036 0 0 1 5.532-10.192 60.427 60.427 0 0 1 7.327-8.88 60.408 60.408 0 0 1 8.879-7.326 59.985 59.985 0 0 1 10.192-5.532A59.623 59.623 0 0 1 5363-3081a59.627 59.627 0 0 1 23.355 4.715 59.991 59.991 0 0 1 10.192 5.532 60.391 60.391 0 0 1 8.88 7.326 60.411 60.411 0 0 1 7.327 8.88 59.97 59.97 0 0 1 5.532 10.192A59.622 59.622 0 0 1 5423-3021a59.619 59.619 0 0 1-4.715 23.355 60 60 0 0 1-5.532 10.192 60.429 60.429 0 0 1-7.327 8.88 60.383 60.383 0 0 1-8.88 7.326 59.968 59.968 0 0 1-10.192 5.532A59.629 59.629 0 0 1 5363-2961zm-5-86a2.971 2.971 0 0 0-1.873.657 2.98 2.98 0 0 0-1.108 2.01 2.982 2.982 0 0 0 .639 2.206l16.94 21.173-16.94 21.174a3.005 3.005 0 0 0 .469 4.217 2.967 2.967 0 0 0 1.872.657 2.987 2.987 0 0 0 2.345-1.125l19.937-24.923-19.937-24.921A2.987 2.987 0 0 0 5358-3047z" transform="translate(-5267 3114)"/>
    </g>
</svg>
