<svg xmlns="http://www.w3.org/2000/svg" width="192.001" height="192.001" viewBox="0 0 192.001 192.001">
    <defs>
        <filter id="d44ynun3ka" width="192.001" height="192.001" x="0" y="0" filterUnits="userSpaceOnUse">
            <feOffset dy="3"/>
            <feGaussianBlur result="blur" stdDeviation="12"/>
            <feFlood flood-opacity=".161"/>
            <feComposite in2="blur" operator="in"/>
            <feComposite in="SourceGraphic"/>
        </filter>
    </defs>
    <g filter="url(#d44ynun3ka)">
        <path fill="rgba(255,255,255,0.8)" d="M60 120a59.72 59.72 0 0 1-33.547-10.247 60.175 60.175 0 0 1-21.738-26.4 59.921 59.921 0 0 1 5.532-56.9 60.176 60.176 0 0 1 26.4-21.738 59.921 59.921 0 0 1 56.9 5.532 60.176 60.176 0 0 1 21.738 26.4 59.921 59.921 0 0 1-5.532 56.9 60.176 60.176 0 0 1-26.4 21.738A59.624 59.624 0 0 1 60 120zm-5-86.1a3 3 0 0 0-2.341 4.873L69.6 59.953 52.657 81.126a3 3 0 0 0 4.685 3.748L77.28 59.953 57.343 35.031A2.991 2.991 0 0 0 55 33.9z" transform="rotate(180 78 76.5)"/>
    </g>
</svg>
