<svg xmlns="http://www.w3.org/2000/svg" width="8" height="14" viewBox="0 0 8 14">
    <path data-name="사각형 2828" style="fill:none" d="M0 0h8v14H0z"/>
    <path data-name="패스 2460" d="m1654.456 523.232-6.4-6.4a1.126 1.126 0 0 0-.153-.135.532.532 0 0 0-.824.345.576.576 0 0 0 .2.535q2.835 2.832 5.668 5.666l.01.01.2.2.018.016.1.1-.127.134-5.838 5.838a1.688 1.688 0 0 0-.139.149.531.531 0 0 0 .277.841.575.575 0 0 0 .6-.2q3.2-3.206 6.408-6.41a.488.488 0 0 0 0-.689z" transform="translate(-1647.036 -516.603)" style="fill:#fff"/>
    <path data-name="패스 2461" d="m1654.456 523.232-6.4-6.4a1.126 1.126 0 0 0-.153-.135.532.532 0 0 0-.824.345.576.576 0 0 0 .2.535q2.835 2.832 5.668 5.666l.01.01.2.2.018.016.1.1-.127.134-5.838 5.838a1.688 1.688 0 0 0-.139.149.531.531 0 0 0 .277.841.575.575 0 0 0 .6-.2q3.2-3.206 6.408-6.41a.488.488 0 0 0 0-.689z" transform="translate(-1646.988 -516.603)" style="fill:#050505"/>
</svg>
