<svg xmlns="http://www.w3.org/2000/svg" width="20" height="36" viewBox="0 0 20 36">
    <path data-name="사각형 2828" style="fill:none" d="M0 0h20v36H0z"/>
    <path data-name="패스 2460" d="M19.49 18.944q-8.2 8.2-16.4 16.395a2.9 2.9 0 0 1-.391.346 1.364 1.364 0 0 1-2.112-.883 1.475 1.475 0 0 1 .515-1.37q7.267-7.253 14.525-14.516l.025-.025.512-.512c.014-.014.03-.027.045-.04l.267-.264-.325-.343L1.195 2.771a4.338 4.338 0 0 1-.357-.382A1.36 1.36 0 0 1 1.544.235a1.472 1.472 0 0 1 1.529.521q8.204 8.215 16.417 16.423a1.249 1.249 0 0 1 0 1.765z"/>
</svg>
