<svg xmlns="http://www.w3.org/2000/svg" width="12" height="7" viewBox="0 0 12 7">
    <g data-name="그룹 3467">
        <path data-name="사각형 2828" transform="rotate(90 6 6)" style="fill:none" d="M0 0h7v12H0z"/>
        <path data-name="패스 2460" d="m1647.178 522.051 5.26-5.259a.9.9 0 0 1 .125-.111.437.437 0 0 1 .677.283.473.473 0 0 1-.165.439q-2.33 2.327-4.658 4.657l-.008.008-.164.164-.015.013-.085.085.1.11 4.8 4.8a1.361 1.361 0 0 1 .115.122.436.436 0 0 1-.228.691.472.472 0 0 1-.489-.167q-2.632-2.635-5.266-5.268a.4.4 0 0 1 .001-.567z" transform="rotate(90 1087.372 -558.904)" style="fill:#fff"/>
        <path data-name="패스 2461" d="m1647.178 522.051 5.26-5.259a.9.9 0 0 1 .125-.111.437.437 0 0 1 .677.283.473.473 0 0 1-.165.439q-2.33 2.327-4.658 4.657l-.008.008-.164.164-.015.013-.085.085.1.11 4.8 4.8a1.361 1.361 0 0 1 .115.122.436.436 0 0 1-.228.691.472.472 0 0 1-.489-.167q-2.632-2.635-5.266-5.268a.4.4 0 0 1 .001-.567z" transform="rotate(90 1087.391 -558.923)" style="fill:#151313"/>
    </g>
</svg>
