<svg xmlns="http://www.w3.org/2000/svg" width="20" height="36" viewBox="0 0 20 36">
    <path data-name="사각형 2828" style="fill:none" d="M0 0h20v36H0z"/>
    <g data-name="ico_arrow_left">
        <path data-name="패스 2460" d="M.51 18.944q8.2 8.2 16.4 16.395a2.894 2.894 0 0 0 .391.346 1.364 1.364 0 0 0 2.112-.883 1.475 1.475 0 0 0-.515-1.37q-7.267-7.253-14.525-14.516l-.029-.025-.509-.512c-.014-.014-.03-.027-.045-.04l-.267-.26.325-.343q7.48-7.477 14.957-14.957a4.338 4.338 0 0 0 .357-.382 1.36 1.36 0 0 0-.71-2.155 1.472 1.472 0 0 0-1.525.522Q8.722 8.971.51 17.179a1.249 1.249 0 0 0 0 1.765z"/>
    </g>
</svg>
