<svg data-name="그룹 3461" xmlns="http://www.w3.org/2000/svg" width="6" height="10" viewBox="0 0 6 10">
    <path data-name="사각형 2828" style="fill:none" d="M0 0h6v10H0z"/>
    <path data-name="패스 2460" d="m1652.312 521.31-4.545-4.544a.8.8 0 0 0-.108-.1.378.378 0 0 0-.586.245.409.409 0 0 0 .143.38q2.013 2.011 4.025 4.024l.007.007.142.142.013.011.074.073-.09.1-4.146 4.146a1.2 1.2 0 0 0-.1.106.377.377 0 0 0 .2.6.408.408 0 0 0 .423-.145q2.274-2.277 4.551-4.552a.346.346 0 0 0-.003-.493z" transform="translate(-1647.043 -516.603)" style="fill:#fff"/>
</svg>
