<svg id="ico_insta_32px" xmlns="http://www.w3.org/2000/svg" width="32" height="32" viewBox="0 0 32 32">
    <defs>
        <style>
            .cls-1{fill:#a9a9a9}
        </style>
    </defs>
    <path id="패스_4462" data-name="패스 4462" class="cls-1" d="M25.823 40.681a16 16 0 1 1 16-15.566 16 16 0 0 1-16 15.566zm-14.043-16A14.047 14.047 0 1 0 26.1 10.563a14.085 14.085 0 0 0-14.32 14.115z" transform="translate(-9.83 -8.681)"/>
    <path id="패스_4463" data-name="패스 4463" class="cls-1" d="M120.951 114.785c0 1.407-.039 2.82.006 4.227a5.679 5.679 0 0 1-4.43 5.609 6.7 6.7 0 0 1-1.556.213c-2.731.019-5.463.045-8.194 0a5.982 5.982 0 0 1-5.289-2.975 4.675 4.675 0 0 1-.7-2.485c-.006-3.066-.032-6.131.006-9.19a5.268 5.268 0 0 1 2.686-4.537 6.192 6.192 0 0 1 3.4-.955c2.667-.006 5.334-.032 8 .006a5.987 5.987 0 0 1 5.418 3.079 4.771 4.771 0 0 1 .652 2.433c-.005 1.522.001 3.052.001 4.575zm-18.675-.013v4.421a3.522 3.522 0 0 0 .387 1.678 4.493 4.493 0 0 0 4.191 2.465c2.667.039 5.34.019 8.007 0a5.477 5.477 0 0 0 1.369-.194 4.248 4.248 0 0 0 3.235-4.266c-.065-2.84-.013-5.68-.013-8.519a3.575 3.575 0 0 0-.42-1.768 4.54 4.54 0 0 0-4.172-2.4 326.17 326.17 0 0 0-7.975 0 5.752 5.752 0 0 0-1.582.258 4.168 4.168 0 0 0-3.035 4.156c.047 1.397.008 2.782.008 4.169z" transform="translate(-94.992 -98.571)"/>
    <path id="패스_4464" data-name="패스 4464" class="cls-1" d="M188.649 183a4.605 4.605 0 1 1-4.649 4.6 4.642 4.642 0 0 1 4.649-4.6zm0 1.476a3.13 3.13 0 1 0 3.212 3.142 3.175 3.175 0 0 0-3.212-3.143z" transform="translate(-172.772 -171.768)"/>
    <path id="패스_4465" data-name="패스 4465" class="cls-1" d="M325.771 161.9a1.027 1.027 0 0 1-.96 1.037 1.022 1.022 0 0 1-.064-2.042 1.023 1.023 0 0 1 1.024 1.005z" transform="translate(-303.626 -151.114)"/>
</svg>
