<svg id="ico_login_20px" xmlns="http://www.w3.org/2000/svg" width="20" height="20" viewBox="0 0 20 20">
    <defs>
        <style>
            .cls-2{fill:none;stroke:#000;stroke-miterlimit:10}
        </style>
    </defs>
    <path id="사각형_2826" data-name="사각형 2826" style="fill:none" d="M0 0h20v20H0z"/>
    <g id="그룹_14" data-name="그룹 14" transform="translate(-1713.299 -628.761)">
        <g id="그룹_12" data-name="그룹 12" transform="translate(1713.84 629.459)">
            <g id="그룹_11" data-name="그룹 11">
                <ellipse id="타원_1" data-name="타원 1" class="cls-2" cx="9.459" cy="9.349" rx="9.459" ry="9.349"/>
                <path id="패스_25" data-name="패스 25" d="M1723.291 629.466a9.376 9.376 0 0 0-9.43 9.321 9.259 9.259 0 0 0 3.686 7.379c0-.034-.006-.068-.006-.1a5.749 5.749 0 0 1 11.5 0c0 .035 0 .069-.006.1a9.259 9.259 0 0 0 3.686-7.379 9.375 9.375 0 0 0-9.43-9.321z" transform="translate(-1713.841 -629.466)" style="stroke-width:.997px;stroke:#000;stroke-miterlimit:10;fill:none"/>
            </g>
            <ellipse id="타원_2" data-name="타원 2" class="cls-2" cx="2.561" cy="2.531" rx="2.561" ry="2.531" transform="translate(6.859 5.326)"/>
        </g>
        <ellipse id="타원_3" data-name="타원 3" cx="3.116" cy="3.08" rx="3.116" ry="3.08" transform="translate(1725.955 629.363)" style="fill:#fff;stroke:#000;stroke-miterlimit:10"/>
        <g id="그룹_13" data-name="그룹 13" transform="translate(1727.416 630.806)">
            <path id="사각형_2824" data-name="사각형 2824" transform="translate(0 1.294)" d="M0 0h3.311v.686H0z"/>
            <path id="사각형_2825" data-name="사각형 2825" transform="rotate(90 1.001 1.001)" d="M0 0h3.273v.694H0z"/>
        </g>
    </g>
</svg>
