<svg xmlns="http://www.w3.org/2000/svg" width="156" height="42" viewBox="0 0 156 42">
    <path data-name="사각형 2859" style="fill:none" d="M0 0h156v42H0z"/>
    <g data-name="그룹 2899">
        <g data-name="그룹 2887">
            <g data-name="그룹 2886">
                <path data-name="패스 4421" d="M24.744 19.365a8.269 8.269 0 0 1 3.943-6.942 8.467 8.467 0 0 0-6.675-3.609c-2.808-.3-5.531 1.678-6.962 1.678-1.459 0-3.662-1.65-6.032-1.6a8.892 8.892 0 0 0-7.482 4.559c-3.235 5.6-.821 13.828 2.277 18.353 1.549 2.218 3.359 4.694 5.731 4.607 2.319-.1 3.187-1.478 5.987-1.478 2.771 0 3.584 1.478 6 1.422 2.49-.039 4.056-2.226 5.551-4.463a18.26 18.26 0 0 0 2.541-5.172 8 8 0 0 1-4.879-7.355z"/>
                <path data-name="패스 4422" d="M20.177 5.835A8.139 8.139 0 0 0 22.04 0a8.284 8.284 0 0 0-5.363 2.774 7.752 7.752 0 0 0-1.911 5.621 6.845 6.845 0 0 0 5.411-2.56z"/>
            </g>
        </g>
        <g data-name="그룹 2888">
            <path data-name="패스 4423" d="M58.211 36.094H54.97l-1.773-5.582h-6.175l-1.689 5.582h-3.156L48.29 17.1h3.774zm-5.547-7.923-1.6-4.955q-.257-.763-.961-3.581h-.053c-.191.807-.489 2-.905 3.581l-1.577 4.955z"/>
            <path data-name="패스 4424" d="M73.936 29.076a7.806 7.806 0 0 1-1.886 5.526 5.538 5.538 0 0 1-4.2 1.8 4.191 4.191 0 0 1-3.887-1.945h-.059v7.215h-3.041V26.906q0-2.2-.115-4.508h2.679l.169 2.17h.056a5.412 5.412 0 0 1 8.665-.537 7.543 7.543 0 0 1 1.619 5.045zm-3.1.112a5.647 5.647 0 0 0-.9-3.3 3.122 3.122 0 0 0-2.65-1.355 3.163 3.163 0 0 0-2.043.748 3.464 3.464 0 0 0-1.2 1.959 4.087 4.087 0 0 0-.143.927v2.285a3.667 3.667 0 0 0 .916 2.521 3.038 3.038 0 0 0 2.383 1.032 3.119 3.119 0 0 0 2.676-1.324 5.832 5.832 0 0 0 .961-3.489z"/>
            <path data-name="패스 4425" d="M89.689 29.076a7.8 7.8 0 0 1-1.889 5.526 5.528 5.528 0 0 1-4.2 1.8 4.2 4.2 0 0 1-3.89-1.945h-.053v7.215h-3.044V26.906q0-2.2-.112-4.508h2.676l.169 2.17h.059a5.412 5.412 0 0 1 8.665-.537 7.557 7.557 0 0 1 1.619 5.045zm-3.1.112a5.648 5.648 0 0 0-.9-3.3 3.114 3.114 0 0 0-2.648-1.355 3.165 3.165 0 0 0-2.046.748 3.494 3.494 0 0 0-1.2 1.959 4.033 4.033 0 0 0-.138.927v2.285a3.652 3.652 0 0 0 .913 2.521 3.032 3.032 0 0 0 2.381 1.032 3.12 3.12 0 0 0 2.679-1.324 5.852 5.852 0 0 0 .959-3.489z"/>
            <path data-name="패스 4426" d="M107.304 30.768a5.078 5.078 0 0 1-1.686 3.946 7.487 7.487 0 0 1-5.174 1.661 9.039 9.039 0 0 1-4.924-1.186l.705-2.535a8.336 8.336 0 0 0 4.4 1.214 4.164 4.164 0 0 0 2.678-.779 2.537 2.537 0 0 0 .956-2.074 2.641 2.641 0 0 0-.79-1.948 7.357 7.357 0 0 0-2.619-1.47q-4.992-1.859-4.989-5.444a4.817 4.817 0 0 1 1.748-3.839 6.893 6.893 0 0 1 4.652-1.5 9.2 9.2 0 0 1 4.309.9l-.762 2.482a7.45 7.45 0 0 0-3.634-.874 3.7 3.7 0 0 0-2.507.787 2.261 2.261 0 0 0-.762 1.723 2.327 2.327 0 0 0 .874 1.858 9.793 9.793 0 0 0 2.763 1.464 9.39 9.39 0 0 1 3.606 2.31 4.847 4.847 0 0 1 1.156 3.304z"/>
            <path data-name="패스 4427" d="M117.366 24.679h-3.356v6.65q0 2.538 1.776 2.538a5.52 5.52 0 0 0 1.355-.141l.082 2.31a6.94 6.94 0 0 1-2.367.337 3.644 3.644 0 0 1-2.819-1.1 5.4 5.4 0 0 1-1.015-3.693v-6.901h-2v-2.281h2v-2.51l2.988-.9v3.409h3.356z"/>
            <path data-name="패스 4428" d="M132.498 29.132a7.512 7.512 0 0 1-1.8 5.186 6.442 6.442 0 0 1-5.017 2.085 6.114 6.114 0 0 1-4.8-2 7.276 7.276 0 0 1-1.79-5.045 7.434 7.434 0 0 1 1.844-5.211 6.39 6.39 0 0 1 4.975-2.032 6.242 6.242 0 0 1 4.846 2 7.21 7.21 0 0 1 1.742 5.017zm-3.159.1a6.143 6.143 0 0 0-.815-3.249 3 3 0 0 0-2.732-1.641 3.038 3.038 0 0 0-2.788 1.641 6.258 6.258 0 0 0-.821 3.308 6.135 6.135 0 0 0 .821 3.246 3.108 3.108 0 0 0 5.495-.028 6.174 6.174 0 0 0 .84-3.279z"/>
            <path data-name="패스 4429" d="M142.391 25.074a5.25 5.25 0 0 0-.961-.084 2.884 2.884 0 0 0-2.482 1.211 4.588 4.588 0 0 0-.759 2.707v7.184h-3.041l.028-9.385q0-2.369-.115-4.312h2.65l.112 2.619h.081a4.713 4.713 0 0 1 1.523-2.17 3.682 3.682 0 0 1 2.2-.734 4.5 4.5 0 0 1 .765.059z"/>
            <path data-name="패스 4430" d="M156.001 28.598a7.39 7.39 0 0 1-.11 1.38h-9.132a3.982 3.982 0 0 0 1.324 3.1 4.54 4.54 0 0 0 2.988.953 10.074 10.074 0 0 0 3.69-.646l.478 2.114a11.43 11.43 0 0 1-4.593.846 6.646 6.646 0 0 1-5-1.875 6.929 6.929 0 0 1-1.816-5.028 7.845 7.845 0 0 1 1.689-5.157 5.834 5.834 0 0 1 4.789-2.2 5.1 5.1 0 0 1 4.483 2.2 7.383 7.383 0 0 1 1.21 4.313zm-2.9-.79a4.171 4.171 0 0 0-.59-2.338 2.666 2.666 0 0 0-2.428-1.27 2.89 2.89 0 0 0-2.423 1.242 4.537 4.537 0 0 0-.9 2.367z"/>
        </g>
        <g data-name="그룹 2890">
            <g data-name="그룹 2889">
                <path data-name="패스 4431" d="M51.653 5.413a4.679 4.679 0 0 1-1.509 3.792 5.99 5.99 0 0 1-3.971 1.178 18.775 18.775 0 0 1-2.192-.11v-9.18a16.071 16.071 0 0 1 2.577-.194 5.563 5.563 0 0 1 3.7 1.065 4.307 4.307 0 0 1 1.395 3.449zm-1.58.039a3.041 3.041 0 0 0-3.392-3.378 6.368 6.368 0 0 0-1.2.1v6.979a8.085 8.085 0 0 0 1.012.039 3.535 3.535 0 0 0 2.648-.953 3.823 3.823 0 0 0 .932-2.787z"/>
                <path data-name="패스 4432" d="M60.012 6.88a3.692 3.692 0 0 1-.885 2.546 3.162 3.162 0 0 1-2.465 1.026 3.008 3.008 0 0 1-2.364-.984 3.582 3.582 0 0 1-.874-2.479 3.643 3.643 0 0 1 .9-2.56 3.143 3.143 0 0 1 2.442-.995 3.078 3.078 0 0 1 2.383.981 3.558 3.558 0 0 1 .863 2.465zm-1.551.048a3.014 3.014 0 0 0-.4-1.6 1.474 1.474 0 0 0-1.341-.807 1.509 1.509 0 0 0-1.374.807 3.1 3.1 0 0 0-.4 1.625 3.039 3.039 0 0 0 .4 1.6 1.515 1.515 0 0 0 1.36.807 1.5 1.5 0 0 0 1.341-.821 3.013 3.013 0 0 0 .417-1.611z"/>
                <path data-name="패스 4433" d="M71.229 3.569 69.124 10.3h-1.372l-.871-2.923a21.712 21.712 0 0 1-.542-2.173h-.022a16.473 16.473 0 0 1-.542 2.173l-.928 2.923h-1.386l-1.979-6.731h1.537l.759 3.2q.278 1.138.458 2.161h.028q.164-.843.554-2.147l.956-3.213h1.217l.916 3.145c.219.764.4 1.5.537 2.215h.042a21.218 21.218 0 0 1 .458-2.215l.815-3.145z"/>
                <path data-name="패스 4434" d="M78.977 10.3h-1.5V6.447c0-1.189-.45-1.782-1.355-1.782a1.353 1.353 0 0 0-1.079.489 1.719 1.719 0 0 0-.416 1.152V10.3h-1.5V5.494q0-.885-.051-1.925h1.315l.067 1.054h.042a2.171 2.171 0 0 1 .776-.815 2.551 2.551 0 0 1 1.355-.374 2.147 2.147 0 0 1 1.566.607 2.958 2.958 0 0 1 .773 2.229z"/>
                <path data-name="패스 4435" d="M83.106 10.3h-1.492V.483h1.492z"/>
                <path data-name="패스 4436" d="M91.915 6.88a3.706 3.706 0 0 1-.885 2.546 3.162 3.162 0 0 1-2.465 1.026 3 3 0 0 1-2.361-.984 3.572 3.572 0 0 1-.88-2.479 3.644 3.644 0 0 1 .908-2.56 3.135 3.135 0 0 1 2.442-.995 3.076 3.076 0 0 1 2.381.981 3.559 3.559 0 0 1 .86 2.465zm-1.555.048a3.065 3.065 0 0 0-.4-1.6 1.543 1.543 0 0 0-2.712 0 3.075 3.075 0 0 0-.4 1.625 3.014 3.014 0 0 0 .4 1.6 1.525 1.525 0 0 0 2.7-.014 3.038 3.038 0 0 0 .412-1.611z"/>
                <path data-name="패스 4437" d="M99.155 10.3h-1.346l-.112-.776h-.042a2.309 2.309 0 0 1-1.965.928 2.036 2.036 0 0 1-1.537-.61 1.91 1.91 0 0 1-.528-1.369 2.086 2.086 0 0 1 1.034-1.883 5.332 5.332 0 0 1 2.9-.638v-.126q0-1.328-1.4-1.327a3.113 3.113 0 0 0-1.754.5l-.306-.981a4.286 4.286 0 0 1 2.31-.582q2.639 0 2.639 2.783v2.479a10.464 10.464 0 0 0 .107 1.602zm-1.554-2.313V6.95q-2.475-.042-2.473 1.355a1.008 1.008 0 0 0 .287.79 1.034 1.034 0 0 0 .731.264 1.509 1.509 0 0 0 .914-.312 1.29 1.29 0 0 0 .52-.8 1.453 1.453 0 0 0 .021-.26z"/>
                <path data-name="패스 4438" d="M107.655 10.3h-1.327l-.07-1.082h-.042a2.238 2.238 0 0 1-2.161 1.239 2.527 2.527 0 0 1-2.018-.956 3.72 3.72 0 0 1-.807-2.479 3.891 3.891 0 0 1 .874-2.642 2.672 2.672 0 0 1 2.077-.942 2.012 2.012 0 0 1 1.894.913h.031V.483h1.5v8q-.004.987.049 1.817zm-1.548-2.843V6.34a1.973 1.973 0 0 0-.045-.472 1.683 1.683 0 0 0-.54-.905 1.467 1.467 0 0 0-1-.368 1.54 1.54 0 0 0-1.315.663 2.861 2.861 0 0 0-.478 1.706 2.643 2.643 0 0 0 .458 1.619 1.54 1.54 0 0 0 1.31.663 1.437 1.437 0 0 0 1.178-.551 1.852 1.852 0 0 0 .432-1.238z"/>
                <path data-name="패스 4439" d="M120.442 6.88a3.679 3.679 0 0 1-.885 2.546 3.154 3.154 0 0 1-2.465 1.026 3.006 3.006 0 0 1-2.361-.984 3.584 3.584 0 0 1-.877-2.479 3.656 3.656 0 0 1 .905-2.56 3.149 3.149 0 0 1 2.445-.995 3.068 3.068 0 0 1 2.381.981 3.544 3.544 0 0 1 .857 2.465zm-1.546.048a3.015 3.015 0 0 0-.4-1.6 1.478 1.478 0 0 0-1.344-.807 1.5 1.5 0 0 0-1.372.807 3.1 3.1 0 0 0-.4 1.625 3.039 3.039 0 0 0 .4 1.6 1.512 1.512 0 0 0 1.362.805 1.5 1.5 0 0 0 1.341-.821 3.014 3.014 0 0 0 .417-1.609z"/>
                <path data-name="패스 4440" d="M128.492 10.3h-1.5V6.447c0-1.189-.45-1.782-1.355-1.782a1.355 1.355 0 0 0-1.082.489 1.746 1.746 0 0 0-.413 1.152V10.3h-1.5V5.494c0-.59-.017-1.231-.056-1.925h1.315l.067 1.054h.042a2.192 2.192 0 0 1 .776-.815 2.568 2.568 0 0 1 1.358-.374 2.145 2.145 0 0 1 1.563.607 2.949 2.949 0 0 1 .779 2.229z"/>
                <path data-name="패스 4441" d="M138.558 4.694h-1.644V7.96c0 .832.292 1.245.871 1.245a2.665 2.665 0 0 0 .669-.067l.037 1.135a3.406 3.406 0 0 1-1.164.166 1.789 1.789 0 0 1-1.383-.542 2.635 2.635 0 0 1-.5-1.81V4.694h-.984V3.568h.984v-1.23l1.467-.441v1.671h1.647z"/>
                <path data-name="패스 4442" d="M146.477 10.3h-1.5V6.475c0-1.209-.45-1.81-1.355-1.81a1.42 1.42 0 0 0-1.425 1.048 1.764 1.764 0 0 0-.073.54V10.3h-1.492V.483h1.492v4.056h.028a2.266 2.266 0 0 1 2.024-1.1 2.1 2.1 0 0 1 1.537.607 3.074 3.074 0 0 1 .762 2.257z"/>
                <path data-name="패스 4443" d="M154.645 6.616a3.585 3.585 0 0 1-.056.68h-4.486a1.955 1.955 0 0 0 .652 1.523 2.23 2.23 0 0 0 1.467.469 4.9 4.9 0 0 0 1.816-.32l.233 1.043a5.656 5.656 0 0 1-2.257.413 3.262 3.262 0 0 1-2.457-.919 3.4 3.4 0 0 1-.894-2.473 3.843 3.843 0 0 1 .832-2.532 2.86 2.86 0 0 1 2.352-1.079 2.5 2.5 0 0 1 2.2 1.079 3.593 3.593 0 0 1 .598 2.116zm-1.428-.385a2.015 2.015 0 0 0-.289-1.15 1.3 1.3 0 0 0-1.192-.624 1.418 1.418 0 0 0-1.189.61 2.241 2.241 0 0 0-.444 1.164z"/>
            </g>
        </g>
    </g>
</svg>
