<svg id="ico_top_30px" xmlns="http://www.w3.org/2000/svg" width="30" height="30" viewBox="0 0 30 30">
    <defs>
        <style>
            .cls-1{fill:none}
        </style>
    </defs>
    <path id="사각형_2924" data-name="사각형 2924" class="cls-1" d="M0 0h30v30H0z"/>
    <g id="그룹_3469" data-name="그룹 3469" transform="translate(-1834.221 -4410.683)">
        <g id="그룹_2903" data-name="그룹 2903" transform="rotate(-90 3130.774 1292.844)">
            <path id="사각형_2828" data-name="사각형 2828" class="cls-1" transform="translate(0 .094)" d="M0 0h11.67v21.301H0z"/>
            <path id="패스_2460" data-name="패스 2460" d="m11.3 11.141-9.78 9.734a1.724 1.724 0 0 1-.233.206.814.814 0 0 1-1.26-.524.873.873 0 0 1 .307-.813q4.332-4.307 8.66-8.618l.015-.015.306-.3.027-.024.159-.157-.194-.2Q4.847 5.98.388 1.539a2.58 2.58 0 0 1-.213-.227A.806.806 0 0 1 .6.033a.88.88 0 0 1 .909.31Q6.4 5.22 11.3 10.093a.739.739 0 0 1 0 1.048z" transform="translate(.067)" style="fill:#fff"/>
        </g>
        <path id="패스_4466" data-name="패스 4466" d="M3.616-.31h1.692v-9.321h3.165v-1.415H.465v1.415h3.151zm10.24.19c2.757 0 4.683-2.144 4.683-5.6s-1.926-5.529-4.683-5.529-4.668 2.07-4.668 5.528S11.1-.12 13.856-.12zm0-1.473c-1.78 0-2.932-1.6-2.932-4.128s1.152-4.055 2.932-4.055S16.8-8.245 16.8-5.721s-1.164 4.128-2.944 4.128zM20.625-.31h1.692v-4.07h1.619c2.334 0 4.041-1.079 4.041-3.428 0-2.421-1.707-3.238-4.1-3.238h-3.252zm1.692-5.426v-3.953h1.4c1.707 0 2.6.467 2.6 1.882s-.817 2.071-2.542 2.071z" transform="translate(1835 4439.538)" style="fill:#eaeaea"/>
    </g>
</svg>
