<svg id="ico_googleplay" xmlns="http://www.w3.org/2000/svg" width="178" height="42" viewBox="0 0 178 42">
    <defs>
        <linearGradient id="linear-gradient" x1="-31.273" y1="12.529" x2="-31.178" y2="12.529" gradientUnits="objectBoundingBox">
            <stop offset="0" stop-color="gold"/>
            <stop offset=".043" stop-color="#fed200"/>
            <stop offset=".467" stop-color="#fca904"/>
            <stop offset=".8" stop-color="#fa8f07"/>
            <stop offset="1" stop-color="#fa8608"/>
        </linearGradient>
        <linearGradient id="linear-gradient-2" x1="-14.791" y1="5.392" x2="-14.744" y2="5.392" gradientUnits="objectBoundingBox">
            <stop offset="0" stop-color="#e82b36"/>
            <stop offset="1" stop-color="#b4005a"/>
        </linearGradient>
        <linearGradient id="linear-gradient-3" x1="-14.153" y1="6.177" x2="-14.105" y2="6.177" gradientUnits="objectBoundingBox">
            <stop offset="0" stop-color="#2f8e5b"/>
            <stop offset=".39" stop-color="#4ea157"/>
            <stop offset=".768" stop-color="#67b054"/>
            <stop offset="1" stop-color="#70b653"/>
        </linearGradient>
        <clipPath id="clip-path">
            <path id="패스_4418" data-name="패스 4418" class="cls-1" d="m163.022 58.8-6.344-6.35V52l6.347-6.347 7.662 4.355c2.147 1.22 2.147 3.216 0 4.436l-7.519 4.27-.145.085" transform="translate(-156.678 -45.656)"/>
        </clipPath>
        <clipPath id="clip-path-2">
            <path id="패스_4419" data-name="패스 4419" class="cls-1" d="m175.995 54.316-6.49-6.49-19.151 19.151c.706.751 1.878.842 3.195.1l22.446-12.758" transform="translate(-150.354 -47.826)"/>
        </clipPath>
        <clipPath id="clip-path-3">
            <path id="패스_4420" data-name="패스 4420" class="cls-1" d="m175.995 54.574-22.446-12.758c-1.317-.745-2.489-.654-3.195.094L169.5 61.061l6.49-6.487" transform="translate(-150.354 -41.301)"/>
        </clipPath>
        <style>
            .cls-1{fill:none}
        </style>
    </defs>
    <path id="사각형_2860" data-name="사각형 2860" class="cls-1" d="M0 0h178v42H0z"/>
    <g id="그룹_2885" data-name="그룹 2885" transform="translate(-150.12 -41.071)">
        <path id="패스_4403" data-name="패스 4403" d="M175.385 46.353a4.173 4.173 0 0 1-1.148 3.08 4.48 4.48 0 0 1-3.392 1.363 4.82 4.82 0 1 1 0-9.639 4.76 4.76 0 0 1 1.9.388 3.824 3.824 0 0 1 1.445 1.03l-.812.812a3.115 3.115 0 0 0-2.529-1.093 3.686 3.686 0 1 0 2.58 6.341 2.936 2.936 0 0 0 .775-1.871h-3.355v-1.108h4.476a4.316 4.316 0 0 1 .064.7" transform="translate(32.277 .103)"/>
        <path id="패스_4404" data-name="패스 4404" d="M175.491 46.456h-.154a4.014 4.014 0 0 1-1.1 2.971 4.314 4.314 0 0 1-3.28 1.32 4.667 4.667 0 1 1 0-9.333 4.627 4.627 0 0 1 1.835.376 3.684 3.684 0 0 1 1.387.987l.118-.1-.112-.109-.809.815.109.106.115-.1a3.265 3.265 0 0 0-2.644-1.151 3.84 3.84 0 1 0 2.689 6.6 3.07 3.07 0 0 0 .818-1.965l.012-.167h-3.364v-.8h4.321v-.151l-.154.024a3.783 3.783 0 0 1 .064.672h.309a4.007 4.007 0 0 0-.07-.724l-.021-.127h-4.76v1.414h3.51v-.154l-.154-.012a2.782 2.782 0 0 1-.73 1.775 3.531 3.531 0 1 1-2.471-6.078 2.949 2.949 0 0 1 2.411 1.039l.106.127.933-.93.1-.1-.091-.106a3.979 3.979 0 0 0-1.5-1.075 4.957 4.957 0 0 0-1.956-.4 4.974 4.974 0 1 0 0 9.948 4.64 4.64 0 0 0 3.5-1.411l-.112-.106.109.109a4.328 4.328 0 0 0 1.193-3.189h-.154" transform="translate(32.171)"/>
        <path id="패스_4405" data-name="패스 4405" d="M175.083 42.357h-4.2v2.926h3.788v1.107h-3.791v2.928h4.2v1.133h-5.38v-9.226h5.385v1.133" transform="translate(39.656 .243)"/>
        <path id="패스_4406" data-name="패스 4406" d="M175.186 42.46v-.154h-4.356v3.234h3.788v.8h-3.788v3.235h4.2v.825h-5.078v-8.919h5.078v.979h.308v-1.286h-5.693v9.534h5.693v-1.44h-4.2v-2.619h3.788v-1.416h-3.788v-2.619h4.2v-.154h-.154" transform="translate(39.553 .14)"/>
        <path id="패스_4407" data-name="패스 4407" d="M175.649 50.452h-1.189v-8.095h-2.576v-1.132h6.341v1.133h-2.576v8.094" transform="translate(44.085 .243)"/>
        <path id="패스_4408" data-name="패스 4408" d="M175.752 50.554V50.4h-1.035v-8.094h-2.576v-.825h6.036v.825H175.6v8.248h.308v-7.94h2.576v-1.44h-6.648v1.44h2.579v8.094h1.494v-.154h-.154" transform="translate(43.982 .14)"/>
        <path id="사각형_2849" data-name="사각형 2849" transform="translate(226.891 41.467)" d="M0 0h1.186v9.227H0z"/>
        <path id="패스_4409" data-name="패스 4409" d="M175.6 50.554h.154v-9.073h.875V50.4H175.6v.308h1.34v-9.534h-1.494v9.534h.154v-.154" transform="translate(51.295 .14)"/>
        <path id="패스_4410" data-name="패스 4410" d="M180.143 50.452h-1.186v-8.095h-2.579v-1.132h6.341v1.133h-2.576v8.094" transform="translate(53.188 .243)"/>
        <path id="패스_4411" data-name="패스 4411" d="M180.246 50.554V50.4h-1.032v-8.094h-2.579v-.825h6.033v.825h-2.576v8.248h.308v-7.94h2.576v-1.44h-6.648v1.44h2.579v8.094h1.493v-.154h-.154" transform="translate(53.085 .14)"/>
        <path id="패스_4412" data-name="패스 4412" d="M187.878 49.4a4.8 4.8 0 0 1-6.765 0 4.986 4.986 0 0 1 0-6.844 4.77 4.77 0 0 1 6.756.006 4.974 4.974 0 0 1 .009 6.838m-5.89-.772a3.549 3.549 0 0 0 5.012 0 3.92 3.92 0 0 0 0-5.3 3.542 3.542 0 0 0-5.012 0 3.938 3.938 0 0 0 0 5.3z" transform="translate(60.022 .103)"/>
        <path id="패스_4413" data-name="패스 4413" d="m187.979 49.5-.109-.109a4.631 4.631 0 0 1-6.544 0h-.006.006a4.825 4.825 0 0 1 0-6.626 4.617 4.617 0 0 1 6.538.006 4.825 4.825 0 0 1 .006 6.62l.218.215a5.124 5.124 0 0 0-.006-7.05 4.924 4.924 0 0 0-6.98-.006 5.148 5.148 0 0 0 0 7.056l.006.006-.006-.006a4.946 4.946 0 0 0 6.986 0l-.109-.106m-5.89-.772-.112.106a3.7 3.7 0 0 0 5.236 0 4.078 4.078 0 0 0 0-5.512 3.7 3.7 0 0 0-5.236 0 4.1 4.1 0 0 0 0 5.512l.224-.215a3.772 3.772 0 0 1 0-5.081 3.4 3.4 0 0 1 4.8 0 3.78 3.78 0 0 1 0 5.081 3.392 3.392 0 0 1-4.8 0z" transform="translate(59.921)"/>
        <path id="패스_4414" data-name="패스 4414" d="M183.434 50.452v-9.227h1.446l4.483 7.178h.05l-.05-1.779v-5.4h1.186v9.227h-1.239l-4.69-7.526h-.053l.053 1.78v5.746h-1.186" transform="translate(67.479 .243)"/>
        <path id="패스_4415" data-name="패스 4415" d="M183.537 50.554h.154v-9.073h1.2l4.483 7.179h.3l-.053-1.935v-5.244h.878V50.4h-1l-4.7-7.526h-.29l.053 1.935V50.4h-1.032v.308h1.34V44.8l-.053-1.779h-.154v.154h.053v-.154l-.13.081 4.738 7.6h1.476v-9.528h-1.494v5.557l.05 1.779h.154v-.152h-.05v.152l.13-.08-4.531-7.251h-1.683v9.534h.154v-.154" transform="translate(67.376 .14)"/>
        <path id="패스_4416" data-name="패스 4416" d="M207.566 53.562a6.541 6.541 0 1 0 6.562 6.541 6.446 6.446 0 0 0-6.562-6.541m0 10.505a3.975 3.975 0 1 1 3.685-3.964 3.785 3.785 0 0 1-3.685 3.964zm-14.323-10.505a6.541 6.541 0 1 0 6.565 6.541 6.448 6.448 0 0 0-6.565-6.541zm0 10.505a3.974 3.974 0 1 1 3.691-3.964 3.787 3.787 0 0 1-3.691 3.964zm-17.04-8.5v2.774h6.644a5.833 5.833 0 0 1-1.511 3.495 6.816 6.816 0 0 1-5.133 2.029 7.384 7.384 0 0 1 0-14.766 7.073 7.073 0 0 1 5.006 1.984l1.959-1.959a9.691 9.691 0 0 0-6.965-2.8 10.159 10.159 0 1 0 0 20.317 9.284 9.284 0 0 0 7.086-2.85 10.008 10.008 0 0 0 2.256-8.225zm69.681 2.153a6.085 6.085 0 0 0-5.6-4.161 6.216 6.216 0 0 0-6.169 6.541 6.4 6.4 0 0 0 6.493 6.541 6.5 6.5 0 0 0 5.451-2.9l-2.232-1.49a3.722 3.722 0 0 1-3.219 1.811 3.334 3.334 0 0 1-3.174-1.981l8.749-3.619zm-8.918 2.183a3.583 3.583 0 0 1 3.419-3.816 2.517 2.517 0 0 1 2.423 1.387zm-7.111 6.341h2.874V47.02h-2.874zm-4.712-11.223h-.1a4.526 4.526 0 0 0-3.443-1.463 6.547 6.547 0 0 0 0 13.082 4.455 4.455 0 0 0 3.443-1.487h.1v.947c0 2.5-1.335 3.843-3.492 3.843a3.616 3.616 0 0 1-3.295-2.329l-2.5 1.042a6.23 6.23 0 0 0 5.8 3.864c3.371 0 6.22-1.984 6.22-6.814V53.958h-2.728zm-3.295 9.042a3.978 3.978 0 0 1 0-7.928c1.959 0 3.495 1.687 3.495 3.988a3.655 3.655 0 0 1-3.495 3.944zm37.5-17.046h-6.878v19.23h2.868v-7.286h4.006a5.979 5.979 0 1 0 0-11.941zm.076 9.267h-4.082V49.7h4.082a3.3 3.3 0 1 1 0 6.59zm17.734-2.759a5.389 5.389 0 0 0-5.118 2.94l2.547 1.063a2.714 2.714 0 0 1 2.619-1.411 2.768 2.768 0 0 1 3.019 2.477v.2a6.352 6.352 0 0 0-2.992-.742c-2.75 0-5.542 1.508-5.542 4.327 0 2.574 2.25 4.231 4.776 4.231a4.054 4.054 0 0 0 3.661-1.881h.1v1.484h2.771v-7.37c-.007-3.413-2.557-5.315-5.845-5.315zm-.345 10.535c-.945 0-2.25-.469-2.25-1.632 0-1.484 1.632-2.053 3.04-2.053a5.125 5.125 0 0 1 2.623.642 3.479 3.479 0 0 1-3.418 3.047zm16.274-10.118-3.289 8.337h-.1l-3.413-8.337h-3.095l5.12 11.658-2.922 6.481h3l7.892-18.13zm-25.846 12.3h2.859V47.02h-2.868z" transform="translate(31.846 10.555)"/>
        <path id="패스_4417" data-name="패스 4417" d="M150.829 41.575a3.058 3.058 0 0 0-.709 2.157v33.954a3.044 3.044 0 0 0 .709 2.154l.112.112 19.039-19.02v-.448l-19.039-19.018-.112.109" transform="translate(0 .732)" style="fill:#40bff2"/>
        <g id="그룹_2880" data-name="그룹 2880" transform="translate(169.98 54.869)">
            <g id="그룹_2879" data-name="그룹 2879" style="clip-path:url(#clip-path)">
                <path id="사각형_2850" data-name="사각형 2850" transform="translate(0 .001)" style="fill:url(#linear-gradient)" d="M0 0h16.156v13.145H0z"/>
            </g>
        </g>
        <g id="그룹_2882" data-name="그룹 2882" transform="translate(150.829 61.422)">
            <g id="그룹_2881" data-name="그룹 2881" style="clip-path:url(#clip-path-2)">
                <path id="사각형_2851" data-name="사각형 2851" transform="rotate(-45 7.068 17.069)" style="fill:url(#linear-gradient-2)" d="M0 0h32.267v32.267H0z"/>
            </g>
        </g>
        <g id="그룹_2884" data-name="그룹 2884" transform="translate(150.829 41.698)">
            <g id="그룹_2883" data-name="그룹 2883" style="clip-path:url(#clip-path-3)">
                <path id="사각형_2852" data-name="사각형 2852" transform="rotate(-44.998 6.788 16.95)" style="fill:url(#linear-gradient-3)" d="M0 0h32.267v32.267H0z"/>
            </g>
        </g>
    </g>
</svg>
