<svg id="img_sangsangfirends" xmlns="http://www.w3.org/2000/svg" width="242" height="210" viewBox="0 0 242 210">
    <defs>
        <style>
            .cls-3{fill:none}.cls-2{fill:#e4ceda}.cls-3{stroke:#221107;stroke-linecap:round;stroke-linejoin:round;stroke-width:2px}.cls-4{fill:#221107}.cls-5{fill:#c47099}.cls-6{fill:#fff}.cls-8{fill:#ec411b}.cls-11{fill:#ffc900}.cls-13{fill:#00aef0}.cls-14{fill:#e82727}.cls-16{fill:#95221e}.cls-17{fill:#eb85b5}.cls-21{fill:#ffbe00}.cls-22{fill:#de9a00}
        </style>
    </defs>
    <path id="사각형_2932" data-name="사각형 2932" style="fill:none" d="M0 0h242v210H0z"/>
    <g id="그룹_3475" data-name="그룹 3475" transform="translate(-654.821 -196.536)">
        <path id="패스_5008" data-name="패스 5008" class="cls-2" d="M735.8 308.363c-.179.537-4.314 13.265 2.117 25.917a3.82 3.82 0 1 0 6.821-3.441 25.7 25.7 0 0 1-2.6-8.909" transform="translate(-20.427 -28.917)"/>
        <path id="패스_5009" data-name="패스 5009" class="cls-3" d="M735.8 308.363c-.179.537-4.314 13.265 2.117 25.917a3.82 3.82 0 1 0 6.821-3.441 25.7 25.7 0 0 1-2.6-8.909" transform="translate(-20.427 -28.917)"/>
        <path id="패스_5010" data-name="패스 5010" class="cls-2" d="M758.779 297.28c.545.149 13.459 3.808 20.431 16.174a3.821 3.821 0 1 1-6.667 3.734 25.735 25.735 0 0 0-5.978-7.115" transform="translate(-26.838 -26.012)"/>
        <path id="패스_5011" data-name="패스 5011" class="cls-3" d="M758.779 297.28c.545.149 13.459 3.808 20.431 16.174a3.821 3.821 0 1 1-6.667 3.734 25.735 25.735 0 0 0-5.978-7.115" transform="translate(-26.838 -26.012)"/>
        <path id="패스_5012" data-name="패스 5012" class="cls-2" d="M689.573 252.151a8.329 8.329 0 1 0 .845 11.013" transform="translate(-4.976 -13.565)"/>
        <path id="패스_5013" data-name="패스 5013" class="cls-3" d="M689.573 252.151a8.329 8.329 0 1 0 .845 11.013" transform="translate(-4.976 -13.565)"/>
        <path id="패스_5014" data-name="패스 5014" class="cls-2" d="M739.327 226.911a8.373 8.373 0 1 1 8.441 7.157" transform="translate(-21.716 -5.075)"/>
        <path id="패스_5015" data-name="패스 5015" class="cls-3" d="M739.327 226.911a8.373 8.373 0 1 1 8.441 7.157" transform="translate(-21.716 -5.075)"/>
        <path id="패스_5016" data-name="패스 5016" class="cls-2" d="M717.488 228.047a34.876 34.876 0 0 0-9.458 2.706c-.362.176-.725.361-1.09.55l-.041.018h-.007l-.039.021c-.367.182-.731.368-1.087.555a34.72 34.72 0 0 0-7.76 6.028c-6.236 6.105-11.441 15.8 1.139 26.347a51.591 51.591 0 0 0 6.668 4.826c1.514.957 11.791 7.534 16.742 13.106.013.018 2.335 3.352 3.17 10.706.11 3.747.7 9.105 2.891 13.5 0 0 5.351 11.774 19.58 5.711 13.294-7.9 6.882-19.135 6.882-19.135-2.28-4.352-6.28-7.98-9.258-10.272-5.482-5-6.821-8.831-6.828-8.85-1.61-7.267-.905-19.417-.79-21.2a51.422 51.422 0 0 0 .005-8.213c-1.157-16.338-12.091-17.849-20.717-16.415" transform="translate(-9.183 -7.761)"/>
        <path id="패스_5017" data-name="패스 5017" class="cls-3" d="M717.488 228.047a34.876 34.876 0 0 0-9.458 2.706c-.362.176-.725.361-1.09.55l-.041.018h0-.007 0l-.039.021c-.367.182-.731.368-1.087.555a34.72 34.72 0 0 0-7.76 6.028c-6.236 6.105-11.441 15.8 1.139 26.347a51.591 51.591 0 0 0 6.668 4.826c1.514.957 11.791 7.534 16.742 13.106.013.018 2.335 3.352 3.17 10.706v0c.11 3.747.7 9.105 2.891 13.5 0 0 5.351 11.774 19.58 5.711 13.294-7.9 6.882-19.135 6.882-19.135-2.28-4.352-6.28-7.98-9.258-10.272h0c-5.482-5-6.821-8.831-6.828-8.85-1.61-7.267-.905-19.417-.79-21.2a51.422 51.422 0 0 0 .005-8.213c-1.159-16.327-12.094-17.838-20.719-16.404z" transform="translate(-9.183 -7.761)"/>
        <path id="패스_5018" data-name="패스 5018" class="cls-4" d="M699.25 254.159c.641 1.256.486 2.614-.346 3.037s-2.026-.254-2.668-1.509-.487-2.613.345-3.035 2.027.252 2.669 1.508" transform="translate(-10.337 -14.285)"/>
        <path id="패스_5019" data-name="패스 5019" class="cls-4" d="M740.209 233.38c.64 1.256.487 2.615-.346 3.038s-2.028-.254-2.668-1.51-.487-2.614.345-3.036 2.029.252 2.669 1.508" transform="translate(-21.076 -8.84)"/>
        <path id="패스_5020" data-name="패스 5020" class="cls-5" d="M762.953 308.086a42.609 42.609 0 0 0-4.251-4.148 71.314 71.314 0 0 1-20.041 10.117 41.935 41.935 0 0 0 .863 5.888 79.55 79.55 0 0 0 12.681-5.112 66.729 66.729 0 0 0 10.748-6.745" transform="translate(-21.564 -27.757)"/>
        <path id="패스_5021" data-name="패스 5021" class="cls-5" d="M769.245 322.179a14.8 14.8 0 0 0-1.574-5.583c-.068-.132-.144-.258-.215-.39a94.17 94.17 0 0 1-25.039 12.669c.069.143.133.289.2.428a14.846 14.846 0 0 0 3.561 4.516 106.383 106.383 0 0 0 12.432-5.333 90.247 90.247 0 0 0 10.631-6.307" transform="translate(-22.549 -30.971)"/>
        <path id="패스_5022" data-name="패스 5022" class="cls-6" d="M729.467 273.711c-8.281 4.2-16.691.675-17.046.523a5.637 5.637 0 0 1-3.1-5.409c.207-2.161 1.93-3.244 3.849-2.418a14.893 14.893 0 0 0 19.962-10.149c.482-2.008 2.379-2.742 4.243-1.628a5.611 5.611 0 0 1 2.545 5.655c-.084.375-2.17 9.226-10.45 13.426" transform="translate(-13.868 -14.7)"/>
        <path id="패스_5023" data-name="패스 5023" class="cls-3" d="M729.467 273.711c-8.281 4.2-16.691.675-17.046.523a5.637 5.637 0 0 1-3.1-5.409c.207-2.161 1.93-3.244 3.849-2.418a14.893 14.893 0 0 0 19.962-10.149c.482-2.008 2.379-2.742 4.243-1.628a5.611 5.611 0 0 1 2.545 5.655c-.087.375-2.173 9.226-10.453 13.426z" transform="translate(-13.868 -14.7)"/>
        <path id="선_11" data-name="선 11" class="cls-6" transform="translate(712.37 252.254)" d="m0 0 3.407 6.668"/>
        <path id="선_12" data-name="선 12" class="cls-3" transform="translate(712.37 252.254)" d="m0 0 3.407 6.668"/>
        <path id="선_13" data-name="선 13" class="cls-6" transform="translate(700.172 253.453)" d="M1.074 0 0 6.642"/>
        <path id="선_14" data-name="선 14" class="cls-3" transform="translate(700.172 253.453)" d="M1.074 0 0 6.642"/>
        <path id="선_15" data-name="선 15" class="cls-6" transform="translate(707.031 253.755)" d="m0 0 .153 7.301"/>
        <path id="선_16" data-name="선 16" class="cls-3" transform="translate(707.031 253.755)" d="m0 0 .153 7.301"/>
        <path id="선_17" data-name="선 17" class="cls-6" transform="translate(719.335 244.274)" d="m0 0 6.022 3.043"/>
        <path id="선_18" data-name="선 18" class="cls-3" transform="translate(719.335 244.274)" d="m0 0 6.022 3.043"/>
        <path id="선_19" data-name="선 19" class="cls-6" transform="translate(716.173 249.118)" d="m0 0 5.839 4.416"/>
        <path id="선_20" data-name="선 20" class="cls-3" transform="translate(716.173 249.118)" d="m0 0 5.839 4.416"/>
        <path id="패스_5024" data-name="패스 5024" d="M727.913 237.443a13.822 13.822 0 1 1-18.4-5.644 13.545 13.545 0 0 1 18.4 5.644" transform="translate(-11.912 -8.449)" style="fill:#e54f96"/>
        <path id="패스_5025" data-name="패스 5025" class="cls-3" d="M727.913 237.443a13.822 13.822 0 1 1-18.4-5.644 13.545 13.545 0 0 1 18.4 5.644z" transform="translate(-11.912 -8.449)"/>
        <path id="패스_5026" data-name="패스 5026" class="cls-4" d="M715.174 248.938c1.045 2.042.777 4.264-.6 4.962s-3.336-.395-4.382-2.437-.776-4.265.6-4.964 3.336.394 4.38 2.439" transform="translate(-13.931 -12.651)"/>
        <path id="패스_5027" data-name="패스 5027" class="cls-4" d="M728.316 242.27c1.043 2.044.777 4.266-.6 4.966s-3.335-.395-4.38-2.439-.776-4.264.6-4.964 3.336.395 4.381 2.437" transform="translate(-17.38 -10.905)"/>
        <path id="패스_5028" data-name="패스 5028" class="cls-2" d="M918.307 425.6c-.311.523-7.7 12.869-16.686 20.129a4.118 4.118 0 0 1-5.154-6.423c7.825-6.316 14.713-17.811 14.782-17.927" transform="translate(-62.527 -58.531)"/>
        <path id="패스_5029" data-name="패스 5029" class="cls-3" d="M918.307 425.6c-.311.523-7.7 12.869-16.686 20.129a4.118 4.118 0 0 1-5.154-6.423c7.825-6.316 14.713-17.811 14.782-17.927" transform="translate(-62.527 -58.531)"/>
        <path id="패스_5030" data-name="패스 5030" class="cls-2" d="M901.9 412.015c-.437.422-10.734 10.457-15.727 20.893a4.112 4.112 0 1 0 7.41 3.567c4.346-9.085 13.929-18.435 14.024-18.529" transform="translate(-60.125 -56.077)"/>
        <path id="패스_5031" data-name="패스 5031" class="cls-3" d="M901.9 412.015c-.437.422-10.734 10.457-15.727 20.893a4.112 4.112 0 1 0 7.41 3.567c4.346-9.085 13.929-18.435 14.024-18.529" transform="translate(-60.125 -56.077)"/>
        <path id="패스_5032" data-name="패스 5032" class="cls-8" d="M759.951 453.395h-11.3a22.933 22.933 0 0 0-.451 7.771 3.439 3.439 0 0 0 1.165 2.344 1.9 1.9 0 0 0 1.024.3 2.1 2.1 0 0 0 1.787-1.1 2.291 2.291 0 0 0 2.124 2 2.291 2.291 0 0 0 2.125-2 2.1 2.1 0 0 0 1.786 1.1 1.911 1.911 0 0 0 1.026-.3 3.443 3.443 0 0 0 1.164-2.344 22.933 22.933 0 0 0-.451-7.771" transform="translate(-24.027 -66.92)"/>
        <path id="패스_5033" data-name="패스 5033" class="cls-3" d="M759.951 453.395h-11.3a22.933 22.933 0 0 0-.451 7.771 3.439 3.439 0 0 0 1.165 2.344 1.9 1.9 0 0 0 1.024.3 2.1 2.1 0 0 0 1.787-1.1 2.291 2.291 0 0 0 2.124 2h0a2.291 2.291 0 0 0 2.125-2 2.1 2.1 0 0 0 1.786 1.1 1.911 1.911 0 0 0 1.026-.3 3.443 3.443 0 0 0 1.164-2.344 22.933 22.933 0 0 0-.45-7.771z" transform="translate(-24.027 -66.92)"/>
        <path id="패스_5034" data-name="패스 5034" d="M656.4 318.248a1.637 1.637 0 0 1 .23-1.063 1.589 1.589 0 0 1 .9-.6c6.57-1.447 10.835-.643 13.342 1.192 0 0 5.674 3.86 1.67 10.424-4.58 6.165-10.19 2.213-10.19 2.213-2.6-1.7-4.888-5.431-5.948-12.161" transform="translate(0 -30.875)" style="fill:#45a735"/>
        <path id="패스_5035" data-name="패스 5035" class="cls-3" d="M656.4 318.248a1.637 1.637 0 0 1 .23-1.063 1.589 1.589 0 0 1 .9-.6c6.57-1.447 10.835-.643 13.342 1.192 0 0 5.674 3.86 1.67 10.424-4.58 6.165-10.19 2.213-10.19 2.213-2.602-1.704-4.891-5.436-5.952-12.166z" transform="translate(0 -30.875)"/>
        <path id="패스_5036" data-name="패스 5036" class="cls-3" d="M656.679 317.716s10.552 11.521 22.929 12.973" transform="translate(-.075 -31.367)"/>
        <path id="패스_5037" data-name="패스 5037" d="M664 325.72a31.755 31.755 0 0 0 4.919 3.165 57.176 57.176 0 0 1-5.074 4.64 6.468 6.468 0 0 1-.955-.526 12.271 12.271 0 0 1-4.431-6.175 20.21 20.21 0 0 0 5.541-1.1" transform="translate(-.542 -33.465)" style="fill:#f77e0b"/>
        <path id="패스_5038" data-name="패스 5038" class="cls-3" d="M664 325.72a31.755 31.755 0 0 0 4.919 3.165 57.176 57.176 0 0 1-5.074 4.64 6.468 6.468 0 0 1-.955-.526 12.271 12.271 0 0 1-4.431-6.175A20.21 20.21 0 0 0 664 325.72z" transform="translate(-.542 -33.465)"/>
        <path id="패스_5039" data-name="패스 5039" class="cls-11" d="M714.428 306.923c4.082 6.654.089 16.558-8.918 22.118s-19.62 4.671-23.7-1.986-.091-16.557 8.918-22.115 19.618-4.674 23.7 1.984" transform="translate(-6.24 -27.062)"/>
        <path id="패스_5040" data-name="패스 5040" class="cls-3" d="M714.428 306.923c4.082 6.654.089 16.558-8.918 22.118s-19.62 4.671-23.7-1.986-.091-16.557 8.918-22.115 19.616-4.674 23.7 1.983z" transform="translate(-6.24 -27.062)"/>
        <path id="패스_5041" data-name="패스 5041" d="M748.021 317.1c9.965 16.247.3 40.369-21.586 53.879s-47.709 11.291-57.676-4.957-.3-40.368 21.586-53.88 47.712-11.289 57.676 4.958" transform="translate(-2.212 -27.59)" style="fill:#ce9600"/>
        <path id="패스_5042" data-name="패스 5042" class="cls-3" d="M748.021 317.1c9.965 16.247.3 40.369-21.586 53.879s-47.709 11.291-57.676-4.957-.3-40.368 21.586-53.88 47.711-11.289 57.676 4.958z" transform="translate(-2.212 -27.59)"/>
        <path id="패스_5043" data-name="패스 5043" class="cls-8" d="m798.521 424.742-.784.486L796 426.3l-2.294 1.418-2.293 1.415-1.734 1.069-.786.486a22.86 22.86 0 0 0 3.677 6.855 3.436 3.436 0 0 0 2.216 1.387 1.925 1.925 0 0 0 1.032-.285 2.111 2.111 0 0 0 .948-1.875 2.284 2.284 0 0 0 2.852.585 2.3 2.3 0 0 0 .765-2.818 2.1 2.1 0 0 0 2.1 0 1.943 1.943 0 0 0 .716-.795 3.444 3.444 0 0 0-.232-2.609 22.839 22.839 0 0 0-4.444-6.386" transform="translate(-34.731 -59.412)"/>
        <path id="패스_5044" data-name="패스 5044" class="cls-3" d="m798.521 424.742-.784.486L796 426.3l-2.294 1.418h0l-2.293 1.415-1.734 1.069-.786.486a22.86 22.86 0 0 0 3.677 6.855 3.436 3.436 0 0 0 2.216 1.387 1.925 1.925 0 0 0 1.032-.285 2.111 2.111 0 0 0 .948-1.875 2.284 2.284 0 0 0 2.852.585h0a2.3 2.3 0 0 0 .765-2.818 2.1 2.1 0 0 0 2.1 0 1.943 1.943 0 0 0 .716-.795 3.444 3.444 0 0 0-.232-2.609 22.839 22.839 0 0 0-4.446-6.391z" transform="translate(-34.731 -59.412)"/>
        <path id="패스_5045" data-name="패스 5045" class="cls-8" d="M683.824 358.714c-.607 2.625-2.823 4.33-4.953 3.806s-3.364-3.076-2.758-5.7 2.823-4.33 4.953-3.807 3.364 3.078 2.758 5.7" transform="translate(-5.127 -40.591)"/>
        <path id="패스_5046" data-name="패스 5046" class="cls-3" d="M683.824 358.714c-.607 2.625-2.823 4.33-4.953 3.806s-3.364-3.076-2.758-5.7 2.823-4.33 4.953-3.807 3.364 3.076 2.758 5.701z" transform="translate(-5.127 -40.591)"/>
        <path id="패스_5047" data-name="패스 5047" class="cls-8" d="M744.882 321.137c-2.612-.641-4.326-2.9-3.831-5.042s3.011-3.357 5.621-2.717 4.324 2.9 3.829 5.041-3.01 3.356-5.618 2.718" transform="translate(-22.168 -30.186)"/>
        <path id="패스_5048" data-name="패스 5048" class="cls-3" d="M744.882 321.137c-2.612-.641-4.326-2.9-3.831-5.042s3.011-3.357 5.621-2.717 4.324 2.9 3.829 5.041-3.011 3.357-5.619 2.718z" transform="translate(-22.168 -30.186)"/>
        <path id="패스_5049" data-name="패스 5049" class="cls-13" d="M752.372 355.948q-.056-1.562-.206-3a28.883 28.883 0 0 0-4.2-16.48c-8.951-14.594-29.195-18.409-45.217-8.52s-21.752 29.736-12.8 44.328a28.728 28.728 0 0 0 12.776 11.186q1.214.783 2.574 1.536s6.978 3.873 10.5 13.781a54.141 54.141 0 0 0 2.812 7.267 42.07 42.07 0 0 0 2.5 4.758s8.883 15.283 18.932 11.481a8.771 8.771 0 0 0 1.852-.916h.007c2.367-1.531 4.651-4.481 6.578-9.577a.047.047 0 0 0 .007-.016 8.246 8.246 0 0 1 3.215-3.649l.164-.1.166-.1a8.2 8.2 0 0 1 4.7-1.235h.018c5.4.573 9.057-.142 11.487-1.571h.007a8.816 8.816 0 0 0 1.65-1.246c7.913-7.283-1.682-22.126-1.682-22.126a42.8 42.8 0 0 0-3.11-4.384 54.159 54.159 0 0 0-5.2-5.793c-7.228-7.62-7.529-15.612-7.529-15.612z" transform="translate(-7.687 -32.607)"/>
        <path id="패스_5050" data-name="패스 5050" class="cls-3" d="M752.372 355.948q-.056-1.562-.206-3a28.883 28.883 0 0 0-4.2-16.48c-8.951-14.594-29.195-18.409-45.217-8.52s-21.752 29.736-12.8 44.328a28.728 28.728 0 0 0 12.776 11.186q1.214.783 2.574 1.536h0s6.978 3.873 10.5 13.781a54.141 54.141 0 0 0 2.812 7.267 42.07 42.07 0 0 0 2.5 4.758h0s8.883 15.283 18.932 11.481a8.771 8.771 0 0 0 1.852-.916h.007c2.367-1.531 4.651-4.481 6.578-9.577a.047.047 0 0 0 .007-.016 8.246 8.246 0 0 1 3.215-3.649l.164-.1.166-.1a8.2 8.2 0 0 1 4.7-1.235h.018c5.4.573 9.057-.142 11.487-1.571h.007a8.816 8.816 0 0 0 1.65-1.246c7.913-7.283-1.682-22.126-1.682-22.126a42.8 42.8 0 0 0-3.11-4.384 54.159 54.159 0 0 0-5.2-5.793c-7.228-7.62-7.529-15.612-7.529-15.612z" transform="translate(-7.687 -32.607)"/>
        <path id="패스_5051" data-name="패스 5051" class="cls-13" d="M754.315 440.347a42.221 42.221 0 0 0 27.8-17.162" transform="translate(-25.668 -59.004)"/>
        <path id="패스_5052" data-name="패스 5052" class="cls-3" d="M754.315 440.347a42.221 42.221 0 0 0 27.8-17.162" transform="translate(-25.668 -59.004)"/>
        <path id="패스_5053" data-name="패스 5053" class="cls-6" d="M756.09 337.277a7.184 7.184 0 1 1-9.92-2.438 7.257 7.257 0 0 1 9.92 2.438" transform="translate(-22.642 -35.578)"/>
        <path id="패스_5054" data-name="패스 5054" class="cls-3" d="M756.09 337.277a7.184 7.184 0 1 1-9.92-2.438 7.257 7.257 0 0 1 9.92 2.438z" transform="translate(-22.642 -35.578)"/>
        <path id="패스_5055" data-name="패스 5055" class="cls-4" d="M753.453 341.993a1.852 1.852 0 1 1-2.558-.629 1.87 1.87 0 0 1 2.558.629" transform="translate(-24.541 -37.492)"/>
        <path id="패스_5056" data-name="패스 5056" class="cls-6" d="M704.86 368.9a7.184 7.184 0 1 1-9.921-2.436 7.256 7.256 0 0 1 9.921 2.436" transform="translate(-9.211 -43.863)"/>
        <path id="패스_5057" data-name="패스 5057" class="cls-3" d="M704.86 368.9a7.184 7.184 0 1 1-9.921-2.436 7.256 7.256 0 0 1 9.921 2.436z" transform="translate(-9.211 -43.863)"/>
        <path id="패스_5058" data-name="패스 5058" class="cls-4" d="M702.222 373.611a1.853 1.853 0 1 1-2.559-.627 1.875 1.875 0 0 1 2.559.627" transform="translate(-11.109 -45.778)"/>
        <path id="패스_5059" data-name="패스 5059" class="cls-6" d="M738.8 356.2a13.589 13.589 0 1 1-18.769-4.609A13.731 13.731 0 0 1 738.8 356.2" transform="translate(-14.999 -39.72)"/>
        <path id="패스_5060" data-name="패스 5060" class="cls-3" d="M738.8 356.2a13.589 13.589 0 1 1-18.769-4.609A13.731 13.731 0 0 1 738.8 356.2z" transform="translate(-14.999 -39.72)"/>
        <path id="패스_5061" data-name="패스 5061" class="cls-4" d="M729.051 356.344a4.1 4.1 0 1 1-5.669-1.393 4.15 4.15 0 0 1 5.669 1.393" transform="translate(-17.051 -40.966)"/>
        <path id="선_21" data-name="선 21" class="cls-14" transform="translate(710.308 320.47)" d="m0 0 1.354 2.207"/>
        <path id="선_22" data-name="선 22" class="cls-3" transform="translate(710.308 320.47)" d="m0 0 1.354 2.207"/>
        <path id="패스_5062" data-name="패스 5062" class="cls-6" d="M695.683 362.343a5.281 5.281 0 0 0-4.65 2.871" transform="translate(-9.077 -43.061)"/>
        <path id="패스_5063" data-name="패스 5063" class="cls-3" d="M695.683 362.343a5.281 5.281 0 0 0-4.65 2.871" transform="translate(-9.077 -43.061)"/>
        <path id="패스_5064" data-name="패스 5064" class="cls-6" d="M747.2 330.545a5.436 5.436 0 0 0-2.723.785 5.5 5.5 0 0 0-1.929 2.085" transform="translate(-22.583 -34.729)"/>
        <path id="패스_5065" data-name="패스 5065" class="cls-3" d="M747.2 330.545a5.436 5.436 0 0 0-2.723.785 5.5 5.5 0 0 0-1.929 2.085" transform="translate(-22.583 -34.729)"/>
        <path id="패스_5066" data-name="패스 5066" class="cls-6" d="M756.232 355.719a5.289 5.289 0 0 0 4.651-2.87" transform="translate(-26.169 -40.573)"/>
        <path id="패스_5067" data-name="패스 5067" class="cls-3" d="M756.232 355.719a5.289 5.289 0 0 0 4.651-2.87" transform="translate(-26.169 -40.573)"/>
        <path id="패스_5068" data-name="패스 5068" class="cls-6" d="M704.713 387.518a5.3 5.3 0 0 0 4.651-2.871" transform="translate(-12.662 -48.906)"/>
        <path id="패스_5069" data-name="패스 5069" class="cls-3" d="M704.713 387.518a5.3 5.3 0 0 0 4.651-2.871" transform="translate(-12.662 -48.906)"/>
        <path id="패스_5070" data-name="패스 5070" class="cls-11" d="M693.226 316.357c20.769-12.818 45.037-11.39 55.37 2.9q-.427-.835-.921-1.642c-9.656-15.741-34.913-17.74-56.417-4.468s-31.108 36.79-21.452 52.531c.329.537.679 1.057 1.045 1.564-8.061-15.7 1.607-38.07 22.374-50.888" transform="translate(-2.531 -27.87)"/>
        <path id="패스_5071" data-name="패스 5071" d="M776.9 381.343a91.373 91.373 0 0 1 8.034 12.868c.2.379.4.755.573 1.119a35.28 35.28 0 0 1 1.381 3.259 4.23 4.23 0 0 1 .018 3.119 2.121 2.121 0 0 1-.9.83 2.388 2.388 0 0 1-2.409-.319 2.67 2.67 0 0 1-1.148 3.212 2.673 2.673 0 0 1-3.221-1.128 2.377 2.377 0 0 1-1.267 2.068 2.091 2.091 0 0 1-1.212.177 4.232 4.232 0 0 1-2.412-1.973 34.279 34.279 0 0 1-1.666-3.123 32.807 32.807 0 0 1-.512-1.152 91.343 91.343 0 0 1-4.952-14.336" transform="translate(-29.047 -48.04)" style="fill:#00a1ed"/>
        <path id="패스_5072" data-name="패스 5072" class="cls-3" d="M776.9 381.343a91.373 91.373 0 0 1 8.034 12.868h0c.2.379.4.755.573 1.119a35.28 35.28 0 0 1 1.381 3.259 4.23 4.23 0 0 1 .018 3.119 2.121 2.121 0 0 1-.9.83 2.388 2.388 0 0 1-2.409-.319 2.67 2.67 0 0 1-1.148 3.212h0a2.673 2.673 0 0 1-3.221-1.128 2.377 2.377 0 0 1-1.267 2.068 2.091 2.091 0 0 1-1.212.177 4.232 4.232 0 0 1-2.412-1.973 34.279 34.279 0 0 1-1.666-3.123 32.807 32.807 0 0 1-.512-1.152h0a91.343 91.343 0 0 1-4.952-14.336" transform="translate(-29.047 -48.04)"/>
        <path id="패스_5073" data-name="패스 5073" class="cls-8" d="M787.6 400.6a34.688 34.688 0 0 1 1.274 3.033 4.236 4.236 0 0 1 .017 3.119 2.118 2.118 0 0 1-.9.83 2.386 2.386 0 0 1-2.408-.319 2.671 2.671 0 0 1-1.149 3.212 2.671 2.671 0 0 1-3.22-1.128 2.376 2.376 0 0 1-1.268 2.069 2.092 2.092 0 0 1-1.212.177 4.228 4.228 0 0 1-2.411-1.973 34.78 34.78 0 0 1-1.545-2.873A20.4 20.4 0 0 1 787.6 400.6" transform="translate(-31.03 -53.086)"/>
        <path id="패스_5074" data-name="패스 5074" class="cls-3" d="M787.6 400.6a34.688 34.688 0 0 1 1.274 3.033 4.236 4.236 0 0 1 .017 3.119 2.118 2.118 0 0 1-.9.83 2.386 2.386 0 0 1-2.408-.319 2.671 2.671 0 0 1-1.149 3.212h0a2.671 2.671 0 0 1-3.22-1.128 2.376 2.376 0 0 1-1.268 2.069 2.092 2.092 0 0 1-1.212.177 4.228 4.228 0 0 1-2.411-1.973 34.78 34.78 0 0 1-1.545-2.873A20.4 20.4 0 0 1 787.6 400.6z" transform="translate(-31.03 -53.086)"/>
        <path id="패스_5075" data-name="패스 5075" class="cls-16" d="M735.094 369.131c.976 1.591.883 3.423-.205 4.1s-2.762-.072-3.737-1.663-.883-3.422.205-4.093 2.763.072 3.737 1.66" transform="translate(-19.419 -44.34)"/>
        <path id="패스_5076" data-name="패스 5076" class="cls-3" d="M735.094 369.131c.976 1.591.883 3.423-.205 4.1s-2.762-.072-3.737-1.663-.883-3.422.205-4.093 2.763.068 3.737 1.656z" transform="translate(-19.419 -44.34)"/>
        <path id="패스_5077" data-name="패스 5077" class="cls-6" d="M894.027 300.181c-.494-9.25-1.058-15.178-1.058-15.178-4.4-55.295-38.361-66.417-66.086-66.015-27.728-.4-61.688 10.72-66.089 66.015 0 0-.562 5.929-1.058 15.178-.006.24-2 61.473 21.534 98.933 0 0 6.276 4.141 19.431 4.141 0 0 15.672.649 15.672-4.056.523-3.877 2.608-13.263 10.51-14.052 7.9.788 9.983 10.174 10.508 14.052 0 4.7 15.672 4.056 15.672 4.056 13.156 0 19.43-4.141 19.43-4.141 23.531-37.46 21.541-98.693 21.535-98.933" transform="translate(-27.093 -5.495)"/>
        <path id="패스_5078" data-name="패스 5078" class="cls-3" d="M894.027 300.181c-.494-9.25-1.058-15.178-1.058-15.178-4.4-55.295-38.361-66.417-66.086-66.015-27.728-.4-61.688 10.72-66.089 66.015 0 0-.562 5.929-1.058 15.178-.006.24-2 61.473 21.534 98.933 0 0 6.276 4.141 19.431 4.141 0 0 15.672.649 15.672-4.056.523-3.877 2.608-13.263 10.51-14.052 7.9.788 9.983 10.174 10.508 14.052 0 4.7 15.672 4.056 15.672 4.056 13.156 0 19.43-4.141 19.43-4.141 23.531-37.459 21.541-98.693 21.534-98.933z" transform="translate(-27.093 -5.495)"/>
        <path id="패스_5079" data-name="패스 5079" class="cls-3" d="M821 436.832a49.589 49.589 0 0 0 22.064 5.4" transform="translate(-43.148 -62.58)"/>
        <path id="패스_5080" data-name="패스 5080" class="cls-3" d="M872.641 436.832a49.6 49.6 0 0 1-22.065 5.4" transform="translate(-50.9 -62.58)"/>
        <path id="패스_5081" data-name="패스 5081" class="cls-6" d="M924.743 259.05a96.281 96.281 0 0 0 5.465 10.395c6.735 10.867 9.533 17.418 10.053 18.9a45.71 45.71 0 0 1 2.854 12.639c0 .141.01.283.014.425v.3a46.056 46.056 0 0 1-.384 6.949c-.153.773-3.067 14.922-12.464 15.66-4.851 0-5.609-8.088-5.724-10.23a55.999 55.999 0 0 1-.007-4.315c.665-19.493-.071-32.958-8.24-53.138" transform="translate(-68.134 -15.36)"/>
        <path id="패스_5082" data-name="패스 5082" class="cls-3" d="M924.743 259.05a96.281 96.281 0 0 0 5.465 10.395c6.735 10.867 9.533 17.418 10.053 18.9a45.71 45.71 0 0 1 2.854 12.639c0 .141.01.283.014.425v.3a46.056 46.056 0 0 1-.384 6.949c-.153.773-3.067 14.922-12.464 15.66-4.851 0-5.609-8.088-5.724-10.23a55.999 55.999 0 0 1-.007-4.315c.665-19.493-.071-32.958-8.24-53.138" transform="translate(-68.134 -15.36)"/>
        <path id="패스_5083" data-name="패스 5083" class="cls-17" d="M945.672 325.154c-.151.773-3.067 14.922-12.465 15.66-4.848 0-5.606-8.088-5.722-10.228a55.525 55.525 0 0 1-.007-4.316q.039-1.169.07-2.31a44.408 44.408 0 0 0 18.508-4.387 45.43 45.43 0 0 1-.384 5.58" transform="translate(-71.049 -31.854)"/>
        <path id="패스_5084" data-name="패스 5084" class="cls-3" d="M945.672 325.154c-.151.773-3.067 14.922-12.465 15.66-4.848 0-5.606-8.088-5.722-10.228a55.525 55.525 0 0 1-.007-4.316q.039-1.169.07-2.31a44.408 44.408 0 0 0 18.508-4.387 45.43 45.43 0 0 1-.384 5.581z" transform="translate(-71.049 -31.854)"/>
        <path id="패스_5085" data-name="패스 5085" class="cls-6" d="M767.209 259.05a96.292 96.292 0 0 1-5.465 10.395c-6.735 10.867-9.533 17.418-10.052 18.9a45.681 45.681 0 0 0-2.854 12.639c0 .141-.01.283-.014.425 0 .1 0 .2-.005.3a46.128 46.128 0 0 0 .384 6.949c.151.773 3.067 14.922 12.464 15.66 4.849 0 5.609-8.088 5.724-10.23.055-1.281.062-2.711.006-4.315-.663-19.493.072-32.958 8.241-53.138" transform="translate(-24.225 -15.36)"/>
        <path id="패스_5086" data-name="패스 5086" class="cls-3" d="M767.209 259.05a96.292 96.292 0 0 1-5.465 10.395c-6.735 10.867-9.533 17.418-10.052 18.9a45.681 45.681 0 0 0-2.854 12.639c0 .141-.01.283-.014.425 0 .1 0 .2-.005.3a46.128 46.128 0 0 0 .384 6.949c.151.773 3.067 14.922 12.464 15.66 4.849 0 5.609-8.088 5.724-10.23.055-1.281.062-2.711.006-4.315-.663-19.493.072-32.958 8.241-53.138" transform="translate(-24.225 -15.36)"/>
        <path id="패스_5087" data-name="패스 5087" class="cls-17" d="M749.2 325.154c.15.773 3.067 14.922 12.464 15.66 4.85 0 5.608-8.088 5.724-10.228.055-1.283.061-2.711.006-4.316q-.039-1.169-.07-2.31a44.4 44.4 0 0 1-18.508-4.387 45.454 45.454 0 0 0 .384 5.58" transform="translate(-24.225 -31.854)"/>
        <path id="패스_5088" data-name="패스 5088" class="cls-3" d="M749.2 325.154c.15.773 3.067 14.922 12.464 15.66 4.85 0 5.608-8.088 5.724-10.228.055-1.283.061-2.711.006-4.316q-.039-1.169-.07-2.31a44.4 44.4 0 0 1-18.508-4.387 45.454 45.454 0 0 0 .384 5.581z" transform="translate(-24.225 -31.854)"/>
        <path id="패스_5089" data-name="패스 5089" class="cls-4" d="M821.737 245.061a1.577 1.577 0 1 1-1.577-1.582 1.58 1.58 0 0 1 1.577 1.582" transform="translate(-42.513 -11.915)"/>
        <path id="패스_5090" data-name="패스 5090" class="cls-4" d="M881.774 245.061a1.577 1.577 0 1 1-1.579-1.582 1.58 1.58 0 0 1 1.579 1.582" transform="translate(-58.249 -11.915)"/>
        <path id="패스_5091" data-name="패스 5091" class="cls-16" d="M875.282 266.935c-2.828-5.649-8.49-5.544-11.379-5.063l-.481.142c-.406.089-.841.176-1.3.273a130.224 130.224 0 0 1-50.8 0c-.461-.1-.9-.185-1.3-.273l-.482-.142c-2.888-.481-8.552-.586-11.379 5.063 0 0-4.74 10.694 7.264 18.273a45.475 45.475 0 0 0 6.014 2.958c6.071 2.61 14.265 4.448 25.286 4.378 11.019.07 19.211-1.768 25.283-4.378a45.505 45.505 0 0 0 6.014-2.958c12.006-7.58 7.264-18.273 7.264-18.273" transform="translate(-36.921 -16.68)"/>
        <path id="패스_5092" data-name="패스 5092" class="cls-6" d="M844.321 266.334s-1.869 8.584 5.628 8.8v.01h.278v-.01c7.5-.211 5.628-8.8 5.628-8.8" transform="translate(-49.205 -17.903)"/>
        <path id="패스_5093" data-name="패스 5093" class="cls-3" d="M844.321 266.334s-1.869 8.584 5.628 8.8v.01h.278v-.01c7.5-.211 5.628-8.8 5.628-8.8" transform="translate(-49.205 -17.903)"/>
        <path id="패스_5094" data-name="패스 5094" class="cls-6" d="M860.335 265.916s-.874 8.763 6.591 8v.012l.138-.023c.047-.006.091-.007.137-.013v-.012c7.417-1.184 4.581-9.462 4.581-9.462" transform="translate(-53.449 -17.4)"/>
        <path id="패스_5095" data-name="패스 5095" class="cls-3" d="M860.335 265.916s-.874 8.763 6.591 8v.012l.138-.023c.047-.006.091-.007.137-.013v-.012c7.417-1.184 4.581-9.462 4.581-9.462" transform="translate(-53.449 -17.4)"/>
        <path id="패스_5096" data-name="패스 5096" class="cls-6" d="M876.587 263.532s-.5 8.468 6.611 7.457v.01c.044-.008.085-.019.13-.027s.086-.012.132-.018v-.01c7.051-1.412 4.019-9.279 4.019-9.279" transform="translate(-57.715 -16.68)"/>
        <path id="패스_5097" data-name="패스 5097" class="cls-3" d="M876.587 263.532s-.5 8.468 6.611 7.457v.01c.044-.008.085-.019.13-.027s.086-.012.132-.018v-.01c7.051-1.412 4.019-9.279 4.019-9.279" transform="translate(-57.715 -16.68)"/>
        <path id="패스_5098" data-name="패스 5098" class="cls-6" d="M839.722 265.706s1.382 8.7-6.115 8.364v.014c-.048-.005-.091-.013-.139-.015s-.089 0-.138-.006v-.01c-7.473-.753-5.123-9.181-5.123-9.181" transform="translate(-44.944 -17.52)"/>
        <path id="패스_5099" data-name="패스 5099" class="cls-3" d="M839.722 265.706s1.382 8.7-6.115 8.364v.014c-.048-.005-.091-.013-.139-.015s-.089 0-.138-.006v-.01c-7.473-.753-5.123-9.181-5.123-9.181" transform="translate(-44.944 -17.52)"/>
        <path id="패스_5100" data-name="패스 5100" class="cls-6" d="M823.039 263.823s.875 8.763-6.592 8v.01c-.046-.006-.089-.016-.136-.024s-.091-.007-.138-.013v-.01c-7.417-1.185-4.582-9.464-4.582-9.464" transform="translate(-40.541 -16.852)"/>
        <path id="패스_5101" data-name="패스 5101" class="cls-3" d="M823.039 263.823s.875 8.763-6.592 8v.01c-.046-.006-.089-.016-.136-.024s-.091-.007-.138-.013v-.01c-7.417-1.185-4.582-9.464-4.582-9.464" transform="translate(-40.541 -16.852)"/>
        <path id="패스_5102" data-name="패스 5102" d="M844.913 299.828a74.549 74.549 0 0 0 16.035-1.491 18.921 18.921 0 0 0-32.071 0 74.544 74.544 0 0 0 16.036 1.491" transform="translate(-45.213 -23.963)" style="fill:#ea4149"/>
        <path id="패스_5103" data-name="패스 5103" class="cls-3" d="M844.913 299.828a74.549 74.549 0 0 0 16.035-1.491 18.921 18.921 0 0 0-32.071 0 74.544 74.544 0 0 0 16.036 1.491z" transform="translate(-45.213 -23.963)"/>
        <path id="패스_5104" data-name="패스 5104" class="cls-17" d="M857.776 207.44c0 5.209-4.886 9.432-10.911 9.432s-10.912-4.223-10.912-9.432 4.885-9.431 10.912-9.431 10.911 4.223 10.911 9.431" transform="translate(-47.067)"/>
        <path id="패스_5105" data-name="패스 5105" class="cls-3" d="M857.776 207.44c0 5.209-4.886 9.432-10.911 9.432s-10.912-4.223-10.912-9.432 4.885-9.431 10.912-9.431 10.911 4.223 10.911 9.431z" transform="translate(-47.067)"/>
        <path id="패스_5106" data-name="패스 5106" class="cls-17" d="M861.722 212.683a4.919 4.919 0 0 0-6.33-2.436 39.966 39.966 0 0 1-3.236 1.153 18.031 18.031 0 0 1-4.122.964 16.989 16.989 0 0 1-3.1.212h-.907a17 17 0 0 1-3.1-.212 18.06 18.06 0 0 1-4.122-.964 40.189 40.189 0 0 1-3.234-1.153 4.918 4.918 0 0 0-6.33 2.436 4.524 4.524 0 0 0 2.555 6.035c6.8 2.75 11.731 3.184 14.688 3.061 2.956.122 7.884-.311 14.684-3.061a4.526 4.526 0 0 0 2.558-6.035" transform="translate(-44.682 -3.111)"/>
        <path id="패스_5107" data-name="패스 5107" class="cls-3" d="M861.722 212.683a4.919 4.919 0 0 0-6.33-2.436 39.966 39.966 0 0 1-3.236 1.153 18.031 18.031 0 0 1-4.122.964 16.989 16.989 0 0 1-3.1.212h-.907a17 17 0 0 1-3.1-.212 18.06 18.06 0 0 1-4.122-.964 40.189 40.189 0 0 1-3.234-1.153 4.918 4.918 0 0 0-6.33 2.436 4.524 4.524 0 0 0 2.555 6.035c6.8 2.75 11.731 3.184 14.688 3.061 2.956.122 7.884-.311 14.684-3.061a4.526 4.526 0 0 0 2.554-6.035z" transform="translate(-44.682 -3.111)"/>
        <path id="패스_5108" data-name="패스 5108" class="cls-11" d="M867.89 447.886c-1.511-30.723-12.632-36.8-19.082-37.7a74.384 74.384 0 0 0-14.517 0c-6.451.9-17.572 6.982-19.082 37.7a3.931 3.931 0 0 0 3.69 4.074 125.582 125.582 0 0 0 45.3 0 3.931 3.931 0 0 0 3.689-4.074" transform="translate(-41.631 -55.501)"/>
        <path id="패스_5109" data-name="패스 5109" class="cls-3" d="M867.89 447.886c-1.511-30.723-12.632-36.8-19.082-37.7h0a74.384 74.384 0 0 0-14.517 0h0c-6.451.9-17.572 6.982-19.082 37.7a3.931 3.931 0 0 0 3.69 4.074 125.582 125.582 0 0 0 45.3 0 3.931 3.931 0 0 0 3.691-4.074z" transform="translate(-41.631 -55.501)"/>
        <path id="패스_5110" data-name="패스 5110" class="cls-6" d="m838.482 464.469-1.692-10.053h-13.036l-1.692 10.053s-2.142 7.217 8.21 7.217 8.21-7.217 8.21-7.217" transform="translate(-43.377 -67.187)"/>
        <path id="패스_5111" data-name="패스 5111" class="cls-3" d="m838.482 464.469-1.692-10.053h-13.036l-1.692 10.053s-2.142 7.217 8.21 7.217 8.21-7.217 8.21-7.217z" transform="translate(-43.377 -67.187)"/>
        <path id="패스_5112" data-name="패스 5112" class="cls-6" d="m873.784 464.469-1.693-10.053h-13.035l-1.691 10.053s-2.142 7.217 8.21 7.217 8.209-7.217 8.209-7.217" transform="translate(-52.631 -67.187)"/>
        <path id="패스_5113" data-name="패스 5113" class="cls-3" d="m873.784 464.469-1.693-10.053h-13.035l-1.691 10.053s-2.142 7.217 8.21 7.217 8.209-7.217 8.209-7.217z" transform="translate(-52.631 -67.187)"/>
        <path id="패스_5114" data-name="패스 5114" class="cls-6" d="m826.032 405.882-.406.378v-.005s-.306.277-.836.78c-2.563 2.442-10.334 10.194-13.781 17.563a17.027 17.027 0 0 0-1.53 6.956s-.38 11.173 11.795 9.008l4.355-31.7.1-.839z" transform="translate(-40.126 -54.47)"/>
        <path id="패스_5115" data-name="패스 5115" class="cls-3" d="m826.032 405.882-.406.378v-.005s-.306.277-.836.78h0c-2.563 2.442-10.334 10.194-13.781 17.563a17.027 17.027 0 0 0-1.53 6.956v0s-.38 11.173 11.795 9.008l4.355-31.7.1-.839z" transform="translate(-40.126 -54.47)"/>
        <path id="패스_5116" data-name="패스 5116" class="cls-6" d="m869.9 405.882.405.378v-.005s.305.277.838.78c2.562 2.442 10.334 10.194 13.779 17.563a16.963 16.963 0 0 1 1.531 6.956s.38 11.173-11.794 9.008l-4.355-31.7-.1-.839z" transform="translate(-55.963 -54.47)"/>
        <path id="패스_5117" data-name="패스 5117" class="cls-3" d="m869.9 405.882.405.378v-.005s.305.277.838.78h0c2.562 2.442 10.334 10.194 13.779 17.563a16.963 16.963 0 0 1 1.531 6.956h0s.38 11.173-11.794 9.008l-4.355-31.7-.1-.839z" transform="translate(-55.963 -54.47)"/>
        <path id="패스_5118" data-name="패스 5118" class="cls-6" d="M885.849 356.636c10.1-.959 14.123-6.786 14.664-7.648 4.948-7.97-1.015-15.206-2.7-17-1.791-1.7-9-7.676-16.947-2.714-.859.545-6.67 4.578-7.626 14.712" transform="translate(-56.84 -33.89)"/>
        <path id="패스_5119" data-name="패스 5119" class="cls-3" d="M885.849 356.636c10.1-.959 14.123-6.786 14.664-7.648 4.948-7.97-1.015-15.206-2.7-17-1.791-1.7-9-7.676-16.947-2.714-.859.545-6.67 4.578-7.626 14.712" transform="translate(-56.84 -33.89)"/>
        <path id="패스_5120" data-name="패스 5120" class="cls-6" d="M805.588 357.435c-10.1-.959-14.126-6.787-14.667-7.649-4.947-7.969 1.017-15.205 2.7-17 1.793-1.692 9-7.674 16.947-2.712.859.544 6.67 4.575 7.626 14.711" transform="translate(-34.759 -34.1)"/>
        <path id="패스_5121" data-name="패스 5121" class="cls-3" d="M805.588 357.435c-10.1-.959-14.126-6.787-14.667-7.649-4.947-7.969 1.017-15.205 2.7-17 1.793-1.692 9-7.674 16.947-2.712.859.544 6.67 4.575 7.626 14.711" transform="translate(-34.759 -34.1)"/>
        <path id="패스_5122" data-name="패스 5122" d="M874.708 364.266c0-17.969-16.53-32.538-36.924-32.544s-36.922 14.575-36.922 32.544c0 0-1.384 20.045 16.967 28.672l-3.609 12.644s-8.167 23.5 23.564 23.5 23.566-23.5 23.566-23.5l-3.611-12.644c18.352-8.628 16.969-28.672 16.969-28.672" transform="translate(-37.866 -35.037)" style="fill:#ea3528"/>
        <path id="패스_5123" data-name="패스 5123" class="cls-3" d="M874.708 364.266c0-17.969-16.53-32.538-36.924-32.544s-36.922 14.575-36.922 32.544c0 0-1.384 20.045 16.967 28.672l-3.609 12.644s-8.167 23.5 23.564 23.5 23.566-23.5 23.566-23.5l-3.611-12.644c18.352-8.627 16.969-28.672 16.969-28.672z" transform="translate(-37.866 -35.037)"/>
        <path id="패스_5124" data-name="패스 5124" class="cls-11" d="M855.126 374a6.591 6.591 0 1 1-6.59-6.611 6.6 6.6 0 0 1 6.59 6.611" transform="translate(-48.636 -44.384)"/>
        <path id="패스_5125" data-name="패스 5125" class="cls-3" d="M855.126 374a6.591 6.591 0 1 1-6.59-6.611 6.6 6.6 0 0 1 6.59 6.611z" transform="translate(-48.636 -44.384)"/>
        <path id="선_23" data-name="선 23" transform="translate(799.9 336.807)" style="fill:#2d1a10" d="M0 0v3.204"/>
        <path id="선_24" data-name="선 24" class="cls-3" transform="translate(799.9 336.807)" d="M0 0v3.204"/>
        <path id="패스_5126" data-name="패스 5126" class="cls-6" d="M881.445 363.937a11.183 11.183 0 1 1-11.183-11.218 11.2 11.2 0 0 1 11.183 11.218" transform="translate(-53.128 -40.539)"/>
        <ellipse id="타원_349" data-name="타원 349" class="cls-3" cx="11.183" cy="11.218" rx="11.183" ry="11.218" transform="translate(805.95 312.179)"/>
        <path id="패스_5127" data-name="패스 5127" class="cls-4" d="M876.295 366.252a3.2 3.2 0 1 1-3.2-3.206 3.2 3.2 0 0 1 3.2 3.206" transform="translate(-55.964 -43.245)"/>
        <path id="패스_5128" data-name="패스 5128" class="cls-11" d="M843.86 418.158a55.861 55.861 0 0 1-19.833-3.174c3.735 2.831 10.894 7.162 19.833 7.244 8.94-.082 16.1-4.413 19.834-7.244a55.875 55.875 0 0 1-19.834 3.174" transform="translate(-43.942 -56.855)"/>
        <path id="패스_5129" data-name="패스 5129" class="cls-3" d="M843.86 418.158a55.861 55.861 0 0 1-19.833-3.174c3.735 2.831 10.894 7.162 19.833 7.244 8.94-.082 16.1-4.413 19.834-7.244a55.875 55.875 0 0 1-19.834 3.174z" transform="translate(-43.942 -56.855)"/>
        <path id="패스_5130" data-name="패스 5130" class="cls-11" d="M845.437 422.086c-1.3.669-2.551 2.035-3 4.756a1.847 1.847 0 0 0 .2 1.277c0 .005.012.01.016.014l.014.015a1.828 1.828 0 0 0 1.273.2c2.714-.452 4.074-1.709 4.741-3.011" transform="translate(-48.757 -58.716)"/>
        <path id="패스_5131" data-name="패스 5131" class="cls-3" d="M845.437 422.086c-1.3.669-2.551 2.035-3 4.756a1.847 1.847 0 0 0 .2 1.277c0 .005.012.01.016.014l.014.015a1.828 1.828 0 0 0 1.273.2c2.714-.452 4.074-1.709 4.741-3.011" transform="translate(-48.757 -58.716)"/>
        <path id="패스_5132" data-name="패스 5132" class="cls-11" d="M854.142 422.086c1.3.669 2.55 2.035 3 4.756a1.851 1.851 0 0 1-.2 1.277l-.018.014s-.008.012-.013.015a1.827 1.827 0 0 1-1.272.2c-2.714-.452-4.076-1.709-4.742-3.011" transform="translate(-50.984 -58.716)"/>
        <path id="패스_5133" data-name="패스 5133" class="cls-3" d="M854.142 422.086c1.3.669 2.55 2.035 3 4.756a1.851 1.851 0 0 1-.2 1.277l-.018.014s-.008.012-.013.015a1.827 1.827 0 0 1-1.272.2c-2.714-.452-4.076-1.709-4.742-3.011" transform="translate(-50.984 -58.716)"/>
        <path id="패스_5134" data-name="패스 5134" class="cls-11" d="M853.3 420.714a3.727 3.727 0 1 1-3.725-3.864 3.8 3.8 0 0 1 3.725 3.864" transform="translate(-49.661 -57.344)"/>
        <path id="패스_5135" data-name="패스 5135" class="cls-3" d="M853.3 420.714a3.727 3.727 0 1 1-3.725-3.864 3.8 3.8 0 0 1 3.725 3.864z" transform="translate(-49.661 -57.344)"/>
        <path id="패스_5136" data-name="패스 5136" class="cls-3" d="M858.554 388.748c-.628 1.316-6.479 1.762-12.174 1.877h.62c-5.694-.115-11.545-.561-12.17-1.877" transform="translate(-46.772 -49.98)"/>
        <path id="패스_5137" data-name="패스 5137" class="cls-6" d="M834.785 363.937a11.184 11.184 0 1 1-11.185-11.218 11.2 11.2 0 0 1 11.183 11.218" transform="translate(-40.898 -40.539)"/>
        <path id="패스_5138" data-name="패스 5138" class="cls-3" d="M834.785 363.937a11.184 11.184 0 1 1-11.185-11.218 11.2 11.2 0 0 1 11.185 11.218z" transform="translate(-40.898 -40.539)"/>
        <path id="패스_5139" data-name="패스 5139" class="cls-4" d="M829.634 366.252a3.2 3.2 0 1 1-3.2-3.206 3.2 3.2 0 0 1 3.2 3.206" transform="translate(-43.734 -43.245)"/>
        <path id="패스_5140" data-name="패스 5140" class="cls-6" d="M761.439 358.466s-.765 13.922 8.093 24.484c7.982 9.182 22.445 10.972 28.353 11.316a14 14 0 0 0 4.514-.543 2.682 2.682 0 0 0 1.6-2.252 3.006 3.006 0 0 0-2.118-2.516c1.6-.151 2.825-.924 3.032-2.081.2-1.084-.549-2.224-1.815-3.021l.12-.305a2.593 2.593 0 0 0 2.465-1.446 3.194 3.194 0 0 0-1.14-3.233 92.077 92.077 0 0 1-2.253-2.9 12.888 12.888 0 0 0-.984-1.339q-.506-.7-1.05-1.477c-.029-.043-.06-.091-.091-.133-6.323-10.041-14.25-40.02-14.25-40.02a33.071 33.071 0 0 1-.192-1.529" transform="translate(-27.532 -34.973)"/>
        <path id="패스_5141" data-name="패스 5141" class="cls-3" d="M761.439 358.466s-.765 13.922 8.093 24.484c7.982 9.182 22.445 10.972 28.353 11.316a14 14 0 0 0 4.514-.543 2.682 2.682 0 0 0 1.6-2.252 3.006 3.006 0 0 0-2.118-2.516c1.6-.151 2.825-.924 3.032-2.081.2-1.084-.549-2.224-1.815-3.021l.12-.305a2.593 2.593 0 0 0 2.465-1.446 3.194 3.194 0 0 0-1.14-3.233 92.077 92.077 0 0 1-2.253-2.9 12.888 12.888 0 0 0-.984-1.339h0q-.506-.7-1.05-1.477c-.029-.043-.06-.091-.091-.133-6.323-10.041-14.25-40.02-14.25-40.02a33.071 33.071 0 0 1-.192-1.529" transform="translate(-27.532 -34.973)"/>
        <path id="패스_5142" data-name="패스 5142" class="cls-6" d="M924.051 358.466s.765 13.922-8.093 24.484c-7.98 9.182-22.445 10.972-28.353 11.316a13.994 13.994 0 0 1-4.513-.543 2.681 2.681 0 0 1-1.6-2.252 3 3 0 0 1 2.117-2.516c-1.6-.151-2.825-.924-3.032-2.081-.195-1.084.549-2.224 1.815-3.021l-.12-.305a2.592 2.592 0 0 1-2.472-1.448 3.191 3.191 0 0 1 1.14-3.233 97.427 97.427 0 0 0 2.252-2.9 13 13 0 0 1 .984-1.339v-.005q.506-.7 1.049-1.476l.092-.133c6.323-10.032 14.25-40.007 14.25-40.007.08-.553.147-1.071.193-1.529" transform="translate(-58.534 -34.973)"/>
        <path id="패스_5143" data-name="패스 5143" class="cls-3" d="M924.051 358.466s.765 13.922-8.093 24.484c-7.98 9.182-22.445 10.972-28.353 11.316a13.994 13.994 0 0 1-4.513-.543 2.681 2.681 0 0 1-1.6-2.252 3 3 0 0 1 2.117-2.516c-1.6-.151-2.825-.924-3.032-2.081-.195-1.084.549-2.224 1.815-3.021l-.12-.305a2.592 2.592 0 0 1-2.472-1.448 3.191 3.191 0 0 1 1.14-3.233 97.427 97.427 0 0 0 2.252-2.9 13 13 0 0 1 .984-1.339v-.005q.506-.7 1.049-1.476l.092-.133c6.323-10.032 14.25-40.007 14.25-40.007.08-.553.147-1.071.193-1.529" transform="translate(-58.534 -34.973)"/>
        <path id="패스_5144" data-name="패스 5144" class="cls-13" d="M738.078 415.566a90.851 90.851 0 0 0 15.07-1.4c.424-.068.84-.143 1.235-.222a33.635 33.635 0 0 0 3.42-.879 4.2 4.2 0 0 0 2.481-1.877 2.121 2.121 0 0 0 .113-1.218 2.4 2.4 0 0 0-1.713-1.73 2.661 2.661 0 0 0 1.848-2.864 2.678 2.678 0 0 0-2.849-1.882 2.383 2.383 0 0 0 .871-2.266 2.127 2.127 0 0 0-.595-1.074 4.227 4.227 0 0 0-3.029-.725 34.35 34.35 0 0 0-3.486.566c-.393.088-.8.184-1.221.293a90.622 90.622 0 0 0-14.366 4.75" transform="translate(-20.83 -52.772)"/>
        <path id="패스_5145" data-name="패스 5145" class="cls-3" d="M738.078 415.566a90.851 90.851 0 0 0 15.07-1.4c.424-.068.84-.143 1.235-.222a33.635 33.635 0 0 0 3.42-.879 4.2 4.2 0 0 0 2.481-1.877 2.121 2.121 0 0 0 .113-1.218 2.4 2.4 0 0 0-1.713-1.73 2.661 2.661 0 0 0 1.848-2.864s0 0 0 0v0a2.678 2.678 0 0 0-2.849-1.882 2.383 2.383 0 0 0 .871-2.266 2.127 2.127 0 0 0-.595-1.074 4.227 4.227 0 0 0-3.029-.725 34.35 34.35 0 0 0-3.486.566c-.393.088-.8.184-1.221.293h0a90.622 90.622 0 0 0-14.366 4.75" transform="translate(-20.83 -52.772)"/>
        <path id="패스_5146" data-name="패스 5146" class="cls-8" d="M760.172 413.89c1.33-.28 2.451-.6 3.178-.827a4.2 4.2 0 0 0 2.48-1.877 2.123 2.123 0 0 0 .113-1.219 2.4 2.4 0 0 0-1.713-1.73 2.661 2.661 0 0 0 1.848-2.864 2.679 2.679 0 0 0-2.848-1.883 2.382 2.382 0 0 0 .87-2.266 2.124 2.124 0 0 0-.594-1.072 4.23 4.23 0 0 0-3.029-.726c-.751.082-1.9.236-3.212.51a20.563 20.563 0 0 0 2.907 13.959" transform="translate(-26.378 -52.772)"/>
        <path id="패스_5147" data-name="패스 5147" class="cls-3" d="M760.172 413.89c1.33-.28 2.451-.6 3.178-.827a4.2 4.2 0 0 0 2.48-1.877 2.123 2.123 0 0 0 .113-1.219 2.4 2.4 0 0 0-1.713-1.73 2.661 2.661 0 0 0 1.848-2.864s0 0 0 0v0a2.679 2.679 0 0 0-2.848-1.883 2.382 2.382 0 0 0 .87-2.266 2.124 2.124 0 0 0-.594-1.072 4.23 4.23 0 0 0-3.029-.726c-.751.082-1.9.236-3.212.51a20.563 20.563 0 0 0 2.907 13.959z" transform="translate(-26.378 -52.772)"/>
        <path id="패스_5148" data-name="패스 5148" class="cls-3" d="M875.282 266.935c-2.828-5.649-8.49-5.544-11.379-5.063l-.481.142c-.406.089-.841.176-1.3.273h0a130.224 130.224 0 0 1-50.8 0h0c-.461-.1-.9-.185-1.3-.273l-.482-.142c-2.888-.481-8.552-.586-11.379 5.063 0 0-4.74 10.694 7.264 18.273a45.475 45.475 0 0 0 6.014 2.958h0c6.071 2.61 14.265 4.448 25.286 4.378 11.019.07 19.211-1.768 25.283-4.378h0a45.505 45.505 0 0 0 6.014-2.958c12.002-7.58 7.26-18.273 7.26-18.273z" transform="translate(-36.921 -16.68)"/>
        <path id="패스_5149" data-name="패스 5149" class="cls-21" d="M947.755 402.956c0 16.488-15.536 29.859-34.7 29.859s-34.707-13.371-34.707-29.859 15.539-29.866 34.707-29.866 34.7 13.369 34.7 29.866" transform="translate(-58.185 -45.877)"/>
        <path id="패스_5150" data-name="패스 5150" class="cls-3" d="M947.755 402.956c0 16.488-15.536 29.859-34.7 29.859s-34.707-13.371-34.707-29.859 15.539-29.866 34.707-29.866 34.7 13.369 34.7 29.866z" transform="translate(-58.185 -45.877)"/>
        <path id="패스_5151" data-name="패스 5151" class="cls-22" d="M913.25 429.635c-16.635 0-30.488-10.17-33.531-23.632a25.229 25.229 0 0 0-.624 5.578c0 16.127 15.291 29.2 34.155 29.2s34.148-13.075 34.148-29.2a25.276 25.276 0 0 0-.623-5.578c-3.043 13.462-16.892 23.632-33.525 23.632" transform="translate(-58.381 -54.502)"/>
        <path id="패스_5152" data-name="패스 5152" class="cls-3" d="M940.806 426.332s-2.629-4.744 1.892-7.968" transform="translate(-74.352 -57.741)"/>
        <path id="패스_5153" data-name="패스 5153" class="cls-3" d="M908.189 426.332s2.628-4.744-1.892-7.968" transform="translate(-65.503 -57.741)"/>
        <path id="패스_5154" data-name="패스 5154" class="cls-3" d="M932.145 423.135s-11.438-3.984-22.254 0" transform="translate(-66.451 -58.527)"/>
        <path id="패스_5155" data-name="패스 5155" class="cls-14" d="M956.531 404.1a1.3 1.3 0 1 0 1.3-1.3 1.3 1.3 0 0 0-1.3 1.3" transform="translate(-78.672 -53.664)"/>
        <path id="패스_5156" data-name="패스 5156" class="cls-14" d="M954.133 407.954a.791.791 0 1 0 .79-.791.79.79 0 0 0-.79.791" transform="translate(-78.044 -54.806)"/>
        <path id="패스_5157" data-name="패스 5157" class="cls-14" d="M960.307 409.126a.893.893 0 1 0 .893-.891.894.894 0 0 0-.893.891" transform="translate(-79.661 -55.086)"/>
        <path id="패스_5158" data-name="패스 5158" class="cls-14" d="M892.847 404.1a1.3 1.3 0 1 1-1.3-1.3 1.3 1.3 0 0 1 1.3 1.3" transform="translate(-61.298 -53.664)"/>
        <path id="패스_5159" data-name="패스 5159" class="cls-14" d="M895.606 407.954a.792.792 0 1 1-.79-.791.79.79 0 0 1 .79.791" transform="translate(-62.286 -54.806)"/>
        <path id="패스_5160" data-name="패스 5160" class="cls-14" d="M889.36 409.126a.893.893 0 1 1-.894-.891.894.894 0 0 1 .894.891" transform="translate(-60.596 -55.086)"/>
        <path id="패스_5161" data-name="패스 5161" class="cls-22" d="M917.793 451.81c-.005 1.2.02 2.447.044 3.678.119 5.983.212 10.708-2.435 13.055a4.909 4.909 0 0 1-4.014 1.157 3.018 3.018 0 0 1 .08-5.987c.463-1.556.381-5.591.331-8.1-.043-2.193-.086-4.44.028-6.521" transform="translate(-66.158 -65.791)"/>
        <path id="패스_5162" data-name="패스 5162" class="cls-3" d="M917.793 451.81c-.005 1.2.02 2.447.044 3.678.119 5.983.212 10.708-2.435 13.055a4.909 4.909 0 0 1-4.014 1.157 3.018 3.018 0 0 1 .08-5.987c.463-1.556.381-5.591.331-8.1-.043-2.193-.086-4.44.028-6.521" transform="translate(-66.158 -65.791)"/>
        <path id="패스_5163" data-name="패스 5163" class="cls-4" d="M911.311 468.751a3.018 3.018 0 0 0-.29 5.93 4.9 4.9 0 0 0 4.1-.791 5.381 5.381 0 0 0 .8-.739 7.374 7.374 0 0 0-4.609-4.4" transform="translate(-66.131 -70.944)"/>
        <path id="패스_5164" data-name="패스 5164" class="cls-3" d="M911.311 468.751a3.018 3.018 0 0 0-.29 5.93 4.9 4.9 0 0 0 4.1-.791 5.381 5.381 0 0 0 .8-.739 7.374 7.374 0 0 0-4.61-4.4z" transform="translate(-66.131 -70.944)"/>
        <path id="패스_5165" data-name="패스 5165" class="cls-22" d="M927.893 451.81c.006 1.2-.019 2.447-.044 3.678-.119 5.983-.214 10.708 2.435 13.055a4.9 4.9 0 0 0 4.016 1.157 3.018 3.018 0 0 0-.077-5.987c-.463-1.556-.383-5.591-.333-8.1.043-2.193.088-4.44-.028-6.521" transform="translate(-71.144 -65.791)"/>
        <path id="패스_5166" data-name="패스 5166" class="cls-3" d="M927.893 451.81c.006 1.2-.019 2.447-.044 3.678-.119 5.983-.214 10.708 2.435 13.055a4.9 4.9 0 0 0 4.016 1.157 3.018 3.018 0 0 0-.077-5.987c-.463-1.556-.383-5.591-.333-8.1.043-2.193.088-4.44-.028-6.521" transform="translate(-71.144 -65.791)"/>
        <path id="패스_5167" data-name="패스 5167" class="cls-4" d="M935.038 468.751a3.018 3.018 0 0 1 .289 5.93 4.906 4.906 0 0 1-4.1-.791 5.383 5.383 0 0 1-.8-.739 7.374 7.374 0 0 1 4.61-4.4" transform="translate(-71.832 -70.944)"/>
        <path id="패스_5168" data-name="패스 5168" class="cls-3" d="M935.038 468.751a3.018 3.018 0 0 1 .289 5.93 4.906 4.906 0 0 1-4.1-.791 5.383 5.383 0 0 1-.8-.739 7.374 7.374 0 0 1 4.611-4.4z" transform="translate(-71.832 -70.944)"/>
        <path id="패스_5169" data-name="패스 5169" class="cls-22" d="M962.164 435.357a9.9 9.9 0 0 1 5.2 7.871 55.358 55.358 0 0 1-.3 7.973c-.494 5.964-.882 10.675 1.613 13.182a4.9 4.9 0 0 0 3.931 1.406 3.018 3.018 0 0 0 .3-5.98c-.366-1.581-.033-5.6.175-8.11a59.3 59.3 0 0 0 .3-8.938 15.912 15.912 0 0 0-7.823-12.418" transform="translate(-80.148 -60.879)"/>
        <path id="패스_5170" data-name="패스 5170" class="cls-4" d="M975.271 470.559a3.018 3.018 0 0 1-.618 5.9 4.9 4.9 0 0 1-3.933-1.407 5.282 5.282 0 0 1-.677-.852 7.379 7.379 0 0 1 5.228-3.645" transform="translate(-82.213 -71.418)"/>
        <path id="패스_5171" data-name="패스 5171" class="cls-3" d="M975.271 470.559a3.018 3.018 0 0 1-.618 5.9 4.9 4.9 0 0 1-3.933-1.407 5.282 5.282 0 0 1-.677-.852 7.379 7.379 0 0 1 5.228-3.641z" transform="translate(-82.213 -71.418)"/>
        <path id="패스_5172" data-name="패스 5172" class="cls-3" d="M962.15 435.357a9.894 9.894 0 0 1 5.2 7.871 55.278 55.278 0 0 1-.3 7.973c-.491 5.964-.883 10.675 1.615 13.182a4.9 4.9 0 0 0 3.932 1.406 3.018 3.018 0 0 0 .3-5.98c-.365-1.581-.032-5.6.174-8.11a58.838 58.838 0 0 0 .306-8.938 15.913 15.913 0 0 0-7.823-12.418" transform="translate(-80.144 -60.879)"/>
        <path id="패스_5173" data-name="패스 5173" class="cls-22" d="M883.9 435.357a9.9 9.9 0 0 0-5.206 7.871 55.731 55.731 0 0 0 .3 7.973c.493 5.964.883 10.675-1.613 13.182a4.9 4.9 0 0 1-3.932 1.406 3.018 3.018 0 0 1-.3-5.98c.365-1.581.033-5.6-.174-8.11a59.106 59.106 0 0 1-.3-8.938 15.911 15.911 0 0 1 7.822-12.418" transform="translate(-56.166 -60.879)"/>
        <path id="패스_5174" data-name="패스 5174" class="cls-4" d="M872.87 470.559a3.018 3.018 0 0 0 .618 5.9 4.908 4.908 0 0 0 3.932-1.407 5.239 5.239 0 0 0 .677-.852 7.378 7.378 0 0 0-5.227-3.645" transform="translate(-56.174 -71.418)"/>
        <path id="패스_5175" data-name="패스 5175" class="cls-3" d="M872.87 470.559a3.018 3.018 0 0 0 .618 5.9 4.908 4.908 0 0 0 3.932-1.407 5.239 5.239 0 0 0 .677-.852 7.378 7.378 0 0 0-5.227-3.641z" transform="translate(-56.174 -71.418)"/>
        <path id="패스_5176" data-name="패스 5176" class="cls-3" d="M883.915 435.357a9.9 9.9 0 0 0-5.2 7.871 55.3 55.3 0 0 0 .3 7.973c.491 5.964.882 10.675-1.615 13.182a4.9 4.9 0 0 1-3.932 1.406 3.018 3.018 0 0 1-.3-5.98c.365-1.581.033-5.6-.173-8.11a59.219 59.219 0 0 1-.3-8.938 15.911 15.911 0 0 1 7.823-12.418" transform="translate(-56.169 -60.879)"/>
        <path id="패스_5177" data-name="패스 5177" class="cls-21" d="M961.207 389.465a5.017 5.017 0 0 0-.885-5.736l.346.344a5.025 5.025 0 0 0-5.74-.886" transform="translate(-78.252 -48.382)"/>
        <path id="패스_5178" data-name="패스 5178" class="cls-3" d="M961.207 389.465a5.017 5.017 0 0 0-.885-5.736l.346.344a5.025 5.025 0 0 0-5.74-.886" transform="translate(-78.252 -48.382)"/>
        <path id="패스_5179" data-name="패스 5179" class="cls-21" d="M887.466 389.465a5.017 5.017 0 0 1 .887-5.736l-.345.344a5.025 5.025 0 0 1 5.739-.886" transform="translate(-60.427 -48.382)"/>
        <path id="패스_5180" data-name="패스 5180" class="cls-3" d="M887.466 389.465a5.017 5.017 0 0 1 .887-5.736l-.345.344a5.025 5.025 0 0 1 5.739-.886" transform="translate(-60.427 -48.382)"/>
        <path id="패스_5181" data-name="패스 5181" class="cls-21" d="M927.307 373.609a5.022 5.022 0 0 0-4.685-3.429h.489a5.019 5.019 0 0 0-4.684 3.429" transform="translate(-68.687 -45.115)"/>
        <path id="패스_5182" data-name="패스 5182" class="cls-3" d="M927.307 373.609a5.022 5.022 0 0 0-4.685-3.429h.489a5.019 5.019 0 0 0-4.684 3.429" transform="translate(-68.687 -45.115)"/>
        <path id="패스_5183" data-name="패스 5183" class="cls-14" d="M927.535 408.58c0 1.741-1.742 3.152-3.89 3.152s-3.889-1.411-3.889-3.152 1.741-3.153 3.889-3.153 3.89 1.412 3.89 3.153" transform="translate(-69.036 -54.351)"/>
        <path id="패스_5184" data-name="패스 5184" class="cls-3" d="M927.535 408.58c0 1.741-1.742 3.152-3.89 3.152s-3.889-1.411-3.889-3.152 1.741-3.153 3.889-3.153 3.89 1.412 3.89 3.153z" transform="translate(-69.036 -54.351)"/>
        <path id="패스_5185" data-name="패스 5185" class="cls-4" d="M923.638 409.376a.914.914 0 1 1-.914-.912.915.915 0 0 1 .914.912" transform="translate(-69.574 -55.146)"/>
        <path id="패스_5186" data-name="패스 5186" class="cls-4" d="M927.613 409.376a.914.914 0 1 1-.914-.912.915.915 0 0 1 .914.912" transform="translate(-70.615 -55.146)"/>
        <path id="패스_5187" data-name="패스 5187" class="cls-4" d="M900.431 398.339a2.641 2.641 0 0 1-2.163-4.155 11.123 11.123 0 0 1 12.569-3.76 2.636 2.636 0 0 1-1.543 5.041c-4.308-1.317-6.479 1.432-6.712 1.749a2.6 2.6 0 0 1-2.151 1.125" transform="translate(-63.276 -50.261)"/>
        <path id="패스_5188" data-name="패스 5188" class="cls-4" d="M943.573 398.339a2.642 2.642 0 0 0 2.167-4.155 11.126 11.126 0 0 0-12.571-3.76 2.636 2.636 0 1 0 1.543 5.041c4.309-1.317 6.479 1.432 6.712 1.749a2.607 2.607 0 0 0 2.149 1.125" transform="translate(-72.061 -50.261)"/>
        <path id="패스_5189" data-name="패스 5189" class="cls-6" d="M913.728 399.855a5.951 5.951 0 1 1-5.95-5.95 5.95 5.95 0 0 1 5.95 5.95" transform="translate(-64.333 -51.332)"/>
        <path id="패스_5190" data-name="패스 5190" class="cls-3" d="M913.728 399.855a5.951 5.951 0 1 1-5.95-5.95 5.95 5.95 0 0 1 5.95 5.95z" transform="translate(-64.333 -51.332)"/>
        <path id="패스_5191" data-name="패스 5191" class="cls-4" d="M910.691 401.529a1.241 1.241 0 1 1-1.241-1.243 1.241 1.241 0 0 1 1.241 1.243" transform="translate(-66.005 -53.004)"/>
        <path id="패스_5192" data-name="패스 5192" class="cls-6" d="M943.653 399.855a5.951 5.951 0 1 1-5.95-5.95 5.95 5.95 0 0 1 5.95 5.95" transform="translate(-72.179 -51.332)"/>
        <path id="패스_5193" data-name="패스 5193" class="cls-3" d="M943.653 399.855a5.951 5.951 0 1 1-5.95-5.95 5.95 5.95 0 0 1 5.95 5.95z" transform="translate(-72.179 -51.332)"/>
        <path id="패스_5194" data-name="패스 5194" class="cls-4" d="M941.023 401.529a1.242 1.242 0 1 1-1.244-1.243 1.242 1.242 0 0 1 1.244 1.243" transform="translate(-73.958 -53.004)"/>
    </g>
</svg>
