<svg id="logo_sangsangkids" xmlns="http://www.w3.org/2000/svg" width="92" height="44" viewBox="0 0 92 44">
    <defs>
        <style>
            .cls-2{fill:#da0050}.cls-3{fill:#312169}.cls-4{fill:#e4536f}.cls-5{fill:#831371}.cls-6{fill:#536a75}
        </style>
    </defs>
    <path id="사각형_2820" data-name="사각형 2820" style="fill:none" d="M0 0h92v44H0z"/>
    <g id="logo" transform="translate(-154 -33.231)">
        <g id="그룹_10" data-name="그룹 10" transform="translate(154 34)">
            <path id="패스_1" data-name="패스 1" class="cls-2" d="M-208.728 39.783a10.31 10.31 0 0 0-2.984-2.96c-4.568-2.934-9.44-2.965-14.227-8.436v15.331a6.416 6.416 0 0 0 2.978 5.795c4.7 2.819 10.938 5.3 14.233 9.108z" transform="translate(283.28 -16.159)"/>
            <path id="패스_2" data-name="패스 2" class="cls-3" d="M-174.985 39.783a10.308 10.308 0 0 1 2.985-2.96c4.568-2.934 9.44-2.965 14.228-8.436v15.331a6.418 6.418 0 0 1-2.978 5.795c-4.7 2.819-10.938 5.3-14.233 9.108z" transform="translate(249.774 -16.159)"/>
            <path id="패스_3" data-name="패스 3" class="cls-4" d="M-144.254 15.294s-.482-3.075-2.61-1.884c-2.292 1.282-.543 6.729-.543 6.729s5.693-.612 5.936-3.225c.226-2.427-2.783-1.62-2.783-1.62" transform="translate(231.934 -5.453)"/>
            <path id="패스_4" data-name="패스 4" class="cls-4" d="M-175.665 44.143a1.307 1.307 0 0 0-1.278-1.335 1.307 1.307 0 0 0-1.337 1.277A1.307 1.307 0 0 0-177 45.42a1.308 1.308 0 0 0 1.337-1.277" transform="translate(251.776 -25.275)"/>
            <path id="패스_5" data-name="패스 5" class="cls-3" d="M-166.993 31.611a2.113 2.113 0 0 1 2.161-2.064 2.114 2.114 0 0 1 2.067 2.158 2.114 2.114 0 0 1-2.161 2.065 2.113 2.113 0 0 1-2.067-2.159" transform="translate(244.482 -16.418)"/>
            <path id="패스_6" data-name="패스 6" class="cls-3" d="M-195.5 31.611a2.113 2.113 0 0 1 2.161-2.064 2.113 2.113 0 0 1 2.067 2.158 2.114 2.114 0 0 1-2.16 2.065 2.114 2.114 0 0 1-2.068-2.159" transform="translate(263.125 -16.418)"/>
            <path id="패스_7" data-name="패스 7" class="cls-4" d="M-185.738 3.17s3.133-2.408 4.571-8.01c.637-2.485 2.431-2.224 3.524-1.629 1.691.92 3.565 6.043-8.1 9.639" transform="translate(256.895 7.963)"/>
            <path id="패스_8" data-name="패스 8" class="cls-4" d="m-216.88 17.343.548 1.183a.47.47 0 0 0 .347.265l1.286.219a.469.469 0 0 1 .241.807l-.956.886a.469.469 0 0 0-.145.412l.188 1.29a.47.47 0 0 1-.694.477l-1.14-.635a.472.472 0 0 0-.437-.01l-1.169.578a.47.47 0 0 1-.669-.512l.252-1.279a.468.468 0 0 0-.125-.419l-.911-.933a.469.469 0 0 1 .28-.794l1.3-.155a.47.47 0 0 0 .36-.248l.606-1.155a.47.47 0 0 1 .842.021" transform="translate(279.531 -8.081)"/>
            <path id="패스_9" data-name="패스 9" class="cls-5" d="M-201.105-6.352a9.969 9.969 0 0 0-2.214 3.559 26.784 26.784 0 0 1 5.07-3.659c-5.136 3.075-5.678 6.439-5.678 6.439s4.325-.195 7.046-2.982 2.81-7.112 2.81-7.112a16.08 16.08 0 0 0-7.035 3.754" transform="translate(268.726 10.106)"/>
            <path id="패스_10" data-name="패스 10" class="cls-5" d="M-156.179 4.237c-.546 1.48-1.2 3.134-1.694 4.63-.284.858-.612.575-1.393.376-.671-.171-.463-.659-.354-1.1.5-2 .978-4.007 1.495-6 .23-.888.491-.924 1.784-.575.769.207.827.683.567 1.5-.146.459-.39 1.174-.405 1.17" transform="translate(239.677 2.513)"/>
            <path id="패스_11" data-name="패스 11" class="cls-3" d="M-343.427 49.849a2.236 2.236 0 0 1 1.759 2.588 2.1 2.1 0 0 1-1.583 1.926 2.53 2.53 0 0 1-2.749-.644 2.329 2.329 0 0 1-.373-2.547 2.119 2.119 0 0 1 1.93-1.381 3.9 3.9 0 0 1 1.011.058" transform="translate(362.579 -29.957)"/>
            <path id="패스_12" data-name="패스 12" class="cls-3" d="m-379.59 72.677-4.888 2.409c-.3-.609-.562-1.168-.837-1.722q-1.132-2.281-2.27-4.56c-.077-.155-.386-.556-.4-.209v5.884h-5.415V57.731h5.407v.38c0 1.895 0 3.789.005 5.683-.006.445.128.445.207.313l3.486-6.612 5.33 2.439c-.134.2-.259.391-.383.58-1.219 1.858-2.435 3.72-3.664 5.572-.135.2-.066.323.031.5q1.679 2.973 3.342 5.953a.852.852 0 0 1 .047.141" transform="translate(393.398 -35.435)"/>
            <path id="패스_13" data-name="패스 13" class="cls-3" d="M-312.55 74.954h-4.643l-.076-1.015a5.1 5.1 0 0 1-2.532 1.2 6.826 6.826 0 0 1-3.847-.528 5.939 5.939 0 0 1-3.192-3.827 9.5 9.5 0 0 1 .1-6.063 5.5 5.5 0 0 1 4.586-3.959 5.813 5.813 0 0 1 3.872.671 7.913 7.913 0 0 1 .808.628V58.19h4.922zm-4.894-8.285a1.308 1.308 0 0 0-.386-1.016 2.581 2.581 0 0 0-4.358.6 4.247 4.247 0 0 0-.21 2.773 2.73 2.73 0 0 0 4.574 1.445.941.941 0 0 0 .38-.833z" transform="translate(349.914 -35.895)"/>
            <path id="패스_14" data-name="패스 14" class="cls-3" d="m-278.449 76.9 3.15-2.17a4.019 4.019 0 0 0 2.517 1.622 2.7 2.7 0 0 0 .919.055.9.9 0 0 0 .881-.641c.031-.328-.118-.537-.547-.7-1.164-.434-2.333-.856-3.5-1.285a5.367 5.367 0 0 1-2.078-1.23 3.44 3.44 0 0 1-.706-3.605 4.151 4.151 0 0 1 2.7-2.8 7.5 7.5 0 0 1 6.27.281 4.718 4.718 0 0 1 2.416 2.77l-3.107 1.815a9.288 9.288 0 0 0-.748-.914 2.75 2.75 0 0 0-2.822-.63.662.662 0 0 0-.491.607.764.764 0 0 0 .562.689c.99.359 1.85.653 2.84 1.014.6.221 1.215.432 1.8.7a3.354 3.354 0 0 1 1.8 4.51 4.269 4.269 0 0 1-2.835 2.721 8.119 8.119 0 0 1-6.356-.374 7.277 7.277 0 0 1-2.665-2.438" transform="translate(317.775 -40.798)"/>
            <path id="사각형_518" data-name="사각형 518" class="cls-3" transform="translate(16.052 25.57)" d="M0 0h4.895v13.476H0z"/>
            <path id="패스_15" data-name="패스 15" class="cls-6" d="M-364.24 27.655h1.146v3.139h2.643v.98h-7.327v-.98h1.421v-3.139h1.146v3.139h.972z" transform="translate(376.432 -15.153)"/>
            <path id="패스_16" data-name="패스 16" class="cls-6" d="M-360.968 24.233h1.2v-4.768h-6.268v.979h5.067z" transform="translate(375.278 -9.677)"/>
            <path id="패스_17" data-name="패스 17" class="cls-6" d="M-378.626 19.177v2.346h-.8v-2.346h-1.155v7.577h1.155v-4.2h.8v4.2h1.147v-7.577z" transform="translate(384.908 -9.5)"/>
            <path id="패스_18" data-name="패스 18" class="cls-6" d="M-389.864 24.363h-2.073a.26.26 0 0 1-.26-.26v-3.531h2.333v-.979h-3.536v4.8a.951.951 0 0 0 .951.95h2.584z" transform="translate(393.398 -9.768)"/>
            <path id="패스_19" data-name="패스 19" class="cls-2" d="M-312.12 32.129a4.078 4.078 0 0 0-1.355-.723 5.134 5.134 0 0 0-1.56-.241 5.116 5.116 0 0 0-1.643.259 4.142 4.142 0 0 0-1.346.742 3.486 3.486 0 0 0-.91 1.178 3.617 3.617 0 0 0-.334 1.585 3.607 3.607 0 0 0 .352 1.632 3.52 3.52 0 0 0 .938 1.178 4.083 4.083 0 0 0 1.346.713 5.182 5.182 0 0 0 1.578.242 5.279 5.279 0 0 0 1.643-.251 4 4 0 0 0 1.345-.732 3.487 3.487 0 0 0 .91-1.177 3.617 3.617 0 0 0 .334-1.586 3.6 3.6 0 0 0-.353-1.632 3.574 3.574 0 0 0-.946-1.187m-1.827 3.816a1.619 1.619 0 0 1-1.109.373 1.484 1.484 0 0 1-1.1-.412 1.249 1.249 0 0 1-.368-.935 1.338 1.338 0 0 1 .368-1.008 1.524 1.524 0 0 1 1.125-.422 1.563 1.563 0 0 1 1.089.383 1.313 1.313 0 0 1 .425 1.026 1.257 1.257 0 0 1-.425.994" transform="translate(344.614 -17.527)"/>
            <path id="패스_20" data-name="패스 20" class="cls-2" d="M-324.462 10.425a5.986 5.986 0 0 1-1.148-1.185 4.146 4.146 0 0 1-.634-1.325 5.76 5.76 0 0 1-.189-1.506V5.348a1.989 1.989 0 0 1 .1-.619.9.9 0 0 1 .306-.423h-2.628c-.248 0-.368.05-.462.183a.9.9 0 0 0-.1.511v1.39a5.607 5.607 0 0 1-.2 1.525 4.326 4.326 0 0 1-.634 1.315 5.737 5.737 0 0 1-1.14 1.167 10.447 10.447 0 0 1-1.652 1.034 2.982 2.982 0 0 0 .614.763 2.288 2.288 0 0 0 .638.386 2.528 2.528 0 0 0 1.27.037 3.339 3.339 0 0 0 1.39-.776 4.192 4.192 0 0 0 1.076-1.331l.076-.16.076.16a3.873 3.873 0 0 0 .942 1.277 4.483 4.483 0 0 0 1.366.846 1.885 1.885 0 0 0 .6.124 1.912 1.912 0 0 0 .693-.1 1.965 1.965 0 0 0 .694-.418 2.987 2.987 0 0 0 .59-.774 10.025 10.025 0 0 1-1.644-1.04z" transform="translate(353.551 .562)"/>
            <path id="패스_21" data-name="패스 21" class="cls-2" d="M-296.014 6.576h-2.29V4.184a1.547 1.547 0 0 1 .1-.555 1.112 1.112 0 0 1 .195-.319.424.424 0 0 1 .114-.1h-2.644a.485.485 0 0 0-.454.186.89.89 0 0 0-.111.508v7.547c0 .474.179.694.565.694h1.668c.385 0 .565-.221.565-.694V8.873h1.013a1.667 1.667 0 0 0 1-.194.748.748 0 0 0 .274-.7z" transform="translate(332.645 1.29)"/>
            <g id="그룹_9" data-name="그룹 9" transform="translate(36.735 4.497)">
                <path id="패스_22" data-name="패스 22" class="cls-2" d="M-265.37 32.129a4.077 4.077 0 0 0-1.355-.723 5.134 5.134 0 0 0-1.56-.241 5.117 5.117 0 0 0-1.643.259 4.143 4.143 0 0 0-1.346.742 3.487 3.487 0 0 0-.91 1.178 3.617 3.617 0 0 0-.334 1.585 3.607 3.607 0 0 0 .352 1.632 3.52 3.52 0 0 0 .938 1.178 4.082 4.082 0 0 0 1.346.713 5.183 5.183 0 0 0 1.578.242 5.279 5.279 0 0 0 1.643-.251 4 4 0 0 0 1.345-.732 3.488 3.488 0 0 0 .91-1.177 3.617 3.617 0 0 0 .334-1.586 3.6 3.6 0 0 0-.353-1.632 3.574 3.574 0 0 0-.946-1.187m-1.827 3.816a1.619 1.619 0 0 1-1.109.373 1.484 1.484 0 0 1-1.1-.412 1.249 1.249 0 0 1-.368-.935 1.338 1.338 0 0 1 .368-1.008 1.524 1.524 0 0 1 1.125-.422 1.564 1.564 0 0 1 1.089.383 1.313 1.313 0 0 1 .425 1.026 1.257 1.257 0 0 1-.425.994" transform="translate(277.102 -21.721)"/>
                <path id="패스_23" data-name="패스 23" class="cls-2" d="M-277.712 10.425a5.984 5.984 0 0 1-1.148-1.185 4.148 4.148 0 0 1-.634-1.325 5.761 5.761 0 0 1-.188-1.506V5.348a1.991 1.991 0 0 1 .1-.619.9.9 0 0 1 .306-.423h-2.624c-.248 0-.368.05-.462.183a.9.9 0 0 0-.1.511v1.39a5.607 5.607 0 0 1-.2 1.525 4.325 4.325 0 0 1-.638 1.315 5.734 5.734 0 0 1-1.14 1.167 10.446 10.446 0 0 1-1.652 1.034 2.98 2.98 0 0 0 .614.763 2.288 2.288 0 0 0 .638.386 2.528 2.528 0 0 0 1.27.037 3.34 3.34 0 0 0 1.39-.776 4.193 4.193 0 0 0 1.076-1.331l.076-.16.076.16a3.873 3.873 0 0 0 .942 1.277 4.483 4.483 0 0 0 1.366.846 1.885 1.885 0 0 0 .605.124 1.913 1.913 0 0 0 .693-.1 1.966 1.966 0 0 0 .693-.418 2.987 2.987 0 0 0 .59-.774 10.021 10.021 0 0 1-1.649-1.04z" transform="translate(286.09 -3.935)"/>
                <path id="패스_24" data-name="패스 24" class="cls-2" d="M-249.264 6.576h-2.29V4.184a1.547 1.547 0 0 1 .1-.555 1.112 1.112 0 0 1 .195-.319.426.426 0 0 1 .114-.1h-2.644a.485.485 0 0 0-.454.186.89.89 0 0 0-.111.508v7.547c0 .474.179.694.565.694h1.668c.385 0 .565-.221.565-.694V8.873h1.013a1.666 1.666 0 0 0 1-.194.748.748 0 0 0 .274-.7z" transform="translate(265.072 -3.207)"/>
            </g>
        </g>
    </g>
</svg>
