<?xml version="1.0" encoding="UTF-8"?>
<svg width="20px" height="15px" viewBox="0 0 20 15" version="1.1" xmlns="http://www.w3.org/2000/svg" xmlns:xlink="http://www.w3.org/1999/xlink">
    <!-- Generator: Sketch 53.2 (72643) - https://sketchapp.com -->
    <title>ico_data_service</title>
    <desc>Created with Sketch.</desc>
    <defs>
        <polygon id="path-1" points="0.0914025974 0.0496103896 9.28088312 0.0496103896 9.28088312 12.0985195 0.0914025974 12.0985195"></polygon>
    </defs>
    <g id="Page-1" stroke="none" stroke-width="1" fill="none" fill-rule="evenodd">
        <g id="new_console_menu_icons_puble" transform="translate(-19.000000, -532.000000)">
            <g id="ico_data_service" transform="translate(19.000000, 532.000000)">
                <g id="Group-3" transform="translate(3.636364, 0.080260)">
                    <mask id="mask-2" fill="white">
                        <use xlink:href="#path-1"></use>
                    </mask>
                    <g id="Clip-2"></g>
                    <path d="M0.705688312,11.4843636 L0.705688312,0.664103896 L6.71244156,0.664103896 L6.71244156,2.31033766 C6.71244156,2.4805974 6.85127273,2.61696104 7.02023377,2.61696104 L8.66672727,2.61696104 L8.66672727,11.4843636 L0.705688312,11.4843636 Z M8.23179221,2.00397403 L7.32672727,2.00397403 L7.32672727,1.09890909 L8.23179221,2.00397403 Z M9.27438961,2.25020779 L9.27438961,2.25020779 C9.26919481,2.22384416 9.25997403,2.19916883 9.24815584,2.17553247 C9.24568831,2.17020779 9.24166234,2.16358442 9.23906494,2.15838961 C9.22594805,2.13488312 9.20893506,2.11267532 9.19062338,2.09306494 L7.23776623,0.139948052 C7.21815584,0.120467532 7.19581818,0.106051948 7.17218182,0.0929350649 C7.16568831,0.0889090909 7.16036364,0.0851428571 7.15516883,0.0825454545 C7.13023377,0.0705974026 7.10672727,0.0613766234 7.08049351,0.0561818182 L7.07906494,0.0561818182 C7.05958442,0.0524155844 7.03984416,0.0495584416 7.02023377,0.0495584416 L0.399194805,0.0495584416 C0.230233766,0.0495584416 0.0914025974,0.187220779 0.0914025974,0.357350649 L0.0914025974,11.7907273 C0.0914025974,11.9611169 0.230233766,12.0985195 0.399194805,12.0985195 L8.97322078,12.0985195 C9.14348052,12.0985195 9.28088312,11.9611169 9.28088312,11.7907273 L9.28088312,2.31033766 C9.28088312,2.29072727 9.27841558,2.27124675 9.27438961,2.25020779 L9.27438961,2.25020779 Z" id="Fill-1" fill="#344154" mask="url(#mask-2)"></path>
                </g>
                <path d="M14.2480779,4.42874026 L12.9172987,4.42874026 L12.9172987,5.04432468 L13.9402857,5.04432468 L13.9402857,11.5645844 L12.9172987,11.5645844 L12.9172987,11.8710779 C12.9172987,12.0413377 12.7797662,12.1788701 12.6096364,12.1788701 L14.2480779,12.1788701 C14.4184675,12.1788701 14.5545714,12.0413377 14.5545714,11.8710779 L14.5545714,4.73653247 C14.5545714,4.5664026 14.4184675,4.42874026 14.2480779,4.42874026" id="Fill-4" fill="#344154"></path>
                <path d="M15.8854026,5.8472987 L14.5546234,5.8472987 L14.5546234,6.46145455 L15.5789091,6.46145455 L15.5789091,11.5645714 L14.5546234,11.5645714 L14.5546234,11.8710649 C14.5546234,12.0413247 14.4183896,12.1788571 14.2481299,12.1788571 L15.8854026,12.1788571 C16.0557922,12.1788571 16.1931948,12.0413247 16.1931948,11.8710649 L16.1931948,6.15379221 C16.1931948,5.98496104 16.0557922,5.8472987 15.8854026,5.8472987" id="Fill-6" fill="#344154"></path>
                <path d="M3.72771429,11.871039 L3.72771429,11.5646753 L2.91836364,11.5646753 L2.91836364,3.40987013 C2.91836364,3.30493506 3.03485714,3.21571429 3.17238961,3.21571429 L3.72771429,3.21571429 L3.72771429,2.60155844 L3.17238961,2.60155844 C2.69433766,2.60155844 2.30394805,2.96441558 2.30394805,3.40987013 L2.30394805,11.871039 C2.30394805,12.0414286 2.44148052,12.1788312 2.61044156,12.1788312 L4.03550649,12.1788312 C3.86654545,12.1788312 3.72771429,12.0414286 3.72771429,11.871039" id="Fill-8" fill="#344154"></path>
                <path d="M16.9005195,2.60155844 L12.9172727,2.60155844 L12.9172727,3.21571429 L16.9005195,3.21571429 C17.0380519,3.21571429 17.1545455,3.30493506 17.1545455,3.40987013 L17.1545455,11.5646753 L12.9172727,11.5646753 L12.9172727,11.871039 C12.9172727,12.0414286 12.7798701,12.1788312 12.6096104,12.1788312 L17.4623377,12.1788312 C17.6314286,12.1788312 17.768961,12.0414286 17.768961,11.871039 L17.768961,3.40987013 C17.768961,2.96441558 17.3798701,2.60155844 16.9005195,2.60155844" id="Fill-10" fill="#344154"></path>
                <path d="M18.1224935,1.27863636 L11.9324935,1.27863636 L12.5454805,1.89292208 L18.1224935,1.89292208 C18.3191169,1.89292208 18.4775584,2.05149351 18.4775584,2.24668831 L18.4775584,11.7912338 C18.4775584,11.9864286 18.3191169,12.145 18.1224935,12.145 L12.747039,12.145 C12.7050909,12.1659091 12.6593766,12.1788961 12.6096364,12.1788961 L4.03548052,12.1788961 C3.98574026,12.1788961 3.9385974,12.1659091 3.89794805,12.145 L1.94898701,12.145 C1.75379221,12.145 1.59522078,11.9864286 1.59522078,11.7912338 L1.59522078,2.24668831 C1.59522078,2.05149351 1.75379221,1.89292208 1.94898701,1.89292208 L3.72768831,1.89292208 L3.72768831,1.27863636 L1.94898701,1.27863636 C1.41587013,1.27863636 0.981064935,1.71357143 0.981064935,2.24668831 L0.981064935,11.7912338 C0.981064935,12.3243506 1.41587013,12.7591558 1.94898701,12.7591558 L18.1224935,12.7591558 C18.6569091,12.7591558 19.0905455,12.3243506 19.0905455,11.7912338 L19.0905455,2.24668831 C19.0905455,1.71357143 18.6569091,1.27863636 18.1224935,1.27863636" id="Fill-12" fill="#344154"></path>
                <path d="M8.18109091,2.69718182 L5.37420779,2.69718182 C5.20511688,2.69718182 5.06901299,2.56081818 5.06901299,2.39068831 C5.06901299,2.2202987 5.20511688,2.08419481 5.37420779,2.08419481 L8.18109091,2.08419481 C8.35135065,2.08419481 8.48888312,2.2202987 8.48888312,2.39068831 C8.48888312,2.56081818 8.35135065,2.69718182 8.18109091,2.69718182" id="Fill-14" fill="#344154"></path>
                <path d="M11.2407792,4.33577922 L5.37415584,4.33577922 C5.20506494,4.33577922 5.06909091,4.19811688 5.06909091,4.02798701 C5.06909091,3.8588961 5.20506494,3.72149351 5.37415584,3.72149351 L11.2407792,3.72149351 C11.4097403,3.72149351 11.5472727,3.8588961 11.5472727,4.02798701 C11.5472727,4.19811688 11.4097403,4.33577922 11.2407792,4.33577922" id="Fill-16" fill="#344154"></path>
                <path d="M10.3737922,5.97437662 L5.37418182,5.97437662 C5.20509091,5.97437662 5.06898701,5.83671429 5.06898701,5.66658442 C5.06898701,5.49749351 5.20509091,5.35879221 5.37418182,5.35879221 L10.3737922,5.35879221 C10.5440519,5.35879221 10.6815844,5.49749351 10.6815844,5.66658442 C10.6815844,5.83671429 10.5440519,5.97437662 10.3737922,5.97437662" id="Fill-18" fill="#344154"></path>
                <path d="M11.2407792,7.61284416 L5.37415584,7.61284416 C5.20506494,7.61284416 5.06909091,7.47414286 5.06909091,7.30518182 C5.06909091,7.13479221 5.20506494,6.99738961 5.37415584,6.99738961 L11.2407792,6.99738961 C11.4097403,6.99738961 11.5472727,7.13479221 11.5472727,7.30518182 C11.5472727,7.47414286 11.4097403,7.61284416 11.2407792,7.61284416" id="Fill-20" fill="#344154"></path>
                <path d="M9.69133766,9.25016883 L5.37419481,9.25016883 C5.2051039,9.25016883 5.069,9.11263636 5.069,8.94250649 C5.069,8.77341558 5.2051039,8.63458442 5.37419481,8.63458442 L9.69133766,8.63458442 C9.86016883,8.63458442 9.99912987,8.77341558 9.99912987,8.94250649 C9.99912987,9.11263636 9.86016883,9.25016883 9.69133766,9.25016883" id="Fill-22" fill="#344154"></path>
                <path d="M19.3656494,13.6577662 C19.3656494,13.8528312 19.2057792,14.0114026 19.0107143,14.0114026 L0.967987013,14.0114026 C0.772792208,14.0114026 0.614220779,13.8528312 0.614220779,13.6577662 L0.614220779,13.0775065 C0.614220779,12.8823117 0.772792208,12.7238701 0.967987013,12.7238701 L7.69772727,12.7238701 L7.69772727,13.366987 C7.69772727,13.5371169 7.83538961,13.6747792 8.00551948,13.6747792 L11.9742208,13.6747792 C12.1433117,13.6747792 12.2807143,13.5371169 12.2807143,13.366987 L12.2807143,12.7238701 L19.0107143,12.7238701 C19.2057792,12.7238701 19.3656494,12.8823117 19.3656494,13.0775065 L19.3656494,13.6577662 Z M8.31214286,13.0603636 L11.6652597,13.0603636 L11.6652597,12.7237403 L8.31214286,12.7237403 L8.31214286,13.0603636 Z M19.0107143,12.1081558 L11.9742208,12.1081558 L8.00551948,12.1081558 L0.967987013,12.1081558 C0.433571429,12.1081558 6.49350649e-05,12.5443896 6.49350649e-05,13.0775065 L6.49350649e-05,13.6577662 C6.49350649e-05,14.1907532 0.433571429,14.6256883 0.967987013,14.6256883 L19.0107143,14.6256883 C19.5451299,14.6256883 19.9798052,14.1907532 19.9798052,13.6577662 L19.9798052,13.0775065 C19.9798052,12.5443896 19.5451299,12.1081558 19.0107143,12.1081558 L19.0107143,12.1081558 Z" id="Fill-24" fill="#344154"></path>
            </g>
        </g>
    </g>
</svg>