<?xml version="1.0" encoding="UTF-8"?>
<svg width="80px" height="45px" viewBox="0 0 80 45" version="1.1" xmlns="http://www.w3.org/2000/svg" xmlns:xlink="http://www.w3.org/1999/xlink">
    <!-- Generator: Sketch 53.2 (72643) - https://sketchapp.com -->
    <title>ico_layer4_minutes</title>
    <desc>Created with Sketch.</desc>
    <defs>
        <polygon id="path-1" points="0.0624592593 0.10557037 33.426963 0.10557037 33.426963 43.8516444 0.0624592593 43.8516444"></polygon>
    </defs>
    <g id="Page-1" stroke="none" stroke-width="1" fill="none" fill-rule="evenodd">
        <g id="Landing_8th" transform="translate(-683.000000, -542.000000)">
            <g id="ico_layer4_minutes" transform="translate(683.000000, 542.000000)">
                <polygon id="Fill-1" fill="#344154" points="32.8071704 8.10823704 36.0252444 8.10823704 36.7345778 7.39860741 35.7600593 6.42408889 31.1233185 6.42408889 31.1233185 12.4146074 32.8071704 12.4146074"></polygon>
                <polygon id="Fill-2" fill="#344154" points="37.1137185 8.10823704 36.0254222 8.10823704 34.6506074 9.48305185 35.4657185 10.2978667 38.3643852 7.39860741 35.4657185 4.49994074 34.6506074 5.31475556 35.760237 6.42408889 37.1137185 6.42408889"></polygon>
                <polygon id="Fill-3" fill="#344154" points="36.0253333 8.10823704 37.1136296 8.10823704 37.1136296 6.42408889 35.7601481 6.42408889 36.7346667 7.39860741"></polygon>
                <polygon id="Fill-4" fill="#7D71D1" points="13.6948148 37.9117037 16.4494815 37.9117037 16.4494815 5.67407407 13.6948148 5.67407407"></polygon>
                <polygon id="Fill-5" fill="#7D71D1" points="7.57007407 29.1191111 10.3262222 29.1191111 10.3262222 14.4666667 7.57007407 14.4666667"></polygon>
                <polygon id="Fill-6" fill="#7D71D1" points="19.8177778 29.1191111 22.5739259 29.1191111 22.5739259 14.4666667 19.8177778 14.4666667"></polygon>
                <polygon id="Fill-7" fill="#7D71D1" points="25.9425185 24.7235556 28.6986667 24.7235556 28.6986667 18.8619259 25.9425185 18.8619259"></polygon>
                <polygon id="Fill-8" fill="#7D71D1" points="31.2684444 23.8474074 33.7419259 23.8474074 33.7419259 20.6794074 31.2684444 20.6794074"></polygon>
                <polygon id="Fill-9" fill="#7D71D1" points="36.3117037 23.8474074 38.7851852 23.8474074 38.7851852 20.6794074 36.3117037 20.6794074"></polygon>
                <polygon id="Fill-10" fill="#7D71D1" points="0 23.8474074 2.47348148 23.8474074 2.47348148 20.6794074 0 20.6794074"></polygon>
                <g id="Group-24" transform="translate(46.518519, 0.190815)">
                    <g id="Group-13">
                        <mask id="mask-2" fill="white">
                            <use xlink:href="#path-1"></use>
                        </mask>
                        <g id="Clip-12"></g>
                        <path d="M2.29268148,41.6214222 L2.29268148,2.33608889 L24.1015704,2.33608889 L24.1015704,8.31386667 C24.1015704,8.93194074 24.6055704,9.42645926 25.2192,9.42645926 L31.1966815,9.42645926 L31.1966815,41.6214222 L2.29268148,41.6214222 Z M29.6180148,7.20097778 L26.3317926,7.20097778 L26.3317926,3.91505185 L29.6180148,7.20097778 Z M33.4034963,8.0952 L33.4034963,8.0952 C33.3848296,7.9994963 33.3510519,7.90971852 33.3083852,7.82408889 C33.2989037,7.80482963 33.2843852,7.78112593 33.2752,7.76216296 C33.2274963,7.67653333 33.1655704,7.59534815 33.0994963,7.52453333 L26.0088296,0.43357037 C25.9374222,0.362459259 25.8565333,0.310014815 25.7709037,0.262607407 C25.7472,0.248088889 25.728237,0.233866667 25.7089778,0.224681481 C25.6186074,0.182014815 25.5332741,0.148237037 25.4378667,0.129274074 L25.4331259,0.129274074 C25.3617185,0.115051852 25.2903111,0.10557037 25.2192,0.10557037 L1.18008889,0.10557037 C0.566459259,0.10557037 0.0624592593,0.60482963 0.0624592593,1.2229037 L0.0624592593,42.7343111 C0.0624592593,43.3526815 0.566459259,43.8516444 1.18008889,43.8516444 L32.310163,43.8516444 C32.9279407,43.8516444 33.4272,43.3526815 33.4272,42.7343111 L33.4272,8.31386667 C33.4272,8.24216296 33.4177185,8.17105185 33.4034963,8.0952 L33.4034963,8.0952 Z" id="Fill-11" fill="#344154" mask="url(#mask-2)"></path>
                    </g>
                    <path d="M16.2312,9.4264 L6.03979259,9.4264 C5.42645926,9.4264 4.93194074,8.93188148 4.93194074,8.31380741 C4.93194074,7.69514074 5.42645926,7.20091852 6.03979259,7.20091852 L16.2312,7.20091852 C16.8489778,7.20091852 17.3488296,7.69514074 17.3488296,8.31380741 C17.3488296,8.93188148 16.8489778,9.4264 16.2312,9.4264" id="Fill-14" fill="#7D71D1"></path>
                    <path d="M27.34,15.375763 L6.03985185,15.375763 C5.42651852,15.375763 4.932,14.8759111 4.932,14.2584296 C4.932,13.6445037 5.42651852,13.1455407 6.03985185,13.1455407 L27.34,13.1455407 C27.9536296,13.1455407 28.4531852,13.6445037 28.4531852,14.2584296 C28.4531852,14.8759111 27.9536296,15.375763 27.34,15.375763" id="Fill-16" fill="#7D71D1"></path>
                    <path d="M24.1922963,21.3251259 L6.04,21.3251259 C5.42637037,21.3251259 4.93214815,20.8252741 4.93214815,20.2077926 C4.93214815,19.5938667 5.42637037,19.0898667 6.04,19.0898667 L24.1922963,19.0898667 C24.8100741,19.0898667 25.3096296,19.5938667 25.3096296,20.2077926 C25.3096296,20.8252741 24.8100741,21.3251259 24.1922963,21.3251259" id="Fill-18" fill="#7D71D1"></path>
                    <path d="M27.34,27.2738963 L6.03985185,27.2738963 C5.42651852,27.2738963 4.932,26.7698963 4.932,26.1568593 C4.932,25.5384889 5.42651852,25.0392296 6.03985185,25.0392296 L27.34,25.0392296 C27.9536296,25.0392296 28.4531852,25.5384889 28.4531852,26.1568593 C28.4531852,26.7698963 27.9536296,27.2738963 27.34,27.2738963" id="Fill-20" fill="#7D71D1"></path>
                    <path d="M21.7145778,33.2183407 L6.03991111,33.2183407 C5.42628148,33.2183407 4.93205926,32.7190815 4.93205926,32.1010074 C4.93205926,31.4876741 5.42628148,30.9836741 6.03991111,30.9836741 L21.7145778,30.9836741 C22.3276148,30.9836741 22.8319111,31.4876741 22.8319111,32.1010074 C22.8319111,32.7190815 22.3276148,33.2183407 21.7145778,33.2183407" id="Fill-22" fill="#7D71D1"></path>
                </g>
            </g>
        </g>
    </g>
</svg>