<svg width="20" height="14" viewBox="0 0 20 14" fill="none" xmlns="http://www.w3.org/2000/svg">
<path fill-rule="evenodd" clip-rule="evenodd" d="M10.9472 9.72147H12.245V9.17143H10.9472V9.72147Z" fill="white"/>
<path fill-rule="evenodd" clip-rule="evenodd" d="M10.9472 4.83019H12.245V4.28004H10.9472V4.83019Z" fill="white"/>
<path fill-rule="evenodd" clip-rule="evenodd" d="M12.245 7.27593H13.543V6.72568H12.245V7.27593Z" fill="white"/>
<path fill-rule="evenodd" clip-rule="evenodd" d="M13.543 12.4117H11.9531V1.58983H13.543V2.14008H12.537V11.8614H13.543V12.4117Z" fill="white"/>
<path fill-rule="evenodd" clip-rule="evenodd" d="M16.7877 2.14002H17.4368V1.58987H16.7877V2.14002Z" fill="white"/>
<mask id="mask0" mask-type="alpha" maskUnits="userSpaceOnUse" x="14" y="0" width="6" height="4">
<path d="M14.2243 1.52588e-05H20V3.72958H14.2243V1.52588e-05Z" fill="white"/>
</mask>
<g mask="url(#mask0)">
<path fill-rule="evenodd" clip-rule="evenodd" d="M14.841 0.550269C14.8319 0.550269 14.8243 0.553286 14.8179 0.559213C14.8101 0.566542 14.8084 0.575055 14.8084 0.580874V3.14894C14.8084 3.15476 14.8101 3.16317 14.8179 3.1706C14.824 3.17631 14.8318 3.17933 14.841 3.17933H19.3835C19.3926 3.17933 19.4002 3.17631 19.4063 3.1706C19.4143 3.16317 19.4161 3.15476 19.4161 3.14894V0.580874C19.4161 0.575055 19.4143 0.566542 19.4063 0.559213C19.4002 0.553286 19.3923 0.550269 19.3835 0.550269H14.841ZM19.3835 3.72958H14.841C14.676 3.72958 14.5212 3.66913 14.405 3.55953C14.2886 3.44993 14.2243 3.30412 14.2243 3.14894V0.580874C14.2243 0.425799 14.2886 0.279884 14.405 0.170178C14.5212 0.060472 14.6764 1.52588e-05 14.841 1.52588e-05H19.3835C19.5481 1.52588e-05 19.703 0.060472 19.8194 0.170178C19.9359 0.279884 20 0.425799 20 0.580874V3.14894C20 3.30412 19.9359 3.44993 19.8194 3.55953C19.7032 3.66913 19.5484 3.72958 19.3835 3.72958Z" fill="white"/>
</g>
<mask id="mask1" mask-type="alpha" maskUnits="userSpaceOnUse" x="0" y="0" width="20" height="14">
<path d="M0 14H20V0H0V14Z" fill="white"/>
</mask>
<g mask="url(#mask1)">
<path fill-rule="evenodd" clip-rule="evenodd" d="M16.7877 7.27518H17.4368V6.72493H16.7877V7.27518Z" fill="white"/>
<path fill-rule="evenodd" clip-rule="evenodd" d="M14.841 5.68548C14.8347 5.68548 14.8256 5.68709 14.8174 5.69464C14.8116 5.70035 14.8084 5.70768 14.8084 5.71608V8.28415C14.8084 8.28997 14.8101 8.29837 14.8179 8.30559C14.8243 8.31174 14.8319 8.31465 14.841 8.31465H19.3835C19.3923 8.31465 19.4002 8.31174 19.4063 8.30559C19.4143 8.29837 19.4161 8.28997 19.4161 8.28415V5.71608C19.4161 5.70768 19.4127 5.70035 19.4063 5.69431C19.3987 5.68709 19.3896 5.68548 19.3835 5.68548H14.841ZM19.3835 8.86501H14.841C14.6764 8.86501 14.5212 8.80455 14.405 8.69474C14.2886 8.58492 14.2243 8.43933 14.2243 8.28415V5.71608C14.2243 5.56101 14.2886 5.41498 14.405 5.30539C14.522 5.19546 14.6766 5.13522 14.841 5.13522H19.3835C19.5477 5.13522 19.7023 5.19546 19.8192 5.30496C19.9359 5.41498 20 5.56101 20 5.71608V8.28415C20 8.43933 19.9359 8.58492 19.8194 8.69474C19.703 8.80455 19.5481 8.86501 19.3835 8.86501Z" fill="white"/>
<path fill-rule="evenodd" clip-rule="evenodd" d="M16.7877 12.4103H17.4368V11.8601H16.7877V12.4103Z" fill="white"/>
<path fill-rule="evenodd" clip-rule="evenodd" d="M14.841 10.8208C14.8319 10.8208 14.8243 10.8236 14.8179 10.8297C14.8116 10.8358 14.8084 10.843 14.8084 10.8513V13.4193C14.8084 13.4276 14.8117 13.4353 14.8183 13.4414C14.8239 13.4466 14.8318 13.4497 14.841 13.4497H19.3835C19.3926 13.4497 19.4003 13.4466 19.4068 13.4408C19.4125 13.4353 19.4161 13.4276 19.4161 13.4193V10.8513C19.4161 10.843 19.4127 10.8358 19.4063 10.8297C19.4002 10.8236 19.3923 10.8208 19.3835 10.8208H14.841ZM19.3835 14H14.841C14.6766 14 14.5218 13.9398 14.4052 13.8306C14.2883 13.7198 14.2243 13.5742 14.2243 13.4193V10.8513C14.2243 10.6962 14.2886 10.5504 14.405 10.4407C14.5212 10.3309 14.6764 10.2706 14.841 10.2706H19.3835C19.5481 10.2706 19.703 10.3309 19.8194 10.4407C19.9359 10.5504 20 10.6962 20 10.8513V13.4193C20 13.5742 19.9361 13.7198 19.8198 13.8298C19.7025 13.9398 19.5478 14 19.3835 14Z" fill="white"/>
</g>
<path fill-rule="evenodd" clip-rule="evenodd" d="M9.6976 12.564H0.689744V1.0329H6.65769V3.56971C6.65769 3.74979 6.81212 3.89538 7.00328 3.89538H9.6976V12.564ZM9.20925 3.24555H7.34737V1.49145L9.20925 3.24555ZM10.38 3.50872V3.50732C10.374 3.47811 10.3623 3.45193 10.349 3.42703C10.346 3.42143 10.3432 3.41593 10.3388 3.41044C10.324 3.38393 10.3078 3.36054 10.2858 3.33974L7.24739 0.478767C7.22543 0.457968 7.20038 0.441372 7.17246 0.427471C7.16652 0.423375 7.16068 0.420574 7.15473 0.417772C7.12819 0.405379 7.1004 0.394279 7.06951 0.388675H7.06802C7.04583 0.38458 7.02547 0.383179 7.00328 0.383179H0.345646C0.154493 0.383179 6.10352e-05 0.528555 6.10352e-05 0.707447V12.8895C6.10352e-05 13.0683 0.154493 13.2151 0.345646 13.2151H10.0417C10.2314 13.2151 10.3858 13.0683 10.3858 12.8895V3.56971C10.3858 3.54892 10.3843 3.52952 10.38 3.50872Z" fill="white"/>
<path fill-rule="evenodd" clip-rule="evenodd" d="M8.50483 5.47889H1.85452C1.66325 5.47889 1.50745 5.3334 1.50745 5.15462C1.50745 4.97594 1.66325 4.82906 1.85452 4.82906H8.50483C8.69598 4.82906 8.84892 4.97594 8.84892 5.15462C8.84892 5.3334 8.69598 5.47889 8.50483 5.47889Z" fill="white"/>
<path fill-rule="evenodd" clip-rule="evenodd" d="M8.52247 7.53896H1.85455C1.66328 7.53896 1.50748 7.39488 1.50748 7.21469C1.50748 7.03613 1.66328 6.89053 1.85455 6.89053H8.52247C8.71374 6.89053 8.86657 7.03613 8.86657 7.21469C8.86657 7.39488 8.71374 7.53896 8.52247 7.53896Z" fill="white"/>
<path fill-rule="evenodd" clip-rule="evenodd" d="M5.46792 3.4186H1.85455C1.66328 3.4186 1.50748 3.27311 1.50748 3.09444C1.50748 2.91436 1.66328 2.76888 1.85455 2.76888H5.46792C5.65907 2.76888 5.8135 2.91436 5.8135 3.09444C5.8135 3.27311 5.65907 3.4186 5.46792 3.4186Z" fill="white"/>
<path fill-rule="evenodd" clip-rule="evenodd" d="M8.50483 9.60062H1.85452C1.66325 9.60062 1.50745 9.45492 1.50745 9.27635C1.50745 9.09616 1.66325 8.94939 1.85452 8.94939H8.50483C8.69598 8.94939 8.84892 9.09616 8.84892 9.27635C8.84892 9.45492 8.69598 9.60062 8.50483 9.60062Z" fill="white"/>
<path fill-rule="evenodd" clip-rule="evenodd" d="M3.99286 11.6607H1.8546C1.66334 11.6607 1.50742 11.5152 1.50742 11.3351C1.50742 11.1562 1.66334 11.0109 1.8546 11.0109H3.99286C4.18264 11.0109 4.33707 11.1562 4.33707 11.3351C4.33707 11.5152 4.18264 11.6607 3.99286 11.6607Z" fill="white"/>
</svg>
