<?xml version="1.0" encoding="UTF-8"?>
<svg width="18px" height="20px" viewBox="0 0 18 20" version="1.1" xmlns="http://www.w3.org/2000/svg" xmlns:xlink="http://www.w3.org/1999/xlink">
    <title>Group 20</title>
    <defs>
        <polygon id="path-1" points="0.0845098039 -0.000392156863 8.52833333 -0.000392156863 8.52833333 10.3615686 0.0845098039 10.3615686"></polygon>
    </defs>
    <g id="Page-1" stroke="none" stroke-width="1" fill="none" fill-rule="evenodd">
        <g id="Group-20">
            <g id="Group-12" transform="translate(0.000000, 0.000392)">
                <path d="M8.3892549,11.9786765 L8.3892549,18.1319118 C8.3892549,18.8758333 8.99494118,19.4808333 9.73886275,19.4808333 L15.2297451,19.4808333 C15.9736667,19.4808333 16.5787647,18.8758333 16.5787647,18.1319118 L16.5787647,14.4801471 C16.5787647,13.7362255 15.9736667,13.1311275 15.2297451,13.1311275 L9.68170588,13.1311275 C9.61376471,13.1311275 9.5492549,13.104951 9.50062745,13.0579902 L8.3892549,11.9786765 Z M15.2297451,19.999951 L9.73886275,19.999951 C8.70807843,19.999951 7.87013725,19.1621078 7.87013725,18.1319118 L7.87013725,11.3644608 C7.87013725,11.2604412 7.93268627,11.1658333 8.02876471,11.1252451 C8.12494118,11.0846569 8.23601961,11.1055392 8.31072549,11.1781863 L9.78690196,12.6120098 L15.2297451,12.6120098 C16.2599412,12.6120098 17.0978824,13.449951 17.0978824,14.4801471 L17.0978824,18.1319118 C17.0978824,19.1621078 16.2599412,19.999951 15.2297451,19.999951 L15.2297451,19.999951 Z" id="Fill-1" fill="#FFFFFF"></path>
                <path d="M15.5181667,12.0283725 C15.4316961,12.0283725 15.3473824,11.9855294 15.2981667,11.9066078 C15.1310098,11.639549 14.9291471,11.4104314 14.699049,11.2256275 C13.6383627,10.3733725 10.8651275,8.86631373 10.8373824,8.85131373 C10.7113039,8.78288235 10.6642451,8.62484314 10.7325784,8.49886275 C10.801598,8.37170588 10.9585588,8.32533333 11.0851275,8.3942549 C11.2005196,8.45719608 13.9272843,9.93866667 15.0247353,10.8209216 C15.2997353,11.041902 15.5401275,11.3143529 15.7382647,11.6310196 C15.8145392,11.7522941 15.7776765,11.9129804 15.6560098,11.9888627 C15.6132647,12.0155294 15.5657157,12.0283725 15.5181667,12.0283725" id="Fill-3" fill="#FFFFFF"></path>
                <path d="M8.12970588,16.500451 L0,16.500451 L0,13.5311373 C0,12.8331961 0.18,12.1763333 0.521764706,11.6310392 C0.719901961,11.3143725 0.960196078,11.0419216 1.23529412,10.8208431 C2.33264706,9.93858824 5.05960784,8.45721569 5.17480392,8.39417647 C5.29990196,8.3252549 5.45794118,8.37172549 5.52735294,8.49888235 C5.59568627,8.62486275 5.54872549,8.78290196 5.4227451,8.85133333 C5.39490196,8.86633333 2.62156863,10.3733922 1.56098039,11.2256471 C1.33078431,11.410451 1.12901961,11.6395686 0.961862745,11.9066275 C0.67245098,12.3689804 0.519117647,12.9308431 0.519117647,13.5311373 L0.519117647,15.9813333 L8.12970588,15.9813333 C8.27343137,15.9813333 8.38921569,16.0972157 8.38921569,16.2409412 C8.38921569,16.3844706 8.27343137,16.500451 8.12970588,16.500451" id="Fill-5" fill="#FFFFFF"></path>
                <g id="Group-9" transform="translate(3.823529, 0.000000)">
                    <mask id="mask-2" fill="white">
                        <use xlink:href="#path-1"></use>
                    </mask>
                    <g id="Clip-8"></g>
                    <path d="M4.30617647,0.518627451 C2.26460784,0.518627451 0.603627451,2.61 0.603627451,5.18029412 C0.603627451,7.75117647 2.26460784,9.84254902 4.30617647,9.84254902 C6.34784314,9.84254902 8.00921569,7.75117647 8.00921569,5.18029412 C8.00921569,2.61 6.34784314,0.518627451 4.30617647,0.518627451 M4.30617647,10.3615686 C1.97833333,10.3615686 0.0845098039,8.03745098 0.0845098039,5.18029412 C0.0845098039,2.32372549 1.97833333,-0.000392156863 4.30617647,-0.000392156863 C6.63460784,-0.000392156863 8.52833333,2.32372549 8.52833333,5.18029412 C8.52833333,8.03745098 6.63460784,10.3615686 4.30617647,10.3615686" id="Fill-7" fill="#FFFFFF" mask="url(#mask-2)"></path>
                </g>
                <path d="M8.12989216,1.17263725 C7.82704902,1.17263725 7.53469608,1.23185294 7.25832353,1.34038235 C8.51606863,1.8345 9.43567647,3.36861765 9.43567647,5.18057843 C9.43567647,6.99244118 8.51606863,8.52655882 7.25832353,9.02077451 C7.53469608,9.12920588 7.82704902,9.18842157 8.12989216,9.18842157 C9.81106863,9.18842157 11.1789118,7.39057843 11.1789118,5.18057843 C11.1789118,2.97057843 9.81106863,1.17263725 8.12989216,1.17263725" id="Fill-10" fill="#FFFFFF"></path>
            </g>
            <g id="Group-19" transform="translate(9.509804, 14.510196)" fill="#FFFFFF">
                <path d="M5.64847059,0.00621568627 L0.33954902,0.00621568627 C0.177196078,0.00621568627 0.0453333333,0.13827451 0.0453333333,0.300529412 C0.0453333333,0.462686275 0.177196078,0.594745098 0.33954902,0.594745098 L5.64847059,0.594745098 C5.81052941,0.594745098 5.94141176,0.462686275 5.94141176,0.300529412 C5.94141176,0.13827451 5.81052941,0.00621568627 5.64847059,0.00621568627" id="Fill-13"></path>
                <path d="M0.339509804,1.92008824 L4.05901961,1.92008824 C4.22127451,1.92008824 4.35323529,1.78802941 4.35323529,1.62587255 C4.35323529,1.46244118 4.22127451,1.33028431 4.05901961,1.33028431 L0.339509804,1.33028431 C0.177254902,1.33028431 0.0452941176,1.46244118 0.0452941176,1.62587255 C0.0452941176,1.78802941 0.177254902,1.92008824 0.339509804,1.92008824" id="Fill-15"></path>
                <path d="M5.64847059,2.97123529 L0.33954902,2.97123529 C0.177196078,2.97123529 0.0453333333,3.10319608 0.0453333333,3.26545098 C0.0453333333,3.42760784 0.177196078,3.55966667 0.33954902,3.55966667 L5.64847059,3.55966667 C5.81052941,3.55966667 5.94141176,3.42760784 5.94141176,3.26545098 C5.94141176,3.10319608 5.81052941,2.97123529 5.64847059,2.97123529" id="Fill-17"></path>
            </g>
        </g>
    </g>
</svg>