<?xml version="1.0" encoding="utf-8"?>
<!-- Generator: Adobe Illustrator 24.2.1, SVG Export Plug-In . SVG Version: 6.00 Build 0)  -->
<svg version="1.1" xmlns="http://www.w3.org/2000/svg" xmlns:xlink="http://www.w3.org/1999/xlink" x="0px" y="0px"
	 viewBox="0 0 20 20" style="enable-background:new 0 0 20 20;" xml:space="preserve">
<style type="text/css">
	.st0{display:none;}
	.st1{display:inline;}
	.st2{fill:#FFFFFF;}
	.st3{filter:url(#Adobe_OpacityMaskFilter);}
	.st4{fill-rule:evenodd;clip-rule:evenodd;fill:#FFFFFF;}
	.st5{mask:url(#mask-2_2_);fill:#FFFFFF;}
	.st6{filter:url(#Adobe_OpacityMaskFilter_1_);}
	.st7{mask:url(#mask-4_42_);}
	.st8{filter:url(#Adobe_OpacityMaskFilter_2_);}
	.st9{mask:url(#mask-4_41_);}
	.st10{filter:url(#Adobe_OpacityMaskFilter_3_);}
	.st11{mask:url(#mask-4_40_);}
	.st12{filter:url(#Adobe_OpacityMaskFilter_4_);}
	.st13{mask:url(#mask-4_39_);}
	.st14{filter:url(#Adobe_OpacityMaskFilter_5_);}
	.st15{mask:url(#mask-4_38_);}
	.st16{filter:url(#Adobe_OpacityMaskFilter_6_);}
	.st17{mask:url(#mask-4_37_);}
	.st18{filter:url(#Adobe_OpacityMaskFilter_7_);}
	.st19{mask:url(#mask-4_36_);}
	.st20{filter:url(#Adobe_OpacityMaskFilter_8_);}
	.st21{mask:url(#mask-4_35_);}
	.st22{filter:url(#Adobe_OpacityMaskFilter_9_);}
	.st23{mask:url(#mask-4_34_);}
	.st24{filter:url(#Adobe_OpacityMaskFilter_10_);}
	.st25{mask:url(#mask-4_33_);}
	.st26{filter:url(#Adobe_OpacityMaskFilter_11_);}
	.st27{mask:url(#mask-4_32_);}
	.st28{filter:url(#Adobe_OpacityMaskFilter_12_);}
	.st29{mask:url(#mask-4_31_);}
	.st30{filter:url(#Adobe_OpacityMaskFilter_13_);}
	.st31{mask:url(#mask-4_30_);}
	.st32{filter:url(#Adobe_OpacityMaskFilter_14_);}
	.st33{mask:url(#mask-4_29_);}
	.st34{filter:url(#Adobe_OpacityMaskFilter_15_);}
	.st35{mask:url(#mask-4_28_);}
	.st36{filter:url(#Adobe_OpacityMaskFilter_16_);}
	.st37{mask:url(#mask-4_27_);}
	.st38{filter:url(#Adobe_OpacityMaskFilter_17_);}
	.st39{mask:url(#mask-4_26_);}
	.st40{filter:url(#Adobe_OpacityMaskFilter_18_);}
	.st41{mask:url(#mask-4_25_);}
	.st42{filter:url(#Adobe_OpacityMaskFilter_19_);}
	.st43{mask:url(#mask-4_24_);}
	.st44{filter:url(#Adobe_OpacityMaskFilter_20_);}
	.st45{mask:url(#mask-4_23_);}
	.st46{filter:url(#Adobe_OpacityMaskFilter_21_);}
	.st47{mask:url(#mask-4_22_);}
</style>
<g id="레이어_2" class="st0">
	<g class="st1">
		<rect x="40" width="20" height="20"/>
	</g>
</g>
<g id="레이어_1">
	<g id="Page-1">
		<g id="new_console_menu_icons_puble" transform="translate(-122.000000, -223.000000)">
			<g id="ico_lan_itf" transform="translate(122.000000, 223.000000)">
				<g id="Fill-1">
					<polygon class="st2" points="0.9,0 0.9,20 12.78,20 12.78,19.31 1.59,19.31 1.59,0.69 12.11,0.69 15.05,3.64 15.05,5.04 
						15.75,5.04 15.75,3.35 12.4,0 					"/>
				</g>
				<g id="Fill-2">
					<polygon class="st2" points="15.4,3.84 11.91,3.84 11.91,0.35 12.6,0.35 12.6,3.15 15.4,3.15 					"/>
				</g>
				<g id="Group-32" transform="translate(0.000000, 0.028308)">
					<g id="Group-5" transform="translate(9.230769, 4.102564)">
						<g id="Clip-4">
						</g>
						<defs>
							<filter id="Adobe_OpacityMaskFilter" filterUnits="userSpaceOnUse" x="2.35" y="0.56" width="7.65" height="7.64">
								<feColorMatrix  type="matrix" values="1 0 0 0 0  0 1 0 0 0  0 0 1 0 0  0 0 0 1 0"/>
							</filter>
						</defs>
						<mask maskUnits="userSpaceOnUse" x="2.35" y="0.56" width="7.65" height="7.64" id="mask-2_2_">
							<g class="st3">
								<polygon id="path-1_2_" class="st4" points="2.35,0.56 9.99,0.56 9.99,8.21 2.35,8.21 								"/>
							</g>
						</mask>
						<path id="Fill-3" class="st5" d="M6.17,1.26c-1.72,0-3.13,1.4-3.13,3.13c0,1.72,1.4,3.13,3.13,3.13c1.72,0,3.13-1.4,3.13-3.13
							C9.3,2.66,7.89,1.26,6.17,1.26 M6.17,8.21c-2.11,0-3.82-1.71-3.82-3.82c0-2.11,1.71-3.82,3.82-3.82
							c2.11,0,3.82,1.71,3.82,3.82C9.99,6.49,8.28,8.21,6.17,8.21"/>
					</g>
					<path id="Fill-6" class="st2" d="M13.74,8.49h-0.7c0-1.3,1.06-2.36,2.36-2.36v0.69C14.49,6.83,13.74,7.57,13.74,8.49"/>
					<path id="Fill-8" class="st2" d="M15.4,19.97c-0.38,0-0.74-0.15-1.01-0.42c-0.27-0.27-0.42-0.63-0.42-1.01v-6.78h0.69v6.78
						c0,0.2,0.08,0.38,0.22,0.52c0.14,0.14,0.32,0.22,0.52,0.22s0.38-0.08,0.52-0.22c0.14-0.14,0.21-0.32,0.21-0.52v-6.78h0.7v6.78
						c0,0.38-0.15,0.74-0.42,1.01C16.14,19.82,15.78,19.97,15.4,19.97"/>
					<g id="Clip-11">
					</g>
					<defs>
						<filter id="Adobe_OpacityMaskFilter_1_" filterUnits="userSpaceOnUse" x="4.34" y="17.02" width="8.44" height="0.69">
							<feColorMatrix  type="matrix" values="1 0 0 0 0  0 1 0 0 0  0 0 1 0 0  0 0 0 1 0"/>
						</filter>
					</defs>
					<mask maskUnits="userSpaceOnUse" x="4.34" y="17.02" width="8.44" height="0.69" id="mask-4_42_">
						<g class="st6">
							<polygon id="path-3_42_" class="st4" points="0.9,19.97 19.22,19.97 19.22,-0.03 0.9,-0.03 							"/>
						</g>
					</mask>
					<g id="Fill-10" class="st7">
						<rect x="4.34" y="17.02" class="st2" width="8.44" height="0.69"/>
					</g>
					<defs>
						<filter id="Adobe_OpacityMaskFilter_2_" filterUnits="userSpaceOnUse" x="4.34" y="15.48" width="8.44" height="0.69">
							<feColorMatrix  type="matrix" values="1 0 0 0 0  0 1 0 0 0  0 0 1 0 0  0 0 0 1 0"/>
						</filter>
					</defs>
					<mask maskUnits="userSpaceOnUse" x="4.34" y="15.48" width="8.44" height="0.69" id="mask-4_41_">
						<g class="st8">
							<polygon id="path-3_41_" class="st4" points="0.9,19.97 19.22,19.97 19.22,-0.03 0.9,-0.03 							"/>
						</g>
					</mask>
					<g id="Fill-12" class="st9">
						<rect x="4.34" y="15.48" class="st2" width="8.44" height="0.69"/>
					</g>
					<defs>
						<filter id="Adobe_OpacityMaskFilter_3_" filterUnits="userSpaceOnUse" x="4.34" y="13.93" width="8.44" height="0.7">
							<feColorMatrix  type="matrix" values="1 0 0 0 0  0 1 0 0 0  0 0 1 0 0  0 0 0 1 0"/>
						</filter>
					</defs>
					<mask maskUnits="userSpaceOnUse" x="4.34" y="13.93" width="8.44" height="0.7" id="mask-4_40_">
						<g class="st10">
							<polygon id="path-3_40_" class="st4" points="0.9,19.97 19.22,19.97 19.22,-0.03 0.9,-0.03 							"/>
						</g>
					</mask>
					<g id="Fill-13" class="st11">
						<rect x="4.34" y="13.93" class="st2" width="8.44" height="0.7"/>
					</g>
					<defs>
						<filter id="Adobe_OpacityMaskFilter_4_" filterUnits="userSpaceOnUse" x="4.34" y="12.39" width="8.44" height="0.69">
							<feColorMatrix  type="matrix" values="1 0 0 0 0  0 1 0 0 0  0 0 1 0 0  0 0 0 1 0"/>
						</filter>
					</defs>
					<mask maskUnits="userSpaceOnUse" x="4.34" y="12.39" width="8.44" height="0.69" id="mask-4_39_">
						<g class="st12">
							<polygon id="path-3_39_" class="st4" points="0.9,19.97 19.22,19.97 19.22,-0.03 0.9,-0.03 							"/>
						</g>
					</mask>
					<g id="Fill-14" class="st13">
						<rect x="4.34" y="12.39" class="st2" width="8.44" height="0.69"/>
					</g>
					<defs>
						<filter id="Adobe_OpacityMaskFilter_5_" filterUnits="userSpaceOnUse" x="4.34" y="10.84" width="6.05" height="0.7">
							<feColorMatrix  type="matrix" values="1 0 0 0 0  0 1 0 0 0  0 0 1 0 0  0 0 0 1 0"/>
						</filter>
					</defs>
					<mask maskUnits="userSpaceOnUse" x="4.34" y="10.84" width="6.05" height="0.7" id="mask-4_38_">
						<g class="st14">
							<polygon id="path-3_38_" class="st4" points="0.9,19.97 19.22,19.97 19.22,-0.03 0.9,-0.03 							"/>
						</g>
					</mask>
					<g id="Fill-15" class="st15">
						<rect x="4.34" y="10.84" class="st2" width="6.05" height="0.7"/>
					</g>
					<defs>
						<filter id="Adobe_OpacityMaskFilter_6_" filterUnits="userSpaceOnUse" x="4.34" y="9.3" width="6.05" height="0.69">
							<feColorMatrix  type="matrix" values="1 0 0 0 0  0 1 0 0 0  0 0 1 0 0  0 0 0 1 0"/>
						</filter>
					</defs>
					<mask maskUnits="userSpaceOnUse" x="4.34" y="9.3" width="6.05" height="0.69" id="mask-4_37_">
						<g class="st16">
							<polygon id="path-3_37_" class="st4" points="0.9,19.97 19.22,19.97 19.22,-0.03 0.9,-0.03 							"/>
						</g>
					</mask>
					<g id="Fill-16" class="st17">
						<rect x="4.34" y="9.3" class="st2" width="6.05" height="0.69"/>
					</g>
					<defs>
						<filter id="Adobe_OpacityMaskFilter_7_" filterUnits="userSpaceOnUse" x="4.34" y="7.75" width="6.05" height="0.7">
							<feColorMatrix  type="matrix" values="1 0 0 0 0  0 1 0 0 0  0 0 1 0 0  0 0 0 1 0"/>
						</filter>
					</defs>
					<mask maskUnits="userSpaceOnUse" x="4.34" y="7.75" width="6.05" height="0.7" id="mask-4_36_">
						<g class="st18">
							<polygon id="path-3_36_" class="st4" points="0.9,19.97 19.22,19.97 19.22,-0.03 0.9,-0.03 							"/>
						</g>
					</mask>
					<g id="Fill-17" class="st19">
						<rect x="4.34" y="7.75" class="st2" width="6.05" height="0.7"/>
					</g>
					<defs>
						<filter id="Adobe_OpacityMaskFilter_8_" filterUnits="userSpaceOnUse" x="4.34" y="6.21" width="6.05" height="0.69">
							<feColorMatrix  type="matrix" values="1 0 0 0 0  0 1 0 0 0  0 0 1 0 0  0 0 0 1 0"/>
						</filter>
					</defs>
					<mask maskUnits="userSpaceOnUse" x="4.34" y="6.21" width="6.05" height="0.69" id="mask-4_35_">
						<g class="st20">
							<polygon id="path-3_35_" class="st4" points="0.9,19.97 19.22,19.97 19.22,-0.03 0.9,-0.03 							"/>
						</g>
					</mask>
					<g id="Fill-18" class="st21">
						<rect x="4.34" y="6.21" class="st2" width="6.05" height="0.69"/>
					</g>
					<defs>
						<filter id="Adobe_OpacityMaskFilter_9_" filterUnits="userSpaceOnUse" x="4.34" y="4.66" width="6.05" height="0.69">
							<feColorMatrix  type="matrix" values="1 0 0 0 0  0 1 0 0 0  0 0 1 0 0  0 0 0 1 0"/>
						</filter>
					</defs>
					<mask maskUnits="userSpaceOnUse" x="4.34" y="4.66" width="6.05" height="0.69" id="mask-4_34_">
						<g class="st22">
							<polygon id="path-3_34_" class="st4" points="0.9,19.97 19.22,19.97 19.22,-0.03 0.9,-0.03 							"/>
						</g>
					</mask>
					<g id="Fill-19" class="st23">
						<rect x="4.34" y="4.66" class="st2" width="6.05" height="0.69"/>
					</g>
					<defs>
						<filter id="Adobe_OpacityMaskFilter_10_" filterUnits="userSpaceOnUse" x="2.79" y="17.02" width="0.77" height="0.69">
							<feColorMatrix  type="matrix" values="1 0 0 0 0  0 1 0 0 0  0 0 1 0 0  0 0 0 1 0"/>
						</filter>
					</defs>
					<mask maskUnits="userSpaceOnUse" x="2.79" y="17.02" width="0.77" height="0.69" id="mask-4_33_">
						<g class="st24">
							<polygon id="path-3_33_" class="st4" points="0.9,19.97 19.22,19.97 19.22,-0.03 0.9,-0.03 							"/>
						</g>
					</mask>
					<g id="Fill-20" class="st25">
						<rect x="2.79" y="17.02" class="st2" width="0.77" height="0.69"/>
					</g>
					<defs>
						<filter id="Adobe_OpacityMaskFilter_11_" filterUnits="userSpaceOnUse" x="2.79" y="15.48" width="0.77" height="0.69">
							<feColorMatrix  type="matrix" values="1 0 0 0 0  0 1 0 0 0  0 0 1 0 0  0 0 0 1 0"/>
						</filter>
					</defs>
					<mask maskUnits="userSpaceOnUse" x="2.79" y="15.48" width="0.77" height="0.69" id="mask-4_32_">
						<g class="st26">
							<polygon id="path-3_32_" class="st4" points="0.9,19.97 19.22,19.97 19.22,-0.03 0.9,-0.03 							"/>
						</g>
					</mask>
					<g id="Fill-21" class="st27">
						<rect x="2.79" y="15.48" class="st2" width="0.77" height="0.69"/>
					</g>
					<defs>
						<filter id="Adobe_OpacityMaskFilter_12_" filterUnits="userSpaceOnUse" x="2.79" y="13.93" width="0.77" height="0.7">
							<feColorMatrix  type="matrix" values="1 0 0 0 0  0 1 0 0 0  0 0 1 0 0  0 0 0 1 0"/>
						</filter>
					</defs>
					<mask maskUnits="userSpaceOnUse" x="2.79" y="13.93" width="0.77" height="0.7" id="mask-4_31_">
						<g class="st28">
							<polygon id="path-3_31_" class="st4" points="0.9,19.97 19.22,19.97 19.22,-0.03 0.9,-0.03 							"/>
						</g>
					</mask>
					<g id="Fill-22" class="st29">
						<rect x="2.79" y="13.93" class="st2" width="0.77" height="0.7"/>
					</g>
					<defs>
						<filter id="Adobe_OpacityMaskFilter_13_" filterUnits="userSpaceOnUse" x="2.79" y="12.39" width="0.77" height="0.69">
							<feColorMatrix  type="matrix" values="1 0 0 0 0  0 1 0 0 0  0 0 1 0 0  0 0 0 1 0"/>
						</filter>
					</defs>
					<mask maskUnits="userSpaceOnUse" x="2.79" y="12.39" width="0.77" height="0.69" id="mask-4_30_">
						<g class="st30">
							<polygon id="path-3_30_" class="st4" points="0.9,19.97 19.22,19.97 19.22,-0.03 0.9,-0.03 							"/>
						</g>
					</mask>
					<g id="Fill-23" class="st31">
						<rect x="2.79" y="12.39" class="st2" width="0.77" height="0.69"/>
					</g>
					<defs>
						<filter id="Adobe_OpacityMaskFilter_14_" filterUnits="userSpaceOnUse" x="2.79" y="10.84" width="0.77" height="0.7">
							<feColorMatrix  type="matrix" values="1 0 0 0 0  0 1 0 0 0  0 0 1 0 0  0 0 0 1 0"/>
						</filter>
					</defs>
					<mask maskUnits="userSpaceOnUse" x="2.79" y="10.84" width="0.77" height="0.7" id="mask-4_29_">
						<g class="st32">
							<polygon id="path-3_29_" class="st4" points="0.9,19.97 19.22,19.97 19.22,-0.03 0.9,-0.03 							"/>
						</g>
					</mask>
					<g id="Fill-24" class="st33">
						<rect x="2.79" y="10.84" class="st2" width="0.77" height="0.7"/>
					</g>
					<defs>
						<filter id="Adobe_OpacityMaskFilter_15_" filterUnits="userSpaceOnUse" x="2.79" y="9.3" width="0.77" height="0.69">
							<feColorMatrix  type="matrix" values="1 0 0 0 0  0 1 0 0 0  0 0 1 0 0  0 0 0 1 0"/>
						</filter>
					</defs>
					<mask maskUnits="userSpaceOnUse" x="2.79" y="9.3" width="0.77" height="0.69" id="mask-4_28_">
						<g class="st34">
							<polygon id="path-3_28_" class="st4" points="0.9,19.97 19.22,19.97 19.22,-0.03 0.9,-0.03 							"/>
						</g>
					</mask>
					<g id="Fill-25" class="st35">
						<rect x="2.79" y="9.3" class="st2" width="0.77" height="0.69"/>
					</g>
					<defs>
						<filter id="Adobe_OpacityMaskFilter_16_" filterUnits="userSpaceOnUse" x="2.79" y="7.75" width="0.77" height="0.7">
							<feColorMatrix  type="matrix" values="1 0 0 0 0  0 1 0 0 0  0 0 1 0 0  0 0 0 1 0"/>
						</filter>
					</defs>
					<mask maskUnits="userSpaceOnUse" x="2.79" y="7.75" width="0.77" height="0.7" id="mask-4_27_">
						<g class="st36">
							<polygon id="path-3_27_" class="st4" points="0.9,19.97 19.22,19.97 19.22,-0.03 0.9,-0.03 							"/>
						</g>
					</mask>
					<g id="Fill-26" class="st37">
						<rect x="2.79" y="7.75" class="st2" width="0.77" height="0.7"/>
					</g>
					<defs>
						<filter id="Adobe_OpacityMaskFilter_17_" filterUnits="userSpaceOnUse" x="2.79" y="6.21" width="0.77" height="0.69">
							<feColorMatrix  type="matrix" values="1 0 0 0 0  0 1 0 0 0  0 0 1 0 0  0 0 0 1 0"/>
						</filter>
					</defs>
					<mask maskUnits="userSpaceOnUse" x="2.79" y="6.21" width="0.77" height="0.69" id="mask-4_26_">
						<g class="st38">
							<polygon id="path-3_26_" class="st4" points="0.9,19.97 19.22,19.97 19.22,-0.03 0.9,-0.03 							"/>
						</g>
					</mask>
					<g id="Fill-27" class="st39">
						<rect x="2.79" y="6.21" class="st2" width="0.77" height="0.69"/>
					</g>
					<defs>
						<filter id="Adobe_OpacityMaskFilter_18_" filterUnits="userSpaceOnUse" x="2.79" y="4.66" width="0.77" height="0.69">
							<feColorMatrix  type="matrix" values="1 0 0 0 0  0 1 0 0 0  0 0 1 0 0  0 0 0 1 0"/>
						</filter>
					</defs>
					<mask maskUnits="userSpaceOnUse" x="2.79" y="4.66" width="0.77" height="0.69" id="mask-4_25_">
						<g class="st40">
							<polygon id="path-3_25_" class="st4" points="0.9,19.97 19.22,19.97 19.22,-0.03 0.9,-0.03 							"/>
						</g>
					</mask>
					<g id="Fill-28" class="st41">
						<rect x="2.79" y="4.66" class="st2" width="0.77" height="0.69"/>
					</g>
					<defs>
						<filter id="Adobe_OpacityMaskFilter_19_" filterUnits="userSpaceOnUse" x="2.79" y="3.12" width="0.77" height="0.7">
							<feColorMatrix  type="matrix" values="1 0 0 0 0  0 1 0 0 0  0 0 1 0 0  0 0 0 1 0"/>
						</filter>
					</defs>
					<mask maskUnits="userSpaceOnUse" x="2.79" y="3.12" width="0.77" height="0.7" id="mask-4_24_">
						<g class="st42">
							<polygon id="path-3_24_" class="st4" points="0.9,19.97 19.22,19.97 19.22,-0.03 0.9,-0.03 							"/>
						</g>
					</mask>
					<g id="Fill-29" class="st43">
						<rect x="2.79" y="3.12" class="st2" width="0.77" height="0.7"/>
					</g>
					<defs>
						<filter id="Adobe_OpacityMaskFilter_20_" filterUnits="userSpaceOnUse" x="4.34" y="3.12" width="0.77" height="0.7">
							<feColorMatrix  type="matrix" values="1 0 0 0 0  0 1 0 0 0  0 0 1 0 0  0 0 0 1 0"/>
						</filter>
					</defs>
					<mask maskUnits="userSpaceOnUse" x="4.34" y="3.12" width="0.77" height="0.7" id="mask-4_23_">
						<g class="st44">
							<polygon id="path-3_23_" class="st4" points="0.9,19.97 19.22,19.97 19.22,-0.03 0.9,-0.03 							"/>
						</g>
					</mask>
					<g id="Fill-30" class="st45">
						<rect x="4.34" y="3.12" class="st2" width="0.77" height="0.7"/>
					</g>
					<defs>
						<filter id="Adobe_OpacityMaskFilter_21_" filterUnits="userSpaceOnUse" x="5.88" y="3.12" width="0.77" height="0.7">
							<feColorMatrix  type="matrix" values="1 0 0 0 0  0 1 0 0 0  0 0 1 0 0  0 0 0 1 0"/>
						</filter>
					</defs>
					<mask maskUnits="userSpaceOnUse" x="5.88" y="3.12" width="0.77" height="0.7" id="mask-4_22_">
						<g class="st46">
							<polygon id="path-3_22_" class="st4" points="0.9,19.97 19.22,19.97 19.22,-0.03 0.9,-0.03 							"/>
						</g>
					</mask>
					<g id="Fill-31" class="st47">
						<rect x="5.88" y="3.12" class="st2" width="0.77" height="0.7"/>
					</g>
				</g>
			</g>
		</g>
	</g>
</g>
</svg>
