<svg xmlns="http://www.w3.org/2000/svg" width="190" height="64" viewBox="0 0 190 64">
    <defs>
        <style>
            .cls-2{fill:#003e92}.cls-3{fill:#fff}
        </style>
    </defs>
    <g id="logo_samsungcard_190x64px" transform="translate(-1043 -4455)">
        <path id="사각형_1874" fill="none" d="M0 0H190V64H0z" transform="translate(1043 4455)"/>
        <g id="그룹_2168" transform="translate(1050.982 4132.157)">
            <g id="그룹_2167" transform="translate(22.017 332.843)">
                <path id="패스_2347" d="M107.1 352.284c17.207-8.818 15.052-17.248-2.457-18.987-18.867-1.874-46.43 2.183-65.635 9.938l-2.662 1.142c-20 8.943-18.108 18.406-.253 20.133 19.507 1.89 49.165-1.969 68.584-11.01z" class="cls-2" transform="translate(-22.017 -332.843)"/>
                <path id="패스_2348" d="M354.088 388.833s-3.286.266-3.365-2.384v-5.127s-.408-2.822 3.277-2.822c0 0 2.4-.079 3.03 1.345 0 0 .313.381.231 1.954H354.7v-.806a.646.646 0 0 0-.667-.652s-.692.03-.692.575v5.3a.7.7 0 1 0 1.39-.05v-1.536h-.7v-1.43h3.281v3.011a2.106 2.106 0 0 1-.271 1 3.473 3.473 0 0 1-.368.479 3.4 3.4 0 0 1-2.592 1.136" class="cls-3" transform="translate(-272.719 -367.663)"/>
                <path id="패스_2349" d="M310.166 380.113h-2.556l.182 5.873h-.111l-2.593-5.872h-3.1v9.68h2.524l-.151-5.919h.113l2.684 5.919h3.008z" class="cls-3" transform="translate(-235.558 -368.897)"/>
                <path id="패스_2350" d="M260.83 379.937h-2.767v7.26s-.285 2.747 3.593 2.747c0 0 3.37.041 3.37-2.62v-7.386h-2.705v7.3s.037.8-.7.8a.731.731 0 0 1-.778-.779z" class="cls-3" transform="translate(-202.051 -368.763)"/>
                <path id="패스_2351" d="M223.038 381.971l-.005-1.213s.2-1.989-3-2.077c0 0-2.515-.166-3.236 1.189 0 0-.283.3-.283 1.355v.761a2.516 2.516 0 0 0 .419 1.442 3.326 3.326 0 0 0 .877.779s1.267.683 2.027 1.073c0 0 .768.438.666 1.134a.751.751 0 0 1-.8.687.708.708 0 0 1-.678-.732v-.824h-2.715v1.2s-.076 2.29 3.413 2.29c0 0 3.333.069 3.488-2.348v-.975a2.544 2.544 0 0 0-1.179-2.26 9.007 9.007 0 0 0-1.12-.593 8.921 8.921 0 0 1-1.589-.907.924.924 0 0 1-.214-1.052.657.657 0 0 1 .672-.371s.711.039.711.625v.823z" class="cls-3" transform="translate(-170.206 -367.8)"/>
                <path id="패스_2352" d="M158.963 380.107l-.213 9.681h2.519l.03-7.3h.2l1.336 7.293h2.651l1.32-7.29h.174l.061 7.291h2.533l-.272-9.681h-4.214l-.854 5.3h-.2l-.816-5.3z" class="cls-3" transform="translate(-126.306 -368.893)"/>
                <path id="패스_2353" d="M122.808 389.753l-1.676-9.679h-4.282l-1.676 9.679h2.712l.993-7.505h.224l.992 7.505z" class="cls-3" transform="translate(-93.071 -368.867)"/>
                <path id="패스_2354" d="M82.323 381.971l-.005-1.213s.2-1.989-3-2.077c0 0-2.515-.166-3.235 1.189 0 0-.283.3-.283 1.355v.761a2.513 2.513 0 0 0 .42 1.442 3.305 3.305 0 0 0 .877.779s1.267.683 2.027 1.073c0 0 .768.438.667 1.134a.751.751 0 0 1-.8.687.707.707 0 0 1-.678-.732v-.824h-2.721v1.2s-.076 2.29 3.413 2.29c0 0 3.333.069 3.489-2.348v-.975a2.544 2.544 0 0 0-1.179-2.26 9.044 9.044 0 0 0-1.12-.593 8.913 8.913 0 0 1-1.589-.907.925.925 0 0 1-.215-1.052.66.66 0 0 1 .673-.371s.711.039.711.625v.823z" class="cls-3" transform="translate(-62.88 -367.8)"/>
                <path id="사각형_1856" d="M0 0H8.225V1.421H0z" class="cls-2" transform="translate(121.085 29.696)"/>
                <path id="사각형_1857" d="M0 0H1.658V13.674H0z" class="cls-2" transform="translate(116.535 29.196)"/>
                <path id="사각형_1858" d="M0 0H1.657V7.001H0z" class="cls-2" transform="translate(120.926 29.694)"/>
                <path id="사각형_1859" d="M0 0H6.8V1.421H0z" class="cls-2" transform="translate(122.583 35.274)"/>
                <path id="사각형_1860" d="M0 0H4.717V1.421H0z" class="cls-2" transform="translate(109.228 33.744)"/>
                <path id="사각형_1861" d="M0 0H2.709V1.421H0z" class="cls-2" transform="translate(116.909 33.744)"/>
                <path id="사각형_1862" d="M0 0H10.009V1.421H0z" class="cls-2" transform="translate(120.32 40.079)"/>
                <path id="패스_2355" d="M416.724 457.295v7.013h1.69v-2.614h1.5v-1.434h-1.466v-2.964z" class="cls-2" transform="translate(-323.069 -427.765)"/>
                <path id="패스_2356" d="M396.3 490.668h-4.789v2.932h4.789zm0 2.936l-6.443-4.336h8.1v5.738h-8.1z" class="cls-2" transform="translate(-302.576 -452.152)"/>
                <path id="패스_2357" d="M460.647 457.295v7.013h-1.689v-3.219h-2.2v-1.435h2.167v-2.359z" class="cls-2" transform="translate(-353.605 -427.765)"/>
                <path id="패스_2358" d="M443.612 489.94c0-1.057-1.268-1.914-2.832-1.914s-2.831.857-2.831 1.914 1.268 1.914 2.831 1.914 2.832-.857 2.832-1.914m-2.832 3.427c-2.514 0-4.552-1.534-4.552-3.427s2.038-3.426 4.552-3.426 4.554 1.534 4.554 3.426-2.039 3.427-4.554 3.427" class="cls-2" transform="translate(-337.945 -450.051)"/>
                <path id="패스_2359" d="M385.319 458.373s-.226 3.792 2.847 5.364l-.883 1.221s-2.251-1.485-2.761-3.111c-.511 1.626-2.761 3.111-2.761 3.111l-.884-1.221c3.073-1.572 2.848-5.364 2.848-5.364z" class="cls-2" transform="translate(-295.728 -428.588)"/>
                <path id="패스_2360" d="M433.385 461.845a7.136 7.136 0 0 1-2.573 2.985l-.883-1.219c2.885-1.447 2.658-5.24 2.658-5.24h1.594s-.226 3.792 2.659 5.24l-.883 1.219a7.139 7.139 0 0 1-2.573-2.985" class="cls-2" transform="translate(-333.141 -428.586)"/>
                <path id="패스_2361" d="M481.572 458.944v1.378h4.273s.248 6.231-4.76 8.09l.683 1.369s5.959-1.55 5.628-10.836z" class="cls-2" transform="translate(-372.16 -429.023)"/>
            </g>
        </g>
    </g>
</svg>
