<svg xmlns="http://www.w3.org/2000/svg" width="40" height="40" viewBox="0 0 40 40">
    <defs>
        <style>
            .cls-2{fill:#fff}
        </style>
    </defs>
    <g id="ico_backfoward_40px" transform="translate(-168 -967)">
        <path id="사각형_2448" fill="none" d="M0 0H40V40H0z" transform="translate(168 967)"/>
        <g id="그룹_2807" transform="translate(-3 1)">
            <g id="Page-1" transform="translate(-1141.519 1225.533)">
                <g id="_119---Rewind" transform="translate(1322.519 -251.533)">
                    <path id="Shape" d="M1333.759-249.12l1.2-1.028a.8.8 0 0 0 .072-1.107.8.8 0 0 0-1.105-.1l-2.782 2.385a.8.8 0 0 0-.278.6.8.8 0 0 0 .278.6l2.782 2.385a.8.8 0 0 0 .79.161.8.8 0 0 0 .524-.613.8.8 0 0 0-.281-.756l-1.077-.923a8.743 8.743 0 0 1 7.687 9.37 8.743 8.743 0 0 1-9.061 8.049 8.743 8.743 0 0 1-8.4-8.738 8.652 8.652 0 0 1 1.88-5.418.8.8 0 0 0 .122-.791.8.8 0 0 0-.628-.5.8.8 0 0 0-.742.3 10.227 10.227 0 0 0-2.223 6.4 10.333 10.333 0 0 0 10.028 10.331 10.333 10.333 0 0 0 10.619-9.722 10.333 10.333 0 0 0-9.408-10.9z" class="cls-2" transform="translate(-1322.519 251.533)"/>
                    <path id="Shape-2" d="M1396.21-245.379a.8.8 0 0 0 .79.161.8.8 0 0 0 .524-.613.8.8 0 0 0-.281-.756l-2.077-1.781 2.077-1.781a.8.8 0 0 0 .072-1.107.8.8 0 0 0-1.1-.1l-2.782 2.385a.8.8 0 0 0-.278.6.8.8 0 0 0 .278.6z" class="cls-2" transform="translate(-1389.97 251.533)"/>
                </g>
            </g>
            <g id="그룹_2806" transform="translate(1.54 0.487)">
                <path id="Shape-3" d="M294.48 191.933a.491.491 0 0 0 0 .983h1.474a.491.491 0 0 0 0-.983h-.246v-4.176a.491.491 0 0 0-.764-.409l-.737.491a.491.491 0 0 0 .518.834v3.259z" class="cls-2" transform="translate(-101.692 796.247)"/>
                <path id="Shape-4" d="M98.828 187.265a1.228 1.228 0 0 0-1.228 1.228v3.193a1.228 1.228 0 0 0 1.228 1.228h.737a1.228 1.228 0 0 0 1.228-1.228v-3.193a1.228 1.228 0 0 0-1.228-1.228zm.982 1.228v3.193a.246.246 0 0 1-.246.246h-.737a.246.246 0 0 1-.246-.246v-3.193a.246.246 0 0 1 .246-.246h.737a.246.246 0 0 1 .247.246z" class="cls-2" transform="translate(88.232 796.249)"/>
                <circle id="타원_198" cx=".901" cy=".901" r=".901" class="cls-2" transform="translate(189.685 988.493)"/>
            </g>
        </g>
    </g>
</svg>
