<svg xmlns="http://www.w3.org/2000/svg" width="20" height="20" viewBox="0 0 20 20">
    <defs>
        <style>
            .cls-1{fill:#c9c9c9}
        </style>
    </defs>
    <g id="ico_moveimage_20px" transform="translate(-14 -102)">
        <g id="그룹_2676" transform="translate(14 102)">
            <path id="패스_3011" d="M47.407 52.228v-3.119l13.485 13.485h-3.119a1.2 1.2 0 0 0-1.2 1.2 1.2 1.2 0 0 0 1.2 1.2H63.8A1.2 1.2 0 0 0 65 63.8v-6.026a1.2 1.2 0 1 0-2.407 0v3.118L49.109 47.408h3.118a1.2 1.2 0 0 0 1.2-1.2 1.2 1.2 0 0 0-1.2-1.2H46.2A1.2 1.2 0 0 0 45 46.2v6.024a1.2 1.2 0 0 0 2.407 0z" class="cls-1" transform="translate(-45 -45.001)"/>
            <path id="패스_3012" d="M52.228 62.594h-3.119l13.485-13.485v3.118a1.2 1.2 0 0 0 1.2 1.2 1.2 1.2 0 0 0 1.2-1.2V46.2A1.2 1.2 0 0 0 63.8 45h-6.026a1.2 1.2 0 0 0 0 2.407h3.118L47.408 60.893v-3.119a1.2 1.2 0 0 0-1.2-1.2 1.2 1.2 0 0 0-1.2 1.2V63.8A1.2 1.2 0 0 0 46.2 65h6.024a1.2 1.2 0 0 0 0-2.407z" class="cls-1" transform="translate(-45.001 -45.001)"/>
        </g>
    </g>
</svg>
