<svg xmlns="http://www.w3.org/2000/svg" id="ico_defaultcorrection_20px" width="19.442" height="20" viewBox="0 0 19.442 20">
    <defs>
        <style>
            .cls-1{fill:#aaaeb2}
        </style>
    </defs>
    <g id="그룹_2713">
        <g id="그룹_2712">
            <path id="패스_3043" d="M9.721 0A9.858 9.858 0 0 0 0 10a9.858 9.858 0 0 0 9.721 10 9.858 9.858 0 0 0 9.721-10A9.858 9.858 0 0 0 9.721 0zm0 18.438A8.318 8.318 0 0 1 1.519 10a8.318 8.318 0 0 1 8.2-8.437A8.318 8.318 0 0 1 17.923 10a8.318 8.318 0 0 1-8.202 8.438z" class="cls-1"/>
        </g>
    </g>
    <g id="그룹_2715" transform="translate(8.959 5.026)">
        <g id="그룹_2714">
            <path id="패스_3044" d="M236.762 128.877a.773.773 0 0 0-.762.784v5.048a.762.762 0 1 0 1.524 0v-5.048a.773.773 0 0 0-.762-.784z" class="cls-1" transform="translate(-236 -128.877)"/>
        </g>
    </g>
    <g id="그룹_2717" transform="translate(8.692 12.579)">
        <g id="그룹_2716">
            <ellipse id="타원_148" cx="1.029" cy="1.058" class="cls-1" rx="1.029" ry="1.058"/>
        </g>
    </g>
</svg>
