<svg xmlns="http://www.w3.org/2000/svg" width="40" height="40" viewBox="0 0 40 40">
    <defs>
        <style>
            .cls-2{fill:#fff}
        </style>
    </defs>
    <g id="ico_fastfoward_40px" transform="translate(-260 -967)">
        <path id="사각형_2447" fill="none" d="M0 0H40V40H0z" transform="translate(260 967)"/>
        <g id="Page-1" transform="translate(260.594 974.982)">
            <g id="_118---Forward" transform="translate(9.406 1.017)">
                <path id="Shape" d="M27.8 7.344a.793.793 0 0 0-1.244.983 8.627 8.627 0 0 1 1.875 5.4 8.718 8.718 0 1 1-9.745-8.655l-1.074.921a.793.793 0 0 0 1.03 1.2l2.771-2.373a.792.792 0 0 0 0-1.2l-2.774-2.381a.793.793 0 1 0-1.03 1.2l1.2 1.025a10.3 10.3 0 1 0 11.203 10.265A10.2 10.2 0 0 0 27.8 7.344z" class="cls-2" transform="translate(-9.406 -1.035)"/>
                <path id="Shape-2" d="M300.6 7.094a.792.792 0 0 0 1.118.086l2.775-2.38a.792.792 0 0 0 0-1.2l-2.774-2.378a.793.793 0 1 0-1.03 1.2l2.07 1.778-2.071 1.776a.793.793 0 0 0-.087 1.117z" class="cls-2" transform="translate(-287.333 -1.017)"/>
                <g id="그룹_2810" transform="translate(2.168 -0.36)">
                    <path id="Shape-3" d="M294.464 191.779a.475.475 0 0 0 0 .95h1.425a.475.475 0 1 0 0-.95h-.238v-4.038a.475.475 0 0 0-.738-.4l-.713.475a.475.475 0 0 0 .5.807v3.152z" class="cls-2" transform="translate(-283.612 -176.906)"/>
                    <path id="Shape-4" d="M98.788 187.265a1.188 1.188 0 0 0-1.188 1.188v3.088a1.188 1.188 0 0 0 1.188 1.188h.712a1.188 1.188 0 0 0 1.188-1.188v-3.088a1.188 1.188 0 0 0-1.188-1.188zm.95 1.188v3.088a.238.238 0 0 1-.238.238h-.713a.238.238 0 0 1-.238-.238v-3.088a.238.238 0 0 1 .238-.238h.713a.238.238 0 0 1 .238.238z" class="cls-2" transform="translate(-93.768 -176.905)"/>
                    <circle id="타원_197" cx=".888" cy=".888" r=".888" class="cls-2" transform="translate(7.699 15.175)"/>
                </g>
            </g>
        </g>
    </g>
</svg>
