<?xml version="1.0" encoding="utf-8"?>
<!-- Generator: Adobe Illustrator 24.2.1, SVG Export Plug-In . SVG Version: 6.00 Build 0)  -->
<svg version="1.1" xmlns="http://www.w3.org/2000/svg" xmlns:xlink="http://www.w3.org/1999/xlink" x="0px" y="0px"
	 viewBox="0 0 20.03 20" style="enable-background:new 0 0 20.03 20;" xml:space="preserve">
<style type="text/css">
	.st0{display:none;}
	.st1{display:inline;}
	.st2{fill:#35384D;}
</style>
<g id="레이어_2" class="st0">
	<g class="st1">
		<rect width="20" height="20"/>
	</g>
</g>
<g id="레이어_1">
	<g>
		<path class="st2" d="M18.24,0l-4.7,0.03c-1.01,0.01-1.83,0.83-1.82,1.84c0.01,1.01,0.83,1.82,1.83,1.82h0.01l0.23,0L8.79,8.7
			c-0.72,0.72-0.72,1.88,0,2.59c0.36,0.36,0.83,0.54,1.3,0.54c0.47,0,0.94-0.18,1.3-0.54l5.01-5.01l0,0.23
			c-0.01,1.01,0.81,1.84,1.82,1.84h0.01c1.01,0,1.83-0.81,1.83-1.82l0.03-4.7c0-0.49-0.19-0.96-0.54-1.31
			C19.2,0.19,18.73-0.01,18.24,0z"/>
	</g>
	<g>
		<path class="st2" d="M18.25,10.83c-1.01,0-1.83,0.82-1.83,1.83v3.66H3.75V3.67h3.66c1.01,0,1.83-0.82,1.83-1.83
			C9.25,0.82,8.43,0,7.42,0h-5.5C0.91,0,0.08,0.82,0.08,1.83v16.33c0,1.01,0.82,1.83,1.83,1.83h16.33c1.01,0,1.83-0.82,1.83-1.83
			v-5.5C20.08,11.66,19.26,10.83,18.25,10.83z"/>
	</g>
</g>
</svg>
