<?xml version="1.0" encoding="utf-8"?>
<!-- Generator: Adobe Illustrator 24.2.1, SVG Export Plug-In . SVG Version: 6.00 Build 0)  -->
<svg version="1.1" xmlns="http://www.w3.org/2000/svg" xmlns:xlink="http://www.w3.org/1999/xlink" x="0px" y="0px"
	 viewBox="0 0 20.03 20" style="enable-background:new 0 0 20.03 20;" xml:space="preserve">
<style type="text/css">
	.st0{display:none;}
	.st1{display:inline;}
	.st2{fill:#FFFFFF;}
</style>
<g id="레이어_2" class="st0">
	<g class="st1">
		<rect width="20" height="20"/>
	</g>
</g>
<g id="레이어_1">
	<g id="Page-1">
		<g id="아바타" transform="translate(-317.000000, -1244.000000)">
			<g id="Group-29" transform="translate(317.000000, 1244.000000)">
				<path id="Fill-1" class="st2" d="M17.58,20c-0.19,0-0.34-0.15-0.34-0.34v-2.54c0-0.55-0.14-1.05-0.4-1.47
					c-0.15-0.24-0.33-0.45-0.54-0.61c-0.99-0.8-3.58-2.2-3.61-2.22c-0.16-0.09-0.22-0.29-0.14-0.46c0.09-0.16,0.29-0.22,0.46-0.14
					c0.11,0.06,2.67,1.45,3.71,2.28c0.26,0.21,0.5,0.48,0.69,0.78c0.33,0.53,0.5,1.16,0.5,1.83v2.54C17.92,19.85,17.77,20,17.58,20"
					/>
				<path id="Fill-3" class="st2" d="M17.58,20H2.49v-2.88c0-0.67,0.17-1.3,0.5-1.83c0.19-0.31,0.42-0.57,0.69-0.78
					c1.04-0.83,3.6-2.23,3.71-2.28c0.16-0.09,0.37-0.03,0.46,0.14c0.09,0.16,0.03,0.37-0.14,0.46c-0.03,0.01-2.62,1.42-3.61,2.22
					C3.9,15.2,3.71,15.4,3.56,15.65c-0.26,0.42-0.4,0.93-0.4,1.47v2.2h14.42c0.19,0,0.34,0.15,0.34,0.34
					C17.92,19.85,17.77,20,17.58,20"/>
				<path id="Fill-5" class="st2" d="M10.2,5.02c-1.86,0-3.38,1.92-3.38,4.28c0,2.36,1.52,4.28,3.38,4.28
					c1.86,0,3.38-1.92,3.38-4.28C13.58,6.93,12.06,5.02,10.2,5.02 M10.2,14.24c-2.23,0-4.05-2.22-4.05-4.95s1.82-4.95,4.05-4.95
					s4.05,2.22,4.05,4.95S12.44,14.24,10.2,14.24"/>
				<path id="Fill-7" class="st2" d="M10.2,5.86c-0.33,0-0.64,0.09-0.93,0.25c0.93,0.51,1.6,1.76,1.6,3.18
					c0,1.42-0.67,2.66-1.6,3.18c0.29,0.16,0.6,0.25,0.93,0.25c1.37,0,2.53-1.57,2.53-3.43C12.73,7.43,11.57,5.86,10.2,5.86"/>
				<g id="Fill-9">
					<polygon class="st2" points="17.92,20 16.73,20 16.73,19.32 17.24,19.32 17.24,18.81 17.92,18.81 					"/>
				</g>
				<path id="Fill-11" class="st2" d="M3.31,5.18c-0.37,0-0.68,0.31-0.68,0.68c0,0.37,0.31,0.68,0.68,0.68s0.68-0.3,0.68-0.68
					C3.99,5.49,3.68,5.18,3.31,5.18 M3.31,7.21c-0.75,0-1.35-0.61-1.35-1.35c0-0.75,0.61-1.35,1.35-1.35c0.75,0,1.35,0.61,1.35,1.35
					C4.66,6.61,4.05,7.21,3.31,7.21"/>
				<path id="Fill-13" class="st2" d="M3.31,11.47c-0.37,0-0.68,0.31-0.68,0.68c0,0.37,0.31,0.68,0.68,0.68s0.68-0.3,0.68-0.68
					C3.99,11.78,3.68,11.47,3.31,11.47 M3.31,13.5c-0.75,0-1.35-0.61-1.35-1.35c0-0.75,0.61-1.35,1.35-1.35
					c0.75,0,1.35,0.61,1.35,1.35C4.66,12.9,4.05,13.5,3.31,13.5"/>
				<path id="Fill-15" class="st2" d="M3.31,11.47c-0.19,0-0.34-0.1-0.34-0.23V7.19c0-0.13,0.15-0.23,0.34-0.23s0.34,0.1,0.34,0.23
					v4.04C3.64,11.37,3.49,11.47,3.31,11.47"/>
				<path id="Fill-17" class="st2" d="M3.36,4.94C3.27,4.77,3.34,4.57,3.51,4.47L8.85,1.6c0.17-0.09,0.38-0.03,0.47,0.13
					C9.4,1.9,9.34,2.1,9.16,2.19L3.83,5.07C3.66,5.16,3.45,5.1,3.36,4.94"/>
				<path id="Fill-19" class="st2" d="M16.72,4.94c0.09-0.16,0.02-0.37-0.15-0.46L11.23,1.6c-0.17-0.09-0.38-0.03-0.47,0.13
					c-0.09,0.16-0.02,0.37,0.15,0.46l5.33,2.87C16.42,5.16,16.63,5.1,16.72,4.94"/>
				<path id="Fill-21" class="st2" d="M16.73,5.18c-0.37,0-0.68,0.31-0.68,0.68c0,0.37,0.31,0.68,0.68,0.68
					c0.37,0,0.68-0.3,0.68-0.68C17.41,5.49,17.1,5.18,16.73,5.18 M16.73,7.21c-0.75,0-1.35-0.61-1.35-1.35
					c0-0.75,0.61-1.35,1.35-1.35c0.75,0,1.35,0.61,1.35,1.35C18.08,6.61,17.47,7.21,16.73,7.21"/>
				<path id="Fill-23" class="st2" d="M10.2,0.67c-0.37,0-0.68,0.31-0.68,0.68c0,0.37,0.31,0.68,0.68,0.68
					c0.37,0,0.68-0.3,0.68-0.68C10.88,0.98,10.58,0.67,10.2,0.67 M10.2,2.71c-0.75,0-1.35-0.61-1.35-1.35C8.85,0.61,9.46,0,10.2,0
					c0.75,0,1.35,0.61,1.35,1.35C11.56,2.1,10.95,2.71,10.2,2.71"/>
				<path id="Fill-25" class="st2" d="M16.73,11.47c-0.37,0-0.68,0.31-0.68,0.68c0,0.37,0.31,0.68,0.68,0.68
					c0.37,0,0.68-0.3,0.68-0.68C17.41,11.78,17.1,11.47,16.73,11.47 M16.73,13.5c-0.75,0-1.35-0.61-1.35-1.35
					c0-0.75,0.61-1.35,1.35-1.35c0.75,0,1.35,0.61,1.35,1.35C18.08,12.9,17.47,13.5,16.73,13.5"/>
				<path id="Fill-27" class="st2" d="M16.73,11.47c-0.19,0-0.34-0.1-0.34-0.23V7.19c0-0.13,0.15-0.23,0.34-0.23
					c0.19,0,0.34,0.1,0.34,0.23v4.04C17.06,11.37,16.91,11.47,16.73,11.47"/>
			</g>
		</g>
	</g>
</g>
</svg>
