<?xml version="1.0" encoding="UTF-8"?>
<svg width="16px" height="19px" viewBox="0 0 16 19" version="1.1" xmlns="http://www.w3.org/2000/svg" xmlns:xlink="http://www.w3.org/1999/xlink">
    <!-- Generator: Sketch 53.2 (72643) - https://sketchapp.com -->
    <title>ico_layer1</title>
    <desc>Created with Sketch.</desc>
    <g id="Page-1" stroke="none" stroke-width="1" fill="none" fill-rule="evenodd" opacity="0.800000012">
        <g id="academy-커리큘럼" transform="translate(-662.000000, -986.000000)" fill="#9AC646">
            <path d="M676.87007,997.563987 C676.634445,997.563987 676.42856,997.652611 676.246694,997.775763 L676.235256,997.757348 L670.007216,1001.93532 L663.779176,997.757348 L663.766594,997.775763 C663.585872,997.652611 663.379987,997.563987 663.144362,997.563987 C662.512979,997.563987 662.000553,998.079616 662.000553,998.714945 C662.000553,999.114327 662.214445,999.448105 662.52213,999.655277 L662.509548,999.672542 L669.372402,1004.27637 L669.384984,1004.25911 C669.565706,1004.38111 669.772735,1004.46973 670.007216,1004.46973 C670.241697,1004.46973 670.448726,1004.38111 670.629448,1004.25911 L670.64203,1004.27637 L677.504884,999.672542 L677.492302,999.655277 C677.798843,999.448105 678.013879,999.114327 678.013879,998.714945 C678.013879,998.079616 677.501452,997.563987 676.87007,997.563987 L676.87007,997.563987 Z M676.87007,994.111114 C676.634445,994.111114 676.42856,994.199737 676.246694,994.32289 L676.235256,994.304475 L670.007216,998.482451 L663.779176,994.304475 L663.766594,994.32289 C663.585872,994.199737 663.379987,994.111114 663.144362,994.111114 C662.512979,994.111114 662.000553,994.626743 662.000553,995.262071 C662.000553,995.661454 662.214445,995.995232 662.52213,996.202404 L662.509548,996.219668 L669.372402,1000.8235 L669.384984,1000.80624 C669.565706,1000.92824 669.772735,1001.01686 670.007216,1001.01686 C670.241697,1001.01686 670.448726,1000.92824 670.629448,1000.80624 L670.64203,1000.8235 L677.504884,996.219668 L677.492302,996.202404 C677.798843,995.995232 678.013879,995.661454 678.013879,995.262071 C678.013879,994.626743 677.501452,994.111114 676.87007,994.111114 L676.87007,994.111114 Z M670.007216,988.588818 L674.807782,991.809198 L673.106938,992.950948 L670.007216,995.029578 L665.20665,991.809198 L670.007216,988.588818 Z M662.52213,992.749531 L662.509548,992.766795 L669.372402,997.370626 L669.384984,997.353362 C669.565706,997.475363 669.772735,997.563987 670.007216,997.563987 C670.241697,997.563987 670.448726,997.475363 670.629448,997.353362 L670.64203,997.370626 L677.504884,992.766795 L677.492302,992.749531 C677.798843,992.543509 678.013879,992.20858 678.013879,991.809198 C678.013879,991.410967 677.798843,991.076038 677.492302,990.870016 L677.504884,990.851601 L670.64203,986.24777 L670.629448,986.265034 C670.448726,986.143033 670.241697,986.054409 670.007216,986.054409 C669.772735,986.054409 669.565706,986.143033 669.384984,986.265034 L669.372402,986.24777 L662.509548,990.851601 L662.52213,990.870016 C662.214445,991.076038 662.000553,991.410967 662.000553,991.809198 C662.000553,992.20858 662.214445,992.543509 662.52213,992.749531 L662.52213,992.749531 Z" id="ico_layer1"></path>
        </g>
    </g>
</svg>