<?xml version="1.0" encoding="utf-8"?>
<!-- Generator: Adobe Illustrator 24.2.1, SVG Export Plug-In . SVG Version: 6.00 Build 0)  -->
<svg version="1.1" xmlns="http://www.w3.org/2000/svg" xmlns:xlink="http://www.w3.org/1999/xlink" x="0px" y="0px"
	 viewBox="0 0 20 20" style="enable-background:new 0 0 20 20;" xml:space="preserve">
<style type="text/css">
	.st0{display:none;}
	.st1{display:inline;}
	.st2{fill:#FFFFFF;}
	.st3{filter:url(#Adobe_OpacityMaskFilter);}
	.st4{fill-rule:evenodd;clip-rule:evenodd;fill:#FFFFFF;}
	.st5{mask:url(#mask-2_2_);}
</style>
<g id="레이어_2" class="st0">
	<g class="st1">
		<rect x="40" width="20" height="20"/>
	</g>
</g>
<g id="레이어_1">
	<g id="Page-1">
		<g id="아바타" transform="translate(-423.000000, -1242.000000)">
			<g id="Group-14" transform="translate(423.000000, 1242.000000)">
				<g id="Fill-1">
					<polygon class="st2" points="8.58,9.61 9.36,9.61 9.36,11.3 9.37,11.3 10.66,9.61 11.52,9.61 10.33,11.15 11.73,13.51 
						10.87,13.51 9.87,11.76 9.36,12.42 9.36,13.51 8.58,13.51 					"/>
				</g>
				<g id="Group-13" transform="translate(0.000000, 0.054752)">
					<path id="Fill-2" class="st2" d="M14.53,11.49c0-0.84-0.37-1.34-0.95-1.34c-0.58,0-0.95,0.5-0.95,1.34
						c0,0.83,0.37,1.36,0.95,1.36C14.16,12.86,14.53,12.32,14.53,11.49 M11.84,11.49c0-1.27,0.71-2.01,1.74-2.01
						c1.03,0,1.74,0.74,1.74,2.01c0,1.26-0.71,2.04-1.74,2.04C12.55,13.53,11.84,12.76,11.84,11.49"/>
					<path id="Fill-4" class="st2" d="M16.25,16.11h-8.4c-0.24,0-0.44-0.2-0.44-0.43c0-0.24,0.2-0.44,0.44-0.44h8.4
						c0.24,0,0.43,0.2,0.43,0.44C16.68,15.92,16.49,16.11,16.25,16.11"/>
					<path id="Fill-6" class="st2" d="M16.12,17.8h-2.7c-0.24,0-0.44-0.2-0.44-0.44c0-0.24,0.2-0.43,0.44-0.43h2.7
						c0.24,0,0.43,0.19,0.43,0.43C16.55,17.61,16.36,17.8,16.12,17.8"/>
					<g id="Group-10" transform="translate(3.829787, 2.695035)">
						<g id="Clip-9">
						</g>
						<defs>
							<filter id="Adobe_OpacityMaskFilter" filterUnits="userSpaceOnUse" x="1.65" y="0.04" width="13.12" height="17.21">
								<feColorMatrix  type="matrix" values="1 0 0 0 0  0 1 0 0 0  0 0 1 0 0  0 0 0 1 0"/>
							</filter>
						</defs>
						<mask maskUnits="userSpaceOnUse" x="1.65" y="0.04" width="13.12" height="17.21" id="mask-2_2_">
							<g class="st3">
								<polygon id="path-1_2_" class="st4" points="1.65,0.04 14.77,0.04 14.77,17.25 1.65,17.25 								"/>
							</g>
						</mask>
						<g id="Fill-8" class="st5">
							<path class="st2" d="M10.93,3.88V1.53l2.35,2.35H10.93z M14.77,4.23L14.77,4.23c-0.01-0.04-0.02-0.08-0.04-0.11
								c0-0.01-0.01-0.01-0.01-0.02c-0.02-0.04-0.04-0.07-0.07-0.09l-3.84-3.84c-0.03-0.03-0.06-0.05-0.09-0.07
								c-0.01-0.01-0.01-0.01-0.02-0.01c-0.03-0.02-0.07-0.03-0.11-0.04h0c-0.03-0.01-0.05-0.01-0.08-0.01H8.21v0.87h1.85v3.4
								c0,0.24,0.2,0.44,0.44,0.44h3.4v11.63H2.52V0.91h2.59V0.04H2.09c-0.24,0-0.44,0.2-0.44,0.43v16.34c0,0.24,0.2,0.44,0.44,0.44
								h12.25c0.24,0,0.43-0.2,0.43-0.44V4.31C14.77,4.29,14.77,4.26,14.77,4.23L14.77,4.23z"/>
						</g>
					</g>
					<path id="Fill-11" class="st2" d="M12.85,4.49c-0.17-0.17-0.45-0.17-0.62,0L11.6,5.13c-0.01-0.31-0.04-0.61-0.1-0.9
						c-0.04-0.21-0.09-0.41-0.16-0.61c-0.1-0.3-0.23-0.59-0.37-0.87c-0.08-0.14-0.16-0.28-0.24-0.41C9.77,0.89,8.14-0.05,6.3-0.05
						C4.65-0.05,3.12,0.69,2.11,2C1.89,2.27,1.7,2.57,1.55,2.89C1.44,3.1,1.52,3.37,1.74,3.47c0.22,0.11,0.48,0.02,0.58-0.2
						c0.13-0.27,0.29-0.52,0.47-0.75c0.85-1.09,2.12-1.72,3.5-1.72c1.33,0,2.52,0.59,3.33,1.51c0.11,0.13,0.22,0.27,0.32,0.41
						c0.19,0.27,0.34,0.56,0.47,0.87c0.08,0.2,0.14,0.4,0.19,0.61c0.07,0.29,0.11,0.58,0.12,0.89L10.1,4.49
						c-0.17-0.17-0.45-0.17-0.61,0c-0.17,0.17-0.17,0.45,0,0.62l1.37,1.37c0.09,0.09,0.2,0.13,0.31,0.13c0.11,0,0.22-0.04,0.31-0.13
						l1.37-1.37C13.02,4.94,13.02,4.66,12.85,4.49"/>
				</g>
			</g>
		</g>
	</g>
</g>
</svg>
