<svg xmlns="http://www.w3.org/2000/svg" width="62" height="55" viewBox="0 0 62 55">
    <g fill="none" fill-rule="evenodd">
        <path stroke="#344154" stroke-linecap="round" stroke-linejoin="round" stroke-width="1.71" d="M38.483 13.327L40.539 13.327M38.483 17.764L40.539 17.764M38.483 22.2L40.539 22.2M21.974 17.764L24.03 17.764M21.974 22.2L24.03 22.2M35.692 24.992L35.692 27.046M31.255 24.992L31.255 27.046M26.82 24.992L26.82 27.046M35.692 8.482L35.692 10.536M31.255 8.482L31.255 10.536" transform="translate(0 1)"/>
        <g>
            <path fill="#2575F9" d="M30.283 13.214c0 1.971-1.596 3.566-3.566 3.566v5.308h8.873v-8.874h-5.307z" transform="translate(0 1) translate(0 .113)"/>
            <path stroke="#344154" stroke-linecap="round" stroke-linejoin="round" stroke-width="1.71" d="M55.963 43.375H5.487c-2.557 0-4.63-2.074-4.63-4.633V5.377c0-2.56 2.073-4.635 4.63-4.635h50.476c2.56 0 4.633 2.075 4.633 4.635v33.365c0 2.56-2.073 4.633-4.633 4.633zM.856 33.839L60.596 33.839" transform="translate(0 1) translate(0 .113)"/>
            <path stroke="#344154" stroke-linecap="round" stroke-linejoin="round" stroke-width="1.71" d="M24.495 38.606c0 .293-.238.531-.531.531-.294 0-.531-.238-.531-.531 0-.292.237-.53.53-.53.294 0 .532.238.532.53zM31.255 38.606c0 .293-.237.531-.529.531-.293 0-.531-.238-.531-.531 0-.292.238-.53.531-.53.292 0 .53.238.53.53zM38.018 38.606c0 .293-.238.531-.531.531-.292 0-.531-.238-.531-.531 0-.292.239-.53.53-.53.294 0 .532.238.532.53zM19.209 43.375l-2.085 6.147c-.293.866.216 1.823.969 1.823h25.265c.752 0 1.261-.957.968-1.823l-2.084-6.147" transform="translate(0 1) translate(0 .113)"/>
        </g>
    </g>
</svg>
