<svg width="28" height="24" viewBox="0 0 28 24" xmlns="http://www.w3.org/2000/svg" xmlns:xlink="http://www.w3.org/1999/xlink">
    <defs>
        <path id="a" d="M0 0h28v24H0z"/>
    </defs>
    <g fill="none" fill-rule="evenodd" opacity=".6">
        <mask id="b" fill="#fff">
            <use xlink:href="#a"/>
        </mask>
        <path d="M12.882 23a.198.198 0 0 1-.187-.13l-.494-1.371a9.64 9.64 0 0 1-1.227-.074l-.694 1.3a.2.2 0 0 1-.212.101 11.172 11.172 0 0 1-1.597-.422.193.193 0 0 1-.132-.198l.118-1.44a9.75 9.75 0 0 1-1.15-.563l-1.186.918a.203.203 0 0 1-.234.008 11.42 11.42 0 0 1-1.262-.975.19.19 0 0 1-.04-.235l.704-1.261a9.631 9.631 0 0 1-.9-1.044l-1.468.37a.2.2 0 0 1-.217-.085 10.708 10.708 0 0 1-.729-1.333.19.19 0 0 1 .06-.232l1.16-.867a9.25 9.25 0 0 1-.432-1.44l-1.495-.247a.195.195 0 0 1-.165-.191c-.065-.441-.1-.922-.103-1.409 0-.09.062-.168.152-.189l1.418-.33a9.3 9.3 0 0 1 .227-1.632L1.54 9.215A.19.19 0 0 1 1.46 9c.125-.42.286-.853.479-1.285a.199.199 0 0 1 .218-.113l1.437.262a9.566 9.566 0 0 1 .971-1.5L3.763 5.13a.19.19 0 0 1 .018-.231c.3-.334.617-.648.944-.934a.202.202 0 0 1 .245-.015l1.207.812A9.655 9.655 0 0 1 7.78 3.749l-.217-1.434a.193.193 0 0 1 .116-.205c.4-.173.814-.323 1.229-.448a.2.2 0 0 1 .227.084l.77 1.23a9.642 9.642 0 0 1 1.92-.26l.396-1.39c.024-.084.09-.146.195-.14.432.008.872.043 1.306.102.088.011.157.08.169.166l.194 1.438a9.802 9.802 0 0 1 1.961.605c.1.043.145.157.102.255a.201.201 0 0 1-.261.1 9.398 9.398 0 0 0-2.016-.607.195.195 0 0 1-.16-.164l-.193-1.43c-.319-.039-.64-.064-.958-.075l-.393 1.38a.198.198 0 0 1-.186.142 9.225 9.225 0 0 0-2.119.288.2.2 0 0 1-.219-.086l-.765-1.223c-.303.095-.605.206-.901.328l.216 1.426a.192.192 0 0 1-.109.201 9.256 9.256 0 0 0-1.771 1.12.203.203 0 0 1-.239.01l-1.2-.807c-.239.216-.473.448-.697.69l.798 1.227a.19.19 0 0 1-.011.224 9.132 9.132 0 0 0-1.081 1.67.2.2 0 0 1-.214.105L2.24 8.01c-.139.323-.259.645-.36.961l1.25.809c.068.045.102.127.082.206a8.87 8.87 0 0 0-.253 1.834.194.194 0 0 1-.152.182l-1.41.328c.008.37.035.736.08 1.091l1.485.245a.196.196 0 0 1 .162.154 8.93 8.93 0 0 0 .493 1.64.19.19 0 0 1-.063.225l-1.153.861c.167.352.355.696.561 1.026l1.458-.366a.202.202 0 0 1 .21.076c.313.43.663.836 1.041 1.204.063.06.077.154.034.23l-.698 1.253c.314.272.644.527.982.759l1.178-.912a.2.2 0 0 1 .226-.013c.42.25.872.47 1.346.657.08.032.13.111.123.195l-.117 1.432c.418.137.837.247 1.251.33l.69-1.292a.202.202 0 0 1 .203-.102c.482.066.969.094 1.447.087.072-.008.162.05.19.129l.492 1.364c.237-.018.451-.04.652-.067.202-.028.41-.063.647-.11l.094-1.444a.195.195 0 0 1 .147-.175c.469-.121.928-.279 1.366-.467a.201.201 0 0 1 .224.043l1.025 1.06c.392-.2.765-.419 1.111-.652l-.512-1.345a.19.19 0 0 1 .063-.22 9.296 9.296 0 0 0 1.11-.993.202.202 0 0 1 .222-.047l1.387.563c.266-.318.512-.652.735-.993l-1.023-1.019a.19.19 0 0 1-.031-.23 9.13 9.13 0 0 0 .663-1.435c.036-.1.15-.155.252-.119a.192.192 0 0 1 .121.247c-.169.47-.377.93-.62 1.37l1.03 1.024a.19.19 0 0 1 .027.237c-.278.441-.595.87-.942 1.275a.202.202 0 0 1-.228.055l-1.396-.567a9.75 9.75 0 0 1-.949.849l.516 1.354a.19.19 0 0 1-.07.224c-.436.302-.912.582-1.418.833a.202.202 0 0 1-.233-.04l-1.033-1.066a9.925 9.925 0 0 1-1.157.396l-.095 1.454a.195.195 0 0 1-.156.177c-.308.064-.57.11-.822.144-.252.034-.524.06-.83.08h-.014" fill="#FFF" mask="url(#b)"/>
        <path d="M19.19 13.213c-.521 3.29-3.436 5.81-6.954 5.81-3.886 0-7.037-3.075-7.037-6.87 0-3.793 3.15-6.869 7.037-6.869.97 0 1.896.192 2.737.539l-1.22 1.21a5.61 5.61 0 0 0-2.341-.175c-3.006.408-5.105 3.118-4.687 6.052.42 2.935 3.196 4.982 6.202 4.574a5.471 5.471 0 0 0 4.373-3.388" fill="#FFF" mask="url(#b)"/>
        <path d="M12.236 19.217c-3.99 0-7.235-3.169-7.235-7.063C5 8.259 8.247 5.09 12.236 5.09c.975 0 1.922.186 2.814.554.06.025.104.077.117.14a.19.19 0 0 1-.053.174l-1.22 1.209a.2.2 0 0 1-.199.05 5.387 5.387 0 0 0-2.256-.17c-2.893.394-4.92 3.012-4.518 5.835.404 2.824 3.084 4.8 5.98 4.41 1.905-.26 3.52-1.511 4.214-3.267a.2.2 0 0 1 .256-.11c.102.038.152.15.113.25-.745 1.886-2.481 3.231-4.53 3.51-3.11.42-5.991-1.705-6.425-4.74-.433-3.034 1.746-5.847 4.855-6.27a5.79 5.79 0 0 1 2.31.149l.928-.92a6.942 6.942 0 0 0-2.386-.418c-3.771 0-6.84 2.995-6.84 6.677 0 3.68 3.069 6.676 6.84 6.676 3.343 0 6.248-2.428 6.759-5.647a.198.198 0 0 1 .226-.162.194.194 0 0 1 .165.221c-.549 3.462-3.556 5.975-7.15 5.975" fill="#FFF" mask="url(#b)"/>
        <path d="M24.084 8.696c-.36 1.773-2.128 2.923-3.944 2.569-1.817-.354-2.996-2.08-2.634-3.852.363-1.773 2.13-2.923 3.947-2.57 1.816.355 2.994 2.08 2.631 3.853zm2.105-.96c-.013-.2-.035-.399-.07-.595l1.374-1.17a6.79 6.79 0 0 0-.724-1.524l-1.795.256a4.988 4.988 0 0 0-.423-.441l.406-1.731a7.093 7.093 0 0 0-1.497-.826L22.152 2.95c-.1-.025-.196-.053-.295-.074-.102-.019-.203-.03-.307-.042l-.714-1.64a7.224 7.224 0 0 0-1.71.2l-.307 1.748c-.192.075-.38.155-.56.251L16.7 2.484a6.859 6.859 0 0 0-1.267 1.135l.807 1.597c-.11.166-.209.34-.302.522l-1.812.158a7.189 7.189 0 0 0-.226.814 6.59 6.59 0 0 0-.11.835l1.611.828c.013.2.035.397.07.595l-1.375 1.17c.177.536.425 1.048.727 1.524l1.793-.256c.129.155.273.302.42.441l-.403 1.73c.457.33.958.61 1.5.827l1.304-1.245c.1.024.197.053.298.074.102.018.199.03.302.042l.716 1.64a7.228 7.228 0 0 0 1.711-.2l.304-1.748c.194-.075.384-.155.563-.251l1.558.909a6.926 6.926 0 0 0 1.268-1.134l-.807-1.598c.106-.167.21-.34.3-.522l1.812-.158c.091-.265.171-.535.227-.814.058-.28.09-.558.112-.835l-1.613-.827z" fill="#FFF" mask="url(#b)"/>
        <path d="M20.796 4.973c-1.474 0-2.796 1.015-3.095 2.477a3.004 3.004 0 0 0 .47 2.314 3.14 3.14 0 0 0 2.007 1.312c.828.16 1.67-.003 2.372-.46a3.051 3.051 0 0 0 1.34-1.957c.34-1.667-.77-3.293-2.476-3.627a3.24 3.24 0 0 0-.618-.06m.008 6.55c-.233 0-.469-.022-.703-.068a3.534 3.534 0 0 1-2.26-1.476 3.376 3.376 0 0 1-.529-2.603c.383-1.874 2.257-3.096 4.18-2.722 1.92.375 3.17 2.206 2.786 4.081a3.436 3.436 0 0 1-1.508 2.204 3.59 3.59 0 0 1-1.966.585m-1.366 1.443a.2.2 0 0 1 .048.006l.115.03c.059.014.117.03.177.042.086.015.174.025.267.037.07.009.148.055.175.118l.665 1.523a7.024 7.024 0 0 0 1.407-.165l.282-1.623a.194.194 0 0 1 .123-.147c.153-.06.352-.14.54-.24a.203.203 0 0 1 .197.003l1.444.843c.39-.283.741-.596 1.044-.932l-.748-1.482a.19.19 0 0 1 .009-.187c.123-.195.215-.355.29-.506a.2.2 0 0 1 .16-.108l1.683-.146a5.912 5.912 0 0 0 .278-1.356l-1.497-.768a.193.193 0 0 1-.106-.16 5.262 5.262 0 0 0-.067-.574.191.191 0 0 1 .065-.178l1.275-1.085c-.15-.43-.35-.85-.596-1.254l-1.666.237a.202.202 0 0 1-.181-.069 4.819 4.819 0 0 0-.407-.424.19.19 0 0 1-.056-.182l.376-1.607a6.847 6.847 0 0 0-1.23-.679L22.29 3.088a.204.204 0 0 1-.188.049l-.086-.022c-.067-.018-.135-.036-.202-.05a3.6 3.6 0 0 0-.232-.032l-.057-.007a.197.197 0 0 1-.158-.116l-.663-1.523a7.083 7.083 0 0 0-1.407.165l-.284 1.623a.195.195 0 0 1-.121.147c-.222.086-.389.16-.54.241a.203.203 0 0 1-.196-.004l-1.446-.843a6.68 6.68 0 0 0-1.041.932l.749 1.482a.189.189 0 0 1-.011.19c-.1.15-.194.315-.291.504a.2.2 0 0 1-.16.107l-1.681.146a6.328 6.328 0 0 0-.181.671 6.067 6.067 0 0 0-.097.685l1.496.768a.193.193 0 0 1 .106.16c.013.206.035.394.066.574a.19.19 0 0 1-.065.178l-1.274 1.085c.15.429.351.85.598 1.254l1.663-.237a.2.2 0 0 1 .182.069c.112.133.244.272.405.424a.19.19 0 0 1 .055.182l-.374 1.605c.39.27.804.5 1.233.68l1.211-1.154a.2.2 0 0 1 .138-.055m1.354 2.143c-.091 0-.184-.035-.22-.118l-.672-1.538a4.622 4.622 0 0 1-.2-.03c-.072-.015-.136-.032-.2-.049h-.003l-1.225 1.168a.202.202 0 0 1-.214.04 7.252 7.252 0 0 1-1.541-.85.191.191 0 0 1-.076-.197l.379-1.626a5.4 5.4 0 0 1-.284-.296l-1.683.24a.202.202 0 0 1-.197-.09 7.066 7.066 0 0 1-.748-1.567.191.191 0 0 1 .059-.205l1.291-1.099a5.58 5.58 0 0 1-.046-.399L13.7 7.716a.192.192 0 0 1-.106-.185c.021-.304.058-.585.113-.858a7.24 7.24 0 0 1 .233-.837.197.197 0 0 1 .17-.133l1.703-.148a5.82 5.82 0 0 1 .203-.35l-.758-1.501a.19.19 0 0 1 .026-.21 7.05 7.05 0 0 1 1.303-1.167.201.201 0 0 1 .216-.008l1.463.853c.112-.056.234-.11.378-.168l.287-1.643a.195.195 0 0 1 .149-.155A7.285 7.285 0 0 1 20.838 1c.078 0 .15.047.18.118l.67 1.538c.069.008.137.017.206.03.07.015.135.032.2.049l1.227-1.168a.202.202 0 0 1 .214-.04 7.263 7.263 0 0 1 1.54.848.191.191 0 0 1 .075.199l-.381 1.625c.106.102.2.2.286.297l1.685-.24a.2.2 0 0 1 .197.09c.317.5.568 1.026.745 1.567a.191.191 0 0 1-.058.205l-1.292 1.099c.02.127.035.259.046.399l1.516.777c.07.036.112.109.105.186-.025.329-.062.602-.115.859a6.614 6.614 0 0 1-.232.836.198.198 0 0 1-.171.132l-1.702.148a6.074 6.074 0 0 1-.202.35l.759 1.501a.19.19 0 0 1-.027.21 7.13 7.13 0 0 1-1.304 1.167.202.202 0 0 1-.217.008l-1.462-.852a5.24 5.24 0 0 1-.38.167l-.286 1.643a.196.196 0 0 1-.148.155 7.437 7.437 0 0 1-1.72.206" fill="#FFF" mask="url(#b)"/>
        <path d="M20.795 9.091a.196.196 0 0 1-.198-.193V7.21c0-.107.089-.193.198-.193.11 0 .198.086.198.193v1.687a.196.196 0 0 1-.198.193" fill="#FFF" mask="url(#b)"/>
        <path d="M21.66 8.248h-1.728a.196.196 0 0 1-.198-.193c0-.107.088-.194.198-.194h1.727c.11 0 .198.087.198.194a.196.196 0 0 1-.198.193" fill="#FFF" mask="url(#b)"/>
    </g>
</svg>
