<svg width="28" height="24" viewBox="0 0 28 24" xmlns="http://www.w3.org/2000/svg" xmlns:xlink="http://www.w3.org/1999/xlink">
    <defs>
        <path id="a" d="M0 0h28v24H0z"/>
    </defs>
    <g fill="none" fill-rule="evenodd">
        <mask id="b" fill="#fff">
            <use xlink:href="#a"/>
        </mask>
        <path d="m25.975 17.537-.787.145V5.893c0-1.259-1.042-2.283-2.324-2.283h-4.506l4.775-.885c.875-.162 1.72.406 1.885 1.265l2.244 11.695c.164.859-.413 1.69-1.287 1.852zm-.83.696zm-.723-.027zm-1.5-11.235H12.024a.293.293 0 0 1-.296-.291c0-.16.132-.29.296-.29h10.898c.163 0 .296.13.296.29 0 .16-.133.29-.296.29zm0 2.581H12.024a.293.293 0 0 1-.296-.29c0-.16.132-.291.296-.291h10.898c.163 0 .296.13.296.29 0 .161-.133.291-.296.291zm0 2.582H12.024a.293.293 0 0 1-.296-.29c0-.161.132-.291.296-.291h10.898c.163 0 .296.13.296.29 0 .161-.133.291-.296.291zm0 2.582H12.024a.293.293 0 0 1-.296-.29c0-.161.132-.291.296-.291h10.898c.163 0 .296.13.296.29 0 .161-.133.291-.296.291zm-2.12 2.582h-6.66a.293.293 0 0 1-.296-.29c0-.161.133-.292.296-.292h6.66c.164 0 .297.13.297.291 0 .16-.133.29-.296.29zM5.79 21.275c-.852.157-1.675-.376-1.87-1.198h8.335L5.79 21.275zm-2.595-4.968H1.766v-1.155c0-.418.093-.814.26-1.17.14-.302.334-.574.568-.806a2.872 2.872 0 0 1 2.028-.83h2.796c1.578 0 2.856 1.256 2.856 2.806v1.155h-7.08zM6.02 7.38c1.27 0 2.3 1.011 2.3 2.26 0 1.247-1.03 2.258-2.3 2.258-1.27 0-2.3-1.011-2.3-2.259S4.75 7.38 6.02 7.38zm11.396-3.596-.942.175.942-.175zM27.96 15.556 25.716 3.86c-.237-1.237-1.455-2.054-2.714-1.821l-8.479 1.57H2.324C1.043 3.61 0 4.634 0 5.893v11.9c0 1.26 1.043 2.284 2.324 2.284h.871l.012.062c.237 1.237 1.455 2.055 2.714 1.821l10.168-1.883h6.775a2.322 2.322 0 0 0 2.239-1.669l1.003-.185c1.26-.234 2.09-1.43 1.854-2.667z" fill="#FFF" mask="url(#b)"/>
    </g>
</svg>
