<svg width="28" height="24" viewBox="0 0 28 24" xmlns="http://www.w3.org/2000/svg" xmlns:xlink="http://www.w3.org/1999/xlink">
    <defs>
        <path id="a" d="M0 0h28v24H0z"/>
        <path id="c" d="M0 0h28v1.792H0z"/>
        <path id="e" d="M0 0h14.207v13.937H0z"/>
    </defs>
    <g fill="none" fill-rule="evenodd" opacity=".6">
        <mask id="b" fill="#fff">
            <use xlink:href="#a"/>
        </mask>
        <path d="M24.062 20.59a.195.195 0 0 1-.198-.191V7.362a.239.239 0 0 0-.243-.235h-5.394a.194.194 0 0 1-.198-.19c0-.107.088-.192.198-.192h5.394c.352 0 .639.277.639.617v13.037a.195.195 0 0 1-.198.19M3.938 20.59a.195.195 0 0 1-.198-.191V7.362c0-.34.287-.617.639-.617h6.248c.11 0 .197.085.197.191a.194.194 0 0 1-.197.191H4.379a.239.239 0 0 0-.243.235v13.037a.195.195 0 0 1-.198.19" fill="#FFF" mask="url(#b)"/>
        <path d="M5.455 8.24a.19.19 0 0 0-.194.187v10.477c0 .104.087.188.194.188h17.09a.191.191 0 0 0 .195-.188V8.427a.19.19 0 0 0-.194-.187h-3.837a4.1 4.1 0 0 1-1.872 2.935 4.392 4.392 0 0 1-3.219.615c-1.808-.348-3.189-1.794-3.413-3.55h-4.75zm17.09 11.234H5.456a.58.58 0 0 1-.59-.57V8.427a.58.58 0 0 1 .59-.569h4.928c.103 0 .19.077.197.176.14 1.664 1.42 3.055 3.115 3.382a3.987 3.987 0 0 0 2.922-.558 3.721 3.721 0 0 0 1.655-2.389c.027-.131.048-.274.061-.435a.195.195 0 0 1 .197-.176h4.016a.58.58 0 0 1 .59.57v10.476a.58.58 0 0 1-.59.57z" fill="#FFF" mask="url(#b)"/>
        <g mask="url(#b)">
            <g transform="translate(0 20.208)">
                <mask id="d" fill="#fff">
                    <use xlink:href="#c"/>
                </mask>
                <path d="m.543.382.403.666a.812.812 0 0 0 .685.362H26.37a.814.814 0 0 0 .687-.367l.4-.661h-9.706c-.26.286-.637.453-1.03.453h-5.442c-.392 0-.77-.167-1.03-.453H.543zm25.827 1.41H1.63c-.418 0-.8-.204-1.023-.546L.027.287a.185.185 0 0 1 0-.191A.2.2 0 0 1 .196 0h10.147a.2.2 0 0 1 .157.076.992.992 0 0 0 .778.377h5.442a.992.992 0 0 0 .778-.377.2.2 0 0 1 .158-.076h10.145a.2.2 0 0 1 .172.096.186.186 0 0 1 0 .191l-.578.954a1.215 1.215 0 0 1-1.026.551z" fill="#FFF" mask="url(#d)"/>
            </g>
        </g>
        <path d="M16.966 7.87c-.513 1.581-2.26 2.46-3.899 1.963-1.638-.497-2.55-2.183-2.035-3.765.515-1.582 2.261-2.46 3.9-1.964 1.639.498 2.549 2.184 2.034 3.765zm2.427-.656c.009-.198.01-.396-.003-.591l1.493-1.008a6.655 6.655 0 0 0-.552-1.573l-1.812.066a4.952 4.952 0 0 0-.372-.477l.593-1.659a7.01 7.01 0 0 0-1.397-.965l-1.436 1.087c-.095-.035-.189-.072-.285-.103-.099-.029-.198-.05-.3-.073l-.53-1.685a7.303 7.303 0 0 0-1.721.02l-.496 1.686a5.47 5.47 0 0 0-.585.188L10.54 1.073c-.498.27-.964.599-1.382.983l.626 1.653a5.416 5.416 0 0 0-.357.482L7.61 4.16a7.026 7.026 0 0 0-.314.776 6.358 6.358 0 0 0-.201.809l1.51.98c-.01.198-.01.394.003.591L7.115 8.322c.117.546.307 1.075.555 1.574l1.81-.066c.11.165.238.325.369.476l-.591 1.659c.418.37.885.697 1.4.966l1.433-1.088c.095.034.189.073.287.104.1.028.194.05.296.073l.531 1.685c.581.064 1.159.053 1.722-.02l.494-1.687c.201-.053.399-.112.587-.187l1.448 1.053a7.019 7.019 0 0 0 1.385-.982l-.626-1.653a5.98 5.98 0 0 0 .355-.482l1.818.032c.119-.252.228-.508.314-.776.089-.27.152-.54.204-.809l-1.513-.98z" fill="#FFF" mask="url(#b)"/>
        <g mask="url(#b)">
            <g transform="translate(6.897)">
                <mask id="f" fill="#fff">
                    <use xlink:href="#e"/>
                </mask>
                <path d="M7.106 4.157c-1.24 0-2.391.77-2.782 1.968-.481 1.48.374 3.06 1.906 3.526a2.99 2.99 0 0 0 2.22-.19 2.814 2.814 0 0 0 1.43-1.65c.482-1.478-.372-3.06-1.904-3.525a3 3 0 0 0-.87-.129zm.001 6.006c-.333 0-.668-.049-.995-.148C4.37 9.487 3.4 7.69 3.947 6.01c.546-1.679 2.406-2.615 4.148-2.09 1.74.53 2.71 2.326 2.163 4.005A3.195 3.195 0 0 1 8.633 9.8c-.479.241-1 .363-1.526.363zm-.647 3.365c.464.042.939.037 1.416-.017l.459-1.564a.194.194 0 0 1 .137-.133 4.65 4.65 0 0 0 .564-.18.205.205 0 0 1 .195.024l1.344.978a6.81 6.81 0 0 0 1.139-.808l-.582-1.534a.185.185 0 0 1 .03-.182c.147-.184.253-.328.344-.467a.187.187 0 0 1 .17-.09l1.689.03a5.73 5.73 0 0 0 .425-1.303l-1.404-.91a.187.187 0 0 1-.087-.167c.01-.206.008-.392-.003-.57a.19.19 0 0 1 .084-.17l1.385-.934a6.47 6.47 0 0 0-.455-1.293l-1.68.061a.208.208 0 0 1-.174-.086 4.668 4.668 0 0 0-.357-.459.185.185 0 0 1-.036-.185l.551-1.54a6.845 6.845 0 0 0-1.149-.794l-1.332 1.01a.202.202 0 0 1-.192.028l-.084-.032c-.064-.023-.129-.048-.193-.068-.073-.022-.15-.039-.228-.056l-.056-.013a.196.196 0 0 1-.144-.13L7.745.409a7.18 7.18 0 0 0-1.417.017l-.46 1.565a.195.195 0 0 1-.137.132c-.23.062-.403.117-.563.18a.205.205 0 0 1-.194-.023L3.63 1.3a6.708 6.708 0 0 0-1.138.81l.581 1.532a.185.185 0 0 1-.032.186c-.114.138-.227.29-.344.465a.211.211 0 0 1-.17.088l-1.686-.03c-.11.241-.19.442-.255.64-.067.21-.123.43-.17.664l1.402.91c.057.036.09.1.087.166-.01.207-.008.393.003.571a.189.189 0 0 1-.084.169l-1.386.934c.103.436.256.87.458 1.294l1.678-.061c.068.002.136.03.174.086.094.14.21.29.356.46a.186.186 0 0 1 .034.184l-.548 1.538c.357.305.743.572 1.15.796l1.33-1.01a.204.204 0 0 1 .19-.029l.109.04c.057.02.114.042.173.061.087.024.176.045.27.066a.212.212 0 0 1 .153.133l.494 1.564zm.62.41c-.267 0-.532-.015-.793-.043a.196.196 0 0 1-.167-.134l-.5-1.581a4.236 4.236 0 0 1-.194-.05 3.312 3.312 0 0 1-.198-.07l-1.345 1.021a.2.2 0 0 1-.217.018 7.21 7.21 0 0 1-1.439-.994.187.187 0 0 1-.053-.203l.555-1.557a5.136 5.136 0 0 1-.25-.321l-1.698.062a.212.212 0 0 1-.186-.108 6.856 6.856 0 0 1-.57-1.617.187.187 0 0 1 .08-.195l1.403-.947a5.974 5.974 0 0 1-.002-.396l-1.418-.92a.187.187 0 0 1-.085-.193c.055-.297.123-.57.207-.831.08-.246.18-.491.323-.799.033-.07.115-.107.184-.112l1.708.03c.08-.117.16-.224.24-.324l-.589-1.552a.186.186 0 0 1 .05-.204A7.08 7.08 0 0 1 3.548.907a.206.206 0 0 1 .216.014l1.36.99c.118-.044.245-.085.393-.127L5.983.2a.198.198 0 0 1 .165-.137 7.537 7.537 0 0 1 1.77-.02.195.195 0 0 1 .167.134l.497 1.58c.067.016.135.032.201.052.068.021.13.044.194.068l1.348-1.02a.207.207 0 0 1 .216-.019c.517.272 1 .606 1.436.994a.187.187 0 0 1 .053.202l-.556 1.558c.094.111.177.218.251.321l1.702-.062c.08 0 .151.04.185.109.261.524.452 1.069.569 1.617a.188.188 0 0 1-.081.195l-1.404.946c.006.127.006.258.002.397l1.421.92a.188.188 0 0 1 .085.194 6.72 6.72 0 0 1-.21.832c-.079.246-.182.5-.322.797a.214.214 0 0 1-.184.112l-1.708-.03c-.068.099-.146.203-.239.322l.59 1.554a.186.186 0 0 1-.05.204c-.414.38-.893.721-1.424 1.01a.204.204 0 0 1-.216-.013l-1.36-.99a5.088 5.088 0 0 1-.396.127l-.464 1.583a.196.196 0 0 1-.164.138 7.67 7.67 0 0 1-.977.062z" fill="#FFF" mask="url(#f)"/>
            </g>
        </g>
        <path d="M13.999 7.993a.195.195 0 0 1-.198-.19V6.135c0-.106.089-.191.198-.191.11 0 .198.085.198.19v1.667a.195.195 0 0 1-.198.191" fill="#FFF" mask="url(#b)"/>
        <path d="M14.862 7.16h-1.726a.194.194 0 0 1-.198-.191c0-.105.088-.191.198-.191h1.726c.11 0 .198.086.198.191a.195.195 0 0 1-.198.191" fill="#FFF" mask="url(#b)"/>
        <path d="M14 3.212c-1.818 0-3.448 1.237-3.817 3.02a3.627 3.627 0 0 0 .58 2.82 3.88 3.88 0 0 0 2.475 1.6 3.987 3.987 0 0 0 2.922-.558 3.721 3.721 0 0 0 1.655-2.389c.42-2.031-.95-4.014-3.053-4.42A4.03 4.03 0 0 0 14 3.212m.01 7.896c-.282 0-.566-.027-.849-.082a4.27 4.27 0 0 1-2.728-1.761 3.995 3.995 0 0 1-.638-3.107c.462-2.237 2.727-3.693 5.044-3.248 2.318.448 3.827 2.632 3.364 4.87a4.1 4.1 0 0 1-1.823 2.631 4.368 4.368 0 0 1-2.37.697" fill="#FFF" mask="url(#b)"/>
    </g>
</svg>
