<svg width="80" height="80" viewBox="0 0 80 80" xmlns="http://www.w3.org/2000/svg" xmlns:xlink="http://www.w3.org/1999/xlink">
    <defs>
        <path id="a" d="M0 0h46.79v46.196H0z"/>
        <path id="c" d="M0 0h71.607v63.475H0z"/>
    </defs>
    <g fill="none" fill-rule="evenodd">
        <g transform="translate(33.21)">
            <mask id="b" fill="#fff">
                <use xlink:href="#a"/>
            </mask>
            <path d="M36.089 44.433h-1.476a.895.895 0 0 0-.886.882c0 .44.443.88.886.88h1.476c.516 0 .885-.44.885-.88a.895.895 0 0 0-.885-.882m6.715-.808c-.369.22-.738.441-1.107.514-.516.147-.738.661-.59 1.176.148.514.664.734 1.18.587.517-.22 1.034-.44 1.55-.734a.95.95 0 0 0 .296-1.249c-.37-.44-.96-.587-1.329-.294m2.214-5.728v1.469c0 .514.443.88.886.88s.886-.44.886-.88v-1.47c0-.513-.443-.88-.886-.88s-.886.367-.886.88m0-7.344v1.47c0 .513.443.88.886.88s.886-.44.886-.88v-1.47c0-.514-.443-.881-.886-.881s-.886.367-.886.881m0-7.344v1.469c0 .514.443.881.886.881s.886-.44.886-.881v-1.469c0-.514-.443-.881-.886-.881s-.886.367-.886.881m0-7.344v1.468c0 .515.443.882.886.882s.886-.44.886-.882v-1.468c0-.514-.443-.882-.886-.882s-.886.368-.886.882m0-7.345v1.47c0 .513.443.88.886.88s.886-.44.886-.88v-1.47c0-.514-.443-.881-.886-.881s-.886.367-.886.881m-2.14-5.802c.37.22.664.514.96.808.369.367.885.44 1.328.074.37-.368.443-.882.074-1.322-.37-.441-.812-.808-1.255-1.176-.443-.293-.96-.22-1.254.22-.296.441-.222 1.102.147 1.396m-6.642-.881h1.476c.517 0 .886-.44.886-.955 0-.514-.443-.881-.886-.881h-1.476a.895.895 0 0 0-.885.881c0 .44.369.955.885.955m-7.38 0h1.476c.517 0 .886-.44.886-.955 0-.514-.443-.881-.886-.881h-1.476a.895.895 0 0 0-.886.881c0 .44.37.955.886.955m-7.38 0h1.476c.517 0 .886-.44.886-.955 0-.514-.443-.881-.886-.881h-1.476a.895.895 0 0 0-.886.881c0 .44.37.955.886.955m-7.38 0h1.476c.517 0 .886-.44.886-.955 0-.514-.443-.881-.886-.881h-1.476a.895.895 0 0 0-.886.881c0 .44.37.955.886.955m-7.38 0h1.476c.516 0 .885-.44.885-.955C9.077.367 8.635 0 8.192 0H6.716c-.517 0-.886.44-.886.955 0 .514.37.88.886.88m-4.65 3.526c.148-.367.296-.808.517-1.101.295-.441.148-1.029-.295-1.249-.443-.294-1.033-.147-1.255.294A6.954 6.954 0 0 0 .37 4.847c-.148.514.148 1.028.59 1.175.443.147.96-.147 1.107-.66m-.221 7.123v-1.469c0-.514-.443-.881-.886-.881-.442 0-.959.367-.959.881v1.47c0 .513.443.88.886.88.442 0 .959-.44.959-.88" fill="#BEC2F4" mask="url(#b)"/>
        </g>
        <path d="M29.077 36.869c-.295 1.248-.22 2.79.37 3.672 3.542 4.553 6.199 8.078 7.896 10.576 1.255 1.836 3.543 3.892 4.65 6.83.221.66.221 1.542 0 2.79-.886-.734-1.624-1.395-2.362-1.982a115.725 115.725 0 0 1-4.502-6.243c-1.697-2.497-4.28-6.17-7.749-11.017-.96-1.468-.738-3.305.59-4.186.296-.22.738-.367 1.107-.44m1.108 19.756c0 .367.073.66.147.955.812 2.644 9.816 7.417 18.82 9.768 1.18.22 3.025 1.175 5.682 2.937l-3.173 2.718a12.267 12.267 0 0 0-3.395-1.102c-9.004-2.35-19.336-9.474-20.074-12.118-.738-2.203.59-3.085 1.993-3.158" fill="#C6C8F4"/>
        <g transform="translate(0 16.525)">
            <mask id="d" fill="#fff">
                <use xlink:href="#c"/>
            </mask>
            <path d="M40 0c3.69 0 6.716 2.938 6.79 6.61v10.576c0 .514-.443.881-.886.881s-.886-.367-.886-.808V6.756c0-2.643-2.14-4.846-4.797-4.92H6.864c-2.657 0-4.871 2.13-4.945 4.774v32.829c0 2.644 2.14 4.848 4.797 4.921h9.077c.517 0 .886.44.886.881s-.369.882-.812.882H6.79c-3.69 0-6.716-2.938-6.79-6.61V6.757C0 3.085 2.952.073 6.642 0H40zM28.487 21.519c-.886.588-1.033 1.91-.369 2.938l3.616 5.067 2.067 3.012c.516.734.96 1.395 1.402 2.056l.664.955c1.698 2.497 3.69 5.14 5.904 8.005.59.735-.221 1.763-1.107 1.396l-2.14-.955-1.402-.588c-3.395-1.469-5.461-2.203-6.126-2.35-1.476-.22-2.361.514-1.919 1.983.812 2.57 11.292 9.254 19.189 11.457l.221.074.295.073c1.107.22 2.067.588 3.026 1.028l.295.147c.074.074.222.147.296.22l12.324-9.914c-.369-1.029-.738-2.057-1.033-3.232l-.221-.881c-1.181-4.48-2.067-6.537-4.576-10.723a44.419 44.419 0 0 0-5.461-7.418l-.443-.734-.074-.074c-.369-.514-1.919-.808-2.657-.293-.738.44-.96 1.762-.59 2.423l.074.074 1.845 2.644c.295.44.147.954-.222 1.248-.369.294-.96.22-1.254-.147l-.074-.073-1.18-1.763-.149-.073-1.918-2.791c-.37-.514-1.92-.808-2.731-.294-.664.44-.886 1.763-.517 2.35l.074.074 2.952 4.333.443.587c.295.441.148.955-.221 1.249-.37.294-.96.22-1.255-.147l-.074-.073-4.428-6.537c-.369-.514-1.845-.734-2.657-.147-.738.514-.959 1.69-.59 2.277l.074.073 4.87 7.198v.073l.074.074v.587l-.073.074-.074.073-.074.074v.147l-.074.073-.074.074s-.073.073-.147.073h-.591c-.073 0-.073 0-.147-.073l-.148-.074-.074-.073v.073l-.073-.073-.074-.074-.074-.073-9.742-13.881c-.738-1.028-2.066-1.396-2.878-.808zm37.638 25.632-.073.073-12.62 10.136c-.517.44-.664 1.175-.222 1.689l.074.073 1.624 1.983c.443.514 1.18.661 1.697.22l.074-.073 12.62-10.135c.516-.44.664-1.175.221-1.69l-.074-.073-1.55-1.983c-.442-.514-1.18-.587-1.77-.22zm-33.357-26 3.32 4.701a2.857 2.857 0 0 1 1.329-1.616c1.328-.88 3.247-.807 4.428 0 .221-.66.664-1.322 1.255-1.689 1.402-.955 3.69-.66 4.87.367.222-.66.665-1.175 1.255-1.615 1.55-1.029 4.133-.588 5.166.734v.074l.443.44a46.866 46.866 0 0 1 5.387 7.198l.296.514.442.808.443.808.37.734c1.77 3.232 2.582 5.508 3.69 9.841.22 1.029.516 1.983.885 2.865 1.033-.147 2.14.147 2.878.955l.074.146 1.624 1.983c1.033 1.322.885 3.158-.37 4.26l-.147.074L57.86 62.794c-1.329 1.029-3.174.882-4.28-.367l-.074-.147-1.624-1.983c-.738-.881-.886-1.983-.517-2.937h-.147c-.812-.441-1.772-.735-2.805-.955l-.369-.074h-.074c-8.487-2.203-19.704-9.327-20.738-12.705-.959-3.012 1.329-4.7 3.986-4.334.812.147 2.804.808 5.904 2.204l1.033.44-.148-.147c-1.18-1.762-2.287-3.231-3.247-4.7l-1.919-2.79-2.509-3.526a195.668 195.668 0 0 1-3.69-5.288c-1.255-1.836-.886-4.333.812-5.508 1.697-1.102 4.059-.588 5.314 1.175zm-8.783 23.282c.517 0 .886.441.886.882 0 .44-.37.881-.812.881h-5.018a.895.895 0 0 1-.886-.881c0-.44.369-.882.812-.882h5.018z" fill="#7A7CFB" mask="url(#d)"/>
        </g>
        <path d="m32.399 53.98.59.368c-2.214-.514-3.838-.587-4.87-.073-1.698.808-3.027 2.423-2.658 4.92H7.75c-2.066 0-3.69-1.615-3.69-3.672v-31.58c0-2.057 1.624-3.673 3.69-3.673h.517c2.804 14.322 11.66 26.44 23.69 33.49l.443.22zM54.022 74.398l12.325-9.915c.295-.22.812-.22 1.033.074l1.402 1.689c.222.294.222.808-.074 1.028L56.384 77.19c-.295.22-.812.22-1.033-.073l-1.403-1.69c-.295-.293-.221-.807.074-1.028" fill="#C6C8F4"/>
        <path d="M56.679 16.598c.443 0 .886.367.886.808V22.179h4.723c.516 0 .885.441.885.882 0 .44-.369.881-.811.881h-4.797v4.7c0 .515-.443.882-.886.882s-.886-.367-.886-.808V23.943H51.07a.895.895 0 0 1-.885-.882c0-.44.369-.881.811-.881h4.797v-4.7c-.073-.441.37-.882.886-.882" fill="#BEC2F4"/>
    </g>
</svg>
