<svg width="28" height="24" viewBox="0 0 28 24" xmlns="http://www.w3.org/2000/svg" xmlns:xlink="http://www.w3.org/1999/xlink">
    <defs>
        <path id="a" d="M0 24h28V0H0z"/>
    </defs>
    <g fill="none" fill-rule="evenodd" opacity=".6">
        <mask id="b" fill="#fff">
            <use xlink:href="#a"/>
        </mask>
        <path d="M7.23 20.569c0 .087-.051.159-.113.159H4.31c-.062 0-.112-.072-.112-.16V12.27c0-.088.05-.159.112-.159h2.806c.062 0 .112.071.112.159v8.3z" fill="#FFF" mask="url(#b)"/>
        <path d="M4.401 20.517h2.626v-8.196H4.4v8.196zm2.716.421H4.31c-.173 0-.314-.166-.314-.369v-8.3c0-.207.138-.37.314-.37h2.806c.176 0 .315.163.315.37v8.3c0 .207-.139.37-.315.37zM12.63 20.569c0 .087-.051.159-.112.159H9.714c-.063 0-.114-.072-.114-.16V7.103c0-.088.05-.16.114-.16h2.804c.061 0 .112.072.112.16v13.467z" fill="#FFF" mask="url(#b)"/>
        <path d="M9.802 20.517h2.625V7.153H9.802v13.364zm2.716.421H9.714c-.177 0-.316-.162-.316-.369V7.101c0-.207.139-.369.316-.369h2.804c.173 0 .314.166.314.37v13.467c0 .203-.14.37-.314.37zM23.431 20.569c0 .087-.05.159-.111.159h-2.804c-.063 0-.114-.072-.114-.16v-9.662c0-.087.05-.159.114-.159h2.804c.06 0 .111.072.111.16v9.662z" fill="#FFF" mask="url(#b)"/>
        <path d="M20.605 20.517h2.624v-9.559h-2.624v9.56zm2.715.421h-2.804c-.178 0-.316-.162-.316-.369v-9.663c0-.207.138-.37.316-.37h2.804c.176 0 .314.163.314.37v9.663c0 .203-.141.37-.314.37zM18.03 20.569c0 .087-.05.159-.112.159h-2.804c-.062 0-.113-.072-.113-.16V13.52c0-.088.05-.16.113-.16h2.804c.062 0 .112.072.112.16v7.049z" fill="#FFF" mask="url(#b)"/>
        <path d="M15.204 20.517h2.624v-6.946h-2.624v6.946zm2.714.421h-2.805c-.176 0-.314-.162-.314-.369V13.52c0-.207.138-.37.314-.37h2.805c.176 0 .314.163.314.37v7.05c0 .206-.138.368-.314.368zM5.714 6.254c-.66 0-1.198.56-1.198 1.247s.537 1.246 1.198 1.246c.66 0 1.198-.559 1.198-1.246 0-.688-.537-1.247-1.198-1.247m0 2.914c-.884 0-1.603-.748-1.603-1.667 0-.92.72-1.668 1.603-1.668.884 0 1.603.748 1.603 1.668 0 .92-.72 1.667-1.603 1.667M11.115.42c-.66 0-1.199.56-1.199 1.248 0 .687.538 1.246 1.199 1.246.66 0 1.198-.559 1.198-1.246 0-.688-.537-1.247-1.198-1.247m0 2.914c-.884 0-1.603-.748-1.603-1.667C9.512.748 10.23 0 11.115 0s1.603.748 1.603 1.668c0 .92-.719 1.667-1.603 1.667M16.516 6.46c-.661 0-1.199.559-1.199 1.246 0 .687.538 1.247 1.199 1.247.66 0 1.198-.56 1.198-1.247s-.538-1.247-1.198-1.247m0 2.915c-.884 0-1.603-.748-1.603-1.668 0-.92.719-1.668 1.603-1.668s1.603.748 1.603 1.668c0 .92-.72 1.668-1.603 1.668M21.917 2.5c-.661 0-1.199.56-1.199 1.246 0 .688.538 1.247 1.199 1.247.66 0 1.198-.559 1.198-1.247 0-.687-.538-1.246-1.198-1.246m0 2.914c-.884 0-1.604-.748-1.604-1.668 0-.92.72-1.667 1.604-1.667.884 0 1.603.748 1.603 1.667 0 .92-.72 1.668-1.603 1.668" fill="#FFF" mask="url(#b)"/>
        <path d="M6.42 6.46a.198.198 0 0 1-.145-.065.216.216 0 0 1 .005-.298l3.628-3.64a.197.197 0 0 1 .286.005.216.216 0 0 1-.006.298L6.561 6.4a.197.197 0 0 1-.14.06M15.571 6.847a.199.199 0 0 1-.156-.077l-3.194-4.028a.216.216 0 0 1 .028-.296.197.197 0 0 1 .284.029l3.194 4.027c.071.09.059.223-.027.297a.199.199 0 0 1-.129.048M17.72 7.182a.199.199 0 0 1-.164-.087.215.215 0 0 1 .044-.293l3.084-2.35c.09-.069.216-.048.283.046a.215.215 0 0 1-.044.294l-3.084 2.349a.194.194 0 0 1-.12.04M26.798 23H2.202A.206.206 0 0 1 2 22.79c0-.117.09-.211.202-.211h24.596c.111 0 .202.094.202.21 0 .117-.09.211-.202.211" fill="#FFF" mask="url(#b)"/>
    </g>
</svg>
