<?xml version="1.0" encoding="utf-8"?>
<!-- Generator: Adobe Illustrator 24.2.1, SVG Export Plug-In . SVG Version: 6.00 Build 0)  -->
<svg version="1.1" xmlns="http://www.w3.org/2000/svg" xmlns:xlink="http://www.w3.org/1999/xlink" x="0px" y="0px"
	 viewBox="0 0 20 20" style="enable-background:new 0 0 20 20;" xml:space="preserve">
<style type="text/css">
	.st0{display:none;}
	.st1{display:inline;}
	.st2{fill:#FFFFFF;}
</style>
<g id="레이어_2" class="st0">
	<g class="st1">
		<rect x="40" width="20" height="20"/>
	</g>
</g>
<g id="레이어_1">
	<g id="Page-1">
		<g id="new_console_menu_icons_puble" transform="translate(-22.000000, -360.000000)">
			<g id="ico_eng_1" transform="translate(22.000000, 360.000000)">
				<path id="Fill-1" class="st2" d="M5.06,11.09c0.14-0.13,0.23-0.3,0.27-0.47c0.02-0.07,0.03-0.14,0.03-0.22
					c0-0.07-0.01-0.15-0.03-0.22c-0.04-0.18-0.13-0.34-0.27-0.47C4.93,9.6,4.78,9.52,4.61,9.48C4.26,9.39,3.87,9.47,3.61,9.71
					C3.41,9.9,3.3,10.14,3.3,10.4c0,0.26,0.11,0.51,0.3,0.69c0.19,0.18,0.46,0.28,0.72,0.28c0.1,0,0.19-0.02,0.28-0.04
					C4.78,11.29,4.94,11.21,5.06,11.09"/>
				<path id="Fill-3" class="st2" d="M4.33,5.89c0.27,0,0.53-0.11,0.72-0.29c0.19-0.18,0.3-0.43,0.3-0.68c0-0.26-0.11-0.51-0.3-0.69
					c-0.38-0.36-1.07-0.36-1.45,0c-0.19,0.18-0.3,0.43-0.3,0.69c0,0.25,0.11,0.51,0.3,0.68C3.8,5.78,4.06,5.89,4.33,5.89"/>
				<path id="Fill-5" class="st2" d="M4.33,8.63c0.1,0,0.19-0.02,0.28-0.04c0.17-0.05,0.32-0.13,0.44-0.25
					c0.13-0.12,0.23-0.29,0.27-0.46c0.02-0.07,0.03-0.15,0.03-0.23c0-0.08-0.01-0.15-0.03-0.23C5.28,7.26,5.19,7.09,5.06,6.97
					C5,6.91,4.93,6.87,4.86,6.83C4.48,6.62,3.93,6.66,3.61,6.97C3.41,7.15,3.3,7.4,3.3,7.66c0,0.25,0.11,0.51,0.3,0.68
					C3.8,8.53,4.06,8.63,4.33,8.63"/>
				<path id="Fill-7" class="st2" d="M8.28,9.64C8.05,9.47,7.74,9.41,7.46,9.46c-0.2,0.03-0.39,0.12-0.54,0.26
					c-0.19,0.18-0.3,0.43-0.3,0.69c0,0.26,0.11,0.51,0.3,0.69c0.19,0.18,0.46,0.28,0.73,0.28c0.1,0,0.19-0.02,0.28-0.04
					c0.16-0.05,0.32-0.13,0.44-0.24c0.13-0.12,0.22-0.27,0.26-0.44c0.02-0.08,0.04-0.17,0.04-0.25c0-0.26-0.11-0.51-0.3-0.69
					C8.34,9.69,8.31,9.66,8.28,9.64"/>
				<path id="Fill-9" class="st2" d="M7.6,5.89c0.27,0,0.54-0.11,0.73-0.29c0.19-0.18,0.3-0.43,0.3-0.68c0-0.26-0.11-0.51-0.3-0.69
					c-0.38-0.36-1.07-0.36-1.45,0c-0.19,0.18-0.3,0.43-0.3,0.69c0,0.25,0.11,0.51,0.3,0.68C7.07,5.78,7.33,5.89,7.6,5.89"/>
				<path id="Fill-11" class="st2" d="M7.61,8.63c0.27,0,0.53-0.1,0.72-0.29c0.19-0.18,0.3-0.43,0.3-0.68c0-0.14-0.03-0.28-0.1-0.4
					C8.49,7.15,8.42,7.05,8.33,6.97c-0.38-0.36-1.07-0.36-1.45,0C6.79,7.05,6.72,7.15,6.67,7.26c-0.06,0.13-0.1,0.26-0.1,0.4
					c0,0.25,0.11,0.51,0.3,0.68C7.07,8.53,7.33,8.63,7.61,8.63"/>
				<g id="Fill-13">
					<polygon class="st2" points="14.49,4.77 13.96,4.27 13.62,4.6 14.85,5.76 16.07,4.6 15.73,4.27 15.2,4.77 15.2,2.86 
						12.67,2.86 12.67,3.53 14.49,3.53 					"/>
				</g>
				<path id="Fill-15" class="st2" d="M12.86,10.71c-0.03,0-0.06,0-0.09-0.01c-0.14-0.05-0.22-0.2-0.17-0.33l0.79-2.18
					c0.04-0.11,0.14-0.18,0.26-0.18c0.12,0,0.22,0.07,0.26,0.18l0.79,2.18c0.05,0.14-0.03,0.29-0.17,0.33
					c-0.14,0.05-0.3-0.03-0.35-0.16l-0.53-1.46l-0.53,1.46C13.09,10.64,12.98,10.71,12.86,10.71"/>
				<path id="Fill-17" class="st2" d="M16.31,11.71h-1.31c-0.1,0-0.19-0.05-0.24-0.13c-0.05-0.08-0.05-0.18,0-0.26l1.08-1.79h-0.84
					c-0.15,0-0.28-0.12-0.28-0.26c0-0.14,0.12-0.26,0.28-0.26h1.31c0.1,0,0.19,0.05,0.24,0.13c0.05,0.08,0.05,0.18,0,0.26
					l-1.08,1.79h0.84c0.15,0,0.28,0.12,0.28,0.26C16.58,11.6,16.46,11.71,16.31,11.71"/>
				<path id="Fill-19" class="st2" d="M14.26,10.17h-1.2c-0.15,0-0.28-0.12-0.28-0.26c0-0.14,0.12-0.26,0.28-0.26h1.2
					c0.15,0,0.28,0.12,0.28,0.26C14.53,10.05,14.41,10.17,14.26,10.17"/>
				<g id="Fill-21">
					<path class="st2" d="M18.69,15.95l-1.03-0.97c-0.17-0.16-0.39-0.25-0.63-0.25h-7.1c0.61-0.41,1.08-1.01,1.3-1.71h5.02
						c0.2,0,0.36-0.15,0.36-0.34c0-0.19-0.16-0.34-0.36-0.34h-4.89c0.01-0.08,0.01-0.16,0.01-0.24v-0.5v-0.27v-0.68V9.65V8.97v-0.6
						V7.27h7.15c0.09,0,0.17,0.07,0.17,0.16V15.95z M7.97,14.56H5.33H4.61H4c-1.43,0-2.59-1.1-2.59-2.45V3.22
						c0-1.35,1.16-2.45,2.59-2.45h3.97c1.43,0,2.59,1.1,2.59,2.45v3.36v0.68v1.71v0.68v1.01v0.68v0.77c0,0.08,0,0.16-0.01,0.24
						c-0.02,0.24-0.09,0.47-0.18,0.68C9.98,13.92,9.06,14.56,7.97,14.56L7.97,14.56z M7.31,15.41v0.95c0,0.01,0,0.02-0.01,0.03
						C7.29,16.4,7.28,16.4,7.27,16.4H4.71c-0.01,0-0.02,0-0.03-0.01c-0.01-0.01-0.01-0.02-0.01-0.03v-1.03h0.46h2.19V15.41z
						 M18.53,6.59h-7.15V3.22C11.38,1.45,9.85,0,7.97,0H4C2.13,0,0.6,1.45,0.6,3.22v8.88c0,1.74,1.47,3.16,3.3,3.22v1.04
						c0,0.21,0.08,0.4,0.24,0.54c0.15,0.15,0.36,0.23,0.57,0.23h0.04V20h0.77v-2.87h0.94V20h0.77v-2.87h0.04
						c0.22,0,0.42-0.08,0.57-0.23c0.15-0.14,0.24-0.34,0.24-0.54v-0.95h8.96c0.04,0,0.09,0.02,0.12,0.05l2.25,2.14V7.42
						C19.41,6.96,19.01,6.59,18.53,6.59L18.53,6.59z"/>
				</g>
			</g>
		</g>
	</g>
</g>
</svg>
