<?xml version="1.0" encoding="utf-8"?>
<!-- Generator: Adobe Illustrator 24.2.1, SVG Export Plug-In . SVG Version: 6.00 Build 0)  -->
<svg version="1.1" xmlns="http://www.w3.org/2000/svg" xmlns:xlink="http://www.w3.org/1999/xlink" x="0px" y="0px"
	 viewBox="0 0 20 20" style="enable-background:new 0 0 20 20;" xml:space="preserve">
<style type="text/css">
	.st0{display:none;}
	.st1{display:inline;}
	.st2{fill:#FFFFFF;}
	.st3{filter:url(#Adobe_OpacityMaskFilter);}
	.st4{fill-rule:evenodd;clip-rule:evenodd;fill:#FFFFFF;}
	.st5{mask:url(#mask-2_2_);fill:#FFFFFF;}
</style>
<g id="레이어_2" class="st0">
	<g class="st1">
		<rect x="40" width="20" height="20"/>
	</g>
</g>
<g id="레이어_1">
	<g id="Page-1">
		<g id="new_console_menu_icons_puble" transform="translate(-93.000000, -360.000000)">
			<g id="ico_eng_3" transform="translate(93.000000, 360.000000)">
				<g id="Fill-1">
					<path class="st2" d="M5.95,5.94l0.31-0.9l0.31,0.9H5.95z M7.81,7.06L6.64,3.66C6.58,3.5,6.43,3.39,6.25,3.39
						S5.93,3.5,5.87,3.66l-0.86,2.5C4.99,6.2,4.98,6.24,4.97,6.27L4.7,7.06C4.63,7.27,4.74,7.5,4.95,7.58
						C4.99,7.59,5.04,7.6,5.08,7.6c0.17,0,0.33-0.11,0.38-0.27l0.2-0.57h1.18l0.2,0.57c0.07,0.21,0.31,0.33,0.52,0.25
						C7.77,7.5,7.88,7.27,7.81,7.06L7.81,7.06z"/>
				</g>
				<path id="Fill-3" class="st2" d="M10.57,8.75c0-0.22-0.18-0.41-0.41-0.41H8.93l1.59-2.79c0.07-0.13,0.07-0.28,0-0.41
					c-0.07-0.13-0.21-0.2-0.35-0.2H8.22C8,4.95,7.82,5.13,7.82,5.36c0,0.22,0.18,0.41,0.41,0.41h1.24L7.87,8.55
					c-0.07,0.13-0.07,0.28,0,0.41c0.07,0.13,0.21,0.2,0.35,0.2h1.94C10.39,9.16,10.57,8.98,10.57,8.75"/>
				<path id="Fill-5" class="st2" d="M17.94,12.81c0.12-0.9-0.12-1.79-0.67-2.51c-0.16-0.21-0.46-0.25-0.67-0.09
					c-0.21,0.16-0.25,0.46-0.09,0.67c0.4,0.52,0.57,1.16,0.48,1.8c-0.08,0.65-0.42,1.22-0.93,1.62c-0.21,0.16-0.25,0.46-0.09,0.67
					c0.08,0.1,0.2,0.17,0.32,0.18c0.12,0.02,0.25-0.01,0.36-0.1C17.36,14.51,17.82,13.71,17.94,12.81"/>
				<path id="Fill-7" class="st2" d="M18.8,8.83c-0.16-0.21-0.46-0.25-0.67-0.09c-0.21,0.16-0.25,0.46-0.09,0.67
					c0.78,1.02,1.12,2.29,0.96,3.56c-0.17,1.27-0.82,2.41-1.84,3.2c-0.21,0.16-0.25,0.46-0.09,0.67c0.08,0.1,0.2,0.17,0.32,0.18
					c0.12,0.02,0.25-0.01,0.36-0.1c1.22-0.94,2.01-2.3,2.2-3.83C20.15,11.57,19.74,10.06,18.8,8.83"/>
				<g id="Group-11" transform="translate(0.000000, 0.050012)">
					<g id="Clip-10">
					</g>
					<defs>
						<filter id="Adobe_OpacityMaskFilter" filterUnits="userSpaceOnUse" x="0" y="0.35" width="15.84" height="19.07">
							<feColorMatrix  type="matrix" values="1 0 0 0 0  0 1 0 0 0  0 0 1 0 0  0 0 0 1 0"/>
						</filter>
					</defs>
					<mask maskUnits="userSpaceOnUse" x="0" y="0.35" width="15.84" height="19.07" id="mask-2_2_">
						<g class="st3">
							<polygon id="path-1_2_" class="st4" points="0,0.35 15.84,0.35 15.84,19.42 0,19.42 							"/>
						</g>
					</mask>
					<path id="Fill-9" class="st5" d="M15.27,9.67l-0.11-0.08c-0.27-0.2-0.56-0.41-0.7-0.7c-0.18-0.37-0.12-0.87-0.08-1.06
						l0.01-0.03c0.02-0.11,0.04-0.23,0.06-0.36c0.12-0.96,0.05-1.89-0.18-2.76c-0.25-0.93-0.78-1.79-1.54-2.48
						C8.9-1.3,3.87,1.24,3.82,1.26c-4.9,2.62-3.86,7.23-3.42,8.58c0.21,0.65,0.55,1.28,1.05,1.93c0.97,1.27,0.97,2.78,0.97,2.8v4.45
						c0,0.22,0.18,0.4,0.4,0.4s0.4-0.18,0.4-0.4v-4.45c0-0.07,0.01-1.79-1.14-3.29c-0.44-0.57-0.74-1.13-0.93-1.69
						c-0.5-1.54-1.2-5.37,3.03-7.63c0.05-0.02,4.58-2.31,8,0.82c0.64,0.59,1.09,1.32,1.31,2.11c0.21,0.77,0.26,1.6,0.16,2.46
						c-0.01,0.1-0.03,0.2-0.05,0.31l0,0.03c-0.02,0.11-0.05,0.34-0.04,0.63c0.01,0.31,0.03,0.56,0.22,0.83
						c0.39,0.59,0.78,0.88,1.06,1.09c0.23,0.17,0.29,0.23,0.29,0.28c0,0.09-0.3,0.31-0.64,0.42c-0.17,0.05-0.27,0.22-0.24,0.4
						l0.04,0.23l-1.25,0.54c-0.18,0.08-0.26,0.29-0.18,0.47c0.06,0.15,0.23,0.23,0.38,0.21c-0.02,0.03-0.04,0.06-0.06,0.09
						c-0.04,0.09-0.04,0.19,0,0.28c0.04,0.09,0.11,0.16,0.19,0.2l0.81,0.35c-0.11,0.19-0.12,0.2-0.12,0.2
						c-0.04,0.07-0.04,0.15-0.05,0.22c0,0.04,0,0.08-0.01,0.11c-0.02,0.09-0.07,0.19-0.13,0.27c-0.12,0.14-0.3,0.2-0.55,0.2h0
						l-1.13-0.11c-1.01-0.1-1.93,0.6-2.11,1.59c-0.11,0.61-0.16,1.38-0.16,2.29c0,0.22,0.18,0.4,0.4,0.4c0.22,0,0.4-0.18,0.4-0.4
						c0-0.87,0.05-1.59,0.15-2.15c0.1-0.59,0.65-1,1.25-0.94l1.14,0.11l0.03,0c0.52,0,0.92-0.16,1.19-0.49
						c0.21-0.25,0.34-0.59,0.37-1.01l0.17-0.3c0.05-0.09,0.06-0.2,0.03-0.3c-0.03-0.1-0.11-0.18-0.2-0.22l-1.18-0.51
						c-0.03-0.01-0.07-0.02-0.1-0.03l1.26-0.55c0.15-0.07,0.24-0.22,0.21-0.38L15,11.5c0.34-0.15,0.84-0.47,0.84-0.98
						C15.84,10.1,15.55,9.88,15.27,9.67"/>
				</g>
				<path id="Fill-12" class="st2" d="M14.06,13.95L14.06,13.95C14.06,13.95,14.06,13.95,14.06,13.95
					C14.06,13.95,14.06,13.95,14.06,13.95"/>
			</g>
		</g>
	</g>
</g>
</svg>
