<svg xmlns="http://www.w3.org/2000/svg" width="66" height="10" viewBox="0 0 66 10">
    <path fill="#002C49" d="M56.537.43L65.5 5.004 56.463 9.43l.033-4.001-.506-.003.008-1 .506.003.033-4zm-52-.43c2.316.02 4.209 1.785 4.44 4.036L11 4.054l-.009 1-2.023-.017C8.701 7.285 6.78 9.019 4.463 9 1.978 8.98-.02 6.948 0 4.463.02 1.978 2.052-.02 4.537 0zm47.461 4.393l3 .024-.008 1-3-.025.008-1zm-4-.034l3 .025-.008 1-3-.025.008-1zm-4-.033l3 .025-.008 1-3-.025.009-1zm-4-.033l3 .025-.008 1-3-.025.009-1zm-4-.033l3 .025-.008 1-3-.025.009-1zM32 4.227l3 .025-.008 1-3-.025.008-1zm-4-.033l3 .025-.008 1-3-.025.008-1zm-4-.033l3 .025-.008 1-3-.025.008-1zm-4-.033l3 .025-.008 1-3-.025.008-1zm-4-.033l3 .025-.008 1-3-.025.009-1zm-4-.033l3 .025-.008 1-3-.025.009-1z" opacity=".7"/>
</svg>
