<svg id="ico_user_30px" xmlns="http://www.w3.org/2000/svg" width="30" height="30" viewBox="0 0 30 30">
    <defs>
        <clipPath id="clip-path">
            <path id="사각형_2902" data-name="사각형 2902" style="fill:none" d="M0 0h30v30H0z"/>
        </clipPath>
        <style>
            .cls-3{fill:none;stroke:#000;stroke-miterlimit:10}
        </style>
    </defs>
    <g id="그룹_97" data-name="그룹 97" style="clip-path:url(#clip-path)">
        <circle id="타원_18" data-name="타원 18" class="cls-3" cx="14.288" cy="14.288" r="14.288" transform="translate(.712 .712)"/>
        <path id="패스_3042" data-name="패스 3042" d="M14.764.5a14.232 14.232 0 0 0-8.676 25.521c0-.054-.007-.105-.007-.158a8.684 8.684 0 1 1 17.367 0c0 .053-.007.1-.007.158A14.232 14.232 0 0 0 14.764.5z" transform="translate(.221 .213)" style="stroke-width:.997px;stroke:#000;stroke-miterlimit:10;fill:none"/>
        <path id="패스_3043" data-name="패스 3043" d="M15.51 10.082a3.868 3.868 0 1 1-3.868-3.868 3.868 3.868 0 0 1 3.868 3.868" transform="translate(3.298 2.637)"/>
        <circle id="타원_19" data-name="타원 19" class="cls-3" cx="3.868" cy="3.868" r="3.868" transform="translate(11.072 8.851)"/>
        <path id="패스_3044" data-name="패스 3044" d="m4.44 20.073 1.105-3.2 1.578-2.091L8.9 13.441l2.014-.907.947-.2 1.54.08 1.5.158 1.46.591 1.46.4.829 1.025.789.553.474.592 1.065 1.42.276 1.5.434 1.185-.118.711-.08.395-.315.236-1.185.749-1.184.632-1.223.434-1.184.355-1.3.236-2.6.2-1.658-.08L9.1 23.27l-1.7-.553-.986-.632-1.99-1.243z" transform="translate(1.877 5.234)"/>
    </g>
</svg>
