<svg xmlns="http://www.w3.org/2000/svg" width="40" height="40" viewBox="0 0 40 40">
    <defs>
        <clipPath id="a">
            <path data-name="사각형 2843" transform="translate(0 -.001)" style="fill:none" d="M0 0h40v40H0z"/>
        </clipPath>
    </defs>
    <g data-name="그룹 23" transform="translate(0 .001)" style="clip-path:url(#a)">
        <path data-name="패스 36" d="M20.012 0A20 20 0 1 1 0 19.993 20.037 20.037 0 0 1 20.012 0m18.329 20.009a18.338 18.338 0 1 0-18.355 18.332 18.384 18.384 0 0 0 18.355-18.332"/>
    </g>
    <g data-name="그룹 32">
        <path data-name="패스 46" d="M19 29.129a.857.857 0 0 1-.841.871c-1.249 0-2.469 0-3.688-.024-.152 0-.374-.282-.428-.473a3.266 3.266 0 0 1-.028-.865V10.87a.856.856 0 0 1 .839-.87h3.3a.855.855 0 0 1 .846.869z"/>
        <path data-name="패스 47" d="M26 29.129a.857.857 0 0 1-.841.871c-1.249 0-2.469.007-3.688-.022-.152 0-.374-.282-.428-.473a3.266 3.266 0 0 1-.028-.865V10.872a.856.856 0 0 1 .839-.872h3.3a.855.855 0 0 1 .841.869z"/>
    </g>
</svg>
