<svg id="ico_volumn_down_24px" xmlns="http://www.w3.org/2000/svg" width="24" height="24" viewBox="0 0 24 24">
    <defs>
        <clipPath id="clip-path">
            <path id="사각형_2908" data-name="사각형 2908" class="cls-1" transform="translate(-.21 -.21)" d="M0 0h22v22H0z"/>
        </clipPath>
        <style>
            .cls-1{fill:#838383}
        </style>
    </defs>
    <path id="사각형_2909" data-name="사각형 2909" style="fill:none" d="M0 0h24v24H0z"/>
    <g id="그룹_108" data-name="그룹 108" transform="translate(1.21 1.21)">
        <g id="그룹_106" data-name="그룹 106" style="clip-path:url(#clip-path)">
            <path id="패스_3051" data-name="패스 3051" class="cls-1" d="M10.87 21.79a10.895 10.895 0 1 1 10.92-10.815A10.888 10.888 0 0 1 10.87 21.79m9.8-10.882a9.767 9.767 0 1 0-9.782 9.751 9.787 9.787 0 0 0 9.782-9.751" transform="translate(-.001)"/>
            <path id="패스_3052" data-name="패스 3052" class="cls-1" d="M46.369 84.013c-1.666 0-3.332.01-5-.011a1.313 1.313 0 0 1-.715-.254.722.722 0 0 1-.213-.859.828.828 0 0 1 .719-.577 2.114 2.114 0 0 1 .274-.007H51.4a.862.862 0 0 1 .911.859.85.85 0 0 1-.915.849h-5.028" transform="translate(-35.46 -72.263)"/>
        </g>
    </g>
</svg>
