<svg id="ico_edit_24px" xmlns="http://www.w3.org/2000/svg" width="24" height="24" viewBox="0 0 24 24">
    <defs>
        <clipPath id="clip-path">
            <path id="사각형_2876" data-name="사각형 2876" class="cls-1" d="M0 0h15.44v15.445H0z"/>
        </clipPath>
        <style>
            .cls-1{fill:#b7b7b7}
        </style>
    </defs>
    <g id="사각형_2878" data-name="사각형 2878" style="stroke:#b7b7b7;fill:none">
        <rect width="24" height="24" rx="4" style="stroke:none"/>
        <rect x=".5" y=".5" width="23" height="23" rx="3.5" style="fill:none"/>
    </g>
    <g id="그룹_92" data-name="그룹 92" transform="translate(3.917 3.915)">
        <g id="그룹_91" data-name="그룹 91" transform="translate(.362 .363)" style="clip-path:url(#clip-path)">
            <path id="패스_3040" data-name="패스 3040" class="cls-1" d="M15.441 2.746a1.839 1.839 0 0 1-.567 1.3q-2.652 2.649-5.3 5.3-2.41 2.41-4.817 4.824a1.458 1.458 0 0 1-.738.419c-1.133.266-2.261.557-3.392.837a.481.481 0 0 1-.619-.388.738.738 0 0 1 .025-.281c.28-1.135.57-2.269.842-3.406a1.223 1.223 0 0 1 .35-.61Q5.458 6.52 9.683 2.288L11.389.582a1.8 1.8 0 0 1 2.646 0c.292.291.585.581.874.875a1.8 1.8 0 0 1 .53 1.293m-3.205 2.515L10.19 3.222l-8.039 8.039L4.2 13.3l8.039-8.039m.754-.73c.41-.409.832-.818 1.24-1.24a.806.806 0 0 0-.016-1.152c-.295-.3-.594-.6-.894-.895a.813.813 0 0 0-1.207 0c-.229.225-.455.455-.682.681l-.522.515 2.082 2.086M1.161 14.284l2.012-.5-1.51-1.51-.5 2.012"/>
        </g>
    </g>
</svg>
