<svg id="ico_volumn_up_24px" xmlns="http://www.w3.org/2000/svg" width="24" height="24" viewBox="0 0 24 24">
    <defs>
        <style>
            .cls-2{fill:#838383}
        </style>
    </defs>
    <path id="사각형_2910" data-name="사각형 2910" style="fill:none" d="M0 0h24v24H0z"/>
    <g id="그룹_105" data-name="그룹 105" transform="translate(1 1)">
        <g id="그룹_110" data-name="그룹 110">
            <path id="패스_3049" data-name="패스 3049" class="cls-2" d="M11.006 0A11 11 0 1 1 0 10.969 10.993 10.993 0 0 1 11.006 0m9.851 11A9.86 9.86 0 1 0 11 20.857 9.872 9.872 0 0 0 20.857 11"/>
            <path id="패스_3050" data-name="패스 3050" class="cls-2" d="M47.3 47.255v4.179a.86.86 0 1 1-1.711 0c-.005-1.155 0-2.31 0-3.465 0-.715 0-.715-.7-.715h-3.627a.859.859 0 0 1-.815-.872.838.838 0 0 1 .841-.84c.992-.011 1.983 0 2.975 0 .337 0 .676-.015 1.012 0 .251.015.311-.085.309-.318-.008-1.277-.018-2.556.009-3.833a1.327 1.327 0 0 1 .27-.745.737.737 0 0 1 .9-.176.816.816 0 0 1 .532.818c0 1.288.01 2.576-.008 3.864 0 .309.075.4.389.393 1.288-.018 2.576-.01 3.865-.006a.854.854 0 0 1 .858.611.824.824 0 0 1-.364.958 1.264 1.264 0 0 1-.581.141c-1.247.012-2.495.006-3.742.006H47.3" transform="translate(-35.443 -35.395)"/>
        </g>
    </g>
</svg>
