<svg id="ico_userlist_18px" xmlns="http://www.w3.org/2000/svg" width="18" height="18" viewBox="0 0 18 18">
    <defs>
        <clipPath id="clip-path">
            <path id="사각형_2869" data-name="사각형 2869" style="stroke-width:.5px;stroke:transparent;fill:none" d="M0 0h17.73v11.764H0z"/>
        </clipPath>
        <style>
            .cls-5{fill:none}.cls-4,.cls-5{stroke:transparent;stroke-width:.5px}.cls-5{stroke:#000;stroke-miterlimit:10}
        </style>
    </defs>
    <path id="사각형_2870" data-name="사각형 2870" style="fill:none" d="M0 0h18v18H0z"/>
    <g id="그룹_34" data-name="그룹 34" transform="translate(.135 3.119)">
        <g id="그룹_33" data-name="그룹 33" style="clip-path:url(#clip-path)">
            <path id="패스_48" data-name="패스 48" class="cls-4" d="M13.3 13.455a4.835 4.835 0 0 1 .624 2.125c0 .084.013.168.01.251a.373.373 0 1 1-.746.031c-.04-.326-.05-.659-.122-.978A4.1 4.1 0 0 0 5 15.406c-.018.144-.011.29-.023.435a.375.375 0 1 1-.748-.038 4.839 4.839 0 0 1 .51-2.114l.125-.247a2.561 2.561 0 0 0-1.681-.114 2.614 2.614 0 0 0-1.938 2.434v.084a.371.371 0 1 1-.745-.014 3.27 3.27 0 0 1 .6-1.9 3.347 3.347 0 0 1 4.043-1.179.189.189 0 0 0 .262-.063 4.836 4.836 0 0 1 7.353.009.179.179 0 0 0 .249.056 3.345 3.345 0 0 1 4.651 3.021c.008.27-.139.444-.366.446s-.363-.159-.376-.421a2.58 2.58 0 0 0-1.437-2.279 2.517 2.517 0 0 0-2.182-.067" transform="translate(-.216 -4.744)"/>
            <path id="패스_49" data-name="패스 49" class="cls-5" d="M13.3 13.455a4.835 4.835 0 0 1 .624 2.125c0 .084.013.168.01.251a.373.373 0 1 1-.746.031c-.04-.326-.05-.659-.122-.978A4.1 4.1 0 0 0 5 15.406c-.018.144-.011.29-.023.435a.375.375 0 1 1-.748-.038 4.839 4.839 0 0 1 .51-2.114l.125-.247a2.561 2.561 0 0 0-1.681-.114 2.614 2.614 0 0 0-1.938 2.434v.084a.371.371 0 1 1-.745-.014 3.27 3.27 0 0 1 .6-1.9 3.347 3.347 0 0 1 4.043-1.179.189.189 0 0 0 .262-.063 4.836 4.836 0 0 1 7.353.009.179.179 0 0 0 .249.056 3.345 3.345 0 0 1 4.651 3.021c.008.27-.139.444-.366.446s-.363-.159-.376-.421a2.58 2.58 0 0 0-1.437-2.279 2.517 2.517 0 0 0-2.179-.067z" transform="translate(-.216 -4.744)"/>
            <path id="패스_50" data-name="패스 50" class="cls-4" d="M13.619.5a2.613 2.613 0 1 1-2.626 2.6A2.619 2.619 0 0 1 13.619.5m-.051 4.477a1.865 1.865 0 1 0-1.828-1.9 1.872 1.872 0 0 0 1.828 1.9" transform="translate(-4.741 -.215)"/>
            <path id="패스_51" data-name="패스 51" class="cls-5" d="M13.619.5a2.613 2.613 0 1 1-2.626 2.6A2.619 2.619 0 0 1 13.619.5zm-.051 4.477a1.865 1.865 0 1 0-1.828-1.9 1.872 1.872 0 0 0 1.829 1.9z" transform="translate(-4.741 -.215)"/>
            <path id="패스_52" data-name="패스 52" class="cls-4" d="M25.22 7.624a1.865 1.865 0 1 1-1.854-1.876 1.86 1.86 0 0 1 1.854 1.876m-.747-.015a1.117 1.117 0 1 0-1.11 1.123 1.118 1.118 0 0 0 1.11-1.123" transform="translate(-9.268 -2.479)"/>
            <path id="패스_53" data-name="패스 53" class="cls-5" d="M25.22 7.624a1.865 1.865 0 1 1-1.854-1.876 1.86 1.86 0 0 1 1.854 1.876zm-.747-.015a1.117 1.117 0 1 0-1.11 1.123 1.118 1.118 0 0 0 1.11-1.124z" transform="translate(-9.268 -2.479)"/>
            <path id="패스_54" data-name="패스 54" class="cls-4" d="M6.942 7.616a1.865 1.865 0 1 1-1.86-1.868 1.859 1.859 0 0 1 1.86 1.868m-.742.007a1.118 1.118 0 1 0-1.128 1.109A1.119 1.119 0 0 0 6.2 7.623" transform="translate(-1.386 -2.479)"/>
            <path id="패스_55" data-name="패스 55" class="cls-5" d="M6.942 7.616a1.865 1.865 0 1 1-1.86-1.868 1.859 1.859 0 0 1 1.86 1.868zm-.742.007a1.118 1.118 0 1 0-1.128 1.109A1.119 1.119 0 0 0 6.2 7.623z" transform="translate(-1.386 -2.479)"/>
        </g>
    </g>
</svg>
