<svg id="ico_mic_18px" xmlns="http://www.w3.org/2000/svg" width="18" height="18" viewBox="0 0 18 18">
    <defs>
        <clipPath id="clip-path">
            <path id="사각형_2850" data-name="사각형 2850" class="cls-1" d="M0 0h12.899v17.281H0z"/>
        </clipPath>
        <style>
            .cls-1{fill:#242424}
        </style>
    </defs>
    <path id="사각형_2852" data-name="사각형 2852" style="fill:none" d="M0 0h18v18H0z"/>
    <g id="그룹_26" data-name="그룹 26" transform="translate(2.55 .359)">
        <g id="그룹_25" data-name="그룹 25" style="clip-path:url(#clip-path)">
            <path id="패스_39" data-name="패스 39" class="cls-1" d="M12.9 40.283a.755.755 0 0 0-1.5 0c-.006.247-.006.495-.026.741a3.712 3.712 0 0 1-1.508 2.7 5.541 5.541 0 0 1-5.676.684 4.064 4.064 0 0 1-2.6-3.025 9.633 9.633 0 0 1-.09-1.178.7.7 0 0 0-.75-.6.7.7 0 0 0-.744.6 4.974 4.974 0 0 0 .73 3.025 6.057 6.057 0 0 0 3.332 2.518c.513.169 1.059.265 1.613.4V47.7H4.458a.762.762 0 0 0-.549.21.523.523 0 0 0-.129.66.746.746 0 0 0 .715.386h4a.708.708 0 0 0 .681-.574.638.638 0 0 0-.537-.653 1.823 1.823 0 0 0-.378-.028H7.219V46.1a7.178 7.178 0 0 0 2.209-.576 5.867 5.867 0 0 0 2.991-2.763 5.087 5.087 0 0 0 .472-2.477" transform="translate(0 -31.678)"/>
            <path id="패스_40" data-name="패스 40" class="cls-1" d="M11.859 8.878a2.838 2.838 0 0 0 .393 1.465 4.015 4.015 0 0 0 6.084.484 2.787 2.787 0 0 0 .753-1.933V3.343q0-.287-.023-.573C18.892.6 15.911-.711 13.679.408a2.931 2.931 0 0 0-1.819 2.7c-.01.967 0 1.935 0 2.9v2.868m1.559-6.215a2.09 2.09 0 0 1 2.192-1.39 1.923 1.923 0 0 1 1.957 1.684v.056h-1.494v1.26h1.5v.795h-1.5v1.26h1.5v.795h-1.5v1.26h1.5v.581a1.867 1.867 0 0 1-1.753 1.754 2.029 2.029 0 0 1-2.439-1.646v-.689h1.495v-1.26h-1.5v-.795h1.5v-1.26h-1.5v-.78h1.5v-1.26h-1.5v-.08a1.2 1.2 0 0 1 .041-.284" transform="translate(-9.023)"/>
        </g>
    </g>
</svg>
