<svg id="ico_login_30px" xmlns="http://www.w3.org/2000/svg" width="30" height="30" viewBox="0 0 30 30">
    <defs>
        <clipPath id="clip-path">
            <path id="사각형_2828" data-name="사각형 2828" style="fill:none" d="M0 0h30v30H0z"/>
        </clipPath>
        <style>
            .cls-3{fill:none;stroke:#fff;stroke-miterlimit:10}.cls-5{fill:#fff}
        </style>
    </defs>
    <g id="그룹_17" data-name="그룹 17" style="clip-path:url(#clip-path)">
        <ellipse id="타원_6" data-name="타원 6" class="cls-3" cx="14.057" cy="13.894" rx="14.057" ry="13.894" transform="translate(.804 1.037)"/>
        <path id="패스_29" data-name="패스 29" d="M14.575.7A13.933 13.933 0 0 0 .561 14.55a13.761 13.761 0 0 0 5.478 10.967c0-.051-.009-.1-.009-.149a8.545 8.545 0 0 1 17.091 0 .8.8 0 0 1-.009.149A13.761 13.761 0 0 0 28.59 14.55 13.932 13.932 0 0 0 14.577.7z" transform="translate(.273 .339)" style="stroke-width:.997px;stroke:#fff;stroke-miterlimit:10;fill:none"/>
        <ellipse id="타원_7" data-name="타원 7" class="cls-3" cx="3.806" cy="3.761" rx="3.806" ry="3.761" transform="translate(10.997 8.953)"/>
        <path id="패스_30" data-name="패스 30" class="cls-5" d="M4.451 19.811a11.014 11.014 0 0 1 1.567-4.26 9.044 9.044 0 0 1 6.852-4s4.42.727 5.842 2.642c0 0 3.088 4.632 3.088 5.621 0 0-4.88 3.46-6.548 3.213 0 0-4.078.061-5.313-.123l-4.757-1.73z" transform="translate(1.979 5.614)"/>
        <path id="패스_31" data-name="패스 31" class="cls-5" d="M14.7 9.8a3.582 3.582 0 1 1-3.583-3.55A3.568 3.568 0 0 1 14.7 9.8" transform="translate(3.664 3.037)"/>
    </g>
</svg>
