<svg id="ico_setting_18px" xmlns="http://www.w3.org/2000/svg" width="18" height="18" viewBox="0 0 18 18">
    <defs>
        <clipPath id="clip-path">
            <path id="사각형_2851" data-name="사각형 2851" style="stroke:#000;stroke-width:.2px;fill:none" d="M0 0h13.959v14.404H0z"/>
        </clipPath>
        <style>
            .cls-4{stroke:#000;stroke-width:.2px}
        </style>
    </defs>
    <path id="사각형_2853" data-name="사각형 2853" style="fill:none" d="M0 0h18v18H0z"/>
    <g id="그룹_28" data-name="그룹 28" transform="translate(2.02 1.798)">
        <g id="그룹_27" data-name="그룹 27" style="clip-path:url(#clip-path)">
            <path id="패스_41" data-name="패스 41" class="cls-4" d="M11.566 12.389a3.535 3.535 0 0 1-.345-.087c-.235-.08-.463-.177-.7-.258a.84.84 0 0 0-1.127.671c-.046.267-.085.537-.14.8A1.1 1.1 0 0 1 8.2 14.4q-1.216.011-2.432 0a1.12 1.12 0 0 1-1.088-.989c-.038-.231-.075-.462-.115-.693a.841.841 0 0 0-1.138-.669c-.229.081-.455.171-.684.255a1.118 1.118 0 0 1-1.423-.512Q.742 10.8.173 9.809a1.113 1.113 0 0 1 .26-1.478c.189-.16.385-.314.573-.475A.837.837 0 0 0 1 6.545c-.19-.164-.389-.32-.582-.485a1.109 1.109 0 0 1-.256-1.445Q.738 3.6 1.327 2.6a1.116 1.116 0 0 1 1.4-.5c.224.082.446.169.67.25a.84.84 0 0 0 1.162-.68c.045-.258.083-.518.136-.774A1.1 1.1 0 0 1 5.77.005Q6.979 0 8.188.005a1.121 1.121 0 0 1 1.1 1c.037.231.075.462.115.693a.838.838 0 0 0 1.117.668c.239-.081.473-.177.71-.264a1.117 1.117 0 0 1 1.413.509q.58.995 1.151 1.995a1.113 1.113 0 0 1-.258 1.467c-.186.158-.377.308-.563.466a.839.839 0 0 0 0 1.338c.19.161.385.314.574.475a1.108 1.108 0 0 1 .253 1.431q-.582 1.026-1.18 2.043a1.132 1.132 0 0 1-1.055.563m-3.405.882c.047-.27.09-.537.139-.8a1.938 1.938 0 0 1 2.143-1.58 5.757 5.757 0 0 1 .977.291c.231.076.228.085.353-.131l1.058-1.832-.555-.458a1.966 1.966 0 0 1 0-3.109l.557-.46c-.382-.662-.763-1.318-1.139-1.976-.039-.068-.078-.059-.137-.036-.236.09-.471.183-.711.262A1.96 1.96 0 0 1 8.3 1.925c-.049-.262-.091-.525-.137-.791H5.8c-.037.223-.078.443-.111.664a1.971 1.971 0 0 1-2.7 1.6l-.669-.249c-.02.029-.034.047-.046.067L1.129 5.188l.566.467a1.968 1.968 0 0 1 0 3.092l-.568.468 1.182 2.046c.258-.1.5-.188.74-.275a1.962 1.962 0 0 1 2.613 1.494c.049.262.091.525.137.791z"/>
            <path id="패스_42" data-name="패스 42" class="cls-4" d="M77.574 84.216a2.776 2.776 0 1 1 2.7-2.848 2.783 2.783 0 0 1-2.7 2.848m-.081-4.426a1.651 1.651 0 1 0 1.656 1.653 1.663 1.663 0 0 0-1.656-1.653" transform="translate(-70.518 -74.239)"/>
        </g>
    </g>
</svg>
