<svg xmlns="http://www.w3.org/2000/svg" width="152" height="20" viewBox="0 0 152 20">
    <path data-name="사각형 2871" style="fill:none" d="M0 0h152v20H0z"/>
    <path data-name="패스 56" d="M11.112 0h4.248l-7.1-8.448 6.912-8.3h-4.06L5.016-9.24v-7.512h-3.36V0h3.36v-7.464zm15.312-4.944c0 1.416-.96 2.208-2.592 2.208h-3.384v-4.512h3.312c1.632 0 2.664.864 2.664 2.304zm-.408-6.984c0 1.368-.912 2.088-2.5 2.088h-3.068v-4.2h3.072c1.58 0 2.496.768 2.496 2.112zm3.816 7.392a4.061 4.061 0 0 0-3.24-4.056 3.862 3.862 0 0 0 2.856-3.84c0-2.5-1.944-4.32-5.448-4.32h-6.912V0h7.224c3.48 0 5.52-1.872 5.52-4.536zm7.2-10.848h4.68V0h1.68v-15.384h4.656v-1.392H37.032zm12 0h4.68V0h1.68v-15.384h4.656v-1.392H49.032zM72.72-4.416c0-6.24-9.216-3.264-9.216-8.112 0-1.944 1.632-3.024 3.6-3a3.43 3.43 0 0 1 3.648 2.64h1.824c-.288-2.3-2.208-4.08-5.4-4.08-3.24 0-5.376 1.9-5.376 4.488 0 6.312 9.216 3.192 9.216 8.136 0 1.728-1.368 3.1-3.7 3.1-2.712 0-3.744-1.68-3.888-3.072h-1.772c.1 2.568 2.3 4.488 5.664 4.488 3.552-.004 5.4-2.308 5.4-4.588zM92.76 0h1.776l-6.1-16.56h-1.9L80.424 0H82.2l1.464-3.984H91.3zm-1.968-5.376h-6.624l3.312-9.072zm5.184-1.2c0 4.1 2.664 6.768 6.264 6.768a5.465 5.465 0 0 0 5.184-3.12V0h1.68v-17.76h-1.68v7.488a5.7 5.7 0 0 0-5.16-3.024c-3.624-.004-6.288 2.616-6.288 6.72zm11.448.024c0 3.264-2.184 5.28-4.872 5.28-2.76 0-4.872-1.992-4.872-5.3 0-3.336 2.112-5.256 4.872-5.256 2.688-.004 4.872 2.012 4.872 5.276zM131.616 0h1.656v-7.68c0-3.84-2.3-5.664-5.208-5.664a4.774 4.774 0 0 0-4.728 3.216 4.842 4.842 0 0 0-4.848-3.216 4.68 4.68 0 0 0-4.344 2.5V-13.1h-1.68V0h1.68v-7.1c0-3.192 1.656-4.776 4.056-4.776 2.328 0 3.864 1.488 3.864 4.392V0h1.656v-7.1c0-3.192 1.68-4.776 4.056-4.776 2.328 0 3.84 1.488 3.84 4.392zm4.9 0h1.68v-13.1h-1.68zm.84-15.576a1.219 1.219 0 0 0 1.224-1.248 1.2 1.2 0 0 0-1.224-1.224 1.2 1.2 0 0 0-1.224 1.224 1.219 1.219 0 0 0 1.22 1.248zM151.344 0H153v-7.68c0-3.84-2.352-5.664-5.328-5.664a4.788 4.788 0 0 0-4.464 2.472V-13.1h-1.68V0h1.68v-7.152c0-3.192 1.7-4.728 4.152-4.728 2.4 0 3.984 1.488 3.984 4.392z" transform="translate(-1.328 18.928)" style="fill:#fff"/>
</svg>
