<svg xmlns="http://www.w3.org/2000/svg" xmlns:xlink="http://www.w3.org/1999/xlink" width="1943" height="981" viewBox="0 0 1943 981">
    <defs>
        <path id="rnsg4ltiba" d="M0 0L851 0 851 537 0 537z"/>
        <path id="8x7mxddgec" d="M0.781 0.637L36.584 0.637 36.584 53.999 0.781 53.999z"/>
        <path id="41mqtaaahe" d="M0.176 0.637L36.622 0.637 36.622 54 0.176 54z"/>
        <path id="7mv8b1cu6g" d="M0.217 0.637L36.02 0.637 36.02 54 0.217 54z"/>
        <path id="l68qdfngbi" d="M0.608 0.637L36.412 0.637 36.412 54 0.608 54z"/>
        <path id="kuqzb7x5vk" d="M0 0.637L36.446 0.637 36.446 54 0 54z"/>
        <path id="dpg0kbc78m" d="M0.85 0.966L14.683 0.966 14.683 14.799 0.85 14.799z"/>
    </defs>
    <g fill="none" fill-rule="evenodd">
        <g>
            <g>
                <g opacity=".04" transform="translate(310 283) translate(-310 -283)">
                    <mask id="z2p2hshz1b" fill="#fff">
                        <use xlink:href="#rnsg4ltiba"/>
                    </mask>
                    <path fill="#8B81F6" d="M129.7 519.11c138.338 40.69 183.74-70.731 295.697-69.774 111.967.937 166.188 110.463 284.95 83.35 133.29-30.427 192.49-241.28 85.193-359.933-221.219-244.616-574.523-218.805-743.29 10.3C-63.706 340.49 36.39 491.673 129.7 519.11" mask="url(#z2p2hshz1b)"/>
                </g>
                <g>
                    <path fill="#45C4D3" stroke="#45C4D3" stroke-linejoin="round" stroke-width="5" d="M167.5 422.643L175 437.643 160 437.643z" opacity=".3" transform="translate(310 283) translate(-310 -283) translate(610 537) rotate(-28 167.5 430.143)"/>
                    <g fill="#388AF7" opacity=".168" transform="translate(310 283) translate(-310 -283) translate(610 537) translate(1249 93)">
                        <circle cx="4.5" cy="4.5" r="4.5"/>
                        <circle cx="23.5" cy="4.5" r="4.5"/>
                        <circle cx="41.5" cy="4.5" r="4.5"/>
                        <circle cx="60.5" cy="4.5" r="4.5"/>
                        <circle cx="4.5" cy="23.5" r="4.5"/>
                        <circle cx="23.5" cy="23.5" r="4.5"/>
                        <circle cx="41.5" cy="23.5" r="4.5"/>
                        <circle cx="60.5" cy="23.5" r="4.5"/>
                        <circle cx="4.5" cy="41.5" r="4.5"/>
                        <circle cx="23.5" cy="41.5" r="4.5"/>
                        <circle cx="41.5" cy="41.5" r="4.5"/>
                        <circle cx="60.5" cy="41.5" r="4.5"/>
                        <circle cx="4.5" cy="60.5" r="4.5"/>
                        <circle cx="23.5" cy="60.5" r="4.5"/>
                        <circle cx="41.5" cy="60.5" r="4.5"/>
                        <circle cx="60.5" cy="60.5" r="4.5"/>
                        <circle cx="79.5" cy="4.5" r="4.5"/>
                        <circle cx="79.5" cy="23.5" r="4.5"/>
                        <circle cx="79.5" cy="41.5" r="4.5"/>
                        <circle cx="79.5" cy="60.5" r="4.5"/>
                    </g>
                    <g opacity=".1">
                        <g transform="translate(310 283) translate(-310 -283) translate(610 537) matrix(-1 0 0 1 1222 0) translate(156)">
                            <mask id="kintsi3fwd" fill="#fff">
                                <use xlink:href="#8x7mxddgec"/>
                            </mask>
                            <path fill="#8B81F6" d="M28.462 52.838L2.572 31.166c-2.388-2-2.388-5.697 0-7.695l25.89-21.673c3.23-2.704 8.122-.385 8.122 3.848V48.99c0 4.236-4.892 6.552-8.122 3.849" mask="url(#kintsi3fwd)"/>
                        </g>
                        <g transform="translate(310 283) translate(-310 -283) translate(610 537) matrix(-1 0 0 1 1222 0) translate(117)">
                            <mask id="pi9a35cuaf" fill="#fff">
                                <use xlink:href="#41mqtaaahe"/>
                            </mask>
                            <path fill="#C6CDDB" d="M36.622 27.319V48.99c0 4.235-4.98 6.552-8.268 3.849L2 31.167C-.432 29.165-.432 25.47 2 23.47L28.354 1.797c3.288-2.703 8.268-.385 8.268 3.848V27.32z" mask="url(#pi9a35cuaf)"/>
                        </g>
                        <g transform="translate(310 283) translate(-310 -283) translate(610 537) matrix(-1 0 0 1 1222 0) translate(78)">
                            <mask id="a8072zoxvh" fill="#fff">
                                <use xlink:href="#7mv8b1cu6g"/>
                            </mask>
                            <path fill="#8B81F6" d="M36.02 27.319V48.99c0 4.235-4.892 6.554-8.122 3.849L2.008 31.167c-2.389-2.002-2.389-5.697 0-7.697l25.89-21.673c3.23-2.703 8.122-.385 8.122 3.848V27.32z" mask="url(#a8072zoxvh)"/>
                        </g>
                        <g transform="translate(310 283) translate(-310 -283) translate(610 537) matrix(-1 0 0 1 1222 0) translate(39)">
                            <mask id="lw7lszgw1j" fill="#fff">
                                <use xlink:href="#l68qdfngbi"/>
                            </mask>
                            <path fill="#C6CDDB" d="M36.412 27.319V48.99c0 4.235-4.892 6.552-8.122 3.849L2.4 31.167C.011 29.165.011 25.47 2.4 23.47L28.29 1.797c3.23-2.703 8.122-.385 8.122 3.848V27.32z" mask="url(#lw7lszgw1j)"/>
                        </g>
                        <g transform="translate(310 283) translate(-310 -283) translate(610 537) matrix(-1 0 0 1 1222 0)">
                            <mask id="m7gdashx3l" fill="#fff">
                                <use xlink:href="#kuqzb7x5vk"/>
                            </mask>
                            <path fill="#8B81F6" d="M1.824 23.471L28.178 1.798c3.288-2.704 8.268-.385 8.268 3.848v43.345c0 4.235-4.98 6.55-8.268 3.847L1.824 31.166c-2.432-2-2.432-5.697 0-7.695" mask="url(#m7gdashx3l)"/>
                        </g>
                    </g>
                    <g opacity=".5">
                        <path fill="#C7DBFF" d="M33 45.996C33 49.858 29.857 53 25.995 53 22.138 53 19 49.858 19 45.996 19 42.137 22.138 39 25.995 39 29.857 39 33 42.137 33 45.996M14 45.996C14 49.858 10.863 53 7.005 53 3.14 53 0 49.858 0 45.996 0 42.137 3.141 39 7.005 39 10.863 39 14 42.137 14 45.996M33 64.995C33 68.858 29.857 72 25.995 72 22.138 72 19 68.858 19 64.995 19 61.136 22.138 58 25.995 58 29.857 58 33 61.136 33 64.995M71 64.995C71 68.858 67.862 72 64.003 72 60.143 72 57 68.858 57 64.995 57 61.136 60.143 58 64.003 58 67.862 58 71 61.136 71 64.995M14 84.003C14 87.862 10.863 91 7.005 91 3.14 91 0 87.862 0 84.003 0 80.141 3.141 77 7.005 77 10.863 77 14 80.141 14 84.003M90 84.003C90 87.862 86.858 91 82.996 91 79.14 91 76 87.862 76 84.003 76 80.141 79.139 77 82.996 77 86.858 77 90 80.141 90 84.003M14 64.995C14 68.858 10.863 72 7.005 72 3.14 72 0 68.858 0 64.995 0 61.136 3.141 58 7.005 58 10.863 58 14 61.136 14 64.995M90 64.995C90 68.858 86.858 72 82.996 72 79.14 72 76 68.858 76 64.995 76 61.136 79.139 58 82.996 58 86.858 58 90 61.136 90 64.995M52 45.996C52 49.858 48.86 53 45 53c-3.859 0-7-3.142-7-7.004C38 42.137 41.141 39 45 39c3.86 0 7 3.137 7 6.996" transform="translate(310 283) translate(-310 -283) translate(610 537) translate(0 226)"/>
                        <g transform="translate(310 283) translate(-310 -283) translate(610 537) translate(0 226) translate(37)">
                            <mask id="jldurvy6bn" fill="#fff">
                                <use xlink:href="#dpg0kbc78m"/>
                            </mask>
                            <path fill="#C7DBFF" d="M14.683 7.882c0 3.815-3.102 6.917-6.917 6.917-3.813 0-6.916-3.102-6.916-6.917C.85 4.07 3.953.966 7.766.966c3.815 0 6.917 3.103 6.917 6.916" mask="url(#jldurvy6bn)"/>
                        </g>
                        <path fill="#C7DBFF" d="M52 27.004C52 30.86 48.86 34 45 34c-3.859 0-7-3.139-7-6.996C38 23.142 41.141 20 45 20c3.86 0 7 3.142 7 7.004M71 27.004C71 30.86 67.862 34 64.003 34 60.143 34 57 30.861 57 27.004 57 23.142 60.143 20 64.003 20 67.862 20 71 23.142 71 27.004M71 45.996C71 49.858 67.862 53 64.003 53 60.143 53 57 49.858 57 45.996 57 42.137 60.143 39 64.003 39 67.862 39 71 42.137 71 45.996M33 27.004C33 30.86 29.857 34 25.995 34 22.138 34 19 30.861 19 27.004 19 23.142 22.138 20 25.995 20 29.857 20 33 23.142 33 27.004M90 45.996C90 49.858 86.858 53 82.996 53 79.14 53 76 49.858 76 45.996 76 42.137 79.139 39 82.996 39 86.858 39 90 42.137 90 45.996" transform="translate(310 283) translate(-310 -283) translate(610 537) translate(0 226)"/>
                    </g>
                </g>
            </g>
        </g>
    </g>
</svg>
