<svg xmlns="http://www.w3.org/2000/svg" width="105" height="108" viewBox="0 0 105 108">
    <g fill="none" fill-rule="evenodd">
        <g>
            <g>
                <g transform="translate(-470 -407) translate(470 407)">
                    <rect width="104.3" height="107.1" fill="#8487F5" rx="14"/>
                    <circle cx="18.9" cy="29.4" r="2.1" fill="#FFF"/>
                    <text fill="#FFF" font-family="NotoSansCJKkr-Black, Noto Sans CJK KR" font-size="9.8" font-weight="700">
                        <tspan x="23.1" y="34.1">REC</tspan>
                    </text>
                </g>
                <g transform="translate(-470 -407) translate(470 407) translate(16.8 50.4)">
                    <rect width="4.2" height="8.4" x="6.3" y="16.8" fill="#5ED3E1" rx="1.4"/>
                    <rect width="4.2" height="14.7" x="12.6" y="10.5" fill="#5ED3E1" rx="1.4"/>
                    <rect width="4.2" height="14.7" x="18.9" y="10.5" fill="#5ED3E1" rx="1.4"/>
                    <rect width="4.2" height="25.2" x="31.5" fill="#5ED3E1" rx="1.4"/>
                    <rect width="4.2" height="16.8" x="25.2" y="8.4" fill="#5ED3E1" rx="1.4"/>
                    <rect width="4.2" height="18.9" x="37.8" y="6.3" fill="#5ED3E1" rx="1.4"/>
                    <rect width="4.2" height="1.4" x="44.1" y="23.8" fill="#FFF" rx=".7"/>
                    <rect width="4.2" height="1.4" y="23.8" fill="#FFF" rx=".7"/>
                    <rect width="4.2" height="1.4" x="50.4" y="23.8" fill="#FFF" rx=".7"/>
                </g>
            </g>
        </g>
    </g>
</svg>
