<svg xmlns="http://www.w3.org/2000/svg" id="그룹_8" width="91.306" height="102.895" viewBox="0 0 91.306 102.895">
    <defs>
        <style>
            .cls-1{fill:#8285f3}
        </style>
    </defs>
    <g id="그룹_36">
        <g id="패스_66" transform="translate(22.063 22.43)">
            <path id="패스_148" d="M345.971 778.242a24.651 24.651 0 1 0 24.653-24.486 24.57 24.57 0 0 0-24.653 24.486z" class="cls-1" transform="translate(-345.971 -753.756)"/>
        </g>
        <g id="패스_67" transform="translate(0 68.835)">
            <path id="패스_149" d="M414.749 783.563l-13.328 6.25a10.854 10.854 0 0 0-9.246-5.669l-12.294-.336a13.052 13.052 0 0 1-5.586-1.432l-1.245-.646a22.194 22.194 0 0 0-20.436.022l.078-2.815a1.693 1.693 0 0 0-1.653-1.731l-13.481-.372a1.7 1.7 0 0 0-1.745 1.641L335 807.86a1.693 1.693 0 0 0 1.653 1.731l13.481.372h.046a1.7 1.7 0 0 0 1.7-1.643l.038-1.406 3.5-1.862a6.048 6.048 0 0 1 4.484-.487l20.911 5.831a1.119 1.119 0 0 0 .111.026 22.34 22.34 0 0 0 4.6.47 22.8 22.8 0 0 0 9.476-2.051 2.155 2.155 0 0 0 .211-.115l30.319-19.487a1.683 1.683 0 0 0 .557-2.25 8.62 8.62 0 0 0-11.338-3.426zm-76.3 22.7l.72-26.008 10.08.278-.72 26.008zm55.018-.44a19.4 19.4 0 0 1-11.785 1.307l-20.856-5.815a9.458 9.458 0 0 0-7.008.76l-1.79.953.479-17.293a18.793 18.793 0 0 1 18.984-1.005l1.245.643a16.519 16.519 0 0 0 7.056 1.812l12.294.334a7.445 7.445 0 0 1 7.086 5.9l-18.311-.5a1.689 1.689 0 1 0-.092 3.376l20.207.553h.048a1.7 1.7 0 0 0 1.7-1.643 10.65 10.65 0 0 0-.165-2.19l13.66-6.411.04-.02a5.218 5.218 0 0 1 5.872.818z" class="cls-1" transform="translate(-334.999 -776.834)"/>
        </g>
        <g id="패스_68" transform="translate(45.015)">
            <path id="패스_150" d="M360.785 760.286v-16.04a1.7 1.7 0 0 0-3.4 0v16.04a1.7 1.7 0 0 0 3.4 0z" class="cls-1" transform="translate(-357.385 -742.602)"/>
        </g>
        <g id="패스_69" transform="translate(57.763 8.444)">
            <path id="패스_151" d="M367.126 756.041v-7.6a1.7 1.7 0 0 0-3.4 0v7.6a1.7 1.7 0 0 0 3.4.093z" class="cls-1" transform="translate(-363.725 -746.801)"/>
        </g>
        <g id="패스_70" transform="translate(32.266 8.444)">
            <path id="패스_152" d="M354.443 756.041v-7.6a1.7 1.7 0 0 0-3.4 0v7.6a1.7 1.7 0 0 0 3.4 0z" class="cls-1" transform="translate(-351.045 -746.801)"/>
        </g>
        <g id="패스_65" transform="translate(39.451 30.939)">
            <path id="패스_153" fill="#fff" d="M362.022 783.184a1.626 1.626 0 0 0-.583-.02 3.845 3.845 0 0 1-3.418-3.806 1.7 1.7 0 0 0-3.4-.093.7.7 0 0 0 0 .093 7.228 7.228 0 0 0 5.347 6.953V788a1.7 1.7 0 0 0 3.4 0v-1.587a7.207 7.207 0 0 0-1.488-14.267 3.836 3.836 0 1 1 3.861-3.835 1.7 1.7 0 0 0 3.4 0 7.238 7.238 0 0 0-5.773-7.054v-1.536a1.7 1.7 0 0 0-3.4-.09.668.668 0 0 0 0 .09v1.641a7.2 7.2 0 0 0 1.912 14.166 3.834 3.834 0 0 1 .141 7.659z" transform="translate(-354.618 -757.988)"/>
        </g>
    </g>
</svg>
