<?xml version="1.0" encoding="utf-8"?>
<!-- Generator: Adobe Illustrator 24.3.0, SVG Export Plug-In . SVG Version: 6.00 Build 0)  -->
<svg version="1.1" id="레이어_1" xmlns="http://www.w3.org/2000/svg" xmlns:xlink="http://www.w3.org/1999/xlink" x="0px"
	 y="0px" viewBox="0 0 71 102" style="enable-background:new 0 0 71 102;" xml:space="preserve">
<style type="text/css">
	.st0{fill:#5C637B;}
</style>
<g>
	<g id="그룹_15" transform="translate(-600.782 -17.54)">
		<g id="그룹_13_1_" transform="translate(745.289 37.657)">
			<path id="패스_79_1_" class="st0" d="M-79.5,2.8h-16.8c0-1.5-1.3-2.8-2.8-2.8h-4c0.7,0,1.2,0.5,1.2,1.2c0,0.7-0.5,1.2-1.2,1.2
				h4c0.2,0,0.4,0.2,0.4,0.4v0v2.4c0,0.2-0.2,0.4-0.4,0.4l0,0h-20c-0.2,0-0.4-0.2-0.4-0.4v0V2.8c0-0.2,0.2-0.4,0.4-0.4l0,0h15.4
				c-0.7,0-1.2-0.5-1.2-1.2c0-0.7,0.5-1.2,1.2-1.2h-15.4c-1.5,0-2.8,1.3-2.8,2.8h-16.8c-3.2,0-5.9,2.6-5.9,5.9v3
				c0-0.7,0.5-1.2,1.2-1.2s1.2,0.5,1.2,1.2v-3c0-1.9,1.6-3.5,3.5-3.5h16.8c0,1.5,1.3,2.8,2.8,2.8h20c1.5,0,2.8-1.3,2.8-2.8h16.8
				c1.9,0,3.5,1.6,3.5,3.5v17.5c0-0.7,0.5-1.2,1.2-1.2c0.7,0,1.2,0.5,1.2,1.2l0,0V8.6C-73.7,5.4-76.3,2.8-79.5,2.8z"/>
			<path id="패스_80_1_" class="st0" d="M-104.8,1.2c0,0.7,0.5,1.2,1.2,1.2l0,0h0.5c0.7,0,1.2-0.5,1.2-1.2c0-0.7-0.5-1.2-1.2-1.2
				h-0.5C-104.3,0-104.8,0.5-104.8,1.2L-104.8,1.2z"/>
			<path id="패스_81_1_" class="st0" d="M-105.5,71.3h-7.2V70l-2.4,3.3v2.4c-0.1,3.3,2.5,6.1,5.8,6.2c3.3,0.1,6.1-2.5,6.2-5.8
				c0-0.1,0-0.3,0-0.4v-2.4l-2.4-3.3L-105.5,71.3z M-105.5,75.7c0,2-1.6,3.6-3.6,3.6c-2,0-3.6-1.6-3.6-3.6v-2h7.2V75.7z"/>
			<path id="패스_82_1_" class="st0" d="M-112.7,60.2v-1.4l-0.9-0.7c0,0.6,0.3,1.2,0.6,1.7L-112.7,60.2z"/>
			<path id="패스_83_1_" class="st0" d="M-105.5,66v4l2.4,3.3v-4.1L-105.5,66z"/>
			<path id="패스_84_1_" class="st0" d="M-108.5,58.5h1.2l0.1-0.2c0.1-0.2,0.1-0.4-0.1-0.6l-0.7-0.5l-1.2,0.9L-108.5,58.5z"/>
			<path id="패스_85_1_" class="st0" d="M-110.3,57.2l-0.7,0.5c-0.2,0.1-0.2,0.4-0.1,0.6l0.1,0.2h1.2l0.6-0.5L-110.3,57.2z"/>
			<path id="패스_86_1_" class="st0" d="M-112.7,66l-2.4,3.2v4.1l2.4-3.3V66z"/>
			<path id="패스_87_1_" class="st0" d="M-105.5,60.1l0.3-0.4c0.4-0.5,0.6-1.1,0.6-1.7l-0.9,0.7L-105.5,60.1z"/>
			<path id="패스_88_1_" class="st0" d="M-109.7,58.5h1.2l-0.6-0.5L-109.7,58.5z"/>
			<path id="패스_89_1_" class="st0" d="M-74.9,24.9c-0.7,0-1.2,0.5-1.2,1.2V28c0,0.7,0.5,1.2,1.2,1.2c0.7,0,1.2-0.5,1.2-1.2v-1.8
				C-73.7,25.5-74.2,24.9-74.9,24.9C-74.9,24.9-74.9,24.9-74.9,24.9z"/>
			<path id="패스_90_1_" class="st0" d="M-143.3,14.4c0.7,0,1.2-0.5,1.2-1.2c0,0,0,0,0,0v-1.6c0-0.7-0.5-1.2-1.2-1.2
				s-1.2,0.5-1.2,1.2l0,0v1.6C-144.5,13.9-144,14.4-143.3,14.4L-143.3,14.4z"/>
		</g>
		<path id="패스_91_1_" class="st0" d="M636.2,17.5c-3.3,0-6,2.7-6,6v5.3c0.1,3.3,2.9,5.9,6.2,5.8c3.2-0.1,5.7-2.6,5.8-5.8v-5.3
			C642.2,20.2,639.5,17.5,636.2,17.5z M639.8,25.5v3.3c0,2-1.6,3.6-3.6,3.6c-2,0-3.6-1.6-3.6-3.6v-5.3c0-2,1.6-3.6,3.6-3.6
			c2,0,3.6,1.6,3.6,3.6V25.5L639.8,25.5z"/>
		<g id="그룹_14_1_" transform="translate(745.289 32.669)">
			<path id="패스_92_1_" class="st0" d="M-105.4,56.4c0,0-0.1,0-0.1,0h0C-105.5,56.4-105.4,56.4-105.4,56.4z"/>
			<path id="패스_93_1_" class="st0" d="M-105.5,60.4l0.7-0.5l-0.5-0.8c-0.1-0.1-0.2-0.2-0.3-0.2c0,0.1,0.1,0.1,0.1,0.2
				L-105.5,60.4z"/>
			<path id="패스_94_1_" class="st0" d="M-103.2,62l-1.4,1c0,0.6-0.3,1.2-0.6,1.7l-0.3,0.4V71l2.4,3.2V62.2L-103.2,62z"/>
			<path id="패스_95_1_" class="st0" d="M-115.1,62.1v12.1l2.4-3.2v-5.8l-0.3-0.4c-0.4-0.5-0.6-1.1-0.6-1.7l-1.4-1L-115.1,62.1z"
				/>
			<path id="패스_96_1_" class="st0" d="M-112.7,56.4L-112.7,56.4L-112.7,56.4L-112.7,56.4z"/>
			<path id="패스_97_1_" class="st0" d="M-109.1,58.2l2.1-1.5c0.3-0.1,0.6-0.2,0.9-0.3h-6c0.3,0,0.6,0.1,0.9,0.3L-109.1,58.2z"/>
			<path id="패스_98_1_" class="st0" d="M-110.3,62.2l1.2,0.9l1.2-0.9l-1.2-0.9L-110.3,62.2z"/>
			<path id="패스_99_1_" class="st0" d="M-112.6,58.9c-0.1,0-0.3,0.1-0.4,0.2l-0.5,0.8l0.8,0.6v-1.3
				C-112.7,59.1-112.6,59-112.6,58.9z"/>
			<path id="패스_100_1_" class="st0" d="M-103.1,59.1v3l7.3,9.9l-5.8,4.2l-1.5-2.1v4.1l4,5.5c2.1,2.9,6,3.7,8.7,1.8
				c2.7-1.9,3.1-5.9,1-8.8l-13.9-19.1c-0.5-0.7-1.2-1.2-2.1-1.3C-104.1,56.6-103.1,57.8-103.1,59.1z M-91.3,78.2
				c1.3,1.5,1.2,3.8-0.3,5.1c-1.5,1.3-3.8,1.2-5.1-0.3c-0.1-0.2-0.3-0.3-0.4-0.5l-2.9-4l5.8-4.2L-91.3,78.2z"/>
			<path id="패스_101_1_" class="st0" d="M-109.4,61.1h-2.3l1.5,1.1l1.2-0.9L-109.4,61.1z"/>
			<path id="패스_102_1_" class="st0" d="M-106.1,56.4c-0.3,0-0.6,0.1-0.9,0.3l-2.1,1.5l0.8,0.6h2.4c0.1,0,0.3,0.1,0.3,0.2
				c0.1,0,0.3,0.1,0.3,0.2l0.5,0.8l-0.7,0.5v0.3l0.1,0.1c0.6,0.6,0.8,1.4,0.8,2.2l1.4-1l0.1,0.1v-3c0-1.3-1-2.5-2.3-2.7
				c0,0-0.1,0-0.2,0H-106.1z"/>
			<path id="패스_103_1_" class="st0" d="M-122.4,72.1l7.4-9.9v-3c0-1.4,1-2.5,2.4-2.8c-0.9,0.1-1.7,0.6-2.2,1.3l-13.9,19.1
				c-2.1,2.9-1.7,6.9,1,8.8c2.7,1.9,6.6,1.1,8.7-1.8l4.1-5.6v-4.1l-1.6,2.1L-122.4,72.1z M-121.1,82.4c-1,1.7-3.2,2.3-4.9,1.3
				c-1.7-1-2.3-3.2-1.3-4.9c0.1-0.2,0.2-0.4,0.4-0.5l2.9-4l5.8,4.2L-121.1,82.4z"/>
			<path id="패스_104_1_" class="st0" d="M-112.8,60.9l0.2-0.1v-0.3l-0.8-0.6l0.5-0.8c0.1-0.1,0.2-0.2,0.4-0.2
				c0.1-0.1,0.2-0.2,0.3-0.2h2.4l0.8-0.6l-2.1-1.5c-0.3-0.1-0.6-0.2-0.9-0.3h-0.5l-0.1,0c-1.4,0.2-2.4,1.4-2.4,2.8v3l0.1-0.1l1.4,1
				C-113.7,62.2-113.4,61.5-112.8,60.9z"/>
			<path id="패스_105_1_" class="st0" d="M-108.8,61.1l-0.3,0.2l1.2,0.9l1.5-1.1L-108.8,61.1z"/>
			<path id="패스_106_1_" class="st0" d="M-109.1,61.4l0.3-0.2h-0.6L-109.1,61.4z"/>
			<path id="패스_107_1_" class="st0" d="M-105.4,60.9l-0.1-0.1v0.3h-0.9l-1.5,1.1l0.7,0.5c0.2,0.1,0.2,0.4,0.1,0.6l-0.1,0.2h1.8
				v0.2l0.9-0.7C-104.5,62.2-104.8,61.5-105.4,60.9z"/>
			<path id="패스_108_1_" class="st0" d="M-112.7,61.1v-0.4l-0.2,0.1c-0.6,0.6-0.8,1.4-0.8,2.2l0.9,0.7v-0.2h1.8l-0.1-0.2
				c-0.1-0.2-0.1-0.4,0.1-0.6l0.7-0.5l-1.5-1.1L-112.7,61.1z"/>
			<path id="패스_109_1_" class="st0" d="M-108.3,58.7l-0.8-0.6l-0.8,0.6H-108.3z"/>
			<path id="패스_110_1_" class="st0" d="M-74.9,34.1c-0.7,0-1.2-0.5-1.2-1.2v0v9.8c0,1.9-1.6,3.5-3.5,3.5h-16.8
				c0-1.5-1.3-2.8-2.8-2.8h-7.2c0.7,0,1.2,0.5,1.2,1.2c0,0.7-0.5,1.2-1.2,1.2c0,0,0,0,0,0h7.2c0.2,0,0.4,0.2,0.4,0.4v0v2.4
				c0,0.2-0.2,0.4-0.4,0.4l0,0h-20c-0.2,0-0.4-0.2-0.4-0.4c0,0,0,0,0,0v-2.4c0-0.2,0.2-0.4,0.4-0.4l0,0h12.7c-0.7,0-1.2-0.5-1.2-1.2
				c0-0.7,0.5-1.2,1.2-1.2h-12.7c-1.5,0-2.8,1.3-2.8,2.8h-16.8c-1.9,0-3.5-1.6-3.5-3.5V18.2c0,0.7-0.5,1.2-1.2,1.2s-1.2-0.5-1.2-1.2
				v24.5c0,3.2,2.6,5.9,5.9,5.9h16.8c0,1.5,1.3,2.8,2.8,2.8h20c1.5,0,2.8-1.3,2.8-2.8h16.8c3.2,0,5.9-2.6,5.9-5.9v-9.8
				C-73.7,33.6-74.2,34.1-74.9,34.1C-74.9,34.1-74.9,34.1-74.9,34.1z"/>
			<path id="패스_111_1_" class="st0" d="M-107.9,56.3h-2.4v-4.9h-2.4v5h0c0.2,0,0.4,0,0.5,0h6c0.2,0,0.4,0,0.5,0h0v-5h-2.4
				L-107.9,56.3z"/>
			<path id="패스_112_1_" class="st0" d="M-107.9,4.9h-2.4V0h-2.4v5h0c0.2,0,0.4,0,0.5,0h6c0.2,0,0.4,0,0.5,0h0V0h-2.4L-107.9,4.9
				z"/>
			<circle id="타원_7_1_" class="st0" cx="-106.4" cy="44.6" r="1.2"/>
			<path id="패스_113_1_" class="st0" d="M-106.1,56.4h0.5C-105.7,56.4-105.9,56.4-106.1,56.4z"/>
			<path id="패스_114_1_" class="st0" d="M-112.7,56.4h0.5C-112.3,56.4-112.5,56.4-112.7,56.4z"/>
		</g>
	</g>
	<g>
		<path class="st0" d="M10.7,40.8c-0.1-0.2-0.1-0.3-0.2-0.6c-0.1-0.2-0.2-0.5-0.3-0.8v7.7H8.7V38H11l2.2,5.7l2.2-5.7h2.3v9.1h-1.5
			v-7.7c-0.1,0.4-0.2,0.7-0.2,0.9c-0.1,0.2-0.1,0.4-0.2,0.5l-1.9,4.8h-1.3L10.7,40.8z"/>
		<path class="st0" d="M19.8,38h1.6v9.1h-1.6V38z"/>
		<path class="st0" d="M23.4,38h1.9l3.1,5.5c0.1,0.2,0.2,0.4,0.3,0.6c0.1,0.2,0.2,0.5,0.3,0.8v-7h1.5v9.1h-1.9l-3.1-5.5
			c-0.1-0.2-0.2-0.4-0.3-0.7c-0.1-0.2-0.2-0.5-0.2-0.7v6.9h-1.5V38z"/>
		<path class="st0" d="M35.9,45.8c0.3,0,0.6,0,0.9-0.1c0.2-0.1,0.4-0.2,0.6-0.4s0.3-0.4,0.3-0.7c0.1-0.3,0.1-0.7,0.1-1.1V38h1.6v5.4
			c0,0.8-0.1,1.4-0.2,1.9c-0.2,0.5-0.4,0.9-0.7,1.2c-0.3,0.3-0.7,0.5-1.1,0.6c-0.4,0.1-0.9,0.2-1.5,0.2c-0.6,0-1.1-0.1-1.5-0.2
			c-0.4-0.1-0.8-0.3-1.1-0.6c-0.3-0.3-0.5-0.7-0.7-1.2c-0.2-0.5-0.2-1.1-0.2-1.9V38H34v5.4c0,0.4,0,0.8,0.1,1.1
			c0.1,0.3,0.2,0.6,0.3,0.7c0.2,0.2,0.4,0.3,0.6,0.4S35.6,45.8,35.9,45.8z"/>
		<path class="st0" d="M47.4,38v1.4h-2.7v7.8h-1.6v-7.8h-2.7V38H47.4z"/>
		<path class="st0" d="M54.5,38v1.3h-4.3v2.5h4v1.3h-4v2.7h4.4v1.3h-6V38H54.5z"/>
		<path class="st0" d="M59.2,45.8c0.6,0,1-0.1,1.3-0.3c0.3-0.2,0.4-0.5,0.4-0.8v-0.1c0-0.4-0.1-0.6-0.4-0.8s-0.7-0.3-1.2-0.4
			c-0.4-0.1-0.8-0.2-1.1-0.3c-0.4-0.1-0.7-0.2-1-0.4s-0.6-0.4-0.8-0.8c-0.2-0.3-0.3-0.7-0.3-1.3v-0.2c0-0.3,0.1-0.6,0.2-0.9
			c0.1-0.3,0.3-0.6,0.5-0.8c0.3-0.3,0.6-0.5,1-0.6s0.9-0.2,1.6-0.2c0.5,0,1,0.1,1.5,0.2c0.5,0.1,0.9,0.3,1.4,0.6l-0.8,1.3
			c-0.4-0.2-0.7-0.4-1-0.5c-0.3-0.1-0.7-0.1-1-0.1c-0.3,0-0.5,0-0.7,0.1c-0.2,0.1-0.4,0.2-0.5,0.3c-0.1,0.1-0.2,0.2-0.3,0.4
			c-0.1,0.1-0.1,0.3-0.1,0.4v0.2c0,0.2,0.1,0.4,0.2,0.5c0.1,0.1,0.2,0.2,0.4,0.3c0.2,0.1,0.4,0.2,0.6,0.2c0.2,0.1,0.5,0.1,0.8,0.2
			c0.5,0.1,1,0.3,1.4,0.4s0.7,0.4,0.9,0.6c0.2,0.2,0.4,0.5,0.5,0.7c0.1,0.3,0.1,0.6,0.1,0.9v0.2c0,0.5-0.1,0.9-0.3,1.3
			s-0.4,0.6-0.7,0.8c-0.3,0.2-0.7,0.4-1.1,0.4c-0.4,0.1-0.8,0.1-1.3,0.1c-0.3,0-0.7,0-1-0.1c-0.3-0.1-0.6-0.1-0.9-0.2
			s-0.5-0.2-0.8-0.3c-0.2-0.1-0.4-0.3-0.6-0.4l0.8-1.3c0.3,0.2,0.6,0.4,1.1,0.6C58.2,45.7,58.7,45.8,59.2,45.8z"/>
	</g>
</g>
</svg>
