<svg xmlns="http://www.w3.org/2000/svg" xmlns:xlink="http://www.w3.org/1999/xlink" width="96" height="97" viewBox="0 0 96 97">
    <defs>
        <filter id="ksnebuyaka" width="159.2%" height="158%" x="-29.6%" y="-26.2%" filterUnits="objectBoundingBox">
            <feOffset dy="2" in="SourceAlpha" result="shadowOffsetOuter1"/>
            <feGaussianBlur in="shadowOffsetOuter1" result="shadowBlurOuter1" stdDeviation="6.5"/>
            <feColorMatrix in="shadowBlurOuter1" values="0 0 0 0 0.768627451 0 0 0 0 0.866666667 0 0 0 0 1 0 0 0 0.38 0"/>
        </filter>
        <filter id="tukeijf2zc">
            <feColorMatrix in="SourceGraphic" values="0 0 0 0 1.000000 0 0 0 0 1.000000 0 0 0 0 1.000000 0 0 0 1.000000 0"/>
        </filter>
        <path id="r69zauzpqd" d="M0.048 0.074L32.258 0.074 32.258 25.485 0.048 25.485z"/>
        <path id="l7h53uo5df" d="M0 0.104L32.21 0.104 32.21 25.515 0 25.515z"/>
        <rect id="pbw05vhsrb" width="69.3" height="70.7" x="0" y="0" rx="14"/>
    </defs>
    <g fill="none" fill-rule="evenodd">
        <g>
            <g>
                <g transform="translate(-1338 -532) translate(1351 543)">
                    <use fill="#000" filter="url(#ksnebuyaka)" xlink:href="#pbw05vhsrb"/>
                    <use fill="#14B7CC" xlink:href="#pbw05vhsrb"/>
                </g>
                <g filter="url(#tukeijf2zc)" transform="translate(-1338 -532) translate(1351 543)">
                    <g>
                        <path fill="#344154" d="M15.063 14.638h-.84v3.822c0 1.092.888 1.98 1.98 1.98H30.53v-.84c0-.464.376-.84.84-.84H16.202c-.165 0-.299-.134-.299-.3v-4.662c0 .464-.376.84-.84.84" transform="translate(11.2 16.1)"/>
                        <g transform="translate(11.2 16.1) translate(14.175 .04)">
                            <mask id="uf5rl4rt0e" fill="#fff">
                                <use xlink:href="#r69zauzpqd"/>
                            </mask>
                            <path fill="#344154" d="M30.279.074H2.027C.936.074.048.962.048 2.054v10.864h.84c.464 0 .84.376.84.84V2.053c0-.165.134-.3.3-.3h28.251c.165 0 .3.135.3.3v19.37l-2.119-2.121c-.368-.37-.879-.581-1.401-.581h-9.864c.464 0 .84.375.84.84v.84h9.024c.079 0 .156.031.212.087l4.987 4.997V2.053c0-1.091-.887-1.98-1.979-1.98" mask="url(#uf5rl4rt0e)"/>
                        </g>
                        <g transform="translate(11.2 16.1) translate(0 12.854)">
                            <mask id="u3uxywlrdg" fill="#fff">
                                <use xlink:href="#l7h53uo5df"/>
                            </mask>
                            <path fill="#344154" d="M30.53 18.451c0 .165-.134.3-.3.3H5.2c-.53 0-1.027.206-1.401.58L1.68 21.455V2.084c0-.166.135-.3.3-.3h12.243V.104H1.98C.888.104 0 .992 0 2.084v23.431l4.988-4.997c.056-.056.132-.088.211-.088h25.032c1.091 0 1.979-.887 1.979-1.979V7.586h-1.68v10.865z" mask="url(#u3uxywlrdg)"/>
                        </g>
                        <path fill="#344154" d="M31.37 18.76c-.464 0-.84.376-.84.84v.84h1.68v-.84c0-.464-.376-.84-.84-.84M15.063 14.638c.464 0 .84-.376.84-.84 0-.465-.376-.84-.84-.84h-.84v1.68h.84zM25.478 24.186H13.9c-.374 0-.68-.307-.68-.681 0-.374.306-.68.68-.68h11.58c.374 0 .68.306.68.68 0 .374-.306.68-.68.68M25.478 27.669H6.428c-.375 0-.681-.307-.681-.681 0-.374.306-.68.68-.68h19.051c.375 0 .681.306.681.68 0 .374-.306.68-.68.68M30.966 10.887h-11.58c-.374 0-.68-.307-.68-.681 0-.374.306-.68.68-.68h11.58c.374 0 .68.306.68.68 0 .374-.306.68-.68.68M36.17 14.514H19.387c-.375 0-.68-.306-.68-.68 0-.375.305-.681.68-.681H36.17c.374 0 .68.306.68.68 0 .375-.306.68-.68.68M38.438 7.26H19.387c-.375 0-.68-.307-.68-.681 0-.375.305-.68.68-.68h19.05c.375 0 .681.305.681.68 0 .374-.306.68-.68.68" transform="translate(11.2 16.1)"/>
                    </g>
                </g>
            </g>
        </g>
    </g>
</svg>
