<?xml version="1.0" encoding="utf-8"?>
<!-- Generator: Adobe Illustrator 24.3.0, SVG Export Plug-In . SVG Version: 6.00 Build 0)  -->
<svg version="1.1" id="레이어_1" xmlns="http://www.w3.org/2000/svg" xmlns:xlink="http://www.w3.org/1999/xlink" x="0px"
	 y="0px" viewBox="0 0 344 43" style="enable-background:new 0 0 344 43;" xml:space="preserve">
<style type="text/css">
	.st0{enable-background:new    ;}
	.st1{fill:#161A29;}
</style>
<g class="st0">
	<path class="st1" d="M9,14.3c-1.1,1.3-2.2,2.8-3.2,4.5c-1,1.7-1.9,3.5-2.4,5.5c0,0.1-0.1,0.3-0.2,0.4C3,24.8,2.9,24.9,2.8,25
		c-0.1,0.1-0.3,0.2-0.5,0.2c-0.2,0-0.4,0-0.6,0C1.2,25.1,1,24.8,1,24.5s0-0.6,0.1-0.9c0.2-0.7,0.5-1.5,0.9-2.5
		c0.4-0.9,0.9-1.9,1.4-2.9c0.5-1,1.1-2,1.8-2.9C5.7,14.4,6.3,13.7,7,13c0.2-0.1,0.4-0.3,0.8-0.6c0.3-0.2,0.7-0.3,1-0.1
		c0.3,0.1,0.5,0.4,0.6,0.8C9.4,13.5,9.3,13.9,9,14.3z M8.9,20.3c0.3,1,0.7,2.1,1.2,3.3c0.5,1.1,1,2.1,1.6,3c0.2,0.4,0.3,0.7,0.2,1
		c0,0.1-0.1,0.2-0.2,0.4c-0.3,0.1-0.7,0.2-1,0.1c-0.3-0.1-0.6-0.3-0.8-0.5c-0.3-0.4-0.7-0.8-1-1.3c-0.3-0.5-0.6-1-0.9-1.6
		c-0.3-0.5-0.5-1.1-0.7-1.6c-0.2-0.5-0.4-1.1-0.5-1.6c0-0.1-0.1-0.3-0.1-0.5s-0.1-0.4-0.1-0.6c0-0.2,0-0.4,0.1-0.5
		c0.1-0.2,0.2-0.3,0.4-0.4c0.1,0,0.2,0,0.4-0.1c0.2,0,0.3,0,0.5,0c0.2,0,0.4,0.1,0.5,0.3C8.7,19.8,8.8,20,8.9,20.3z M23,26.6
		c0,0.3-0.1,0.5-0.2,0.8c-0.1,0.2-0.4,0.4-0.9,0.4c-0.2,0-0.4-0.1-0.5-0.2s-0.3-0.4-0.4-0.6c-0.1-0.2-0.2-0.5-0.3-0.8
		c-0.1-0.3-0.1-0.6-0.1-0.8c0-0.3-0.1-0.8-0.1-1.3c0-0.5-0.1-1.1-0.1-1.6c0-0.6-0.1-1.1-0.1-1.6c0-0.5,0-1,0-1.4
		c-0.7,0.3-1.4,0.6-2.1,0.9c-0.7,0.3-1.3,0.6-1.8,0.9c-0.2,0.1-0.4,0.2-0.7,0.2c-0.2,0-0.5,0-0.7-0.1c0,0.3,0.1,0.7,0.2,1
		c0.1,0.3,0.1,0.7,0.2,1c0.1,0.4,0.1,0.8,0,1.2c0,0.4-0.2,0.6-0.6,0.7c-0.3,0.1-0.7-0.1-0.9-0.6c-0.3-0.5-0.5-1-0.6-1.6
		c-0.1-0.5-0.2-1-0.2-1.5c-0.1-0.6-0.1-1.1-0.1-1.7c0-0.6,0-1.1,0-1.7c0-0.6,0.1-1.1,0.1-1.6c0-0.5,0.2-0.9,0.4-1.3s0.5-0.6,0.9-0.6
		c0.2,0,0.3,0.1,0.4,0.2c0.1,0.1,0.2,0.3,0.3,0.5c0,0.2,0.1,0.4,0.1,0.6c0,0.2,0,0.4,0,0.6c-0.2,1-0.2,2.1-0.2,3.1
		c0.4-0.3,0.8-0.6,1.3-0.8s1-0.5,1.5-0.7c0.5-0.2,1-0.4,1.4-0.6c0.4-0.2,0.8-0.3,1.1-0.4c0-0.4,0.1-0.7,0.1-1c0-0.2,0.1-0.6,0.2-1
		c0.1-0.4,0.3-0.8,0.5-1.2c0.2-0.4,0.5-0.5,1-0.6c0.3,0,0.5,0.1,0.6,0.2c0.1,0.1,0.2,0.3,0.3,0.4c0,0.2,0.1,0.4,0,0.6
		c0,0.2,0,0.4-0.1,0.6c-0.2,1.7-0.3,3.5-0.3,5.3C22.6,22.3,22.8,24.4,23,26.6z"/>
	<path class="st1" d="M31.3,13.8c-0.2,0.4-0.4,0.8-0.7,1.3c-0.3,0.5-0.6,1-0.9,1.4c0.2,0,0.5-0.1,0.8-0.1c0.3,0,0.6-0.1,0.9-0.1
		c0.7,0,1.2,0.1,1.3,0.5c0.2,0.4,0.1,0.9-0.1,1.4c-0.3,0.6-0.6,1.2-1.1,1.8c-0.4,0.6-0.8,1.3-1.1,2.1c0.3,0,0.7-0.1,1.1-0.1
		s0.8,0,1.1,0c0.7,0,1.2,0.3,1.5,0.8c0.3,0.5,0.4,1,0.2,1.7c-0.2,0.9-0.6,1.7-1.1,2.4s-1,1.4-1.6,1.9c0.8,0,1.6-0.1,2.3-0.1
		c0.7,0,1.4-0.1,2-0.2s1.3-0.2,1.9-0.3c0.6-0.1,1.3-0.2,2.1-0.3c0.5,0,0.8,0,1,0.1c0.1,0.1,0.3,0.3,0.3,0.5c0,0.4-0.1,0.7-0.3,1
		c-0.2,0.2-0.6,0.4-1,0.5c-3.3,0.9-6.6,1.3-10.1,1.3c-0.6,0-1.1-0.2-1.3-0.5c-0.3-0.3-0.4-0.6-0.3-0.9c0-0.2,0.1-0.4,0.2-0.6
		c0.1-0.2,0.3-0.3,0.5-0.5c0.3-0.2,0.6-0.5,0.9-0.9c0.3-0.3,0.7-0.7,1-1.1c0.3-0.4,0.6-0.9,0.9-1.3c0.3-0.5,0.4-0.9,0.5-1.3
		c-0.4,0-0.9,0.1-1.5,0.3c-0.7,0.1-1.3,0.1-1.8-0.1c-0.3-0.1-0.5-0.3-0.6-0.7C28,23.4,28,23,28.1,22.6c0.1-0.6,0.4-1.3,0.8-2
		c0.4-0.8,0.8-1.4,1.3-2c-0.3,0-0.7,0.1-1.1,0.2c-0.4,0.1-0.8,0.2-1.1,0.3c-0.4,0.1-0.7,0-0.9-0.1c-0.3-0.1-0.5-0.3-0.6-0.6
		c-0.2-0.5-0.2-1,0.1-1.4c0.6-0.8,1-1.5,1.4-2.1c0.4-0.6,0.7-1.2,1-1.8c-0.3-0.1-0.7-0.2-1.3-0.2c-0.5,0-1,0-1.4,0
		c-0.2,0-0.4-0.1-0.6-0.3c-0.2-0.2-0.3-0.4-0.4-0.6c0-0.3,0.1-0.5,0.3-0.7c0.2-0.2,0.5-0.4,0.8-0.4c0.5,0,1,0,1.6,0
		c0.6,0,1.2,0.2,1.8,0.4c0.7,0.3,1.2,0.6,1.4,1.1C31.6,12.8,31.6,13.3,31.3,13.8z"/>
	<path class="st1" d="M56.8,19.8c0,0.1-0.1,0.3-0.3,0.6c-0.2,0.3-0.4,0.5-0.8,0.5c-0.3,0-0.6,0.1-0.9,0.2s-0.6,0.1-1,0.2
		c-0.3,1.1-0.5,2.2-0.6,3.4c-0.1,1.2-0.3,2.3-0.4,3.4c0,0.5-0.2,0.9-0.4,1.2c-0.2,0.3-0.5,0.5-0.9,0.4c-0.4,0-0.7-0.2-0.8-0.6
		c-0.1-0.3-0.2-0.7-0.2-1c0-0.4,0-0.9,0.1-1.5c0-0.6,0.1-1.1,0.2-1.7c0.1-0.6,0.2-1.2,0.2-1.7c0.1-0.6,0.2-1.1,0.3-1.5
		c-1.4,0.2-2.7,0.5-4.1,0.8s-2.7,0.5-3.8,0.8c-0.6,0.1-1.1,0.1-1.5,0c-0.4-0.1-0.6-0.4-0.7-0.7c0-0.3,0.1-0.6,0.5-0.9
		c0.4-0.3,0.8-0.5,1.2-0.6c0.9-0.2,1.8-0.4,2.9-0.6c1-0.2,2.1-0.5,3.2-0.7c1.1-0.2,2.1-0.4,3.2-0.5c1.1-0.1,2.1-0.2,3.1-0.2
		c0.5,0,0.9,0.1,1.2,0.3C56.7,19.4,56.8,19.6,56.8,19.8z M48.1,27.9c0,0.2-0.1,0.5-0.1,0.9c0,0.3-0.1,0.7-0.1,1.1
		c0,0.4-0.1,0.7-0.1,1.1c0,0.3,0,0.7,0,0.9c0.9-0.1,1.7-0.3,2.4-0.5c0.7-0.2,1.5-0.4,2.2-0.6c0.7-0.2,1.5-0.4,2.2-0.7
		c0.8-0.3,1.6-0.5,2.6-0.9c0.4-0.1,0.7-0.2,0.9-0.1c0.2,0,0.3,0.2,0.3,0.5c0,0.5-0.1,0.8-0.4,1.1s-0.7,0.5-1.1,0.7
		c-0.5,0.3-1.1,0.6-1.9,0.9c-0.7,0.3-1.5,0.6-2.3,0.9c-0.8,0.3-1.6,0.5-2.5,0.7s-1.7,0.3-2.5,0.4c-0.5,0-0.9,0-1.2-0.1
		s-0.5-0.3-0.7-0.5c-0.2-0.2-0.3-0.4-0.4-0.6c-0.1-0.2-0.1-0.4-0.1-0.6c0-0.4,0-1,0-1.7c0-0.7,0.1-1.4,0.3-2
		c0.1-0.3,0.3-0.7,0.5-1.1c0.2-0.4,0.6-0.7,1-0.7C47.9,26.6,48.3,27,48.1,27.9z M51.2,9.1c0.3,0,0.5,0.2,0.7,0.4
		c0.2,0.2,0.4,0.5,0.5,0.9c0.1,0.3,0.1,0.7,0.1,1.1c0,0.4-0.1,0.8-0.3,1.2c-0.1,0.3-0.4,0.7-0.6,1c-0.3,0.4-0.6,0.7-0.9,1.1
		c-0.3,0.3-0.7,0.7-1.1,0.9c-0.4,0.3-0.8,0.5-1.2,0.6c-0.3,0.1-0.6,0.1-1,0.1c-0.3,0-0.6-0.1-0.9-0.3c-0.3-0.1-0.5-0.3-0.7-0.6
		c-0.2-0.2-0.3-0.5-0.4-0.9c0-0.3,0-0.7,0.1-1.3c0.1-0.5,0.2-1.1,0.4-1.6c0.2-0.6,0.4-1.1,0.7-1.6c0.3-0.5,0.6-0.9,0.9-1.3
		c0.2-0.2,0.4-0.4,0.6-0.5s0.5-0.2,0.8-0.2c0.3,0,0.5,0.1,0.6,0.4c0.1,0.2,0.2,0.5,0.2,0.8c0.3-0.1,0.6-0.2,0.8-0.2
		C50.7,9.1,50.9,9.1,51.2,9.1z M48,14c0.1,0,0.3-0.1,0.6-0.3c0.2-0.2,0.4-0.4,0.7-0.7c0.2-0.3,0.4-0.5,0.6-0.8
		c0.2-0.3,0.3-0.5,0.4-0.7c0.1-0.2,0.1-0.4,0-0.5c-0.1-0.1-0.2-0.3-0.4-0.4c-0.2-0.1-0.4-0.2-0.7-0.4c-0.1,0.2-0.3,0.5-0.4,0.9
		c-0.1,0.4-0.3,0.8-0.4,1.1c-0.1,0.4-0.2,0.7-0.2,1C48.1,13.7,48.1,13.9,48,14z"/>
	<path class="st1" d="M76,14.7c-0.4,0.4-0.9,0.9-1.4,1.5c-0.5,0.6-1,1.3-1.5,2s-0.9,1.5-1.4,2.3c-0.4,0.8-0.8,1.7-1,2.5
		c0,0.1-0.1,0.3-0.1,0.5c0,0.2-0.1,0.4-0.1,0.5c-0.1,0.2-0.2,0.3-0.4,0.4s-0.5,0-0.8-0.1c-0.5-0.2-0.8-0.4-0.8-0.8
		c-0.1-0.3-0.1-0.7,0-0.9c0.1-0.7,0.4-1.5,0.8-2.4c0.4-0.9,0.8-1.7,1.4-2.6c0.5-0.9,1.1-1.7,1.7-2.4c0.6-0.8,1.2-1.4,1.9-1.9
		c0.1-0.1,0.4-0.2,0.7-0.4c0.4-0.1,0.7-0.1,1.1,0c0.3,0.1,0.5,0.4,0.6,0.7S76.5,14.3,76,14.7z M76.4,19.6c0,0.5,0.1,1.2,0.2,1.8
		c0.1,0.7,0.2,1.4,0.4,2.1c0.1,0.7,0.3,1.4,0.4,2.1c0.1,0.7,0.3,1.3,0.4,1.8c0.1,0.3,0.1,0.6,0.1,0.9c-0.1,0.3-0.3,0.5-0.6,0.6
		c-0.3,0.1-0.6,0-0.8-0.2c-0.3-0.2-0.5-0.4-0.6-0.7c-0.2-0.5-0.4-1-0.6-1.7c-0.2-0.7-0.3-1.4-0.5-2.1c-0.1-0.7-0.3-1.4-0.4-2.1
		c-0.1-0.7-0.2-1.3-0.2-1.8c0-0.1,0-0.3,0-0.6c0-0.2,0-0.4,0.1-0.6c0-0.2,0.1-0.4,0.2-0.5s0.2-0.2,0.4-0.2c0.2,0,0.5,0,0.8,0.2
		C76,18.6,76.3,19,76.4,19.6z M84.1,28.2c-0.4-0.1-0.7-0.3-0.9-0.8c-0.2-0.5-0.3-1-0.4-1.5c-0.1-1-0.1-2-0.2-3.1
		c0-1.1-0.1-2.2-0.1-3.4c0-1.1,0-2.3,0.1-3.4c0-1.1,0.1-2.2,0.2-3.2c0-0.6,0.2-1,0.5-1.4c0.3-0.4,0.6-0.6,0.9-0.6
		c0.3,0,0.6,0.1,0.8,0.4c0.2,0.3,0.3,0.6,0.3,0.8c-0.2,2.4-0.3,4.9-0.2,7.5c0,2.6,0.1,5,0.2,7.3c0,0.5-0.1,0.9-0.3,1.1
		C84.7,28.1,84.4,28.2,84.1,28.2z"/>
	<path class="st1" d="M89.8,19.9c-0.1,0-0.3,0.1-0.6,0.1c-0.2,0-0.4,0-0.6-0.1s-0.4-0.1-0.5-0.3c-0.2-0.1-0.3-0.3-0.3-0.5
		c0-0.3,0.2-0.6,0.5-0.8c0.4-0.2,0.7-0.4,1-0.5c1-0.3,2.1-0.6,3.2-0.8c1.2-0.2,2.3-0.4,3.5-0.4c0.4,0,0.8,0.1,1.1,0.3
		s0.6,0.5,0.6,0.7c0.1,0.3,0,0.6-0.3,0.8c-0.3,0.2-0.6,0.3-0.9,0.3c-0.8,0.1-1.5,0.1-2.2,0.2c-0.1,0.6-0.2,1.1-0.4,1.7
		c-0.1,0.6-0.2,1.1-0.3,1.7c-0.1,0.6-0.1,1.1-0.1,1.6c0,0.5,0,0.9,0.1,1.3c0,0.2,0.1,0.4,0.2,0.6c0.1,0.1,0.3,0.1,0.6,0
		c0.9-0.3,1.7-0.9,2.6-1.5s1.7-1.3,2.5-2c0.2-0.2,0.4-0.3,0.5-0.3s0.2,0,0.3,0.1c0.1,0.1,0.1,0.3,0.1,0.6c0,0.3-0.1,0.7-0.3,1
		c-0.3,0.7-0.8,1.3-1.3,1.8c-0.5,0.5-1.1,1-1.7,1.4c-0.6,0.4-1.1,0.7-1.7,1s-0.9,0.4-1.2,0.4c-0.6,0.1-1.2,0-1.7-0.4
		c-0.6-0.4-0.9-0.9-1.1-1.5c-0.1-0.5-0.2-1-0.3-1.6s0-1.2,0-1.8c0-0.6,0.1-1.2,0.2-1.9c0.1-0.6,0.2-1.2,0.4-1.8
		c-0.3,0-0.7,0.1-1,0.2C90.5,19.7,90.1,19.8,89.8,19.9z M104.8,27.1c-0.2,0-0.4-0.1-0.6-0.2c-0.2-0.1-0.4-0.3-0.5-0.5
		c-0.1-0.2-0.3-0.5-0.4-0.7c-0.1-0.3-0.2-0.5-0.2-0.8c-0.1-0.8-0.2-1.6-0.3-2.6s-0.1-2,0-3s0.1-2,0.1-3s0.2-1.9,0.3-2.8
		c0-0.4,0.1-0.7,0.3-0.9c0.1-0.2,0.4-0.2,0.9-0.2c0.4,0,0.7,0.2,0.9,0.5s0.3,0.7,0.3,1.3c-0.1,0.6-0.2,1.3-0.2,2.1
		c-0.1,0.8-0.1,1.5-0.1,2.3c0.4-0.1,0.8-0.3,1.3-0.5c0.5-0.2,1-0.4,1.5-0.6c0.5-0.2,1-0.4,1.6-0.6c0.5-0.2,1-0.4,1.4-0.6
		c0-0.3,0-0.6,0.1-0.9c0-0.3,0-0.6,0.1-0.9c0-0.4,0.2-0.7,0.4-0.9c0.2-0.3,0.5-0.4,0.8-0.3c0.3,0,0.6,0.2,0.8,0.6s0.3,0.9,0.3,1.6
		c-0.1,1.8-0.1,3.5-0.1,5.3c0,1.7,0.1,3.5,0.2,5.2c0,0.5,0,0.8-0.3,1c-0.2,0.2-0.4,0.3-0.5,0.3c-0.2,0-0.4-0.1-0.6-0.3
		c-0.2-0.2-0.3-0.4-0.4-0.7c-0.1-0.3-0.2-0.6-0.3-0.9s-0.1-0.6-0.1-0.8c-0.2-1.9-0.2-3.9-0.2-5.8c-0.7,0.3-1.5,0.6-2.3,1
		s-1.6,0.7-2.4,1.2c-0.3,0.2-0.6,0.2-1,0c0,0.9,0,1.7,0.1,2.6c0,0.8,0.1,1.7,0.2,2.4c0.1,0.6,0.1,0.9-0.1,1.1
		C105.2,27,105,27.1,104.8,27.1z"/>
	<path class="st1" d="M121.4,7.9c0.1,0.2,0.1,0.5,0.1,0.7s-0.2,0.5-0.3,0.7c-0.1,0.2-0.3,0.4-0.5,0.6c-0.2,0.2-0.3,0.3-0.4,0.4
		c0.3,0,0.6,0.1,1,0.2c0.4,0.1,0.6,0.3,0.8,0.5c0.3,0.6,0.3,1.3-0.2,2.1c-0.4,0.6-0.8,1.3-1.4,1.9s-0.9,1.3-1.2,2
		c1.1-0.3,2.2-0.5,3.4-0.8c1.2-0.3,2.4-0.5,3.7-0.6c0.2,0,0.4,0,0.5,0.1c0.1,0.1,0.2,0.2,0.2,0.3c0.1,0.3,0,0.6-0.2,0.9
		c-0.2,0.2-0.6,0.4-1,0.6c-1.1,0.3-2.2,0.6-3.2,0.9c-1,0.3-2.2,0.7-3.5,1.1c-0.7,0.1-1.3,0-1.8-0.2c-0.5-0.3-0.8-0.7-0.9-1.2
		c-0.1-0.3,0-0.7,0.3-1.2c0.2-0.5,0.5-1,0.9-1.6c0.3-0.5,0.7-1,1.1-1.5s0.6-0.8,0.8-1.1c-0.1,0-0.4,0-0.8,0.1s-0.7,0.1-0.9,0.1
		c-0.4,0-0.7,0-1.1-0.2c-0.3-0.2-0.4-0.5-0.4-0.9c0-0.2,0.2-0.5,0.4-0.7c0.3-0.2,0.5-0.4,0.8-0.6s0.6-0.4,0.9-0.6
		c0.3-0.2,0.5-0.4,0.6-0.7c0.2-0.3,0.1-0.6-0.2-0.8c-0.3-0.2-0.7-0.3-1-0.3c-0.3,0-0.7-0.1-1-0.2c-0.7-0.2-1-0.6-1-1.3
		c0-0.2,0.1-0.3,0.2-0.4c0.1-0.1,0.3-0.2,0.4-0.2s0.3,0,0.5,0c0.2,0,0.4,0,0.5,0.1c0.8,0.1,1.6,0.4,2.4,0.8
		C120.6,6.8,121.1,7.3,121.4,7.9z M129.6,21.1c0.1,0.2,0.2,0.4,0.1,0.5c-0.1,0.2-0.2,0.4-0.3,0.5s-0.4,0.3-0.6,0.4s-0.4,0.2-0.6,0.2
		c-0.7,0.1-1.3,0.1-2,0.2c-0.6,0.1-1.3,0.2-1.9,0.3s-1.4,0.3-2.2,0.5c-0.8,0.2-1.8,0.4-2.8,0.7c-0.6,0.2-1.1,0.2-1.5,0
		c-0.4-0.2-0.7-0.3-0.8-0.5c-0.1-0.2-0.1-0.3-0.1-0.5c0-0.2,0.1-0.3,0.1-0.5c0.1-0.1,0.2-0.3,0.3-0.4c0.1-0.1,0.2-0.2,0.3-0.2
		c1.5-0.4,3-0.8,4.5-1.2s3-0.6,4.4-0.6c0.2,0,0.5,0,0.9,0s0.6,0,0.9,0.1c0.3,0,0.6,0.1,0.8,0.2C129.4,20.9,129.6,21,129.6,21.1z
		 M127.5,28.1c-0.3,0.5-0.7,1-1.3,1.6c-0.5,0.6-1.1,1.1-1.6,1.5c0.3,0,0.6,0,0.9,0c0.3,0,0.7,0.1,1,0.1c0.3,0.1,0.6,0.2,0.8,0.4
		c0.2,0.2,0.3,0.4,0.3,0.7s-0.2,0.7-0.5,1.2c-0.3,0.5-0.7,1-1.1,1.4c-0.4,0.5-0.8,0.9-1.2,1.3s-0.7,0.7-0.8,0.9c1-0.2,2-0.4,3.1-0.7
		c1-0.3,2.2-0.6,3.5-1c0.9-0.3,1.5-0.3,2,0c0.2,0.2,0.4,0.4,0.3,0.6c0,0.2-0.1,0.4-0.3,0.5c-0.2,0.2-0.4,0.3-0.6,0.4
		c-0.2,0.1-0.4,0.2-0.5,0.3c-0.7,0.3-1.4,0.6-2.2,0.9c-0.8,0.3-1.6,0.5-2.4,0.7c-0.8,0.2-1.6,0.4-2.3,0.5s-1.4,0.2-2,0.3
		c-0.3,0-0.7,0-1-0.1c-0.3-0.1-0.6-0.3-0.9-0.6c-0.1-0.2-0.2-0.4-0.2-0.6c0-0.2,0.1-0.5,0.3-0.7c0.7-0.7,1.3-1.5,1.9-2.3
		c0.6-0.8,1.2-1.6,1.7-2.3c-0.3,0-0.6,0.1-1,0.1c-0.4,0-0.7,0.1-1,0.1c-1.1,0.2-1.7,0-1.8-0.6c-0.1-0.3,0-0.6,0.1-0.9
		c0.1-0.3,0.3-0.5,0.5-0.6c0.8-0.6,1.4-1.2,2-1.7c0.5-0.5,1.1-1.1,1.6-1.6c-0.4,0-0.9,0.1-1.5,0.4c-0.6,0.2-1.1,0.4-1.5,0.5
		c-0.5,0.2-0.8,0.2-1,0c-0.2-0.2-0.3-0.4-0.3-0.6c0-0.2,0.1-0.5,0.2-0.7c0.1-0.2,0.3-0.4,0.5-0.6c0.9-0.6,1.8-0.9,2.7-1.1
		c1-0.1,1.8-0.2,2.6,0c0.6,0.1,1,0.4,1.2,0.8C127.8,27.1,127.7,27.6,127.5,28.1z"/>
	<path class="st1" d="M152.3,21.9c-0.6,1.5-1.1,2.9-1.7,4.2s-1.1,2.7-1.6,4.3c-0.1,0.5-0.4,0.9-0.7,1c-0.3,0.1-0.6,0.2-0.8,0.1
		c-0.2-0.1-0.4-0.2-0.5-0.4c-0.1-0.2-0.2-0.4-0.2-0.7c0-0.3,0-0.5,0-0.8c0-0.3,0.1-0.6,0.1-0.8c0.3-1,0.6-2.1,1-3.3
		c0.4-1.1,0.9-2.3,1.4-3.4c-0.9,0.2-1.9,0.5-3,0.9c-1.1,0.3-2.1,0.7-3,1c-0.5,0.2-0.9,0.2-1.4,0.1c-0.4-0.1-0.6-0.4-0.7-0.9
		c0-0.4,0.1-0.7,0.4-0.9c0.3-0.2,0.9-0.5,1.7-0.8c0.3-0.1,0.7-0.2,1.2-0.4c0.5-0.2,1.1-0.4,1.8-0.6c0.6-0.2,1.3-0.4,2-0.5
		s1.3-0.3,1.8-0.4c1-0.2,1.7,0,2,0.4C152.7,20.4,152.6,21,152.3,21.9z M147.3,12.3c-0.4,0.3-0.8,0.6-1.3,1c-0.4,0.4-0.7,0.9-0.8,1.3
		c-0.1,0.4,0,0.7,0.1,0.9c0.2,0.2,0.5,0.2,0.9,0.1c0.3-0.1,0.7-0.2,0.9-0.4c0.3-0.2,0.5-0.4,0.7-0.6c0.2-0.3,0.4-0.5,0.5-0.8
		c0.1-0.2,0.1-0.5,0.1-0.7s0-0.4,0-0.5c0-0.2,0-0.3,0.1-0.4c0.2-0.2,0.5-0.2,0.9,0.1c0.6,0.5,0.9,1.1,0.9,1.8s-0.2,1.3-0.6,1.8
		c-0.4,0.6-1,1.1-1.8,1.5c-0.8,0.4-1.5,0.6-2.2,0.6c-0.5,0-0.9-0.1-1.2-0.2c-0.4-0.1-0.7-0.3-0.9-0.6c-0.2-0.2-0.4-0.5-0.6-0.8
		c-0.1-0.3-0.2-0.6-0.3-0.9c-0.1-1,0.1-1.9,0.6-2.8c0.5-0.9,1.4-1.6,2.6-2.2c0.1-0.1,0.2-0.1,0.4-0.1c0.1,0,0.3,0,0.4,0
		c0.1,0,0.3,0.1,0.4,0.2c0.4,0.3,0.6,0.6,0.5,1S147.5,12.1,147.3,12.3z M155.8,12.5c0-0.9,0.3-1.3,0.9-1.2c0.2,0,0.5,0.2,0.8,0.4
		c0.3,0.2,0.5,0.5,0.6,0.9c0.1,1.2,0.2,2.6,0.2,4.1c0,1.5,0.1,3,0.1,4.4c0,1.5,0,2.9-0.1,4.2c0,1.3-0.1,2.4-0.2,3.2
		c0,0.2-0.1,0.5-0.4,0.7c-0.2,0.2-0.5,0.4-0.7,0.4c-0.2,0-0.4-0.1-0.5-0.2c-0.2-0.1-0.3-0.3-0.4-0.5c-0.1-0.2-0.2-0.4-0.3-0.6
		s-0.1-0.4-0.1-0.5c0-1,0-2.2,0.1-3.5c0-1.3,0-2.7,0-4.1s0-2.8,0-4.1S155.8,13.6,155.8,12.5z"/>
	<path class="st1" d="M166.4,25.9c0.2,0,0.5-0.1,0.7-0.2c0.2-0.1,0.4-0.3,0.5-0.5c0.1-0.2,0.3-0.4,0.3-0.6c0.1-0.2,0.1-0.4,0-0.5
		c-0.1-0.4-0.2-0.8-0.3-1.1c0-0.3,0-0.6,0.3-0.8c0.2-0.2,0.5-0.2,0.8,0c0.3,0.2,0.5,0.4,0.6,0.6c0.3,0.6,0.5,1.2,0.5,1.8
		c0,0.5-0.1,1-0.4,1.5c-0.2,0.4-0.5,0.8-0.9,1.2s-0.8,0.6-1.1,0.8c-0.4,0.2-0.8,0.3-1.2,0.4s-0.8,0.1-1.1,0s-0.6-0.3-0.8-0.6
		c-0.2-0.3-0.3-0.8-0.3-1.3c0-1.4,0.3-2.8,0.8-4.3c0.6-1.4,1.2-2.8,2-3.9c-0.7,0-1.4,0-2.1,0.1c-0.6,0.1-1.3,0.2-2,0.3
		c-0.6,0.1-1.1-0.1-1.5-0.7c-0.2-0.4-0.1-0.7,0.2-1c0.1-0.1,0.3-0.2,0.8-0.3c0.5-0.1,1-0.2,1.6-0.3c0.6-0.1,1.2-0.2,1.9-0.2
		s1.2,0,1.6,0.1c-0.3-0.8-0.8-1.7-1.3-2.5c-0.5-0.8-1-1.7-1.5-2.5c-0.1-0.2-0.1-0.4,0-0.6c0.1-0.2,0.2-0.4,0.4-0.5
		c0.1,0,0.2-0.1,0.4-0.1c0.2,0,0.3,0,0.5,0.1c0.7,0.5,1.3,1.1,1.7,1.8c0.4,0.7,0.7,1.3,0.9,1.9s0.2,1.2,0.2,1.7
		c0,0.5-0.1,0.9-0.2,1.2c0.4,0.3,0.6,0.6,0.6,1.1c0,0.5-0.1,1-0.4,1.5c-0.5,1-1,2-1.5,3.1C166.9,23.6,166.6,24.8,166.4,25.9z
		 M175,25.4c-0.1,0.5-0.1,1.2-0.2,2c-0.1,0.8-0.1,1.7,0,2.6c1.1-0.2,2.2-0.5,3.3-0.9c1.1-0.4,2.2-0.7,3.2-1c0.2,0,0.4,0,0.6,0.1
		c0.3,0.1,0.5,0.2,0.6,0.4c0.1,0.2,0.2,0.4,0.1,0.6c-0.1,0.2-0.4,0.5-0.9,0.7c-0.5,0.3-1.1,0.5-1.7,0.8c-0.7,0.3-1.3,0.5-1.9,0.7
		c-0.6,0.2-1.2,0.4-1.8,0.6c-0.6,0.1-1,0.3-1.3,0.3c-0.9,0.2-1.6,0.2-2.1,0.1s-0.7-0.6-0.7-1.4c0-0.3,0-0.7,0-1.1
		c0-0.5,0-0.9,0.1-1.4s0.1-1,0.2-1.5c0.1-0.5,0.2-0.9,0.3-1.3c0.2-0.4,0.4-0.8,0.6-1c0.2-0.3,0.6-0.4,1-0.4c0.1,0,0.3,0.1,0.4,0.2
		S175,25,175,25.4z M176.7,23.8c-0.3-0.1-0.5-0.3-0.7-0.5c-0.2-0.2-0.3-0.5-0.3-0.6c-0.1-0.7-0.1-1.6-0.2-2.6s-0.1-2-0.1-3
		s0.1-2,0.1-2.9c0.1-0.9,0.2-1.7,0.4-2.3c0.1-0.3,0.2-0.6,0.4-0.8c0.1-0.2,0.3-0.3,0.5-0.3c0.2,0,0.5,0.2,0.8,0.5
		c0.3,0.3,0.5,0.6,0.4,1c-0.2,1.3-0.3,2.7-0.3,4.2c0.8-0.1,1.6-0.2,2.5-0.3c0.9,0,1.6,0.1,2.3,0.4c0.3,0.1,0.5,0.4,0.7,0.7
		c0.1,0.3,0.2,0.5,0.1,0.7c0,0.1-0.2,0.2-0.5,0.2s-0.5,0.1-0.9,0.1c-0.9,0-1.7,0-2.3,0.1c-0.7,0.1-1.3,0.2-1.9,0.4
		c0,0.7,0,1.4,0,2.1c0,0.7,0.1,1.3,0.1,1.9c0,0.3,0,0.5-0.2,0.8C177.5,23.8,177.2,23.9,176.7,23.8z"/>
	<path class="st1" d="M200.2,14.6c0,0.1,0,0.3,0,0.6c0,0.3-0.1,0.5-0.2,0.7c0.2,0,0.4-0.1,0.6-0.1s0.5,0,0.7,0.1
		c0.2,0.1,0.5,0.2,0.7,0.4c0.2,0.2,0.4,0.5,0.5,0.8c0.3,0.9,0.5,1.7,0.4,2.4c0,0.7-0.2,1.4-0.4,2.1c-0.1,0.4-0.4,1-0.7,1.5
		c-0.3,0.6-0.7,1.1-1.2,1.6s-1,0.8-1.5,1.1c-0.5,0.3-1.1,0.3-1.7,0.1c-0.4-0.1-0.7-0.3-1-0.5s-0.5-0.5-0.6-0.9
		c-0.2-0.3-0.3-0.6-0.4-0.9c-0.1-0.3-0.1-0.6-0.1-0.9c-0.1-1.8,0.2-3.4,0.9-4.8c0.7-1.5,1.5-2.8,2.6-4.1c0.1-0.2,0.3-0.3,0.5-0.3
		c0.2,0,0.3,0,0.5,0.1c0.1,0.1,0.3,0.2,0.4,0.4C200.1,14.3,200.2,14.5,200.2,14.6z M198.1,23.7c0.4-0.2,0.8-0.6,1.3-1.2
		c0.4-0.6,0.7-1.2,0.9-1.7c0.2-0.7,0.3-1.5,0.3-2.2c-0.1-0.8-0.3-1.5-0.8-2.1c-0.3,0.6-0.7,1.2-1,1.8c-0.3,0.7-0.5,1.3-0.7,2.1
		c-0.1,0.5-0.2,1.1-0.2,1.7C197.9,22.8,197.9,23.3,198.1,23.7z M208,25.7c-0.1,0.9-0.3,1.7-0.4,2.6c-0.1,0.8-0.1,1.7-0.1,2.5
		c1.2-0.3,2.4-0.7,3.4-1.2c1.1-0.4,2.1-1,3.2-1.6c0.4-0.2,0.7-0.4,1-0.6c0.3-0.1,0.5-0.1,0.6,0.2c0.1,0.3,0.1,0.8-0.2,1.3
		c-0.2,0.5-0.6,1-1.1,1.4c-0.8,0.5-1.8,1.1-3,1.7c-1.2,0.6-2.4,1-3.6,1.3c-0.1,0-0.4,0.1-0.7,0.1s-0.6,0-0.9-0.1
		c-0.3-0.1-0.6-0.3-0.8-0.6s-0.3-0.7-0.3-1.3c0-0.9,0.1-1.8,0.2-2.9s0.4-2,0.7-3c0.1-0.2,0.2-0.4,0.4-0.6c0.2-0.2,0.5-0.3,0.7-0.3
		c0.4,0,0.7,0.1,0.8,0.3C208,25.1,208,25.4,208,25.7z M210.8,25.2c-0.3-0.1-0.5-0.3-0.6-0.6c-0.1-0.2-0.2-0.5-0.3-0.7
		c-0.1-0.7-0.1-1.6-0.1-2.8c0-1.2,0-2.4,0.1-3.8s0.1-2.6,0.2-3.8c0.1-1.2,0.2-2.2,0.4-2.9c0.2-0.7,0.5-1,1-1c0.3,0,0.6,0.3,0.9,0.7
		c0.2,0.4,0.3,0.8,0.3,1.2c-0.1,0.8-0.2,1.8-0.3,2.9c-0.1,1.1-0.1,2.3-0.2,3.5c0,1.2-0.1,2.3-0.1,3.4c0,1.1,0,2,0,2.8
		c0,0.1-0.1,0.3-0.1,0.4c0,0.1-0.1,0.3-0.2,0.4C211.5,25.3,211.2,25.4,210.8,25.2z"/>
	<path class="st1" d="M220.9,23.2c0.8-0.1,1.5-0.2,2.2-0.3s1.4-0.2,2.1-0.3c0.7-0.1,1.4-0.2,2.1-0.4c0.7-0.1,1.4-0.3,2.2-0.4
		c0.1,0,0.3,0,0.4,0s0.2,0.2,0.3,0.3c0.1,0.3,0.1,0.5-0.1,0.8c-0.1,0.2-0.3,0.5-0.6,0.6c-0.2,0.2-0.5,0.3-0.7,0.5
		c-0.3,0.1-0.5,0.2-0.6,0.3c-0.7,0.2-1.6,0.4-2.5,0.6c-0.9,0.2-1.9,0.3-2.9,0.5c-1,0.1-2,0.2-2.9,0.3s-1.8,0.1-2.6,0.1
		c-0.4,0-0.8-0.1-1.1-0.4s-0.5-0.4-0.5-0.6c-0.1-0.4,0-0.7,0.2-0.9c0.2-0.2,0.5-0.4,0.9-0.4c0.1,0,0.4,0,0.9-0.1
		c0.5,0,0.8-0.1,1.2-0.1c0-0.7-0.1-1.4-0.2-2.1c-0.1-0.7-0.1-1.4-0.1-2.1s0-1.3,0-1.9c0-0.6,0.1-1.1,0.1-1.5c0-0.2,0.2-0.4,0.4-0.6
		c0.2-0.2,0.5-0.3,1-0.3c0.3,0,0.5,0.1,0.6,0.4c0.1,0.2,0.2,0.5,0.2,0.9c0,0.7,0,1.3,0,1.9s0,1.2,0,1.7s0,1.1,0.1,1.7
		C220.8,21.9,220.8,22.5,220.9,23.2z M225.4,16.5c0,0.4-0.2,0.7-0.4,0.9c-0.2,0.2-0.4,0.3-0.6,0.4c-0.2,0-0.4,0-0.7-0.1
		c-0.3-0.1-0.5-0.4-0.5-0.9c0-0.4,0-0.8-0.1-1.3c0-0.5,0-1-0.1-1.6c0-0.6-0.1-1.1-0.1-1.7s-0.1-1.1-0.1-1.6c-0.4,0-0.9,0.1-1.4,0.3
		c-0.5,0.1-1,0.3-1.5,0.4s-1,0.4-1.4,0.6c-0.5,0.2-0.9,0.4-1.2,0.6c-0.3,0.1-0.5,0.1-0.8,0c-0.3-0.1-0.5-0.3-0.6-0.5
		c-0.1-0.2-0.1-0.5-0.1-0.7c0.1-0.3,0.2-0.5,0.3-0.6c0.8-0.6,1.8-1.2,3-1.6c1.2-0.4,2.3-0.7,3.4-0.8s1.8,0,2.1,0.4s0.6,1,0.6,1.9
		c0,0.4,0,0.9,0,1.4c0,0.5,0,1.1,0,1.6c0,0.5,0,1.1,0,1.6C225.5,15.7,225.4,16.1,225.4,16.5z M226.9,30.2c0,0.6-0.1,1.2-0.3,1.7
		c-0.3,0.5-0.6,1-1.1,1.4c-0.4,0.4-0.9,0.7-1.5,1s-1,0.4-1.5,0.4c-0.8,0-1.4-0.2-1.7-0.7s-0.5-1.2-0.5-2.1c0-0.5,0.2-1.1,0.4-1.8
		c0.2-0.6,0.7-1.3,1.3-2c0.3-0.3,0.6-0.5,1.1-0.7s0.8-0.3,1.1-0.1c0.2,0.1,0.3,0.2,0.3,0.4c0,0.1,0,0.3,0,0.5c0.8,0,1.3,0.3,1.7,0.7
		C226.6,29.3,226.8,29.7,226.9,30.2z M222.6,32.7c0.3-0.1,0.7-0.3,1.1-0.5s0.7-0.6,1-1c0.1-0.1,0.2-0.3,0.2-0.5c0-0.2,0.1-0.4,0-0.5
		c0-0.2-0.1-0.4-0.2-0.6c-0.1-0.2-0.3-0.4-0.6-0.5c-0.2,0.2-0.4,0.5-0.5,0.8c-0.2,0.3-0.4,0.6-0.5,0.9c-0.2,0.3-0.3,0.6-0.4,0.9
		c-0.1,0.3-0.2,0.6-0.3,0.9c0,0.1,0,0.1,0.1,0.1C222.5,32.7,222.5,32.7,222.6,32.7z"/>
	<path class="st1" d="M241.7,14.1c0.1,0.3,0,0.7-0.1,1.1c-0.1,0.4-0.4,0.9-0.9,1.4c-0.7,0.9-1.5,2-2.2,3.3c-0.8,1.3-1.4,2.7-1.8,4.1
		c-0.3,0.8-0.7,1.1-1.4,0.9c-0.4-0.1-0.6-0.4-0.6-0.7c0-0.4,0-0.6,0-0.8c0-0.5,0.2-1.2,0.5-1.9s0.6-1.4,1-2.2
		c0.4-0.7,0.9-1.5,1.4-2.2c0.5-0.7,1-1.4,1.4-1.9c-0.6,0.1-1.1,0.3-1.6,0.5c-0.5,0.2-1,0.5-1.5,0.8c-0.5,0.3-0.9,0.6-1.3,0.9
		c-0.4,0.3-0.7,0.5-1,0.8c-0.1,0.1-0.3,0.1-0.7,0.1s-0.6-0.1-0.7-0.2c-0.1-0.1-0.2-0.3-0.3-0.6c-0.1-0.3,0-0.6,0.3-0.9
		c0.8-0.9,1.8-1.6,3.1-2.3s2.7-1.1,4.4-1.3c0.4,0,0.9,0,1.3,0.2C241.3,13.3,241.5,13.6,241.7,14.1z M243.3,27.6
		c0.1,0.3,0.2,0.6,0.1,0.9s-0.2,0.5-0.4,0.5c-0.3,0.1-0.5,0.1-0.8-0.1c-0.3-0.1-0.5-0.3-0.7-0.5c-0.3-0.4-0.6-0.9-0.8-1.5
		c-0.3-0.6-0.5-1.2-0.7-1.8s-0.4-1.3-0.5-1.9c-0.1-0.6-0.2-1.2-0.3-1.7c0-0.3,0-0.7,0.1-1c0.1-0.3,0.2-0.5,0.4-0.6
		c0.4-0.2,0.8-0.1,1.1,0.1s0.5,0.6,0.6,0.9c0.1,1.2,0.4,2.4,0.8,3.4C242.5,25.5,242.9,26.6,243.3,27.6z M247.6,14.2
		c0.1-0.6,0.2-1,0.4-1.4c0.2-0.4,0.5-0.6,0.9-0.6c0.4,0,0.8,0.1,1,0.4c0.2,0.2,0.3,0.6,0.2,1c-0.2,2.1-0.4,4.2-0.6,6.1
		c-0.2,1.9-0.2,3.8-0.2,5.8c0,0.7-0.1,1.1-0.3,1.3c-0.2,0.2-0.5,0.3-0.9,0.3c-0.2,0-0.4-0.1-0.5-0.3c-0.1-0.2-0.2-0.4-0.3-0.7
		c-0.1-0.3-0.2-0.6-0.2-0.9c0-0.3-0.1-0.6-0.1-0.9c0-1.8,0-3.5,0.1-5.1C247.2,17.3,247.4,15.7,247.6,14.2z"/>
	<path class="st1" d="M255.9,11.1c-0.2,0.8-0.4,1.7-0.6,2.7c-0.1,1-0.2,1.9,0,2.9c0.6,0.1,1.3,0.2,2,0.1c0.7,0,1.4-0.1,2.1-0.2
		s1.4-0.3,2.1-0.5c0.7-0.2,1.4-0.5,2-0.7c0.3-0.1,0.6-0.2,0.9-0.3c0.3-0.1,0.5,0,0.7,0.3c0.2,0.3,0.2,0.7,0.1,1
		c-0.1,0.3-0.4,0.6-0.9,0.9c-0.5,0.3-1.2,0.7-2,0.9c-0.8,0.3-1.6,0.5-2.4,0.7c-0.8,0.2-1.7,0.3-2.5,0.3c-0.8,0-1.5,0-2.2-0.1
		c-1.4-0.2-2.2-1.1-2.3-2.5c-0.1-1.1,0-2.2,0.2-3.4c0.2-1.1,0.5-2.2,0.8-3.1c0.1-0.3,0.3-0.5,0.4-0.7c0.2-0.2,0.4-0.2,0.6-0.1
		c0.3,0.1,0.6,0.4,0.8,0.8C255.9,10.4,256,10.7,255.9,11.1z M267.5,22.6c0,0.3-0.2,0.6-0.5,0.7c-0.3,0.1-0.6,0.2-1,0.2
		c-1.6,0-3.3,0-5,0.1c-1.7,0.1-3.3,0.1-4.8,0.2c-0.6,0-1.1-0.1-1.5-0.2c-0.4-0.2-0.7-0.5-0.7-0.9c0-0.3,0.2-0.6,0.6-0.7
		c0.4-0.1,0.8-0.2,1.2-0.3c1.6-0.2,3.3-0.3,5-0.3c1.7,0,3.3,0,4.9,0c0.1,0,0.3,0,0.5,0.1c0.2,0,0.4,0.1,0.6,0.2
		c0.2,0.1,0.4,0.2,0.5,0.4C267.4,22.2,267.5,22.4,267.5,22.6z M264.9,28c0.3,0.2,0.5,0.5,0.6,0.9c0.1,0.4,0.2,0.7,0.3,1.1
		s0,0.8-0.1,1.2c-0.1,0.4-0.3,0.7-0.5,1c-0.6,0.7-1.3,1.2-2.2,1.6s-1.8,0.4-2.6,0.3c-0.6-0.1-1-0.3-1.3-0.7
		c-0.3-0.4-0.5-0.8-0.6-1.3c-0.1-0.5-0.1-1,0-1.5c0.1-0.5,0.2-1,0.4-1.4c0.7-1.4,1.6-2.5,2.6-3.2c0.4-0.3,0.9-0.4,1.4-0.2
		c0,0,0.1,0.1,0.2,0.1c0.1,0.1,0.2,0.2,0.3,0.3c0.1,0.1,0.1,0.3,0.1,0.5c0,0.2-0.1,0.4-0.3,0.6c0.3,0,0.7,0.1,1,0.2
		C264.5,27.8,264.7,27.9,264.9,28z M260.9,31.9c0.3,0,0.6-0.1,0.9-0.2c0.3-0.1,0.6-0.3,0.9-0.5c0.3-0.2,0.5-0.5,0.7-0.7
		c0.2-0.3,0.3-0.5,0.3-0.8c0-0.3-0.2-0.6-0.4-0.8c-0.2-0.2-0.6-0.4-1-0.4c-0.5,0.7-0.9,1.3-1.1,1.9S260.9,31.5,260.9,31.9z"/>
	<path class="st1" d="M286.1,15.1c-0.5,0.8-1,1.7-1.5,2.5c-0.5,0.9-0.9,1.7-1.1,2.6c0.6-0.1,1.2-0.4,1.8-0.8
		c0.6-0.4,1.1-0.8,1.4-1.2c0.1-0.1,0.2-0.3,0.1-0.5c-0.1-0.2-0.1-0.3-0.2-0.4c-0.2-0.2-0.3-0.5-0.3-0.7s0.1-0.4,0.2-0.5
		c0.1-0.1,0.3-0.2,0.4-0.2c0.1,0,0.3,0,0.4,0.1c0.1,0,0.2,0.1,0.3,0.2c0.1,0.1,0.1,0.1,0.2,0.2c0.4,0.5,0.7,1,0.7,1.6
		s-0.2,1.1-0.5,1.5c-0.2,0.3-0.4,0.5-0.6,0.7c-0.2,0.2-0.4,0.4-0.7,0.7c0,0.8-0.1,1.8-0.2,3c-0.1,1.2-0.5,2.3-1,3.5
		c0.1,0,0.3-0.1,0.6-0.2s0.7-0.3,1.1-0.4c0.4-0.2,0.9-0.3,1.4-0.5c0.5-0.2,1-0.4,1.5-0.5c0.5-0.2,0.9-0.3,1.3-0.4
		c0.4-0.1,0.7-0.2,0.9-0.2c0.1,0,0.3,0,0.6,0c0.2,0,0.4,0.3,0.4,0.7c0,0.3-0.1,0.6-0.2,0.8c-0.1,0.2-0.3,0.4-0.5,0.4
		c-0.5,0.2-1.2,0.4-1.9,0.7c-0.8,0.3-1.5,0.6-2.3,0.9s-1.6,0.7-2.3,1c-0.7,0.3-1.4,0.7-1.9,0.9c-0.3,0.2-0.7,0.3-1.1,0.3
		c-0.4,0-0.7-0.1-0.9-0.4c-0.2-0.2-0.4-0.5-0.4-0.8s0.1-0.5,0.4-0.6c0.1-0.1,0.2-0.2,0.3-0.3c0.1-0.1,0.2-0.2,0.3-0.3
		c0.2-0.5,0.4-1,0.6-1.5c0.2-0.5,0.3-0.9,0.5-1.4c0.1-0.5,0.3-0.9,0.4-1.5s0.2-1.1,0.3-1.8c-0.3,0.1-0.5,0.2-0.8,0.3
		c-0.3,0.1-0.5,0.2-0.8,0.2c-0.3,0-0.5,0-0.8,0c-0.3-0.1-0.5-0.2-0.7-0.4c-0.2-0.2-0.4-0.5-0.5-0.8c-0.1-0.3-0.1-0.6-0.1-0.9
		c0-0.5,0.2-1.1,0.4-1.6c0.2-0.5,0.4-1.1,0.7-1.6c0.3-0.5,0.5-1,0.8-1.5c0.3-0.5,0.6-0.9,0.8-1.3c-0.5,0-1.1,0.1-1.7,0.4
		c-0.6,0.2-1.1,0.4-1.5,0.5c-0.3,0.1-0.6,0.1-0.9,0.1c-0.3-0.1-0.5-0.2-0.6-0.5c-0.1-0.2-0.2-0.5-0.1-0.9c0.1-0.3,0.3-0.6,0.6-0.7
		c0.4-0.2,0.9-0.4,1.4-0.6c0.5-0.2,1.1-0.3,1.7-0.4c0.6-0.1,1.2-0.2,1.7-0.2s1.1,0.1,1.6,0.2c0.5,0.2,0.7,0.5,0.7,0.9
		C286.5,14.2,286.3,14.6,286.1,15.1z M283.1,5.8c0.5,0.7,0.9,1.4,1.2,2c0.3,0.6,0.6,1.3,1,2c0.1,0.2,0.2,0.5,0.2,0.8
		s-0.1,0.5-0.4,0.7c-0.3,0.1-0.5,0.1-0.8,0.1c-0.3-0.1-0.5-0.2-0.6-0.4c-0.4-0.6-0.9-1.3-1.3-2c-0.4-0.7-0.9-1.4-1.5-2.2
		c-0.3-0.3-0.3-0.7-0.1-1c0.2-0.3,0.4-0.5,0.6-0.6c0.4-0.1,0.8-0.1,1.1,0.1C282.7,5.4,282.9,5.6,283.1,5.8z M296.2,30.5
		c-0.4,0.1-0.7,0-1-0.3c-0.3-0.3-0.5-0.6-0.6-1.1c-0.2-1-0.3-2.2-0.4-3.6c-0.1-1.4-0.1-2.9-0.1-4.4s0-3,0.1-4.4
		c0-1.4,0.1-2.5,0.2-3.4c0-0.4,0.2-0.7,0.4-0.9c0.2-0.2,0.4-0.3,0.6-0.3c0.3,0,0.6,0,0.9,0.3c0.2,0.2,0.4,0.5,0.3,0.9
		c-0.1,1.1-0.1,2.3-0.2,3.6s0,2.7,0,4c0,1.3,0,2.7,0.1,4c0.1,1.3,0.1,2.5,0.2,3.6c0,0.5,0,0.9,0,1.3
		C296.7,30.2,296.5,30.4,296.2,30.5z"/>
	<path class="st1" d="M310.3,23.6c0.2,0,0.4,0,0.6-0.1c0.2,0,0.4,0,0.6,0c0.2,0,0.3,0.1,0.4,0.2c0.1,0.1,0.2,0.2,0.2,0.4
		c0,0.4-0.2,0.7-0.6,1c-0.3,0.3-0.8,0.5-1.3,0.6s-1.2,0.3-1.9,0.5c-0.7,0.2-1.4,0.4-2.2,0.6c-0.8,0.2-1.5,0.4-2.3,0.7
		c-0.8,0.2-1.4,0.4-2.1,0.7c-0.4,0.2-0.9,0.2-1.4,0.2c-0.5-0.1-0.7-0.3-0.8-0.6c-0.1-0.2,0-0.5,0.3-0.8c0.2-0.3,0.8-0.7,1.6-1
		c0.5-0.2,1.2-0.4,2-0.7c0.9-0.3,1.7-0.5,2.6-0.7c0.9-0.2,1.7-0.4,2.5-0.6C309.4,23.8,309.9,23.7,310.3,23.6z M306.6,15.5
		c0.4,0.1,0.6,0.4,0.8,0.7c0.2,0.3,0.3,0.7,0.4,1.1c0,0.4,0,0.8,0,1.1c0,0.4-0.1,0.7-0.2,0.9c-0.3,0.8-0.9,1.6-1.7,2.2
		s-1.7,0.9-2.7,0.9c-0.6,0-1.1-0.1-1.5-0.4c-0.4-0.2-0.7-0.5-1-0.9c-0.2-0.4-0.4-0.8-0.5-1.2c-0.1-0.4-0.1-0.9,0-1.3
		c0.2-0.9,0.6-1.6,1.1-2.2c0.6-0.6,1.1-1.2,1.7-1.6c0.4-0.3,0.7-0.5,1-0.4s0.5,0.2,0.6,0.4c0.2,0.3,0.3,0.6,0.3,1
		c0.2-0.1,0.5-0.1,0.8-0.2C306,15.3,306.3,15.4,306.6,15.5z M303.1,18.1c-0.3,0.5-0.4,1.1-0.3,1.7c0.5,0,1.1-0.2,1.5-0.6
		c0.5-0.4,0.9-0.8,1.1-1.2c0.2-0.3,0.3-0.6,0.4-0.9c0-0.3-0.1-0.5-0.4-0.6c-0.4,0-0.8,0-1.1,0.2l-0.1,0
		C303.8,17.2,303.4,17.6,303.1,18.1z M315.5,26.8c0,0.3-0.1,0.5-0.3,0.6c-0.2,0.1-0.4,0.2-0.6,0.1c-0.2,0-0.4-0.2-0.6-0.3
		c-0.2-0.2-0.3-0.4-0.4-0.6c-0.1-0.2-0.2-0.4-0.3-0.7c-0.1-0.2-0.1-0.4-0.1-0.6c-0.1-1.8-0.1-3.6,0-5.4c0.1-1.9,0.2-3.6,0.3-5.3
		c0-0.3,0.2-0.6,0.5-0.8s0.6-0.2,0.9-0.1c0.2,0.1,0.5,0.3,0.7,0.5c0.2,0.2,0.3,0.5,0.3,0.9c-0.2,1.9-0.3,3.8-0.4,5.8
		S315.5,24.9,315.5,26.8z"/>
	<path class="st1" d="M330.7,23.7c0.6,0,1.1,0.1,1.6,0.2c0.5,0.2,0.7,0.4,0.7,0.5c0,0.3-0.1,0.6-0.3,0.8c-0.2,0.2-0.6,0.4-1.1,0.4
		c-0.5,0-1.3,0.2-2.2,0.4c-1,0.2-2,0.4-3,0.6c-1,0.2-2,0.4-2.9,0.7c-0.9,0.2-1.6,0.4-2,0.5c-0.2,0-0.4,0.1-0.6,0.1s-0.5,0-0.7-0.1
		s-0.4-0.2-0.5-0.3s-0.2-0.3-0.2-0.6c0-0.5,0.3-0.9,0.9-1.1c0.3-0.1,0.6-0.2,1-0.3c0.4-0.1,0.8-0.2,1.3-0.3c0.2-1,0.5-2,0.7-2.8
		c0.3-0.9,0.6-1.8,1-2.7c-0.4,0-0.8,0.1-1.1,0.2c-0.4,0.1-0.8,0.2-1.3,0.3c-0.7,0.2-1.3,0.2-1.8,0c-0.5-0.2-0.7-0.6-0.8-1.1
		c0-0.3,0-0.7,0.2-1.1c0.2-0.4,0.4-0.8,0.6-1.2c0.2-0.4,0.5-0.8,0.8-1.1c0.3-0.4,0.5-0.7,0.7-0.9c-0.1,0-0.4,0-0.6,0.1
		c-0.3,0-0.5,0.1-0.7,0.1c-0.4,0-0.7,0-1-0.2c-0.3-0.2-0.4-0.5-0.4-0.9c0-0.2,0.1-0.4,0.2-0.5c0.1-0.2,0.3-0.3,0.4-0.5
		c0.3-0.2,0.6-0.5,0.9-0.7s0.7-0.5,1-0.8c0.3-0.3,0.6-0.5,0.8-0.7c0.2-0.2,0.4-0.4,0.5-0.6c0.2-0.3,0.1-0.6-0.2-0.8
		c-0.1-0.1-0.3-0.1-0.6-0.1s-0.5,0.1-0.7,0.2c-0.2,0.1-0.5,0.2-0.7,0.3c-0.2,0.1-0.4,0.2-0.5,0.2c-0.1,0.1-0.3,0.1-0.6,0.1
		c-0.2,0-0.4-0.2-0.6-0.5c-0.1-0.3-0.1-0.6,0-0.9c0.1-0.3,0.4-0.6,0.9-0.9c0.4-0.3,0.9-0.5,1.4-0.6c0.5-0.1,1.1-0.2,1.8-0.1
		c0.2,0,0.4,0.1,0.7,0.2c0.3,0.1,0.6,0.3,0.8,0.5c0.3,0.2,0.5,0.4,0.7,0.7c0.2,0.3,0.3,0.5,0.3,0.8c0,0.4-0.1,0.8-0.3,1.2
		c-0.2,0.4-0.5,0.8-0.8,1.1c-0.3,0.3-0.6,0.6-0.8,0.8c-0.3,0.2-0.5,0.4-0.6,0.5c0.5,0.1,1,0.4,1.3,0.8c0.1,0.2,0.2,0.5,0.2,0.8
		c0,0.3-0.1,0.6-0.3,0.9c-0.3,0.4-0.6,0.9-0.9,1.3c-0.3,0.4-0.6,0.9-0.8,1.4c1.2-0.2,2.2-0.3,3-0.4c0.8-0.1,1.5-0.1,2.2,0
		c0.5,0,0.9,0.2,1.2,0.5c0.3,0.3,0.4,0.5,0.4,0.9c0,0.2-0.1,0.4-0.4,0.5c-0.3,0.1-0.6,0.1-1,0.2c-0.2,0-0.4,0-0.6,0
		c-0.2,0-0.4,0-0.6,0c0.1,0.2,0.1,0.4,0.1,0.6c-0.3,0.8-0.5,1.5-0.7,2.3c-0.2,0.7-0.4,1.5-0.6,2.4c0.6-0.1,1.2-0.2,1.7-0.3
		c0.6-0.1,1.1-0.2,1.6-0.3c0.5-0.1,0.9-0.1,1.3-0.2C330.3,23.7,330.5,23.7,330.7,23.7z M330.4,36.6c0,0.2-0.2,0.4-0.5,0.7
		c-0.3,0.3-0.6,0.4-1,0.3c-0.2,0-0.4-0.2-0.6-0.4c-0.2-0.2-0.2-0.5-0.2-0.9c0.1-0.7,0.2-1.5,0.3-2.4c0.1-0.9,0.2-1.7,0.2-2.4
		c-0.6,0.1-1.2,0.4-1.9,0.6s-1.3,0.5-1.9,0.7c-0.3,0.1-0.6,0.1-0.9,0.1c-0.3-0.1-0.5-0.3-0.6-0.6c-0.1-0.3,0-0.5,0.1-0.8
		c0.1-0.3,0.3-0.5,0.5-0.6c0.2-0.1,0.5-0.3,1-0.5c0.4-0.2,0.9-0.4,1.3-0.6c0.5-0.2,0.9-0.3,1.4-0.5c0.4-0.1,0.8-0.2,1.1-0.2
		c0.8,0,1.4,0.1,1.8,0.5c0.4,0.4,0.6,1,0.5,1.7c0,0.4,0,0.8-0.1,1.3c0,0.5-0.1,1-0.1,1.5c0,0.5-0.1,1-0.2,1.4
		C330.6,35.9,330.5,36.3,330.4,36.6z"/>
	<path class="st1" d="M339.3,29.9c0,0.3,0,0.6-0.1,1.1c-0.1,0.5-0.2,0.9-0.3,1.3c-0.1,0.4-0.3,0.7-0.6,1c-0.2,0.2-0.5,0.3-0.9,0.1
		c-0.2-0.1-0.4-0.4-0.6-0.7c-0.2-0.3-0.3-0.7-0.3-1c0-0.6,0.2-1.2,0.4-1.7c0.2-0.6,0.5-0.9,0.8-1c0.1,0,0.3,0,0.5,0
		c0.2,0,0.4,0.1,0.5,0.2c0.1,0.1,0.3,0.2,0.4,0.4C339.3,29.7,339.3,29.8,339.3,29.9z M340.8,10c-0.2,1.1-0.5,2.2-0.7,3.2
		c-0.2,1.1-0.5,2.1-0.6,3.2c-0.2,1.1-0.3,2.1-0.4,3.2s-0.1,2.1,0,3.2c0,0.3,0,0.5-0.1,0.8c-0.1,0.2-0.3,0.4-0.5,0.5
		c-0.5,0.2-0.9,0.1-1.2-0.4c-0.3-1.3-0.5-2.5-0.5-3.7c0-1.2,0.1-2.5,0.3-3.7c0.2-1.2,0.4-2.4,0.7-3.6c0.3-1.2,0.6-2.4,0.9-3.6
		c0.1-0.5,0.3-0.8,0.6-0.8c0.3,0,0.5,0,0.8,0.1c0.4,0.1,0.6,0.4,0.7,0.7C340.8,9.4,340.9,9.7,340.8,10z"/>
</g>
</svg>
