<svg xmlns="http://www.w3.org/2000/svg" xmlns:xlink="http://www.w3.org/1999/xlink" width="65" height="55" viewBox="0 0 65 55">
    <defs>
        <path id="pgamlwqp6a" d="M0 0L64.399 0 64.399 54.94 0 54.94z"/>
    </defs>
    <g fill="none" fill-rule="evenodd" opacity=".1">
        <g>
            <g>
                <g>
                    <g transform="translate(-490 -2241) translate(-1 2079) translate(491 161) translate(0 1)">
                        <mask id="scj3b3f55b" fill="#fff">
                            <use xlink:href="#pgamlwqp6a"/>
                        </mask>
                        <path fill="#8280ED" d="M64.4 40.94c0 6.8-4.4 14-14.8 14-9.8 0-15.6-7.4-15.6-18.8 0-15 7.2-27.8 21.8-35.4 5.6-2.8 9.6 3 4.4 6.4-3.6 2.4-10 8.4-10.4 15.4-.2 2.8 1 5 2.8 5.2 8.4 1.8 11.8 6.8 11.8 13.2m-34 0c0 6.8-4.4 14-14.8 14-9.8 0-15.6-7.4-15.6-18.8 0-15 7.2-27.8 21.8-35.4 5.6-2.8 9.6 3 4.4 6.4-3.6 2.4-10 8.4-10.4 15.4-.2 2.8 1 5 2.8 5.2 8.4 1.8 11.8 6.8 11.8 13.2" mask="url(#scj3b3f55b)"/>
                    </g>
                </g>
            </g>
        </g>
    </g>
</svg>
