<?xml version="1.0" encoding="utf-8"?>
<!-- Generator: Adobe Illustrator 24.3.0, SVG Export Plug-In . SVG Version: 6.00 Build 0)  -->
<svg version="1.1" id="레이어_1" xmlns="http://www.w3.org/2000/svg" xmlns:xlink="http://www.w3.org/1999/xlink" x="0px"
	 y="0px" viewBox="0 0 410 345" style="enable-background:new 0 0 410 345;" xml:space="preserve">
<style type="text/css">
	.st0{fill-rule:evenodd;clip-rule:evenodd;fill:#FFFFFF;stroke:#FFFFFF;stroke-miterlimit:10;}
	.st1{fill:#FFFFFF;stroke:#FFFFFF;stroke-width:20;stroke-linejoin:round;}
	.st2{fill-rule:evenodd;clip-rule:evenodd;}
	.st3{fill-rule:evenodd;clip-rule:evenodd;fill:#FFFFFF;stroke:#8487F5;}
	.st4{enable-background:new    ;}
	.st5{fill:#394058;}
	.st6{fill-rule:evenodd;clip-rule:evenodd;fill:#FFFFFF;stroke:#14B7CC;}
	.st7{fill-rule:evenodd;clip-rule:evenodd;fill:#394058;}
	.st8{fill:#2C2C2C;}
	.st9{fill:#706F71;}
	.st10{filter:url(#Adobe_OpacityMaskFilter);}
	.st11{fill-rule:evenodd;clip-rule:evenodd;fill:#FFFFFF;}
	.st12{mask:url(#fffkjwkj6h_1_);fill-rule:evenodd;clip-rule:evenodd;fill:#8487F5;}
	.st13{filter:url(#Adobe_OpacityMaskFilter_1_);}
	.st14{mask:url(#u0x7q5feej_1_);fill-rule:evenodd;clip-rule:evenodd;fill:#14B7CC;}
	.st15{filter:url(#Adobe_OpacityMaskFilter_2_);}
	.st16{mask:url(#e8zpeks8pl_1_);fill-rule:evenodd;clip-rule:evenodd;fill:#FFFFFF;}
	.st17{filter:url(#Adobe_OpacityMaskFilter_3_);}
	.st18{mask:url(#_x34_05aqbrskn_1_);fill-rule:evenodd;clip-rule:evenodd;fill:#868EA5;}
</style>
<g transform="translate(-1135 -2778) translate(418 2721) translate(0 87) translate(767)">
	
		<image style="overflow:visible;opacity:0.2;" width="501" height="436" xlink:href="B1BC832B.png"  transform="matrix(1 0 0 1 -90.0394 -76.0394)">
	</image>
	<g>
		<g>
			<g>
				<path id="aywnh13xtb_25_" class="st0" d="M0,0h310v245H0V0z"/>
			</g>
			<g>
				<path id="aywnh13xtb_24_" class="st1" d="M0,0h310v245H0V0z"/>
			</g>
		</g>
	</g>
</g>
<g transform="translate(-1135 -2778) translate(418 2721) translate(0 87) translate(767) translate(68 84)">
	<g>
		<path id="_x34_b0mh7yo0d" class="st2" d="M5,0h165c2.8,0,5,2.2,5,5v34c0,2.8-2.2,5-5,5H5c-2.8,0-5-2.2-5-5V5C0,2.2,2.2,0,5,0z"/>
	</g>
	<path class="st3" d="M5.5,0.5h164c2.8,0,5,2.2,5,5v33c0,2.8-2.2,5-5,5H5.5c-2.8,0-5-2.2-5-5v-33C0.5,2.7,2.7,0.5,5.5,0.5z"/>
</g>
<g class="st4">
	<path class="st5" d="M172,135.2v1h-12.2v-1H172z M170.6,131.5c0,1.6-1.8,2.5-4.7,2.5c-2.9,0-4.7-0.9-4.7-2.5c0-1.6,1.8-2.6,4.7-2.6
		C168.8,129,170.6,129.9,170.6,131.5z M170.5,137.5v4.4h-9.2v-4.4H170.5z M162.4,131.5c0,1,1.3,1.6,3.5,1.6s3.5-0.6,3.5-1.6
		c0-1-1.3-1.6-3.5-1.6S162.4,130.5,162.4,131.5z M162.5,138.5v2.5h6.8v-2.5H162.5z"/>
	<path class="st5" d="M180.4,136c-1.5-0.6-2.6-1.6-3.2-3c-0.6,1.6-1.8,2.8-3.4,3.4l-0.6-1c2.1-0.7,3.4-2.5,3.4-4.6v-1.4h1.2v1.3
		c0,1.9,1.3,3.6,3.3,4.3L180.4,136z M184.3,139.6c0,1.6-1.7,2.5-4.5,2.5c-2.8,0-4.5-0.9-4.5-2.5c0-1.6,1.7-2.5,4.5-2.5
		C182.6,137,184.3,137.9,184.3,139.6z M183.1,139.6c0-1-1.2-1.6-3.3-1.6c-2,0-3.3,0.6-3.3,1.6c0,1,1.2,1.6,3.3,1.6
		C181.8,141.1,183.1,140.5,183.1,139.6z M183,132.5h-2.9v-1h2.9v-2.8h1.2v7.9H183V132.5z"/>
	<path class="st5" d="M193.6,130.1c0,3.9-1.8,7.3-6.3,9.5l-0.7-1c3.6-1.7,5.4-4.3,5.7-7.5h-5.1v-1H193.6z M197.6,128.7v13.5h-1.2
		v-13.5H197.6z"/>
	<path class="st5" d="M212.1,136v1h-12.2v-1h5.5v-1.4h-3.9v-3.3h7.9V130h-7.9v-1h9.1v3.3h-7.9v1.4h8.1v1h-4.2v1.4H212.1z
		 M201.2,138.1h9.4v3.9h-1.2v-2.9h-8.1V138.1z"/>
	<path class="st5" d="M218,137.7c2.4,0,4.1-0.1,6.1-0.5l0.1,1c-2.1,0.4-3.8,0.5-6.4,0.5h-1.1v-8.8h6.3v1h-5V137.7z M228.7,135h-2.2
		v7.2h-1.2v-13.5h1.2v5.3h2.2V135z"/>
	<path class="st5" d="M241.7,135.5v1h-5.4v2.7h-1.2v-2.7h-5.6v-1H241.7z M230.9,131.7c0-1.7,1.9-2.7,4.7-2.7c2.9,0,4.7,1,4.7,2.7
		s-1.9,2.7-4.7,2.7C232.8,134.4,230.9,133.4,230.9,131.7z M232.3,140.8h8.1v1h-9.3v-3.9h1.2V140.8z M232.2,131.7
		c0,1,1.4,1.7,3.4,1.7c2.1,0,3.4-0.6,3.4-1.7c0-1.1-1.3-1.7-3.4-1.7C233.6,130,232.2,130.6,232.2,131.7z"/>
	<path class="st5" d="M255.1,139.4v1h-12.2v-1h5.5v-2.5h-3.9v-4.2h8v-2.1h-8v-1h9.2v4.1h-8v2.2h8.3v1h-4.3v2.5H255.1z"/>
	<path class="st5" d="M268.5,139.3v1h-12.2v-1H268.5z M267.1,136.1h-9.2v-6.2h9.1v1H259v4.2h8V136.1z"/>
</g>
<g transform="translate(-1135 -2778) translate(418 2721) translate(0 87) translate(767) translate(68 148)">
	<g>
		<path id="dgjhjiw8qf" class="st2" d="M5,0h165c2.8,0,5,2.2,5,5v34c0,2.8-2.2,5-5,5H5c-2.8,0-5-2.2-5-5V5C0,2.2,2.2,0,5,0z"/>
	</g>
	<path class="st6" d="M5.5,0.5h164c2.8,0,5,2.2,5,5v33c0,2.8-2.2,5-5,5H5.5c-2.8,0-5-2.2-5-5v-33C0.5,2.7,2.7,0.5,5.5,0.5z"/>
</g>
<g class="st4">
	<path class="st5" d="M161.5,200.8c1.8,0,3.1-0.1,4.5-0.4l0.1,1c-1.6,0.3-3,0.4-5,0.4h-0.9v-8.5h5v1h-3.8V200.8z M171.2,191.7v13.5
		H170v-7h-1.9v6.4H167V192h1.2v5.1h1.9v-5.4H171.2z"/>
	<path class="st5" d="M177.9,201.4c1.2-0.1,2.5-0.2,3.6-0.3l0.1,0.9c-2.9,0.5-6,0.5-8.4,0.5l-0.2-1c1.1,0,2.3,0,3.6,0V200
		c-1.5-0.2-2.6-1.1-2.6-2.5c0-1.5,1.3-2.5,3.2-2.5s3.2,1,3.2,2.5c0,1.3-1,2.3-2.6,2.5V201.4z M181.3,194.3h-8v-1h3.4v-1.6h1.2v1.6
		h3.4V194.3z M177.3,199.1c1.2,0,2-0.6,2-1.5c0-0.9-0.8-1.5-2-1.5c-1.2,0-2,0.6-2,1.5C175.3,198.5,176.1,199.1,177.3,199.1z
		 M185.6,198.4h-2.1v6.7h-1.2v-13.5h1.2v5.7h2.1V198.4z"/>
	<path class="st5" d="M188.4,200.5c1.3,0,2.7-0.1,4.3-0.4l0.1,1.1c-1.8,0.3-3.4,0.4-4.8,0.4h-0.9v-8.3h1.2V200.5z M197.9,191.7v13.4
		h-1.2v-6.9h-1.9v6.3h-1.2V192h1.2v5.2h1.9v-5.5H197.9z"/>
	<path class="st5" d="M212.1,198.3v1h-12.2v-1h3v-1.9c-1.1-0.4-1.6-1.1-1.6-2c0-1.6,1.8-2.5,4.7-2.5c2.9,0,4.7,0.9,4.7,2.5
		c0,0.9-0.6,1.6-1.6,2v1.9H212.1z M210.6,202.7c0,1.5-1.7,2.4-4.6,2.4c-2.9,0-4.6-0.8-4.6-2.4s1.7-2.4,4.6-2.4
		C208.9,200.3,210.6,201.2,210.6,202.7z M206,195.9c2.1,0,3.5-0.6,3.5-1.5c0-1-1.3-1.5-3.5-1.5s-3.5,0.6-3.5,1.5
		C202.5,195.4,203.8,195.9,206,195.9z M209.3,202.7c0-0.9-1.3-1.4-3.4-1.4c-2.1,0-3.4,0.5-3.4,1.4s1.2,1.4,3.4,1.4
		C208.1,204.2,209.3,203.6,209.3,202.7z M204.1,198.3h3.7v-1.6c-0.6,0.1-1.2,0.2-1.9,0.2c-0.7,0-1.3-0.1-1.9-0.2V198.3z"/>
	<path class="st5" d="M218,200.7c2.4,0,4.1-0.1,6.1-0.5l0.1,1c-2.1,0.4-3.8,0.5-6.4,0.5h-1.1v-8.8h6.3v1h-5V200.7z M228.7,198h-2.2
		v7.2h-1.2v-13.5h1.2v5.3h2.2V198z"/>
	<path class="st5" d="M241.7,198.5v1h-5.4v2.7h-1.2v-2.7h-5.6v-1H241.7z M230.9,194.7c0-1.7,1.9-2.7,4.7-2.7c2.9,0,4.7,1,4.7,2.7
		s-1.9,2.7-4.7,2.7C232.8,197.4,230.9,196.4,230.9,194.7z M232.3,203.8h8.1v1h-9.3v-3.9h1.2V203.8z M232.2,194.7
		c0,1,1.4,1.7,3.4,1.7c2.1,0,3.4-0.6,3.4-1.7c0-1.1-1.3-1.7-3.4-1.7C233.6,193,232.2,193.6,232.2,194.7z"/>
	<path class="st5" d="M255.1,202.4v1h-12.2v-1h5.5v-2.5h-3.9v-4.2h8v-2.1h-8v-1h9.2v4.1h-8v2.2h8.3v1h-4.3v2.5H255.1z"/>
	<path class="st5" d="M268.5,202.3v1h-12.2v-1H268.5z M267.1,199.1h-9.2v-6.2h9.1v1H259v4.2h8V199.1z"/>
</g>
<g>
	<path class="st7" d="M330.3,256.6l20.9,37.2c2,3.6,0.8,8.2-2.9,10.2c-1.1,0.6-2.4,1-3.7,1h-41.9c-4.1,0-7.5-3.4-7.5-7.5
		c0-1.3,0.3-2.6,1-3.7l20.9-37.2c2-3.6,6.6-4.9,10.2-2.9C328.6,254.4,329.6,255.4,330.3,256.6z"/>
</g>
<g class="st4">
	<path class="st8" d="M80.2,50.2h1.6v14.3h-1.6v-7.4h-1.6c-0.2,3-1.4,4.8-3.3,4.8c-2,0-3.3-2.1-3.3-5.5c0-3.4,1.3-5.4,3.3-5.4
		c1.8,0,3.1,1.8,3.3,4.6h1.6V50.2z M77,56.6c0-2.4-0.6-3.8-1.7-3.8c-1.1,0-1.7,1.4-1.7,3.8s0.6,3.8,1.7,3.8C76.4,60.4,77,59,77,56.6
		z M85,50v15.3h-1.7V50H85z"/>
	<path class="st8" d="M101,61.9v1.4H87.1v-1.4h5.2v-3.9H94v3.9H101z M97.7,55.1c0-0.8,0-1.6,0-2.3h-9v-1.4h10.7v1.4
		c0,1.9,0,4-0.7,7.2L97,59.8c0.3-1.3,0.4-2.4,0.5-3.4l-9.1,0.5l-0.2-1.5L97.7,55.1z"/>
	<path class="st8" d="M106.2,51.5h7.2v10h-7.2V51.5z M108,60.1h3.7v-7.2H108V60.1z M120,57.4h-2.4v7.9h-1.8V50h1.8v6h2.4V57.4z"/>
	<path class="st8" d="M125.3,58.7c-2.3,0-4.1-1.6-4.1-3.8c0-2.2,1.8-3.8,4.1-3.8c2.3,0,4.1,1.6,4.1,3.8
		C129.3,57,127.6,58.7,125.3,58.7z M125.3,57.1c1.3,0,2.4-0.9,2.4-2.3c0-1.4-1-2.3-2.4-2.3c-1.4,0-2.4,0.9-2.4,2.3
		C122.9,56.2,123.9,57.1,125.3,57.1z M134,63.6V65h-10.5v-5h1.8v3.6H134z M133.6,61.1h-1.8V50h1.8V61.1z"/>
	<path class="st8" d="M150,61.9v1.4h-13.9v-1.4H150z M136.7,58.1c3-0.5,5.4-2.6,5.4-4.9v-0.4h-4.9v-1.4h11.6v1.4H144v0.4
		c0,2.3,2.4,4.4,5.5,4.8l-0.7,1.4c-2.5-0.5-4.7-1.9-5.7-3.8c-1,2-3.1,3.4-5.6,3.9L136.7,58.1z"/>
	<path class="st8" d="M160.6,60.5c1.4-0.1,2.8-0.2,4.1-0.4l0.1,1.3c-3.4,0.6-7.1,0.7-9.8,0.7l-0.2-1.4c1.2,0,2.6,0,4-0.1v-2.4
		c-1.9-0.3-3.3-1.7-3.3-3.6c0-2.2,1.8-3.7,4.2-3.7c2.4,0,4.2,1.5,4.2,3.7c0,1.9-1.4,3.3-3.3,3.6V60.5z M159.7,56.8
		c1.4,0,2.5-0.8,2.5-2.2c0-1.3-1-2.2-2.5-2.2c-1.4,0-2.4,0.8-2.4,2.2C157.2,55.9,158.3,56.8,159.7,56.8z M167.4,49.9v15.4h-1.8V49.9
		H167.4z"/>
	<path class="st8" d="M183.9,60.3h-6.1v5H176v-5h-6v-1.4h13.9V60.3z M182.1,57.3h-10.5v-6.7h1.8v1.9h7v-1.9h1.8V57.3z M180.4,53.9
		h-7v2h7V53.9z"/>
	<path class="st8" d="M196.6,51.4v10.1h-7.2V51.4H196.6z M191.1,52.8v7.3h3.8v-7.3H191.1z M201.2,49.9v15.4h-1.8V49.9H201.2z"/>
	<path class="st8" d="M213.3,58.1c-2.2,0.4-4.1,0.4-7.4,0.4h-1.3V51h7.3v1.4h-5.6V54h5.2v1.4h-5.2v1.6c3,0,4.7-0.1,6.7-0.4
		L213.3,58.1z M216.5,62.5c0,1.8-2,2.9-5.2,2.9c-3.2,0-5.2-1.1-5.2-2.9s2-2.9,5.2-2.9C214.5,59.6,216.5,60.7,216.5,62.5z
		 M214.8,62.5c0-1-1.3-1.5-3.5-1.5c-2.2,0-3.5,0.5-3.5,1.5s1.3,1.5,3.5,1.5C213.5,63.9,214.8,63.4,214.8,62.5z M216.4,59.4h-1.8V50
		h1.8V59.4z"/>
</g>
<g class="st4">
	<path class="st9" d="M71.6,85.3c3-2.6,4.4-4.5,4.4-6.1c0-1.1-0.6-1.9-1.8-1.9c-0.8,0-1.5,0.5-2,1.1l-0.7-0.7
		c0.8-0.8,1.6-1.4,2.8-1.4c1.7,0,2.8,1.1,2.8,2.8c0,1.9-1.5,3.8-3.7,6c0.5,0,1.1-0.1,1.6-0.1h2.6v1h-6V85.3z"/>
	<path class="st9" d="M81.9,75.7h0.9l-3.9,12.6H78L81.9,75.7z"/>
	<path class="st9" d="M83.7,85h2.1v-7.1h-1.7v-0.8c0.8-0.2,1.5-0.4,2-0.7H87V85h1.9v1h-5.2V85z"/>
	<path class="st9" d="M89.8,84.9l0.6-0.8c0.6,0.6,1.3,1.1,2.4,1.1c1.1,0,1.9-0.7,1.9-1.8c0-1.1-0.8-1.9-3-1.9v-0.9
		c2,0,2.6-0.8,2.6-1.8c0-0.9-0.6-1.5-1.6-1.5c-0.8,0-1.4,0.4-2,0.9l-0.6-0.8c0.7-0.7,1.6-1.1,2.7-1.1c1.6,0,2.8,0.9,2.8,2.4
		c0,1.2-0.7,1.9-1.7,2.3V81c1.1,0.3,2,1.1,2,2.4c0,1.7-1.4,2.7-3.1,2.7C91.3,86.2,90.4,85.5,89.8,84.9z"/>
	<path class="st9" d="M110,81.2v0.9H99.4v-0.9h4.8v-1.5h-3.4v-4h7.8v4h-3.4v1.5H110z M100.6,83.3h8.1V87h-1.1v-2.8h-7V83.3z
		 M101.8,78.9h5.7v-2.3h-5.7V78.9z"/>
	<path class="st9" d="M116.9,75.7h0.9l-3.9,12.6H113L116.9,75.7z"/>
	<path class="st9" d="M131.4,84.6v0.9h-10.6v-0.9h4.7v-2.4c-2.2-0.2-3.7-1.3-3.7-3c0-1.9,1.8-3.1,4.3-3.1c2.5,0,4.2,1.2,4.2,3.1
		c0,1.7-1.5,2.9-3.7,3v2.4H131.4z M126.1,81.3c1.9,0,3.2-0.9,3.2-2.2c0-1.3-1.4-2.2-3.2-2.2s-3.2,0.9-3.2,2.2
		C122.9,80.5,124.2,81.3,126.1,81.3z"/>
	<path class="st9" d="M143,83.7h-4.8V87h-1.1v-3.2h-4.7v-0.9H143V83.7z M142.3,77.5H133v-0.9h4.2v-1.4h1.1v1.4h4.1V77.5z
		 M137.7,78.2c2.4,0,3.8,0.7,3.8,1.9S140,82,137.7,82c-2.4,0-3.8-0.7-3.8-1.9S135.3,78.2,137.7,78.2z M137.7,79
		c-1.7,0-2.7,0.4-2.7,1.1c0,0.7,1,1.1,2.7,1.1s2.7-0.4,2.7-1.1C140.4,79.4,139.4,79,137.7,79z"/>
	<path class="st9" d="M146.2,84.9l0.6-0.8c0.5,0.5,1.2,1.1,2.3,1.1c1.1,0,2-0.9,2-2.2c0-1.4-0.8-2.2-2-2.2c-0.6,0-1,0.2-1.6,0.6
		l-0.6-0.4l0.3-4.5h4.6v1h-3.6l-0.2,2.8c0.4-0.2,0.8-0.4,1.4-0.4c1.6,0,2.9,0.9,2.9,3c0,2.1-1.5,3.3-3.1,3.3
		C147.8,86.2,146.8,85.5,146.2,84.9z"/>
	<path class="st9" d="M153.6,80c0-0.5,0.4-0.9,0.9-0.9c0.5,0,0.9,0.4,0.9,0.9c0,0.5-0.4,0.9-0.9,0.9C154,80.9,153.6,80.6,153.6,80z
		 M153.6,85.3c0-0.5,0.4-0.9,0.9-0.9c0.5,0,0.9,0.4,0.9,0.9c0,0.5-0.4,0.9-0.9,0.9C154,86.2,153.6,85.8,153.6,85.3z"/>
	<path class="st9" d="M156.6,81.2c0-3.3,1.2-4.9,3-4.9c1.8,0,3,1.6,3,4.9c0,3.3-1.2,5-3,5C157.7,86.2,156.6,84.5,156.6,81.2z
		 M161.3,81.2c0-2.8-0.7-4-1.8-4c-1.1,0-1.8,1.2-1.8,4c0,2.8,0.7,4,1.8,4C160.6,85.2,161.3,84,161.3,81.2z"/>
	<path class="st9" d="M163.4,81.2c0-3.3,1.2-4.9,3-4.9c1.8,0,3,1.6,3,4.9c0,3.3-1.2,5-3,5C164.5,86.2,163.4,84.5,163.4,81.2z
		 M168.2,81.2c0-2.8-0.7-4-1.8-4c-1.1,0-1.8,1.2-1.8,4c0,2.8,0.7,4,1.8,4C167.4,85.2,168.2,84,168.2,81.2z"/>
</g>
<g transform="translate(-1135 -2778) translate(418 2721) translate(0 87) translate(767) translate(86 99)">
	<defs>
		<filter id="Adobe_OpacityMaskFilter" filterUnits="userSpaceOnUse" x="0" y="0" width="11.3" height="15">
			<feColorMatrix  type="matrix" values="1 0 0 0 0  0 1 0 0 0  0 0 1 0 0  0 0 0 1 0"/>
		</filter>
	</defs>
	<mask maskUnits="userSpaceOnUse" x="0" y="0" width="11.3" height="15" id="fffkjwkj6h_1_">
		<g class="st10">
			<path id="hiv9lty6bg_1_" class="st11" d="M0,0h11.3v15H0V0z"/>
		</g>
	</mask>
	<path class="st12" d="M7.5,1.5v2.2h2.2L7.5,1.5z M6.8,9c-0.6-0.7,0.4-1.6,1-1c0.8,0.8,0.8,2.1,0,2.9c-0.6,0.7-1.7-0.3-1-1
		C7.1,9.7,7.1,9.3,6.8,9L6.8,9z M5,11.6l-1-1.1H3.2c-0.2,0-0.4-0.2-0.4-0.4V8.6c0-0.2,0.2-0.4,0.4-0.4H4l1-1.1
		c0.2-0.2,0.6-0.1,0.6,0.2v4C5.6,11.7,5.2,11.8,5,11.6z M9.8,13.6V5.2h-3c-0.4,0-0.7-0.3-0.7-0.7v-3H1.4v12.2
		C1.4,13.6,9.8,13.6,9.8,13.6z M11.3,3.9v9.7c0,0.8-0.6,1.4-1.4,1.4H1.4C0.6,15,0,14.4,0,13.6V1.4C0,0.6,0.6,0,1.4,0h6
		c0.3,0,0.8,0.2,1,0.4l2.5,2.5C11.1,3.1,11.3,3.5,11.3,3.9z"/>
</g>
<g transform="translate(-1135 -2778) translate(418 2721) translate(0 87) translate(767) translate(88 162)">
	<defs>
		<filter id="Adobe_OpacityMaskFilter_1_" filterUnits="userSpaceOnUse" x="0" y="0" width="11.3" height="15">
			<feColorMatrix  type="matrix" values="1 0 0 0 0  0 1 0 0 0  0 0 1 0 0  0 0 0 1 0"/>
		</filter>
	</defs>
	<mask maskUnits="userSpaceOnUse" x="0" y="0" width="11.3" height="15" id="u0x7q5feej_1_">
		<g class="st13">
			<path id="_x37_lnctwpjqi_1_" class="st11" d="M0,0h11.3v15H0V0z"/>
		</g>
	</mask>
	<path class="st14" d="M7.5,3.7h2.2L7.5,1.5L7.5,3.7L7.5,3.7z M8.4,9.7v0.8c0,0.2-0.2,0.4-0.4,0.4H3.2c-0.2,0-0.4-0.2-0.4-0.4V9.7
		c0-0.2,0.2-0.4,0.3-0.4h4.9C8.3,9.4,8.4,9.5,8.4,9.7L8.4,9.7z M8.4,8.1c0,0.2-0.2,0.4-0.4,0.4H3.2C3,8.4,2.8,8.3,2.8,8.1V7.3
		c0-0.2,0.2-0.4,0.3-0.4h4.9c0.2,0,0.4,0.2,0.4,0.4L8.4,8.1L8.4,8.1z M9.8,5.2h-3c-0.4,0-0.7-0.3-0.7-0.7v-3H1.4v12.2h8.4V5.2z
		 M11.3,13.6c0,0.8-0.6,1.4-1.4,1.4H1.4C0.6,15,0,14.4,0,13.6V1.4C0,0.6,0.6,0,1.4,0h6c0.4,0,0.7,0.1,1,0.4l2.5,2.5
		c0.3,0.3,0.4,0.6,0.4,1V13.6z"/>
</g>
<g transform="translate(-1135 -2778) translate(418 2721) translate(0 87) translate(767) translate(259 241)">
	<defs>
		<filter id="Adobe_OpacityMaskFilter_2_" filterUnits="userSpaceOnUse" x="0" y="0" width="24.1" height="27.5">
			<feColorMatrix  type="matrix" values="1 0 0 0 0  0 1 0 0 0  0 0 1 0 0  0 0 0 1 0"/>
		</filter>
	</defs>
	<mask maskUnits="userSpaceOnUse" x="0" y="0" width="24.1" height="27.5" id="e8zpeks8pl_1_">
		<g class="st15">
			<path id="ftxasgglqk_1_" class="st11" d="M0,0h24.1v27.5H0V0z"/>
		</g>
	</mask>
	<path class="st16" d="M24.1,22.3c0,2.8-2.3,5.2-5.2,5.2c-2.8,0-5.2-2.3-5.2-5.2v0c0-0.3,0.1-0.8,0.1-1.1l-5.5-3.4
		c-0.9,0.7-2,1.1-3.2,1.1c-2.8,0-5.2-2.3-5.2-5.2c0-2.8,2.3-5.2,5.2-5.2c1.2,0,2.3,0.4,3.2,1.1l5.5-3.4c-0.1-0.4-0.1-0.7-0.1-1.1
		c0-2.8,2.3-5.2,5.2-5.2s5.2,2.3,5.2,5.2c0,2.8-2.3,5.2-5.2,5.2c-1.2,0-2.3-0.4-3.2-1.1l-5.5,3.4c0.1,0.3,0.1,0.8,0.1,1.1
		c0,0.3-0.1,0.8-0.1,1.1l5.5,3.4c0.9-0.7,2-1.1,3.2-1.1C21.8,17.2,24.1,19.5,24.1,22.3"/>
</g>
<g transform="translate(-1135 -2778) translate(418 2721) translate(0 87) translate(767) translate(219 185)">
	<defs>
		<filter id="Adobe_OpacityMaskFilter_3_" filterUnits="userSpaceOnUse" x="0" y="0" width="26.3" height="30">
			<feColorMatrix  type="matrix" values="1 0 0 0 0  0 1 0 0 0  0 0 1 0 0  0 0 0 1 0"/>
		</filter>
	</defs>
	<mask maskUnits="userSpaceOnUse" x="0" y="0" width="26.3" height="30" id="_x34_05aqbrskn_1_">
		<g class="st17">
			<path id="cx2o2mppam_1_" class="st11" d="M0,0h26.3v30H0V0z"/>
		</g>
	</mask>
	<path class="st18" d="M19.2,17.8c0-0.5,0.4-0.9,0.8-0.9h0.4c0.5,0,0.8,0.4,0.8,0.9v5.6c0,0.5-0.4,0.9-0.8,0.9H20
		c-0.5,0-0.8-0.4-0.8-0.9V17.8z M14.7,17.8c0-0.5,0.4-0.9,0.8-0.9h0.4c0.5,0,0.8,0.4,0.8,0.9v5.6c0,0.5-0.4,0.9-0.8,0.9h-0.4
		c-0.5,0-0.8-0.4-0.8-0.9C14.7,23.4,14.7,17.8,14.7,17.8z M10.3,17.8c0-0.5,0.4-0.9,0.8-0.9h0.4c0.5,0,0.8,0.4,0.8,0.9v5.6
		c0,0.5-0.4,0.9-0.8,0.9h-0.4c-0.5,0-0.8-0.4-0.8-0.9V17.8z M3,17.7l6.4,9c0.2,0.3,0.5,0.5,0.9,0.5h10.4c0.5,0,0.9-0.4,1-0.9l1.6-7
		c0-0.1,0-0.2,0-0.3v-4.9c0-1.5-2.1-1.5-2.1,0c0,0.5-0.4,0.9-0.9,0.9H20c-0.5,0-0.9-0.4-0.9-0.9v-1.2c0-1.5-2.1-1.5-2.1,0v1.2
		c0,0.5-0.4,0.9-0.9,0.9h-0.4c-0.5,0-0.9-0.4-0.9-0.9v-2.1c0-1.5-2.1-1.5-2.1,0v2.1c0,0.5-0.4,0.9-0.9,0.9h-0.4
		c-0.5,0-0.9-0.4-0.9-0.9V3.9c0-1.5-2.1-1.5-2.1,0v14.1c0,0.9-1.2,1.3-1.7,0.5l-1.6-2.2C3.9,15.2,2.2,16.5,3,17.7L3,17.7z
		 M26.3,14.2v4.9c0,0.2,0,0.6-0.1,0.9l-1.6,7c-0.4,1.8-2,3-3.8,3H10.3c-1.2,0-2.4-0.6-3.2-1.6l-6.4-9c-1.2-1.7-0.9-4.2,0.9-5.5
		c1.1-0.8,2.5-1,3.6-0.5V3.9C5.2,1.8,7,0,9.1,0C11.2,0,13,1.8,13,3.9v4.3c1.2-0.2,2.4,0.2,3.3,1.1c1.6-0.8,3.5-0.3,4.7,1.1
		C23.5,9.5,26.3,11.4,26.3,14.2L26.3,14.2z"/>
</g>
</svg>
