<svg xmlns="http://www.w3.org/2000/svg" xmlns:xlink="http://www.w3.org/1999/xlink" width="620" height="367" viewBox="0 0 620 367">
    <defs>
        <path id="fsc30hbv0c" d="M0 0H520V245H0z"/>
        <path id="x0c4jkcyaf" d="M0 0.019L104.258 0.019 104.258 124.74 0 124.74z"/>
        <path id="928p9nic3h" d="M0.168 0.019L37.163 0.019 37.163 37.421 0.168 37.421z"/>
        <path id="nl3w5e3h2j" d="M0 0L18.75 0 18.75 25 0 25z"/>
        <filter id="m5z611mv8b" width="130.8%" height="165.3%" x="-15.4%" y="-24.5%" filterUnits="objectBoundingBox">
            <feMorphology in="SourceAlpha" operator="dilate" radius="10" result="shadowSpreadOuter1"/>
            <feOffset dy="20" in="shadowSpreadOuter1" result="shadowOffsetOuter1"/>
            <feMorphology in="SourceAlpha" radius="10" result="shadowInner"/>
            <feOffset dy="20" in="shadowInner" result="shadowInner"/>
            <feComposite in="shadowOffsetOuter1" in2="shadowInner" operator="out" result="shadowOffsetOuter1"/>
            <feGaussianBlur in="shadowOffsetOuter1" result="shadowBlurOuter1" stdDeviation="20"/>
            <feColorMatrix in="shadowBlurOuter1" values="0 0 0 0 0 0 0 0 0 0 0 0 0 0 0 0 0 0 0.18 0"/>
        </filter>
        <filter id="9iiagohdwe" width="201.9%" height="185.7%" x="-50.9%" y="-42.9%" filterUnits="objectBoundingBox">
            <feOffset dy="9" in="SourceAlpha" result="shadowOffsetOuter1"/>
            <feGaussianBlur in="shadowOffsetOuter1" result="shadowBlurOuter1" stdDeviation="9.5"/>
            <feColorMatrix in="shadowBlurOuter1" result="shadowMatrixOuter1" values="0 0 0 0 0 0 0 0 0 0 0 0 0 0 0 0 0 0 0.08 0"/>
            <feMerge>
                <feMergeNode in="shadowMatrixOuter1"/>
                <feMergeNode in="SourceGraphic"/>
            </feMerge>
        </filter>
        <rect id="n22a4r468a" width="422" height="167" x="49" y="62" rx="5"/>
        <mask id="8z7j0aloxd" width="422" height="167" x="0" y="0" fill="#fff" maskContentUnits="userSpaceOnUse" maskUnits="objectBoundingBox">
            <use xlink:href="#n22a4r468a"/>
        </mask>
    </defs>
    <g fill="none" fill-rule="evenodd">
        <g>
            <g>
                <g transform="translate(-460 -1314) translate(510 1344)">
                    <g>
                        <g stroke-linejoin="round">
                            <use fill="#000" filter="url(#m5z611mv8b)" xlink:href="#fsc30hbv0c"/>
                            <use stroke="#FFF" stroke-width="20" xlink:href="#fsc30hbv0c"/>
                        </g>
                        <path fill="#FFF" d="M8 3.914H519V243.43499999999997H8z"/>
                    </g>
                    <text fill="#B6C2CC" font-family="NotoSansCJKkr-Regular, Noto Sans CJK KR" font-size="13" letter-spacing="-.38">
                        <tspan x="195" y="166">Drag and drop file here</tspan>
                    </text>
                    <g>
                        <text fill="#161A29" font-family="NotoSansCJKkr-Medium, Noto Sans CJK KR" font-size="17" font-weight="400" letter-spacing="-.425" transform="translate(22 18)">
                            <tspan x="0" y="20">에코 마인즈 외부 미팅</tspan>
                        </text>
                        <text fill="#616779" font-family="NotoSansCJKkr-Regular, Noto Sans CJK KR" font-size="13" letter-spacing="-.38" transform="translate(22 18)">
                            <tspan x="156" y="18">2/13 목 오후 5:00 - 6:24</tspan>
                        </text>
                    </g>
                    <use stroke="#B6C2CC" stroke-dasharray="2 2" stroke-width="2" mask="url(#8z7j0aloxd)" xlink:href="#n22a4r468a"/>
                    <g>
                        <g filter="url(#9iiagohdwe)" transform="translate(347 171)">
                            <path fill="#14B7CC" d="M14.782 122.832c-6.848 0-12.42-5.572-12.42-12.42V15.254c0-6.848 5.572-12.419 12.42-12.419H67.02l34.876 35.42v72.157c0 6.848-5.572 12.42-12.42 12.42H14.782z"/>
                            <g transform="translate(0 .454)">
                                <mask id="d8mjhohvag" fill="#fff">
                                    <use xlink:href="#x0c4jkcyaf"/>
                                </mask>
                                <path fill="#14B7CC" d="M68.01.019H14.782C6.652.019 0 6.67 0 14.8v95.158c0 8.13 6.652 14.782 14.782 14.782h74.694c8.13 0 14.782-6.652 14.782-14.782V36.833L68.01.02zM66.03 4.744l33.502 34.025v71.189c0 5.545-4.512 10.057-10.057 10.057H14.782c-5.545 0-10.057-4.512-10.057-10.057V14.8c0-5.545 4.512-10.056 10.057-10.056h51.25z" mask="url(#d8mjhohvag)"/>
                            </g>
                            <path fill="#FFF" d="M82.045 35.513c-6.849 0-12.42-5.571-12.42-12.42V5.48l29.57 30.033h-17.15z"/>
                            <g transform="translate(67.095 .454)">
                                <mask id="1pmahgjkri" fill="#fff">
                                    <use xlink:href="#928p9nic3h"/>
                                </mask>
                                <path fill="#14B7CC" d="M.915.019H.169L.168.074V22.64c0 8.13 6.651 14.782 14.782 14.782h22.213v-.588L.915.02zm3.978 10.774l21.566 21.903h-11.51c-5.545 0-10.056-4.512-10.056-10.057V10.793z" mask="url(#1pmahgjkri)"/>
                            </g>
                        </g>
                        <path stroke="#FEFEFE" stroke-width="1.89" d="M43.292 68.04V53.274c0-4.893 3.967-8.859 8.86-8.859 4.893 0 8.86 3.966 8.86 8.86V68.04c0 4.893-3.967 8.86-8.86 8.86-4.893 0-8.86-3.967-8.86-8.86zm25.101-4.43v4.43c0 8.204-6.117 14.993-14.026 16.08v3.115h5.167c.817 0 1.477.661 1.477 1.477v1.476c0 .816-.66 1.477-1.477 1.477H44.768c-.815 0-1.476-.66-1.476-1.477v-1.476c0-.816.66-1.477 1.476-1.477h5.169v-3.15c-8.124-1.122-14.027-8.496-14.027-16.769v-3.705c0-.817.66-1.477 1.476-1.477h1.477c.816 0 1.476.66 1.476 1.477v3.903c0 6.166 4.496 11.683 10.632 12.28 7.042.688 12.993-4.85 12.993-11.754v-4.43c0-.816.66-1.476 1.476-1.476h1.477c.816 0 1.476.66 1.476 1.477z" transform="translate(347 171)"/>
                    </g>
                </g>
                <g transform="translate(-460 -1314) translate(510 1344) translate(248 123)">
                    <mask id="kd18qrwvqk" fill="#fff">
                        <use xlink:href="#nl3w5e3h2j"/>
                    </mask>
                    <path fill="#B6C2CC" d="M18.75 5.952v.298H12.5V0h.298c.312 0 .61.122.83.342l4.78 4.785c.22.22.342.517.342.825m-4.081 9.9L9.961 11.18c-.324-.323-.849-.323-1.173 0L4.08 15.852c-.496.492-.147 1.336.55 1.336h3.182v3.906c0 .432.35.781.782.781h1.562c.432 0 .782-.349.782-.78v-3.907h3.182c.697 0 1.045-.844.549-1.336m-2.56-8.04h6.641v16.016c0 .65-.522 1.172-1.172 1.172H1.172C.522 25 0 24.477 0 23.828V1.172C0 .522.522 0 1.172 0h9.766v6.64c0 .645.527 1.172 1.171 1.172" mask="url(#kd18qrwvqk)"/>
                </g>
            </g>
        </g>
    </g>
</svg>
