<svg xmlns="http://www.w3.org/2000/svg" id="그룹_16" width="161.659" height="64.439" viewBox="0 0 161.659 64.439">
    <defs>
        <style>
            .cls-1{fill:#fff}
        </style>
    </defs>
    <path id="패스_115" d="M-495.861-6.442a21.315 21.315 0 0 1-21.291-21.291 21.29 21.29 0 0 1 5.1-13.822 21.343 21.343 0 0 1 10.539-6.7 24.439 24.439 0 0 1 24.337-22.562 24.443 24.443 0 0 1 22.4 14.7 18.167 18.167 0 0 1 8.744-2.244 18.2 18.2 0 0 1 18.013 15.734 18.167 18.167 0 0 1 12.619 7.843 2.607 2.607 0 0 1-.7 3.62 2.607 2.607 0 0 1-3.62-.7 12.963 12.963 0 0 0-10.751-5.715h-2.606v-2.608a12.977 12.977 0 0 0-12.962-12.962 12.962 12.962 0 0 0-8.391 3.087l-3.145 2.675-1.064-3.988a19.207 19.207 0 0 0-18.539-14.23 19.212 19.212 0 0 0-19.19 19.19V-46.184l.028 2.234-2.2.368a16.091 16.091 0 0 0-9.551 5.417 16.064 16.064 0 0 0-3.847 10.433 16.094 16.094 0 0 0 16.075 16.075 2.608 2.608 0 0 1 2.608 2.608 2.608 2.608 0 0 1-2.606 2.607z" class="cls-1" transform="translate(517.152 70.821)"/>
    <path id="패스_116" d="M-482.261-45.94a7.031 7.031 0 0 0-5.259 2.371 6.975 6.975 0 0 0-4.82-2.358c-.15-.008-.3-.013-.449-.013a7.112 7.112 0 0 0-6.239 3.757 6.351 6.351 0 0 0-.773 3.1v10.691h3.524v-11a2.713 2.713 0 0 1 1.119-2.219 3.576 3.576 0 0 1 5.877 2.689v10.527h3.522v-11a2.71 2.71 0 0 1 1.121-2.219 3.574 3.574 0 0 1 5.875 2.689v10.527h3.524V-39.07a6.214 6.214 0 0 0-.539-2.629 7.105 7.105 0 0 0-6.483-4.241z" class="cls-1" transform="translate(532.378 92.655)"/>
    <path id="패스_117" d="M-469.882-43.276a8.725 8.725 0 0 0-2.788-1.881 8.706 8.706 0 0 0-3.415-.689 8.706 8.706 0 0 0-3.415.689 8.733 8.733 0 0 0-2.79 1.881 8.74 8.74 0 0 0-1.879 2.788 8.709 8.709 0 0 0-.691 3.415 8.709 8.709 0 0 0 .691 3.415 8.748 8.748 0 0 0 1.879 2.79 8.727 8.727 0 0 0 2.79 1.879 8.706 8.706 0 0 0 3.415.689 8.8 8.8 0 0 0 4.392-1.177v-2.912a.077.077 0 0 0-.015-.045.979.979 0 0 0-1.434-.287 3.228 3.228 0 0 1-.858.494 5.311 5.311 0 0 1-6.639-7.57 4.321 4.321 0 0 1 1.842-1.834 5.3 5.3 0 0 1 7.963 4.559v8.6h3.524v-8.6a8.706 8.706 0 0 0-.69-3.416 8.714 8.714 0 0 0-1.882-2.788z" class="cls-1" transform="translate(545.488 92.737)"/>
    <path id="패스_118" d="M-457.858-45.846h-3.526v10.122a3.645 3.645 0 0 1-1.7 3.092 4.447 4.447 0 0 1-7.048-3.564v-9.65h-3.524v9.65a7.869 7.869 0 0 0 .621 3.075 7.887 7.887 0 0 0 1.692 2.508 7.878 7.878 0 0 0 2.512 1.694 7.851 7.851 0 0 0 3.074.62 7.851 7.851 0 0 0 3.073-.62 7.848 7.848 0 0 0 2.51-1.694 7.862 7.862 0 0 0 1.694-2.508 7.868 7.868 0 0 0 .621-3.075z" class="cls-1" transform="translate(555.321 92.737)"/>
    <path id="패스_119" d="M-445.844-45.94a7.031 7.031 0 0 0-5.261 2.371 6.975 6.975 0 0 0-4.818-2.358c-.152-.008-.3-.013-.451-.013a7.1 7.1 0 0 0-6.241 3.764 6.347 6.347 0 0 0-.77 3.1v10.689h3.522v-11a2.707 2.707 0 0 1 1.121-2.219 3.575 3.575 0 0 1 5.875 2.69v10.527h3.524v-11a2.707 2.707 0 0 1 1.121-2.219 3.576 3.576 0 0 1 5.875 2.69v10.527h3.522v-10.685a6.209 6.209 0 0 0-.528-2.595 7.1 7.1 0 0 0-6.491-4.269z" class="cls-1" transform="translate(564.335 92.655)"/>
    <path id="패스_120" d="M-445.545-38.014a1.806 1.806 0 0 0-2.535 2.531.982.982 0 0 0 .272.27 1.806 1.806 0 0 0 2.533-2.529 1.008 1.008 0 0 0-.27-.272z" class="cls-1" transform="translate(577.448 99.292)"/>
    <path id="패스_121" d="M-430.561-45.929h-3.873V-28.4h3.873z" class="cls-1" transform="translate(589.739 92.664)"/>
    <path id="패스_122" d="M-430.66-43.276a8.731 8.731 0 0 0-2.79-1.881 8.706 8.706 0 0 0-3.415-.689 8.706 8.706 0 0 0-3.415.689 8.745 8.745 0 0 0-2.788 1.881 8.745 8.745 0 0 0-1.881 2.788 8.707 8.707 0 0 0-.689 3.415 8.707 8.707 0 0 0 .689 3.415 8.753 8.753 0 0 0 1.881 2.79 8.739 8.739 0 0 0 2.788 1.879 8.706 8.706 0 0 0 3.415.689 8.789 8.789 0 0 0 4.392-1.177v-2.916a.071.071 0 0 0-.015-.043.981.981 0 0 0-1.438-.284 3.157 3.157 0 0 1-.854.494 5.312 5.312 0 0 1-6.64-7.574 4.32 4.32 0 0 1 1.842-1.834 5.3 5.3 0 0 1 7.963 4.559v8.6h3.526v-8.6a8.708 8.708 0 0 0-.691-3.415 8.738 8.738 0 0 0-1.88-2.786z" class="cls-1" transform="translate(579.907 92.737)"/>
    <circle id="타원_8" cx="4.377" cy="4.377" r="4.377" class="cls-1" transform="translate(152.904 34.97)"/>
</svg>
