<?xml version="1.0" encoding="utf-8"?>
<!-- Generator: Adobe Illustrator 24.3.0, SVG Export Plug-In . SVG Version: 6.00 Build 0)  -->
<svg version="1.1" id="레이어_1" xmlns="http://www.w3.org/2000/svg" xmlns:xlink="http://www.w3.org/1999/xlink" x="0px"
	 y="0px" viewBox="0 0 150 75" style="enable-background:new 0 0 150 75;" xml:space="preserve">
<style type="text/css">
	.st0{fill:#FFFFFF;}
</style>
<g>
	<g>
		<path class="st0" d="M19.6,59.3C8.8,59.3,0,50.5,0,39.7C0,35,1.7,30.5,4.7,27c2.6-3,6-5.1,9.7-6.2C15.3,9.2,25,0,36.8,0
			C45.9,0,54,5.4,57.5,13.5c2.5-1.3,5.2-2.1,8.1-2.1C74,11.5,81,17.8,82.1,26c4.7,0.6,8.9,3.2,11.6,7.2c0.7,1.1,0.5,2.6-0.6,3.3
			c-1.1,0.7-2.6,0.5-3.3-0.6c-2.2-3.3-5.9-5.3-9.9-5.3h-2.4v-2.4c0-6.6-5.4-11.9-11.9-11.9c-2.8,0-5.6,1-7.7,2.8l-2.9,2.5l-1-3.7
			c-2.1-7.7-9.1-13.1-17.1-13.1c-9.8,0-17.7,7.9-17.7,17.7l0,0c0,0.1,0,0.1,0,0.2l0,2.1l-2,0.3c-3.4,0.6-6.5,2.3-8.8,5
			c-2.3,2.7-3.5,6.1-3.5,9.6c0,8.2,6.6,14.8,14.8,14.8c1.3,0,2.4,1.1,2.4,2.4C22,58.3,21,59.3,19.6,59.3z"/>
		<path class="st0" d="M46.2,43.1c-1.9,0-3.6,0.8-4.8,2.2c-1.1-1.3-2.7-2.1-4.4-2.2c-0.1,0-0.3,0-0.4,0c-2.3,0-4.5,1.2-5.8,3.5
			c-0.5,0.9-0.7,1.9-0.7,2.9v9.9h3.2V49.1c0-0.8,0.4-1.6,1-2c2.6-1.8,5.4,0,5.4,2.5v9.7H43V49.1c0-0.8,0.4-1.6,1-2
			c2.6-1.8,5.4,0,5.4,2.5v9.7h3.2v-9.8c0-0.8-0.1-1.7-0.5-2.4C51,44.5,48.7,43.1,46.2,43.1z"/>
		<path class="st0" d="M69.7,45.6c-0.7-0.7-1.6-1.3-2.6-1.7c-1-0.4-2.1-0.6-3.1-0.6s-2.2,0.2-3.1,0.6c-1,0.4-1.8,1-2.6,1.7
			c-0.7,0.7-1.3,1.6-1.7,2.6c-0.4,1-0.6,2.1-0.6,3.1c0,1.1,0.2,2.2,0.6,3.1c0.4,1,1,1.8,1.7,2.6c0.7,0.7,1.6,1.3,2.6,1.7
			c1,0.4,2.1,0.6,3.1,0.6c1.4,0,2.8-0.4,4-1.1v-2.7c0,0,0,0,0,0c-0.4-0.5-1-0.6-1.3-0.3c-0.2,0.2-0.5,0.3-0.8,0.5
			c-4.3,1.7-8.4-2.7-6.1-7c0.4-0.7,1-1.3,1.7-1.7c3.7-1.9,7.3,0.7,7.3,4.2v7.9h3.2v-7.9c0-1.1-0.2-2.2-0.6-3.1
			C71,47.2,70.4,46.3,69.7,45.6z"/>
		<path class="st0" d="M89.8,43.2h-3.2l0,9.3c0,1.2-0.6,2.2-1.6,2.9c-3.2,2-6.5-0.3-6.5-3.3v-8.9h-3.2v8.9c0,1,0.2,1.9,0.6,2.8
			c0.4,0.9,0.9,1.6,1.6,2.3c0.7,0.7,1.4,1.2,2.3,1.6c0.9,0.4,1.9,0.6,2.8,0.6c1,0,1.9-0.2,2.8-0.6c0.9-0.4,1.6-0.9,2.3-1.6
			c0.7-0.7,1.2-1.4,1.6-2.3c0.4-0.9,0.6-1.9,0.6-2.8V43.2z"/>
		<path class="st0" d="M109.2,43.1c-1.9,0-3.6,0.8-4.8,2.2c-1.1-1.3-2.7-2.1-4.4-2.2c-0.1,0-0.3,0-0.4,0c-2.3,0-4.5,1.2-5.8,3.5
			c-0.5,0.9-0.7,1.9-0.7,2.9v9.9h3.2V49.1c0-0.8,0.4-1.6,1-2c2.6-1.8,5.4,0,5.4,2.5v9.7h3.2V49.1c0-0.8,0.4-1.6,1-2
			c2.6-1.8,5.4,0,5.4,2.5v9.7h3.2v-9.8c0-0.8-0.1-1.6-0.5-2.4C114,44.5,111.7,43.1,109.2,43.1z"/>
		<path class="st0" d="M121.6,56.5c-1.6-1.1-3.4,0.7-2.3,2.3c0.1,0.1,0.2,0.2,0.3,0.3c1.6,1.1,3.4-0.7,2.3-2.3
			C121.8,56.6,121.7,56.5,121.6,56.5z"/>
		<path class="st0" d="M146.7,43.1h-3.6v16.2h3.6V43.1z"/>
		<path class="st0" d="M137.6,45.6c-0.7-0.7-1.6-1.3-2.6-1.7c-1-0.4-2.1-0.6-3.1-0.6c-1.1,0-2.2,0.2-3.1,0.6c-1,0.4-1.8,1-2.6,1.7
			c-0.7,0.7-1.3,1.6-1.7,2.6c-0.4,1-0.6,2.1-0.6,3.1c0,1.1,0.2,2.2,0.6,3.1c0.4,1,1,1.8,1.7,2.6c0.7,0.7,1.6,1.3,2.6,1.7
			c1,0.4,2.1,0.6,3.1,0.6c1.4,0,2.8-0.4,4-1.1v-2.7c0,0,0,0,0,0c-0.4-0.5-1-0.6-1.3-0.3c-0.2,0.2-0.5,0.3-0.8,0.5
			c-4.3,1.7-8.4-2.7-6.1-7c0.4-0.7,1-1.3,1.7-1.7c3.7-1.9,7.3,0.7,7.3,4.2v7.9h3.2l0,0v-7.9c0-1.1-0.2-2.2-0.6-3.1
			C138.9,47.2,138.3,46.3,137.6,45.6z"/>
		<circle class="st0" cx="145" cy="36.3" r="4"/>
	</g>
	<g>
		<path class="st0" d="M29.6,65.8h4v5.6h-4V65.8z M30.6,70.7h2.1v-4h-2.1V70.7z M37.3,69.2h-1.3v4.4h-1V65h1v3.4h1.3V69.2z"/>
		<path class="st0" d="M45.8,69.1v0.8H38v-0.8H45.8z M45,66.8c0,1-1.2,1.6-3.1,1.6c-1.9,0-3.1-0.6-3.1-1.6c0-1,1.2-1.6,3.1-1.6
			C43.8,65.2,45,65.8,45,66.8z M44.8,70.6v2.9H39v-2.9H44.8z M39.9,66.8c0,0.6,0.8,0.9,2.1,0.9c1.3,0,2-0.3,2-0.9
			c0-0.6-0.8-0.9-2-0.9C40.6,66,39.9,66.3,39.9,66.8z M39.9,71.4v1.3h4v-1.3H39.9z"/>
		<path class="st0" d="M49.3,65.9c0,2.2-0.3,4.1-1.9,5.8l-0.8-0.5c1.2-1.3,1.6-2.7,1.7-4.4H47v-0.8H49.3z M51.7,65.9
			c0,2.2-0.3,4.5-1.8,6.4l-0.8-0.6c1.2-1.5,1.6-3.2,1.7-5h-1.1v-0.8H51.7z M54.8,69.3h-1.2v4.3h-1V65h1v3.5h1.2V69.3z"/>
		<path class="st0" d="M58.7,67.5c0,1.4,0.9,2.9,2.2,3.5l-0.5,0.8c-1-0.4-1.8-1.4-2.2-2.5c-0.4,1.2-1.1,2.2-2.2,2.7l-0.6-0.8
			c1.3-0.6,2.2-2.2,2.2-3.7v-0.8h-1.9v-0.8h4.8v0.8h-1.9V67.5z M62.6,65v8.6h-1V65H62.6z"/>
		<path class="st0" d="M70.7,69.7c-0.8-0.3-1.3-0.9-1.6-1.5c-0.3,0.8-0.9,1.5-1.7,1.8l-0.5-0.7c1.1-0.5,1.7-1.6,1.7-2.6v-1.1h0.9
			v1.1c0,0.9,0.6,1.9,1.7,2.3L70.7,69.7z M74.2,72c0,1-1.1,1.6-2.9,1.6c-1.8,0-2.9-0.6-2.9-1.6c0-1,1.1-1.6,2.9-1.6
			C73.1,70.4,74.2,71,74.2,72z M73.3,72c0-0.5-0.7-0.8-1.9-0.8c-1.2,0-1.9,0.3-1.9,0.8c0,0.5,0.7,0.8,1.9,0.8
			C72.5,72.8,73.3,72.5,73.3,72z M72.4,70h-0.9v-4.8h0.9v2h0.9V65h0.9v5.3h-0.9V68h-0.9V70z"/>
		<path class="st0" d="M80,65.5c0,2.2-1.5,3.8-4,4.4l-0.4-0.8c2-0.5,3.2-1.6,3.4-2.9h-3v-0.8H80z M76.7,70.4h5.6v3.2h-1v-2.4h-4.7
			V70.4z M83.6,67.9h-1.2V70h-1v-5h1v2.1h1.2V67.9z"/>
		<path class="st0" d="M87.4,66.3h2v0.8h-5v-0.8h2v-1.2h1V66.3z M89,69.7c0,1.2-0.9,2-2.1,2c-1.2,0-2.1-0.8-2.1-2c0-1.2,0.9-2,2.1-2
			C88.1,67.7,89,68.6,89,69.7z M88.1,69.7c0-0.7-0.5-1.2-1.2-1.2c-0.7,0-1.2,0.5-1.2,1.2c0,0.7,0.5,1.2,1.2,1.2
			C87.6,70.9,88.1,70.5,88.1,69.7z M92.4,69.3h-1.3v4.3h-1V65h1v3.4h1.3V69.3z"/>
		<path class="st0" d="M100.9,69.3v0.8h-7.8v-0.8H100.9z M95.1,72.6h5v0.8h-6v-2.5h1V72.6z M100,68.3h-5.9v-3h1v2.2h4.9V68.3z"/>
		<path class="st0" d="M107.7,71.2h-2.4l-0.6,2.2h-1.1l2.3-7.7h1.3l2.3,7.7h-1.2L107.7,71.2z M107.4,70.2l-0.3-1
			c-0.2-0.8-0.4-1.7-0.7-2.6h0c-0.2,0.9-0.4,1.7-0.6,2.6l-0.3,1H107.4z"/>
		<path class="st0" d="M110.4,65.7h1.1v7.7h-1.1V65.7z"/>
		<path class="st0" d="M112.9,74.1c0.6-0.3,1-0.7,1-1.3c0,0-0.1,0-0.1,0c-0.4,0-0.7-0.2-0.7-0.7c0-0.4,0.3-0.7,0.8-0.7
			c0.5,0,0.8,0.4,0.8,1.2c0,1-0.6,1.8-1.6,2.1L112.9,74.1z"/>
		<path class="st0" d="M117.9,65.6h4.4v6h-4.4V65.6z M119.4,70.4h1.3v-3.6h-1.3V70.4z M126,69.3h-1.2v4.4h-1.5v-8.9h1.5v3.2h1.2
			V69.3z"/>
		<path class="st0" d="M134.5,68.9v1.2h-8.1v-1.2H134.5z M133.8,66.8c0,1.1-1.3,1.8-3.3,1.8c-2,0-3.3-0.7-3.3-1.8
			c0-1.1,1.3-1.8,3.3-1.8C132.5,65,133.8,65.7,133.8,66.8z M133.6,70.6v3.1h-6.2v-3.1H133.6z M128.8,66.8c0,0.4,0.6,0.6,1.7,0.6
			c1.1,0,1.7-0.2,1.7-0.6c0-0.4-0.6-0.6-1.7-0.6C129.4,66.2,128.8,66.3,128.8,66.8z M128.9,71.8v0.7h3.2v-0.7H128.9z"/>
		<path class="st0" d="M141.6,71.7h-2.3l-0.4,2H137l2.4-8.5h2.2l2.4,8.5H142L141.6,71.7z M141.2,70.1l-0.2-0.7
			c-0.2-0.8-0.4-1.9-0.6-2.7h0c-0.2,0.9-0.4,1.9-0.6,2.7l-0.2,0.7H141.2z"/>
		<path class="st0" d="M144.8,65.2h1.9v8.5h-1.9V65.2z"/>
	</g>
</g>
</svg>
