<svg xmlns="http://www.w3.org/2000/svg" width="28" height="28" viewBox="0 0 28 28">
    <g data-name="그룹 10777">
        <path data-name="사각형 456" transform="translate(0 .001)" style="fill:none" d="M0 0h28v28H0z"/>
    </g>
    <g data-name="그룹 10778">
        <path data-name="패스 10137" d="m21.978 8.312-5.635-5.635A2.331 2.331 0 0 0 14.7 2H6.333a2.33 2.33 0 0 0-2.321 2.333L4 23a2.33 2.33 0 0 0 2.322 2.333h14.011A2.34 2.34 0 0 0 22.667 23V9.968a2.34 2.34 0 0 0-.689-1.656zM16.6 17.167h-2.1v3.5a1.167 1.167 0 1 1-2.333 0v-3.5h-2.089a.577.577 0 0 1-.408-.992l3.267-3.255a.6.6 0 0 1 .828 0l3.255 3.255a.589.589 0 0 1-.42.992zm-.933-7A1.17 1.17 0 0 1 14.5 9V3.75l6.417 6.417z" transform="translate(.667 .33)" style="fill:#d8d8d8"/>
    </g>
</svg>
