<svg xmlns="http://www.w3.org/2000/svg" width="24" height="24" viewBox="0 0 24 24">
    <g data-name="그룹 10704">
        <path data-name="사각형 316" style="fill:none" d="M0 0h24v24H0z"/>
    </g>
    <g data-name="그룹 10706">
        <g data-name="그룹 10705">
            <path data-name="패스 10104" d="M5.224 11.9h4.448A2.231 2.231 0 0 0 11.9 9.672V5.224A2.231 2.231 0 0 0 9.672 3H5.224A2.231 2.231 0 0 0 3 5.224v4.448A2.231 2.231 0 0 0 5.224 11.9z" transform="translate(-1.008 -1.008)" style="fill:#fff"/>
            <path data-name="패스 10105" d="M5.224 21.9h4.448a2.231 2.231 0 0 0 2.228-2.228v-4.448A2.231 2.231 0 0 0 9.672 13H5.224A2.231 2.231 0 0 0 3 15.224v4.448A2.231 2.231 0 0 0 5.224 21.9z" transform="translate(-1.008 .112)" style="fill:#fff"/>
            <path data-name="패스 10106" d="M13 5.224v4.448a2.231 2.231 0 0 0 2.224 2.228h4.448A2.231 2.231 0 0 0 21.9 9.672V5.224A2.231 2.231 0 0 0 19.672 3h-4.448A2.231 2.231 0 0 0 13 5.224z" transform="translate(.112 -1.008)" style="fill:#fff"/>
            <path data-name="패스 10107" d="M15.224 21.9h4.448a2.231 2.231 0 0 0 2.228-2.228v-4.448A2.231 2.231 0 0 0 19.672 13h-4.448A2.231 2.231 0 0 0 13 15.224v4.448a2.231 2.231 0 0 0 2.224 2.228z" transform="translate(.112 .112)" style="fill:#fff"/>
        </g>
    </g>
</svg>
