<?xml version="1.0" encoding="UTF-8"?>
<svg width="20px" height="17px" viewBox="0 0 20 17" version="1.1" xmlns="http://www.w3.org/2000/svg" xmlns:xlink="http://www.w3.org/1999/xlink">
    <title>Group 13</title>
    <defs>
        <polygon id="path-1" points="1.02564103e-05 0.0225846154 19.929641 0.0225846154 19.929641 15.3845333 1.02564103e-05 15.3845333"></polygon>
        <polygon id="path-3" points="0 15.4646154 19.929641 15.4646154 19.929641 0.102564103 0 0.102564103"></polygon>
    </defs>
    <g id="Page-1" stroke="none" stroke-width="1" fill="none" fill-rule="evenodd">
        <g id="아바타" transform="translate(-345.000000, -1247.000000)">
            <g id="Group-13" transform="translate(345.000000, 1247.000000)">
                <path d="M11.6687692,5.92830769 L14.1585128,7.52820513 L11.6687692,9.12810256 L11.6687692,5.92830769 Z M10.8987179,10.5415385 C10.9753333,10.5831795 11.0621026,10.6049231 11.1470256,10.6049231 C11.2453846,10.6049231 11.343641,10.5765128 11.4304103,10.5214359 L15.4052821,7.96820513 C15.5552308,7.86984615 15.6451795,7.70482051 15.6451795,7.52820513 C15.6451795,7.35158974 15.5552308,7.18502564 15.4052821,7.08994872 L11.4304103,4.53497436 C11.2687692,4.43169231 11.0652821,4.42338462 10.8987179,4.51671795 C10.7320513,4.60666667 10.6271282,4.78328205 10.6271282,4.97333333 L10.6271282,10.0831795 C10.6271282,10.2747692 10.7320513,10.4497436 10.8987179,10.5415385 L10.8987179,10.5415385 Z" id="Fill-1" fill="#F7778A"></path>
                <path d="M4.30148718,11.7581333 L3.874,12.0329026 L3.874,10.0396718 L4.30148718,10.3143385 L5.42487179,11.0362872 L4.30148718,11.7581333 Z M6.20148718,10.7632615 L4.30148718,9.54203077 L3.72558974,9.17177436 C3.6885641,9.14828718 3.64784615,9.13546667 3.60641026,9.12787692 C3.53471795,9.11495385 3.46015385,9.12356923 3.39441026,9.16038974 C3.29061538,9.21638974 3.22517949,9.32644103 3.22517949,9.44490256 L3.22517949,12.6277744 C3.22517949,12.747159 3.29061538,12.8559795 3.39441026,12.9133128 C3.44210256,12.9392615 3.49605128,12.9526974 3.54907692,12.9526974 C3.56835897,12.9526974 3.5874359,12.9503385 3.60641026,12.9469538 C3.64794872,12.9393641 3.68846154,12.9242872 3.72558974,12.9006974 L4.30148718,12.5306462 L6.20148718,11.3103385 C6.29492308,11.2490051 6.35092308,11.1462359 6.35092308,11.0362872 C6.35092308,10.9262359 6.29492308,10.8225436 6.20148718,10.7632615 L6.20148718,10.7632615 Z" id="Fill-3" fill="#F7778A"></path>
                <g id="Group-7" transform="translate(0.000000, 0.080000)">
                    <mask id="mask-2" fill="white">
                        <use xlink:href="#path-1"></use>
                    </mask>
                    <g id="Clip-6"></g>
                    <path d="M19.2345744,13.6467897 C19.2345744,14.2216615 18.7667795,14.6894564 18.1918051,14.6894564 L9.07765128,14.6894564 C9.29683077,14.3985846 9.42852308,14.0381744 9.42852308,13.6467897 L9.42852308,13.5355077 L8.73334359,13.5355077 L8.73334359,13.6467897 C8.73334359,14.2216615 8.26565128,14.6894564 7.69067692,14.6894564 L5.83077949,14.6894564 L4.44380513,14.6894564 L1.73775385,14.6894564 C1.16288205,14.6894564 0.695087179,14.2216615 0.695087179,13.6467897 L0.695087179,8.2657641 C0.695087179,7.69089231 1.16288205,7.22309744 1.73775385,7.22309744 L4.09293333,7.22309744 L4.78801026,7.22309744 L7.69067692,7.22309744 C8.26565128,7.22309744 8.73334359,7.69089231 8.73334359,8.2657641 L8.73334359,11.4076103 L9.42852308,11.4076103 L9.42852308,8.2657641 C9.42852308,7.30750769 8.64893333,6.52802051 7.69067692,6.52802051 L4.78801026,6.52802051 L4.78801026,1.76032821 C4.78801026,1.18545641 5.25580513,0.717661538 5.83077949,0.717661538 L18.1918051,0.717661538 C18.7667795,0.717661538 19.2345744,1.18545641 19.2345744,1.76032821 L19.2345744,13.6467897 Z M18.1918051,0.0225846154 L5.83077949,0.0225846154 C4.87252308,0.0225846154 4.09293333,0.802174359 4.09293333,1.76032821 L4.09293333,6.52802051 L1.73775385,6.52802051 C0.779497436,6.52802051 1.02564103e-05,7.30750769 1.02564103e-05,8.2657641 L1.02564103e-05,13.6467897 C1.02564103e-05,14.6051487 0.779497436,15.3845333 1.73775385,15.3845333 L5.83077949,15.3845333 L7.69067692,15.3845333 L18.1918051,15.3845333 C19.1501641,15.3845333 19.9296513,14.6051487 19.9296513,13.6467897 L19.9296513,1.76032821 C19.9296513,0.802174359 19.1501641,0.0225846154 18.1918051,0.0225846154 L18.1918051,0.0225846154 Z" id="Fill-5" fill="#344154" mask="url(#mask-2)"></path>
                </g>
                <polygon id="Fill-8" fill="#344154" points="10.9299897 11.5638256 10.4731692 11.1079282 10.3296821 11.2510051 10.0495795 11.5306974 10.3296821 11.8102872 10.6346051 12.1145949 10.3296821 12.1145949 9.94434872 12.1145949 9.92660513 12.1145949 9.7184 12.1145949 9.42845128 12.1145949 9.09706667 12.1145949 8.73337436 12.1145949 8.22168205 12.1145949 8.22168205 12.988441 8.73337436 12.988441 9.42845128 12.988441 9.94434872 12.988441 10.0336821 12.988441 10.3296821 12.988441 10.756041 12.988441 10.4024 13.3413641 10.3296821 13.4138769 10.0495795 13.6935692 10.3296821 13.973159 10.4731692 14.116441 10.9299897 13.660441 11.300759 13.2902872 11.9801436 12.6121333 11.300759 11.9338769"></polygon>
                <mask id="mask-4" fill="white">
                    <use xlink:href="#path-3"></use>
                </mask>
                <g id="Clip-11"></g>
                <polygon id="Fill-10" fill="#344154" mask="url(#mask-4)" points="4.788 1.84041026 19.2344615 1.84041026 19.2344615 0.79774359 4.788 0.79774359"></polygon>
                <polygon id="Fill-12" fill="#344154" mask="url(#mask-4)" points="0.521333333 7.96266667 8.90717949 7.96266667 8.90717949 7.09374359 0.521333333 7.09374359"></polygon>
            </g>
        </g>
    </g>
</svg>