<svg xmlns="http://www.w3.org/2000/svg" xmlns:xlink="http://www.w3.org/1999/xlink" width="20" height="18" viewBox="0 0 20 18">
    <defs>
        <path id="a" d="M.023.006h10.193v11.131H.023z"/>
        <path id="c" d="M.041.032h.486V.3H.041z"/>
    </defs>
    <g fill="none" fill-rule="evenodd">
        <path fill="#474F59" d="M15.787 13.343a2.495 2.495 0 0 0 1.164-2.117 2.51 2.51 0 0 0-3.233-2.4l-.094.03.18.593.089-.027a1.889 1.889 0 0 1 2.437 1.804 1.88 1.88 0 0 1-1.153 1.737.454.454 0 0 0 .085.869 3.334 3.334 0 0 1 2.517 2.939h-2.186v.62h2.821v-.31a3.94 3.94 0 0 0-2.627-3.738"/>
        <g transform="translate(4.86 6.346)">
            <mask id="b" fill="#fff">
                <use xlink:href="#a"/>
            </mask>
            <path fill="#474F59" d="M10.032 10.735zm0 .218H.208h9.824zm-9.824-.218zM6.26 5.56a2.527 2.527 0 0 0 0 0zm-2.71.26zM1.796 8.016a4.26 4.26 0 0 1 2.278-1.445.585.585 0 0 0 .472-.578.588.588 0 0 0-.362-.543 2.41 2.41 0 0 1-1.448-2.608A2.418 2.418 0 0 1 4.889.822a2.417 2.417 0 0 1 2.645 2.403c0 .974-.58 1.846-1.477 2.224a.588.588 0 0 0 .04 1.102c.026.009.061.018.067.02a4.256 4.256 0 0 1 2.28 1.445c.544.666.87 1.463.948 2.316H.847c.079-.853.405-1.65.95-2.316zm4.947-2.227zm.108.15A3.227 3.227 0 0 0 8.34 3.225 3.223 3.223 0 0 0 5.12.005a3.223 3.223 0 0 0-3.22 3.22c0 1.106.572 2.129 1.489 2.714a5.102 5.102 0 0 0-3.366 4.796v.403h10.193v-.403a5.099 5.099 0 0 0-3.365-4.796z" mask="url(#b)"/>
        </g>
        <path fill="#474F59" d="M6.09 8.826a2.51 2.51 0 0 0-3.232 2.4c0 .867.441 1.66 1.164 2.117a3.94 3.94 0 0 0-2.628 3.738v.31h2.822v-.62H2.029a3.334 3.334 0 0 1 2.518-2.94.452.452 0 0 0 .367-.447c0-.185-.11-.35-.282-.42a1.881 1.881 0 0 1-1.146-1.9 1.893 1.893 0 0 1 1.528-1.692 1.9 1.9 0 0 1 .902.05l.088.027.181-.594-.094-.029z"/>
        <path fill="#2475F9" d="M15.602 5.772a.257.257 0 0 0-.101-.253c-.405-.297-.628-.68-.628-1.081 0-.872 1.033-1.581 2.303-1.581s2.304.71 2.304 1.581c0 .872-1.034 1.582-2.304 1.582a3.23 3.23 0 0 1-.608-.057.26.26 0 0 0-.167.025l-.927.484.128-.7zm1.574-3.43c-1.554 0-2.818.94-2.818 2.096 0 .519.252 1.012.71 1.395l-.194 1.065a.258.258 0 0 0 .372.274l1.316-.688c.2.033.407.05.614.05 1.554 0 2.818-.94 2.818-2.096 0-1.155-1.264-2.095-2.818-2.095zM4.493 5.518a.257.257 0 0 0-.101.253l.127.701-.927-.485a.26.26 0 0 0-.167-.024 3.224 3.224 0 0 1-.607.057c-1.27 0-2.304-.71-2.304-1.582 0-.872 1.034-1.581 2.304-1.581 1.27 0 2.303.71 2.303 1.581 0 .4-.223.784-.628 1.08zm.433.315c.458-.383.71-.876.71-1.395 0-1.155-1.265-2.095-2.818-2.095C1.264 2.343 0 3.283 0 4.438c0 1.156 1.264 2.096 2.818 2.096.207 0 .413-.017.614-.05l1.315.688a.255.255 0 0 0 .271-.02.258.258 0 0 0 .101-.254l-.193-1.065zM8.839 2.329h2.666c.09 0 .162-.078.162-.175 0-.097-.072-.175-.162-.175H8.84c-.09 0-.162.078-.162.175 0 .097.072.175.162.175M8.839 3.586h2.666c.09 0 .162-.078.162-.175 0-.096-.072-.174-.162-.174H8.84c-.09 0-.162.078-.162.174 0 .097.072.175.162.175M12.473.714a.086.086 0 0 1 0 0M8.578 4.835H7.78c-.047 0-.085-.042-.085-.093v.642a.555.555 0 0 0 .085.007h.207l.338-.366c.114-.123.093-.19.254-.19M7.78.658c-.048 0-.086.041-.086.092 0-.05.038-.092.085-.092"/>
        <g transform="translate(12.352 .069)">
            <mask id="d" fill="#fff">
                <use xlink:href="#c"/>
            </mask>
            <path fill="#2475F9" d="M.527.3a.588.588 0 0 1 0 0" mask="url(#d)"/>
        </g>
        <path fill="#2475F9" d="M12.394 4.835h-.114c.16 0-.544.067-.43.19l.338.366H12.394c.029 0 .057-.003.085-.007v-.642c0 .051-.038.093-.085.093"/>
        <path fill="#2475F9" d="M12.28 4.835H8.578c-.16 0-.14.067-.254.19l-.338.366h4.202l-.339-.366c-.113-.123.592-.19.43-.19"/>
        <path fill="#2475F9" d="M12.922.441a.588.588 0 0 0-.528-.34H7.779a.594.594 0 0 0-.513.313.67.67 0 0 0-.088.336v3.992c0 .327.225.597.516.642V.75c0-.05.038-.092.085-.092h4.615c.035 0 .066.023.079.056a.099.099 0 0 1 .006.036v4.634c.291-.045.516-.315.516-.642V.75a.686.686 0 0 0-.073-.309"/>
    </g>
</svg>
