<svg xmlns="http://www.w3.org/2000/svg" width="315" height="208" fill="none" viewBox="0 0 315 208">
    <path fill="#D8D6D4" fill-opacity=".3" d="M16 14H315V208H16z"/>
    <g filter="url(#prefix__filter0_d)">
        <g clip-path="url(#prefix__clip0)">
            <path fill="#E6E6E6" d="M292.894.165H.125v186.718h292.769V.165z"/>
            <path fill="#F5F5F5" d="M284.522 23.584H8.497v152.253h276.025V23.585z"/>
            <path fill="#71C8F9" d="M292.769 0H0v12.386h292.769V0z"/>
            <path fill="#F5F5F5" d="M9.243 8.628c1.273 0 2.305-1.028 2.305-2.296 0-1.267-1.032-2.295-2.305-2.295-1.273 0-2.306 1.028-2.306 2.295 0 1.268 1.033 2.296 2.306 2.296zM17.993 8.628c1.273 0 2.306-1.028 2.306-2.296 0-1.267-1.033-2.295-2.306-2.295-1.273 0-2.305 1.028-2.305 2.295 0 1.268 1.032 2.296 2.305 2.296zM26.743 8.628c1.273 0 2.306-1.028 2.306-2.296 0-1.267-1.033-2.295-2.306-2.295-1.273 0-2.305 1.028-2.305 2.295 0 1.268 1.032 2.296 2.305 2.296z"/>
            <path fill="#E6E6E6" d="M96.445 36.107H42.459v58.326h53.986V36.107zM173.502 36.107h-53.986v58.326h53.986V36.107zM250.559 36.107h-53.986v58.326h53.986V36.107zM96.445 104.99H42.459v58.326h53.986V104.99zM173.502 104.99h-53.986v58.326h53.986V104.99zM250.559 104.99h-53.986v58.326h53.986V104.99z"/>
            <path fill="#FFB9B9" d="M63.428 71.375c5.04 0 9.126-4.069 9.126-9.088 0-5.019-4.085-9.087-9.126-9.087-5.04 0-9.125 4.068-9.125 9.087 0 5.02 4.086 9.088 9.126 9.088z"/>
            <path fill="#FFB9B9" d="M59.864 69.245s1.14 5.396 1.14 5.964c0 .568 5.419 3.124 5.419 3.124l4.848-.852 1.711-5.112s-2.852-4.26-2.852-5.964l-10.266 2.84z"/>
            <path fill="#2F2E41" d="M55.515 54.966s2.897-6.252 8.45-4.81c5.554 1.444 8.693 3.607 8.934 5.771.242 2.164-.12 5.41-.12 5.41s-.604-4.448-4.467-3.486c-3.863.962-9.9.24-9.9.24l-.965 8.656s-1.087-1.563-2.294-.6c-1.207.961-3.501-9.258.362-11.181z"/>
            <path fill="#71C8F9" d="M92.374 92.249l-2.28-10.226c-1.143-3.408-3.993-6.246-3.993-6.246l-14.063-4.925h-.004c-.027 1.238-.446 2.436-1.197 3.423-.752.987-1.796 1.712-2.986 2.073-4.279 1.417-7.225-3.358-7.225-3.358l-11.888 9.033s-3.706 3.127-3.42 9.09l-.394 3.32H93.47l-1.096-2.184z"/>
            <path fill="#2F2E41" d="M140.28 75.904c6.841 0 12.386-5.863 12.386-13.094 0-7.232-5.545-13.094-12.386-13.094-6.841 0-12.387 5.862-12.387 13.094 0 7.231 5.546 13.094 12.387 13.094z"/>
            <path fill="#2F2E41" d="M151.27 82.624c3.598 0 6.516-2.905 6.516-6.489 0-3.583-2.918-6.489-6.516-6.489-3.599 0-6.517 2.906-6.517 6.49 0 3.583 2.918 6.488 6.517 6.488z"/>
            <path fill="#9F616A" d="M146.731 67.445l3.491 9.038-8.843 3.708-.777-1.752-2.714-6.127 8.843-4.867z"/>
            <path fill="#9F616A" d="M139.75 73.355c4.306 0 7.796-3.476 7.796-7.764s-3.49-7.764-7.796-7.764c-4.305 0-7.796 3.476-7.796 7.764s3.491 7.764 7.796 7.764z"/>
            <path fill="#2F2E41" d="M133.377 64.74c4.901-3.257 6.365-4.035 11.982-2.777l.337-8.16-14.514 3.032 2.195 7.904z"/>
            <path fill="#575A89" d="M164.882 83.2l-.215.026c-.005-.008-.011-.015-.018-.022-.853-.849-4.924-2.394-7.96-3.465h-.003c-1.929-.682-3.437-1.17-3.437-1.17l-3.671-3.759c-.924 1.035-2.878 1.835-4.734 2.398-1.421.429-2.867.772-4.33 1.028h-.003l-.76 2.417s-8.612 6.492-9.308 7.184h-.003v.007c-.056.08-.079.176-.065.272v.017c-.434 2.073-.658 4.183-.667 6.3h37.504V92.24c0-3.012-2.33-9.04-2.33-9.04z"/>
            <path fill="#2F2E41" d="M233.847 94.433h-18.544L214.281 84.4l-.06-.61-.126-1.21-.512-5.058-.642 5.433-1.355 11.478h-3.369l.126-3.573.125-3.623.054-1.46.692-19.858c-.053-3.146.947-6.221 2.842-8.74 1.052-1.364 2.41-2.465 3.965-3.214 1.555-.75 3.264-1.126 4.991-1.101 1.763-.006 3.502.395 5.083 1.17 1.581.777 2.959 1.907 4.028 3.302 1.959 2.544 3.007 5.667 2.978 8.873l.319 12.02.427 16.204z"/>
            <path fill="#FBBEBE" d="M221.012 73.026c4.505 0 8.157-3.637 8.157-8.123 0-4.486-3.652-8.122-8.157-8.122s-8.157 3.636-8.157 8.122 3.652 8.123 8.157 8.123z"/>
            <path fill="#FBBEBE" d="M216.934 70.705s2.331 7.833 0 10.153c-2.33 2.321-2.913 3.191-2.913 3.191l6.7 8.993 11.652-14.214s-8.156-2.321-6.117-8.703l-9.322.58zM242.097 94.433h-6.881l-.115-1.174-.104-1.085 3.168-.397 3.821-.474.043 1.217.068 1.913z"/>
            <path fill="#71C8F9" d="M242.569 92.462s-1.165-7.252-2.039-10.153c-.874-2.901-1.748-2.901-1.748-2.901-1.029-1.025-3.502-1.207-5.362-1.179-1.305.015-2.308.129-2.308.129l-10.39 10.914-5.233-6.928v-.003c-.471.036-.938.116-1.394.239-.393.1-.778.225-1.154.375-1.621.69-3.114 1.644-4.419 2.823h-.004c-.753.674-1.197 1.17-1.197 1.17-1.152 2.386-2.021 4.898-2.588 7.485h33.296l.075-1.492v-.003l4.465-.476z"/>
            <path fill="#2F2E41" d="M214.167 63.598c5.268-2.828 7.432-2.709 13.982 0l1.748-4.24c-.001-.8-.32-1.565-.887-2.13-.567-.564-1.335-.881-2.137-.882h-11.721c-.802 0-1.571.318-2.138.883-.567.564-.886 1.33-.887 2.128l2.04 4.24zM68.738 119.107c-.434-.035-.869.062-1.246.278-.359.304-.646.682-.843 1.108-.912 1.594-2.147 2.983-3.626 4.078-1.077.786-2.447 1.766-2.263 3.215.098.478.275.937.526 1.357.993 1.998 3.705 3.542 3.439 5.821.987-1.646-.334-2.46.654-4.106.47-.784 1.287-1.669 1.997-1.176.237.164.394.46.641.605.59.345 1.219-.315 1.742-.782 1.802-1.612 4.366-1.19 6.61-.687 1.058.237 2.222.548 2.848 1.556.823 1.325-.782 2.756-1.188 4.254-.033.128-.035.262-.004.39.03.129.09.248.177.348.087.1.196.177.32.226.122.048.255.066.387.052.673-.066 1.47-.12 1.51-.414.847.03 1.885-.065 2.248-.944.11-.347.17-.709.174-1.073.133-1.476.762-2.821 1.178-4.225.416-1.404.598-3.049-.105-4.294-.251-.414-.561-.79-.921-1.115-3.989-3.843-9.233-4.477-14.255-4.472z"/>
            <path fill="#9F616A" d="M65.592 137.844s.868 7.198-2.313 7.774c-3.18.576 2.892 10.366 2.892 10.366l14.457 1.727-3.47-11.517s-2.313-.864-.867-6.623c1.445-5.759-10.699-1.727-10.699-1.727z"/>
            <path fill="#9F616A" d="M72.098 142.595c4.791 0 8.675-3.868 8.675-8.638 0-4.771-3.884-8.639-8.675-8.639-4.79 0-8.674 3.868-8.674 8.639 0 4.77 3.884 8.638 8.674 8.638z"/>
            <path fill="#81B0DA" d="M57.167 163.316c1.535-6.007 3.653-14.098 3.653-14.098s.824.168 2.121.357c1.896.281 3.805.454 5.72.517 2.452.068 5.032-.092 7.029-.781.752-.241 1.455-.614 2.075-1.103.261-.209.495-.45.695-.717 3.47-4.608 4.914 12.955 4.914 12.955l.269 2.87H57.167z"/>
            <path fill="#FFB8B8" d="M84.883 181.875c-.115 0-.23.004-.344.011l.164-.307c.058.096.115.196.18.296z"/>
            <path fill="#2F2E41" d="M69.16 121.368c-.35-.026-.7.041-1.014.195-.284.207-.519.475-.686.784-.771 1.155-1.777 2.137-2.952 2.882-.877.556-1.991 1.248-1.841 2.272.081.344.226.669.427.96.812 1.426 1.135 3.077.92 4.702l2.412-3.49c.383-.554 1.048-1.18 1.626-.832.193.117.32.326.522.428.48.244.992-.222 1.418-.553 1.467-1.139 3.554-.84 5.38-.485.862.167 1.81.387 2.319 1.099.847 1.184-.038 2.895.457 4.263.138-.097.255-.22.345-.362.09-.143.15-.302.177-.468.689.021 1.534-.046 1.83-.667.089-.243.137-.5.14-.759.11-1.043.62-1.994.96-2.986.339-.992.486-2.155-.086-3.035-.209-.298-.462-.564-.75-.788-3.246-2.716-7.515-3.164-11.603-3.16zM68.339 149.504c-1.978-2.253-3.154-5.536-3.208-5.682v-.004s-3.154-1.799-4.021-.071c-.867 1.727-8.964 6.046-9.831 6.046l-.022.007c-.344.114-4.652 1.674-5.76 7.481-.3 1.998-.46 4.014-.48 6.035h23.58c.244-2.545.427-4.925.498-6.981.104-2.866.004-5.093-.433-6.243-.07-.214-.18-.414-.323-.588zM88.614 151.124l-.036-.179c-.038-.153-.104-.298-.194-.428-.002-.003-.003-.007-.003-.011-1.67-2.576-12.412-6.124-12.412-6.124l-.401 1.381s.05 1.364.122 3.548c.071 2.045.157 4.807.24 7.841.057 1.981.107 4.08.154 6.164h16.067c-.9-4.139-2.082-8.213-3.537-12.192z"/>
            <path fill="#575A89" d="M238.943 163.316l1.23-5.982 1.143-.482.007.004c.104.039 1.348.564 1.348 2.552 0 .399-.061 1.838-.162 3.908h-3.566z"/>
            <path fill="#FFB8B8" d="M226.031 142.422c5.514 0 9.984-4.451 9.984-9.941 0-5.491-4.47-9.942-9.984-9.942s-9.984 4.451-9.984 9.942c0 5.49 4.47 9.941 9.984 9.941z"/>
            <path fill="#FFB8B8" d="M232.271 138.28l-.833 16.984-12.895-7.456 1.664-9.528h12.064z"/>
            <path fill="#81B0DA" d="M236.015 156.092l-.846 7.224h-6.771l-7.347-14.059-2.071-3.958-.993-.646 1.15-.26.907.653 10.146 7.32 1.628-4.865.043-.125.408-1.224 3.746 9.94z"/>
            <path fill="#2F2E41" d="M219.999 122.746s1.248-6.214 8.32-4.971l-.832.414s6.656-.828 5.824 2.9c0 0 5.407 3.314 4.159 7.042-.733 2.161-1.29 4.377-1.664 6.628l-1.247-1.243s-1.248-8.285-8.736-7.456c-5.616.621-7.904 3.262-8.489 5.165-.269.895-.613 1.765-1.027 2.603l-.468.102s-2.496-9.113 4.16-11.184zM241.323 156.856l-.007-.004-5.301-4.904v-3.312l-4.093-3.212-.061 1.952-.423 13.274-6.806-9.323-4.588-6.281-.824-1.124.201-1.053-2.541 2.866-9.197 6.87-.788.589c-.905.901-1.739 1.87-2.495 2.898-.247.368-1.373 3.294-2.838 7.224h40.947c.101-2.07.162-3.509.162-3.908 0-1.988-1.244-2.513-1.348-2.552zM145.687 121.56c-6.765 0-12.249 6.061-12.249 13.537v9.499h2.933l1.699-3.519-.425 3.519h18.857l1.544-3.199-.386 3.199h2.123v-7.458c0-8.603-6.311-15.578-14.096-15.578z"/>
            <path fill="#D0CDE1" d="M135.802 163.316h-7.968l-.075-6.471c-.004-.068-.004-.132-.004-.2l1.595-1.788.029-.032 6.089 3.84.334 4.651z"/>
            <path fill="#FBBEBE" d="M144.603 143.269c4.816 0 8.721-3.888 8.721-8.684 0-4.796-3.905-8.684-8.721-8.684-4.816 0-8.72 3.888-8.72 8.684 0 4.796 3.904 8.684 8.72 8.684z"/>
            <path fill="#FBBEBE" d="M139.604 139.795s2.558 13.2 1.395 14.589c-1.162 1.39 12.325-2.547 12.325-2.547s-4.418-9.031-2.093-14.126l-11.627 2.084z"/>
            <path fill="#71C8F9" d="M163.262 148.722h-.003c-.206-.433-.561-.777-1-.971-1.71-.717-3.183-1.267-4.394-1.685-2.143-.732-4.481-.66-6.574.204-.204.082-.405.171-.602.271 0 0-8.526 1.617-9.54 1.414-.076-.015-.155-.025-.23-.033-.153-.022-.307-.035-.462-.039-1.984-.092-3.952.395-5.663 1.399-2.799 1.617-6.949 4.483-7.035 7.274l-.079.089.079 6.671h37.424c.075-6.392.118-11.196.118-11.521 0-1.01-2.039-3.073-2.039-3.073z"/>
            <path fill="#2F2E41" d="M149.17 125.289c-.59-.788-1.354-1.431-2.233-1.877-.879-.447-1.85-.686-2.836-.699h-.241c-4.637 0-8.396 4.178-8.396 9.333h1.554l.251-1.902.368 1.902h9.215l.772-1.609-.193 1.609h1.813c.846 4.183-.37 8.367-3.647 12.55h3.088l1.544-3.218-.386 3.218h5.887l1.158-7.401c0-5.544-3.234-10.244-7.718-11.906z"/>
            <path fill="#2F2E41" d="M150.862 126.069c2.534 0 4.588-2.046 4.588-4.569 0-2.524-2.054-4.569-4.588-4.569-2.534 0-4.588 2.045-4.588 4.569 0 2.523 2.054 4.569 4.588 4.569z"/>
        </g>
    </g>
    <defs>
        <clipPath id="prefix__clip0">
            <path fill="#fff" d="M0 0H292.894V186.884H0z"/>
        </clipPath>
        <filter id="prefix__filter0_d" width="300.894" height="194.884" x="0" y="0" color-interpolation-filters="sRGB" filterUnits="userSpaceOnUse">
            <feFlood flood-opacity="0" result="BackgroundImageFix"/>
            <feColorMatrix in="SourceAlpha" values="0 0 0 0 0 0 0 0 0 0 0 0 0 0 0 0 0 0 127 0"/>
            <feOffset dx="4" dy="4"/>
            <feGaussianBlur stdDeviation="2"/>
            <feColorMatrix values="0 0 0 0 0 0 0 0 0 0 0 0 0 0 0 0 0 0 0.25 0"/>
            <feBlend in2="BackgroundImageFix" result="effect1_dropShadow"/>
            <feBlend in="SourceGraphic" in2="effect1_dropShadow" result="shape"/>
        </filter>
    </defs>
</svg>
