<svg xmlns="http://www.w3.org/2000/svg" width="309" height="212" fill="none" viewBox="0 0 309 212">
    <g clip-path="url(#prefix__clip0)">
        <g clip-path="url(#prefix__clip1)">
            <g opacity=".2">
                <path fill="#3325D2" d="M246.657 193.047c-.097.705-.136 1.415-.116 2.126 4.704.076 9.429.234 14.174.476.033-.184.065-.376.092-.568.304-1.982.076-4.009-.661-5.874-.977-2.388-2.799-4.094-5.08-4.422-2.281-.327-4.506.795-6.112 2.799-1.238 1.583-2.032 3.47-2.297 5.463z" opacity=".2"/>
                <path fill="#3325D2" d="M262.448 183.752c.735-5.124-1.836-9.735-5.744-10.297-3.908-.563-7.671 3.135-8.406 8.259-.736 5.124 1.836 9.734 5.744 10.297 3.907.563 7.671-3.135 8.406-8.259z" opacity=".2"/>
                <path fill="#3325D2" d="M264.074 172.414c.735-5.125-1.837-9.735-5.744-10.298-3.908-.562-7.671 3.136-8.407 8.26-.735 5.124 1.837 9.734 5.745 10.297 3.907.563 7.671-3.135 8.406-8.259z" opacity=".2"/>
                <path fill="#3325D2" d="M265.7 161.073c.736-5.124-1.836-9.735-5.744-10.297-3.907-.563-7.671 3.135-8.406 8.259-.735 5.124 1.836 9.734 5.744 10.297 3.908.563 7.671-3.135 8.406-8.259z" opacity=".2"/>
                <path fill="#3325D2" d="M267.326 149.732c.736-5.124-1.836-9.735-5.744-10.297-3.907-.563-7.671 3.135-8.406 8.259-.735 5.124 1.836 9.734 5.744 10.297 3.908.563 7.671-3.135 8.406-8.259z" opacity=".2"/>
                <path fill="#9A9A9A" d="M297.853 74.918c1.143-1.098 2.21-2.272 3.193-3.516l-18.15-5.725 20.083 3.045c2.532-3.928 4.238-8.332 5.013-12.943.774-4.611.602-9.332-.508-13.874l-28.98 10.134 27.498-14.731c-1.752-4.37-4.384-8.33-7.731-11.636-3.347-3.305-7.337-5.885-11.722-7.579-4.385-1.693-9.072-2.464-13.767-2.264-4.696.2-9.3 1.366-13.526 3.427-4.226 2.06-7.984 4.97-11.038 8.548-3.055 3.578-5.342 7.749-6.718 12.25-1.376 4.503-1.812 9.24-1.281 13.92.531 4.678 2.017 9.197 4.367 13.274-1.781 1.703-3.374 3.592-4.751 5.636l22.33 16.032-24.486-12.354c-2.574 5.09-3.841 10.742-3.685 16.445.155 5.704 1.728 11.278 4.575 16.219-4.649 4.442-7.958 10.105-9.547 16.341-1.589 6.237-1.394 12.795.562 18.926 1.956 6.131 5.595 11.587 10.5 15.743 4.905 4.157 10.879 6.847 17.238 7.763 6.359.915 12.847.02 18.722-2.585 5.875-2.604 10.9-6.812 14.5-12.143 3.601-5.331 5.631-11.569 5.86-18.002.228-6.432-1.355-12.799-4.568-18.373 5.555-5.308 9.169-12.332 10.261-19.945 1.091-7.613-.402-15.373-4.241-22.033h-.003z" opacity=".3"/>
                <path fill="#000" d="M234.326 87.194c-1.105 7.613.39 15.377 4.241 22.033-4.65 4.441-7.958 10.104-9.547 16.34-1.589 6.237-1.395 12.795.562 18.926 1.956 6.131 5.594 11.587 10.5 15.743 4.905 4.157 10.878 6.847 17.238 7.763 6.359.915 12.847.02 18.722-2.585 5.875-2.604 10.9-6.812 14.5-12.143 3.6-5.331 5.631-11.569 5.859-18.002.229-6.432-1.354-12.799-4.567-18.373 5.369-5.122-56.962-33.513-57.508-29.702z" opacity=".1"/>
            </g>
            <g opacity=".2">
                <path fill="#3325D2" d="M45.926 183.022c.107.611.265 1.212.473 1.796 3.835-1.237 7.71-2.409 11.623-3.516-.021-.162-.046-.33-.075-.498-.278-1.722-1.002-3.341-2.1-4.694-1.428-1.712-3.361-2.626-5.3-2.267-1.938.36-3.444 1.893-4.213 4.014-.582 1.657-.723 3.437-.408 5.165z" opacity=".2"/>
                <path fill="#3325D2" d="M51.53 180.134c3.333-.529 5.464-4.579 4.758-9.048-.705-4.469-3.98-7.663-7.314-7.134-3.333.528-5.464 4.579-4.758 9.047.705 4.469 3.98 7.663 7.314 7.135z" opacity=".2"/>
                <path fill="#3325D2" d="M50.65 170.485c3.342-.541 5.465-4.611 4.742-9.09-.722-4.479-4.017-7.671-7.358-7.13-3.342.541-5.465 4.611-4.742 9.09.722 4.479 4.017 7.671 7.358 7.13z" opacity=".2"/>
                <path fill="#3325D2" d="M48.127 160.406c3.334-.528 5.465-4.579 4.759-9.048-.706-4.468-3.98-7.662-7.314-7.134-3.334.529-5.464 4.579-4.759 9.048.706 4.469 3.98 7.663 7.314 7.134z" opacity=".2"/>
                <path fill="#3325D2" d="M46.429 150.541c3.334-.529 5.464-4.58 4.759-9.048-.706-4.469-3.98-7.663-7.314-7.134-3.334.528-5.465 4.579-4.759 9.047.706 4.469 3.98 7.663 7.314 7.135z" opacity=".2"/>
                <path fill="#9A9A9A" d="M56.011 70.805c.637-1.224 1.19-2.489 1.655-3.787l-16.25.255 17.103-3.021c1.073-4.195 1.246-8.57.508-12.835-.645-3.776-1.999-7.395-3.99-10.664L34.222 57.172 52.61 37.34c-6.5-7.894-16.817-12.105-27.463-10.142C9.234 30.125-1.366 45.724 1.444 62.031c1.109 6.588 4.385 12.615 9.307 17.122-.995 1.908-1.785 3.916-2.357 5.99l22.384 7.143-23.164-3.492c-.482 3.236-.444 6.529.114 9.753 1.109 6.587 4.385 12.614 9.307 17.121-3.107 5.956-4.167 12.773-3.015 19.394 2.81 16.31 17.978 27.152 33.88 24.218 15.902-2.934 26.513-18.531 23.703-34.841-1.11-6.587-4.386-12.612-9.307-17.119 3.106-5.957 4.166-12.775 3.015-19.396-1.108-6.586-4.382-12.611-9.3-17.12z" opacity=".3"/>
                <path fill="#000" d="M7.736 98.547c1.109 6.587 4.385 12.614 9.307 17.121-3.107 5.956-4.167 12.773-3.015 19.394 2.81 16.31 17.978 27.152 33.88 24.218 15.902-2.934 26.513-18.531 23.703-34.841-1.11-6.587-4.387-12.612-9.308-17.119 2.994-5.739-55.14-12.086-54.567-8.773z" opacity=".1"/>
            </g>
            <path fill="#46455B" d="M31.725 160.481c0 14.147 8.857 25.592 19.803 25.592z"/>
            <path fill="#B7D2F0" d="M51.527 186.073c0-14.304 9.885-25.879 22.103-25.879z"/>
            <path fill="#B7D2F0" d="M38.9 161.763c0 13.438 5.647 24.31 12.628 24.31z"/>
            <path fill="#46455B" d="M51.527 186.073c0-18.277 11.427-33.067 25.547-33.067z"/>
            <path fill="#B7D2F0" d="M143.479 201.358c76.181 0 137.938-2.057 137.938-4.595 0-2.537-61.757-4.595-137.938-4.595-76.181 0-137.938 2.058-137.938 4.595 0 2.538 61.757 4.595 137.938 4.595z" opacity=".1"/>
            <path fill="#8FC7CE" d="M49.241 189.705c2.785 0 5.043-.383 5.043-.855s-2.258-.855-5.043-.855-5.042.383-5.042.855 2.257.855 5.042.855z" opacity=".1"/>
            <path fill="#A8A8A8" d="M45.853 184.88s2.878-.087 3.744-.706c.867-.619 4.422-1.352 4.638-.365.216.987 4.32 4.933 1.08 4.957-3.24.025-7.542-.505-8.409-1.033-.866-.527-1.053-2.853-1.053-2.853z"/>
            <path fill="#000" d="M55.369 188.423c-3.24.024-7.545-.509-8.409-1.036-.658-.4-.923-1.844-1.01-2.51h-.097s.184 2.326 1.048 2.854c.864.527 5.164 1.06 8.408 1.033.937 0 1.261-.341 1.245-.836-.13.303-.489.489-1.185.495z" opacity=".2"/>
            <path fill="#6CADF4" d="M186.582 53.805c-3.873-19.126-20.474-33.535-40.671-33.535-16.048 0-29.882 9.146-36.801 22.447-16.6 1.663-29.604 15.799-29.604 32.993 0 18.293 14.939 33.265 33.203 33.265h71.938c15.216 0 27.668-12.476 27.668-27.72.03-7.005-2.622-13.755-7.409-18.86-4.786-5.107-11.344-8.18-18.324-8.59zm-31.82 16.348V91.22h-17.708V70.153H118.24l27.668-27.707 27.669 27.72-18.815-.013z"/>
            <path fill="url(#prefix__paint0_linear)" d="M118.85 66.989c-.27-1.544-.138-3.208-.845-4.598-.068-.164-.179-.307-.321-.414-.176-.095-.375-.14-.575-.132-.64-.024-1.277-.033-1.917-.016-.178 0-.388.027-.48.184-.011.016-.019.035-.024.054-.732-.812-1.285-1.837-2.074-2.594.114-.038.224-.073.341-.103 0-.078-.027-.151-.044-.227 0-.024-.013-.046-.019-.067-.005-.022-.024-.103-.04-.155-.016-.051-.016-.051-.027-.075-.014-.049-.03-.097-.049-.144 0-.024-.019-.048-.029-.073l-.057-.143-.032-.068c-.022-.048-.044-.097-.068-.143l-.032-.06-.079-.154-.027-.048c-.029-.054-.062-.108-.091-.165-.008-.01-.015-.02-.019-.03-.035-.062-.073-.124-.111-.184-.308-.503-.648-.998-.899-1.514-.44-.91-.586-1.934-.88-2.902-.294-.968-.81-1.953-1.684-2.415-.424-.217-.991-.409-1.031-.887-.002-.154.031-.306.094-.447.122-.31.269-.61.44-.895.065-.102.132-.205.2-.308l.054-.073c.054-.076.111-.151.167-.222l.07-.09c.057-.07.116-.134.176-.202l.073-.078c.083-.09.167-.176.256-.27.082-.064.147-.147.189-.242.024-.093.028-.19.014-.286-.044-.774.361-1.496.809-2.118.449-.622.978-1.211 1.234-1.939.03-.084.054-.167.076-.254.008-.027.014-.055.019-.084.013-.057.024-.113.035-.173l.016-.097c0-.054.013-.108.019-.16v-.37-.16-.103c0-.035 0-.113-.014-.17v-.092c0-.065-.019-.133-.027-.197v-.065c-.012-.089-.029-.179-.048-.27-.129-.575-.295-1.14-.497-1.694-.108-.34-.245-.669-.41-.984.1-.02.202-.04.302-.068-.079-.124-.152-.252-.219-.384.622-.917 1.088-1.93 1.38-2.999.154-.764.245-1.539.27-2.318.148-2.342.299-4.695.105-7.031v-.092c.073-.502.078-1.011.016-1.515-.062-.984-.353-1.94-.847-2.793-.524-.828-1.388-1.558-2.349-1.655-.158.178-.334.341-.524.486-.289-.254-.501-.585-.612-.954 1.122-.177 2.155-.717 2.941-1.54.785-.82 1.28-1.878 1.407-3.01 0-.083.019-.17.025-.253v-.106-.149-.245-.158-.083c0-.027 0-.12-.017-.176.002-.02.002-.042 0-.062l-.024-.19v-.04c0-.068-.021-.135-.035-.203v-.022c-.013-.073-.03-.143-.049-.216-.12-.492-.312-.964-.569-1.4.211-.479.349-.986.41-1.505 0-.094.019-.186.024-.27.006-.084 0-.119 0-.179v-.086V8.4c-.039-1.3-.557-2.539-1.454-3.478.103-.171.188-.352.256-.54.022-.058.04-.114.057-.174.016-.057.032-.11.046-.168v-.013l.032-.154c-.002-.01-.002-.018 0-.027 0-.06.019-.122.027-.184s0-.127.016-.19v-.059-.197-.133-.057c-.045-.803-.391-1.56-.969-2.12-.578-.558-1.344-.879-2.147-.897-.803-.018-1.584.268-2.186.8-.602.533-.982 1.273-1.063 2.074-.039.327-.029.658.03.982-.785.383-1.461.958-1.967 1.67-.506.713-.826 1.542-.93 2.41-.034.291-.044.585-.029.877-.466.732-.744 1.568-.81 2.434v.097c0 .108-.014.22-.014.328-.002.8.178 1.591.528 2.312.349.72.859 1.351 1.489 1.844.263.426.61.794 1.02 1.082.074.22.129.446.165.676.03.309-.01.62-.118.911-.108.291-.28.554-.503.768-.116.098-.246.179-.367.271-.123-.035-.253-.035-.375 0-1.393.438-2.727 1.306-3.367 2.634-.141.302-.254.617-.334.941l-.076.116c-.846 1.327-1.454 2.791-1.798 4.328-.175.787-.286 1.603-.653 2.32-.088.15-.16.308-.213.473-.031.252-.042.506-.033.76-.037.46-.305.868-.394 1.32-.054.27-.043.54-.089.811-.128.465-.297.917-.504 1.352-.287.796-.284 1.67-.497 2.489-.026.135-.084.261-.168.37-.168.132-.358.234-.561.303-.148.093-.276.217-.373.363-.097.145-.162.31-.191.483-.056.35-.063.705-.02 1.055l.106 1.371-1.533.465-2.516.771c-.737.187-1.442.485-2.09.885-.576.402-1.032.956-1.317 1.6-.255.672-.419 1.376-.488 2.091-.243 2.002-.676 3.976-1.293 5.896-.051.146-.105.295-.16.44l-.17.43c-.013.03-.026.06-.037.09l-.146.343c-.065.146-.132.29-.202.433l5.892 1.969c0 .07.014.146.025.23.205 1.45.105 2.92.294 4.373.024.241.08.478.165.706-.15.13-.258.3-.31.492-.067.31-.078.628-.03.941.067.741.132 1.482.2 2.223.031.27.031.542 0 .811-.074.49-.355.92-.508 1.388-.154.468-.146 1.068.24 1.352.135.092.29.148.453.163.163.015.326-.013.475-.08.298-.136.561-.339.77-.592 1.185-1.32 1.717-3.101 2.637-4.624.237-.351.448-.719.632-1.1.127-.295.208-.61.31-.915.142-.407.311-.803.508-1.187.11-.22.54-.746.442-.99-.15-.42-1.768-.787-2.16-.917-.249-.111-.531-.124-.79-.035-.039.019-.075.042-.108.07l-.138-1.787c.24-.022.478-.052.713-.092 0-.336-.008-.674-.024-1.014 0-.309-.014-.62-.022-.93-.016-.758-.032-1.515-.051-2.259-.005-.438-.033-.876-.084-1.312-.092-.662-.294-1.311-.359-1.98.097-.076.212-.128.335-.15.189-.03.381-.038.572-.022h.151c.838-.013 1.659-.24 2.384-.66.742-.387 1.43-.87 2.16-1.268l.27-.144.102-.051.172-.087.144-.067.032-.017c.43-.205.864-.405 1.279-.63.029.046.059.09.092.133.101.137.24.242.4.3.16.058.334.068.499.027-.51 1.23-1.109 2.42-1.26 3.751-.222 1.923.539 3.786 1.298 5.577l2.4 5.679c.27.627.618 1.33 1.274 1.48.417.056.84-.03 1.204-.241 1.098-.525 2.086-1.277 3.093-1.98l.041.032c.909.72 1.479 1.723 2.108 2.683l1.682 2.77c-.012.138.011.278.067.405.123.23.282.437.472.614 1.069 1.153 1.774 2.598 2.025 4.151.022.398.137.785.335 1.13.451.628 1.411.588 2.089.23.209-.095.39-.244.524-.432.113-.202.185-.424.21-.654.124-.573.192-1.156.203-1.742-.011-1.063-.419-2.12-.613-3.21zm-9.656-50.957c.118-.078.232-.162.34-.252-.228.687-.595 1.319-1.079 1.856-.114.124-.235.24-.359.354v-.087c-.014-.27 0-.57 0-.857.432-.258.807-.603 1.098-1.014zm-9.531 21.34l.016-.05c.096.068.179.153.246.25-.066.146-.096.304-.09.464.007.159.05.314.128.453.14.239.394.46.34.733-.054.273-.4.382-.68.428-.37.06-.735.127-1.1.2v-.02c.009-.304-.032-.608-.12-.9.628-.27 1.017-.914 1.26-1.557z"/>
            <path fill="#46455B" d="M110.898 5.888c.242-.411.39-.87.432-1.346.043-.475-.021-.954-.186-1.402-.165-.447-.428-.852-.769-1.185-.341-.333-.752-.586-1.203-.74-.451-.153-.931-.204-1.404-.15-.473.056-.928.216-1.331.47-.404.253-.746.594-1.001.996-.256.403-.419.857-.477 1.331-.04.323-.03.65.03.97-.918.436-1.685 1.135-2.206 2.008-.521.872-.772 1.88-.72 2.896-.434.673-.706 1.439-.793 2.236-.087.797.012 1.603.29 2.354.278.752.726 1.429 1.311 1.976.584.548 1.287.952 2.055 1.18.767.228 1.576.273 2.364.133.788-.14 1.532-.462 2.174-.94.642-.479 1.164-1.1 1.524-1.816.36-.716.549-1.506.552-2.308v-.246c.638-.982.923-2.153.809-3.319-.115-1.166-.622-2.259-1.438-3.098h-.013z"/>
            <g opacity=".1">
                <path fill="#000" d="M104.951 4.02l.043-.025c-.011-.056-.019-.112-.024-.168-.002.011-.002.023 0 .035-.009.052-.016.105-.019.158zM112.323 9.27c-.094.785-.366 1.538-.797 2.2v.243c-.006 1.328-.523 2.603-1.444 3.558-.92.956-2.173 1.52-3.498 1.573-1.325.054-2.619-.406-3.613-1.285-.995-.878-1.613-2.106-1.727-3.43 0 .14-.018.27-.018.422 0 1.369.542 2.681 1.508 3.649s2.276 1.511 3.642 1.511 2.676-.543 3.642-1.511c.966-.968 1.508-2.28 1.508-3.649v-.246c.432-.661.705-1.414.797-2.199.042-.345.049-.694.019-1.04.008.067-.009.137-.019.205zM111.321 3.824c-.056.434-.201.852-.424 1.228.092.092.176.19.27.286.083-.228.139-.465.168-.705.03-.27.026-.541-.014-.809z" opacity=".1"/>
            </g>
            <path fill="#FBBEBE" d="M90.145 61.247c.024.294.104.58.234.844.066.132.162.246.281.333.12.087.257.145.402.167.267.002.529-.074.754-.219.456-.24.933-.519 1.171-.979.238-.46.2-.973.16-1.474l-.309-3.935c-.74-.021-1.484-.021-2.226.02-.743.04-.864.213-.762.932.203 1.428.095 2.88.295 4.311zM111.907 63.906l1.763 2.855c.076.167.215.297.386.363.126.019.255-.004.367-.065.571-.3 1.072-.716 1.471-1.222.32-.298.562-.67.707-1.082.058-.229.055-.469-.006-.696-.062-.228-.18-.436-.345-.605-.204-.182-.425-.343-.661-.481-1.395-.944-2.024-2.735-3.401-3.703-.077-.065-.171-.107-.27-.121-.102.007-.201.04-.286.097l-1.89 1.033c-.81.446-.559.5.062.982.905.708 1.466 1.698 2.103 2.645z"/>
            <path fill="#46455B" d="M93.975 58.97c-.25-.109-.533-.119-.79-.027-.115.07-.212.164-.283.278-.072.113-.117.24-.13.374-.05.27-.044.54-.117.792-.163.42-.427.791-.77 1.082-.128.153-.295.27-.482.338-.257.065-.527-.054-.786 0-.15.04-.288.119-.397.23-.108.112-.185.251-.221.403-.068.304-.078.62-.03.927l.2 2.191c.033.27.033.542 0 .811-.073.484-.354.906-.507 1.369-.154.462-.149 1.052.24 1.352.136.09.292.145.455.16.163.014.326-.013.476-.079.297-.134.56-.334.77-.584 1.187-1.298 1.719-3.059 2.642-4.557.236-.345.447-.707.632-1.082.127-.292.208-.6.31-.9.142-.402.313-.794.51-1.171.108-.217.54-.736.443-.977-.143-.438-1.765-.803-2.165-.93zM115.411 65.02c-.267.505-.715.891-1.253 1.082-.155.042-.299.117-.424.219-.081.1-.132.221-.145.35-.014.128.011.257.07.372.124.227.284.431.475.606 1.066 1.131 1.771 2.556 2.024 4.091.025.394.141.776.338 1.117.451.62 1.414.579 2.095.225.207-.095.387-.241.523-.425.114-.199.186-.419.211-.646.123-.565.191-1.14.202-1.718 0-1.081-.421-2.133-.615-3.204-.27-1.523-.141-3.164-.848-4.538-.066-.165-.175-.308-.316-.417-.177-.093-.377-.138-.577-.13-.637-.024-1.28-.03-1.92-.016-.178 0-.388.027-.48.181-.032.086-.043.18-.03.27.012.091.046.178.1.252.392.776 1.034 1.39.57 2.329z"/>
            <path fill="#46455B" d="M100.224 37.732c-.178.148-.3.355-.342.583-.042.228-.003.464.11.667.143.235.397.454.34.724-.056.27-.4.374-.68.42-2.478.394-4.891 1.122-7.288 1.847l-2.522.76c-.738.182-1.444.476-2.094.87-.576.394-1.032.94-1.318 1.577-.256.662-.42 1.355-.49 2.06-.379 2.584-.862 5.188-2.012 7.53l6.109 2.01c.593.217 1.207.37 1.833.46.596.05 1.196.021 1.784-.087-.038-1.366-.062-2.775-.1-4.144-.003-.432-.031-.863-.084-1.292-.091-.655-.294-1.293-.358-1.953.27-.232.693-.173 1.058-.165.838-.011 1.66-.233 2.391-.646.74-.384 1.431-.86 2.16-1.252 1.228-.652 2.626-1.082 3.566-2.118-.478 1.826-1.62 3.416-1.828 5.29-.208 1.874.54 3.746 1.304 5.495l2.405 5.593c.27.617.618 1.312 1.274 1.458.418.054.841-.03 1.207-.238 2.213-1.039 3.984-2.994 6.349-3.616-.178-1.174-1.102-2.145-1.62-3.207-.443-.896-.586-1.907-.88-2.862-.294-.954-.81-1.925-1.69-2.38-.423-.213-.993-.403-1.031-.876-.003-.152.029-.303.095-.44.315-.799.807-1.515 1.438-2.097.081-.064.145-.145.189-.238.021-.088.026-.18.014-.27-.046-.763.362-1.474.81-2.088.448-.614.98-1.195 1.236-1.912.44-1.236 0-2.593-.432-3.83-.142-.512-.388-.99-.723-1.403-.567-.606-1.447-.782-2.273-.873-2.659-.303-5.788-1.004-7.907.643z"/>
            <g opacity=".1">
                <path fill="#000" d="M110.331 43.144c-.454.614-.861 1.325-.81 2.088.012.09.007.181-.013.27-.044.093-.109.174-.189.238-.631.581-1.123 1.298-1.439 2.096-.066.137-.098.288-.095.44.028.144.093.277.187.388.095.111.216.196.353.246.275-.45.611-.86.999-1.217.08-.064.145-.146.189-.238.021-.089.025-.18.014-.27-.046-.764.361-1.475.809-2.089.448-.614.98-1.195 1.237-1.912.221-.701.243-1.45.064-2.163-.018.07-.039.14-.064.21-.262.717-.786 1.301-1.242 1.913zM99.946 38.103c.09-.019.173-.06.241-.122.068-.061.118-.14.145-.227.006-.035.006-.07 0-.106l-.116.084c-.119.1-.212.227-.27.37zM91.87 55.287c-.626-.089-1.24-.243-1.833-.46l-5.399-1.774c-.204.586-.443 1.16-.715 1.717l6.114 2.01c.593.217 1.207.371 1.833.46.596.05 1.196.021 1.784-.087-.019-.641-.032-1.293-.048-1.945-.573.102-1.157.128-1.736.079zM106.657 61.228c-.366.21-.789.293-1.207.238-.656-.146-1.009-.84-1.274-1.458l-2.405-5.592c-.54-1.23-1.066-2.51-1.26-3.822-.017.092-.03.184-.044.27-.218 1.894.54 3.746 1.304 5.496l2.405 5.593c.27.617.618 1.312 1.274 1.458.418.054.841-.03 1.207-.238 2.214-1.039 3.984-2.994 6.349-3.616-.123-.614-.37-1.197-.726-1.712-2.014.792-3.642 2.45-5.623 3.383zM102.295 43.63c-.94 1.028-2.338 1.466-3.566 2.118-.737.392-1.428.868-2.16 1.252-.73.414-1.552.637-2.391.65-.365 0-.775-.07-1.058.162.059.608.234 1.2.334 1.803.24-.032.483-.037.724-.016.838-.011 1.66-.233 2.391-.646.74-.384 1.431-.86 2.16-1.252.81-.43 1.692-.766 2.47-1.242.432-.915.798-1.86 1.096-2.828z" opacity=".1"/>
            </g>
            <path fill="#FBBEBE" d="M104.438 18.377c.03.304-.011.612-.118.898-.108.287-.28.545-.503.754-.148.127-.324.222-.467.354-.128.132-.227.29-.288.465-.061.173-.084.358-.067.542.018.184.075.361.168.52.093.16.22.296.371.402.486.297 1.104.216 1.665.119.749-.104 1.483-.296 2.187-.571.708-.278 1.311-.773 1.722-1.415-.296-.189-.54-.448-.711-.755-.171-.307-.263-.651-.269-1.002-.038-.7.154-1.496-.289-2.04-.442-.543-1.228-.519-1.889-.34-.327.092-.643.216-.969.305-.168.044-.713.046-.81.168-.189.222.248 1.241.267 1.596z"/>
            <path fill="#000" d="M104.438 18.377c.03.304-.011.612-.118.898-.108.287-.28.545-.503.754-.148.127-.324.222-.467.354-.128.132-.227.29-.288.465-.061.173-.084.358-.067.542.018.184.075.361.168.52.093.16.22.296.371.402.486.297 1.104.216 1.665.119.749-.104 1.483-.296 2.187-.571.708-.278 1.311-.773 1.722-1.415-.296-.189-.54-.448-.711-.755-.171-.307-.263-.651-.269-1.002-.038-.7.154-1.496-.289-2.04-.442-.543-1.228-.519-1.889-.34-.327.092-.643.216-.969.305-.168.044-.713.046-.81.168-.189.222.248 1.241.267 1.596z" opacity=".1"/>
            <path fill="#FBBEBE" d="M106.314 18.339c1.999 0 3.62-1.624 3.62-3.627 0-2.003-1.621-3.626-3.62-3.626s-3.62 1.623-3.62 3.626 1.621 3.627 3.62 3.627zM94.885 42.53c-.064.288-.179.563-.34.811-.424.75-.576 1.625-.432 2.475.076.421.254.817.52 1.153.264.336.608.601 1 .772.163.082.346.119.528.108.182-.012.359-.071.51-.173-.482-.63-.51-1.49-.48-2.285-.008-.148.027-.296.1-.424.02-.03.047-.057.077-.076.03-.02.065-.034.1-.04.036-.006.073-.005.108.003.036.008.07.023.099.045-.014.5.083.998.283 1.457.076.176.205.371.4.366.27 0 .348-.382.337-.657-.04-1.126-.097-2.297-.637-3.281-.238-.338-.42-.711-.54-1.106-.004-.14-.053-.276-.14-.387-.06-.047-.129-.08-.203-.094-.31-.09-1.05-.363-1.306-.07-.257.291.064 1.03.016 1.403z"/>
            <path fill="#8FC7CE" d="M100.259 23.266c-.416-.048-.742.333-.969.685-.848 1.308-1.459 2.756-1.803 4.278-.176.776-.284 1.582-.653 2.288-.088.147-.16.303-.214.465-.03.25-.04.5-.032.752-.038.451-.305.855-.394 1.3-.054.271-.043.542-.092.812-.08.465-.337.882-.502 1.328-.289.784-.286 1.644-.5 2.453-.025.132-.083.257-.167.362-.143.16-.375.198-.561.3-.149.091-.276.213-.374.357-.098.144-.164.307-.193.48-.056.343-.063.692-.019 1.038l.167 2.144c.17-.073.27-.27.427-.387.27-.216.645-.167.98-.108l.488.09c.5.089 1.042.205 1.35.6.254-.4.11-.987.5-1.252.126-.087.286-.114.418-.19.126-.081.23-.193.305-.323.074-.131.116-.278.121-.428.008-.302-.033-.602-.121-.89.626-.27 1.015-.9 1.26-1.536.27-.77.465-1.563.583-2.37.565-3.188 1.08-6.398 1.134-9.635.036-.541-.024-1.084-.175-1.604-.168-.514-.427-.95-.964-1.009z"/>
            <path fill="#000" d="M100.259 23.266c-.416-.048-.742.333-.969.685-.848 1.308-1.459 2.756-1.803 4.278-.176.776-.284 1.582-.653 2.288-.088.147-.16.303-.214.465-.03.25-.04.5-.032.752-.038.451-.305.855-.394 1.3-.054.271-.043.542-.092.812-.08.465-.337.882-.502 1.328-.289.784-.286 1.644-.5 2.453-.025.132-.083.257-.167.362-.143.16-.375.198-.561.3-.149.091-.276.213-.374.357-.098.144-.164.307-.193.48-.056.343-.063.692-.019 1.038l.167 2.144c.17-.073.27-.27.427-.387.27-.216.645-.167.98-.108l.488.09c.5.089 1.042.205 1.35.6.254-.4.11-.987.5-1.252.126-.087.286-.114.418-.19.126-.081.23-.193.305-.323.074-.131.116-.278.121-.428.008-.302-.033-.602-.121-.89.626-.27 1.015-.9 1.26-1.536.27-.77.465-1.563.583-2.37.565-3.188 1.08-6.398 1.134-9.635.036-.541-.024-1.084-.175-1.604-.168-.514-.427-.95-.964-1.009z" opacity=".1"/>
            <path fill="#8FC7CE" d="M109.38 19.794c-.597.627-1.36 1.072-2.2 1.282-.836.206-1.69.332-2.551.375-.264.044-.535.02-.788-.067-.124-.048-.227-.141-.287-.26-.06-.12-.074-.257-.039-.386.046-.078.077-.163.094-.252 0-.222-.329-.24-.54-.176-1.393.433-2.729 1.288-3.371 2.6-.325.76-.527 1.566-.6 2.39-.302 2.163-.604 4.346-.2 6.49.22 1.14.635 2.245.66 3.403.015.649-.095 1.295-.09 1.944-.018.227.043.454.173.641.1.116.251.19.321.327.116.228-.04.541.114.75.191.254.585.07.847-.109 1.314-.893 2.9-1.292 4.478-1.127 1.89.202 3.78 1.217 5.621.708-.095-.138-.177-.284-.243-.438-.918-3.018-.856-6.396.518-9.236.467-.97 1.08-1.893 1.269-2.958.072-.497.079-1.002.018-1.501-.063-.973-.355-1.917-.85-2.756-.521-.83-1.387-1.547-2.354-1.644z"/>
            <path fill="#FBBEBE" d="M100.627 43.463c-.147.395-.217.814-.208 1.236-.013.402.007.804.059 1.203.032.342.154.669.354.947.101.137.241.24.402.298.16.057.334.065.499.024.13-.055.245-.138.338-.242.094-.105.163-.23.202-.364.078-.271.136-.548.173-.828.157-.811.588-1.595.597-2.434.005-.1-.011-.199-.046-.292-.157-.343-.926-.73-1.301-.673-.465.073-.897.727-1.069 1.125z"/>
            <path fill="#000" d="M111.07 22.855c-.07.722.626 1.266.902 1.934.111.313.175.641.189.973.194 2.307.043 4.625-.108 6.932-.022.768-.113 1.533-.27 2.285-.389 1.577-1.35 2.945-2.281 4.27-.141.217-.305.418-.489.6-.274.224-.58.406-.907.542l-3.212 1.56c-.403.178-.785.398-1.142.657-.413.325-.738.749-.945 1.233-.623-.319-1.271-.605-1.889-.925-.146-.075-.311-.173-.335-.335-.032-.216.195-.37.351-.54.292-.29.381-.72.54-1.099.518-1.244 1.817-2.039 2.286-3.3.181-.483.235-1.032.556-1.438.183-.203.389-.385.613-.54.493-.422.945-.888 1.35-1.394.184-.19.334-.41.445-.651.103-.371.139-.758.106-1.142.024-1.26.593-2.434.942-3.645.326-1.139.464-2.334.893-3.44.429-1.106 1.255-2.24 2.405-2.537z" opacity=".1"/>
            <path fill="#8FC7CE" d="M111.489 22.855c-.07.722.623 1.266.899 1.934.112.313.177.64.191.973.192 2.307.044 4.625-.108 6.932-.026.768-.121 1.533-.283 2.285-.389 1.577-1.35 2.945-2.281 4.27-.141.217-.305.418-.489.6-.274.224-.58.406-.907.542l-3.215 1.56c-.402.179-.784.4-1.141.657-.413.326-.738.75-.945 1.233-.624-.319-1.269-.605-1.89-.925-.145-.075-.31-.173-.334-.335-.036-.216.191-.37.348-.54.294-.29.383-.72.54-1.099.515-1.244 1.816-2.039 2.286-3.3.181-.483.235-1.032.556-1.438.182-.205.387-.386.613-.54.492-.422.944-.888 1.35-1.394.183-.19.334-.41.445-.651.101-.372.137-.758.105-1.142.024-1.26.591-2.434.94-3.645.329-1.139.464-2.334.893-3.44.429-1.106 1.282-2.24 2.427-2.537z"/>
            <path fill="#46455B" d="M108.106 9.106c-1.115-.136-2.243.099-3.212.668.143 0 .286 0 .429.032 1.071.13 2.074.593 2.868 1.325.794.731 1.339 1.694 1.558 2.752.218 1.059.1 2.159-.339 3.146-.439.987-1.177 1.811-2.108 2.356 1.323.043 2.613-.427 3.599-1.312.987-.885 1.596-2.116 1.7-3.439.104-1.323-.304-2.635-1.14-3.664-.836-1.029-2.035-1.695-3.349-1.862l-.006-.002z"/>
            <path fill="#46455B" d="M109.691 11.975c.125.284.194.59.201.9.006.31-.048.618-.16.907-.025-.073-.052-.146-.084-.22-.637-1.42-2.597-2.006-4.381-1.31-.475.168-.908.435-1.272.783-.364.348-.651.77-.842 1.236-.453-1.373.467-2.948 2.16-3.607 1.781-.695 3.741-.109 4.378 1.311z"/>
            <g opacity=".1">
                <path fill="#000" d="M109.702 13.67c-.082-.995-.451-1.946-1.062-2.736-.611-.79-1.438-1.386-2.38-1.715-.479.114-.939.296-1.366.541.143 0 .286 0 .429.033 1.036.125 2.01.563 2.792 1.256.782.693 1.335 1.607 1.587 2.622zM110.536 9.904c-.083-.996-.452-1.947-1.063-2.737s-1.437-1.386-2.379-1.715c-.479.12-.939.308-1.366.557.143 0 .286 0 .432.033 1.034.124 2.005.56 2.787 1.25.781.69 1.335 1.6 1.589 2.612zM110.557 4.281c-.052-.598-.275-1.17-.643-1.643-.369-.475-.866-.832-1.433-1.029-.29.07-.568.183-.826.333.087 0 .173 0 .27.021.621.076 1.204.338 1.674.752.469.413.803.96.958 1.566zM112.485 12.968c.099 1.237-.25 2.469-.982 3.47-.733 1.001-1.8 1.705-3.008 1.982-.348.378-.75.703-1.193.963.798.029 1.593-.128 2.32-.46.728-.332 1.368-.828 1.871-1.45.503-.623.854-1.354 1.026-2.136.172-.781.16-1.593-.034-2.37z" opacity=".1"/>
            </g>
            <path fill="url(#prefix__paint1_linear)" d="M158.155 66.978c-.33-.273-.739-.432-1.167-.453-.427-.021-.85.097-1.205.337-.54.4-.775 1.065-.997 1.693-.323.927-.847 1.828-.934 2.81-.24 2.704-2.132 4.978-2.699 7.629-.208.946-.248 1.941-.64 2.826-.187.388-.404.761-.647 1.117-.95 1.495-1.763 3.072-2.43 4.713-.47.144-.856.596-1.231.955-.481.461-1.057.812-1.687 1.028-.257.057-.496.175-.699.343-.27.287-.27.75-.494 1.082-.159.218-.371.392-.615.506-.017-.077-.03-.155-.038-.233-.057-.414-.103-.827-.146-1.241.628-.919.91-2.032.793-3.14-.117-1.108-.624-2.137-1.43-2.904-.05-.646-.031-1.295.057-1.937.039-.154.035-.317-.013-.469-.047-.152-.137-.287-.257-.39-.133-.085-.295-.104-.435-.174-.203-.137-.376-.314-.507-.522-.38-.43-.899-.713-1.466-.797-.567-.084-1.146.035-1.633.337-.756.506-1.156 1.404-1.801 2.05-.334.333-.731.595-1.063.928-.664.713-1.096 1.612-1.237 2.577-.138.96-.177 1.932-.116 2.9-.006.293.036.585.124.865.097.23.23.441.395.627.791 1.034 1.836 1.844 3.034 2.35.008.058.012.115.013.173 0 .09 0 .179-.021.27l-.133-.02c-.486-.06-.998 0-1.449-.187-.77-.333-1.08-1.312-1.839-1.696-.062-.033-.128-.06-.197-.081-.179-1.26-.55-2.486-1.098-3.635-.27-.54-.575-1.103-.608-1.715.017-.568.145-1.127.376-1.647.61-1.857 1.091-3.755 1.441-5.679.245-1.206.491-2.412.74-3.618.335-.306.63-.652.88-1.03.52-.754.824-1.636.88-2.551.024-.456-.043-.912-.195-1.343-.153-.43-.39-.826-.696-1.164-.135-.165-.304-.299-.496-.392-.191-.093-.401-.144-.614-.149-.183.022-.36.081-.52.174-.16.093-.299.218-.408.367-.33.462-.568.984-.702 1.536-.27.898-.54 1.834-.418 2.764.11.77.486 1.606.102 2.283-1.263 2.215-2.135 4.705-3.072 7.08-.241.57-.438 1.157-.588 1.758-.188.967-.22 1.959-.097 2.937.222 1.834.575 3.65 1.055 5.433.197.811.429 1.668.894 2.337-.165.906-.205 1.83-.119 2.747.011.212.066.42.162.609.155.218.342.41.556.57.29.27.518.599.67.965.153.365.225.76.213 1.156.013.74.156 1.473.423 2.163.646 1.928 1.293 3.857 1.858 5.812.122.362.189.74.199 1.122 0 .541-.256 1.082-.137 1.623.09.244.164.495.221.749.004.197-.021.393-.076.581-.35 1.528-1.365 5.052-1.19 6.613l.348-.122c-.148 2.066-.785 4.089-1.017 6.155-.153 1.505-.137 3.021.048 4.522.101.671.159 1.348.173 2.026 0 .608-.097 1.209-.122 1.814-.012.814.036 1.628.144 2.434.105 1.266.306 2.522.601 3.757.562 2.099.184 4.284.246 6.458.073 1.517.057 3.037-.046 4.552-.056.641-.146 1.279-.164 1.923-.057 1.909.507 3.81.307 5.709-.094.889-.321 1.893.238 2.593.178.219.418.376.607.584.103.097.179.219.22.354.041.136.046.279.015.417-.073.214-.27.371-.316.595-.051.352.335.595.67.709l.094.027c-.007.117.011.234.052.344.042.11.106.21.188.294.21.16.459.259.721.287l4.319.838c.964.186 2.011.362 2.915.035.035.131.105.25.203.344.208.159.457.258.718.286l4.319.839c1.101.213 2.311.411 3.293-.136.283-.151.522-.374.694-.646.138-.258.218-.543.234-.835.016-.292-.031-.584-.14-.855-.082-.279-.251-.524-.48-.701-.307-.168-.656-.244-1.004-.216-.296.021-.593-.024-.87-.133-.084-.044-.158-.107-.215-.184.215-.27.423-.54.62-.811-.186-.043-.27-.3-.315-.489-.557-2.808.224-5.68.337-8.546.057-1.436-.055-2.873-.335-4.281-.105-.541-.232-1.055-.307-1.591-.397-2.793.664-5.63.326-8.432-.159-1.309.402-2.677.602-3.981.176-1.157.062-2.337-.051-3.516l-.894-9.195c-.121-1.241-.248-2.512-.777-3.643-.264-.632-.39-1.313-.367-1.998 1.08-.62 2.073-1.471 3.293-1.474.235-.893-.44-3.708-.834-4.541-1.537-3.284-2.145-6.927-1.757-10.534.143-1.295-.373-2.601-.2-3.894.026-.303.11-.598.248-.868.07-.134.172-.248.298-.332.125-.084.27-.134.42-.147-.075-.776-.175-1.558-.307-2.334.444-.454.809-.98 1.079-1.555.562-1.176.81-2.474 1.137-3.735.594-2.22 1.501-4.34 2.219-6.52.718-2.18.577-4.484 1.093-6.723.291-1.234 1.045-2.308 2.105-3 .411-.27.878-.478 1.161-.878.214-.33.326-.714.324-1.106.024-.425-.047-.85-.21-1.243-.162-.394-.41-.745-.727-1.03zM141.657 161.6c.081-.111.159-.221.232-.338-.286-.016-.648-.184-.683-.47-.009-.287.023-.574.094-.852.082-.497.051-1.006-.089-1.49-.1-.336-.248-.657-.356-.993-.106-.374-.189-.754-.251-1.138-.265-1.374-.676-2.715-1.228-4-.54-1.247-.122-2.607-.116-3.968 0-.641-.097-1.295.065-1.917.094-.368.269-.709.369-1.082.222-.857-.056-1.758-.329-2.599 1.066-2.526 1.209-5.409 1.428-8.156l.367-4.598c.054-.684.116-1.395.475-1.98.638 1.954 1.018 3.982 1.131 6.034.011.593.08 1.184.205 1.763.17.641.502 1.223.724 1.845.491 1.368.44 2.864.661 4.3.089.581.224 1.155.311 1.736.372 2.567-.23 5.166-.829 7.689-.367 1.547-.308 3.259-.392 4.846-.078 1.523-.159 3.045-.121 4.571 0 .465.03.941.024 1.414-.147-.018-.294-.026-.442-.024-.296.021-.593-.024-.87-.133-.171-.11-.303-.271-.38-.46z"/>
            <path fill="#3325D2" d="M151.072 163.71c.348-.027.697.047 1.004.213.229.178.396.421.481.698.108.27.155.56.138.851-.017.29-.097.573-.235.828-.172.271-.411.492-.694.641-.983.541-2.192.349-3.293.138l-4.319-.83c-.261-.023-.51-.116-.721-.27-.131-.145-.214-.327-.237-.521-.022-.194.016-.39.11-.561.188-.342.469-.623.81-.811 1.242-.774 2.699-1.082 4.125-1.247.539-.065 1.044-.238 1.449.138.216.197.205.443.508.603.278.107.577.152.874.13z"/>
            <path fill="#3325D2" d="M142.912 162.222c.347-.027.695.047 1.002.214.229.176.398.42.48.698.109.269.157.56.141.85-.017.29-.097.573-.235.829-.173.27-.412.491-.694.641-.983.541-2.192.349-3.296.138l-4.319-.833c-.26-.023-.51-.116-.721-.27-.131-.145-.215-.327-.238-.521-.023-.194.015-.39.109-.561.194-.342.479-.623.823-.812 1.239-.77 2.699-1.068 4.125-1.244.539-.067 1.044-.238 1.449.136.213.197.205.443.505.603.276.108.573.153.869.132z"/>
            <path fill="#46455B" d="M141.848 116.247c-2.496.01-4.989.201-7.458.571-.163.015-.323.057-.472.124-.524.271-.54 1.006-.527 1.596.035 2.399-.783 4.722-1.052 7.102-.155 1.494-.14 3.001.045 4.492.098.667.156 1.34.173 2.014 0 .601-.1 1.199-.124 1.802-.013.804.034 1.609.14 2.407.106 1.257.307 2.505.602 3.732.559 2.085.181 4.256.241 6.415.072 1.507.054 3.016-.052 4.521-.056.639-.145 1.271-.164 1.912-.057 1.894.504 3.787.305 5.68-.095.881-.324 1.893.235 2.574.178.217.418.374.604.582.102.096.178.216.219.35.042.133.048.276.019.412-.076.214-.284.371-.316.593-.054.349.332.592.667.703 1.275.392 2.642.359 3.897-.093 1.255-.452 2.33-1.299 3.064-2.414-.286-.016-.648-.184-.683-.468-.008-.285.024-.57.095-.846.083-.494.052-1-.089-1.48-.097-.335-.249-.654-.354-.987-.105-.372-.189-.749-.251-1.13-.263-1.366-.674-2.699-1.225-3.976-.54-1.239-.119-2.591-.114-3.938 0-.638-.094-1.29.065-1.906.095-.368.27-.706.373-1.082.221-.852-.057-1.744-.33-2.58 1.08-2.51 1.215-5.387 1.434-8.113l.369-4.598c.054-.679.119-1.387.476-1.966.637 1.939 1.017 3.954 1.131 5.993.008.59.076 1.178.202 1.755.17.633.499 1.212.723 1.831.489 1.352.438 2.843.659 4.27.089.579.221 1.147.308 1.726.372 2.55-.232 5.138-.834 7.64-.367 1.536-.311 3.245-.394 4.817-.081 1.511-.162 3.023-.125 4.538.033 1.392.141 2.888-.607 4.056.837.427 1.701.863 2.635.944 1.086.058 2.159-.268 3.031-.919.863-.651 1.614-1.44 2.222-2.334-.189-.044-.27-.301-.316-.487-.556-2.788.227-5.652.343-8.492.057-1.425-.055-2.852-.332-4.251-.106-.541-.235-1.052-.311-1.583-.391-2.774.67-5.595.335-8.383-.157-1.304.405-2.661.605-3.96.175-1.149.064-2.32-.049-3.477l-.888-9.128c-.119-1.236-.246-2.499-.775-3.621-.632-1.352-.24-3.018-.308-4.508-2.229.983-4.631 1.516-7.067 1.568z"/>
            <path fill="#A0616A" d="M147.063 89.216c.735-2.01 1.689-3.933 2.846-5.733.243-.354.46-.725.647-1.112.395-.876.435-1.866.643-2.807.58-2.634 2.475-4.895 2.718-7.572.087-.976.61-1.872.937-2.794.219-.624.467-1.284.996-1.682.355-.237.777-.354 1.204-.334.426.02.835.177 1.166.448.323.28.577.63.743 1.025.167.394.24.822.215 1.25.001.389-.111.77-.324 1.097-.286.398-.75.611-1.16.874-1.059.683-1.813 1.748-2.109 2.974-.518 2.226-.378 4.512-1.098 6.678-.721 2.166-1.62 4.275-2.222 6.49-.337 1.252-.577 2.543-1.142 3.71-.564 1.17-1.522 2.224-2.783 2.524-.079-.804-.287-1.59-.615-2.328-.378-.855-.98-1.84-.662-2.708zM133.483 92.302c-.104-1.58-.511-3.126-1.199-4.552-.269-.54-.572-1.081-.604-1.7.016-.565.144-1.121.375-1.637.611-1.85 1.094-3.739 1.444-5.655l.745-3.597c.334-.303.628-.646.878-1.022.521-.747.826-1.624.882-2.534.025-.454-.041-.908-.193-1.336-.153-.428-.389-.822-.695-1.157-.137-.162-.307-.293-.498-.383-.191-.09-.4-.14-.611-.142-.184.022-.361.08-.521.174-.159.093-.298.218-.408.367-.324.456-.558.97-.688 1.514-.27.893-.54 1.82-.421 2.745.108.766.486 1.596.1 2.267-1.266 2.204-2.138 4.675-3.078 7.031-.24.566-.436 1.15-.586 1.747-.189.962-.224 1.948-.102 2.92.221 1.827.573 3.635 1.053 5.41.27 1.114.607 2.326 1.541 2.994.769-1.234 1.547-2.442 2.586-3.454z"/>
            <path fill="#A0616A" d="M138.75 92.613c2.559 0 4.634-2.079 4.634-4.643 0-2.565-2.075-4.644-4.634-4.644-2.56 0-4.635 2.08-4.635 4.644s2.075 4.643 4.635 4.643z"/>
            <path fill="#A0616A" d="M137.019 93.062c-.027.847-.394 1.639-.756 2.407-.218.463-.504.979-1.004 1.082 1.406.563 2.865.983 4.354 1.252.51.115 1.036.145 1.555.09.437-.08.857-.235 1.239-.46.839-.477 1.559-1.139 2.104-1.935.546-.797.904-1.708 1.046-2.663-.571.075-1.15.09-1.725.046-.325.009-.641-.108-.882-.327-.152-.212-.239-.464-.249-.725-.102-.768-.184-1.538-.245-2.31-1.14.044-2.262.302-3.307.76-.432.19-.853.409-1.298.57-.27.098-1.05.117-1.239.293-.292.279.423 1.336.407 1.92z"/>
            <path fill="#2F2E41" d="M139.343 95.658c-.113-.601-.413-1.151-.855-1.573-.443-.422-1.007-.694-1.612-.777-.486-.057-.999 0-1.449-.181-.77-.333-1.094-1.304-1.839-1.685-.745-.381-1.711-.027-2.262.611-.55.639-.783 1.507-.95 2.318-.259 1.125-.344 2.284-.251 3.434.013.212.069.418.165.606.154.217.341.408.553.568.289.267.518.593.67.956.153.363.225.755.213 1.148.009.741.152 1.474.421 2.164.645 1.915 1.293 3.832 1.854 5.774.123.359.19.735.2 1.114-.013.541-.27 1.082-.138 1.609.089.243.162.492.219.744.005.196-.021.391-.076.579-.353 1.519-1.368 5.019-1.193 6.569 2.303-.85 5.777-1.353 8.217-1.623.671-.077 1.346-.117 2.022-.119 1.62 0 3.318.306 4.829-.289 1.401-.541 2.565-1.845 4.071-1.85.235-.885-.44-3.681-.832-4.508-1.535-3.26-2.14-6.881-1.749-10.464.141-1.287-.372-2.585-.197-3.87.025-.3.109-.594.246-.863.071-.133.174-.247.3-.33.125-.084.27-.135.421-.148-.18-2.014-.573-4.004-1.175-5.934-.218-.687-.612-1.482-1.33-1.528-.648-.043-1.126.541-1.593.998-.482.458-1.058.806-1.687 1.02-.258.057-.499.174-.702.343-.27.284-.27.747-.494 1.082-.389.6-1.382.657-1.62 1.328-.049.197-.085.398-.105.6-.11.395-.331.75-.637 1.022-.447.517-1.016.914-1.655 1.155z"/>
            <path fill="#46455B" d="M141.986 82.672c.04-.153.035-.315-.012-.465-.048-.151-.137-.285-.258-.387-.142-.067-.288-.126-.437-.176-.203-.138-.375-.317-.505-.525-.38-.429-.899-.71-1.465-.793-.567-.083-1.144.037-1.631.339-.759.503-1.156 1.395-1.803 2.036-.332.333-.729.593-1.064.925-.663.707-1.095 1.6-1.239 2.559-.139.954-.177 1.92-.116 2.882-.008.292.034.583.124.86.097.228.23.438.394.623.823 1.076 1.926 1.906 3.188 2.396 1.269.449 2.751.395 3.885-.333.113-.063.207-.157.269-.27.054-.17.054-.35 0-.52-.135-.673-.07-1.372.187-2.009.225-.444.425-.9.599-1.366.111-.534.126-1.083.043-1.622-.132-1.38-.372-2.77-.159-4.154zM220.411 154.68c0 26.606 16.661 48.139 37.251 48.139z"/>
            <path fill="#B7D2F0" d="M257.662 202.818c0-26.909 18.591-48.679 41.57-48.679zM233.908 157.076c0 25.275 10.622 45.729 23.754 45.729z"/>
            <path fill="#46455B" d="M257.662 202.818c0-34.381 21.49-62.201 48.049-62.201z"/>
            <path fill="#8FC7CE" d="M256.045 212c5.115 0 9.262-.702 9.262-1.569 0-.866-4.147-1.568-9.262-1.568s-9.261.702-9.261 1.568c0 .867 4.146 1.569 9.261 1.569z" opacity=".1"/>
            <path fill="#A8A8A8" d="M249.823 203.143s5.283-.162 6.876-1.298c1.592-1.136 8.127-2.494 8.521-.671.395 1.823 7.939 9.06 1.976 9.109-5.963.048-13.858-.931-15.448-1.894-1.59-.962-1.925-5.246-1.925-5.246z"/>
            <path fill="#000" d="M267.293 209.647c-5.963.049-13.858-.93-15.448-1.893-1.209-.741-1.693-3.389-1.852-4.614h-.178s.335 4.268 1.925 5.239c1.59.971 9.482 1.95 15.448 1.893 1.72-.014 2.316-.628 2.284-1.536-.232.573-.888.9-2.179.911z" opacity=".2"/>
            <path fill="#ECFBFF" d="M221.134 9.898c.234-.333.363-.729.37-1.136 0-2.466-5.015-4.462-11.202-4.462s-11.203 1.996-11.203 4.462c.005.459.16.903.44 1.266-6.889.77-11.529 2.215-11.529 3.873 0 2.463 10.258 4.462 22.945 4.462 12.687 0 22.945-1.998 22.945-4.462.008-1.745-5.208-3.273-12.766-4.003z" opacity=".1"/>
            <path fill="#8FC7CE" d="M183.97 137.371V130.8l3.023 3.029.756-.785-4.319-4.327-4.319 4.327.756.755 3.023-2.999v6.571h1.08zM118.645 159.007v-6.572l3.023 3.029.756-.784-4.319-4.327-4.319 4.327.755.754 3.024-2.999v6.572h1.08zM166.693 178.208v-6.572l3.024 3.029.755-.784-4.319-4.327-4.319 4.327.756.755 3.024-3v6.572h1.079z" opacity=".1"/>
        </g>
    </g>
    <defs>
        <linearGradient id="prefix__paint0_linear" x1="101.695" x2="101.695" y1="73.331" y2="0" gradientUnits="userSpaceOnUse">
            <stop stop-color="gray" stop-opacity=".25"/>
            <stop offset=".54" stop-color="gray" stop-opacity=".12"/>
            <stop offset="1" stop-color="gray" stop-opacity=".1"/>
        </linearGradient>
        <linearGradient id="prefix__paint1_linear" x1="20926.6" x2="24909.4" y1="45753.4" y2="45342.6" gradientUnits="userSpaceOnUse">
            <stop stop-color="gray" stop-opacity=".25"/>
            <stop offset=".54" stop-color="gray" stop-opacity=".12"/>
            <stop offset="1" stop-color="gray" stop-opacity=".1"/>
        </linearGradient>
        <clipPath id="prefix__clip0">
            <path fill="#fff" d="M.993 0H308.47v212H.993V0z"/>
        </clipPath>
        <clipPath id="prefix__clip1">
            <path fill="#fff" d="M0.993 0H308.46999999999997V212H0.993z"/>
        </clipPath>
    </defs>
</svg>
