<svg xmlns="http://www.w3.org/2000/svg" width="155" height="66" fill="none" viewBox="0 0 155 66">
    <g clip-path="url(#prefix__clip0)">
        <mask id="prefix__a" width="163" height="105" x="0" y="-19" maskUnits="userSpaceOnUse">
            <path fill="#fff" d="M.094-18.262h162.399V85.861H.094V-18.262z"/>
        </mask>
        <g mask="url(#prefix__a)">
            <path fill="#99D8E0" fill-rule="evenodd" d="M97.809 36.778c-2.75-4.082-7.019-6.878-11.812-7.767-1.575-8.604-9.137-14.984-17.934-14.984-2.643 0-5.271.584-7.67 1.7C56.35 7.514 48.007 2.274 38.807 2.274c-12.262 0-22.624 9.405-23.943 21.553-3.775 1.201-7.115 3.42-9.702 6.46-3.27 3.84-5.068 8.737-5.068 13.79 0 11.716 9.492 21.247 21.16 21.247 1.987 0 3.606-1.627 3.606-3.623 0-1.996-1.617-3.62-3.607-3.62-7.69 0-13.946-6.28-13.946-14.002 0-3.332 1.184-6.56 3.337-9.087 2.131-2.503 5.072-4.178 8.287-4.718l3.046-.512-.036-3.099-.007-.207c0-9.34 7.57-16.94 16.873-16.94 7.632 0 14.336 5.165 16.301 12.56l1.472 5.54 4.35-3.715c1.987-1.7 4.521-2.636 7.134-2.636 6.077 0 11.022 4.964 11.022 11.066v3.62h3.605c3.668 0 7.084 1.824 9.142 4.88.54.802 1.358 1.346 2.302 1.53.946.183 1.905-.014 2.704-.554.798-.543 1.339-1.365 1.522-2.314.182-.948-.014-1.914-.551-2.715z" clip-rule="evenodd"/>
            <path fill="#F5F5F5" fill-rule="evenodd" d="M48.337 47.501c-1.89 0-3.69.815-4.942 2.238-1.164-1.323-2.772-2.113-4.526-2.226-.143-.006-.285-.01-.425-.01-2.378 0-4.596 1.27-5.86 3.542-.497.892-.727 1.907-.727 2.927v10.083h3.311V53.682c0-.826.381-1.617 1.052-2.093 2.65-1.878 5.519-.002 5.519 2.537v9.929h3.31V53.682c0-.826.38-1.617 1.05-2.093 2.655-1.878 5.522-.002 5.522 2.537v9.929h3.314V53.983c0-.854-.15-1.708-.51-2.48-1.176-2.536-3.518-3.999-6.09-3.999l.002-.003zm23.948 2.59c-.759-.76-1.638-1.356-2.62-1.772-1.018-.434-2.098-.651-3.21-.651-1.111 0-2.193.218-3.207.65-.984.417-1.866 1.013-2.622 1.773-.757.76-1.351 1.645-1.765 2.632-.432 1.02-.649 2.105-.649 3.22 0 1.117.217 2.201.649 3.222.414.987 1.008 1.87 1.765 2.632.756.759 1.638 1.358 2.62 1.772 1.016.434 2.098.651 3.208.651 1.44 0 2.883-.386 4.126-1.11v-2.748c0-.014-.004-.031-.014-.042-.396-.537-.973-.574-1.347-.272-.24.199-.518.353-.806.468-4.393 1.729-8.532-2.716-6.236-7.142.382-.739.993-1.348 1.73-1.732 3.734-1.944 7.482.75 7.482 4.301v8.112h3.31v-8.112c0-1.115-.217-2.2-.648-3.22-.415-.987-1.01-1.873-1.766-2.632zm20.533-2.425h-3.31v9.55c0 1.18-.602 2.292-1.6 2.917-3.234 2.026-6.62-.28-6.62-3.362v-9.105h-3.31v9.105c0 1.005.196 1.982.58 2.9.374.887.91 1.683 1.594 2.365.68.686 1.473 1.222 2.357 1.6.913.388 1.888.584 2.889.584 1 0 1.974-.196 2.888-.584.882-.378 1.677-.914 2.357-1.599.684-.683 1.218-1.48 1.59-2.365.387-.919.585-1.896.585-2.901v-9.105zm19.756-.165c-1.89 0-3.687.815-4.942 2.238-1.162-1.323-2.772-2.113-4.526-2.226-.141-.006-.281-.01-.424-.01-2.38 0-4.599 1.274-5.865 3.549-.491.889-.72 1.904-.72 2.92v10.083h3.309V53.68c0-.826.38-1.618 1.053-2.094 2.651-1.877 5.52 0 5.52 2.54v9.928h3.311V53.68c0-.826.379-1.618 1.05-2.094 2.654-1.877 5.522 0 5.522 2.54v9.928h3.311V53.976c0-.841-.147-1.682-.497-2.45-1.171-2.55-3.521-4.023-6.102-4.023V47.5zm12.603 13.739c-1.674-1.114-3.486.7-2.38 2.385.066.1.156.19.254.258 1.677 1.103 3.477-.705 2.38-2.386-.066-.1-.154-.19-.254-.258zm21.916 2.683h4.2v-16.8h-4.2v16.8zM141.756 49.633c-.771-.784-1.67-1.399-2.668-1.827-1.036-.445-2.135-.67-3.269-.67-1.133 0-2.233.223-3.268.671-1.001.427-1.898 1.042-2.668 1.826-.773.781-1.378 1.694-1.799 2.71-.44 1.05-.661 2.168-.661 3.318 0 1.151.221 2.267.661 3.319.421 1.016 1.026 1.926 1.799 2.71.77.781 1.667 1.397 2.668 1.827 1.035.445 2.135.67 3.268.67 1.464 0 2.934-.398 4.201-1.145V60.21c0-.014-.004-.031-.014-.042-.407-.55-.994-.591-1.376-.275-.242.203-.522.361-.816.478-4.479 1.78-8.69-2.797-6.355-7.356.391-.76 1.014-1.389 1.763-1.782 3.805-2.005 7.62.767 7.62 4.428v8.357h3.374V55.66c0-1.148-.221-2.268-.661-3.318-.421-1.015-1.029-1.928-1.799-2.709z" clip-rule="evenodd"/>
            <mask id="prefix__b" width="9" height="10" x="145" y="35" maskUnits="userSpaceOnUse">
                <path fill="#fff" d="M145.257 35.553h8.375v8.507h-8.375v-8.507z"/>
            </mask>
            <g mask="url(#prefix__b)">
                <path fill="#99D8E0" fill-rule="evenodd" d="M153.634 39.807c0 2.347-1.876 4.253-4.189 4.253-2.314 0-4.188-1.907-4.188-4.253 0-2.348 1.874-4.254 4.188-4.254 2.314 0 4.19 1.905 4.19 4.254" clip-rule="evenodd"/>
            </g>
        </g>
    </g>
    <defs>
        <clipPath id="prefix__clip0">
            <path fill="#fff" d="M.093.923h154v64.4h-154V.923z"/>
        </clipPath>
    </defs>
</svg>
