<svg xmlns="http://www.w3.org/2000/svg" xmlns:xlink="http://www.w3.org/1999/xlink" width="332" height="44" viewBox="0 0 332 44">
    <defs>
        <path id="a" d="M0 .371h35.9v25.09H0z"/>
    </defs>
    <g fill="none" fill-rule="evenodd">
        <g transform="translate(0 11)">
            <mask id="b" fill="#fff">
                <use xlink:href="#a"/>
            </mask>
            <path fill="#FEFEFE" d="M25.636.371c-2.941 0-5.74 1.234-7.689 3.39-1.81-2.009-4.31-3.2-7.041-3.37a10.356 10.356 0 0 0-7.432 2.488C1.264 4.787 0 7.525 0 10.41v13.786c0 .694.583 1.265 1.293 1.265h2.563c.713 0 1.293-.57 1.293-1.265V10.41c0-2.757 2.295-5.002 5.114-5.002 2.815 0 5.11 2.245 5.11 5.002v13.786c0 .694.58 1.265 1.293 1.265h2.563c.714 0 1.293-.57 1.293-1.265V10.41c0-2.757 2.295-5.002 5.114-5.002 2.815 0 5.11 2.245 5.11 5.002v13.786c0 .694.58 1.265 1.293 1.265h2.563c.714 0 1.297-.57 1.297-1.265V10.41c0-2.684-1.068-5.203-3.008-7.1C30.955 1.416 28.376.37 25.636.37" mask="url(#b)"/>
        </g>
        <path fill="#FEFEFE" d="M60.337 16.663A12.463 12.463 0 0 0 51.498 13c-1.683 0-3.32.334-4.862.984a12.453 12.453 0 0 0-3.977 2.679 12.425 12.425 0 0 0-2.675 3.973A12.383 12.383 0 0 0 39 25.502c0 1.687.33 3.324.984 4.862a12.442 12.442 0 0 0 2.675 3.977A12.457 12.457 0 0 0 51.499 38c1.917 0 3.838-.446 5.556-1.299.435-.22.7-.65.7-1.134v-2.894a1.261 1.261 0 0 0-1.98-1.037 7.446 7.446 0 0 1-4.277 1.345c-4.124 0-7.479-3.355-7.479-7.48 0-4.123 3.355-7.478 7.48-7.478 4.123 0 7.478 3.355 7.478 7.479V36.49c0 .695.569 1.26 1.264 1.26h2.498c.696 0 1.261-.565 1.261-1.26V25.502c0-1.691-.33-3.324-.984-4.866a12.437 12.437 0 0 0-2.679-3.973M89.767 13h-2.439c-.68 0-1.236.565-1.236 1.264v12.487c0 3.436-2.732 6.23-6.092 6.23-3.36 0-6.096-2.794-6.096-6.23V14.264c0-.699-.552-1.264-1.229-1.264h-2.442c-.68 0-1.233.565-1.233 1.264v12.487c0 1.518.29 2.99.86 4.381a11.29 11.29 0 0 0 2.36 3.57 10.862 10.862 0 0 0 3.5 2.414c1.352.588 2.796.884 4.28.884 1.484 0 2.928-.296 4.284-.884a10.887 10.887 0 0 0 3.495-2.413 11.227 11.227 0 0 0 2.36-3.57A11.47 11.47 0 0 0 91 26.75V14.264c0-.699-.552-1.264-1.233-1.264M121.708 12c-2.946 0-5.757 1.23-7.706 3.378-1.819-2.002-4.326-3.19-7.062-3.359-.225-.011-.442-.019-.66-.019-2.507 0-4.899.88-6.793 2.498C97.27 16.4 96 19.13 96 22.004v13.735c0 .692.585 1.261 1.3 1.261h2.57c.713 0 1.298-.569 1.298-1.26V22.003c0-2.748 2.3-4.985 5.124-4.985 2.827 0 5.124 2.237 5.124 4.985v13.735c0 .692.585 1.261 1.301 1.261h2.57c.716 0 1.297-.569 1.297-1.26V22.003c0-2.748 2.297-4.985 5.124-4.985 2.827 0 5.128 2.237 5.128 4.985v13.735c0 .692.581 1.261 1.297 1.261h2.566c.716 0 1.301-.569 1.301-1.26V22.003c0-2.675-1.071-5.185-3.017-7.075-1.941-1.887-4.527-2.929-7.275-2.929M159.874 5.351l-7.334 17.68h14.572l-7.187-17.68h-.05zM145 36l13.525-34h2.896L175 36h-3.047l-3.843-10.735h-16.568L147.745 36H145zM176 25.522C176 16.685 181.852 13 187.851 13c2.948 0 5.802.614 7.599 1.746l-.55 2.032c-1.948-1.087-4.35-1.652-7.448-1.652-4.55 0-8.601 3.167-8.601 10.206 0 7.092 3.749 10.539 9.302 10.539 3.347 0 5.845-1.039 7.247-1.843l.6 1.984c-1.6 1.042-4.702 1.988-8.048 1.988C181.054 38 176 33.697 176 25.522M216.309 33.85v-8.302l-6.807.755c-4.265.516-6.653 1.932-6.653 5.094 0 3.017 2.892 4.67 6.397 4.67 2.794 0 5.792-1.084 7.063-2.218M200 31.445c0-4.199 3.305-6.417 8.534-6.982l7.775-.802v-3.066c0-4.199-2.998-5.38-7.114-5.38-2.384 0-4.67.613-6.602 1.605l-1.066-1.936c2.132-1.226 5.028-1.884 7.975-1.884 5.127 0 9.498 2.122 9.498 7.027v17.598h-2.085l-.406-2.17c-1.424 1.178-4.52 2.545-7.821 2.545-4.773 0-8.688-2.311-8.688-6.555M239.224 32.429V16.564c-1.235-1.605-4.057-2.76-6.434-2.76-4.456 0-7.918 2.91-7.918 11.143 0 8.336 3.861 11.096 7.968 11.096 3.117 0 5.245-2.057 6.384-3.614M222 25.049c0-9.49 4.605-13.606 10.495-13.606 2.868 0 5.145 1.258 6.729 2.764V0H242v37.6h-2.331l-.445-3.012h-.05C237.74 36.193 235.313 38 232 38c-4.7 0-10-3.06-10-12.95M249.683 23.735h14.637c-.047-5.837-2.825-8.614-7.109-8.614-3.481 0-7.105 2.355-7.528 8.614zm-.047 2.025c0 7.2 3.295 10.119 9.085 10.119 3.055 0 5.082-.612 7.247-1.787l.61 1.883c-1.46.894-4.94 2.025-8.426 2.025C250.908 38 247 33.573 247 25.522 247 16.816 251.99 13 257.306 13c6.121 0 9.694 4.005 9.694 11.158v1.602h-17.364zM274 13.433h2.464v2.31h.143c2.134-1.59 4.833-2.743 7.3-2.743 2.703 0 5.498.914 6.588 2.842h.143c2.134-1.833 5.072-2.842 7.396-2.842 3.889 0 6.966 1.878 6.966 6.598V38h-2.508V20.273c0-3.76-1.803-5.156-5.167-5.156-1.946 0-4.84.869-6.496 2.504.048.774.048 1.302.048 2.072V38h-2.607V20.08c0-3.567-1.612-4.963-4.884-4.963-2.181 0-5.071 1.063-6.731 2.554V38H274V13.433zM310.05 43.403l.536-1.975a9.696 9.696 0 0 0 3.023.506c3.76 0 5.124-3.581 6.488-6.475L310 13h2.827l8.638 19.29L329.219 13H332l-10.686 25.353c-1.508 3.581-3.945 5.647-7.558 5.647-1.171 0-2.781-.275-3.707-.597"/>
    </g>
</svg>
