<?xml version="1.0" encoding="UTF-8"?>
<svg width="18px" height="18px" viewBox="0 0 18 18" version="1.1" xmlns="http://www.w3.org/2000/svg" xmlns:xlink="http://www.w3.org/1999/xlink">
    <!-- Generator: Sketch 53.2 (72643) - https://sketchapp.com -->
    <title>ico_eng_3</title>
    <desc>Created with Sketch.</desc>
    <defs>
        <polygon id="path-1" points="2.3004005e-05 0.0578303583 14.188376 0.0578303583 14.188376 17.1377246 2.3004005e-05 17.1377246"></polygon>
    </defs>
    <g id="Page-1" stroke="none" stroke-width="1" fill="none" fill-rule="evenodd">
        <g id="new_console_menu_icons_puble" transform="translate(-93.000000, -360.000000)">
            <g id="ico_eng_3" transform="translate(93.000000, 360.000000)">
                <path d="M5.3251006,5.0716994 L5.60242994,4.2679509 L5.8796515,5.0716994 L5.3251006,5.0716994 Z M6.99586707,6.07172335 L5.94712455,3.03090898 C5.89635808,2.88389102 5.75796287,2.78516048 5.60242994,2.78516048 C5.44689701,2.78516048 5.3085018,2.88389102 5.25773533,3.03090898 L4.48373533,5.27444192 C4.46886108,5.30419042 4.45732814,5.33566347 4.45107665,5.36929222 L4.20866946,6.07172335 C4.14302874,6.26207066 4.24413054,6.46966347 4.43447784,6.53530419 C4.47381916,6.54888503 4.51391497,6.55545988 4.55336407,6.55545988 C4.70458563,6.55545988 4.84589102,6.46060958 4.8979509,6.30949581 L5.07353174,5.80096886 L6.13122036,5.80096886 L6.30658563,6.30949581 C6.37222635,6.4999509 6.58035808,6.60126826 6.77016647,6.53530419 C6.96051377,6.46966347 7.06161557,6.26207066 6.99586707,6.07172335 L6.99586707,6.07172335 Z" id="Fill-1" fill="#344154"></path>
                <path d="M9.46695449,7.5877976 C9.46695449,7.38645629 9.30366108,7.22316287 9.10231976,7.22316287 L7.99440359,7.22316287 L9.41888263,4.72752216 C9.48333772,4.61467186 9.48290659,4.47616886 9.41769701,4.36385749 C9.35237964,4.25133054 9.2322,4.18213293 9.10231976,4.18213293 L7.3664515,4.18213293 C7.16511018,4.18213293 7.00181677,4.34553413 7.00181677,4.54687545 C7.00181677,4.74810898 7.16511018,4.9114024 7.3664515,4.9114024 L8.47436766,4.9114024 L7.04978084,7.40704311 C6.98543353,7.51989341 6.98586467,7.65839641 7.05107425,7.77081557 C7.11628383,7.88323473 7.23646347,7.95243234 7.3664515,7.95243234 L9.10231976,7.95243234 C9.30366108,7.95243234 9.46695449,7.78913892 9.46695449,7.5877976" id="Fill-3" fill="#344154"></path>
                <path d="M16.0674359,11.2232048 C16.1728491,10.4168695 15.9581425,9.61721677 15.4629808,8.97148024 C15.3185497,8.78318084 15.0484419,8.74707305 14.8596036,8.89193533 C14.6709808,9.03658204 14.6351964,9.30668982 14.7800587,9.49542036 C15.1355317,9.95889341 15.2896635,10.5331689 15.2139988,11.1117557 C15.1384419,11.6899114 14.8419269,12.2047976 14.3789928,12.5615641 C14.1908012,12.7069653 14.1559868,12.9769653 14.3009569,13.1653725 C14.3734958,13.2593605 14.4770766,13.3148695 14.5861545,13.3292048 C14.6955557,13.3435401 14.8104539,13.3159473 14.9048731,13.2434084 C15.5491006,12.7464144 15.9621305,12.0288934 16.0674359,11.2232048" id="Fill-5" fill="#FB9223"></path>
                <path d="M16.8425569,7.66105868 C16.6982335,7.47254371 16.4279102,7.43697485 16.2391796,7.58151377 C16.0505569,7.72616048 16.0147725,7.99626826 16.1596347,8.18489102 C16.860988,9.09987305 17.1650479,10.2322563 17.0157665,11.3743401 C16.8667006,12.5157772 16.2816467,13.5321844 15.368497,14.2361246 C15.1801976,14.381418 15.1453832,14.651418 15.2905689,14.8399329 C15.3628922,14.933921 15.4664731,14.9894299 15.5756587,15.0036575 C15.6851677,15.0179928 15.7998503,14.9905078 15.8942695,14.9178611 C16.9890359,14.0735856 17.6902814,12.8547593 17.8692036,11.4857892 C18.0483413,10.1162802 17.6835988,8.75798084 16.8425569,7.66105868" id="Fill-7" fill="#FB9223"></path>
                <g id="Group-11" transform="translate(0.000000, 0.050012)">
                    <mask id="mask-2" fill="white">
                        <use xlink:href="#path-1"></use>
                    </mask>
                    <g id="Clip-10"></g>
                    <path d="M13.6757533,8.4067976 L13.5790707,8.33522874 C13.3333222,8.1547976 13.0791665,7.96822275 12.9547832,7.70684551 C12.7970946,7.37573174 12.8500168,6.93198323 12.8800886,6.75694132 L12.8847234,6.73107305 C12.9028311,6.62857006 12.9215856,6.52251018 12.9347353,6.41224671 C13.0377772,5.5496479 12.9833461,4.71852216 12.7730587,3.94161198 C12.5468192,3.10595928 12.0705198,2.33724072 11.3957892,1.71823473 C7.97029222,-1.42249581 3.46986108,0.85251018 3.42405269,0.876222754 C-0.968594012,3.22236647 -0.0302227545,7.34921677 0.362112575,8.55812695 C0.551166467,9.14102515 0.859106587,9.70603114 1.3035018,10.2860192 C2.17310659,11.4205581 2.17396886,12.779612 2.17375329,12.7937317 L2.17375329,16.782618 C2.17375329,16.9783545 2.33305868,17.1377677 2.52890299,17.1377677 C2.72474731,17.1377677 2.88405269,16.9783545 2.88405269,16.782618 L2.88405269,12.7982587 C2.88491497,12.7333725 2.89170539,11.1906539 1.86742994,9.85391138 C1.47272335,9.33891737 1.20142994,8.84354012 1.03770539,8.3390012 C0.590184431,6.95946826 -0.0408934132,3.53213892 3.75451976,1.50492934 C3.79515449,1.48391138 7.85377725,-0.565717365 10.9157174,2.2418515 C11.4910707,2.76956407 11.8962323,3.42165988 12.0874419,4.12732455 C12.2738012,4.81606707 12.3215497,5.55643832 12.229394,6.32795928 C12.2184,6.41957605 12.2022323,6.51140838 12.184879,6.60884551 L12.1806754,6.63363593 C12.1633222,6.73161198 12.1358371,6.93489341 12.1456455,7.19422275 C12.1563162,7.47467784 12.1765796,7.69218683 12.3412743,7.93922874 C12.6910347,8.46403114 13.0400407,8.72540838 13.2948431,8.91607904 C13.504376,9.0727976 13.5524479,9.11968383 13.5524479,9.16667784 C13.5524479,9.25107305 13.2840647,9.44325269 12.9825916,9.53918084 C12.8320168,9.5864982 12.7383521,9.73965988 12.7645437,9.89540838 L12.799897,10.1038635 L11.6818491,10.5899713 C11.5211425,10.6600311 11.4472024,10.8476838 11.5171545,11.0083904 C11.5746036,11.1406419 11.7204359,11.2155521 11.8610946,11.1935641 C11.8407234,11.2178156 11.8226156,11.244115 11.8097892,11.274079 C11.7752982,11.3543784 11.7741126,11.4433006 11.8064479,11.5242467 C11.8386754,11.6054084 11.9006515,11.669109 11.9809509,11.7036 L12.7027832,12.0142347 C12.6057772,12.1815162 12.5973701,12.1960671 12.5971545,12.1963904 C12.5607234,12.2595521 12.557382,12.3314443 12.5544719,12.3949293 C12.5527473,12.4318994 12.5511305,12.4667138 12.5436934,12.4975401 C12.5232144,12.5824743 12.4796695,12.6691329 12.424376,12.7352048 C12.3213341,12.858079 12.1580407,12.917576 11.9309389,12.917576 L11.9267353,12.917576 L10.9186275,12.8191689 C10.0155018,12.7298156 9.18599281,13.354103 9.02776527,14.240091 C8.93075928,14.7825701 8.88160958,15.4733605 8.88160958,16.2930611 C8.88160958,16.4887976 9.04102275,16.6482108 9.23675928,16.6482108 C9.43260359,16.6482108 9.59190898,16.4887976 9.59190898,16.2930611 C9.59190898,15.5157198 9.63739401,14.8670731 9.72696287,14.3650132 C9.82073533,13.8407497 10.3136335,13.4707257 10.8495377,13.5262347 L11.8725198,13.6259353 L11.8994659,13.6275521 C12.3655257,13.6266898 12.7231545,13.4845222 12.9687952,13.1914563 C13.1581725,12.9654323 13.2695138,12.661588 13.3000168,12.2883305 L13.453394,12.0235042 C13.5002802,11.9427737 13.510412,11.8454443 13.4809868,11.7567377 C13.4515617,11.6679234 13.3854898,11.5959234 13.2996934,11.5591689 L12.2396335,11.1029174 C12.2107473,11.0903066 12.1806754,11.0837317 12.150388,11.0799593 L13.2816934,10.5880311 C13.4161006,10.529612 13.4929509,10.3878754 13.4685916,10.2433365 L13.4347473,10.0433964 C13.7352503,9.90510898 14.188376,9.62120479 14.188376,9.16667784 C14.188376,8.78997126 13.9277533,8.59509701 13.6757533,8.4067976" id="Fill-9" fill="#344154" mask="url(#mask-2)"></path>
                </g>
                <path d="M12.5970683,12.2466287 L12.5970683,12.2464132 C12.597176,12.2464132 12.597176,12.2464132 12.597176,12.2463054 C12.5970683,12.2464132 12.5970683,12.2466287 12.5970683,12.2466287" id="Fill-12" fill="#344154"></path>
            </g>
        </g>
    </g>
</svg>