<?xml version="1.0" encoding="utf-8"?>
<!-- Generator: Adobe Illustrator 24.2.1, SVG Export Plug-In . SVG Version: 6.00 Build 0)  -->
<svg version="1.1" xmlns="http://www.w3.org/2000/svg" xmlns:xlink="http://www.w3.org/1999/xlink" x="0px" y="0px"
	 viewBox="0 0 20 20" style="enable-background:new 0 0 20 20;" xml:space="preserve">
<style type="text/css">
	.st0{display:none;}
	.st1{display:inline;}
	.st2{fill:#FFFFFF;}
	.st3{filter:url(#Adobe_OpacityMaskFilter);}
	.st4{fill-rule:evenodd;clip-rule:evenodd;fill:#FFFFFF;}
	.st5{mask:url(#mask-2_2_);fill:#FFFFFF;}
	.st6{filter:url(#Adobe_OpacityMaskFilter_1_);}
	.st7{mask:url(#mask-4_2_);fill:#FFFFFF;}
</style>
<g id="레이어_2" class="st0">
	<g class="st1">
		<rect x="40" width="20" height="20"/>
	</g>
</g>
<g id="레이어_1">
	<g id="Page-1">
		<g id="new_console_menu_icons_puble" transform="translate(-58.000000, -360.000000)">
			<g id="ico_eng_2" transform="translate(58.000000, 360.000000)">
				<path id="Fill-1" class="st2" d="M15.08,14.17c-0.51,0-0.93,0.42-0.93,0.93c0,0.51,0.42,0.93,0.93,0.93
					c0.51,0,0.93-0.42,0.93-0.93C16,14.59,15.59,14.17,15.08,14.17 M15.08,16.74c-0.91,0-1.64-0.74-1.64-1.64
					c0-0.91,0.74-1.64,1.64-1.64c0.91,0,1.64,0.74,1.64,1.64C16.72,16.01,15.98,16.74,15.08,16.74"/>
				<g id="Group-5" transform="translate(0.000000, 0.882312)">
					<g id="Clip-4">
					</g>
					<defs>
						<filter id="Adobe_OpacityMaskFilter" filterUnits="userSpaceOnUse" x="0" y="0.12" width="13.59" height="16.19">
							<feColorMatrix  type="matrix" values="1 0 0 0 0  0 1 0 0 0  0 0 1 0 0  0 0 0 1 0"/>
						</filter>
					</defs>
					<mask maskUnits="userSpaceOnUse" x="0" y="0.12" width="13.59" height="16.19" id="mask-2_2_">
						<g class="st3">
							<polygon id="path-1_2_" class="st4" points="0,0.12 13.59,0.12 13.59,16.32 0,16.32 							"/>
						</g>
					</mask>
					<path id="Fill-3" class="st5" d="M3.25,15.01c1.08,0.79,4.29,0.78,5.32-0.03v-2.01c0-0.3,0.22-0.66,0.85-0.66
						c0.05,0,0.08,0,0.09,0c0,0,0.06,0,0.16,0c1.05,0,1.66-0.22,1.7-0.43c0.14-0.75-0.02-2.32-0.03-2.33
						c-0.02-0.16,0.08-0.31,0.23-0.37c0.01,0,0.64-0.25,1.16-0.55c0.05-0.03,0.12-0.08,0.13-0.14c0.01-0.06-0.04-0.14-0.04-0.15
						c-1.32-2.05-1.44-2.7-1.45-2.85c-0.51-4.33-4.02-4.67-5.08-4.67c-0.1,0-0.19,0-0.26,0c-0.05,0-0.09,0-0.12,0
						c-0.87,0-5.19,0.23-5.21,4.73c0,0,0,0.03,0,0.03c0,2.88,0.77,3.81,1.44,4.64c0.27,0.32,0.52,0.63,0.69,1.02
						C3.55,12.8,3.36,14.43,3.25,15.01 M5.9,16.32c-1.34,0-2.68-0.31-3.29-0.92c-0.09-0.09-0.12-0.22-0.09-0.34
						c0.01-0.04,0.43-1.86-0.31-3.5C2.06,11.26,1.85,11,1.61,10.7C0.89,9.82,0,8.73,0,5.6V5.57c0.03-5.29,5.33-5.44,5.93-5.44
						c0.02,0,0.06,0,0.1,0c0.08,0,0.17,0,0.28,0c2.5,0,5.33,1.4,5.79,5.33c0,0.03,0.1,0.58,1.33,2.51c0.02,0.02,0.22,0.33,0.14,0.7
						c-0.04,0.17-0.15,0.41-0.47,0.6c-0.36,0.21-0.76,0.39-1.01,0.49c0.04,0.51,0.11,1.61-0.01,2.28c-0.16,0.84-1.4,1.01-2.41,1.01
						c-0.13,0-0.21,0-0.21,0H9.43c-0.06,0-0.1,0.01-0.13,0.01v2.09c0,0.09-0.04,0.19-0.11,0.26C8.58,16.01,7.24,16.32,5.9,16.32"/>
				</g>
				<g id="Group-8" transform="translate(2.196532, 0.073064)">
					<g id="Clip-7">
					</g>
					<defs>
						<filter id="Adobe_OpacityMaskFilter_1_" filterUnits="userSpaceOnUse" x="0.1" y="0.08" width="13.14" height="19.67">
							<feColorMatrix  type="matrix" values="1 0 0 0 0  0 1 0 0 0  0 0 1 0 0  0 0 0 1 0"/>
						</filter>
					</defs>
					<mask maskUnits="userSpaceOnUse" x="0.1" y="0.08" width="13.14" height="19.67" id="mask-4_2_">
						<g class="st6">
							<polygon id="path-3_2_" class="st4" points="0.1,0.08 13.24,0.08 13.24,19.74 0.1,19.74 							"/>
						</g>
					</mask>
					<path id="Fill-6" class="st7" d="M0.81,6.83c0-1.17,0.7-2.17,1.71-2.62v0.83C1.93,5.43,1.55,6.09,1.55,6.83
						c0,1.17,0.95,2.13,2.13,2.13c1.17,0,2.13-0.95,2.13-2.13c0-0.75-0.39-1.41-0.98-1.79V4.22c1,0.44,1.71,1.45,1.71,2.62
						c0,1.58-1.28,2.86-2.86,2.86S0.81,8.41,0.81,6.83 M3.67,5.42c0.78,0,1.41,0.63,1.41,1.41c0,0.78-0.63,1.41-1.41,1.41
						c-0.78,0-1.41-0.63-1.41-1.41C2.26,6.05,2.9,5.42,3.67,5.42 M3.67,3.97c0.15,0,0.29,0.02,0.44,0.04v0.74
						C3.97,4.72,3.82,4.7,3.67,4.7c-0.15,0-0.3,0.02-0.44,0.05V4.01C3.38,3.99,3.52,3.97,3.67,3.97 M12.88,15.95
						c-0.2,0-0.36,0.16-0.36,0.36v0.39c0,1.28-1.04,2.33-2.33,2.33H6.36c-1.28,0-2.32-1.04-2.32-2.33v-6.31
						c1.81-0.18,3.22-1.71,3.22-3.56c0-1.57-1.02-2.9-2.43-3.38V0.44c0-0.2-0.16-0.36-0.36-0.36c-0.2,0-0.36,0.16-0.36,0.36v2.85
						C3.97,3.27,3.82,3.26,3.67,3.26c-0.15,0-0.29,0.01-0.44,0.03V0.44c0-0.2-0.16-0.36-0.36-0.36c-0.2,0-0.36,0.16-0.36,0.36v3.01
						C1.11,3.93,0.1,5.27,0.1,6.83c0,1.85,1.41,3.38,3.22,3.56v6.31c0,1.68,1.36,3.04,3.04,3.04h3.84c1.68,0,3.04-1.37,3.04-3.04
						v-0.39C13.24,16.11,13.08,15.95,12.88,15.95"/>
				</g>
				<path id="Fill-9" class="st2" d="M18.07,7.38h-4.18c-0.2,0-0.36-0.16-0.36-0.36c0-0.2,0.16-0.36,0.36-0.36h4.18
					c0.2,0,0.36,0.16,0.36,0.36C18.43,7.22,18.27,7.38,18.07,7.38"/>
				<path id="Fill-11" class="st2" d="M16.07,5.47h-2.83c-0.2,0-0.36-0.16-0.36-0.36c0-0.2,0.16-0.36,0.36-0.36h2.83
					c0.2,0,0.36,0.16,0.36,0.36C16.43,5.31,16.27,5.47,16.07,5.47"/>
				<path id="Fill-13" class="st2" d="M18.07,9.29h-3.3c-0.2,0-0.36-0.16-0.36-0.36c0-0.2,0.16-0.36,0.36-0.36h3.3
					c0.2,0,0.36,0.16,0.36,0.36C18.43,9.13,18.27,9.29,18.07,9.29"/>
				<path id="Fill-15" class="st2" d="M18.07,11.2h-3.9c-0.2,0-0.36-0.16-0.36-0.36c0-0.2,0.16-0.36,0.36-0.36h3.9
					c0.2,0,0.36,0.16,0.36,0.36C18.43,11.04,18.27,11.2,18.07,11.2"/>
				<path id="Fill-17" class="st2" d="M18.07,13.11h-4.74c-0.2,0-0.36-0.16-0.36-0.36c0-0.2,0.16-0.36,0.36-0.36h4.74
					c0.2,0,0.36,0.16,0.36,0.36C18.43,12.95,18.27,13.11,18.07,13.11"/>
				<path id="Fill-19" class="st2" d="M13.43,15.1c0-0.12,0.01-0.24,0.04-0.36h-2.34v-0.99c-0.22,0.07-0.47,0.11-0.72,0.14v1.22
					c0,0.2,0.16,0.36,0.36,0.36h2.7C13.45,15.34,13.43,15.22,13.43,15.1"/>
				<g id="Fill-21">
					<path class="st2" d="M17.98,4.93v-0.8l0.8,0.8H17.98z M19.99,5.22L19.99,5.22c-0.01-0.03-0.02-0.06-0.03-0.09
						c0-0.01-0.01-0.01-0.01-0.02c-0.02-0.03-0.03-0.05-0.06-0.07l-2.02-2.02c-0.02-0.02-0.05-0.04-0.08-0.06
						c-0.01,0-0.01-0.01-0.02-0.01c-0.05-0.02-0.1-0.04-0.16-0.04h-6.85c-0.02,0-0.03,0-0.05,0c0.18,0.22,0.35,0.45,0.51,0.71h6.03
						v1.66c0,0.2,0.16,0.36,0.36,0.36h1.66v9.09h-2.6c0.03,0.11,0.04,0.23,0.04,0.36c0,0.12-0.02,0.24-0.04,0.36h2.96
						c0.2,0,0.36-0.16,0.36-0.36V5.29C20,5.27,20,5.24,19.99,5.22L19.99,5.22z"/>
				</g>
			</g>
		</g>
	</g>
</g>
</svg>
