<?xml version="1.0" encoding="utf-8"?>
<!-- Generator: Adobe Illustrator 24.2.1, SVG Export Plug-In . SVG Version: 6.00 Build 0)  -->
<svg version="1.1" xmlns="http://www.w3.org/2000/svg" xmlns:xlink="http://www.w3.org/1999/xlink" x="0px" y="0px"
	 viewBox="0 0 20 20" style="enable-background:new 0 0 20 20;" xml:space="preserve">
<style type="text/css">
	.st0{display:none;}
	.st1{display:inline;}
	.st2{fill:#FFFFFF;}
	.st3{filter:url(#Adobe_OpacityMaskFilter);}
	.st4{fill-rule:evenodd;clip-rule:evenodd;fill:#FFFFFF;}
	.st5{mask:url(#mask-2_2_);fill:#FFFFFF;}
</style>
<g id="레이어_2" class="st0">
	<g class="st1">
		<rect x="40" width="20" height="20"/>
	</g>
</g>
<g id="레이어_1">
	<g id="Page-1">
		<g id="아바타" transform="translate(-401.000000, -1242.000000)">
			<g id="Group-18" transform="translate(401.000000, 1242.000000)">
				<g id="Fill-1">
					<path class="st2" d="M13.89,17.36H4.38V4.44h6.3v2.84c0,0.2,0.16,0.37,0.36,0.37h2.85V17.36z M13.38,6.92h-1.97V4.95
						L13.38,6.92z M14.61,7.21L14.61,7.21c-0.01-0.03-0.02-0.06-0.03-0.09c0-0.01-0.01-0.01-0.01-0.02
						c-0.02-0.03-0.03-0.06-0.06-0.08L11.3,3.81c-0.02-0.02-0.05-0.04-0.08-0.06c-0.01,0-0.01-0.01-0.02-0.01
						c-0.03-0.01-0.06-0.03-0.09-0.03h0c-0.02,0-0.05-0.01-0.07-0.01H4.01c-0.2,0-0.36,0.16-0.36,0.36v13.66
						c0,0.2,0.16,0.37,0.36,0.37h10.24c0.2,0,0.36-0.16,0.36-0.37V7.28C14.62,7.26,14.62,7.24,14.61,7.21L14.61,7.21z"/>
				</g>
				<g id="Group-5" transform="translate(3.012048, 5.968072)">
					<g id="Clip-4">
					</g>
					<defs>
						<filter id="Adobe_OpacityMaskFilter" filterUnits="userSpaceOnUse" x="3.72" y="0.09" width="9.75" height="13.95">
							<feColorMatrix  type="matrix" values="1 0 0 0 0  0 1 0 0 0  0 0 1 0 0  0 0 0 1 0"/>
						</filter>
					</defs>
					<mask maskUnits="userSpaceOnUse" x="3.72" y="0.09" width="9.75" height="13.95" id="mask-2_2_">
						<g class="st3">
							<polygon id="path-1_2_" class="st4" points="3.72,0.09 13.47,0.09 13.47,14.03 3.72,14.03 							"/>
						</g>
					</mask>
					<path id="Fill-3" class="st5" d="M13.1,0.09h-2.57l0.73,0.73h1.48V13.3H4.45v-1.18H3.72v1.54c0,0.2,0.16,0.36,0.37,0.36h9.02
						c0.2,0,0.36-0.16,0.36-0.36V0.45C13.47,0.25,13.3,0.09,13.1,0.09"/>
				</g>
				<path id="Fill-6" class="st2" d="M12.63,9.42H5.61c-0.2,0-0.37-0.16-0.37-0.36c0-0.2,0.16-0.36,0.37-0.36h7.02
					c0.2,0,0.36,0.16,0.36,0.36C13,9.26,12.83,9.42,12.63,9.42"/>
				<path id="Fill-8" class="st2" d="M12.65,11.73H5.61c-0.2,0-0.37-0.16-0.37-0.36c0-0.2,0.16-0.36,0.37-0.36h7.04
					c0.2,0,0.36,0.16,0.36,0.36C13.01,11.57,12.85,11.73,12.65,11.73"/>
				<path id="Fill-10" class="st2" d="M9.43,7.11H5.61c-0.2,0-0.37-0.16-0.37-0.36c0-0.2,0.16-0.36,0.37-0.36h3.82
					c0.2,0,0.36,0.16,0.36,0.36C9.79,6.95,9.63,7.11,9.43,7.11"/>
				<path id="Fill-12" class="st2" d="M12.63,14.04H5.61c-0.2,0-0.37-0.16-0.37-0.36c0-0.2,0.16-0.37,0.37-0.37h7.02
					c0.2,0,0.36,0.16,0.36,0.37C13,13.88,12.83,14.04,12.63,14.04"/>
				<path id="Fill-14" class="st2" d="M7.87,16.35H5.61c-0.2,0-0.37-0.16-0.37-0.36c0-0.2,0.16-0.36,0.37-0.36h2.26
					c0.2,0,0.36,0.16,0.36,0.36C8.23,16.19,8.07,16.35,7.87,16.35"/>
				<path id="Fill-16" class="st2" d="M16.37,3.8c-0.14-0.14-0.37-0.14-0.51,0l-0.53,0.53C15.27,1.93,13.31,0,10.89,0
					c-1.38,0-2.66,0.62-3.5,1.72C7.21,1.95,7.05,2.2,6.92,2.46C6.83,2.64,6.9,2.86,7.09,2.95c0.18,0.09,0.4,0.02,0.49-0.16
					c0.11-0.22,0.24-0.43,0.39-0.62c0.71-0.91,1.78-1.44,2.93-1.44c2.01,0,3.64,1.6,3.7,3.59L14.08,3.8c-0.14-0.14-0.37-0.14-0.51,0
					c-0.14,0.14-0.14,0.37,0,0.52l1.15,1.15c0.07,0.07,0.16,0.11,0.26,0.11c0.09,0,0.19-0.03,0.26-0.11l1.15-1.15
					C16.51,4.17,16.51,3.94,16.37,3.8"/>
			</g>
		</g>
	</g>
</g>
</svg>
