<svg xmlns="http://www.w3.org/2000/svg" width="146" height="66" viewBox="0 0 146 66">
    <path fill="#002C49" fill-rule="nonzero" d="M9.5 56.5l-4.5 9-4.5-9h9zm-4-4v3h-1v-3h1zm0-4v3h-1v-3h1zm0-4v3h-1v-3h1zm0-4v3h-1v-3h1zm.52-3.48v1H5.5v1.48h-1v-2.48h1.52zm76 0v1h-3v-1h3zm-4 0v1h-3v-1h3zm-12 0v1h-3v-1h3zm75.48-.52v1.52h-2.48v-1h1.48v-.52h1zm-3.48.52v1h-3v-1h3zm-4 0v1h-3v-1h3zm-4 0v1h-3v-1h3zm-4 0v1h-3v-1h3zm-4 0v1h-3v-1h3zm-4 0v1h-3v-1h3zm-4 0v1h-3v-1h3zm-4 0v1h-3v-1h3zm-4 0v1h-3v-1h3zm-4 0v1h-3v-1h3zm-4 0v1h-3v-1h3zm-4 0v1h-3v-1h3zm-4 0v1h-3v-1h3zm-4 0v1h-3v-1h3zm-68 0v1h-3v-1h3zm-8 0v1h-3v-1h3zm64 0v1h-3v-1h3zm-4 0v1h-3v-1h3zm-56 0v1h-3v-1h3zm48 0v1h-3v-1h3zm-4 0v1h-3v-1h3zm-4 0v1h-3v-1h3zm-4 0v1h-3v-1h3zm-4 0v1h-3v-1h3zm-4 0v1h-3v-1h3zm-4 0v1h-3v-1h3zm-4 0v1h-3v-1h3zm-4 0v1h-3v-1h3zm-4 0v1h-3v-1h3zm-4 0v1h-3v-1h3zM141.5 32.5v3h-1v-3h1zm0-4v3h-1v-3h1zm0-4v3h-1v-3h1zm0-4v3h-1v-3h1zm0-4v3h-1v-3h1zm0-4v3h-1v-3h1zm-.5-12a4.5 4.5 0 0 1 .5 8.972V11.5h-1V9.473A4.5 4.5 0 0 1 141 .5z" opacity=".7"/>
</svg>
