<svg xmlns="http://www.w3.org/2000/svg" xmlns:xlink="http://www.w3.org/1999/xlink" width="30" height="30" viewBox="0 0 30 30">
    <defs>
        <path id="prefix__a" d="M0 0.001L29.062 0.001 29.062 29.063 0 29.063z"/>
    </defs>
    <g fill="none" fill-rule="evenodd">
        <mask id="prefix__b" fill="#fff">
            <use xlink:href="#prefix__a"/>
        </mask>
        <path fill="#7D71D1" d="M21.31 13.477l-10.312-6.27c-.931-.515-2.091.153-2.091 1.23v12.188c0 1.084 1.165 1.747 2.09 1.23l10.314-5.917c.96-.533.96-1.922 0-2.461m7.752 1.055c0 8.027-6.505 14.53-14.531 14.53-8.028 0-14.533-6.503-14.533-14.53C0 6.504 6.504 0 14.531 0c8.027 0 14.531 6.504 14.531 14.532" mask="url(#prefix__b)"/>
    </g>
</svg>
