<svg xmlns="http://www.w3.org/2000/svg" xmlns:xlink="http://www.w3.org/1999/xlink" width="113" height="22" viewBox="0 0 113 22">
    <defs>
        <path id="prefix__a" d="M0 21.116L112.682 21.116 112.682 0 0 0z"/>
    </defs>
    <g fill="none" fill-rule="evenodd">
        <path fill="#002B49" d="M0 10.83v-.415c0-6.036 4.353-9.3 8.68-9.3 2.487 0 4.378.725 5.492 1.58l-.725 1.71C12.255 3.498 10.7 2.954 8.73 2.954c-3.29 0-6.632 2.694-6.632 7.435v.363c0 4.25 2.694 7.54 6.321 7.54 2.15 0 4.224-.648 5.545-1.71l.7 1.58c-1.27 1.166-3.757 1.995-6.374 1.995C3.835 20.157 0 16.685 0 10.83"/>
        <mask id="prefix__b" fill="#fff">
            <use xlink:href="#prefix__a"/>
        </mask>
        <path fill="#002B49" d="M17.593 19.924L19.562 19.924 19.562 0 17.593 0zM33.009 13.24v-.39c0-3.73-2.047-5.31-4.172-5.31-2.332 0-4.197 1.943-4.197 5.233v.44c0 3.706 2.099 5.39 4.249 5.39 2.28 0 4.12-1.995 4.12-5.364m-10.416-.025v-.208c0-4.456 2.798-7.177 6.27-7.177 3.55 0 6.244 2.643 6.244 7.074v.207c0 4.353-2.85 7.177-6.27 7.177-3.627 0-6.244-2.747-6.244-7.073M48.554 19.924h-1.969v-1.943c-1.036 1.295-2.746 2.176-4.43 2.176-2.202 0-4.197-1.399-4.197-4.145v-9.82h1.969v9.431c0 1.866 1.166 2.772 2.98 2.772 1.269 0 2.72-1.036 3.678-2.357V6.192h1.97v13.732zM61.276 16.141V9.38c-.621-.959-2.383-1.632-3.471-1.632-2.229 0-4.094 1.477-4.094 5.285v.389c0 3.808 1.943 5.026 4.016 5.026 1.373 0 3.057-1.321 3.55-2.306m-9.639-2.643v-.414c0-4.897 2.643-7.073 5.778-7.073 1.399 0 3.031.544 3.86 1.321V0h2.021v19.924H61.64l-.31-1.71c-.83 1.062-2.41 1.97-4.069 1.97-2.539 0-5.622-1.789-5.622-6.686M81.487 6.399l-2.67 7.462h5.39l-2.695-7.462h-.025zm-8.473 14.69L80.01 2.436h3.394l6.944 18.655h-3.472l-1.71-4.69h-7.203l-1.71 4.69h-3.24zM98.976 11.607c2.522 0 3.783-1.08 3.783-3.24 0-1.225-.316-2.089-.946-2.59-.63-.5-1.56-.751-2.786-.751h-3.005v6.58h2.954zm-6.219-9.198h6.607c2.177 0 3.852.488 5.027 1.464 1.174.976 1.762 2.405 1.762 4.288 0 .984-.165 1.848-.492 2.59-.329.744-.782 1.365-1.36 1.866-.58.501-1.27.881-2.074 1.14-.803.26-1.68.389-2.63.389h-3.575v6.97h-3.265V2.409zM109.365 21.09L112.682 21.09 112.682 2.435 109.365 2.435z" mask="url(#prefix__b)"/>
    </g>
</svg>
