<svg xmlns="http://www.w3.org/2000/svg" xmlns:xlink="http://www.w3.org/1999/xlink" width="30" height="38" viewBox="0 0 30 38">
    <defs>
        <path id="prefix__a" d="M0 0L29.882 0 29.882 37.945 0 37.945z"/>
    </defs>
    <g fill="none" fill-rule="evenodd">
        <mask id="prefix__b" fill="#fff">
            <use xlink:href="#prefix__a"/>
        </mask>
        <path fill="#FFF" d="M1.636 36.315h26.611V1.63H1.636v34.685zM29.066 0H.82A.819.819 0 000 .815V37.13a.82.82 0 00.82.816h28.246a.807.807 0 00.816-.816V.815A.807.807 0 0029.066 0z" mask="url(#prefix__b)"/>
        <path fill="#FFF" d="M24.213 24.643l-4.078-6.124a.834.834 0 00-.614-.363.83.83 0 00-.662.26l-3.022 3.24-4.368-8.732a.828.828 0 00-.651-.45.82.82 0 00-.722.31l-4.422 5.623V5.67h18.539v18.974zm-18.54 1.883v-5.478l.055-.067 4.856-6.175 4.315 8.636a.813.813 0 00.613.442.804.804 0 00.714-.25l3.12-3.346 4.155 6.238H5.674zm20.11 1.14l.036-.109a.799.799 0 00.029-.212V4.85a.816.816 0 00-.815-.815H4.853a.819.819 0 00-.82.815v22.496c0 .452.369.82.82.82h20.18c.055 0 .126-.01.202-.032a2.65 2.65 0 00.13-.049l.057-.035.118-.064a.606.606 0 00.057-.055l.047-.06c-.017-.002.006.002.025-.016l.114-.188z" mask="url(#prefix__b)"/>
        <path fill="#FFF" d="M18.163 9.835c1.046 0 1.898.85 1.898 1.894a1.9 1.9 0 01-1.898 1.898 1.897 1.897 0 010-3.792m0 5.433a3.54 3.54 0 003.533-3.539 3.535 3.535 0 00-3.533-3.53 3.533 3.533 0 000 7.069" mask="url(#prefix__b)"/>
    </g>
</svg>
