<svg xmlns="http://www.w3.org/2000/svg" xmlns:xlink="http://www.w3.org/1999/xlink" width="31" height="39" viewBox="0 0 31 39">
    <defs>
        <path id="prefix__a" d="M0 0.958L26.286 0.958 26.286 35.433 0 35.433z"/>
        <path id="prefix__c" d="M0.381 0.579L23.745 0.579 23.745 34 0.381 34z"/>
    </defs>
    <g fill="none" fill-rule="evenodd">
        <g transform="translate(0 -1) translate(0 .042)">
            <mask id="prefix__b" fill="#fff">
                <use xlink:href="#prefix__a"/>
            </mask>
            <path fill="#FFF" d="M24.544 33.684H1.746V2.704H16.85V9.52c0 .483.391.874.875.874h6.82v23.29zM23.308 8.649h-4.712V3.936l4.712 4.713zm2.963.707v-.004a.833.833 0 00-.079-.216c-.007-.014-.014-.03-.025-.045a.798.798 0 00-.134-.19l-7.69-7.686a.762.762 0 00-.19-.137.887.887 0 00-.26-.105h-.004a.827.827 0 00-.164-.015H.875A.873.873 0 000 1.83v32.728c0 .48.391.875.875.875h24.54c.48 0 .871-.395.871-.875V9.52a.82.82 0 00-.015-.164z" mask="url(#prefix__b)"/>
        </g>
        <g transform="translate(0 -1) translate(7 6.042)">
            <mask id="prefix__d" fill="#fff">
                <use xlink:href="#prefix__c"/>
            </mask>
            <path fill="#FFF" d="M22.87.58h-6.16l1.742 1.748h3.543v29.93H2.126v-2.825H.381v3.696c0 .483.391.871.874.871H22.87c.48 0 .875-.388.875-.87V1.452A.878.878 0 0022.87.58" mask="url(#prefix__d)"/>
        </g>
        <path fill="#FFF" d="M21.525 14.69H4.693a.876.876 0 01-.878-.87.88.88 0 01.878-.876h16.832a.873.873 0 010 1.746M21.57 20.224H4.694a.874.874 0 01-.879-.87c0-.48.395-.87.88-.87H21.57c.484 0 .871.39.871.87a.867.867 0 01-.87.87M13.84 9.155H4.692a.876.876 0 01-.878-.87c0-.484.395-.876.878-.876h9.146a.873.873 0 110 1.746M21.525 25.764H4.693a.876.876 0 01-.878-.872.88.88 0 01.878-.877h16.832c.484 0 .871.395.871.877a.87.87 0 01-.87.872M10.106 31.299H4.694a.878.878 0 01-.88-.875c0-.48.396-.871.88-.871h5.412a.872.872 0 010 1.746" transform="translate(0 -1)"/>
    </g>
</svg>
