<svg xmlns="http://www.w3.org/2000/svg" xmlns:xlink="http://www.w3.org/1999/xlink" width="198" height="281" viewBox="0 0 198 281">
    <defs>
        <path id="prefix__a" d="M0 0.212L23.532 0.212 23.532 99.71 0 99.71z"/>
        <path id="prefix__c" d="M22.143 1.078c-2.384 1.304-4.542 3.842-6.109 6.893-1.57 3.057-2.546 8.151-2.544 9.992.001.526.002.803.004.938l.011.004c.004-.051.008-.083.013.003l-.013-.003-.002.03c-.004.073-.007.148-.01-.034-1.317-.39-2.505-.38-4.542.747-2.049 1.133-4.63 3.93-6.23 7.036C1.115 29.798.106 33.432.1 36.845c-.008 3.414.987 5.955 2.593 7.294 1.6 1.334 3.82 1.46 6.26.079 4.456-2.523 8.904-5.039 13.319-7.537 4.4-2.491 8.778-4.967 13.131-7.43 2.374-1.342 4.5-3.902 6.025-6.957 1.52-3.048 2.436-6.6 2.406-9.912-.031-3.312-1.002-5.774-2.553-7.086-1.554-1.315-4.054-1.28-6.046-.178-1.98 1.095-3.143 2.375-4.426 4.194 0 .183-.004.115-.01.046l-.001-.03-.013.018c.005-.088.009-.062.013-.017l.011-.017c0-.135 0-.41-.003-.929-.01-1.819-.996-5.793-2.56-7.115C27.411.562 26.406.184 25.29.184c-.974 0-2.035.287-3.146.894"/>
        <path id="prefix__f" d="M92.469.967L99.89 5.49c1.494.91 6.404 3.929 3.12 5.715-9.663 5.254-71.4 41.325-81.211 46.663-1.856 1.01-4.57 1.374-7.42 1.137-2.837-.235-5.783-1.003-8.036-2.393l-2.965-1.829C1.283 53.491.122 52.08.01 50.724c-.11-1.324.741-2.55 2.557-3.38L82.264 1.827"/>
        <path id="prefix__i" d="M78.203 1.635L11.747 39.752C5.316 43.467.108 52.485.129 59.877l.277 165.656c.02 7.39 5.263 10.378 11.695 6.664l66.455-38.117c6.44-3.718 11.64-12.734 11.62-20.125L89.897 8.3C89.883 3.065 87.253.037 83.432.037c-1.574 0-3.35.514-5.229 1.598"/>
        <path id="prefix__l" d="M43.319.47C29.676 8.295 16.06 16.395 2.417 24.221 1.13 24.964.089 26.767.093 28.246L.026 82.254c.005 1.477 1.053 2.075 2.34 1.332 13.643-7.825 27.26-15.927 40.901-23.751 1.288-.744 2.328-2.547 2.323-4.025l.067-54.007C45.654.756 45.128.151 44.364.151c-.315 0-.67.102-1.045.32"/>
        <path id="prefix__o" d="M22.188.357C15.167 4.384 8.14 8.4 1.12 12.427c-.533.308-.965 1.056-.963 1.668l-.028 6.062c.002.612.437.86.97.552 7.02-4.027 14.046-8.044 21.067-12.07.534-.308.965-1.055.963-1.668l.028-6.062c-.001-.433-.22-.685-.536-.685-.13 0-.278.043-.433.133"/>
        <path id="prefix__r" d="M2.794.373C1.382 1.189.149 3.117.04 4.677c-.108 1.56.95 2.163 2.362 1.347C3.816 5.207 5.047 3.28 5.156 1.72 5.23.632 4.74.01 3.956.01c-.34 0-.735.117-1.162.364"/>
        <path id="prefix__u" d="M2.794.385C1.382 1.202.149 3.13.04 4.69c-.108 1.56.95 2.164 2.362 1.347 1.413-.816 2.644-2.742 2.753-4.304C5.23.644 4.74.022 3.956.022c-.34 0-.735.116-1.162.363"/>
        <path id="prefix__x" d="M0.135 0.27L20.754 0.27 20.754 25.383 0.135 25.383z"/>
        <path id="prefix__z" d="M5.309.483L3.21 1.663C2.188 2.186 1.6 2.83 1.262 3.72.947 4.55.88 5.552.88 6.871l.001 1.574c-.38.827-.63 1.714-.707 2.605-.263 3.026 1.578 4.937 4.11 4.267 2.532-.67 4.797-3.666 5.059-6.692.128-1.473-.243-2.681-.948-3.457l-.027-2.176C8.37 1.682 8.126.833 7.634.394 7.36.147 7.044.028 6.688.028c-.406 0-.865.155-1.38.455M2.485 4.179c.217-.574.622-1 1.34-1.362.719-.36 1.426-.836 2.145-1.204.427-.249.696-.338.796-.248.198.177.296.707.296 1.627l.019 1.35c-.55-.16-1.174-.163-1.847.015-1.115.295-2.179 1.042-3.042 2.044.016-.944.084-1.669.293-2.222"/>
        <path id="prefix__C" d="M7.57.25L6.419 42.855l.568 14.176-.02 6.5-3.841 2.239c-1.583.914-2.874.179-2.879-1.64L.373 8.375C.381 5 .61 4.093 2.288 3.21L7.571.25z"/>
        <path id="prefix__F" d="M2.174.061C1.184.323.298 1.494.196 2.678c-.103 1.184.617 1.93 1.607 1.669.99-.262 1.875-1.434 1.977-2.617C3.87.706 3.343.009 2.558.009c-.122 0-.25.017-.384.052"/>
        <path id="prefix__I" d="M11.797 18.725L6.584 12.379 0.089 32.356 27.085 16.872 16.927 0.092z"/>
        <path id="prefix__K" d="M36.776.84c2.2-1.272 3.988-.25 3.995 2.276l.095 26.948c.007 2.524-1.769 5.605-3.97 6.875l-32.64 18.51C2.058 56.717.268 55.697.26 53.172L.166 26.224c-.007-2.525 1.772-5.606 3.969-6.875L36.776.839z"/>
        <path id="prefix__M" d="M2.957.069c-.11.064-.22.176-.304.322L.213 4.618c-.169.291-.168.601.002.7.085.034.195.013.304-.05.11-.064.22-.17.304-.303l1.712-2.99.02 7.485c.002.283.202.388.418.264.246-.143.439-.474.438-.758L3.39 1.5l1.721.99c.086.035.196.015.305-.05.11-.062.22-.168.304-.301.169-.293.168-.602-.002-.7L3.262.04C3.227.02 3.189.01 3.149.01c-.06 0-.126.021-.192.059"/>
        <path id="prefix__P" d="M10.726.842c2.501-1.446 4.535-.283 4.543 2.589l-.13 28.412c.008 2.87-2.012 6.372-4.513 7.817l-6.733 3.462-3.655-3.035V5.447L10.726.841z"/>
        <path id="prefix__S" d="M27.417.78L4.195 14.098c-2.248 1.298-4.067 4.45-4.06 7.033L.018 46.689c.007 2.583 1.84 3.627 4.087 2.329l23.222-13.32c2.25-1.299 4.068-4.45 4.06-7.032l.117-25.558C31.5 1.278 30.58.221 29.244.221c-.55 0-1.17.18-1.827.558"/>
        <path id="prefix__V" d="M41.189 5.555l-.09 19.45c.014 4.782-3.254 10.555-7.368 13.147L3.738 55.499l-3.68-1.775.197-33.427L33.419 1.135c4.277-2.47 7.756-.495 7.77 4.42z"/>
        <path id="prefix__Y" d="M51.712 1.134C15.495 22.043 43.965 5.62 7.757 26.526 3.479 28.996.029 34.97.044 39.885l.05 17.581c.013 4.914 3.486 6.9 7.762 4.431 36.332-20.987 7.982-4.633 44.307-25.617 4.113-2.591 7.381-8.364 7.368-13.146l-.05-17.58C59.473 2.074 57.728.07 55.192.07c-1.047 0-2.23.342-3.48 1.064"/>
        <path id="prefix__ab" d="M26.346 1.677c-3.845 2.544-2.548 6.866-6.092 9.193-1.623 1.065-3.518 1.259-5.462 1.728-5.076 1.225-5.873 4.899-5.676 8.39.204 3.607 1.023 6.316.176 7.343-1.233 1.494-2.915 1.809-4.36 2.015-6.2.887-5.723 9.596-2.03 13.027 3.362 3.126 10.791 5.846 18.477 6.197 9.604.44 19.609-2.432 22.583-8.38.802-1.605 1.307-3.507 1.581-5.561 1.085-2.011 2.38-3.167 2.454-5.413.062-1.86-.153-3.545-.644-4.833-1.117-2.922-4.152-5.654-2.429-11.925.53-1.93.59-5.607-.648-8.446-1.058-2.43-3.147-4.247-5.791-3.838-.675-.075-1.343-.159-2.001-.234-1.635-.454-3.215-.672-4.67-.672-2.177 0-4.077.488-5.468 1.409"/>
        <path id="prefix__ae" d="M2.652.446c-4.345 1.129-1.68 8.765-.61 11.134 1.682 3.726 6.22 9.821 7.895 12.794l3.873-.078c.184-1.873.628-2.193-.072-4.252-.976-2.873-2.275-6.776-4.554-11.418C8.02 6.254 7.9.272 3.914.272c-.383 0-.803.055-1.262.174"/>
        <path id="prefix__ah" d="M7.122 6.734c.902 1.507 2.583 4.184 2.676 6.113.163 3.382-.577 5.737.045 7.566.7 2.06-.149 2.916-.332 4.788l-1.5-2.85c-1.268-3.598-3.496-7.835-5.178-11.562C1.763 8.42-2.23 1.417 2.13.353"/>
        <path id="prefix__ak" d="M16.096 1.038c3.498-1.82 8.411-.572 11.844.997L59.433 19.97c2.107.963 3.094 2.386 2.968 3.922-.13 1.573-1.44 3.273-3.91 4.712-1.831 1.066-3.692 2.15-5.585 3.25-2.657 1.546-6.034 2.504-9.327 2.778-3.308.275-6.459-.149-8.612-1.32C23.579 27.117 12.48 20.258 1.266 14.16c-3.813-2.073 2.308-5.74 4.071-6.746"/>
        <path id="prefix__an" d="M10.009 3.204C8.006 9.97 7.45 27.617 6.68 36.416 4.172 39.874 2.64 42.002 1.47 46.67-.066 52.795.952 61.62.019 70.572c.434 2.109 3.823 2.378 4.943 1.512 3.022-8.962 6.578-18.592 9.43-27.462.28-.87 4.463-9.185 4.465-9.34 4.582-13.597 5.775-19.35 6.163-26.148.407-2.066-1.182-7.436-.838-8.991L10.01 3.204z"/>
        <path id="prefix__aq" d="M25.132.232L4.77 1.622C-.268 7.93-.395 11.428.697 19.006c.73 5.068 2.218 11.216 2.588 20.121-.436 4.593-1.258 9.737-.632 16.873.461 5.25 1.937 14.258 3.05 20.626 1.047 1.967 5.996 1.11 6.805.097-.233-9.125-.09-15.383.347-22.752.424-7.17 1.278-13.82 1.815-20.89.445-5.85 2.22-13.808 2.456-20.128.937-2.96 9.75-12.722 8.04-12.722-.011 0-.022 0-.034.002"/>
        <path id="prefix__at" d="M17.058.546C10.917 1.956 4.592 5.145 1.768 8.15c-2.053 2.187-1.97 4.614-.794 9.859.757 3.37 2.062 6.863 3.211 9.522 2.263 5.235-1.584 8.133-.199 11.738l-.427 2.442c4.128 2.964 18.895 3.185 22.597-2.692l.077-2.931c.638-1.403.218-4.95.031-5.886-.594-2.975-.317-4.555-.641-7.996-.083-.87-.246-1.418-.326-2.3 3.288-2.456 3.081-7.21 1.132-10.057-1.23-1.795-1.945-3.085-2.557-4.515-.187-1.094-.375-1.984-.57-2.587-.123-.512-.394-.994-.688-1.413-.58-.828-1.38-1.205-2.64-1.205-.777 0-1.73.144-2.916.416"/>
        <path id="prefix__aw" d="M.206 7.329C-.488 4.676 4.065-.855 4.84.199c1.602 2.175 2.062 4.526 2.176 7.655.255 6.997 5.441 5.4 8.191 4.233-3.725 2.744-6.355 2.793-6.576 3.506-2.32 7.491-.698 11.414 1.095 12.203 8.252 3.632 15.5-2.9 15.502-2.798l.079 2.557c-3.702 5.878-18.469 6.03-22.597 2.816l.427-2.41c-1.385-3.606 2.368-6.597.106-11.832"/>
        <path id="prefix__az" d="M10.477.758L.206 18.205c-.337.573-.145 1.317.428 1.654l13.02 7.665c.573.336 1.317.144 1.654-.428l10.27-17.448c.337-.572.145-1.315-.428-1.653L12.13.33c-.191-.112-.402-.166-.61-.166-.414 0-.819.213-1.043.594"/>
        <path id="prefix__aC" d="M.075 4.06c1.079.275 1.514 1.906 2.993 2.404 1.667.561 4.158 1.586 5.112 1.095.5-.258 1.089-1.267 1.687-2.212.504-.797 1.445-2.17 1.015-2.714C9.46 1.298 4.635 1.642 2.292.238 1.261 1.253-.284 2.468.074 4.06"/>
        <path id="prefix__aF" d="M8.43 2.159C4.738 6.692 3.07 15.096.44 22.626c-.52 1.49-.147 2.664.631 3.368.352.41.83.852 1.466 1.334 3.3 2.499 6.031 4.652 12.097 7.072.455.181.83.194 1.405.161.379.145.941.447 1.344.596-.562-.372.932-3.69 2.052-3.88-.387-.246-.79-.52-1.205-.812-.2-.473-.273-.614-.655-.9-2.93-2.186-6.564-5.701-9.9-7.549 2.29-3.602 4.663-6.67 6.17-10.353 1.647-4.022 2.24-9.247-.387-10.9-.607-.381-1.195-.552-1.761-.552-1.215 0-2.323.786-3.268 1.948"/>
        <path id="prefix__aI" d="M.235 3.893c.65 2.625 5.56 4.397 6.072 2.31-.14-.807-.275-1.6-.365-2.455L.037.075c.228 1.298.289 2.563.198 3.818"/>
        <path id="prefix__aL" d="M1.462 6.434C.908 6.904-.006 7.813.333 8.626c.409.983 2.388 1.62 2.51 2.586.17 1.36.849 2.176 1.538 2.483.748.331 1.535.033 1.93-.558.116-.514.232-1.154.455-1.969.511-1.867.604-2.59-.428-4.92-.18-.404-.271-.802-.206-1.435.19-1.863-.09-3.316-.704-4.663-.818 2.414-2.027 4.643-3.966 6.284"/>
        <path id="prefix__aO" d="M1.348.997c.067.514.123 1.048.067 1.57-.315.566-.477 1.175-.512 1.89C.77 7.103-.257 13.345.558 17.79c1.021 5.571 7.131 8.187 7.713-.057.274-3.878-1.154-12.262-1.54-14.148-.112-.555-.492-.965-.517-1.5-.018-.374-.022-1.16-.016-1.513C5.744.348 5.137.261 4.506.261 3.08.26 1.53.704 1.348.997"/>
        <path id="prefix__aR" d="M12.58.056L3.458.254c-.497.01-1.095.376-1.335.816L.185 4.626c-.24.44-.03.787.466.776l9.123-.198c.498-.01 1.095-.376 1.335-.815L13.047.833c.236-.434.038-.777-.444-.777h-.023"/>
        <linearGradient id="prefix__d" x1="50.666%" x2="35.489%" y1="55.944%" y2="22.171%">
            <stop offset="0%" stop-color="#6D69FD"/>
            <stop offset="100%" stop-color="#3FAFF6"/>
        </linearGradient>
        <linearGradient id="prefix__g" x1="60.189%" x2="27.34%" y1="53.308%" y2="43.674%">
            <stop offset="0%" stop-color="#F95DB1"/>
            <stop offset="100%" stop-color="#FDBFBF"/>
        </linearGradient>
        <linearGradient id="prefix__j" x1="47.773%" x2="54.099%" y1="78.902%" y2="-3.2%">
            <stop offset="0%" stop-color="#955BF2"/>
            <stop offset="100%" stop-color="#FF89DB"/>
        </linearGradient>
        <linearGradient id="prefix__m" x1="44.679%" x2="54.415%" y1="36.174%" y2="61.473%">
            <stop offset="0%" stop-color="#1C8EF4"/>
            <stop offset="100%" stop-color="#00CFDD"/>
        </linearGradient>
        <linearGradient id="prefix__p" x1="55.041%" x2="43.325%" y1="59.842%" y2="36.966%">
            <stop offset="0%" stop-color="#6D69FD"/>
            <stop offset="100%" stop-color="#3FAFF6"/>
        </linearGradient>
        <linearGradient id="prefix__s" x1="25.963%" x2="97.196%" y1="61.817%" y2="26.799%">
            <stop offset="0%" stop-color="#6D69FD"/>
            <stop offset="100%" stop-color="#3FAFF6"/>
        </linearGradient>
        <linearGradient id="prefix__v" x1="25.962%" x2="97.197%" y1="61.816%" y2="26.798%">
            <stop offset="0%" stop-color="#6D69FD"/>
            <stop offset="100%" stop-color="#3FAFF6"/>
        </linearGradient>
        <linearGradient id="prefix__A" x1="56.517%" x2="43.848%" y1="20.096%" y2="82.866%">
            <stop offset="0%" stop-color="#1C8EF4"/>
            <stop offset="100%" stop-color="#00CFDD"/>
        </linearGradient>
        <linearGradient id="prefix__D" x1="50.199%" x2="49.674%" y1="79.62%" y2="-2.346%">
            <stop offset="0%" stop-color="#955BF2"/>
            <stop offset="100%" stop-color="#FF89DB"/>
        </linearGradient>
        <linearGradient id="prefix__G" x1="50.696%" x2="49.111%" y1="90.623%" y2="-2.113%">
            <stop offset="0%" stop-color="#6D69FD"/>
            <stop offset="100%" stop-color="#3FAFF6"/>
        </linearGradient>
        <linearGradient id="prefix__N" x1="52.551%" x2="48.308%" y1="91.872%" y2="-3.592%">
            <stop offset="0%" stop-color="#6D69FD"/>
            <stop offset="100%" stop-color="#3FAFF6"/>
        </linearGradient>
        <linearGradient id="prefix__Q" x1="51.726%" x2="46.94%" y1="76.722%" y2="1.63%">
            <stop offset="0%" stop-color="#955BF2"/>
            <stop offset="100%" stop-color="#FF89DB"/>
        </linearGradient>
        <linearGradient id="prefix__T" x1="38.567%" x2="74.317%" y1="59.57%" y2="29.647%">
            <stop offset="0%" stop-color="#F95DB1"/>
            <stop offset="100%" stop-color="#FDBFBF"/>
        </linearGradient>
        <linearGradient id="prefix__W" x1="54.093%" x2="39.776%" y1="66.269%" y2="16.191%">
            <stop offset="0%" stop-color="#955BF2"/>
            <stop offset="100%" stop-color="#FF89DB"/>
        </linearGradient>
        <linearGradient id="prefix__Z" x1="54.117%" x2="46.692%" y1="57.99%" y2="43.571%">
            <stop offset="0%" stop-color="#6D69FD"/>
            <stop offset="100%" stop-color="#3FAFF6"/>
        </linearGradient>
        <linearGradient id="prefix__ac" x1="45.913%" x2="64.557%" y1="43.225%" y2="80.211%">
            <stop offset="0%" stop-color="#592D67"/>
            <stop offset="100%" stop-color="#21043D"/>
        </linearGradient>
        <linearGradient id="prefix__af" x1="54.942%" x2="43.823%" y1="94.743%" y2="5.548%">
            <stop offset="0%" stop-color="#1C8EF4"/>
            <stop offset="100%" stop-color="#00CFDD"/>
        </linearGradient>
        <linearGradient id="prefix__ai" x1="47.324%" x2="51.503%" y1="67.868%" y2="41.851%">
            <stop offset="0%" stop-color="#1C8EF4"/>
            <stop offset="100%" stop-color="#00CFDD"/>
        </linearGradient>
        <linearGradient id="prefix__al" x1="38.585%" x2="75.729%" y1="54.025%" y2="43.131%">
            <stop offset="0%" stop-color="#F95DB1"/>
            <stop offset="100%" stop-color="#FDBFBF"/>
        </linearGradient>
        <linearGradient id="prefix__ao" x1="54.338%" x2="49.482%" y1="26.832%" y2="44.759%">
            <stop offset="0%" stop-color="#3D4695"/>
            <stop offset="100%" stop-color="#262F87"/>
        </linearGradient>
        <linearGradient id="prefix__ar" x1="55.3%" x2="48.663%" y1="28.707%" y2="49%">
            <stop offset="0%" stop-color="#3D4695"/>
            <stop offset="100%" stop-color="#262F87"/>
        </linearGradient>
        <linearGradient id="prefix__au" x1="54.72%" x2="49.405%" y1="89.622%" y2="27.577%">
            <stop offset="0%" stop-color="#1C8EF4"/>
            <stop offset="100%" stop-color="#00CFDD"/>
        </linearGradient>
        <linearGradient id="prefix__ax" x1="38.193%" x2="50.148%" y1="70.623%" y2="49.631%">
            <stop offset="0%" stop-color="#1C8EF4"/>
            <stop offset="100%" stop-color="#00CFDD"/>
        </linearGradient>
        <linearGradient id="prefix__aA" x1="56.589%" x2="40.82%" y1="69.692%" y2="22.567%">
            <stop offset="0%" stop-color="#D1E8FF"/>
            <stop offset="100%" stop-color="#EDF6FF"/>
        </linearGradient>
        <linearGradient id="prefix__aD" x1="49.896%" x2="43.808%" y1="45.601%" y2="57.928%">
            <stop offset="0%" stop-color="#FFB89E"/>
            <stop offset="100%" stop-color="#FFA799"/>
        </linearGradient>
        <linearGradient id="prefix__aG" x1="47.801%" x2="61.131%" y1="72.752%" y2="34.577%">
            <stop offset="0%" stop-color="#1C8EF4"/>
            <stop offset="100%" stop-color="#00CFDD"/>
        </linearGradient>
        <linearGradient id="prefix__aJ" x1="48.258%" x2="42.589%" y1="53.284%" y2="85.152%">
            <stop offset="0%" stop-color="#FF8977"/>
            <stop offset="100%" stop-color="#FFA799"/>
        </linearGradient>
        <linearGradient id="prefix__aM" x1="60.42%" x2="47.707%" y1="37.275%" y2="78.234%">
            <stop offset="0%" stop-color="#FFB89E"/>
            <stop offset="100%" stop-color="#FFA799"/>
        </linearGradient>
        <linearGradient id="prefix__aP" x1="45.776%" x2="56.773%" y1="56.19%" y2="39.063%">
            <stop offset="0%" stop-color="#1C8EF4"/>
            <stop offset="100%" stop-color="#00CFDD"/>
        </linearGradient>
        <linearGradient id="prefix__aS" x1="55.745%" x2="7.267%" y1="48.654%" y2="60.01%">
            <stop offset="0%" stop-color="#D1E8FF"/>
            <stop offset="100%" stop-color="#EDF6FF"/>
        </linearGradient>
    </defs>
    <g fill="none" fill-rule="evenodd">
        <g>
            <path fill="#F7F8FC" d="M180.735 136.657c-1.045.741-2.178 1.343-3.287 1.98l.977 1.702c1.162-.666 2.344-1.298 3.438-2.073l-1.128-1.609zm8.013-5.838l-1.656-1.056c-.678 1.074-1.427 2.083-2.242 3.057l1.496 1.272c.868-1.016 1.689-2.144 2.402-3.273zm3.912-9.327l-1.919-.419c-.269 1.229-.631 2.442-1.086 3.614l1.833.707c.488-1.288.877-2.556 1.172-3.902zm.489-9.995l-.002 3.928-1.964-.001.002-3.927h1.964zm.006-9.82l-.003 3.929-1.963-.001.002-3.928h1.964zm.005-9.819l-.002 3.928-1.964-.001.002-3.928 1.964.001zm.017-8.513l-.002 3.928-1.964-.001.003-3.928 1.963.001zm.006-9.82l-.002 3.928h-1.964l.002-3.929 1.964.002zm.006-9.819l-.003 3.928-1.963-.001.002-3.928 1.964.001zm.006-9.82l-.003 3.928-1.963-.001.002-3.928 1.964.001zm-.63-10.065l-1.866.61c.387 1.226.508 2.287.536 3.569l1.963-.012c-.032-1.5-.179-2.732-.632-4.167zm-8.687-5.336l.314 1.939c1.14-.186 2.252-.132 3.332.3l.744-1.818c-1.385-.574-2.922-.66-4.39-.42zm-9.132 4.349l3.407-1.955.977 1.704-3.407 1.954-.977-1.703zM100.647 5.923l3.402-1.959-.979-1.702-3.404 1.96.98 1.701zM91.165 9.14l.985 1.698 3.398-1.968-.984-1.7-3.4 1.97zm-8.49 4.935l.988 1.697 3.394-1.975-.988-1.698-3.394 1.976zm-8.482 4.947l.99 1.696 3.39-1.98-.988-1.696-3.392 1.98zm-8.479 4.952l.991 1.696c1.132-.658 2.26-1.322 3.391-1.981l-.99-1.696c-1.131.66-2.26 1.324-3.392 1.981zm-8.478 4.952l.99 1.695 3.392-1.98-.99-1.695-3.392 1.98zm-8.48 4.944l.987 1.697 3.394-1.977-.989-1.697-3.393 1.977zm-8.49 4.93l.986 1.7c1.132-.656 2.268-1.31 3.397-1.972l-.986-1.698c-1.128.662-2.263 1.315-3.396 1.97zm-8.498 4.911l.98 1.702 3.403-1.963-.982-1.7-3.401 1.961zm-8.104 6.136l1.672 1.028c.599-.977 1.412-1.905 2.366-2.548l-.005.004-1.077-1.642c-1.216.836-2.186 1.9-2.956 3.158zm-1.63 10.043l.01-3.927 1.963.005-.01 3.927-1.963-.005zm-.023 9.818l.01-3.927 1.963.005-.01 3.927-1.963-.005zm-.024 9.82l.01-3.929 1.963.005-.01 3.928-1.963-.005zm-.023 9.817l.01-3.927 1.962.005-.009 3.927-1.963-.005zm-.024 9.819l.01-3.928 1.963.005-.01 3.927-1.963-.004zm-.023 9.818l.009-3.927 1.964.004-.01 3.927-1.963-.004zm8.698 1.862l-.98-1.703-2.72 1.563.977 1.703 2.723-1.563zm8.506-4.908l-.984-1.7-3.399 1.965.982 1.7 3.401-1.965zm8.494-4.929l-.987-1.697c-1.133.655-2.263 1.315-3.395 1.972l.986 1.699c1.132-.658 2.263-1.319 3.396-1.974zm8.485-4.943l-.99-1.696-3.392 1.978.989 1.697 3.393-1.979zm8.48-4.95l-.991-1.696c-1.132.657-2.26 1.32-3.391 1.98l.99 1.696c1.13-.66 2.26-1.323 3.392-1.98zm8.477-4.953l-.99-1.696-3.392 1.981.991 1.696 3.391-1.981zm8.48-4.948l-.99-1.696-3.392 1.978.99 1.696 3.392-1.978zm8.484-4.937l-.986-1.698-3.396 1.974.988 1.697c1.13-.66 2.263-1.316 3.394-1.973zm8.495-4.92l-.983-1.7-3.4 1.966.984 1.7 3.399-1.966zm8.55-4.938l-1.078-1.643c-.096.064-.193.126-.293.183l.982 1.7c.132-.076.261-.156.388-.24zm4.579-9.273l-.002.914-1.964-.005.002-.913 1.964.004zm.023-9.818l-.01 3.928-1.963-.005.01-3.928 1.963.005zm.023-9.818l-.01 3.927-1.963-.004.01-3.928 1.963.005zm.023-9.818l-.009 3.927-1.964-.005.01-3.927 1.963.005zm.024-9.819l-.01 3.928-1.963-.005.01-3.927 1.963.004zm.024-9.818l-.01 3.927-1.963-.004.009-3.928 1.964.005zm-2.6-7.997l-.5 1.899c.933.24 1.138 1.333 1.145 2.163l1.964-.006c-.012-1.777-.737-3.575-2.61-4.056z" transform="translate(0 .243)"/>
            <g transform="translate(0 .243) translate(0 84.987)">
                <mask id="prefix__b" fill="#fff">
                    <use xlink:href="#prefix__a"/>
                </mask>
                <path fill="#F7F8FC" d="M5.85 8.757c.083-.053.167-.106.253-.155l-.003.002C7.136 8.013 8.173 7.42 9.204 6.82l-.979-1.703c-.85.494-1.707.977-2.558 1.47-.18.103-.365.205-.544.312-.116.07-.23.138-.344.212L5.85 8.757zM.155 16.363c-.254-2.596-.37-4.984 1.11-5.814l1.41 1.146c-.821.83-.603 2.456-.557 4.672l-1.963-.004zm-.016 9.819l.006-3.928 1.964.003-.006 3.928-1.964-.003zM.122 36l.006-3.927 1.964.003-.006 3.927L.122 36zm-.015 9.818l.006-3.927 1.963.003-.006 3.927-1.963-.003zM.09 55.636l.006-3.927 1.964.003-.007 3.928-1.963-.004zm-.016 9.819l.006-3.928 1.964.004-.006 3.927-1.964-.003zM.06 75.273l.007-3.927 1.963.003-.006 3.927-1.964-.003zm-.016 9.818l.007-3.927 1.963.003-.006 3.928-1.964-.004zM.027 94.91l.007-3.927 1.963.002-.006 3.928-1.964-.003zm8.078 2.93l-.977-1.703-2.053 1.178.003-.001-.054.03c-.274.183-.769.374-1.096.44l.007-.001.376 1.927c.589-.118 1.172-.36 1.69-.662l-.977-1.703.977 1.703 2.104-1.208zm8.508-4.907l-.982-1.7-3.4 1.965.981 1.7 3.4-1.965zm6.919-4.01l-.987-1.699-1.819 1.056.985 1.699 1.82-1.057zM13.328 2.176l.98 1.7 3.402-1.966-.984-1.699c-.302.173-3.39 1.965-3.398 1.965z" mask="url(#prefix__b)"/>
            </g>
            <path fill="#6D6AFD" d="M78.416 6.81c-1.992 1.103-3.157 2.391-4.45 4.228.016-.32.032.857.021-.963-.01-1.819 1.034-4.758-.39-6.23-.563-.583-3.31-1.656-3.971-1.825-1.266-.326-2.735-.106-4.302.75-2.384 1.304-4.542 3.842-6.109 6.893-1.57 3.058-2.545 8.151-2.543 9.992.002 1.841.009.636.027.945-1.327-.398-2.517-.393-4.567.74-2.049 1.134-4.63 3.93-6.23 7.036-1.605 3.114-2.613 6.763-2.62 10.161-.007 2.653.598 4.76 1.627 6.22 1.038 1.47 3.044 2.338 4.465 2.81 4.075 1.416 11.933-6.848 16.08-9.194 4.399-2.491 8.778-4.967 13.13-7.43 2.374-1.342 4.5-3.901 6.025-6.957 1.52-3.047 2.437-6.6 2.406-9.912-.018-1.935 1.396-4.84-.434-6.23-2.846-2.16-5.886-2.295-8.165-1.034" transform="translate(0 .243)"/>
        </g>
        <g transform="translate(45.486 2.937)">
            <mask id="prefix__e" fill="#fff">
                <use xlink:href="#prefix__c"/>
            </mask>
            <path fill="url(#prefix__d)" d="M22.143 1.078c-2.384 1.304-4.542 3.842-6.109 6.893-1.57 3.057-2.546 8.151-2.544 9.992.001.526.002.803.004.938l.011.004c.004-.051.008-.083.013.003l-.013-.003-.002.03c-.004.073-.007.148-.01-.034-1.317-.39-2.505-.38-4.542.747-2.049 1.133-4.63 3.93-6.23 7.036C1.115 29.798.106 33.432.1 36.845c-.008 3.414.987 5.955 2.593 7.294 1.6 1.334 3.82 1.46 6.26.079 4.456-2.523 8.904-5.039 13.319-7.537 4.4-2.491 8.778-4.967 13.131-7.43 2.374-1.342 4.5-3.902 6.025-6.957 1.52-3.048 2.436-6.6 2.406-9.912-.031-3.312-1.002-5.774-2.553-7.086-1.554-1.315-4.054-1.28-6.046-.178-1.98 1.095-3.143 2.375-4.426 4.194 0 .183-.004.115-.01.046l-.001-.03-.013.018c.005-.088.009-.062.013-.017l.011-.017c0-.135 0-.41-.003-.929-.01-1.819-.996-5.793-2.56-7.115C27.411.562 26.406.184 25.29.184c-.974 0-2.035.287-3.146.894" mask="url(#prefix__e)"/>
        </g>
        <g>
            <path fill="#FFF" d="M45.597 12.252L49.681 9.896 43.259 21.019 36.795 17.335 40.877 14.977 40.865 4.504 45.586 1.779z" transform="translate(30.523 12.213)"/>
            <path fill="#FFF" d="M31.446 16.789L27.363 19.146 33.785 8.023 40.249 11.707 36.167 14.064 36.178 24.538 31.458 27.263z" transform="translate(30.523 12.213)"/>
            <g transform="translate(30.523 12.213) translate(0 192.717)">
                <mask id="prefix__h" fill="#fff">
                    <use xlink:href="#prefix__f"/>
                </mask>
                <path fill="url(#prefix__g)" d="M2.567 47.345L82.264 1.826C85.22.476 89.567-.8 92.469.967L99.89 5.49c1.494.91 6.404 3.929 3.12 5.715-9.663 5.254-71.4 41.325-81.211 46.663-1.856 1.01-4.57 1.374-7.42 1.137-2.837-.235-5.783-1.003-8.036-2.393l-2.965-1.829C1.283 53.491.122 52.08.01 50.724c-.11-1.324.741-2.55 2.557-3.38" mask="url(#prefix__h)"/>
            </g>
            <path fill="#303A7D" d="M4.68 234.88c.011 3.88 1.394 6.61 3.606 7.895l3.509 2.11c12.038-5.137 7.57-66.143 8.304-83.486l-3.697-91.018c3.108-5.43 15.065-10.17 12.274-21.26L63.96 32.605c1.566-1.066 42.74-24.91 35.349-29.382-1.236-.747-2.46-1.5-3.68-2.21-2.729-1.614-6.207-.616-8.76.857L16.66 42.139c-6.89 3.97-12.296 13.577-12.275 21.26L4.68 234.88z" transform="translate(30.523 12.213)"/>
            <path fill="#3E4992" d="M102.896 11.114c-.01-3.803-1.328-6.504-3.462-7.82-2.248-1.386-5.403-1.236-8.892.78L20.336 44.34C13.54 48.264 8.04 57.793 8.062 65.6l.292 171.482c.023 7.808 5.56 10.964 12.356 7.04l70.205-40.267c6.803-3.928 12.297-13.453 12.275-21.26l-.294-171.482z" transform="translate(30.523 12.213)"/>
        </g>
        <g transform="translate(40.997 19.395)">
            <mask id="prefix__k" fill="#fff">
                <use xlink:href="#prefix__i"/>
            </mask>
            <path fill="url(#prefix__j)" d="M78.203 1.635L11.747 39.752C5.316 43.467.108 52.485.129 59.877l.277 165.656c.02 7.39 5.263 10.378 11.695 6.664l66.455-38.117c6.44-3.718 11.64-12.734 11.62-20.125L89.897 8.3C89.883 3.065 87.253.037 83.432.037c-1.574 0-3.35.514-5.229 1.598" mask="url(#prefix__k)"/>
        </g>
        <g>
            <path fill="#F1A4FD" d="M83.796 107.754c-.008-2.586-1.84-3.633-4.091-2.332C55.84 119.11 32.026 133.278 8.16 146.967c-2.25 1.3-4.07 4.454-4.063 7.04l-.118 35.143c.008 2.585 1.842 3.63 4.092 2.33 23.864-13.688 47.683-27.858 71.544-41.544 2.252-1.3 4.071-4.455 4.064-7.04l.117-35.142z" transform="translate(42.493 36.153)"/>
            <path fill="#F1A4FD" d="M6.034 159.003l2.09 2.15 1.052-1.94 1.206 1.822 1.173-2.678.457 2.285.464 2.126 1.05-.457.749-.676.723-2.348.755 1.344.749-3.27.738-4.38.455 1.392.142-2.334 1.038 2.17.913 1.718 1.658 1.96.573-2.434.751.085.898-3.28.453 1.024.745-2.46 1.63-.423-.47-6.398 1.814 1.346 1.055 1.493.286 2.234.747-1.473.916 2.608.605 1.682.902.445.725-1.933.443-2.797 1.207-.156.596-2 .303.87 1.022-3.14.865-12.305 1.664 1.285.606 2.27 1.938-.085.762 3.616.595-2 .735 1.75.01 3.429.455 1.69.75-2.464.742-3.34 1.053.452 1.616-5.357.76.895 1.184-6.064 1.19 3.241 1.575 1.932.386-1.534 1.126 2.363.956-2.13.976 2.198.593-2.688.166 5.443.512-2.155.7 3.229.745-1.984.724-1.878.972-6.318 1.125 1.924.883-6.268 1.735 5.054.811-2.673 2.042 7.646.748-1.295.67.328.951-3.883.455 1.415.802-5.922.85 3.636.344-8.577 1.285 7.933.443-5.447.38 6.651.223-5.737 1.136 5.768 2.836 1.25 2.776-1.062-2.773 2.095-2.82 4.5-1.1 7.082-.254-5.486-.342 7.092-.471-4.92-1.237 9.389-.39-8.152-.827 4.58-.834-4.978-.445 1.936-.97-2.75-.666 1.075-.752-.406-1.992 9.968-.824-1.745-1.701 7.06-.916-5.229-1.11 3.207-1.004-5.177-.734-1.028-.753-1.149-.68 4.023-.522-1.525-.135 5.614-.605-2.002-.96 3.323-.966-1.027-1.11 3.636-.391-1.083-1.56 3.739-1.168 4.605-1.214-4.689-.753 1.793-1.641-3.477-1.046 1.647-.758-2.479-.762-1.56-.445 2.186.01 3.453-.723 2.566-.605-1.281-.739 4.45-1.931 2.182-.593 2.954-1.273 1.677-1.31-9.771-1.035-1.944-.298 1.23-.604-1.306-1.205 1.222-.457-2.286-.733-1.058-.897 1.482-.594 2.366-.898 3.656-.752-.6-.273 2.526-1.044 2.705-1.798 3.439.43-6.901-1.627 1.458-.755-1.588-.446 1.543-.915-2.24-.748.95-.585-1.757-1.642 3.857-.9 2.772-1.021 3.358-.156-2.16-.445 1.911-.76-3.538-.766-2.398-.745 2.235-.733-1.53-.75.213-1.05.748-.45 2.66-.442 2.796-1.186-1.339-1.192 3.229-1.06-.72-2.068 4.558c-.037.142-2.095 7.404-2.125 5.469-.18-11.816.007-22.294.133-34.265.017-1.79 1.385 3.161 1.923 4.92" transform="translate(42.493 36.153)"/>
            <path fill="#F1A4FD" d="M6.034 164.27l2.09.6 1.052-1.323 1.206.658 1.173-1.75.457 1.106.464 1.018 1.05-.525.749-.562.723-1.454.755.521.749-1.956.738-2.55.455.627.142-1.292 1.038.89.913.68 1.658.612.573-1.46.751-.154.898-2.001.453.429.745-1.52 1.63-.66-.47-3.314 1.814.241 1.055.522.286 1.124.747-.99.916 1.158.605.743.902-.002.725-1.231.443-1.62 1.207-.405.596-1.233.303.386 1.022-1.959.865-6.842 1.664.247.606 1.059 1.938-.561.762 1.74.595-1.232.735.744.01 1.84.455.787.75-1.524.742-1.991 1.053-.038 1.616-3.308.76.278 1.184-3.573 1.19 1.425 1.575.618.386-.926 1.126.97.956-1.398.976.921.593-1.602.166 2.88.512-1.294.7 1.55.745-1.265.724-1.202.972-3.653 1.125.734.883-3.603 1.735 2.254.811-1.652 2.042 3.565.748-.894.67-.002.951-2.34.455.64.802-3.396.85 1.728.344-4.7 1.285 3.92.443-3.044.38 3.473.223-3.143 1.136 2.798 2.836-.084 2.776-1.308-2.773 1.863-2.82 3.168-1.1 4.098-.254-2.88-.342 3.902-.471-2.518-1.237 5.373-.39-4.276-.827 2.681-.834-2.453-.445 1.158-.97-1.22-.666.755-.752-.017-1.992 5.886-.824-.718-1.701 4.246-.916-2.566-1.11 2.018-1.004-2.515-.734-.357-.753-.417-.68 2.342-.522-.68-.135 3.053-.605-.915-.96 2.04-.966-.294-1.11 2.249-.391-.478-1.56 2.424-1.168 2.785-1.214-2.196-.753 1.163-1.641-1.431-1.046 1.163-.758-1.13-.762-.636-.445 1.293.01 1.853-.723 1.571-.605-.528-.739 2.588-1.931 1.686-.593 1.745-1.273 1.24-1.31-4.902-1.035-.769-.298.74-.604-.54-1.205.976-.457-1.106-.733-.374-.897 1.035-.594 1.43-.898 2.203-.752-.123-.273 1.43-1.044 1.731-1.798 2.327.43-3.823-1.627 1.216-.755-.652-.446.948-.915-.96-.748.709-.585-.789-1.642 2.51-.9 1.728-1.021 2.077-.156-1.12-.445 1.146-.76-1.698-.766-1.086-.745 1.399-.733-.626-.75.314-1.05.68-.45 1.549-.442 1.621-1.186-.405-1.192 2.053-1.06-.106-2.068 3c-.037.086-2.095 4.536-2.125 3.504-.18-6.301.007-11.98.133-18.447.017-.967 1.385 1.33 1.923 2.132" transform="translate(42.493 36.153)"/>
            <path fill="#B068EB" d="M75.464 18.35c4.264-2.464 7.982-8.277 8.309-12.988.326-4.708-2.864-6.53-7.128-4.065-4.26 2.463-7.981 8.28-8.307 12.988-.327 4.71 2.866 6.528 7.126 4.066" transform="translate(42.493 36.153)"/>
            <path fill="#FF89DB" d="M79.362 6.074c.152-2.203-1.34-3.056-3.337-1.903-1.994 1.154-3.736 3.877-3.889 6.08-.152 2.205 1.342 3.056 3.336 1.903 1.996-1.153 3.737-3.874 3.89-6.08m2.273 4.424l.002 1.302c-1.546 2.715-3.773 5.163-6.173 6.55-2.333 1.35-4.345 1.414-5.635.424l-.003-1.491c-.002-.973.683-2.16 1.528-2.647l1.344-.771c.728.19 1.66.013 2.697-.586 1.023-.592 1.993-1.505 2.803-2.568l1.9-1.09c.433-.25.826-.27 1.106-.097.266.164.43.5.431.974" transform="translate(42.493 36.153)"/>
            <path fill="#B068EB" d="M62.616 9.165c2.175-1.256 3.945-.251 3.951 2.248l.026 8.94c.006 2.432-1.656 5.368-3.748 6.686-18.472 10.67-36.9 21.407-55.375 32.08-2.175 1.256-3.94.246-3.948-2.254l-.025-8.94c-.008-2.5 1.747-5.538 3.922-6.794C25.832 30.501 44.2 19.8 62.616 9.165M79.796 27.052c2.175-1.256 3.945-.252 3.951 2.248l.026 8.94c.006 2.432-1.656 5.368-3.748 6.686C61.553 55.596 25.945 76.308 7.47 86.98c-2.175 1.256-3.94.246-3.948-2.254l-.025-8.94c-.008-2.5 1.747-5.538 3.922-6.793 18.413-10.632 53.96-31.309 72.377-41.942" transform="translate(42.493 36.153)"/>
            <path fill="#FFF" d="M79.48 32.727c-.18.104-.311.36-.31.54l.019 6.993c0 .178.133.235.314.13.18-.104.36-.34.36-.52l-.02-6.993c0-.18-.181-.255-.362-.15zm-.942 1.434c-.181.105-.313.312-.312.492l.015 5.264c0 .18.132.235.314.131l.04-.023c.181-.105.32-.318.32-.497l-.015-5.265c0-.179-.141-.23-.321-.126l-.041.024zm-.903 1.24c-.173.1-.353.337-.352.516l.01 3.827c0 .18.182.209.355.108.18-.104.32-.317.32-.497l-.012-3.827c0-.179-.14-.23-.321-.126zm-.935 1.43c-.181.105-.32.318-.32.496l.006 2.051c0 .18.14.232.321.128.173-.1.313-.313.312-.493l-.005-2.05c-.001-.18-.141-.232-.314-.131zm-.95-1.013c-.181.104-.321.317-.32.497l.014 5.17c0 .179.141.277.322.173.173-.1.312-.36.312-.54l-.015-5.169c0-.179-.141-.231-.313-.13zm-.95-.617c-.18.104-.32.318-.32.497l.022 7.494c0 .17.14.232.322.127.18-.105.311-.322.31-.492l-.02-7.494c0-.18-.132-.237-.313-.132zm-.943 1.217c-.181.105-.32.318-.32.497l.017 6.152c0 .18.14.232.322.127.18-.105.361-.34.36-.52l-.016-6.153c0-.179-.182-.207-.363-.103zm-.941 2.153c-.182.104-.321.318-.32.497l.008 2.94c0 .178.14.23.322.125.18-.104.361-.34.36-.52l-.008-2.94c0-.179-.182-.207-.362-.102zm-.912-1.708c-.18.104-.353.337-.352.516l.021 7.4c0 .18.174.212.355.107.18-.104.32-.317.319-.497l-.02-7.4c-.001-.18-.142-.23-.323-.126zm-.944 1.17c-.18.105-.312.312-.311.492l.017 6.153c.001.179.133.235.314.131.18-.104.32-.318.32-.497l-.018-6.153c0-.18-.14-.231-.322-.127zm-.939 2.862c-.172.098-.312.312-.312.491l.004 1.522c.001.18.141.232.314.13.181-.103.32-.316.32-.496l-.004-1.521c0-.18-.141-.23-.322-.126zm-.948-.57c-.173.1-.313.322-.312.492l.01 3.752c.001.17.14.231.314.132.181-.104.32-.327.32-.497l-.01-3.753c-.001-.17-.142-.23-.322-.126zm-.942-.658c-.18.104-.32.317-.319.496l.017 6.152c0 .18.14.232.322.127.172-.1.353-.336.352-.516l-.017-6.152c0-.18-.182-.208-.355-.107zm-.588 1.684c0-.18-.174-.26-.355-.157-.18.106-.32.367-.32.545l.012 4.093c0 .179.14.278.322.174.18-.105.353-.384.352-.564l-.011-4.091zm-.95-.797c0-.18-.133-.283-.313-.179-.18.105-.362.39-.361.568l.02 6.823c0 .17.181.208.362.104.18-.105.312-.323.312-.493l-.02-6.823zm-.935 1.345c0-.18-.141-.278-.322-.174-.18.104-.361.388-.36.569l.014 5.168c0 .18.182.254.363.15.181-.104.32-.364.32-.544l-.015-5.17zm-1.265 1.308c-.18.104-.312.313-.312.492l.01 3.392c0 .18.133.236.313.132.182-.104.32-.318.32-.497l-.009-3.393c0-.18-.14-.23-.322-.126zm-.943 1.217c-.182.104-.313.312-.312.492l.005 2.05c0 .18.134.236.314.132.181-.104.32-.318.32-.497l-.005-2.05c-.002-.18-.141-.232-.322-.127zm-.623 1.211c-.001-.18-.142-.279-.322-.174-.173.1-.312.36-.312.54l.003.973c0 .18.141.279.313.178.182-.104.321-.365.32-.544l-.002-.973zm-1.276-2.71c-.173.101-.313.323-.313.493l.02 7.221c.001.18.142.23.314.131.182-.104.362-.341.362-.521l-.02-7.22c-.001-.17-.183-.208-.363-.103zm-.895 1.057c-.182.105-.362.342-.361.522l.017 6.152c0 .179.182.207.363.103.18-.106.312-.313.311-.494l-.017-6.151c0-.18-.133-.236-.313-.132zm-.944 1.397c-.181.105-.362.341-.36.521l.012 4.45c0 .181.182.208.362.103.181-.104.313-.313.312-.491l-.013-4.45c0-.181-.132-.238-.313-.133zm-.631 1.169c0-.179-.132-.283-.314-.179-.18.104-.312.36-.311.54l.01 3.515c0 .18.132.236.313.131.181-.104.313-.312.312-.492l-.01-3.515zm-1.263-.928c-.18.105-.312.313-.31.493l.016 6.152c0 .18.132.235.313.13.18-.104.313-.312.313-.491l-.019-6.152c0-.179-.132-.236-.313-.132zm-.949-.522c-.181.105-.312.314-.311.493l.023 8.288c.001.18.132.236.313.131.182-.104.32-.317.32-.497l-.023-8.288c0-.179-.14-.23-.322-.127zm-.943 1.615c-.18.104-.311.313-.311.492l.018 6.152c0 .18.132.236.312.131.182-.104.362-.341.361-.52l-.017-6.152c0-.18-.181-.208-.363-.103zm-.948-.258c-.18.105-.312.313-.31.492l.021 7.76c0 .179.133.236.313.131l.05-.028c.18-.106.312-.313.311-.493l-.022-7.759c0-.179-.132-.235-.313-.13l-.05.027zm-.573 4.127c0-.18-.132-.283-.313-.179-.181.105-.362.39-.36.568l.002.804c0 .18.181.254.362.15.181-.105.312-.36.311-.54l-.002-.803zm-1.26-.256c-.181.104-.313.313-.313.492l.007 2.145c0 .18.132.237.313.131.18-.104.313-.311.312-.492l-.006-2.145c-.001-.18-.132-.235-.314-.13zm-.948.15c-.18.104-.312.311-.312.492l.009 2.938c0 .18.132.235.313.131.182-.104.312-.312.312-.492l-.008-2.938c0-.18-.133-.237-.314-.132zm-.948-.212c-.18.106-.312.313-.311.494l.012 4.45c.001.18.133.236.314.131.18-.104.312-.311.311-.492l-.013-4.45c0-.18-.131-.237-.313-.133zm-.948-.304c-.18.104-.312.313-.312.492l.017 6.152c.002.18.133.238.314.132.181-.104.362-.34.361-.52l-.017-6.153c0-.179-.182-.207-.363-.103zm-.948-.474c-.181.104-.313.313-.313.492l.024 8.194c0 .179.133.236.314.132.18-.105.36-.342.36-.522l-.023-8.193c0-.18-.181-.207-.362-.103zm-.894 1.538c-.181.105-.362.342-.36.52l.017 6.153c0 .18.181.207.362.102.181-.103.312-.312.312-.491l-.018-6.152c0-.18-.132-.236-.313-.132zm-.947.15c-.18.104-.32.316-.32.496l.02 6.946c0 .18.14.23.321.127.181-.105.313-.314.312-.493l-.02-6.945c0-.18-.132-.236-.313-.132zm-.942 1.614c-.182.104-.313.311-.312.492l.013 4.81c.001.179.133.236.313.131.182-.104.313-.313.312-.492l-.013-4.81c-.001-.18-.133-.237-.313-.131zm-.63 1.697c0-.179-.133-.274-.314-.17-.18.106-.312.352-.312.53l.01 2.808c0 .179.131.236.312.131.181-.104.312-.312.312-.492l-.008-2.807zm-.894 1.32c-.001-.178-.183-.253-.364-.149-.18.105-.311.36-.311.54l.004 1.162c0 .18.132.283.313.18.18-.105.361-.39.361-.569l-.003-1.163zm-1.32-3.034c-.18.106-.311.313-.31.493l.023 8.118c0 .17.132.236.313.131.18-.104.362-.351.361-.521l-.023-8.118c0-.179-.182-.208-.363-.103zm-.892 1.633c-.181.105-.362.342-.36.52l.016 5.889c0 .179.181.207.363.103.173-.101.312-.313.31-.492l-.016-5.888c0-.18-.14-.231-.313-.132zm-.942 1.756c-.181.104-.362.341-.362.52l.01 3.47c.001.178.182.207.363.102.181-.104.312-.313.312-.492l-.01-3.469c0-.179-.133-.235-.313-.131zm-.63 1.963c0-.18-.132-.274-.313-.17-.18.104-.32.356-.32.536l.003.896c.001.172.14.27.322.166.18-.105.312-.36.312-.53l-.003-.898zm-1.266-2.213c-.18.104-.32.317-.32.497l.018 6.152c0 .18.14.23.322.127.181-.105.311-.312.31-.492l-.016-6.153c0-.179-.132-.235-.314-.131zm-.947.102c-.18.104-.312.313-.311.492l.02 7.04c0 .18.132.284.313.18.18-.104.312-.36.311-.54l-.02-7.04c0-.18-.132-.236-.313-.132zm-.942 1.661c-.181.105-.313.314-.312.492l.014 4.81c0 .181.132.236.313.132.181-.104.361-.341.36-.52l-.013-4.81c0-.18-.182-.208-.362-.104zm-.579 2.341c0-.18-.14-.278-.321-.174-.181.105-.353.384-.353.563l.004 1.427c0 .18.174.26.355.155.18-.104.32-.364.32-.544l-.005-1.427zm-.945.81c0-.179-.141-.269-.322-.165-.172.1-.353.375-.352.554l.002.898c0 .17.182.246.355.146.18-.104.32-.365.32-.535l-.003-.898zm-1.258.594c-.181.105-.32.318-.32.497v.539c.002.18.142.232.323.127.173-.1.312-.313.311-.492l-.001-.54c0-.179-.141-.23-.313-.13zm-.946.546c-.181.105-.32.319-.32.497l.002.539c0 .18.14.232.32.127.174-.1.313-.312.312-.491l-.001-.54c0-.18-.14-.23-.313-.132zm-.946.546c-.18.105-.32.319-.32.498l.002.538c0 .18.14.232.321.127.181-.105.312-.312.312-.493l-.001-.538c-.001-.179-.134-.236-.314-.132zm-.946.547c-.18.104-.32.318-.32.497l.002.538c0 .18.14.232.322.126.181-.104.36-.34.36-.52l-.001-.538c0-.18-.182-.208-.363-.103zm-.946.546c-.18.104-.32.317-.32.497l.002.538c0 .18.141.231.321.127l.042-.024c.181-.104.32-.318.32-.497l-.002-.538c0-.18-.14-.232-.322-.127l-.04.024zm-.905.523c-.18.104-.353.336-.352.515l.002.539c0 .18.173.212.354.108.181-.105.32-.318.32-.497l-.001-.539c-.001-.18-.142-.232-.323-.126zm-.945.545c-.18.104-.313.313-.312.493l.002.538c0 .18.132.236.313.132.18-.105.32-.318.32-.498l-.001-.538c-.001-.18-.141-.232-.322-.127zm-.955-2.573c-.172.1-.312.313-.31.492l.018 6.777c0 .18.14.279.314.178.18-.104.32-.365.32-.544l-.02-6.775c0-.18-.142-.232-.322-.128zm-.935 1.43c-.18.104-.32.327-.32.497l.015 5c0 .17.14.23.321.126.173-.1.313-.322.311-.492l-.013-5c0-.17-.141-.23-.314-.131zm-.943 1.396c-.18.105-.32.319-.32.497l.01 3.3c0 .179.14.23.321.126.173-.1.312-.313.311-.492l-.009-3.3c0-.178-.14-.23-.313-.13zm-.851 1.874c-.182.105-.362.342-.361.521v.538c.001.181.182.208.364.103.173-.099.312-.313.312-.491l-.002-.54c0-.18-.14-.231-.313-.13zm55.678-32.05c0-.181-.133-.284-.314-.18-.18.105-.361.39-.36.569l.002.973c0 .18.182.254.363.15.181-.105.312-.36.311-.54l-.002-.973zm.634-.414c-.182.104-.322.318-.322.497l.003.445c0 .179.14.23.32.126l.042-.023c.181-.105.312-.313.312-.492l-.001-.445c-.001-.18-.132-.236-.314-.131l-.04.023zM18.895 68.548c0-.17-.182-.245-.362-.14-.182.104-.312.359-.312.529l.016 5.973c0 .179.133.283.314.179.181-.104.362-.389.36-.568l-.016-5.973zm-.942 1.577c-.001-.18-.183-.255-.363-.151-.182.104-.312.36-.312.54l.012 3.922c0 .18.132.282.313.177.18-.103.362-.387.36-.567l-.01-3.921zm-1.257 1.17c-.182.105-.362.34-.362.521l.007 2.41c0 .18.182.207.363.102s.313-.312.311-.492l-.006-2.409c-.002-.18-.133-.237-.313-.133zm-.633.772c0-.18-.132-.283-.314-.179-.18.104-.36.39-.36.568l.006 2.22c0 .181.182.256.363.152.18-.105.312-.361.312-.54l-.007-2.221zm9.098-4.722c-.181.104-.32.317-.32.497l.001.538c0 .18.141.231.321.126.182-.104.313-.312.312-.491v-.539c-.001-.18-.133-.236-.314-.131zm-.946.546c-.18.105-.32.317-.32.496l.002.54c0 .179.14.23.321.126.181-.105.313-.313.311-.492l-.001-.539c0-.18-.132-.235-.313-.13zm-.946.546c-.181.104-.32.317-.32.496l.002.54c0 .179.14.23.322.126.18-.104.312-.313.31-.492v-.538c-.001-.18-.133-.238-.314-.132zm-.946.545c-.18.105-.312.313-.311.493l.001.539c0 .179.133.235.314.131.18-.104.361-.341.36-.52v-.54c-.001-.179-.182-.208-.364-.103zm-.946.546c-.18.104-.312.313-.311.493l.001.539c0 .179.132.236.313.131.182-.104.362-.341.362-.521l-.002-.539c0-.179-.182-.207-.363-.103zm-.904.523c-.173.1-.354.336-.353.515l.001.54c.001.18.182.207.355.107.181-.104.32-.317.32-.497l-.001-.539c0-.179-.141-.23-.322-.126zm-.946.547c-.173.098-.353.335-.353.515l.003.54c0 .178.182.207.354.106.18-.104.32-.317.32-.497l-.002-.539c-.001-.178-.14-.23-.322-.125zm-4.721 2.677c-.18.105-.32.328-.32.498l.002.623c0 .18.14.23.322.126.18-.104.312-.312.312-.492l-.002-.623c0-.17-.132-.236-.314-.132zm-.952-1.77c-.181.105-.313.313-.311.494l.013 5.263c.002.18.133.236.315.131.18-.104.312-.313.312-.491l-.016-5.265c0-.18-.133-.236-.313-.132zm-.943 1.926c-.18.106-.311.324-.31.494l.006 2.504c0 .17.133.273.314.168.181-.104.361-.387.361-.557l-.007-2.506c0-.17-.183-.207-.364-.103zm-.942 1.624c-.181.105-.312.313-.311.493l.001.349c0 .18.132.235.313.131.18-.104.362-.341.36-.52v-.35c0-.18-.182-.207-.363-.103zm-.896.517c-.182.106-.362.341-.36.522v.349c0 .18.182.207.363.103.172-.1.311-.313.311-.492v-.35c0-.18-.141-.231-.314-.132zm-.946.546c-.181.106-.361.342-.361.522l.001.35c0 .179.182.207.363.102.173-.1.312-.313.312-.492l-.001-.35c-.002-.18-.142-.231-.314-.132zm-.946.546c-.18.105-.32.319-.32.498l.002.35c0 .179.14.23.32.126.182-.104.314-.313.312-.492v-.35c-.001-.18-.132-.236-.314-.132zm-.952-1.55c-.18.104-.32.316-.32.495l.014 4.546c0 .18.141.232.322.128.18-.106.311-.313.311-.493l-.013-4.545c-.001-.18-.132-.237-.314-.132zm-.939 2.643c-.182.104-.321.318-.32.497v.349c.002.18.142.232.323.127.18-.104.312-.312.312-.491l-.002-.35c0-.18-.133-.237-.313-.132zm-.946.546c-.181.104-.32.318-.32.497v.35c.002.18.141.231.323.127.18-.104.36-.341.36-.522v-.35c0-.178-.182-.206-.363-.102zm-.905.523c-.18.104-.353.336-.352.515v.35c.001.18.174.211.354.108.182-.105.321-.317.321-.498l-.001-.349c0-.18-.14-.232-.322-.126zm74.99-46.202c-.182.105-.322.317-.321.498l.017 6.152c0 .18.142.23.322.126.181-.104.312-.313.312-.492l-.018-6.152c0-.18-.132-.235-.313-.132z" transform="translate(42.493 36.153)"/>
            <path fill="#B068EB" d="M10.646 111.455c4.264-2.465 7.982-8.278 8.308-12.989.326-4.708-2.863-6.53-7.127-4.065-4.26 2.463-7.982 8.28-8.307 12.988-.327 4.71 2.866 6.529 7.126 4.066" transform="translate(42.493 36.153)"/>
            <path fill="#FF89DB" d="M14.544 99.178c.152-2.203-1.34-3.056-3.337-1.903-1.994 1.154-3.736 3.877-3.889 6.08-.152 2.206 1.342 3.056 3.336 1.903 1.996-1.154 3.737-3.874 3.89-6.08m2.273 4.424l.002 1.302c-1.546 2.715-3.773 5.163-6.173 6.55-2.333 1.35-4.346 1.414-5.635.424l-.003-1.491c-.003-.972.683-2.159 1.528-2.647l1.344-.771c.728.19 1.66.013 2.697-.586 1.023-.592 1.993-1.505 2.803-2.569l1.9-1.089c.433-.25.826-.27 1.106-.097.266.164.43.5.431.974" transform="translate(42.493 36.153)"/>
            <path fill="#B068EB" d="M79.819 54.609c2.175-1.256 3.944-.252 3.951 2.248l.025 8.94c.007 2.432-1.655 5.367-3.747 6.686-18.473 10.67-36.9 21.406-55.376 32.08-2.174 1.255-3.94.245-3.947-2.254l-.026-8.94c-.007-2.5 1.748-5.538 3.923-6.794 18.413-10.631 36.78-21.333 55.197-31.966M75.464 100.218c4.264-2.465 7.982-8.278 8.309-12.989.326-4.707-2.864-6.53-7.128-4.065-4.26 2.463-7.981 8.281-8.307 12.988-.327 4.711 2.866 6.529 7.126 4.066" transform="translate(42.493 36.153)"/>
            <path fill="#FF89DB" d="M79.362 87.942c.152-2.204-1.34-3.057-3.337-1.903-1.994 1.153-3.736 3.876-3.889 6.08-.152 2.205 1.342 3.056 3.336 1.903 1.996-1.154 3.737-3.875 3.89-6.08m2.273 4.423l.002 1.302c-1.546 2.716-3.773 5.164-6.173 6.551-2.333 1.349-4.345 1.414-5.635.424l-.003-1.492c-.002-.972.683-2.159 1.528-2.647l1.344-.77c.728.19 1.66.013 2.697-.587 1.023-.592 1.993-1.505 2.803-2.568l1.9-1.09c.433-.25.826-.269 1.106-.096.266.163.43.5.431.973" transform="translate(42.493 36.153)"/>
            <path fill="#B068EB" d="M62.616 91.033c2.175-1.256 3.945-.252 3.951 2.248l.026 8.94c.006 2.432-1.656 5.367-3.748 6.685-18.472 10.671-36.9 21.408-55.375 32.08-2.175 1.256-3.94.246-3.948-2.253l-.025-8.941c-.008-2.5 1.747-5.537 3.922-6.793 18.413-10.631 36.78-21.333 55.197-31.966" transform="translate(42.493 36.153)"/>
            <path fill="#F1A4FD" d="M11.61 177.088c10.018-5.787 18.25-1.116 18.283 10.417.014 5.453-1.786 11.475-4.741 16.926l-13.633 7.819c-6.254 3.611-11.351.706-11.372-6.48l-.029-17.364c3.136-4.737 7.136-8.803 11.491-11.318" transform="translate(42.493 36.153)"/>
            <path fill="#3E4992" d="M11.62 186.778c5.394-3.116 9.826-.602 9.844 5.607.017 6.243-4.385 13.866-9.78 16.982-5.43 3.135-9.861.61-9.88-5.632-.017-6.208 4.386-13.822 9.817-16.957" transform="translate(42.493 36.153)"/>
            <path fill="#FFF" d="M9.079 198.778c.28-.161.51-.06.55.249.045.549.319.904.678 1.123.358.157.817.09 1.361-.224.487-.283.988-.769 1.344-1.337.358-.569.584-1.226.626-1.876.038-.31.268-.672.547-.834.027-.016.055-.03.08-.04.316-.182.546.047.504.385-.084.971-.453 1.975-1.024 2.865-.414.716-.957 1.343-1.543 1.78l.004 1.446c0 .364-.213.8-.528.983-.316.18-.588.026-.589-.337l-.004-1.448c-.587.242-1.09.218-1.534-.002-.546-.247-.963-.845-1.052-1.668-.044-.336.184-.78.499-1.011.028-.02.054-.038.08-.054m2.588.275c.844-.488 1.572-1.68 1.569-2.719l-.007-2.432c-.002-.989-.734-1.406-1.58-.917-.901.52-1.629 1.78-1.626 2.766l.006 2.435c.003 1.035.737 1.388 1.638.867" transform="translate(42.493 36.153)"/>
            <path fill="#F7F8FC" d="M139.78 70.301l-1.656-.829c-.415-.192-.966-.138-1.569.21-13.643 7.825-27.258 15.925-40.902 23.75-1.286.744-2.327 2.547-2.323 4.025l-.067 54.008c.002.618.186 1.082.494 1.358.307.276 1.515.796 1.944 1.013 13.643-7.825 27.161-16.965 40.803-24.79 1.287-.743 2.328-2.545 2.323-4.024l.953-54.72z" transform="translate(42.493 36.153)"/>
        </g>
        <g transform="translate(137.356 106.178)">
            <mask id="prefix__n" fill="#fff">
                <use xlink:href="#prefix__l"/>
            </mask>
            <path fill="url(#prefix__m)" d="M43.319.47C29.676 8.295 16.06 16.395 2.417 24.221 1.13 24.964.089 26.767.093 28.246L.026 82.254c.005 1.477 1.053 2.075 2.34 1.332 13.643-7.825 27.26-15.927 40.901-23.751 1.288-.744 2.328-2.547 2.323-4.025l.067-54.007C45.654.756 45.128.151 44.364.151c-.315 0-.67.102-1.045.32" mask="url(#prefix__n)"/>
        </g>
        <g fill="#FFF">
            <path d="M24.24 2.554C24.385.432 22.947-.39 21.026.721c-1.921 1.11-3.599 3.733-3.746 5.855-.147 2.124 1.292 2.944 3.213 1.833 1.922-1.111 3.598-3.731 3.745-5.855m2.19 4.26l.01 5.425c-3.792 2.209-7.582 4.43-11.373 6.637l-.01-5.528c-.002-.936.658-2.079 1.472-2.55l1.294-.742c.701.184 1.598.013 2.597-.564.985-.57 1.92-1.45 2.7-2.474l1.828-1.048c.419-.242.797-.26 1.067-.094.255.158.413.482.415.938M41.21 9.286c-.002-.613-.436-.86-.97-.552-12.99 7.45-25.974 14.903-38.964 22.353-.534.308-.965 1.056-.963 1.669l-.028 6.061c.002.613.436.86.97.553 12.99-7.451 25.974-14.903 38.963-22.355.535-.308.965-1.055.964-1.668l.027-6.061z" transform="translate(139.45 124.133)"/>
        </g>
        <g transform="translate(150.822 159.444)">
            <mask id="prefix__q" fill="#fff">
                <use xlink:href="#prefix__o"/>
            </mask>
            <path fill="url(#prefix__p)" d="M22.188.357C15.167 4.384 8.14 8.4 1.12 12.427c-.533.308-.965 1.056-.963 1.668l-.028 6.062c.002.612.437.86.97.552 7.02-4.027 14.046-8.044 21.067-12.07.534-.308.965-1.055.963-1.668l.028-6.062c-.001-.433-.22-.685-.536-.685-.13 0-.278.043-.433.133" mask="url(#prefix__q)"/>
        </g>
        <path fill="#FFF" d="M180.66 144.485c-.002-.613-.436-.86-.97-.553-12.99 7.45-25.974 14.904-38.963 22.354-.534.308-.966 1.055-.964 1.668l-.028 6.062c.002.612.437.86.97.552 12.99-7.45 25.975-14.903 38.964-22.354.534-.308.965-1.055.963-1.668l.028-6.061z"/>
        <g transform="translate(141.845 154.357)">
            <mask id="prefix__t" fill="#fff">
                <use xlink:href="#prefix__r"/>
            </mask>
            <path fill="url(#prefix__s)" d="M2.794.373C1.382 1.189.149 3.117.04 4.677c-.108 1.56.95 2.163 2.362 1.347C3.816 5.207 5.047 3.28 5.156 1.72 5.23.632 4.74.01 3.956.01c-.34 0-.735.117-1.162.364" mask="url(#prefix__t)"/>
        </g>
        <path fill="#FFF" d="M143.555 156.443L143.181 156.63 144.844 159.162 146.313 156.985 145.829 157.174 145.054 157.91z"/>
        <g transform="translate(141.845 164.83)">
            <mask id="prefix__w" fill="#fff">
                <use xlink:href="#prefix__u"/>
            </mask>
            <path fill="url(#prefix__v)" d="M2.794.385C1.382 1.202.149 3.13.04 4.69c-.108 1.56.95 2.164 2.362 1.347 1.413-.816 2.644-2.742 2.753-4.304C5.23.644 4.74.022 3.956.022c-.34 0-.735.116-1.162.363" mask="url(#prefix__w)"/>
        </g>
        <g>
            <path fill="#FFF" d="M.514 30.527L.139 30.715 1.803 33.246 3.271 31.069 2.788 31.258 2.012 31.994zM34.296.533c.01-.154-.106-.288-.26-.298-.154-.01-.287.106-.297.26l-.094 1.357-.797-.459c-.133-.077-.303-.03-.38.103-.077.134-.031.304.102.381l.764.44-1.146.662c-.133.077-.179.248-.101.382.077.133.248.179.382.102l.588-.34-.616.98c-.083.13-.043.303.088.385.13.083.303.043.385-.087l.623-.993-.048.692c-.01.155.107.288.26.298.155.01.288-.106.298-.26l.094-1.356.69.397c.134.077.305.03.382-.103.076-.133.03-.304-.103-.38l-.658-.38 1.145-.662c.134-.077.18-.248.102-.381-.077-.134-.248-.18-.382-.102l-.588.34.616-.98c.082-.131.042-.304-.088-.386-.13-.082-.303-.043-.385.088l-.624.992.048-.692zM28.42 3.892c.011-.154-.105-.287-.26-.298-.154-.01-.287.107-.297.26l-.094 1.357-.796-.459c-.134-.076-.304-.03-.38.103-.078.134-.032.304.102.381l.764.44-1.146.662c-.133.078-.18.249-.102.382.077.134.248.18.382.102l.588-.34-.615.98c-.083.131-.044.304.087.386.13.082.303.043.385-.088l.624-.993-.048.693c-.01.154.106.287.26.298.154.01.288-.107.298-.26l.093-1.357.691.397c.134.077.304.03.381-.103.077-.133.03-.304-.103-.38l-.658-.379 1.146-.662c.134-.078.179-.249.102-.382-.078-.134-.249-.18-.382-.102l-.589.34.617-.98c.081-.131.042-.303-.088-.385-.13-.083-.303-.043-.385.087l-.624.992.048-.692zM22.677 7.159c.01-.154-.106-.287-.26-.298-.154-.01-.288.107-.298.26l-.094 1.357-.796-.458c-.134-.077-.304-.031-.38.102-.078.134-.032.305.102.381l.764.44-1.146.662c-.133.078-.18.249-.102.382.078.134.249.18.382.102l.589-.34-.616.98c-.083.131-.043.303.087.386.13.082.303.043.385-.088l.624-.993-.048.693c-.01.154.106.287.26.298.154.01.288-.107.298-.26l.094-1.357.69.397c.134.077.304.031.381-.102.077-.134.031-.305-.103-.381l-.658-.379 1.146-.662c.134-.078.18-.249.102-.382-.077-.134-.249-.18-.382-.102l-.589.34.617-.98c.082-.13.042-.303-.088-.386-.13-.082-.303-.042-.385.088l-.624.992.048-.692zM16.933 10.426c.01-.154-.106-.287-.26-.298-.154-.01-.288.107-.298.261l-.094 1.356-.796-.459c-.133-.076-.304-.03-.38.103-.077.134-.031.305.102.381l.764.44-1.146.662c-.133.078-.179.249-.102.382.078.133.249.18.383.102l.588-.34-.616.98c-.083.13-.043.304.087.386.13.082.303.043.386-.088l.623-.993-.048.693c-.01.154.107.287.26.298.155.01.288-.106.298-.26l.094-1.357.69.398c.134.076.305.03.381-.103.077-.134.031-.305-.102-.381l-.658-.38 1.145-.661c.134-.078.18-.249.102-.382-.077-.134-.249-.18-.382-.102l-.588.34.616-.98c.082-.13.042-.303-.088-.385-.13-.083-.303-.043-.385.087l-.623.993.047-.693zM34.296 11.493c.01-.154-.106-.287-.26-.297-.154-.01-.287.106-.297.26l-.094 1.356-.797-.458c-.133-.077-.303-.031-.38.103-.077.133-.031.304.102.38l.764.44-1.146.662c-.133.078-.179.249-.101.382.077.134.248.18.382.102l.588-.34-.616.98c-.083.131-.043.304.088.386.13.082.303.043.385-.088l.623-.992-.048.692c-.01.154.107.288.26.298.155.01.288-.106.298-.26l.094-1.357.69.398c.134.077.305.03.382-.103.076-.134.03-.304-.103-.381l-.658-.379 1.145-.662c.134-.078.18-.248.102-.382-.077-.134-.248-.18-.382-.102l-.588.34.616-.98c.082-.13.042-.303-.088-.385-.13-.082-.303-.043-.385.087l-.624.993.048-.693zM28.42 14.853c.011-.155-.105-.288-.26-.298-.154-.01-.287.106-.297.26l-.094 1.357-.796-.459c-.134-.077-.304-.03-.38.103-.078.133-.032.304.102.38l.764.44-1.146.663c-.133.077-.18.248-.102.382.077.133.248.178.382.101l.588-.34-.615.981c-.083.13-.044.303.087.385.13.082.303.043.385-.088l.624-.992-.048.692c-.01.155.106.288.26.298.154.01.288-.106.298-.26l.093-1.357.691.398c.134.077.304.03.381-.103.077-.133.03-.304-.103-.38l-.658-.38 1.146-.662c.134-.077.179-.248.102-.382-.078-.133-.249-.179-.382-.101l-.589.34.617-.981c.081-.13.042-.303-.088-.385-.13-.083-.303-.043-.385.087l-.624.993.048-.692zM22.677 18.12c.01-.155-.106-.288-.26-.298-.154-.01-.288.106-.298.26l-.094 1.357-.796-.459c-.134-.076-.304-.031-.38.103-.078.134-.032.304.102.38l.764.44-1.146.663c-.133.077-.18.248-.102.381.078.134.249.18.382.102l.589-.34-.616.981c-.083.13-.043.303.087.385.13.082.303.043.385-.087l.624-.993-.048.692c-.01.155.106.288.26.298.154.01.288-.106.298-.26l.094-1.357.69.398c.134.077.304.03.381-.103.077-.133.031-.304-.103-.38l-.658-.38 1.146-.662c.134-.077.18-.248.102-.382-.077-.133-.249-.179-.382-.101l-.589.34.617-.981c.082-.13.042-.303-.088-.385-.13-.082-.303-.043-.385.088l-.624.992.048-.692zM16.933 21.387c.01-.155-.106-.288-.26-.298-.154-.01-.288.106-.298.26l-.094 1.357-.796-.459c-.133-.076-.304-.03-.38.103-.077.134-.031.304.102.38l.764.44-1.146.663c-.133.077-.179.248-.102.382.078.133.249.179.383.102l.588-.34-.616.98c-.083.13-.043.303.087.385.13.082.303.043.386-.087l.623-.993-.048.693c-.01.154.107.287.26.297.155.01.288-.106.298-.26l.094-1.357.69.398c.134.077.305.03.381-.103.077-.133.031-.304-.102-.38l-.658-.38 1.145-.662c.134-.077.18-.248.102-.381-.077-.134-.249-.18-.382-.102l-.588.34.616-.98c.082-.131.042-.304-.088-.386-.13-.082-.303-.043-.385.088l-.623.992.047-.692z" transform="translate(143.042 136.402)"/>
            <g transform="translate(143.042 136.402) translate(33.516 3.292)">
                <mask id="prefix__y" fill="#fff">
                    <use xlink:href="#prefix__x"/>
                </mask>
                <path fill="#FFF" d="M11.506.569C5.843 2.067.777 8.769.191 15.539c-.587 6.769 3.528 11.043 9.191 9.545 5.663-1.498 10.73-8.2 11.316-14.97.587-6.77-3.529-11.043-9.192-9.545" mask="url(#prefix__y)"/>
            </g>
        </g>
        <g transform="translate(182.243 144.781)">
            <mask id="prefix__B" fill="#fff">
                <use xlink:href="#prefix__z"/>
            </mask>
            <path fill="url(#prefix__A)" d="M5.309.483L3.21 1.663C2.188 2.186 1.6 2.83 1.262 3.72.947 4.55.88 5.552.88 6.871l.001 1.574c-.38.827-.63 1.714-.707 2.605-.263 3.026 1.578 4.937 4.11 4.267 2.532-.67 4.797-3.666 5.059-6.692.128-1.473-.243-2.681-.948-3.457l-.027-2.176C8.37 1.682 8.126.833 7.634.394 7.36.147 7.044.028 6.688.028c-.406 0-.865.155-1.38.455M2.485 4.179c.217-.574.622-1 1.34-1.362.719-.36 1.426-.836 2.145-1.204.427-.249.696-.338.796-.248.198.177.296.707.296 1.627l.019 1.35c-.55-.16-1.174-.163-1.847.015-1.115.295-2.179 1.042-3.042 2.044.016-.944.084-1.669.293-2.222" mask="url(#prefix__B)"/>
        </g>
        <g>
            <path fill="#21389B" d="M59.764 134.953v1.538c0 .361.294.654.655.654.361 0 .655-.293.655-.654v-2.041c.223-.286.377-.646.409-1.008.06-.702-.366-1.145-.954-.99-.587.155-1.113.85-1.174 1.553-.04.456.127.803.41.948" transform="translate(126.583 19.994)"/>
            <g transform="translate(126.583 19.994) translate(0 23.042)">
                <mask id="prefix__E" fill="#fff">
                    <use xlink:href="#prefix__C"/>
                </mask>
                <path fill="url(#prefix__D)" d="M7.57.25L2.289 3.21C.608 4.092.381 5 .373 8.374L.246 64.13c.005 1.819 1.296 2.554 2.879 1.64l3.842-2.24.019-6.499-.568-14.176L7.571.25z" mask="url(#prefix__E)"/>
            </g>
            <path fill="#F2F4FF" d="M48.327.875L47.201.28c-.393-.13-.891-.057-1.435.254-13.469 7.725-26.91 15.722-40.38 23.448-1.27.734-2.298 2.514-2.294 3.974l-.066 53.319c.002.663.217 1.147.57 1.408.424.314 1.298.993 1.99.593 13.47-7.726 26.662-16.41 40.13-24.134 1.27-.734 2.298-2.514 2.293-3.973L48.327.875z" transform="translate(126.583 19.994)"/>
            <path fill="#F7F8FC" d="M49.012 2.359c-.004-1.46-1.038-2.05-2.31-1.316-13.468 7.725-26.91 15.722-40.38 23.448-1.269.734-2.297 2.514-2.293 3.973l-.066 53.32c.004 1.46 1.04 2.048 2.31 1.315 13.468-7.725 26.912-15.724 40.379-23.448 1.272-.734 2.298-2.514 2.294-3.973l.066-53.32z" transform="translate(126.583 19.994)"/>
            <path fill="#6D6AFD" d="M43.03 9.601c-1.835.486-3.478 2.659-3.668 4.854-.19 2.194 1.144 3.58 2.98 3.094 1.836-.485 3.479-2.658 3.669-4.853.19-2.195-1.144-3.58-2.98-3.095" transform="translate(126.583 19.994)"/>
        </g>
        <g transform="translate(167.28 31.365)">
            <mask id="prefix__H" fill="#fff">
                <use xlink:href="#prefix__F"/>
            </mask>
            <path fill="url(#prefix__G)" d="M2.174.061C1.184.323.298 1.494.196 2.678c-.103 1.184.617 1.93 1.607 1.669.99-.262 1.875-1.434 1.977-2.617C3.87.706 3.343.009 2.558.009c-.122 0-.25.017-.384.052" mask="url(#prefix__H)"/>
        </g>
        <g fill="#6D6AFD">
            <path d="M13.816.552c-.001-.465-.33-.647-.735-.407L.813 7.104c-.404.24-.732.812-.73 1.277v.92c0 .464.33.646.735.406L13.086 2.75c.405-.24.732-.813.73-1.278v-.92zM13.816 3.934c0-.275-.195-.383-.434-.24L6.138 7.803c-.239.141-.432.48-.432.754V9.1c.001.274.196.382.435.24l7.244-4.11c.24-.141.432-.48.431-.754v-.542z" transform="translate(151.121 33.46)"/>
        </g>
        <g transform="translate(140.348 56.802)">
            <mask id="prefix__J" fill="#fff">
                <use xlink:href="#prefix__I"/>
            </mask>
            <path d="M11.797 18.725L6.584 12.379 0.089 32.356 27.085 16.872 16.927 0.092z" mask="url(#prefix__J)"/>
        </g>
        <g transform="translate(132.268 41.839)">
            <path fill="#FFDB59" d="M16.688 16.262c-1.395.345-2.644 1.976-2.788 3.641-.145 1.666.87 2.736 2.264 2.39 1.396-.346 2.644-1.976 2.788-3.642.145-1.666-.869-2.735-2.264-2.39"/>
            <mask id="prefix__L" fill="#fff">
                <use xlink:href="#prefix__K"/>
            </mask>
            <path d="M40.771 3.116C40.764.59 38.976-.432 36.776.839L4.135 19.35C1.938 20.618.159 23.699.166 26.224L.26 53.172c.008 2.525 1.798 3.545 3.996 2.277l32.64-18.51c2.201-1.27 3.977-4.35 3.97-6.875l-.095-26.948z" mask="url(#prefix__L)"/>
        </g>
        <g transform="translate(133.465 86.427)">
            <mask id="prefix__O" fill="#fff">
                <use xlink:href="#prefix__M"/>
            </mask>
            <path fill="url(#prefix__N)" d="M2.957.069c-.11.064-.22.176-.304.322L.213 4.618c-.169.291-.168.601.002.7.085.034.195.013.304-.05.11-.064.22-.17.304-.303l1.712-2.99.02 7.485c.002.283.202.388.418.264.246-.143.439-.474.438-.758L3.39 1.5l1.721.99c.086.035.196.015.305-.05.11-.062.22-.168.304-.301.169-.293.168-.602-.002-.7L3.262.04C3.227.02 3.189.01 3.149.01c-.06 0-.126.021-.192.059" mask="url(#prefix__O)"/>
        </g>
        <g transform="translate(34.713 54.707)">
            <mask id="prefix__R" fill="#fff">
                <use xlink:href="#prefix__P"/>
            </mask>
            <path fill="url(#prefix__Q)" d="M15.269 3.43C15.26.56 13.227-.603 10.726.843L.238 5.446v34.64l3.655 3.036 6.733-3.462c2.501-1.445 4.521-4.946 4.513-7.817l.13-28.412z" mask="url(#prefix__R)"/>
        </g>
        <g transform="translate(14.963 54.707)">
            <mask id="prefix__U" fill="#fff">
                <use xlink:href="#prefix__S"/>
            </mask>
            <path fill="url(#prefix__T)" d="M27.417.78L4.195 14.098c-2.248 1.298-4.067 4.45-4.06 7.033L.018 46.689c.007 2.583 1.84 3.627 4.087 2.329l23.222-13.32c2.25-1.299 4.068-4.45 4.06-7.032l.117-25.558C31.5 1.278 30.58.221 29.244.221c-.55 0-1.17.18-1.827.558" mask="url(#prefix__U)"/>
        </g>
        <g>
            <path fill="#FFF" d="M25.091 0.277L27.563 0.831 19.42 19.818 8.514 8.444 11.66 8.823 17.071 12.191z" transform="translate(12.569 69.969)"/>
            <g transform="translate(12.569 69.969) translate(22.444 61.645)">
                <mask id="prefix__X" fill="#fff">
                    <use xlink:href="#prefix__V"/>
                </mask>
                <path fill="url(#prefix__W)" d="M33.419 1.135c4.277-2.47 7.756-.495 7.77 4.42l-.09 19.45c.014 4.782-3.254 10.555-7.368 13.147L3.738 55.499l-3.68-1.775.197-33.427L33.419 1.135z" mask="url(#prefix__X)"/>
            </g>
            <path fill="#F2F4FF" d="M51.706 61.787c1.699-.981 3.272-1.26 4.552-.934.732.187 2.79.955 3.3 1.523.839.936-.087 1.986-.082 3.83l.05 17.581c.013 4.782-3.256 10.555-7.37 13.147-36.324 20.983-7.974 4.63-44.306 25.616-1.253.724-1.024 1.585-2.065 1.703-.83.094-2.79-.807-3.358-1.118-1.437-.787-2.332-2.526-2.34-5.016l-.05-17.581c-.014-4.915 3.437-10.889 7.714-13.359 36.208-20.905 7.739-4.483 43.955-25.392" transform="translate(12.569 69.969)"/>
        </g>
        <g transform="translate(14.364 131.315)">
            <mask id="prefix__aa" fill="#fff">
                <use xlink:href="#prefix__Y"/>
            </mask>
            <path fill="url(#prefix__Z)" d="M51.712 1.134C15.495 22.043 43.965 5.62 7.757 26.526 3.479 28.996.029 34.97.044 39.885l.05 17.581c.013 4.914 3.486 6.9 7.762 4.431 36.332-20.987 7.982-4.633 44.307-25.617 4.113-2.591 7.381-8.364 7.368-13.146l-.05-17.58C59.473 2.074 57.728.07 55.192.07c-1.047 0-2.23.342-3.48 1.064" mask="url(#prefix__aa)"/>
        </g>
        <path fill="#FFF" d="M69.753 138.958l.05 17.348c.002.379.282.499.665.278.382-.22.764-.722.764-1.104l-.05-17.346c0-.382-.384-.44-.767-.218-.383.22-.662.662-.662 1.042zm-1.231 2.214c-.382.221-.765.723-.763 1.102l.037 13.026c0 .382.384.439.768.218.382-.22.66-.663.66-1.042l-.038-13.026c-.002-.378-.28-.499-.664-.278zm-2.004.316c-.383.221-.679.671-.677 1.05l.041 14.71c0 .378.298.487.68.266.383-.22.662-.663.66-1.042l-.04-14.705c-.002-.382-.281-.5-.664-.279zm-1.996 3.418c-.384.22-.662.66-.66 1.042l.029 10.184c.002.378.28.499.663.278.383-.221.661-.663.66-1.042l-.029-10.184c-.001-.381-.28-.502-.663-.278zm-1.334 3.594c0-.378-.28-.58-.663-.36-.382.224-.661.745-.66 1.124l.018 5.943c0 .378.28.5.663.278.383-.22.66-.662.66-1.042l-.018-5.943zm-1.892 2.796c-.003-.379-.386-.537-.77-.316-.381.22-.66.76-.659 1.142l.008 2.46c0 .38.281.6.663.38.383-.221.765-.824.765-1.203l-.007-2.463zm-2.793-6.425c-.381.223-.66.662-.66 1.044l.05 17.188c.001.36.28.499.664.278.382-.221.765-.745.763-1.105l-.048-17.187c0-.38-.385-.44-.769-.218zm-1.89 3.458c-.384.22-.765.723-.765 1.101l.036 12.467c0 .379.384.44.768.218.367-.212.66-.662.66-1.042l-.036-12.466c-.001-.379-.297-.488-.662-.278zm-1.994 3.717c-.384.22-.767.722-.766 1.102l.02 7.345c.002.378.386.439.77.217.382-.22.66-.662.659-1.04l-.02-7.346c-.002-.379-.282-.499-.663-.278zm-1.332 4.157c-.001-.382-.282-.582-.664-.36-.384.22-.679.752-.678 1.134l.006 1.898c.002.363.298.57.681.35.383-.222.661-.762.66-1.121l-.005-1.901zm-2.683-4.686c-.382.221-.678.67-.677 1.053l.036 13.025c.003.38.299.489.682.267.384-.22.66-.66.66-1.04l-.037-13.027c0-.38-.28-.5-.664-.278zm-2.005.216c-.383.22-.66.662-.66 1.04l.043 14.908c0 .38.28.6.664.38.382-.221.66-.763.659-1.143l-.043-14.907c0-.38-.28-.5-.663-.278zm-1.995 3.518c-.383.22-.662.662-.66 1.041l.029 10.184c0 .382.28.499.663.279.384-.222.766-.723.764-1.103l-.028-10.183c-.001-.382-.386-.439-.768-.218zm-1.225 4.955c0-.382-.298-.588-.68-.368-.384.221-.748.813-.747 1.192l.009 3.022c0 .379.367.548.75.327.383-.222.678-.772.677-1.151l-.009-3.022zm-2.001 1.715c0-.379-.299-.57-.682-.349-.364.213-.747.794-.745 1.173l.004 1.901c.001.36.386.521.752.308.383-.22.678-.772.677-1.132l-.006-1.9zm-2.665 1.258c-.382.221-.678.673-.678 1.053l.004 1.14c.001.381.298.49.681.27.366-.213.661-.663.66-1.042l-.003-1.143c0-.38-.298-.488-.664-.278zm-2.002 1.157c-.383.22-.679.673-.677 1.052l.003 1.14c.001.382.299.49.68.27.368-.213.661-.662.66-1.041l-.003-1.144c-.001-.379-.297-.488-.663-.277zm-2.002 1.155c-.383.221-.678.675-.678 1.054l.003 1.14c.001.381.298.49.681.27.383-.224.661-.663.66-1.045l-.003-1.14c0-.379-.281-.499-.663-.279zm-2.003 1.157c-.383.221-.678.673-.676 1.053l.002 1.14c.001.381.297.49.682.267.383-.221.764-.72.762-1.102l-.002-1.14c-.001-.379-.385-.439-.768-.218zm-2.003 1.156c-.383.222-.678.672-.677 1.053l.003 1.14c.002.38.299.488.682.267l.087-.05c.383-.22.678-.672.677-1.051l-.003-1.14c0-.382-.298-.491-.682-.268l-.087.05zm-1.916 1.108c-.382.22-.747.712-.745 1.09l.003 1.14c0 .382.367.45.75.23.383-.222.679-.674.678-1.053l-.004-1.14c-.001-.382-.299-.49-.682-.267zm-2.002 1.153c-.382.22-.661.663-.66 1.045l.004 1.14c0 .38.28.5.663.278.383-.221.679-.673.679-1.053l-.004-1.14c-.002-.381-.299-.49-.682-.27zm-2.02-5.446c-.366.213-.662.663-.66 1.042l.04 14.349c.001.378.299.588.664.376.382-.221.678-.773.677-1.151l-.041-14.346c-.002-.382-.299-.49-.68-.27zm-1.98 3.027c-.384.221-.678.693-.677 1.053l.03 10.584c0 .36.298.489.68.268.366-.21.662-.682.66-1.042l-.03-10.585c0-.36-.298-.488-.664-.278zm-1.997 2.956c-.383.221-.68.674-.678 1.053l.02 6.985c.001.379.298.488.68.267.367-.21.661-.663.66-1.041l-.02-6.985c0-.38-.297-.488-.662-.279zm-1.804 3.968c-.383.222-.765.723-.763 1.103l.002 1.14c.001.381.385.439.768.218.366-.21.661-.663.661-1.042l-.005-1.14c0-.382-.296-.491-.663-.279zm-2.002 1.157c-.383.221-.678.671-.677 1.053l.003 1.14c0 .38.298.488.68.267.385-.22.662-.662.661-1.041l-.003-1.14c0-.382-.28-.5-.664-.279zm-2.003 1.157c-.382.22-.677.67-.676 1.05l.003 1.142c0 .38.297.489.68.268.383-.221.662-.663.66-1.042l-.003-1.14c-.001-.382-.28-.5-.664-.278z"/>
        <g transform="translate(73.017 112.163)">
            <mask id="prefix__ad" fill="#fff">
                <use xlink:href="#prefix__ab"/>
            </mask>
            <path fill="url(#prefix__ac)" d="M26.346 1.677c-3.845 2.544-2.548 6.866-6.092 9.193-1.623 1.065-3.518 1.259-5.462 1.728-5.076 1.225-5.873 4.899-5.676 8.39.204 3.607 1.023 6.316.176 7.343-1.233 1.494-2.915 1.809-4.36 2.015-6.2.887-5.723 9.596-2.03 13.027 3.362 3.126 10.791 5.846 18.477 6.197 9.604.44 19.609-2.432 22.583-8.38.802-1.605 1.307-3.507 1.581-5.561 1.085-2.011 2.38-3.167 2.454-5.413.062-1.86-.153-3.545-.644-4.833-1.117-2.922-4.152-5.654-2.429-11.925.53-1.93.59-5.607-.648-8.446-1.058-2.43-3.147-4.247-5.791-3.838-.675-.075-1.343-.159-2.001-.234-1.635-.454-3.215-.672-4.67-.672-2.177 0-4.077.488-5.468 1.409" mask="url(#prefix__ad)"/>
        </g>
        <path fill="#22043D" d="M113.796 116.623c.22 1.705-.404 3.189-1.417 4.619-2.363 3.334-3.604 3.073-4.897 7.32-2.126-1.418-3.585-1.634-4.198-.24-.986 2.24-.364 3.564-.594 5.882-.373 3.768-4.876-1.396-8.407 1.491-3.471 2.838-1.09 4.831-2.43 8.85-.502 1.503-.892 3.48-2.296 4.146-4.366 2.067-6.039 7.272 1.735 9.855 4.816 1.6 11.808 1.2 17.651-.792 7.714-2.63 12.472-14.01 10.503-19.416-.814-2.237-3.014-3.908-3.025-5.656-.038-6.006 1.121-9.858-2.625-16.059"/>
        <g transform="translate(110.722 134.008)">
            <mask id="prefix__ag" fill="#fff">
                <use xlink:href="#prefix__ae"/>
            </mask>
            <path fill="url(#prefix__af)" d="M2.652.446c-4.345 1.129-1.68 8.765-.61 11.134 1.682 3.726 6.22 9.821 7.895 12.794l3.873-.078c.184-1.873.628-2.193-.072-4.252-.976-2.873-2.275-6.776-4.554-11.418C8.02 6.254 7.9.272 3.914.272c-.383 0-.803.055-1.262.174" mask="url(#prefix__ag)"/>
        </g>
        <g>
            <g transform="translate(68.528 134.607) translate(42.793)">
                <mask id="prefix__aj" fill="#fff">
                    <use xlink:href="#prefix__ah"/>
                </mask>
                <path fill="url(#prefix__ai)" d="M7.122 6.734c.902 1.507 2.583 4.184 2.676 6.113.163 3.382-.577 5.737.045 7.566.7 2.06-.149 2.916-.332 4.788l-1.5-2.85c-1.268-3.598-3.496-7.835-5.178-11.562C1.763 8.42-2.23 1.417 2.13.353 6.279-.659 5.635 4.25 7.122 6.734" mask="url(#prefix__aj)"/>
            </g>
            <g transform="translate(68.528 134.607) translate(0 111.022)">
                <mask id="prefix__am" fill="#fff">
                    <use xlink:href="#prefix__ak"/>
                </mask>
                <path fill="url(#prefix__al)" d="M59.433 19.97L27.94 2.035c-3.433-1.57-8.346-2.818-11.844-.997C12.909 2.697 7.659 6.09 5.337 7.415 3.574 8.42-2.547 12.088 1.266 14.16c11.214 6.097 22.313 12.956 33.7 19.15 2.154 1.172 5.305 1.596 8.613 1.321 3.293-.274 6.67-1.232 9.327-2.778 1.893-1.1 3.754-2.184 5.585-3.25 2.47-1.439 3.78-3.139 3.91-4.712.126-1.536-.86-2.96-2.968-3.922" mask="url(#prefix__am)"/>
            </g>
            <path fill="#FFA698" d="M27.125 105.814c.168.745-.307 1.827-.39 1.947-1.826 2.652.35 2.428.254 6.212-.01.348 1.537 6.325 1.537 6.325s3.642.883 3.913.834c.271-.047 2.484-.902 2.484-.902-.188-.323-.435-1.113-.587-1.41-1.048-2.043-1.603-4.521-2.008-7.01-.267-1.643-.77-4.2-.43-5.927l-4.773-.07z" transform="translate(68.528 134.607)"/>
            <path fill="#161F69" d="M35.038 120.186c.493.976.77 1.64 1.024 2.41.128.388.106.754-.049.977-.833 1.2-5.27-.786-6.777-2.029-.974-.803-1.025-1.79-1.287-2.988-.395-1.799-.46-2-.955-3.845l-.321 5.065-.408.266c-.16-2.053-.467-4.765-.845-6.513-.15-.696-.393-1.488-.436-1.874-.258-2.28.835-3.443 1.854-4.121-.335 1.403.908 3.63 1.462 6.461.67 3.427 3.698 6.213 6.738 6.191" transform="translate(68.528 134.607)"/>
        </g>
        <g transform="translate(95.46 170.517)">
            <mask id="prefix__ap" fill="#fff">
                <use xlink:href="#prefix__an"/>
            </mask>
            <path fill="url(#prefix__ao)" d="M10.009 3.204C8.006 9.97 7.45 27.617 6.68 36.416 4.172 39.874 2.64 42.002 1.47 46.67-.066 52.795.952 61.62.019 70.572c.434 2.109 3.823 2.378 4.943 1.512 3.022-8.962 6.578-18.592 9.43-27.462.28-.87 4.463-9.185 4.465-9.34 4.582-13.597 5.775-19.35 6.163-26.148.407-2.066-1.182-7.436-.838-8.991L10.01 3.204z" mask="url(#prefix__ap)"/>
        </g>
        <g>
            <path fill="#1E2353" d="M24.182.143c-.344 1.555-1.37 4.435-1.777 6.5-1.277 3.13-3.968 7.414-5.785 11.013-.544 4.364-.392 10.163-3.116 18.25l-2.467 18.693c-2.029 5.854-4.16 11.804-6.075 17.484-1.12.867-4.509.598-4.944-1.51C.952 61.62-.066 52.794 1.47 46.67c1.17-4.667 2.703-6.795 5.211-10.254.771-8.799 1.326-26.446 3.329-33.212L24.182.143z" transform="translate(95.46 170.517)"/>
            <path fill="#FFA698" d="M3.78 78.975c.085.827-.296 1.663-.392 2.487-.145 1.244-.319 2.663-.271 4.401.06 2.187.26 4.771.98 7.911.252 1.1.743 1.573 1.073 3.08l6.49 1.06c-.639-2.456-1.518-7.428-2.181-11.589l-1.24-7.78-4.46.43z" transform="translate(95.46 170.517)"/>
            <path fill="#161F69" d="M3.448 81.028c-.375 1.302-.805 1.997-.86 3.775-.057 1.777.763 4.554.694 6.754l-.109 3.492c-.063 2.034.454 3.445 2.764 5.126 2.094 1.524 4.135 2.148 5.244 1.607.818-.399 1.47-1.838.218-5.636-1.044-3.164-1.312-6.256-1.925-9.688.215 3.374.296 4.501 1.11 7.805.227.923.362 2.469-.734 2.625-4.534.648-4.762-.57-5.136-1.97-1-3.736-1.73-10.385-1.266-13.89" transform="translate(95.46 170.517)"/>
        </g>
        <g transform="translate(92.468 174.407)">
            <mask id="prefix__as" fill="#fff">
                <use xlink:href="#prefix__aq"/>
            </mask>
            <path fill="url(#prefix__ar)" d="M25.132.232L4.77 1.622C-.268 7.93-.395 11.428.697 19.006c.73 5.068 2.218 11.216 2.588 20.121-.436 4.593-1.258 9.737-.632 16.873.461 5.25 1.937 14.258 3.05 20.626 1.047 1.967 5.996 1.11 6.805.097-.233-9.125-.09-15.383.347-22.752.424-7.17 1.278-13.82 1.815-20.89.445-5.85 2.22-13.808 2.456-20.128.937-2.96 9.75-12.722 8.04-12.722-.011 0-.022 0-.034.002" mask="url(#prefix__as)"/>
        </g>
        <g transform="translate(93.665 134.307)">
            <mask id="prefix__av" fill="#fff">
                <use xlink:href="#prefix__at"/>
            </mask>
            <path fill="url(#prefix__au)" d="M17.058.546C10.917 1.956 4.592 5.145 1.768 8.15c-2.053 2.187-1.97 4.614-.794 9.859.757 3.37 2.062 6.863 3.211 9.522 2.263 5.235-1.584 8.133-.199 11.738l-.427 2.442c4.128 2.964 18.895 3.185 22.597-2.692l.077-2.931c.638-1.403.218-4.95.031-5.886-.594-2.975-.317-4.555-.641-7.996-.083-.87-.246-1.418-.326-2.3 3.288-2.456 3.081-7.21 1.132-10.057-1.23-1.795-1.945-3.085-2.557-4.515-.187-1.094-.375-1.984-.57-2.587-.123-.512-.394-.994-.688-1.413-.58-.828-1.38-1.205-2.64-1.205-.777 0-1.73.144-2.916.416" mask="url(#prefix__av)"/>
        </g>
        <g transform="translate(94.563 145.679)">
            <mask id="prefix__ay" fill="#fff">
                <use xlink:href="#prefix__aw"/>
            </mask>
            <path fill="url(#prefix__ax)" d="M3.244 16.129c2.262 5.235-1.49 8.226-.106 11.832l-.427 2.41c4.128 3.214 18.895 3.062 22.597-2.816l-.079-2.557c-.002-.102-7.25 6.43-15.502 2.798-1.793-.79-3.416-4.712-1.095-12.203.22-.713 2.85-.762 6.576-3.506-2.75 1.166-7.936 2.764-8.191-4.233C6.903 4.725 6.443 2.374 4.84.2 4.065-.855-.488 4.676.206 7.329c.884 3.382 2.182 6.82 3.038 8.8" mask="url(#prefix__ay)"/>
        </g>
        <g transform="translate(92.767 156.751)">
            <mask id="prefix__aB" fill="#fff">
                <use xlink:href="#prefix__az"/>
            </mask>
            <path fill="url(#prefix__aA)" d="M10.477.758L.206 18.205c-.337.573-.145 1.317.428 1.654l13.02 7.665c.573.336 1.317.144 1.654-.428l10.27-17.448c.337-.572.145-1.315-.428-1.653L12.13.33c-.191-.112-.402-.166-.61-.166-.414 0-.819.213-1.043.594" mask="url(#prefix__aB)"/>
        </g>
        <g>
            <path fill="#9FD3FB" d="M4.984 9.191l-4.8 8.154c2.673 1.32 4.527 2.506 7.127 3.373.476.158 1.184-.1 1.703.07 2.155 2.677 1.713 2.548 7.466 3.418l3.973-6.75c-3.942-1.538-4.783-1.038-8.339-1.776-.785-1.647-3.842-4.479-7.13-6.489" transform="translate(92.767 157.649)"/>
            <path fill="#FFF" d="M19.28 4.404L12.173.221c-.54-.317-1.24-.136-1.557.404L5.729 8.927l5.145-7.266c.361-.51.99-.664 1.557-.403l6.848 3.146z" transform="translate(92.767 157.649)"/>
        </g>
        <g transform="translate(101.745 173.509)">
            <mask id="prefix__aE" fill="#fff">
                <use xlink:href="#prefix__aC"/>
            </mask>
            <path fill="url(#prefix__aD)" d="M.075 4.06c1.079.275 1.514 1.906 2.993 2.404 1.667.561 4.158 1.586 5.112 1.095.5-.258 1.089-1.267 1.687-2.212.504-.797 1.445-2.17 1.015-2.714C9.46 1.298 4.635 1.642 2.292.238 1.261 1.253-.284 2.468.074 4.06" mask="url(#prefix__aE)"/>
        </g>
        <g transform="translate(84.987 142.686)">
            <mask id="prefix__aH" fill="#fff">
                <use xlink:href="#prefix__aF"/>
            </mask>
            <path fill="url(#prefix__aG)" d="M8.43 2.159C4.738 6.692 3.07 15.096.44 22.626c-.52 1.49-.147 2.664.631 3.368.352.41.83.852 1.466 1.334 3.3 2.499 6.031 4.652 12.097 7.072.455.181.83.194 1.405.161.379.145.941.447 1.344.596-.562-.372.932-3.69 2.052-3.88-.387-.246-.79-.52-1.205-.812-.2-.473-.273-.614-.655-.9-2.93-2.186-6.564-5.701-9.9-7.549 2.29-3.602 4.663-6.67 6.17-10.353 1.647-4.022 2.24-9.247-.387-10.9-.607-.381-1.195-.552-1.761-.552-1.215 0-2.323.786-3.268 1.948" mask="url(#prefix__aH)"/>
        </g>
        <path fill="#FFA698" d="M105.074 130.492c.475 2.705.224 5.266-.614 7.89 2.214 2.05 6.152 1.18 7.067-.678-.194-1.202-.418-2.306-.549-3.54l-5.904-3.672z"/>
        <g transform="translate(105.037 130.417)">
            <mask id="prefix__aK" fill="#fff">
                <use xlink:href="#prefix__aI"/>
            </mask>
            <path fill="url(#prefix__aJ)" d="M.235 3.893c.65 2.625 5.56 4.397 6.072 2.31-.14-.807-.275-1.6-.365-2.455L.037.075c.228 1.298.289 2.563.198 3.818" mask="url(#prefix__aK)"/>
        </g>
        <path fill="#FFA698" d="M114.22 119.048c1.104 1.754 1.693 3.513 1.437 6.007-.065.634.027 1.032.206 1.436 1.033 2.33.94 3.053.429 4.92-.498 1.816-.464 2.764-1.083 3.388-.636.64-1.587.788-2.394.838-1.652.105-4.49-.985-6.139-1.887-1.223-.669-1.176-1.126-1.692-2.285-1.726-1.501-.608-2.597-.03-2.71 1.659-.321 1.927 1.59 2.91 2.012-.163-3.357 6.234-9.023 6.356-11.72"/>
        <g transform="translate(109.525 120.243)">
            <mask id="prefix__aN" fill="#fff">
                <use xlink:href="#prefix__aL"/>
            </mask>
            <path fill="url(#prefix__aM)" d="M1.462 6.434C.908 6.904-.006 7.813.333 8.626c.409.983 2.388 1.62 2.51 2.586.17 1.36.849 2.176 1.538 2.483.748.331 1.535.033 1.93-.558.116-.514.232-1.154.455-1.969.511-1.867.604-2.59-.428-4.92-.18-.404-.271-.802-.206-1.435.19-1.863-.09-3.316-.704-4.663-.818 2.414-2.027 4.643-3.966 6.284" mask="url(#prefix__aN)"/>
        </g>
        <path fill="#FF8F7F" d="M114.22 119.048c-.928 4.122-6.311 7.242-6.356 11.72 1.472-4.654 6.694-7.838 6.356-11.72"/>
        <g transform="translate(117.904 138.796)">
            <mask id="prefix__aQ" fill="#fff">
                <use xlink:href="#prefix__aO"/>
            </mask>
            <path fill="url(#prefix__aP)" d="M1.348.997c.067.514.123 1.048.067 1.57-.315.566-.477 1.175-.512 1.89C.77 7.103-.257 13.345.558 17.79c1.021 5.571 7.131 8.187 7.713-.057.274-3.878-1.154-12.262-1.54-14.148-.112-.555-.492-.965-.517-1.5-.018-.374-.022-1.16-.016-1.513C5.744.348 5.137.261 4.506.261 3.08.26 1.53.704 1.348.997" mask="url(#prefix__aQ)"/>
        </g>
        <g>
            <path fill="#FF8B7B" d="M10.58.29c-.255 1.204-1.168.974-2.64 1.41.676 1.748 1.803 2.292 1.868 5.239.012.52-1.398.342-2.816.339-1.423-.003-3.334.29-3.549-.063-.47-.768-.527-1.186-.826-1.517-1.294-1.44-.355-3.07.294-3.829.547-.637 1.596-1.02 2.57-1.308C6.32.313 7.996.22 8.594.182c.383-.023 1.56.199 1.988.107" transform="translate(117.306 132.213)"/>
            <path fill="#303A7D" d="M13.09 1.774l.169.268c.087.14.08.339-.041.56l-1.939 3.556c-.238.437-.838.806-1.334.816l-9.123.198C.644 7.183.45 7.15.354 7.025c-.158-.26-.11-.182-.206-.337C-.27 6.01 12.27 1.96 13.09 1.774" transform="translate(117.306 132.213)"/>
        </g>
        <g transform="translate(117.306 133.709)">
            <mask id="prefix__aT" fill="#fff">
                <use xlink:href="#prefix__aR"/>
            </mask>
            <path fill="url(#prefix__aS)" d="M12.58.056L3.458.254c-.497.01-1.095.376-1.335.816L.185 4.626c-.24.44-.03.787.466.776l9.123-.198c.498-.01 1.095-.376 1.335-.815L13.047.833c.236-.434.038-.777-.444-.777h-.023" mask="url(#prefix__aT)"/>
        </g>
        <g>
            <path fill="#303A7D" d="M8.955.245c.033 0 .048.023.032.052l-.913 1.7c-.015.03-.055.054-.089.055l-.116.003c-.033 0-.047-.022-.032-.051L8.75.302c.016-.029.056-.053.089-.054l.116-.003zM7.169 3.313c.043-.08.151-.145.24-.147.09-.002.129.06.086.14-.044.08-.152.145-.242.148-.09.001-.128-.061-.084-.14" transform="translate(120.598 134.906)"/>
            <path fill="#FF8B7B" d="M6.154 4.57l-.517-.705c-.018-.307.877-.69.62-1.09-.417-.648-4.302-.217-5.025-.18C-.243 2.67-.055 4.353.592 4.61c.986.39 4.493-.017 5.562-.039" transform="translate(120.598 134.906)"/>
        </g>
    </g>
</svg>
