<svg xmlns="http://www.w3.org/2000/svg" xmlns:xlink="http://www.w3.org/1999/xlink" width="42" height="30" viewBox="0 0 42 30">
    <defs>
        <path id="prefix__a" d="M0.292 0.022L9.707 0.022 9.707 24 0.292 24z"/>
        <path id="prefix__c" d="M0.019 0.293L18.6 0.293 18.6 22.393 0.019 22.393z"/>
        <path id="prefix__e" d="M0.023 0.272L17.687 0.272 17.687 9 0.023 9z"/>
        <path id="prefix__g" d="M0.068 0.236L11.663 0.236 11.663 9.104 0.068 9.104z"/>
    </defs>
    <g fill="none" fill-rule="evenodd">
        <path fill="#5D77FF" d="M14.998 6.075a2.568 2.568 0 114.842 1.19 13.75 13.75 0 011.727.248 4.23 4.23 0 00.254-1.438 4.256 4.256 0 10-8.511 0c0 .773.209 1.495.57 2.12.432-.184.987-.387 1.65-.56a2.555 2.555 0 01-.532-1.56"/>
        <g transform="translate(3.3 6.064)">
            <mask id="prefix__b" fill="#fff">
                <use xlink:href="#prefix__a"/>
            </mask>
            <path fill="#344154" d="M7.691 24H6.128a2.726 2.726 0 01-2.567-1.828c-.235-.67-.272-1.324-.305-1.902-.021-.364-.04-.708-.106-1.022-.349-1.674-.934-3.169-1.74-4.443C.637 13.58.292 12.062.292 9.879c0-4.569 4.33-8.59 8.516-9.838a.45.45 0 11.257.862C4.137 2.373 1.192 6.621 1.192 9.88c0 2.003.302 3.374.98 4.445.863 1.366 1.488 2.96 1.86 4.74.078.38.1.774.122 1.155.031.543.064 1.105.256 1.656A1.825 1.825 0 006.128 23.1h1.563c.356 0 .682-.164.896-.45.21-.281.273-.634.173-.969-.378-1.273-.5-3.066-.393-5.815a.44.44 0 01.467-.432.45.45 0 01.432.467c-.103 2.645.008 4.35.357 5.524a1.98 1.98 0 01-.315 1.763A2 2 0 017.691 24" mask="url(#prefix__b)"/>
        </g>
        <g transform="translate(22.8 4.264)">
            <mask id="prefix__d" fill="#fff">
                <use xlink:href="#prefix__c"/>
            </mask>
            <path fill="#344154" d="M5.778 22.393l-.155-.887c10.85-1.9 12.06-6.951 12.077-9.034a.351.351 0 00-.35-.343h-1.158l-.098-.316c-1.332-4.275-6.18-6.508-6.23-6.53l-.294-.134.032-.322c.13-1.274.965-2.735 1.535-3.604-2.145.287-3.564.813-4.713 1.74l-.214.173-.25-.11c-.793-.35-3.563-1.5-5.941-1.62L.064.508c2.29.114 4.815 1.076 6.011 1.587 1.29-.968 2.863-1.51 5.19-1.796a.785.785 0 01.77.374.782.782 0 01-.02.856c-.471.695-1.25 1.968-1.47 3.084 1.123.574 4.938 2.76 6.303 6.616h.502a1.247 1.247 0 011.25 1.25c-.018 2.309-1.305 7.896-12.822 9.914" mask="url(#prefix__d)"/>
        </g>
        <g transform="translate(11.7 21.064)">
            <mask id="prefix__f" fill="#fff">
                <use xlink:href="#prefix__e"/>
            </mask>
            <path fill="#344154" d="M15.653 9h-2.006a2.037 2.037 0 01-1.906-1.323 20.276 20.276 0 01-.23-.658 1.098 1.098 0 00-1.093-.758c-.81.036-1.656.058-2.517.066-.037 0-4.413.024-7.579-1.1a.45.45 0 01.302-.848c2.998 1.065 7.221 1.047 7.268 1.048a71.14 71.14 0 002.486-.064c.89-.041 1.709.525 1.988 1.374.065.197.138.41.219.629.162.439.589.734 1.062.734h2.006c.362 0 .694-.167.91-.458a1.13 1.13 0 00.172-1.013c-.248-.81-.754-3.889-.658-5.927a.442.442 0 01.47-.429.45.45 0 01.428.47c-.09 1.91.393 4.88.62 5.623a2.024 2.024 0 01-.31 1.812A2.012 2.012 0 0115.654 9" mask="url(#prefix__f)"/>
        </g>
        <path fill="#344154" d="M34.506 13.859a.033.033 0 00-.033.032c0 .036.065.037.065 0a.032.032 0 00-.032-.032m0 .965a.934.934 0 010-1.865.934.934 0 010 1.865M34.148 16.575a2.33 2.33 0 01-2.327-2.326.45.45 0 01.9 0c0 .786.64 1.426 1.427 1.426a.45.45 0 010 .9M38.82 18.839a.451.451 0 01-.402-.651c.523-1.046.457-2.205.456-2.217a.45.45 0 11.899-.056c.003.057.08 1.415-.55 2.675a.45.45 0 01-.402.249M11.473 9.96a.45.45 0 01-.245-.828c.22-.142 5.474-3.478 13.024-1.26a.45.45 0 11-.254.864c-7.156-2.103-12.23 1.118-12.28 1.151a.448.448 0 01-.245.073"/>
        <g transform="translate(11.7 .064)">
            <mask id="prefix__h" fill="#fff">
                <use xlink:href="#prefix__g"/>
            </mask>
            <path fill="#344154" d="M1.203 9.104a.45.45 0 01-.392-.23A5.799 5.799 0 015.866.237a5.804 5.804 0 015.485 7.679.45.45 0 11-.851-.292 4.903 4.903 0 00-4.634-6.487 4.903 4.903 0 00-4.271 7.297.45.45 0 01-.392.671" mask="url(#prefix__h)"/>
        </g>
        <path fill="#344154" d="M27.476 9.075a.45.45 0 01-.386-.68c.619-1.043 1.519-1.826 1.557-1.858a.45.45 0 01.588.681c-.008.007-.83.724-1.372 1.637a.45.45 0 01-.387.22M2.44 16.227a2.556 2.556 0 01-1.657-.606 2.17 2.17 0 01-.771-1.427c-.06-.564.11-1.116.48-1.554.319-.377.75-.602 1.213-.632.453-.028.899.132 1.253.455.279.255.448.625.462 1.016.014.377-.114.738-.353.992a.45.45 0 11-.655-.617.48.48 0 00.11-.341.55.55 0 00-.17-.385.806.806 0 00-.59-.222.84.84 0 00-.582.314c-.438.519-.359 1.255.184 1.713.704.595 1.76.506 2.355-.198a.45.45 0 11.687.58 2.567 2.567 0 01-1.966.912"/>
    </g>
</svg>
