<svg xmlns="http://www.w3.org/2000/svg" xmlns:xlink="http://www.w3.org/1999/xlink" width="447" height="384" viewBox="0 0 447 384">
    <defs>
        <path id="prefix__a" d="M.268 5.467V92.24c0 4.841 2.583 9.315 6.776 11.736l90.423 52.205c.278.161.55.33.815.508l34.823 20.105c5.151 2.974 11.59-.743 11.59-6.691V85.76c0-3.747-2-7.209-5.244-9.082L88.414 47.213c-.193-.13-.392-.253-.596-.371L8.212.88C7.359.389 6.453.164 5.572.164 2.806.164.268 2.376.268 5.467"/>
        <path id="prefix__c" d="M.042 52.269c0 3.497 1.84 6.74 4.827 8.507l24.779 14.658c6.242 3.693 13.932 3.739 20.174.122l17.796-10.311c2.936-1.701 4.784-4.83 4.883-8.265l1.507-52.167L40.654 24.14.042.116v52.153z"/>
        <path id="prefix__e" d="M0.012 32.408L0.012 63.546 44.651 77.791 44.651 78.002 44.989 77.899 45.496 78.061 45.496 77.743 89.196 64.312 89.935 32.588 89.936 18.967 54.451 0.014z"/>
        <path id="prefix__g" d="M0.147 11.997L0.147 39.218 20.921 51.671 20.921 51.856 21.079 51.765 21.314 51.907 21.314 51.629 41.651 39.888 41.651 11.964 41.681 11.947 21.081 0.053z"/>
        <path id="prefix__i" d="M0.193 12.108L0.193 39.329 20.967 51.782 20.967 51.967 21.125 51.876 21.36 52.018 21.36 51.74 41.697 39.999 41.697 12.075 41.727 12.058 21.127 0.164z"/>
        <path id="prefix__k" d="M0.313 12.011L0.313 39.232 21.087 51.685 21.087 51.87 21.244 51.78 21.48 51.921 21.48 51.643 41.817 39.902 41.817 11.979 41.847 11.961 21.246 0.067z"/>
        <path id="prefix__m" d="M0.214 8.413L0.214 27.345 10.601 36.007 10.601 36.136 10.679 36.072 10.798 36.171 10.798 35.978 20.966 27.811 20.966 8.39 20.981 8.378 10.681 0.105z"/>
        <path id="prefix__o" d="M0.284 12.235L0.301 82.476 21.085 70.508 21.085 26.472 21.085 0.266z"/>
        <path id="prefix__r" d="M0.316 0.286L144.742 0.286 144.742 211.251 0.316 211.251z"/>
        <path id="prefix__t" d="M.334 2.743v5.716l66.408 34.383V4.82C63.13.704 59.883 2.555 55.407 4.405c-4.301 1.779-9.738 3.558-17.722.041-5.226-2.3-9.326-1.1-12.56.101-2.338.868-4.224 1.735-5.754 1.282-6.186-1.833-3.475-1.682-8.633-4.32C8.922.581 7.33.242 5.973.242c-3.685 0-5.639 2.5-5.639 2.5"/>
        <path id="prefix__v" d="M4.213.778L.054 26.48c-.091.567.267 1.276.802 1.584L40.22 50.791c.533.308 1.04.1 1.132-.468l4.159-25.702c.092-.566-.267-1.275-.801-1.583L5.345.31C5.178.214 5.014.168 4.864.168c-.33 0-.588.22-.651.61"/>
        <path id="prefix__x" d="M0.329 8.432L0.896 39.265 28.595 75.183 32.265 75.183 54.863 42.33 55.039 28.06 32.752 0.028z"/>
        <path id="prefix__z" d="M.29 14.311l.702 11.733s12.785-5.43 9.24-22.72C9.768 1.07 9.088.17 8.298.169 5.166.168.29 14.311.29 14.311"/>
        <path id="prefix__C" d="M0.025 8.007L22.727 21.697 22.727 12.805 0.025 0.021z"/>
        <path id="prefix__F" d="M18.628.846c.548 1.91-.443 3.932-2.984 5.4C12.17 8.25 6.899 8.585 2.79 7.258L.068 9.873c6.15 2.04 14.106 1.557 19.331-1.46 3.83-2.21 5.298-5.268 4.423-8.142l-5.194.575z"/>
        <linearGradient id="prefix__p" x1=".001%" x2="100%" y1="50%" y2="50%">
            <stop offset="0%" stop-color="#CC5911"/>
            <stop offset="100%" stop-color="#EB904D"/>
        </linearGradient>
        <linearGradient id="prefix__A" x1="-.001%" x2="99.999%" y1="50%" y2="50%">
            <stop offset="0%" stop-color="#CC5911"/>
            <stop offset="100%" stop-color="#EB904D"/>
        </linearGradient>
        <linearGradient id="prefix__D" x1="0%" x2="100.001%" y1="50%" y2="50%">
            <stop offset="0%" stop-color="#CC5911"/>
            <stop offset="100%" stop-color="#EB904D"/>
        </linearGradient>
        <linearGradient id="prefix__G" x1="0%" x2="100%" y1="49.999%" y2="49.999%">
            <stop offset="0%" stop-color="#CC5911"/>
            <stop offset="100%" stop-color="#EB904D"/>
        </linearGradient>
    </defs>
    <g fill="none" fill-rule="evenodd">
        <path fill="#FFF" d="M105.367 170.81l15.961-9.252 7.407-4.294.182 26.729-23.368 13.547-.182-26.73zm-24.381 14.136l15.755-9.134 7.612-4.413.182 26.729-23.367 13.547-.182-26.73zM56.604 199.08l5.078-2.944 18.29-10.603.182 26.73-23.368 13.547-.182-26.73zm-.38-55.802l15.873-9.202 7.495-4.345.182 26.73-15.756 9.134-7.612 4.413-.182-26.73zm23.178-41.448l.091 13.365.091 13.364-15.872 9.202-7.496 4.345-.182-26.729 23.368-13.547zm24.382-14.135l.182 26.73-23.368 13.546-.09-13.364-.092-13.365 23.368-13.547zm24.563 12.595l-15.96 9.253-7.407 4.293-.182-26.729 23.367-13.547.182 26.73zm24.382-14.135l-15.756 9.134-7.612 4.413-.182-26.73 23.368-13.547.182 26.73zm-22.988 69.35l-.182-26.73 23.368-13.547.182 26.73-23.368 13.546zm.008 1.171l23.368-13.547.181 26.73-23.367 13.546-.182-26.729zm-24.39 12.963l-.182-26.73 15.756-9.133 7.612-4.413.182 26.73-15.96 9.252-7.408 4.294zm-24.381 14.135l-.182-26.73 23.368-13.547.181 26.73-15.755 9.134-7.612 4.413zm47.377-82.312l.182 26.729-15.756 9.134-7.611 4.413-.182-26.73 15.96-9.252 7.407-4.294zm24.382-14.135l.182 26.729-23.368 13.547-.182-26.729 15.756-9.134 7.612-4.413zm-72.13 41.816l23.367-13.547.182 26.73-23.368 13.547-.182-26.73zm-12.509 35.263l11.684-6.774.182 26.73-23.368 13.547-.182-26.73 11.684-6.773zm61.84 20.171l24.382-14.135-.002-.295-.087-12.852-.108-15.925-.184-27.025-.196-28.777-.19-27.902-25.395 14.723-24.382 14.134-24.382 14.135-24.381 14.135.198 29.073.182 26.73.197 29.072.19 27.902 25.396-14.723 24.381-14.135 24.382-14.135z" transform="translate(1)"/>
        <g transform="translate(1) translate(246.692 111.65)">
            <mask id="prefix__b" fill="#fff">
                <use xlink:href="#prefix__a"/>
            </mask>
            <path d="M.268 5.467V92.24c0 4.841 2.583 9.315 6.776 11.736l90.423 52.205c.278.161.55.33.815.508l34.823 20.105c5.151 2.974 11.59-.743 11.59-6.691V85.76c0-3.747-2-7.209-5.244-9.082L88.414 47.213c-.193-.13-.392-.253-.596-.371L8.212.88C7.359.389 6.453.164 5.572.164 2.806.164.268 2.376.268 5.467" mask="url(#prefix__b)"/>
        </g>
        <g transform="translate(1) translate(123.89 294.948)">
            <mask id="prefix__d" fill="#fff">
                <use xlink:href="#prefix__c"/>
            </mask>
            <path d="M.042 52.269c0 3.497 1.84 6.74 4.827 8.507l24.779 14.658c6.242 3.693 13.932 3.739 20.174.122l17.796-10.311c2.936-1.701 4.784-4.83 4.883-8.265l1.507-52.167L40.654 24.14.042.116v52.153z" mask="url(#prefix__d)"/>
        </g>
        <g transform="translate(1) translate(217.712 296.397)">
            <mask id="prefix__f" fill="#fff">
                <use xlink:href="#prefix__e"/>
            </mask>
            <path d="M0.012 32.408L0.012 63.546 44.651 77.791 44.651 78.002 44.989 77.899 45.496 78.061 45.496 77.743 89.196 64.312 89.935 32.588 89.936 18.967 54.451 0.014z" mask="url(#prefix__f)"/>
        </g>
        <g transform="translate(1) translate(130.048 169.61)">
            <mask id="prefix__h" fill="#fff">
                <use xlink:href="#prefix__g"/>
            </mask>
            <path d="M0.147 11.997L0.147 39.218 20.921 51.671 20.921 51.856 21.079 51.765 21.314 51.907 21.314 51.629 41.651 39.888 41.651 11.964 41.681 11.947 21.081 0.053z" mask="url(#prefix__h)"/>
        </g>
        <g transform="translate(1) translate(103.603 181.563)">
            <mask id="prefix__j" fill="#fff">
                <use xlink:href="#prefix__i"/>
            </mask>
            <path d="M0.193 12.108L0.193 39.329 20.967 51.782 20.967 51.967 21.125 51.876 21.36 52.018 21.36 51.74 41.697 39.999 41.697 12.075 41.727 12.058 21.127 0.164z" mask="url(#prefix__j)"/>
        </g>
        <g transform="translate(1) translate(75.71 194.242)">
            <mask id="prefix__l" fill="#fff">
                <use xlink:href="#prefix__k"/>
            </mask>
            <path d="M0.313 12.011L0.313 39.232 21.087 51.685 21.087 51.87 21.244 51.78 21.48 51.921 21.48 51.643 41.817 39.902 41.817 11.979 41.847 11.961 21.246 0.067z" mask="url(#prefix__l)"/>
        </g>
        <g transform="translate(1) translate(26.806 246.044)">
            <mask id="prefix__n" fill="#fff">
                <use xlink:href="#prefix__m"/>
            </mask>
            <path d="M0.214 8.413L0.214 27.345 10.601 36.007 10.601 36.136 10.679 36.072 10.798 36.171 10.798 35.978 20.966 27.811 20.966 8.39 20.981 8.378 10.681 0.105z" mask="url(#prefix__n)"/>
        </g>
        <g>
            <path fill="#A8C4E5" d="M.138 103.382l42.755-14.88 27.174-45.29c1.449-.837 3.661-.929 4.916-.204l42.183 24.354c1.254.724 1.096 2.002-.353 2.838L20.02 127.298c-1.45.837-18.628-23.191-19.883-23.916" transform="translate(1) translate(78.246 104.042)"/>
            <path fill="#FFBA82" d="M72.735 24.189L93.535 12.221 72.87 0.29 51.934 12.221z" transform="translate(1) translate(78.246 104.042)"/>
        </g>
        <g transform="translate(1) translate(150.696 115.996)">
            <mask id="prefix__q" fill="#fff">
                <use xlink:href="#prefix__o"/>
            </mask>
            <path fill="url(#prefix__p)" d="M0.284 12.235L0.301 82.476 21.085 70.508 21.085 26.472 21.085 0.266z" mask="url(#prefix__q)"/>
        </g>
        <g>
            <path fill="#FFAF6F" d="M150.981 128.155L150.997 198.396 130.18 186.427 130.18 116.186z" transform="translate(1) translate(0 .076)"/>
            <path fill="#5F6CCF" d="M124.577 170.858L145.229 158.852 124.628 146.959 103.898 158.927z" transform="translate(1) translate(0 .076)"/>
            <path fill="#3B2AD1" d="M124.577 214.893L145.121 202.925 145.121 158.89 124.577 170.858z" transform="translate(1) translate(0 .076)"/>
            <path fill="#4852DB" d="M124.577 214.893L104.032 202.925 104.032 158.89 124.577 170.858z" transform="translate(1) translate(0 .076)"/>
            <path fill="#FFF" d="M96.82 204.014L117.55 192.046 96.95 180.152 76.016 192.096z" transform="translate(1) translate(0 .076)"/>
            <path fill="#DBEFFF" d="M97.183 232.006L76.016 219.317 76.016 192.096 97.183 204.064z" transform="translate(1) translate(0 .076)"/>
            <path fill="#BAD4F5" d="M96.79 231.956L96.79 204.014 117.52 192.045 117.52 219.987z" transform="translate(1) translate(0 .076)"/>
            <path fill="#2C1F9C" d="M178.422 124.207L159.29 161.624 133.077 193.172 109.163 210.372 95.504 231 98.339 232.718 111.845 212.951 134.849 196.774 162.233 163.647 180.549 126.966z" transform="translate(1) translate(0 .076)"/>
            <path fill="#2C1F9C" d="M174.191 125.752L182.147 121.2 181.687 131.133z" transform="translate(1) translate(0 .076)"/>
            <path stroke="#FFF" stroke-linecap="round" stroke-linejoin="round" stroke-width=".604" d="M187.38 284.199L223.965 263.235 254.978 281.112 283.944 263.739M122.631 361.346L160.887 383.399 234.032 342.585M58.917 267.234L89.931 285.112 42.35 312.862" transform="translate(1) translate(0 .076)"/>
            <path fill="#A8C4E5" d="M174.285 331.449l-42.183-24.354c-1.255-.725-1.096-2.003.353-2.839l41.185-23.778c1.45-.837 3.662-.929 4.917-.204l42.182 24.354c1.255.725 1.096 2.002-.353 2.839l-41.185 23.778c-1.449.836-3.661.928-4.916.204M379.706 218.883l-58.308-33.664c-1.734-1.001-1.515-2.767.488-3.924l56.929-32.867c2.002-1.157 5.06-1.283 6.795-.282l58.308 33.664c1.734 1.001 1.515 2.767-.488 3.924L386.502 218.6c-2.003 1.157-5.061 1.283-6.796.282" transform="translate(1) translate(0 .076)"/>
            <path stroke="#FFF" stroke-linecap="round" stroke-linejoin="round" stroke-width=".604" d="M225.563 230.079l-35.124-20.28c-1.045-.603-.912-1.666.294-2.363l34.293-19.799c1.207-.697 3.049-.773 4.093-.17l35.124 20.28c1.045.603.913 1.666-.294 2.363l-34.292 19.799c-1.207.697-3.05.773-4.094.17zM298.582 271.826l-35.124-20.279c-1.045-.603-.913-1.667.294-2.363l34.293-19.8c1.206-.696 3.048-.772 4.093-.169l35.124 20.279c1.045.603.913 1.666-.294 2.363l-34.293 19.8c-1.206.696-3.048.772-4.093.169zM36.053 277.079L.929 256.8c-1.045-.603-.913-1.667.294-2.363l34.293-19.8c1.206-.696 3.049-.772 4.094-.169l35.123 20.279c1.045.603.913 1.667-.293 2.363l-34.293 19.8c-1.207.696-3.05.772-4.094.169z" transform="translate(1) translate(0 .076)"/>
            <path fill="#76A9FA" d="M102.002 370.616L66.88 350.337c-1.045-.603-.913-1.667.293-2.363l34.294-19.8c1.206-.696 3.048-.772 4.093-.169l35.124 20.279c1.045.603.913 1.667-.294 2.364l-34.293 19.798c-1.207.697-3.049.773-4.094.17" transform="translate(1) translate(0 .076)"/>
            <path stroke="#FFF" stroke-linecap="round" stroke-linejoin="round" stroke-width=".604" d="M102.002 370.616L66.88 350.337c-1.045-.603-.913-1.667.293-2.363l34.294-19.8c1.206-.696 3.048-.772 4.093-.169l35.124 20.279c1.045.603.913 1.667-.294 2.364l-34.293 19.798c-1.207.697-3.049.773-4.094.17z" transform="translate(1) translate(0 .076)"/>
            <g transform="translate(1) translate(0 .076) translate(257.197)">
                <mask id="prefix__s" fill="#fff">
                    <use xlink:href="#prefix__r"/>
                </mask>
                <path fill="#BAD4F5" d="M139.499 76.802L88.462 47.335c-.194-.13-.393-.253-.596-.371L8.259 1.003C4.73-1.035.316 1.513.316 5.589V125.651c0 4.84 2.582 9.315 6.775 11.735l90.423 52.206c.279.16.55.33.815.508l34.823 20.105c5.151 2.974 11.59-.744 11.59-6.692V85.882c0-3.745-1.999-7.207-5.243-9.08" mask="url(#prefix__s)"/>
            </g>
            <path fill="#4432DB" d="M344.159 165.555c.278.16.55.33.815.508l34.823 20.105c5.151 2.974 11.59-.743 11.59-6.691V95.136c0-3.747-1.999-7.209-5.244-9.082l-51.036-29.466c-.194-.13-.393-.253-.597-.372l-79.606-45.96c-3.53-2.038-7.943.51-7.943 4.586v86.772c0 4.841 2.583 9.315 6.775 11.735l90.423 52.206z" transform="translate(1) translate(0 .076)"/>
            <path fill="#4432DB" d="M344.159 199.153c.278.16.55.33.815.508l34.823 20.105c5.151 2.974 11.59-.743 11.59-6.691v-84.341c0-3.747-1.999-7.209-5.244-9.082l-51.036-29.466c-.194-.13-.393-.253-.597-.371l-79.606-45.961c-3.53-2.038-7.943.51-7.943 4.586v86.772c0 4.841 2.583 9.315 6.775 11.736l90.423 52.205z" transform="translate(1) translate(0 .076)"/>
            <path fill="#2C1F9C" d="M334.63 79.381c.33.19.653.392.967.602l55.79 32.21V95.055c0-3.746-1.999-7.208-5.244-9.081l-51.036-29.466c-.194-.13-.393-.254-.597-.372l-79.606-45.96c-3.53-2.039-7.944.509-7.944 4.585v14.005l87.67 50.616z" transform="translate(1) translate(0 .076)"/>
            <path fill="#FFF" d="M373.136 168.72l-31.492-18.182c-1.946-1.124-3.538-4.167-3.538-6.761v-30.688c0-2.594 1.592-3.799 3.538-2.675l31.492 18.182c1.947 1.123 3.539 4.166 3.539 6.762v30.686c0 2.596-1.592 3.8-3.539 2.676" transform="translate(1) translate(0 .076)"/>
            <path fill="#4432DB" d="M369.306 146.912c0 8.063-5.696 11.31-12.723 7.254-7.026-4.057-12.722-13.881-12.722-21.944 0-8.063 5.696-11.31 12.722-7.254 7.027 4.056 12.723 13.881 12.723 21.944" transform="translate(1) translate(0 .076)"/>
            <path fill="#21DED5" d="M366.382 154.535c1.826-1.473 2.924-4.084 2.924-7.623 0-2.211-.43-4.555-1.198-6.876l-5.931-2.445-6.816 3.015v.365l11.021 13.564z" transform="translate(1) translate(0 .076)"/>
            <path fill="#FFAF6F" d="M355.361 140.606l16.426 3.047c-1.102-6.494-4.749-13.368-9.548-18.22l-6.878 15.173z" transform="translate(1) translate(0 .076)"/>
            <path fill="#21DED5" d="M262.854 26.545c0 2.05-1.448 2.875-3.233 1.844-1.786-1.031-3.234-3.528-3.234-5.577 0-2.05 1.448-2.875 3.234-1.844 1.785 1.031 3.233 3.528 3.233 5.577" transform="translate(1) translate(0 .076)"/>
            <path fill="#607FFC" d="M271.534 31.628c0 2.05-1.448 2.875-3.234 1.843-1.786-1.03-3.233-3.528-3.233-5.577s1.447-2.874 3.233-1.843c1.786 1.03 3.234 3.528 3.234 5.577" transform="translate(1) translate(0 .076)"/>
            <path fill="#FFAF6F" d="M280.213 36.71c0 2.05-1.448 2.875-3.234 1.844-1.785-1.031-3.233-3.528-3.233-5.577 0-2.05 1.448-2.875 3.233-1.844 1.786 1.031 3.234 3.528 3.234 5.577" transform="translate(1) translate(0 .076)"/>
        </g>
        <g transform="translate(1) translate(260.096 95.71)">
            <mask id="prefix__u" fill="#fff">
                <use xlink:href="#prefix__t"/>
            </mask>
            <path d="M.334 2.743v5.716l66.408 34.383V4.82C63.13.704 59.883 2.555 55.407 4.405c-4.301 1.779-9.738 3.558-17.722.041-5.226-2.3-9.326-1.1-12.56.101-2.338.868-4.224 1.735-5.754 1.282-6.186-1.833-3.475-1.682-8.633-4.32C8.922.581 7.33.242 5.973.242c-3.685 0-5.639 2.5-5.639 2.5" mask="url(#prefix__u)"/>
        </g>
        <g>
            <path stroke="#FFF" stroke-linecap="round" stroke-linejoin="round" stroke-width=".604" d="M136.54 42.361L136.54 4.375M153.081 50.488L153.081 12.503M169.621 59.092L169.621 21.107M186.161 67.687L186.161 29.702M202.701 76.87L202.701 38.885" transform="translate(1) translate(123.89 62.02)"/>
            <path fill="#FFF" d="M202.509 35.145l-2.181-1.259c-.241-.14-.439-.516-.439-.838 0-.322.198-.471.439-.332l2.18 1.26c.242.139.44.516.44.837 0 .322-.198.472-.44.332M202.327 78.787l-2.181-1.26c-.007-.004-.014-.005-.02-.009l-1.62-.935c-.242-.14-.439.01-.439.332s.197.699.439.838l2.181 1.26c.007.004.013.005.02.008l1.62.935c.241.14.438-.01.438-.331 0-.322-.197-.699-.438-.838M229.158 37.958l-3.95-2.281c-.013-.007-.024-.01-.037-.016l-2.933-1.694c-.045-.025-.087-.042-.13-.057l-2.394-1.382c-.012-.007-.024-.01-.036-.016l-2.933-1.694c-.438-.252-.795.018-.795.601s.357 1.266.795 1.518l3.95 2.281c.012.007.024.01.037.016l2.932 1.693c.045.026.088.042.13.058l2.394 1.382c.013.007.024.01.037.016l2.933 1.693c.437.253.794-.018.794-.6 0-.583-.357-1.266-.794-1.518M240.642 115.386l-3.95-2.28c-.012-.008-.024-.01-.036-.017l-2.933-1.693c-.045-.026-.088-.043-.13-.058l-2.394-1.382c-.013-.007-.024-.01-.036-.016l-2.35-1.356c-.028-.02-.057-.044-.086-.061l-3.95-2.28c-.013-.008-.024-.01-.036-.017l-2.934-1.693c-.044-.026-.087-.043-.13-.058l-2.393-1.382c-.013-.007-.024-.01-.037-.016l-2.933-1.693c-.437-.253-.795.018-.795.6 0 .583.358 1.266.795 1.518l3.95 2.281c.013.007.024.01.037.016l2.933 1.694c.044.025.087.042.13.057l2.394 1.382c.012.007.024.01.036.016l2.349 1.356c.029.021.057.045.086.062l3.95 2.28c.013.008.025.01.037.016l2.933 1.694c.044.025.087.042.13.057l2.394 1.382c.012.007.024.01.036.016l2.933 1.694c.437.252.795-.018.795-.6 0-.583-.358-1.267-.795-1.519M227.91 115.566l-3.95-2.28c-.012-.007-.023-.01-.036-.016l-2.933-1.694c-.044-.026-.087-.042-.13-.058l-2.394-1.382c-.012-.007-.023-.01-.036-.016l-2.933-1.693c-.437-.253-.795.018-.795.6 0 .583.358 1.266.795 1.519l3.95 2.28c.012.008.024.01.037.016l2.932 1.694c.045.026.088.042.13.057l2.394 1.382c.013.007.024.01.037.016l2.933 1.694c.437.252.794-.018.794-.601 0-.582-.357-1.266-.794-1.518M228.727 43.637l-3.95-2.281c-.012-.007-.024-.01-.036-.016l-2.934-1.693c-.044-.026-.087-.043-.13-.058l-2.393-1.382c-.013-.007-.024-.01-.036-.016l-2.934-1.693c-.437-.253-.794.017-.794.6s.357 1.266.794 1.518l3.95 2.281c.013.007.025.01.037.016l2.933 1.694c.044.025.087.042.13.057l2.394 1.382c.012.007.024.01.036.016l2.933 1.694c.437.252.795-.019.795-.601 0-.583-.358-1.266-.795-1.518M184.191 68.808l-2.18-1.26-.02-.008-1.62-.935c-.242-.14-.44.01-.44.331 0 .322.198.7.44.838l2.18 1.26c.008.004.014.005.02.009l1.62.935c.242.139.439-.01.439-.332s-.197-.699-.439-.838M167.252 59.609l-2.181-1.26-.02-.008-1.62-.936c-.242-.139-.439.01-.439.332s.197.7.439.838l2.181 1.26.02.009 1.62.935c.241.14.438-.01.438-.332 0-.321-.197-.699-.438-.838M151.267 51.005l-2.181-1.26-.02-.008-1.62-.935c-.242-.14-.439.01-.439.331 0 .322.197.7.439.838l2.18 1.26.021.009 1.62.935c.241.139.438-.01.438-.332s-.197-.699-.438-.838M185.722 27.127l-2.18-1.26c-.242-.139-.44-.516-.44-.838 0-.322.198-.47.44-.331l2.18 1.259c.242.14.44.516.44.838 0 .322-.198.471-.44.332M169.305 19.195l-2.18-1.26c-.242-.139-.44-.516-.44-.838 0-.321.198-.47.44-.331l2.18 1.26c.242.139.439.516.439.837 0 .322-.197.471-.439.332M152.651 11.063l-2.18-1.26c-.242-.138-.44-.515-.44-.837 0-.322.198-.47.44-.332l2.18 1.26c.241.139.439.516.439.838 0 .322-.198.47-.439.331M136.243 2.82l-2.18-1.26c-.242-.14-.44-.516-.44-.838 0-.322.198-.471.44-.332l2.18 1.26c.242.139.44.516.44.838 0 .321-.198.47-.44.331" transform="translate(1) translate(123.89 62.02)"/>
            <path fill="#FBDDD3" d="M189.117 116.477l1.981 4.78c1.359 3.277 5.946 3.425 7.512.241l6.509-13.227-2.691-.615-8.827 9.668-4.484-.847zM163.748 106.356l-4.634 18.095c-.252.946-1.836 13.998-1.836 13.998l-3.063-.61s-.286-13.844-.19-14.758l3.144-16.996 6.579.27z" transform="translate(1) translate(123.89 62.02)"/>
            <path fill="#FBDDD3" d="M155.548 136.43l.56-.047c1.03-.087 1.945.684 2.032 1.714l.18 2.114c.087 1.03-.685 1.945-1.716 2.032l-.561.047c-1.03.087-1.944-.684-2.031-1.715l-.18-2.113c-.086-1.03.686-1.945 1.716-2.032M207.475 106.147l.24.51c.44.934.036 2.06-.897 2.501l-1.918.906c-.937.442-2.063.037-2.504-.9l-.24-.508c-.44-.935-.036-2.06.898-2.502l1.918-.905c.936-.442 2.062-.038 2.503.898" transform="translate(1) translate(123.89 62.02)"/>
            <path fill="#76A9FA" d="M182.14 107.302l4.514 12.794c.64.993 9.874-3.68 9.085-5.204-.14-.27-5.054-15.724-10.34-18.218-4.292-2.026-5.63 4.798-3.259 10.628" transform="translate(1) translate(123.89 62.02)"/>
            <path stroke="#FFF" stroke-linecap="round" stroke-linejoin="round" stroke-width=".604" d="M185.387 116.505s5.094-.048 9.2-4.991" transform="translate(1) translate(123.89 62.02)"/>
            <path fill="#76A9FA" d="M167.473 104.393l-4.514 12.795c-.64.992-9.874-3.68-9.085-5.205.14-.269 5.054-15.723 10.34-18.217 4.292-2.027 5.63 4.798 3.259 10.627" transform="translate(1) translate(123.89 62.02)"/>
            <path stroke="#FFF" stroke-linecap="round" stroke-linejoin="round" stroke-width=".604" d="M164.226 113.597s-5.094-.048-9.2-4.992" transform="translate(1) translate(123.89 62.02)"/>
            <path fill="#FBDDD3" d="M176.016 96.373l-.363-.023c-1.228-.077-2.17-1.145-2.092-2.373l.436-6.923c.078-1.228 1.146-2.17 2.374-2.092l.363.023c1.228.077 2.17 1.145 2.092 2.373l.559 6.714c-.078 1.228-2.14 2.378-3.369 2.301" transform="translate(1) translate(123.89 62.02)"/>
            <path fill="#FBDDD3" d="M175.434 87.783c1.444 3.008 3.946 3.499 5.589 1.096 1.642-2.403 1.803-6.79.358-9.798-1.444-3.008-3.947-3.499-5.589-1.096-1.642 2.403-1.803 6.79-.358 9.798" transform="translate(1) translate(123.89 62.02)"/>
            <path fill="#21DED5" d="M174.952 79.544s1.158 6.08-3.598 7.818c0 0-5.717-2.755-2.135-8.96 3.157-5.47 9.138-1.935 9.138-1.935l-3.405 3.077z" transform="translate(1) translate(123.89 62.02)"/>
            <path fill="#21DED5" d="M181.932 80.547s-1.779-2.051-5.14-1.587l1.565-2.493s2.57-.649 3.575 4.08" transform="translate(1) translate(123.89 62.02)"/>
            <path fill="#21DED5" d="M172.68 83.336c1.015-1.603 3.51-1.682 7.16-.57 3.29-.043 3.466-3.824 3.466-3.824.37-2.036-1.019-2.84-3.055-3.21l-5.302-.966c-3.001-.562-5.672 2.07-6.043 4.105l-.111.339c-.371 2.036 1.849 3.755 3.885 4.126" transform="translate(1) translate(123.89 62.02)"/>
            <path fill="#A8C4E5" d="M166.622 192.375c5.428 2.89 14.663 2.983 20.626.206 5.963-2.777 6.397-7.372.968-10.262-5.428-2.89-14.663-2.983-20.626-.206-5.963 2.777-6.396 7.372-.968 10.262" transform="translate(1) translate(123.89 62.02)"/>
            <path fill="#2C1F9C" d="M191.043 186.758l-5.817 4.865c-1.474.982-2.447.307-3.68.044-.553-.117-.94-.62-.937-1.185l.005-1.222c-.053-1.762 1.565-2.797 2.69-3.334l5.948-3.28c1.125-.537 4.806 1.365 1.791 4.112M170.34 179.146l1.63 7.406c.547 3.88-5.658 4.524-5.984.32l-.12-8.035c.044-1.246 3.43-3.633 4.475.309" transform="translate(1) translate(123.89 62.02)"/>
            <path fill="#C6D2F2" d="M185.528 187.722c.015 1.8-4.364 1.836-4.379.036l-.048-5.851 4.379-.036.048 5.85zM171.125 184.14c0 1.8-4.379 1.8-4.379 0v-5.852h4.38v5.851z" transform="translate(1) translate(123.89 62.02)"/>
            <path fill="#3B2AD1" d="M171.71 182.478c-1.717 1.23-4.555 1.203-5.502-.23-1.123-21.419-4.64-35.738-4.422-54.051l13.606-4.035c-2.425 21.987-2.683 41.301-3.683 58.316" transform="translate(1) translate(123.89 62.02)"/>
            <path fill="#3B2AD1" d="M186.02 184.479c-1.386 1.936-4.519 1.948-5.443.55l-9.167-57.753h15.806l-1.196 57.203z" transform="translate(1) translate(123.89 62.02)"/>
            <path fill="#76A9FA" d="M161.24 126.699c1.134-6.215 1.515-13.254.49-21.834 0-11.879 1.639-11.898 9.602-12.379l1.854-.117c2.274-.143 4.549.301 6.598 1.297 7.032 3.42 10.44 4.218 9.014 12.657l-1.582 20.954c0 10.787-26.551 12.103-25.976-.578" transform="translate(1) translate(123.89 62.02)"/>
            <path fill="#2C1F9C" d="M182.84 109.938L186.735 126.108 187.201 127.682 187.773 119.888z" transform="translate(1) translate(123.89 62.02)"/>
            <path fill="#21DED5" d="M170.992 89.27c1.444 3.008 5.029 3.576 6.671 1.174 1.642-2.403 3.878-7.17 2.434-10.178-1.445-3.009-9.923-2.844-11.566-.442-1.642 2.403 1.016 6.438 2.46 9.446M102.662 59.426s6.097 2.56 16.993-12.13c2.206-2.973 5.052-13.543 5.052-13.543l-2.626-1.17s-3.958 9.01-7.2 11.915c-4.35 3.897-16.268 9.148-16.785 11.118-.517 1.968 4.566 3.81 4.566 3.81" transform="translate(1) translate(123.89 62.02)"/>
            <path fill="#A8C4E5" d="M92.34 152.525c5.429 2.89 14.663 2.982 20.626.205 5.963-2.777 6.397-7.371.969-10.262-5.429-2.89-14.663-2.983-20.627-.206-5.963 2.778-6.396 7.372-.968 10.263" transform="translate(1) translate(123.89 62.02)"/>
            <path fill="#2C1F9C" d="M94.677 140.49l3.42-.43c2.29-1.037 3.359-1.816 4.378-1.227l.289.167c1.02.588.89 1.626-.287 2.305l-5.028 3.996c-1.177.68-2.763.464-3.703-.36 0 0-.562-.508-.16-2.645.23-1.219.15-1.263 1.09-1.806" transform="translate(1) translate(123.89 62.02)"/>
            <path fill="#FBDDD3" d="M98.72 140.638c-.274 2.364-4.606 2.364-4.606.563l2.4-54.578 14.45-4.074-12.244 58.09z" transform="translate(1) translate(123.89 62.02)"/>
            <path fill="#2C1F9C" d="M109.14 145.705l3.388.638c2.496-.287 3.753-.701 4.544.171l.224.247c.79.873.35 1.82-.979 2.107l-6.01 2.265c-1.328.287-2.773-.403-3.415-1.475 0 0-.38-.656.657-2.567.592-1.09.529-1.157 1.591-1.386" transform="translate(1) translate(123.89 62.02)"/>
            <path fill="#FBDDD3" d="M111.906 147.152c-.755 1.91-4.064 1.492-4.008-.076 1.546-18.911-2.013-36.772-6.6-54.151l13.878-1.5c.542 20.336.36 37.763-3.27 55.727" transform="translate(1) translate(123.89 62.02)"/>
            <path fill="#2C1F9C" d="M114.317 86.503l4.827 26.488s-11.993 11.885-25.711 0l1.543-24.873 19.341-1.615z" transform="translate(1) translate(123.89 62.02)"/>
            <path fill="#FBDDD3" d="M109.712 51.224c-1.032 3.597-3.705 4.61-5.972 2.261-2.266-2.347-3.267-7.166-2.236-10.762 1.032-3.597 3.706-4.61 5.973-2.261 2.266 2.347 3.267 7.166 2.235 10.762" transform="translate(1) translate(123.89 62.02)"/>
            <path fill="#FBDDD3" d="M113.502 50.082c-1.031 3.597-4.887 4.898-7.153 2.55-2.267-2.348-3.268-7.166-2.236-10.763 1.032-3.596 3.706-4.608 5.972-2.26 2.267 2.347 4.45 6.877 3.417 10.473" transform="translate(1) translate(123.89 62.02)"/>
            <path fill="#FBDDD3" d="M104.78 60.46l-.385-.085c-1.302-.29-2.13-1.594-1.84-2.896l1.638-7.341c.29-1.302 1.593-2.13 2.896-1.84l.385.087c1.302.29 2.13 1.593 1.84 2.895l-.537 7.286c-.29 1.302-2.695 2.185-3.997 1.895" transform="translate(1) translate(123.89 62.02)"/>
            <path fill="#4432DB" d="M101.703 50.6s-.447 2.493 3.905 2.733c3.482.193 2.448-6.105 5.9-6.668 3.798-.62 4.486-5.311 2.99-7.112-1.497-1.8-5.68-2.742-8.71-1.406-3.029 1.336-9.39 2.31-4.085 12.452" transform="translate(1) translate(123.89 62.02)"/>
            <path fill="#FBDDD3" d="M111.522 48.616c-.25.874-1.163 1.38-2.037 1.129-.875-.251-1.38-1.163-1.13-2.038.251-.874 1.164-1.38 2.038-1.129.875.251 1.38 1.163 1.13 2.038" transform="translate(1) translate(123.89 62.02)"/>
            <path fill="#21DED5" d="M94.913 87.839c1.23-6.739-.092-12.064.015-19.229 0-12.88-.618-16.023 6.191-14.063l1.919.51c.921.244 1.816.591 2.663 1.028 8.977 4.625 11.373 6.051 10.98 11.416.04 8.837-4.074 10.64-1.888 18.376-1.85 6.11-17.827 6.335-19.88 1.962" transform="translate(1) translate(123.89 62.02)"/>
            <path fill="#2C1F9C" d="M109.127 53.815l-.391-.902s.696.696 2.018.526c0 0-.78.447-1.627.376M105.173 43.53c0 2.013-1.404 3.645-3.137 3.645-1.732 0-3.136-1.632-3.136-3.645 0-2.012 1.404-3.644 3.136-3.644 1.733 0 3.137 1.632 3.137 3.644" transform="translate(1) translate(123.89 62.02)"/>
            <path fill="#4432DB" d="M101.954 42.392c.15-1.867-2.396-2.687-3.395-1.103-.326.517-.617 1.241-.842 2.238-1.266 5.603-10.705 4.791-6.075 14.65 0 0-4.213 6.47 3.616 9.195 4.007 1.394 3.917-8.923 3.917-8.923s1.6-4.745 3.142-8.466c.725-1.746.795-3.733.023-5.458-.316-.707-.443-1.418-.386-2.133" transform="translate(1) translate(123.89 62.02)"/>
            <path fill="#2C1F9C" d="M102.982 54.17c-.746-.18-1.432.475-1.305 1.231.141.84.655 1.845 2.188 2.365 2.123.719 4.455.332 5.577.066.266-.064.318-.416.086-.559-1.264-.781-4.298-2.56-6.546-3.103" transform="translate(1) translate(123.89 62.02)"/>
            <path fill="#FFF" d="M134.244 42.355l-2.182-1.26-.02-.008-1.62-.935c-.24-.14-.438.01-.438.331 0 .322.197.7.438.839l2.182 1.26.02.008 1.62.935c.24.14.438-.01.438-.332 0-.321-.197-.698-.438-.838M129.373 67.924L119.144 61.997 125.164 44.393 135.393 50.32z" transform="translate(1) translate(123.89 62.02)"/>
            <path fill="#21DED5" d="M124.042 58.979L121.905 57.645 123.147 53.82 125.284 55.154z" transform="translate(1) translate(123.89 62.02)"/>
            <path fill="#4432DB" d="M126.661 60.614L124.524 59.28 125.336 56.779 127.473 58.113z" transform="translate(1) translate(123.89 62.02)"/>
            <path fill="#FFAF6F" d="M129.361 62.299L127.224 60.965 128.852 55.951 130.989 57.285z" transform="translate(1) translate(123.89 62.02)"/>
            <path fill="#9EBBDE" d="M131.738 52.928l-1.078-.69c-.003-.003-.006-.007-.01-.009l-5.27-3.38c-.172-.11-.393-.047-.49.14-.098.187-.036.43.136.541l1.078.692.01.007 5.27 3.38c.173.11.393.048.49-.14.098-.186.036-.43-.136-.54M129.926 54.092c.035-.13-.005-.25-.107-.315l-4.955-3.179c-.172-.11-.393-.047-.49.14-.098.187-.036.43.136.541l1.078.691.01.008 3.737 2.396c.193.124.525-.035.591-.282M126.15 53.768c.018-.102-.018-.193-.098-.245l-1.724-1.105c-.172-.11-.393-.048-.49.139-.098.187-.036.43.136.54l1.078.692.01.008.638.409c.137.088.374-.033.406-.208l.043-.23z" transform="translate(1) translate(123.89 62.02)"/>
            <path fill="#21DED5" d="M108.574 65.608s8.804 21.406 18.41 11.094c9.608-10.312 6.233-17.584 6.233-17.584l-1.289-.35s-3.908 12.95-8.066 11.669c-4.16-1.281-9.81-9.276-11.81-9.653-2.001-.377-3.478 4.824-3.478 4.824" transform="translate(1) translate(123.89 62.02)"/>
            <path fill="#FBDDD3" d="M122.474 33.304l.534.268c.978.49 2.18.091 2.67-.887l1.007-2.006c.49-.979.091-2.18-.887-2.672l-.534-.267c-.978-.49-2.18-.091-2.67.887l-1.007 2.006c-.49.978-.092 2.18.887 2.671M131.226 62.985l.582.13c1.069.238 2.138-.441 2.376-1.51l.489-2.19c.239-1.068-.44-2.137-1.51-2.376l-.582-.13c-1.068-.238-2.137.441-2.375 1.51l-.49 2.19c-.238 1.068.441 2.137 1.51 2.376" transform="translate(1) translate(123.89 62.02)"/>
            <path fill="#4432DB" d="M50.525 271.623l18.047-10.42c2.977-1.718 4.85-4.857 4.951-8.294l1.528-52.176-33.824 19.529h-.001L.042 196.484v52.153c0 3.498 1.866 6.73 4.895 8.479l25.128 14.507c6.33 3.655 14.13 3.655 20.46 0" transform="translate(1) translate(123.89 62.02)"/>
            <path fill="#2C1F9C" d="M73.794 243.379c-.102 3.436-2.029 6.654-5.015 8.373l-18.101 10.42c-6.35 3.654-14.172 3.655-20.522 0L4.952 247.664c-3.039-1.749-4.91-4.98-4.91-8.478v9.539c0 3.498 1.871 6.73 4.91 8.478l25.204 14.507c6.35 3.656 14.172 3.655 20.522 0l18.1-10.42c2.987-1.718 4.867-4.857 4.968-8.293l.048-9.618z" transform="translate(1) translate(123.89 62.02)"/>
            <path fill="#FFF" d="M36.684 219.053L1.33 198.64c-1.716-.99-1.716-3.467 0-4.458l29.73-17.165c3.206-1.85 7.155-1.85 10.361 0l31.96 18.452c2.784 1.608 2.784 5.627 0 7.234l-28.318 16.35c-2.592 1.496-5.786 1.496-8.378 0" transform="translate(1) translate(123.89 62.02)"/>
            <path fill="#BAD4F5" d="M36.802 216.824l-32.02-18.487c-1.554-.897-1.554-3.14 0-4.038l26.926-15.545c2.903-1.676 6.48-1.676 9.383 0l28.945 16.711c2.522 1.456 2.522 5.096 0 6.552L44.39 216.824c-2.348 1.355-5.24 1.355-7.588 0" transform="translate(1) translate(123.89 62.02)"/>
            <path fill="#2F35C2" d="M57.593 203.768l-33.49-19.335c-1.37-.792-1.523-1.98-.34-2.654l7.562-4.311c1.182-.675 4.873-1.286 6.244-.495l33.6 19.137c1.37.791.975 2.21-.208 2.884l-8.745 4.986c-1.183.674-3.252.58-4.623-.212" transform="translate(1) translate(123.89 62.02)"/>
            <path fill="#A8C4E5" d="M50.045 191.233s-.19.106-.204.122c-.007.008-.073.082-.104.11-.022.02-.097.081-.11.092-.04.03-8.44 5.196-8.44 5.196l-.004 1.382 8.311-5.109c.046-.028.088-.057.128-.087.014-.01.026-.021.038-.032.025-.02.051-.04.073-.06h.001c.03-.029.057-.057.083-.086l.02-.023.023-.027.017-.025c.017-.023.033-.047.047-.07l.017-.025.009-.02c.012-.021.021-.042.03-.064l.015-.03.004-.017c.008-.02.013-.041.018-.062.003-.011.008-.023.01-.035 0-.004 0-.008.002-.013.004-.022.005-.045.007-.067.001-.012.004-.024.004-.036v-.018l.005-.996zM41.152 196.772c-.055.033-.114.063-.175.091l-.056.025c-.067.029-.136.056-.207.08-.004 0-.008.002-.012.004-.06.019-.12.036-.183.052l-.027.006c-.053.013-.107.025-.162.034l-.021.004c-.07.012-.142.022-.214.03l-.08.007c-.042.004-.084.007-.126.008l-.09.004h-.108c-.032 0-.063 0-.095-.002-.033 0-.067-.003-.1-.005l-.097-.008-.099-.01-.094-.013-.105-.019c-.03-.005-.058-.01-.087-.017-.043-.009-.084-.02-.126-.03l-.07-.02c-.074-.02-.147-.045-.217-.072l-.103-.044c-.017-.007-.035-.014-.052-.023-.051-.024-.102-.05-.15-.078l-6.442-3.718c-.397-.23-.595-.111-.595-.412l-.003.962c-.001.3.197.602.595.832l6.441 3.719c.048.027.098.053.15.078l.052.022.09.04.013.004c.07.027.143.052.217.073l.014.005.056.014c.042.01.083.021.126.03l.028.007.059.01.105.019.036.006.058.007c.033.004.066.008.1.01l.038.005.058.003.1.005.04.003h.055l.109-.001h.044l.045-.003.126-.009c.017-.001.034-.001.05-.003l.03-.004c.072-.008.144-.018.214-.03l.017-.002.004-.001c.055-.01.109-.022.162-.035l.027-.006c.063-.015.124-.033.184-.052h.002l.009-.004c.071-.023.14-.05.207-.08l.056-.025c.06-.028.12-.058.175-.09.007-.005.015-.007.021-.011l.014-.009.004-1.382-.035.02" transform="translate(1) translate(123.89 62.02)"/>
            <path fill="#F5F9FF" d="M49.45 190.46c.774.447.795 1.169.048 1.628l-8.311 5.11c-.778.477-2.085.488-2.891.022l-6.441-3.718c-.806-.466-.792-1.223.03-1.675l8.794-4.831c.79-.434 2.037-.424 2.81.023l5.96 3.441z" transform="translate(1) translate(123.89 62.02)"/>
            <path fill="#659ADB" d="M35.306 189.942L44.383 195.232 46.524 193.949 37.571 188.74z" transform="translate(1) translate(123.89 62.02)"/>
            <path fill="#45446C" d="M44.383 195.232L44.383 196.168 47.087 194.505 47.087 193.645z" transform="translate(1) translate(123.89 62.02)"/>
            <path fill="#659ADB" d="M68.722 176.29v-.004-.044l-.003-.043v-.007-.006l-.003-.03-.005-.043c0-.007-.002-.014-.003-.02l-.001-.01-.002-.013-.007-.044-.009-.04v-.002l-.01-.045-.011-.042-.004-.012c0-.003-.002-.005-.003-.008-.001-.008-.004-.016-.006-.023l-.013-.041-.011-.031-.002-.005-.001-.004-.015-.04-.015-.036-.006-.016-.003-.007-.007-.014c-.005-.013-.01-.025-.017-.038l-.018-.038-.002-.003-.003-.006-.02-.04-.021-.037-.014-.024-.006-.011-.037-.058-.012-.02-.002-.002-.05-.071-.007-.01-.007-.009-.018-.024-.031-.038-.012-.014-.007-.008-.012-.013-.031-.036-.024-.025-.005-.005-.004-.004-.035-.034-.036-.034-.001-.001h-.001l-.036-.033-.04-.031c0-.002-.002-.003-.004-.004l-.006-.004-.028-.022c-.013-.01-.026-.02-.04-.028l-.011-.007-.004-.003-.024-.016-.04-.025-.217-.124-1.186.642.297.172.04.027.039.027.039.03.016.014c.02.016.041.033.06.051h.001l.059.056.007.007.054.057.008.01c.017.018.033.038.05.058l.008.01.047.061.023.033.027.04.03.047.02.03.015.028.027.05.007.013.035.07.002.005c.012.024.022.05.033.074l.002.008c.01.024.02.048.028.073l.004.01.023.072c0 .004.002.007.003.011l.02.073.002.011c.006.024.01.049.015.073l.002.01c.004.025.008.05.01.075l.002.01.006.073.002.037v.089l-.004.045c-.001.017-.002.033-.005.049l-.005.038-.01.067-4.1 25.333c-.02.12-.486.891-.38.83l1.12-.95c.238-.201.395-.48.445-.787l4.022-24.858.048-.301.006-.038.003-.031v-.002-.005l.002-.01.003-.045v-.037-.005" transform="translate(1) translate(123.89 62.02)"/>
        </g>
        <g transform="translate(1) translate(145.987 214.528)">
            <mask id="prefix__w" fill="#fff">
                <use xlink:href="#prefix__v"/>
            </mask>
            <path d="M4.213.778L.054 26.48c-.091.567.267 1.276.802 1.584L40.22 50.791c.533.308 1.04.1 1.132-.468l4.159-25.702c.092-.566-.267-1.275-.801-1.583L5.345.31C5.178.214 5.014.168 4.864.168c-.33 0-.588.22-.651.61" mask="url(#prefix__w)"/>
        </g>
        <g>
            <path fill="#B5CFEA" d="M150.04 27.222L111.024 4.696l-.002-.001-.058-.034-.104-.06-.04-.02-.04-.02-.042-.017-.042-.016-.042-.013c-.016-.005-.03-.01-.046-.013h-.003l-.004-.002-.039-.008-.02-.003-.016-.003-.012-.002-.048-.005h-.004c-.02-.002-.038-.002-.056-.002h-.006l-.025.001-.03.001-.008.002-.04.005-.022.004-.004.001c-.027.006-.053.012-.077.021-.002 0-.004 0-.006.002l-.008.003c-.032.012-.064.026-.093.043l-1.146.666c.03-.017.06-.03.092-.042.012-.005.024-.009.037-.012.015-.005.03-.01.045-.013l.056-.01.022-.003c.026-.003.052-.003.08-.003h.015c.028.001.056.003.084.007l.006.001c.03.005.06.011.091.019l.008.002c.03.008.06.017.09.029l.01.003c.032.013.065.027.097.043l.04.02.032.018.216.125 39.076 22.56c.044.026.1.026.144 0l.858-.499c.096-.055.096-.194 0-.25z" transform="translate(1) translate(42.021 206.559)"/>
            <path fill="#659ADB" d="M151.071 28.757v-.004-.043c0-.015-.001-.03-.003-.044v-.006-.006l-.003-.031-.005-.043c0-.007-.002-.014-.003-.02v-.01l-.003-.013-.007-.043-.009-.041v-.001-.002l-.01-.043-.011-.043-.004-.012-.002-.008-.007-.023-.013-.04-.011-.032-.001-.004-.002-.005-.015-.039-.015-.037-.006-.015-.003-.007-.006-.015-.018-.038-.018-.038-.002-.003-.003-.006-.02-.04-.021-.036-.014-.024-.006-.012-.037-.058c-.004-.006-.007-.013-.012-.019 0-.001 0-.002-.002-.003-.016-.024-.032-.048-.05-.07l-.007-.01-.007-.01-.018-.023-.031-.039-.012-.014-.007-.008-.011-.013-.032-.035-.024-.026-.005-.005-.004-.004-.035-.034-.036-.034h-.001l-.001-.002-.036-.031-.04-.032-.004-.004-.006-.004-.028-.022-.04-.028-.01-.007-.004-.003h-.002l-.023-.016-.04-.024c-.003-.002-.95-.55-.953-.55l-1.17.706s1.004.526 1.017.534l.04.026.04.028.038.03.016.013.06.051h.001l.059.057.007.007c.019.018.036.037.054.057l.008.009.05.058.008.01.047.062.023.032.028.04.03.047.018.03.016.029.028.049.006.013.035.07.002.005.033.075.003.007c.01.024.019.049.027.073l.004.01.023.073.003.01.02.073.002.011.015.074.002.01c.004.025.008.05.01.074l.002.01c.003.024.005.05.006.074l.002.037v.088l-.003.046-.006.048-.005.038-.01.067-4.1 25.334c-.02.12-.486.89-.38.83l1.12-.95c.238-.202.395-.481.445-.788l4.022-24.858.049-.3.005-.038.004-.032v-.002-.004l.001-.011.003-.045.001-.036v-.006z" transform="translate(1) translate(42.021 206.559)"/>
            <path fill="#2F29C2" d="M149.11 28.012c.534.309.893 1.017.801 1.584l-4.159 25.702c-.09.567-.598.776-1.132.467l-39.364-22.727c-.535-.308-.893-1.017-.801-1.584l4.158-25.702c.091-.567.598-.776 1.132-.467l39.365 22.727z" transform="translate(1) translate(42.021 206.559)"/>
            <path fill="#B5CFEA" d="M150.74 22.944L111.725.42l-.003-.002-.058-.033-.104-.06-.04-.02-.04-.02-.042-.016c-.014-.006-.028-.012-.042-.016l-.042-.015-.046-.012h-.002L111.3.223l-.039-.009-.02-.003-.016-.003-.012-.002-.048-.005h-.004L111.106.2h-.006l-.025.001-.03.002h-.008l-.04.007c-.007 0-.015.001-.022.003h-.004c-.027.006-.052.014-.077.022l-.006.002-.008.003c-.032.012-.064.026-.093.043l-1.146.666c.03-.017.06-.03.092-.042.012-.005.025-.008.037-.012.015-.005.03-.01.046-.013l.056-.01c.007 0 .014-.002.02-.003l.081-.003h.015c.028.001.056.003.084.008h.007c.03.005.06.01.09.019l.008.002c.03.008.06.017.091.029l.009.003c.032.012.065.027.098.043l.04.02.03.018.217.125 39.076 22.56c.045.026.1.026.145 0l.857-.498c.096-.056.096-.195 0-.25z" transform="translate(1) translate(42.021 206.559)"/>
            <path fill="#659ADB" d="M151.771 24.48v-.004-.043l-.002-.044v-.006l-.001-.006-.003-.031c-.001-.014-.002-.029-.005-.043 0-.007-.001-.014-.003-.02v-.01l-.002-.013-.008-.043-.008-.041v-.002l-.011-.044-.011-.043-.004-.012-.002-.008-.007-.023-.013-.04-.01-.032-.002-.004-.002-.005-.014-.039-.015-.037-.007-.015c0-.003-.002-.005-.003-.007l-.006-.015-.018-.038-.018-.038-.002-.003-.003-.006-.02-.04-.02-.036-.015-.024-.006-.012-.037-.058-.012-.019-.001-.003c-.017-.024-.033-.048-.05-.07l-.008-.01-.006-.01-.019-.023-.031-.039-.012-.014-.007-.008-.011-.013c-.01-.012-.02-.024-.032-.035l-.024-.026-.005-.005-.004-.004-.034-.034-.037-.034-.002-.002-.036-.031-.04-.032-.004-.004-.005-.004-.029-.022-.04-.028-.01-.007-.004-.003h-.001l-.024-.016-.04-.024-.953-.55-1.17.706 1.018.534.04.026.038.028.04.03.016.013.06.052.06.056.006.007c.019.018.037.037.054.057l.008.009.05.058.009.01.046.062.023.032c.01.013.019.026.027.04.011.015.02.031.03.047l.02.03.015.029.028.049.007.013.034.07.002.005.033.075.003.007.028.073.003.01.023.073.003.01.02.073.002.011.015.074.002.01.011.074v.01c.004.024.006.05.008.074l.001.037v.089l-.003.045-.005.048-.006.038-.01.067-4.1 25.334c-.019.12-.486.89-.38.83l1.12-.95c.238-.202.396-.481.445-.788l4.022-24.858.049-.3.006-.038.002-.032.001-.002v-.004l.001-.011.003-.045.001-.036v-.006" transform="translate(1) translate(42.021 206.559)"/>
            <path fill="#2F29C2" d="M149.81 23.735c.534.309.893 1.018.801 1.584l-4.159 25.702c-.09.567-.598.776-1.132.467l-39.364-22.726c-.534-.309-.893-1.018-.801-1.584l4.158-25.703c.092-.566.599-.776 1.133-.467l39.364 22.727z" transform="translate(1) translate(42.021 206.559)"/>
            <path fill="#D9EAFF" d="M147.704 29.666c.507.287.85.905.768 1.38l-3.762 21.562c-.082.476-.56.628-1.067.341L106.306 31.8c-.506-.288-.85-.905-.767-1.38L109.3 8.854c.083-.475.56-.627 1.067-.34l37.337 21.15z" transform="translate(1) translate(42.021 206.559)"/>
            <path fill="#FFF" d="M129.818 18.35c0 .247-.175.347-.39.222-.216-.124-.391-.426-.391-.673 0-.248.175-.347.39-.223.216.124.39.426.39.674" transform="translate(1) translate(42.021 206.559)"/>
            <path fill="#D9EAFF" d="M148.453 25.331c.507.287.85.905.767 1.38l-3.76 21.563c-.083.476-.562.628-1.068.34l-37.337-21.15c-.507-.287-.85-.905-.767-1.38l3.76-21.563c.084-.476.561-.628 1.068-.341l37.337 21.151z" transform="translate(1) translate(42.021 206.559)"/>
            <path fill="#FFF" d="M130.566 14.015c0 .248-.175.347-.39.223-.216-.125-.39-.426-.39-.674 0-.247.174-.347.39-.222.216.124.39.425.39.673" transform="translate(1) translate(42.021 206.559)"/>
            <path fill="#FBDDD3" d="M46.345 56.028l-2.331 7.055c-2.064 6.246-1.774 13.03.816 19.077l3.307 7.72 3.105-2.409L49 78.381c-.667-2.704-.496-5.534.41-8.168 1.279-3.717 2.125-9.694-3.065-14.185" transform="translate(1) translate(42.021 206.559)"/>
            <path fill="#E09A62" d="M54.106 56.187L52.857 70.2c-.457 1.12-10.633-1.838-10.127-3.522.089-.297 2.116-16.781 6.964-20.29 3.938-2.851 5.698 3.482 4.412 9.798" transform="translate(1) translate(42.021 206.559)"/>
            <path fill="#A8C4E5" d="M48.506 150.914c5.848 3.114 15.794 3.213 22.217.222 6.423-2.991 6.89-7.94 1.042-11.053-5.846-3.114-15.793-3.213-22.216-.222-6.423 2.991-6.89 7.94-1.043 11.053" transform="translate(1) translate(42.021 206.559)"/>
            <path fill="#2C1F9C" d="M48.362 139.035l3.684-.462c2.465-1.117 3.617-1.956 4.715-1.322l.312.18c1.098.633.958 1.75-.31 2.483l-5.415 4.303c-1.268.732-2.977.501-3.988-.387 0 0-.606-.547-.173-2.849.247-1.313.161-1.36 1.175-1.946M64.554 147.73l3.648.687c2.69-.31 4.043-.756 4.894.184l.242.266c.85.94.377 1.961-1.055 2.27l-6.473 2.44c-1.43.308-2.986-.435-3.678-1.59 0 0-.41-.706.708-2.765.637-1.174.569-1.245 1.714-1.493" transform="translate(1) translate(42.021 206.559)"/>
            <path fill="#C6D2F2" d="M67.095 148.63c0 1.843-4.484 1.843-4.484 0v-5.993h4.484v5.992z" transform="translate(1) translate(42.021 206.559)"/>
            <path fill="#3B2AD1" d="M67.66 144.843c-1.473 2.09-4.681 2.104-5.59.594l-7.79-62.353h16.187l-2.806 61.759z" transform="translate(1) translate(42.021 206.559)"/>
            <path fill="#C6D2F2" d="M51.83 139.768c-.103 1.67-4.588 1.67-4.485 0l.332-5.426h4.485l-.333 5.426z" transform="translate(1) translate(42.021 206.559)"/>
            <path fill="#3B2AD1" d="M52.709 137.358c-1.792 1.843-5.317 1.056-5.994-.275l2.375-54.054 11.27 1.67-7.651 52.659z" transform="translate(1) translate(42.021 206.559)"/>
            <path fill="#FBDDD3" d="M64.556 42.89c-1.111 3.873-3.991 4.963-6.432 2.435-2.442-2.529-3.52-7.719-2.408-11.593 1.111-3.873 3.991-4.963 6.432-2.435 2.442 2.529 3.52 7.719 2.408 11.592" transform="translate(1) translate(42.021 206.559)"/>
            <path fill="#FBDDD3" d="M68.639 41.66c-1.112 3.873-5.264 5.275-7.706 2.746-2.44-2.529-3.519-7.719-2.407-11.592 1.111-3.874 3.99-4.964 6.432-2.436 2.441 2.53 4.792 7.408 3.68 11.281" transform="translate(1) translate(42.021 206.559)"/>
            <path fill="#FBDDD3" d="M59.244 52.838l-.415-.092c-1.403-.313-2.294-1.717-1.981-3.12l1.764-7.906c.313-1.403 1.716-2.294 3.118-1.981l.415.092c1.403.313 2.294 1.716 1.982 3.119l-.578 7.847c-.313 1.402-2.902 2.354-4.305 2.04" transform="translate(1) translate(42.021 206.559)"/>
            <path fill="#4432DB" d="M54.531 42.242s.42 3.65 5.605 2.919c3.72-.524 2.636-6.576 6.354-7.182 4.091-.667 4.833-5.72 3.22-7.66-1.611-1.94-6.116-2.954-9.38-1.514-3.263 1.438-8.294 1.353-5.799 13.437" transform="translate(1) translate(42.021 206.559)"/>
            <path fill="#FBDDD3" d="M66.506 40.08c-.27.942-1.253 1.486-2.195 1.216s-1.486-1.253-1.216-2.194c.27-.942 1.253-1.487 2.195-1.216.942.27 1.486 1.252 1.216 2.194" transform="translate(1) translate(42.021 206.559)"/>
            <path fill="#FFAF6F" d="M48.617 82.326c1.324-7.258-.1-12.994.015-20.71 0-13.873-.665-17.258 6.669-15.148l2.067.549c.992.264 1.956.637 2.868 1.108 9.67 4.981 12.25 6.518 11.825 12.296.044 9.518-1.359 20.193-1.559 24.876-1.992 6.58-19.674 1.739-21.885-2.97" transform="translate(1) translate(42.021 206.559)"/>
            <path fill="#2C1F9C" d="M63.925 45.68l-.42-.972s.749.75 2.174.567c0 0-.84.481-1.754.405" transform="translate(1) translate(42.021 206.559)"/>
            <path fill="#FBDDD3" d="M64.272 56.143s2.11 9.645 14.144 22.378c3.309 3.502 17.215-9.506 17.215-9.506l-1.07-4.844s-11.514 11.052-14.61 6.865c-3.488-4.718-5.876-19.213-15.68-14.893" transform="translate(1) translate(42.021 206.559)"/>
            <path fill="#FFAF6F" d="M66.493 63.203l5.972 12.739c.813.896 9.36-5.367 8.309-6.777-.186-.248-7.733-15.041-13.49-16.679-4.677-1.33-4.161 5.224-.79 10.717" transform="translate(1) translate(42.021 206.559)"/>
            <path fill="#FBDDD3" d="M98.283 67.476l-1.54 1.136c-1.183.873-2.865.619-3.738-.564-.873-1.183-.62-2.866.564-3.738l1.54-1.137c1.184-.872 2.866-.618 3.739.565.872 1.183.619 2.865-.565 3.738" transform="translate(1) translate(42.021 206.559)"/>
            <path fill="#2C1F9C" d="M71.447 73.771L68.078 66.584 70.502 80.886z" transform="translate(1) translate(42.021 206.559)"/>
            <path stroke="#FFF" stroke-linecap="round" stroke-linejoin="round" stroke-width=".604" d="M207.867 11.746L240.745 31.439M79.952 130.999L99.367 119.83M43.125 130.999L.329 106.38" transform="translate(1) translate(42.021 206.559)"/>
        </g>
        <g transform="translate(1) translate(324.938 273.213)">
            <mask id="prefix__y" fill="#fff">
                <use xlink:href="#prefix__x"/>
            </mask>
            <path d="M0.329 8.432L0.896 39.265 28.595 75.183 32.265 75.183 54.863 42.33 55.039 28.06 32.752 0.028z" mask="url(#prefix__y)"/>
        </g>
        <g>
            <path fill="#A8C4E5" d="M58.9 26.374C71.36 19.18 71.297 7.48 58.758.241L52.872 3.64C40.604-.483 24.665.462 14.215 6.495c-12.46 7.194-12.397 18.895.142 26.133 12.538 7.24 32.803 7.276 45.264.082L36.918 19.603l5.127-2.96L58.9 26.374z" transform="translate(1) translate(324.938 266.33)"/>
            <path fill="#4432DB" d="M55.039 34.943c-12.46 7.194-32.726 7.157-45.264-.082-12.539-7.239-12.602-18.94-.142-26.133 12.46-7.194 32.725-7.158 45.264.082L32.336 21.835l22.703 13.108z" transform="translate(1) translate(324.938 266.33)"/>
            <path fill="#BAD0E6" d="M55.039 24.595v10.347c-5.345 3.086-11.998 4.998-19.357 5.283l-.663.034-.206-10.339c-.877-4.511 16.874-5.407 20.226-5.325" transform="translate(1) translate(324.938 266.33)"/>
        </g>
        <g transform="translate(1) translate(378.913 259.447)">
            <mask id="prefix__B" fill="#fff">
                <use xlink:href="#prefix__z"/>
            </mask>
            <path fill="url(#prefix__A)" d="M.29 14.311l.702 11.733s12.785-5.43 9.24-22.72C9.768 1.07 9.088.17 8.298.169 5.166.168.29 14.311.29 14.311" mask="url(#prefix__B)"/>
        </g>
        <g>
            <path fill="#2C1F9C" d="M6.261 47.423c-8.527-6.18-8.452-26.9 2.535-30.397l8.302 11.511s-6.35 22.05-6.6 21.906c-1.528-.875-2.929-1.895-4.237-3.02" transform="translate(1) translate(324.214 250.753)"/>
            <path fill="#4432DB" d="M55.621 18.556c-12.538-7.239-32.803-7.276-45.264-.082L33.06 31.582l22.561-13.026z" transform="translate(1) translate(324.214 250.753)"/>
            <path fill="#2C1F9C" d="M33.02 31.605l.04-.023-22.703-13.108c-3.093 1.787-7.73 5.587-9.303 8.364v4.054c10.338.485 24.608.384 31.966.713" transform="translate(1) translate(324.214 250.753)"/>
            <path fill="#5986FF" d="M55.763 40.172c-12.46 7.194-32.726 7.157-45.264-.082-12.538-7.239-12.602-18.939-.142-26.133 12.46-7.194 32.726-7.157 45.264.082l-22.56 13.026 22.702 13.107z" transform="translate(1) translate(324.214 250.753)"/>
            <path fill="#4432DB" d="M10.5 40.09c-12.54-7.239-12.603-18.939-.143-26.133L33.06 27.065 10.5 40.09z" transform="translate(1) translate(324.214 250.753)"/>
            <path fill="#ABCFFF" d="M55.621 14.039C43.083 6.8 22.818 6.763 10.357 13.957L33.06 27.065l22.561-13.026z" transform="translate(1) translate(324.214 250.753)"/>
            <path fill="#FFAF6F" d="M55.55.036c12.54 7.24 12.602 18.94.142 26.133L32.99 13.062 55.55.036z" transform="translate(1) translate(324.214 250.753)"/>
            <path fill="#2C1F9C" d="M33.02 27.088l.04-.023-22.703-13.108c-5.627 3.249-8.699 7.417-9.222 11.677 10.338.485 24.527 1.124 31.885 1.454" transform="translate(1) translate(324.214 250.753)"/>
            <path fill="#FFF" d="M33.02 27.088l.04-.023 22.703 13.107c-5.627 3.249-12.846 5.023-20.226 5.325-.84-5.97-1.946-14.16-2.517-18.41" transform="translate(1) translate(324.214 250.753)"/>
        </g>
        <g transform="translate(1) translate(357.178 263.794)">
            <mask id="prefix__E" fill="#fff">
                <use xlink:href="#prefix__C"/>
            </mask>
            <path fill="url(#prefix__D)" d="M0.025 8.007L22.727 21.697 22.727 12.805 0.025 0.021z" mask="url(#prefix__E)"/>
        </g>
        <g>
            <path fill="#4432DB" d="M117 10.59V.243c1.738 1.014 3.599 1.869 5.572 2.578l-5.571 7.77z" transform="translate(1) translate(217.712 290.6)"/>
            <path fill="#A8C4E5" d="M61.832 11.047c-1.713-.992-2.61-3.755-4.592-2.616L5.392 38.261c-1.03.592-1.579 1.343-1.632 2.068l-.008-.005.003.125.003.1.075 2.641.003.003c-.265.808.077 1.625 1.065 2.198L33.49 61.955c.856.496 2.033.714 3.243.666.302-.012.607-.04.91-.086.604-.09 1.199-.247 1.749-.468.275-.11.538-.236.785-.38l50.477-29.84c1.729-1.021 1.705-3.53-.043-4.52l-28.78-16.28z" transform="translate(1) translate(217.712 290.6)"/>
            <path fill="#DBEFFF" d="M.099 41.08l-.082-2.866 3.696 2.398s-1.044 2.599-1.157 2.508c-.113-.09-2.457-2.04-2.457-2.04" transform="translate(1) translate(217.712 290.6)"/>
            <path fill="#DBEFFF" d="M29.755 59.845L1.166 43.281c-1.712-.992-1.495-2.72.486-3.86l51.849-29.83c1.98-1.139 4.975-1.258 6.687-.266l28.589 16.564c1.712.992 1.495 2.72-.486 3.86L36.443 59.578c-1.981 1.14-4.975 1.26-6.688.267" transform="translate(1) translate(217.712 290.6)"/>
            <path fill="#B0DAFF" d="M32.894 43.972L53.5 9.592c1.982-1.14 4.976-1.26 6.688-.267l28.589 16.564c1.712.992 1.495 2.72-.486 3.86L36.442 59.578c-.99.57-2.234.884-3.444.933l-.104-16.539z" transform="translate(1) translate(217.712 290.6)"/>
            <path fill="#B0DAFF" d="M55.454 32.595L60.718 25.474 89.936 24.291 89.925 27.631 57.979 37.757z" transform="translate(1) translate(217.712 290.6)"/>
            <path fill="#2C1F9C" d="M28.2 57.178c0 .497-.352.697-.785.446-.433-.25-.783-.857-.782-1.354 0-.497.352-.697.785-.446.433.25.783.857.782 1.354" transform="translate(1) translate(217.712 290.6)"/>
            <path fill="#FFF" d="M29.76 56.574L1.171 40.01c-1.712-.992-1.494-2.72.486-3.86L53.506 6.321c1.98-1.14 4.975-1.259 6.687-.267L88.782 22.62c1.713.992 1.495 2.72-.486 3.86L36.448 56.306c-1.981 1.14-4.975 1.26-6.688.267" transform="translate(1) translate(217.712 290.6)"/>
            <path fill="#3B2AD1" d="M29.76 55.774L1.171 39.209c-1.712-.992-1.494-2.72.486-3.86L53.506 5.52c1.98-1.14 4.975-1.259 6.687-.267l28.589 16.564c1.713.993 1.495 2.72-.486 3.86l-51.848 29.83c-1.981 1.14-4.975 1.258-6.688.267" transform="translate(1) translate(217.712 290.6)"/>
            <path fill="#2C1F9C" d="M75.442 17.742l-7.894-4.573c-.325-.19-.284-.52.093-.737.376-.217.95-.24 1.276-.051l7.894 4.574c.325.188.284.52-.093.736-.376.217-.951.24-1.276.051M18.016 52.002l-6.34-3.673c-.27-.156-.489-.576-.488-.935 0-.358.22-.524.49-.368l6.34 3.673c.268.156.488.576.487.934 0 .359-.22.525-.49.37M80.903 32.848l3.128-1.8c.185-.107.337-.396.338-.643 0-.247-.152-.362-.337-.255l-3.127 1.799c-.186.106-.338.396-.338.643-.001.248.15.362.336.256M76.467 35.624l3.128-1.8c.185-.106.337-.396.338-.643 0-.247-.151-.362-.337-.255l-3.127 1.8c-.186.106-.338.395-.338.643-.001.247.15.361.336.255" transform="translate(1) translate(217.712 290.6)"/>
            <path fill="#BAD4F5" d="M55.116 8.035l-43.6 25.083c-1.015.584-1.017 2.049-.004 2.636l26.424 15.31c.47.272 1.05.273 1.522.002l43.599-25.083c1.016-.584 1.018-2.048.004-2.636L56.637 8.037c-.47-.272-1.05-.273-1.521-.002" transform="translate(1) translate(217.712 290.6)"/>
            <path fill="#2C1F9C" d="M47.858 28.677c-4.222-2.437-4.244-6.377-.048-8.8 4.195-2.422 11.02-2.41 15.241.028 4.222 2.438 4.243 6.377.048 8.8-4.196 2.422-11.02 2.41-15.241-.028m18.925-10.926c-6.296-3.635-16.472-3.654-22.729-.041-6.256 3.612-6.224 9.487.072 13.122s16.471 3.653 22.728.04c6.256-3.612 6.225-9.487-.071-13.121" transform="translate(1) translate(217.712 290.6)"/>
        </g>
        <g transform="translate(1) translate(265.167 313.06)">
            <mask id="prefix__H" fill="#fff">
                <use xlink:href="#prefix__F"/>
            </mask>
            <path fill="url(#prefix__G)" d="M18.628.846c.548 1.91-.443 3.932-2.984 5.4C12.17 8.25 6.899 8.585 2.79 7.258L.068 9.873c6.15 2.04 14.106 1.557 19.331-1.46 3.83-2.21 5.298-5.268 4.423-8.142l-5.194.575z" mask="url(#prefix__H)"/>
        </g>
        <g>
            <path fill="#FFF" d="M252.727 106.683l-.412 3.045c2.57.08 5.106.69 7.075 1.826 1.783 1.03 2.814 2.327 3.098 3.665l5.272-.264c-.394-2.027-1.939-3.997-4.638-5.555-2.897-1.673-6.615-2.577-10.395-2.717M238.024 130.585l-12.144-7.011c-.798-.461-.697-1.273.225-1.805.92-.532 2.327-.59 3.126-.13l12.144 7.012c.798.46.697 1.273-.225 1.804-.92.532-2.328.59-3.126.13M232.032 133.856l-12.144-7.012c-.798-.46-.697-1.273.225-1.805.921-.532 2.328-.59 3.126-.13l12.144 7.012c.798.461.697 1.273-.225 1.805-.92.532-2.328.59-3.126.13" transform="translate(1) translate(21.373 198.951)"/>
            <path fill="#A8C4E5" d="M6.222 56.898c0 3.349 2.264 8.202 9.565 8.202 7.3 0 16.874-4.853 16.874-8.202 0-3.348-5.918-6.063-13.22-6.063-7.3 0-13.219 2.715-13.219 6.063" transform="translate(1) translate(21.373 198.951)"/>
            <path fill="#DBEFFF" d="M23.325 63.447c-4.137 2.388-10.866 2.377-15.03-.027s-4.185-6.29-.047-8.678c4.137-2.39 10.867-2.377 15.03.027 4.164 2.404 4.185 6.29.047 8.678" transform="translate(1) translate(21.373 198.951)"/>
            <path fill="#DBEFFF" d="M0.191 44.192L5.192 59.524 26.338 59.872 31.165 45.095z" transform="translate(1) translate(21.373 198.951)"/>
            <path fill="#BAD4F5" d="M24.598 44.8l-4.827 14.72h-.003c-.667 2.253-1.275 2.755-3.01 3.756-1.254.725-2.748 1.35-4.336 1.622 3.571.6 7.548-.074 10.344-1.688 1.735-1.002 2.736-1.51 3.01-3.69h.002l4.828-14.72h-6.008z" transform="translate(1) translate(21.373 198.951)"/>
            <path fill="#FFF" d="M26.924 49.647c-6.113 3.53-16.054 3.511-22.205-.04-6.15-3.551-6.182-9.29-.07-12.82 6.113-3.529 16.054-3.51 22.205.04 6.15 3.552 6.182 9.291.07 12.82" transform="translate(1) translate(21.373 198.951)"/>
            <path fill="#2C1F9C" d="M25.238 48.444c-5.247 3.029-13.78 3.013-19.06-.035-5.28-3.048-5.306-7.975-.06-11.004 5.247-3.029 13.78-3.014 19.06.035 5.28 3.048 5.306 7.975.06 11.004" transform="translate(1) translate(21.373 198.951)"/>
            <path fill="#3B2AD1" d="M15.4 39.754c1.18-10.745 10.319-28.408 10.319-28.408C13.94 14.84 13.165 26.48 13.165 26.48L15.4 39.754z" transform="translate(1) translate(21.373 198.951)"/>
            <path fill="#3B2AD1" d="M12.735 30.257C13.977 19.52 8.784.306 8.784.306c10.702 6.03 8.867 17.55 8.867 17.55l-4.916 12.401z" transform="translate(1) translate(21.373 198.951)"/>
            <path fill="#4852DB" d="M30.782 17.299C20.95 19.519 15.01 36.725 15.01 36.725l-.003.035C14.644 14.832.792 9.017.792 9.017 4.928 15.037 8.824 35.544 10 42.17c.442 2.49 2.649 4.313 5.175 4.192.14-.007.28-.018.423-.033 2.162-.236 3.865-1.925 4.288-4.059 1.816-9.178 10.895-24.97 10.895-24.97" transform="translate(1) translate(21.373 198.951)"/>
            <path stroke="#FFF" stroke-linecap="round" stroke-linejoin="round" stroke-width=".604" d="M332.178 169.353l-35.124-20.278c-1.045-.604-.913-1.667.294-2.364l34.293-19.8c1.206-.696 3.048-.772 4.093-.169l35.124 20.28c1.045.603.913 1.666-.294 2.362l-34.293 19.8c-1.206.696-3.049.773-4.093.17z" transform="translate(1) translate(21.373 198.951)"/>
            <path fill="#FFAF6F" d="M152.904 50.264L149.132 48.086 150.212 41.68 153.984 43.857z" transform="translate(1) translate(21.373 198.951)"/>
            <path fill="#BFDFFF" d="M157.526 52.932L153.754 50.755 154.461 46.566 158.232 48.743z" transform="translate(1) translate(21.373 198.951)"/>
            <path fill="#5986FF" d="M162.29 55.683L158.518 53.505 159.935 45.106 163.706 47.284z" transform="translate(1) translate(21.373 198.951)"/>
            <path fill="#BFDFFF" d="M155.977 35.391l-2.62-1.497c-.234-.134-.4-.52-.369-.856.031-.336.25-.501.483-.368l2.62 1.498c.234.134.4.519.369.855-.031.337-.25.503-.483.368M155.336 38.48l-2.62-1.498c-.233-.134-.4-.519-.368-.855.03-.337.249-.502.483-.368l2.619 1.498c.234.134.4.519.37.855-.032.336-.25.502-.484.368M160.353 37.995l-2.619-1.498c-.234-.133-.4-.518-.37-.855.032-.336.25-.502.484-.368l2.62 1.498c.234.134.4.52.368.855-.03.337-.249.502-.483.368M159.713 41.084l-2.62-1.498c-.234-.134-.4-.519-.369-.855.031-.336.25-.502.483-.368l2.62 1.498c.234.134.4.519.369.855-.032.336-.249.502-.483.368M159.026 43.857l-2.619-1.498c-.234-.134-.4-.519-.37-.856.032-.336.25-.501.483-.367l2.62 1.498c.234.133.4.518.369.855-.031.336-.249.502-.483.368M164.73 40.6l-2.62-1.499c-.234-.134-.4-.518-.369-.855.032-.336.249-.502.483-.368l2.62 1.498c.234.134.4.52.369.855-.031.337-.249.502-.483.368M164.09 43.688l-2.62-1.498c-.234-.134-.4-.519-.37-.855.032-.337.25-.502.483-.368l2.62 1.498c.234.133.4.518.37.855-.032.336-.25.502-.484.368" transform="translate(1) translate(21.373 198.951)"/>
            <path fill="#29479C" d="M163.987 34.435l-9.369-5.41c-.306-.176-.645-.05-.753.28-.108.33.054.744.36.921l9.37 5.409c.306.177.645.052.753-.279.108-.33-.055-.745-.361-.921" transform="translate(1) translate(21.373 198.951)"/>
            <path fill="#29479C" d="M165.92 35.554l-9.367-5.409c-.307-.177-.646-.051-.754.279-.108.33.055.745.361.921l9.369 5.409c.306.177.645.052.753-.278.108-.33-.055-.746-.361-.922" transform="translate(1) translate(21.373 198.951)"/>
            <path fill="#FFF" d="M132.356 14.554L128.478 36.493 147.268 47.413 151.147 25.474z" transform="translate(1) translate(21.373 198.951)"/>
            <path fill="#BFDFFF" d="M139.626 35.887l-1.925-1.105c-.017-.013-.034-.025-.051-.035l-2.675-1.537c-.02-.011-.04-.02-.059-.027l-1.681-.966c-.24-.137-.462.032-.496.378-.034.345.134.74.374.877l2.674 1.537c.02.01.04.02.059.027l.932.535c.016.013.033.025.05.035l2.675 1.536c.24.138.463-.032.496-.377.034-.345-.134-.74-.373-.878M135.426 37.52l-2.674-1.537c-.24-.138-.407-.533-.374-.878.034-.345.257-.515.496-.378l2.675 1.537c.24.138.407.533.374.878-.034.345-.257.515-.497.377" transform="translate(1) translate(21.373 198.951)"/>
            <path fill="#29479C" d="M141.378 27.671c-.251 1.876-1.788 2.728-3.433 1.904-1.645-.825-2.775-3.014-2.524-4.89.251-1.876 1.788-2.728 3.433-1.903 1.644.824 2.775 3.013 2.524 4.89m-7.42-3.72c-.374 2.797 1.311 6.062 3.764 7.291 2.453 1.23 4.745-.04 5.119-2.839.374-2.797-1.311-6.061-3.764-7.29-2.453-1.23-4.745.04-5.119 2.838" transform="translate(1) translate(21.373 198.951)"/>
            <path fill="#5986FF" d="M139.077 21.113c-1.501-.753-2.941-.567-3.92.33l1.09 1.541c.655-.585 1.61-.702 2.607-.202 1.361.682 2.37 2.3 2.534 3.9l1.475.312c-.226-2.408-1.738-4.854-3.786-5.88" transform="translate(1) translate(21.373 198.951)"/>
            <path fill="#ADD5F7" d="M134.624 27.866l1.26-.521c-.396-.842-.58-1.785-.463-2.66.106-.792.442-1.4.918-1.778l-.98-1.633c-.727.561-1.24 1.479-1.401 2.678-.172 1.287.093 2.673.666 3.914M147.459 27.92l-2.178-1.241c-.195-.111-.332-.436-.305-.721.027-.286.209-.429.404-.318l2.177 1.242c.195.11.332.435.305.72-.027.286-.208.43-.403.318M146.92 30.945l-2.177-1.24c-.195-.112-.332-.437-.305-.722.027-.286.208-.429.403-.318l2.177 1.242c.196.11.333.435.305.72-.026.286-.208.43-.403.318M146.407 33.947l-2.178-1.242c-.194-.11-.332-.435-.305-.721.027-.286.209-.429.404-.317l2.177 1.24c.195.112.332.436.305.722-.027.286-.208.429-.403.318" transform="translate(1) translate(21.373 198.951)"/>
        </g>
    </g>
</svg>
