<?xml version="1.0" encoding="UTF-8"?>
<svg width="17px" height="20px" viewBox="0 0 17 20" version="1.1" xmlns="http://www.w3.org/2000/svg" xmlns:xlink="http://www.w3.org/1999/xlink">
    <title>Group 29</title>
    <g id="Page-1" stroke="none" stroke-width="1" fill="none" fill-rule="evenodd">
        <g id="아바타" transform="translate(-317.000000, -1244.000000)">
            <g id="Group-29" transform="translate(317.000000, 1244.000000)">
                <path d="M15.6254545,19.9957727 C15.4390909,19.9957727 15.28875,19.8454318 15.28875,19.6590682 L15.28875,17.1185 C15.28875,16.5732727 15.1501136,16.0639545 14.8882955,15.6456591 C14.7359091,15.4038409 14.5543182,15.1966818 14.3479545,15.0316818 C13.3598864,14.2363409 10.7680682,12.8286136 10.7417045,12.81475 C10.5782955,12.726 10.5172727,12.521 10.6059091,12.3574773 C10.6945455,12.1932727 10.8997727,12.1330455 11.0632955,12.2216818 C11.1720455,12.2805455 13.7346591,13.6730455 14.7698864,14.5058864 C15.0345455,14.7179318 15.2665909,14.9811136 15.4592045,15.2873636 C15.7882955,15.8139545 15.9621591,16.4471364 15.9621591,17.1185 L15.9621591,19.6590682 C15.9621591,19.8454318 15.8118182,19.9957727 15.6254545,19.9957727" id="Fill-1" fill="#344154"></path>
                <path d="M15.6254545,19.9957727 L0.535113636,19.9957727 L0.535113636,17.1185 C0.535113636,16.4471364 0.708977273,15.8139545 1.03818182,15.2880455 C1.23,14.9825909 1.46204545,14.7192955 1.7275,14.5058864 C2.76261364,13.6730455 5.32522727,12.2805455 5.43397727,12.2216818 C5.59693182,12.1330455 5.80056818,12.1932727 5.89136364,12.3574773 C5.98,12.521 5.91909091,12.726 5.75556818,12.81475 C5.72920455,12.8286136 3.13727273,14.2363409 2.15011364,15.0311136 C1.94295455,15.19725 1.76068182,15.4045227 1.60897727,15.6463409 C1.34715909,16.0639545 1.20863636,16.5732727 1.20863636,17.1185 L1.20863636,19.3223636 L15.6254545,19.3223636 C15.8118182,19.3223636 15.9621591,19.4727045 15.9621591,19.6590682 C15.9621591,19.8454318 15.8118182,19.9957727 15.6254545,19.9957727" id="Fill-3" fill="#344154"></path>
                <path d="M8.24896591,5.01563636 C6.38669318,5.01563636 4.87146591,6.93404545 4.87146591,9.29177273 C4.87146591,11.6493864 6.38669318,13.5677955 8.24896591,13.5677955 C10.1106705,13.5677955 11.6257841,11.6493864 11.6257841,9.29177273 C11.6257841,6.93404545 10.1106705,5.01563636 8.24896591,5.01563636 M8.24896591,14.2413182 C6.01532955,14.2413182 4.19817045,12.0208636 4.19817045,9.29177273 C4.19817045,6.56268182 6.01532955,4.34222727 8.24896591,4.34222727 C10.4826023,4.34222727 12.2993068,6.56268182 12.2993068,9.29177273 C12.2993068,12.0208636 10.4826023,14.2413182 8.24896591,14.2413182" id="Fill-5" fill="#344154"></path>
                <path d="M8.24875,5.86390909 C7.9225,5.86390909 7.60909091,5.95527273 7.31954545,6.11584091 C8.24636364,6.62981818 8.91954545,7.87595455 8.91954545,9.29175 C8.91954545,10.7076591 8.24636364,11.9536818 7.31954545,12.4676591 C7.60909091,12.6282273 7.9225,12.7194773 8.24875,12.7194773 C9.61954545,12.7194773 10.7777273,11.1498182 10.7777273,9.29175 C10.7777273,7.43379545 9.61954545,5.86390909 8.24875,5.86390909" id="Fill-7" fill="#F7778A"></path>
                <polygon id="Fill-9" fill="#344154" points="15.9621477 19.9957727 14.7739659 19.9957727 14.7739659 19.3223636 15.2887386 19.3223636 15.2887386 18.8075909 15.9621477 18.8075909"></polygon>
                <path d="M1.35377273,5.18131818 C0.978886364,5.18131818 0.673431818,5.48677273 0.673431818,5.86165909 C0.673431818,6.23643182 0.978886364,6.54131818 1.35377273,6.54131818 C1.72865909,6.54131818 2.03343182,6.23643182 2.03343182,5.86165909 C2.03343182,5.48677273 1.72865909,5.18131818 1.35377273,5.18131818 M1.35377273,7.21472727 C0.606954545,7.21472727 2.27272727e-05,6.60779545 2.27272727e-05,5.86165909 C2.27272727e-05,5.11472727 0.606954545,4.50779545 1.35377273,4.50779545 C2.09990909,4.50779545 2.70684091,5.11472727 2.70684091,5.86165909 C2.70684091,6.60779545 2.09990909,7.21472727 1.35377273,7.21472727" id="Fill-11" fill="#344154"></path>
                <path d="M1.35377273,11.4704886 C0.978886364,11.4704886 0.673431818,11.7760568 0.673431818,12.1508295 C0.673431818,12.5257159 0.978886364,12.8306023 1.35377273,12.8306023 C1.72865909,12.8306023 2.03343182,12.5257159 2.03343182,12.1508295 C2.03343182,11.7760568 1.72865909,11.4704886 1.35377273,11.4704886 M1.35377273,13.5040114 C0.606954545,13.5040114 2.27272727e-05,12.8970795 2.27272727e-05,12.1508295 C2.27272727e-05,11.4040114 0.606954545,10.7970795 1.35377273,10.7970795 C2.09990909,10.7970795 2.70684091,11.4040114 2.70684091,12.1508295 C2.70684091,12.8970795 2.09990909,13.5040114 1.35377273,13.5040114" id="Fill-13" fill="#344154"></path>
                <path d="M1.35377273,11.4704886 C1.16740909,11.4704886 1.01706818,11.3657159 1.01706818,11.2359432 L1.01706818,7.191625 C1.01706818,7.06173864 1.16740909,6.95696591 1.35377273,6.95696591 C1.54013636,6.95696591 1.69047727,7.06173864 1.69047727,7.191625 L1.69047727,11.2359432 C1.69047727,11.3657159 1.54013636,11.4704886 1.35377273,11.4704886" id="Fill-15" fill="#344154"></path>
                <path d="M1.40693182,4.93817045 C1.31863636,4.77407955 1.38556818,4.56726136 1.55681818,4.47498864 L6.89193182,1.60203409 C7.06318182,1.50976136 7.27272727,1.56771591 7.36102273,1.73180682 C7.44943182,1.89589773 7.3825,2.10271591 7.21113636,2.194875 L1.87613636,5.06794318 C1.70477273,5.16021591 1.49522727,5.10226136 1.40693182,4.93817045" id="Fill-17" fill="#344154"></path>
                <path d="M14.7660795,4.93817045 C14.8544886,4.77407955 14.7875568,4.56726136 14.6163068,4.47498864 L9.28119318,1.60203409 C9.10994318,1.50976136 8.90039773,1.56771591 8.81198864,1.73180682 C8.72357955,1.89589773 8.790625,2.10271591 8.96198864,2.194875 L14.296875,5.06794318 C14.4682386,5.16021591 14.6777841,5.10226136 14.7660795,4.93817045" id="Fill-19" fill="#344154"></path>
                <path d="M14.7742955,5.18131818 C14.3995227,5.18131818 14.0940682,5.48677273 14.0940682,5.86165909 C14.0940682,6.23643182 14.3995227,6.54131818 14.7742955,6.54131818 C15.1491818,6.54131818 15.4539545,6.23643182 15.4539545,5.86165909 C15.4539545,5.48677273 15.1491818,5.18131818 14.7742955,5.18131818 M14.7742955,7.21472727 C14.0274773,7.21472727 13.4205455,6.60779545 13.4205455,5.86165909 C13.4205455,5.11472727 14.0274773,4.50779545 14.7742955,4.50779545 C15.5204318,4.50779545 16.1273636,5.11472727 16.1273636,5.86165909 C16.1273636,6.60779545 15.5204318,7.21472727 14.7742955,7.21472727" id="Fill-21" fill="#344154"></path>
                <path d="M8.24896591,0.673477273 C7.87419318,0.673477273 7.568625,0.978931818 7.568625,1.35381818 C7.568625,1.72859091 7.87419318,2.03347727 8.24896591,2.03347727 C8.62385227,2.03347727 8.928625,1.72859091 8.928625,1.35381818 C8.928625,0.978931818 8.62385227,0.673477273 8.24896591,0.673477273 M8.24896591,2.70688636 C7.50214773,2.70688636 6.89521591,2.09995455 6.89521591,1.35381818 C6.89521591,0.607 7.50214773,6.81818182e-05 8.24896591,6.81818182e-05 C8.99510227,6.81818182e-05 9.60203409,0.607 9.60203409,1.35381818 C9.60203409,2.09995455 8.99510227,2.70688636 8.24896591,2.70688636" id="Fill-23" fill="#344154"></path>
                <path d="M14.7742955,11.4704886 C14.3995227,11.4704886 14.0940682,11.7760568 14.0940682,12.1508295 C14.0940682,12.5257159 14.3995227,12.8306023 14.7742955,12.8306023 C15.1491818,12.8306023 15.4539545,12.5257159 15.4539545,12.1508295 C15.4539545,11.7760568 15.1491818,11.4704886 14.7742955,11.4704886 M14.7742955,13.5040114 C14.0274773,13.5040114 13.4205455,12.8970795 13.4205455,12.1508295 C13.4205455,11.4040114 14.0274773,10.7970795 14.7742955,10.7970795 C15.5204318,10.7970795 16.1273636,11.4040114 16.1273636,12.1508295 C16.1273636,12.8970795 15.5204318,13.5040114 14.7742955,13.5040114" id="Fill-25" fill="#344154"></path>
                <path d="M14.7742955,11.4704886 C14.5879318,11.4704886 14.4375909,11.3657159 14.4375909,11.2359432 L14.4375909,7.191625 C14.4375909,7.06173864 14.5879318,6.95696591 14.7742955,6.95696591 C14.9607727,6.95696591 15.111,7.06173864 15.111,7.191625 L15.111,11.2359432 C15.111,11.3657159 14.9607727,11.4704886 14.7742955,11.4704886" id="Fill-27" fill="#344154"></path>
            </g>
        </g>
    </g>
</svg>