<svg xmlns="http://www.w3.org/2000/svg" width="24" height="24" viewBox="0 0 24 24">
    <defs>
        <style>
            .cls-2{fill:#aaaeb2}
        </style>
    </defs>
    <g id="ico_download_24px" transform="translate(-.213)">
        <path id="사각형_2266" fill="none" d="M0 0H24V24H0z" transform="translate(.213)"/>
        <g id="Solid" transform="translate(4.213 4)">
            <path id="패스_3037" d="M144.745 36.39a.785.785 0 0 0 1.132 0l3.02-3.107a.841.841 0 0 0 0-1.165.785.785 0 0 0-1.132 0l-1.653 1.7v-8.994a.8.8 0 1 0-1.6 0v8.995l-1.653-1.7a.785.785 0 0 0-1.132 0 .841.841 0 0 0 0 1.165z" class="cls-2" transform="translate(-137.57 -24)"/>
            <path id="패스_3038" d="M38.681 232a.812.812 0 0 0-.8.824v6.315H25.6v-6.315a.8.8 0 1 0-1.6 0v6.59a1.354 1.354 0 0 0 1.335 1.373h12.812a1.354 1.354 0 0 0 1.335-1.373v-6.59a.812.812 0 0 0-.801-.824z" class="cls-2" transform="translate(-24 -224.861)"/>
        </g>
    </g>
</svg>
