<svg xmlns="http://www.w3.org/2000/svg" width="18" height="19" viewBox="0 0 18 19">
    <g fill="none" fill-rule="evenodd">
        <path fill="#4285F4" d="M17.476 7.548H9v3.568h4.844a4.251 4.251 0 01-1.796 2.784v2.315h2.908c1.702-1.606 2.684-3.97 2.684-6.78 0-.654-.057-1.283-.164-1.887z" transform="translate(0 .275)"/>
        <path fill="#34A853" d="M9 18.45c2.43 0 4.467-.826 5.956-2.235L12.048 13.9c-.806.554-1.837.881-3.048.881-2.344 0-4.328-1.623-5.036-3.803H.957v2.39C2.438 16.383 5.482 18.45 9 18.45z" transform="translate(0 .275)"/>
        <path fill="#FBBC05" d="M3.964 10.978a5.671 5.671 0 01-.282-1.753c0-.608.102-1.2.282-1.753v-2.39H.957A9.41 9.41 0 000 9.225a9.41 9.41 0 00.957 4.143l3.007-2.39z" transform="translate(0 .275)"/>
        <path fill="#EA4335" d="M9 3.669c1.321 0 2.508.465 3.44 1.38l2.582-2.646C13.463.914 11.426 0 9 0 5.482 0 2.438 2.067.957 5.082l3.007 2.39C4.672 5.292 6.656 3.67 9 3.67z" transform="translate(0 .275)"/>
    </g>
</svg>
