<svg xmlns="http://www.w3.org/2000/svg" xmlns:xlink="http://www.w3.org/1999/xlink" width="45" height="37" viewBox="0 0 45 37">
    <defs>
        <path id="prefix__a" d="M0.065 0.216L3.271 0.216 3.271 4.063 0.065 4.063z"/>
        <path id="prefix__c" d="M0 36.108L44.071 36.108 44.071 0 0 0z"/>
    </defs>
    <g fill="none" fill-rule="evenodd">
        <path fill="#5D77FF" d="M6.868 11.643H5.123a.444.444 0 01-.444-.444V9.454c0-.246.199-.445.444-.445h1.745c.246 0 .444.2.444.445v1.745a.444.444 0 01-.444.444M10.878 11.643H9.133a.444.444 0 01-.444-.444V9.454c0-.246.199-.445.444-.445h1.745c.245 0 .444.2.444.445v1.745a.444.444 0 01-.444.444M14.888 11.643h-1.745a.444.444 0 01-.444-.444V9.454c0-.246.199-.445.444-.445h1.745c.246 0 .444.2.444.445v1.745a.444.444 0 01-.444.444M18.898 11.643h-1.745a.444.444 0 01-.444-.444V9.454c0-.246.199-.445.444-.445h1.745c.245 0 .444.2.444.445v1.745a.444.444 0 01-.444.444M22.908 11.643h-1.745a.444.444 0 01-.444-.444V9.454c0-.246.199-.445.444-.445h1.745c.245 0 .444.2.444.445v1.745c0 .245-.199.444-.444.444M26.918 11.643h-1.745a.444.444 0 01-.444-.444V9.454c0-.246.199-.445.444-.445h1.745c.245 0 .444.2.444.445v1.745a.444.444 0 01-.444.444M30.928 11.643h-1.745a.444.444 0 01-.444-.444V9.454c0-.246.199-.445.444-.445h1.745c.245 0 .444.2.444.445v1.745a.444.444 0 01-.444.444M34.938 11.643h-1.745a.445.445 0 01-.444-.444V9.454c0-.246.199-.445.444-.445h1.745c.245 0 .444.2.444.445v1.745a.444.444 0 01-.444.444M38.948 11.643h-1.745a.444.444 0 01-.444-.444V9.454c0-.246.199-.445.444-.445h1.745c.245 0 .444.2.444.445v1.745a.444.444 0 01-.444.444M14.888 15.712h-1.745a.444.444 0 01-.444-.444v-1.745c0-.246.199-.445.444-.445h1.745c.246 0 .444.2.444.445v1.745a.444.444 0 01-.444.444M18.898 15.712h-1.745a.444.444 0 01-.444-.444v-1.745c0-.246.199-.445.444-.445h1.745c.245 0 .444.2.444.445v1.745a.444.444 0 01-.444.444M22.908 15.712h-1.745a.444.444 0 01-.444-.444v-1.745c0-.246.199-.445.444-.445h1.745c.245 0 .444.2.444.445v1.745c0 .245-.199.444-.444.444M26.918 15.712h-1.745a.444.444 0 01-.444-.444v-1.745c0-.246.199-.445.444-.445h1.745c.245 0 .444.2.444.445v1.745a.444.444 0 01-.444.444M30.928 15.712h-1.745a.444.444 0 01-.444-.444v-1.745c0-.246.199-.445.444-.445h1.745c.245 0 .444.2.444.445v1.745a.444.444 0 01-.444.444M18.898 19.78h-1.745a.444.444 0 01-.444-.444v-1.744c0-.246.199-.445.444-.445h1.745c.245 0 .444.199.444.445v1.744a.444.444 0 01-.444.445M22.908 19.78h-1.745a.444.444 0 01-.444-.444v-1.744c0-.246.199-.445.444-.445h1.745c.245 0 .444.199.444.445v1.744c0 .246-.199.445-.444.445M26.918 19.78h-1.745a.444.444 0 01-.444-.444v-1.744c0-.246.199-.445.444-.445h1.745c.245 0 .444.199.444.445v1.744a.444.444 0 01-.444.445"/>
        <path fill="#344154" d="M36.7 21.036a.45.45 0 01-.45-.45V17.64a.45.45 0 01.45-.45h1.154c.884 0 1.603.72 1.603 1.603a.45.45 0 11-.9 0 .704.704 0 00-.703-.703h-.704v2.496a.45.45 0 01-.45.45M42.204 31.008h-4.955a.45.45 0 110-.9h4.595a12.9 12.9 0 01.252-.89 22.486 22.486 0 001.068-6.31.446.446 0 01.461-.437.45.45 0 01.438.461 23.37 23.37 0 01-1.11 6.561c-.205.637-.306 1.146-.307 1.151a.45.45 0 01-.442.364"/>
        <path fill="#344154" d="M34.803 31.007a.45.45 0 01-.443-.372c-.003-.02-.374-2.044-1.685-3.509a9.232 9.232 0 01-1.033-1.422 8.109 8.109 0 01-1.138-4.167 1.82 1.82 0 011.817-1.818 1.83 1.83 0 011.623.998v-6.142c0-.884.719-1.604 1.603-1.604s1.603.72 1.603 1.604v3.064a.45.45 0 11-.9 0v-3.064a.705.705 0 00-1.407 0v8.54a.45.45 0 01-.87.162l-.795-2.07a.919.919 0 00-1.774.33c0 1.32.35 2.6 1.01 3.706.29.484.603.916.932 1.283 1.486 1.661 1.885 3.861 1.9 3.954a.45.45 0 01-.443.527M41.315 22.898a.45.45 0 01-.45-.45v-2.793a.705.705 0 00-.704-.704h-.703v2.497a.45.45 0 01-.9 0V18.5a.45.45 0 01.45-.45h1.153c.884 0 1.603.72 1.603 1.604v2.793a.45.45 0 01-.45.45"/>
        <g transform="translate(40.8 19.308)">
            <mask id="prefix__b" fill="#fff">
                <use xlink:href="#prefix__a"/>
            </mask>
            <path fill="#344154" d="M2.821 4.063a.45.45 0 01-.45-.45V1.82a.704.704 0 00-.703-.704H.515a.45.45 0 110-.9h1.153c.884 0 1.603.72 1.603 1.604v1.793a.45.45 0 01-.45.45" mask="url(#prefix__b)"/>
        </g>
        <mask id="prefix__d" fill="#fff">
            <use xlink:href="#prefix__c"/>
        </mask>
        <path fill="#344154" d="M34.347 35.208h8.045v-2.65h-8.045v2.65zm8.495.9h-8.945a.45.45 0 01-.45-.45v-3.55a.45.45 0 01.45-.45h8.945a.45.45 0 01.45.45v3.55a.45.45 0 01-.45.45z" mask="url(#prefix__d)"/>
        <path fill="#344154" d="M40.854 33.614a.27.27 0 100 .539.27.27 0 000-.539m0 .9a.632.632 0 110-1.263.632.632 0 010 1.263M41.764 16.663h-.9V7.668H3.208v8.995h-.9V7.218a.45.45 0 01.45-.45h38.558a.45.45 0 01.45.45v9.445zM31.427 29.295H12.574a.45.45 0 110-.9h18.853a.45.45 0 110 .9M7.371 21.036a.45.45 0 01-.45-.45V18.09h-.704a.704.704 0 00-.703.703.45.45 0 11-.9 0c0-.884.72-1.603 1.603-1.603h1.154a.45.45 0 01.45.45v2.946a.45.45 0 01-.45.45M6.823 31.008H1.867a.45.45 0 01-.441-.364c-.001-.005-.102-.514-.307-1.15a23.38 23.38 0 01-1.11-6.562.45.45 0 11.899-.023c.056 2.16.415 4.283 1.068 6.308.113.352.196.665.251.89h4.596a.45.45 0 110 .9" mask="url(#prefix__d)"/>
        <path fill="#344154" d="M9.269 31.008a.45.45 0 01-.444-.528c.016-.093.414-2.293 1.9-3.954a8.37 8.37 0 00.933-1.284 7.214 7.214 0 001.01-3.705.919.919 0 00-1.774-.33l-.796 2.07a.45.45 0 01-.87-.162v-8.54a.704.704 0 00-1.407 0v3.064a.45.45 0 11-.9 0v-3.064c0-.884.72-1.604 1.604-1.604.884 0 1.603.72 1.603 1.604v6.142a1.83 1.83 0 011.622-.998 1.82 1.82 0 011.818 1.818 8.114 8.114 0 01-1.138 4.168 9.265 9.265 0 01-1.034 1.421c-1.316 1.472-1.681 3.489-1.684 3.51a.45.45 0 01-.443.372M2.757 22.898a.45.45 0 01-.45-.45v-2.793c0-.884.72-1.604 1.604-1.604h1.153a.45.45 0 01.45.45v2.947a.45.45 0 11-.9 0V18.95H3.91a.705.705 0 00-.704.704v2.793a.45.45 0 01-.45.45" mask="url(#prefix__d)"/>
        <path fill="#344154" d="M.45 23.37a.45.45 0 01-.45-.45v-1.792c0-.884.72-1.603 1.604-1.603h1.153a.45.45 0 110 .9H1.604a.704.704 0 00-.704.703v1.793a.45.45 0 01-.45.45M1.68 35.208h8.044v-2.65H1.68v2.65zm8.494.9H1.23a.45.45 0 01-.45-.45v-3.55a.45.45 0 01.45-.45h8.945a.45.45 0 01.45.45v3.55a.45.45 0 01-.45.45z" mask="url(#prefix__d)"/>
        <path fill="#344154" d="M3.218 33.614a.27.27 0 100 .538.27.27 0 000-.538m0 .9a.632.632 0 11.001-1.263.632.632 0 01-.001 1.263M22.036 7.668a.45.45 0 01-.45-.45V6.09a.68.68 0 00-.678-.678h-6.173a1.58 1.58 0 01-1.578-1.578c0-.87.708-1.578 1.578-1.578h14.588a.68.68 0 000-1.356H22.03a.45.45 0 110-.9h7.294c.87 0 1.579.708 1.579 1.578a1.58 1.58 0 01-1.579 1.578H14.735a.679.679 0 000 1.356h6.173c.87 0 1.578.708 1.578 1.578v1.128a.45.45 0 01-.45.45" mask="url(#prefix__d)"/>
    </g>
</svg>
