<svg xmlns="http://www.w3.org/2000/svg" width="86" height="63" viewBox="0 0 86 63">
    <defs>
        <filter id="pj9h5qd3wa">
            <feColorMatrix in="SourceGraphic" values="0 0 0 0 1.000000 0 0 0 0 1.000000 0 0 0 0 1.000000 0 0 0 1.000000 0"/>
        </filter>
    </defs>
    <g fill="none" fill-rule="evenodd">
        <g>
            <g>
                <g>
                    <g filter="url(#pj9h5qd3wa)" transform="translate(-545 -3523) translate(0 3325) translate(397.778 104) translate(.266 .047)">
                        <g stroke="#344154" stroke-width="1.944">
                            <path stroke-linecap="round" stroke-linejoin="round" d="M35.973 48.987h10.398s-.246 2.656.279 5.265c.4 2 1.87 3.774 4.046 4.89.608.31.324 1.046-.405 1.046H21.656c-.73 0-1.014-.736-.405-1.047 2.175-1.115 3.645-2.89 4.046-4.89.525-2.608.279-5.264.279-5.264h10.397zM36.67 44.708c0 .385-.312.696-.697.696-.384 0-.696-.31-.696-.696 0-.384.312-.696.696-.696.385 0 .696.312.696.696z" transform="translate(148 95)"/>
                            <path stroke-linecap="round" stroke-linejoin="round" d="M59.978 48.987H3.84c-1.941 0-3.516-1.574-3.516-3.516V40.43h13.79M59.928 40.43H.325V4.137C.325 2.03 2.03.324 4.137.324H67.81c2.105 0 3.813 1.707 3.813 3.813V21.84" transform="translate(148 95)"/>
                            <path d="M80.931 52.533L62.315 52.533M81.481 60.188H61.764c-.986 0-1.787-.8-1.787-1.787V23.628c0-.987.8-1.787 1.787-1.787h19.718c.986 0 1.786.8 1.786 1.787V58.4c0 .987-.8 1.787-1.787 1.787z" transform="translate(148 95)"/>
                            <path d="M72.243 56.396c0-.343-.278-.621-.62-.621-.343 0-.621.278-.621.62 0 .343.278.621.62.621.343 0 .621-.278.621-.62z" transform="translate(148 95)"/>
                            <path stroke-linecap="round" stroke-linejoin="round" d="M69.315 25.719L71.623 25.719 73.93 25.719" transform="translate(148 95)"/>
                            <path d="M29.992 24.007v9.766h-10.23c-4.072 0-7.384-3.312-7.384-7.386 0-3.024 1.89-5.789 4.702-6.88l.16-.06.008-.172c.09-2.425 2.06-4.326 4.488-4.326.39 0 .76.045 1.093.13l.244.063.07-.245c1.331-4.661 5.655-7.916 10.51-7.916 4.562 0 8.689 2.876 10.267 7.158l.083.17h.181c5.373 0 9.744 4.365 9.744 9.73 0 3.442-1.84 6.657-4.805 8.393-1.482.878-3.19 1.341-4.939 1.341H36.314v-9.766" transform="translate(148 95)"/>
                            <path stroke-linecap="round" d="M38.699 26.5L33.152 20.953 27.607 26.5" transform="translate(148 95)"/>
                        </g>
                    </g>
                </g>
            </g>
        </g>
    </g>
</svg>
