<svg xmlns="http://www.w3.org/2000/svg" width="70.987" height="102" viewBox="0 0 70.987 102">
    <defs>
        <style>
            .cls-1{fill:#5c637b}
        </style>
    </defs>
    <g id="아이콘_미니츠" transform="translate(-745.289 -17.54)">
        <g id="그룹_13" transform="translate(745.289 37.657)">
            <path id="패스_79" d="M810.384 146.132h-16.808a2.8 2.8 0 0 0-2.8-2.8h-4.019a1.2 1.2 0 0 1 0 2.4h4.019a.4.4 0 0 1 .4.4v2.4a.4.4 0 0 1-.4.4h-19.99a.4.4 0 0 1-.4-.4v-2.4a.4.4 0 0 1 .4-.4h15.436a1.2 1.2 0 0 1 0-2.4h-15.435a2.8 2.8 0 0 0-2.8 2.8h-16.806a5.9 5.9 0 0 0-5.892 5.892v2.966a1.2 1.2 0 1 1 2.4 0v-2.966a3.5 3.5 0 0 1 3.493-3.493h16.808a2.8 2.8 0 0 0 2.8 2.8h19.99a2.8 2.8 0 0 0 2.8-2.8h16.808a3.5 3.5 0 0 1 3.493 3.493v17.531a1.2 1.2 0 0 1 2.4 0v-17.531a5.9 5.9 0 0 0-5.897-5.892z" class="cls-1" transform="translate(-745.289 -143.333)"/>
            <path id="패스_80" d="M993.754 144.532a1.2 1.2 0 0 0 1.2 1.2h.535a1.2 1.2 0 0 0 0-2.4h-.535a1.2 1.2 0 0 0-1.2 1.2z" class="cls-1" transform="translate(-954.019 -143.333)"/>
            <path id="패스_81" d="M939.328 583.35h-7.2v-1.329l-2.4 3.292v2.435a6 6 0 1 0 11.994 0v-2.4l-2.4-3.292zm0 4.4a3.6 3.6 0 1 1-7.2 0v-2h7.2z" class="cls-1" transform="translate(-900.237 -511.866)"/>
            <path id="패스_82" d="M939.877 509.425v-1.436l-.924-.674a3.247 3.247 0 0 0 .621 1.694z" class="cls-1" transform="translate(-907.982 -449.107)"/>
            <path id="패스_83" d="M989.733 557.11v4.021l2.4 3.292v-4.08z" class="cls-1" transform="translate(-950.641 -490.939)"/>
            <path id="패스_84" d="M967.768 503.462h1.207l.122-.2a.421.421 0 0 0-.065-.59l-.709-.517-1.175.856z" class="cls-1" transform="translate(-931.668 -444.771)"/>
            <path id="패스_85" d="M955.26 502.154l-.709.517a.421.421 0 0 0-.065.59l.122.2h1.207l.62-.452z" class="cls-1" transform="translate(-920.955 -444.771)"/>
            <path id="패스_86" d="M932.132 556.88l-2.4 3.233v4.079l2.4-3.292z" class="cls-1" transform="translate(-900.237 -490.745)"/>
            <path id="패스_87" d="M989.733 509.387l.276-.378a3.248 3.248 0 0 0 .621-1.694l-.9.654z" class="cls-1" transform="translate(-950.641 -449.107)"/>
            <path id="패스_88" d="M963.272 507.96h1.24l-.62-.452z" class="cls-1" transform="translate(-928.412 -449.269)"/>
            <path id="패스_89" d="M1175.376 299.818a1.2 1.2 0 0 0-1.2 1.2v1.826a1.2 1.2 0 1 0 2.4 0v-1.823a1.2 1.2 0 0 0-1.2-1.203z" class="cls-1" transform="translate(-1105.589 -274.793)"/>
            <path id="패스_90" d="M746.488 212.722a1.2 1.2 0 0 0 1.2-1.2v-1.6a1.2 1.2 0 1 0-2.4 0v1.6a1.2 1.2 0 0 0 1.2 1.2z" class="cls-1" transform="translate(-745.289 -198.266)"/>
        </g>
        <path id="패스_91" d="M935.73 17.54a6 6 0 0 0-6 6v5.308a6 6 0 0 0 11.994 0v-5.311a6 6 0 0 0-5.994-5.997zm3.6 8v3.309a3.6 3.6 0 0 1-7.2 0v-5.312a3.6 3.6 0 0 1 7.2 0v2z" class="cls-1" transform="translate(-154.948)"/>
        <g id="그룹_14" transform="translate(745.289 32.669)">
            <path id="패스_92" d="M989.624 465.554c-.036-.007-.072-.016-.109-.021h-.042c.05.005.101.013.151.021z" class="cls-1" transform="translate(-950.423 -409.019)"/>
            <path id="패스_93" d="M989.349 482.944l.747-.544-.491-.812a.452.452 0 0 0-.328-.187.4.4 0 0 1 .073.229z" class="cls-1" transform="translate(-950.257 -422.349)"/>
            <path id="패스_94" d="M992.029 500.941l-1.4 1.019a3.25 3.25 0 0 1-.621 1.694l-.276.378v5.891l2.4 3.233V501.08z" class="cls-1" transform="translate(-950.641 -438.764)"/>
            <path id="패스_95" d="M929.733 501.043v12.077l2.4-3.233v-5.817l-.3-.416a3.247 3.247 0 0 1-.621-1.694l-1.4-1.019z" class="cls-1" transform="translate(-900.237 -438.764)"/>
            <path id="패스_96" d="M944.536 465.533l-.038.007.052-.007z" class="cls-1" transform="translate(-912.64 -409.019)"/>
            <path id="패스_97" d="M951.288 467.321l2.08-1.516a2.617 2.617 0 0 1 .939-.272h-6.038a2.617 2.617 0 0 1 .939.272z" class="cls-1" transform="translate(-915.808 -409.019)"/>
            <path id="패스_98" d="M959.8 497.655l1.175.856 1.175-.856-1.175-.856z" class="cls-1" transform="translate(-925.495 -435.285)"/>
            <path id="패스_99" d="M940.743 481.383a.45.45 0 0 0-.358.19l-.491.812.774.564v-1.334a.4.4 0 0 1 .075-.232z" class="cls-1" transform="translate(-908.773 -422.334)"/>
            <path id="패스_100" d="M992.706 468.41v3.034l7.36 9.92-5.816 4.236-1.544-2.082v4.08l4.045 5.551c2.136 2.931 6.047 3.73 8.72 1.783s3.109-5.916.973-8.847l-13.944-19.13a3.189 3.189 0 0 0-2.085-1.291 2.8 2.8 0 0 1 2.291 2.746zm11.8 19.091a3.613 3.613 0 1 1-5.816 4.238l-2.89-4.011 5.816-4.238z" class="cls-1" transform="translate(-951.215 -409.129)"/>
            <path id="패스_101" d="M952.791 495.333h-2.35l1.5 1.091 1.175-.856z" class="cls-1" transform="translate(-917.633 -434.054)"/>
            <path id="패스_102" d="M970.167 465.533a2.617 2.617 0 0 0-.939.272l-2.08 1.516.794.578h2.418a.4.4 0 0 1 .327.171.452.452 0 0 1 .328.187l.491.812-.747.544v.34l.124.09a2.785 2.785 0 0 1 .773 2.171l1.4-1.019.1.139V468.3a2.8 2.8 0 0 0-2.29-2.746c-.05-.008-.1-.016-.151-.021z" class="cls-1" transform="translate(-931.668 -409.019)"/>
            <path id="패스_103" d="M842.914 481.292l7.388-9.957v-3a2.8 2.8 0 0 1 2.361-2.759 3.18 3.18 0 0 0-2.184 1.3l-13.943 19.133c-2.136 2.931-1.7 6.9.973 8.847s6.584 1.148 8.72-1.783l4.073-5.589v-4.079l-1.572 2.118zm1.376 10.375a3.614 3.614 0 1 1-5.816-4.238l2.89-4.01 5.816 4.238z" class="cls-1" transform="translate(-820.805 -409.057)"/>
            <path id="패스_104" d="M931.981 470.044l.151-.11v-.3l-.774-.564.491-.812a.45.45 0 0 1 .358-.19.4.4 0 0 1 .324-.168h2.391l.794-.578-2.08-1.516a2.617 2.617 0 0 0-.939-.272h-.551l-.052.007a2.8 2.8 0 0 0-2.361 2.759v3l.076-.1 1.4 1.019a2.785 2.785 0 0 1 .772-2.175z" class="cls-1" transform="translate(-900.237 -409.019)"/>
            <path id="패스_105" d="M967.469 495.333l-.322.234 1.175.856 1.5-1.091z" class="cls-1" transform="translate(-931.668 -434.054)"/>
            <path id="패스_106" d="M965.458 495.568l.322-.234h-.643z" class="cls-1" transform="translate(-929.979 -434.054)"/>
            <path id="패스_107" d="M977.057 493.266l-.124-.09v.345h-.94l-1.5 1.091.709.517a.421.421 0 0 1 .065.59l-.122.2h1.785v.171l.9-.654a2.785 2.785 0 0 0-.773-2.17z" class="cls-1" transform="translate(-937.841 -432.241)"/>
            <path id="패스_108" d="M939.84 493.416v-.365l-.151.11a2.785 2.785 0 0 0-.773 2.171l.924.674v-.191h1.76l-.122-.2a.421.421 0 0 1 .065-.59l.709-.517-1.5-1.091z" class="cls-1" transform="translate(-907.945 -432.136)"/>
            <path id="패스_109" d="M963.772 477.295l-.794-.578-.794.578z" class="cls-1" transform="translate(-927.498 -418.414)"/>
            <path id="패스_110" d="M815.076 242.217a1.2 1.2 0 0 1-1.2-1.2v9.8a3.5 3.5 0 0 1-3.493 3.493h-16.807a2.8 2.8 0 0 0-2.8-2.8h-7.263a1.2 1.2 0 1 1 0 2.4h7.263a.4.4 0 0 1 .4.4v2.4a.4.4 0 0 1-.4.4h-19.99a.4.4 0 0 1-.4-.4v-2.4a.4.4 0 0 1 .4-.4h12.727a1.2 1.2 0 0 1 0-2.4h-12.726a2.8 2.8 0 0 0-2.8 2.8h-16.806a3.5 3.5 0 0 1-3.493-3.493v-24.59a1.2 1.2 0 1 1-2.4 0v24.59a5.9 5.9 0 0 0 5.892 5.892h16.808a2.8 2.8 0 0 0 2.8 2.8h19.99a2.8 2.8 0 0 0 2.8-2.8h16.808a5.9 5.9 0 0 0 5.892-5.892v-9.8a1.2 1.2 0 0 1-1.202 1.2z" class="cls-1" transform="translate(-745.289 -207.983)"/>
            <path id="패스_111" d="M949.531 439.291h-2.4v-4.958h-2.4v4.99h.014a2.82 2.82 0 0 1 .551 0h6.038a2.82 2.82 0 0 1 .551 0h.042v-4.99h-2.4z" class="cls-1" transform="translate(-912.838 -382.808)"/>
            <path id="패스_112" d="M949.531 117.1h-2.4v-4.958h-2.4v4.99h.014a2.8 2.8 0 0 1 .551 0h6.038a2.8 2.8 0 0 1 .551 0h.042v-4.99h-2.4z" class="cls-1" transform="translate(-912.838 -112.145)"/>
            <circle id="타원_7" cx="1.199" cy="1.199" r="1.199" class="cls-1" transform="translate(37.026 43.529)"/>
            <path id="패스_113" d="M986.027 465.462h.551a2.821 2.821 0 0 0-.551 0z" class="cls-1" transform="translate(-947.528 -408.948)"/>
            <path id="패스_114" d="M944.823 465.462h.551a2.82 2.82 0 0 0-.551 0z" class="cls-1" transform="translate(-912.913 -408.948)"/>
        </g>
    </g>
</svg>
