<svg xmlns="http://www.w3.org/2000/svg" xmlns:xlink="http://www.w3.org/1999/xlink" width="40" height="42" viewBox="0 0 40 42">
    <defs>
        <path id="f9vao5bp5a" d="M0 0L14.437 0 14.437 21 0 21z"/>
    </defs>
    <g fill="none" fill-rule="evenodd">
        <g>
            <g>
                <g fill="#8B81F6" transform="translate(-1273 -111) translate(1273 111)">
                    <rect width="39.9" height="41.3" rx="9.8"/>
                </g>
                <g transform="translate(-1273 -111) translate(1273 111) translate(13 11)">
                    <mask id="ggm3o9b08b" fill="#fff">
                        <use xlink:href="#f9vao5bp5a"/>
                    </mask>
                    <path fill="#FFF" d="M3.28 10.5V3.938C3.28 1.763 5.046 0 7.22 0c2.174 0 3.937 1.763 3.937 3.938V10.5c0 2.175-1.763 3.938-3.937 3.938S3.28 12.675 3.28 10.5m11.156-1.97v1.97c0 3.646-2.718 6.664-6.234 7.146v1.385H10.5c.363 0 .656.294.656.657v.656c0 .363-.293.656-.656.656H3.937c-.362 0-.656-.293-.656-.656v-.656c0-.363.294-.657.656-.657h2.297v-1.4C2.624 17.133 0 13.855 0 10.179V8.53c0-.362.294-.656.656-.656h.656c.364 0 .657.294.657.656v1.736c0 2.74 1.998 5.192 4.725 5.458 3.13.305 5.775-2.157 5.775-5.225V8.53c0-.361.293-.655.656-.655h.656c.363 0 .656.294.656.656" mask="url(#ggm3o9b08b)"/>
                </g>
            </g>
        </g>
    </g>
</svg>
