<svg xmlns="http://www.w3.org/2000/svg" id="그룹_9" width="93.57" height="102.895" viewBox="0 0 93.57 102.895">
    <defs>
        <style>
            .cls-1{fill:#8487f5}.cls-2{fill:#fff}
        </style>
    </defs>
    <g id="그룹_35">
        <g id="패스_71">
            <path id="패스_142" d="M208.173 661.962h53.109v3.318h3.318v-8.3a8.306 8.306 0 0 0-8.3-8.3h-43.148a8.3 8.3 0 0 0-8.3 8.3v74.682h3.318zm0-4.98a4.99 4.99 0 0 1 4.98-4.98H256.3a4.992 4.992 0 0 1 4.978 4.98v1.659h-53.105z" class="cls-1" transform="translate(-204.855 -648.685)"/>
        </g>
        <g id="패스_72" transform="translate(0 86.299)">
            <path id="패스_143" d="M204.855 705.262a8.306 8.306 0 0 0 8.3 8.3H256.3a8.309 8.309 0 0 0 8.3-8.3v-8.3h-59.745zm3.318-4.978h53.109v4.978a4.993 4.993 0 0 1-4.978 4.98h-43.152a4.991 4.991 0 0 1-4.978-4.98z" class="cls-1" transform="translate(-204.855 -696.965)"/>
        </g>
        <g id="사각형_14" transform="translate(20.671 93.394)">
            <path id="사각형_27" d="M0 0H17.037V2.434H0z" class="cls-1"/>
        </g>
        <g id="그룹_32" transform="translate(48.106 35.647)">
            <g id="그룹_31">
                <path id="패스_144" d="M270.642 697.783l6.59-1.312v-10.217l-6.092-1.215-.5-.1c-.032-.081-.072-.159-.105-.24s-.055-.134-.084-.2l3.743-5.6-7.223-7.223-4.789 3.191-.808.54c-.147-.062-.291-.125-.438-.182l-1.324-6.592H249.397l-1.317 6.6c-.147.059-.293.118-.436.181l-5.595-3.729h-.005l-7.225 7.218 3.732 5.6c-.063.146-.125.295-.184.44l-6.592 1.319v10.217l3.923.785 2.672.534c.02.05.045.1.064.148.041.1.08.2.122.295l-3.73 5.6 7.225 7.225 5.595-3.732c.145.061.291.122.438.179l1.319 6.6h10.223l1.319-6.6c.147-.059.293-.118.436-.181l3.069 2.045 2.524 1.686 7.223-7.225-3.732-5.6.02-.047c.049-.143.105-.277.157-.408z" class="cls-1" transform="translate(-231.768 -668.628)"/>
            </g>
            <g id="패스_73" transform="translate(14.709 14.711)">
                <path id="패스_145" d="M248.019 676.858a8.023 8.023 0 1 0 8.024 8.024 8.023 8.023 0 0 0-8.024-8.024zm0 13.372a5.349 5.349 0 1 1 5.35-5.348 5.354 5.354 0 0 1-5.35 5.348z" class="cls-2" transform="translate(-239.997 -676.858)"/>
            </g>
        </g>
        <g id="그룹_34" transform="translate(10.534 20.145)">
            <g id="그룹_33">
                <path id="패스_146" d="M241.11 682.725l5.148-1.024v-7.979l-4.758-.951-.393-.079c-.025-.063-.057-.125-.082-.188l-.066-.156 2.923-4.372-5.641-5.641-3.739 2.494-.631.42c-.114-.048-.229-.1-.341-.141l-1.035-5.15h-7.974l-1.03 5.15c-.114.047-.229.093-.341.141l-4.369-2.912-5.643 5.638 2.915 4.37c-.048.114-.1.229-.143.343l-5.15 1.031v7.981l3.065.611 2.086.42c.016.038.036.075.052.115.03.077.063.154.095.23l-2.914 4.37 5.643 5.643 4.369-2.915c.113.048.227.095.341.141l1.031 5.15h7.972l1.031-5.151c.114-.046.229-.093.34-.141l2.4 1.6 1.972 1.316 5.643-5.641-2.914-4.372.014-.036c.04-.109.083-.213.124-.315z" class="cls-1" transform="translate(-210.748 -659.955)"/>
            </g>
            <g id="패스_73-2" transform="translate(11.488 11.49)">
                <path id="패스_147" d="M223.442 666.383a6.266 6.266 0 1 0 6.265 6.265 6.266 6.266 0 0 0-6.265-6.265zm0 10.444a4.178 4.178 0 1 1 4.177-4.179 4.183 4.183 0 0 1-4.177 4.179z" class="cls-2" transform="translate(-217.175 -666.383)"/>
            </g>
        </g>
        <g id="사각형_15" transform="translate(26.463 62.971)">
            <path id="사각형_28" d="M0 0H3.651V3.651H0z" class="cls-1"/>
        </g>
        <g id="사각형_16" transform="translate(26.463 69.055)">
            <path id="사각형_29" d="M0 0H3.651V3.651H0z" class="cls-1"/>
        </g>
        <g id="사각형_17" transform="translate(26.463 76.357)">
            <path id="사각형_30" d="M0 0H3.651V3.651H0z" class="cls-1"/>
        </g>
        <g id="사각형_18" transform="translate(68.084 26.462)">
            <path id="사각형_31" d="M0 0H2.434V3.651H0z" class="cls-1"/>
        </g>
        <g id="사각형_19" transform="translate(68.084 20.377)">
            <path id="사각형_32" d="M0 0H2.434V2.434H0z" class="cls-1"/>
        </g>
        <g id="사각형_20" transform="translate(68.084 13.076)">
            <path id="사각형_33" d="M0 0H2.434V3.651H0z" class="cls-1"/>
        </g>
    </g>
</svg>
