<svg xmlns="http://www.w3.org/2000/svg" width="87" height="68" viewBox="0 0 87 68">
    <defs>
        <filter id="limec9g7ca">
            <feColorMatrix in="SourceGraphic" values="0 0 0 0 1.000000 0 0 0 0 1.000000 0 0 0 0 1.000000 0 0 0 1.000000 0"/>
        </filter>
    </defs>
    <g fill="none" fill-rule="evenodd">
        <g>
            <g>
                <g>
                    <g filter="url(#limec9g7ca)" transform="translate(-916 -3516) translate(0 3325) translate(397.778 104) translate(372.266 .047)">
                        <g stroke="#344154" stroke-width="1.944">
                            <path stroke-linejoin="round" d="M26.061 36.163c0-.835 1.225-13.973 1.225-13.973l8.852-5.791M58.352 36.163c0-.835-1.225-13.973-1.225-13.973l-8.852-5.791" transform="translate(147 88)"/>
                            <path stroke-linecap="round" stroke-linejoin="round" d="M42.207 22.003L36.141 16.399M48.278 16.398L42.207 22.003M48.654 27.187L52.629 27.187M47.893 7.305c0-3.856-2.546-6.981-5.686-6.981-3.141 0-5.687 3.125-5.687 6.98 0 3.856 2.546 6.981 5.687 6.981 3.14 0 5.686-3.125 5.686-6.98z" transform="translate(147 88)"/>
                            <path stroke-linejoin="round" d="M56.983 22.315L62.933 19.811" transform="translate(147 88)"/>
                            <path stroke-linecap="round" stroke-linejoin="round" d="M67.012 22.689L62.932 19.811" transform="translate(147 88)"/>
                            <path stroke-linejoin="round" d="M78.451 36.198c0-.561-1.411-13.883-1.411-13.883l-5.95-2.504" transform="translate(147 88)"/>
                            <path stroke-linecap="round" stroke-linejoin="round" d="M71.09 19.81L67.012 22.689 67.012 30.948M71.34 11.617c0-2.934-1.938-5.312-4.329-5.312-2.39 0-4.328 2.378-4.328 5.312 0 2.935 1.938 5.314 4.328 5.314 2.39 0 4.328-2.379 4.328-5.314z" transform="translate(147 88)"/>
                            <path stroke-linejoin="round" d="M27.43 22.315L21.48 19.811" transform="translate(147 88)"/>
                            <path stroke-linecap="round" stroke-linejoin="round" d="M17.402 22.689L21.481 19.811" transform="translate(147 88)"/>
                            <path stroke-linejoin="round" d="M5.954 36.198c0-.561 1.42-13.883 1.42-13.883l5.95-2.504" transform="translate(147 88)"/>
                            <path stroke-linecap="round" stroke-linejoin="round" d="M13.323 19.81L17.402 22.689 17.402 30.948M13.074 11.617c0-2.934 1.937-5.312 4.328-5.312 2.39 0 4.328 2.378 4.328 5.312 0 2.935-1.938 5.314-4.328 5.314-2.39 0-4.328-2.379-4.328-5.314z" transform="translate(147 88)"/>
                            <path d="M77.021 36.164H7.391c-3.903 0-7.067 3.164-7.067 7.067v22.696h11.431c1.685 0 3.05-1.366 3.05-3.05v-.238c0-4.405 3.572-7.977 7.979-7.977h38.845c4.406 0 7.978 3.572 7.978 7.977v.238c0 1.684 1.366 3.05 3.05 3.05H84.09V43.23c0-3.903-3.165-7.067-7.068-7.067z" transform="translate(147 88)"/>
                            <path stroke-linecap="round" d="M22.35 48.91L62.063 48.91" transform="translate(147 88)"/>
                            <path stroke-linecap="round" stroke-linejoin="round" d="M42.207 22.003L42.207 27.187" transform="translate(147 88)"/>
                        </g>
                    </g>
                </g>
            </g>
        </g>
    </g>
</svg>
