<svg xmlns="http://www.w3.org/2000/svg" xmlns:xlink="http://www.w3.org/1999/xlink" width="59" height="61" viewBox="0 0 59 61">
    <defs>
        <path id="awruzc3rpa" d="M0 0.013L11.501 0.013 11.501 7.983 0 7.983z"/>
        <path id="m5yv7jxizc" d="M0.075 0.054L37.644 0.054 37.644 20.817 0.075 20.817z"/>
    </defs>
    <g fill="none" fill-rule="evenodd">
        <g>
            <g transform="translate(-613 -213) translate(613 213)">
                <rect width="58.8" height="60.2" fill="#5B657E" rx="14"/>
                <g>
                    <path fill="#FFF" d="M19.377 23.272c-1.255 0-2.276 1.02-2.276 2.276 0 1.255 1.02 2.276 2.276 2.276 1.255 0 2.276-1.021 2.276-2.276s-1.021-2.276-2.276-2.276m0 5.761c-1.922 0-3.486-1.563-3.486-3.485s1.564-3.486 3.486-3.486c1.922 0 3.485 1.564 3.485 3.486 0 1.922-1.563 3.485-3.485 3.485M14.111 37.685c-.029 0-.058-.002-.088-.006-.33-.049-.56-.356-.511-.686l.578-3.964c.008-.055.017-.105.026-.154.354-1.831 1.99-3.16 3.892-3.16h2.77c1.9 0 3.537 1.329 3.89 3.16l.027.148.547 3.793c.048.33-.182.637-.512.685-.33.047-.638-.182-.685-.513l-.547-3.786c-.004-.029-.01-.063-.017-.098-.244-1.263-1.381-2.18-2.703-2.18h-2.77c-1.323 0-2.46.917-2.704 2.18l-.018.104-.577 3.96c-.044.3-.303.517-.598.517M5.871 23.272c-1.255 0-2.276 1.02-2.276 2.276 0 1.255 1.021 2.276 2.276 2.276s2.276-1.021 2.276-2.276-1.02-2.276-2.276-2.276m0 5.761c-1.922 0-3.485-1.563-3.485-3.485s1.563-3.486 3.485-3.486 3.486 1.564 3.486 3.486c0 1.922-1.564 3.485-3.486 3.485" transform="translate(9.8 11.2)"/>
                    <g transform="translate(9.8 11.2) translate(0 29.702)">
                        <mask id="64nshhd6bb" fill="#fff">
                            <use xlink:href="#awruzc3rpa"/>
                        </mask>
                        <path fill="#FFF" d="M.606 7.983c-.03 0-.059-.002-.088-.006-.33-.048-.56-.355-.512-.686l.578-3.964.027-.154C.965 1.342 2.601.013 4.502.013h2.77c1.901 0 3.538 1.329 3.891 3.16.01.05.018.099.026.149l.005.044.305 3.786c.027.333-.222.624-.555.651-.332.027-.624-.221-.65-.554L9.99 3.486l-.014-.083c-.244-1.264-1.381-2.18-2.704-2.18h-2.77c-1.322 0-2.46.916-2.703 2.18-.007.034-.013.069-.018.103l-.578 3.96c-.044.3-.302.517-.597.517" mask="url(#64nshhd6bb)"/>
                    </g>
                    <path fill="#FFF" d="M32.714 23.272c-1.255 0-2.276 1.02-2.276 2.276 0 1.255 1.021 2.276 2.276 2.276s2.276-1.021 2.276-2.276-1.02-2.276-2.276-2.276m0 5.761c-1.922 0-3.485-1.563-3.485-3.485s1.563-3.486 3.485-3.486 3.486 1.564 3.486 3.486c0 1.922-1.564 3.485-3.486 3.485M27.69 37.685c-.017 0-.034 0-.051-.002-.333-.028-.58-.321-.552-.654l.336-3.964.005-.042c.008-.05.016-.099.026-.148.354-1.831 1.99-3.16 3.891-3.16h2.77c1.9 0 3.537 1.329 3.891 3.16.01.049.018.098.026.148l.547 3.793c.048.33-.181.637-.512.685-.33.047-.637-.182-.685-.513l-.546-3.786-.017-.098c-.244-1.263-1.381-2.18-2.704-2.18h-2.77c-1.322 0-2.46.917-2.703 2.18-.006.028-.01.056-.015.085l-.335 3.942c-.026.316-.29.554-.602.554" transform="translate(9.8 11.2)"/>
                    <g transform="translate(9.8 11.2) translate(.806 .026)">
                        <mask id="dxdatysd6d" fill="#fff">
                            <use xlink:href="#m5yv7jxizc"/>
                        </mask>
                        <path fill="#FFF" d="M9.773 16.63h7.251c.225 0 .431.124.536.323l1.03 1.965 1.048-1.968c.106-.198.31-.32.534-.32h7.774c.143 0 .281.05.39.143l2.341 1.984-.211-1.78c-.035-.293.148-.57.432-.652 1.565-.454 2.974-1.422 3.968-2.726 1.026-1.346 1.569-2.955 1.569-4.652 0-4.237-3.447-7.683-7.683-7.683H8.967c-4.236 0-7.683 3.446-7.683 7.683 0 3.305 2.104 6.232 5.235 7.284.271.091.441.36.408.644l-.235 1.977 2.711-2.096c.106-.082.237-.127.37-.127m21.686 4.188c-.14 0-.28-.049-.39-.144l-3.345-2.834h-7.189l-1.415 2.657c-.105.198-.31.321-.533.321h-.002c-.225 0-.43-.125-.534-.324l-1.393-2.654H9.98L6.29 20.69c-.193.149-.456.167-.668.047-.212-.12-.331-.355-.302-.597l.348-2.934c-3.366-1.341-5.594-4.6-5.594-8.26C.075 4.044 4.064.054 8.967.054h19.785c4.903 0 8.892 3.99 8.892 8.893 0 1.964-.628 3.827-1.816 5.385-1.045 1.371-2.488 2.421-4.102 2.996l.334 2.813c.03.247-.096.486-.315.604-.09.048-.188.072-.286.072" mask="url(#dxdatysd6d)"/>
                    </g>
                    <path fill="#FFF" d="M13.897 9.41c0 .638-.518 1.156-1.156 1.156-.639 0-1.156-.518-1.156-1.156 0-.639.517-1.157 1.156-1.157.638 0 1.156.518 1.156 1.157M20.822 9.41c0 .638-.518 1.156-1.156 1.156-.639 0-1.156-.518-1.156-1.156 0-.639.517-1.157 1.156-1.157.638 0 1.156.518 1.156 1.157M27.747 9.41c0 .638-.518 1.156-1.156 1.156-.639 0-1.156-.518-1.156-1.156 0-.639.517-1.157 1.156-1.157.638 0 1.156.518 1.156 1.157" transform="translate(9.8 11.2)"/>
                </g>
            </g>
        </g>
    </g>
</svg>
