<?xml version="1.0" encoding="utf-8"?>
<!-- Generator: Adobe Illustrator 24.3.0, SVG Export Plug-In . SVG Version: 6.00 Build 0)  -->
<svg version="1.1" id="레이어_1" xmlns="http://www.w3.org/2000/svg" xmlns:xlink="http://www.w3.org/1999/xlink" x="0px"
	 y="0px" viewBox="0 0 410 345" style="enable-background:new 0 0 410 345;" xml:space="preserve">
<style type="text/css">
	.st0{fill-rule:evenodd;clip-rule:evenodd;fill:#FFFFFF;}
	.st1{fill:#FFFFFF;}
	.st2{opacity:0.5;}
	.st3{fill-rule:evenodd;clip-rule:evenodd;fill:#E8E8E8;}
	.st4{enable-background:new    ;}
	.st5{fill:#8487F5;}
	.st6{fill-rule:evenodd;clip-rule:evenodd;fill:#5ED3E1;}
	.st7{fill:#2C2C2C;}
	.st8{fill:#706F71;}
	.st9{opacity:0.1;fill-rule:evenodd;clip-rule:evenodd;fill:#8487F5;enable-background:new    ;}
	.st10{opacity:0.2;fill-rule:evenodd;clip-rule:evenodd;fill:#8487F5;enable-background:new    ;}
	.st11{fill-rule:evenodd;clip-rule:evenodd;fill:#8487F5;}
</style>
<g>
	
		<image style="overflow:visible;opacity:0.2;enable-background:new    ;" width="502" height="437" xlink:href="3D9FDA99.png"  transform="matrix(0.9979 0 0 0.9979 -40.0073 -46.0762)">
	</image>
	<g>
		<g>
			<g transform="translate(-378 -2778) translate(418 2721) translate(0 87) translate(10)">
				<g>
					<path id="huvibyr94b_12_" class="st0" d="M0,0h310v245H0V0z"/>
				</g>
				<g>
					<path class="st1" d="M310,255H0c-5.5,0-10-4.5-10-10V0c0-5.5,4.5-10,10-10h310c5.5,0,10,4.5,10,10v245
						C320,250.5,315.5,255,310,255z M10,235h290V10H10V235z"/>
				</g>
			</g>
		</g>
	</g>
</g>
<g transform="translate(-378 -2778) translate(418 2721) translate(0 87) translate(10) translate(118 85)" class="st2">
	<circle class="st3" cx="36.8" cy="36.8" r="36.8"/>
</g>
<g class="st4">
	<path class="st5" d="M185,215h-2.7v-10.3c-1,0.9-2.2,1.6-3.5,2.1v-2.5c0.7-0.2,1.5-0.7,2.3-1.3s1.4-1.4,1.7-2.3h2.2V215z"/>
	<path class="st5" d="M197.9,212.5v2.5h-9.6c0.1-1,0.4-1.9,0.9-2.7s1.5-2,3.1-3.4c1.2-1.2,2-1.9,2.3-2.3c0.4-0.6,0.6-1.1,0.6-1.7
		c0-0.6-0.2-1.1-0.5-1.4s-0.8-0.5-1.4-0.5c-0.6,0-1,0.2-1.4,0.5s-0.5,0.9-0.6,1.7l-2.7-0.3c0.2-1.5,0.7-2.6,1.5-3.3s1.9-1,3.2-1
		c1.4,0,2.5,0.4,3.3,1.1s1.2,1.7,1.2,2.8c0,0.6-0.1,1.3-0.3,1.8s-0.6,1.2-1.1,1.8c-0.3,0.4-0.9,1-1.8,1.8s-1.4,1.3-1.6,1.6
		s-0.4,0.5-0.6,0.8h5.5V212.5z"/>
	<path class="st5" d="M205.4,207.4v-2.7h2.7v2.7H205.4z M205.4,215v-2.7h2.7v2.7H205.4z"/>
	<path class="st5" d="M220.1,200.6c1.4,0,2.5,0.5,3.3,1.5c0.9,1.2,1.4,3.1,1.4,5.8s-0.5,4.7-1.4,5.8c-0.8,1-1.9,1.5-3.2,1.5
		c-1.4,0-2.5-0.5-3.4-1.6s-1.3-3-1.3-5.7s0.5-4.6,1.4-5.8C217.7,201.1,218.8,200.6,220.1,200.6z M220.1,202.9
		c-0.3,0-0.6,0.1-0.9,0.3c-0.3,0.2-0.5,0.6-0.6,1.1c-0.2,0.7-0.3,1.9-0.3,3.6s0.1,2.8,0.3,3.5c0.2,0.6,0.4,1,0.6,1.3
		c0.3,0.2,0.6,0.3,0.9,0.3s0.6-0.1,0.9-0.3c0.3-0.2,0.5-0.6,0.6-1.1c0.2-0.7,0.3-1.9,0.3-3.6s-0.1-2.8-0.3-3.5
		c-0.2-0.6-0.4-1-0.6-1.3C220.8,203,220.5,202.9,220.1,202.9z"/>
	<path class="st5" d="M235.4,204.2l-2.7,0.3c-0.1-0.5-0.2-1-0.5-1.2s-0.6-0.4-1.1-0.4c-0.6,0-1.1,0.3-1.5,0.8s-0.7,1.6-0.8,3.3
		c0.7-0.8,1.5-1.2,2.5-1.2c1.1,0,2.1,0.4,2.9,1.3c0.8,0.9,1.2,2,1.2,3.4c0,1.5-0.4,2.6-1.3,3.5s-2,1.3-3.3,1.3
		c-1.4,0-2.6-0.6-3.6-1.7c-0.9-1.1-1.4-3-1.4-5.5c0-2.6,0.5-4.5,1.5-5.7s2.2-1.7,3.8-1.7c1.1,0,2,0.3,2.7,0.9S235.2,203,235.4,204.2
		z M229.2,210.2c0,0.9,0.2,1.6,0.6,2.1s0.9,0.7,1.4,0.7s0.9-0.2,1.3-0.6c0.3-0.4,0.5-1,0.5-2c0-0.9-0.2-1.6-0.5-2
		c-0.4-0.4-0.8-0.6-1.4-0.6c-0.5,0-1,0.2-1.3,0.6C229.4,208.8,229.2,209.4,229.2,210.2z"/>
</g>
<g>
	<g transform="translate(-378 -2778) translate(418 2721) translate(0 87) translate(10) translate(50 199)">
		<path class="st6" d="M0.6,20.8h1.3c0.4,0,0.6,0.3,0.6,0.6l0,0c0,0.4-0.3,0.6-0.6,0.6H0.6C0.2,22,0,21.7,0,21.4l0,0
			C0,21.1,0.3,20.8,0.6,20.8z"/>
		<path class="st6" d="M4.6,20.8h1.3c0.4,0,0.7,0.3,0.7,0.6l0,0c0,0.4-0.3,0.6-0.7,0.6H4.6c-0.4,0-0.7-0.3-0.7-0.6l0,0
			C3.9,21.1,4.2,20.8,4.6,20.8z"/>
		<path class="st6" d="M8.4,20.8h1.3c0.4,0,0.6,0.3,0.6,0.6l0,0c0,0.4-0.3,0.6-0.6,0.6H8.4c-0.4,0-0.6-0.3-0.6-0.6l0,0
			C7.8,21.1,8.1,20.8,8.4,20.8z"/>
		<path class="st6" d="M12.3,20.8h1.3c0.4,0,0.6,0.3,0.6,0.6l0,0c0,0.4-0.3,0.6-0.6,0.6h-1.3c-0.4,0-0.6-0.3-0.6-0.6l0,0
			C11.7,21.1,12,20.8,12.3,20.8z"/>
		<path class="st6" d="M16.3,20.8h1.3c0.4,0,0.6,0.3,0.6,0.6l0,0c0,0.4-0.3,0.6-0.6,0.6h-1.3c-0.4,0-0.6-0.3-0.6-0.6l0,0
			C15.6,21.1,15.9,20.8,16.3,20.8z"/>
		<path class="st6" d="M20.1,20.8h1.3c0.4,0,0.6,0.3,0.6,0.6l0,0c0,0.4-0.3,0.6-0.6,0.6h-1.3c-0.4,0-0.6-0.3-0.6-0.6l0,0
			C19.5,21.1,19.8,20.8,20.1,20.8z"/>
		<path class="st6" d="M24,20.8h1.3c0.4,0,0.6,0.3,0.6,0.6l0,0c0,0.4-0.3,0.6-0.6,0.6H24c-0.4,0-0.6-0.3-0.6-0.6l0,0
			C23.4,21.1,23.7,20.8,24,20.8z"/>
		<path class="st6" d="M27.9,20.8h1.3c0.4,0,0.6,0.3,0.6,0.6l0,0c0,0.4-0.3,0.6-0.6,0.6h-1.3c-0.4,0-0.6-0.3-0.6-0.6l0,0
			C27.3,21.1,27.6,20.8,27.9,20.8z"/>
		<path class="st6" d="M115.1,20.8h1.3c0.4,0,0.7,0.3,0.7,0.6l0,0c0,0.4-0.3,0.6-0.7,0.6h-1.3c-0.4,0-0.7-0.3-0.7-0.6l0,0
			C114.4,21.1,114.7,20.8,115.1,20.8z"/>
		<path class="st6" d="M31.9,20.8h1.3c0.4,0,0.7,0.3,0.7,0.6l0,0c0,0.4-0.3,0.6-0.7,0.6h-1.3c-0.4,0-0.6-0.3-0.6-0.6l0,0
			C31.2,21.1,31.5,20.8,31.9,20.8z"/>
		<path class="st6" d="M119,20.8h1.3c0.4,0,0.7,0.3,0.7,0.6l0,0c0,0.4-0.3,0.6-0.7,0.6H119c-0.4,0-0.7-0.3-0.7-0.6l0,0
			C118.3,21.1,118.6,20.8,119,20.8z"/>
		<path class="st6" d="M35.8,20.8H37c0.4,0,0.7,0.3,0.7,0.6l0,0c0,0.4-0.3,0.6-0.7,0.6h-1.3c-0.4,0-0.7-0.3-0.7-0.6l0,0
			C35.1,21.1,35.4,20.8,35.8,20.8z"/>
		<path class="st6" d="M122.8,20.8h1.3c0.4,0,0.7,0.3,0.7,0.6l0,0c0,0.4-0.3,0.6-0.7,0.6h-1.3c-0.4,0-0.7-0.3-0.7-0.6l0,0
			C122.2,21.1,122.5,20.8,122.8,20.8z"/>
		<path class="st6" d="M40.3,18.2L40.3,18.2c0.7,0,1.3,0.6,1.3,1.3v1.3c0,0.7-0.6,1.3-1.3,1.3l0,0c-0.7,0-1.3-0.6-1.3-1.3v-1.3
			C39,18.8,39.6,18.2,40.3,18.2z"/>
		<path class="st6" d="M44.2,14.3L44.2,14.3c0.7,0,1.3,0.6,1.3,1.3v5.2c0,0.7-0.6,1.3-1.3,1.3l0,0c-0.7,0-1.3-0.6-1.3-1.3v-5.2
			C42.9,14.9,43.5,14.3,44.2,14.3z"/>
		<path class="st6" d="M48.1,14.3L48.1,14.3c0.7,0,1.3,0.6,1.3,1.3v5.2c0,0.7-0.6,1.3-1.3,1.3l0,0c-0.7,0-1.3-0.6-1.3-1.3v-5.2
			C46.8,14.9,47.4,14.3,48.1,14.3z"/>
		<path class="st6" d="M52,6.5L52,6.5c0.7,0,1.3,0.6,1.3,1.3v13c0,0.7-0.6,1.3-1.3,1.3l0,0c-0.7,0-1.3-0.6-1.3-1.3v-13
			C50.7,7.1,51.3,6.5,52,6.5z"/>
		<path class="st6" d="M55.9,14.3L55.9,14.3c0.7,0,1.3,0.6,1.3,1.3v5.2c0,0.7-0.6,1.3-1.3,1.3l0,0c-0.7,0-1.3-0.6-1.3-1.3v-5.2
			C54.6,14.9,55.2,14.3,55.9,14.3z"/>
		<path class="st6" d="M59.8,10.4L59.8,10.4c0.7,0,1.3,0.6,1.3,1.3v9.1c0,0.7-0.6,1.3-1.3,1.3l0,0c-0.7,0-1.3-0.6-1.3-1.3v-9.1
			C58.5,11,59.1,10.4,59.8,10.4z"/>
		<path class="st6" d="M63.7,14.3L63.7,14.3c0.7,0,1.3,0.6,1.3,1.3v5.2c0,0.7-0.6,1.3-1.3,1.3l0,0c-0.7,0-1.3-0.6-1.3-1.3v-5.2
			C62.4,14.9,63,14.3,63.7,14.3z"/>
		<path class="st6" d="M67.6,13L67.6,13c0.7,0,1.3,0.6,1.3,1.3v6.5c0,0.7-0.6,1.3-1.3,1.3l0,0c-0.7,0-1.3-0.6-1.3-1.3v-6.5
			C66.3,13.6,66.9,13,67.6,13z"/>
		<path class="st6" d="M71.5,3.9L71.5,3.9c0.7,0,1.3,0.6,1.3,1.3v15.6c0,0.7-0.6,1.3-1.3,1.3l0,0c-0.7,0-1.3-0.6-1.3-1.3V5.2
			C70.2,4.5,70.8,3.9,71.5,3.9z"/>
		<path class="st6" d="M75.4,0L75.4,0c0.7,0,1.3,0.6,1.3,1.3v19.5c0,0.7-0.6,1.3-1.3,1.3l0,0c-0.7,0-1.3-0.6-1.3-1.3V1.3
			C74.1,0.6,74.7,0,75.4,0z"/>
		<path class="st6" d="M79.3,13L79.3,13c0.7,0,1.3,0.6,1.3,1.3v6.5c0,0.7-0.6,1.3-1.3,1.3l0,0c-0.7,0-1.3-0.6-1.3-1.3v-6.5
			C78,13.6,78.6,13,79.3,13z"/>
		<path class="st6" d="M83.2,11.7L83.2,11.7c0.7,0,1.3,0.6,1.3,1.3v7.8c0,0.7-0.6,1.3-1.3,1.3l0,0c-0.7,0-1.3-0.6-1.3-1.3V13
			C81.9,12.3,82.5,11.7,83.2,11.7z"/>
		<path class="st6" d="M87.1,15.6L87.1,15.6c0.7,0,1.3,0.6,1.3,1.3v3.9c0,0.7-0.6,1.3-1.3,1.3l0,0c-0.7,0-1.3-0.6-1.3-1.3v-3.9
			C85.8,16.2,86.4,15.6,87.1,15.6z"/>
		<path class="st6" d="M91,11.7L91,11.7c0.7,0,1.3,0.6,1.3,1.3v7.8c0,0.7-0.6,1.3-1.3,1.3l0,0c-0.7,0-1.3-0.6-1.3-1.3V13
			C89.7,12.3,90.3,11.7,91,11.7z"/>
		<path class="st6" d="M94.9,5.2L94.9,5.2c0.7,0,1.3,0.6,1.3,1.3v14.3c0,0.7-0.6,1.3-1.3,1.3l0,0c-0.7,0-1.3-0.6-1.3-1.3V6.5
			C93.6,5.8,94.2,5.2,94.9,5.2z"/>
		<path class="st6" d="M98.8,9.1L98.8,9.1c0.7,0,1.3,0.6,1.3,1.3v10.4c0,0.7-0.6,1.3-1.3,1.3l0,0c-0.7,0-1.3-0.6-1.3-1.3V10.4
			C97.5,9.7,98.1,9.1,98.8,9.1z"/>
		<path class="st6" d="M104,11.7L104,11.7c0.7,0,1.3,0.6,1.3,1.3v7.8c0,0.7-0.6,1.3-1.3,1.3l0,0c-0.7,0-1.3-0.6-1.3-1.3V13
			C102.7,12.3,103.3,11.7,104,11.7z"/>
		<path class="st6" d="M107.9,14.3L107.9,14.3c0.7,0,1.3,0.6,1.3,1.3v5.2c0,0.7-0.6,1.3-1.3,1.3l0,0c-0.7,0-1.3-0.6-1.3-1.3v-5.2
			C106.6,14.9,107.2,14.3,107.9,14.3z"/>
		<path class="st6" d="M111.8,15.6L111.8,15.6c0.7,0,1.3,0.6,1.3,1.3v3.9c0,0.7-0.6,1.3-1.3,1.3l0,0c-0.7,0-1.3-0.6-1.3-1.3v-3.9
			C110.5,16.2,111.1,15.6,111.8,15.6z"/>
	</g>
	<g transform="translate(-378 -2778) translate(418 2721) translate(0 87) translate(10) translate(50 199) translate(86)">
		<path class="st6" d="M0.6,20.8h1.3c0.4,0,0.6,0.3,0.6,0.6l0,0c0,0.4-0.3,0.6-0.6,0.6H0.6C0.2,22,0,21.7,0,21.4l0,0
			C0,21.1,0.3,20.8,0.6,20.8z"/>
		<path class="st6" d="M4.6,20.8h1.3c0.4,0,0.7,0.3,0.7,0.6l0,0c0,0.4-0.3,0.6-0.7,0.6H4.6c-0.4,0-0.7-0.3-0.7-0.6l0,0
			C3.9,21.1,4.2,20.8,4.6,20.8z"/>
		<path class="st6" d="M8.4,20.8h1.3c0.4,0,0.6,0.3,0.6,0.6l0,0c0,0.4-0.3,0.6-0.6,0.6H8.4c-0.4,0-0.6-0.3-0.6-0.6l0,0
			C7.8,21.1,8.1,20.8,8.4,20.8z"/>
		<path class="st6" d="M12.3,20.8h1.3c0.4,0,0.6,0.3,0.6,0.6l0,0c0,0.4-0.3,0.6-0.6,0.6h-1.3c-0.4,0-0.6-0.3-0.6-0.6l0,0
			C11.7,21.1,12,20.8,12.3,20.8z"/>
		<path class="st6" d="M16.3,20.8h1.3c0.4,0,0.6,0.3,0.6,0.6l0,0c0,0.4-0.3,0.6-0.6,0.6h-1.3c-0.4,0-0.6-0.3-0.6-0.6l0,0
			C15.6,21.1,15.9,20.8,16.3,20.8z"/>
		<path class="st6" d="M20.1,20.8h1.3c0.4,0,0.6,0.3,0.6,0.6l0,0c0,0.4-0.3,0.6-0.6,0.6h-1.3c-0.4,0-0.6-0.3-0.6-0.6l0,0
			C19.5,21.1,19.8,20.8,20.1,20.8z"/>
		<path class="st6" d="M24,20.8h1.3c0.4,0,0.6,0.3,0.6,0.6l0,0c0,0.4-0.3,0.6-0.6,0.6H24c-0.4,0-0.6-0.3-0.6-0.6l0,0
			C23.4,21.1,23.7,20.8,24,20.8z"/>
		<path class="st6" d="M27.9,20.8h1.3c0.4,0,0.6,0.3,0.6,0.6l0,0c0,0.4-0.3,0.6-0.6,0.6h-1.3c-0.4,0-0.6-0.3-0.6-0.6l0,0
			C27.3,21.1,27.6,20.8,27.9,20.8z"/>
		<path class="st6" d="M115.1,20.8h1.3c0.4,0,0.7,0.3,0.7,0.6l0,0c0,0.4-0.3,0.6-0.7,0.6h-1.3c-0.4,0-0.7-0.3-0.7-0.6l0,0
			C114.4,21.1,114.7,20.8,115.1,20.8z"/>
		<path class="st6" d="M31.9,20.8h1.3c0.4,0,0.7,0.3,0.7,0.6l0,0c0,0.4-0.3,0.6-0.7,0.6h-1.3c-0.4,0-0.6-0.3-0.6-0.6l0,0
			C31.2,21.1,31.5,20.8,31.9,20.8z"/>
		<path class="st6" d="M119,20.8h1.3c0.4,0,0.7,0.3,0.7,0.6l0,0c0,0.4-0.3,0.6-0.7,0.6H119c-0.4,0-0.7-0.3-0.7-0.6l0,0
			C118.3,21.1,118.6,20.8,119,20.8z"/>
		<path class="st6" d="M35.8,20.8H37c0.4,0,0.7,0.3,0.7,0.6l0,0c0,0.4-0.3,0.6-0.7,0.6h-1.3c-0.4,0-0.7-0.3-0.7-0.6l0,0
			C35.1,21.1,35.4,20.8,35.8,20.8z"/>
		<path class="st6" d="M122.8,20.8h1.3c0.4,0,0.7,0.3,0.7,0.6l0,0c0,0.4-0.3,0.6-0.7,0.6h-1.3c-0.4,0-0.7-0.3-0.7-0.6l0,0
			C122.2,21.1,122.5,20.8,122.8,20.8z"/>
		<path class="st6" d="M40.3,18.2L40.3,18.2c0.7,0,1.3,0.6,1.3,1.3v1.3c0,0.7-0.6,1.3-1.3,1.3l0,0c-0.7,0-1.3-0.6-1.3-1.3v-1.3
			C39,18.8,39.6,18.2,40.3,18.2z"/>
		<path class="st6" d="M44.2,14.3L44.2,14.3c0.7,0,1.3,0.6,1.3,1.3v5.2c0,0.7-0.6,1.3-1.3,1.3l0,0c-0.7,0-1.3-0.6-1.3-1.3v-5.2
			C42.9,14.9,43.5,14.3,44.2,14.3z"/>
		<path class="st6" d="M48.1,14.3L48.1,14.3c0.7,0,1.3,0.6,1.3,1.3v5.2c0,0.7-0.6,1.3-1.3,1.3l0,0c-0.7,0-1.3-0.6-1.3-1.3v-5.2
			C46.8,14.9,47.4,14.3,48.1,14.3z"/>
		<path class="st6" d="M52,6.5L52,6.5c0.7,0,1.3,0.6,1.3,1.3v13c0,0.7-0.6,1.3-1.3,1.3l0,0c-0.7,0-1.3-0.6-1.3-1.3v-13
			C50.7,7.1,51.3,6.5,52,6.5z"/>
		<path class="st6" d="M55.9,14.3L55.9,14.3c0.7,0,1.3,0.6,1.3,1.3v5.2c0,0.7-0.6,1.3-1.3,1.3l0,0c-0.7,0-1.3-0.6-1.3-1.3v-5.2
			C54.6,14.9,55.2,14.3,55.9,14.3z"/>
		<path class="st6" d="M59.8,10.4L59.8,10.4c0.7,0,1.3,0.6,1.3,1.3v9.1c0,0.7-0.6,1.3-1.3,1.3l0,0c-0.7,0-1.3-0.6-1.3-1.3v-9.1
			C58.5,11,59.1,10.4,59.8,10.4z"/>
		<path class="st6" d="M63.7,14.3L63.7,14.3c0.7,0,1.3,0.6,1.3,1.3v5.2c0,0.7-0.6,1.3-1.3,1.3l0,0c-0.7,0-1.3-0.6-1.3-1.3v-5.2
			C62.4,14.9,63,14.3,63.7,14.3z"/>
		<path class="st6" d="M67.6,13L67.6,13c0.7,0,1.3,0.6,1.3,1.3v6.5c0,0.7-0.6,1.3-1.3,1.3l0,0c-0.7,0-1.3-0.6-1.3-1.3v-6.5
			C66.3,13.6,66.9,13,67.6,13z"/>
		<path class="st6" d="M71.5,3.9L71.5,3.9c0.7,0,1.3,0.6,1.3,1.3v15.6c0,0.7-0.6,1.3-1.3,1.3l0,0c-0.7,0-1.3-0.6-1.3-1.3V5.2
			C70.2,4.5,70.8,3.9,71.5,3.9z"/>
		<path class="st6" d="M75.4,0L75.4,0c0.7,0,1.3,0.6,1.3,1.3v19.5c0,0.7-0.6,1.3-1.3,1.3l0,0c-0.7,0-1.3-0.6-1.3-1.3V1.3
			C74.1,0.6,74.7,0,75.4,0z"/>
		<path class="st6" d="M79.3,13L79.3,13c0.7,0,1.3,0.6,1.3,1.3v6.5c0,0.7-0.6,1.3-1.3,1.3l0,0c-0.7,0-1.3-0.6-1.3-1.3v-6.5
			C78,13.6,78.6,13,79.3,13z"/>
		<path class="st6" d="M83.2,11.7L83.2,11.7c0.7,0,1.3,0.6,1.3,1.3v7.8c0,0.7-0.6,1.3-1.3,1.3l0,0c-0.7,0-1.3-0.6-1.3-1.3V13
			C81.9,12.3,82.5,11.7,83.2,11.7z"/>
		<path class="st6" d="M87.1,15.6L87.1,15.6c0.7,0,1.3,0.6,1.3,1.3v3.9c0,0.7-0.6,1.3-1.3,1.3l0,0c-0.7,0-1.3-0.6-1.3-1.3v-3.9
			C85.8,16.2,86.4,15.6,87.1,15.6z"/>
		<path class="st6" d="M91,11.7L91,11.7c0.7,0,1.3,0.6,1.3,1.3v7.8c0,0.7-0.6,1.3-1.3,1.3l0,0c-0.7,0-1.3-0.6-1.3-1.3V13
			C89.7,12.3,90.3,11.7,91,11.7z"/>
		<path class="st6" d="M94.9,5.2L94.9,5.2c0.7,0,1.3,0.6,1.3,1.3v14.3c0,0.7-0.6,1.3-1.3,1.3l0,0c-0.7,0-1.3-0.6-1.3-1.3V6.5
			C93.6,5.8,94.2,5.2,94.9,5.2z"/>
		<path class="st6" d="M98.8,9.1L98.8,9.1c0.7,0,1.3,0.6,1.3,1.3v10.4c0,0.7-0.6,1.3-1.3,1.3l0,0c-0.7,0-1.3-0.6-1.3-1.3V10.4
			C97.5,9.7,98.1,9.1,98.8,9.1z"/>
		<path class="st6" d="M104,11.7L104,11.7c0.7,0,1.3,0.6,1.3,1.3v7.8c0,0.7-0.6,1.3-1.3,1.3l0,0c-0.7,0-1.3-0.6-1.3-1.3V13
			C102.7,12.3,103.3,11.7,104,11.7z"/>
		<path class="st6" d="M107.9,14.3L107.9,14.3c0.7,0,1.3,0.6,1.3,1.3v5.2c0,0.7-0.6,1.3-1.3,1.3l0,0c-0.7,0-1.3-0.6-1.3-1.3v-5.2
			C106.6,14.9,107.2,14.3,107.9,14.3z"/>
		<path class="st6" d="M111.8,15.6L111.8,15.6c0.7,0,1.3,0.6,1.3,1.3v3.9c0,0.7-0.6,1.3-1.3,1.3l0,0c-0.7,0-1.3-0.6-1.3-1.3v-3.9
			C110.5,16.2,111.1,15.6,111.8,15.6z"/>
	</g>
</g>
<g class="st4">
	<path class="st7" d="M77.2,50.2h1.6v14.3h-1.6v-7.4h-1.6c-0.2,3-1.4,4.8-3.3,4.8c-2,0-3.3-2.1-3.3-5.5s1.3-5.4,3.3-5.4
		c1.8,0,3.1,1.8,3.3,4.6h1.6V50.2z M74,56.6c0-2.4-0.6-3.8-1.7-3.8s-1.7,1.4-1.7,3.8s0.6,3.8,1.7,3.8C73.4,60.4,74,59,74,56.6z
		 M82,50v15.3h-1.7V50H82z"/>
	<path class="st7" d="M98,61.9v1.4H84.1v-1.4h5.2V58H91v3.9H98z M94.7,55.1c0-0.8,0-1.6,0-2.3h-9v-1.4h10.7v1.4c0,1.9,0,4-0.7,7.2
		L94,59.8c0.3-1.3,0.4-2.4,0.5-3.4l-9.1,0.5l-0.2-1.5L94.7,55.1z"/>
	<path class="st7" d="M103.2,51.5h7.2v10h-7.2V51.5z M105,60.1h3.7v-7.2H105V60.1z M117,57.4h-2.4v7.9h-1.8V50h1.8v6h2.4V57.4z"/>
	<path class="st7" d="M122.3,58.7c-2.3,0-4.1-1.6-4.1-3.8s1.8-3.8,4.1-3.8c2.3,0,4.1,1.6,4.1,3.8C126.3,57,124.6,58.7,122.3,58.7z
		 M122.3,57.1c1.3,0,2.4-0.9,2.4-2.3c0-1.4-1-2.3-2.4-2.3s-2.4,0.9-2.4,2.3C119.9,56.2,120.9,57.1,122.3,57.1z M131,63.6V65h-10.5
		v-5h1.8v3.6H131z M130.6,61.1h-1.8V50h1.8V61.1z"/>
	<path class="st7" d="M147,61.9v1.4h-13.9v-1.4H147z M133.7,58.1c3-0.5,5.4-2.6,5.4-4.9v-0.4h-4.9v-1.4h11.6v1.4H141v0.4
		c0,2.3,2.4,4.4,5.5,4.8l-0.7,1.4c-2.5-0.5-4.7-1.9-5.7-3.8c-1,2-3.1,3.4-5.6,3.9L133.7,58.1z"/>
	<path class="st7" d="M157.6,60.5c1.4-0.1,2.8-0.2,4.1-0.4l0.1,1.3c-3.4,0.6-7.1,0.7-9.8,0.7l-0.2-1.4c1.2,0,2.6,0,4-0.1v-2.4
		c-1.9-0.3-3.3-1.7-3.3-3.6c0-2.2,1.8-3.7,4.2-3.7s4.2,1.5,4.2,3.7c0,1.9-1.4,3.3-3.3,3.6V60.5z M156.7,56.8c1.4,0,2.5-0.8,2.5-2.2
		c0-1.3-1-2.2-2.5-2.2c-1.4,0-2.4,0.8-2.4,2.2C154.2,55.9,155.3,56.8,156.7,56.8z M164.4,49.9v15.4h-1.8V49.9H164.4z"/>
	<path class="st7" d="M180.9,60.3h-6.1v5H173v-5h-6v-1.4h13.9V60.3z M179.1,57.3h-10.5v-6.7h1.8v1.9h7v-1.9h1.8v6.7H179.1z
		 M177.4,53.9h-7v2h7V53.9z"/>
	<path class="st7" d="M193.6,51.4v10.1h-7.2V51.4H193.6z M188.1,52.8v7.3h3.8v-7.3H188.1z M198.2,49.9v15.4h-1.8V49.9H198.2z"/>
	<path class="st7" d="M210.3,58.1c-2.2,0.4-4.1,0.4-7.4,0.4h-1.3V51h7.3v1.4h-5.6V54h5.2v1.4h-5.2V57c3,0,4.7-0.1,6.7-0.4
		L210.3,58.1z M213.5,62.5c0,1.8-2,2.9-5.2,2.9s-5.2-1.1-5.2-2.9s2-2.9,5.2-2.9S213.5,60.7,213.5,62.5z M211.8,62.5
		c0-1-1.3-1.5-3.5-1.5s-3.5,0.5-3.5,1.5s1.3,1.5,3.5,1.5C210.5,63.9,211.8,63.4,211.8,62.5z M213.4,59.4h-1.8V50h1.8V59.4z"/>
</g>
<g class="st4">
	<path class="st8" d="M68.6,85.3c3-2.6,4.4-4.5,4.4-6.1c0-1.1-0.6-1.9-1.8-1.9c-0.8,0-1.5,0.5-2,1.1l-0.7-0.7
		c0.8-0.8,1.6-1.4,2.8-1.4c1.7,0,2.8,1.1,2.8,2.8c0,1.9-1.5,3.8-3.7,6c0.5,0,1.1-0.1,1.6-0.1h2.6v1h-6C68.6,86,68.6,85.3,68.6,85.3z
		"/>
	<path class="st8" d="M78.9,75.7h0.9l-3.9,12.6H75L78.9,75.7z"/>
	<path class="st8" d="M80.7,85h2.1v-7.1h-1.7v-0.8c0.8-0.2,1.5-0.4,2-0.7H84V85h1.9v1h-5.2C80.7,86,80.7,85,80.7,85z"/>
	<path class="st8" d="M86.8,84.9l0.6-0.8c0.6,0.6,1.3,1.1,2.4,1.1s1.9-0.7,1.9-1.8c0-1.1-0.8-1.9-3-1.9v-0.9c2,0,2.6-0.8,2.6-1.8
		c0-0.9-0.6-1.5-1.6-1.5c-0.8,0-1.4,0.4-2,0.9l-0.6-0.8c0.7-0.7,1.6-1.1,2.7-1.1c1.6,0,2.8,0.9,2.8,2.4c0,1.2-0.7,1.9-1.7,2.3v0
		c1.1,0.3,2,1.1,2,2.4c0,1.7-1.4,2.7-3.1,2.7C88.3,86.2,87.4,85.5,86.8,84.9z"/>
	<path class="st8" d="M107,81.2v0.9H96.4v-0.9h4.8v-1.5h-3.4v-4h7.8v4h-3.4v1.5H107z M97.6,83.3h8.1V87h-1.1v-2.8h-7V83.3z
		 M98.8,78.9h5.7v-2.3h-5.7V78.9z"/>
	<path class="st8" d="M113.9,75.7h0.9l-3.9,12.6H110L113.9,75.7z"/>
	<path class="st8" d="M128.4,84.6v0.9h-10.6v-0.9h4.7v-2.4c-2.2-0.2-3.7-1.3-3.7-3c0-1.9,1.8-3.1,4.3-3.1s4.2,1.2,4.2,3.1
		c0,1.7-1.5,2.9-3.7,3v2.4H128.4z M123.1,81.3c1.9,0,3.2-0.9,3.2-2.2c0-1.3-1.4-2.2-3.2-2.2s-3.2,0.9-3.2,2.2
		C119.9,80.5,121.2,81.3,123.1,81.3z"/>
	<path class="st8" d="M140,83.7h-4.8V87h-1.1v-3.2h-4.7v-0.9H140V83.7z M139.3,77.5H130v-0.9h4.2v-1.4h1.1v1.4h4.1v0.9H139.3z
		 M134.7,78.2c2.4,0,3.8,0.7,3.8,1.9S137,82,134.7,82c-2.4,0-3.8-0.7-3.8-1.9S132.3,78.2,134.7,78.2z M134.7,79
		c-1.7,0-2.7,0.4-2.7,1.1s1,1.1,2.7,1.1s2.7-0.4,2.7-1.1S136.4,79,134.7,79z"/>
	<path class="st8" d="M143.2,84.9l0.6-0.8c0.5,0.5,1.2,1.1,2.3,1.1s2-0.9,2-2.2c0-1.4-0.8-2.2-2-2.2c-0.6,0-1,0.2-1.6,0.6l-0.6-0.4
		l0.3-4.5h4.6v1h-3.6l-0.2,2.8c0.4-0.2,0.8-0.4,1.4-0.4c1.6,0,2.9,0.9,2.9,3s-1.5,3.3-3.1,3.3C144.8,86.2,143.8,85.5,143.2,84.9z"/>
	<path class="st8" d="M150.6,80c0-0.5,0.4-0.9,0.9-0.9s0.9,0.4,0.9,0.9s-0.4,0.9-0.9,0.9S150.6,80.6,150.6,80z M150.6,85.3
		c0-0.5,0.4-0.9,0.9-0.9s0.9,0.4,0.9,0.9s-0.4,0.9-0.9,0.9C151,86.2,150.6,85.8,150.6,85.3z"/>
	<path class="st8" d="M153.6,81.2c0-3.3,1.2-4.9,3-4.9s3,1.6,3,4.9s-1.2,5-3,5C154.7,86.2,153.6,84.5,153.6,81.2z M158.3,81.2
		c0-2.8-0.7-4-1.8-4s-1.8,1.2-1.8,4s0.7,4,1.8,4S158.3,84,158.3,81.2z"/>
	<path class="st8" d="M160.4,81.2c0-3.3,1.2-4.9,3-4.9s3,1.6,3,4.9s-1.2,5-3,5C161.5,86.2,160.4,84.5,160.4,81.2z M165.2,81.2
		c0-2.8-0.7-4-1.8-4s-1.8,1.2-1.8,4s0.7,4,1.8,4C164.4,85.2,165.2,84,165.2,81.2z"/>
</g>
<g transform="translate(-378 -2778) translate(418 2721) translate(0 87) translate(10) translate(226 208)">
	<circle class="st9" cx="37" cy="37" r="37"/>
	<circle class="st10" cx="37.4" cy="37.4" r="32.6"/>
	<circle class="st11" cx="37.4" cy="37.4" r="29.4"/>
</g>
<path class="st11" d="M199,152v-10c0-3.3,2.7-6,6-6s6,2.7,6,6v10c0,3.3-2.7,6-6,6S199,155.3,199,152 M216,149v3
	c0,5.6-4.1,10.2-9.5,10.9v2.1h3.5c0.6,0,1,0.4,1,1v1c0,0.6-0.4,1-1,1h-10c-0.6,0-1-0.4-1-1v-1c0-0.6,0.4-1,1-1h3.5v-2.1
	c-5.5-0.8-9.5-5.8-9.5-11.4V149c0-0.6,0.4-1,1-1h1c0.6,0,1,0.4,1,1v2.6c0,4.2,3,7.9,7.2,8.3c4.8,0.5,8.8-3.3,8.8-8v-3
	c0-0.6,0.4-1,1-1h1C215.6,148,216,148.4,216,149"/>
<path class="st0" d="M307,276.1V266c0-3.3,2.7-6,6-6s6,2.7,6,6v10.1c0,3.3-2.7,6-6,6S307,279.4,307,276.1 M324.1,273.1v3
	c0,5.6-4.2,10.2-9.6,10.9v2.1h3.5c0.6,0,1,0.5,1,1v1c0,0.6-0.5,1-1,1h-10c-0.6,0-1-0.5-1-1v-1c0-0.6,0.4-1,1-1h3.5V287
	c-5.5-0.8-9.5-5.8-9.5-11.4v-2.5c0-0.6,0.5-1,1-1h1c0.6,0,1,0.5,1,1v2.7c0,4.2,3.1,8,7.2,8.4c4.8,0.5,8.8-3.3,8.8-8v-3
	c0-0.6,0.4-1,1-1h1C323.7,272.1,324.1,272.5,324.1,273.1"/>
</svg>
