<svg xmlns="http://www.w3.org/2000/svg" xmlns:xlink="http://www.w3.org/1999/xlink" width="620" height="345" viewBox="0 0 620 345">
    <defs>
        <path id="ev7nopw6db" d="M0 0H520V245H0z"/>
        <path id="twiekt0kdc" d="M0 0.018L16.43 0.018 16.43 11.405 0 11.405z"/>
        <path id="hduht23uge" d="M0.107 0.078L53.777 0.078 53.777 29.739 0.107 29.739z"/>
        <filter id="ovsrshl3la" width="130.8%" height="165.3%" x="-15.4%" y="-24.5%" filterUnits="objectBoundingBox">
            <feMorphology in="SourceAlpha" operator="dilate" radius="10" result="shadowSpreadOuter1"/>
            <feOffset dy="20" in="shadowSpreadOuter1" result="shadowOffsetOuter1"/>
            <feMorphology in="SourceAlpha" radius="10" result="shadowInner"/>
            <feOffset dy="20" in="shadowInner" result="shadowInner"/>
            <feComposite in="shadowOffsetOuter1" in2="shadowInner" operator="out" result="shadowOffsetOuter1"/>
            <feGaussianBlur in="shadowOffsetOuter1" result="shadowBlurOuter1" stdDeviation="20"/>
            <feColorMatrix in="shadowBlurOuter1" values="0 0 0 0 0 0 0 0 0 0 0 0 0 0 0 0 0 0 0.18 0"/>
        </filter>
    </defs>
    <g fill="none" fill-rule="evenodd">
        <g>
            <g>
                <g transform="translate(-840 -937) translate(890 967)">
                    <g>
                        <g stroke-linejoin="round">
                            <use fill="#000" filter="url(#ovsrshl3la)" xlink:href="#ev7nopw6db"/>
                            <use stroke="#FFF" stroke-width="20" xlink:href="#ev7nopw6db"/>
                        </g>
                        <path fill="#FFF" d="M8 3.914H519V243.43499999999997H8z"/>
                    </g>
                    <rect width="245" height="30" x="20.335" y="37.98" fill="#EFF3F7" stroke="#E9F1F9" rx="15"/>
                    <rect width="224" height="30" x="20.335" y="173.98" fill="#EFF3F7" stroke="#E9F1F9" rx="15"/>
                    <rect width="455" height="51" x="45.335" y="89.98" fill="#EFF3F7" stroke="#E9F1F9" rx="20"/>
                    <text fill="#394058" font-family="NotoSansCJKkr-Regular, Noto Sans CJK KR" font-size="12" letter-spacing="-.4" opacity=".699">
                        <tspan x="34.235" y="52.755">오늘 에코 마인즈 마케팅 회의 시작 하겠습니다.</tspan>
                    </text>
                    <text fill="#394058" font-family="NotoSansCJKkr-Regular, Noto Sans CJK KR" font-size="12" letter-spacing="-.4" opacity=".699">
                        <tspan x="34.235" y="188.755">네 프로모션 상세 일정 공유 부탁드립니다.</tspan>
                    </text>
                    <text fill="#394058" font-family="NotoSansCJKkr-Regular, Noto Sans CJK KR" font-size="12" letter-spacing="-.3" opacity=".699">
                        <tspan x="60.08" y="109.755">1차적으로 공유드렸던 내용을 바탕으로 주요 타켓층을 집중적으로 공략하는 방안으로 프로</tspan> <tspan x="60.08" y="127.755">모션 진행할 예정입니다.</tspan>
                    </text>
                    <text fill="#616779" font-family="NotoSansCJKkr-Regular, Noto Sans CJK KR" font-size="13" letter-spacing="-.4">
                        <tspan x="42.295" y="29.486">김마인</tspan>
                    </text>
                    <text fill="#616779" font-family="NotoSansCJKkr-Regular, Noto Sans CJK KR" font-size="10" opacity=".7">
                        <tspan x="80.295" y="34.486">05:21</tspan>
                    </text>
                    <text fill="#616779" font-family="NotoSansCJKkr-Regular, Noto Sans CJK KR" font-size="10" opacity=".7">
                        <tspan x="80.295" y="168.486">07:01</tspan>
                    </text>
                    <text fill="#616779" font-family="NotoSansCJKkr-Regular, Noto Sans CJK KR" font-size="10" opacity=".7">
                        <tspan x="409.295" y="85.486">06:22</tspan>
                    </text>
                    <text fill="#616779" font-family="NotoSansCJKkr-Regular, Noto Sans CJK KR" font-size="13">
                        <tspan x="42.295" y="164.486">이인공</tspan>
                    </text>
                    <text fill="#616779" font-family="NotoSansCJKkr-Regular, Noto Sans CJK KR" font-size="13">
                        <tspan x="466.295" y="81.486">최마음</tspan>
                    </text>
                    <g fill="#FFA26B" fill-rule="nonzero">
                        <g>
                            <path d="M16 6.818C16 3.068 12.4 0 8 0S0 3.068 0 6.818c0 3.75 3.6 6.818 8 6.818.667 0 1.333-.068 2-.204l3.733 1.5c.067 0 .134.068.267.068s.267-.068.4-.136c.2-.137.267-.41.267-.614l-.334-3.205C15.4 9.818 16 8.318 16 6.818zM9.333 8.864H4.667V7.5h4.666v1.364zm2-2.728H4.667V4.773h6.666v1.363z" transform="translate(20 18)"/>
                        </g>
                    </g>
                    <g fill="#C48BFF" fill-rule="nonzero">
                        <g>
                            <path d="M16 6.818C16 3.068 12.4 0 8 0S0 3.068 0 6.818c0 3.75 3.6 6.818 8 6.818.667 0 1.333-.068 2-.204l3.733 1.5c.067 0 .134.068.267.068s.267-.068.4-.136c.2-.137.267-.41.267-.614l-.334-3.205C15.4 9.818 16 8.318 16 6.818zM9.333 8.864H4.667V7.5h4.666v1.364zm2-2.728H4.667V4.773h6.666v1.363z" transform="translate(20 153)"/>
                        </g>
                    </g>
                    <g fill="#6CB0FF" fill-rule="nonzero">
                        <g>
                            <path d="M16 6.818C16 3.068 12.4 0 8 0S0 3.068 0 6.818c0 3.75 3.6 6.818 8 6.818.667 0 1.333-.068 2-.204l3.733 1.5c.067 0 .134.068.267.068s.267-.068.4-.136c.2-.137.267-.41.267-.614l-.334-3.205C15.4 9.818 16 8.318 16 6.818zM9.333 8.864H4.667V7.5h4.666v1.364zm2-2.728H4.667V4.773h6.666v1.363z" transform="translate(444 70)"/>
                        </g>
                    </g>
                </g>
                <g transform="translate(-840 -937) translate(890 967) translate(323 150)">
                    <circle cx="74" cy="74" r="74" fill="#8487F5" opacity=".1"/>
                    <circle cx="74.804" cy="74.804" r="65.152" fill="#8487F5" opacity=".2"/>
                    <circle cx="74.804" cy="74.804" r="58.717" fill="#8487F5"/>
                    <g>
                        <path fill="#FFF" d="M27.681 33.246c-1.793 0-3.251 1.458-3.251 3.251s1.458 3.251 3.251 3.251 3.252-1.458 3.252-3.251-1.459-3.251-3.252-3.251m0 8.23c-2.745 0-4.98-2.233-4.98-4.979s2.235-4.98 4.98-4.98c2.746 0 4.98 2.234 4.98 4.98 0 2.746-2.234 4.98-4.98 4.98M20.159 53.836c-.042 0-.084-.003-.126-.01-.472-.068-.8-.507-.73-.979l.825-5.663c.012-.079.025-.15.038-.22.506-2.616 2.844-4.515 5.56-4.515h3.956c2.716 0 5.054 1.9 5.56 4.515.013.07.025.141.036.212l.782 5.418c.068.472-.26.91-.732.978-.472.068-.91-.26-.978-.732l-.781-5.408c-.006-.041-.015-.09-.025-.14-.348-1.805-1.973-3.115-3.862-3.115h-3.957c-1.889 0-3.513 1.31-3.862 3.115-.01.05-.018.099-.026.148l-.825 5.656c-.062.43-.431.74-.853.74M8.388 33.246c-1.793 0-3.252 1.458-3.252 3.251s1.459 3.251 3.252 3.251c1.793 0 3.251-1.458 3.251-3.251s-1.458-3.251-3.251-3.251m0 8.23c-2.746 0-4.98-2.233-4.98-4.979s2.234-4.98 4.98-4.98c2.745 0 4.98 2.234 4.98 4.98 0 2.746-2.235 4.98-4.98 4.98" transform="translate(47 46)"/>
                        <g transform="translate(47 46) translate(0 42.431)">
                            <mask id="dba25jwkod" fill="#fff">
                                <use xlink:href="#twiekt0kdc"/>
                            </mask>
                            <path fill="#FFF" d="M.865 11.405c-.041 0-.083-.003-.126-.01-.472-.068-.799-.507-.73-.979l.826-5.663c.012-.079.024-.15.038-.22C1.378 1.917 3.716.018 6.432.018h3.957c2.715 0 5.053 1.899 5.559 4.515.013.07.026.141.037.212l.007.063.435 5.409c.038.475-.316.892-.792.93-.475.038-.892-.316-.93-.792l-.433-5.375-.02-.119c-.35-1.805-1.974-3.115-3.863-3.115H6.432c-1.89 0-3.514 1.31-3.862 3.115-.01.05-.019.099-.026.148l-.825 5.656c-.063.43-.432.74-.854.74" mask="url(#dba25jwkod)"/>
                        </g>
                        <path fill="#FFF" d="M46.735 33.246c-1.793 0-3.252 1.458-3.252 3.251s1.459 3.251 3.252 3.251c1.793 0 3.251-1.458 3.251-3.251s-1.458-3.251-3.251-3.251m0 8.23c-2.746 0-4.98-2.233-4.98-4.979s2.234-4.98 4.98-4.98c2.745 0 4.98 2.234 4.98 4.98 0 2.746-2.235 4.98-4.98 4.98M39.558 53.836c-.025 0-.05-.001-.074-.003-.476-.04-.829-.459-.788-.934l.48-5.664.007-.059c.011-.07.023-.142.037-.212.505-2.616 2.843-4.515 5.559-4.515h3.957c2.715 0 5.053 1.9 5.559 4.515.013.07.026.14.037.212l.782 5.418c.068.472-.26.91-.732.978-.473.068-.91-.26-.979-.732l-.78-5.408c-.007-.04-.015-.09-.025-.14-.349-1.805-1.973-3.115-3.862-3.115h-3.957c-1.89 0-3.514 1.31-3.862 3.115l-.022.12-.477 5.633c-.039.45-.416.79-.86.79" transform="translate(47 46)"/>
                        <g transform="translate(47 46) translate(1.152 .037)">
                            <mask id="n3hyxd3ekf" fill="#fff">
                                <use xlink:href="#hduht23uge"/>
                            </mask>
                            <path fill="#FFF" d="M13.962 23.756H24.32c.321 0 .616.178.765.463l1.473 2.807 1.497-2.812c.15-.282.443-.458.763-.458h11.104c.205 0 .403.073.559.205l3.344 2.834-.302-2.542c-.05-.42.211-.814.617-.931 2.236-.65 4.249-2.032 5.668-3.895 1.466-1.923 2.241-4.221 2.241-6.646 0-6.052-4.923-10.975-10.975-10.975H12.81c-6.052 0-10.975 4.923-10.975 10.975 0 4.721 3.005 8.903 7.477 10.406.388.13.631.515.583.92l-.335 2.824 3.874-2.995c.15-.116.337-.18.528-.18m30.98 5.983c-.2 0-.4-.07-.559-.205l-4.778-4.05H29.336l-2.021 3.797c-.15.281-.444.458-.763.458h-.002c-.32-.002-.614-.18-.763-.463l-1.99-3.792h-9.54l-5.27 4.074c-.275.213-.651.24-.954.068-.303-.171-.473-.508-.432-.853l.498-4.191C3.29 22.665.107 18.009.107 12.78.107 5.776 5.805.078 12.81.078h28.264c7.005 0 12.703 5.698 12.703 12.703 0 2.807-.897 5.467-2.594 7.694-1.493 1.958-3.554 3.458-5.86 4.28l.477 4.018c.042.352-.136.695-.45.863-.128.069-.268.103-.408.103" mask="url(#n3hyxd3ekf)"/>
                        </g>
                        <path fill="#FFF" d="M19.853 13.442c0 .912-.74 1.652-1.652 1.652-.912 0-1.651-.74-1.651-1.652 0-.912.74-1.652 1.651-1.652.913 0 1.652.74 1.652 1.652M29.746 13.442c0 .912-.74 1.652-1.652 1.652-.912 0-1.652-.74-1.652-1.652 0-.912.74-1.652 1.652-1.652.912 0 1.652.74 1.652 1.652M39.639 13.442c0 .912-.74 1.652-1.652 1.652-.912 0-1.652-.74-1.652-1.652 0-.912.74-1.652 1.652-1.652.912 0 1.652.74 1.652 1.652" transform="translate(47 46)"/>
                    </g>
                </g>
            </g>
        </g>
    </g>
</svg>
