<?xml version="1.0" encoding="utf-8"?>
<!-- Generator: Adobe Illustrator 24.3.0, SVG Export Plug-In . SVG Version: 6.00 Build 0)  -->
<svg version="1.1" id="레이어_1" xmlns="http://www.w3.org/2000/svg" xmlns:xlink="http://www.w3.org/1999/xlink" x="0px"
	 y="0px" viewBox="0 0 620 345" style="enable-background:new 0 0 620 345;" xml:space="preserve">
<style type="text/css">
	.st0{fill-rule:evenodd;clip-rule:evenodd;fill:#FFFFFF;stroke:#FFFFFF;stroke-miterlimit:10;}
	.st1{fill:#FFFFFF;stroke:#FFFFFF;stroke-width:20;stroke-linejoin:round;}
	.st2{fill-rule:evenodd;clip-rule:evenodd;fill:#EFF3F7;stroke:#E9F1F9;}
	.st3{enable-background:new    ;}
	.st4{fill:#394058;}
	.st5{fill:#616779;}
	.st6{fill:#FFA26B;}
	.st7{fill:#C48BFF;}
	.st8{fill:#6CB0FF;}
	.st9{opacity:0.1;fill-rule:evenodd;clip-rule:evenodd;fill:#8487F5;enable-background:new    ;}
	.st10{opacity:0.2;fill-rule:evenodd;clip-rule:evenodd;fill:#8487F5;enable-background:new    ;}
	.st11{fill-rule:evenodd;clip-rule:evenodd;fill:#8487F5;}
	.st12{fill-rule:evenodd;clip-rule:evenodd;fill:#FFFFFF;}
</style>
<g>
	
		<image style="overflow:visible;opacity:0.2;" width="711" height="436" xlink:href="90231A61.png"  transform="matrix(1 0 0 1 -40.0394 -46.0394)">
	</image>
	<g>
		<g>
			<g>
				<path id="ev7nopw6db_32_" class="st0" d="M50,30h520v245H50V30z"/>
			</g>
			<g>
				<path id="ev7nopw6db_31_" class="st1" d="M50,30h520v245H50V30z"/>
			</g>
		</g>
	</g>
</g>
<path class="st2" d="M85.3,68h215c8.3,0,15,6.7,15,15l0,0c0,8.3-6.7,15-15,15h-215c-8.3,0-15-6.7-15-15l0,0
	C70.3,74.7,77.1,68,85.3,68z"/>
<path class="st2" d="M85.3,204h194c8.3,0,15,6.7,15,15l0,0c0,8.3-6.7,15-15,15h-194c-8.3,0-15-6.7-15-15l0,0
	C70.3,210.7,77.1,204,85.3,204z"/>
<path class="st2" d="M115.3,120h415c11,0,20,9,20,20v11c0,11-9,20-20,20h-415c-11,0-20-9-20-20v-11C95.3,128.9,104.3,120,115.3,120z
	"/>
<g class="st3">
	<path class="st4" d="M94.6,86.4v0.8h-9.8v-0.8h4.4v-2.2c-2-0.1-3.4-1.2-3.4-2.8c0-1.7,1.6-2.8,3.9-2.8s3.9,1.1,3.9,2.8
		c0,1.6-1.4,2.7-3.4,2.8v2.2H94.6z M89.7,83.4c1.7,0,3-0.8,3-2s-1.2-2-3-2c-1.7,0-3,0.8-3,2S88,83.4,89.7,83.4z"/>
	<path class="st4" d="M105.3,82.3v0.8h-9.8v-0.8H105.3z M97.7,87.7h6.7v0.8h-7.7v-2.6h6.3v-1h-6.3v-0.8h7.3v2.5h-6.3V87.7z
		 M104.1,81.2h-7.3V78h1v2.4h6.3V81.2z"/>
	<path class="st4" d="M114.5,78.1h0.9v10h-0.9v-5.2h-1.4c-0.1,2.1-1,3.4-2.3,3.4c-1.4,0-2.3-1.4-2.3-3.8c0-2.3,0.9-3.7,2.3-3.7
		c1.3,0,2.2,1.3,2.3,3.3h1.4V78.1z M112.3,82.5c0-1.7-0.6-2.8-1.4-2.8c-0.9,0-1.4,1.1-1.4,2.8c0,1.8,0.5,2.9,1.4,2.9
		C111.7,85.4,112.3,84.3,112.3,82.5z M117.6,77.9v10.8h-0.9V77.9H117.6z"/>
	<path class="st4" d="M128.8,86.4v0.8h-9.7v-0.8h3.8v-2.8h1v2.8H128.8z M126.7,81.5c0-0.6,0-1.1,0-1.6v-0.2h-6.4v-0.8h6.8h0.6v1
		c0,1.3,0,2.8-0.5,5l-1-0.1c0.2-1,0.3-1.8,0.4-2.5l-6.5,0.3l-0.1-0.8L126.7,81.5z"/>
	<path class="st4" d="M132.5,79h4.9v6.9h-4.9V79z M133.4,85.1h3v-5.4h-3V85.1z M142.1,83h-1.8v5.6h-1V77.9h1v4.3h1.8V83z"/>
	<path class="st4" d="M145.7,83.9c-1.6,0-2.8-1.1-2.8-2.7c0-1.5,1.2-2.6,2.8-2.6s2.8,1.1,2.8,2.6C148.5,82.8,147.3,83.9,145.7,83.9z
		 M145.7,83.1c1.1,0,1.9-0.7,1.9-1.8c0-1-0.8-1.8-1.9-1.8c-1,0-1.8,0.7-1.8,1.8C143.9,82.3,144.7,83.1,145.7,83.1z M151.8,87.6v0.8
		h-7.2v-3.5h1v2.7H151.8z M151.5,85.8h-1v-7.9h1V85.8z"/>
	<path class="st4" d="M163.1,86.4v0.8h-9.8v-0.8H163.1z M153.8,83.7c1.9-0.3,3.9-1.8,3.9-3.5v-0.5h-3.6V79h8.1v0.8h-3.6v0.5
		c0,1.7,2.1,3.2,3.9,3.5l-0.4,0.8c-1.6-0.3-3.3-1.4-4-2.9c-0.7,1.5-2.4,2.6-4,2.9L153.8,83.7z"/>
	<path class="st4" d="M166.7,79h4.9v6.9h-4.9V79z M167.6,85.1h3v-5.4h-3V85.1z M176.3,83h-1.8v5.6h-1V77.9h1v4.3h1.8V83z"/>
	<path class="st4" d="M182.9,78.2h0.9v9.9h-0.9v-5.2h-2c-0.6,1.3-1.6,2.5-3.4,3.5l-0.6-0.7c1.6-0.9,2.6-2,3.2-3.3l-3,0.3l-0.1-0.8
		l3.4-0.2c0.2-0.6,0.2-1.1,0.3-1.7h-3.2v-0.8h4.1c0,1-0.1,2-0.4,3h1.7V78.2z M186,77.9v10.8h-0.9V77.9H186z"/>
	<path class="st4" d="M194.3,83.5c-1.6,0.3-2.9,0.3-5.2,0.3h-0.9v-5.1h5.1v0.8h-4.1v1.3h3.8v0.8h-3.8V83c2.2,0,3.5,0,5-0.3
		L194.3,83.5z M196.4,86.7c0,1.2-1.4,2-3.6,2c-2.2,0-3.6-0.7-3.6-2s1.4-2,3.6-2S196.4,85.4,196.4,86.7z M195.4,86.7
		c0-0.8-1-1.2-2.6-1.2s-2.6,0.4-2.6,1.2c0,0.7,1,1.2,2.6,1.2C194.4,87.9,195.4,87.4,195.4,86.7z M196.4,84.6h-1v-6.7h1V84.6z"/>
	<path class="st4" d="M204.5,85.7c1,0,2.1-0.1,3-0.3l0.1,0.7c-2.4,0.4-5,0.4-7,0.4l-0.1-0.8c0.9,0,1.9,0,3,0v-1.2
		c-1.3-0.2-2.1-0.9-2.1-2c0-1.2,1.1-2,2.6-2s2.6,0.8,2.6,2c0,1.1-0.8,1.8-2.1,2V85.7z M207.3,80h-6.5v-0.8h2.8v-1.3h1v1.3h2.8V80
		H207.3z M204,83.8c1,0,1.6-0.5,1.6-1.2c0-0.8-0.7-1.2-1.6-1.2c-1,0-1.7,0.5-1.7,1.2C202.4,83.3,203.1,83.8,204,83.8z M209.2,77.9
		v10.7h-1V77.9H209.2z"/>
	<path class="st4" d="M211.2,85.5c2,0,4.7,0,7-0.4l0.1,0.7c-2.4,0.5-5,0.5-7,0.5L211.2,85.5z M217.5,81.2c0,1.5-1.2,2.5-2.9,2.5
		s-2.9-1-2.9-2.5s1.2-2.5,2.9-2.5S217.5,79.7,217.5,81.2z M212.7,81.2c0,1,0.8,1.7,1.9,1.7c1.1,0,1.9-0.7,1.9-1.7s-0.8-1.7-1.9-1.7
		S212.7,80.2,212.7,81.2z M219.9,77.9v10.8h-1V77.9H219.9z"/>
	<path class="st4" d="M227.9,80.8c0,2,1.3,3.9,2.9,4.7l-0.6,0.8c-1.2-0.6-2.3-1.9-2.8-3.4c-0.5,1.6-1.5,3-2.8,3.6l-0.6-0.8
		c1.6-0.8,2.9-2.8,2.9-4.9v-1.9h1L227.9,80.8L227.9,80.8z M232.9,77.9v10.8h-1V77.9H232.9z"/>
	<path class="st4" d="M240.4,83.9c-1.2-0.4-2.1-1.3-2.6-2.4c-0.5,1.2-1.4,2.1-2.7,2.6l-0.5-0.8c1.6-0.6,2.7-2,2.7-3.5v-0.4h-2.4
		v-0.8h5.8v0.8h-2.4v0.4c0,1.4,1,2.8,2.6,3.3L240.4,83.9z M236,84.9h7v3.7h-1v-2.9h-6V84.9z M244.6,81.5H243v2.8h-1v-6.5h1v2.8h1.6
		V81.5z"/>
	<path class="st4" d="M251.3,79.6h2.7v0.8h-6.3v-0.8h2.7V78h1L251.3,79.6L251.3,79.6z M253.4,83.8c0,1.5-1.1,2.5-2.6,2.5
		s-2.6-1-2.6-2.5s1.1-2.5,2.6-2.5C252.3,81.3,253.4,82.3,253.4,83.8z M252.5,83.8c0-1-0.7-1.7-1.7-1.7s-1.7,0.7-1.7,1.7
		s0.7,1.7,1.7,1.7C251.8,85.4,252.5,84.7,252.5,83.8z M257.7,83.1h-1.8v5.5h-1V77.9h1v4.4h1.8V83.1z"/>
	<path class="st4" d="M262.2,81.7c-0.7,1.1-1.8,1.9-3.3,2.6l-0.5-0.7c2.2-0.9,3.4-2.3,3.6-4.1h-3.2v-0.8h4.2c0,0.8-0.1,1.6-0.4,2.3
		h1.7v-2.8h0.9V84h-0.9v-2.2h-2.1L262.2,81.7L262.2,81.7z M266,85.2c0,1.1,0.8,2.2,2.2,2.7l-0.5,0.7c-1.1-0.4-1.8-1.1-2.2-2
		c-0.3,0.9-1,1.7-2,2.1c-1-0.4-1.7-1.2-2-2.1c-0.4,0.9-1.1,1.6-2.1,2l-0.5-0.7c1.4-0.5,2.2-1.7,2.2-2.7v-0.7h0.9v0.7
		c0,1,0.5,2,1.5,2.6c1-0.6,1.5-1.7,1.5-2.6v-0.7h1V85.2z M267.4,84.1h-0.9v-6.2h0.9V84.1z"/>
	<path class="st4" d="M278.7,82.8v0.8H269v-0.8H278.7z M277.7,82c-1.7-0.3-3.3-1.1-3.9-2.3c-0.7,1.2-2.3,2-4,2.3l-0.4-0.8
		c1.9-0.2,3.8-1.4,3.8-2.8V78h1v0.5c0,1.3,1.9,2.5,3.8,2.8L277.7,82z M276.4,84.3h1v4.2h-7.2v-4.2h1v1.3h5.3L276.4,84.3L276.4,84.3z
		 M276.4,86.3h-5.3v1.4h5.3V86.3z"/>
	<path class="st4" d="M281.2,85c1.6,0,3.3-0.1,5.1-0.5l0.1,0.8c-1.9,0.4-3.6,0.5-5.3,0.5h-0.9v-6.9h1L281.2,85L281.2,85z
		 M288.4,77.9v10.7h-1V77.9H288.4z"/>
	<path class="st4" d="M291.7,85.1c1.9,0,3.3-0.1,4.8-0.4l0.1,0.8c-1.6,0.3-3.1,0.4-5.1,0.4h-0.9v-7.1h5v0.8h-4v5.5
		C291.6,85.1,291.7,85.1,291.7,85.1z M300.3,82.9h-1.8v5.7h-1V77.9h1v4.2h1.8V82.9z"/>
	<path class="st4" d="M301.1,87.1c0-0.5,0.4-0.9,0.8-0.9s0.8,0.4,0.8,0.9s-0.4,0.8-0.8,0.8S301.1,87.6,301.1,87.1z"/>
</g>
<g class="st3">
	<path class="st4" d="M86.4,220.1c1.2,0,2.2-0.1,3.5-0.3l0.1,0.8c-1.4,0.3-2.6,0.4-3.9,0.4h-0.7v-7h1V220.1z M90.8,213.1h0.9v10
		h-0.9v-5.8h-2.4v-0.8h2.4V213.1z M94,212.9v10.8h-0.9v-10.8H94z"/>
	<path class="st4" d="M107.6,221.4v0.8h-9.8v-0.8H107.6z M100.3,214.8h-1.7V214h8v0.8H105v3.7h1.6v0.8h-7.9v-0.8h1.6
		C100.3,218.5,100.3,214.8,100.3,214.8z M104,214.8h-2.7v3.7h2.7V214.8z"/>
	<path class="st4" d="M118.2,221.5v0.8h-9.8v-0.8h4.4v-2h-3.2v-3.3h6.4v-1.7h-6.4v-0.8h7.4v3.3h-6.4v1.7h6.6v0.8h-3.4v2H118.2z"/>
	<path class="st4" d="M128.8,221.4v0.8H119v-0.8h4.4v-2.6h-3.2v-5h7.4v5h-3.2v2.6H128.8z M121.2,218.1h5.5v-3.5h-5.5V218.1z"/>
	<path class="st4" d="M135.5,219.3c-1.2-0.5-2.1-1.5-2.5-2.7c-0.4,1.3-1.4,2.3-2.7,2.8l-0.5-0.8c1.6-0.6,2.7-2.2,2.7-3.8v-1.4h1v1.4
		c0,1.6,1,3.1,2.6,3.7L135.5,219.3z M138.9,222.6v0.8h-7.2v-3.3h1v2.5H138.9z M137.6,217.5h-2.2v-0.8h2.2v-1.4h-2.2v-0.8h2.2v-1.6h1
		v8h-1V217.5z"/>
	<path class="st4" d="M148.4,218.7c-1.2-0.4-2.1-1.3-2.6-2.4c-0.4,1.3-1.4,2.2-2.7,2.7l-0.5-0.8c1.6-0.6,2.7-2.1,2.7-3.7v-1.1h1v1.2
		c0,1.5,1.1,2.8,2.6,3.3L148.4,218.7z M151.1,221.7c0,1.2-1.4,2-3.5,2c-2.2,0-3.6-0.7-3.6-2s1.4-2,3.6-2
		C149.8,219.7,151.1,220.4,151.1,221.7z M150.2,221.7c0-0.8-1-1.2-2.6-1.2s-2.6,0.4-2.6,1.2c0,0.7,1,1.2,2.6,1.2
		S150.2,222.4,150.2,221.7z M152.6,215.7v0.8H151v2.9h-1v-6.5h1v2.8H152.6z"/>
	<path class="st4" d="M156.5,215.9c0,1.7,0.8,3.5,2.2,4.4l-0.6,0.8c-1-0.6-1.7-1.8-2.1-3.1c-0.4,1.4-1.2,2.7-2.2,3.3l-0.6-0.7
		c1.5-0.9,2.4-2.8,2.4-4.6v-2.1h0.9L156.5,215.9L156.5,215.9z M159.3,213.1h0.9v10h-0.9v-5.6h-1.8v-0.8h1.8V213.1z M162.5,212.9
		v10.8h-0.9v-10.8H162.5z"/>
	<path class="st4" d="M169.3,218c-1.6,0-2.8-1-2.8-2.4s1.2-2.4,2.8-2.4s2.8,1,2.8,2.4C172.1,217.1,170.9,218,169.3,218z
		 M169.3,217.3c1.1,0,1.8-0.7,1.8-1.6c0-0.9-0.8-1.6-1.8-1.6s-1.8,0.7-1.8,1.6S168.2,217.3,169.3,217.3z M175.4,222.7v0.8h-7.3v-2.7
		h6v-1.1h-6v-0.8h7v2.6h-6v1.2H175.4z M175.1,218.4h-1v-5.5h1V218.4z"/>
	<path class="st4" d="M182.8,218.9c-1.2-0.4-2.1-1.3-2.6-2.4c-0.5,1.2-1.5,2.3-2.7,2.7l-0.5-0.8c1.6-0.6,2.7-2,2.7-3.6v-0.4h-2.4
		v-0.8h5.7v0.8h-2.4v0.4c0,1.4,1.1,2.7,2.6,3.3L182.8,218.9z M185.8,221.6c0,1.3-1.4,2-3.6,2s-3.6-0.7-3.6-2s1.4-2,3.6-2
		S185.8,220.4,185.8,221.6z M184.8,221.6c0-0.8-1-1.2-2.6-1.2s-2.6,0.5-2.6,1.2s1,1.2,2.6,1.2S184.8,222.4,184.8,221.6z
		 M184.8,215.7v-2.8h1v6.4h-1v-2.8h-2.1v-0.8L184.8,215.7L184.8,215.7z"/>
	<path class="st4" d="M199.5,217.9v0.8h-9.7v-0.8h4v-2.1h1v2.1H199.5z M198.4,221.7c0,1.2-1.5,2-3.8,2s-3.7-0.7-3.7-2
		c0-1.2,1.5-2,3.7-2C196.9,219.7,198.4,220.4,198.4,221.7z M197.4,214.2H191v-0.8h7.3v0.9c0,0.9,0,1.7-0.3,2.8l-1-0.1
		C197.3,215.9,197.3,215.1,197.4,214.2L197.4,214.2L197.4,214.2z M197.4,221.7c0-0.8-1.1-1.2-2.8-1.2s-2.8,0.5-2.8,1.2
		s1.1,1.2,2.8,1.2C196.3,222.9,197.4,222.4,197.4,221.7z"/>
	<path class="st4" d="M210.2,219.8h-2.5v3.8h-1v-3.8H204v3.8h-1v-3.8h-2.5V219h9.7V219.8z M201.6,215.7c0-1.4,1.5-2.3,3.8-2.3
		c2.2,0,3.8,0.9,3.8,2.3c0,1.4-1.5,2.4-3.8,2.4C203.1,218,201.6,217.1,201.6,215.7z M202.6,215.7c0,0.9,1.1,1.6,2.7,1.6
		c1.6,0,2.8-0.6,2.8-1.6c0-0.9-1.1-1.5-2.8-1.5C203.7,214.1,202.6,214.7,202.6,215.7z"/>
	<path class="st4" d="M223.2,220.1h-4.4v3.6h-1v-3.6h-4.4v-0.8h9.8L223.2,220.1L223.2,220.1z M221.9,218h-7.3v-4.7h1v1.5h5.3v-1.5h1
		V218z M220.9,215.6h-5.3v1.6h5.3V215.6z"/>
	<path class="st4" d="M230.3,218.5c-1.5,0.3-2.7,0.3-4.9,0.3h-0.8v-5.2h4.9v0.8h-3.9v1.4h3.7v0.8h-3.7v1.5c2.1,0,3.2,0,4.6-0.3
		L230.3,218.5z M225.4,219.9h7v3.7h-1v-2.9h-6V219.9z M234,216.6h-1.6v2.8h-1v-6.5h1v2.9h1.6V216.6z"/>
	<path class="st4" d="M244.5,221.4v0.8h-9.8v-0.8H244.5z M243.3,218.8h-7.4v-5h7.3v0.8h-6.3v3.4h6.4V218.8z"/>
	<path class="st4" d="M252,218.2c-1.8,0.3-3.2,0.3-5.2,0.3h-0.9v-3h3.9v-1.4h-3.9v-0.8h4.9v2.9h-3.9v1.5c1.9,0,3.3-0.1,5-0.3
		L252,218.2z M253.2,219.3h1v4.2h-7v-4.2h1v1.3h5V219.3z M253.2,221.4h-5v1.3h5V221.4z M254.2,212.9v5.9h-1v-5.9H254.2z"/>
	<path class="st4" d="M257.6,220c1.6,0,3.3-0.1,5.1-0.5l0.1,0.8c-1.9,0.4-3.6,0.5-5.3,0.5h-0.9v-6.9h1L257.6,220L257.6,220z
		 M264.8,212.9v10.7h-1v-10.7H264.8z"/>
	<path class="st4" d="M268.1,220.1c1.9,0,3.3-0.1,4.8-0.4l0.1,0.8c-1.6,0.3-3.1,0.4-5.1,0.4H267v-7.1h5v0.8h-4v5.5H268.1z
		 M276.7,217.9h-1.8v5.7h-1v-10.8h1v4.2h1.8V217.9z"/>
	<path class="st4" d="M277.5,222.1c0-0.5,0.4-0.9,0.8-0.9s0.8,0.4,0.8,0.9s-0.4,0.8-0.8,0.8S277.5,222.6,277.5,222.1z"/>
</g>
<g class="st3">
	<path class="st4" d="M111.1,138.8h2v-6.6h-1.6v-0.7c0.8-0.1,1.3-0.3,1.8-0.6h0.8v7.9h1.8v0.9h-4.8
		C111.1,139.7,111.1,138.8,111.1,138.8z"/>
	<path class="st4" d="M120.7,133.4c0,1.7,1.1,3.5,2.6,4.2l-0.6,0.8c-1.2-0.6-2.1-1.8-2.5-3.1c-0.5,1.5-1.4,2.7-2.7,3.3l-0.6-0.7
		c1.6-0.8,2.7-2.6,2.7-4.5v-0.8h-2.4v-0.8h2.4v-1.7h1v1.7h2.4v0.8h-2.4L120.7,133.4L120.7,133.4z M127.1,135.1h-1.8v5.5h-1v-10.8h1
		v4.4h1.8V135.1z"/>
	<path class="st4" d="M133.7,135.9c-1.2-0.4-2.1-1.3-2.6-2.4c-0.5,1.2-1.4,2.2-2.7,2.7l-0.5-0.8c1.6-0.6,2.7-2,2.7-3.5v-0.4h-2.4
		v-0.8h5.7v0.8h-2.4v0.4c0,1.4,1.1,2.7,2.6,3.3L133.7,135.9z M129.5,136.9h7.2v3.7h-1v-3h-6.2V136.9z M136.7,129.9v6.4h-1v-2.8h-2.1
		v-0.8h2.1v-2.8L136.7,129.9L136.7,129.9z"/>
	<path class="st4" d="M148.3,138.4v0.8h-9.8v-0.8H148.3z M147.3,133.5c0,1.8-1.7,3-3.9,3s-3.9-1.2-3.9-3s1.7-3,3.9-3
		C145.6,130.6,147.3,131.7,147.3,133.5z M140.4,133.5c0,1.3,1.3,2.2,3,2.2s3-0.9,3-2.2s-1.3-2.2-3-2.2
		C141.7,131.4,140.4,132.2,140.4,133.5z"/>
	<path class="st4" d="M159.1,138.5v0.8h-9.8v-0.8h4.4v-2h-3.2v-3.3h6.4v-1.7h-6.4v-0.8h7.4v3.3h-6.4v1.7h6.6v0.8h-3.4v2H159.1z"/>
	<path class="st4" d="M172.1,134.9v0.8h-9.7v-0.8h4v-2.1h1v2.1H172.1z M171,138.7c0,1.2-1.5,2-3.8,2s-3.7-0.7-3.7-2
		c0-1.2,1.5-2,3.7-2C169.5,136.7,171,137.4,171,138.7z M169.9,131.2h-6.4v-0.8h7.3v0.9c0,0.9,0,1.7-0.3,2.8l-1-0.1
		C169.8,132.9,169.8,132.1,169.9,131.2L169.9,131.2L169.9,131.2z M170,138.7c0-0.8-1.1-1.2-2.8-1.2s-2.8,0.5-2.8,1.2
		s1.1,1.2,2.8,1.2S170,139.4,170,138.7z"/>
	<path class="st4" d="M182.9,136.8h-2.5v3.8h-1v-3.8h-2.7v3.8h-1v-3.8h-2.5V136h9.7V136.8z M174.3,132.7c0-1.4,1.5-2.3,3.8-2.3
		c2.2,0,3.8,0.9,3.8,2.3c0,1.4-1.5,2.4-3.8,2.4C175.8,135,174.3,134.1,174.3,132.7z M175.3,132.7c0,0.9,1.1,1.6,2.7,1.6
		c1.6,0,2.8-0.6,2.8-1.6c0-0.9-1.1-1.5-2.8-1.5C176.4,131.1,175.3,131.7,175.3,132.7z"/>
	<path class="st4" d="M193.7,138.4v0.8h-9.8v-0.8H193.7z M192.5,135.8h-7.4v-5h7.3v0.8h-6.3v3.4h6.4V135.8z"/>
	<path class="st4" d="M198.7,132.7v-1.5H195v-0.8h4.6v3H196v1.6c2,0,3,0,4.3-0.3l0.1,0.8c-1.3,0.2-2.4,0.3-4.6,0.3H195v-3.1H198.7z
		 M202.3,137.2c0,1.1,0.8,2.3,2.2,2.7l-0.5,0.7c-1.1-0.4-1.8-1.1-2.2-2c-0.3,0.9-1,1.7-2,2.1c-1-0.4-1.7-1.2-2-2.1
		c-0.4,0.9-1.1,1.6-2.1,2l-0.5-0.7c1.3-0.5,2.1-1.7,2.1-2.7v-0.6h0.9v0.6c0,1,0.5,2,1.5,2.6c1-0.6,1.5-1.7,1.5-2.6v-0.6h1v0.6H202.3
		z M202.5,134.4h-2.1v-0.8h2.1v-1.4h-2.1v-0.8h2.1v-1.5h1v6.4h-1V134.4z"/>
	<path class="st4" d="M211.6,135.8c-1.5,0.3-2.8,0.3-4.8,0.3H206v-5.4h4.9v0.8H207v3.8c1.9,0,3.1-0.1,4.5-0.3L211.6,135.8z
		 M214.5,139.7v0.8h-7.2v-3.3h1v2.5H214.5z M213.3,132.9v-3h1v7.8h-1v-4.1h-3v-0.8h3V132.9z"/>
	<path class="st4" d="M220,137c1,0,2.2-0.1,3.5-0.3l0.1,0.9c-1.5,0.3-2.7,0.3-3.8,0.3H219v-6.7h1V137z M227.6,129.9v10.7h-0.9V135
		h-1.5v5h-0.9v-10h0.9v4.1h1.5v-4.4h0.9V129.9z"/>
	<path class="st4" d="M239,135.2v0.8h-9.7v-0.8h2.4v-1.5c-0.9-0.3-1.3-0.9-1.3-1.6c0-1.3,1.5-2,3.8-2s3.8,0.7,3.8,2
		c0,0.7-0.5,1.3-1.3,1.6v1.5H239z M237.8,138.7c0,1.2-1.4,1.9-3.7,1.9s-3.7-0.7-3.7-1.9s1.4-1.9,3.7-1.9
		C236.4,136.8,237.8,137.5,237.8,138.7z M234.1,133.3c1.7,0,2.8-0.5,2.8-1.2c0-0.8-1.1-1.2-2.8-1.2s-2.8,0.5-2.8,1.2
		S232.4,133.3,234.1,133.3z M236.8,138.7c0-0.7-1-1.2-2.7-1.2s-2.7,0.4-2.7,1.2s1,1.2,2.7,1.2S236.8,139.5,236.8,138.7z
		 M232.6,135.2h3V134c-0.4,0.1-0.9,0.1-1.5,0.1c-0.5,0-1,0-1.5-0.1V135.2z"/>
	<path class="st4" d="M249.7,134.5v0.8H240v-0.8H249.7z M241.1,131.9c0-1.2,1.4-1.9,3.8-1.9c2.4,0,3.8,0.7,3.8,1.9s-1.4,1.9-3.8,1.9
		C242.5,133.8,241.1,133.1,241.1,131.9z M242.2,139.8h6.6v0.8h-7.6V138h6.3v-1h-6.3v-0.7h7.3v2.4h-6.3V139.8z M242.1,131.9
		c0,0.7,1,1.1,2.8,1.1s2.8-0.4,2.8-1.1s-1-1.1-2.8-1.1C243.1,130.8,242.1,131.2,242.1,131.9z"/>
	<path class="st4" d="M257.6,130.8h1v7.3h-5v-7.3h1v2.8h3.1v-2.8H257.6z M257.6,134.4h-3.1v2.8h3.1V134.4z M263.2,134.9h-1.8v5.7h-1
		v-10.7h1v4.2h1.8V134.9z"/>
	<path class="st4" d="M270.1,135.5c-1.5,0.3-2.7,0.3-4.9,0.3h-0.8v-5.1h4.9v0.8h-3.9v1.4h3.7v0.8h-3.7v1.4c2.1,0,3.2-0.1,4.6-0.3
		L270.1,135.5z M272.3,138.7c0,1.2-1.3,1.9-3.5,1.9s-3.5-0.7-3.5-1.9s1.3-1.9,3.5-1.9S272.3,137.5,272.3,138.7z M271.4,138.7
		c0-0.7-1-1.2-2.6-1.2s-2.6,0.4-2.6,1.2c0,0.7,1,1.2,2.6,1.2S271.4,139.4,271.4,138.7z M273.8,132.7v0.8h-1.6v3h-1v-6.6h1v2.8H273.8
		z"/>
	<path class="st4" d="M284.4,138.4v0.8h-9.8v-0.8H284.4z M283.4,133.5c0,1.8-1.7,3-3.9,3c-2.2,0-3.9-1.2-3.9-3s1.7-3,3.9-3
		C281.7,130.6,283.4,131.7,283.4,133.5z M276.5,133.5c0,1.3,1.3,2.2,3,2.2s3-0.9,3-2.2s-1.3-2.2-3-2.2
		C277.8,131.4,276.5,132.2,276.5,133.5z"/>
	<path class="st4" d="M295.1,138.5v0.8h-9.8v-0.8h4.4v-2h-3.2v-3.3h6.4v-1.7h-6.4v-0.8h7.4v3.3h-6.4v1.7h6.6v0.8h-3.4v2H295.1z"/>
	<path class="st4" d="M308.2,136.8h-4.4v3.8h-1v-3.8h-4.3V136h9.7L308.2,136.8z M299.1,134.3c1.9-0.3,3.7-1.5,3.7-2.9v-0.1h-3.4
		v-0.8h7.9v0.8h-3.4v0.1c0,1.4,1.9,2.7,3.8,2.9l-0.4,0.8c-1.7-0.3-3.3-1.2-3.9-2.5c-0.7,1.3-2.2,2.2-3.9,2.5L299.1,134.3z"/>
	<path class="st4" d="M319,138.4v0.8h-9.8v-0.8h2.4v-2.9c-0.9-0.5-1.4-1.2-1.4-2.2c0-1.7,1.6-2.8,3.9-2.8s3.9,1.1,3.9,2.8
		c0,1-0.5,1.7-1.4,2.2v2.9H319z M311.1,133.3c0,1.2,1.2,2,3,2c1.7,0,3-0.8,3-2s-1.2-2-3-2C312.3,131.3,311.1,132.1,311.1,133.3z
		 M312.6,138.4h3v-2.5c-0.5,0.1-1,0.2-1.5,0.2s-1-0.1-1.5-0.2V138.4z"/>
	<path class="st4" d="M323.8,137.2c1.9,0,3.3-0.1,4.8-0.3l0.1,0.8c-1.7,0.3-3,0.4-5.1,0.4h-0.8v-7.2h5v0.8h-4v2.2h3.8v0.8h-3.8
		V137.2z M332.4,135h-1.8v5.6h-1v-10.7h1v4.3h1.8V135z"/>
	<path class="st4" d="M337.2,133.8c-0.6,1.2-1.8,2.3-3.5,3l-0.5-0.7c1.6-0.7,2.6-1.5,3.1-2.6l-3,0.3l-0.2-0.8l3.5-0.2
		c0.1-0.4,0.2-0.8,0.2-1.2h-3.2v-0.8h4.2c0,0.8-0.1,1.5-0.3,2.2h1.6v-3h0.9v6.2h-0.9v-2.4H337.2z M339.1,136.9
		c0,1.4,1.8,2.6,3.7,2.9l-0.4,0.8c-1.6-0.3-3.1-1.1-3.8-2.3c-0.7,1.2-2.1,2.1-3.8,2.3l-0.4-0.8c1.9-0.3,3.7-1.5,3.7-2.9v-0.3h1
		L339.1,136.9L339.1,136.9z M342.2,137.2h-0.9v-7.3h0.9V137.2z"/>
	<path class="st4" d="M353.5,135.4v0.8h-9.7v-0.8H353.5z M344.4,133.9c2-0.2,3.7-1,3.8-2.2h-3.3v-0.8h3.4v-1.1h1v1.1h3.4v0.8h-3.3
		c0.1,1.2,1.7,2,3.8,2.2l-0.3,0.8c-1.8-0.2-3.3-0.8-4-1.9c-0.7,1.1-2.2,1.7-4,1.9L344.4,133.9z M352.4,138.8c0,1.2-1.4,1.8-3.7,1.8
		c-2.3,0-3.7-0.6-3.7-1.8s1.4-1.8,3.7-1.8C351,137.1,352.4,137.7,352.4,138.8z M351.4,138.8c0-0.7-1-1.1-2.7-1.1s-2.7,0.4-2.7,1.1
		c0,0.7,1,1,2.7,1C350.4,139.9,351.4,139.5,351.4,138.8z"/>
	<path class="st4" d="M364.3,134.5v0.8h-9.7v-0.8H364.3z M355.6,131.9c0-1.2,1.4-1.9,3.8-1.9s3.8,0.7,3.8,1.9s-1.4,1.9-3.8,1.9
		S355.6,133.1,355.6,131.9z M356.7,139.8h6.6v0.8h-7.6V138h6.3v-1h-6.3v-0.7h7.3v2.4h-6.3V139.8z M356.6,131.9c0,0.7,1,1.1,2.8,1.1
		s2.8-0.4,2.8-1.1s-1-1.1-2.8-1.1S356.6,131.2,356.6,131.9z"/>
	<path class="st4" d="M373.8,135.5c-1.2-0.4-2.2-1.3-2.7-2.4c-0.5,1.2-1.5,2.1-2.7,2.6l-0.5-0.8c1.6-0.5,2.7-1.9,2.7-3.3v-0.2h-2.5
		v-0.8h5.9v0.8h-2.4v0.2c0,1.4,1.1,2.7,2.7,3.2L373.8,135.5z M375.5,136.2h1v4.3h-6.9v-4.3h1v1.3h5v-1.3H375.5z M375.5,138.3h-5v1.4
		h5V138.3z M376.5,129.9v5.8h-1v-5.8H376.5z"/>
	<path class="st4" d="M383.8,135.7v1.2c2,0.1,3.2,0.8,3.2,1.9c0,1.2-1.4,1.9-3.7,1.9c-2.3,0-3.7-0.7-3.7-1.9c0-1.1,1.2-1.8,3.2-1.9
		v-1.2h-4.4v-0.8h9.7v0.8H383.8z M379,133.5c1.9-0.2,3.6-1.1,3.7-2.3h-3.3v-0.8h8v0.8h-3.3c0.1,1.2,1.8,2.1,3.7,2.3l-0.3,0.8
		c-1.8-0.2-3.4-1-4-2.2c-0.6,1.2-2.2,2-4,2.2L379,133.5z M383.3,137.6c-1.7,0-2.7,0.4-2.7,1.1s1,1.1,2.7,1.1s2.7-0.4,2.7-1.1
		S385,137.6,383.3,137.6z"/>
	<path class="st4" d="M395,135.9c-1.2-0.4-2.1-1.3-2.6-2.4c-0.5,1.2-1.4,2.2-2.7,2.7l-0.5-0.8c1.6-0.6,2.7-2,2.7-3.5v-0.4h-2.4v-0.8
		h5.7v0.8h-2.4v0.4c0,1.4,1.1,2.7,2.6,3.3L395,135.9z M390.8,136.9h7.2v3.7h-1v-3h-6.2V136.9z M398,129.9v6.4h-1v-2.8h-2.1v-0.8h2.1
		v-2.8L398,129.9L398,129.9z"/>
	<path class="st4" d="M409.7,138.4v0.8h-9.8v-0.8H409.7z M408.7,133.5c0,1.8-1.7,3-3.9,3c-2.2,0-3.9-1.2-3.9-3s1.7-3,3.9-3
		C407,130.6,408.7,131.7,408.7,133.5z M401.8,133.5c0,1.3,1.3,2.2,3,2.2s3-0.9,3-2.2s-1.3-2.2-3-2.2
		C403.1,131.4,401.8,132.2,401.8,133.5z"/>
	<path class="st4" d="M420.4,138.5v0.8h-9.8v-0.8h4.4v-2h-3.2v-3.3h6.4v-1.7h-6.4v-0.8h7.4v3.3h-6.4v1.7h6.6v0.8H416v2H420.4z"/>
	<path class="st4" d="M433.5,134.9v0.8h-9.7v-0.8h4v-2.1h1v2.1H433.5z M432.3,138.7c0,1.2-1.5,2-3.8,2s-3.7-0.7-3.7-2
		c0-1.2,1.5-2,3.7-2S432.3,137.4,432.3,138.7z M431.3,131.2h-6.4v-0.8h7.3v0.9c0,0.9,0,1.7-0.3,2.8l-1-0.1c0.3-1.1,0.3-1.9,0.3-2.7
		v-0.1L431.3,131.2L431.3,131.2z M431.4,138.7c0-0.8-1.1-1.2-2.8-1.2c-1.7,0-2.8,0.5-2.8,1.2s1.1,1.2,2.8,1.2
		S431.4,139.4,431.4,138.7z"/>
	<path class="st4" d="M440.9,135.5c-1.7,0.3-3.1,0.4-5.1,0.4H435v-3.1h3.8v-1.4H435v-0.8h4.8v3H436v1.5c1.9,0,3.3-0.1,4.9-0.4V135.5
		z M435.9,137h7v3.6h-1v-2.8h-6V137z M442.9,132.4v1.4h1.6v0.8h-1.6v1.8h-1v-6.5h1v1.7h1.6v0.8H442.9z"/>
	<path class="st4" d="M448.9,131.6h2.7v0.8h-6.3v-0.8h2.7V130h1v1.6H448.9z M451,135.8c0,1.5-1.1,2.5-2.6,2.5s-2.6-1-2.6-2.5
		s1.1-2.5,2.6-2.5S451,134.3,451,135.8z M450.1,135.8c0-1-0.7-1.7-1.7-1.7s-1.7,0.7-1.7,1.7s0.7,1.7,1.7,1.7
		C449.4,137.4,450.1,136.7,450.1,135.8z M455.3,135.1h-1.8v5.5h-1v-10.7h1v4.4h1.8V135.1z"/>
	<path class="st4" d="M465.7,135.4v0.8H456v-0.8H465.7z M458.2,139.6h6.5v0.8h-7.4v-3.1h1v2.3H458.2z M464.6,133.9h-7.3v-3.6h1v2.8
		h6.3V133.9z"/>
	<path class="st4" d="M474.5,135.5h-5v-5h1v1.6h3v-1.6h1V135.5z M477.6,138.6c0,1.3-1.4,2-3.5,2c-2.2,0-3.6-0.7-3.6-2s1.4-2,3.6-2
		C476.2,136.6,477.6,137.4,477.6,138.6z M473.6,133h-3v1.8h3V133z M476.6,138.6c0-0.8-1-1.2-2.6-1.2s-2.6,0.4-2.6,1.2s1,1.2,2.6,1.2
		C475.6,139.9,476.6,139.4,476.6,138.6z M479.1,132.6v0.8h-1.6v3h-1v-6.5h1v2.7H479.1z"/>
	<path class="st4" d="M482.9,135.9c-1.6,0-2.8-1.1-2.8-2.7c0-1.6,1.2-2.7,2.8-2.7c1.6,0,2.8,1.1,2.8,2.7
		C485.7,134.8,484.5,135.9,482.9,135.9z M482.9,135.1c1.1,0,1.8-0.7,1.8-1.8s-0.8-1.8-1.8-1.8c-1.1,0-1.8,0.7-1.8,1.8
		C481,134.3,481.8,135.1,482.9,135.1z M482.5,139.6h6.2v0.8h-7.2V137h1V139.6z M489.8,133.2v0.8h-1.6v3.8h-1v-7.9h1v3.3L489.8,133.2
		L489.8,133.2z"/>
	<path class="st4" d="M500.4,138.4v0.8h-9.8v-0.8H500.4z M499.4,133.5c0,1.8-1.7,3-3.9,3c-2.2,0-3.9-1.2-3.9-3s1.7-3,3.9-3
		C497.7,130.6,499.4,131.7,499.4,133.5z M492.5,133.5c0,1.3,1.3,2.2,3,2.2s3-0.9,3-2.2s-1.3-2.2-3-2.2
		C493.8,131.4,492.5,132.2,492.5,133.5z"/>
	<path class="st4" d="M511.1,138.5v0.8h-9.8v-0.8h4.4v-2h-3.2v-3.3h6.4v-1.7h-6.4v-0.8h7.4v3.3h-6.4v1.7h6.6v0.8h-3.4v2H511.1z"/>
	<path class="st4" d="M524.2,138.4v0.8h-9.8v-0.8H524.2z M517,131.8h-1.7V131h8v0.8h-1.7v3.7h1.6v0.8h-7.9v-0.8h1.6v-3.7H517z
		 M520.7,131.8H518v3.7h2.7V131.8z"/>
	<path class="st4" d="M535,138.5v0.8h-9.8v-0.8h4.4v-2h-3.2v-3.3h6.4v-1.7h-6.4v-0.8h7.4v3.3h-6.4v1.7h6.6v0.8h-3.4v2H535z"/>
</g>
<g class="st3">
	<path class="st4" d="M120.5,156.4v0.8h-9.8v-0.8h4.4v-2.6h-3.2v-5h7.4v5h-3.2v2.6H120.5z M112.8,153.1h5.5v-3.5h-5.5V153.1z"/>
	<path class="st4" d="M127.2,154.3c-1.2-0.5-2.1-1.5-2.5-2.7c-0.4,1.3-1.4,2.3-2.7,2.8l-0.5-0.8c1.6-0.6,2.7-2.2,2.7-3.8v-1.4h1v1.4
		c0,1.6,1,3.1,2.6,3.7L127.2,154.3z M130.6,157.6v0.8h-7.2v-3.3h1v2.5H130.6z M129.3,152.5h-2.2v-0.8h2.2v-1.4h-2.2v-0.8h2.2v-1.6h1
		v8h-1V152.5z"/>
	<path class="st4" d="M140.7,154.2c-1.2-0.4-2.2-1.3-2.7-2.4c-0.5,1.2-1.5,2.2-2.7,2.7l-0.5-0.8c1.6-0.6,2.7-2,2.7-3.5v-0.6H135
		v-0.8h5.9v0.8h-2.4v0.6c0,1.5,1.1,2.8,2.7,3.3L140.7,154.2z M143.7,157.6v0.8h-7.2V155h1v2.6H143.7z M143.4,155.8h-1v-7.9h1V155.8z
		"/>
	<path class="st4" d="M150.7,149.9h-5.5v-0.8h2.3V148h1v1.2h2.2V149.9z M148,154.2c-1.4,0-2.3-0.7-2.3-1.8s0.9-1.8,2.3-1.8
		c1.4,0,2.3,0.7,2.3,1.8S149.4,154.2,148,154.2z M148,153.5c0.8,0,1.4-0.4,1.4-1.1c0-0.7-0.6-1.1-1.4-1.1c-0.9,0-1.4,0.4-1.4,1.1
		C146.6,153,147.2,153.5,148,153.5z M154.5,156.8c0,1.2-1.4,1.9-3.6,1.9s-3.6-0.7-3.6-1.9s1.4-1.9,3.6-1.9S154.5,155.5,154.5,156.8z
		 M153.5,156.8c0-0.7-1-1.1-2.6-1.1s-2.6,0.4-2.6,1.1c0,0.7,1,1.1,2.6,1.1C152.5,157.9,153.5,157.5,153.5,156.8z M152.1,154.3h-0.9
		v-6.2h0.9v2.7h1.4v-2.9h0.9v6.8h-0.9v-3.1h-1.4V154.3z"/>
	<path class="st4" d="M162.4,149.6h-6.3v-0.8h2.7v-1.1h1v1.1h2.7L162.4,149.6L162.4,149.6z M159.3,153.6c-1.5,0-2.6-0.7-2.6-1.8
		s1-1.8,2.6-1.8s2.6,0.7,2.6,1.8S160.8,153.6,159.3,153.6z M158.6,157.8h6.2v0.8h-7.2V156h5.8v-0.9h-5.9v-0.7h6.8v2.4h-5.8
		L158.6,157.8L158.6,157.8z M159.3,152.9c1,0,1.6-0.4,1.6-1s-0.6-1-1.6-1s-1.6,0.4-1.6,1S158.3,152.9,159.3,152.9z M166,150.4v0.8
		h-1.6v2.5h-1v-5.9h1v2.6L166,150.4L166,150.4z"/>
	<path class="st4" d="M175.3,148.1h0.9v10h-0.9v-3.5h-1.7c-0.4,1.1-1.1,1.7-2,1.7c-1.4,0-2.3-1.4-2.3-3.8c0-2.3,0.9-3.7,2.3-3.7
		c0.9,0,1.6,0.6,2,1.7h1.7V148.1z M173,152.5c0-1.7-0.5-2.8-1.4-2.8s-1.4,1.1-1.4,2.8c0,1.8,0.6,2.8,1.4,2.8
		C172.5,155.4,173,154.3,173,152.5z M175.3,153.8v-2.5h-1.5c0.1,0.4,0.1,0.8,0.1,1.2c0,0.5,0,0.9-0.1,1.2h1.5V153.8z M178.3,147.9
		v10.8h-0.9v-10.8H178.3z"/>
	<path class="st4" d="M185.8,153.9c-1.2-0.4-2.1-1.3-2.6-2.4c-0.5,1.2-1.5,2.3-2.7,2.7l-0.5-0.8c1.6-0.6,2.7-2,2.7-3.6v-0.4h-2.4
		v-0.8h5.7v0.8h-2.4v0.4c0,1.4,1.1,2.7,2.6,3.3L185.8,153.9z M188.8,156.6c0,1.3-1.4,2-3.6,2s-3.6-0.7-3.6-2s1.4-2,3.6-2
		S188.8,155.4,188.8,156.6z M187.8,156.6c0-0.8-1-1.2-2.6-1.2s-2.6,0.5-2.6,1.2s1,1.2,2.6,1.2S187.8,157.4,187.8,156.6z
		 M187.8,150.7v-2.8h1v6.4h-1v-2.8h-2.1v-0.8L187.8,150.7L187.8,150.7z"/>
	<path class="st4" d="M196.5,150.9c0,1.5-1.2,2.5-2.8,2.5s-2.8-1-2.8-2.5s1.2-2.5,2.8-2.5S196.5,149.4,196.5,150.9z M191.9,150.9
		c0,1,0.8,1.7,1.8,1.7c1.1,0,1.9-0.7,1.9-1.7s-0.8-1.7-1.9-1.7C192.7,149.2,191.9,149.9,191.9,150.9z M193.5,154.2v1.3h5v-1.3h1v4.3
		h-6.9v-4.3H193.5z M193.5,157.7h5v-1.4h-5V157.7z M199.5,147.9v5.8h-1v-5.8H199.5z"/>
	<path class="st4" d="M203.1,155c1.6,0,3.3-0.1,5.1-0.5l0.1,0.8c-1.9,0.4-3.6,0.5-5.3,0.5h-0.9v-6.9h1L203.1,155L203.1,155z
		 M210.2,147.9v10.7h-1v-10.7H210.2z"/>
	<path class="st4" d="M213.6,155.1c1.9,0,3.3-0.1,4.8-0.4l0.1,0.8c-1.6,0.3-3.1,0.4-5.1,0.4h-0.9v-7.1h5v0.8h-4L213.6,155.1
		L213.6,155.1z M222.2,152.9h-1.8v5.7h-1v-10.8h1v4.2h1.8V152.9z"/>
	<path class="st4" d="M223.1,157.1c0-0.5,0.4-0.9,0.8-0.9s0.8,0.4,0.8,0.9s-0.4,0.8-0.8,0.8S223.1,157.6,223.1,157.1z"/>
</g>
<g class="st3">
	<path class="st5" d="M99.1,49.5c0,3-2.1,5.1-5.6,6l-0.4-0.8c2.8-0.7,4.6-2.3,4.8-4.3h-4.2v-0.9H99.1z M95,55.9h7.5v4.3H95V55.9z
		 M96.1,59.4h5.4v-2.6h-5.4V59.4z M102.6,48.8v6.6h-1.1v-6.6H102.6z"/>
	<path class="st5" d="M105,50h5.3v7.5H105V50z M106.1,56.6h3.3v-5.8h-3.3V56.6z M115.4,54.3h-1.9v6.1h-1.1V48.8h1.1v4.6h1.9V54.3z"
		/>
	<path class="st5" d="M119.4,55.4c-1.7,0-3-1.2-3-2.9s1.3-2.9,3-2.9s3.1,1.2,3.1,2.9S121.2,55.4,119.4,55.4z M119.4,54.4
		c1.2,0,2-0.8,2-2c0-1.1-0.9-1.9-2-1.9s-2,0.8-2,1.9C117.4,53.6,118.3,54.4,119.4,54.4z M126,59.3v0.9h-7.9v-3.7h1.1v2.9h6.8V59.3z
		 M125.7,57.3h-1.1v-8.5h1.1V57.3z"/>
</g>
<g class="st3">
	<path class="st5" d="M134.8,55.8c0-2.5,0.9-3.8,2.3-3.8c1.4,0,2.3,1.2,2.3,3.8c0,2.5-0.9,3.8-2.3,3.8S134.8,58.3,134.8,55.8z
		 M138.5,55.8c0-2.1-0.6-3-1.4-3c-0.8,0-1.4,0.9-1.4,3c0,2.2,0.6,3.1,1.4,3.1C137.9,58.9,138.5,58,138.5,55.8z"/>
	<path class="st5" d="M140.1,58.6l0.4-0.6c0.4,0.4,0.9,0.8,1.8,0.8c0.9,0,1.6-0.7,1.6-1.7s-0.6-1.7-1.5-1.7c-0.5,0-0.8,0.1-1.2,0.4
		l-0.5-0.3l0.2-3.4h3.6v0.8h-2.8l-0.2,2.1c0.3-0.2,0.6-0.3,1.1-0.3c1.2,0,2.2,0.7,2.2,2.3s-1.2,2.5-2.4,2.5
		C141.3,59.6,140.6,59.1,140.1,58.6z"/>
	<path class="st5" d="M146.1,54.9c0-0.4,0.3-0.7,0.7-0.7s0.7,0.3,0.7,0.7s-0.3,0.7-0.7,0.7S146.1,55.3,146.1,54.9z M146.1,58.9
		c0-0.4,0.3-0.7,0.7-0.7s0.7,0.3,0.7,0.7s-0.3,0.7-0.7,0.7S146.1,59.3,146.1,58.9z"/>
	<path class="st5" d="M148.6,58.9c2.3-2,3.4-3.5,3.4-4.7c0-0.8-0.4-1.4-1.3-1.4c-0.6,0-1.1,0.4-1.5,0.8l-0.5-0.5
		c0.6-0.6,1.2-1.1,2.2-1.1c1.3,0,2.1,0.9,2.1,2.2c0,1.5-1.1,2.9-2.9,4.6c0.4,0,0.8-0.1,1.2-0.1h2v0.8h-4.6L148.6,58.9L148.6,58.9z"
		/>
	<path class="st5" d="M154.6,58.7h1.6v-5.5h-1.3v-0.6c0.6-0.1,1.1-0.3,1.5-0.5h0.7v6.6h1.5v0.8h-4V58.7z"/>
</g>
<g class="st3">
	<path class="st5" d="M136.8,191.8c0-2.5,0.9-3.8,2.3-3.8c1.4,0,2.3,1.2,2.3,3.8c0,2.5-0.9,3.8-2.3,3.8S136.8,194.3,136.8,191.8z
		 M140.5,191.8c0-2.1-0.6-3-1.4-3c-0.8,0-1.4,0.9-1.4,3c0,2.2,0.6,3.1,1.4,3.1C139.9,194.9,140.5,194,140.5,191.8z"/>
	<path class="st5" d="M145.9,188.9h-3.5v-0.8h4.6v0.6c-1.7,2.2-2,3.9-2.1,6.8H144C143.9,192.7,144.5,190.9,145.9,188.9z"/>
	<path class="st5" d="M148.1,190.9c0-0.4,0.3-0.7,0.7-0.7s0.7,0.3,0.7,0.7s-0.3,0.7-0.7,0.7S148.1,191.3,148.1,190.9z M148.1,194.9
		c0-0.4,0.3-0.7,0.7-0.7s0.7,0.3,0.7,0.7s-0.3,0.7-0.7,0.7S148.1,195.3,148.1,194.9z"/>
	<path class="st5" d="M150.7,191.8c0-2.5,0.9-3.8,2.3-3.8c1.4,0,2.3,1.2,2.3,3.8c0,2.5-0.9,3.8-2.3,3.8
		C151.6,195.6,150.7,194.3,150.7,191.8z M154.3,191.8c0-2.1-0.6-3-1.4-3c-0.8,0-1.4,0.9-1.4,3c0,2.2,0.6,3.1,1.4,3.1
		C153.8,194.9,154.3,194,154.3,191.8z"/>
	<path class="st5" d="M156.6,194.7h1.6v-5.5h-1.3v-0.6c0.6-0.1,1.1-0.3,1.5-0.5h0.7v6.6h1.5v0.8h-4V194.7z"/>
</g>
<g class="st3">
	<path class="st5" d="M459.8,108.8c0-2.5,0.9-3.8,2.3-3.8s2.3,1.2,2.3,3.8c0,2.5-0.9,3.8-2.3,3.8
		C460.7,112.6,459.8,111.3,459.8,108.8z M463.5,108.8c0-2.1-0.6-3-1.4-3s-1.4,0.9-1.4,3c0,2.2,0.6,3.1,1.4,3.1
		S463.5,111,463.5,108.8z"/>
	<path class="st5" d="M469.3,106.3c-0.3-0.3-0.7-0.6-1.2-0.6c-1,0-1.8,0.8-1.9,3c0.5-0.5,1.1-0.9,1.7-0.9c1.2,0,2,0.8,2,2.3
		c0,1.4-1,2.4-2.1,2.4c-1.4,0-2.4-1.2-2.4-3.6c0-2.9,1.3-4,2.7-4c0.8,0,1.3,0.3,1.7,0.7L469.3,106.3z M469.1,110.2
		c0-1-0.4-1.6-1.3-1.6c-0.5,0-1,0.3-1.5,0.9c0.1,1.5,0.7,2.3,1.6,2.3C468.6,111.9,469.1,111.2,469.1,110.2z"/>
	<path class="st5" d="M471.1,107.9c0-0.4,0.3-0.7,0.7-0.7c0.4,0,0.7,0.3,0.7,0.7c0,0.4-0.3,0.7-0.7,0.7S471.1,108.3,471.1,107.9z
		 M471.1,111.9c0-0.4,0.3-0.7,0.7-0.7c0.4,0,0.7,0.3,0.7,0.7c0,0.4-0.3,0.7-0.7,0.7S471.1,112.3,471.1,111.9z"/>
	<path class="st5" d="M473.6,111.9c2.3-2,3.4-3.5,3.4-4.7c0-0.8-0.4-1.4-1.3-1.4c-0.6,0-1.1,0.4-1.5,0.8l-0.5-0.5
		c0.6-0.6,1.2-1.1,2.2-1.1c1.3,0,2.1,0.9,2.1,2.2c0,1.5-1.1,2.9-2.9,4.6c0.4,0,0.8-0.1,1.2-0.1h2v0.8h-4.6v-0.6
		C473.7,111.9,473.6,111.9,473.6,111.9z"/>
	<path class="st5" d="M479.2,111.9c2.3-2,3.4-3.5,3.4-4.7c0-0.8-0.4-1.4-1.3-1.4c-0.6,0-1.1,0.4-1.5,0.8l-0.5-0.5
		c0.6-0.6,1.2-1.1,2.2-1.1c1.3,0,2.1,0.9,2.1,2.2c0,1.5-1.1,2.9-2.9,4.6c0.4,0,0.8-0.1,1.2-0.1h2v0.8h-4.6v-0.6
		C479.3,111.9,479.2,111.9,479.2,111.9z"/>
</g>
<g class="st3">
	<path class="st5" d="M99.3,189.8c0,2.5-1.2,4.1-3,4.1s-3-1.6-3-4.1s1.2-4.1,3-4.1S99.3,187.3,99.3,189.8z M94.4,189.8
		c0,1.9,0.8,3.1,2,3.1c1.1,0,1.9-1.2,1.9-3.1c0-1.9-0.8-3.1-1.9-3.1C95.2,186.6,94.4,187.9,94.4,189.8z M102.5,184.8v11.7h-1.1
		v-11.7H102.5z"/>
	<path class="st5" d="M108.2,191.4c-1.7,0-3-1.2-3-2.9s1.3-2.9,3-2.9s3.1,1.2,3.1,2.9C111.3,190.2,110,191.4,108.2,191.4z
		 M108.2,190.4c1.2,0,2-0.8,2-2c0-1.1-0.9-1.9-2-1.9s-2,0.8-2,1.9C106.3,189.6,107.1,190.4,108.2,190.4z M114.9,195.3v0.9H107v-3.7
		h1.1v2.9L114.9,195.3L114.9,195.3z M114.5,193.3h-1.1v-8.5h1.1V193.3z"/>
	<path class="st5" d="M127.4,190.2v0.9h-10.5v-0.9h4.3V188h1.1v2.2H127.4z M126.2,194.3c0,1.3-1.6,2.1-4.1,2.1s-4.1-0.8-4.1-2.1
		c0-1.4,1.6-2.1,4.1-2.1S126.2,193,126.2,194.3z M125.1,186.2h-6.9v-0.9h7.9v1c0,0.9,0,1.9-0.3,3.1l-1-0.1c0.3-1.2,0.3-2.1,0.3-3
		V186.2z M125.1,194.3c0-0.8-1.2-1.3-3-1.3s-3,0.5-3,1.3s1.2,1.3,3,1.3C124,195.6,125.1,195.1,125.1,194.3z"/>
</g>
<g class="st3">
	<path class="st5" d="M521.4,109.1c1.1-0.1,2.2-0.1,3.3-0.3l0.1,0.8c-2.6,0.5-5.5,0.5-7.6,0.5l-0.1-0.9c1,0,2.1,0,3.3,0V107h1.1
		L521.4,109.1L521.4,109.1z M517.4,106.5c1.7-0.5,2.9-1.8,2.9-3.3h-2.7v-0.9h2.7v-1.4h1.1v1.4h2.7v0.9h-2.7c0,1.5,1.2,2.7,3,3.2
		l-0.5,0.8c-1.4-0.4-2.4-1.3-3-2.5c-0.5,1.2-1.6,2.1-3,2.6L517.4,106.5z M526.5,100.8v11.7h-1.1v-11.7H526.5z"/>
	<path class="st5" d="M529.4,102h5.3v7.5h-5.3V102z M530.5,108.6h3.3v-5.8h-3.3V108.6z M539.8,106.3h-1.9v6.1h-1.1v-11.6h1.1v4.6
		h1.9V106.3z"/>
	<path class="st5" d="M551.4,106.5v0.9h-10.5v-0.9H551.4z M550.3,103.3c0,1.4-1.6,2.2-4.1,2.2s-4.1-0.8-4.1-2.2
		c0-1.4,1.6-2.2,4.1-2.2C548.7,101,550.3,101.9,550.3,103.3z M550.2,108.5v3.8h-8v-3.8H550.2z M543.2,103.3c0,0.9,1.2,1.4,3,1.4
		s3-0.5,3-1.4s-1.2-1.4-3-1.4C544.3,101.9,543.2,102.4,543.2,103.3z M543.2,109.3v2.1h5.9v-2.1H543.2z"/>
</g>
<g>
	<g>
		<path class="st6" d="M86,54.8c0-3.8-3.6-6.8-8-6.8s-8,3.1-8,6.8s3.6,6.8,8,6.8c0.7,0,1.3-0.1,2-0.2l3.7,1.5c0.1,0,0.1,0.1,0.3,0.1
			s0.3-0.1,0.4-0.1c0.2-0.1,0.3-0.4,0.3-0.6L84.3,59C85.4,57.8,86,56.3,86,54.8z M79.3,56.9h-4.7v-1.4h4.7V56.9z M81.3,54.1h-6.7
			v-1.4h6.7C81.3,52.8,81.3,54.1,81.3,54.1z"/>
	</g>
</g>
<g>
	<g>
		<path class="st7" d="M86,189.8c0-3.8-3.6-6.8-8-6.8s-8,3.1-8,6.8s3.6,6.8,8,6.8c0.7,0,1.3-0.1,2-0.2l3.7,1.5
			c0.1,0,0.1,0.1,0.3,0.1s0.3-0.1,0.4-0.1c0.2-0.1,0.3-0.4,0.3-0.6l-0.3-3.2C85.4,192.8,86,191.3,86,189.8z M79.3,191.9h-4.7v-1.4
			h4.7V191.9z M81.3,189.1h-6.7v-1.4h6.7C81.3,187.8,81.3,189.1,81.3,189.1z"/>
	</g>
</g>
<g>
	<g>
		<path class="st8" d="M510,106.8c0-3.8-3.6-6.8-8-6.8s-8,3.1-8,6.8s3.6,6.8,8,6.8c0.7,0,1.3-0.1,2-0.2l3.7,1.5
			c0.1,0,0.1,0.1,0.3,0.1s0.3-0.1,0.4-0.1c0.2-0.1,0.3-0.4,0.3-0.6l-0.3-3.2C509.4,109.8,510,108.3,510,106.8z M503.3,108.9h-4.7
			v-1.4h4.7V108.9z M505.3,106.1h-6.7v-1.4h6.7C505.3,104.8,505.3,106.1,505.3,106.1z"/>
	</g>
</g>
<circle class="st9" cx="447" cy="254" r="74"/>
<circle class="st10" cx="447.8" cy="254.8" r="65.2"/>
<circle class="st11" cx="447.8" cy="254.8" r="58.7"/>
<g>
	<path class="st12" d="M447.7,259.2c-1.8,0-3.3,1.5-3.3,3.3s1.5,3.3,3.3,3.3s3.3-1.5,3.3-3.3S449.5,259.2,447.7,259.2 M447.7,267.5
		c-2.7,0-5-2.2-5-5c0-2.7,2.2-5,5-5c2.7,0,5,2.2,5,5C452.7,265.2,450.4,267.5,447.7,267.5 M440.2,279.8h-0.1c-0.5-0.1-0.8-0.5-0.7-1
		l0.8-5.7c0-0.1,0-0.1,0-0.2c0.5-2.6,2.8-4.5,5.6-4.5h4c2.7,0,5.1,1.9,5.6,4.5c0,0.1,0,0.1,0,0.2l0.8,5.4c0.1,0.5-0.3,0.9-0.7,1
		s-0.9-0.3-1-0.7l-0.8-5.4v-0.1c-0.3-1.8-2-3.1-3.9-3.1h-4c-1.9,0-3.5,1.3-3.9,3.1v0.1l-0.8,5.7C441,279.5,440.6,279.8,440.2,279.8
		 M428.4,259.2c-1.8,0-3.3,1.5-3.3,3.3s1.5,3.3,3.3,3.3s3.3-1.5,3.3-3.3S430.2,259.2,428.4,259.2 M428.4,267.5c-2.7,0-5-2.2-5-5
		c0-2.7,2.2-5,5-5c2.7,0,5,2.2,5,5C433.4,265.2,431.1,267.5,428.4,267.5"/>
	<g transform="translate(47 46) translate(0 42.431)">
		<path class="st12" d="M373.9,191.4h-0.1c-0.5-0.1-0.8-0.5-0.7-1l0.8-5.7c0-0.1,0-0.1,0-0.2c0.5-2.6,2.8-4.5,5.6-4.5h4
			c2.7,0,5.1,1.9,5.6,4.5c0,0.1,0,0.1,0,0.2v0.1l0.4,5.4c0,0.5-0.3,0.9-0.8,0.9s-0.9-0.3-0.9-0.8l-0.4-5.4v-0.1
			c-0.4-1.8-2-3.1-3.9-3.1h-4c-1.9,0-3.5,1.3-3.9,3.1c0,0.1,0,0.1,0,0.1l-0.8,5.7C374.7,191.1,374.3,191.4,373.9,191.4"/>
	</g>
	<path class="st12" d="M466.7,259.2c-1.8,0-3.3,1.5-3.3,3.3s1.5,3.3,3.3,3.3s3.3-1.5,3.3-3.3S468.5,259.2,466.7,259.2 M466.7,267.5
		c-2.7,0-5-2.2-5-5c0-2.7,2.2-5,5-5c2.7,0,5,2.2,5,5C471.7,265.2,469.5,267.5,466.7,267.5 M459.6,279.8
		C459.5,279.8,459.5,279.8,459.6,279.8c-0.5,0-0.9-0.5-0.9-0.9l0.5-5.7v-0.1c0-0.1,0-0.1,0-0.2c0.5-2.6,2.8-4.5,5.6-4.5h4
		c2.7,0,5.1,1.9,5.6,4.5c0,0.1,0,0.1,0,0.2l0.8,5.4c0.1,0.5-0.3,0.9-0.7,1c-0.5,0.1-0.9-0.3-1-0.7l-0.8-5.4v-0.1
		c-0.3-1.8-2-3.1-3.9-3.1h-4c-1.9,0-3.5,1.3-3.9,3.1v0.1l-0.5,5.6C460.4,279.5,460,279.8,459.6,279.8"/>
	<g transform="translate(47 46) translate(1.152 .037)">
		<path class="st12" d="M387,203.8h10.4c0.3,0,0.6,0.2,0.8,0.5l1.5,2.8l1.5-2.8c0.1-0.3,0.4-0.5,0.8-0.5h11.1c0.2,0,0.4,0.1,0.6,0.2
			l3.3,2.8l-0.3-2.5c-0.1-0.4,0.2-0.8,0.6-0.9c2.2-0.6,4.2-2,5.7-3.9s2.2-4.2,2.2-6.6c0-6.1-4.9-11-11-11h-28.3c-6.1,0-11,4.9-11,11
			c0,4.7,3,8.9,7.5,10.4c0.4,0.1,0.6,0.5,0.6,0.9l-0.3,2.8l3.9-3C386.6,203.8,386.8,203.8,387,203.8 M417.9,209.7
			c-0.2,0-0.4-0.1-0.6-0.2l-4.8-4.1h-10.3l-2,3.8c-0.1,0.3-0.4,0.5-0.8,0.5l0,0c-0.3,0-0.6-0.2-0.8-0.5l-2-3.8h-9.5l-5.3,4.1
			c-0.3,0.2-0.7,0.2-1,0.1c-0.3-0.2-0.5-0.5-0.4-0.9l0.5-4.2c-4.8-1.9-8-6.6-8-11.8c0-7,5.7-12.7,12.7-12.7h28.3
			c7,0,12.7,5.7,12.7,12.7c0,2.8-0.9,5.5-2.6,7.7c-1.5,2-3.6,3.5-5.9,4.3l0.5,4c0,0.4-0.1,0.7-0.4,0.9
			C418.2,209.7,418.1,209.7,417.9,209.7"/>
	</g>
	<path class="st12" d="M439.9,239.4c0,0.9-0.7,1.7-1.7,1.7c-0.9,0-1.7-0.7-1.7-1.7c0-0.9,0.7-1.7,1.7-1.7
		C439.1,237.8,439.9,238.5,439.9,239.4 M449.7,239.4c0,0.9-0.7,1.7-1.7,1.7c-0.9,0-1.7-0.7-1.7-1.7c0-0.9,0.7-1.7,1.7-1.7
		C449,237.8,449.7,238.5,449.7,239.4 M459.6,239.4c0,0.9-0.7,1.7-1.7,1.7s-1.7-0.7-1.7-1.7c0-0.9,0.7-1.7,1.7-1.7
		S459.6,238.5,459.6,239.4"/>
</g>
</svg>
