<svg xmlns="http://www.w3.org/2000/svg" xmlns:xlink="http://www.w3.org/1999/xlink" width="410" height="345" viewBox="0 0 410 345">
    <defs>
        <path id="2ngql3ydnb" d="M0 0H310V245H0z"/>
        <path id="0jiuwfg60d" d="M0 0.009L49.647 0.009 49.647 59.4 0 59.4z"/>
        <path id="8y6uwhizvf" d="M0.08 0.009L17.697 0.009 17.697 17.82 0.08 17.82z"/>
        <filter id="ltl1jrrpqa" width="151.6%" height="165.3%" x="-25.8%" y="-24.5%" filterUnits="objectBoundingBox">
            <feMorphology in="SourceAlpha" operator="dilate" radius="10" result="shadowSpreadOuter1"/>
            <feOffset dy="20" in="shadowSpreadOuter1" result="shadowOffsetOuter1"/>
            <feMorphology in="SourceAlpha" radius="10" result="shadowInner"/>
            <feOffset dy="20" in="shadowInner" result="shadowInner"/>
            <feComposite in="shadowOffsetOuter1" in2="shadowInner" operator="out" result="shadowOffsetOuter1"/>
            <feGaussianBlur in="shadowOffsetOuter1" result="shadowBlurOuter1" stdDeviation="20"/>
            <feColorMatrix in="shadowBlurOuter1" values="0 0 0 0 0 0 0 0 0 0 0 0 0 0 0 0 0 0 0.18 0"/>
        </filter>
        <filter id="vbccqk4ioc" width="208%" height="188.5%" x="-54%" y="-44.3%" filterUnits="objectBoundingBox">
            <feOffset dy="5" in="SourceAlpha" result="shadowOffsetOuter1"/>
            <feGaussianBlur in="shadowOffsetOuter1" result="shadowBlurOuter1" stdDeviation="4.5"/>
            <feColorMatrix in="shadowBlurOuter1" result="shadowMatrixOuter1" values="0 0 0 0 0 0 0 0 0 0 0 0 0 0 0 0 0 0 0.08 0"/>
            <feMerge>
                <feMergeNode in="shadowMatrixOuter1"/>
                <feMergeNode in="SourceGraphic"/>
            </feMerge>
        </filter>
    </defs>
    <g fill="none" fill-rule="evenodd">
        <g>
            <g>
                <g>
                    <g>
                        <g>
                            <g>
                                <g stroke-linejoin="round" transform="translate(-754 -2778) translate(418 2721) translate(0 87) translate(386)">
                                    <use fill="#000" filter="url(#ltl1jrrpqa)" xlink:href="#2ngql3ydnb"/>
                                    <use stroke="#FFF" stroke-width="20" xlink:href="#2ngql3ydnb"/>
                                </g>
                                <path fill="#FFF" d="M4.769 3.914H309.404V243.43499999999997H4.769z" transform="translate(-754 -2778) translate(418 2721) translate(0 87) translate(386)"/>
                            </g>
                            <g transform="translate(-754 -2778) translate(418 2721) translate(0 87) translate(386) translate(20 14.486)">
                                <rect width="250" height="30" x=".335" y="23.493" fill="#EFF3F7" stroke="#E9F1F9" rx="15"/>
                                <rect width="228" height="30" x=".335" y="184.493" fill="#EFF3F7" stroke="#E9F1F9" rx="15"/>
                                <rect width="239" height="65" x="25.335" y="85.493" fill="#EFF3F7" stroke="#E9F1F9" rx="20"/>
                                <text fill="#394058" font-family="NotoSansCJKkr-Regular, Noto Sans CJK KR" font-size="12" letter-spacing="-.3" opacity=".699">
                                    <tspan x="14.235" y="38.269">오늘 에코 마인즈 마케팅 회의 시작 하겠습니다.</tspan>
                                </text>
                                <text fill="#394058" font-family="NotoSansCJKkr-Regular, Noto Sans CJK KR" font-size="12" opacity=".699">
                                    <tspan x="14.235" y="198.269">네 프로모션 상세 일정 공유 부탁드립니다.</tspan>
                                </text>
                                <text fill="#394058" font-family="NotoSansCJKkr-Regular, Noto Sans CJK KR" font-size="12" letter-spacing="-.3" opacity=".699">
                                    <tspan x="40.08" y="105.269">1차적으로 공유드렸던 내용을 바탕으로 주요 </tspan> <tspan x="40.08" y="123.269">타켓층을 집중적으로 공략하는 방안으로 프</tspan> <tspan x="40.08" y="141.269">로모션 진행할 예정입니다.</tspan>
                                </text>
                                <text fill="#616779" font-family="NotoSansCJKkr-Regular, Noto Sans CJK KR" font-size="13" letter-spacing="-.4">
                                    <tspan x="22.295" y="15">김마인</tspan>
                                </text>
                                <text fill="#616779" font-family="NotoSansCJKkr-Regular, Noto Sans CJK KR" font-size="10" opacity=".7">
                                    <tspan x="64.295" y="20">05:21</tspan>
                                </text>
                                <text fill="#616779" font-family="NotoSansCJKkr-Regular, Noto Sans CJK KR" font-size="10" letter-spacing="-.4" opacity=".7">
                                    <tspan x="60.295" y="179">07:01</tspan>
                                </text>
                                <text fill="#616779" font-family="NotoSansCJKkr-Regular, Noto Sans CJK KR" font-size="10" opacity=".7">
                                    <tspan x="171.295" y="81">06:22</tspan>
                                </text>
                                <text fill="#616779" font-family="NotoSansCJKkr-Regular, Noto Sans CJK KR" font-size="13" letter-spacing="-.4">
                                    <tspan x="22.295" y="175">이인공</tspan>
                                </text>
                                <text fill="#616779" font-family="NotoSansCJKkr-Regular, Noto Sans CJK KR" font-size="13" letter-spacing="-.4">
                                    <tspan x="228.295" y="77">최마음</tspan>
                                </text>
                                <g fill="#FFA26B" fill-rule="nonzero">
                                    <g>
                                        <path d="M16 6.818C16 3.068 12.4 0 8 0S0 3.068 0 6.818c0 3.75 3.6 6.818 8 6.818.667 0 1.333-.068 2-.204l3.733 1.5c.067 0 .134.068.267.068s.267-.068.4-.136c.2-.137.267-.41.267-.614l-.334-3.205C15.4 9.818 16 8.318 16 6.818zM9.333 8.864H4.667V7.5h4.666v1.364zm2-2.728H4.667V4.773h6.666v1.363z" transform="translate(0 3.514)"/>
                                    </g>
                                </g>
                                <g fill="#C48BFF" fill-rule="nonzero">
                                    <g>
                                        <path d="M16 6.818C16 3.068 12.4 0 8 0S0 3.068 0 6.818c0 3.75 3.6 6.818 8 6.818.667 0 1.333-.068 2-.204l3.733 1.5c.067 0 .134.068.267.068s.267-.068.4-.136c.2-.137.267-.41.267-.614l-.334-3.205C15.4 9.818 16 8.318 16 6.818zM9.333 8.864H4.667V7.5h4.666v1.364zm2-2.728H4.667V4.773h6.666v1.363z" transform="translate(0 163.514)"/>
                                    </g>
                                </g>
                                <g fill="#6CB0FF" fill-rule="nonzero">
                                    <g>
                                        <path d="M16 6.818C16 3.068 12.4 0 8 0S0 3.068 0 6.818c0 3.75 3.6 6.818 8 6.818.667 0 1.333-.068 2-.204l3.733 1.5c.067 0 .134.068.267.068s.267-.068.4-.136c.2-.137.267-.41.267-.614l-.334-3.205C15.4 9.818 16 8.318 16 6.818zM9.333 8.864H4.667V7.5h4.666v1.364zm2-2.728H4.667V4.773h6.666v1.363z" transform="translate(206 65.514)"/>
                                    </g>
                                </g>
                            </g>
                        </g>
                        <g transform="translate(-754 -2778) translate(418 2721) translate(0 87) translate(386) translate(250 215)">
                            <g filter="url(#vbccqk4ioc)">
                                <path fill="#14B7CC" d="M7.04 58.491c-3.262 0-5.915-2.653-5.915-5.914V7.264c0-3.261 2.653-5.914 5.914-5.914h24.875l16.608 16.867v34.36c0 3.261-2.653 5.914-5.914 5.914H7.039z"/>
                                <g transform="translate(0 .216)">
                                    <mask id="i47su4iame" fill="#fff">
                                        <use xlink:href="#0jiuwfg60d"/>
                                    </mask>
                                    <path fill="#14B7CC" d="M32.385.009H7.04C3.167.009 0 3.176 0 7.048V52.36c0 3.872 3.168 7.04 7.04 7.04h35.568c3.871 0 7.039-3.168 7.039-7.04V17.54L32.385.009zm-.942 2.25l15.954 16.203V52.36c0 2.64-2.149 4.79-4.79 4.79H7.04c-2.64 0-4.79-2.15-4.79-4.79V7.048c0-2.64 2.15-4.79 4.79-4.79h24.404z" mask="url(#i47su4iame)"/>
                                </g>
                                <path fill="#FFF" d="M39.069 16.91c-3.261 0-5.914-2.652-5.914-5.913V2.61l14.081 14.3h-8.167z"/>
                                <g transform="translate(31.95 .216)">
                                    <mask id="q12wynxc2g" fill="#fff">
                                        <use xlink:href="#8y6uwhizvf"/>
                                    </mask>
                                    <path fill="#14B7CC" d="M.435.009H.08V10.78c0 3.872 3.167 7.04 7.039 7.04h10.578v-.28L.435.009zm1.895 5.13L12.6 15.57H7.118c-2.64 0-4.79-2.148-4.79-4.789V5.14z" mask="url(#q12wynxc2g)"/>
                                </g>
                            </g>
                            <rect width="22" height="4" x="8" y="20" fill="#FFF" rx="2"/>
                            <rect width="32.5" height="4" x="8" y="30" fill="#FFF" rx="2"/>
                            <rect width="32.5" height="4" x="8" y="40" fill="#FFF" rx="2"/>
                        </g>
                    </g>
                </g>
            </g>
        </g>
    </g>
</svg>
