<?xml version="1.0" encoding="utf-8"?>
<!-- Generator: Adobe Illustrator 24.3.0, SVG Export Plug-In . SVG Version: 6.00 Build 0)  -->
<svg version="1.1" id="레이어_1" xmlns="http://www.w3.org/2000/svg" xmlns:xlink="http://www.w3.org/1999/xlink" x="0px"
	 y="0px" viewBox="0 0 410 345" style="enable-background:new 0 0 410 345;" xml:space="preserve">
<style type="text/css">
	.st0{fill-rule:evenodd;clip-rule:evenodd;fill:#FFFFFF;}
	.st1{fill:#FFFFFF;}
	.st2{fill-rule:evenodd;clip-rule:evenodd;fill:#EFF3F7;stroke:#E9F1F9;}
	.st3{enable-background:new    ;}
	.st4{fill:#394058;}
	.st5{fill:#616779;}
	.st6{fill:#FFA26B;}
	.st7{fill:#C48BFF;}
	.st8{fill:#6CB0FF;}
	.st9{fill-rule:evenodd;clip-rule:evenodd;fill:#14B7CC;}
	.st10{filter:url(#Adobe_OpacityMaskFilter);}
	.st11{mask:url(#i47su4iame_1_);fill-rule:evenodd;clip-rule:evenodd;fill:#14B7CC;}
	.st12{filter:url(#Adobe_OpacityMaskFilter_1_);}
	.st13{mask:url(#q12wynxc2g_1_);fill-rule:evenodd;clip-rule:evenodd;fill:#14B7CC;}
</style>
<g transform="translate(-754 -2778) translate(418 2721) translate(0 87) translate(386)">
	
		<image style="overflow:visible;opacity:0.2;" width="501" height="436" xlink:href="F7AE2EE0.png"  transform="matrix(1 0 0 1 -90.0394 -76.0394)">
	</image>
	<g>
		<g>
			<g>
				<path id="_x32_ngql3ydnb_12_" class="st0" d="M0,0h310v245H0V0z"/>
			</g>
			<g>
				<path class="st1" d="M310,255H0c-5.5,0-10-4.5-10-10V0c0-5.5,4.5-10,10-10h310c5.5,0,10,4.5,10,10v245
					C320,250.5,315.5,255,310,255z M10,235h290V10H10V235z"/>
			</g>
		</g>
	</g>
</g>
<path class="st2" d="M85.3,68h220c8.3,0,15,6.7,15,15l0,0c0,8.3-6.7,15-15,15h-220c-8.3,0-15-6.7-15-15l0,0
	C70.3,74.7,77.1,68,85.3,68z"/>
<path class="st2" d="M85.3,229h198c8.3,0,15,6.7,15,15l0,0c0,8.3-6.7,15-15,15h-198c-8.3,0-15-6.7-15-15l0,0
	C70.3,235.7,77.1,229,85.3,229z"/>
<path class="st2" d="M115.3,130h199c11,0,20,9,20,20v25c0,11-9,20-20,20h-199c-11,0-20-9-20-20v-25C95.3,138.9,104.3,130,115.3,130z
	"/>
<g class="st3">
	<path class="st4" d="M94.6,87.4v0.8h-9.8v-0.8h4.4v-2.2c-2-0.1-3.4-1.2-3.4-2.8c0-1.7,1.6-2.8,3.9-2.8c2.3,0,3.9,1.1,3.9,2.8
		c0,1.6-1.4,2.7-3.4,2.8v2.2H94.6z M89.7,84.4c1.7,0,3-0.8,3-2s-1.2-2-3-2c-1.7,0-3,0.8-3,2S88,84.4,89.7,84.4z"/>
	<path class="st4" d="M105.4,83.3v0.8h-9.8v-0.8H105.4z M97.8,88.7h6.7v0.8h-7.7v-2.6h6.3v-1h-6.3v-0.8h7.3v2.5h-6.3V88.7z
		 M104.2,82.2h-7.3V79h1v2.4h6.3V82.2z"/>
	<path class="st4" d="M114.8,79.1h0.9v10h-0.9v-5.2h-1.4c-0.1,2.1-1,3.4-2.3,3.4c-1.4,0-2.3-1.4-2.3-3.8c0-2.3,0.9-3.7,2.3-3.7
		c1.3,0,2.2,1.3,2.3,3.3h1.4V79.1z M112.6,83.5c0-1.7-0.6-2.8-1.4-2.8c-0.9,0-1.4,1.1-1.4,2.8c0,1.8,0.5,2.9,1.4,2.9
		C112,86.4,112.6,85.3,112.6,83.5z M117.9,78.9v10.8h-0.9V78.9H117.9z"/>
	<path class="st4" d="M129.2,87.4v0.8h-9.7v-0.8h3.8v-2.8h1v2.8H129.2z M127,82.5c0-0.6,0-1.1,0-1.6v-0.2h-6.4v-0.8h6.8l0.6,0v1
		c0,1.3,0,2.8-0.5,5l-1-0.1c0.2-1,0.3-1.8,0.4-2.5l-6.5,0.3l-0.1-0.8L127,82.5z"/>
	<path class="st4" d="M133,80h4.9v6.9H133V80z M134,86.1h3v-5.4h-3V86.1z M142.7,84h-1.8v5.6h-1V78.9h1v4.3h1.8V84z"/>
	<path class="st4" d="M146.4,84.9c-1.6,0-2.8-1.1-2.8-2.7c0-1.5,1.2-2.6,2.8-2.6c1.6,0,2.8,1.1,2.8,2.6
		C149.2,83.8,148,84.9,146.4,84.9z M146.4,84.1c1.1,0,1.9-0.7,1.9-1.8c0-1-0.8-1.8-1.9-1.8c-1,0-1.8,0.7-1.8,1.8
		C144.6,83.3,145.3,84.1,146.4,84.1z M152.5,88.6v0.8h-7.2v-3.5h1v2.7H152.5z M152.2,86.8h-1v-7.9h1V86.8z"/>
	<path class="st4" d="M163.8,87.4v0.8h-9.8v-0.8H163.8z M154.6,84.7c1.9-0.3,3.9-1.8,3.9-3.5v-0.5h-3.6V80h8.1v0.8h-3.6v0.5
		c0,1.7,2.1,3.2,3.9,3.5l-0.4,0.8c-1.6-0.3-3.3-1.4-4-2.9c-0.7,1.5-2.4,2.6-4,2.9L154.6,84.7z"/>
	<path class="st4" d="M167.6,80h4.9v6.9h-4.9V80z M168.6,86.1h3v-5.4h-3V86.1z M177.3,84h-1.8v5.6h-1V78.9h1v4.3h1.8V84z"/>
	<path class="st4" d="M183.9,79.2h0.9v9.9h-0.9v-5.2h-2c-0.6,1.3-1.6,2.5-3.4,3.5l-0.6-0.7c1.6-0.9,2.6-2,3.2-3.3l-3,0.3l-0.1-0.8
		l3.4-0.2c0.2-0.6,0.2-1.1,0.3-1.7h-3.2v-0.8h4.1c0,1-0.1,2-0.4,3h1.7V79.2z M187.1,78.9v10.8h-0.9V78.9H187.1z"/>
	<path class="st4" d="M195.4,84.5c-1.6,0.3-2.9,0.3-5.2,0.3h-0.9v-5.1h5.1v0.8h-4.1v1.3h3.8v0.8h-3.8V84c2.2,0,3.5,0,5-0.3
		L195.4,84.5z M197.6,87.7c0,1.2-1.4,2-3.6,2c-2.2,0-3.6-0.7-3.6-2c0-1.3,1.4-2,3.6-2C196.2,85.7,197.6,86.4,197.6,87.7z
		 M196.6,87.7c0-0.8-1-1.2-2.6-1.2c-1.6,0-2.6,0.4-2.6,1.2c0,0.7,1,1.2,2.6,1.2C195.6,88.9,196.6,88.4,196.6,87.7z M197.5,85.6h-1
		v-6.7h1V85.6z"/>
	<path class="st4" d="M205.9,86.7c1,0,2.1-0.1,3-0.3l0.1,0.7c-2.4,0.4-5,0.4-7,0.4l-0.1-0.8c0.9,0,1.9,0,3,0v-1.2
		c-1.3-0.2-2.1-0.9-2.1-2c0-1.2,1.1-2,2.6-2c1.5,0,2.6,0.8,2.6,2c0,1.1-0.8,1.8-2.1,2V86.7z M208.6,81h-6.5v-0.8h2.8v-1.3h1v1.3h2.8
		V81z M205.4,84.8c1,0,1.6-0.5,1.6-1.2c0-0.8-0.7-1.2-1.6-1.2c-1,0-1.7,0.5-1.7,1.2C203.7,84.3,204.4,84.8,205.4,84.8z M210.6,78.9
		v10.7h-1V78.9H210.6z"/>
	<path class="st4" d="M212.6,86.5c2,0,4.7,0,7-0.4l0.1,0.7c-2.4,0.5-5,0.5-7,0.5L212.6,86.5z M218.9,82.2c0,1.5-1.2,2.5-2.9,2.5
		c-1.7,0-2.9-1-2.9-2.5c0-1.5,1.2-2.5,2.9-2.5C217.7,79.7,218.9,80.7,218.9,82.2z M214.1,82.2c0,1,0.8,1.7,1.9,1.7s1.9-0.7,1.9-1.7
		c0-1-0.8-1.7-1.9-1.7S214.1,81.2,214.1,82.2z M221.3,78.9v10.8h-1V78.9H221.3z"/>
	<path class="st4" d="M229.5,81.8c0,2,1.3,3.9,2.9,4.7l-0.6,0.8c-1.2-0.6-2.3-1.9-2.8-3.4c-0.5,1.6-1.5,3-2.8,3.6l-0.6-0.8
		c1.6-0.8,2.9-2.8,2.9-4.9v-1.9h1V81.8z M234.5,78.9v10.8h-1V78.9H234.5z"/>
	<path class="st4" d="M242.2,84.9c-1.2-0.4-2.1-1.3-2.6-2.4c-0.5,1.2-1.4,2.1-2.7,2.6l-0.5-0.8c1.6-0.6,2.7-2,2.7-3.5v-0.4h-2.4
		v-0.8h5.8v0.8h-2.4v0.4c0,1.4,1,2.8,2.6,3.3L242.2,84.9z M237.8,85.9h7v3.7h-1v-2.9h-6V85.9z M246.4,82.5h-1.6v2.8h-1v-6.5h1v2.8
		h1.6V82.5z"/>
	<path class="st4" d="M253.2,80.6h2.7v0.8h-6.3v-0.8h2.7V79h1V80.6z M255.3,84.8c0,1.5-1.1,2.5-2.6,2.5c-1.5,0-2.6-1-2.6-2.5
		c0-1.5,1.1-2.5,2.6-2.5C254.2,82.3,255.3,83.3,255.3,84.8z M254.4,84.8c0-1-0.7-1.7-1.7-1.7c-1,0-1.7,0.7-1.7,1.7
		c0,1,0.7,1.7,1.7,1.7C253.7,86.4,254.4,85.7,254.4,84.8z M259.6,84.1h-1.8v5.5h-1V78.9h1v4.4h1.8V84.1z"/>
	<path class="st4" d="M264.2,82.7c-0.7,1.1-1.8,1.9-3.3,2.6l-0.5-0.7c2.2-0.9,3.4-2.3,3.6-4.1h-3.2v-0.8h4.2c0,0.8-0.1,1.6-0.4,2.3
		h1.7v-2.8h0.9v5.8h-0.9v-2.2H264.2z M268,86.2c0,1.1,0.8,2.2,2.2,2.7l-0.5,0.7c-1.1-0.4-1.8-1.1-2.2-2c-0.3,0.9-1,1.7-2,2.1
		c-1-0.4-1.7-1.2-2-2.1c-0.4,0.9-1.1,1.6-2.1,2l-0.5-0.7c1.4-0.5,2.2-1.7,2.2-2.7v-0.7h0.9v0.7c0,1,0.5,2,1.5,2.6
		c1-0.6,1.5-1.7,1.5-2.6v-0.7h1V86.2z M269.4,85.1h-0.9v-6.2h0.9V85.1z"/>
	<path class="st4" d="M280.8,83.8v0.8H271v-0.8H280.8z M279.9,83c-1.7-0.3-3.3-1.1-3.9-2.3c-0.7,1.2-2.3,2-4,2.3l-0.4-0.8
		c1.9-0.2,3.8-1.4,3.8-2.8V79h1v0.5c0,1.3,1.9,2.5,3.8,2.8L279.9,83z M278.5,85.3h1v4.2h-7.2v-4.2h1v1.3h5.3V85.3z M278.5,87.3h-5.3
		v1.4h5.3V87.3z"/>
	<path class="st4" d="M283.4,86c1.6,0,3.3-0.1,5.1-0.5l0.1,0.8c-1.9,0.4-3.6,0.5-5.3,0.5h-0.9v-6.9h1V86z M290.6,78.9v10.7h-1V78.9
		H290.6z"/>
	<path class="st4" d="M294,86.1c1.9,0,3.3-0.1,4.8-0.4l0.1,0.8c-1.6,0.3-3.1,0.4-5.1,0.4H293v-7.1h5v0.8h-4V86.1z M302.6,83.9h-1.8
		v5.7h-1V78.9h1v4.2h1.8V83.9z"/>
	<path class="st4" d="M303.5,88.1c0-0.5,0.4-0.9,0.8-0.9s0.8,0.4,0.8,0.9c0,0.5-0.4,0.8-0.8,0.8S303.5,88.6,303.5,88.1z"/>
</g>
<g class="st3">
	<path class="st4" d="M86.4,246.1c1.2,0,2.2-0.1,3.5-0.3l0.1,0.8c-1.4,0.3-2.6,0.4-3.9,0.4h-0.7V240h1V246.1z M90.8,239.1h0.9v10
		h-0.9v-5.8h-2.4v-0.8h2.4V239.1z M94,238.9v10.8h-0.9v-10.8H94z"/>
	<path class="st4" d="M108.3,247.4v0.8h-9.8v-0.8H108.3z M101.1,240.8h-1.7V240h8v0.8h-1.7v3.7h1.6v0.8h-7.9v-0.8h1.6V240.8z
		 M104.8,240.8h-2.7v3.7h2.7V240.8z"/>
	<path class="st4" d="M119.4,247.5v0.8h-9.8v-0.8h4.4v-2h-3.2v-3.3h6.4v-1.7h-6.4v-0.8h7.4v3.3h-6.4v1.7h6.6v0.8H115v2H119.4z"/>
	<path class="st4" d="M130.4,247.4v0.8h-9.8v-0.8h4.4v-2.6h-3.2v-5h7.4v5H126v2.6H130.4z M122.8,244.1h5.5v-3.5h-5.5V244.1z"/>
	<path class="st4" d="M137.5,245.3c-1.2-0.5-2.1-1.5-2.5-2.7c-0.4,1.3-1.4,2.3-2.7,2.8l-0.5-0.8c1.6-0.6,2.7-2.2,2.7-3.8v-1.4h1v1.4
		c0,1.6,1,3.1,2.6,3.7L137.5,245.3z M140.8,248.6v0.8h-7.2v-3.3h1v2.5H140.8z M139.6,243.5h-2.2v-0.8h2.2v-1.4h-2.2v-0.8h2.2v-1.6h1
		v8h-1V243.5z"/>
	<path class="st4" d="M151.1,244.7c-1.2-0.4-2.1-1.3-2.6-2.4c-0.4,1.3-1.4,2.2-2.7,2.7l-0.5-0.8c1.6-0.6,2.7-2.1,2.7-3.7v-1.1h1v1.2
		c0,1.5,1.1,2.8,2.6,3.3L151.1,244.7z M153.9,247.7c0,1.2-1.4,2-3.5,2c-2.2,0-3.5-0.7-3.5-2c0-1.3,1.4-2,3.5-2
		C152.6,245.7,153.9,246.4,153.9,247.7z M152.9,247.7c0-0.8-1-1.2-2.6-1.2c-1.6,0-2.6,0.4-2.6,1.2c0,0.7,1,1.2,2.6,1.2
		C152,248.9,152.9,248.4,152.9,247.7z M155.4,241.7v0.8h-1.6v2.9h-1v-6.5h1v2.8H155.4z"/>
	<path class="st4" d="M159.7,241.9c0,1.7,0.8,3.5,2.2,4.4l-0.6,0.8c-1-0.6-1.7-1.8-2.1-3.1c-0.4,1.4-1.2,2.7-2.2,3.3l-0.6-0.7
		c1.5-0.9,2.4-2.8,2.4-4.6v-2.1h0.9V241.9z M162.5,239.1h0.9v10h-0.9v-5.6h-1.8v-0.8h1.8V239.1z M165.6,238.9v10.8h-0.9v-10.8H165.6
		z"/>
	<path class="st4" d="M173.2,244c-1.6,0-2.8-1-2.8-2.4c0-1.4,1.2-2.4,2.8-2.4c1.6,0,2.8,1,2.8,2.4C176,243.1,174.8,244,173.2,244z
		 M173.2,243.3c1.1,0,1.8-0.7,1.8-1.6c0-0.9-0.8-1.6-1.8-1.6c-1,0-1.8,0.7-1.8,1.6C171.4,242.6,172.2,243.3,173.2,243.3z
		 M179.4,248.7v0.8h-7.3v-2.7h6v-1.1h-6v-0.8h7v2.6h-6v1.2H179.4z M179,244.4h-1v-5.5h1V244.4z"/>
	<path class="st4" d="M187.1,244.9c-1.2-0.4-2.1-1.3-2.6-2.4c-0.5,1.2-1.5,2.3-2.7,2.7l-0.5-0.8c1.6-0.6,2.7-2,2.7-3.6v-0.4h-2.4
		v-0.8h5.7v0.8H185v0.4c0,1.4,1.1,2.7,2.6,3.3L187.1,244.9z M190.1,247.6c0,1.3-1.4,2-3.6,2s-3.6-0.7-3.6-2s1.4-2,3.6-2
		S190.1,246.4,190.1,247.6z M189.2,247.6c0-0.8-1-1.2-2.6-1.2s-2.6,0.5-2.6,1.2s1,1.2,2.6,1.2S189.2,248.4,189.2,247.6z
		 M189.1,241.7v-2.8h1v6.4h-1v-2.8H187v-0.8H189.1z"/>
	<path class="st4" d="M204.7,243.9v0.8H195v-0.8h4v-2.1h1v2.1H204.7z M203.6,247.7c0,1.2-1.5,2-3.8,2s-3.7-0.7-3.7-2
		c0-1.2,1.5-2,3.7-2S203.6,246.4,203.6,247.7z M202.5,240.2h-6.4v-0.8h7.3v0.9c0,0.9,0,1.7-0.3,2.8l-1-0.1c0.3-1.1,0.3-1.9,0.3-2.7
		V240.2z M202.6,247.7c0-0.8-1.1-1.2-2.8-1.2c-1.7,0-2.8,0.5-2.8,1.2c0,0.7,1.1,1.2,2.8,1.2C201.5,248.9,202.6,248.4,202.6,247.7z"
		/>
	<path class="st4" d="M215.8,245.8h-2.5v3.8h-1v-3.8h-2.7v3.8h-1v-3.8H206V245h9.7V245.8z M207.1,241.7c0-1.4,1.5-2.3,3.8-2.3
		c2.2,0,3.8,0.9,3.8,2.3c0,1.4-1.5,2.4-3.8,2.4C208.6,244,207.1,243.1,207.1,241.7z M208.1,241.7c0,0.9,1.1,1.6,2.7,1.6
		c1.6,0,2.8-0.6,2.8-1.6c0-0.9-1.1-1.5-2.8-1.5C209.2,240.1,208.1,240.7,208.1,241.7z"/>
	<path class="st4" d="M229.5,246.1h-4.4v3.6h-1v-3.6h-4.4v-0.8h9.8V246.1z M228.3,244H221v-4.7h1v1.5h5.3v-1.5h1V244z M227.3,241.6
		h-5.3v1.6h5.3V241.6z"/>
	<path class="st4" d="M237,244.5c-1.5,0.3-2.7,0.3-4.9,0.3h-0.8v-5.2h4.9v0.8h-3.9v1.4h3.7v0.8h-3.7v1.5c2.1,0,3.2,0,4.6-0.3
		L237,244.5z M232.1,245.9h7v3.7h-1v-2.9h-6V245.9z M240.7,242.6h-1.6v2.8h-1v-6.5h1v2.9h1.6V242.6z"/>
	<path class="st4" d="M251.6,247.4v0.8h-9.8v-0.8H251.6z M250.5,244.8h-7.4v-5h7.3v0.8H244v3.4h6.4V244.8z"/>
	<path class="st4" d="M259.5,244.2c-1.8,0.3-3.2,0.3-5.2,0.3h-0.9v-3h3.9v-1.4h-3.9v-0.8h4.9v2.9h-3.9v1.5c1.9,0,3.3-0.1,5-0.3
		L259.5,244.2z M260.7,245.3h1v4.2h-7v-4.2h1v1.3h5V245.3z M260.7,247.4h-5v1.3h5V247.4z M261.7,238.9v5.9h-1v-5.9H261.7z"/>
	<path class="st4" d="M265.6,246c1.6,0,3.3-0.1,5.1-0.5l0.1,0.8c-1.9,0.4-3.6,0.5-5.3,0.5h-0.9v-6.9h1V246z M272.7,238.9v10.7h-1
		v-10.7H272.7z"/>
	<path class="st4" d="M276.4,246.1c1.9,0,3.3-0.1,4.8-0.4l0.1,0.8c-1.6,0.3-3.1,0.4-5.1,0.4h-0.9v-7.1h5v0.8h-4V246.1z M285,243.9
		h-1.8v5.7h-1v-10.8h1v4.2h1.8V243.9z"/>
	<path class="st4" d="M286.2,248.1c0-0.5,0.4-0.9,0.8-0.9s0.8,0.4,0.8,0.9c0,0.5-0.4,0.8-0.8,0.8S286.2,248.6,286.2,248.1z"/>
</g>
<g class="st3">
	<path class="st4" d="M111.1,147.8h2v-6.6h-1.6v-0.7c0.8-0.1,1.3-0.3,1.8-0.6h0.8v7.9h1.8v0.9h-4.8V147.8z"/>
	<path class="st4" d="M120.7,142.4c0,1.7,1.1,3.5,2.6,4.2l-0.6,0.8c-1.2-0.6-2.1-1.8-2.5-3.1c-0.5,1.5-1.4,2.7-2.7,3.3l-0.6-0.7
		c1.6-0.8,2.7-2.6,2.7-4.5v-0.8h-2.4v-0.8h2.4v-1.7h1v1.7h2.4v0.8h-2.4V142.4z M127.1,144.1h-1.8v5.5h-1v-10.8h1v4.4h1.8V144.1z"/>
	<path class="st4" d="M133.7,144.9c-1.2-0.4-2.1-1.3-2.6-2.4c-0.5,1.2-1.4,2.2-2.7,2.7l-0.5-0.8c1.6-0.6,2.7-2,2.7-3.5v-0.4h-2.4
		v-0.8h5.7v0.8h-2.4v0.4c0,1.4,1.1,2.7,2.6,3.3L133.7,144.9z M129.5,145.9h7.2v3.7h-1v-3h-6.2V145.9z M136.7,138.9v6.4h-1v-2.8h-2.1
		v-0.8h2.1v-2.8H136.7z"/>
	<path class="st4" d="M148.3,147.4v0.8h-9.8v-0.8H148.3z M147.3,142.5c0,1.8-1.7,3-3.9,3c-2.2,0-3.9-1.2-3.9-3c0-1.8,1.7-3,3.9-3
		C145.6,139.6,147.3,140.7,147.3,142.5z M140.4,142.5c0,1.3,1.3,2.2,3,2.2c1.7,0,3-0.9,3-2.2c0-1.3-1.3-2.2-3-2.2
		C141.7,140.4,140.4,141.2,140.4,142.5z"/>
	<path class="st4" d="M159.1,147.5v0.8h-9.8v-0.8h4.4v-2h-3.2v-3.3h6.4v-1.7h-6.4v-0.8h7.4v3.3h-6.4v1.7h6.6v0.8h-3.4v2H159.1z"/>
	<path class="st4" d="M172.1,143.9v0.8h-9.7v-0.8h4v-2.1h1v2.1H172.1z M171,147.7c0,1.2-1.5,2-3.8,2c-2.3,0-3.7-0.7-3.7-2
		c0-1.2,1.5-2,3.7-2C169.5,145.7,171,146.4,171,147.7z M169.9,140.2h-6.4v-0.8h7.3v0.9c0,0.9,0,1.7-0.3,2.8l-1-0.1
		c0.3-1.1,0.3-1.9,0.3-2.7V140.2z M170,147.7c0-0.8-1.1-1.2-2.8-1.2c-1.7,0-2.8,0.5-2.8,1.2c0,0.7,1.1,1.2,2.8,1.2
		C168.9,148.9,170,148.4,170,147.7z"/>
	<path class="st4" d="M182.9,145.8h-2.5v3.8h-1v-3.8h-2.7v3.8h-1v-3.8h-2.5V145h9.7V145.8z M174.3,141.7c0-1.4,1.5-2.3,3.8-2.3
		c2.2,0,3.8,0.9,3.8,2.3c0,1.4-1.5,2.4-3.8,2.4C175.8,144,174.3,143.1,174.3,141.7z M175.3,141.7c0,0.9,1.1,1.6,2.7,1.6
		c1.6,0,2.8-0.6,2.8-1.6c0-0.9-1.1-1.5-2.8-1.5C176.4,140.1,175.3,140.7,175.3,141.7z"/>
	<path class="st4" d="M193.7,147.4v0.8h-9.8v-0.8H193.7z M192.5,144.8h-7.4v-5h7.3v0.8h-6.3v3.4h6.4V144.8z"/>
	<path class="st4" d="M198.7,141.7v-1.5h-3.7v-0.8h4.6v3h-3.6v1.6c2,0,3,0,4.3-0.3l0.1,0.8c-1.3,0.2-2.4,0.3-4.6,0.3h-0.8v-3.1
		H198.7z M202.3,146.2c0,1.1,0.8,2.3,2.2,2.7l-0.5,0.7c-1.1-0.4-1.8-1.1-2.2-2c-0.3,0.9-1,1.7-2,2.1c-1-0.4-1.7-1.2-2-2.1
		c-0.4,0.9-1.1,1.6-2.1,2l-0.5-0.7c1.3-0.5,2.1-1.7,2.1-2.7v-0.6h0.9v0.6c0,1,0.5,2,1.5,2.6c1-0.6,1.5-1.7,1.5-2.6v-0.6h1V146.2z
		 M202.5,143.4h-2.1v-0.8h2.1v-1.4h-2.1v-0.8h2.1v-1.5h1v6.4h-1V143.4z"/>
	<path class="st4" d="M211.6,144.8c-1.5,0.3-2.8,0.3-4.8,0.3H206v-5.4h4.9v0.8H207v3.8c1.9,0,3.1-0.1,4.5-0.3L211.6,144.8z
		 M214.5,148.7v0.8h-7.2v-3.3h1v2.5H214.5z M213.3,141.9v-3h1v7.8h-1v-4.1h-3v-0.8H213.3z"/>
	<path class="st4" d="M220,146c1,0,2.2-0.1,3.5-0.3l0.1,0.9c-1.5,0.3-2.7,0.3-3.8,0.3H219v-6.7h1V146z M227.6,138.9v10.7h-0.9v-5.6
		h-1.5v5h-0.9v-10h0.9v4.1h1.5v-4.4H227.6z"/>
	<path class="st4" d="M239,144.2v0.8h-9.7v-0.8h2.4v-1.5c-0.9-0.3-1.3-0.9-1.3-1.6c0-1.3,1.5-2,3.8-2c2.3,0,3.8,0.7,3.8,2
		c0,0.7-0.5,1.3-1.3,1.6v1.5H239z M237.8,147.7c0,1.2-1.4,1.9-3.7,1.9c-2.3,0-3.7-0.7-3.7-1.9s1.4-1.9,3.7-1.9
		C236.4,145.8,237.8,146.5,237.8,147.7z M234.1,142.3c1.7,0,2.8-0.5,2.8-1.2c0-0.8-1.1-1.2-2.8-1.2s-2.8,0.5-2.8,1.2
		C231.3,141.8,232.4,142.3,234.1,142.3z M236.8,147.7c0-0.7-1-1.2-2.7-1.2c-1.7,0-2.7,0.4-2.7,1.2s1,1.2,2.7,1.2
		C235.8,148.9,236.8,148.5,236.8,147.7z M232.6,144.2h3V143c-0.4,0.1-0.9,0.1-1.5,0.1c-0.5,0-1,0-1.5-0.1V144.2z"/>
	<path class="st4" d="M249.7,143.5v0.8H240v-0.8H249.7z M241.1,140.9c0-1.2,1.4-1.9,3.8-1.9s3.8,0.7,3.8,1.9c0,1.2-1.4,1.9-3.8,1.9
		S241.1,142.1,241.1,140.9z M242.2,148.8h6.6v0.8h-7.6v-2.6h6.3v-1h-6.3v-0.7h7.3v2.4h-6.3V148.8z M242.1,140.9c0,0.7,1,1.1,2.8,1.1
		s2.8-0.4,2.8-1.1s-1-1.1-2.8-1.1S242.1,140.2,242.1,140.9z"/>
	<path class="st4" d="M257.6,139.8h1v7.3h-5v-7.3h1v2.8h3.1V139.8z M257.6,143.4h-3.1v2.8h3.1V143.4z M263.2,143.9h-1.8v5.7h-1
		v-10.7h1v4.2h1.8V143.9z"/>
	<path class="st4" d="M270.1,144.5c-1.5,0.3-2.7,0.3-4.9,0.3h-0.8v-5.1h4.9v0.8h-3.9v1.4h3.7v0.8h-3.7v1.4c2.1,0,3.2-0.1,4.6-0.3
		L270.1,144.5z M272.3,147.7c0,1.2-1.3,1.9-3.5,1.9c-2.2,0-3.5-0.7-3.5-1.9c0-1.2,1.3-1.9,3.5-1.9
		C271,145.8,272.3,146.5,272.3,147.7z M271.4,147.7c0-0.7-1-1.2-2.6-1.2c-1.6,0-2.6,0.4-2.6,1.2c0,0.7,1,1.2,2.6,1.2
		C270.4,148.9,271.4,148.4,271.4,147.7z M273.8,141.7v0.8h-1.6v3h-1v-6.6h1v2.8H273.8z"/>
	<path class="st4" d="M284.4,147.4v0.8h-9.8v-0.8H284.4z M283.4,142.5c0,1.8-1.7,3-3.9,3c-2.2,0-3.9-1.2-3.9-3c0-1.8,1.7-3,3.9-3
		C281.7,139.6,283.4,140.7,283.4,142.5z M276.5,142.5c0,1.3,1.3,2.2,3,2.2c1.7,0,3-0.9,3-2.2c0-1.3-1.3-2.2-3-2.2
		C277.8,140.4,276.5,141.2,276.5,142.5z"/>
	<path class="st4" d="M295.1,147.5v0.8h-9.8v-0.8h4.4v-2h-3.2v-3.3h6.4v-1.7h-6.4v-0.8h7.4v3.3h-6.4v1.7h6.6v0.8h-3.4v2H295.1z"/>
	<path class="st4" d="M308.2,145.8h-4.4v3.8h-1v-3.8h-4.3V145h9.7L308.2,145.8z M299.1,143.3c1.9-0.3,3.7-1.5,3.7-2.9v-0.1h-3.4
		v-0.8h7.9v0.8h-3.4v0.1c0,1.4,1.9,2.7,3.8,2.9l-0.4,0.8c-1.7-0.3-3.3-1.2-3.9-2.5c-0.7,1.3-2.2,2.2-3.9,2.5L299.1,143.3z"/>
	<path class="st4" d="M319,147.4v0.8h-9.8v-0.8h2.4v-2.9c-0.9-0.5-1.4-1.2-1.4-2.2c0-1.7,1.6-2.8,3.9-2.8c2.3,0,3.9,1.1,3.9,2.8
		c0,1-0.5,1.7-1.4,2.2v2.9H319z M311.1,142.3c0,1.2,1.2,2,3,2c1.7,0,3-0.8,3-2s-1.2-2-3-2C312.3,140.3,311.1,141.1,311.1,142.3z
		 M312.6,147.4h3v-2.5c-0.5,0.1-1,0.2-1.5,0.2c-0.5,0-1-0.1-1.5-0.2V147.4z"/>
</g>
<g class="st3">
	<path class="st4" d="M112.2,164.2c1.9,0,3.3-0.1,4.8-0.3l0.1,0.8c-1.7,0.3-3,0.4-5.1,0.4h-0.8v-7.2h5v0.8h-4v2.2h3.8v0.8h-3.8
		V164.2z M120.8,162H119v5.6h-1v-10.7h1v4.3h1.8V162z"/>
	<path class="st4" d="M125.6,160.8c-0.6,1.2-1.8,2.3-3.5,3l-0.5-0.7c1.6-0.7,2.6-1.5,3.1-2.6l-3,0.3l-0.2-0.8l3.5-0.2
		c0.1-0.4,0.2-0.8,0.2-1.2h-3.2v-0.8h4.2c0,0.8-0.1,1.5-0.3,2.2h1.6v-3h0.9v6.2h-0.9v-2.4H125.6z M127.5,163.9
		c0,1.4,1.8,2.6,3.7,2.9l-0.4,0.8c-1.6-0.3-3.1-1.1-3.8-2.3c-0.7,1.2-2.1,2.1-3.8,2.3l-0.4-0.8c1.9-0.3,3.7-1.5,3.7-2.9v-0.3h1
		V163.9z M130.6,164.2h-0.9v-7.3h0.9V164.2z"/>
	<path class="st4" d="M141.9,162.4v0.8h-9.7v-0.8H141.9z M132.8,160.9c2-0.2,3.7-1,3.8-2.2h-3.3v-0.8h3.4v-1.1h1v1.1h3.4v0.8h-3.3
		c0.1,1.2,1.7,2,3.8,2.2l-0.3,0.8c-1.8-0.2-3.3-0.8-4-1.9c-0.7,1.1-2.2,1.7-4,1.9L132.8,160.9z M140.7,165.8c0,1.2-1.4,1.8-3.7,1.8
		c-2.3,0-3.7-0.6-3.7-1.8c0-1.2,1.4-1.8,3.7-1.8C139.4,164.1,140.7,164.7,140.7,165.8z M139.7,165.8c0-0.7-1-1.1-2.7-1.1
		c-1.7,0-2.7,0.4-2.7,1.1c0,0.7,1,1,2.7,1C138.7,166.9,139.7,166.5,139.7,165.8z"/>
	<path class="st4" d="M152.7,161.5v0.8h-9.7v-0.8H152.7z M144,158.9c0-1.2,1.4-1.9,3.8-1.9c2.4,0,3.8,0.7,3.8,1.9
		c0,1.2-1.4,1.9-3.8,1.9C145.4,160.8,144,160.1,144,158.9z M145.1,166.8h6.6v0.8h-7.6v-2.6h6.3v-1h-6.3v-0.7h7.3v2.4h-6.3V166.8z
		 M145,158.9c0,0.7,1,1.1,2.8,1.1c1.8,0,2.8-0.4,2.8-1.1s-1-1.1-2.8-1.1C146,157.8,145,158.2,145,158.9z"/>
	<path class="st4" d="M162.2,162.5c-1.2-0.4-2.2-1.3-2.7-2.4c-0.5,1.2-1.5,2.1-2.7,2.6l-0.5-0.8c1.6-0.5,2.7-1.9,2.7-3.3v-0.2h-2.5
		v-0.8h5.9v0.8h-2.4v0.2c0,1.4,1.1,2.7,2.7,3.2L162.2,162.5z M163.9,163.2h1v4.3H158v-4.3h1v1.3h5V163.2z M163.9,165.3h-5v1.4h5
		V165.3z M164.9,156.9v5.8h-1v-5.8H164.9z"/>
	<path class="st4" d="M172.2,162.7v1.2c2,0.1,3.2,0.8,3.2,1.9c0,1.2-1.4,1.9-3.7,1.9c-2.3,0-3.7-0.7-3.7-1.9c0-1.1,1.2-1.8,3.2-1.9
		v-1.2h-4.4v-0.8h9.7v0.8H172.2z M167.4,160.5c1.9-0.2,3.6-1.1,3.7-2.3h-3.3v-0.8h8v0.8h-3.3c0.1,1.2,1.8,2.1,3.7,2.3l-0.3,0.8
		c-1.8-0.2-3.4-1-4-2.2c-0.6,1.2-2.2,2-4,2.2L167.4,160.5z M171.7,164.6c-1.7,0-2.7,0.4-2.7,1.1s1,1.1,2.7,1.1
		c1.7,0,2.7-0.4,2.7-1.1S173.3,164.6,171.7,164.6z"/>
	<path class="st4" d="M183.4,162.9c-1.2-0.4-2.1-1.3-2.6-2.4c-0.5,1.2-1.4,2.2-2.7,2.7l-0.5-0.8c1.6-0.6,2.7-2,2.7-3.5v-0.4h-2.4
		v-0.8h5.7v0.8h-2.4v0.4c0,1.4,1.1,2.7,2.6,3.3L183.4,162.9z M179.2,163.9h7.2v3.7h-1v-3h-6.2V163.9z M186.4,156.9v6.4h-1v-2.8h-2.1
		v-0.8h2.1v-2.8H186.4z"/>
	<path class="st4" d="M198,165.4v0.8h-9.8v-0.8H198z M197.1,160.5c0,1.8-1.7,3-3.9,3c-2.2,0-3.9-1.2-3.9-3c0-1.8,1.7-3,3.9-3
		C195.4,157.6,197.1,158.7,197.1,160.5z M190.2,160.5c0,1.3,1.3,2.2,3,2.2c1.7,0,3-0.9,3-2.2c0-1.3-1.3-2.2-3-2.2
		C191.4,158.4,190.2,159.2,190.2,160.5z"/>
	<path class="st4" d="M208.8,165.5v0.8H199v-0.8h4.4v-2h-3.2v-3.3h6.4v-1.7h-6.4v-0.8h7.4v3.3h-6.4v1.7h6.6v0.8h-3.4v2H208.8z"/>
	<path class="st4" d="M221.9,161.9v0.8h-9.7v-0.8h4v-2.1h1v2.1H221.9z M220.7,165.7c0,1.2-1.5,2-3.8,2c-2.3,0-3.7-0.7-3.7-2
		c0-1.2,1.5-2,3.7-2C219.3,163.7,220.7,164.4,220.7,165.7z M219.7,158.2h-6.4v-0.8h7.3v0.9c0,0.9,0,1.7-0.3,2.8l-1-0.1
		c0.3-1.1,0.3-1.9,0.3-2.7V158.2z M219.7,165.7c0-0.8-1.1-1.2-2.8-1.2c-1.7,0-2.8,0.5-2.8,1.2c0,0.7,1.1,1.2,2.8,1.2
		C218.7,166.9,219.7,166.4,219.7,165.7z"/>
	<path class="st4" d="M229.3,162.5c-1.7,0.3-3.1,0.4-5.1,0.4h-0.9v-3.1h3.8v-1.4h-3.9v-0.8h4.8v3h-3.9v1.5c1.9,0,3.3-0.1,4.9-0.4
		L229.3,162.5z M224.2,164h7v3.6h-1v-2.8h-6V164z M231.2,159.4v1.4h1.6v0.8h-1.6v1.8h-1v-6.5h1v1.7h1.6v0.8H231.2z"/>
	<path class="st4" d="M237.3,158.6h2.7v0.8h-6.3v-0.8h2.7V157h1V158.6z M239.4,162.8c0,1.5-1.1,2.5-2.6,2.5c-1.5,0-2.6-1-2.6-2.5
		c0-1.5,1.1-2.5,2.6-2.5C238.3,160.3,239.4,161.3,239.4,162.8z M238.5,162.8c0-1-0.7-1.7-1.7-1.7c-1,0-1.7,0.7-1.7,1.7
		c0,1,0.7,1.7,1.7,1.7C237.8,164.4,238.5,163.7,238.5,162.8z M243.7,162.1h-1.8v5.5h-1v-10.7h1v4.4h1.8V162.1z"/>
	<path class="st4" d="M254.1,162.4v0.8h-9.8v-0.8H254.1z M246.6,166.6h6.5v0.8h-7.4v-3.1h1V166.6z M253,160.9h-7.3v-3.6h1v2.8h6.3
		V160.9z"/>
	<path class="st4" d="M262.9,162.5h-5v-5h1v1.6h3v-1.6h1V162.5z M266,165.6c0,1.3-1.4,2-3.5,2c-2.2,0-3.5-0.7-3.5-2s1.4-2,3.5-2
		C264.6,163.6,266,164.4,266,165.6z M262,160h-3v1.8h3V160z M265,165.6c0-0.8-1-1.2-2.6-1.2c-1.6,0-2.6,0.4-2.6,1.2s1,1.2,2.6,1.2
		C264,166.9,265,166.4,265,165.6z M267.4,159.6v0.8h-1.6v3h-1v-6.5h1v2.7H267.4z"/>
	<path class="st4" d="M271.2,162.9c-1.6,0-2.8-1.1-2.8-2.7c0-1.6,1.2-2.7,2.8-2.7c1.6,0,2.8,1.1,2.8,2.7
		C274.1,161.8,272.9,162.9,271.2,162.9z M271.2,162.1c1.1,0,1.8-0.7,1.8-1.8c0-1.1-0.8-1.8-1.8-1.8c-1.1,0-1.8,0.7-1.8,1.8
		C269.4,161.3,270.2,162.1,271.2,162.1z M270.9,166.6h6.2v0.8h-7.2V164h1V166.6z M278.2,160.2v0.8h-1.6v3.8h-1v-7.9h1v3.3H278.2z"/>
	<path class="st4" d="M288.7,165.4v0.8H279v-0.8H288.7z M287.7,160.5c0,1.8-1.7,3-3.9,3c-2.2,0-3.9-1.2-3.9-3c0-1.8,1.7-3,3.9-3
		C286.1,157.6,287.7,158.7,287.7,160.5z M280.9,160.5c0,1.3,1.3,2.2,3,2.2c1.7,0,3-0.9,3-2.2c0-1.3-1.3-2.2-3-2.2
		C282.1,158.4,280.9,159.2,280.9,160.5z"/>
	<path class="st4" d="M299.5,165.5v0.8h-9.8v-0.8h4.4v-2h-3.2v-3.3h6.4v-1.7h-6.4v-0.8h7.4v3.3h-6.4v1.7h6.6v0.8h-3.4v2H299.5z"/>
	<path class="st4" d="M312.6,165.4v0.8h-9.8v-0.8H312.6z M305.4,158.8h-1.7V158h8v0.8H310v3.7h1.6v0.8h-7.9v-0.8h1.6V158.8z
		 M309,158.8h-2.7v3.7h2.7V158.8z"/>
</g>
<g class="st3">
	<path class="st4" d="M120.5,183.5v0.8h-9.8v-0.8h4.4v-2h-3.2v-3.3h6.4v-1.7h-6.4v-0.8h7.4v3.3h-6.4v1.7h6.6v0.8h-3.4v2H120.5z"/>
	<path class="st4" d="M131.2,183.4v0.8h-9.8v-0.8h4.4v-2.6h-3.2v-5h7.4v5h-3.2v2.6H131.2z M123.6,180.1h5.5v-3.5h-5.5V180.1z"/>
	<path class="st4" d="M137.9,181.3c-1.2-0.5-2.1-1.5-2.5-2.7c-0.4,1.3-1.4,2.3-2.7,2.8l-0.5-0.8c1.6-0.6,2.7-2.2,2.7-3.8v-1.4h1v1.4
		c0,1.6,1,3.1,2.6,3.7L137.9,181.3z M141.3,184.6v0.8h-7.2v-3.3h1v2.5H141.3z M140.1,179.5h-2.2v-0.8h2.2v-1.4h-2.2v-0.8h2.2v-1.6h1
		v8h-1V179.5z"/>
	<path class="st4" d="M151.4,181.2c-1.2-0.4-2.2-1.3-2.7-2.4c-0.5,1.2-1.5,2.2-2.7,2.7l-0.5-0.8c1.6-0.6,2.7-2,2.7-3.5v-0.6h-2.5
		v-0.8h5.9v0.8h-2.4v0.6c0,1.5,1.1,2.8,2.7,3.3L151.4,181.2z M154.5,184.6v0.8h-7.2V182h1v2.6H154.5z M154.2,182.8h-1v-7.9h1V182.8z
		"/>
	<path class="st4" d="M161.5,176.9H156v-0.8h2.3V175h1v1.2h2.2V176.9z M158.8,181.2c-1.4,0-2.3-0.7-2.3-1.8c0-1.1,0.9-1.8,2.3-1.8
		c1.4,0,2.3,0.7,2.3,1.8C161,180.5,160.1,181.2,158.8,181.2z M158.8,180.5c0.8,0,1.4-0.4,1.4-1.1c0-0.7-0.6-1.1-1.4-1.1
		c-0.9,0-1.4,0.4-1.4,1.1C157.3,180,157.9,180.5,158.8,180.5z M165.2,183.8c0,1.2-1.4,1.9-3.6,1.9c-2.2,0-3.6-0.7-3.6-1.9
		c0-1.2,1.4-1.9,3.6-1.9C163.8,181.9,165.2,182.5,165.2,183.8z M164.2,183.8c0-0.7-1-1.1-2.6-1.1c-1.6,0-2.6,0.4-2.6,1.1
		c0,0.7,1,1.1,2.6,1.1C163.2,184.9,164.2,184.5,164.2,183.8z M162.8,181.3h-0.9v-6.2h0.9v2.7h1.4v-2.9h0.9v6.8h-0.9v-3.1h-1.4V181.3
		z"/>
	<path class="st4" d="M173.2,176.6h-6.3v-0.8h2.7v-1.1h1v1.1h2.7V176.6z M170,180.6c-1.5,0-2.6-0.7-2.6-1.8s1-1.8,2.6-1.8
		c1.6,0,2.6,0.7,2.6,1.8S171.6,180.6,170,180.6z M169.3,184.8h6.2v0.8h-7.2V183h5.8v-0.9h-5.9v-0.7h6.8v2.4h-5.8V184.8z M170,179.9
		c1,0,1.6-0.4,1.6-1s-0.6-1-1.6-1s-1.6,0.4-1.6,1S169,179.9,170,179.9z M176.7,177.4v0.8h-1.6v2.5h-1v-5.9h1v2.6H176.7z"/>
	<path class="st4" d="M186,175.1h0.9v10H186v-3.5h-1.7c-0.4,1.1-1.1,1.7-2,1.7c-1.4,0-2.3-1.4-2.3-3.8c0-2.3,0.9-3.7,2.3-3.7
		c0.9,0,1.6,0.6,2,1.7h1.7V175.1z M183.8,179.5c0-1.7-0.5-2.8-1.4-2.8c-0.9,0-1.4,1.1-1.4,2.8c0,1.8,0.6,2.8,1.4,2.8
		C183.2,182.4,183.8,181.3,183.8,179.5z M186,180.8v-2.5h-1.5c0.1,0.4,0.1,0.8,0.1,1.2c0,0.5,0,0.9-0.1,1.2H186z M189.1,174.9v10.8
		h-0.9v-10.8H189.1z"/>
	<path class="st4" d="M196.5,180.9c-1.2-0.4-2.1-1.3-2.6-2.4c-0.5,1.2-1.5,2.3-2.7,2.7l-0.5-0.8c1.6-0.6,2.7-2,2.7-3.6v-0.4H191
		v-0.8h5.7v0.8h-2.4v0.4c0,1.4,1.1,2.7,2.6,3.3L196.5,180.9z M199.6,183.6c0,1.3-1.4,2-3.6,2s-3.6-0.7-3.6-2s1.4-2,3.6-2
		S199.6,182.4,199.6,183.6z M198.6,183.6c0-0.8-1-1.2-2.6-1.2s-2.6,0.5-2.6,1.2s1,1.2,2.6,1.2S198.6,184.4,198.6,183.6z
		 M198.5,177.7v-2.8h1v6.4h-1v-2.8h-2.1v-0.8H198.5z"/>
	<path class="st4" d="M207.3,177.9c0,1.5-1.2,2.5-2.8,2.5c-1.6,0-2.8-1-2.8-2.5c0-1.5,1.2-2.5,2.8-2.5
		C206.1,175.4,207.3,176.4,207.3,177.9z M202.6,177.9c0,1,0.8,1.7,1.8,1.7c1.1,0,1.9-0.7,1.9-1.7c0-1-0.8-1.7-1.9-1.7
		C203.4,176.2,202.6,176.9,202.6,177.9z M204.3,181.2v1.3h5v-1.3h1v4.3h-6.9v-4.3H204.3z M204.3,184.7h5v-1.4h-5V184.7z
		 M210.2,174.9v5.8h-1v-5.8H210.2z"/>
	<path class="st4" d="M213.8,182c1.6,0,3.3-0.1,5.1-0.5l0.1,0.8c-1.9,0.4-3.6,0.5-5.3,0.5h-0.9v-6.9h1V182z M221,174.9v10.7h-1
		v-10.7H221z"/>
	<path class="st4" d="M224.3,182.1c1.9,0,3.3-0.1,4.8-0.4l0.1,0.8c-1.6,0.3-3.1,0.4-5.1,0.4h-0.9v-7.1h5v0.8h-4V182.1z M232.9,179.9
		h-1.8v5.7h-1v-10.8h1v4.2h1.8V179.9z"/>
	<path class="st4" d="M233.9,184.1c0-0.5,0.4-0.9,0.8-0.9s0.8,0.4,0.8,0.9c0,0.5-0.4,0.8-0.8,0.8S233.9,184.6,233.9,184.1z"/>
</g>
<g class="st3">
	<path class="st5" d="M99.1,49.5c0,3-2.1,5.1-5.6,6l-0.4-0.8c2.8-0.7,4.6-2.3,4.8-4.3h-4.2v-0.9H99.1z M95,55.9h7.5v4.3H95V55.9z
		 M96.1,59.4h5.4v-2.6h-5.4V59.4z M102.6,48.8v6.6h-1.1v-6.6H102.6z"/>
	<path class="st5" d="M105,50h5.3v7.5H105V50z M106.1,56.6h3.3v-5.8h-3.3V56.6z M115.4,54.3h-1.9v6.1h-1.1V48.8h1.1v4.6h1.9V54.3z"
		/>
	<path class="st5" d="M119.4,55.4c-1.7,0-3-1.2-3-2.9c0-1.7,1.3-2.9,3-2.9c1.7,0,3.1,1.2,3.1,2.9C122.5,54.2,121.2,55.4,119.4,55.4z
		 M119.4,54.4c1.2,0,2-0.8,2-2c0-1.1-0.9-1.9-2-1.9c-1.1,0-2,0.8-2,1.9C117.4,53.6,118.3,54.4,119.4,54.4z M126,59.3v0.9h-7.9v-3.7
		h1.1v2.9H126z M125.7,57.3h-1.1v-8.5h1.1V57.3z"/>
</g>
<g class="st3">
	<path class="st5" d="M135.8,53.8c0-2.5,0.9-3.8,2.3-3.8c1.4,0,2.3,1.2,2.3,3.8c0,2.5-0.9,3.8-2.3,3.8
		C136.7,57.6,135.8,56.3,135.8,53.8z M139.5,53.8c0-2.1-0.6-3-1.4-3c-0.8,0-1.4,0.9-1.4,3c0,2.2,0.6,3.1,1.4,3.1
		C138.9,56.9,139.5,56,139.5,53.8z"/>
	<path class="st5" d="M141.1,56.6l0.4-0.6c0.4,0.4,0.9,0.8,1.8,0.8c0.9,0,1.6-0.7,1.6-1.7c0-1-0.6-1.7-1.5-1.7
		c-0.5,0-0.8,0.1-1.2,0.4l-0.5-0.3l0.2-3.4h3.6v0.8h-2.8l-0.2,2.1c0.3-0.2,0.6-0.3,1.1-0.3c1.2,0,2.2,0.7,2.2,2.3s-1.2,2.5-2.4,2.5
		C142.3,57.6,141.6,57.1,141.1,56.6z"/>
	<path class="st5" d="M147.1,52.9c0-0.4,0.3-0.7,0.7-0.7s0.7,0.3,0.7,0.7c0,0.4-0.3,0.7-0.7,0.7S147.1,53.3,147.1,52.9z M147.1,56.9
		c0-0.4,0.3-0.7,0.7-0.7s0.7,0.3,0.7,0.7c0,0.4-0.3,0.7-0.7,0.7S147.1,57.3,147.1,56.9z"/>
	<path class="st5" d="M149.6,56.9c2.3-2,3.4-3.5,3.4-4.7c0-0.8-0.4-1.4-1.3-1.4c-0.6,0-1.1,0.4-1.5,0.8l-0.5-0.5
		c0.6-0.6,1.2-1.1,2.2-1.1c1.3,0,2.1,0.9,2.1,2.2c0,1.5-1.1,2.9-2.9,4.6c0.4,0,0.8-0.1,1.2-0.1h2v0.8h-4.6V56.9z"/>
	<path class="st5" d="M155.6,56.7h1.6v-5.5h-1.3v-0.6c0.6-0.1,1.1-0.3,1.5-0.5h0.7v6.6h1.5v0.8h-4V56.7z"/>
</g>
<g class="st3">
	<path class="st5" d="M135.8,217.8c0-2.5,0.9-3.8,2.3-3.8c1.4,0,2.3,1.2,2.3,3.8c0,2.5-0.9,3.8-2.3,3.8
		C136.7,221.6,135.8,220.3,135.8,217.8z M139.5,217.8c0-2.1-0.6-3-1.4-3c-0.8,0-1.4,0.9-1.4,3c0,2.2,0.6,3.1,1.4,3.1
		C138.9,220.9,139.5,220,139.5,217.8z"/>
	<path class="st5" d="M144.5,214.9h-3.5v-0.8h4.6v0.5c-1.7,2.2-2,3.9-2.1,6.8h-0.9C142.5,218.7,143.1,216.9,144.5,214.9z"/>
	<path class="st5" d="M146.3,216.9c0-0.4,0.3-0.7,0.7-0.7s0.7,0.3,0.7,0.7c0,0.4-0.3,0.7-0.7,0.7S146.3,217.3,146.3,216.9z
		 M146.3,220.9c0-0.4,0.3-0.7,0.7-0.7s0.7,0.3,0.7,0.7c0,0.4-0.3,0.7-0.7,0.7S146.3,221.3,146.3,220.9z"/>
	<path class="st5" d="M148.5,217.8c0-2.5,0.9-3.8,2.3-3.8c1.4,0,2.3,1.2,2.3,3.8c0,2.5-0.9,3.8-2.3,3.8
		C149.4,221.6,148.5,220.3,148.5,217.8z M152.1,217.8c0-2.1-0.6-3-1.4-3c-0.8,0-1.4,0.9-1.4,3c0,2.2,0.6,3.1,1.4,3.1
		C151.6,220.9,152.1,220,152.1,217.8z"/>
	<path class="st5" d="M154,220.7h1.6v-5.5h-1.3v-0.6c0.6-0.1,1.1-0.3,1.5-0.5h0.7v6.6h1.5v0.8h-4V220.7z"/>
</g>
<g class="st3">
	<path class="st5" d="M241.8,117.8c0-2.5,0.9-3.8,2.3-3.8c1.4,0,2.3,1.2,2.3,3.8c0,2.5-0.9,3.8-2.3,3.8
		C242.7,121.6,241.8,120.3,241.8,117.8z M245.5,117.8c0-2.1-0.6-3-1.4-3c-0.8,0-1.4,0.9-1.4,3c0,2.2,0.6,3.1,1.4,3.1
		C244.9,120.9,245.5,120,245.5,117.8z"/>
	<path class="st5" d="M251.3,115.3c-0.3-0.3-0.7-0.6-1.2-0.6c-1,0-1.8,0.8-1.9,3c0.5-0.5,1.1-0.9,1.7-0.9c1.2,0,2,0.8,2,2.3
		c0,1.4-1,2.4-2.1,2.4c-1.4,0-2.4-1.2-2.4-3.6c0-2.9,1.3-4,2.7-4c0.8,0,1.3,0.3,1.7,0.7L251.3,115.3z M251.1,119.2
		c0-1-0.4-1.6-1.3-1.6c-0.5,0-1,0.3-1.5,0.9c0.1,1.5,0.7,2.3,1.6,2.3C250.6,120.9,251.1,120.2,251.1,119.2z"/>
	<path class="st5" d="M253.1,116.9c0-0.4,0.3-0.7,0.7-0.7c0.4,0,0.7,0.3,0.7,0.7c0,0.4-0.3,0.7-0.7,0.7
		C253.4,117.6,253.1,117.3,253.1,116.9z M253.1,120.9c0-0.4,0.3-0.7,0.7-0.7c0.4,0,0.7,0.3,0.7,0.7c0,0.4-0.3,0.7-0.7,0.7
		C253.4,121.6,253.1,121.3,253.1,120.9z"/>
	<path class="st5" d="M255.6,120.9c2.3-2,3.4-3.5,3.4-4.7c0-0.8-0.4-1.4-1.3-1.4c-0.6,0-1.1,0.4-1.5,0.8l-0.5-0.5
		c0.6-0.6,1.2-1.1,2.2-1.1c1.3,0,2.1,0.9,2.1,2.2c0,1.5-1.1,2.9-2.9,4.6c0.4,0,0.8-0.1,1.2-0.1h2v0.8h-4.6V120.9z"/>
	<path class="st5" d="M261.2,120.9c2.3-2,3.4-3.5,3.4-4.7c0-0.8-0.4-1.4-1.3-1.4c-0.6,0-1.1,0.4-1.5,0.8l-0.5-0.5
		c0.6-0.6,1.2-1.1,2.2-1.1c1.3,0,2.1,0.9,2.1,2.2c0,1.5-1.1,2.9-2.9,4.6c0.4,0,0.8-0.1,1.2-0.1h2v0.8h-4.6V120.9z"/>
</g>
<g class="st3">
	<path class="st5" d="M99.3,215.8c0,2.5-1.2,4.1-3,4.1s-3-1.6-3-4.1s1.2-4.1,3-4.1S99.3,213.3,99.3,215.8z M94.4,215.8
		c0,1.9,0.8,3.1,2,3.1c1.1,0,1.9-1.2,1.9-3.1c0-1.9-0.8-3.1-1.9-3.1C95.2,212.6,94.4,213.9,94.4,215.8z M102.5,210.8v11.7h-1.1
		v-11.7H102.5z"/>
	<path class="st5" d="M107.9,217.4c-1.7,0-3-1.2-3-2.9c0-1.7,1.3-2.9,3-2.9c1.7,0,3.1,1.2,3.1,2.9
		C110.9,216.2,109.6,217.4,107.9,217.4z M107.9,216.4c1.2,0,2-0.8,2-2c0-1.1-0.9-1.9-2-1.9c-1.1,0-2,0.8-2,1.9
		C105.9,215.6,106.7,216.4,107.9,216.4z M114.5,221.3v0.9h-7.9v-3.7h1.1v2.9H114.5z M114.1,219.3h-1.1v-8.5h1.1V219.3z"/>
	<path class="st5" d="M126.6,216.2v0.9h-10.5v-0.9h4.3V214h1.1v2.2H126.6z M125.4,220.3c0,1.3-1.6,2.1-4.1,2.1
		c-2.5,0-4.1-0.8-4.1-2.1c0-1.4,1.6-2.1,4.1-2.1C123.8,218.2,125.4,219,125.4,220.3z M124.3,212.2h-6.9v-0.9h7.9v1
		c0,0.9,0,1.9-0.3,3.1l-1-0.1c0.3-1.2,0.3-2.1,0.3-3V212.2z M124.4,220.3c0-0.8-1.2-1.3-3-1.3c-1.8,0-3,0.5-3,1.3
		c0,0.8,1.2,1.3,3,1.3C123.2,221.6,124.4,221.1,124.4,220.3z"/>
</g>
<g class="st3">
	<path class="st5" d="M303.4,119.1c1.1-0.1,2.2-0.1,3.3-0.3l0.1,0.8c-2.6,0.5-5.5,0.5-7.6,0.5l-0.1-0.9c1,0,2.1,0,3.3,0v-2.2h1.1
		V119.1z M299.4,116.5c1.7-0.5,2.9-1.8,2.9-3.3h-2.7v-0.9h2.7v-1.4h1.1v1.4h2.7v0.9h-2.7c0,1.5,1.2,2.7,3,3.2l-0.5,0.8
		c-1.4-0.4-2.4-1.3-3-2.5c-0.5,1.2-1.6,2.1-3,2.6L299.4,116.5z M308.5,110.8v11.7h-1.1v-11.7H308.5z"/>
	<path class="st5" d="M311,112h5.3v7.5H311V112z M312.1,118.6h3.3v-5.8h-3.3V118.6z M321.4,116.3h-1.9v6.1h-1.1v-11.6h1.1v4.6h1.9
		V116.3z"/>
	<path class="st5" d="M332.7,116.5v0.9h-10.5v-0.9H332.7z M331.5,113.3c0,1.4-1.6,2.2-4.1,2.2c-2.5,0-4.1-0.8-4.1-2.2
		c0-1.4,1.6-2.2,4.1-2.2C329.9,111,331.5,111.9,331.5,113.3z M331.4,118.5v3.8h-8v-3.8H331.4z M324.4,113.3c0,0.9,1.2,1.4,3,1.4
		c1.8,0,3-0.5,3-1.4c0-0.9-1.2-1.4-3-1.4C325.5,111.9,324.4,112.4,324.4,113.3z M324.5,119.3v2.1h5.9v-2.1H324.5z"/>
</g>
<g>
	<g>
		<path class="st6" d="M86,54.8c0-3.8-3.6-6.8-8-6.8s-8,3.1-8,6.8s3.6,6.8,8,6.8c0.7,0,1.3-0.1,2-0.2l3.7,1.5c0.1,0,0.1,0.1,0.3,0.1
			s0.3-0.1,0.4-0.1c0.2-0.1,0.3-0.4,0.3-0.6L84.3,59C85.4,57.8,86,56.3,86,54.8z M79.3,56.9h-4.7v-1.4h4.7V56.9z M81.3,54.1h-6.7
			v-1.4h6.7C81.3,52.8,81.3,54.1,81.3,54.1z"/>
	</g>
</g>
<g>
	<g>
		<path class="st7" d="M86,214.8c0-3.7-3.6-6.8-8-6.8s-8,3.1-8,6.8c0,3.8,3.6,6.8,8,6.8c0.7,0,1.3-0.1,2-0.2l3.7,1.5
			c0.1,0,0.1,0.1,0.3,0.1s0.3-0.1,0.4-0.1c0.2-0.1,0.3-0.4,0.3-0.6l-0.3-3.2C85.4,217.8,86,216.3,86,214.8z M79.3,216.9h-4.7v-1.4
			h4.7V216.9z M81.3,214.1h-6.7v-1.4h6.7C81.3,212.8,81.3,214.1,81.3,214.1z"/>
	</g>
</g>
<g>
	<g>
		<path class="st8" d="M292,116.8c0-3.8-3.6-6.8-8-6.8s-8,3.1-8,6.8s3.6,6.8,8,6.8c0.7,0,1.3-0.1,2-0.2l3.7,1.5
			c0.1,0,0.1,0.1,0.3,0.1s0.3-0.1,0.4-0.1c0.2-0.1,0.3-0.4,0.3-0.6l-0.3-3.2C291.4,119.8,292,118.3,292,116.8z M285.3,118.9h-4.7
			v-1.4h4.7V118.9z M287.3,116.1h-6.7v-1.4h6.7C287.3,114.8,287.3,116.1,287.3,116.1z"/>
	</g>
</g>
<g transform="translate(-754 -2778) translate(418 2721) translate(0 87) translate(386) translate(250 215)">
	<g>
		<path class="st9" d="M7,58.5c-3.3,0-5.9-2.7-5.9-5.9V7.3C1.1,4,3.8,1.3,7,1.3h24.9l16.6,16.9v34.4c0,3.3-2.7,5.9-5.9,5.9L7,58.5
			L7,58.5z"/>
		<g transform="translate(0 .216)">
			<defs>
				<filter id="Adobe_OpacityMaskFilter" filterUnits="userSpaceOnUse" x="0" y="0" width="49.6" height="59.4">
					<feColorMatrix  type="matrix" values="1 0 0 0 0  0 1 0 0 0  0 0 1 0 0  0 0 0 1 0"/>
				</filter>
			</defs>
			<mask maskUnits="userSpaceOnUse" x="0" y="0" width="49.6" height="59.4" id="i47su4iame_1_">
				<g class="st10">
					<path id="_x30_jiuwfg60d_1_" class="st0" d="M0,0h49.6v59.4H0V0z"/>
				</g>
			</mask>
			<path class="st11" d="M32.4,0H7C3.2,0,0,3.2,0,7v45.3c0,3.9,3.2,7,7,7h35.6c3.9,0,7-3.2,7-7V17.5L32.4,0z M31.4,2.3l16,16.2v33.9
				c0,2.6-2.1,4.8-4.8,4.8H7c-2.6,0-4.8-2.2-4.8-4.8V7c0-2.6,2.2-4.8,4.8-4.8L31.4,2.3L31.4,2.3z"/>
		</g>
		<path class="st0" d="M39.1,16.9c-3.3,0-5.9-2.7-5.9-5.9V2.6l14.1,14.3H39.1z"/>
		<g transform="translate(31.95 .216)">
			<defs>
				<filter id="Adobe_OpacityMaskFilter_1_" filterUnits="userSpaceOnUse" x="0.1" y="0" width="17.6" height="17.8">
					<feColorMatrix  type="matrix" values="1 0 0 0 0  0 1 0 0 0  0 0 1 0 0  0 0 0 1 0"/>
				</filter>
			</defs>
			<mask maskUnits="userSpaceOnUse" x="0.1" y="0" width="17.6" height="17.8" id="q12wynxc2g_1_">
				<g class="st12">
					<path id="_x38_y6uwhizvf_1_" class="st0" d="M0.1,0h17.6v17.8H0.1V0z"/>
				</g>
			</mask>
			<path class="st13" d="M0.4,0H0.1v10.8c0,3.9,3.2,7,7,7h10.6v-0.3L0.4,0z M2.3,5.1l10.3,10.4H7.1c-2.6,0-4.8-2.1-4.8-4.8L2.3,5.1
				L2.3,5.1z"/>
		</g>
	</g>
	<path class="st0" d="M10,20h18c1.1,0,2,0.9,2,2l0,0c0,1.1-0.9,2-2,2H10c-1.1,0-2-0.9-2-2l0,0C8,20.9,8.9,20,10,20z"/>
	<path class="st0" d="M10,30h28.5c1.1,0,2,0.9,2,2l0,0c0,1.1-0.9,2-2,2H10c-1.1,0-2-0.9-2-2l0,0C8,30.9,8.9,30,10,30z"/>
	<path class="st0" d="M10,40h28.5c1.1,0,2,0.9,2,2l0,0c0,1.1-0.9,2-2,2H10c-1.1,0-2-0.9-2-2l0,0C8,40.9,8.9,40,10,40z"/>
</g>
</svg>
