<svg xmlns="http://www.w3.org/2000/svg" xmlns:xlink="http://www.w3.org/1999/xlink" width="410" height="345" viewBox="0 0 410 345">
    <defs>
        <path id="huvibyr94b" d="M0 0H310V245H0z"/>
        <path id="aj0fxmd78d" d="M0 0L22 0 22 32 0 32z"/>
        <path id="26bf57mg7f" d="M0 0L22.118 0 22.118 32.172 0 32.172z"/>
        <filter id="yqsqi2vh4a" width="151.6%" height="165.3%" x="-25.8%" y="-24.5%" filterUnits="objectBoundingBox">
            <feMorphology in="SourceAlpha" operator="dilate" radius="10" result="shadowSpreadOuter1"/>
            <feOffset dy="20" in="shadowSpreadOuter1" result="shadowOffsetOuter1"/>
            <feMorphology in="SourceAlpha" radius="10" result="shadowInner"/>
            <feOffset dy="20" in="shadowInner" result="shadowInner"/>
            <feComposite in="shadowOffsetOuter1" in2="shadowInner" operator="out" result="shadowOffsetOuter1"/>
            <feGaussianBlur in="shadowOffsetOuter1" result="shadowBlurOuter1" stdDeviation="20"/>
            <feColorMatrix in="shadowBlurOuter1" values="0 0 0 0 0 0 0 0 0 0 0 0 0 0 0 0 0 0 0.18 0"/>
        </filter>
        <filter id="nna9ayxd1c">
            <feColorMatrix in="SourceGraphic" values="0 0 0 0 0.517647 0 0 0 0 0.529412 0 0 0 0 0.960784 0 0 0 1.000000 0"/>
        </filter>
    </defs>
    <g fill="none" fill-rule="evenodd">
        <g>
            <g>
                <g>
                    <g>
                        <g>
                            <g>
                                <g>
                                    <g stroke-linejoin="round" transform="translate(-378 -2778) translate(418 2721) translate(0 87) translate(10)">
                                        <use fill="#000" filter="url(#yqsqi2vh4a)" xlink:href="#huvibyr94b"/>
                                        <use stroke="#FFF" stroke-width="20" xlink:href="#huvibyr94b"/>
                                    </g>
                                    <path fill="#FFF" d="M4.769 3.914H309.404V243.43499999999997H4.769z" transform="translate(-378 -2778) translate(418 2721) translate(0 87) translate(10)"/>
                                </g>
                                <g>
                                    <g filter="url(#nna9ayxd1c)" opacity=".1" transform="translate(-378 -2778) translate(418 2721) translate(0 87) translate(10) translate(118 85)">
                                        <circle cx="36.8" cy="36.8" r="36.8" fill="#FFF"/>
                                    </g>
                                    <text fill="#8487F5" font-family="Lato-Black, Lato Black" font-size="20" font-weight="700" letter-spacing="-.5" transform="translate(-378 -2778) translate(418 2721) translate(0 87) translate(10) translate(118 85)">
                                        <tspan x="9.13" y="100">12 : 06</tspan>
                                    </text>
                                </g>
                                <g fill="#5ED3E1">
                                    <g transform="translate(-378 -2778) translate(418 2721) translate(0 87) translate(10) translate(50 199)">
                                        <rect width="2.6" height="1.3" y="20.8" rx=".65"/>
                                        <rect width="2.6" height="1.3" x="3.9" y="20.8" rx=".65"/>
                                        <rect width="2.6" height="1.3" x="7.8" y="20.8" rx=".65"/>
                                        <rect width="2.6" height="1.3" x="11.7" y="20.8" rx=".65"/>
                                        <rect width="2.6" height="1.3" x="15.6" y="20.8" rx=".65"/>
                                        <rect width="2.6" height="1.3" x="19.5" y="20.8" rx=".65"/>
                                        <rect width="2.6" height="1.3" x="23.4" y="20.8" rx=".65"/>
                                        <rect width="2.6" height="1.3" x="27.3" y="20.8" rx=".65"/>
                                        <rect width="2.6" height="1.3" x="114.4" y="20.8" rx=".65"/>
                                        <rect width="2.6" height="1.3" x="31.2" y="20.8" rx=".65"/>
                                        <rect width="2.6" height="1.3" x="118.3" y="20.8" rx=".65"/>
                                        <rect width="2.6" height="1.3" x="35.1" y="20.8" rx=".65"/>
                                        <rect width="2.6" height="1.3" x="122.2" y="20.8" rx=".65"/>
                                        <rect width="2.6" height="3.9" x="39" y="18.2" rx="1.3"/>
                                        <rect width="2.6" height="7.8" x="42.9" y="14.3" rx="1.3"/>
                                        <rect width="2.6" height="7.8" x="46.8" y="14.3" rx="1.3"/>
                                        <rect width="2.6" height="15.6" x="50.7" y="6.5" rx="1.3"/>
                                        <rect width="2.6" height="7.8" x="54.6" y="14.3" rx="1.3"/>
                                        <rect width="2.6" height="11.7" x="58.5" y="10.4" rx="1.3"/>
                                        <rect width="2.6" height="7.8" x="62.4" y="14.3" rx="1.3"/>
                                        <rect width="2.6" height="9.1" x="66.3" y="13" rx="1.3"/>
                                        <rect width="2.6" height="18.2" x="70.2" y="3.9" rx="1.3"/>
                                        <rect width="2.6" height="22.1" x="74.1" rx="1.3"/>
                                        <rect width="2.6" height="9.1" x="78" y="13" rx="1.3"/>
                                        <rect width="2.6" height="10.4" x="81.9" y="11.7" rx="1.3"/>
                                        <rect width="2.6" height="6.5" x="85.8" y="15.6" rx="1.3"/>
                                        <rect width="2.6" height="10.4" x="89.7" y="11.7" rx="1.3"/>
                                        <rect width="2.6" height="16.9" x="93.6" y="5.2" rx="1.3"/>
                                        <rect width="2.6" height="13" x="97.5" y="9.1" rx="1.3"/>
                                        <rect width="2.6" height="10.4" x="102.7" y="11.7" rx="1.3"/>
                                        <rect width="2.6" height="7.8" x="106.6" y="14.3" rx="1.3"/>
                                        <rect width="2.6" height="6.5" x="110.5" y="15.6" rx="1.3"/>
                                    </g>
                                    <g transform="translate(-378 -2778) translate(418 2721) translate(0 87) translate(10) translate(50 199) translate(86)">
                                        <rect width="2.6" height="1.3" y="20.8" rx=".65"/>
                                        <rect width="2.6" height="1.3" x="3.9" y="20.8" rx=".65"/>
                                        <rect width="2.6" height="1.3" x="7.8" y="20.8" rx=".65"/>
                                        <rect width="2.6" height="1.3" x="11.7" y="20.8" rx=".65"/>
                                        <rect width="2.6" height="1.3" x="15.6" y="20.8" rx=".65"/>
                                        <rect width="2.6" height="1.3" x="19.5" y="20.8" rx=".65"/>
                                        <rect width="2.6" height="1.3" x="23.4" y="20.8" rx=".65"/>
                                        <rect width="2.6" height="1.3" x="27.3" y="20.8" rx=".65"/>
                                        <rect width="2.6" height="1.3" x="114.4" y="20.8" rx=".65"/>
                                        <rect width="2.6" height="1.3" x="31.2" y="20.8" rx=".65"/>
                                        <rect width="2.6" height="1.3" x="118.3" y="20.8" rx=".65"/>
                                        <rect width="2.6" height="1.3" x="35.1" y="20.8" rx=".65"/>
                                        <rect width="2.6" height="1.3" x="122.2" y="20.8" rx=".65"/>
                                        <rect width="2.6" height="3.9" x="39" y="18.2" rx="1.3"/>
                                        <rect width="2.6" height="7.8" x="42.9" y="14.3" rx="1.3"/>
                                        <rect width="2.6" height="7.8" x="46.8" y="14.3" rx="1.3"/>
                                        <rect width="2.6" height="15.6" x="50.7" y="6.5" rx="1.3"/>
                                        <rect width="2.6" height="7.8" x="54.6" y="14.3" rx="1.3"/>
                                        <rect width="2.6" height="11.7" x="58.5" y="10.4" rx="1.3"/>
                                        <rect width="2.6" height="7.8" x="62.4" y="14.3" rx="1.3"/>
                                        <rect width="2.6" height="9.1" x="66.3" y="13" rx="1.3"/>
                                        <rect width="2.6" height="18.2" x="70.2" y="3.9" rx="1.3"/>
                                        <rect width="2.6" height="22.1" x="74.1" rx="1.3"/>
                                        <rect width="2.6" height="9.1" x="78" y="13" rx="1.3"/>
                                        <rect width="2.6" height="10.4" x="81.9" y="11.7" rx="1.3"/>
                                        <rect width="2.6" height="6.5" x="85.8" y="15.6" rx="1.3"/>
                                        <rect width="2.6" height="10.4" x="89.7" y="11.7" rx="1.3"/>
                                        <rect width="2.6" height="16.9" x="93.6" y="5.2" rx="1.3"/>
                                        <rect width="2.6" height="13" x="97.5" y="9.1" rx="1.3"/>
                                        <rect width="2.6" height="10.4" x="102.7" y="11.7" rx="1.3"/>
                                        <rect width="2.6" height="7.8" x="106.6" y="14.3" rx="1.3"/>
                                        <rect width="2.6" height="6.5" x="110.5" y="15.6" rx="1.3"/>
                                    </g>
                                </g>
                                <g>
                                    <text fill="#2C2C2C" font-family="NotoSansCJKkr-Medium, Noto Sans CJK KR" font-size="17" font-weight="400" letter-spacing="-.425" transform="translate(-378 -2778) translate(418 2721) translate(0 87) translate(10) translate(18 14)">
                                        <tspan x="0" y="20">에코 마인즈 외부 미팅</tspan>
                                    </text>
                                    <text fill="#706F71" font-family="NotoSansCJKkr-Regular, Noto Sans CJK KR" font-size="13" letter-spacing="-.38" transform="translate(-378 -2778) translate(418 2721) translate(0 87) translate(10) translate(18 14)">
                                        <tspan x="0" y="42">2/13 목 / 오후 5:00 </tspan>
                                    </text>
                                </g>
                            </g>
                            <g fill="#8487F5" transform="translate(-378 -2778) translate(418 2721) translate(0 87) translate(10) translate(226 208)">
                                <circle cx="37" cy="37" r="37" opacity=".1"/>
                                <circle cx="37.402" cy="37.402" r="32.576" opacity=".2"/>
                                <circle cx="37.402" cy="37.402" r="29.359"/>
                            </g>
                        </g>
                        <g transform="translate(-378 -2778) translate(418 2721) translate(0 87) translate(10) translate(144 106)">
                            <mask id="2g885mqjne" fill="#fff">
                                <use xlink:href="#aj0fxmd78d"/>
                            </mask>
                            <path fill="#8487F5" d="M5 16V6c0-3.313 2.686-6 6-6 3.313 0 6 2.687 6 6v10c0 3.313-2.687 6-6 6-3.314 0-6-2.687-6-6m17-3v3c0 5.557-4.143 10.154-9.5 10.89V29H16c.552 0 1 .447 1 1v1c0 .553-.448 1-1 1H6c-.553 0-1-.447-1-1v-1c0-.553.447-1 1-1h3.5v-2.134C3.998 26.106 0 21.112 0 15.51V13c0-.553.447-1 1-1h1c.552 0 1 .447 1 1v2.644c0 4.175 3.044 7.912 7.201 8.318 4.768.465 8.8-3.287 8.8-7.962v-3c0-.553.446-1 1-1h1c.551 0 1 .447 1 1" mask="url(#2g885mqjne)"/>
                        </g>
                        <g transform="translate(-378 -2778) translate(418 2721) translate(0 87) translate(10) translate(252 230)">
                            <mask id="dw1a0hmt2g" fill="#fff">
                                <use xlink:href="#26bf57mg7f"/>
                            </mask>
                            <path fill="#FFF" d="M5.027 16.086V6.032C5.027 2.7 7.727 0 11.059 0s6.032 2.7 6.032 6.032v10.054c0 3.331-2.7 6.032-6.032 6.032-3.331 0-6.032-2.7-6.032-6.032m17.09-3.017v3.017c0 5.586-4.164 10.21-9.55 10.947v2.122h3.519c.556 0 1.005.451 1.005 1.006v1.005c0 .556-.45 1.006-1.005 1.006H6.032c-.555 0-1.005-.45-1.005-1.006v-1.005c0-.555.45-1.006 1.005-1.006H9.55V27.01C4.02 26.247 0 21.226 0 15.593V13.07c0-.554.45-1.004 1.006-1.004H2.01c.556 0 1.005.45 1.005 1.004v2.66c0 4.197 3.06 7.953 7.24 8.361 4.794.468 8.846-3.304 8.846-8.004V13.07c0-.554.45-1.004 1.006-1.004h1.005c.556 0 1.005.45 1.005 1.004" mask="url(#dw1a0hmt2g)"/>
                        </g>
                    </g>
                </g>
            </g>
        </g>
    </g>
</svg>
