<svg xmlns="http://www.w3.org/2000/svg" xmlns:xlink="http://www.w3.org/1999/xlink" width="410" height="345" viewBox="0 0 410 345">
    <defs>
        <path id="aywnh13xtb" d="M0 0H310V245H0z"/>
        <path id="hiv9lty6bg" d="M0 0L11.25 0 11.25 15 0 15z"/>
        <path id="7lnctwpjqi" d="M0 0L11.25 0 11.25 15 0 15z"/>
        <path id="ftxasgglqk" d="M0 0L24.062 0 24.062 27.5 0 27.5z"/>
        <path id="cx2o2mppam" d="M0 0.001L26.25 0.001 26.25 30 0 30z"/>
        <filter id="momj6iewha" width="151.6%" height="165.3%" x="-25.8%" y="-24.5%" filterUnits="objectBoundingBox">
            <feMorphology in="SourceAlpha" operator="dilate" radius="10" result="shadowSpreadOuter1"/>
            <feOffset dy="20" in="shadowSpreadOuter1" result="shadowOffsetOuter1"/>
            <feMorphology in="SourceAlpha" radius="10" result="shadowInner"/>
            <feOffset dy="20" in="shadowInner" result="shadowInner"/>
            <feComposite in="shadowOffsetOuter1" in2="shadowInner" operator="out" result="shadowOffsetOuter1"/>
            <feGaussianBlur in="shadowOffsetOuter1" result="shadowBlurOuter1" stdDeviation="20"/>
            <feColorMatrix in="shadowBlurOuter1" values="0 0 0 0 0 0 0 0 0 0 0 0 0 0 0 0 0 0 0.18 0"/>
        </filter>
        <filter id="8hxy651mzc" width="111.4%" height="145.5%" x="-5.7%" y="-11.4%" filterUnits="objectBoundingBox">
            <feOffset dy="5" in="SourceAlpha" result="shadowOffsetOuter1"/>
            <feGaussianBlur in="shadowOffsetOuter1" result="shadowBlurOuter1" stdDeviation="2.5"/>
            <feComposite in="shadowBlurOuter1" in2="SourceAlpha" operator="out" result="shadowBlurOuter1"/>
            <feColorMatrix in="shadowBlurOuter1" values="0 0 0 0 0 0 0 0 0 0 0 0 0 0 0 0 0 0 0.08 0"/>
        </filter>
        <filter id="49msm84yxe" width="111.4%" height="145.5%" x="-5.7%" y="-11.4%" filterUnits="objectBoundingBox">
            <feOffset dy="5" in="SourceAlpha" result="shadowOffsetOuter1"/>
            <feGaussianBlur in="shadowOffsetOuter1" result="shadowBlurOuter1" stdDeviation="2.5"/>
            <feComposite in="shadowBlurOuter1" in2="SourceAlpha" operator="out" result="shadowBlurOuter1"/>
            <feColorMatrix in="shadowBlurOuter1" values="0 0 0 0 0 0 0 0 0 0 0 0 0 0 0 0 0 0 0.08 0"/>
        </filter>
        <rect id="4b0mh7yo0d" width="175" height="44" x="0" y="0" rx="5"/>
        <rect id="dgjhjiw8qf" width="175" height="44" x="0" y="0" rx="5"/>
    </defs>
    <g fill="none" fill-rule="evenodd">
        <g>
            <g>
                <g>
                    <g>
                        <g>
                            <g>
                                <g>
                                    <g>
                                        <g stroke-linejoin="round" transform="translate(-1135 -2778) translate(418 2721) translate(0 87) translate(767)">
                                            <use fill="#000" filter="url(#momj6iewha)" xlink:href="#aywnh13xtb"/>
                                            <use stroke="#FFF" stroke-width="20" xlink:href="#aywnh13xtb"/>
                                        </g>
                                        <path fill="#FFF" d="M4.769 3.914H309.404V243.43499999999997H4.769z" transform="translate(-1135 -2778) translate(418 2721) translate(0 87) translate(767)"/>
                                    </g>
                                    <g>
                                        <g transform="translate(-1135 -2778) translate(418 2721) translate(0 87) translate(767) translate(68 84)">
                                            <use fill="#000" filter="url(#8hxy651mzc)" xlink:href="#4b0mh7yo0d"/>
                                            <rect width="174" height="43" x=".5" y=".5" fill="#FFF" stroke="#8487F5" stroke-linejoin="square" rx="5"/>
                                        </g>
                                        <text fill="#394058" font-family="NotoSansCJKkr-Regular, Noto Sans CJK KR" font-size="15" letter-spacing="-.438" transform="translate(-1135 -2778) translate(418 2721) translate(0 87) translate(767) translate(68 84)">
                                            <tspan x="41" y="31">음성기록 다운로드</tspan>
                                        </text>
                                    </g>
                                    <g>
                                        <g transform="translate(-1135 -2778) translate(418 2721) translate(0 87) translate(767) translate(68 148)">
                                            <use fill="#000" filter="url(#49msm84yxe)" xlink:href="#dgjhjiw8qf"/>
                                            <rect width="174" height="43" x=".5" y=".5" fill="#FFF" stroke="#14B7CC" stroke-linejoin="square" rx="5"/>
                                        </g>
                                        <text fill="#394058" font-family="NotoSansCJKkr-Regular, Noto Sans CJK KR" font-size="15" letter-spacing="-.438" transform="translate(-1135 -2778) translate(418 2721) translate(0 87) translate(767) translate(68 148)">
                                            <tspan x="41" y="31">대화내용 다운로드</tspan>
                                        </text>
                                    </g>
                                </g>
                                <g fill="#394058">
                                    <path d="M40.287 11.621l20.926 37.202c2.03 3.61.75 8.183-2.86 10.214-1.123.631-2.389.963-3.677.963H12.824c-4.142 0-7.5-3.358-7.5-7.5 0-1.288.332-2.554.963-3.677l20.926-37.202c2.03-3.61 6.604-4.89 10.214-2.86 1.197.674 2.186 1.663 2.86 2.86z" transform="translate(-1135 -2778) translate(418 2721) translate(0 87) translate(767) translate(240 215)"/>
                                </g>
                                <g>
                                    <text fill="#2C2C2C" font-family="NotoSansCJKkr-Medium, Noto Sans CJK KR" font-size="17" font-weight="400" letter-spacing="-.425" transform="translate(-1135 -2778) translate(418 2721) translate(0 87) translate(767) translate(21 14)">
                                        <tspan x="0" y="20">에코 마인즈 외부 미팅</tspan>
                                    </text>
                                    <text fill="#706F71" font-family="NotoSansCJKkr-Regular, Noto Sans CJK KR" font-size="13" letter-spacing="-.38" transform="translate(-1135 -2778) translate(418 2721) translate(0 87) translate(767) translate(21 14)">
                                        <tspan x="0" y="42">2/13 목 / 오후 5:00 </tspan>
                                    </text>
                                </g>
                            </g>
                            <g transform="translate(-1135 -2778) translate(418 2721) translate(0 87) translate(767) translate(86 99)">
                                <mask id="fffkjwkj6h" fill="#fff">
                                    <use xlink:href="#hiv9lty6bg"/>
                                </mask>
                                <path fill="#8487F5" d="M7.5 1.52v2.23h2.23L7.5 1.52zm-.668 7.486c-.648-.667.358-1.648 1.008-.981.797.819.797 2.123 0 2.94-.639.658-1.668-.3-1.008-.98.266-.272.266-.706 0-.98zm-1.808 2.609l-1.04-1.054h-.82c-.194 0-.351-.157-.351-.352v-1.64c0-.195.157-.352.351-.352h.82l1.04-1.082c.222-.221.601-.064.601.248v3.984c0 .313-.379.469-.601.248zm4.82 1.979V5.157H6.797c-.389 0-.703-.316-.703-.703V1.407H1.406v12.187h8.438zm1.406-9.73v9.73c0 .777-.63 1.406-1.406 1.406H1.406C.63 15 0 14.37 0 13.594V1.407C0 .629.63 0 1.406 0h5.981c.321 0 .766.185.994.412l2.457 2.458c.227.227.412.672.412.994z" mask="url(#fffkjwkj6h)"/>
                            </g>
                            <g transform="translate(-1135 -2778) translate(418 2721) translate(0 87) translate(767) translate(88 162)">
                                <mask id="u0x7q5feej" fill="#fff">
                                    <use xlink:href="#7lnctwpjqi"/>
                                </mask>
                                <path fill="#14B7CC" d="M7.5 3.75h2.229l-2.23-2.229V3.75zm.937 5.977v.82c0 .193-.158.351-.351.351H3.164c-.193 0-.351-.158-.351-.351v-.82c0-.194.158-.352.35-.352h4.923c.193 0 .35.158.35.352zm0-1.641c0 .193-.158.351-.351.351H3.164c-.193 0-.351-.158-.351-.351v-.82c0-.194.158-.352.35-.352h4.923c.193 0 .35.158.35.352v.82zm1.407-2.93H6.797c-.39 0-.703-.313-.703-.703V1.406H1.406v12.188h8.438V5.156zm1.406 8.438c0 .776-.63 1.406-1.406 1.406H1.406C.63 15 0 14.37 0 13.594V1.406C0 .63.63 0 1.406 0h5.98c.372 0 .729.149.993.413l2.458 2.458c.264.261.413.621.413.993v9.73z" mask="url(#u0x7q5feej)"/>
                            </g>
                            <g transform="translate(-1135 -2778) translate(418 2721) translate(0 87) translate(767) translate(259 241)">
                                <mask id="e8zpeks8pl" fill="#fff">
                                    <use xlink:href="#ftxasgglqk"/>
                                </mask>
                                <path fill="#FFF" d="M24.062 22.344c0 2.848-2.309 5.156-5.156 5.156-2.848 0-5.157-2.308-5.157-5.156v-.002c0-.311.055-.812.123-1.117l-5.504-3.441c-.882.703-1.997 1.122-3.212 1.122C2.308 18.906 0 16.598 0 13.75c0-2.847 2.308-5.156 5.156-5.156 1.215 0 2.33.42 3.212 1.122l5.504-3.44c-.08-.361-.123-.736-.123-1.119C13.75 2.309 16.06 0 18.906 0s5.156 2.309 5.156 5.157c0 2.847-2.309 5.156-5.156 5.156-1.214 0-2.33-.42-3.21-1.123l-5.506 3.44c.067.306.122.808.122 1.12 0 .313-.055.814-.122 1.119l5.505 3.441c.881-.702 1.997-1.122 3.211-1.122 2.847 0 5.156 2.308 5.156 5.156" mask="url(#e8zpeks8pl)"/>
                            </g>
                        </g>
                        <g transform="translate(-1135 -2778) translate(418 2721) translate(0 87) translate(767) translate(219 185)">
                            <mask id="405aqbrskn" fill="#fff">
                                <use xlink:href="#cx2o2mppam"/>
                            </mask>
                            <path fill="#868EA5" d="M19.16 17.813c0-.518.367-.937.82-.937h.352c.453 0 .82.419.82.937v5.625c0 .518-.367.937-.82.937h-.352c-.453 0-.82-.42-.82-.937v-5.625zm-4.42 0c0-.518.367-.937.82-.937h.352c.453 0 .82.419.82.937v5.625c0 .518-.367.937-.82.937h-.352c-.453 0-.82-.42-.82-.937v-5.625zm-4.419 0c0-.518.367-.937.82-.937h.352c.453 0 .82.419.82.937v5.625c0 .518-.367.937-.82.937h-.352c-.453 0-.82-.42-.82-.937v-5.625zm-7.298-.1l6.428 9.024c.201.282.523.45.861.45H20.76c.498 0 .925-.351 1.042-.853l1.607-6.973c.02-.085.03-.172.03-.26V14.18c0-1.474-2.143-1.471-2.143 0 0 .518-.42.938-.938.938h-.402c-.518 0-.938-.42-.938-.938v-1.23c0-1.475-2.142-1.472-2.142 0v1.23c0 .518-.42.938-.938.938h-.4c-.52 0-.939-.42-.939-.938v-2.051c0-1.474-2.143-1.471-2.143 0v2.05c0 .519-.419.939-.938.939h-.4c-.519 0-.938-.42-.938-.938V3.926c0-1.474-2.143-1.471-2.143 0v14.15c0 .913-1.174 1.284-1.7.544l-1.59-2.231c-.845-1.184-2.567.14-1.723 1.324zM26.25 14.18v4.922c0 .249-.045.648-.102.89l-1.606 6.973C24.133 28.74 22.563 30 20.76 30H10.312c-1.245 0-2.423-.611-3.15-1.632L.732 19.345c-1.245-1.747-.868-4.18.853-5.458 1.101-.818 2.47-.954 3.637-.52V3.927C5.223 1.76 6.966 0 9.107 0c2.142 0 3.884 1.76 3.884 3.925V8.24c1.196-.168 2.43.23 3.316 1.15 1.593-.753 3.538-.333 4.68 1.119 2.531-.975 5.263.925 5.263 3.67z" mask="url(#405aqbrskn)"/>
                        </g>
                    </g>
                </g>
            </g>
        </g>
    </g>
</svg>
