<svg xmlns="http://www.w3.org/2000/svg" xmlns:xlink="http://www.w3.org/1999/xlink" width="598" height="345" viewBox="0 0 598 345">
    <defs>
        <filter id="47tymq4cha" width="172.1%" height="165.3%" x="-36%" y="-24.5%" filterUnits="objectBoundingBox">
            <feMorphology in="SourceAlpha" operator="dilate" radius="10" result="shadowSpreadOuter1"/>
            <feOffset dy="20" in="shadowSpreadOuter1" result="shadowOffsetOuter1"/>
            <feMorphology in="SourceAlpha" radius="10" result="shadowInner"/>
            <feOffset dy="20" in="shadowInner" result="shadowInner"/>
            <feComposite in="shadowOffsetOuter1" in2="shadowInner" operator="out" result="shadowOffsetOuter1"/>
            <feGaussianBlur in="shadowOffsetOuter1" result="shadowBlurOuter1" stdDeviation="20"/>
            <feColorMatrix in="shadowBlurOuter1" values="0 0 0 0 0 0 0 0 0 0 0 0 0 0 0 0 0 0 0.18 0"/>
        </filter>
        <filter id="7kejh325yc">
            <feColorMatrix in="SourceGraphic" values="0 0 0 0 0.380392 0 0 0 0 0.403922 0 0 0 0 0.474510 0 0 0 1.000000 0"/>
        </filter>
        <filter id="25x4pqcynf" width="172.1%" height="165.3%" x="-36%" y="-24.5%" filterUnits="objectBoundingBox">
            <feMorphology in="SourceAlpha" operator="dilate" radius="10" result="shadowSpreadOuter1"/>
            <feOffset dy="20" in="shadowSpreadOuter1" result="shadowOffsetOuter1"/>
            <feMorphology in="SourceAlpha" radius="10" result="shadowInner"/>
            <feOffset dy="20" in="shadowInner" result="shadowInner"/>
            <feComposite in="shadowOffsetOuter1" in2="shadowInner" operator="out" result="shadowOffsetOuter1"/>
            <feGaussianBlur in="shadowOffsetOuter1" result="shadowBlurOuter1" stdDeviation="20"/>
            <feColorMatrix in="shadowBlurOuter1" values="0 0 0 0 0 0 0 0 0 0 0 0 0 0 0 0 0 0 0.18 0"/>
        </filter>
        <filter id="hfyecupy1h">
            <feColorMatrix in="SourceGraphic" values="0 0 0 0 0.854902 0 0 0 0 0.878431 0 0 0 0 0.898039 0 0 0 1.000000 0"/>
        </filter>
        <path id="banjcm4i2b" d="M0 0H222V245H0z"/>
        <path id="ldhhrod4ed" d="M0 75.6L98.378 75.6 98.378 0.329 0 0.329z"/>
        <path id="8b587ptkhg" d="M0 0H222V245H0z"/>
    </defs>
    <g fill="none" fill-rule="evenodd">
        <g>
            <g>
                <g>
                    <g>
                        <g>
                            <g stroke-linejoin="round" transform="translate(-850 -1693) translate(0 885) translate(388 826) translate(512 12)">
                                <use fill="#000" filter="url(#47tymq4cha)" xlink:href="#banjcm4i2b"/>
                                <use stroke="#FFF" stroke-width="20" xlink:href="#banjcm4i2b"/>
                            </g>
                            <path fill="#FFF" d="M3.415 3.914H221.57299999999998V243.43499999999997H3.415z" transform="translate(-850 -1693) translate(0 885) translate(388 826) translate(512 12)"/>
                        </g>
                        <g filter="url(#7kejh325yc)" transform="translate(-850 -1693) translate(0 885) translate(388 826) translate(512 12)">
                            <g>
                                <path stroke="#344154" stroke-linecap="round" stroke-linejoin="round" stroke-width="2.28" d="M17.903 35.888L21.453 39.056 26.574 32.794" transform="translate(62 75)"/>
                                <g transform="translate(62 75) translate(0 .072)">
                                    <path stroke="#344154" stroke-linecap="round" stroke-linejoin="round" stroke-width="2.28" d="M34.517 21.28H4.853c-1.68 0-3.043 1.36-3.043 3.045V48.57c0 1.68 1.363 3.043 3.043 3.043h34.771c1.682 0 3.043-1.363 3.043-3.043V24.325c0-1.684-1.36-3.045-3.043-3.045h-5.107zM11.819 51.613L9.961 57.646 22.24 57.646 34.518 57.646 32.66 51.613"/>
                                    <path stroke="#344154" stroke-linecap="round" stroke-width="2.28" d="M76.138 58.372L76.138 65.927M94.78 58.372H57.498c-1.359 0-2.458-1.1-2.458-2.455V47.3c0-1.359 1.1-2.458 2.458-2.458H94.78c1.356 0 2.455 1.1 2.455 2.458v8.616c0 1.356-1.1 2.455-2.455 2.455zM76.138 51.608L87.882 51.608"/>
                                    <path stroke="#344154" stroke-linecap="round" stroke-width="2.28" d="M92.718 51.608c0-.264-.214-.48-.478-.48-.266 0-.48.216-.48.48s.214.48.48.48c.264 0 .478-.216.478-.48zM94.78 36.685H57.498c-1.359 0-2.458-1.101-2.458-2.457v-8.614c0-1.358 1.1-2.46 2.458-2.46H94.78c1.356 0 2.455 1.102 2.455 2.46v8.614c0 1.356-1.1 2.457-2.455 2.457zM76.138 29.921L87.882 29.921"/>
                                    <path stroke="#344154" stroke-linecap="round" stroke-width="2.28" d="M92.718 29.921c0-.264-.214-.48-.478-.48-.266 0-.48.216-.48.48s.214.478.48.478c.264 0 .478-.214.478-.478zM94.78 14.996H57.498c-1.359 0-2.458-1.099-2.458-2.455V3.925c0-1.358 1.1-2.457 2.458-2.457H94.78c1.356 0 2.455 1.099 2.455 2.457v8.616c0 1.356-1.1 2.455-2.455 2.455zM76.138 8.232L87.882 8.232"/>
                                    <path stroke="#344154" stroke-linecap="round" stroke-width="2.28" d="M92.718 8.232c0-.264-.214-.48-.478-.48-.266 0-.48.216-.48.48s.214.48.48.48c.264 0 .478-.216.478-.48zM22.239 58.372L22.239 65.927M76.138 44.844L76.138 36.686M76.138 23.155L76.138 14.997"/>
                                    <mask id="jwj0lumkye" fill="#fff">
                                        <use xlink:href="#ldhhrod4ed"/>
                                    </mask>
                                    <path stroke="#344154" stroke-linecap="round" stroke-width="2.28" d="M17.974 74.46L26.506 74.46 26.506 65.928 17.974 65.928zM71.873 74.46L80.405 74.46 80.405 65.928 71.873 65.928zM71.873 70.194L26.506 70.194M80.404 70.194L97.238 70.194M17.974 70.194L1.14 70.194" mask="url(#jwj0lumkye)"/>
                                </g>
                            </g>
                        </g>
                        <g>
                            <g stroke-linejoin="round" transform="translate(-850 -1693) translate(0 885) translate(388 826) translate(512 12) translate(276)">
                                <use fill="#000" filter="url(#25x4pqcynf)" xlink:href="#8b587ptkhg"/>
                                <use stroke="#FFF" stroke-width="20" xlink:href="#8b587ptkhg"/>
                            </g>
                            <path fill="#FFF" d="M3.415 3.914H221.57299999999998V243.43499999999997H3.415z" transform="translate(-850 -1693) translate(0 885) translate(388 826) translate(512 12) translate(276)"/>
                        </g>
                        <g stroke-linecap="round" filter="url(#hfyecupy1h)" transform="translate(-850 -1693) translate(0 885) translate(388 826) translate(512 12)">
                            <g stroke="#344154" stroke-width="2.28">
                                <path stroke-linejoin="round" d="M82.91 62.322V4.774c0-2.448-1.987-4.435-4.438-4.435H4.776C2.326.34.34 2.326.34 4.774v57.548c0 3.05 2.472 5.524 5.525 5.524h71.518c3.053 0 5.527-2.474 5.527-5.524z" transform="translate(346 80)"/>
                                <path stroke-linejoin="round" d="M11.437 9.26c0-.43-.348-.778-.775-.778-.43 0-.777.348-.777.777 0 .43.348.775.777.775.427 0 .775-.345.775-.775zM20.294 9.26c0-.43-.348-.778-.777-.778-.427 0-.775.348-.775.777 0 .43.348.775.775.775.43 0 .777-.345.777-.775zM29.15 9.26c0-.43-.348-.778-.777-.778-.427 0-.775.348-.775.777 0 .43.348.775.775.775.43 0 .777-.345.777-.775zM.34 18.011L82.909 18.011" transform="translate(346 80)"/>
                                <path d="M27.288 63.463c0-7.917 6.418-14.337 14.338-14.337 7.915 0 14.335 6.42 14.335 14.337" transform="translate(346 80)"/>
                                <path d="M63.415 63.498c.002-.038.002-.072 0-.11-.01-3.204 1.164-6.298 3.386-8.604l1.087-1.13-4.637-8.03-1.521.374c-3.11.77-6.375.242-9.147-1.368-.028-.02-.062-.039-.093-.056-2.791-1.603-4.901-4.164-5.794-7.255l-.432-1.505h-9.278l-.432 1.508c-.893 3.086-2.995 5.647-5.782 7.245-.014.01-.029.017-.043.027-.014.007-.026.014-.04.024C27.91 46.23 24.64 46.77 21.52 46L20 45.623l-4.637 8.03 1.085 1.129c2.232 2.318 3.393 5.428 3.386 8.647v.108" transform="translate(346 80)"/>
                            </g>
                        </g>
                        <g>
                            <g fill="#394058" transform="translate(-850 -1693) translate(0 885) translate(388 826) translate(512 12) translate(190 166)">
                                <circle cx="58.804" cy="58.804" r="58.717"/>
                            </g>
                            <g stroke="#FFF" stroke-width="1.65">
                                <path stroke-linecap="round" stroke-linejoin="round" d="M35.598 60.617h28.098c1.914 0 3.465-1.552 3.465-3.465V24.415c0-1.405-1.14-2.545-2.547-2.545h-42.3c-1.406 0-2.547 1.14-2.547 2.545v32.737c0 1.913 1.552 3.465 3.465 3.465h12.366z" transform="translate(-850 -1693) translate(0 885) translate(388 826) translate(512 12) translate(190 166) translate(25 29)"/>
                                <path stroke-linecap="round" stroke-linejoin="round" d="M26.137 26.988c0-.246-.2-.445-.445-.445-.247 0-.447.2-.447.445 0 .247.2.446.447.446.245 0 .445-.2.445-.446zM31.22 26.988c0-.246-.199-.445-.445-.445-.247 0-.447.2-.447.445 0 .247.2.446.447.446.246 0 .445-.2.445-.446zM36.303 26.988c0-.246-.199-.445-.445-.445s-.447.2-.447.445c0 .247.2.446.447.446.246 0 .445-.2.445-.446zM19.767 32.013L67.16 32.013M50.694 49.944L54.935 45.702 50.694 41.461M36.234 49.944L31.993 45.702 36.234 41.461M46.586 39.296L40.342 51.982" transform="translate(-850 -1693) translate(0 885) translate(388 826) translate(512 12) translate(190 166) translate(25 29)"/>
                                <path d="M20.015 33.218c-6.268 0-11.349-5.08-11.349-11.348 0-6.268 5.081-11.349 11.35-11.349 6.267 0 11.348 5.081 11.348 11.349" transform="translate(-850 -1693) translate(0 885) translate(388 826) translate(512 12) translate(190 166) translate(25 29)"/>
                                <path stroke-linecap="round" d="M36.601 21.897v-.084c-.008-2.437.887-4.793 2.577-6.55l.827-.858-3.53-6.115-1.158.287c-2.366.586-4.852.182-6.96-1.043-.025-.013-.049-.027-.072-.042-2.124-1.22-3.731-3.169-4.41-5.522l-.33-1.145h-7.06l-.33 1.147c-.678 2.35-2.28 4.3-4.4 5.517-.01.007-.022.012-.033.018l-.03.018c-2.116 1.228-4.605 1.64-6.978 1.053l-1.16-.288-3.53 6.115.827.858c1.698 1.764 2.584 4.131 2.578 6.58v.083c.008 2.438-.886 4.793-2.577 6.55l-.827.859 3.53 6.114 1.157-.286c2.367-.587 4.853-.183 6.96 1.043l.073.04c2.123 1.221 3.73 3.17 4.41 5.523l.33 1.145h3.282" transform="translate(-850 -1693) translate(0 885) translate(388 826) translate(512 12) translate(190 166) translate(25 29)"/>
                            </g>
                        </g>
                    </g>
                </g>
            </g>
        </g>
    </g>
</svg>
