<svg xmlns="http://www.w3.org/2000/svg" xmlns:xlink="http://www.w3.org/1999/xlink" width="811" height="452" viewBox="0 0 811 452">
    <defs>
        <filter id="h86qprofia" width="130.8%" height="151.1%" x="-15.4%" y="-19.2%" filterUnits="objectBoundingBox">
            <feMorphology in="SourceAlpha" operator="dilate" radius="10" result="shadowSpreadOuter1"/>
            <feOffset dy="20" in="shadowSpreadOuter1" result="shadowOffsetOuter1"/>
            <feMorphology in="SourceAlpha" radius="10" result="shadowInner"/>
            <feOffset dy="20" in="shadowInner" result="shadowInner"/>
            <feComposite in="shadowOffsetOuter1" in2="shadowInner" operator="out" result="shadowOffsetOuter1"/>
            <feGaussianBlur in="shadowOffsetOuter1" result="shadowBlurOuter1" stdDeviation="20"/>
            <feColorMatrix in="shadowBlurOuter1" values="0 0 0 0 0 0 0 0 0 0 0 0 0 0 0 0 0 0 0.18 0"/>
        </filter>
        <filter id="zznx19o6bc" width="176.9%" height="145.5%" x="-38.5%" y="-17%" filterUnits="objectBoundingBox">
            <feMorphology in="SourceAlpha" operator="dilate" radius="10" result="shadowSpreadOuter1"/>
            <feOffset dy="20" in="shadowSpreadOuter1" result="shadowOffsetOuter1"/>
            <feMorphology in="SourceAlpha" radius="10" result="shadowInner"/>
            <feOffset dy="20" in="shadowInner" result="shadowInner"/>
            <feComposite in="shadowOffsetOuter1" in2="shadowInner" operator="out" result="shadowOffsetOuter1"/>
            <feGaussianBlur in="shadowOffsetOuter1" result="shadowBlurOuter1" stdDeviation="20"/>
            <feColorMatrix in="shadowBlurOuter1" values="0 0 0 0 0 0 0 0 0 0 0 0 0 0 0 0 0 0 0.18 0"/>
        </filter>
        <filter id="371frbqa0g">
            <feColorMatrix in="SourceGraphic" values="0 0 0 0 0.268877 0 0 0 0 0.766942 0 0 0 0 0.826540 0 0 0 1.000000 0"/>
        </filter>
        <filter id="86d7sv8m8h">
            <feColorMatrix in="SourceGraphic" values="0 0 0 0 0.268877 0 0 0 0 0.766942 0 0 0 0 0.826540 0 0 0 1.000000 0"/>
        </filter>
        <path id="546kog0z3b" d="M0 0H520V313H0z"/>
        <path id="vdszvek7dd" d="M0 0H208V352H0z"/>
        <path id="oekqjsq99e" d="M0 0.598L6.001 0.598 6.001 9 0 9z"/>
    </defs>
    <g fill="none" fill-rule="evenodd">
        <g>
            <g transform="translate(-552 -386) translate(602 416)">
                <g>
                    <g>
                        <g>
                            <g>
                                <g transform="translate(0 36)">
                                    <g>
                                        <g stroke-linejoin="round">
                                            <use fill="#000" filter="url(#h86qprofia)" xlink:href="#546kog0z3b"/>
                                            <use stroke="#FFF" stroke-width="20" xlink:href="#546kog0z3b"/>
                                        </g>
                                        <path fill="#FFF" d="M8 5H519V311H8z"/>
                                    </g>
                                    <text fill="#2C2C2C" font-family="NotoSansCJKkr-Medium, Noto Sans CJK KR" font-size="17" font-weight="400" letter-spacing="-.425">
                                        <tspan x="19.133" y="27">에코 마인즈 외부미팅</tspan>
                                    </text>
                                    <rect width="245" height="30" x="20.335" y="149.98" fill="#EFF3F7" stroke="#E9F1F9" rx="15"/>
                                    <rect width="220" height="30" x="20.335" y="285.98" fill="#EFF3F7" stroke="#E9F1F9" rx="15"/>
                                    <rect width="455" height="51" x="45.335" y="201.98" fill="#EFF3F7" stroke="#E9F1F9" rx="20"/>
                                    <text fill="#394058" font-family="NotoSansCJKkr-Regular, Noto Sans CJK KR" font-size="12" letter-spacing="-.4" opacity=".699">
                                        <tspan x="34.235" y="172.755">오늘 에코 마인즈 마케팅 회의 시작 하겠습니다.</tspan>
                                    </text>
                                    <text fill="#2D2343" font-family="NotoSansCJKkr-Regular, Noto Sans CJK KR" font-size="12" letter-spacing="-.4" opacity=".699">
                                        <tspan x="34.235" y="299.755">네 프로모션 상세 일정 공유 부탁드립니다.</tspan>
                                    </text>
                                    <text fill="#394058" font-family="NotoSansCJKkr-Regular, Noto Sans CJK KR" font-size="12" letter-spacing="-.4" opacity=".699">
                                        <tspan x="63.08" y="222.755">1차적으로 공유드렸던 내용을 바탕으로 주요 타켓층을 집중적으로 공략하는 방안으로 프로</tspan> <tspan x="63.08" y="240.755">모션 진행할 예정입니다.</tspan>
                                    </text>
                                    <text fill="#616779" font-family="NotoSansCJKkr-Regular, Noto Sans CJK KR" font-size="13">
                                        <tspan x="42" y="141">김마인</tspan>
                                    </text>
                                    <text fill="#616779" font-family="NotoSansCJKkr-Regular, Noto Sans CJK KR" font-size="10" opacity=".7">
                                        <tspan x="79" y="145">05:21</tspan>
                                    </text>
                                    <text fill="#616779" font-family="NotoSansCJKkr-Regular, Noto Sans CJK KR" font-size="10" opacity=".7">
                                        <tspan x="79" y="280">07:01</tspan>
                                    </text>
                                    <text fill="#616779" font-family="NotoSansCJKkr-Regular, Noto Sans CJK KR" font-size="10" opacity=".7">
                                        <tspan x="409.295" y="197.486">06:22</tspan>
                                    </text>
                                    <text fill="#616779" font-family="NotoSansCJKkr-Regular, Noto Sans CJK KR" font-size="13">
                                        <tspan x="42" y="276">이인공</tspan>
                                    </text>
                                    <text fill="#616779" font-family="NotoSansCJKkr-Regular, Noto Sans CJK KR" font-size="13">
                                        <tspan x="466.295" y="193.486">최마음</tspan>
                                    </text>
                                    <text fill="#706F71" font-family="NotoSansCJKkr-Regular, Noto Sans CJK KR" font-size="13">
                                        <tspan x="177" y="24">2/13 목 오후 5:00 - 6:24</tspan>
                                    </text>
                                    <g fill="#FFA26B" fill-rule="nonzero">
                                        <g>
                                            <path d="M16 6.818C16 3.068 12.4 0 8 0S0 3.068 0 6.818c0 3.75 3.6 6.818 8 6.818.667 0 1.333-.068 2-.204l3.733 1.5c.067 0 .134.068.267.068s.267-.068.4-.136c.2-.137.267-.41.267-.614l-.334-3.205C15.4 9.818 16 8.318 16 6.818zM9.333 8.864H4.667V7.5h4.666v1.364zm2-2.728H4.667V4.773h6.666v1.363z" transform="translate(20 130)"/>
                                        </g>
                                    </g>
                                    <g fill="#C48BFF" fill-rule="nonzero">
                                        <g>
                                            <path d="M16 6.818C16 3.068 12.4 0 8 0S0 3.068 0 6.818c0 3.75 3.6 6.818 8 6.818.667 0 1.333-.068 2-.204l3.733 1.5c.067 0 .134.068.267.068s.267-.068.4-.136c.2-.137.267-.41.267-.614l-.334-3.205C15.4 9.818 16 8.318 16 6.818zM9.333 8.864H4.667V7.5h4.666v1.364zm2-2.728H4.667V4.773h6.666v1.363z" transform="translate(20 265)"/>
                                        </g>
                                    </g>
                                    <g fill="#6CB0FF" fill-rule="nonzero">
                                        <g>
                                            <path d="M16 6.818C16 3.068 12.4 0 8 0S0 3.068 0 6.818c0 3.75 3.6 6.818 8 6.818.667 0 1.333-.068 2-.204l3.733 1.5c.067 0 .134.068.267.068s.267-.068.4-.136c.2-.137.267-.41.267-.614l-.334-3.205C15.4 9.818 16 8.318 16 6.818zM9.333 8.864H4.667V7.5h4.666v1.364zm2-2.728H4.667V4.773h6.666v1.363z" transform="translate(444 182)"/>
                                        </g>
                                    </g>
                                </g>
                                <g>
                                    <g transform="translate(503)">
                                        <g>
                                            <g stroke-linejoin="round">
                                                <use fill="#000" filter="url(#zznx19o6bc)" xlink:href="#vdszvek7dd"/>
                                                <use stroke="#FFF" stroke-width="20" xlink:href="#vdszvek7dd"/>
                                            </g>
                                            <path fill="#FFF" d="M4 5H208V350H4z"/>
                                        </g>
                                        <rect width="195" height="329" x="7" y="7" fill="#8280ED" rx="10"/>
                                        <g transform="translate(32 283)">
                                            <rect width="43" height="33" fill="#D8D8D8" opacity=".5" rx="15"/>
                                            <g fill="#FFF" transform="translate(16 9)">
                                                <rect width="4.612" height="15.2" rx="2.306"/>
                                                <rect width="4.612" height="15.2" x="6.588" rx="2.306"/>
                                            </g>
                                        </g>
                                        <g transform="translate(133 283)">
                                            <rect width="43" height="33" fill="#D8D8D8" opacity=".5" rx="15"/>
                                            <g fill="#FFF" transform="translate(14 9)">
                                                <rect width="15.2" height="15.2" rx="3.6"/>
                                            </g>
                                        </g>
                                        <g fill="#FFF" opacity=".1" transform="translate(58 84)">
                                            <circle cx="46" cy="46" r="46"/>
                                            <circle cx="46.5" cy="46.5" r="40.5"/>
                                            <circle cx="46.5" cy="46.5" r="36.5"/>
                                        </g>
                                        <text fill="#FFF" font-family="NotoSansCJKkr-Medium, Noto Sans CJK KR" font-size="17" font-weight="400" letter-spacing="-.425">
                                            <tspan x="33.133" y="58">에코 마인즈 외부미팅</tspan>
                                        </text>
                                        <text fill="#FFF" font-family="Lato-Black, Lato Black" font-size="25" font-weight="700" letter-spacing="-.625">
                                            <tspan x="69.412" y="209">35 : 06</tspan>
                                        </text>
                                        <g fill="#5ED3E1" transform="translate(43 239)">
                                            <rect width="2.6" height="1.3" y="20.8" rx=".65"/>
                                            <rect width="2.6" height="1.3" x="3.9" y="20.8" rx=".65"/>
                                            <rect width="2.6" height="1.3" x="7.8" y="20.8" rx=".65"/>
                                            <rect width="2.6" height="1.3" x="11.7" y="20.8" rx=".65"/>
                                            <rect width="2.6" height="1.3" x="15.6" y="20.8" rx=".65"/>
                                            <rect width="2.6" height="1.3" x="19.5" y="20.8" rx=".65"/>
                                            <rect width="2.6" height="1.3" x="23.4" y="20.8" rx=".65"/>
                                            <rect width="2.6" height="1.3" x="27.3" y="20.8" rx=".65"/>
                                            <rect width="2.6" height="1.3" x="113.4" y="20.8" rx=".65"/>
                                            <rect width="2.6" height="1.3" x="31.2" y="20.8" rx=".65"/>
                                            <rect width="2.6" height="1.3" x="117.3" y="20.8" rx=".65"/>
                                            <rect width="2.6" height="1.3" x="35.1" y="20.8" rx=".65"/>
                                            <rect width="2.6" height="1.3" x="121.2" y="20.8" rx=".65"/>
                                            <rect width="2.6" height="3.9" x="39" y="18.2" rx="1.3"/>
                                            <rect width="2.6" height="7.8" x="42.9" y="14.3" rx="1.3"/>
                                            <rect width="2.6" height="7.8" x="46.8" y="14.3" rx="1.3"/>
                                            <rect width="2.6" height="15.6" x="50.7" y="6.5" rx="1.3"/>
                                            <rect width="2.6" height="7.8" x="54.6" y="14.3" rx="1.3"/>
                                            <rect width="2.6" height="11.7" x="58.5" y="10.4" rx="1.3"/>
                                            <rect width="2.6" height="7.8" x="62.4" y="14.3" rx="1.3"/>
                                            <rect width="2.6" height="9.1" x="66.3" y="13" rx="1.3"/>
                                            <rect width="2.6" height="18.2" x="70.2" y="3.9" rx="1.3"/>
                                            <rect width="2.6" height="22.1" x="74.1" rx="1.3"/>
                                            <rect width="2.6" height="9.1" x="78" y="13" rx="1.3"/>
                                            <rect width="2.6" height="10.4" x="81.9" y="11.7" rx="1.3"/>
                                            <rect width="2.6" height="6.5" x="85.8" y="15.6" rx="1.3"/>
                                            <rect width="2.6" height="10.4" x="89.7" y="11.7" rx="1.3"/>
                                            <rect width="2.6" height="16.9" x="93.6" y="5.2" rx="1.3"/>
                                            <rect width="2.6" height="13" x="97.5" y="9.1" rx="1.3"/>
                                            <rect width="2.6" height="10.4" x="101.7" y="11.7" rx="1.3"/>
                                            <rect width="2.6" height="7.8" x="105.6" y="14.3" rx="1.3"/>
                                            <rect width="2.6" height="6.5" x="109.5" y="15.6" rx="1.3"/>
                                        </g>
                                    </g>
                                    <path fill="#FFF" d="M96.25 131v-12.5c0-4.142 3.357-7.5 7.5-7.5s7.5 3.358 7.5 7.5V131c0 4.142-3.357 7.5-7.5 7.5s-7.5-3.358-7.5-7.5m21.25-3.75V131c0 6.945-5.179 12.693-11.875 13.612v2.638H110c.69 0 1.25.56 1.25 1.25v1.25c0 .69-.56 1.25-1.25 1.25H97.5c-.69 0-1.25-.56-1.25-1.25v-1.25c0-.69.56-1.25 1.25-1.25h4.375v-2.668C94.998 143.634 90 137.391 90 130.388v-3.138c0-.69.56-1.25 1.25-1.25h1.25c.69 0 1.25.56 1.25 1.25v3.305c0 5.219 3.806 9.889 9.001 10.397 5.961.581 10.999-4.108 10.999-9.952v-3.75c0-.69.56-1.25 1.25-1.25h1.25c.69 0 1.25.56 1.25 1.25" transform="translate(503)"/>
                                </g>
                            </g>
                            <g>
                                <path fill="#363A44" d="M95.001 9.176c0 .124-.102.225-.225.225h-.9c-.124 0-.226-.1-.226-.225V5.868l-3.666 3.394c-.385.321-.984.053-.984-.46V1.6c0-.514.599-.782.984-.462l3.666 3.374V1.225c0-.124.102-.225.226-.225h.9c.123 0 .225.101.225.225v7.951z" transform="translate(212 121)"/>
                                <g transform="translate(212 121) translate(0 .402)">
                                    <mask id="q1wmx9ggpf" fill="#fff">
                                        <use xlink:href="#oekqjsq99e"/>
                                    </mask>
                                    <path fill="#363A44" d="M0 .824C0 .7.102.599.225.599h.9c.124 0 .226.1.226.225v3.308L5.017.738c.385-.321.984-.053.984.46V8.4c0 .514-.599.782-.984.462L1.351 5.488v3.287c0 .124-.102.225-.226.225h-.9C.102 9 0 8.899 0 8.775V.824z" mask="url(#q1wmx9ggpf)"/>
                                </g>
                            </g>
                        </g>
                        <g>
                            <path fill="#8487F5" d="M5 0h182v26H5c-2.761 0-5-2.239-5-5V5c0-2.761 2.239-5 5-5z" opacity=".1" transform="translate(21 79)"/>
                            <g filter="url(#371frbqa0g)" transform="translate(21 79)">
                                <g fill="#8280ED" transform="translate(0 6)">
                                    <rect width="2" height="1" y="16" rx=".5"/>
                                    <rect width="2" height="1" x="3" y="16" rx=".5"/>
                                    <rect width="2" height="1" x="6" y="16" rx=".5"/>
                                    <rect width="2" height="1" x="9" y="16" rx=".5"/>
                                    <rect width="2" height="1" x="12" y="16" rx=".5"/>
                                    <rect width="2" height="1" x="15" y="16" rx=".5"/>
                                    <rect width="2" height="1" x="18" y="16" rx=".5"/>
                                    <rect width="2" height="1" x="21" y="16" rx=".5"/>
                                    <rect width="2" height="1" x="88" y="16" rx=".5"/>
                                    <rect width="2" height="1" x="24" y="16" rx=".5"/>
                                    <rect width="2" height="1" x="91" y="16" rx=".5"/>
                                    <rect width="2" height="1" x="27" y="16" rx=".5"/>
                                    <rect width="2" height="1" x="94" y="16" rx=".5"/>
                                    <rect width="2" height="3" x="30" y="14" rx="1"/>
                                    <rect width="2" height="6" x="33" y="11" rx="1"/>
                                    <rect width="2" height="6" x="36" y="11" rx="1"/>
                                    <rect width="2" height="12" x="39" y="5" rx="1"/>
                                    <rect width="2" height="6" x="42" y="11" rx="1"/>
                                    <rect width="2" height="9" x="45" y="8" rx="1"/>
                                    <rect width="2" height="6" x="48" y="11" rx="1"/>
                                    <rect width="2" height="7" x="51" y="10" rx="1"/>
                                    <rect width="2" height="14" x="54" y="3" rx="1"/>
                                    <rect width="2" height="17" x="57" rx="1"/>
                                    <rect width="2" height="7" x="60" y="10" rx="1"/>
                                    <rect width="2" height="8" x="63" y="9" rx="1"/>
                                    <rect width="2" height="5" x="66" y="12" rx="1"/>
                                    <rect width="2" height="8" x="69" y="9" rx="1"/>
                                    <rect width="2" height="13" x="72" y="4" rx="1"/>
                                    <rect width="2" height="10" x="75" y="7" rx="1"/>
                                    <rect width="2" height="8" x="79" y="9" rx="1"/>
                                    <rect width="2" height="6" x="82" y="11" rx="1"/>
                                    <rect width="2" height="5" x="85" y="12" rx="1"/>
                                </g>
                            </g>
                            <g filter="url(#86d7sv8m8h)" transform="translate(21 79)">
                                <g fill="#8280ED" transform="translate(91 6)">
                                    <rect width="2" height="1" y="16" rx=".5"/>
                                    <rect width="2" height="1" x="3" y="16" rx=".5"/>
                                    <rect width="2" height="1" x="6" y="16" rx=".5"/>
                                    <rect width="2" height="1" x="9" y="16" rx=".5"/>
                                    <rect width="2" height="1" x="12" y="16" rx=".5"/>
                                    <rect width="2" height="1" x="15" y="16" rx=".5"/>
                                    <rect width="2" height="1" x="18" y="16" rx=".5"/>
                                    <rect width="2" height="1" x="21" y="16" rx=".5"/>
                                    <rect width="2" height="1" x="88" y="16" rx=".5"/>
                                    <rect width="2" height="1" x="24" y="16" rx=".5"/>
                                    <rect width="2" height="1" x="91" y="16" rx=".5"/>
                                    <rect width="2" height="1" x="27" y="16" rx=".5"/>
                                    <rect width="2" height="1" x="94" y="16" rx=".5"/>
                                    <rect width="2" height="3" x="30" y="14" rx="1"/>
                                    <rect width="2" height="6" x="33" y="11" rx="1"/>
                                    <rect width="2" height="6" x="36" y="11" rx="1"/>
                                    <rect width="2" height="12" x="39" y="5" rx="1"/>
                                    <rect width="2" height="6" x="42" y="11" rx="1"/>
                                    <rect width="2" height="9" x="45" y="8" rx="1"/>
                                    <rect width="2" height="6" x="48" y="11" rx="1"/>
                                    <rect width="2" height="7" x="51" y="10" rx="1"/>
                                    <rect width="2" height="14" x="54" y="3" rx="1"/>
                                    <rect width="2" height="17" x="57" rx="1"/>
                                    <rect width="2" height="7" x="60" y="10" rx="1"/>
                                    <rect width="2" height="8" x="63" y="9" rx="1"/>
                                    <rect width="2" height="5" x="66" y="12" rx="1"/>
                                    <rect width="2" height="8" x="69" y="9" rx="1"/>
                                    <rect width="2" height="13" x="72" y="4" rx="1"/>
                                    <rect width="2" height="10" x="75" y="7" rx="1"/>
                                    <rect width="2" height="8" x="79" y="9" rx="1"/>
                                    <rect width="2" height="6" x="82" y="11" rx="1"/>
                                    <rect width="2" height="5" x="85" y="12" rx="1"/>
                                </g>
                            </g>
                            <g fill="#EFF3F7" transform="translate(21 79) translate(187 6)">
                                <rect width="2" height="1" y="16" rx=".5"/>
                                <rect width="2" height="1" x="3" y="16" rx=".5"/>
                                <rect width="2" height="1" x="70" y="16" rx=".5"/>
                                <rect width="2" height="1" x="6" y="16" rx=".5"/>
                                <rect width="2" height="1" x="73" y="16" rx=".5"/>
                                <rect width="2" height="1" x="9" y="16" rx=".5"/>
                                <rect width="2" height="1" x="76" y="16" rx=".5"/>
                                <rect width="2" height="3" x="12" y="14" rx="1"/>
                                <rect width="2" height="6" x="15" y="11" rx="1"/>
                                <rect width="2" height="6" x="18" y="11" rx="1"/>
                                <rect width="2" height="12" x="21" y="5" rx="1"/>
                                <rect width="2" height="6" x="24" y="11" rx="1"/>
                                <rect width="2" height="9" x="27" y="8" rx="1"/>
                                <rect width="2" height="6" x="30" y="11" rx="1"/>
                                <rect width="2" height="7" x="33" y="10" rx="1"/>
                                <rect width="2" height="14" x="36" y="3" rx="1"/>
                                <rect width="2" height="17" x="39" rx="1"/>
                                <rect width="2" height="7" x="42" y="10" rx="1"/>
                                <rect width="2" height="8" x="45" y="9" rx="1"/>
                                <rect width="2" height="5" x="48" y="12" rx="1"/>
                                <rect width="2" height="8" x="51" y="9" rx="1"/>
                                <rect width="2" height="13" x="54" y="4" rx="1"/>
                                <rect width="2" height="10" x="57" y="7" rx="1"/>
                                <rect width="2" height="8" x="61" y="9" rx="1"/>
                                <rect width="2" height="6" x="64" y="11" rx="1"/>
                                <rect width="2" height="5" x="67" y="12" rx="1"/>
                            </g>
                            <g fill="#EFF3F7" transform="translate(21 79) translate(242 6)">
                                <rect width="2" height="1" y="16" rx=".5"/>
                                <rect width="2" height="1" x="3" y="16" rx=".5"/>
                                <rect width="2" height="1" x="70" y="16" rx=".5"/>
                                <rect width="2" height="1" x="6" y="16" rx=".5"/>
                                <rect width="2" height="1" x="73" y="16" rx=".5"/>
                                <rect width="2" height="1" x="9" y="16" rx=".5"/>
                                <rect width="2" height="1" x="76" y="16" rx=".5"/>
                                <rect width="2" height="3" x="12" y="14" rx="1"/>
                                <rect width="2" height="6" x="15" y="11" rx="1"/>
                                <rect width="2" height="6" x="18" y="11" rx="1"/>
                                <rect width="2" height="12" x="21" y="5" rx="1"/>
                                <rect width="2" height="6" x="24" y="11" rx="1"/>
                                <rect width="2" height="9" x="27" y="8" rx="1"/>
                                <rect width="2" height="6" x="30" y="11" rx="1"/>
                                <rect width="2" height="7" x="33" y="10" rx="1"/>
                                <rect width="2" height="14" x="36" y="3" rx="1"/>
                                <rect width="2" height="17" x="39" rx="1"/>
                                <rect width="2" height="7" x="42" y="10" rx="1"/>
                                <rect width="2" height="8" x="45" y="9" rx="1"/>
                                <rect width="2" height="5" x="48" y="12" rx="1"/>
                                <rect width="2" height="8" x="51" y="9" rx="1"/>
                                <rect width="2" height="13" x="54" y="4" rx="1"/>
                                <rect width="2" height="10" x="57" y="7" rx="1"/>
                                <rect width="2" height="8" x="61" y="9" rx="1"/>
                                <rect width="2" height="6" x="64" y="11" rx="1"/>
                                <rect width="2" height="5" x="67" y="12" rx="1"/>
                            </g>
                            <g fill="#EFF3F7" transform="translate(21 79) translate(308 6)">
                                <rect width="2" height="1" y="16" rx=".5"/>
                                <rect width="2" height="1" x="3" y="16" rx=".5"/>
                                <rect width="2" height="1" x="70" y="16" rx=".5"/>
                                <rect width="2" height="1" x="6" y="16" rx=".5"/>
                                <rect width="2" height="1" x="73" y="16" rx=".5"/>
                                <rect width="2" height="1" x="9" y="16" rx=".5"/>
                                <rect width="2" height="1" x="76" y="16" rx=".5"/>
                                <rect width="2" height="3" x="12" y="14" rx="1"/>
                                <rect width="2" height="6" x="15" y="11" rx="1"/>
                                <rect width="2" height="6" x="18" y="11" rx="1"/>
                                <rect width="2" height="12" x="21" y="5" rx="1"/>
                                <rect width="2" height="6" x="24" y="11" rx="1"/>
                                <rect width="2" height="9" x="27" y="8" rx="1"/>
                                <rect width="2" height="6" x="30" y="11" rx="1"/>
                                <rect width="2" height="7" x="33" y="10" rx="1"/>
                                <rect width="2" height="14" x="36" y="3" rx="1"/>
                                <rect width="2" height="17" x="39" rx="1"/>
                                <rect width="2" height="7" x="42" y="10" rx="1"/>
                                <rect width="2" height="8" x="45" y="9" rx="1"/>
                                <rect width="2" height="5" x="48" y="12" rx="1"/>
                                <rect width="2" height="8" x="51" y="9" rx="1"/>
                                <rect width="2" height="13" x="54" y="4" rx="1"/>
                                <rect width="2" height="10" x="57" y="7" rx="1"/>
                                <rect width="2" height="8" x="61" y="9" rx="1"/>
                                <rect width="2" height="6" x="64" y="11" rx="1"/>
                                <rect width="2" height="5" x="67" y="12" rx="1"/>
                            </g>
                            <g fill="#EFF3F7" transform="translate(21 79) translate(360 6)">
                                <rect width="2" height="1" y="16" rx=".5"/>
                                <rect width="2" height="1" x="3" y="16" rx=".5"/>
                                <rect width="2" height="1" x="70" y="16" rx=".5"/>
                                <rect width="2" height="1" x="6" y="16" rx=".5"/>
                                <rect width="2" height="1" x="73" y="16" rx=".5"/>
                                <rect width="2" height="1" x="9" y="16" rx=".5"/>
                                <rect width="2" height="1" x="76" y="16" rx=".5"/>
                                <rect width="2" height="3" x="12" y="14" rx="1"/>
                                <rect width="2" height="6" x="15" y="11" rx="1"/>
                                <rect width="2" height="6" x="18" y="11" rx="1"/>
                                <rect width="2" height="12" x="21" y="5" rx="1"/>
                                <rect width="2" height="6" x="24" y="11" rx="1"/>
                                <rect width="2" height="9" x="27" y="8" rx="1"/>
                                <rect width="2" height="6" x="30" y="11" rx="1"/>
                                <rect width="2" height="7" x="33" y="10" rx="1"/>
                                <rect width="2" height="14" x="36" y="3" rx="1"/>
                                <rect width="2" height="17" x="39" rx="1"/>
                                <rect width="2" height="7" x="42" y="10" rx="1"/>
                                <rect width="2" height="8" x="45" y="9" rx="1"/>
                                <rect width="2" height="5" x="48" y="12" rx="1"/>
                                <rect width="2" height="8" x="51" y="9" rx="1"/>
                                <rect width="2" height="13" x="54" y="4" rx="1"/>
                                <rect width="2" height="10" x="57" y="7" rx="1"/>
                                <rect width="2" height="8" x="61" y="9" rx="1"/>
                                <rect width="2" height="6" x="64" y="11" rx="1"/>
                                <rect width="2" height="5" x="67" y="12" rx="1"/>
                            </g>
                            <g fill="#EFF3F7" transform="translate(21 79) translate(440 9)">
                                <rect width="2" height="1" y="13" rx=".5"/>
                                <rect width="2" height="1" x="3" y="13" rx=".5"/>
                                <rect width="2" height="1" x="6" y="13" rx=".5"/>
                                <rect width="2" height="1" x="9" y="13" rx=".5"/>
                                <rect width="2" height="3" x="12" y="11" rx="1"/>
                                <rect width="2" height="6" x="15" y="8" rx="1"/>
                                <rect width="2" height="6" x="18" y="8" rx="1"/>
                                <rect width="2" height="12" x="21" y="2" rx="1"/>
                                <rect width="2" height="6" x="24" y="8" rx="1"/>
                                <rect width="2" height="9" x="27" y="5" rx="1"/>
                                <rect width="2" height="6" x="30" y="8" rx="1"/>
                                <rect width="2" height="7" x="33" y="7" rx="1"/>
                                <rect width="2" height="14" x="36" rx="1"/>
                            </g>
                        </g>
                        <g>
                            <g transform="translate(212 111) translate(28)">
                                <rect width="39.5" height="28.5" x=".25" y=".25" fill="#FFF" stroke="#616779" stroke-opacity=".2" stroke-width=".5" rx="14.25"/>
                                <path fill="#8487F5" stroke="#8487F5" stroke-linejoin="round" stroke-width="2.5" d="M20.5 9L26 20 15 20z" transform="rotate(90 20.5 14.5)"/>
                            </g>
                        </g>
                    </g>
                    <path stroke="#EFF3F7" stroke-width=".5" d="M20.335 146L500 146"/>
                </g>
                <rect width="479" height="25" x="20.5" y="79.5" stroke="#EFF3F7" rx="5"/>
                <g fill="#5ED3E1" transform="translate(204 75)">
                    <circle cx="4.5" cy="4.5" r="4.5" fill-opacity=".5" opacity=".6"/>
                    <path d="M4 6H5V30H4z"/>
                    <circle cx="4.5" cy="4.5" r="2.5"/>
                </g>
            </g>
        </g>
    </g>
</svg>
