<svg width="528" height="296" viewBox="0 0 528 296" xmlns="http://www.w3.org/2000/svg" xmlns:xlink="http://www.w3.org/1999/xlink">
    <defs>
        <path id="b" d="M0 0h222v245H0z"/>
        <path id="d" d="M0 0h222v245H0z"/>
        <path id="e" d="M0 .29h57.889V66H0z"/>
        <path id="g" d="M.198.554h33.057V33.61H.198z"/>
        <path id="i" d="M0 .156h104.12v3.9H0z"/>
        <path id="k" d="M.123.785H98.14v130.298H.123z"/>
        <path id="m" d="M.126.803h38.017v14.035H.126z"/>
        <filter x="-8.8%" y="-6.3%" width="117.6%" height="115.9%" filterUnits="objectBoundingBox" id="a">
            <feMorphology radius="10" operator="dilate" in="SourceAlpha" result="shadowSpreadOuter1"/>
            <feOffset dy="4" in="shadowSpreadOuter1" result="shadowOffsetOuter1"/>
            <feGaussianBlur stdDeviation="2.5" in="shadowOffsetOuter1" result="shadowBlurOuter1"/>
            <feComposite in="shadowBlurOuter1" in2="SourceAlpha" operator="out" result="shadowBlurOuter1"/>
            <feColorMatrix values="0 0 0 0 0 0 0 0 0 0 0 0 0 0 0 0 0 0 0.1 0" in="shadowBlurOuter1"/>
        </filter>
        <filter x="-8.8%" y="-6.3%" width="117.6%" height="115.9%" filterUnits="objectBoundingBox" id="c">
            <feMorphology radius="10" operator="dilate" in="SourceAlpha" result="shadowSpreadOuter1"/>
            <feOffset dy="4" in="shadowSpreadOuter1" result="shadowOffsetOuter1"/>
            <feMorphology radius="10" in="SourceAlpha" result="shadowInner"/>
            <feOffset dy="4" in="shadowInner" result="shadowInner"/>
            <feComposite in="shadowOffsetOuter1" in2="shadowInner" operator="out" result="shadowOffsetOuter1"/>
            <feGaussianBlur stdDeviation="2.5" in="shadowOffsetOuter1" result="shadowBlurOuter1"/>
            <feColorMatrix values="0 0 0 0 0 0 0 0 0 0 0 0 0 0 0 0 0 0 0.1 0" in="shadowBlurOuter1"/>
        </filter>
    </defs>
    <g fill="none" fill-rule="evenodd">
        <g transform="translate(5)">
            <g transform="translate(10 12)" stroke-linejoin="round">
                <use fill="#000" filter="url(#a)" xlink:href="#b"/>
                <use stroke="#FFF" stroke-width="20" fill="#FFF" xlink:href="#b"/>
            </g>
            <g stroke-linejoin="round" transform="translate(286 12)">
                <use fill="#000" filter="url(#c)" xlink:href="#d"/>
                <use stroke="#FFF" stroke-width="20" xlink:href="#d"/>
            </g>
            <path fill="#FFF" d="M289.415 15.914h218.158v239.521H289.415z"/>
            <rect stroke="#B6C2CC" opacity=".3" x=".5" y=".5" width="241" height="266" rx="10"/>
            <rect stroke="#B6C2CC" opacity=".3" x="276.5" y=".5" width="241" height="266" rx="10"/>
            <g>
                <circle cx="58.717" cy="58.717" r="58.717" transform="translate(200.087 178.087)" fill="#394058"/>
                <g stroke="#FFF" stroke-width="1.65">
                    <path d="M260.598 267.617h28.098a3.465 3.465 0 0 0 3.465-3.465v-32.737a2.546 2.546 0 0 0-2.547-2.545h-42.3a2.546 2.546 0 0 0-2.547 2.545v32.737a3.466 3.466 0 0 0 3.465 3.465h12.366z" stroke-linecap="round" stroke-linejoin="round"/>
                    <path d="M251.137 233.988a.446.446 0 1 0-.891.001.446.446 0 0 0 .891 0zM256.22 233.988a.445.445 0 1 0-.89 0 .445.445 0 0 0 .89 0zM261.303 233.988a.445.445 0 1 0-.89 0 .445.445 0 0 0 .89 0zM244.767 239.013h47.393M275.694 256.944l4.241-4.242-4.241-4.241M261.234 256.944l-4.241-4.242 4.241-4.241M271.586 246.296l-6.244 12.686" stroke-linecap="round" stroke-linejoin="round"/>
                    <path d="M245.015 240.218c-6.268 0-11.349-5.08-11.349-11.348 0-6.268 5.081-11.349 11.35-11.349 6.267 0 11.348 5.081 11.348 11.349"/>
                    <path d="M261.601 228.897v-.084c-.008-2.437.887-4.793 2.577-6.55l.827-.858-3.53-6.115-1.158.287c-2.366.586-4.852.182-6.96-1.043a1.52 1.52 0 0 1-.072-.042c-2.124-1.22-3.731-3.169-4.41-5.522l-.33-1.145h-7.06l-.33 1.147c-.678 2.35-2.28 4.3-4.4 5.517a.296.296 0 0 1-.033.018.46.46 0 0 1-.03.018c-2.116 1.228-4.605 1.64-6.978 1.053l-1.16-.288-3.53 6.115.827.858c1.698 1.764 2.584 4.131 2.578 6.58v.083c.008 2.438-.886 4.793-2.577 6.55l-.827.859 3.53 6.114 1.157-.286c2.367-.587 4.853-.183 6.96 1.043l.073.04c2.123 1.221 3.73 3.17 4.41 5.523l.33 1.145h3.282" stroke-linecap="round"/>
                </g>
            </g>
        </g>
        <path d="M57.5 137.109c-4.075 0-7.392 3.317-7.392 7.392 0 4.078 3.317 7.393 7.392 7.393s7.392-3.315 7.392-7.393c0-4.075-3.317-7.392-7.392-7.392m0 16.891c-5.238 0-9.5-4.262-9.5-9.499 0-5.239 4.262-9.501 9.5-9.501s9.5 4.262 9.5 9.501c0 5.237-4.262 9.499-9.5 9.499" fill="#8487F5"/>
        <path d="M61.492 162a2.92 2.92 0 0 1-2.82-2.146l-.523-1.887a14.079 14.079 0 0 1-5.428-1.418l-1.387 1.397a2.907 2.907 0 0 1-2.067.867c-.867-.019-1.52-.293-2.076-.84l-1.887-1.854a1.013 1.013 0 0 1-.008-1.44 1.027 1.027 0 0 1 1.446-.009l1.887 1.855a.893.893 0 0 0 .621.255h.008a.89.89 0 0 0 .62-.262l1.92-1.934c.326-.33.829-.4 1.232-.169a12.03 12.03 0 0 0 5.886 1.538H58.937c.462 0 .866.308.989.75l.718 2.615c.065.228.21.416.415.529a.897.897 0 0 0 .672.086l2.91-.795c.23-.065.42-.21.534-.414a.861.861 0 0 0 .085-.668l-.723-2.62c-.123-.442.066-.91.464-1.143a12.019 12.019 0 0 0 4.29-4.319 1.04 1.04 0 0 1 1.146-.476l2.646.688c.464.134.953-.159 1.076-.628l.764-2.903a.881.881 0 0 0-.629-1.074l-2.639-.683a1.02 1.02 0 0 1-.761-.973 11.876 11.876 0 0 0-1.622-5.854 1.016 1.016 0 0 1 .155-1.23l1.919-1.93a.867.867 0 0 0-.005-1.242l-.943-.929a1.01 1.01 0 0 1-.01-1.437 1.024 1.024 0 0 1 1.446-.01l.945.926a2.908 2.908 0 0 1 .024 4.121l-1.387 1.394a13.914 13.914 0 0 1 1.493 5.386l1.902.493c1.562.408 2.502 2.004 2.094 3.556l-.764 2.904c-.409 1.552-2.011 2.477-3.577 2.08l-1.912-.497a14.063 14.063 0 0 1-3.944 3.97l.524 1.892c.21.75.111 1.536-.275 2.216a2.923 2.923 0 0 1-1.774 1.365l-2.91.793a2.912 2.912 0 0 1-.781.108" fill="#8487F5"/>
        <g transform="translate(37 125)">
            <mask id="f" fill="#fff">
                <use xlink:href="#e"/>
            </mask>
            <path d="M1.91 66c-.12 0-.245-.022-.36-.065a1.02 1.02 0 0 1-.613-1.314l4.495-11.92a12.333 12.333 0 0 0-.954-10.715C-.54 33.55-1.396 23.706 2.19 15.652 5.54 8.131 12.357 2.925 21.383.998 29.196-.67 37.002.643 42.795 4.596c4.882 3.337 7.93 8.284 8.818 14.304l.44 3.057c.913 6.435.913 6.435 4.591 12.307l.819 1.312c.674 1.084.536 2.455-.331 3.339-.858.877-2.15 1.463-3.537 1.603-.264.03-.549.227-.546.505.005.396.189.717.483 1.207.57.935 1.345 2.215.117 4.383l-.14.246c-.5.857-.762 1.389-.357 2.299.912 2.221.441 3.752-.113 4.648-.838 1.36-2.431 2.21-4.482 2.395-.348.068-10.857 1.877-19.177-6.712a1.017 1.017 0 0 1 .037-1.447 1.05 1.05 0 0 1 1.465.037c7.548 7.796 17.292 6.113 17.39 6.099 1.456-.135 2.512-.654 2.995-1.434.557-.901.292-2.014-.024-2.792-.838-1.873-.054-3.218.468-4.112l.127-.222c.645-1.137.402-1.538-.085-2.337-.341-.568-.768-1.268-.777-2.239-.013-1.313 1.02-2.414 2.404-2.557.897-.092 1.742-.461 2.26-.99.205-.21.23-.567.053-.847l-.816-1.309c-3.872-6.184-3.914-6.307-4.877-13.1l-.438-3.044c-.804-5.448-3.551-9.91-7.95-12.916-5.321-3.637-12.529-4.83-19.79-3.286C13.465 4.779 7.167 9.57 4.092 16.476.77 23.93 1.583 33.08 6.266 40.953A14.346 14.346 0 0 1 7.375 53.41L2.881 65.334c-.155.41-.552.664-.97.666" fill="#344154" mask="url(#f)"/>
        </g>
        <path d="M65.158 191c-.631 0-1.147-.448-1.155-1.006-.137-9.717 4.791-14.475 4.998-14.672.435-.412 1.166-.429 1.63-.05.467.382.494 1.027.06 1.44-.043.042-4.501 4.412-4.379 13.258.011.563-.502 1.023-1.138 1.03h-.016zM98.99 179a.964.964 0 0 1-.536-.16c-.46-.3-.591-.923-.297-1.392a12.04 12.04 0 0 0 1.863-6.446c0-2.29-.643-4.52-1.863-6.45a1.018 1.018 0 0 1 .297-1.392.975.975 0 0 1 1.365.302 14.068 14.068 0 0 1 2.181 7.54c0 2.677-.753 5.28-2.18 7.536a.98.98 0 0 1-.83.462" fill="#344154"/>
        <path d="M103.18 183c-.22 0-.444-.054-.639-.165-.549-.31-.705-.957-.354-1.443 2.26-3.117 3.458-6.707 3.458-10.392 0-3.684-1.198-7.275-3.458-10.392-.35-.485-.195-1.131.354-1.442.546-.31 1.276-.173 1.628.313C106.676 162.931 108 166.917 108 171c0 4.082-1.324 8.067-3.831 11.522-.226.31-.602.478-.99.478M95.059 175c-.196 0-.396-.052-.574-.166a1.035 1.035 0 0 1-.316-1.443 4.41 4.41 0 0 0 .714-2.39c0-.845-.25-1.671-.714-2.39a1.035 1.035 0 0 1 .316-1.444 1.068 1.068 0 0 1 1.465.314 6.427 6.427 0 0 1 0 7.04c-.203.31-.54.479-.891.479M201.787 160a1.215 1.215 0 0 1-1.179-.909l-3.162-12.772c-.747-3.84-.556-7.88.577-12.41a1.206 1.206 0 0 1 1.467-.872c.649.156 1.047.801.886 1.441-1.046 4.189-1.23 7.898-.559 11.334l3.15 12.715a1.195 1.195 0 0 1-1.18 1.473M157.097 160a1.162 1.162 0 0 1-1.099-1.516c.84-2.613.914-6.15.2-9.696a4.134 4.134 0 0 0-3.046-3.18c-1.733-.432-3.507-.61-5.29-.607-.676.01-1.35.053-2.028.097-1.268.083-2.583.164-3.915.042-2.797-.259-4.965-1.433-6.1-3.305-.748-1.23-1.38-3.338-.155-6.38.678-1.554.155-2.47-.506-3.63l-.197-.35c-1.65-2.968-.603-4.722.158-6.004.401-.673.717-1.203.732-1.876.01-.596-.535-1.01-1.07-1.067-1.864-.2-3.599-.993-4.758-2.177-1.157-1.183-1.354-3.009-.481-4.44l1.178-1.922c5.238-8.525 5.238-8.525 6.535-17.865.263-1.903.581-4.188 1.004-6.992.984-6.543 5.007-12.713 11.029-16.925a1.15 1.15 0 0 1 1.606.29 1.16 1.16 0 0 1-.286 1.614c-5.508 3.848-9.175 9.452-10.067 15.368a688.22 688.22 0 0 0-1.001 6.965c-1.351 9.73-1.417 9.908-6.854 18.763l-1.176 1.918c-.313.512-.245 1.186.16 1.6.778.796 2.032 1.358 3.357 1.497 1.815.193 3.164 1.662 3.13 3.417-.024 1.29-.571 2.21-1.057 3.023-.7 1.174-1.12 1.885-.122 3.686l.183.322c.702 1.232 1.762 3.09.63 5.686-.674 1.67-.677 3.156 0 4.274.745 1.227 2.288 2.013 4.342 2.203 1.15.108 2.319.032 3.556-.048.712-.047 1.424-.093 2.136-.103a22.236 22.236 0 0 1 5.881.676 6.463 6.463 0 0 1 4.756 4.974c.8 3.98.705 7.839-.267 10.863a1.16 1.16 0 0 1-1.098.805" fill="#344154"/>
        <g transform="translate(159 59)">
            <mask id="h" fill="#fff">
                <use xlink:href="#g"/>
            </mask>
            <path d="M6.485 2.858A3.987 3.987 0 0 0 2.502 6.84v20.48a3.989 3.989 0 0 0 3.983 3.985h20.483a3.989 3.989 0 0 0 3.983-3.985V6.84a3.987 3.987 0 0 0-3.983-3.983H6.485zM26.968 33.61H6.485a6.294 6.294 0 0 1-6.287-6.29V6.84A6.293 6.293 0 0 1 6.485.553h20.483a6.293 6.293 0 0 1 6.287 6.288v20.48c0 3.47-2.82 6.29-6.287 6.29z" fill="#14B7CC" mask="url(#h)"/>
        </g>
        <path d="M209.721 117h-20.445a6.283 6.283 0 0 1-6.276-6.279V92.345a1.15 1.15 0 1 1 2.3 0v18.376a3.983 3.983 0 0 0 3.976 3.978h20.445a3.985 3.985 0 0 0 3.978-3.978V90.277a3.982 3.982 0 0 0-3.978-3.976h-8.872a1.15 1.15 0 1 1 0-2.301h8.872A6.283 6.283 0 0 1 216 90.277v20.444a6.283 6.283 0 0 1-6.279 6.279" fill="#14B7CC"/>
        <path d="M197.415 102h-.849c-3.07 0-5.566-2.242-5.566-5s2.496-5 5.566-5h3.212c.676 0 1.222.49 1.222 1.096 0 .608-.546 1.098-1.222 1.098h-3.212c-1.721 0-3.124 1.26-3.124 2.806s1.403 2.806 3.124 2.806h.85c.676 0 1.222.49 1.222 1.096 0 .608-.546 1.098-1.223 1.098" fill="#14B7CC"/>
        <path d="M199.778 109h-3.212c-3.07 0-5.566-2.242-5.566-5s2.496-5 5.566-5h.85c.676 0 1.222.49 1.222 1.096 0 .608-.546 1.098-1.223 1.098h-.849c-1.721 0-3.124 1.26-3.124 2.806s1.403 2.806 3.124 2.806h3.212c.676 0 1.222.49 1.222 1.096 0 .608-.546 1.098-1.222 1.098M209.737 109c-.7 0-1.263-.49-1.263-1.098v-4.817c0-1.043-.976-1.891-2.172-1.891h-1.779v6.708c0 .608-.563 1.098-1.263 1.098-.696 0-1.26-.49-1.26-1.098V99h4.302c2.592 0 4.698 1.833 4.698 4.085v4.817c0 .608-.564 1.098-1.263 1.098M179.798 104H171v-7.92c0-.597.536-1.08 1.202-1.08.665 0 1.201.483 1.201 1.08v5.759h6.395c.666 0 1.202.483 1.202 1.08 0 .598-.536 1.081-1.202 1.081M165.354 71.405a3.01 3.01 0 0 1-.637-.078.841.841 0 0 1-.555-.383 1.211 1.211 0 0 1-.15-.463 1.197 1.197 0 0 1 .034-.494 1.05 1.05 0 0 1 .611-.698c.069-.023.133-.047.199-.07l.217-.069c.21-.054.383-.087.52-.091l.539-.028h.233c.055 0 .125-.005.214-.017.09 0 .176-.002.265-.01.09-.002.183-.004.283-.004h1.26c.32 0 .66.002 1.018.005.36.007.696.01 1.011.01.315 0 .59.001.82.009l.434.007c.164.011.335.018.511.018h.532a9.667 9.667 0 0 1 1.175.069c.087.023.178.04.272.051a.654.654 0 0 1 .276.104.674.674 0 0 1 .281.298c.066.13.119.273.157.423.037.156.064.313.076.473.009.158.016.3.016.426 0 .16.002.312.009.463.004.145.007.298.007.458 0 .104.004.247.009.435a15.851 15.851 0 0 1 0 1.145c-.005.188-.01.331-.01.435-.01.465-.018.924-.024 1.373-.005.451-.007.907-.007 1.373 0 .183-.018.364-.05.54a1.33 1.33 0 0 1-.215.504.97.97 0 0 1-.447.331.856.856 0 0 1-.548.01c-.222-.057-.386-.156-.489-.299a1.41 1.41 0 0 1-.233-.496 2.909 2.909 0 0 1-.09-.597 8.487 8.487 0 0 0-.051-.59c-.066-.478-.1-.943-.1-1.397v-.496c0-.204-.003-.414-.014-.623-.012-.211-.02-.416-.025-.616-.007-.2-.01-.36-.01-.486 0-.193-.01-.379-.034-.553a.516.516 0 0 0-.264-.402.478.478 0 0 0-.231-.05H171.487a.582.582 0 0 1-.169.005c-.052-.004-.11-.004-.164-.004h-1.906c-.222 0-.438.004-.655.023a8.562 8.562 0 0 1-.653.026c-.222 0-.448-.002-.671-.01a5.289 5.289 0 0 0-.671.027.604.604 0 0 1-.208 0 .978.978 0 0 0-.208-.017h-.828zM180.312 82.694c.047.177.174.283.383.312.205.03.411.05.613.062a30.95 30.95 0 0 1 1.015-.015c.296 0 .615-.005.961-.01a45.463 45.463 0 0 1 1.773 0l.382.01c.094.01.192.012.292.005.103-.005.199-.003.295.01.058 0 .127.007.206.02a.679.679 0 0 0 .223 0 .314.314 0 0 0 .176-.092c.05-.046.071-.118.071-.214v-.561c0-.126-.005-.251-.007-.377a1.43 1.43 0 0 0-.047-.312c-.036-.143-.09-.222-.166-.242a.946.946 0 0 0-.295-.007 7.71 7.71 0 0 0-.277.007 1.133 1.133 0 0 1-.274-.007h-4.184c-.108 0-.228-.005-.358-.01-.13-.007-.252 0-.365.017a.638.638 0 0 0-.292.123c-.083.07-.132.173-.145.316v.502c0 .103.003.204.01.293.005.09.01.145.01.17zm5.91-3.326c.13.012.24.01.328-.007.091-.018.152-.094.19-.222 0-.062.002-.155.006-.28.008-.124.01-.254.01-.392 0-.135.003-.266.01-.384.005-.12.007-.202.007-.251.013-.214.057-.384.133-.51.078-.123.23-.211.456-.258.25-.062.517-.076.81-.054.289.024.5.096.632.214.059.061.103.175.135.34a4.5 4.5 0 0 1 .051.546c.005.197.01.384.01.561v.377c-.012.273-.017.618-.01 1.029.005.41.01.834.01 1.275 0 .443-.005.869-.01 1.28-.007.411-.022.75-.044 1.026-.059.727-.434 1.143-1.123 1.25a3.93 3.93 0 0 1-.542.038h-.542c-.738 0-1.45.005-2.138.017a203.136 203.136 0 0 1-3.48.037c-.456 0-.816-.005-1.076-.017-.25-.013-.505-.035-.765-.064a1.363 1.363 0 0 1-.694-.278 1.08 1.08 0 0 1-.314-.448 2.933 2.933 0 0 1-.167-.569 3.352 3.352 0 0 1-.064-.51 8.998 8.998 0 0 1-.01-.243v-3.643c0-.24-.01-.478-.024-.717a2.685 2.685 0 0 1 .044-.714c.059-.275.189-.46.39-.556a2.14 2.14 0 0 1 .711-.177c.108 0 .22.007.34.02.119.012.231.036.34.078.107.042.198.101.274.178a.588.588 0 0 1 .152.295c.01.061.015.165.007.313a14.835 14.835 0 0 0 0 .967c.008.148.022.246.047.293.024.059.086.098.186.118l.24.042c.273.025.486.027.643.01.152-.017.365-.025.638-.025l4.203.015z" fill="#14B7CC"/>
        <path d="M116.852 141c-.377 0-.746-.187-.964-.535A18.61 18.61 0 0 1 113 130.5c0-3.533.998-6.977 2.888-9.965a1.137 1.137 0 0 1 1.586-.35c.534.348.686 1.07.343 1.612a16.274 16.274 0 0 0 0 17.408c.343.54.19 1.262-.343 1.61-.191.126-.409.185-.622.185M110.742 145c-.414 0-.819-.183-1.057-.525-3.066-4.34-4.685-9.343-4.685-14.477 0-5.132 1.619-10.135 4.685-14.474.376-.533 1.157-.682 1.738-.342.585.342.752 1.048.376 1.58-2.8 3.968-4.284 8.546-4.284 13.236 0 4.695 1.483 9.273 4.284 13.24.376.53.21 1.239-.376 1.581-.21.123-.448.181-.681.181M121.648 135c-.444 0-.883-.171-1.136-.485-.99-1.205-1.512-2.594-1.512-4.014 0-1.42.521-2.809 1.512-4.013.399-.49 1.233-.639 1.868-.318.629.316.808.968.404 1.46-.706.864-1.08 1.854-1.08 2.871 0 1.018.374 2.008 1.08 2.872.404.492.225 1.144-.404 1.46a1.615 1.615 0 0 1-.732.167" fill="#344154"/>
        <g>
            <path d="M338.759 163c-.078 0-.159-.004-.236-.014-.964-.124-1.636-.969-1.507-1.888l3.493-24.646c.13-.92 1.03-1.552 1.972-1.439.964.124 1.632.969 1.503 1.888l-3.49 24.646c-.121.841-.875 1.453-1.735 1.453M343.716 128c-.076 0-.155-.004-.23-.014-.94-.124-1.597-.969-1.47-1.888l2.633-19.062c.57-4.144 2.976-7.036 5.85-7.036 2.922 0 5.275 2.829 5.855 7.036l2.63 18.641c.13.92-.523 1.768-1.46 1.895-.91.113-1.8-.516-1.93-1.432l-2.634-18.648c-.367-2.697-1.664-4.137-2.46-4.137-.793 0-2.09 1.44-2.461 4.13l-2.63 19.062a1.706 1.706 0 0 1-1.693 1.453M361.316 157c-.823 0-1.544-.624-1.66-1.483l-2.64-19.554c-.127-.943.516-1.814 1.431-1.944.901-.142 1.767.53 1.898 1.469l2.639 19.553c.127.943-.516 1.814-1.435 1.944-.077.011-.155.015-.233.015" fill="#14B7CC"/>
            <path d="M364.716 163c-2.801 0-5.146-2.892-5.7-7.037a1.676 1.676 0 0 1 1.428-1.888c.881-.127 1.752.517 1.875 1.44.361 2.694 1.625 4.13 2.397 4.13.776 0 2.04-1.436 2.402-4.13l2.563-19.063c.122-.92.993-1.552 1.874-1.439a1.673 1.673 0 0 1 1.43 1.888l-2.564 19.062c-.565 4.208-2.854 7.037-5.705 7.037M386.257 127.996c-.853 0-1.6-.617-1.72-1.468l-2.67-18.924c-.377-2.738-1.694-4.199-2.503-4.199-.717 0-1.891 1.342-2.239 3.85l-2.667 19.266a1.727 1.727 0 0 1-1.953 1.46 1.707 1.707 0 0 1-1.49-1.916l2.664-19.265c.56-4.07 2.846-6.8 5.685-6.8 2.97 0 5.356 2.87 5.945 7.14l2.674 18.918c.132.933-.534 1.794-1.485 1.923-.08.011-.16.015-.241.015M390.313 157c-.825 0-1.547-.626-1.663-1.488l-2.634-19.544c-.127-.946.517-1.82 1.434-1.95.895-.135 1.77.523 1.9 1.473l2.634 19.544c.127.946-.517 1.82-1.437 1.95-.078.011-.156.015-.234.015" fill="#14B7CC"/>
            <path d="M394.72 163c-2.85 0-5.14-2.829-5.705-7.037a1.676 1.676 0 0 1 1.429-1.888c.892-.127 1.752.517 1.875 1.44.361 2.694 1.625 4.13 2.401 4.13.772 0 2.036-1.436 2.398-4.13l2.563-19.063a1.69 1.69 0 0 1 1.874-1.439 1.67 1.67 0 0 1 1.43 1.888l-2.564 19.062c-.554 4.145-2.9 7.037-5.701 7.037M402.715 128a1.68 1.68 0 0 1-.23-.014c-.94-.124-1.596-.969-1.47-1.888l2.68-19.398c.55-4.01 2.8-6.7 5.595-6.7.947 0 1.71.75 1.71 1.68 0 .926-.763 1.675-1.71 1.675-.706 0-1.862 1.32-2.204 3.794l-2.679 19.398a1.705 1.705 0 0 1-1.692 1.453" fill="#14B7CC"/>
            <path d="M411.254 102.898h-1.508c-.967 0-1.746-.848-1.746-1.9 0-1.048.78-1.896 1.746-1.896h1.508c.967 0 1.746.848 1.746 1.896 0 1.052-.78 1.9-1.746 1.9" fill="#14B7CC"/>
            <path d="M415 163c-1.052 0-1.9-.751-1.9-1.684V136.68c0-.929.848-1.68 1.9-1.68s1.9.751 1.9 1.68v24.636c0 .933-.848 1.684-1.9 1.684" fill="#344154"/>
            <g transform="translate(330 129)">
                <mask id="j" fill="#fff">
                    <use xlink:href="#i"/>
                </mask>
                <path d="M102.413 3.956H1.705C.76 3.956 0 3.13 0 2.104-.001 1.082.76.255 1.705.255h100.708c.945 0 1.707.827 1.707 1.849 0 1.025-.762 1.852-1.707 1.852" fill="#8487F5" mask="url(#j)"/>
            </g>
            <path d="M432.772 139c-.452 0-.907-.167-1.254-.504a1.694 1.694 0 0 1 0-2.439l5.205-5.058-5.205-5.058a1.694 1.694 0 0 1 0-2.439 1.817 1.817 0 0 1 2.507 0l6.456 6.278a1.7 1.7 0 0 1 .519 1.219 1.7 1.7 0 0 1-.519 1.22l-6.456 6.277a1.795 1.795 0 0 1-1.253.504" fill="#8487F5"/>
            <g transform="translate(366 66)">
                <mask id="l" fill="#fff">
                    <use xlink:href="#k"/>
                </mask>
                <path d="M88.4 131.083H9.861c-5.373 0-9.738-4.368-9.738-9.742v-19.154a1.695 1.695 0 1 1 3.393 0v19.154c0 3.5 2.849 6.35 6.345 6.35h78.54c3.5 0 6.345-2.85 6.345-6.35V12.518c0-4.597-3.74-8.34-8.344-8.34H11.859c-4.6 0-8.344 3.743-8.344 8.34v32.343c0 .94-.758 1.695-1.698 1.695a1.691 1.691 0 0 1-1.694-1.695V12.518C.123 6.048 5.385.785 11.859.785h74.543c6.474 0 11.74 5.263 11.74 11.733v108.823c0 5.374-4.369 9.742-9.742 9.742" fill="#344154" mask="url(#l)"/>
            </g>
            <g transform="translate(396 66)">
                <mask id="n" fill="#fff">
                    <use xlink:href="#m"/>
                </mask>
                <path d="M31.094 14.838H7.175c-3.887 0-7.05-3.269-7.05-7.283V2.538c0-.961.75-1.736 1.68-1.736.927 0 1.677.775 1.677 1.736v5.017c0 2.102 1.66 3.813 3.693 3.813h23.919c2.034 0 3.693-1.71 3.693-3.813V2.538c0-.961.75-1.736 1.68-1.736.927 0 1.676.775 1.676 1.736v5.017c0 4.014-3.158 7.283-7.05 7.283" fill="#344154" mask="url(#n)"/>
            </g>
            <path d="M415 127c-1.052 0-1.9-.758-1.9-1.699V91.7c0-.94.848-1.699 1.9-1.699s1.9.758 1.9 1.699V125.3c0 .94-.848 1.699-1.9 1.699" fill="#344154"/>
        </g>
    </g>
</svg>
