<?xml version="1.0" encoding="utf-8"?>
<!-- Generator: Adobe Illustrator 24.3.0, SVG Export Plug-In . SVG Version: 6.00 Build 0)  -->
<svg version="1.1" id="Layer_1" xmlns="http://www.w3.org/2000/svg" xmlns:xlink="http://www.w3.org/1999/xlink" x="0px" y="0px"
	 viewBox="0 0 811 452" style="enable-background:new 0 0 811 452;" xml:space="preserve">
<style type="text/css">
	.st0{filter:url(#filter-2);}
	.st1{fill-rule:evenodd;clip-rule:evenodd;}
	.st2{fill:none;stroke:#FFFFFF;stroke-width:20;stroke-linejoin:round;}
	.st3{fill-rule:evenodd;clip-rule:evenodd;fill:#FFFFFF;}
	.st4{enable-background:new    ;}
	.st5{fill:#2C2C2C;}
	.st6{fill-rule:evenodd;clip-rule:evenodd;fill:#EFF3F7;stroke:#E9F1F9;}
	.st7{fill:#394058;}
	.st8{fill:#2D2343;}
	.st9{fill:#616779;}
	.st10{fill:#706F71;}
	.st11{fill:#FFA26B;}
	.st12{fill:#C48BFF;}
	.st13{fill:#6CB0FF;}
	.st14{filter:url(#filter-4);}
	.st15{fill-rule:evenodd;clip-rule:evenodd;fill:#8280ED;}
	.st16{opacity:0.5;fill-rule:evenodd;clip-rule:evenodd;fill:#D8D8D8;enable-background:new    ;}
	.st17{opacity:0.1;}
	.st18{fill:#FFFFFF;}
	.st19{fill-rule:evenodd;clip-rule:evenodd;fill:#5ED3E1;}
	.st20{fill-rule:evenodd;clip-rule:evenodd;fill:#363A44;}
	.st21{filter:url(#Adobe_OpacityMaskFilter);}
	.st22{mask:url(#mask-6_1_);fill-rule:evenodd;clip-rule:evenodd;fill:#363A44;}
	.st23{opacity:0.1;fill-rule:evenodd;clip-rule:evenodd;fill:#8487F5;enable-background:new    ;}
	.st24{filter:url(#filter-7);}
	.st25{filter:url(#filter-8);}
	.st26{fill-rule:evenodd;clip-rule:evenodd;fill:#EFF3F7;}
	.st27{fill-rule:evenodd;clip-rule:evenodd;fill:#FFFFFF;stroke:#616779;stroke-width:0.5;stroke-opacity:0.2;}
	.st28{fill-rule:evenodd;clip-rule:evenodd;fill:#8487F5;stroke:#8487F5;stroke-width:2.5;stroke-linejoin:round;}
	.st29{fill:none;stroke:#EFF3F7;stroke-width:0.5;}
	.st30{fill:none;stroke:#EFF3F7;}
	.st31{opacity:0.6;fill-rule:evenodd;clip-rule:evenodd;fill:#5ED3E1;fill-opacity:0.5;enable-background:new    ;}
</style>
<filter  id="filter-8">
	<feColorMatrix  in="SourceGraphic" type="matrix" values="0 0 0 0 0.268877 0 0 0 0 0.766942 0 0 0 0 0.826540 0 0 0 1.000000 0">
		</feColorMatrix>
</filter>
<filter  id="filter-7">
	<feColorMatrix  in="SourceGraphic" type="matrix" values="0 0 0 0 0.268877 0 0 0 0 0.766942 0 0 0 0 0.826540 0 0 0 1.000000 0">
		</feColorMatrix>
</filter>
<filter  filterUnits="objectBoundingBox" height="145.5%" id="filter-4" width="176.9%" x="-38.5%" y="-17.0%">
	<feMorphology  in="SourceAlpha" operator="dilate" radius="10" result="shadowSpreadOuter1"></feMorphology>
	<feOffset  dx="0" dy="20" in="shadowSpreadOuter1" result="shadowOffsetOuter1"></feOffset>
	<feMorphology  in="SourceAlpha" operator="erode" radius="10" result="shadowInner"></feMorphology>
	<feOffset  dx="0" dy="20" in="shadowInner" result="shadowInner"></feOffset>
	<feComposite  in="shadowOffsetOuter1" in2="shadowInner" operator="out" result="shadowOffsetOuter1"></feComposite>
	<feGaussianBlur  in="shadowOffsetOuter1" result="shadowBlurOuter1" stdDeviation="20"></feGaussianBlur>
	<feColorMatrix  in="shadowBlurOuter1" type="matrix" values="0 0 0 0 0   0 0 0 0 0   0 0 0 0 0  0 0 0 0.18 0"></feColorMatrix>
</filter>
<filter  filterUnits="objectBoundingBox" height="151.1%" id="filter-2" width="130.8%" x="-15.4%" y="-19.2%">
	<feMorphology  in="SourceAlpha" operator="dilate" radius="10" result="shadowSpreadOuter1"></feMorphology>
	<feOffset  dx="0" dy="20" in="shadowSpreadOuter1" result="shadowOffsetOuter1"></feOffset>
	<feMorphology  in="SourceAlpha" operator="erode" radius="10" result="shadowInner"></feMorphology>
	<feOffset  dx="0" dy="20" in="shadowInner" result="shadowInner"></feOffset>
	<feComposite  in="shadowOffsetOuter1" in2="shadowInner" operator="out" result="shadowOffsetOuter1"></feComposite>
	<feGaussianBlur  in="shadowOffsetOuter1" result="shadowBlurOuter1" stdDeviation="20"></feGaussianBlur>
	<feColorMatrix  in="shadowBlurOuter1" type="matrix" values="0 0 0 0 0   0 0 0 0 0   0 0 0 0 0  0 0 0 0.18 0"></feColorMatrix>
</filter>
<g id="Page-1">
	<g id="마음회의록0206" transform="translate(-552.000000, -386.000000)">
		<g id="web" transform="translate(602.000000, 416.000000)">
			<g id="Group-26">
				<g id="Group-43">
					<g id="Group-83">
						<g id="Group-91">
							<g id="Group-8" transform="translate(0.000000, 36.000000)">
								<g id="Group-2">
									<g id="Rectangle">
										<g class="st0">
											<rect id="path-1_2_" class="st1" width="520" height="313"/>
										</g>
										<g>
											<rect id="path-1_1_" class="st2" width="520" height="313"/>
										</g>
									</g>
									<rect id="Rectangle_1_" x="8" y="5" class="st3" width="511" height="306"/>
								</g>
								<g class="st4">
									<path class="st5" d="M28.4,13.2H30v14.3h-1.6v-7.4h-1.6c-0.2,3-1.4,4.8-3.3,4.8c-2,0-3.3-2.1-3.3-5.5
										c0-3.4,1.3-5.4,3.3-5.4c1.8,0,3.1,1.8,3.3,4.6h1.6V13.2z M25.1,19.6c0-2.4-0.6-3.8-1.7-3.8c-1.1,0-1.7,1.4-1.7,3.8
										s0.6,3.8,1.7,3.8C24.5,23.4,25.1,22,25.1,19.6z M33.1,13v15.3h-1.7V13H33.1z"/>
									<path class="st5" d="M49.1,24.9v1.4H35.2v-1.4h5.2v-3.9h1.8v3.9H49.1z M45.8,18.1c0-0.8,0-1.6,0-2.3h-9v-1.4h10.7v1.4
										c0,1.9,0,4-0.7,7.2l-1.7-0.2c0.3-1.3,0.4-2.4,0.5-3.4l-9.1,0.5l-0.2-1.5L45.8,18.1z"/>
									<path class="st5" d="M54.4,14.5h7.2v10h-7.2V14.5z M56.1,23.1h3.7v-7.2h-3.7V23.1z M68.1,20.4h-2.4v7.9H64V13h1.8v6h2.4
										V20.4z"/>
									<path class="st5" d="M73.4,21.7c-2.3,0-4.1-1.6-4.1-3.8c0-2.2,1.8-3.8,4.1-3.8c2.3,0,4.1,1.6,4.1,3.8
										C77.5,20,75.7,21.7,73.4,21.7z M73.4,20.1c1.3,0,2.4-0.9,2.4-2.3c0-1.4-1-2.3-2.4-2.3c-1.4,0-2.4,0.9-2.4,2.3
										C71,19.2,72.1,20.1,73.4,20.1z M82.1,26.6V28H71.7v-5h1.8v3.6H82.1z M81.7,24.1h-1.8V13h1.8V24.1z"/>
									<path class="st5" d="M98.2,24.9v1.4H84.3v-1.4H98.2z M84.9,21.1c3-0.5,5.4-2.6,5.4-4.9v-0.4h-4.9v-1.4H97v1.4h-4.9v0.4
										c0,2.3,2.4,4.4,5.5,4.8l-0.7,1.4c-2.5-0.5-4.7-1.9-5.7-3.8c-1,2-3.1,3.4-5.6,3.9L84.9,21.1z"/>
									<path class="st5" d="M108.7,23.5c1.4-0.1,2.8-0.2,4.1-0.4l0.1,1.3c-3.4,0.6-7.1,0.7-9.8,0.7l-0.2-1.4c1.2,0,2.6,0,4-0.1
										v-2.4c-1.9-0.3-3.3-1.7-3.3-3.6c0-2.2,1.8-3.7,4.2-3.7c2.4,0,4.2,1.5,4.2,3.7c0,1.9-1.4,3.3-3.3,3.6V23.5z M107.8,19.8
										c1.4,0,2.5-0.8,2.5-2.2c0-1.3-1-2.2-2.5-2.2c-1.4,0-2.4,0.8-2.4,2.2C105.4,18.9,106.4,19.8,107.8,19.8z M115.5,12.9v15.4
										h-1.8V12.9H115.5z"/>
									<path class="st5" d="M132,23.3h-6.1v5h-1.8v-5h-6v-1.4H132V23.3z M130.3,20.3h-10.5v-6.7h1.8v1.9h7v-1.9h1.8V20.3z
										 M128.5,16.9h-7v2h7V16.9z"/>
									<path class="st5" d="M141.3,14.4v10.1h-7.2V14.4H141.3z M135.8,15.8v7.3h3.8v-7.3H135.8z M145.9,12.9v15.4h-1.8V12.9H145.9
										z"/>
									<path class="st5" d="M158,21.1c-2.2,0.4-4.1,0.4-7.4,0.4h-1.3V14h7.3v1.4h-5.6V17h5.2v1.4h-5.2v1.6c3,0,4.7-0.1,6.7-0.4
										L158,21.1z M161.3,25.5c0,1.8-2,2.9-5.2,2.9c-3.2,0-5.2-1.1-5.2-2.9s2-2.9,5.2-2.9C159.3,22.6,161.3,23.7,161.3,25.5z
										 M159.5,25.5c0-1-1.3-1.5-3.5-1.5c-2.2,0-3.5,0.5-3.5,1.5s1.3,1.5,3.5,1.5C158.2,26.9,159.5,26.4,159.5,25.5z M161.2,22.4
										h-1.8V13h1.8V22.4z"/>
								</g>
								<path id="Rectangle_2_" class="st6" d="M35.3,150h215c8.3,0,15,6.7,15,15l0,0c0,8.3-6.7,15-15,15h-215c-8.3,0-15-6.7-15-15
									l0,0C20.3,156.7,27.1,150,35.3,150z"/>
								<path id="Rectangle-Copy-8" class="st6" d="M35.3,286h190c8.3,0,15,6.7,15,15l0,0c0,8.3-6.7,15-15,15h-190
									c-8.3,0-15-6.7-15-15l0,0C20.3,292.7,27.1,286,35.3,286z"/>
								<path id="Rectangle-Copy-4" class="st6" d="M65.3,202h415c11,0,20,9,20,20v11c0,11-9,20-20,20h-415c-11,0-20-9-20-20v-11
									C45.3,210.9,54.3,202,65.3,202z"/>
								<g class="st4">
									<path class="st7" d="M44.6,168.4v0.8h-9.8v-0.8h4.4v-2.2c-2-0.1-3.4-1.2-3.4-2.8c0-1.7,1.6-2.8,3.9-2.8
										c2.3,0,3.9,1.1,3.9,2.8c0,1.6-1.4,2.7-3.4,2.8v2.2H44.6z M39.7,165.4c1.7,0,3-0.8,3-2s-1.2-2-3-2c-1.7,0-3,0.8-3,2
										S38,165.4,39.7,165.4z"/>
									<path class="st7" d="M55.3,164.3v0.8h-9.8v-0.8H55.3z M47.7,169.7h6.7v0.8h-7.7v-2.6H53v-1h-6.3v-0.8H54v2.5h-6.3V169.7z
										 M54.1,163.2h-7.3V160h1v2.4h6.3V163.2z"/>
									<path class="st7" d="M64.5,160.1h0.9v10h-0.9v-5.2h-1.4c-0.1,2.1-1,3.4-2.3,3.4c-1.4,0-2.3-1.4-2.3-3.8
										c0-2.3,0.9-3.7,2.3-3.7c1.3,0,2.2,1.3,2.3,3.3h1.4V160.1z M62.3,164.5c0-1.7-0.6-2.8-1.4-2.8c-0.9,0-1.4,1.1-1.4,2.8
										c0,1.8,0.5,2.9,1.4,2.9C61.7,167.4,62.3,166.3,62.3,164.5z M67.6,159.9v10.8h-0.9v-10.8H67.6z"/>
									<path class="st7" d="M78.8,168.4v0.8h-9.7v-0.8h3.8v-2.8h1v2.8H78.8z M76.7,163.5c0-0.6,0-1.1,0-1.6v-0.2h-6.4v-0.8h6.8
										l0.6,0v1c0,1.3,0,2.8-0.5,5l-1-0.1c0.2-1,0.3-1.8,0.4-2.5l-6.5,0.3l-0.1-0.8L76.7,163.5z"/>
									<path class="st7" d="M82.5,161h4.9v6.9h-4.9V161z M83.4,167.1h3v-5.4h-3V167.1z M92.1,165h-1.8v5.6h-1v-10.7h1v4.3h1.8V165
										z"/>
									<path class="st7" d="M95.7,165.9c-1.6,0-2.8-1.1-2.8-2.7c0-1.5,1.2-2.6,2.8-2.6c1.6,0,2.8,1.1,2.8,2.6
										C98.5,164.8,97.3,165.9,95.7,165.9z M95.7,165.1c1.1,0,1.9-0.7,1.9-1.8c0-1-0.8-1.8-1.9-1.8c-1,0-1.8,0.7-1.8,1.8
										C93.9,164.3,94.7,165.1,95.7,165.1z M101.8,169.6v0.8h-7.2v-3.5h1v2.7H101.8z M101.5,167.8h-1v-7.9h1V167.8z"/>
									<path class="st7" d="M113.1,168.4v0.8h-9.8v-0.8H113.1z M103.8,165.7c1.9-0.3,3.9-1.8,3.9-3.5v-0.5h-3.6V161h8.1v0.8h-3.6
										v0.5c0,1.7,2.1,3.2,3.9,3.5l-0.4,0.8c-1.6-0.3-3.3-1.4-4-2.9c-0.7,1.5-2.4,2.6-4,2.9L103.8,165.7z"/>
									<path class="st7" d="M116.7,161h4.9v6.9h-4.9V161z M117.6,167.1h3v-5.4h-3V167.1z M126.3,165h-1.8v5.6h-1v-10.7h1v4.3h1.8
										V165z"/>
									<path class="st7" d="M132.9,160.2h0.9v9.9h-0.9v-5.2h-2c-0.6,1.3-1.6,2.5-3.4,3.5l-0.6-0.7c1.6-0.9,2.6-2,3.2-3.3l-3,0.3
										l-0.1-0.8l3.4-0.2c0.2-0.6,0.2-1.1,0.3-1.7h-3.2v-0.8h4.1c0,1-0.1,2-0.4,3h1.7V160.2z M136,159.9v10.8h-0.9v-10.8H136z"/>
									<path class="st7" d="M144.3,165.5c-1.6,0.3-2.9,0.3-5.2,0.3h-0.9v-5.1h5.1v0.8h-4.1v1.3h3.8v0.8h-3.8v1.4
										c2.2,0,3.5,0,5-0.3L144.3,165.5z M146.4,168.7c0,1.2-1.4,2-3.6,2c-2.2,0-3.6-0.7-3.6-2c0-1.3,1.4-2,3.6-2
										C145,166.7,146.4,167.4,146.4,168.7z M145.4,168.7c0-0.8-1-1.2-2.6-1.2c-1.6,0-2.6,0.4-2.6,1.2c0,0.7,1,1.2,2.6,1.2
										C144.4,169.9,145.4,169.4,145.4,168.7z M146.4,166.6h-1v-6.7h1V166.6z"/>
									<path class="st7" d="M154.5,167.7c1,0,2.1-0.1,3-0.3l0.1,0.7c-2.4,0.4-5,0.4-7,0.4l-0.1-0.8c0.9,0,1.9,0,3,0v-1.2
										c-1.3-0.2-2.1-0.9-2.1-2c0-1.2,1.1-2,2.6-2s2.6,0.8,2.6,2c0,1.1-0.8,1.8-2.1,2V167.7z M157.3,162h-6.5v-0.8h2.8v-1.3h1v1.3
										h2.8V162z M154,165.8c1,0,1.6-0.5,1.6-1.2c0-0.8-0.7-1.2-1.6-1.2c-1,0-1.7,0.5-1.7,1.2C152.4,165.3,153.1,165.8,154,165.8z
										 M159.2,159.9v10.7h-1v-10.7H159.2z"/>
									<path class="st7" d="M161.2,167.5c2,0,4.7,0,7-0.4l0.1,0.7c-2.4,0.5-5,0.5-7,0.5L161.2,167.5z M167.5,163.2
										c0,1.5-1.2,2.5-2.9,2.5c-1.7,0-2.9-1-2.9-2.5c0-1.5,1.2-2.5,2.9-2.5C166.3,160.7,167.5,161.7,167.5,163.2z M162.7,163.2
										c0,1,0.8,1.7,1.9,1.7c1.1,0,1.9-0.7,1.9-1.7c0-1-0.8-1.7-1.9-1.7C163.5,161.5,162.7,162.2,162.7,163.2z M169.9,159.9v10.8
										h-1v-10.8H169.9z"/>
									<path class="st7" d="M177.9,162.8c0,2,1.3,3.9,2.9,4.7l-0.6,0.8c-1.2-0.6-2.3-1.9-2.8-3.4c-0.5,1.6-1.5,3-2.8,3.6l-0.6-0.8
										c1.6-0.8,2.9-2.8,2.9-4.9v-1.9h1V162.8z M182.9,159.9v10.8h-1v-10.8H182.9z"/>
									<path class="st7" d="M190.4,165.9c-1.2-0.4-2.1-1.3-2.6-2.4c-0.5,1.2-1.4,2.1-2.7,2.6l-0.5-0.8c1.6-0.6,2.7-2,2.7-3.5v-0.4
										h-2.4v-0.8h5.8v0.8h-2.4v0.4c0,1.4,1,2.8,2.6,3.3L190.4,165.9z M186,166.9h7v3.7h-1v-2.9h-6V166.9z M194.6,163.5H193v2.8
										h-1v-6.5h1v2.8h1.6V163.5z"/>
									<path class="st7" d="M201.3,161.6h2.7v0.8h-6.3v-0.8h2.7V160h1V161.6z M203.4,165.8c0,1.5-1.1,2.5-2.6,2.5
										c-1.5,0-2.6-1-2.6-2.5c0-1.5,1.1-2.5,2.6-2.5C202.3,163.3,203.4,164.3,203.4,165.8z M202.5,165.8c0-1-0.7-1.7-1.7-1.7
										c-1,0-1.7,0.7-1.7,1.7c0,1,0.7,1.7,1.7,1.7C201.8,167.4,202.5,166.7,202.5,165.8z M207.7,165.1h-1.8v5.5h-1v-10.7h1v4.4
										h1.8V165.1z"/>
									<path class="st7" d="M212.2,163.7c-0.7,1.1-1.8,1.9-3.3,2.6l-0.5-0.7c2.2-0.9,3.4-2.3,3.6-4.1h-3.2v-0.8h4.2
										c0,0.8-0.1,1.6-0.4,2.3h1.7v-2.8h0.9v5.8h-0.9v-2.2H212.2z M216,167.2c0,1.1,0.8,2.2,2.2,2.7l-0.5,0.7
										c-1.1-0.4-1.8-1.1-2.2-2c-0.3,0.9-1,1.7-2,2.1c-1-0.4-1.7-1.2-2-2.1c-0.4,0.9-1.1,1.6-2.1,2l-0.5-0.7
										c1.4-0.5,2.2-1.7,2.2-2.7v-0.7h0.9v0.7c0,1,0.5,2,1.5,2.6c1-0.6,1.5-1.7,1.5-2.6v-0.7h1V167.2z M217.4,166.1h-0.9v-6.2h0.9
										V166.1z"/>
									<path class="st7" d="M228.7,164.8v0.8h-9.7v-0.8H228.7z M227.7,164c-1.7-0.3-3.3-1.1-3.9-2.3c-0.7,1.2-2.3,2-4,2.3
										l-0.4-0.8c1.9-0.2,3.8-1.4,3.8-2.8V160h1v0.5c0,1.3,1.9,2.5,3.8,2.8L227.7,164z M226.4,166.3h1v4.2h-7.2v-4.2h1v1.3h5.3
										V166.3z M226.4,168.3h-5.3v1.4h5.3V168.3z"/>
									<path class="st7" d="M231.2,167c1.6,0,3.3-0.1,5.1-0.5l0.1,0.8c-1.9,0.4-3.6,0.5-5.3,0.5h-0.9v-6.9h1V167z M238.4,159.9
										v10.7h-1v-10.7H238.4z"/>
									<path class="st7" d="M241.7,167.1c1.9,0,3.3-0.1,4.8-0.4l0.1,0.8c-1.6,0.3-3.1,0.4-5.1,0.4h-0.9v-7.1h5v0.8h-4V167.1z
										 M250.3,164.9h-1.8v5.7h-1v-10.8h1v4.2h1.8V164.9z"/>
									<path class="st7" d="M251.1,169.1c0-0.5,0.4-0.9,0.8-0.9s0.8,0.4,0.8,0.9c0,0.5-0.4,0.8-0.8,0.8S251.1,169.6,251.1,169.1z"
										/>
								</g>
								<g class="st4">
									<path class="st8" d="M36.4,303.1c1.2,0,2.2-0.1,3.5-0.3l0.1,0.8c-1.4,0.3-2.6,0.4-3.9,0.4h-0.7V297h1V303.1z M40.8,296.1
										h0.9v10h-0.9v-5.8h-2.4v-0.8h2.4V296.1z M44,295.9v10.8h-0.9v-10.8H44z"/>
									<path class="st8" d="M57.6,304.4v0.8h-9.8v-0.8H57.6z M50.3,297.8h-1.7V297h8v0.8H55v3.7h1.6v0.8h-7.9v-0.8h1.6V297.8z
										 M54,297.8h-2.7v3.7H54V297.8z"/>
									<path class="st8" d="M68.2,304.5v0.8h-9.8v-0.8h4.4v-2h-3.2v-3.3H66v-1.7h-6.4v-0.8H67v3.3h-6.4v1.7h6.6v0.8h-3.4v2H68.2z"
										/>
									<path class="st8" d="M78.8,304.4v0.8h-9.8v-0.8h4.4v-2.6h-3.2v-5h7.4v5h-3.2v2.6H78.8z M71.2,301.1h5.5v-3.5h-5.5V301.1z"
										/>
									<path class="st8" d="M85.5,302.3c-1.2-0.5-2.1-1.5-2.5-2.7c-0.4,1.3-1.4,2.3-2.7,2.8l-0.5-0.8c1.6-0.6,2.7-2.2,2.7-3.8
										v-1.4h1v1.4c0,1.6,1,3.1,2.6,3.7L85.5,302.3z M88.9,305.6v0.8h-7.2v-3.3h1v2.5H88.9z M87.6,300.5h-2.2v-0.8h2.2v-1.4h-2.2
										v-0.8h2.2v-1.6h1v8h-1V300.5z"/>
									<path class="st8" d="M98.4,301.7c-1.2-0.4-2.1-1.3-2.6-2.4c-0.4,1.3-1.4,2.2-2.7,2.7l-0.5-0.8c1.6-0.6,2.7-2.1,2.7-3.7
										v-1.1h1v1.2c0,1.5,1.1,2.8,2.6,3.3L98.4,301.7z M101.1,304.7c0,1.2-1.4,2-3.5,2c-2.2,0-3.6-0.7-3.6-2c0-1.3,1.4-2,3.6-2
										C99.8,302.7,101.1,303.4,101.1,304.7z M100.2,304.7c0-0.8-1-1.2-2.6-1.2c-1.6,0-2.6,0.4-2.6,1.2c0,0.7,1,1.2,2.6,1.2
										C99.2,305.9,100.2,305.4,100.2,304.7z M102.6,298.7v0.8H101v2.9h-1v-6.5h1v2.8H102.6z"/>
									<path class="st8" d="M106.5,298.9c0,1.7,0.8,3.5,2.2,4.4l-0.6,0.8c-1-0.6-1.7-1.8-2.1-3.1c-0.4,1.4-1.2,2.7-2.2,3.3
										l-0.6-0.7c1.5-0.9,2.4-2.8,2.4-4.6v-2.1h0.9V298.9z M109.3,296.1h0.9v10h-0.9v-5.6h-1.8v-0.8h1.8V296.1z M112.5,295.9v10.8
										h-0.9v-10.8H112.5z"/>
									<path class="st8" d="M119.3,301c-1.6,0-2.8-1-2.8-2.4c0-1.4,1.2-2.4,2.8-2.4c1.6,0,2.8,1,2.8,2.4
										C122.1,300.1,120.9,301,119.3,301z M119.3,300.2c1.1,0,1.8-0.7,1.8-1.6c0-0.9-0.8-1.6-1.8-1.6c-1,0-1.8,0.7-1.8,1.6
										C117.5,299.6,118.2,300.2,119.3,300.2z M125.4,305.7v0.8h-7.3v-2.7h6v-1.1h-6v-0.8h7v2.6h-6v1.2H125.4z M125.1,301.4h-1
										v-5.5h1V301.4z"/>
									<path class="st8" d="M132.8,301.9c-1.2-0.4-2.1-1.3-2.6-2.4c-0.5,1.2-1.5,2.3-2.7,2.7l-0.5-0.8c1.6-0.6,2.7-2,2.7-3.6v-0.4
										h-2.4v-0.8h5.7v0.8h-2.4v0.4c0,1.4,1.1,2.7,2.6,3.3L132.8,301.9z M135.8,304.6c0,1.3-1.4,2-3.6,2s-3.6-0.7-3.6-2
										s1.4-2,3.6-2S135.8,303.4,135.8,304.6z M134.8,304.6c0-0.8-1-1.2-2.6-1.2s-2.6,0.5-2.6,1.2s1,1.2,2.6,1.2
										S134.8,305.4,134.8,304.6z M134.8,298.7v-2.8h1v6.4h-1v-2.8h-2.1v-0.8H134.8z"/>
									<path class="st8" d="M149.5,300.9v0.8h-9.7v-0.8h4v-2.1h1v2.1H149.5z M148.4,304.7c0,1.2-1.5,2-3.8,2c-2.3,0-3.7-0.7-3.7-2
										c0-1.2,1.5-2,3.7-2C146.9,302.7,148.4,303.4,148.4,304.7z M147.4,297.2H141v-0.8h7.3v0.9c0,0.9,0,1.7-0.3,2.8l-1-0.1
										c0.3-1.1,0.3-1.9,0.3-2.7V297.2z M147.4,304.7c0-0.8-1.1-1.2-2.8-1.2c-1.7,0-2.8,0.5-2.8,1.2c0,0.7,1.1,1.2,2.8,1.2
										C146.3,305.9,147.4,305.4,147.4,304.7z"/>
									<path class="st8" d="M160.2,302.8h-2.5v3.8h-1v-3.8H154v3.8h-1v-3.8h-2.5V302h9.7V302.8z M151.6,298.7
										c0-1.4,1.5-2.3,3.8-2.3c2.2,0,3.8,0.9,3.8,2.3c0,1.4-1.5,2.4-3.8,2.4C153.1,301,151.6,300.1,151.6,298.7z M152.6,298.7
										c0,0.9,1.1,1.6,2.7,1.6c1.6,0,2.8-0.6,2.8-1.6c0-0.9-1.1-1.5-2.8-1.5C153.7,297.1,152.6,297.7,152.6,298.7z"/>
									<path class="st8" d="M173.2,303.1h-4.4v3.6h-1v-3.6h-4.4v-0.8h9.8V303.1z M171.9,301h-7.3v-4.7h1v1.5h5.3v-1.5h1V301z
										 M170.9,298.6h-5.3v1.6h5.3V298.6z"/>
									<path class="st8" d="M180.3,301.5c-1.5,0.3-2.7,0.3-4.9,0.3h-0.8v-5.2h4.9v0.8h-3.9v1.4h3.7v0.8h-3.7v1.5
										c2.1,0,3.2,0,4.6-0.3L180.3,301.5z M175.4,302.9h7v3.7h-1v-2.9h-6V302.9z M184,299.6h-1.6v2.8h-1v-6.5h1v2.9h1.6V299.6z"/>
									<path class="st8" d="M194.5,304.4v0.8h-9.8v-0.8H194.5z M193.3,301.8h-7.4v-5h7.3v0.8h-6.3v3.4h6.4V301.8z"/>
									<path class="st8" d="M202,301.2c-1.8,0.3-3.2,0.3-5.2,0.3h-0.9v-3h3.9v-1.4h-3.9v-0.8h4.9v2.9h-3.9v1.5
										c1.9,0,3.3-0.1,5-0.3L202,301.2z M203.2,302.3h1v4.2h-7v-4.2h1v1.3h5V302.3z M203.2,304.4h-5v1.3h5V304.4z M204.2,295.9
										v5.9h-1v-5.9H204.2z"/>
									<path class="st8" d="M207.6,303c1.6,0,3.3-0.1,5.1-0.5l0.1,0.8c-1.9,0.4-3.6,0.5-5.3,0.5h-0.9v-6.9h1V303z M214.8,295.9
										v10.7h-1v-10.7H214.8z"/>
									<path class="st8" d="M218.1,303.1c1.9,0,3.3-0.1,4.8-0.4l0.1,0.8c-1.6,0.3-3.1,0.4-5.1,0.4h-0.9v-7.1h5v0.8h-4V303.1z
										 M226.7,300.9h-1.8v5.7h-1v-10.8h1v4.2h1.8V300.9z"/>
									<path class="st8" d="M227.5,305.1c0-0.5,0.4-0.9,0.8-0.9s0.8,0.4,0.8,0.9c0,0.5-0.4,0.8-0.8,0.8S227.5,305.6,227.5,305.1z"
										/>
								</g>
								<g class="st4">
									<path class="st7" d="M64.1,221.8h2v-6.6h-1.6v-0.7c0.8-0.1,1.3-0.3,1.8-0.6h0.8v7.9H69v0.9h-4.8V221.8z"/>
									<path class="st7" d="M73.6,216.4c0,1.7,1.1,3.5,2.6,4.2l-0.6,0.8c-1.2-0.6-2.1-1.8-2.5-3.1c-0.5,1.5-1.4,2.7-2.7,3.3
										l-0.6-0.7c1.6-0.8,2.7-2.6,2.7-4.5v-0.8h-2.4v-0.8h2.4v-1.7h1v1.7H76v0.8h-2.4V216.4z M80,218.1h-1.8v5.5h-1v-10.8h1v4.4
										H80V218.1z"/>
									<path class="st7" d="M86.5,218.9c-1.2-0.4-2.1-1.3-2.6-2.4c-0.5,1.2-1.4,2.2-2.7,2.7l-0.5-0.8c1.6-0.6,2.7-2,2.7-3.5v-0.4
										H81v-0.8h5.7v0.8h-2.4v0.4c0,1.4,1.1,2.7,2.6,3.3L86.5,218.9z M82.3,219.9h7.2v3.7h-1v-3h-6.2V219.9z M89.5,212.9v6.4h-1
										v-2.8h-2.1v-0.8h2.1v-2.8H89.5z"/>
									<path class="st7" d="M101,221.4v0.8h-9.8v-0.8H101z M100,216.5c0,1.8-1.7,3-3.9,3c-2.2,0-3.9-1.2-3.9-3c0-1.8,1.7-3,3.9-3
										C98.4,213.6,100,214.7,100,216.5z M93.1,216.5c0,1.3,1.3,2.2,3,2.2c1.7,0,3-0.9,3-2.2c0-1.3-1.3-2.2-3-2.2
										C94.4,214.4,93.1,215.2,93.1,216.5z"/>
									<path class="st7" d="M111.7,221.5v0.8h-9.8v-0.8h4.4v-2h-3.2v-3.3h6.4v-1.7h-6.4v-0.8h7.4v3.3h-6.4v1.7h6.6v0.8h-3.4v2
										H111.7z"/>
									<path class="st7" d="M124.5,217.9v0.8h-9.7v-0.8h4v-2.1h1v2.1H124.5z M123.4,221.7c0,1.2-1.5,2-3.8,2c-2.3,0-3.7-0.7-3.7-2
										c0-1.2,1.5-2,3.7-2C122,219.7,123.4,220.4,123.4,221.7z M122.4,214.2H116v-0.8h7.3v0.9c0,0.9,0,1.7-0.3,2.8l-1-0.1
										c0.3-1.1,0.3-1.9,0.3-2.7V214.2z M122.4,221.7c0-0.8-1.1-1.2-2.8-1.2c-1.7,0-2.8,0.5-2.8,1.2c0,0.7,1.1,1.2,2.8,1.2
										C121.4,222.9,122.4,222.4,122.4,221.7z"/>
									<path class="st7" d="M135.2,219.8h-2.5v3.8h-1v-3.8H129v3.8h-1v-3.8h-2.5V219h9.7V219.8z M126.6,215.7
										c0-1.4,1.5-2.3,3.8-2.3c2.2,0,3.8,0.9,3.8,2.3c0,1.4-1.5,2.4-3.8,2.4C128.1,218,126.6,217.1,126.6,215.7z M127.6,215.7
										c0,0.9,1.1,1.6,2.7,1.6c1.6,0,2.8-0.6,2.8-1.6c0-0.9-1.1-1.5-2.8-1.5C128.7,214.1,127.6,214.7,127.6,215.7z"/>
									<path class="st7" d="M145.9,221.4v0.8h-9.8v-0.8H145.9z M144.8,218.8h-7.4v-5h7.3v0.8h-6.3v3.4h6.4V218.8z"/>
									<path class="st7" d="M150.9,215.7v-1.5h-3.7v-0.8h4.6v3h-3.6v1.6c2,0,3,0,4.3-0.3l0.1,0.8c-1.3,0.2-2.4,0.3-4.6,0.3h-0.8
										v-3.1H150.9z M154.4,220.2c0,1.1,0.8,2.3,2.2,2.7l-0.5,0.7c-1.1-0.4-1.8-1.1-2.2-2c-0.3,0.9-1,1.7-2,2.1
										c-1-0.4-1.7-1.2-2-2.1c-0.4,0.9-1.1,1.6-2.1,2l-0.5-0.7c1.3-0.5,2.1-1.7,2.1-2.7v-0.6h0.9v0.6c0,1,0.5,2,1.5,2.6
										c1-0.6,1.5-1.7,1.5-2.6v-0.6h1V220.2z M154.6,217.4h-2.1v-0.8h2.1v-1.4h-2.1v-0.8h2.1v-1.5h1v6.4h-1V217.4z"/>
									<path class="st7" d="M163.7,218.8c-1.5,0.3-2.8,0.3-4.8,0.3H158v-5.4h4.9v0.8H159v3.8c1.9,0,3.1-0.1,4.5-0.3L163.7,218.8z
										 M166.6,222.7v0.8h-7.2v-3.3h1v2.5H166.6z M165.3,215.9v-3h1v7.8h-1v-4.1h-3v-0.8H165.3z"/>
									<path class="st7" d="M171.9,220c1,0,2.2-0.1,3.5-0.3l0.1,0.9c-1.5,0.3-2.7,0.3-3.8,0.3h-0.7v-6.7h1V220z M179.5,212.9v10.7
										h-0.9v-5.6H177v5h-0.9v-10h0.9v4.1h1.5v-4.4H179.5z"/>
									<path class="st7" d="M190.7,218.2v0.8H181v-0.8h2.4v-1.5c-0.9-0.3-1.3-0.9-1.3-1.6c0-1.3,1.5-2,3.8-2c2.3,0,3.8,0.7,3.8,2
										c0,0.7-0.5,1.3-1.3,1.6v1.5H190.7z M189.5,221.7c0,1.2-1.4,1.9-3.7,1.9c-2.3,0-3.7-0.7-3.7-1.9s1.4-1.9,3.7-1.9
										C188.2,219.8,189.5,220.5,189.5,221.7z M185.9,216.3c1.7,0,2.8-0.5,2.8-1.2c0-0.8-1.1-1.2-2.8-1.2c-1.7,0-2.8,0.5-2.8,1.2
										C183.1,215.8,184.1,216.3,185.9,216.3z M188.5,221.7c0-0.7-1-1.2-2.7-1.2c-1.7,0-2.7,0.4-2.7,1.2s1,1.2,2.7,1.2
										C187.5,222.9,188.5,222.5,188.5,221.7z M184.4,218.2h3V217c-0.4,0.1-0.9,0.1-1.5,0.1c-0.5,0-1,0-1.5-0.1V218.2z"/>
									<path class="st7" d="M201.4,217.5v0.8h-9.7v-0.8H201.4z M192.7,214.9c0-1.2,1.4-1.9,3.8-1.9c2.4,0,3.8,0.7,3.8,1.9
										c0,1.2-1.4,1.9-3.8,1.9C194.1,216.8,192.7,216.1,192.7,214.9z M193.8,222.8h6.6v0.8h-7.6v-2.6h6.3v-1h-6.3v-0.7h7.3v2.4
										h-6.3V222.8z M193.7,214.9c0,0.7,1,1.1,2.8,1.1c1.8,0,2.8-0.4,2.8-1.1s-1-1.1-2.8-1.1C194.7,213.8,193.7,214.2,193.7,214.9
										z"/>
									<path class="st7" d="M209.1,213.8h1v7.3h-5v-7.3h1v2.8h3.1V213.8z M209.1,217.4H206v2.8h3.1V217.4z M214.6,217.9h-1.8v5.7
										h-1v-10.7h1v4.2h1.8V217.9z"/>
									<path class="st7" d="M221.4,218.5c-1.5,0.3-2.7,0.3-4.9,0.3h-0.8v-5.1h4.9v0.8h-3.9v1.4h3.7v0.8h-3.7v1.4
										c2.1,0,3.2-0.1,4.6-0.3L221.4,218.5z M223.7,221.7c0,1.2-1.3,1.9-3.5,1.9c-2.2,0-3.5-0.7-3.5-1.9c0-1.2,1.3-1.9,3.5-1.9
										C222.4,219.8,223.7,220.5,223.7,221.7z M222.7,221.7c0-0.7-1-1.2-2.6-1.2c-1.6,0-2.6,0.4-2.6,1.2c0,0.7,1,1.2,2.6,1.2
										C221.8,222.9,222.7,222.4,222.7,221.7z M225.2,215.7v0.8h-1.6v3h-1v-6.6h1v2.8H225.2z"/>
									<path class="st7" d="M235.6,221.4v0.8h-9.8v-0.8H235.6z M234.6,216.5c0,1.8-1.7,3-3.9,3c-2.2,0-3.9-1.2-3.9-3
										c0-1.8,1.7-3,3.9-3C233,213.6,234.6,214.7,234.6,216.5z M227.8,216.5c0,1.3,1.3,2.2,3,2.2c1.7,0,3-0.9,3-2.2
										c0-1.3-1.3-2.2-3-2.2C229,214.4,227.8,215.2,227.8,216.5z"/>
									<path class="st7" d="M246.3,221.5v0.8h-9.8v-0.8h4.4v-2h-3.2v-3.3h6.4v-1.7h-6.4v-0.8h7.4v3.3h-6.4v1.7h6.6v0.8h-3.4v2
										H246.3z"/>
									<path class="st7" d="M259.2,219.8h-4.4v3.8h-1v-3.8h-4.3V219h9.7L259.2,219.8z M250,217.3c1.9-0.3,3.7-1.5,3.7-2.9v-0.1
										h-3.4v-0.8h7.9v0.8h-3.4v0.1c0,1.4,1.9,2.7,3.8,2.9l-0.4,0.8c-1.7-0.3-3.3-1.2-3.9-2.5c-0.7,1.3-2.2,2.2-3.9,2.5L250,217.3
										z"/>
									<path class="st7" d="M269.9,221.4v0.8h-9.8v-0.8h2.4v-2.9c-0.9-0.5-1.4-1.2-1.4-2.2c0-1.7,1.6-2.8,3.9-2.8
										c2.3,0,3.9,1.1,3.9,2.8c0,1-0.5,1.7-1.4,2.2v2.9H269.9z M262,216.3c0,1.2,1.2,2,3,2s3-0.8,3-2s-1.2-2-3-2
										S262,215.1,262,216.3z M263.5,221.4h3v-2.5c-0.5,0.1-1,0.2-1.5,0.2c-0.5,0-1-0.1-1.5-0.2V221.4z"/>
									<path class="st7" d="M274.5,220.2c1.9,0,3.2-0.1,4.8-0.3l0.1,0.8c-1.7,0.3-3,0.4-5.1,0.4h-0.8v-7.2h5v0.8h-4v2.2h3.8v0.8
										h-3.8V220.2z M283.1,218h-1.8v5.6h-1v-10.7h1v4.3h1.8V218z"/>
									<path class="st7" d="M287.8,216.8c-0.6,1.2-1.8,2.3-3.5,3l-0.5-0.7c1.6-0.7,2.6-1.5,3.1-2.6l-3,0.3l-0.2-0.8l3.5-0.2
										c0.1-0.4,0.2-0.8,0.2-1.2h-3.2v-0.8h4.2c0,0.8-0.1,1.5-0.3,2.2h1.6v-3h0.9v6.2h-0.9v-2.4H287.8z M289.7,219.9
										c0,1.4,1.8,2.6,3.7,2.9l-0.4,0.8c-1.6-0.3-3.1-1.1-3.8-2.3c-0.7,1.2-2.1,2.1-3.8,2.3l-0.4-0.8c1.9-0.3,3.7-1.5,3.7-2.9
										v-0.3h1V219.9z M292.8,220.2h-0.9v-7.3h0.9V220.2z"/>
									<path class="st7" d="M304,218.4v0.8h-9.7v-0.8H304z M294.9,216.9c2-0.2,3.7-1,3.8-2.2h-3.3v-0.8h3.4v-1.1h1v1.1h3.4v0.8
										h-3.3c0.1,1.2,1.7,2,3.8,2.2l-0.3,0.8c-1.8-0.2-3.3-0.8-4-1.9c-0.7,1.1-2.2,1.7-4,1.9L294.9,216.9z M302.9,221.8
										c0,1.2-1.4,1.8-3.7,1.8c-2.3,0-3.7-0.6-3.7-1.8c0-1.2,1.4-1.8,3.7-1.8C301.5,220.1,302.9,220.7,302.9,221.8z M301.9,221.8
										c0-0.7-1-1.1-2.7-1.1c-1.7,0-2.7,0.4-2.7,1.1c0,0.7,1,1,2.7,1C300.9,222.9,301.9,222.5,301.9,221.8z"/>
									<path class="st7" d="M314.7,217.5v0.8H305v-0.8H314.7z M306,214.9c0-1.2,1.4-1.9,3.8-1.9c2.4,0,3.8,0.7,3.8,1.9
										c0,1.2-1.4,1.9-3.8,1.9C307.5,216.8,306,216.1,306,214.9z M307.1,222.8h6.6v0.8h-7.6v-2.6h6.3v-1h-6.3v-0.7h7.3v2.4h-6.3
										V222.8z M307,214.9c0,0.7,1,1.1,2.8,1.1c1.8,0,2.8-0.4,2.8-1.1s-1-1.1-2.8-1.1C308.1,213.8,307,214.2,307,214.9z"/>
									<path class="st7" d="M324,218.5c-1.2-0.4-2.2-1.3-2.7-2.4c-0.5,1.2-1.5,2.1-2.7,2.6L318,218c1.6-0.5,2.7-1.9,2.7-3.3v-0.2
										h-2.5v-0.8h5.9v0.8h-2.4v0.2c0,1.4,1.1,2.7,2.7,3.2L324,218.5z M325.8,219.2h1v4.3h-6.9v-4.3h1v1.3h5V219.2z M325.8,221.3
										h-5v1.4h5V221.3z M326.7,212.9v5.8h-1v-5.8H326.7z"/>
									<path class="st7" d="M333.9,218.7v1.2c2,0.1,3.2,0.8,3.2,1.9c0,1.2-1.4,1.9-3.7,1.9c-2.3,0-3.7-0.7-3.7-1.9
										c0-1.1,1.2-1.8,3.2-1.9v-1.2h-4.4v-0.8h9.7v0.8H333.9z M329.1,216.5c1.9-0.2,3.6-1.1,3.7-2.3h-3.3v-0.8h8v0.8H334
										c0.1,1.2,1.8,2.1,3.7,2.3l-0.3,0.8c-1.8-0.2-3.4-1-4-2.2c-0.6,1.2-2.2,2-4,2.2L329.1,216.5z M333.4,220.6
										c-1.7,0-2.7,0.4-2.7,1.1s1,1.1,2.7,1.1c1.7,0,2.7-0.4,2.7-1.1S335.1,220.6,333.4,220.6z"/>
									<path class="st7" d="M345,218.9c-1.2-0.4-2.1-1.3-2.6-2.4c-0.5,1.2-1.4,2.2-2.7,2.7l-0.5-0.8c1.6-0.6,2.7-2,2.7-3.5v-0.4
										h-2.4v-0.8h5.7v0.8h-2.4v0.4c0,1.4,1.1,2.7,2.6,3.3L345,218.9z M340.9,219.9h7.2v3.7h-1v-3h-6.2V219.9z M348,212.9v6.4h-1
										v-2.8H345v-0.8h2.1v-2.8H348z"/>
									<path class="st7" d="M359.6,221.4v0.8h-9.8v-0.8H359.6z M358.6,216.5c0,1.8-1.7,3-3.9,3s-3.9-1.2-3.9-3c0-1.8,1.7-3,3.9-3
										S358.6,214.7,358.6,216.5z M351.7,216.5c0,1.3,1.3,2.2,3,2.2c1.7,0,3-0.9,3-2.2c0-1.3-1.3-2.2-3-2.2
										C353,214.4,351.7,215.2,351.7,216.5z"/>
									<path class="st7" d="M370.2,221.5v0.8h-9.8v-0.8h4.4v-2h-3.2v-3.3h6.4v-1.7h-6.4v-0.8h7.4v3.3h-6.4v1.7h6.6v0.8h-3.4v2
										H370.2z"/>
									<path class="st7" d="M383.1,217.9v0.8h-9.7v-0.8h4v-2.1h1v2.1H383.1z M382,221.7c0,1.2-1.5,2-3.8,2c-2.3,0-3.7-0.7-3.7-2
										c0-1.2,1.5-2,3.7-2C380.5,219.7,382,220.4,382,221.7z M380.9,214.2h-6.4v-0.8h7.3v0.9c0,0.9,0,1.7-0.3,2.8l-1-0.1
										c0.3-1.1,0.3-1.9,0.3-2.7V214.2z M381,221.7c0-0.8-1.1-1.2-2.8-1.2c-1.7,0-2.8,0.5-2.8,1.2c0,0.7,1.1,1.2,2.8,1.2
										C379.9,222.9,381,222.4,381,221.7z"/>
									<path class="st7" d="M390.5,218.5c-1.7,0.3-3.1,0.4-5.1,0.4h-0.9v-3.1h3.8v-1.4h-3.9v-0.8h4.8v3h-3.8v1.5
										c1.9,0,3.3-0.1,4.9-0.4L390.5,218.5z M385.4,220h7v3.6h-1v-2.8h-6V220z M392.4,215.4v1.4h1.6v0.8h-1.6v1.8h-1v-6.5h1v1.7
										h1.6v0.8H392.4z"/>
									<path class="st7" d="M398.3,214.6h2.7v0.8h-6.3v-0.8h2.7V213h1V214.6z M400.5,218.8c0,1.5-1.1,2.5-2.6,2.5
										c-1.5,0-2.6-1-2.6-2.5c0-1.5,1.1-2.5,2.6-2.5C399.4,216.3,400.5,217.3,400.5,218.8z M399.5,218.8c0-1-0.7-1.7-1.7-1.7
										c-1,0-1.7,0.7-1.7,1.7c0,1,0.7,1.7,1.7,1.7C398.8,220.4,399.5,219.7,399.5,218.8z M404.7,218.1H403v5.5h-1v-10.7h1v4.4h1.8
										V218.1z"/>
									<path class="st7" d="M415.1,218.4v0.8h-9.8v-0.8H415.1z M407.6,222.6h6.5v0.8h-7.4v-3.1h1V222.6z M414,216.9h-7.3v-3.6h1
										v2.8h6.3V216.9z"/>
									<path class="st7" d="M423.7,218.5h-5v-5h1v1.6h3v-1.6h1V218.5z M426.7,221.6c0,1.3-1.4,2-3.5,2c-2.2,0-3.5-0.7-3.5-2
										s1.4-2,3.5-2C425.4,219.6,426.7,220.4,426.7,221.6z M422.7,216h-3v1.8h3V216z M425.8,221.6c0-0.8-1-1.2-2.6-1.2
										c-1.6,0-2.6,0.4-2.6,1.2s1,1.2,2.6,1.2C424.8,222.9,425.8,222.4,425.8,221.6z M428.2,215.6v0.8h-1.6v3h-1v-6.5h1v2.7H428.2
										z"/>
									<path class="st7" d="M431.9,218.9c-1.6,0-2.8-1.1-2.8-2.7c0-1.6,1.2-2.7,2.8-2.7c1.6,0,2.8,1.1,2.8,2.7
										C434.7,217.8,433.5,218.9,431.9,218.9z M431.9,218.1c1.1,0,1.8-0.7,1.8-1.8c0-1.1-0.8-1.8-1.8-1.8c-1.1,0-1.8,0.7-1.8,1.8
										C430.1,217.3,430.9,218.1,431.9,218.1z M431.6,222.6h6.2v0.8h-7.2V220h1V222.6z M438.9,216.2v0.8h-1.6v3.8h-1v-7.9h1v3.3
										H438.9z"/>
									<path class="st7" d="M449.3,221.4v0.8h-9.8v-0.8H449.3z M448.3,216.5c0,1.8-1.7,3-3.9,3s-3.9-1.2-3.9-3c0-1.8,1.7-3,3.9-3
										S448.3,214.7,448.3,216.5z M441.4,216.5c0,1.3,1.3,2.2,3,2.2c1.7,0,3-0.9,3-2.2c0-1.3-1.3-2.2-3-2.2
										C442.7,214.4,441.4,215.2,441.4,216.5z"/>
									<path class="st7" d="M460,221.5v0.8h-9.8v-0.8h4.4v-2h-3.2v-3.3h6.4v-1.7h-6.4v-0.8h7.4v3.3h-6.4v1.7h6.6v0.8h-3.4v2H460z"
										/>
									<path class="st7" d="M472.9,221.4v0.8h-9.8v-0.8H472.9z M465.7,214.8H464V214h8v0.8h-1.7v3.7h1.6v0.8H464v-0.8h1.6V214.8z
										 M469.3,214.8h-2.7v3.7h2.7V214.8z"/>
									<path class="st7" d="M483.6,221.5v0.8h-9.8v-0.8h4.4v-2H475v-3.3h6.4v-1.7H475v-0.8h7.4v3.3H476v1.7h6.6v0.8h-3.4v2H483.6z
										"/>
								</g>
								<g class="st4">
									<path class="st7" d="M73.5,239.4v0.8h-9.8v-0.8h4.4v-2.6h-3.2v-5h7.4v5h-3.2v2.6H73.5z M65.8,236.1h5.5v-3.5h-5.5V236.1z"
										/>
									<path class="st7" d="M80.1,237.3c-1.2-0.5-2.1-1.5-2.5-2.7c-0.4,1.3-1.4,2.3-2.7,2.8l-0.5-0.8c1.6-0.6,2.7-2.2,2.7-3.8
										v-1.4h1v1.4c0,1.6,1,3.1,2.6,3.7L80.1,237.3z M83.5,240.6v0.8h-7.2v-3.3h1v2.5H83.5z M82.2,235.5h-2.2v-0.8h2.2v-1.4h-2.2
										v-0.8h2.2v-1.6h1v8h-1V235.5z"/>
									<path class="st7" d="M93.4,237.2c-1.2-0.4-2.2-1.3-2.7-2.4c-0.5,1.2-1.5,2.2-2.7,2.7l-0.5-0.8c1.6-0.6,2.7-2,2.7-3.5v-0.6
										h-2.5v-0.8h5.9v0.8h-2.4v0.6c0,1.5,1.1,2.8,2.7,3.3L93.4,237.2z M96.4,240.6v0.8h-7.2V238h1v2.6H96.4z M96.1,238.8h-1v-7.9
										h1V238.8z"/>
									<path class="st7" d="M103.3,232.9h-5.5v-0.8h2.3V231h1v1.2h2.2V232.9z M100.6,237.2c-1.4,0-2.3-0.7-2.3-1.8
										c0-1.1,0.9-1.8,2.3-1.8c1.4,0,2.3,0.7,2.3,1.8C102.9,236.5,102,237.2,100.6,237.2z M100.6,236.5c0.8,0,1.4-0.4,1.4-1.1
										c0-0.7-0.6-1.1-1.4-1.1c-0.9,0-1.4,0.4-1.4,1.1C99.2,236,99.8,236.5,100.6,236.5z M107.1,239.8c0,1.2-1.4,1.9-3.6,1.9
										s-3.6-0.7-3.6-1.9c0-1.2,1.4-1.9,3.6-1.9S107.1,238.5,107.1,239.8z M106.1,239.8c0-0.7-1-1.1-2.6-1.1
										c-1.6,0-2.6,0.4-2.6,1.1c0,0.7,1,1.1,2.6,1.1C105.1,240.9,106.1,240.5,106.1,239.8z M104.7,237.3h-0.9v-6.2h0.9v2.7h1.4
										v-2.9h0.9v6.8h-0.9v-3.1h-1.4V237.3z"/>
									<path class="st7" d="M115,232.6h-6.3v-0.8h2.7v-1.1h1v1.1h2.7V232.6z M111.8,236.6c-1.5,0-2.6-0.7-2.6-1.8s1-1.8,2.6-1.8
										c1.6,0,2.6,0.7,2.6,1.8S113.3,236.6,111.8,236.6z M111.1,240.8h6.2v0.8h-7.2V239h5.8v-0.9h-5.9v-0.7h6.8v2.4h-5.8V240.8z
										 M111.8,235.9c1,0,1.6-0.4,1.6-1s-0.6-1-1.6-1s-1.6,0.4-1.6,1S110.8,235.9,111.8,235.9z M118.5,233.4v0.8h-1.6v2.5h-1v-5.9
										h1v2.6H118.5z"/>
									<path class="st7" d="M127.6,231.1h0.9v10h-0.9v-3.5h-1.7c-0.4,1.1-1.1,1.7-2,1.7c-1.4,0-2.3-1.4-2.3-3.8
										c0-2.3,0.9-3.7,2.3-3.7c0.9,0,1.6,0.6,2,1.7h1.7V231.1z M125.3,235.5c0-1.7-0.5-2.8-1.4-2.8c-0.9,0-1.4,1.1-1.4,2.8
										c0,1.8,0.6,2.8,1.4,2.8C124.8,238.4,125.3,237.3,125.3,235.5z M127.6,236.8v-2.5h-1.5c0.1,0.4,0.1,0.8,0.1,1.2
										c0,0.5,0,0.9-0.1,1.2H127.6z M130.7,230.9v10.8h-0.9v-10.8H130.7z"/>
									<path class="st7" d="M138,236.9c-1.2-0.4-2.1-1.3-2.6-2.4c-0.5,1.2-1.5,2.3-2.7,2.7l-0.5-0.8c1.6-0.6,2.7-2,2.7-3.6v-0.4
										h-2.4v-0.8h5.7v0.8h-2.4v0.4c0,1.4,1.1,2.7,2.6,3.3L138,236.9z M141.1,239.6c0,1.3-1.4,2-3.6,2s-3.6-0.7-3.6-2s1.4-2,3.6-2
										S141.1,238.4,141.1,239.6z M140.1,239.6c0-0.8-1-1.2-2.6-1.2s-2.6,0.5-2.6,1.2s1,1.2,2.6,1.2S140.1,240.4,140.1,239.6z
										 M140,233.7v-2.8h1v6.4h-1v-2.8h-2.1v-0.8H140z"/>
									<path class="st7" d="M148.7,233.9c0,1.5-1.2,2.5-2.8,2.5c-1.6,0-2.8-1-2.8-2.5c0-1.5,1.2-2.5,2.8-2.5
										C147.5,231.4,148.7,232.4,148.7,233.9z M144,233.9c0,1,0.8,1.7,1.8,1.7c1.1,0,1.9-0.7,1.9-1.7c0-1-0.8-1.7-1.9-1.7
										C144.8,232.2,144,232.9,144,233.9z M145.7,237.2v1.3h5v-1.3h1v4.3h-6.9v-4.3H145.7z M145.7,240.7h5v-1.4h-5V240.7z
										 M151.6,230.9v5.8h-1v-5.8H151.6z"/>
									<path class="st7" d="M155.1,238c1.6,0,3.3-0.1,5.1-0.5l0.1,0.8c-1.9,0.4-3.6,0.5-5.3,0.5h-0.9v-6.9h1V238z M162.3,230.9
										v10.7h-1v-10.7H162.3z"/>
									<path class="st7" d="M165.5,238.1c1.9,0,3.3-0.1,4.8-0.4l0.1,0.8c-1.6,0.3-3.1,0.4-5.1,0.4h-0.9v-7.1h5v0.8h-4V238.1z
										 M174.1,235.9h-1.8v5.7h-1v-10.8h1v4.2h1.8V235.9z"/>
									<path class="st7" d="M175,240.1c0-0.5,0.4-0.9,0.8-0.9s0.8,0.4,0.8,0.9c0,0.5-0.4,0.8-0.8,0.8S175,240.6,175,240.1z"/>
								</g>
								<g class="st4">
									<path class="st9" d="M48.8,131c0,3-2.1,5.1-5.6,6l-0.4-0.8c2.8-0.7,4.6-2.3,4.8-4.3h-4.2V131H48.8z M44.7,137.5h7.5v4.3
										h-7.5V137.5z M45.8,140.9h5.4v-2.6h-5.4V140.9z M52.3,130.3v6.6h-1.1v-6.6H52.3z"/>
									<path class="st9" d="M55.1,131.5h5.3v7.5h-5.3V131.5z M56.2,138.1h3.3v-5.8h-3.3V138.1z M65.5,135.9h-1.9v6.1h-1.1v-11.6
										h1.1v4.6h1.9V135.9z"/>
									<path class="st9" d="M69.9,136.9c-1.7,0-3-1.2-3-2.9c0-1.7,1.3-2.9,3-2.9c1.7,0,3.1,1.2,3.1,2.9
										C73,135.7,71.7,136.9,69.9,136.9z M69.9,135.9c1.2,0,2-0.8,2-2c0-1.1-0.9-1.9-2-1.9c-1.1,0-2,0.8-2,1.9
										C67.9,135.1,68.8,135.9,69.9,135.9z M76.5,140.8v0.9h-7.9V138h1.1v2.9H76.5z M76.2,138.8h-1.1v-8.5h1.1V138.8z"/>
								</g>
								<g class="st4">
									<path class="st9" d="M83.5,138.3c0-2.5,0.9-3.8,2.3-3.8c1.4,0,2.3,1.2,2.3,3.8c0,2.5-0.9,3.8-2.3,3.8
										C84.4,142.1,83.5,140.9,83.5,138.3z M87.2,138.3c0-2.1-0.6-3-1.4-3c-0.8,0-1.4,0.9-1.4,3c0,2.2,0.6,3.1,1.4,3.1
										C86.6,141.4,87.2,140.5,87.2,138.3z"/>
									<path class="st9" d="M88.8,141.2l0.4-0.6c0.4,0.4,0.9,0.8,1.8,0.8c0.9,0,1.6-0.7,1.6-1.7c0-1-0.6-1.7-1.5-1.7
										c-0.5,0-0.8,0.1-1.2,0.4l-0.5-0.3l0.2-3.4h3.6v0.8h-2.8l-0.2,2.1c0.3-0.2,0.6-0.3,1.1-0.3c1.2,0,2.2,0.7,2.2,2.3
										s-1.2,2.5-2.4,2.5C90,142.1,89.3,141.7,88.8,141.2z"/>
									<path class="st9" d="M94.8,137.4c0-0.4,0.3-0.7,0.7-0.7s0.7,0.3,0.7,0.7c0,0.4-0.3,0.7-0.7,0.7S94.8,137.8,94.8,137.4z
										 M94.8,141.4c0-0.4,0.3-0.7,0.7-0.7s0.7,0.3,0.7,0.7c0,0.4-0.3,0.7-0.7,0.7S94.8,141.8,94.8,141.4z"/>
									<path class="st9" d="M97.3,141.5c2.3-2,3.4-3.5,3.4-4.7c0-0.8-0.4-1.4-1.3-1.4c-0.6,0-1.1,0.4-1.5,0.8l-0.5-0.5
										c0.6-0.6,1.2-1.1,2.2-1.1c1.3,0,2.1,0.9,2.1,2.2c0,1.5-1.1,2.9-2.9,4.6c0.4,0,0.8-0.1,1.2-0.1h2v0.8h-4.6V141.5z"/>
									<path class="st9" d="M103.3,141.2h1.6v-5.5h-1.3v-0.6c0.6-0.1,1.1-0.3,1.5-0.5h0.7v6.6h1.5v0.8h-4V141.2z"/>
								</g>
								<g class="st4">
									<path class="st9" d="M84.5,273.3c0-2.5,0.9-3.8,2.3-3.8c1.4,0,2.3,1.2,2.3,3.8c0,2.5-0.9,3.8-2.3,3.8
										C85.4,277.1,84.5,275.9,84.5,273.3z M88.2,273.3c0-2.1-0.6-3-1.4-3c-0.8,0-1.4,0.9-1.4,3c0,2.2,0.6,3.1,1.4,3.1
										C87.6,276.4,88.2,275.5,88.2,273.3z"/>
									<path class="st9" d="M93.6,270.5H90v-0.8h4.6v0.5c-1.7,2.2-2,3.9-2.1,6.8h-0.9C91.6,274.2,92.2,272.5,93.6,270.5z"/>
									<path class="st9" d="M95.8,272.4c0-0.4,0.3-0.7,0.7-0.7s0.7,0.3,0.7,0.7c0,0.4-0.3,0.7-0.7,0.7S95.8,272.8,95.8,272.4z
										 M95.8,276.4c0-0.4,0.3-0.7,0.7-0.7s0.7,0.3,0.7,0.7c0,0.4-0.3,0.7-0.7,0.7S95.8,276.8,95.8,276.4z"/>
									<path class="st9" d="M98.4,273.3c0-2.5,0.9-3.8,2.3-3.8c1.4,0,2.3,1.2,2.3,3.8c0,2.5-0.9,3.8-2.3,3.8
										C99.3,277.1,98.4,275.9,98.4,273.3z M102,273.3c0-2.1-0.6-3-1.4-3c-0.8,0-1.4,0.9-1.4,3c0,2.2,0.6,3.1,1.4,3.1
										C101.5,276.4,102,275.5,102,273.3z"/>
									<path class="st9" d="M104.3,276.2h1.6v-5.5h-1.3v-0.6c0.6-0.1,1.1-0.3,1.5-0.5h0.7v6.6h1.5v0.8h-4V276.2z"/>
								</g>
								<g class="st4">
									<path class="st9" d="M413.8,189.8c0-2.5,0.9-3.8,2.3-3.8c1.4,0,2.3,1.2,2.3,3.8c0,2.5-0.9,3.8-2.3,3.8
										C414.7,193.6,413.8,192.3,413.8,189.8z M417.5,189.8c0-2.1-0.6-3-1.4-3c-0.8,0-1.4,0.9-1.4,3c0,2.2,0.6,3.1,1.4,3.1
										C416.9,192.9,417.5,192,417.5,189.8z"/>
									<path class="st9" d="M423.3,187.3c-0.3-0.3-0.7-0.6-1.2-0.6c-1,0-1.8,0.8-1.9,3c0.4-0.5,1.1-0.9,1.7-0.9c1.2,0,2,0.8,2,2.3
										c0,1.4-1,2.4-2.1,2.4c-1.4,0-2.4-1.2-2.4-3.6c0-2.9,1.3-4,2.7-4c0.8,0,1.3,0.3,1.7,0.7L423.3,187.3z M423.1,191.2
										c0-1-0.4-1.6-1.3-1.6c-0.5,0-1,0.3-1.5,0.9c0.1,1.5,0.7,2.3,1.6,2.3C422.6,192.9,423.1,192.2,423.1,191.2z"/>
									<path class="st9" d="M425.1,188.9c0-0.4,0.3-0.7,0.7-0.7c0.4,0,0.7,0.3,0.7,0.7c0,0.4-0.3,0.7-0.7,0.7
										C425.4,189.6,425.1,189.3,425.1,188.9z M425.1,192.9c0-0.4,0.3-0.7,0.7-0.7c0.4,0,0.7,0.3,0.7,0.7c0,0.4-0.3,0.7-0.7,0.7
										C425.4,193.6,425.1,193.3,425.1,192.9z"/>
									<path class="st9" d="M427.6,192.9c2.3-2,3.4-3.5,3.4-4.7c0-0.8-0.4-1.4-1.3-1.4c-0.6,0-1.1,0.4-1.5,0.8l-0.5-0.5
										c0.6-0.6,1.2-1.1,2.2-1.1c1.3,0,2.1,0.9,2.1,2.2c0,1.5-1.1,2.9-2.9,4.6c0.4,0,0.8-0.1,1.2-0.1h2v0.8h-4.6V192.9z"/>
									<path class="st9" d="M433.2,192.9c2.3-2,3.4-3.5,3.4-4.7c0-0.8-0.4-1.4-1.3-1.4c-0.6,0-1.1,0.4-1.5,0.8l-0.5-0.5
										c0.6-0.6,1.2-1.1,2.2-1.1c1.3,0,2.1,0.9,2.1,2.2c0,1.5-1.1,2.9-2.9,4.6c0.4,0,0.8-0.1,1.2-0.1h2v0.8h-4.6V192.9z"/>
								</g>
								<g class="st4">
									<path class="st9" d="M49,270.3c0,2.5-1.2,4.1-3,4.1s-3-1.6-3-4.1s1.2-4.1,3-4.1S49,267.8,49,270.3z M44.1,270.3
										c0,1.9,0.8,3.1,2,3.1c1.1,0,1.9-1.2,1.9-3.1c0-1.9-0.8-3.1-1.9-3.1C44.9,267.2,44.1,268.4,44.1,270.3z M52.2,265.3V277
										h-1.1v-11.7H52.2z"/>
									<path class="st9" d="M58,271.9c-1.7,0-3-1.2-3-2.9c0-1.7,1.3-2.9,3-2.9c1.7,0,3.1,1.2,3.1,2.9
										C61,270.7,59.7,271.9,58,271.9z M58,270.9c1.2,0,2-0.8,2-2c0-1.1-0.9-1.9-2-1.9c-1.1,0-2,0.8-2,1.9
										C56,270.1,56.8,270.9,58,270.9z M64.6,275.8v0.9h-7.9V273h1.1v2.9H64.6z M64.2,273.8h-1.1v-8.5h1.1V273.8z"/>
									<path class="st9" d="M77.1,270.7v0.9H66.6v-0.9h4.3v-2.2H72v2.2H77.1z M75.9,274.8c0,1.3-1.6,2.1-4.1,2.1
										c-2.5,0-4.1-0.8-4.1-2.1c0-1.4,1.6-2.1,4.1-2.1C74.3,272.7,75.9,273.5,75.9,274.8z M74.8,266.8h-6.9v-0.9h7.9v1
										c0,0.9,0,1.9-0.3,3.1l-1-0.1c0.3-1.2,0.3-2.1,0.3-3V266.8z M74.8,274.8c0-0.8-1.2-1.3-3-1.3c-1.8,0-3,0.5-3,1.3
										c0,0.8,1.2,1.3,3,1.3C73.7,276.1,74.8,275.6,74.8,274.8z"/>
								</g>
								<g class="st4">
									<path class="st9" d="M471.4,191.1c1.1-0.1,2.2-0.1,3.3-0.3l0.1,0.8c-2.6,0.5-5.5,0.5-7.6,0.5l-0.1-0.9c1,0,2.1,0,3.3,0
										v-2.2h1.1V191.1z M467.4,188.5c1.7-0.5,2.9-1.8,2.9-3.3h-2.7v-0.9h2.7v-1.4h1.1v1.4h2.7v0.9h-2.7c0,1.5,1.2,2.7,3,3.2
										l-0.5,0.8c-1.4-0.4-2.4-1.3-3-2.5c-0.5,1.2-1.6,2.1-3,2.6L467.4,188.5z M476.5,182.8v11.7h-1.1v-11.7H476.5z"/>
									<path class="st9" d="M479.4,184h5.3v7.5h-5.3V184z M480.5,190.6h3.3v-5.8h-3.3V190.6z M489.8,188.3h-1.9v6.1h-1.1v-11.6
										h1.1v4.6h1.9V188.3z"/>
									<path class="st9" d="M501.4,188.5v0.9h-10.5v-0.9H501.4z M500.3,185.3c0,1.4-1.6,2.2-4.1,2.2s-4.1-0.8-4.1-2.2
										c0-1.4,1.6-2.2,4.1-2.2S500.3,183.9,500.3,185.3z M500.2,190.5v3.8h-8v-3.8H500.2z M493.2,185.3c0,0.9,1.2,1.4,3,1.4
										s3-0.5,3-1.4c0-0.9-1.2-1.4-3-1.4S493.2,184.4,493.2,185.3z M493.2,191.3v2.1h5.9v-2.1H493.2z"/>
								</g>
								<g class="st4">
									<path class="st10" d="M177.6,23.3c3-2.6,4.4-4.5,4.4-6.1c0-1.1-0.6-1.9-1.8-1.9c-0.8,0-1.5,0.5-2,1.1l-0.7-0.7
										c0.8-0.8,1.6-1.4,2.8-1.4c1.7,0,2.8,1.1,2.8,2.8c0,1.9-1.5,3.8-3.7,6c0.5,0,1.1-0.1,1.6-0.1h2.6v1h-6V23.3z"/>
									<path class="st10" d="M188.3,13.7h0.9l-3.9,12.6h-0.9L188.3,13.7z"/>
									<path class="st10" d="M190.5,23h2.1v-7.1h-1.7v-0.8c0.8-0.2,1.5-0.4,2-0.7h0.9V23h1.9v1h-5.2V23z"/>
									<path class="st10" d="M196.9,22.9l0.6-0.8c0.6,0.6,1.3,1.1,2.4,1.1c1.1,0,1.9-0.7,1.9-1.8c0-1.1-0.8-1.9-3-1.9v-0.9
										c2,0,2.6-0.8,2.6-1.8c0-0.9-0.6-1.5-1.6-1.5c-0.8,0-1.4,0.4-2,0.9l-0.6-0.8c0.7-0.7,1.6-1.1,2.7-1.1c1.6,0,2.8,0.9,2.8,2.4
										c0,1.2-0.7,1.9-1.7,2.3V19c1.1,0.3,2,1.1,2,2.4c0,1.7-1.4,2.7-3.1,2.7C198.5,24.2,197.5,23.5,196.9,22.9z"/>
									<path class="st10" d="M217.9,19.2v0.9h-10.6v-0.9h4.8v-1.5h-3.4v-4h7.8v4h-3.4v1.5H217.9z M208.5,21.3h8.1V25h-1.1v-2.8h-7
										V21.3z M209.7,16.9h5.7v-2.3h-5.7V16.9z"/>
									<path class="st10" d="M232.8,22.6v0.9h-10.6v-0.9h4.7v-2.4c-2.2-0.2-3.7-1.3-3.7-3c0-1.9,1.8-3.1,4.3-3.1
										c2.5,0,4.2,1.2,4.2,3.1c0,1.7-1.5,2.9-3.7,3v2.4H232.8z M227.5,19.3c1.9,0,3.2-0.9,3.2-2.2c0-1.3-1.4-2.2-3.2-2.2
										s-3.2,0.9-3.2,2.2C224.3,18.5,225.6,19.3,227.5,19.3z"/>
									<path class="st10" d="M244.7,21.7H240V25h-1.1v-3.2h-4.7v-0.9h10.6V21.7z M244.1,15.5h-9.4v-0.9h4.2v-1.4h1.1v1.4h4.1V15.5
										z M239.5,16.2c2.4,0,3.8,0.7,3.8,1.9s-1.4,1.9-3.8,1.9c-2.4,0-3.8-0.7-3.8-1.9S237.1,16.2,239.5,16.2z M239.5,17
										c-1.7,0-2.7,0.4-2.7,1.1c0,0.7,1,1.1,2.7,1.1s2.7-0.4,2.7-1.1C242.1,17.4,241.2,17,239.5,17z"/>
									<path class="st10" d="M248.7,22.9l0.6-0.8c0.5,0.5,1.2,1.1,2.3,1.1c1.1,0,2-0.9,2-2.2c0-1.4-0.8-2.2-2-2.2
										c-0.6,0-1,0.2-1.6,0.6l-0.6-0.4l0.3-4.5h4.6v1h-3.6l-0.2,2.8c0.4-0.2,0.8-0.4,1.4-0.4c1.6,0,2.9,0.9,2.9,3
										c0,2.1-1.5,3.3-3.1,3.3C250.3,24.2,249.4,23.5,248.7,22.9z"/>
									<path class="st10" d="M256.5,18c0-0.5,0.4-0.9,0.9-0.9c0.5,0,0.9,0.4,0.9,0.9c0,0.5-0.4,0.9-0.9,0.9
										C256.9,18.9,256.5,18.6,256.5,18z M256.5,23.3c0-0.5,0.4-0.9,0.9-0.9c0.5,0,0.9,0.4,0.9,0.9c0,0.5-0.4,0.9-0.9,0.9
										C256.9,24.2,256.5,23.8,256.5,23.3z"/>
									<path class="st10" d="M259.8,19.2c0-3.3,1.2-4.9,3-4.9c1.8,0,3,1.6,3,4.9c0,3.3-1.2,5-3,5C261,24.2,259.8,22.5,259.8,19.2z
										 M264.6,19.2c0-2.8-0.7-4-1.8-4c-1.1,0-1.8,1.2-1.8,4c0,2.8,0.7,4,1.8,4C263.9,23.2,264.6,22,264.6,19.2z"/>
									<path class="st10" d="M267,19.2c0-3.3,1.2-4.9,3-4.9c1.8,0,3,1.6,3,4.9c0,3.3-1.2,5-3,5C268.2,24.2,267,22.5,267,19.2z
										 M271.8,19.2c0-2.8-0.7-4-1.8-4c-1.1,0-1.8,1.2-1.8,4c0,2.8,0.7,4,1.8,4C271.1,23.2,271.8,22,271.8,19.2z"/>
									<path class="st10" d="M277.1,19.9h3.3v0.9h-3.3V19.9z"/>
									<path class="st10" d="M289.8,16c-0.4-0.5-0.9-0.7-1.5-0.7c-1.3,0-2.4,1-2.5,4c0.6-0.7,1.4-1.2,2.2-1.2c1.6,0,2.6,1,2.6,3
										c0,1.8-1.2,3.1-2.7,3.1c-1.8,0-3.2-1.6-3.2-4.7c0-3.7,1.7-5.2,3.5-5.2c1,0,1.7,0.4,2.2,1L289.8,16z M289.5,21.1
										c0-1.3-0.6-2.1-1.7-2.1c-0.6,0-1.3,0.3-2,1.2c0.1,2,0.9,3.1,2.1,3.1C288.8,23.2,289.5,22.4,289.5,21.1z"/>
									<path class="st10" d="M292.1,18c0-0.5,0.4-0.9,0.9-0.9c0.5,0,0.9,0.4,0.9,0.9c0,0.5-0.4,0.9-0.9,0.9
										C292.5,18.9,292.1,18.6,292.1,18z M292.1,23.3c0-0.5,0.4-0.9,0.9-0.9c0.5,0,0.9,0.4,0.9,0.9c0,0.5-0.4,0.9-0.9,0.9
										C292.5,24.2,292.1,23.8,292.1,23.3z"/>
									<path class="st10" d="M295.4,23.3c3-2.6,4.4-4.5,4.4-6.1c0-1.1-0.6-1.9-1.8-1.9c-0.8,0-1.5,0.5-2,1.1l-0.7-0.7
										c0.8-0.8,1.6-1.4,2.8-1.4c1.7,0,2.8,1.1,2.8,2.8c0,1.9-1.5,3.8-3.7,6c0.5,0,1.1-0.1,1.6-0.1h2.6v1h-6V23.3z"/>
									<path class="st10" d="M308.8,21.4h-1.3V24h-1.1v-2.6h-4.1v-0.8l4-6.1h1.3v6h1.3V21.4z M306.4,20.4v-2.9
										c0-0.5,0.1-1.2,0.1-1.7h-0.1c-0.2,0.5-0.5,0.9-0.8,1.4l-2.2,3.2H306.4z"/>
								</g>
								<g id="Group-5" transform="translate(20.000000, 130.000000)">
									<g id="f-comment">
										<path id="Shape" class="st11" d="M16,6.8C16,3.1,12.4,0,8,0S0,3.1,0,6.8s3.6,6.8,8,6.8c0.7,0,1.3-0.1,2-0.2l3.7,1.5
											c0.1,0,0.1,0.1,0.3,0.1s0.3-0.1,0.4-0.1c0.2-0.1,0.3-0.4,0.3-0.6L14.3,11C15.4,9.8,16,8.3,16,6.8z M9.3,8.9H4.7V7.5h4.7
											V8.9z M11.3,6.1H4.7V4.8h6.7V6.1z"/>
									</g>
								</g>
								<g id="Group-5-Copy-2" transform="translate(20.000000, 265.000000)">
									<g id="f-comment_1_">
										<path id="Shape_1_" class="st12" d="M16,6.8C16,3.1,12.4,0,8,0S0,3.1,0,6.8s3.6,6.8,8,6.8c0.7,0,1.3-0.1,2-0.2l3.7,1.5
											c0.1,0,0.1,0.1,0.3,0.1s0.3-0.1,0.4-0.1c0.2-0.1,0.3-0.4,0.3-0.6L14.3,11C15.4,9.8,16,8.3,16,6.8z M9.3,8.9H4.7V7.5h4.7
											V8.9z M11.3,6.1H4.7V4.8h6.7V6.1z"/>
									</g>
								</g>
								<g id="Group-5-Copy" transform="translate(444.000000, 182.000000)">
									<g id="f-comment_2_">
										<path id="Shape_2_" class="st13" d="M16,6.8C16,3.1,12.4,0,8,0S0,3.1,0,6.8s3.6,6.8,8,6.8c0.7,0,1.3-0.1,2-0.2l3.7,1.5
											c0.1,0,0.1,0.1,0.3,0.1s0.3-0.1,0.4-0.1c0.2-0.1,0.3-0.4,0.3-0.6L14.3,11C15.4,9.8,16,8.3,16,6.8z M9.3,8.9H4.7V7.5h4.7
											V8.9z M11.3,6.1H4.7V4.8h6.7V6.1z"/>
									</g>
								</g>
							</g>
							<g id="Group-90" transform="translate(503.000000, 0.000000)">
								<g id="mobile">
									<g id="Group-2-Copy">
										<g id="Rectangle_3_">
											<g class="st14">
												<rect id="path-3_2_" class="st1" width="208" height="352"/>
											</g>
											<g>
												<rect id="path-3_1_" class="st2" width="208" height="352"/>
											</g>
										</g>
										<rect id="Rectangle_4_" x="4" y="5" class="st3" width="204" height="345"/>
									</g>
									<path id="Rectangle_5_" class="st15" d="M17,7h175c5.5,0,10,4.5,10,10v309c0,5.5-4.5,10-10,10H17c-5.5,0-10-4.5-10-10V17
										C7,11.5,11.5,7,17,7z"/>
									<g id="Group-18" transform="translate(32.000000, 283.000000)">
										<path id="Rectangle_6_" class="st16" d="M15,0h13c8.3,0,15,6.7,15,15v3c0,8.3-6.7,15-15,15H15C6.7,33,0,26.3,0,18v-3
											C0,6.7,6.7,0,15,0z"/>
										<g id="Group-17" transform="translate(16.000000, 9.000000)">
											<path id="Rectangle_7_" class="st3" d="M2.3,0L2.3,0c1.3,0,2.3,1,2.3,2.3v10.6c0,1.3-1,2.3-2.3,2.3l0,0
												c-1.3,0-2.3-1-2.3-2.3V2.3C0,1,1,0,2.3,0z"/>
											<path id="Rectangle-Copy-6" class="st3" d="M8.9,0L8.9,0c1.3,0,2.3,1,2.3,2.3v10.6c0,1.3-1,2.3-2.3,2.3h0
												c-1.3,0-2.3-1-2.3-2.3V2.3C6.6,1,7.6,0,8.9,0z"/>
										</g>
									</g>
									<g id="Group-18-Copy" transform="translate(133.000000, 283.000000)">
										<path id="Rectangle_8_" class="st16" d="M15,0h13c8.3,0,15,6.7,15,15v3c0,8.3-6.7,15-15,15H15C6.7,33,0,26.3,0,18v-3
											C0,6.7,6.7,0,15,0z"/>
										<g id="Group-17_1_" transform="translate(14.000000, 9.000000)">
											<path id="Rectangle_9_" class="st3" d="M3.6,0h8c2,0,3.6,1.6,3.6,3.6v8c0,2-1.6,3.6-3.6,3.6h-8c-2,0-3.6-1.6-3.6-3.6v-8
												C0,1.6,1.6,0,3.6,0z"/>
										</g>
									</g>
									<g id="Group-19" transform="translate(58.000000, 84.000000)" class="st17">
										<circle id="Oval" class="st3" cx="46" cy="46" r="46"/>
										<circle id="Oval_1_" class="st3" cx="46.5" cy="46.5" r="40.5"/>
										<circle id="Oval_2_" class="st3" cx="46.5" cy="46.5" r="36.5"/>
									</g>
									<g class="st4">
										<path class="st18" d="M42.4,44.2H44v14.3h-1.6v-7.4h-1.6c-0.2,3-1.4,4.8-3.3,4.8c-2,0-3.3-2.1-3.3-5.5
											c0-3.4,1.3-5.4,3.3-5.4c1.8,0,3.1,1.8,3.3,4.6h1.6V44.2z M39.2,50.6c0-2.4-0.6-3.8-1.7-3.8s-1.7,1.4-1.7,3.8
											s0.6,3.8,1.7,3.8S39.2,53,39.2,50.6z M47.1,44v15.3h-1.7V44H47.1z"/>
										<path class="st18" d="M63.1,55.9v1.4H49.2v-1.4h5.2v-3.9h1.8v3.9H63.1z M59.8,49.1c0-0.8,0-1.6,0-2.3h-9v-1.4h10.7v1.4
											c0,1.9,0,4-0.7,7.2l-1.7-0.2c0.3-1.3,0.4-2.4,0.5-3.4l-9.1,0.5l-0.2-1.5L59.8,49.1z"/>
										<path class="st18" d="M68.4,45.5h7.2v10h-7.2V45.5z M70.1,54.1h3.7v-7.2h-3.7V54.1z M82.1,51.4h-2.4v7.9H78V44h1.8v6h2.4
											V51.4z"/>
										<path class="st18" d="M87.4,52.7c-2.3,0-4.1-1.6-4.1-3.8c0-2.2,1.8-3.8,4.1-3.8s4.1,1.6,4.1,3.8
											C91.5,51,89.7,52.7,87.4,52.7z M87.4,51.1c1.3,0,2.4-0.9,2.4-2.3c0-1.4-1-2.3-2.4-2.3c-1.4,0-2.4,0.9-2.4,2.3
											C85,50.2,86.1,51.1,87.4,51.1z M96.1,57.6V59H85.7v-5h1.8v3.6H96.1z M95.7,55.1h-1.8V44h1.8V55.1z"/>
										<path class="st18" d="M112.2,55.9v1.4H98.3v-1.4H112.2z M98.9,52.1c3-0.5,5.4-2.6,5.4-4.9v-0.4h-4.9v-1.4H111v1.4h-4.9
											v0.4c0,2.3,2.4,4.4,5.5,4.8l-0.7,1.4c-2.5-0.5-4.7-1.9-5.7-3.8c-1,2-3.1,3.4-5.6,3.9L98.9,52.1z"/>
										<path class="st18" d="M122.7,54.5c1.4-0.1,2.8-0.2,4.1-0.4l0.1,1.3c-3.4,0.6-7.1,0.7-9.8,0.7l-0.2-1.4c1.2,0,2.6,0,4-0.1
											v-2.4c-1.9-0.3-3.3-1.7-3.3-3.6c0-2.2,1.8-3.7,4.2-3.7s4.2,1.5,4.2,3.7c0,1.9-1.4,3.3-3.3,3.6V54.5z M121.8,50.8
											c1.4,0,2.5-0.8,2.5-2.2c0-1.3-1-2.2-2.5-2.2c-1.4,0-2.4,0.8-2.4,2.2C119.4,49.9,120.4,50.8,121.8,50.8z M129.5,43.9v15.4
											h-1.8V43.9H129.5z"/>
										<path class="st18" d="M146,54.3h-6.1v5h-1.8v-5h-6v-1.4H146V54.3z M144.3,51.3h-10.5v-6.7h1.8v1.9h7v-1.9h1.8V51.3z
											 M142.5,47.9h-7v2h7V47.9z"/>
										<path class="st18" d="M155.3,45.4v10.1h-7.2V45.4H155.3z M149.8,46.8v7.3h3.8v-7.3H149.8z M159.9,43.9v15.4h-1.8V43.9
											H159.9z"/>
										<path class="st18" d="M172,52.1c-2.2,0.4-4.1,0.4-7.4,0.4h-1.3V45h7.3v1.4h-5.6V48h5.2v1.4h-5.2v1.6c3,0,4.7-0.1,6.7-0.4
											L172,52.1z M175.3,56.5c0,1.8-2,2.9-5.2,2.9c-3.2,0-5.2-1.1-5.2-2.9s2-2.9,5.2-2.9C173.3,53.6,175.3,54.7,175.3,56.5z
											 M173.5,56.5c0-1-1.3-1.5-3.5-1.5c-2.2,0-3.5,0.5-3.5,1.5s1.3,1.5,3.5,1.5C172.2,57.9,173.5,57.4,173.5,56.5z M175.2,53.4
											h-1.8V44h1.8V53.4z"/>
									</g>
									<g class="st4">
										<path class="st18" d="M77.2,190.7c0.8,0,1.6,0.1,2.3,0.4c0.7,0.2,1.2,0.6,1.7,1c0.5,0.4,0.8,0.9,1.1,1.5
											c0.3,0.6,0.4,1.2,0.4,1.8c0,0.6-0.1,1.1-0.2,1.5c-0.1,0.4-0.3,0.8-0.6,1.1c-0.2,0.3-0.5,0.6-0.9,0.8s-0.8,0.4-1.2,0.6
											c1.1,0.3,1.9,0.9,2.4,1.6s0.8,1.6,0.8,2.6c0,0.9-0.2,1.7-0.5,2.4c-0.3,0.7-0.8,1.3-1.3,1.7c-0.6,0.5-1.2,0.8-2,1.1
											c-0.7,0.2-1.5,0.4-2.4,0.4c-0.9,0-1.7-0.1-2.4-0.3s-1.3-0.5-1.8-0.9s-0.9-0.9-1.3-1.5c-0.4-0.6-0.7-1.3-0.9-2.1l1.4-0.6
											c0.2-0.1,0.5-0.1,0.7-0.1c0.2,0,0.4,0,0.6,0.1s0.3,0.2,0.4,0.4c0.2,0.3,0.3,0.6,0.5,0.9c0.2,0.3,0.4,0.5,0.6,0.8
											s0.5,0.4,0.9,0.5c0.3,0.1,0.7,0.2,1.2,0.2c0.5,0,1-0.1,1.4-0.3s0.7-0.4,1-0.7c0.3-0.3,0.5-0.6,0.6-0.9
											c0.1-0.3,0.2-0.7,0.2-1c0-0.4,0-0.8-0.1-1.2c-0.1-0.4-0.3-0.7-0.6-0.9s-0.7-0.4-1.3-0.6c-0.5-0.1-1.3-0.2-2.2-0.2v-2.2
											c0.8,0,1.4-0.1,1.9-0.2c0.5-0.1,0.9-0.3,1.2-0.6c0.3-0.2,0.5-0.5,0.6-0.9c0.1-0.3,0.2-0.7,0.2-1.1c0-0.9-0.2-1.5-0.7-1.9
											s-1.1-0.7-1.9-0.7c-0.7,0-1.3,0.2-1.8,0.6c-0.5,0.4-0.8,0.9-1,1.5c-0.1,0.3-0.2,0.5-0.4,0.7s-0.4,0.2-0.7,0.2
											c-0.1,0-0.3,0-0.4,0l-1.6-0.3c0.1-0.9,0.4-1.6,0.7-2.3s0.8-1.2,1.3-1.6c0.5-0.4,1.2-0.8,1.9-1
											C75.7,190.8,76.4,190.7,77.2,190.7z"/>
										<path class="st18" d="M95.6,192.2c0,0.4-0.1,0.8-0.4,1.1s-0.7,0.4-1.4,0.4h-5l-0.7,3.8c0.8-0.2,1.6-0.2,2.2-0.2
											c1,0,1.8,0.1,2.5,0.4c0.7,0.3,1.3,0.7,1.8,1.2c0.5,0.5,0.9,1.1,1.1,1.8s0.4,1.4,0.4,2.2c0,1-0.2,1.8-0.5,2.6
											c-0.3,0.8-0.8,1.5-1.4,2c-0.6,0.6-1.3,1-2.1,1.3c-0.8,0.3-1.7,0.5-2.7,0.5c-0.6,0-1.1-0.1-1.6-0.2c-0.5-0.1-1-0.3-1.4-0.5
											c-0.4-0.2-0.9-0.4-1.2-0.7c-0.4-0.3-0.7-0.5-1-0.8l0.9-1.3c0.2-0.3,0.5-0.4,0.8-0.4c0.2,0,0.4,0.1,0.6,0.2
											c0.2,0.1,0.5,0.3,0.7,0.4c0.3,0.2,0.6,0.3,1,0.4c0.4,0.1,0.8,0.2,1.4,0.2c0.6,0,1.1-0.1,1.5-0.3c0.4-0.2,0.8-0.4,1.1-0.8
											c0.3-0.3,0.5-0.7,0.7-1.2c0.1-0.5,0.2-0.9,0.2-1.5c0-1-0.3-1.8-0.9-2.3c-0.6-0.6-1.4-0.8-2.5-0.8c-0.9,0-1.8,0.2-2.6,0.5
											l-1.9-0.5l1.5-8.8h8.9V192.2z"/>
										<path class="st18" d="M102.8,198.4c0-0.3,0-0.5,0.1-0.7s0.2-0.4,0.4-0.6c0.2-0.2,0.4-0.3,0.6-0.4c0.2-0.1,0.5-0.2,0.8-0.2
											c0.3,0,0.5,0,0.7,0.2c0.2,0.1,0.4,0.2,0.6,0.4c0.2,0.2,0.3,0.4,0.4,0.6c0.1,0.2,0.2,0.5,0.2,0.7c0,0.3,0,0.5-0.2,0.7
											c-0.1,0.2-0.2,0.4-0.4,0.6c-0.2,0.2-0.4,0.3-0.6,0.4s-0.5,0.1-0.7,0.1c-0.3,0-0.5,0-0.8-0.1s-0.4-0.2-0.6-0.4
											c-0.2-0.2-0.3-0.4-0.4-0.6C102.8,198.9,102.8,198.7,102.8,198.4z M102.8,207.3c0-0.3,0-0.5,0.1-0.7s0.2-0.4,0.4-0.6
											c0.2-0.2,0.4-0.3,0.6-0.4s0.5-0.2,0.8-0.2c0.3,0,0.5,0.1,0.7,0.2s0.4,0.2,0.6,0.4c0.2,0.2,0.3,0.4,0.4,0.6
											c0.1,0.2,0.2,0.5,0.2,0.7c0,0.3,0,0.5-0.2,0.7c-0.1,0.2-0.2,0.4-0.4,0.6c-0.2,0.2-0.4,0.3-0.6,0.4s-0.5,0.1-0.7,0.1
											c-0.3,0-0.5,0-0.8-0.1s-0.4-0.2-0.6-0.4s-0.3-0.4-0.4-0.6S102.8,207.6,102.8,207.3z"/>
										<path class="st18" d="M125.4,200c0,1.6-0.2,2.9-0.5,4.1c-0.3,1.2-0.8,2.1-1.4,2.9c-0.6,0.8-1.3,1.3-2.1,1.7
											c-0.8,0.4-1.7,0.6-2.6,0.6s-1.8-0.2-2.6-0.6c-0.8-0.4-1.5-0.9-2.1-1.7c-0.6-0.8-1.1-1.7-1.4-2.9c-0.3-1.2-0.5-2.5-0.5-4.1
											c0-1.6,0.2-3,0.5-4.1c0.3-1.2,0.8-2.1,1.4-2.9c0.6-0.8,1.3-1.3,2.1-1.7c0.8-0.4,1.7-0.6,2.6-0.6s1.8,0.2,2.6,0.6
											s1.5,0.9,2.1,1.7c0.6,0.8,1.1,1.7,1.4,2.9C125.3,197,125.4,198.4,125.4,200z M122.2,200c0-1.3-0.1-2.4-0.3-3.2
											c-0.2-0.9-0.4-1.5-0.8-2.1c-0.3-0.5-0.7-0.9-1.1-1.1c-0.4-0.2-0.8-0.3-1.3-0.3c-0.4,0-0.9,0.1-1.3,0.3
											c-0.4,0.2-0.8,0.6-1.1,1.1c-0.3,0.5-0.6,1.2-0.8,2.1s-0.3,1.9-0.3,3.2c0,1.3,0.1,2.4,0.3,3.2s0.4,1.5,0.8,2
											c0.3,0.5,0.7,0.9,1.1,1.1c0.4,0.2,0.8,0.3,1.3,0.3c0.5,0,0.9-0.1,1.3-0.3c0.4-0.2,0.8-0.6,1.1-1.1c0.3-0.5,0.6-1.2,0.8-2
											C122.2,202.4,122.2,201.3,122.2,200z"/>
										<path class="st18" d="M133.8,197.7c0.7,0,1.3,0.1,2,0.3c0.6,0.2,1.2,0.6,1.7,1c0.5,0.5,0.9,1,1.2,1.7s0.5,1.5,0.5,2.4
											c0,0.8-0.2,1.6-0.5,2.4c-0.3,0.7-0.7,1.4-1.3,1.9s-1.2,1-2,1.3c-0.8,0.3-1.7,0.5-2.6,0.5c-1,0-1.8-0.2-2.6-0.5
											c-0.8-0.3-1.4-0.7-2-1.3c-0.5-0.6-1-1.2-1.2-2c-0.3-0.8-0.4-1.6-0.4-2.6c0-0.8,0.2-1.7,0.5-2.6s0.9-1.8,1.6-2.8l4.3-5.8
											c0.1-0.2,0.4-0.4,0.7-0.5c0.3-0.1,0.6-0.2,1-0.2h2.8l-5.4,6.6c-0.1,0.1-0.2,0.3-0.3,0.4s-0.2,0.3-0.3,0.4
											c0.4-0.2,0.7-0.3,1.1-0.4C132.9,197.8,133.3,197.7,133.8,197.7z M129.5,203.3c0,0.5,0.1,1,0.2,1.4
											c0.1,0.4,0.3,0.8,0.6,1.1c0.3,0.3,0.6,0.5,1,0.7c0.4,0.2,0.9,0.2,1.4,0.2c0.5,0,0.9-0.1,1.4-0.2c0.4-0.2,0.8-0.4,1.1-0.7
											c0.3-0.3,0.5-0.7,0.7-1.1s0.2-0.8,0.2-1.3c0-0.5-0.1-1-0.2-1.4c-0.2-0.4-0.4-0.8-0.7-1c-0.3-0.3-0.6-0.5-1-0.7
											c-0.4-0.2-0.9-0.2-1.4-0.2c-0.5,0-0.9,0.1-1.3,0.2c-0.4,0.2-0.7,0.4-1,0.7c-0.3,0.3-0.5,0.6-0.7,1
											S129.5,202.9,129.5,203.3z"/>
									</g>
									<g id="Group-11" transform="translate(43.000000, 239.000000)">
										<path id="Rectangle_10_" class="st19" d="M0.6,20.8h1.3c0.4,0,0.6,0.3,0.6,0.6l0,0c0,0.4-0.3,0.6-0.6,0.6H0.6
											c-0.4,0-0.6-0.3-0.6-0.6l0,0C0,21.1,0.3,20.8,0.6,20.8z"/>
										<path id="Rectangle-Copy-18" class="st19" d="M4.6,20.8h1.3c0.4,0,0.7,0.3,0.7,0.6l0,0c0,0.4-0.3,0.6-0.7,0.6H4.6
											c-0.4,0-0.7-0.3-0.7-0.6l0,0C3.9,21.1,4.2,20.8,4.6,20.8z"/>
										<path id="Rectangle-Copy-19" class="st19" d="M8.4,20.8h1.3c0.4,0,0.6,0.3,0.6,0.6l0,0c0,0.4-0.3,0.6-0.6,0.6H8.4
											c-0.4,0-0.6-0.3-0.6-0.6l0,0C7.8,21.1,8.1,20.8,8.4,20.8z"/>
										<path id="Rectangle-Copy-20" class="st19" d="M12.3,20.8h1.3c0.4,0,0.6,0.3,0.6,0.6l0,0c0,0.4-0.3,0.6-0.6,0.6h-1.3
											c-0.4,0-0.6-0.3-0.6-0.6l0,0C11.7,21.1,12,20.8,12.3,20.8z"/>
										<path id="Rectangle-Copy-21" class="st19" d="M16.2,20.8h1.3c0.4,0,0.6,0.3,0.6,0.6l0,0c0,0.4-0.3,0.6-0.6,0.6h-1.3
											c-0.4,0-0.6-0.3-0.6-0.6l0,0C15.6,21.1,15.9,20.8,16.2,20.8z"/>
										<path id="Rectangle-Copy-22" class="st19" d="M20.1,20.8h1.3c0.4,0,0.6,0.3,0.6,0.6l0,0c0,0.4-0.3,0.6-0.6,0.6h-1.3
											c-0.4,0-0.6-0.3-0.6-0.6l0,0C19.5,21.1,19.8,20.8,20.1,20.8z"/>
										<path id="Rectangle-Copy-23" class="st19" d="M24,20.8h1.3c0.4,0,0.6,0.3,0.6,0.6l0,0c0,0.4-0.3,0.6-0.6,0.6H24
											c-0.4,0-0.6-0.3-0.6-0.6l0,0C23.4,21.1,23.7,20.8,24,20.8z"/>
										<path id="Rectangle-Copy-24" class="st19" d="M27.9,20.8h1.3c0.4,0,0.6,0.3,0.6,0.6l0,0c0,0.4-0.3,0.6-0.6,0.6h-1.3
											c-0.4,0-0.6-0.3-0.6-0.6l0,0C27.3,21.1,27.6,20.8,27.9,20.8z"/>
										<path id="Rectangle-Copy-46" class="st19" d="M114.1,20.8h1.3c0.4,0,0.7,0.3,0.7,0.6l0,0c0,0.4-0.3,0.6-0.7,0.6h-1.3
											c-0.4,0-0.7-0.3-0.7-0.6l0,0C113.4,21.1,113.7,20.8,114.1,20.8z"/>
										<path id="Rectangle-Copy-25" class="st19" d="M31.9,20.8h1.3c0.4,0,0.7,0.3,0.7,0.6l0,0c0,0.4-0.3,0.6-0.7,0.6h-1.3
											c-0.4,0-0.6-0.3-0.6-0.6l0,0C31.2,21.1,31.5,20.8,31.9,20.8z"/>
										<path id="Rectangle-Copy-47" class="st19" d="M118,20.8h1.3c0.4,0,0.7,0.3,0.7,0.6l0,0c0,0.4-0.3,0.6-0.7,0.6H118
											c-0.4,0-0.7-0.3-0.7-0.6l0,0C117.3,21.1,117.6,20.8,118,20.8z"/>
										<path id="Rectangle-Copy-26" class="st19" d="M35.8,20.8H37c0.4,0,0.7,0.3,0.7,0.6l0,0c0,0.4-0.3,0.6-0.7,0.6h-1.3
											c-0.4,0-0.7-0.3-0.7-0.6l0,0C35.1,21.1,35.4,20.8,35.8,20.8z"/>
										<path id="Rectangle-Copy-48" class="st19" d="M121.8,20.8h1.3c0.4,0,0.7,0.3,0.7,0.6l0,0c0,0.4-0.3,0.6-0.7,0.6h-1.3
											c-0.4,0-0.7-0.3-0.7-0.6l0,0C121.2,21.1,121.5,20.8,121.8,20.8z"/>
										<path id="Rectangle-Copy-27" class="st19" d="M40.3,18.2L40.3,18.2c0.7,0,1.3,0.6,1.3,1.3v1.3c0,0.7-0.6,1.3-1.3,1.3l0,0
											c-0.7,0-1.3-0.6-1.3-1.3v-1.3C39,18.8,39.6,18.2,40.3,18.2z"/>
										<path id="Rectangle-Copy-28" class="st19" d="M44.2,14.3L44.2,14.3c0.7,0,1.3,0.6,1.3,1.3v5.2c0,0.7-0.6,1.3-1.3,1.3l0,0
											c-0.7,0-1.3-0.6-1.3-1.3v-5.2C42.9,14.9,43.5,14.3,44.2,14.3z"/>
										<path id="Rectangle-Copy-29" class="st19" d="M48.1,14.3L48.1,14.3c0.7,0,1.3,0.6,1.3,1.3v5.2c0,0.7-0.6,1.3-1.3,1.3l0,0
											c-0.7,0-1.3-0.6-1.3-1.3v-5.2C46.8,14.9,47.4,14.3,48.1,14.3z"/>
										<path id="Rectangle-Copy-30" class="st19" d="M52,6.5L52,6.5c0.7,0,1.3,0.6,1.3,1.3v13c0,0.7-0.6,1.3-1.3,1.3l0,0
											c-0.7,0-1.3-0.6-1.3-1.3v-13C50.7,7.1,51.3,6.5,52,6.5z"/>
										<path id="Rectangle-Copy-31" class="st19" d="M55.9,14.3L55.9,14.3c0.7,0,1.3,0.6,1.3,1.3v5.2c0,0.7-0.6,1.3-1.3,1.3l0,0
											c-0.7,0-1.3-0.6-1.3-1.3v-5.2C54.6,14.9,55.2,14.3,55.9,14.3z"/>
										<path id="Rectangle-Copy-32" class="st19" d="M59.8,10.4L59.8,10.4c0.7,0,1.3,0.6,1.3,1.3v9.1c0,0.7-0.6,1.3-1.3,1.3l0,0
											c-0.7,0-1.3-0.6-1.3-1.3v-9.1C58.5,11,59.1,10.4,59.8,10.4z"/>
										<path id="Rectangle-Copy-33" class="st19" d="M63.7,14.3L63.7,14.3c0.7,0,1.3,0.6,1.3,1.3v5.2c0,0.7-0.6,1.3-1.3,1.3l0,0
											c-0.7,0-1.3-0.6-1.3-1.3v-5.2C62.4,14.9,63,14.3,63.7,14.3z"/>
										<path id="Rectangle-Copy-34" class="st19" d="M67.6,13L67.6,13c0.7,0,1.3,0.6,1.3,1.3v6.5c0,0.7-0.6,1.3-1.3,1.3h0
											c-0.7,0-1.3-0.6-1.3-1.3v-6.5C66.3,13.6,66.9,13,67.6,13z"/>
										<path id="Rectangle-Copy-35" class="st19" d="M71.5,3.9L71.5,3.9c0.7,0,1.3,0.6,1.3,1.3v15.6c0,0.7-0.6,1.3-1.3,1.3h0
											c-0.7,0-1.3-0.6-1.3-1.3V5.2C70.2,4.5,70.8,3.9,71.5,3.9z"/>
										<path id="Rectangle-Copy-36" class="st19" d="M75.4,0L75.4,0c0.7,0,1.3,0.6,1.3,1.3v19.5c0,0.7-0.6,1.3-1.3,1.3h0
											c-0.7,0-1.3-0.6-1.3-1.3V1.3C74.1,0.6,74.7,0,75.4,0z"/>
										<path id="Rectangle-Copy-37" class="st19" d="M79.3,13L79.3,13c0.7,0,1.3,0.6,1.3,1.3v6.5c0,0.7-0.6,1.3-1.3,1.3h0
											c-0.7,0-1.3-0.6-1.3-1.3v-6.5C78,13.6,78.6,13,79.3,13z"/>
										<path id="Rectangle-Copy-38" class="st19" d="M83.2,11.7L83.2,11.7c0.7,0,1.3,0.6,1.3,1.3v7.8c0,0.7-0.6,1.3-1.3,1.3h0
											c-0.7,0-1.3-0.6-1.3-1.3V13C81.9,12.3,82.5,11.7,83.2,11.7z"/>
										<path id="Rectangle-Copy-39" class="st19" d="M87.1,15.6L87.1,15.6c0.7,0,1.3,0.6,1.3,1.3v3.9c0,0.7-0.6,1.3-1.3,1.3h0
											c-0.7,0-1.3-0.6-1.3-1.3v-3.9C85.8,16.2,86.4,15.6,87.1,15.6z"/>
										<path id="Rectangle-Copy-40" class="st19" d="M91,11.7L91,11.7c0.7,0,1.3,0.6,1.3,1.3v7.8c0,0.7-0.6,1.3-1.3,1.3h0
											c-0.7,0-1.3-0.6-1.3-1.3V13C89.7,12.3,90.3,11.7,91,11.7z"/>
										<path id="Rectangle-Copy-41" class="st19" d="M94.9,5.2L94.9,5.2c0.7,0,1.3,0.6,1.3,1.3v14.3c0,0.7-0.6,1.3-1.3,1.3h0
											c-0.7,0-1.3-0.6-1.3-1.3V6.5C93.6,5.8,94.2,5.2,94.9,5.2z"/>
										<path id="Rectangle-Copy-42" class="st19" d="M98.8,9.1L98.8,9.1c0.7,0,1.3,0.6,1.3,1.3v10.4c0,0.7-0.6,1.3-1.3,1.3h0
											c-0.7,0-1.3-0.6-1.3-1.3V10.4C97.5,9.7,98.1,9.1,98.8,9.1z"/>
										<path id="Rectangle-Copy-43" class="st19" d="M103,11.7L103,11.7c0.7,0,1.3,0.6,1.3,1.3v7.8c0,0.7-0.6,1.3-1.3,1.3h0
											c-0.7,0-1.3-0.6-1.3-1.3V13C101.7,12.3,102.3,11.7,103,11.7z"/>
										<path id="Rectangle-Copy-44" class="st19" d="M106.9,14.3L106.9,14.3c0.7,0,1.3,0.6,1.3,1.3v5.2c0,0.7-0.6,1.3-1.3,1.3h0
											c-0.7,0-1.3-0.6-1.3-1.3v-5.2C105.6,14.9,106.2,14.3,106.9,14.3z"/>
										<path id="Rectangle-Copy-45" class="st19" d="M110.8,15.6L110.8,15.6c0.7,0,1.3,0.6,1.3,1.3v3.9c0,0.7-0.6,1.3-1.3,1.3h0
											c-0.7,0-1.3-0.6-1.3-1.3v-3.9C109.5,16.2,110.1,15.6,110.8,15.6z"/>
									</g>
								</g>
								<path id="Fill-1" class="st3" d="M96.2,131v-12.5c0-4.1,3.4-7.5,7.5-7.5s7.5,3.4,7.5,7.5V131c0,4.1-3.4,7.5-7.5,7.5
									S96.2,135.1,96.2,131 M117.5,127.2v3.8c0,6.9-5.2,12.7-11.9,13.6v2.6h4.4c0.7,0,1.2,0.6,1.2,1.2v1.2c0,0.7-0.6,1.2-1.2,1.2
									H97.5c-0.7,0-1.2-0.6-1.2-1.2v-1.2c0-0.7,0.6-1.2,1.2-1.2h4.4v-2.7C95,143.6,90,137.4,90,130.4v-3.1c0-0.7,0.6-1.2,1.2-1.2
									h1.2c0.7,0,1.2,0.6,1.2,1.2v3.3c0,5.2,3.8,9.9,9,10.4c6,0.6,11-4.1,11-10v-3.8c0-0.7,0.6-1.2,1.2-1.2h1.2
									C116.9,126,117.5,126.6,117.5,127.2"/>
							</g>
						</g>
						<g id="Group-6" transform="translate(212.000000, 121.000000)">
							<path id="Fill-1_1_" class="st20" d="M95,9.2c0,0.1-0.1,0.2-0.2,0.2h-0.9c-0.1,0-0.2-0.1-0.2-0.2V5.9L90,9.3
								c-0.4,0.3-1,0.1-1-0.5V1.6c0-0.5,0.6-0.8,1-0.5l3.7,3.4V1.2c0-0.1,0.1-0.2,0.2-0.2h0.9C94.9,1,95,1.1,95,1.2V9.2z"/>
							<g id="Group-5_1_" transform="translate(0.000000, 0.401610)">
								<g id="Clip-4">
								</g>
								<defs>
									<filter id="Adobe_OpacityMaskFilter" filterUnits="userSpaceOnUse" x="0" y="0.6" width="6" height="8.4">
										<feColorMatrix  type="matrix" values="1 0 0 0 0  0 1 0 0 0  0 0 1 0 0  0 0 0 1 0"/>
									</filter>
								</defs>
								<mask maskUnits="userSpaceOnUse" x="0" y="0.6" width="6" height="8.4" id="mask-6_1_">
									<g class="st21">
										<polygon id="path-5_1_" class="st3" points="0,0.6 6,0.6 6,9 0,9 										"/>
									</g>
								</mask>
								<path id="Fill-3" class="st22" d="M0,0.8c0-0.1,0.1-0.2,0.2-0.2h0.9c0.1,0,0.2,0.1,0.2,0.2v3.3L5,0.7c0.4-0.3,1-0.1,1,0.5
									v7.2c0,0.5-0.6,0.8-1,0.5L1.4,5.5v3.3C1.4,8.9,1.2,9,1.1,9H0.2C0.1,9,0,8.9,0,8.8V0.8z"/>
							</g>
						</g>
					</g>
					<g id="Group-12" transform="translate(21.000000, 79.000000)">
						<path id="Rectangle_11_" class="st23" d="M5,0h182l0,0v26H5c-2.8,0-5-2.2-5-5V5C0,2.2,2.2,0,5,0z"/>
						<g id="Group-11_1_" class="st24">
							<g transform="translate(0.000000, 6.000000)">
								<path id="Rectangle_17_" class="st15" d="M0.5,16h1C1.8,16,2,16.2,2,16.5l0,0C2,16.8,1.8,17,1.5,17h-1C0.2,17,0,16.8,0,16.5
									l0,0C0,16.2,0.2,16,0.5,16z"/>
								<path id="Rectangle-Copy-18_3_" class="st15" d="M3.5,16h1C4.8,16,5,16.2,5,16.5l0,0C5,16.8,4.8,17,4.5,17h-1
									C3.2,17,3,16.8,3,16.5l0,0C3,16.2,3.2,16,3.5,16z"/>
								<path id="Rectangle-Copy-19_3_" class="st15" d="M6.5,16h1C7.8,16,8,16.2,8,16.5l0,0C8,16.8,7.8,17,7.5,17h-1
									C6.2,17,6,16.8,6,16.5l0,0C6,16.2,6.2,16,6.5,16z"/>
								<path id="Rectangle-Copy-20_3_" class="st15" d="M9.5,16h1c0.3,0,0.5,0.2,0.5,0.5l0,0c0,0.3-0.2,0.5-0.5,0.5h-1
									C9.2,17,9,16.8,9,16.5l0,0C9,16.2,9.2,16,9.5,16z"/>
								<path id="Rectangle-Copy-21_3_" class="st15" d="M12.5,16h1c0.3,0,0.5,0.2,0.5,0.5l0,0c0,0.3-0.2,0.5-0.5,0.5h-1
									c-0.3,0-0.5-0.2-0.5-0.5l0,0C12,16.2,12.2,16,12.5,16z"/>
								<path id="Rectangle-Copy-22_3_" class="st15" d="M15.5,16h1c0.3,0,0.5,0.2,0.5,0.5l0,0c0,0.3-0.2,0.5-0.5,0.5h-1
									c-0.3,0-0.5-0.2-0.5-0.5l0,0C15,16.2,15.2,16,15.5,16z"/>
								<path id="Rectangle-Copy-23_8_" class="st15" d="M18.5,16h1c0.3,0,0.5,0.2,0.5,0.5l0,0c0,0.3-0.2,0.5-0.5,0.5h-1
									c-0.3,0-0.5-0.2-0.5-0.5l0,0C18,16.2,18.2,16,18.5,16z"/>
								<path id="Rectangle-Copy-24_8_" class="st15" d="M21.5,16h1c0.3,0,0.5,0.2,0.5,0.5l0,0c0,0.3-0.2,0.5-0.5,0.5h-1
									c-0.3,0-0.5-0.2-0.5-0.5l0,0C21,16.2,21.2,16,21.5,16z"/>
								<path id="Rectangle-Copy-46_7_" class="st15" d="M88.5,16h1c0.3,0,0.5,0.2,0.5,0.5l0,0c0,0.3-0.2,0.5-0.5,0.5h-1
									c-0.3,0-0.5-0.2-0.5-0.5l0,0C88,16.2,88.2,16,88.5,16z"/>
								<path id="Rectangle-Copy-25_8_" class="st15" d="M24.5,16h1c0.3,0,0.5,0.2,0.5,0.5l0,0c0,0.3-0.2,0.5-0.5,0.5h-1
									c-0.3,0-0.5-0.2-0.5-0.5l0,0C24,16.2,24.2,16,24.5,16z"/>
								<path id="Rectangle-Copy-47_7_" class="st15" d="M91.5,16h1c0.3,0,0.5,0.2,0.5,0.5l0,0c0,0.3-0.2,0.5-0.5,0.5h-1
									c-0.3,0-0.5-0.2-0.5-0.5l0,0C91,16.2,91.2,16,91.5,16z"/>
								<path id="Rectangle-Copy-26_8_" class="st15" d="M27.5,16h1c0.3,0,0.5,0.2,0.5,0.5l0,0c0,0.3-0.2,0.5-0.5,0.5h-1
									c-0.3,0-0.5-0.2-0.5-0.5l0,0C27,16.2,27.2,16,27.5,16z"/>
								<path id="Rectangle-Copy-48_7_" class="st15" d="M94.5,16h1c0.3,0,0.5,0.2,0.5,0.5l0,0c0,0.3-0.2,0.5-0.5,0.5h-1
									c-0.3,0-0.5-0.2-0.5-0.5l0,0C94,16.2,94.2,16,94.5,16z"/>
								<path id="Rectangle-Copy-27_8_" class="st15" d="M31,14L31,14c0.6,0,1,0.4,1,1v1c0,0.6-0.4,1-1,1l0,0c-0.6,0-1-0.4-1-1v-1
									C30,14.4,30.4,14,31,14z"/>
								<path id="Rectangle-Copy-28_8_" class="st15" d="M34,11L34,11c0.6,0,1,0.4,1,1v4c0,0.6-0.4,1-1,1l0,0c-0.6,0-1-0.4-1-1v-4
									C33,11.4,33.4,11,34,11z"/>
								<path id="Rectangle-Copy-29_8_" class="st15" d="M37,11L37,11c0.6,0,1,0.4,1,1v4c0,0.6-0.4,1-1,1l0,0c-0.6,0-1-0.4-1-1v-4
									C36,11.4,36.4,11,37,11z"/>
								<path id="Rectangle-Copy-30_8_" class="st15" d="M40,5L40,5c0.6,0,1,0.4,1,1v10c0,0.6-0.4,1-1,1l0,0c-0.6,0-1-0.4-1-1V6
									C39,5.4,39.4,5,40,5z"/>
								<path id="Rectangle-Copy-31_8_" class="st15" d="M43,11L43,11c0.6,0,1,0.4,1,1v4c0,0.6-0.4,1-1,1l0,0c-0.6,0-1-0.4-1-1v-4
									C42,11.4,42.4,11,43,11z"/>
								<path id="Rectangle-Copy-32_8_" class="st15" d="M46,8L46,8c0.6,0,1,0.4,1,1v7c0,0.6-0.4,1-1,1l0,0c-0.6,0-1-0.4-1-1V9
									C45,8.4,45.4,8,46,8z"/>
								<path id="Rectangle-Copy-33_8_" class="st15" d="M49,11L49,11c0.6,0,1,0.4,1,1v4c0,0.6-0.4,1-1,1l0,0c-0.6,0-1-0.4-1-1v-4
									C48,11.4,48.4,11,49,11z"/>
								<path id="Rectangle-Copy-34_7_" class="st15" d="M52,10L52,10c0.6,0,1,0.4,1,1v5c0,0.6-0.4,1-1,1l0,0c-0.6,0-1-0.4-1-1v-5
									C51,10.4,51.4,10,52,10z"/>
								<path id="Rectangle-Copy-35_7_" class="st15" d="M55,3L55,3c0.6,0,1,0.4,1,1v12c0,0.6-0.4,1-1,1l0,0c-0.6,0-1-0.4-1-1V4
									C54,3.4,54.4,3,55,3z"/>
								<path id="Rectangle-Copy-36_7_" class="st15" d="M58,0L58,0c0.6,0,1,0.4,1,1v15c0,0.6-0.4,1-1,1l0,0c-0.6,0-1-0.4-1-1V1
									C57,0.4,57.4,0,58,0z"/>
								<path id="Rectangle-Copy-37_7_" class="st15" d="M61,10L61,10c0.6,0,1,0.4,1,1v5c0,0.6-0.4,1-1,1l0,0c-0.6,0-1-0.4-1-1v-5
									C60,10.4,60.4,10,61,10z"/>
								<path id="Rectangle-Copy-38_7_" class="st15" d="M64,9L64,9c0.6,0,1,0.4,1,1v6c0,0.6-0.4,1-1,1l0,0c-0.6,0-1-0.4-1-1v-6
									C63,9.4,63.4,9,64,9z"/>
								<path id="Rectangle-Copy-39_7_" class="st15" d="M67,12L67,12c0.6,0,1,0.4,1,1v3c0,0.6-0.4,1-1,1l0,0c-0.6,0-1-0.4-1-1v-3
									C66,12.4,66.4,12,67,12z"/>
								<path id="Rectangle-Copy-40_7_" class="st15" d="M70,9L70,9c0.6,0,1,0.4,1,1v6c0,0.6-0.4,1-1,1l0,0c-0.6,0-1-0.4-1-1v-6
									C69,9.4,69.4,9,70,9z"/>
								<path id="Rectangle-Copy-41_7_" class="st15" d="M73,4L73,4c0.6,0,1,0.4,1,1v11c0,0.6-0.4,1-1,1l0,0c-0.6,0-1-0.4-1-1V5
									C72,4.4,72.4,4,73,4z"/>
								<path id="Rectangle-Copy-42_7_" class="st15" d="M76,7L76,7c0.6,0,1,0.4,1,1v8c0,0.6-0.4,1-1,1l0,0c-0.6,0-1-0.4-1-1V8
									C75,7.4,75.4,7,76,7z"/>
								<path id="Rectangle-Copy-43_7_" class="st15" d="M80,9L80,9c0.6,0,1,0.4,1,1v6c0,0.6-0.4,1-1,1l0,0c-0.6,0-1-0.4-1-1v-6
									C79,9.4,79.4,9,80,9z"/>
								<path id="Rectangle-Copy-44_7_" class="st15" d="M83,11L83,11c0.6,0,1,0.4,1,1v4c0,0.6-0.4,1-1,1l0,0c-0.6,0-1-0.4-1-1v-4
									C82,11.4,82.4,11,83,11z"/>
								<path id="Rectangle-Copy-45_7_" class="st15" d="M86,12L86,12c0.6,0,1,0.4,1,1v3c0,0.6-0.4,1-1,1l0,0c-0.6,0-1-0.4-1-1v-3
									C85,12.4,85.4,12,86,12z"/>
							</g>
						</g>
						<g id="Group-11-Copy" class="st25">
							<g transform="translate(91.000000, 6.000000)">
								<path id="Rectangle_17_" class="st15" d="M0.5,16h1C1.8,16,2,16.2,2,16.5l0,0C2,16.8,1.8,17,1.5,17h-1C0.2,17,0,16.8,0,16.5
									l0,0C0,16.2,0.2,16,0.5,16z"/>
								<path id="Rectangle-Copy-18_3_" class="st15" d="M3.5,16h1C4.8,16,5,16.2,5,16.5l0,0C5,16.8,4.8,17,4.5,17h-1
									C3.2,17,3,16.8,3,16.5l0,0C3,16.2,3.2,16,3.5,16z"/>
								<path id="Rectangle-Copy-19_3_" class="st15" d="M6.5,16h1C7.8,16,8,16.2,8,16.5l0,0C8,16.8,7.8,17,7.5,17h-1
									C6.2,17,6,16.8,6,16.5l0,0C6,16.2,6.2,16,6.5,16z"/>
								<path id="Rectangle-Copy-20_3_" class="st15" d="M9.5,16h1c0.3,0,0.5,0.2,0.5,0.5l0,0c0,0.3-0.2,0.5-0.5,0.5h-1
									C9.2,17,9,16.8,9,16.5l0,0C9,16.2,9.2,16,9.5,16z"/>
								<path id="Rectangle-Copy-21_3_" class="st15" d="M12.5,16h1c0.3,0,0.5,0.2,0.5,0.5l0,0c0,0.3-0.2,0.5-0.5,0.5h-1
									c-0.3,0-0.5-0.2-0.5-0.5l0,0C12,16.2,12.2,16,12.5,16z"/>
								<path id="Rectangle-Copy-22_3_" class="st15" d="M15.5,16h1c0.3,0,0.5,0.2,0.5,0.5l0,0c0,0.3-0.2,0.5-0.5,0.5h-1
									c-0.3,0-0.5-0.2-0.5-0.5l0,0C15,16.2,15.2,16,15.5,16z"/>
								<path id="Rectangle-Copy-23_8_" class="st15" d="M18.5,16h1c0.3,0,0.5,0.2,0.5,0.5l0,0c0,0.3-0.2,0.5-0.5,0.5h-1
									c-0.3,0-0.5-0.2-0.5-0.5l0,0C18,16.2,18.2,16,18.5,16z"/>
								<path id="Rectangle-Copy-24_8_" class="st15" d="M21.5,16h1c0.3,0,0.5,0.2,0.5,0.5l0,0c0,0.3-0.2,0.5-0.5,0.5h-1
									c-0.3,0-0.5-0.2-0.5-0.5l0,0C21,16.2,21.2,16,21.5,16z"/>
								<path id="Rectangle-Copy-46_7_" class="st15" d="M88.5,16h1c0.3,0,0.5,0.2,0.5,0.5l0,0c0,0.3-0.2,0.5-0.5,0.5h-1
									c-0.3,0-0.5-0.2-0.5-0.5l0,0C88,16.2,88.2,16,88.5,16z"/>
								<path id="Rectangle-Copy-25_8_" class="st15" d="M24.5,16h1c0.3,0,0.5,0.2,0.5,0.5l0,0c0,0.3-0.2,0.5-0.5,0.5h-1
									c-0.3,0-0.5-0.2-0.5-0.5l0,0C24,16.2,24.2,16,24.5,16z"/>
								<path id="Rectangle-Copy-47_7_" class="st15" d="M91.5,16h1c0.3,0,0.5,0.2,0.5,0.5l0,0c0,0.3-0.2,0.5-0.5,0.5h-1
									c-0.3,0-0.5-0.2-0.5-0.5l0,0C91,16.2,91.2,16,91.5,16z"/>
								<path id="Rectangle-Copy-26_8_" class="st15" d="M27.5,16h1c0.3,0,0.5,0.2,0.5,0.5l0,0c0,0.3-0.2,0.5-0.5,0.5h-1
									c-0.3,0-0.5-0.2-0.5-0.5l0,0C27,16.2,27.2,16,27.5,16z"/>
								<path id="Rectangle-Copy-48_7_" class="st15" d="M94.5,16h1c0.3,0,0.5,0.2,0.5,0.5l0,0c0,0.3-0.2,0.5-0.5,0.5h-1
									c-0.3,0-0.5-0.2-0.5-0.5l0,0C94,16.2,94.2,16,94.5,16z"/>
								<path id="Rectangle-Copy-27_8_" class="st15" d="M31,14L31,14c0.6,0,1,0.4,1,1v1c0,0.6-0.4,1-1,1l0,0c-0.6,0-1-0.4-1-1v-1
									C30,14.4,30.4,14,31,14z"/>
								<path id="Rectangle-Copy-28_8_" class="st15" d="M34,11L34,11c0.6,0,1,0.4,1,1v4c0,0.6-0.4,1-1,1l0,0c-0.6,0-1-0.4-1-1v-4
									C33,11.4,33.4,11,34,11z"/>
								<path id="Rectangle-Copy-29_8_" class="st15" d="M37,11L37,11c0.6,0,1,0.4,1,1v4c0,0.6-0.4,1-1,1l0,0c-0.6,0-1-0.4-1-1v-4
									C36,11.4,36.4,11,37,11z"/>
								<path id="Rectangle-Copy-30_8_" class="st15" d="M40,5L40,5c0.6,0,1,0.4,1,1v10c0,0.6-0.4,1-1,1l0,0c-0.6,0-1-0.4-1-1V6
									C39,5.4,39.4,5,40,5z"/>
								<path id="Rectangle-Copy-31_8_" class="st15" d="M43,11L43,11c0.6,0,1,0.4,1,1v4c0,0.6-0.4,1-1,1l0,0c-0.6,0-1-0.4-1-1v-4
									C42,11.4,42.4,11,43,11z"/>
								<path id="Rectangle-Copy-32_8_" class="st15" d="M46,8L46,8c0.6,0,1,0.4,1,1v7c0,0.6-0.4,1-1,1l0,0c-0.6,0-1-0.4-1-1V9
									C45,8.4,45.4,8,46,8z"/>
								<path id="Rectangle-Copy-33_8_" class="st15" d="M49,11L49,11c0.6,0,1,0.4,1,1v4c0,0.6-0.4,1-1,1l0,0c-0.6,0-1-0.4-1-1v-4
									C48,11.4,48.4,11,49,11z"/>
								<path id="Rectangle-Copy-34_7_" class="st15" d="M52,10L52,10c0.6,0,1,0.4,1,1v5c0,0.6-0.4,1-1,1l0,0c-0.6,0-1-0.4-1-1v-5
									C51,10.4,51.4,10,52,10z"/>
								<path id="Rectangle-Copy-35_7_" class="st15" d="M55,3L55,3c0.6,0,1,0.4,1,1v12c0,0.6-0.4,1-1,1l0,0c-0.6,0-1-0.4-1-1V4
									C54,3.4,54.4,3,55,3z"/>
								<path id="Rectangle-Copy-36_7_" class="st15" d="M58,0L58,0c0.6,0,1,0.4,1,1v15c0,0.6-0.4,1-1,1l0,0c-0.6,0-1-0.4-1-1V1
									C57,0.4,57.4,0,58,0z"/>
								<path id="Rectangle-Copy-37_7_" class="st15" d="M61,10L61,10c0.6,0,1,0.4,1,1v5c0,0.6-0.4,1-1,1l0,0c-0.6,0-1-0.4-1-1v-5
									C60,10.4,60.4,10,61,10z"/>
								<path id="Rectangle-Copy-38_7_" class="st15" d="M64,9L64,9c0.6,0,1,0.4,1,1v6c0,0.6-0.4,1-1,1l0,0c-0.6,0-1-0.4-1-1v-6
									C63,9.4,63.4,9,64,9z"/>
								<path id="Rectangle-Copy-39_7_" class="st15" d="M67,12L67,12c0.6,0,1,0.4,1,1v3c0,0.6-0.4,1-1,1l0,0c-0.6,0-1-0.4-1-1v-3
									C66,12.4,66.4,12,67,12z"/>
								<path id="Rectangle-Copy-40_7_" class="st15" d="M70,9L70,9c0.6,0,1,0.4,1,1v6c0,0.6-0.4,1-1,1l0,0c-0.6,0-1-0.4-1-1v-6
									C69,9.4,69.4,9,70,9z"/>
								<path id="Rectangle-Copy-41_7_" class="st15" d="M73,4L73,4c0.6,0,1,0.4,1,1v11c0,0.6-0.4,1-1,1l0,0c-0.6,0-1-0.4-1-1V5
									C72,4.4,72.4,4,73,4z"/>
								<path id="Rectangle-Copy-42_7_" class="st15" d="M76,7L76,7c0.6,0,1,0.4,1,1v8c0,0.6-0.4,1-1,1l0,0c-0.6,0-1-0.4-1-1V8
									C75,7.4,75.4,7,76,7z"/>
								<path id="Rectangle-Copy-43_7_" class="st15" d="M80,9L80,9c0.6,0,1,0.4,1,1v6c0,0.6-0.4,1-1,1l0,0c-0.6,0-1-0.4-1-1v-6
									C79,9.4,79.4,9,80,9z"/>
								<path id="Rectangle-Copy-44_7_" class="st15" d="M83,11L83,11c0.6,0,1,0.4,1,1v4c0,0.6-0.4,1-1,1l0,0c-0.6,0-1-0.4-1-1v-4
									C82,11.4,82.4,11,83,11z"/>
								<path id="Rectangle-Copy-45_7_" class="st15" d="M86,12L86,12c0.6,0,1,0.4,1,1v3c0,0.6-0.4,1-1,1l0,0c-0.6,0-1-0.4-1-1v-3
									C85,12.4,85.4,12,86,12z"/>
							</g>
						</g>
						<g id="Group-11-Copy-2" transform="translate(187.000000, 6.000000)">
							<path id="Rectangle-Copy-23_3_" class="st26" d="M0.5,16h1C1.8,16,2,16.2,2,16.5l0,0C2,16.8,1.8,17,1.5,17h-1
								C0.2,17,0,16.8,0,16.5l0,0C0,16.2,0.2,16,0.5,16z"/>
							<path id="Rectangle-Copy-24_3_" class="st26" d="M3.5,16h1C4.8,16,5,16.2,5,16.5l0,0C5,16.8,4.8,17,4.5,17h-1
								C3.2,17,3,16.8,3,16.5l0,0C3,16.2,3.2,16,3.5,16z"/>
							<path id="Rectangle-Copy-46_3_" class="st26" d="M70.5,16h1c0.3,0,0.5,0.2,0.5,0.5l0,0c0,0.3-0.2,0.5-0.5,0.5h-1
								c-0.3,0-0.5-0.2-0.5-0.5l0,0C70,16.2,70.2,16,70.5,16z"/>
							<path id="Rectangle-Copy-25_3_" class="st26" d="M6.5,16h1C7.8,16,8,16.2,8,16.5l0,0C8,16.8,7.8,17,7.5,17h-1
								C6.2,17,6,16.8,6,16.5l0,0C6,16.2,6.2,16,6.5,16z"/>
							<path id="Rectangle-Copy-47_3_" class="st26" d="M73.5,16h1c0.3,0,0.5,0.2,0.5,0.5l0,0c0,0.3-0.2,0.5-0.5,0.5h-1
								c-0.3,0-0.5-0.2-0.5-0.5l0,0C73,16.2,73.2,16,73.5,16z"/>
							<path id="Rectangle-Copy-26_3_" class="st26" d="M9.5,16h1c0.3,0,0.5,0.2,0.5,0.5l0,0c0,0.3-0.2,0.5-0.5,0.5h-1
								C9.2,17,9,16.8,9,16.5l0,0C9,16.2,9.2,16,9.5,16z"/>
							<path id="Rectangle-Copy-48_3_" class="st26" d="M76.5,16h1c0.3,0,0.5,0.2,0.5,0.5l0,0c0,0.3-0.2,0.5-0.5,0.5h-1
								c-0.3,0-0.5-0.2-0.5-0.5l0,0C76,16.2,76.2,16,76.5,16z"/>
							<path id="Rectangle-Copy-27_3_" class="st26" d="M13,14L13,14c0.6,0,1,0.4,1,1v1c0,0.6-0.4,1-1,1l0,0c-0.6,0-1-0.4-1-1v-1
								C12,14.4,12.4,14,13,14z"/>
							<path id="Rectangle-Copy-28_3_" class="st26" d="M16,11L16,11c0.6,0,1,0.4,1,1v4c0,0.6-0.4,1-1,1l0,0c-0.6,0-1-0.4-1-1v-4
								C15,11.4,15.4,11,16,11z"/>
							<path id="Rectangle-Copy-29_3_" class="st26" d="M19,11L19,11c0.6,0,1,0.4,1,1v4c0,0.6-0.4,1-1,1l0,0c-0.6,0-1-0.4-1-1v-4
								C18,11.4,18.4,11,19,11z"/>
							<path id="Rectangle-Copy-30_3_" class="st26" d="M22,5L22,5c0.6,0,1,0.4,1,1v10c0,0.6-0.4,1-1,1l0,0c-0.6,0-1-0.4-1-1V6
								C21,5.4,21.4,5,22,5z"/>
							<path id="Rectangle-Copy-31_3_" class="st26" d="M25,11L25,11c0.6,0,1,0.4,1,1v4c0,0.6-0.4,1-1,1l0,0c-0.6,0-1-0.4-1-1v-4
								C24,11.4,24.4,11,25,11z"/>
							<path id="Rectangle-Copy-32_3_" class="st26" d="M28,8L28,8c0.6,0,1,0.4,1,1v7c0,0.6-0.4,1-1,1l0,0c-0.6,0-1-0.4-1-1V9
								C27,8.4,27.4,8,28,8z"/>
							<path id="Rectangle-Copy-33_3_" class="st26" d="M31,11L31,11c0.6,0,1,0.4,1,1v4c0,0.6-0.4,1-1,1l0,0c-0.6,0-1-0.4-1-1v-4
								C30,11.4,30.4,11,31,11z"/>
							<path id="Rectangle-Copy-34_3_" class="st26" d="M34,10L34,10c0.6,0,1,0.4,1,1v5c0,0.6-0.4,1-1,1l0,0c-0.6,0-1-0.4-1-1v-5
								C33,10.4,33.4,10,34,10z"/>
							<path id="Rectangle-Copy-35_3_" class="st26" d="M37,3L37,3c0.6,0,1,0.4,1,1v12c0,0.6-0.4,1-1,1l0,0c-0.6,0-1-0.4-1-1V4
								C36,3.4,36.4,3,37,3z"/>
							<path id="Rectangle-Copy-36_3_" class="st26" d="M40,0L40,0c0.6,0,1,0.4,1,1v15c0,0.6-0.4,1-1,1l0,0c-0.6,0-1-0.4-1-1V1
								C39,0.4,39.4,0,40,0z"/>
							<path id="Rectangle-Copy-37_3_" class="st26" d="M43,10L43,10c0.6,0,1,0.4,1,1v5c0,0.6-0.4,1-1,1l0,0c-0.6,0-1-0.4-1-1v-5
								C42,10.4,42.4,10,43,10z"/>
							<path id="Rectangle-Copy-38_3_" class="st26" d="M46,9L46,9c0.6,0,1,0.4,1,1v6c0,0.6-0.4,1-1,1l0,0c-0.6,0-1-0.4-1-1v-6
								C45,9.4,45.4,9,46,9z"/>
							<path id="Rectangle-Copy-39_3_" class="st26" d="M49,12L49,12c0.6,0,1,0.4,1,1v3c0,0.6-0.4,1-1,1l0,0c-0.6,0-1-0.4-1-1v-3
								C48,12.4,48.4,12,49,12z"/>
							<path id="Rectangle-Copy-40_3_" class="st26" d="M52,9L52,9c0.6,0,1,0.4,1,1v6c0,0.6-0.4,1-1,1l0,0c-0.6,0-1-0.4-1-1v-6
								C51,9.4,51.4,9,52,9z"/>
							<path id="Rectangle-Copy-41_3_" class="st26" d="M55,4L55,4c0.6,0,1,0.4,1,1v11c0,0.6-0.4,1-1,1l0,0c-0.6,0-1-0.4-1-1V5
								C54,4.4,54.4,4,55,4z"/>
							<path id="Rectangle-Copy-42_3_" class="st26" d="M58,7L58,7c0.6,0,1,0.4,1,1v8c0,0.6-0.4,1-1,1l0,0c-0.6,0-1-0.4-1-1V8
								C57,7.4,57.4,7,58,7z"/>
							<path id="Rectangle-Copy-43_3_" class="st26" d="M62,9L62,9c0.6,0,1,0.4,1,1v6c0,0.6-0.4,1-1,1l0,0c-0.6,0-1-0.4-1-1v-6
								C61,9.4,61.4,9,62,9z"/>
							<path id="Rectangle-Copy-44_3_" class="st26" d="M65,11L65,11c0.6,0,1,0.4,1,1v4c0,0.6-0.4,1-1,1l0,0c-0.6,0-1-0.4-1-1v-4
								C64,11.4,64.4,11,65,11z"/>
							<path id="Rectangle-Copy-45_3_" class="st26" d="M68,12L68,12c0.6,0,1,0.4,1,1v3c0,0.6-0.4,1-1,1l0,0c-0.6,0-1-0.4-1-1v-3
								C67,12.4,67.4,12,68,12z"/>
						</g>
						<g id="Group-11-Copy-3" transform="translate(242.000000, 6.000000)">
							<path id="Rectangle-Copy-23_4_" class="st26" d="M0.5,16h1C1.8,16,2,16.2,2,16.5l0,0C2,16.8,1.8,17,1.5,17h-1
								C0.2,17,0,16.8,0,16.5l0,0C0,16.2,0.2,16,0.5,16z"/>
							<path id="Rectangle-Copy-24_4_" class="st26" d="M3.5,16h1C4.8,16,5,16.2,5,16.5l0,0C5,16.8,4.8,17,4.5,17h-1
								C3.2,17,3,16.8,3,16.5l0,0C3,16.2,3.2,16,3.5,16z"/>
							<path id="Rectangle-Copy-46_4_" class="st26" d="M70.5,16h1c0.3,0,0.5,0.2,0.5,0.5l0,0c0,0.3-0.2,0.5-0.5,0.5h-1
								c-0.3,0-0.5-0.2-0.5-0.5l0,0C70,16.2,70.2,16,70.5,16z"/>
							<path id="Rectangle-Copy-25_4_" class="st26" d="M6.5,16h1C7.8,16,8,16.2,8,16.5l0,0C8,16.8,7.8,17,7.5,17h-1
								C6.2,17,6,16.8,6,16.5l0,0C6,16.2,6.2,16,6.5,16z"/>
							<path id="Rectangle-Copy-47_4_" class="st26" d="M73.5,16h1c0.3,0,0.5,0.2,0.5,0.5l0,0c0,0.3-0.2,0.5-0.5,0.5h-1
								c-0.3,0-0.5-0.2-0.5-0.5l0,0C73,16.2,73.2,16,73.5,16z"/>
							<path id="Rectangle-Copy-26_4_" class="st26" d="M9.5,16h1c0.3,0,0.5,0.2,0.5,0.5l0,0c0,0.3-0.2,0.5-0.5,0.5h-1
								C9.2,17,9,16.8,9,16.5l0,0C9,16.2,9.2,16,9.5,16z"/>
							<path id="Rectangle-Copy-48_4_" class="st26" d="M76.5,16h1c0.3,0,0.5,0.2,0.5,0.5l0,0c0,0.3-0.2,0.5-0.5,0.5h-1
								c-0.3,0-0.5-0.2-0.5-0.5l0,0C76,16.2,76.2,16,76.5,16z"/>
							<path id="Rectangle-Copy-27_4_" class="st26" d="M13,14L13,14c0.6,0,1,0.4,1,1v1c0,0.6-0.4,1-1,1l0,0c-0.6,0-1-0.4-1-1v-1
								C12,14.4,12.4,14,13,14z"/>
							<path id="Rectangle-Copy-28_4_" class="st26" d="M16,11L16,11c0.6,0,1,0.4,1,1v4c0,0.6-0.4,1-1,1l0,0c-0.6,0-1-0.4-1-1v-4
								C15,11.4,15.4,11,16,11z"/>
							<path id="Rectangle-Copy-29_4_" class="st26" d="M19,11L19,11c0.6,0,1,0.4,1,1v4c0,0.6-0.4,1-1,1l0,0c-0.6,0-1-0.4-1-1v-4
								C18,11.4,18.4,11,19,11z"/>
							<path id="Rectangle-Copy-30_4_" class="st26" d="M22,5L22,5c0.6,0,1,0.4,1,1v10c0,0.6-0.4,1-1,1l0,0c-0.6,0-1-0.4-1-1V6
								C21,5.4,21.4,5,22,5z"/>
							<path id="Rectangle-Copy-31_4_" class="st26" d="M25,11L25,11c0.6,0,1,0.4,1,1v4c0,0.6-0.4,1-1,1l0,0c-0.6,0-1-0.4-1-1v-4
								C24,11.4,24.4,11,25,11z"/>
							<path id="Rectangle-Copy-32_4_" class="st26" d="M28,8L28,8c0.6,0,1,0.4,1,1v7c0,0.6-0.4,1-1,1l0,0c-0.6,0-1-0.4-1-1V9
								C27,8.4,27.4,8,28,8z"/>
							<path id="Rectangle-Copy-33_4_" class="st26" d="M31,11L31,11c0.6,0,1,0.4,1,1v4c0,0.6-0.4,1-1,1l0,0c-0.6,0-1-0.4-1-1v-4
								C30,11.4,30.4,11,31,11z"/>
							<path id="Rectangle-Copy-34_4_" class="st26" d="M34,10L34,10c0.6,0,1,0.4,1,1v5c0,0.6-0.4,1-1,1l0,0c-0.6,0-1-0.4-1-1v-5
								C33,10.4,33.4,10,34,10z"/>
							<path id="Rectangle-Copy-35_4_" class="st26" d="M37,3L37,3c0.6,0,1,0.4,1,1v12c0,0.6-0.4,1-1,1l0,0c-0.6,0-1-0.4-1-1V4
								C36,3.4,36.4,3,37,3z"/>
							<path id="Rectangle-Copy-36_4_" class="st26" d="M40,0L40,0c0.6,0,1,0.4,1,1v15c0,0.6-0.4,1-1,1l0,0c-0.6,0-1-0.4-1-1V1
								C39,0.4,39.4,0,40,0z"/>
							<path id="Rectangle-Copy-37_4_" class="st26" d="M43,10L43,10c0.6,0,1,0.4,1,1v5c0,0.6-0.4,1-1,1l0,0c-0.6,0-1-0.4-1-1v-5
								C42,10.4,42.4,10,43,10z"/>
							<path id="Rectangle-Copy-38_4_" class="st26" d="M46,9L46,9c0.6,0,1,0.4,1,1v6c0,0.6-0.4,1-1,1l0,0c-0.6,0-1-0.4-1-1v-6
								C45,9.4,45.4,9,46,9z"/>
							<path id="Rectangle-Copy-39_4_" class="st26" d="M49,12L49,12c0.6,0,1,0.4,1,1v3c0,0.6-0.4,1-1,1l0,0c-0.6,0-1-0.4-1-1v-3
								C48,12.4,48.4,12,49,12z"/>
							<path id="Rectangle-Copy-40_4_" class="st26" d="M52,9L52,9c0.6,0,1,0.4,1,1v6c0,0.6-0.4,1-1,1l0,0c-0.6,0-1-0.4-1-1v-6
								C51,9.4,51.4,9,52,9z"/>
							<path id="Rectangle-Copy-41_4_" class="st26" d="M55,4L55,4c0.6,0,1,0.4,1,1v11c0,0.6-0.4,1-1,1l0,0c-0.6,0-1-0.4-1-1V5
								C54,4.4,54.4,4,55,4z"/>
							<path id="Rectangle-Copy-42_4_" class="st26" d="M58,7L58,7c0.6,0,1,0.4,1,1v8c0,0.6-0.4,1-1,1l0,0c-0.6,0-1-0.4-1-1V8
								C57,7.4,57.4,7,58,7z"/>
							<path id="Rectangle-Copy-43_4_" class="st26" d="M62,9L62,9c0.6,0,1,0.4,1,1v6c0,0.6-0.4,1-1,1l0,0c-0.6,0-1-0.4-1-1v-6
								C61,9.4,61.4,9,62,9z"/>
							<path id="Rectangle-Copy-44_4_" class="st26" d="M65,11L65,11c0.6,0,1,0.4,1,1v4c0,0.6-0.4,1-1,1l0,0c-0.6,0-1-0.4-1-1v-4
								C64,11.4,64.4,11,65,11z"/>
							<path id="Rectangle-Copy-45_4_" class="st26" d="M68,12L68,12c0.6,0,1,0.4,1,1v3c0,0.6-0.4,1-1,1l0,0c-0.6,0-1-0.4-1-1v-3
								C67,12.4,67.4,12,68,12z"/>
						</g>
						<g id="Group-11-Copy-4" transform="translate(308.000000, 6.000000)">
							<path id="Rectangle-Copy-23_5_" class="st26" d="M0.5,16h1C1.8,16,2,16.2,2,16.5l0,0C2,16.8,1.8,17,1.5,17h-1
								C0.2,17,0,16.8,0,16.5l0,0C0,16.2,0.2,16,0.5,16z"/>
							<path id="Rectangle-Copy-24_5_" class="st26" d="M3.5,16h1C4.8,16,5,16.2,5,16.5l0,0C5,16.8,4.8,17,4.5,17h-1
								C3.2,17,3,16.8,3,16.5l0,0C3,16.2,3.2,16,3.5,16z"/>
							<path id="Rectangle-Copy-46_5_" class="st26" d="M70.5,16h1c0.3,0,0.5,0.2,0.5,0.5l0,0c0,0.3-0.2,0.5-0.5,0.5h-1
								c-0.3,0-0.5-0.2-0.5-0.5l0,0C70,16.2,70.2,16,70.5,16z"/>
							<path id="Rectangle-Copy-25_5_" class="st26" d="M6.5,16h1C7.8,16,8,16.2,8,16.5l0,0C8,16.8,7.8,17,7.5,17h-1
								C6.2,17,6,16.8,6,16.5l0,0C6,16.2,6.2,16,6.5,16z"/>
							<path id="Rectangle-Copy-47_5_" class="st26" d="M73.5,16h1c0.3,0,0.5,0.2,0.5,0.5l0,0c0,0.3-0.2,0.5-0.5,0.5h-1
								c-0.3,0-0.5-0.2-0.5-0.5l0,0C73,16.2,73.2,16,73.5,16z"/>
							<path id="Rectangle-Copy-26_5_" class="st26" d="M9.5,16h1c0.3,0,0.5,0.2,0.5,0.5l0,0c0,0.3-0.2,0.5-0.5,0.5h-1
								C9.2,17,9,16.8,9,16.5l0,0C9,16.2,9.2,16,9.5,16z"/>
							<path id="Rectangle-Copy-48_5_" class="st26" d="M76.5,16h1c0.3,0,0.5,0.2,0.5,0.5l0,0c0,0.3-0.2,0.5-0.5,0.5h-1
								c-0.3,0-0.5-0.2-0.5-0.5l0,0C76,16.2,76.2,16,76.5,16z"/>
							<path id="Rectangle-Copy-27_5_" class="st26" d="M13,14L13,14c0.6,0,1,0.4,1,1v1c0,0.6-0.4,1-1,1l0,0c-0.6,0-1-0.4-1-1v-1
								C12,14.4,12.4,14,13,14z"/>
							<path id="Rectangle-Copy-28_5_" class="st26" d="M16,11L16,11c0.6,0,1,0.4,1,1v4c0,0.6-0.4,1-1,1l0,0c-0.6,0-1-0.4-1-1v-4
								C15,11.4,15.4,11,16,11z"/>
							<path id="Rectangle-Copy-29_5_" class="st26" d="M19,11L19,11c0.6,0,1,0.4,1,1v4c0,0.6-0.4,1-1,1l0,0c-0.6,0-1-0.4-1-1v-4
								C18,11.4,18.4,11,19,11z"/>
							<path id="Rectangle-Copy-30_5_" class="st26" d="M22,5L22,5c0.6,0,1,0.4,1,1v10c0,0.6-0.4,1-1,1l0,0c-0.6,0-1-0.4-1-1V6
								C21,5.4,21.4,5,22,5z"/>
							<path id="Rectangle-Copy-31_5_" class="st26" d="M25,11L25,11c0.6,0,1,0.4,1,1v4c0,0.6-0.4,1-1,1l0,0c-0.6,0-1-0.4-1-1v-4
								C24,11.4,24.4,11,25,11z"/>
							<path id="Rectangle-Copy-32_5_" class="st26" d="M28,8L28,8c0.6,0,1,0.4,1,1v7c0,0.6-0.4,1-1,1l0,0c-0.6,0-1-0.4-1-1V9
								C27,8.4,27.4,8,28,8z"/>
							<path id="Rectangle-Copy-33_5_" class="st26" d="M31,11L31,11c0.6,0,1,0.4,1,1v4c0,0.6-0.4,1-1,1l0,0c-0.6,0-1-0.4-1-1v-4
								C30,11.4,30.4,11,31,11z"/>
							<path id="Rectangle-Copy-34_5_" class="st26" d="M34,10L34,10c0.6,0,1,0.4,1,1v5c0,0.6-0.4,1-1,1l0,0c-0.6,0-1-0.4-1-1v-5
								C33,10.4,33.4,10,34,10z"/>
							<path id="Rectangle-Copy-35_5_" class="st26" d="M37,3L37,3c0.6,0,1,0.4,1,1v12c0,0.6-0.4,1-1,1l0,0c-0.6,0-1-0.4-1-1V4
								C36,3.4,36.4,3,37,3z"/>
							<path id="Rectangle-Copy-36_5_" class="st26" d="M40,0L40,0c0.6,0,1,0.4,1,1v15c0,0.6-0.4,1-1,1l0,0c-0.6,0-1-0.4-1-1V1
								C39,0.4,39.4,0,40,0z"/>
							<path id="Rectangle-Copy-37_5_" class="st26" d="M43,10L43,10c0.6,0,1,0.4,1,1v5c0,0.6-0.4,1-1,1l0,0c-0.6,0-1-0.4-1-1v-5
								C42,10.4,42.4,10,43,10z"/>
							<path id="Rectangle-Copy-38_5_" class="st26" d="M46,9L46,9c0.6,0,1,0.4,1,1v6c0,0.6-0.4,1-1,1l0,0c-0.6,0-1-0.4-1-1v-6
								C45,9.4,45.4,9,46,9z"/>
							<path id="Rectangle-Copy-39_5_" class="st26" d="M49,12L49,12c0.6,0,1,0.4,1,1v3c0,0.6-0.4,1-1,1l0,0c-0.6,0-1-0.4-1-1v-3
								C48,12.4,48.4,12,49,12z"/>
							<path id="Rectangle-Copy-40_5_" class="st26" d="M52,9L52,9c0.6,0,1,0.4,1,1v6c0,0.6-0.4,1-1,1l0,0c-0.6,0-1-0.4-1-1v-6
								C51,9.4,51.4,9,52,9z"/>
							<path id="Rectangle-Copy-41_5_" class="st26" d="M55,4L55,4c0.6,0,1,0.4,1,1v11c0,0.6-0.4,1-1,1l0,0c-0.6,0-1-0.4-1-1V5
								C54,4.4,54.4,4,55,4z"/>
							<path id="Rectangle-Copy-42_5_" class="st26" d="M58,7L58,7c0.6,0,1,0.4,1,1v8c0,0.6-0.4,1-1,1l0,0c-0.6,0-1-0.4-1-1V8
								C57,7.4,57.4,7,58,7z"/>
							<path id="Rectangle-Copy-43_5_" class="st26" d="M62,9L62,9c0.6,0,1,0.4,1,1v6c0,0.6-0.4,1-1,1l0,0c-0.6,0-1-0.4-1-1v-6
								C61,9.4,61.4,9,62,9z"/>
							<path id="Rectangle-Copy-44_5_" class="st26" d="M65,11L65,11c0.6,0,1,0.4,1,1v4c0,0.6-0.4,1-1,1l0,0c-0.6,0-1-0.4-1-1v-4
								C64,11.4,64.4,11,65,11z"/>
							<path id="Rectangle-Copy-45_5_" class="st26" d="M68,12L68,12c0.6,0,1,0.4,1,1v3c0,0.6-0.4,1-1,1l0,0c-0.6,0-1-0.4-1-1v-3
								C67,12.4,67.4,12,68,12z"/>
						</g>
						<g id="Group-11-Copy-5" transform="translate(360.000000, 6.000000)">
							<path id="Rectangle-Copy-23_6_" class="st26" d="M0.5,16h1C1.8,16,2,16.2,2,16.5l0,0C2,16.8,1.8,17,1.5,17h-1
								C0.2,17,0,16.8,0,16.5l0,0C0,16.2,0.2,16,0.5,16z"/>
							<path id="Rectangle-Copy-24_6_" class="st26" d="M3.5,16h1C4.8,16,5,16.2,5,16.5l0,0C5,16.8,4.8,17,4.5,17h-1
								C3.2,17,3,16.8,3,16.5l0,0C3,16.2,3.2,16,3.5,16z"/>
							<path id="Rectangle-Copy-46_6_" class="st26" d="M70.5,16h1c0.3,0,0.5,0.2,0.5,0.5l0,0c0,0.3-0.2,0.5-0.5,0.5h-1
								c-0.3,0-0.5-0.2-0.5-0.5l0,0C70,16.2,70.2,16,70.5,16z"/>
							<path id="Rectangle-Copy-25_6_" class="st26" d="M6.5,16h1C7.8,16,8,16.2,8,16.5l0,0C8,16.8,7.8,17,7.5,17h-1
								C6.2,17,6,16.8,6,16.5l0,0C6,16.2,6.2,16,6.5,16z"/>
							<path id="Rectangle-Copy-47_6_" class="st26" d="M73.5,16h1c0.3,0,0.5,0.2,0.5,0.5l0,0c0,0.3-0.2,0.5-0.5,0.5h-1
								c-0.3,0-0.5-0.2-0.5-0.5l0,0C73,16.2,73.2,16,73.5,16z"/>
							<path id="Rectangle-Copy-26_6_" class="st26" d="M9.5,16h1c0.3,0,0.5,0.2,0.5,0.5l0,0c0,0.3-0.2,0.5-0.5,0.5h-1
								C9.2,17,9,16.8,9,16.5l0,0C9,16.2,9.2,16,9.5,16z"/>
							<path id="Rectangle-Copy-48_6_" class="st26" d="M76.5,16h1c0.3,0,0.5,0.2,0.5,0.5l0,0c0,0.3-0.2,0.5-0.5,0.5h-1
								c-0.3,0-0.5-0.2-0.5-0.5l0,0C76,16.2,76.2,16,76.5,16z"/>
							<path id="Rectangle-Copy-27_6_" class="st26" d="M13,14L13,14c0.6,0,1,0.4,1,1v1c0,0.6-0.4,1-1,1l0,0c-0.6,0-1-0.4-1-1v-1
								C12,14.4,12.4,14,13,14z"/>
							<path id="Rectangle-Copy-28_6_" class="st26" d="M16,11L16,11c0.6,0,1,0.4,1,1v4c0,0.6-0.4,1-1,1l0,0c-0.6,0-1-0.4-1-1v-4
								C15,11.4,15.4,11,16,11z"/>
							<path id="Rectangle-Copy-29_6_" class="st26" d="M19,11L19,11c0.6,0,1,0.4,1,1v4c0,0.6-0.4,1-1,1l0,0c-0.6,0-1-0.4-1-1v-4
								C18,11.4,18.4,11,19,11z"/>
							<path id="Rectangle-Copy-30_6_" class="st26" d="M22,5L22,5c0.6,0,1,0.4,1,1v10c0,0.6-0.4,1-1,1l0,0c-0.6,0-1-0.4-1-1V6
								C21,5.4,21.4,5,22,5z"/>
							<path id="Rectangle-Copy-31_6_" class="st26" d="M25,11L25,11c0.6,0,1,0.4,1,1v4c0,0.6-0.4,1-1,1l0,0c-0.6,0-1-0.4-1-1v-4
								C24,11.4,24.4,11,25,11z"/>
							<path id="Rectangle-Copy-32_6_" class="st26" d="M28,8L28,8c0.6,0,1,0.4,1,1v7c0,0.6-0.4,1-1,1l0,0c-0.6,0-1-0.4-1-1V9
								C27,8.4,27.4,8,28,8z"/>
							<path id="Rectangle-Copy-33_6_" class="st26" d="M31,11L31,11c0.6,0,1,0.4,1,1v4c0,0.6-0.4,1-1,1l0,0c-0.6,0-1-0.4-1-1v-4
								C30,11.4,30.4,11,31,11z"/>
							<path id="Rectangle-Copy-34_6_" class="st26" d="M34,10L34,10c0.6,0,1,0.4,1,1v5c0,0.6-0.4,1-1,1l0,0c-0.6,0-1-0.4-1-1v-5
								C33,10.4,33.4,10,34,10z"/>
							<path id="Rectangle-Copy-35_6_" class="st26" d="M37,3L37,3c0.6,0,1,0.4,1,1v12c0,0.6-0.4,1-1,1l0,0c-0.6,0-1-0.4-1-1V4
								C36,3.4,36.4,3,37,3z"/>
							<path id="Rectangle-Copy-36_6_" class="st26" d="M40,0L40,0c0.6,0,1,0.4,1,1v15c0,0.6-0.4,1-1,1l0,0c-0.6,0-1-0.4-1-1V1
								C39,0.4,39.4,0,40,0z"/>
							<path id="Rectangle-Copy-37_6_" class="st26" d="M43,10L43,10c0.6,0,1,0.4,1,1v5c0,0.6-0.4,1-1,1l0,0c-0.6,0-1-0.4-1-1v-5
								C42,10.4,42.4,10,43,10z"/>
							<path id="Rectangle-Copy-38_6_" class="st26" d="M46,9L46,9c0.6,0,1,0.4,1,1v6c0,0.6-0.4,1-1,1l0,0c-0.6,0-1-0.4-1-1v-6
								C45,9.4,45.4,9,46,9z"/>
							<path id="Rectangle-Copy-39_6_" class="st26" d="M49,12L49,12c0.6,0,1,0.4,1,1v3c0,0.6-0.4,1-1,1l0,0c-0.6,0-1-0.4-1-1v-3
								C48,12.4,48.4,12,49,12z"/>
							<path id="Rectangle-Copy-40_6_" class="st26" d="M52,9L52,9c0.6,0,1,0.4,1,1v6c0,0.6-0.4,1-1,1l0,0c-0.6,0-1-0.4-1-1v-6
								C51,9.4,51.4,9,52,9z"/>
							<path id="Rectangle-Copy-41_6_" class="st26" d="M55,4L55,4c0.6,0,1,0.4,1,1v11c0,0.6-0.4,1-1,1l0,0c-0.6,0-1-0.4-1-1V5
								C54,4.4,54.4,4,55,4z"/>
							<path id="Rectangle-Copy-42_6_" class="st26" d="M58,7L58,7c0.6,0,1,0.4,1,1v8c0,0.6-0.4,1-1,1l0,0c-0.6,0-1-0.4-1-1V8
								C57,7.4,57.4,7,58,7z"/>
							<path id="Rectangle-Copy-43_6_" class="st26" d="M62,9L62,9c0.6,0,1,0.4,1,1v6c0,0.6-0.4,1-1,1l0,0c-0.6,0-1-0.4-1-1v-6
								C61,9.4,61.4,9,62,9z"/>
							<path id="Rectangle-Copy-44_6_" class="st26" d="M65,11L65,11c0.6,0,1,0.4,1,1v4c0,0.6-0.4,1-1,1l0,0c-0.6,0-1-0.4-1-1v-4
								C64,11.4,64.4,11,65,11z"/>
							<path id="Rectangle-Copy-45_6_" class="st26" d="M68,12L68,12c0.6,0,1,0.4,1,1v3c0,0.6-0.4,1-1,1l0,0c-0.6,0-1-0.4-1-1v-3
								C67,12.4,67.4,12,68,12z"/>
						</g>
						<g id="Group-11-Copy-6" transform="translate(440.000000, 9.000000)">
							<path id="Rectangle-Copy-23_7_" class="st26" d="M0.5,13h1C1.8,13,2,13.2,2,13.5l0,0C2,13.8,1.8,14,1.5,14h-1
								C0.2,14,0,13.8,0,13.5l0,0C0,13.2,0.2,13,0.5,13z"/>
							<path id="Rectangle-Copy-24_7_" class="st26" d="M3.5,13h1C4.8,13,5,13.2,5,13.5l0,0C5,13.8,4.8,14,4.5,14h-1
								C3.2,14,3,13.8,3,13.5l0,0C3,13.2,3.2,13,3.5,13z"/>
							<path id="Rectangle-Copy-25_7_" class="st26" d="M6.5,13h1C7.8,13,8,13.2,8,13.5l0,0C8,13.8,7.8,14,7.5,14h-1
								C6.2,14,6,13.8,6,13.5l0,0C6,13.2,6.2,13,6.5,13z"/>
							<path id="Rectangle-Copy-26_7_" class="st26" d="M9.5,13h1c0.3,0,0.5,0.2,0.5,0.5l0,0c0,0.3-0.2,0.5-0.5,0.5h-1
								C9.2,14,9,13.8,9,13.5l0,0C9,13.2,9.2,13,9.5,13z"/>
							<path id="Rectangle-Copy-27_7_" class="st26" d="M13,11L13,11c0.6,0,1,0.4,1,1v1c0,0.6-0.4,1-1,1l0,0c-0.6,0-1-0.4-1-1v-1
								C12,11.4,12.4,11,13,11z"/>
							<path id="Rectangle-Copy-28_7_" class="st26" d="M16,8L16,8c0.6,0,1,0.4,1,1v4c0,0.6-0.4,1-1,1l0,0c-0.6,0-1-0.4-1-1V9
								C15,8.4,15.4,8,16,8z"/>
							<path id="Rectangle-Copy-29_7_" class="st26" d="M19,8L19,8c0.6,0,1,0.4,1,1v4c0,0.6-0.4,1-1,1l0,0c-0.6,0-1-0.4-1-1V9
								C18,8.4,18.4,8,19,8z"/>
							<path id="Rectangle-Copy-30_7_" class="st26" d="M22,2L22,2c0.6,0,1,0.4,1,1v10c0,0.6-0.4,1-1,1l0,0c-0.6,0-1-0.4-1-1V3
								C21,2.4,21.4,2,22,2z"/>
							<path id="Rectangle-Copy-31_7_" class="st26" d="M25,8L25,8c0.6,0,1,0.4,1,1v4c0,0.6-0.4,1-1,1l0,0c-0.6,0-1-0.4-1-1V9
								C24,8.4,24.4,8,25,8z"/>
							<path id="Rectangle-Copy-32_7_" class="st26" d="M28,5L28,5c0.6,0,1,0.4,1,1v7c0,0.6-0.4,1-1,1l0,0c-0.6,0-1-0.4-1-1V6
								C27,5.4,27.4,5,28,5z"/>
							<path id="Rectangle-Copy-33_7_" class="st26" d="M31,8L31,8c0.6,0,1,0.4,1,1v4c0,0.6-0.4,1-1,1l0,0c-0.6,0-1-0.4-1-1V9
								C30,8.4,30.4,8,31,8z"/>
						</g>
					</g>
					<g id="Group-41" transform="translate(212.000000, 111.000000)">
						<g id="Group-40" transform="translate(28.000000, 0.000000)">
							<path id="Rectangle_14_" class="st27" d="M14.5,0.2h11c7.9,0,14.2,6.4,14.2,14.2l0,0c0,7.9-6.4,14.2-14.2,14.2h-11
								c-7.9,0-14.2-6.4-14.2-14.2l0,0C0.2,6.6,6.6,0.2,14.5,0.2z"/>
							<polygon id="Triangle" class="st28" points="26,14.5 15,20 15,9 							"/>
						</g>
					</g>
				</g>
				<line id="Path-3" class="st29" x1="20.3" y1="146" x2="500" y2="146"/>
			</g>
			<path id="Rectangle_15_" class="st30" d="M25.4,79.5h461.9c2.7,0,4.9,2.2,4.9,5v15c0,2.8-2.2,5-4.9,5H25.4c-2.7,0-4.9-2.2-4.9-5
				v-15C20.5,81.7,22.7,79.5,25.4,79.5z"/>
			<g id="Group-39" transform="translate(204.000000, 75.000000)">
				<circle id="Oval_3_" class="st31" cx="4.5" cy="4.5" r="4.5"/>
				<rect id="Rectangle_16_" x="4" y="6" class="st19" width="1" height="24"/>
				<circle id="Oval-Copy-2" class="st19" cx="4.5" cy="4.5" r="2.5"/>
			</g>
		</g>
	</g>
</g>
</svg>
