<svg xmlns="http://www.w3.org/2000/svg" width="484" height="120" viewBox="0 0 484 120">
    <defs>
        <style>
            .cls-2{fill:#005386}
        </style>
    </defs>
    <g id="posco_로고" transform="translate(-638 -1492)">
        <g id="그룹_209" transform="translate(-68)">
            <g id="그룹_128" transform="translate(706 1492)">
                <rect id="사각형_106" width="484" height="120" fill="#fff" rx="6"/>
            </g>
        </g>
        <g id="그룹_210" transform="translate(556.848 933.1)">
            <path id="패스_69" d="M409.5 616.652c-5.543 15.584-18.731 25.178-35.667 25.178-20.978 0-37.465-16.038-37.465-37.465 0-21.582 16.487-37.465 37.465-37.465 17.385 0 31.923 10.94 36.566 26.374.9 4.2-.449 4.645-2.7 5.094a13.239 13.239 0 0 1-8.241-1.35c-2.4-1.347-6-6.443-6-6.443a22.391 22.391 0 0 0-19.633-10.94c-13.188 0-24.276 11.391-24.276 24.729 0 13.187 11.087 24.574 24.276 24.574 9.143 0 16.487-4.944 20.981-12.287a13.09 13.09 0 0 1 7.792-5.545c6-1.348 7.344.449 7.344.449s1.347.452-.45 5.1z" class="cls-2" transform="translate(28.934)"/>
            <path id="패스_70" d="M234.308 579.636c13.338 0 24.278 11.391 24.278 24.729 0 13.187-10.94 24.574-24.278 24.574v12.891c21.13 0 37.465-16.038 37.465-37.465 0-21.582-16.335-37.465-37.465-37.465zm0 0zm0-12.736v62.04c-13.187 0-24.127-11.387-24.127-24.574 0-13.338 10.94-24.729 24.127-24.729V566.9c-20.98 0-37.465 15.883-37.465 37.465 0 21.427 16.485 37.465 37.465 37.465v-12.89zm0-49.3zm0-12.736" class="cls-2" transform="translate(9.911)"/>
            <path id="패스_71" d="M445.844 579.636c13.187 0 24.127 11.391 24.127 24.729 0 13.187-10.94 24.574-24.127 24.574v12.891c20.979 0 37.464-16.038 37.464-37.465 0-21.582-16.485-37.465-37.464-37.465zm0 0V566.9c-21.131 0-37.465 15.883-37.465 37.465 0 21.427 16.334 37.465 37.465 37.465v-12.89c-13.34 0-24.279-11.387-24.279-24.574 0-13.338 10.94-24.729 24.279-24.729z" class="cls-2" transform="translate(38.751)"/>
            <path id="패스_72" d="M320.494 611.107c4.646.449 5.545 2.4 4.2 5.994-2.7 6.894-12.288 12.288-20.98 12.288-10.041 0-15.136-4.942-19.183-9.142-3.745-4.045-11.088-4.5-13.337-3.6s-1.348 4.5-.45 6.444c6.444 11.838 19.631 18.734 32.521 18.734 13.637.446 25.477-6.443 32.819-17.835 6.894-11.391 4.047-25.627-12.289-25.627l-36.565-.449c-5.544 0-5.994-3.149-4.645-6.893 3.746-6.744 11.988-11.839 22.029-11.839 9.592 0 14.537 5.994 17.835 9.141 3.6 3.145 10.49 4.046 13.636 2.7 1.8-.9 1.349-3.149 0-5.845-5.999-11.536-19.185-18.278-32.375-18.278-11.54 0-24.278 4.943-32.07 16.784-6.294 10.19-5.845 26.975 16.934 26.975z" class="cls-2" transform="translate(19.635)"/>
            <path id="패스_73" d="M161.646 641.83c20.98 0 37.465-16.038 37.465-37.465 0-21.582-16.485-37.465-37.465-37.465v12.736c13.188 0 24.128 10.94 24.128 24.729 0 13.187-10.94 24.574-24.128 24.574zm0-74.93c-21.129 0-37.465 15.883-37.465 37.465v49.6s-.449 6.443 2.248 10.94c2.249 3.146 5.545 5.545 8.693 5.992 2.248-.447 2.7-3.3 2.7-3.3v-34.011a39.15 39.15 0 0 0 23.827 8.244v-12.89c-13.337 0-24.277-11.387-24.277-24.574a24.467 24.467 0 0 1 24.277-24.729V566.9z" class="cls-2"/>
        </g>
    </g>
</svg>
