<svg width="19" height="17" xmlns="http://www.w3.org/2000/svg" xmlns:xlink="http://www.w3.org/1999/xlink">
    <defs>
        <path d="m10.902 0-.02.002c-.01 0-.02.002-.029.004l-.011.002a.233.233 0 0 0-.088.044c-.51.376-1.759.43-2.199.42H8.54C7.5.507 6.474.096 6.314.03A.222.222 0 0 0 6.203 0h-.017c-.302.01-2.971.121-3.705 1.22C1.788 2.262.184 11.756.003 12.836A.242.242 0 0 0 0 12.87v.01a.241.241 0 0 0 .2.232l2.484.428a.24.24 0 0 0 .278-.195l.847-4.743c-.087 1.748-.17 3.238-.206 3.406-.088.398-.13 2.892-.134 3.175a.24.24 0 0 0 .235.245l4.763.125c.015.003.03.004.046.003h.079a.236.236 0 0 0 .04-.003l4.763-.125a.241.241 0 0 0 .234-.245c-.004-.283-.046-2.777-.134-3.174-.035-.169-.119-1.659-.206-3.407l.847 4.743a.24.24 0 0 0 .278.195l2.484-.428a.241.241 0 0 0 .197-.277c-.18-1.08-1.785-10.574-2.478-11.614C13.883.12 11.214.009 10.912 0h-.01zM8.525 2.294l.138-.003h.01c.218 0 1.828-.06 2.408-1.8.86.05 2.666.296 3.134.998.473.71 1.657 6.99 2.365 11.19l-2.012.346-1.456-8.157a.24.24 0 0 0-.478.053c.03.694.303 6.798.39 7.193.055.244.1 1.78.12 2.84l-4.595.12-4.594-.12c.02-1.06.064-2.596.119-2.84.087-.395.36-6.499.39-7.193a.241.241 0 0 0-.214-.25.242.242 0 0 0-.263.197L2.53 13.024l-2.011-.346c.707-4.2 1.89-10.48 2.364-11.19C3.35.786 5.159.541 6.018.49c.178.506.8 1.802 2.507 1.803zM6.604.649c.434.14 1.1.307 1.8.307.049 0 .098-.001.146-.003.112.003 1.126.017 1.912-.235-.588 1.12-1.737 1.093-1.792 1.09h-.02a2.932 2.932 0 0 1-.122.003c-1.137 0-1.682-.682-1.924-1.162z" id="a"/>
        <path d="m1.312.07-.45.451-.45-.45a.24.24 0 1 0-.34.34H.07l.45.451-.45.45a.241.241 0 0 0 0 .342.24.24 0 0 0 .34 0l.451-.451.45.45a.24.24 0 0 0 .34 0h.001a.24.24 0 0 0 0-.34l-.45-.45.45-.452a.24.24 0 0 0 0-.34.24.24 0 0 0-.34 0z" id="c"/>
        <path d="m1.312.07-.45.451-.45-.45a.24.24 0 1 0-.34.34H.07l.45.451-.45.45a.241.241 0 0 0 0 .342.24.24 0 0 0 .34 0l.451-.451.45.45a.24.24 0 0 0 .34 0h.001a.24.24 0 0 0 0-.34l-.45-.45.45-.452a.24.24 0 0 0 0-.34.24.24 0 0 0-.34 0z" id="e"/>
        <path d="m1.313.07-.45.451L.41.071a.241.241 0 0 0-.34.34l.45.451-.45.45a.24.24 0 0 0 .17.412.24.24 0 0 0 .17-.07l.451-.451.45.45a.24.24 0 0 0 .34 0h.001a.241.241 0 0 0 0-.34l-.45-.45.45-.452A.24.24 0 0 0 1.483 0a.24.24 0 0 0-.17.07z" id="g"/>
        <path d="m1.313.07-.45.451L.41.071a.241.241 0 0 0-.34.34l.45.451-.45.45a.24.24 0 0 0 .17.412.24.24 0 0 0 .17-.07l.451-.451.45.45a.24.24 0 0 0 .34 0h.001a.241.241 0 0 0 0-.34l-.45-.45.45-.452A.24.24 0 0 0 1.483 0a.24.24 0 0 0-.17.07z" id="i"/>
        <path d="m1.312.07-.45.451-.45-.45a.24.24 0 1 0-.34.34H.07l.45.451-.45.45a.24.24 0 0 0 .17.411v.001a.24.24 0 0 0 .17-.07l.45-.451.451.45a.24.24 0 0 0 .34 0h.001a.241.241 0 0 0 0-.34l-.45-.45.45-.452A.24.24 0 0 0 1.483 0a.24.24 0 0 0-.17.07z" id="k"/>
        <path d="m1.312.07-.45.451-.45-.45a.24.24 0 1 0-.34.34H.07l.45.451-.45.45a.24.24 0 0 0 .17.411v.001a.24.24 0 0 0 .17-.07l.45-.451.451.45a.24.24 0 0 0 .34 0h.001a.241.241 0 0 0 0-.34l-.45-.45.45-.452A.24.24 0 0 0 1.483 0a.24.24 0 0 0-.17.07z" id="m"/>
        <path id="o" d="M0 0h7.913v7.627H0z"/>
    </defs>
    <g fill="none" fill-rule="evenodd">
        <g>
            <mask id="b" fill="#fff">
                <use xlink:href="#a"/>
            </mask>
            <path fill="#344154" mask="url(#b)" d="M-.476 16.033h18.05V-.477H-.476z"/>
        </g>
        <path d="M6.966 6.451a.24.24 0 0 0-.341 0l-.45.451-.451-.45a.24.24 0 1 0-.34.34l.45.45-.45.451a.24.24 0 1 0 .34.341l.45-.45.451.45a.24.24 0 0 0 .34 0 .24.24 0 0 0 0-.34l-.45-.451.45-.45a.24.24 0 0 0 0-.342" fill="#344154"/>
        <g transform="translate(5.312 6.38)">
            <mask id="d" fill="#fff">
                <use xlink:href="#c"/>
            </mask>
            <path fill="#344154" mask="url(#d)" d="M-5.312 10.197h17.15v-17.15h-17.15z"/>
        </g>
        <g transform="translate(5.312 6.38)">
            <mask id="f" fill="#fff">
                <use xlink:href="#e"/>
            </mask>
            <path fill="#344154" mask="url(#f)" d="M-.476 2.2H2.2V-.476H-.476z"/>
        </g>
        <path d="M9.278 6.451a.241.241 0 0 0-.34 0l-.451.451-.45-.45a.24.24 0 1 0-.341.34l.45.45-.45.451a.241.241 0 0 0 .34.341l.451-.45.45.45a.24.24 0 0 0 .341 0 .241.241 0 0 0 0-.34l-.45-.451.45-.45a.241.241 0 0 0 0-.342" fill="#344154"/>
        <g transform="translate(7.625 6.38)">
            <mask id="h" fill="#fff">
                <use xlink:href="#g"/>
            </mask>
            <path fill="#344154" mask="url(#h)" d="M-7.625 10.197h17.15v-17.15h-17.15z"/>
        </g>
        <g transform="translate(7.625 6.38)">
            <mask id="j" fill="#fff">
                <use xlink:href="#i"/>
            </mask>
            <path fill="#344154" mask="url(#j)" d="M-.476 2.2H2.2V-.476H-.476z"/>
        </g>
        <path d="m11.269 7.243.45-.45a.241.241 0 0 0-.34-.342l-.451.451-.45-.45a.241.241 0 0 0-.341.34l.45.45-.45.451a.24.24 0 1 0 .34.341l.45-.45.451.45a.24.24 0 1 0 .341-.34l-.45-.451z" fill="#344154"/>
        <g transform="translate(10.066 6.38)">
            <mask id="l" fill="#fff">
                <use xlink:href="#k"/>
            </mask>
            <path fill="#344154" mask="url(#l)" d="M-10.066 10.197h17.15v-17.15h-17.15z"/>
        </g>
        <g transform="translate(10.066 6.38)">
            <mask id="n" fill="#fff">
                <use xlink:href="#m"/>
            </mask>
            <path fill="#344154" mask="url(#n)" d="M-.476 2.2H2.2V-.476H-.476z"/>
        </g>
        <path d="M12.785 14.378h4.552a.252.252 0 0 1 0 .505h-4.552a.253.253 0 0 1 0-.505m3.441-1.154c0 .14-.113.253-.252.253h-3.19a.253.253 0 0 1 0-.506h3.19c.139 0 .252.113.252.253m-3.441-1.388h4.552a.252.252 0 0 1 0 .504h-4.552a.253.253 0 0 1 0-.504m5.77 3.1v-3.131c0-.638-.519-1.157-1.157-1.157h-4.757a.223.223 0 0 1-.155-.063l-.953-.925v5.276c0 .638.519 1.157 1.157 1.157h4.708c.638 0 1.157-.519 1.157-1.157" fill="#FFF"/>
        <g transform="translate(11.087 8.91)">
            <mask id="p" fill="#fff">
                <use xlink:href="#o"/>
            </mask>
            <path d="M7.467 6.026c0 .637-.518 1.156-1.156 1.156H1.602A1.158 1.158 0 0 1 .445 6.026V.749l.953.926c.042.04.097.063.155.063h4.758c.638 0 1.156.518 1.156 1.156v3.132zM6.311 1.292H1.643L.378.062A.223.223 0 0 0 0 .223v5.804a1.603 1.603 0 0 0 1.602 1.601h4.709a1.603 1.603 0 0 0 1.602-1.602v-3.13c0-.884-.719-1.603-1.602-1.603z" fill="#344154" mask="url(#p)"/>
        </g>
        <path d="M12.785 12.34h4.552a.252.252 0 0 0 0-.504h-4.552a.253.253 0 0 0 0 .504M12.785 12.971a.253.253 0 0 0 0 .506h3.189a.253.253 0 0 0 0-.506h-3.19zM12.785 14.883h4.552a.252.252 0 0 0 0-.505h-4.552a.253.253 0 0 0 0 .505" fill="#F7778A"/>
    </g>
</svg>
