<?xml version="1.0" encoding="UTF-8"?>
<svg width="19px" height="19px" viewBox="0 0 19 19" version="1.1" xmlns="http://www.w3.org/2000/svg" xmlns:xlink="http://www.w3.org/1999/xlink">
    <title>Group 35</title>
    <defs>
        <polygon id="path-1" points="0 0 11.2952759 0 11.2952759 2.84343209 0 2.84343209"></polygon>
        <polygon id="path-3" points="-1.0242376e-15 0 13.7069489 0 13.7069489 17.5185498 -1.0242376e-15 17.5185498"></polygon>
    </defs>
    <g id="Page-1" stroke="none" stroke-width="1" fill="none" fill-rule="evenodd">
        <g id="낚시성-뉴스-분류-4" transform="translate(-559.000000, -976.000000)">
            <g id="Group-35" transform="translate(559.000000, 976.000000)">
                <path d="M1.24808206,7.09318336 C0.95964066,7.09318336 0.724245951,7.32584724 0.724245951,7.61168737 L0.724245951,13.6794816 C0.724245951,13.9647515 0.95964066,14.197558 1.24808206,14.197558 L10.0467702,14.197558 C10.335644,14.197558 10.5710387,13.9647515 10.5710387,13.6794816 L10.5710387,7.61168737 C10.5710387,7.32584724 10.335644,7.09318336 10.0467702,7.09318336 L1.24808206,7.09318336 Z M10.0467702,14.6839851 L1.24808206,14.6839851 C0.687776348,14.6839851 0.232410833,14.233484 0.232410833,13.6794816 L0.232410833,7.61168737 C0.232410833,7.05754244 0.687776348,6.6066136 1.24808206,6.6066136 L10.0467702,6.6066136 C10.6069317,6.6066136 11.0628738,7.05754244 11.0628738,7.61168737 L11.0628738,13.6794816 C11.0628738,14.233484 10.6069317,14.6839851 10.0467702,14.6839851 L10.0467702,14.6839851 Z" id="Fill-1" fill="#344154"></path>
                <path d="M1.24808206,7.2001061 C1.01888575,7.2001061 0.832357422,7.38472603 0.832357422,7.61168737 L0.832357422,13.6794816 C0.832357422,13.9061578 1.01888575,14.0906352 1.24808206,14.0906352 L10.0467702,14.0906352 C10.2762548,14.0906352 10.4629272,13.9061578 10.4629272,13.6794816 L10.4629272,7.61168737 C10.4629272,7.38472603 10.2762548,7.2001061 10.0467702,7.2001061 L1.24808206,7.2001061 Z M10.0467702,14.3044807 L1.24808206,14.3044807 C0.899674831,14.3044807 0.61613448,14.024058 0.61613448,13.6794816 L0.61613448,7.61168737 C0.61613448,7.26682589 0.899674831,6.98626062 1.24808206,6.98626062 L10.0467702,6.98626062 C10.3954657,6.98626062 10.6791502,7.26682589 10.6791502,7.61168737 L10.6791502,13.6794816 C10.6791502,14.024058 10.3954657,14.3044807 10.0467702,14.3044807 L10.0467702,14.3044807 Z M1.24808206,6.71353634 C0.747598029,6.71353634 0.340522304,7.11642123 0.340522304,7.61168737 L0.340522304,13.6794816 C0.340522304,14.1744626 0.747598029,14.5770624 1.24808206,14.5770624 L10.0467702,14.5770624 C10.5475425,14.5770624 10.9547624,14.1744626 10.9547624,13.6794816 L10.9547624,7.61168737 C10.9547624,7.11642123 10.5475425,6.71353634 10.0467702,6.71353634 L1.24808206,6.71353634 Z M10.0467702,14.7909079 L1.24808206,14.7909079 C0.628387113,14.7909079 0.124299362,14.2923628 0.124299362,13.6794816 L0.124299362,7.61168737 C0.124299362,6.99852109 0.628387113,6.49969086 1.24808206,6.49969086 L10.0467702,6.49969086 C10.6666093,6.49969086 11.1709853,6.99852109 11.1709853,7.61168737 L11.1709853,13.6794816 C11.1709853,14.2923628 10.6666093,14.7909079 10.0467702,14.7909079 L10.0467702,14.7909079 Z" id="Fill-3" fill="#344154"></path>
                <path d="M8.75423266,15.8591659 L2.54056191,15.8591659 C2.45897378,15.8591659 2.38271916,15.8196757 2.33702404,15.7525283 C2.29104063,15.685951 2.28152682,15.6012682 2.31179803,15.5262797 L2.78186671,14.3511275 C2.83145384,14.2260992 2.97517002,14.1639414 3.10115592,14.2145515 C3.22771842,14.2641637 3.28955818,14.4053017 3.23939445,14.53033 L2.90280741,15.3725961 L8.39198716,15.3725961 L8.05540011,14.53033 C8.00538054,14.4053017 8.06707615,14.2641637 8.1934945,14.2145515 C8.32005699,14.1639414 8.46319658,14.2260992 8.51292786,14.3511275 L8.98299653,15.5262797 C9.01341189,15.6012682 9.00375393,15.685951 8.95777052,15.7525283 C8.91221956,15.8196757 8.83567663,15.8591659 8.75423266,15.8591659" id="Fill-5" fill="#344154"></path>
                <path d="M3.00982335,14.3039247 C2.99166062,14.3039247 2.97364204,14.3074888 2.95634421,14.3149021 C2.92232513,14.3294436 2.89609008,14.356103 2.88254011,14.3900331 L2.41218314,15.5657556 C2.3951736,15.6078119 2.4005071,15.6550005 2.4263097,15.692067 C2.45211231,15.7301315 2.49463615,15.7522289 2.54047542,15.7522289 L8.75429032,15.7522289 C8.80027373,15.7522289 8.84279758,15.7301315 8.86816773,15.6929224 C8.89425864,15.6550005 8.89944799,15.6078119 8.8825826,15.5661833 L8.41251392,14.3903183 C8.3988198,14.356103 8.37258475,14.3294436 8.33856568,14.3149021 C8.30469075,14.3005032 8.26764455,14.3003606 8.23405792,14.313619 C8.16270435,14.3417041 8.12796453,14.4209695 8.15592936,14.4909682 L8.5508966,15.4795046 L2.74386913,15.4795046 L3.13898052,14.4909682 C3.15253049,14.4570381 3.1519539,14.419829 3.13739489,14.3866116 C3.12269173,14.3532517 3.09573593,14.3274477 3.06128441,14.3139042 C3.04456317,14.3072037 3.02712118,14.3039247 3.00982335,14.3039247 M8.75429032,15.9660744 L2.54047542,15.9660744 C2.42241769,15.9660744 2.31286473,15.9086212 2.24742126,15.8121056 C2.18140119,15.7167305 2.16770707,15.5948386 2.2113841,15.4866328 L2.68145278,14.3117657 C2.71604845,14.2243742 2.78336586,14.1556585 2.87100822,14.1184494 C2.95821814,14.0813828 3.05422113,14.0805275 3.14186349,14.1154556 C3.22907341,14.1496708 3.29826475,14.2158204 3.3357434,14.3016437 C3.37322204,14.387467 3.37480768,14.4826995 3.33992371,14.5696634 L3.06171686,15.2656591 L8.23304888,15.2656591 L7.95498618,14.5695208 C7.88305601,14.3901757 7.97213986,14.1863097 8.15376713,14.1151704 C8.24068876,14.0805275 8.33698004,14.0813828 8.42404581,14.1184494 C8.51139988,14.1556585 8.57871729,14.2243742 8.61360126,14.3120508 L9.08352578,15.4869179 C9.12720282,15.594696 9.11365285,15.716588 9.04705618,15.812961 C8.98204515,15.9086212 8.87234804,15.9660744 8.75429032,15.9660744" id="Fill-7" fill="#344154"></path>
                <path d="M1.44545037,16.7499178 L0.616019161,18.2298711 C0.586180395,18.2834751 0.607514392,18.3305211 0.618037242,18.3480564 C0.630722321,18.3700112 0.661570128,18.4065075 0.721391808,18.4065075 L10.5735181,18.4065075 C10.6357903,18.4065075 10.6666381,18.3655917 10.6773051,18.3480564 C10.6904226,18.3261016 10.7077204,18.2814792 10.6788907,18.2298711 L9.84945952,16.7499178 L1.44545037,16.7499178 Z M10.5735181,18.8930773 L0.721391808,18.8930773 C0.502141745,18.8930773 0.305378868,18.7820202 0.193951979,18.5952618 C0.0826692381,18.408646 0.0794979683,18.1839656 0.18544721,17.9942134 L1.08565539,16.3886615 C1.12861168,16.3115346 1.2110647,16.2634906 1.30072514,16.2634906 L9.99418474,16.2634906 C10.083701,16.2634906 10.1661541,16.3115346 10.2092545,16.3886615 L11.1088861,17.9937857 C11.2157002,18.1833954 11.2126731,18.4080757 11.1012462,18.5946915 C10.9901076,18.7820202 10.7927681,18.8930773 10.5735181,18.8930773 L10.5735181,18.8930773 Z" id="Fill-9" fill="#344154"></path>
                <g id="Group-13" transform="translate(0.000000, 16.156568)">
                    <mask id="mask-2" fill="white">
                        <use xlink:href="#path-1"></use>
                    </mask>
                    <g id="Clip-12"></g>
                    <path d="M1.50907757,0.700272672 L0.71063832,2.12505384 L0.721305319,2.14301686 L10.5735757,2.14301686 L10.6788042,2.07330323 L10.5842427,2.12505384 L9.78580348,0.700272672 L1.50907757,0.700272672 Z M10.5735757,2.35686234 L0.721305319,2.35686234 C0.638419858,2.35686234 0.56461576,2.31480606 0.524109996,2.24437962 C0.483315934,2.17651932 0.481874448,2.09269189 0.521227023,2.02183775 L1.38179433,0.48642719 L9.91308672,0.48642719 L10.7735099,2.02155262 C10.8135832,2.09326214 10.81243,2.17509368 10.7704828,2.24580525 C10.727094,2.31680195 10.6555963,2.35686234 10.5735757,2.35686234 L10.5735757,2.35686234 Z M1.3007828,0.213845482 C1.25047493,0.213845482 1.20434737,0.240504885 1.1804187,0.283559109 L0.280066369,1.88939612 C0.192856449,2.04564588 0.195451125,2.2306935 0.287129652,2.38437712 C0.378664031,2.53806074 0.540975385,2.62958661 0.721305319,2.62958661 L10.5735757,2.62958661 C10.7543381,2.62958661 10.9167936,2.53791818 11.0080397,2.384092 C11.0998624,2.22998069 11.1023129,2.04507563 11.0143822,1.88925355 L10.1146065,0.283844236 C10.0905337,0.240504885 10.0444061,0.213845482 9.99409825,0.213845482 L1.3007828,0.213845482 Z M10.5735757,2.84343209 L0.721305319,2.84343209 C0.463711721,2.84343209 0.231776579,2.71241609 0.100889625,2.49301063 C-0.0299973295,2.27360516 -0.0337451938,2.00929215 0.0907992207,1.7858949 L0.991007402,0.180343023 C1.05299131,0.0691433725 1.17162563,0 1.3007828,0 L9.99409825,0 C10.1231113,0 10.2417456,0.0690008089 10.3038737,0.180485587 L11.2035052,1.78532465 C11.3289145,2.00815164 11.3257433,2.27246466 11.1942797,2.49244037 C11.0639694,2.71213097 10.8318901,2.84343209 10.5735757,2.84343209 L10.5735757,2.84343209 Z" id="Fill-11" fill="#344154" mask="url(#mask-2)"></path>
                </g>
                <path d="M18.6460142,17.4116413 L11.6565355,17.4116413 C11.5203151,17.4116413 11.410618,17.3030078 11.410618,17.1684277 C11.410618,17.0338476 11.5203151,16.9252141 11.6565355,16.9252141 L18.4000967,16.9252141 L18.4000967,0.593264393 L8.34745965,0.593264393 L5.89304096,3.02069574 L5.89304096,6.1357116 C5.89304096,6.27043425 5.78334385,6.37892519 5.6471234,6.37892519 C5.5110471,6.37892519 5.40120584,6.27043425 5.40120584,6.1357116 L5.40120584,2.92018836 C5.40120584,2.85546446 5.42700845,2.79344928 5.47299186,2.74797147 L8.07170332,0.177833903 C8.11768673,0.132356097 8.18039139,0.106837203 8.24583486,0.106837203 L18.6460142,0.106837203 C18.7820905,0.106837203 18.8919318,0.215470708 18.8919318,0.350050798 L18.8919318,17.1684277 C18.8919318,17.3030078 18.7820905,17.4116413 18.6460142,17.4116413" id="Fill-14" fill="#344154"></path>
                <g id="Group-18" transform="translate(5.293051, 0.000000)">
                    <mask id="mask-4" fill="white">
                        <use xlink:href="#path-3"></use>
                    </mask>
                    <g id="Clip-17"></g>
                    <path d="M6.36344118,17.0321226 C6.28747485,17.0321226 6.22563509,17.0932824 6.22563509,17.1684134 C6.22563509,17.2435445 6.28747485,17.3047043 6.36344118,17.3047043 L13.3529198,17.3047043 C13.4290303,17.3047043 13.4907259,17.2435445 13.4907259,17.1684134 L13.4907259,0.350036541 C13.4907259,0.274905495 13.4290303,0.213745687 13.3529198,0.213745687 L2.95274049,0.213745687 C2.91612674,0.213745687 2.88052203,0.22828718 2.85500772,0.253520947 L0.256440409,2.82351595 C0.230926102,2.84874972 0.216222942,2.88396294 0.216222942,2.92017411 L0.216222942,6.13569734 C0.216222942,6.21097095 0.278062703,6.27198819 0.354173179,6.27198819 C0.430139506,6.27198819 0.491979267,6.21097095 0.491979267,6.13569734 L0.491979267,2.97634419 L3.00953505,0.486327395 L13.2151138,0.486327395 L13.2151138,17.0321226 L6.36344118,17.0321226 Z M13.3529198,17.5185498 L6.36344118,17.5185498 C6.16826393,17.5185498 6.00941215,17.3615872 6.00941215,17.1684134 C6.00941215,16.9753823 6.16826393,16.8182771 6.36344118,16.8182771 L12.9988908,16.8182771 L12.9988908,0.700172877 L3.09905135,0.700172877 L0.708202209,3.06487622 L0.708202209,6.13569734 C0.708202209,6.32887109 0.549350421,6.48583367 0.354173179,6.48583367 C0.158851788,6.48583367 -1.0242376e-15,6.32887109 -1.0242376e-15,6.13569734 L-1.0242376e-15,2.92017411 C-1.0242376e-15,2.8276503 0.0377669405,2.73726494 0.103498715,2.67225591 L2.70221018,0.102260909 C2.76794195,0.037251883 2.85918803,-9.97945583e-05 2.95274049,-9.97945583e-05 L13.3529198,-9.97945583e-05 C13.5482412,-9.97945583e-05 13.7069489,0.157005353 13.7069489,0.350036541 L13.7069489,17.1684134 C13.7069489,17.3615872 13.5482412,17.5185498 13.3529198,17.5185498 L13.3529198,17.5185498 Z" id="Fill-16" fill="#344154" mask="url(#mask-4)"></path>
                </g>
                <path d="M13.984262,10.4303419 C13.9191068,10.4303419 13.856258,10.404823 13.8102746,10.3593452 L13.1376771,9.69414318 C13.04153,9.59905323 13.04153,9.44494192 13.1376771,9.34985196 C13.2338242,9.254762 13.3896489,9.254762 13.485796,9.34985196 L13.9792168,9.83784735 L15.1956871,8.56304315 C15.2895278,8.46552961 15.4453525,8.46139526 15.5439502,8.55306369 C15.642692,8.6455875 15.6471606,8.79969882 15.5541847,8.89735492 L14.1634387,10.3543555 C14.1174553,10.4018292 14.0540299,10.429344 13.9878657,10.4303419 L13.984262,10.4303419 Z" id="Fill-19" fill="#27C4AA"></path>
                <path d="M13.3806396,6.37896796 C13.3173584,6.37896796 13.2546537,6.35544496 13.2065081,6.3078287 C13.1103609,6.21273874 13.1103609,6.05862743 13.2065081,5.96353747 L14.8647939,4.32391288 C14.9615176,4.22839523 15.1173423,4.22939317 15.213057,4.32391288 C15.3092041,4.41900283 15.3092041,4.57311415 15.213057,4.6682041 L13.554627,6.3078287 C13.5066255,6.35544496 13.4433443,6.37896796 13.3806396,6.37896796" id="Fill-21" fill="#27C4AA"></path>
                <path d="M15.038911,6.37896796 C14.9760622,6.37896796 14.9129251,6.35544496 14.8647795,6.3078287 L13.2064937,4.6682041 C13.1103465,4.57311415 13.1103465,4.41900283 13.2064937,4.32391288 C13.3026408,4.22882292 13.4584655,4.22882292 13.5546126,4.32391288 L15.2130426,5.96353747 C15.3091897,6.05862743 15.3091897,6.21273874 15.2130426,6.3078287 C15.1648969,6.35544496 15.1017598,6.37896796 15.038911,6.37896796" id="Fill-23" fill="#27C4AA"></path>
                <path d="M13.3806396,14.8286445 C13.3173584,14.8286445 13.2546537,14.8051215 13.2065081,14.7575052 C13.1103609,14.6624153 13.1103609,14.508304 13.2065081,14.413214 L14.8647939,12.7735894 C14.9615176,12.6784995 15.1173423,12.6784995 15.213057,12.7735894 C15.3092041,12.8686794 15.3092041,13.0227907 15.213057,13.1180232 L13.554627,14.7575052 C13.5066255,14.8051215 13.4433443,14.8286445 13.3806396,14.8286445" id="Fill-25" fill="#27C4AA"></path>
                <path d="M15.038911,14.8286445 C14.9760622,14.8286445 14.9129251,14.8051215 14.8647795,14.7575052 L13.2064937,13.1180232 C13.1103465,13.0227907 13.1103465,12.8686794 13.2064937,12.7735894 C13.3026408,12.6784995 13.4584655,12.6784995 13.5546126,12.7735894 L15.2130426,14.413214 C15.3091897,14.508304 15.3091897,14.6624153 15.2130426,14.7575052 C15.1648969,14.8051215 15.1017598,14.8286445 15.038911,14.8286445" id="Fill-27" fill="#27C4AA"></path>
                <path d="M8.79984128,3.71133111 L6.70276705,3.71133111 C6.56669074,3.71133111 6.45684949,3.6026976 6.45684949,3.46811751 C6.45684949,3.33353742 6.56669074,3.22490392 6.70276705,3.22490392 L8.55392373,3.22490392 L8.55392373,1.39410147 C8.55392373,1.25952138 8.66376498,1.15088787 8.79984128,1.15088787 C8.93591759,1.15088787 9.04575884,1.25952138 9.04575884,1.39410147 L9.04575884,3.46811751 C9.04575884,3.6026976 8.93591759,3.71133111 8.79984128,3.71133111" id="Fill-29" fill="#344154"></path>
                <path d="M6.70279588,3.3318124 C6.62682955,3.3318124 6.56498979,3.39297221 6.56498979,3.46810326 C6.56498979,3.5432343 6.62682955,3.60439411 6.70279588,3.60439411 L8.79987011,3.60439411 C8.87583644,3.60439411 8.9376762,3.5432343 8.9376762,3.46810326 L8.9376762,1.39408721 C8.9376762,1.31895616 8.87583644,1.25779636 8.79987011,1.25779636 C8.72390379,1.25779636 8.66206403,1.31895616 8.66206403,1.39408721 L8.66206403,3.3318124 L6.70279588,3.3318124 Z M8.79987011,3.81823959 L6.70279588,3.81823959 C6.50761863,3.81823959 6.34876685,3.66127701 6.34876685,3.46810326 C6.34876685,3.27507207 6.50761863,3.11796692 6.70279588,3.11796692 L8.44584108,3.11796692 L8.44584108,1.39408721 C8.44584108,1.20105602 8.60454872,1.04395087 8.79987011,1.04395087 C8.99504736,1.04395087 9.15389914,1.20105602 9.15389914,1.39408721 L9.15389914,3.46810326 C9.15389914,3.66127701 8.99504736,3.81823959 8.79987011,3.81823959 L8.79987011,3.81823959 Z" id="Fill-31" fill="#344154"></path>
                <polygon id="Fill-33" fill="#27C4AA" points="9.32350442 7.73025756 5.91352448 7.73025756 9.92647813 11.6989446 9.92647813 7.73025756"></polygon>
            </g>
        </g>
    </g>
</svg>