<?xml version="1.0" encoding="UTF-8"?>
<svg width="20px" height="14px" viewBox="0 0 20 14" version="1.1" xmlns="http://www.w3.org/2000/svg" xmlns:xlink="http://www.w3.org/1999/xlink">
    <title>Group 28</title>
    <defs>
        <polygon id="path-1" points="-1.62563972e-15 0 5.77571868 0 5.77571868 3.7295687 -1.62563972e-15 3.7295687"></polygon>
        <polygon id="path-3" points="0 14 20 14 20 0 0 0"></polygon>
    </defs>
    <g id="Page-1" stroke="none" stroke-width="1" fill="none" fill-rule="evenodd">
        <g id="스타일-변환-1" transform="translate(-434.000000, -953.000000)">
            <g id="Group-28" transform="translate(434.000000, 953.000000)">
                <polygon id="Fill-1" fill="#344154" points="10.9471842 9.72147085 12.2449867 9.72147085 12.2449867 9.17143275 10.9471842 9.17143275"></polygon>
                <polygon id="Fill-2" fill="#344154" points="10.9471842 4.83018374 12.2449867 4.83018374 12.2449867 4.28003787 10.9471842 4.28003787"></polygon>
                <polygon id="Fill-3" fill="#344154" points="12.2449867 7.27593506 13.5430179 7.27593506 13.5430179 6.72568143 12.2449867 6.72568143"></polygon>
                <polygon id="Fill-4" fill="#344154" points="13.5429836 12.4117003 11.9531327 12.4117003 11.9531327 1.58982996 13.5429836 1.58982996 13.5429836 2.1400836 12.5370008 2.1400836 12.5370008 11.8614467 13.5429836 11.8614467"></polygon>
                <polygon id="Fill-5" fill="#344154" points="16.7876958 2.14001894 17.4367686 2.14001894 17.4367686 1.58987307 16.7876958 1.58987307"></polygon>
                <g id="Group-14">
                    <g id="Group-8" transform="translate(14.224281, 0.000022)">
                        <mask id="mask-2" fill="white">
                            <use xlink:href="#path-1"></use>
                        </mask>
                        <g id="Clip-7"></g>
                        <path d="M0.616699269,0.550253635 C0.607662125,0.550253635 0.599997712,0.553271086 0.593591635,0.55919822 C0.585812828,0.566526314 0.584096915,0.575039835 0.584096915,0.580859204 L0.584096915,3.14892503 C0.584096915,3.1547444 0.585812828,3.16315016 0.593591635,3.17058602 C0.599768924,3.17629762 0.607547731,3.17931507 0.616699269,3.17931507 L5.15917956,3.17931507 C5.1683311,3.17931507 5.17588112,3.17629762 5.18205841,3.17058602 C5.19006601,3.16315016 5.19178192,3.1547444 5.19178192,3.14892503 L5.19178192,0.580859204 C5.19178192,0.575039835 5.19006601,0.566526314 5.18205841,0.55919822 C5.17588112,0.553271086 5.16798792,0.550253635 5.15917956,0.550253635 L0.616699269,0.550253635 Z M5.15917956,3.7295687 L0.616699269,3.7295687 C0.451742796,3.7295687 0.296967409,3.66911193 0.180742876,3.55951382 C0.0642895547,3.44991571 -1.62563972e-15,3.3041082 -1.62563972e-15,3.14892503 L-1.62563972e-15,0.580859204 C-1.62563972e-15,0.425783806 0.0642895547,0.279868525 0.180742876,0.17016265 C0.296967409,0.0604567743 0.452085979,0 0.616699269,0 L5.15917956,0 C5.32379285,0 5.47868264,0.0604567743 5.59513596,0.17016265 C5.71158928,0.279868525 5.77576444,0.425783806 5.77576444,0.580859204 L5.77576444,3.14892503 C5.77576444,3.3041082 5.71158928,3.44991571 5.59513596,3.55951382 C5.47891142,3.66911193 5.32413604,3.7295687 5.15917956,3.7295687 L5.15917956,3.7295687 Z" id="Fill-6" fill="#27C4AA" mask="url(#mask-2)"></path>
                    </g>
                    <mask id="mask-4" fill="white">
                        <use xlink:href="#path-3"></use>
                    </mask>
                    <g id="Clip-10"></g>
                    <polygon id="Fill-9" fill="#344154" mask="url(#mask-4)" points="16.7876958 7.2751807 17.4367686 7.2751807 17.4367686 6.72492707 16.7876958 6.72492707"></polygon>
                    <path d="M14.8409806,5.68548006 C14.8346889,5.68548006 14.8256518,5.68709655 14.8174154,5.69464018 C14.8115813,5.70035178 14.8083782,5.70767987 14.8083782,5.71608563 L14.8083782,8.28415146 C14.8083782,8.28997083 14.8100941,8.29837658 14.817873,8.30559691 C14.824279,8.31173958 14.8319434,8.31464926 14.8409806,8.31464926 L19.3834609,8.31464926 C19.3922692,8.31464926 19.4001624,8.31173958 19.4063397,8.30559691 C19.4143473,8.29837658 19.4160632,8.28997083 19.4160632,8.28415146 L19.4160632,5.71608563 C19.4160632,5.70767987 19.4127458,5.70035178 19.4063397,5.69431688 C19.3986753,5.68709655 19.3896382,5.68548006 19.3834609,5.68548006 L14.8409806,5.68548006 Z M19.3834609,8.86501066 L14.8409806,8.86501066 C14.6763673,8.86501066 14.5212487,8.80455389 14.4050242,8.69474025 C14.2885709,8.5849266 14.2242813,8.43933462 14.2242813,8.28415146 L14.2242813,5.71608563 C14.2242813,5.56101023 14.2885709,5.41498718 14.4050242,5.30538907 C14.5220495,5.19546767 14.6765961,5.13522642 14.8409806,5.13522642 L19.3834609,5.13522642 C19.547731,5.13522642 19.7022776,5.19546767 19.8191885,5.30495801 C19.9358706,5.41498718 20.0000458,5.56101023 20.0000458,5.71608563 L20.0000458,8.28415146 C20.0000458,8.43933462 19.9358706,8.5849266 19.8194173,8.69474025 C19.702964,8.80455389 19.5480742,8.86501066 19.3834609,8.86501066 L19.3834609,8.86501066 Z" id="Fill-11" fill="#27C4AA" mask="url(#mask-4)"></path>
                    <polygon id="Fill-12" fill="#344154" mask="url(#mask-4)" points="16.7876958 12.4103425 17.4367686 12.4103425 17.4367686 11.8600888 16.7876958 11.8600888"></polygon>
                    <path d="M14.8409806,10.8207819 C14.8319434,10.8207819 14.824279,10.8235838 14.817873,10.8297265 C14.8115813,10.8357614 14.8083782,10.8429817 14.8083782,10.8512797 L14.8083782,13.4193456 C14.8083782,13.4276435 14.8116957,13.4352949 14.8183305,13.4414376 C14.8239358,13.4466104 14.831829,13.4497356 14.8409806,13.4497356 L19.3834609,13.4497356 C19.3926124,13.4497356 19.4002768,13.4466104 19.4067973,13.440791 C19.412517,13.4352949 19.4160632,13.4276435 19.4160632,13.4193456 L19.4160632,10.8512797 C19.4160632,10.8429817 19.4127458,10.8357614 19.4063397,10.8297265 C19.4001624,10.8235838 19.3922692,10.8207819 19.3834609,10.8207819 L14.8409806,10.8207819 Z M19.3834609,13.9999892 L14.8409806,13.9999892 C14.6765961,13.9999892 14.5218207,13.9398557 14.405253,13.8305809 C14.2883421,13.7197974 14.2242813,13.5742054 14.2242813,13.4193456 L14.2242813,10.8512797 C14.2242813,10.6962043 14.2885709,10.5503968 14.4050242,10.4406909 C14.5212487,10.3308773 14.6763673,10.2706361 14.8409806,10.2706361 L19.3834609,10.2706361 C19.5480742,10.2706361 19.702964,10.3308773 19.8194173,10.4406909 C19.9358706,10.5503968 20.0000458,10.6962043 20.0000458,10.8512797 L20.0000458,13.4193456 C20.0000458,13.5742054 19.9360994,13.7197974 19.8197605,13.8298266 C19.7025064,13.9398557 19.5478454,13.9999892 19.3834609,13.9999892 L19.3834609,13.9999892 Z" id="Fill-13" fill="#27C4AA" mask="url(#mask-4)"></path>
                </g>
                <g id="Group-27" transform="translate(0.000057, 0.383184)" fill="#344154">
                    <path d="M9.69754167,12.1808007 L0.689682785,12.1808007 L0.689682785,0.649721733 L6.65762952,0.649721733 L6.65762952,3.1865354 C6.65762952,3.36661253 6.81206173,3.51220451 7.00321448,3.51220451 L9.69754167,3.51220451 L9.69754167,12.1808007 Z M9.20919272,2.86237501 L7.34731231,2.86237501 L7.34731231,1.10826643 L9.20919272,2.86237501 Z M10.3799032,3.12553979 L10.3799032,3.12413883 C10.3739547,3.09493422 10.3622865,3.06874707 10.3489024,3.0438531 C10.3459281,3.03824926 10.3431827,3.03275319 10.3387213,3.02725712 C10.3239644,3.00074667 10.3077205,2.97736142 10.2857568,2.95656257 L7.24733175,0.0955885183 C7.22536806,0.0747896637 7.20031573,0.0581936864 7.17240354,0.0442918614 C7.16645504,0.0401967501 7.16062093,0.0373948318 7.15467243,0.0345929136 C7.12813297,0.0221998137 7.10033518,0.0110999069 7.06944873,0.00549607039 L7.06796161,0.00549607039 C7.04576913,0.00140095912 7.02540696,0 7.00321448,0 L0.345584955,0 C0.154432204,0 0,0.14537645 0,0.324268153 L0,12.506362 C0,12.685146 0.154432204,12.8319234 0.345584955,12.8319234 L10.0416395,12.8319234 C10.2313051,12.8319234 10.3857373,12.685146 10.3857373,12.506362 L10.3857373,3.1865354 C10.3857373,3.16573654 10.3842502,3.14633865 10.3799032,3.12553979 L10.3799032,3.12553979 Z" id="Fill-15"></path>
                    <path d="M8.50477596,5.0957086 L1.85446767,5.0957086 C1.66320052,5.0957086 1.50739559,4.95022438 1.50739559,4.77144045 C1.50739559,4.59276428 1.66320052,4.4458791 1.85446767,4.4458791 L8.50477596,4.4458791 C8.69592871,4.4458791 8.84887379,4.59276428 8.84887379,4.77144045 C8.84887379,4.95022438 8.69592871,5.0957086 8.50477596,5.0957086" id="Fill-17"></path>
                    <path d="M8.52242699,7.15578665 L1.85450198,7.15578665 C1.66323484,7.15578665 1.5074299,7.0117034 1.5074299,6.8315185 C1.5074299,6.6529501 1.66323484,6.50735811 1.85450198,6.50735811 L8.52242699,6.50735811 C8.71369413,6.50735811 8.86652482,6.6529501 8.86652482,6.8315185 C8.86652482,7.0117034 8.71369413,7.15578665 8.52242699,7.15578665" id="Fill-19"></path>
                    <path d="M5.46786094,3.03541501 L1.85449055,3.03541501 C1.6632234,3.03541501 1.50741847,2.8899308 1.50741847,2.71125463 C1.50741847,2.5311775 1.6632234,2.38569328 1.85449055,2.38569328 L5.46786094,2.38569328 C5.65901369,2.38569328 5.8134459,2.5311775 5.8134459,2.71125463 C5.8134459,2.8899308 5.65901369,3.03541501 5.46786094,3.03541501" id="Fill-21"></path>
                    <path d="M8.50477596,9.21743809 L1.85446767,9.21743809 C1.66320052,9.21743809 1.50739559,9.07173834 1.50739559,8.89316994 C1.50739559,8.71298504 1.66320052,8.56620763 1.85446767,8.56620763 L8.50477596,8.56620763 C8.69592871,8.56620763 8.84887379,8.71298504 8.84887379,8.89316994 C8.84887379,9.07173834 8.69592871,9.21743809 8.50477596,9.21743809" id="Fill-23"></path>
                    <path d="M3.99279316,11.2775161 L1.8545363,11.2775161 C1.66326916,11.2775161 1.50734983,11.1320319 1.50734983,10.9519548 C1.50734983,10.7730631 1.66326916,10.6276866 1.8545363,10.6276866 L3.99279316,10.6276866 C4.18257318,10.6276866 4.33700539,10.7730631 4.33700539,10.9519548 C4.33700539,11.1320319 4.18257318,11.2775161 3.99279316,11.2775161" id="Fill-25"></path>
                </g>
            </g>
        </g>
    </g>
</svg>