<?xml version="1.0" encoding="UTF-8"?>
<svg width="19px" height="19px" viewBox="0 0 19 19" version="1.1" xmlns="http://www.w3.org/2000/svg" xmlns:xlink="http://www.w3.org/1999/xlink">
    <title>Group 22</title>
    <defs>
        <polygon id="path-1" points="0 0 19 0 19 19.0014562 0 19.0014562"></polygon>
    </defs>
    <g id="Page-1" stroke="none" stroke-width="1" fill="none" fill-rule="evenodd">
        <g id="3D-인테리어3-(예제)" transform="translate(-884.000000, -931.000000)">
            <g id="Group-22" transform="translate(884.000000, 931.000000)">
                <path d="M4.05273008,16.1632156 C4.77776586,15.8007706 5.58784298,15.5022521 6.48325269,15.2890663 C7.25080914,15.1185467 7.78377378,14.5002495 7.86896075,13.7328386 C7.89036671,13.5407675 7.91162704,13.3702479 7.95429334,13.1997284 C7.18673689,12.6455034 6.54717933,11.7286877 6.05688098,10.7265395 C5.50251039,10.7904661 4.9054735,10.0443156 4.7136936,9.0424586 C4.56443438,8.18956956 4.73509956,7.42215873 5.11865936,7.12364028 C5.18273161,4.73563835 7.12281026,2.838226 9.48940624,2.838226 C11.8771169,2.838226 13.8173412,4.73563835 13.8600075,7.12364028 C14.2435673,7.42215873 14.4356384,8.18956956 14.2649732,9.0424586 C14.0944537,10.0443156 13.4974168,10.7904661 12.9431918,10.7265395 C12.4528935,11.7286877 11.7917843,12.6455034 11.0456339,13.1997284 C11.0670398,13.3702479 11.0883001,13.5407675 11.1097061,13.7328386 C11.2161534,14.5002495 11.7492637,15.1185467 12.5168201,15.2890663 C13.4120842,15.5022521 14.222307,15.8007706 14.9259368,16.1632156 L4.05273008,16.1632156 Z" id="Fill-1" fill="#FFFFFF"></path>
                <path d="M4.84153231,9.49006152 C4.79901163,9.36220825 4.75634534,9.19154308 4.71367904,9.04242947 C4.56441982,8.18954043 4.735085,7.42212961 5.1186448,7.12361116 C5.18271705,4.73575485 7.1227957,2.83819687 9.48939167,2.83819687 C11.8771024,2.83819687 13.8173266,4.73575485 13.8599929,7.12361116 C14.2435527,7.42212961 14.4356239,8.18954043 14.2649587,9.04242947 C14.2435527,9.19154308 14.2008864,9.36220825 14.1583658,9.49006152 L4.84153231,9.49006152 Z" id="Fill-3" fill-opacity="0.7" fill="#F7778A"></path>
                <path d="M0.471265971,6.24947635 C0.270748948,6.24947635 0.109257751,6.08725706 0.109257751,5.88703127 L0.109257751,2.28398646 C0.109257751,1.08496164 1.08461216,0.109170379 2.28320012,0.109170379 L5.88595369,0.109170379 C6.08647071,0.109170379 6.24810753,0.27138967 6.24810753,0.471615456 C6.24810753,0.671695623 6.08647071,0.834206152 5.88595369,0.834206152 L2.28320012,0.834206152 C1.48419002,0.834206152 0.833274192,1.48439388 0.833274192,2.28398646 L0.833274192,5.88703127 C0.833274192,6.08725706 0.671782994,6.24947635 0.471265971,6.24947635 M18.5287195,6.24947635 C18.3282024,6.24947635 18.1667112,6.08725706 18.1667112,5.88703127 L18.1667112,2.28398646 C18.1667112,1.48439388 17.5157954,0.834206152 16.7167853,0.834206152 L13.1140317,0.834206152 C12.9135147,0.834206152 12.7518779,0.671695623 12.7518779,0.471615456 C12.7518779,0.27138967 12.9135147,0.109170379 13.1140317,0.109170379 L16.7167853,0.109170379 C17.9153733,0.109170379 18.8907277,1.08496164 18.8907277,2.28398646 L18.8907277,5.88703127 C18.8907277,6.08725706 18.7292365,6.24947635 18.5287195,6.24947635 M5.88595369,18.8922421 L2.28320012,18.8922421 C1.08461216,18.8922421 0.109257751,17.9164509 0.109257751,16.717426 L0.109257751,13.1145269 C0.109257751,12.9143011 0.270748948,12.7519362 0.471265971,12.7519362 C0.671782994,12.7519362 0.833274192,12.9143011 0.833274192,13.1145269 L0.833274192,16.717426 C0.833274192,17.516873 1.48419002,18.167352 2.28320012,18.167352 L5.88595369,18.167352 C6.08647071,18.167352 6.24810753,18.3295713 6.24810753,18.529797 C6.24810753,18.7298772 6.08647071,18.8922421 5.88595369,18.8922421 M16.7167853,18.8922421 L13.1140317,18.8922421 C12.9135147,18.8922421 12.7518779,18.7298772 12.7518779,18.529797 C12.7518779,18.3295713 12.9135147,18.167352 13.1140317,18.167352 L16.7167853,18.167352 C17.5157954,18.167352 18.1667112,17.516873 18.1667112,16.717426 L18.1667112,13.1145269 C18.1667112,12.9143011 18.3282024,12.7519362 18.5287195,12.7519362 C18.7292365,12.7519362 18.8907277,12.9143011 18.8907277,13.1145269 L18.8907277,16.717426 C18.8907277,17.9164509 17.9153733,18.8922421 16.7167853,18.8922421" id="Fill-5" fill="#344154"></path>
                <g id="Group-9">
                    <mask id="mask-2" fill="white">
                        <use xlink:href="#path-1"></use>
                    </mask>
                    <g id="Clip-8"></g>
                    <path d="M2.28325837,0.218384444 C1.14481095,0.218384444 0.218384444,1.14495657 0.218384444,2.28398646 L0.218384444,5.88703127 C0.218384444,6.02667965 0.331967072,6.14026228 0.471324219,6.14026228 C0.610681365,6.14026228 0.724118374,6.02667965 0.724118374,5.88703127 L0.724118374,2.28398646 C0.724118374,1.42425334 1.42352525,0.724992087 2.28325837,0.724992087 L5.88586632,0.724992087 C6.02536909,0.724992087 6.13895171,0.61126384 6.13895171,0.471615456 C6.13895171,0.331967072 6.02536909,0.218384444 5.88586632,0.218384444 L2.28325837,0.218384444 Z M0.471324219,6.35869041 C0.211394744,6.35869041 -4.3685626e-05,6.14710636 -4.3685626e-05,5.88703127 L-4.3685626e-05,2.28398646 C-4.3685626e-05,1.02452986 1.02423862,-4.3685626e-05 2.28325837,-4.3685626e-05 L5.88586632,-4.3685626e-05 C6.14579579,-4.3685626e-05 6.35737984,0.211540363 6.35737984,0.471615456 C6.35737984,0.731690549 6.14579579,0.943420217 5.88586632,0.943420217 L2.28325837,0.943420217 C1.54395196,0.943420217 0.942546504,1.54468005 0.942546504,2.28398646 L0.942546504,5.88703127 C0.942546504,6.14710636 0.731108074,6.35869041 0.471324219,6.35869041 L0.471324219,6.35869041 Z M13.11409,0.218384444 C12.9745872,0.218384444 12.8611502,0.331967072 12.8611502,0.471615456 C12.8611502,0.61126384 12.9745872,0.724992087 13.11409,0.724992087 L16.7166979,0.724992087 C17.5764311,0.724992087 18.2758379,1.42425334 18.2758379,2.28398646 L18.2758379,5.88703127 C18.2758379,6.02667965 18.3892749,6.14026228 18.5287777,6.14026228 C18.6681349,6.14026228 18.7815719,6.02667965 18.7815719,5.88703127 L18.7815719,2.28398646 C18.7815719,1.14495657 17.855291,0.218384444 16.7166979,0.218384444 L13.11409,0.218384444 Z M18.5287777,6.35869041 C18.2688482,6.35869041 18.0574098,6.14710636 18.0574098,5.88703127 L18.0574098,2.28398646 C18.0574098,1.54468005 17.4560044,0.943420217 16.7166979,0.943420217 L13.11409,0.943420217 C12.8541605,0.943420217 12.6427221,0.731690549 12.6427221,0.471615456 C12.6427221,0.211540363 12.8541605,-4.3685626e-05 13.11409,-4.3685626e-05 L16.7166979,-4.3685626e-05 C17.9757177,-4.3685626e-05 19,1.02452986 19,2.28398646 L19,5.88703127 C19,6.14710636 18.7885616,6.35869041 18.5287777,6.35869041 L18.5287777,6.35869041 Z M0.471324219,12.8611502 C0.331967072,12.8611502 0.218384444,12.9748785 0.218384444,13.1145269 L0.218384444,16.717426 C0.218384444,17.8564559 1.14481095,18.7830281 2.28325837,18.7830281 L5.88586632,18.7830281 C6.02536909,18.7830281 6.13895171,18.6694454 6.13895171,18.529797 C6.13895171,18.3901487 6.02536909,18.276566 5.88586632,18.276566 L2.28325837,18.276566 C1.42352525,18.276566 0.724118374,17.5771592 0.724118374,16.717426 L0.724118374,13.1145269 C0.724118374,12.9748785 0.610681365,12.8611502 0.471324219,12.8611502 L0.471324219,12.8611502 Z M5.88586632,19.0014562 L2.28325837,19.0014562 C1.02423862,19.0014562 -4.3685626e-05,17.9768826 -4.3685626e-05,16.717426 L-4.3685626e-05,13.1145269 C-4.3685626e-05,12.8543061 0.211394744,12.6427221 0.471324219,12.6427221 C0.731108074,12.6427221 0.942546504,12.8543061 0.942546504,13.1145269 L0.942546504,16.717426 C0.942546504,17.4567325 1.54395196,18.0581379 2.28325837,18.0581379 L5.88586632,18.0581379 C6.14579579,18.0581379 6.35737984,18.269722 6.35737984,18.529797 C6.35737984,18.7898721 6.14579579,19.0014562 5.88586632,19.0014562 L5.88586632,19.0014562 Z M13.11409,18.276566 C12.9745872,18.276566 12.8611502,18.3901487 12.8611502,18.529797 C12.8611502,18.6694454 12.9745872,18.7830281 13.11409,18.7830281 L16.7166979,18.7830281 C17.855291,18.7830281 18.7815719,17.8564559 18.7815719,16.717426 L18.7815719,13.1145269 C18.7815719,12.9748785 18.6681349,12.8611502 18.5287777,12.8611502 C18.3892749,12.8611502 18.2758379,12.9748785 18.2758379,13.1145269 L18.2758379,16.717426 C18.2758379,17.5771592 17.5764311,18.276566 16.7166979,18.276566 L13.11409,18.276566 Z M16.7166979,19.0014562 L13.11409,19.0014562 C12.8541605,19.0014562 12.6427221,18.7898721 12.6427221,18.529797 C12.6427221,18.269722 12.8541605,18.0581379 13.11409,18.0581379 L16.7166979,18.0581379 C17.4560044,18.0581379 18.0574098,17.4567325 18.0574098,16.717426 L18.0574098,13.1145269 C18.0574098,12.8543061 18.2688482,12.6427221 18.5287777,12.6427221 C18.7885616,12.6427221 19,12.8543061 19,13.1145269 L19,16.717426 C19,17.9768826 17.9757177,19.0014562 16.7166979,19.0014562 L16.7166979,19.0014562 Z" id="Fill-7" fill="#344154" mask="url(#mask-2)"></path>
                </g>
                <path d="M4.84153231,9.85255028 C4.68936071,9.85255028 4.54840176,9.75673314 4.49772643,9.60470716 C4.46772897,9.51398668 4.43685779,9.40346205 4.40671471,9.29250056 L4.3655046,9.14193077 C4.20110103,8.21317436 4.35953423,7.39494258 4.76362627,6.96012499 C4.90909941,4.43305714 6.95606222,2.47579548 9.48939167,2.47579548 C12.0423797,2.47579548 14.08876,4.43101848 14.2164676,6.95561081 C14.4433417,7.19151319 14.5976975,7.55017218 14.6659927,8.00785192 C14.6954077,8.2057478 14.5593998,8.39010114 14.3612127,8.41995299 C14.1672485,8.44791179 13.9792547,8.31350568 13.9491116,8.11502732 C13.8977082,7.77355134 13.7876204,7.51915538 13.6465158,7.41693102 C13.554776,7.35009201 13.4988584,7.24408156 13.4974022,7.13020769 C13.4577939,4.92670472 11.6971176,3.20054002 9.48939167,3.20054002 C7.30059619,3.20054002 5.54079356,4.9281609 5.48123549,7.13312007 C5.47832312,7.24175166 5.4269197,7.34324793 5.34173273,7.40965008 C5.10888834,7.59065419 4.93487393,8.20254419 5.07059061,8.98000271 L5.10583034,9.10188561 C5.13233296,9.1988677 5.15883557,9.29614103 5.18519257,9.37550325 C5.2483911,9.56524448 5.14631236,9.77071254 4.95598865,9.83376546 C4.91783653,9.84672553 4.87968442,9.85255028 4.84153231,9.85255028 M14.9260678,16.5256753 C14.8701502,16.5256753 14.8129221,16.5128608 14.7599168,16.4853389 C14.0660435,16.1279905 13.2830514,15.8441795 12.4332204,15.6417694 C11.5423249,15.4437279 10.8797595,14.7134499 10.7504501,13.7828004 L10.6873972,13.2528938 C10.6710879,13.1232931 10.7246756,12.9865571 10.8298123,12.9086511 C11.4805825,12.4250512 12.1159171,11.5937137 12.6174281,10.5675384 C12.6836846,10.4326954 12.8268279,10.3527507 12.9759415,10.3655652 C13.2176686,10.3846412 13.5996266,10.0221961 13.8147055,9.37550325 C13.877904,9.18532516 14.0827896,9.08208146 14.2731133,9.14629933 C14.4625633,9.20949787 14.5653702,9.41482031 14.5021716,9.60470716 C14.2259329,10.4334235 13.722092,10.9806588 13.172818,11.0764759 C12.6784424,12.0346473 12.0696104,12.8327837 11.4297616,13.3590499 L11.4695155,13.692808 C11.5568867,14.3204249 11.988792,14.8005299 12.5954397,14.9355185 C13.5077412,15.1523448 14.3457771,15.456688 15.0920732,15.8412671 C15.2697281,15.9327157 15.3396251,16.1511438 15.2484677,16.3293812 C15.183813,16.4541765 15.0566878,16.5256753 14.9260678,16.5256753 M4.0525699,16.5256753 C3.9197656,16.5256753 3.79191233,16.4522834 3.7287138,16.3251582 C3.63915826,16.146484 3.71182202,15.9286384 3.89035061,15.8389372 C4.6644599,15.4523194 5.50832058,15.1485587 6.39936173,14.9366834 C7.00600946,14.8015492 7.44009896,14.313872 7.50912225,13.692808 C7.52237356,13.5704883 7.53635296,13.4558863 7.55470092,13.3446336 C6.9046588,12.8019125 6.31490285,12.0326086 5.84105943,11.1048716 C5.75004771,10.9267798 5.8206728,10.7082061 5.99818206,10.6171944 C6.17598256,10.5264739 6.39499317,10.5957884 6.48600489,10.7750451 C6.94805319,11.678027 7.54727436,12.4364094 8.17314376,12.9105441 C8.28847382,12.9984978 8.34133342,13.1463009 8.30609368,13.2874054 C8.26706786,13.442635 8.2487199,13.5981559 8.22891575,13.7728984 C8.12538081,14.7067514 7.47097014,15.4405243 6.56172664,15.6429344 C5.73024356,15.8408303 4.93924249,16.1253693 4.21493481,16.4875232 C4.1628033,16.5135889 4.10775941,16.5256753 4.0525699,16.5256753" id="Fill-10" fill="#344154"></path>
                <path d="M9.48939167,2.58498042 C7.04197729,2.58498042 5.01409053,4.50947786 4.87269472,6.96635747 L4.87036482,7.00552891 L4.84371659,7.03450705 C4.46001117,7.44733621 4.31803289,8.24765688 4.47311686,9.12282559 L4.51199707,9.26378454 C4.54155768,9.37270737 4.57184638,9.48119334 4.60140698,9.57045763 C4.64465575,9.69991271 4.79435183,9.77301332 4.92089453,9.73034702 C4.98569487,9.70879545 5.03782639,9.66379925 5.06796947,9.60336747 C5.09811255,9.54279007 5.10306359,9.47420364 5.08151201,9.40984015 C5.0550094,9.33018669 5.02836117,9.23262213 5.00185856,9.13505756 L4.9657451,9.01026229 C4.81837893,8.17033332 5.01030444,7.52888271 5.2747481,7.32341465 C5.33445179,7.27681665 5.36998276,7.20619156 5.37202143,7.13032419 C5.43332692,4.8653701 7.24176622,3.09144245 9.48939167,3.09144245 C11.7574038,3.09144245 13.5658431,4.86449639 13.6066163,7.1281399 C13.6076356,7.20721089 13.6466615,7.28191331 13.7107337,7.32865693 C13.8776128,7.44937487 14.000515,7.72299251 14.0570151,8.09883451 C14.0779842,8.236153 14.2061287,8.33124204 14.3457771,8.31187475 C14.48295,8.29119689 14.5784759,8.16203305 14.5579436,8.02398647 C14.4937257,7.59353744 14.3483982,7.25031404 14.1378335,7.03144905 L14.1094379,7.00203406 L14.1073992,6.96126081 C13.9812934,4.46637471 11.9959273,2.58498042 9.48939167,2.58498042 M4.84153231,9.96173522 C4.63839415,9.96173522 4.45855499,9.83228015 4.3941915,9.63918969 C4.36346594,9.54672178 4.33201229,9.43415848 4.30128673,9.32115833 L4.26022224,9.17073416 C4.09232382,8.22523159 4.24143743,7.38996242 4.65688773,6.91524529 C4.82391244,4.36138359 6.93917045,2.36655229 9.48939167,2.36655229 C12.0579609,2.36655229 14.1735101,4.35919931 14.3233518,6.91014863 C14.5503714,7.16206907 14.7057467,7.53485308 14.7740418,7.99180473 C14.812194,8.24882183 14.6343935,8.48923839 14.3773764,8.52797298 C14.1197768,8.56452329 13.8799427,8.38701403 13.8412081,8.13145311 C13.7947557,7.82317821 13.6980649,7.58916888 13.5824436,7.50543809 C13.4625994,7.41806684 13.3900812,7.27827284 13.3881882,7.13163475 C13.3497448,4.9888548 11.6371227,3.30987058 9.48939167,3.30987058 C7.36102798,3.30987058 5.6482602,4.99060223 5.59044956,7.13614894 C5.58666347,7.27769036 5.52040694,7.40874724 5.40886297,7.49582726 C5.23091685,7.63416507 5.04175809,8.1802354 5.17834848,8.96118877 L5.21082147,9.07156779 C5.23805217,9.17117101 5.26338984,9.26451263 5.28887312,9.34096248 C5.32862704,9.46051548 5.31959867,9.58836874 5.26338984,9.70093204 C5.20703538,9.81378657 5.11019891,9.89780859 4.99035467,9.93741689 C4.94302858,9.95358057 4.89279011,9.96173522 4.84153231,9.96173522 M6.16316811,10.6866254 C6.12355981,10.6866254 6.08424275,10.695945 6.04783806,10.7144386 C5.92406212,10.7779283 5.87484298,10.930828 5.93833276,11.0550408 C6.4030022,11.9648668 6.98620531,12.7276178 7.62459792,13.2608737 L7.67250649,13.3009189 L7.6624588,13.3625156 C7.64687759,13.4573134 7.63348066,13.5595378 7.61775384,13.704574 C7.54348827,14.3728185 7.07445027,14.8983566 6.42309759,15.0433929 C5.54297784,15.2525014 4.70668934,15.5533497 3.93913289,15.9366183 C3.81448324,15.9992344 3.76395353,16.1515516 3.82642398,16.2762012 C3.887147,16.3986666 4.04514335,16.4503612 4.16615253,16.3899295 C4.89803238,16.0239895 5.69529506,15.7368294 6.53638898,15.5366036 C7.40092751,15.3442412 8.02213712,14.6473098 8.12042977,13.7607829 C8.13906898,13.5969618 8.15814503,13.4277528 8.20008323,13.2607281 C8.2246928,13.1627267 8.18799688,13.0593373 8.10703285,12.9974494 C7.468349,12.5137039 6.8580608,11.7420701 6.38873156,10.8248176 C6.35815162,10.7645314 6.30616573,10.7199721 6.24194786,10.6991486 C6.21617334,10.6907027 6.18967073,10.6866254 6.16316811,10.6866254 M4.0525699,16.6348602 C3.87258512,16.6348602 3.71094831,16.5348201 3.63100361,16.3737658 C3.51479985,16.1419407 3.60901518,15.8579842 3.84127709,15.7414892 C4.62412351,15.3503572 5.47613883,15.0439753 6.37402407,14.8304982 C6.93451065,14.7055573 7.33685526,14.2545761 7.40063628,13.6806926 C7.41345073,13.5621589 7.42480899,13.4708559 7.43718658,13.3882901 C6.79500788,12.8388706 6.21020297,12.0678193 5.7437861,11.1544984 C5.62554368,10.9231102 5.71742911,10.6384256 5.94852607,10.5200375 C6.06123498,10.4623725 6.18952511,10.4524704 6.30951496,10.4914962 C6.42921357,10.5303765 6.52634128,10.6135248 6.58342383,10.7255056 C7.03789996,11.61378 7.62590849,12.3589111 8.23910906,12.8235806 C8.38997009,12.9386194 8.45782843,13.1309818 8.41210414,13.3138789 C8.37366079,13.4669242 8.3551672,13.6287067 8.33740172,13.7852468 C8.22877013,14.7655523 7.54101276,15.5367492 6.5854625,15.7494982 C5.76227968,15.945501 4.98059822,16.2268365 4.26386271,16.5853498 C4.1977518,16.6182597 4.12668985,16.6348602 4.0525699,16.6348602 M12.9452159,10.4735851 C12.8483795,10.4735851 12.7580958,10.5287746 12.7155752,10.6155634 C12.2069288,11.6563007 11.5603816,12.5019088 10.8949039,12.9962844 C10.8239875,13.0489984 10.7842336,13.146563 10.7957375,13.2393221 L10.858936,13.7699569 C10.981547,14.652989 11.6090182,15.3467167 12.4569562,15.5351474 C13.3169806,15.740033 14.1082729,16.0269019 14.8100097,16.388182 C14.9291258,16.4506525 15.0891608,16.3999772 15.1514857,16.2791136 C15.2148298,16.1550464 15.1659019,16.0021467 15.042126,15.9383657 C14.3028196,15.5575727 13.4711909,15.2558506 12.570102,15.041791 C11.9194774,14.8969004 11.4558273,14.3856329 11.3611751,13.7079233 L11.3142859,13.312714 L11.360447,13.2747075 C11.9918499,12.755431 12.5849551,11.9779725 13.0756903,11.0264995 L13.1005911,10.9782997 L13.1540332,10.9688345 C13.6638445,10.8800071 14.1406003,10.3439845 14.3984911,9.5701664 C14.419897,9.50594853 14.414946,9.43750771 14.3846573,9.37693031 C14.3545142,9.31635291 14.3025283,9.27135671 14.2384561,9.25009638 C14.1743838,9.22810794 14.1060886,9.23276774 14.0456568,9.26276521 C13.9850794,9.29305391 13.939792,9.34533104 13.9183861,9.40984015 C13.7078213,10.0429905 13.2986326,10.4981947 12.9674956,10.4746045 C12.960069,10.4738764 12.9526425,10.4735851 12.9452159,10.4735851 M14.9260678,16.6348602 C14.8504917,16.6348602 14.7756437,16.6166579 14.7095327,16.5821462 C14.0239596,16.2290207 13.2492679,15.9484134 12.4078827,15.748042 C11.4715541,15.5399528 10.777972,14.7742894 10.6422553,13.7979157 L10.5787656,13.2658247 C10.5575052,13.0954508 10.6304602,12.9205627 10.7648663,12.8209594 C11.4025309,12.3469704 12.0256335,11.5296123 12.5194267,10.5196007 C12.6047593,10.3455863 12.7930443,10.2411776 12.9854067,10.2569044 C13.1551982,10.27234 13.5052657,9.95969656 13.7110249,9.3411081 C13.7510701,9.22082701 13.8352377,9.1236993 13.9482379,9.06749046 C14.0609468,9.01099038 14.1886545,9.00269011 14.3080618,9.04288089 C14.4268867,9.08248919 14.5237232,9.16636559 14.5800777,9.27922013 C14.6365777,9.39192904 14.6456061,9.51978231 14.6058522,9.63918969 C14.3268467,10.4760607 13.8212583,11.0447019 13.2456274,11.1734289 C12.7578046,12.1069907 12.1715435,12.8764402 11.5452372,13.4050363 L11.5780015,13.6798189 C11.6591111,14.2628763 12.0583977,14.7041012 12.6191755,14.8288964 C13.5389036,15.0474702 14.3871328,15.3551626 15.1420204,15.7441103 C15.3726805,15.8629352 15.4639835,16.1476199 15.3457411,16.3791537 C15.2639033,16.53715 15.1032858,16.6348602 14.9260678,16.6348602" id="Fill-12" fill="#344154"></path>
                <path d="M16.7167271,9.85255028 L2.28328749,9.85255028 C2.08277047,9.85255028 1.92127927,9.69018537 1.92127927,9.49010521 C1.92127927,9.29002504 2.08277047,9.12751451 2.28328749,9.12751451 L16.7167271,9.12751451 C16.9172441,9.12751451 17.0787353,9.29002504 17.0787353,9.49010521 C17.0787353,9.69018537 16.9172441,9.85255028 16.7167271,9.85255028" id="Fill-14" fill="#344154"></path>
                <path d="M2.28325837,9.24989046 C2.14390122,9.24989046 2.03046421,9.37027941 2.03046421,9.51829608 C2.03046421,9.66631275 2.14390122,9.78685605 2.28325837,9.78685605 L16.7166979,9.78685605 C16.8560551,9.78685605 16.9694921,9.66631275 16.9694921,9.51829608 C16.9694921,9.37027941 16.8560551,9.24989046 16.7166979,9.24989046 L2.28325837,9.24989046 Z M16.7166979,10.0183733 L2.28325837,10.0183733 C2.02347451,10.0183733 1.81203608,9.79395591 1.81203608,9.51829608 C1.81203608,9.24263626 2.02347451,9.01837325 2.28325837,9.01837325 L16.7166979,9.01837325 C16.9764818,9.01837325 17.1879202,9.24263626 17.1879202,9.51829608 C17.1879202,9.79395591 16.9764818,10.0183733 16.7166979,10.0183733 L16.7166979,10.0183733 Z" id="Fill-16" fill="#344154"></path>
                <path d="M12.8576845,11.36633 L12.7939035,11.36633 C12.5933865,11.36633 12.431604,11.2041107 12.431604,11.003885 C12.431604,10.8038048 12.5933865,10.6412943 12.7939035,10.6412943 C12.9942749,10.6412943 13.1882391,10.8038048 13.1882391,11.003885 C13.1882391,11.2041107 13.0582015,11.36633 12.8576845,11.36633" id="Fill-18" fill="#344154"></path>
                <path d="M12.8059579,10.7636702 C12.6628661,10.7636702 12.5465106,10.8840592 12.5465106,11.0320758 C12.5465106,11.1800925 12.6628661,11.3006358 12.8059579,11.3006358 L12.8713799,11.3006358 C13.0273171,11.3006358 13.098415,11.1614168 13.098415,11.0320758 C13.098415,10.8916221 12.9589079,10.7636702 12.8059579,10.7636702 M12.8713799,11.532153 L12.8059579,11.532153 C12.539341,11.532153 12.3224628,11.3077357 12.3224628,11.0320758 C12.3224628,10.756416 12.539341,10.532153 12.8059579,10.532153 C13.0810886,10.532153 13.3224628,10.765831 13.3224628,11.0320758 C13.3224628,11.3171507 13.1285867,11.532153 12.8713799,11.532153" id="Fill-20" fill="#344154"></path>
            </g>
        </g>
    </g>
</svg>