<svg width="20" height="18" xmlns="http://www.w3.org/2000/svg" xmlns:xlink="http://www.w3.org/1999/xlink">
    <defs>
        <path id="a" d="M0 0h3.85v3.85H0z"/>
        <path id="c" d="M0 0h3.85v3.85H0z"/>
        <path id="e" d="M0 0h3.85v3.85H0z"/>
    </defs>
    <g fill="none" fill-rule="evenodd">
        <path d="M18.666 3.785a.268.268 0 0 1-.268-.269V.602h-2.915a.268.268 0 1 1 0-.537h3.452v3.451c0 .15-.12.27-.269.27" fill="#F7778A"/>
        <g transform="translate(15.15)">
            <mask id="b" fill="#fff">
                <use xlink:href="#a"/>
            </mask>
            <path d="M.334.13a.204.204 0 0 0 0 .408h2.979v2.978a.204.204 0 0 0 .408 0V.13H.334zm3.183 3.72a.334.334 0 0 1-.334-.334V.667H.333a.334.334 0 0 1 0-.667h3.518v3.516c0 .184-.15.334-.334.334z" fill="#F7778A" mask="url(#b)"/>
        </g>
        <path d="M3.516 17.266H.065v-3.452a.268.268 0 1 1 .537 0v2.914h2.914a.268.268 0 1 1 0 .538" fill="#F7778A"/>
        <path d="M.13 17.201h3.386a.204.204 0 0 0 0-.408H.538v-2.98a.204.204 0 0 0-.408 0v3.388zm3.386.13H0v-3.517a.334.334 0 0 1 .667 0v2.85h2.85a.334.334 0 0 1 0 .667zM18.935 17.266h-3.452a.268.268 0 1 1 0-.538h2.915v-2.914a.268.268 0 1 1 .537 0v3.452z" fill="#F7778A"/>
        <g transform="translate(15.15 13.48)">
            <mask id="d" fill="#fff">
                <use xlink:href="#c"/>
            </mask>
            <path d="M.334 3.313a.204.204 0 0 0 0 .408H3.72V.334a.204.204 0 0 0-.408 0v2.979H.333zm3.517.538H.334a.334.334 0 0 1 0-.668h2.85V.333a.334.334 0 0 1 .667 0v3.518z" fill="#F7778A" mask="url(#d)"/>
        </g>
        <path d="M.334 3.785a.268.268 0 0 1-.27-.269V.065h3.452a.268.268 0 1 1 0 .537H.602v2.914c0 .15-.12.27-.268.27" fill="#F7778A"/>
        <g>
            <mask id="f" fill="#fff">
                <use xlink:href="#e"/>
            </mask>
            <path d="M.13.13v3.386a.204.204 0 0 0 .408 0V.538h2.978a.204.204 0 0 0 0-.408H.13zm.204 3.72A.334.334 0 0 1 0 3.516V0h3.516a.334.334 0 0 1 0 .667H.667v2.85c0 .183-.15.333-.333.333z" fill="#F7778A" mask="url(#f)"/>
        </g>
        <path d="M18.663 5.369a.22.22 0 0 1-.102-.023.27.27 0 0 1-.164-.249.22.22 0 0 1 .023-.102.226.226 0 0 1 .056-.085.281.281 0 0 1 .295-.062.243.243 0 0 1 .085.062c.028.023.045.05.056.085a.22.22 0 0 1 .023.102.27.27 0 0 1-.272.272M18.397 6.263c0-.147.22-.266.494-.266.285 0 .506.12.506.266 0 .154-.221.272-.506.272-.273 0-.494-.118-.494-.272m0 1.167c0-.147.22-.266.494-.266.285 0 .506.119.506.266 0 .147-.221.266-.506.266-.273 0-.494-.119-.494-.266m0 1.167c0-.147.22-.272.494-.272.285 0 .506.125.506.272 0 .147-.221.266-.506.266-.273 0-.494-.12-.494-.266m0 1.16c0-.146.22-.265.494-.265.285 0 .506.119.506.266 0 .153-.221.272-.506.272-.273 0-.494-.12-.494-.272m0 1.167c0-.148.22-.267.494-.267.285 0 .506.119.506.267 0 .147-.221.271-.506.271-.273 0-.494-.124-.494-.271M18.67 12.369a.26.26 0 0 1-.194-.08.256.256 0 0 1-.079-.186.27.27 0 0 1 .08-.193.286.286 0 0 1 .379 0 .27.27 0 0 1 .08.193.256.256 0 0 1-.08.186.177.177 0 0 1-.085.057.221.221 0 0 1-.102.023M.337 5.369a.23.23 0 0 1-.108-.023.268.268 0 0 1-.164-.249.22.22 0 0 1 .023-.102.173.173 0 0 1 .056-.085.24.24 0 0 1 .085-.062.27.27 0 0 1 .295.062.22.22 0 0 1 .056.085.22.22 0 0 1 .023.102.27.27 0 0 1-.266.272M.065 6.263c0-.147.22-.266.494-.266.275 0 .506.12.506.266 0 .154-.231.272-.506.272-.273 0-.494-.118-.494-.272m0 1.167c0-.147.22-.266.494-.266.275 0 .506.119.506.266 0 .147-.231.266-.506.266-.273 0-.494-.119-.494-.266m0 1.167c0-.147.22-.272.494-.272.275 0 .506.125.506.272 0 .147-.231.266-.506.266-.273 0-.494-.12-.494-.266m0 1.16c0-.146.22-.265.494-.265.275 0 .506.119.506.266 0 .153-.231.272-.506.272-.273 0-.494-.12-.494-.272m0 1.167c0-.148.22-.267.494-.267.275 0 .506.119.506.267 0 .147-.231.271-.506.271-.273 0-.494-.124-.494-.271M.33 12.369a.221.221 0 0 1-.1-.023.175.175 0 0 1-.086-.057.173.173 0 0 1-.056-.085.22.22 0 0 1-.023-.101c0-.074.028-.142.08-.193.096-.102.283-.097.379 0a.27.27 0 0 1 .079.193.22.22 0 0 1-.023.101.22.22 0 0 1-.056.085.192.192 0 0 1-.09.057.193.193 0 0 1-.103.023M14.068 10.02a.32.32 0 0 1-.318-.288 9.827 9.827 0 0 0-1.101-3.592c-.618-1.154-1.313-.86-2.119-.521-.314.132-.61.258-.886.258-.331 0-.66-.136-1.007-.28-.782-.325-1.397-.58-1.998.543a9.827 9.827 0 0 0-1.101 3.592.321.321 0 0 1-.638-.066 10.494 10.494 0 0 1 1.173-3.829c.877-1.636 2.042-1.153 2.81-.833.287.119.557.232.761.232.145 0 .395-.106.637-.208.763-.322 2.038-.861 2.934.809.63 1.177 1.035 2.5 1.173 3.829a.321.321 0 0 1-.286.352l-.034.001" fill="#344154"/>
        <path d="M9.644 12.297c-3.703 0-7.452-.77-7.452-2.24 0-.615.63-1.13 1.87-1.532a.32.32 0 1 1 .198.61c-1.053.34-1.427.71-1.427.922 0 .652 2.653 1.6 6.811 1.6 4.157 0 6.81-.948 6.81-1.6 0-.213-.373-.582-1.427-.922a.322.322 0 0 1 .198-.61c1.241.401 1.87.917 1.87 1.532 0 1.47-3.748 2.24-7.45 2.24" fill="#344154"/>
    </g>
</svg>
