<?xml version="1.0" encoding="UTF-8"?>
<svg width="19px" height="20px" viewBox="0 0 19 20" version="1.1" xmlns="http://www.w3.org/2000/svg" xmlns:xlink="http://www.w3.org/1999/xlink">
    <title>Group 14</title>
    <defs>
        <polygon id="path-1" points="0 0 10.4477148 0 10.4477148 13.1323228 0 13.1323228"></polygon>
    </defs>
    <g id="Page-1" stroke="none" stroke-width="1" fill="none" fill-rule="evenodd">
        <g id="실신감지-1" transform="translate(-662.000000, -1081.000000)">
            <g id="Group-14" transform="translate(662.000000, 1081.000000)">
                <path d="M4.41493583,5.14208516 C3.12223891,5.14208516 2.07047267,6.19725393 2.07047267,7.49456205 C2.07047267,8.79175376 3.12223891,9.84703894 4.41493583,9.84703894 C5.70751676,9.84703894 6.759051,8.79175376 6.759051,7.49456205 C6.759051,6.19725393 5.70751676,5.14208516 4.41493583,5.14208516 M4.41493583,10.5698482 C2.72505708,10.5698482 1.35011661,9.19023596 1.35011661,7.49456205 C1.35011661,5.79877172 2.72505708,4.41915951 4.41493583,4.41915951 C6.10469858,4.41915951 7.47940706,5.79877172 7.47940706,7.49456205 C7.47940706,9.19023596 6.10469858,10.5698482 4.41493583,10.5698482" id="Fill-1" fill="#505050"></path>
                <path d="M6.56568006,20 C6.36674115,20 6.20561803,19.8381857 6.20561803,19.6386536 L6.20561803,17.7361135 C6.20561803,17.7330868 6.20561803,17.7301764 6.20561803,17.7271497 L6.20561803,14.2741029 C6.20561803,14.0745708 6.36685715,13.9127565 6.56579606,13.9127565 C6.76485097,13.9127565 6.92597409,14.0745708 6.92597409,14.2741029 L6.92597409,17.734833 C6.92597409,17.7378597 6.92597409,17.7408865 6.92585809,17.7439132 L6.92585809,19.6386536 C6.92585809,19.8381857 6.76473497,20 6.56568006,20" id="Fill-3" fill="#505050"></path>
                <path d="M2.26373921,20 C2.0646843,20 1.90356118,19.8381857 1.90356118,19.6386536 L1.90356118,17.7439132 C1.90344518,17.7408865 1.90344518,17.7378597 1.90344518,17.734833 L1.90344518,14.2739865 C1.90344518,14.0744544 2.0645683,13.9125237 2.26362321,13.9125237 C2.46256212,13.9125237 2.62380124,14.0744544 2.62380124,14.2739865 L2.62380124,17.7271497 C2.62380124,17.7301764 2.62380124,17.7330868 2.62380124,17.7361135 L2.62380124,19.6386536 C2.62380124,19.8381857 2.46267812,20 2.26373921,20" id="Fill-5" fill="#505050"></path>
                <path d="M7.56605859,19.0004884 C6.82250266,19.0004884 6.21756597,18.3843136 6.21756597,17.6268132 C6.21756597,17.4271647 6.37892108,17.2654668 6.577744,17.2654668 C6.77668291,17.2654668 6.93792202,17.4271647 6.93792202,17.6268132 C6.93792202,17.9857149 7.21968448,18.2775627 7.56605859,18.2775627 C7.93946054,18.2775627 8.10951561,17.9403138 8.10951561,17.6268132 L8.10951561,14.4772555 C8.10951561,13.0507288 6.95300194,11.8902061 5.53142972,11.8902061 L3.29820995,11.8902061 C1.87675373,11.8902061 0.720240058,13.0507288 0.720240058,14.4772555 L0.720240058,17.6268132 C0.720240058,17.9403138 0.890295127,18.2775627 1.26369708,18.2775627 C1.61007119,18.2775627 1.89183364,17.9857149 1.89183364,17.6268132 C1.89183364,17.4271647 2.05307276,17.2654668 2.25189567,17.2654668 C2.45083458,17.2654668 2.6120737,17.4271647 2.6120737,17.6268132 C2.6120737,18.3843136 2.00725301,19.0004884 1.26369708,19.0004884 C0.543341026,19.0004884 0,18.4100409 0,17.6268132 L0,14.4772555 C0,12.6521302 1.4795719,11.1672805 3.29820995,11.1672805 L5.53142972,11.1672805 C7.35018377,11.1672805 8.82975567,12.6521302 8.82975567,14.4772555 L8.82975567,17.6268132 C8.82975567,18.4100409 8.28641464,19.0004884 7.56605859,19.0004884" id="Fill-7" fill="#505050"></path>
                <path d="M13.379738,8.36357456 C13.2875185,8.36357456 13.195415,8.32818496 13.1251194,8.25763859 L11.4084448,6.53495683 C11.2677375,6.3938641 11.2677375,6.16487943 11.4084448,6.0237867 C11.549152,5.88257755 11.7770907,5.88257755 11.917682,6.0237867 L13.379738,7.49105802 L15.931144,4.93055083 C16.0718512,4.78934168 16.29979,4.78934168 16.4404972,4.93055083 C16.5812044,5.07164356 16.5812044,5.30051181 16.4404972,5.44160455 L13.6343566,8.25763859 C13.564061,8.32818496 13.4718415,8.36357456 13.379738,8.36357456" id="Fill-9" fill="#F7778A"></path>
                <g id="Group-13" transform="translate(8.552285, 0.000000)">
                    <mask id="mask-2" fill="white">
                        <use xlink:href="#path-1"></use>
                    </mask>
                    <g id="Clip-12"></g>
                    <path d="M0.720240058,2.77097052 L0.720240058,7.65811088 C0.720240058,8.63202328 1.10918593,9.50162949 1.76063836,9.98462764 C2.49619034,10.5303725 4.68335836,11.9800654 4.93032101,12.1437423 L5.22379941,12.3380358 L5.51170983,12.1474675 C5.76424045,11.9800654 7.95152448,10.5303725 8.68719245,9.98486047 C9.33852888,9.50162949 9.72735876,8.63202328 9.72735876,7.65811088 L9.72735876,2.77097052 C7.86870093,2.61101885 5.88035581,1.28414179 5.22379941,0.81103876 C4.567243,1.28414179 2.57901388,2.61101885 0.720240058,2.77097052 M5.22379941,13.1323228 C5.15477978,13.1323228 5.08576016,13.1124161 5.02555649,13.0726028 L4.53951915,12.7509533 C4.1279534,12.4785465 2.06734068,11.1112741 1.33236871,10.5659949 C0.498101274,9.94725902 0,8.86019305 0,7.65811088 L0,2.4254563 C0,2.22569133 0.161239117,2.06399347 0.360178028,2.06399347 C2.42067475,2.06399347 4.97764875,0.0955635531 5.00316861,0.0756569048 C5.1330879,-0.0253897076 5.31451091,-0.0253897076 5.4445462,0.0756569048 C5.47006606,0.0955635531 8.02692406,2.06399347 10.0875368,2.06399347 C10.2865917,2.06399347 10.4477148,2.22569133 10.4477148,2.4254563 L10.4477148,7.65811088 C10.4477148,8.86019305 9.94949754,9.94725902 9.11523011,10.5661113 C8.38025813,11.1112741 6.31964541,12.4785465 5.91399563,12.7469952 L5.42204232,13.0726028 C5.36195465,13.1124161 5.29293503,13.1323228 5.22379941,13.1323228" id="Fill-11" fill="#F7778A" mask="url(#mask-2)"></path>
                </g>
            </g>
        </g>
    </g>
</svg>