<?xml version="1.0" encoding="UTF-8"?>
<svg width="20px" height="20px" viewBox="0 0 20 20" version="1.1" xmlns="http://www.w3.org/2000/svg" xmlns:xlink="http://www.w3.org/1999/xlink">
    <!-- Generator: Sketch 53.2 (72643) - https://sketchapp.com -->
    <title>ico_eng_2</title>
    <desc>Created with Sketch.</desc>
    <defs>
        <polygon id="path-1" points="0 0.0861734104 13.5559152 0.0861734104 13.5559152 16.2335723 0 16.2335723"></polygon>
        <polygon id="path-3" points="0.0893410405 0.0426242775 13.1941965 0.0426242775 13.1941965 19.6531792 0.0893410405 19.6531792"></polygon>
    </defs>
    <g id="Page-1" stroke="none" stroke-width="1" fill="none" fill-rule="evenodd">
        <g id="new_console_menu_icons_puble" transform="translate(-58.000000, -360.000000)">
            <g id="ico_eng_2" transform="translate(58.000000, 360.000000)">
                <path d="M15.0328092,14.0975376 C14.5241387,14.0975376 14.1083006,14.5132601 14.1083006,15.0233179 C14.1083006,15.5319884 14.5241387,15.9478266 15.0328092,15.9478266 C15.5428671,15.9478266 15.9570867,15.5319884 15.9570867,15.0233179 C15.9570867,14.5132601 15.5428671,14.0975376 15.0328092,14.0975376 M15.0328092,16.6620462 C14.1296879,16.6620462 13.3940809,15.9264393 13.3940809,15.0233179 C13.3940809,14.1189249 14.1296879,13.3848208 15.0328092,13.3848208 C15.9373179,13.3848208 16.6729249,14.1189249 16.6729249,15.0233179 C16.6729249,15.9264393 15.9373179,16.6620462 15.0328092,16.6620462" id="Fill-1" fill="#FB9223"></path>
                <g id="Group-5" transform="translate(0.000000, 0.882312)">
                    <mask id="mask-2" fill="white">
                        <use xlink:href="#path-1"></use>
                    </mask>
                    <g id="Clip-4"></g>
                    <path d="M3.24542197,14.9269827 C4.31906358,15.7112601 7.52634682,15.7036301 8.5527052,14.9010867 L8.5527052,12.8999306 C8.5527052,12.5984277 8.77663584,12.2465202 9.40253179,12.2465202 C9.45131792,12.2465202 9.48334104,12.2497572 9.4893526,12.2497572 C9.48784971,12.2497572 9.55178035,12.2511445 9.65386127,12.2511445 C10.7016069,12.2511445 11.309237,12.028948 11.3502775,11.818659 C11.4933988,11.0677919 11.3258844,9.50998844 11.3243815,9.49322543 C11.3077341,9.33322543 11.4005665,9.1809711 11.549815,9.12316763 C11.5574451,9.12004624 12.1880809,8.87484393 12.7057688,8.57484393 C12.7514335,8.54732948 12.8276185,8.49565318 12.8397572,8.4393526 C12.851896,8.37831214 12.8047283,8.29623121 12.8047283,8.29461272 C11.4905087,6.24617341 11.3655376,5.60513295 11.3579075,5.45750289 C10.8507399,1.13704046 7.35420809,0.798890173 6.2943237,0.798890173 C6.19224277,0.798890173 6.10230058,0.801780347 6.03386127,0.803398844 C5.98357225,0.805017341 5.94391908,0.805017341 5.91501734,0.805017341 C5.05004624,0.805017341 0.735595376,1.03334104 0.71582659,5.51981503 C0.71582659,5.52455491 0.714208092,5.54582659 0.714208092,5.55045087 C0.712820809,8.41796532 1.47883237,9.35299422 2.15351445,10.1784277 C2.41848555,10.5014335 2.66819653,10.8060578 2.84334104,11.1973873 C3.53779191,12.7307977 3.34738728,14.3482543 3.24542197,14.9269827 M5.88310983,16.2335723 C4.54738728,16.2335723 3.21490173,15.9275607 2.60114451,15.3153064 C2.51282081,15.2269827 2.47779191,15.0990058 2.50669364,14.9772717 C2.51582659,14.9405087 2.93316763,13.1253642 2.19305202,11.4911445 C2.0559422,11.1866358 1.8442659,10.9292948 1.60056647,10.6307977 C0.886462428,9.75819653 -1.15606936e-05,8.67230058 -1.15606936e-05,5.55183815 L-1.15606936e-05,5.51981503 C0.0258843931,0.242936416 5.31201156,0.092300578 5.91501734,0.092300578 C5.9394104,0.092300578 5.97293642,0.0906820809 6.01409249,0.0906820809 C6.09016185,0.0876763006 6.18449711,0.0861734104 6.2943237,0.0861734104 C8.78415029,0.0861734104 11.6093526,1.48108671 12.069237,5.39657803 C12.0737457,5.42397688 12.1681965,5.97831214 13.395711,7.89576879 C13.4123584,7.91553757 13.6179075,8.22143353 13.5372139,8.59310983 C13.5006821,8.76212717 13.3879653,9.0043237 13.0636879,9.19160694 C12.7057688,9.40027746 12.309815,9.57993064 12.0614913,9.68501734 C12.1041503,10.192185 12.175711,11.2948439 12.0523584,11.9541503 C11.892474,12.7902197 10.658948,12.9653642 9.65386127,12.9653642 C9.5242659,12.9653642 9.44368786,12.9608555 9.44368786,12.9608555 L9.40253179,12.9608555 C9.34461272,12.9608555 9.30045087,12.9669827 9.26854335,12.9744971 L9.26854335,15.0609711 C9.26854335,15.155422 9.23050867,15.2467514 9.16345665,15.3153064 C8.55120231,15.9275607 7.21559538,16.2335723 5.88310983,16.2335723" id="Fill-3" fill="#344154" mask="url(#mask-2)"></path>
                </g>
                <g id="Group-8" transform="translate(2.196532, 0.073064)">
                    <mask id="mask-4" fill="white">
                        <use xlink:href="#path-3"></use>
                    </mask>
                    <g id="Clip-7"></g>
                    <path d="M0.803560694,6.77996532 C0.803560694,5.61487861 1.50564162,4.61279769 2.50772254,4.1696763 L2.50772254,4.99811561 C1.92298266,5.37580347 1.53465896,6.03372254 1.53465896,6.77996532 C1.53465896,7.95106358 2.48656647,8.90285549 3.65754913,8.90285549 C4.82714451,8.90285549 5.78055491,7.95106358 5.78055491,6.77996532 C5.78055491,6.03372254 5.39211561,5.37580347 4.80598844,4.99811561 L4.80598844,4.1696763 C5.80795376,4.61279769 6.50991908,5.61649711 6.50991908,6.77996532 C6.50991908,8.3530289 5.23072832,9.63395376 3.65754913,9.63395376 C2.08436994,9.63395376 0.803560694,8.3530289 0.803560694,6.77996532 M3.65754913,5.37117919 C4.43280925,5.37117919 5.06483237,6.00308671 5.06483237,6.77996532 C5.06483237,7.558 4.43280925,8.18863584 3.65754913,8.18863584 C2.88090173,8.18863584 2.24737572,7.558 2.24737572,6.77996532 C2.24737572,6.00308671 2.88090173,5.37117919 3.65754913,5.37117919 M3.65754913,3.92597688 C3.8054104,3.92597688 3.94991908,3.94123699 4.09315607,3.96401156 L4.09315607,4.70273988 C3.95153757,4.67372254 3.80679769,4.65707514 3.65754913,4.65707514 C3.50679769,4.65707514 3.36217341,4.67372254 3.2219422,4.70273988 L3.2219422,3.96401156 C3.36379191,3.94123699 3.50830058,3.92597688 3.65754913,3.92597688 M12.8362775,15.874763 C12.6397457,15.874763 12.4798613,16.034763 12.4798613,16.2326821 L12.4798613,16.6195029 C12.4798613,17.8988092 11.4397457,18.9389249 10.1604393,18.9389249 L6.33188439,18.9389249 C5.05269364,18.9389249 4.01396532,17.8988092 4.01396532,16.6195029 L4.01396532,10.328289 C5.81396532,10.1485202 7.22425434,8.62724855 7.22425434,6.77996532 C7.22425434,5.21603468 6.20991908,3.8863237 4.80598844,3.40516763 L4.80598844,0.400427746 C4.80598844,0.202393064 4.64598844,0.0426242775 4.44945665,0.0426242775 C4.25153757,0.0426242775 4.09315607,0.202393064 4.09315607,0.400427746 L4.09315607,3.24204624 C3.94991908,3.22539884 3.8054104,3.21175723 3.65754913,3.21175723 C3.50830058,3.21175723 3.36379191,3.22539884 3.2219422,3.24204624 L3.2219422,0.400427746 C3.2219422,0.202393064 3.06217341,0.0441271676 2.86413873,0.0441271676 C2.66772254,0.0441271676 2.50772254,0.202393064 2.50772254,0.400427746 L2.50772254,3.40516763 C1.10217341,3.8863237 0.0893410405,5.21603468 0.0893410405,6.77996532 C0.0893410405,8.62724855 1.49963006,10.1485202 3.29963006,10.328289 L3.29963006,16.6195029 C3.29963006,18.291526 4.65963006,19.6532601 6.33188439,19.6532601 L10.1604393,19.6532601 C11.8341965,19.6532601 13.1941965,18.291526 13.1941965,16.6195029 L13.1941965,16.2326821 C13.1941965,16.034763 13.0341965,15.874763 12.8362775,15.874763" id="Fill-6" fill="#FB9223" mask="url(#mask-4)"></path>
                </g>
                <path d="M18.0176532,7.32211561 L13.8524509,7.32211561 C13.6560347,7.32211561 13.4945318,7.1636185 13.4945318,6.96569942 C13.4945318,6.76928324 13.6560347,6.60928324 13.8524509,6.60928324 L18.0176532,6.60928324 C18.2156879,6.60928324 18.3755723,6.76928324 18.3755723,6.96569942 C18.3755723,7.1636185 18.2156879,7.32211561 18.0176532,7.32211561" id="Fill-9" fill="#344154"></path>
                <path d="M16.0256879,5.41843931 L13.1992139,5.41843931 C13.0010636,5.41843931 12.8412948,5.25843931 12.8412948,5.06052023 C12.8412948,4.86398844 13.0010636,4.70421965 13.1992139,4.70421965 L16.0256879,4.70421965 C16.2222197,4.70421965 16.382104,4.86398844 16.382104,5.06052023 C16.382104,5.25843931 16.2222197,5.41843931 16.0256879,5.41843931" id="Fill-11" fill="#344154"></path>
                <path d="M18.0176532,9.22714451 L14.7251676,9.22714451 C14.5286358,9.22714451 14.3687514,9.06726012 14.3687514,8.86934104 C14.3687514,8.67292486 14.5286358,8.51280925 14.7251676,8.51280925 L18.0176532,8.51280925 C18.2156879,8.51280925 18.3755723,8.67292486 18.3755723,8.86934104 C18.3755723,9.06726012 18.2156879,9.22714451 18.0176532,9.22714451" id="Fill-13" fill="#344154"></path>
                <path d="M18.0176532,11.132289 L14.1296763,11.132289 C13.9331445,11.132289 13.774763,10.9724046 13.774763,10.7743699 C13.774763,10.5780694 13.9331445,10.4180694 14.1296763,10.4180694 L18.0176532,10.4180694 C18.2156879,10.4180694 18.3755723,10.5780694 18.3755723,10.7743699 C18.3755723,10.9724046 18.2156879,11.132289 18.0176532,11.132289" id="Fill-15" fill="#344154"></path>
                <path d="M18.0176532,13.0359653 L13.2873642,13.0359653 C13.0895607,13.0359653 12.9295607,12.8760809 12.9295607,12.6796647 C12.9295607,12.4817457 13.0895607,12.3232486 13.2873642,12.3232486 L18.0176532,12.3232486 C18.2156879,12.3232486 18.3755723,12.4817457 18.3755723,12.6796647 C18.3755723,12.8760809 18.2156879,13.0359653 18.0176532,13.0359653" id="Fill-17" fill="#344154"></path>
                <path d="M13.394104,15.0232948 C13.394104,14.9000578 13.4078613,14.7813295 13.4352601,14.6669942 L11.0974566,14.6669942 L11.0974566,13.6756647 C10.8752601,13.7427168 10.6315607,13.7868786 10.383237,13.8112717 L10.383237,15.0232948 C10.383237,15.2214451 10.543237,15.3798266 10.7411561,15.3798266 L13.4352601,15.3798266 C13.4078613,15.2656069 13.394104,15.1453757 13.394104,15.0232948" id="Fill-19" fill="#474F59"></path>
                <path d="M17.9293642,4.88387283 L17.9293642,4.08884393 L18.7242775,4.88387283 L17.9293642,4.88387283 Z M19.9365318,5.1717341 L19.9365318,5.1717341 C19.9305202,5.14121387 19.9182659,5.11242775 19.9045087,5.08479769 C19.9030058,5.07728324 19.8984971,5.07115607 19.8953757,5.06352601 C19.8786127,5.03763006 19.8618497,5.0117341 19.8390751,4.98895954 L17.8242775,2.97404624 C17.8015029,2.95115607 17.7756069,2.93450867 17.7480925,2.91786127 C17.7420809,2.91473988 17.7359538,2.91023121 17.7283237,2.90699422 C17.6795376,2.88433526 17.6263584,2.87057803 17.5714451,2.87057803 L10.7411561,2.87057803 C10.7245087,2.87057803 10.7091329,2.87219653 10.6938728,2.87346821 C10.8766474,3.08976879 11.0457803,3.32595376 11.2010405,3.5832948 L17.2151445,3.5832948 L17.2151445,5.24017341 C17.2151445,5.4383237 17.3750289,5.59809249 17.5714451,5.59809249 L19.2283237,5.59809249 L19.2283237,14.6669942 L16.6317919,14.6669942 C16.6576879,14.7813295 16.6728324,14.9000578 16.6728324,15.0232948 C16.6728324,15.1453757 16.6576879,15.2656069 16.6317919,15.3798266 L19.5863584,15.3798266 C19.7841618,15.3798266 19.942659,15.2214451 19.942659,15.0232948 L19.942659,5.24017341 C19.942659,5.21739884 19.9410405,5.19462428 19.9365318,5.1717341 L19.9365318,5.1717341 Z" id="Fill-21" fill="#344154"></path>
            </g>
        </g>
    </g>
</svg>