<?xml version="1.0" encoding="UTF-8"?>
<svg width="19px" height="17px" viewBox="0 0 19 17" version="1.1" xmlns="http://www.w3.org/2000/svg" xmlns:xlink="http://www.w3.org/1999/xlink">
    <title>Group 12</title>
    <defs>
        <polygon id="path-1" points="2.01064812e-16 0 19 0 19 17 2.01064812e-16 17"></polygon>
    </defs>
    <g id="Page-1" stroke="none" stroke-width="1" fill="none" fill-rule="evenodd">
        <g id="실신감지-1" transform="translate(-724.000000, -982.000000)">
            <g id="Group-12" transform="translate(724.000000, 982.000000)">
                <g id="Group-3">
                    <mask id="mask-2" fill="white">
                        <use xlink:href="#path-1"></use>
                    </mask>
                    <g id="Clip-2"></g>
                    <path d="M15.5649006,17 L3.76656746,17 C3.09893627,17 2.55584009,16.4483355 2.55584009,15.7706536 L2.55584009,9.25214311 L1.21280093,9.25214311 C0.692715491,9.25214311 0.244538626,8.93044701 0.0712123231,8.43254279 C-0.10211398,7.93442224 0.0471362663,7.39833419 0.451635328,7.06625382 L1.5009679,6.20511642 C1.64851364,6.08461559 1.86477203,6.10776387 1.98387394,6.25714595 C2.10308238,6.40685254 2.08017817,6.62643663 1.93263242,6.74758647 L0.883406384,7.60883204 C0.670770058,7.78309311 0.658838561,8.02852971 0.71870911,8.19997837 C0.778366596,8.37164337 0.939548339,8.5548825 1.21280093,8.5548825 L2.63882791,8.5548825 C2.97163146,8.5548825 3.24254036,8.8297412 3.24254036,9.1677709 L3.24254036,15.7706536 C3.24254036,16.0639011 3.47754825,16.3027394 3.76656746,16.3027394 L15.5649006,16.3027394 C15.8539199,16.3027394 16.0890343,16.0639011 16.0890343,15.7706536 L16.0890343,9.1677709 C16.0890343,8.8297412 16.3597301,8.5548825 16.6926402,8.5548825 L17.787142,8.5548825 C18.0599685,8.5548825 18.2211502,8.37207604 18.2811273,8.20095189 C18.3411044,8.03004408 18.3297055,7.78493199 18.1183476,7.61013007 L14.8693583,4.92179345 C14.7621879,4.83255361 14.7010389,4.70156035 14.7010389,4.56180535 L14.7010389,1.44187241 L13.305693,1.44187241 L13.305693,2.70053273 C13.305693,2.8811758 13.2058732,3.04159117 13.0454372,3.11947321 C12.8846816,3.19757159 12.6989976,3.174856 12.5607201,3.06160253 L9.8218023,0.813732118 C9.63089834,0.657210849 9.35370409,0.656670002 9.16269361,0.813732118 L8.03878918,1.7363098 C7.8914565,1.85702696 7.67519811,1.83409503 7.55588314,1.68428027 C7.4366747,1.53446551 7.45957891,1.31498959 7.60712466,1.19373158 L8.73113561,0.271370237 C9.17228142,-0.0904567457 9.81253408,-0.0904567457 10.2534668,0.271370237 L12.6189927,2.21268828 L12.6189927,1.37967495 C12.6189927,1.0294221 12.8993829,0.744611807 13.244331,0.744611807 L14.7624009,0.744611807 C15.1072425,0.744611807 15.3877392,1.0294221 15.3877392,1.37967495 L15.3877392,4.45093161 L18.5521427,7.06939074 C18.9544046,7.40244463 19.1020569,7.93820817 18.9279849,8.43470618 C18.7540194,8.9312042 18.3061621,9.25214311 17.787142,9.25214311 L16.7757346,9.25214311 L16.7757346,15.7706536 C16.7757346,16.4483355 16.2325318,17 15.5649006,17" id="Fill-1" fill="#505050" mask="url(#mask-2)"></path>
                </g>
                <path d="M4.43956782,6.18537548 C4.42486651,6.18537548 4.4101652,6.18440196 4.3951443,6.18245491 C4.20701016,6.15790043 4.07427225,5.98288218 4.09856137,5.79196301 C4.17760754,5.17161091 4.48473706,4.61302361 4.96348839,4.21917845 C5.44277237,3.82479245 6.04424767,3.63549582 6.65978509,3.68644366 C6.84877148,3.70212823 6.98949923,3.87043998 6.97415873,4.06233268 C6.9587117,4.2541172 6.79422749,4.39441305 6.60406925,4.38154087 C6.16516061,4.34465507 5.73711814,4.47997512 5.39589863,4.76078315 C5.05478565,5.04159117 4.83597051,5.4394386 4.77972202,5.88141918 C4.75735047,6.05708645 4.60959166,6.18537548 4.43956782,6.18537548" id="Fill-4" fill="#505050"></path>
                <path d="M2.817566,5.97558074 C2.80297122,5.97558074 2.78826991,5.97471538 2.77335554,5.97298467 C2.58532793,5.94843019 2.45237696,5.77362828 2.47655955,5.58270911 C2.60865827,4.53584467 3.12629349,3.59347197 3.93401324,2.92909489 C4.74151993,2.26460964 5.755058,1.94648314 6.79224601,2.03182888 C6.9812324,2.04751345 7.12185362,2.21560886 7.10651313,2.40771789 C7.0910661,2.59950242 6.92658189,2.73979826 6.73631712,2.72681792 C5.87746238,2.65369534 5.03597223,2.92000865 4.36631695,3.47091593 C3.69655514,4.02193137 3.26734083,4.80323968 3.15761367,5.67129993 C3.13534865,5.84718354 2.9878029,5.97558074 2.817566,5.97558074" id="Fill-6" fill="#505050"></path>
                <path d="M9.17229207,11.5086022 C9.10080962,11.5086022 9.02922064,11.4809108 8.97467665,11.4254198 L7.69598235,10.1270613 C7.58668132,10.0162957 7.58668132,9.83651802 7.69598235,9.72575245 C7.80507033,9.61487871 7.98191216,9.61487871 8.0912132,9.72575245 L9.17229207,10.8235647 L11.0650323,8.90171719 C11.1741203,8.79084345 11.3509622,8.79084345 11.4602632,8.90171719 C11.5693512,9.01248276 11.5693512,9.19226047 11.4602632,9.30302604 L9.36980096,11.4254198 C9.31536351,11.4809108 9.24377452,11.5086022 9.17229207,11.5086022" id="Fill-8" fill="#F7778A"></path>
                <path d="M6.12387976,7.29252278 L6.12387976,10.9656345 C6.12387976,11.6958869 6.41194019,12.3480408 6.89420705,12.7100841 C7.44582573,13.1238324 9.07351632,14.2152627 9.25738921,14.3384678 L9.46757532,14.4790881 L9.67584387,14.3396576 C9.86152779,14.2152627 11.4893249,13.1238324 12.0408371,12.7099759 C12.5232105,12.3480408 12.8112709,11.6958869 12.8112709,10.9656345 L12.8112709,7.29252278 C11.4330764,7.16801969 9.96273246,6.1791341 9.46757532,5.81882149 C8.97231166,6.1791341 7.50207422,7.16801969 6.12387976,7.29252278 M9.46757532,15.1027935 C9.41399011,15.1027935 9.36040491,15.0872171 9.3136377,15.0559561 L8.9516446,14.8135482 C8.76446924,14.6882879 7.12527327,13.5891776 6.56204269,13.1665594 C5.93766318,12.6979691 5.56491042,11.8751237 5.56491042,10.9656345 L5.56491042,7.02166635 C5.56491042,6.86492874 5.68997808,6.73782958 5.84434182,6.73782958 C7.378498,6.73782958 9.27720402,5.25655642 9.29616658,5.24162903 C9.39694512,5.16234079 9.53788593,5.16223262 9.638771,5.24162903 C9.65773356,5.25655642 11.559529,6.73782958 13.0907023,6.73782958 C13.2451726,6.73782958 13.3702402,6.86492874 13.3702402,7.02166635 L13.3702402,10.9656345 C13.3702402,11.8751237 12.9974875,12.6979691 12.373108,13.1665594 C11.8098774,13.5891776 10.1705749,14.6882879 9.98553014,14.8122502 L9.62129988,15.0559561 C9.57474573,15.0872171 9.52116053,15.1027935 9.46757532,15.1027935" id="Fill-10" fill="#F7778A"></path>
            </g>
        </g>
    </g>
</svg>