<svg xmlns="http://www.w3.org/2000/svg" xmlns:xlink="http://www.w3.org/1999/xlink" width="7" height="11" viewBox="0 0 7 11">
    <defs>
        <path id="lcmj4srjla" d="M0 0L6.21 0 6.21 10.234 0 10.234z"/>
    </defs>
    <g fill="none" fill-rule="evenodd">
        <g>
            <g>
                <g>
                    <g transform="translate(-502 -698) translate(160.5 376) translate(255.5 306) translate(86 16)">
                        <mask id="p3otwuzlfb" fill="#fff">
                            <use xlink:href="#lcmj4srjla"/>
                        </mask>
                        <path fill="#FFF" d="M1.491 10.07c-.22.219-.575.219-.795 0l-.53-.531c-.22-.219-.22-.574-.002-.795l3.61-3.627L.163 1.49C-.055 1.271-.055.916.165.696L.696.165c.22-.22.575-.22.795 0l4.555 4.554c.22.22.22.577 0 .796L1.491 10.07z" mask="url(#p3otwuzlfb)"/>
                    </g>
                </g>
            </g>
        </g>
    </g>
</svg>
