<svg xmlns="http://www.w3.org/2000/svg" xmlns:xlink="http://www.w3.org/1999/xlink" width="212" height="28" viewBox="0 0 212 28">
    <defs>
        <path id="uu2v9bb59a" d="M6.583 9.498c-1.716.473-3.268 1.455-4.436 2.822C.763 13.94 0 16.007 0 18.14c0 4.942 4.02 8.962 8.963 8.962.606 0 1.098-.49 1.098-1.097s-.492-1.098-1.098-1.098c-3.731 0-6.768-3.036-6.768-6.767 0-1.612.576-3.171 1.62-4.393 1.034-1.209 2.461-2.019 4.021-2.281l.928-.154-.012-.941-.001-.076-.001-.022c0-4.454 3.624-8.078 8.078-8.078 3.654 0 6.863 2.464 7.805 5.991l.448 1.679 1.324-1.126c.985-.838 2.239-1.299 3.532-1.299 3.009 0 5.457 2.448 5.457 5.456v1.098h1.097c1.816 0 3.508.9 4.526 2.405.34.503 1.022.635 1.524.296.502-.34.635-1.022.295-1.524-1.233-1.825-3.169-3.014-5.315-3.304-.504-3.734-3.713-6.624-7.584-6.624-1.294 0-2.559.329-3.68.946C24.65 2.481 20.964 0 16.828 0 11.424 0 6.981 4.194 6.583 9.498z"/>
        <path id="dr0cgq6z2c" d="M5.885 1.665C5.363 1.074 4.643.722 3.856.672 3.792.669 3.729.667 3.667.667c-1.067 0-2.06.567-2.627 1.582-.222.396-.326.85-.326 1.304v4.501h1.484V3.425c0-.369.17-.722.471-.934 1.188-.838 2.474-.001 2.474 1.132v4.431h1.483V3.425c0-.369.17-.722.471-.934 1.189-.838 2.474-.001 2.474 1.132v4.431h1.484V3.559c0-.382-.067-.762-.228-1.107C10.3 1.321 9.25.667 8.099.667c-.847 0-1.654.363-2.214.998z"/>
        <path id="7w483qptpe" d="M2.779 1.032c-.44.185-.835.451-1.174.79-.339.339-.605.734-.791 1.175-.193.455-.29.939-.29 1.438 0 .498.097.981.29 1.437.186.441.452.836.791 1.173.339.34.734.607 1.174.792.456.193.939.291 1.438.291.645 0 1.291-.172 1.849-.495V6.406c0-.007-.002-.013-.006-.018-.178-.24-.438-.257-.604-.121-.108.087-.231.157-.361.208-1.969.771-3.823-1.212-2.795-3.188.171-.329.445-.601.775-.772 1.674-.868 3.353.334 3.353 1.92v3.619h1.483V4.435c0-.499-.097-.983-.291-1.438-.185-.441-.451-.836-.791-1.175-.339-.339-.734-.605-1.173-.79C5.199.838 4.716.74 4.217.74c-.499 0-.982.098-1.438.292z"/>
        <path id="3liwctgfxg" d="M5.546.74v4.262c0 .527-.268 1.024-.716 1.302-1.45.904-2.967-.124-2.967-1.5V.74H.38v4.064c0 .449.088.883.261 1.294.167.395.408.751.713 1.056.305.306.66.545 1.057.713.41.173.845.261 1.293.261.45 0 .885-.088 1.295-.261.396-.168.751-.407 1.056-.713.306-.305.546-.661.713-1.056.174-.411.262-.845.262-1.294V.74H5.546z"/>
        <path id="hens7xy6ti" d="M5.668 1.665C5.146 1.074 4.426.722 3.639.672 3.576.669 3.513.667 3.45.667c-1.067 0-2.061.568-2.628 1.585-.221.396-.324.849-.324 1.301v4.501h1.484V3.425c0-.369.17-.723.472-.935 1.188-.837 2.473 0 2.473 1.133v4.431H6.41v-4.63c0-.368.171-.722.472-.934 1.188-.837 2.473 0 2.473 1.133v4.431h1.483V3.555c0-.374-.066-.75-.221-1.092C10.092 1.324 9.038.667 7.882.667c-.847 0-1.653.363-2.214.998z"/>
        <path id="wq9dw4hblk" d="M1.027.646C.632.659.313.982.31 1.38v.011c.001.151.047.312.152.472.029.044.07.085.115.115.155.102.312.147.46.15h.028c.399-.007.721-.33.729-.729v-.026c-.003-.148-.049-.305-.151-.461-.029-.044-.069-.085-.114-.114C1.377.697 1.222.65 1.076.646h-.049z"/>
        <path id="xi4rc2c6em" d="M2.781 1.032c-.44.185-.836.451-1.175.79-.339.339-.605.734-.791 1.175-.193.455-.291.939-.291 1.438 0 .498.098.981.291 1.437.186.441.452.836.791 1.173.339.34.735.607 1.175.792.455.193.938.291 1.437.291.644 0 1.291-.172 1.85-.495V6.406c0-.008-.003-.015-.008-.02-.179-.239-.437-.255-.604-.118-.108.087-.232.156-.361.207-1.969.771-3.822-1.213-2.795-3.187.172-.33.446-.602.776-.773 1.674-.868 3.352.334 3.352 1.92v3.619h1.485V4.435c0-.499-.099-.983-.291-1.438-.186-.441-.453-.836-.791-1.175-.34-.339-.735-.605-1.175-.79C5.201.838 4.717.74 4.218.74s-.982.098-1.437.292z"/>
        <path id="e388jfylto" d="M.371 2.566c0 1.017.824 1.841 1.843 1.841 1.017 0 1.842-.824 1.842-1.841 0-1.018-.825-1.843-1.842-1.843-1.019 0-1.843.825-1.843 1.843z"/>
    </defs>
    <g fill="none" fill-rule="evenodd">
        <g>
            <g>
                <path fill="#FFF" d="M124.17 25.244c-.019.112-.033.222-.042.329-.01.108-.033.217-.07.329-.019.037-.033.07-.042.098-.009.028-.024.06-.042.098-.066.13-.15.233-.252.308-.215.131-.453.163-.714.098-.15-.028-.271-.084-.364-.168-.084-.074-.147-.17-.189-.287-.042-.117-.075-.231-.098-.343-.024-.112-.035-.21-.035-.294V16.41c0-.131.009-.262.028-.392.018-.13.047-.253.084-.364.037-.112.089-.201.154-.266.103-.103.21-.165.322-.189.112-.023.233-.035.364-.035.159 0 .305.044.441.133.135.089.231.213.287.371.084.196.131.401.14.616l.028.644v.07c.019.719.023 1.456.014 2.212-.009.756-.014 1.47-.014 2.142v3.388c0 .084.002.168.007.252.005.084.002.168-.007.252zm-4.718-9.437c.382 0 .709.034.98.099.27.066.485.234.644.504.149.252.172.504.07.756-.131.262-.364.415-.7.462-.224.037-.481.058-.77.063-.289.005-.672-.003-1.149-.021-.008.159-.013.324-.013.497v.476c0 .145.002.268.007.371l.006.196v1.568c0 .074.005.175.015.301.009.126.019.222.027.287.076.074.178.185.309.329.131.145.233.264.308.357l.287.35c.098.121.198.257.301.405.075.084.14.169.196.253.055.084.107.159.154.224.177.252.359.527.546.826.187.299.312.597.378.896.028.131.03.273.007.426-.024.155-.091.284-.203.386-.159.14-.336.21-.533.21-.213 0-.42-.058-.615-.175-.196-.117-.355-.24-.476-.371-.177-.186-.343-.383-.497-.588-.154-.206-.306-.406-.456-.602-.102-.15-.209-.296-.321-.441-.112-.145-.229-.287-.35-.427-.019-.037-.038-.061-.056-.07 0 .009-.003.014-.007.014-.005 0-.007.005-.007.014-.047.075-.1.147-.161.216-.061.071-.114.143-.161.218-.075.084-.143.17-.203.259l-.175.259c-.131.196-.262.389-.393.581-.13.191-.279.371-.447.539-.401.401-.779.602-1.135.602-.092 0-.181-.014-.265-.042-.215-.056-.36-.187-.434-.392-.075-.158-.1-.331-.077-.518.024-.186.067-.35.133-.49.074-.159.158-.308.252-.448.093-.14.191-.28.294-.42.065-.084.128-.168.189-.252.061-.084.115-.168.16-.252.085-.14.199-.306.344-.497.145-.191.289-.378.434-.56.144-.182.277-.347.399-.497.121-.149.205-.257.252-.322V17.67h-.854c-.355 0-.6-.002-.735-.007s-.236-.017-.302-.035c-.354-.056-.592-.257-.713-.602-.103-.299-.066-.56.112-.784.158-.224.383-.364.672-.42.047-.01.094-.016.139-.021.047-.004.099-.007.155-.007.093 0 .159.005.196.013h4.242zm-6.776 3.711c.047 0 .091.004.133.014.042.009.087.014.132.014.047.01.099.016.155.021.056.005.112.012.168.021.102.018.205.053.308.105.103.051.177.128.224.231.065.103.098.224.098.364 0 .075-.002.143-.007.203-.005.061-.017.128-.035.203-.019.074-.039.154-.063.238-.023.083-.068.149-.133.196-.131.094-.257.154-.378.182-.149.019-.332.023-.546.014-.215-.01-.397-.01-.546 0-.009 0-.019.005-.028.014h-.014l-.014.014v1.792c.019.486.019.961 0 1.428v.196c0 .122-.002.254-.007.399-.005.144-.016.287-.035.427-.019.14-.052.273-.098.399-.047.126-.112.23-.196.314-.112.131-.262.197-.448.197l-.028-.014c-.224-.01-.404-.075-.539-.196-.135-.121-.238-.271-.308-.448s-.114-.362-.133-.553c-.019-.192-.028-.361-.028-.511V16.333c0-.079.009-.173.028-.28.019-.107.049-.219.091-.336.042-.117.1-.212.175-.287.065-.065.161-.115.287-.147.126-.033.24-.049.342-.049.207 0 .379.07.519.21.131.131.208.269.23.413.024.145.045.296.064.455.009.037.014.093.014.168.018.159.028.325.028.497s.005.343.014.511c0 .103.005.2.014.294.009.093.014.191.014.294-.01.056-.012.109-.007.161.005.051.007.101.007.147V19.336c0 .055.009.107.028.154 0 .009.046.014.14.014h.154c.084.018.149.023.196.014h.028zm-8.344 4.34c0-.112-.003-.224-.007-.336-.005-.112-.007-.224-.007-.336V18.23c0-.149-.009-.298-.028-.448-.01-.047-.021-.112-.035-.196-.014-.084-.044-.14-.091-.168-.047-.019-.1-.026-.161-.021-.061.005-.119.002-.175-.007h-.714c-.103 0-.213-.007-.329-.021-.117-.014-.221-.049-.315-.105-.131-.093-.22-.191-.266-.294-.047-.103-.07-.233-.07-.392 0-.158.037-.313.112-.462.046-.102.108-.183.182-.238.047-.047.114-.086.203-.119.089-.033.17-.058.245-.078.196-.045.366-.071.511-.076.144-.005.319-.007.525-.007H105.046c.037 0 .079.004.126.014.093-.01.185-.014.273-.014H107.629c.051 0 .101.004.147.014.13.009.263.024.399.042.136.019.259.051.371.098.074.028.147.065.217.112s.128.103.175.168c.084.131.13.262.14.392.009.131.023.275.042.434.028.252.039.506.035.763-.005.257-.007.516-.007.777v4.451l.007.225.014.476c.005.187.005.381 0 .581-.005.201-.012.376-.021.525-.009.187-.049.378-.119.574-.07.196-.226.345-.469.448-.093.028-.177.051-.252.07-.075.018-.15.028-.224.028-.121 0-.243-.026-.364-.077-.121-.052-.21-.128-.266-.231-.14-.289-.21-.62-.21-.995v-.307c0-.103-.005-.205-.014-.308v-5.166c0-.159-.002-.312-.007-.462-.005-.149-.017-.298-.035-.448 0-.047-.007-.112-.021-.196-.014-.084-.045-.14-.091-.168-.047-.019-.1-.026-.161-.021-.06.005-.119.002-.175-.007-.065-.009-.147-.009-.245 0s-.179.009-.245 0v5.459l.007.225c.005.131.007.289.007.476v.581c0 .201-.005.376-.014.525-.01.093-.023.192-.042.294-.018.103-.049.198-.091.287-.042.089-.098.173-.168.252-.07.079-.166.143-.287.189-.094.028-.179.051-.259.07-.08.018-.152.028-.217.028-.131 0-.257-.026-.378-.077-.121-.052-.205-.128-.252-.231-.131-.28-.205-.612-.224-.995v-.615zm-7.378-7.21c-.346 0-.688.005-1.029.014-.341.01-.647.04-.917.091-.271.052-.49.126-.658.224-.168.098-.252.236-.252.413 0 .317.254.53.763.637.508.108 1.206.152 2.093.133.345 0 .688-.002 1.029-.007.34-.005.646-.028.916-.07.272-.042.491-.116.659-.224.168-.107.252-.263.252-.469 0-.177-.084-.315-.252-.413-.168-.098-.387-.172-.659-.224-.27-.051-.576-.081-.916-.091-.341-.009-.684-.014-1.029-.014zM94 24.796c0 .047.002.094.007.14.005.046.021.079.049.098.018.019.049.03.091.035.042.005.086.007.133.007.046 0 .103-.005.168-.014h4.242l.377.028c.104.009.211.014.323.014.112 0 .215-.009.308-.028.093-.01.149-.037.168-.084.019-.047.033-.112.042-.196.009-.074.014-.161.014-.259s-.028-.185-.084-.259c-.065-.075-.156-.114-.273-.119-.117-.005-.222-.002-.315.007h-3.752c-.206-.019-.406-.026-.602-.021-.196.004-.397.012-.602.021-.075 0-.133.003-.175.007-.042.005-.072.049-.091.133-.019.065-.028.128-.028.189v.175c.009.018.012.037.007.056-.005.019-.007.042-.007.07zm-1.33 1.595c-.01 0-.023-.008-.042-.027-.094-.075-.156-.178-.189-.308s-.049-.248-.049-.35c-.009-.168-.021-.336-.035-.504-.014-.168-.021-.331-.021-.49v-.658c0-.196.024-.411.07-.644.028-.149.075-.269.14-.357.065-.088.168-.162.308-.217.261-.103.522-.155.784-.155h6.454c.177.01.359.024.546.042.186.02.364.066.532.141.187.074.311.18.371.315.061.135.1.296.119.483.009.159.016.341.021.546.005.205.002.413-.007.623-.01.21-.023.418-.042.623-.019.205-.052.392-.098.56-.028.102-.061.194-.098.273-.037.079-.112.138-.224.175-.102.037-.208.06-.315.07-.108.009-.212.014-.315.014l-7.154-.028c-.121-.009-.252-.014-.392-.014s-.261-.037-.364-.113zm4.284-6.691c-.672 0-1.3-.023-1.883-.07-.584-.047-1.088-.152-1.512-.315-.425-.163-.758-.396-1.001-.7-.242-.304-.364-.712-.364-1.225 0-.466.122-.849.364-1.148.243-.299.576-.534 1.001-.707.424-.173.928-.292 1.512-.357.583-.065 1.211-.098 1.883-.098.672 0 1.3.023 1.883.07.583.047 1.087.15 1.512.308.425.159.759.39 1.001.693.243.303.364.716.364 1.239 0 .513-.121.921-.364 1.225-.242.304-.576.537-1.001.7-.425.163-.929.268-1.512.315-.583.047-1.211.07-1.883.07zm3.85.742c.159 0 .322.002.49.007.168.005.319.03.455.077.135.047.245.123.329.231.084.107.126.268.126.483 0 .187-.094.364-.28.532-.15.131-.329.202-.539.217-.21.014-.408.017-.595.007-.047-.009-.089-.014-.126-.014h-8.106c-.066 0-.145-.008-.238-.021-.093-.014-.184-.047-.273-.098-.089-.052-.166-.121-.231-.21-.066-.089-.098-.213-.098-.371 0-.27.091-.478.273-.623.182-.144.38-.217.595-.217h8.218zm-10.262-.938c.046 0 .091.005.133.014.042.009.086.014.133.014.047.009.098.017.154.021.056.004.112.011.168.021.102.019.205.054.308.105.103.051.177.128.224.231.066.103.098.224.098.364 0 .074-.002.142-.007.203-.005.061-.017.128-.035.203l-.063.238c-.024.084-.068.149-.133.196-.131.093-.257.154-.378.182-.149.018-.331.023-.546.014-.215-.009-.397-.009-.546 0-.009 0-.019.004-.028.014h-.014l-.014.014v1.806c.019.486.019.961 0 1.428v.196c0 .122-.002.254-.007.399-.005.144-.016.287-.035.427-.019.14-.052.273-.098.399-.047.126-.112.23-.196.314-.112.131-.261.197-.448.197l-.028-.014c-.224-.01-.404-.075-.539-.196-.135-.121-.238-.271-.308-.448s-.114-.362-.133-.553c-.019-.192-.028-.361-.028-.511V16.333c0-.079.009-.173.028-.28.019-.107.049-.219.091-.336.042-.117.1-.212.175-.287.065-.065.161-.115.287-.147.126-.033.24-.049.343-.049.205 0 .378.07.518.21.131.131.208.269.231.413.023.145.044.296.063.455.009.037.014.093.014.168.018.159.03.322.035.49.004.168.012.336.021.503 0 .104.002.204.007.302s.007.198.007.301c-.01.056-.012.109-.007.161.005.051.007.101.007.147V19.322c0 .056.009.108.028.154 0 .009.046.014.14.014h.154c.084.019.149.024.196.014h.028zm-8.134 4.228c.009.075.04.15.091.224.051.075.128.121.231.14l1.302.014c.112-.01.224-.021.336-.035.112-.014.215-.049.308-.105.102-.056.159-.154.168-.294.009-.14.009-.275 0-.406v-4.676c0-.121-.005-.238-.014-.35-.01-.103-.016-.205-.021-.308-.005-.103-.012-.191-.021-.266-.019-.177-.082-.287-.189-.329-.107-.042-.189-.063-.245-.063h-.014l-1.19-.028c-.224 0-.387.033-.49.098-.103.065-.178.164-.224.293-.009.047-.016.116-.021.204-.005.088-.007.182-.007.28v5.607zm2.072-8.246H84.921c.107 0 .249.005.427.014.299 0 .541.054.728.161.187.107.334.238.441.392.107.154.179.32.217.497.037.177.056.336.056.476v7.098l-.007.161c-.005.098-.016.212-.035.343-.019.131-.044.266-.077.406s-.077.257-.133.35c-.075.112-.184.201-.329.266-.145.066-.289.115-.434.147-.145.033-.278.051-.399.056l-.196.007h-2.534c-.084 0-.212-.007-.385-.021-.173-.014-.352-.046-.539-.098-.187-.052-.362-.128-.525-.231-.163-.103-.282-.243-.357-.42-.131-.308-.203-.63-.217-.966-.014-.336-.016-.667-.007-.994v-5.04c0-.028-.007-.123-.021-.287-.014-.163-.021-.35-.021-.56 0-.21.014-.425.042-.645.028-.218.079-.403.154-.552.093-.187.219-.323.378-.406.159-.084.334-.137.525-.161.191-.023.387-.028.588-.014.201.014.385.021.553.021.298 0 .581.002.847.007s.539.002.819-.007z" transform="translate(-370 -92) translate(370 92)"/>
                <path fill="#FFF" d="M171.524 24.824c.204 0 .405.067.602.203.195.135.285.353.266.651-.01.14-.044.256-.105.35-.061.093-.138.17-.232.231-.094.06-.19.102-.293.126-.102.023-.202.035-.294.035h-6.776c-.43 0-.728-.082-.897-.245-.167-.164-.25-.352-.25-.567v-1.61c0-.27.085-.492.258-.665.173-.173.357-.259.553-.259.309 0 .529.09.665.266.136.177.212.374.232.588l.055.868 6.216.028zm-8.093-8.456c0-.12.02-.245.056-.37.037-.127.095-.243.168-.35.076-.108.168-.197.28-.267.113-.07.244-.105.393-.105.327 0 .553.105.678.315.126.21.204.473.232.791l.083 1.288c.018.196.056.334.113.413.055.08.204.12.447.12h4.27c.121 0 .268.004.441.013.173.01.341.04.504.09.163.052.303.13.42.232.117.102.175.247.175.433 0 .188-.047.33-.14.428-.093.098-.215.17-.37.217-.155.047-.325.074-.512.084-.187.01-.374.014-.56.014h-4.788c-.195 0-.404-.007-.63-.02-.224-.016-.429-.069-.615-.162-.206-.103-.362-.262-.47-.477-.106-.213-.16-.442-.16-.685v-.329c0-.173-.002-.362-.007-.568-.005-.205-.007-.41-.007-.615v-.49zm8.317 4.368c.159 0 .31.012.456.035.143.024.27.068.377.133.107.066.194.151.258.26.066.106.099.25.099.426 0 .168-.044.3-.133.4-.09.097-.204.174-.344.23-.14.056-.292.091-.455.105-.163.014-.315.02-.454.02l-7.994-.013c-.076 0-.173-.007-.294-.02-.121-.015-.24-.048-.358-.099-.115-.05-.216-.126-.3-.224-.084-.099-.126-.227-.126-.385 0-.299.106-.51.315-.637.21-.126.456-.199.735-.217.204-.009.417-.016.637-.02.219-.006.474-.009.762-.009h1.016c.388 0 .85.003 1.393.008.54.005 1.174.007 1.897.007h2.513zm-10.403-1.106c.048 0 .091.005.133.014.042.01.087.014.133.014.048.01.1.017.155.02.055.005.112.012.168.022.102.02.204.054.308.104.102.052.178.13.224.232.065.102.097.224.097.364 0 .074-.001.143-.006.203-.005.061-.016.128-.035.202l-.063.24c-.024.083-.069.148-.133.195-.131.093-.257.154-.379.182-.15.018-.33.023-.546.014-.215-.009-.397-.009-.546 0-.008 0-.018.004-.028.014h-.013l-.014.014v.042c-.01.233-.012.504-.007.812.004.308.006.583.006.826.02.486.02.961 0 1.428v.196c0 .121-.002.254-.006.4-.005.143-.017.286-.036.426-.018.14-.05.273-.097.4-.047.125-.112.23-.196.313-.113.131-.262.197-.448.197l-.028-.014c-.225-.01-.404-.075-.54-.196-.135-.12-.238-.27-.308-.449-.07-.176-.113-.36-.132-.552-.019-.192-.029-.362-.029-.51v-8.45c0-.079.01-.173.028-.28.02-.107.05-.219.091-.336.042-.117.101-.212.175-.288.066-.064.162-.114.287-.146.126-.033.24-.049.344-.049.204 0 .377.07.518.21.13.131.207.27.23.413.024.145.046.296.064.455.008.037.013.093.013.168.02.158.03.322.035.49.005.167.012.335.022.503 0 .104.002.204.007.302.004.098.006.198.006.301-.008.056-.01.11-.006.161.004.051.006.101.006.147v1.064c0 .056.01.107.028.154 0 .01.048.014.14.014h.155c.084.02.148.023.195.014h.028zm-6.607 4.9c.204-.028.382-.109.531-.245.15-.136.272-.296.364-.483.093-.187.16-.387.197-.602.037-.215.055-.415.055-.603 0-.158-.006-.337-.02-.539-.014-.2-.04-.396-.077-.588-.038-.19-.099-.368-.183-.53-.083-.164-.195-.298-.335-.4-.132-.084-.286-.138-.463-.16-.177-.025-.356-.017-.538.02-.183.037-.349.1-.498.19-.148.088-.256.207-.321.356-.177.383-.268.766-.273 1.148-.005.382.035.775.119 1.176.046.205.112.417.196.637.084.22.215.39.392.511.037.028.096.05.175.063.078.014.162.026.251.034.09.01.173.017.252.022.08.005.138.002.175-.007zm.056-5.922c.504.02.928.14 1.273.363.346.225.625.514.84.87.215.354.364.754.448 1.203.085.448.12.901.106 1.358-.015.457-.08.905-.197 1.344-.117.438-.268.826-.454 1.162-.206.364-.493.642-.862.833-.368.191-.763.301-1.183.33-.42.026-.832-.029-1.238-.169-.405-.14-.75-.359-1.028-.658-.244-.262-.416-.534-.52-.819-.102-.285-.178-.6-.224-.945-.046-.345-.083-.679-.112-1-.028-.323-.032-.642-.013-.96.019-.317.072-.63.162-.938.087-.308.225-.616.412-.924.102-.178.248-.334.433-.469.188-.136.398-.248.63-.336.234-.089.484-.154.75-.196.266-.042.525-.059.778-.049zm1.96-2.24c.186 0 .374.028.56.084.186.056.33.178.435.364.064.121.087.273.069.455-.02.182-.075.333-.169.455-.093.112-.238.192-.434.238-.196.047-.4.077-.615.09-.215.015-.413.017-.595.008-.183-.009-.305-.014-.371-.014-.075.01-.147.014-.216.014h-.68c-.075-.009-.148-.014-.218-.014h-.216l-1.653-.028c-.476 0-.816-.06-1.022-.182-.206-.12-.326-.313-.363-.575-.037-.27.032-.489.21-.657.13-.112.24-.182.328-.21.09-.028.203-.042.344-.042.037 0 .075.002.112.007.037.005.075.007.113.007h.349c.13 0 .284-.002.462-.007.177-.005.33-.012.462-.02 0-.038.002-.092.007-.163l.014-.216.013-.217c.005-.07.007-.119.007-.148.02-.158.07-.302.154-.433.197-.27.44-.397.728-.378.132.018.263.04.393.062.13.024.238.092.322.204.102.15.151.352.147.61-.006.256.001.486.02.692h.406c.076 0 .184.002.322.007.14.005.248.007.323.007h.251zm-7.167.084v1.414c.037 0 .106.002.209.007l.323.014c.11.004.218.011.32.021.103.01.179.02.226.028.186.037.316.091.39.16.075.071.121.158.14.26.029.103.043.222.043.357 0 .135-.028.25-.084.342-.112.188-.28.292-.505.316-.224.023-.47.04-.742.05h-.32v1.105c-.01.103-.024.208-.042.315-.02.107-.057.212-.113.315-.055.112-.136.205-.238.28-.131.093-.284.14-.462.14-.159 0-.29-.032-.393-.098-.093-.056-.167-.126-.224-.21-.055-.085-.1-.166-.133-.245-.031-.079-.059-.179-.077-.302v-4.45c-.008-.039-.005-.14.014-.309.02-.168.056-.308.112-.42.094-.197.28-.308.56-.336.345-.047.602.023.77.21.058.075.097.147.12.217.023.07.043.142.064.216.026.094.043.192.048.295.005.103.002.205-.006.308zm-1.121 6.118c.391 0 .678.084.861.252.181.168.273.36.273.574V24.6c0 .084.001.164.007.24.005.074.006.125.006.153v.308c0 .103-.005.206-.013.308-.018.195-.096.355-.23.476-.137.121-.311.181-.526.181-.047 0-.13-.002-.245-.006-.117-.005-.198-.017-.245-.036-.132-.037-.23-.092-.302-.168-.07-.074-.123-.158-.16-.252-.037-.092-.06-.193-.07-.3-.01-.108-.02-.212-.028-.315v-.196c0-.094-.002-.189-.007-.287-.005-.098-.013-.192-.022-.28-.01-.088-.017-.152-.027-.189-.028-.01-.103-.018-.225-.028-.12-.009-.358-.014-.714-.014-.298 0-.483.002-.552.007l-.12.007h-5.054c-.008 0-.043-.009-.105-.029-.06-.018-.129-.048-.202-.09-.076-.042-.144-.096-.21-.16-.066-.066-.103-.146-.113-.239-.056-.364 0-.644.168-.84.113-.13.234-.208.365-.23.13-.025.2-.04.21-.05h7.28zm-4.327-7.154h.245c.08 0 .158.01.232.028.13.047.26.103.385.168.126.066.23.153.314.266.084.121.15.273.197.455.047.181.07.347.07.497 0 .401.005.803.013 1.204.01.401.006.803-.012 1.204v.413c0 .145-.004.29-.008.434-.004.144-.021.285-.05.42-.026.135-.069.258-.126.371-.073.131-.173.233-.293.307-.121.076-.25.122-.386.141-.135.02-.268.005-.399-.042-.13-.047-.233-.136-.308-.267-.084-.139-.144-.29-.18-.454-.038-.164-.063-.334-.071-.51-.01-.178-.01-.356 0-.533.008-.177.013-.345.013-.505 0-.232-.001-.475-.007-.727-.005-.252-.016-.495-.035-.729-.008-.11-.037-.193-.084-.244-.047-.05-.102-.087-.167-.105-.065-.019-.14-.029-.225-.029-.084 0-.172-.003-.266-.013H142.698c-.029 0-.061.003-.099.007-.036.005-.101.006-.195.006h-.602c-.3 0-.612-.003-.939-.013-.326-.009-.661-.037-1.007-.084-.131-.019-.227-.07-.287-.154-.061-.084-.103-.182-.126-.294-.024-.112-.032-.229-.028-.35.005-.12.016-.224.035-.308.038-.177.136-.317.294-.42.102-.075.213-.115.328-.119.118-.005.237-.01.357-.02.131-.02.261-.025.392-.015.131.01.262.014.393.014h2.925zm-5.208 5.586c0 .01-.002.042-.007.097-.005.057-.02.124-.048.204-.029.08-.069.161-.12.245-.05.084-.124.154-.215.21-.105.065-.21.098-.323.098-.186 0-.34-.047-.462-.14-.103-.075-.183-.168-.238-.28-.14-.26-.206-.549-.197-.86.01-.314.018-.614.029-.904v-.196c-.131.01-.26.014-.386.014-.125 0-.24.005-.341.014h-.042v1.274c-.01.103-.024.208-.042.315-.02.107-.057.212-.113.315-.065.121-.144.21-.238.266-.065.046-.121.084-.168.112-.048.028-.113.042-.197.042-.13 0-.26-.037-.392-.112-.094-.056-.168-.126-.223-.21-.056-.084-.099-.163-.125-.238-.03-.075-.053-.173-.071-.295v-4.619c-.01-.047-.007-.152.006-.315.014-.163.05-.3.107-.413.091-.197.284-.308.572-.336.16-.019.29-.009.392.028.103.037.192.098.267.182.065.075.107.147.126.217l.056.216c.027.094.044.192.048.295.004.103.007.205.007.308-.008.037-.012.094-.012.168v1.232c.046.01.148.016.306.021.159.005.319.012.476.021v-1.484c-.008-.103-.012-.203-.006-.3.005-.099.02-.199.048-.303.037-.139.121-.279.252-.42.15-.186.37-.26.658-.223.244.037.411.16.505.364.056.111.09.247.105.406.013.16.015.256.006.294v4.69zm-1.763 3.318c0-.159-.084-.285-.251-.378-.168-.094-.387-.163-.653-.21-.264-.047-.564-.077-.895-.092-.332-.013-.66-.02-.988-.02-.327 0-.65.007-.972.02-.322.015-.612.045-.867.092-.257.047-.465.116-.624.21-.16.093-.239.22-.239.378 0 .14.08.257.24.35.157.093.365.163.623.21.255.047.544.08.867.098.322.02.645.028.972.028h.988c.332 0 .63-.019.895-.056.266-.037.484-.105.653-.203.167-.098.251-.24.251-.427zm-7.462 0c0-.42.124-.77.37-1.05.249-.28.582-.502 1.001-.665.422-.164.916-.278 1.484-.344.57-.064 1.177-.097 1.82-.097.644 0 1.25.023 1.82.07.57.047 1.065.147 1.484.301.42.154.755.371 1.001.651.248.28.371.658.371 1.134 0 .467-.123.84-.37 1.12-.248.28-.582.497-1.002.651-.42.154-.915.256-1.483.308-.57.051-1.177.077-1.82.077-.644 0-1.251-.026-1.82-.077-.57-.052-1.064-.154-1.485-.308-.42-.154-.752-.37-1-.65s-.37-.654-.37-1.12zm-.575-2.954c-.13-.065-.214-.173-.251-.322-.076-.187-.088-.37-.042-.553.046-.183.121-.357.224-.525.102-.168.216-.327.343-.476.125-.149.236-.289.328-.42.131-.196.264-.373.4-.532.135-.158.272-.34.412-.546.094-.159.2-.324.316-.497.117-.173.184-.36.203-.567 0-.159.005-.322.013-.49.01-.168.036-.32.078-.455.041-.136.11-.247.202-.336.095-.089.228-.134.406-.134.14 0 .303.017.49.05.188.032.309.123.365.273.037.084.058.18.063.287.004.107.006.217.006.33v.328c0 .107.014.203.042.287.047.158.091.294.133.405.043.113.1.234.177.365.157.28.314.52.468.72.154.202.314.433.482.694.131.196.25.39.357.581.108.191.185.408.231.651.038.195.02.363-.055.504-.075.14-.18.24-.314.301-.137.06-.281.077-.435.05-.154-.029-.287-.109-.398-.24l-1.528-2.057-1.47 1.834c-.093.112-.198.217-.315.315-.116.098-.24.165-.37.203-.103.02-.204.031-.302.034-.096.005-.183-.015-.258-.062z" transform="translate(-370 -92) translate(370 92)"/>
                <g fill="#FFF">
                    <path d="M16.901 1.648c-.346 0-.688.005-1.029.014-.34.01-.647.04-.917.09-.27.052-.49.126-.658.225-.168.098-.252.235-.252.412 0 .318.254.53.763.638.508.107 1.206.151 2.093.133.345 0 .688-.002 1.03-.007.34-.005.645-.028.916-.07.271-.042.49-.117.658-.224.167-.107.251-.264.251-.47 0-.177-.084-.314-.25-.412-.169-.099-.388-.173-.659-.225-.27-.05-.577-.08-.917-.09-.34-.009-.684-.014-1.029-.014zm-2.954 8.147c0 .047.002.094.007.141.005.046.021.08.05.098.017.018.047.03.09.035.042.005.086.007.133.007.046 0 .103-.005.168-.014h4.242c.13.01.256.02.378.027.103.01.21.015.322.015.112 0 .214-.01.308-.028.093-.01.15-.037.168-.084.02-.047.032-.113.042-.197.01-.074.014-.16.014-.258s-.029-.185-.084-.259c-.066-.075-.156-.114-.273-.119-.117-.005-.222-.002-.315.007h-3.752c-.205-.019-.406-.026-.603-.02-.195.003-.396.011-.6.02-.076 0-.134.003-.176.006-.042.005-.072.05-.09.133-.02.066-.029.13-.029.19v.174c.01.02.012.038.007.057-.005.02-.007.042-.007.07zm-1.33 1.596c-.01 0-.024-.009-.042-.027-.094-.075-.156-.178-.189-.309-.033-.13-.049-.247-.049-.349-.009-.168-.02-.336-.036-.504-.013-.168-.02-.33-.02-.49v-.659c0-.195.023-.41.07-.643.028-.15.074-.269.14-.358.065-.088.168-.16.307-.217.262-.102.524-.154.785-.154h6.454c.177.01.36.024.546.042.186.02.364.066.532.141.186.074.31.18.371.314.061.136.101.297.12.484.008.16.015.34.02.546.004.205.003.413-.007.623-.01.21-.024.418-.042.623-.019.205-.052.391-.098.56-.028.102-.06.194-.099.273-.037.08-.11.137-.223.174-.103.038-.208.061-.316.071-.107.01-.21.013-.314.013l-7.154-.027c-.12-.01-.252-.015-.392-.015s-.262-.037-.364-.112zm4.284-6.69c-.672 0-1.3-.025-1.883-.072-.584-.046-1.088-.15-1.513-.314-.424-.163-.757-.396-1-.7-.243-.304-.364-.712-.364-1.226 0-.466.121-.848.364-1.147.243-.299.576-.534 1-.707.425-.173.93-.292 1.513-.358C15.601.113 16.23.08 16.901.08c.672 0 1.3.023 1.883.07.583.047 1.087.15 1.512.308.424.16.758.39 1.001.693.243.303.364.716.364 1.238 0 .514-.12.922-.364 1.226-.243.304-.577.537-1 .7-.426.163-.93.268-1.513.314-.583.047-1.21.071-1.883.071zm3.85.741c.16 0 .322.002.49.007.168.005.32.03.455.077s.245.123.33.23c.083.108.125.27.125.484 0 .186-.094.364-.28.532-.15.131-.329.202-.539.217-.21.013-.409.016-.595.007-.047-.009-.089-.014-.126-.014h-8.106c-.066 0-.145-.008-.238-.022-.094-.013-.184-.046-.273-.097-.089-.052-.166-.12-.23-.21-.066-.089-.099-.213-.099-.37 0-.272.09-.48.273-.624.182-.145.38-.217.595-.217h8.218zM10.49 4.503c.047 0 .091.005.133.015.042.01.087.014.133.014.046.01.098.016.154.02.055.005.112.012.168.022.102.018.205.053.308.104.103.052.177.13.224.232.065.102.098.223.098.364 0 .074-.002.142-.007.203-.005.061-.017.128-.035.202-.019.075-.039.155-.063.24-.023.083-.068.148-.133.195-.13.093-.256.154-.378.181-.149.02-.332.024-.546.015-.215-.01-.397-.01-.546 0-.009 0-.019.004-.028.014h-.014l-.014.013V8.144c.02.485.02.961 0 1.428v.196c0 .121-.003.254-.007.4-.005.143-.016.286-.035.425-.019.141-.052.274-.098.4-.047.126-.112.23-.196.314-.112.131-.262.196-.448.196l-.029-.013c-.223-.01-.403-.075-.538-.196-.135-.122-.238-.27-.308-.449-.07-.176-.114-.36-.133-.552-.019-.192-.028-.362-.028-.51v-8.45c0-.08.01-.173.028-.28.02-.107.05-.219.091-.337.042-.116.1-.212.175-.287.065-.064.161-.114.287-.146.126-.033.24-.049.343-.049.206 0 .378.07.518.21.131.131.207.268.231.413.023.145.044.296.063.455.01.037.014.093.014.168.018.158.03.321.035.49.005.167.012.335.021.503 0 .104.002.203.007.302.004.098.007.198.007.301-.01.055-.012.11-.007.161.004.051.007.1.007.146V4.322c0 .055.01.107.028.154 0 .01.046.014.14.014h.154c.084.018.15.023.196.013h.028zm-8.134 4.23c.01.073.04.148.091.223.051.075.128.121.231.14l1.302.014c.112-.01.224-.022.336-.035.112-.014.215-.049.308-.106.102-.055.16-.153.168-.294.01-.139.01-.274 0-.405V3.593c0-.12-.005-.237-.014-.349-.01-.103-.017-.205-.022-.308-.003-.103-.01-.19-.02-.267-.019-.176-.082-.287-.189-.329-.108-.042-.189-.062-.245-.062h-.014l-1.19-.028c-.224 0-.387.033-.49.097-.102.066-.178.164-.224.294-.009.047-.016.115-.02.203-.006.09-.008.183-.008.281v5.607zM4.427.485H4.868c.107 0 .25.005.427.014.298 0 .542.053.728.161.187.107.333.238.44.391.108.155.18.321.218.497.037.178.056.336.056.477v7.098l-.007.161c-.005.097-.017.212-.035.342-.019.131-.044.267-.077.407-.032.14-.077.257-.133.35-.075.112-.185.201-.329.266-.145.065-.289.114-.434.146-.145.034-.278.052-.399.057l-.196.007H2.593c-.084 0-.213-.007-.385-.022-.173-.013-.353-.045-.539-.097-.187-.052-.362-.128-.525-.232-.164-.102-.282-.242-.357-.42-.13-.307-.203-.629-.217-.965-.014-.336-.017-.667-.007-.995V3.09c0-.027-.007-.123-.02-.287C.527 2.64.52 2.453.52 2.243c0-.21.014-.425.042-.645.028-.219.08-.403.154-.553C.81.86.937.723 1.095.64c.16-.084.333-.137.525-.16.191-.023.387-.028.588-.015.201.015.385.022.553.022.298 0 .581.002.847.007s.54.002.82-.007zM27.961 6.618c-.121-.271-.245-.551-.371-.84-.126-.289-.259-.584-.399-.882l-.112-.259-.111-.259c-.028.084-.062.171-.099.259-.037.088-.074.174-.112.259-.14.298-.273.593-.399.882-.126.289-.25.569-.371.84l-.252.616h2.478l-.252-.616zm3.318 3.43c.009.055.017.11.022.161.004.052.007.109.007.175 0 .112-.034.214-.099.308-.027.047-.065.091-.111.133-.047.042-.104.077-.168.105-.234.13-.482.177-.742.14-.131-.038-.248-.098-.351-.182-.019-.019-.032-.031-.042-.036-.009-.004-.019-.015-.027-.034-.01-.01-.02-.021-.029-.035-.009-.015-.023-.025-.042-.035-.047-.047-.084-.091-.112-.133-.027-.042-.056-.086-.084-.133-.019-.047-.039-.092-.062-.134-.024-.042-.049-.085-.078-.132-.018-.037-.037-.073-.055-.105-.02-.033-.033-.068-.042-.105-.038-.084-.062-.159-.071-.224l-.294-.686c-.644 0-1.286.002-1.924.006-.64.005-1.282.003-1.926-.006l-.294.686c-.019.037-.03.074-.034.111-.005.038-.017.076-.035.113-.02.037-.036.072-.049.105-.015.032-.031.068-.05.105-.027.047-.054.09-.076.132l-.077.134c-.02.047-.042.091-.071.133-.028.042-.065.086-.112.133-.019.01-.032.02-.042.035-.009.014-.019.025-.027.035-.01.019-.02.03-.029.034-.009.005-.023.017-.042.036-.102.084-.219.144-.349.182-.262.037-.509-.01-.742-.14-.066-.028-.122-.063-.168-.105-.047-.042-.084-.086-.113-.133-.065-.094-.097-.196-.097-.308 0-.066.002-.123.007-.175.004-.051.011-.106.02-.161.019-.084.042-.168.07-.252l.042-.126 2.912-7.168.084-.224c.019-.056.042-.107.071-.154.027-.047.05-.103.069-.168.047-.121.099-.229.154-.322.029-.056.061-.108.098-.154l.112-.14c.056-.075.135-.135.239-.182.129-.047.282-.07.455-.07.172 0 .324.023.455.07.102.047.181.107.237.182.065.084.136.182.21.294.057.093.107.201.154.322.019.065.042.121.071.168.027.047.05.098.069.154l.084.224 2.912 7.168.042.126c.028.084.052.168.07.252zM32.526 9.515l.013-1.104.014-2.06c.01-.298.015-.606.015-.923V3.55c0-.26.009-.554.026-.881v-.055c.01-.095.017-.19.023-.288.004-.099.007-.199.007-.3.008-.169.06-.352.154-.547.064-.13.163-.242.294-.337.147-.074.293-.11.432-.11.077 0 .144.002.205.006.06.005.118.012.173.02.123.02.23.076.324.169.054.046.106.121.153.224.02.056.035.11.05.161.013.05.025.105.035.161l.02.181c.005.056.007.113.007.168 0 .066-.002.124-.007.175-.005.052-.006.107-.006.161v.24l-.084 7.264v.14c0 .029-.004.063-.008.106-.005.042-.011.09-.022.148-.017.046-.035.096-.047.146-.014.052-.031.105-.05.16-.029.047-.059.091-.09.133-.033.043-.072.083-.12.12-.075.075-.197.125-.364.154-.252.056-.49.032-.714-.07-.113-.075-.192-.168-.239-.28-.026-.027-.041-.056-.041-.085-.009-.018-.019-.031-.028-.041-.01-.01-.02-.022-.028-.042-.018-.046-.033-.096-.041-.146-.01-.053-.014-.107-.014-.162-.01-.046-.017-.094-.021-.14-.005-.046-.012-.093-.021-.14-.01-.075-.01-.155 0-.239v-.21z" transform="translate(-370 -92) translate(370 92) translate(177 15)"/>
                </g>
                <g transform="translate(-370 -92) translate(370 92)">
                    <mask id="rfycb7xxub" fill="#fff">
                        <use xlink:href="#uu2v9bb59a"/>
                    </mask>
                    <path fill="#FEFEFE" d="M-5 32.103L48.024 32.103 48.024 -5 -5 -5z" mask="url(#rfycb7xxub)"/>
                </g>
                <g transform="translate(-370 -92) translate(370 92) translate(13 19)">
                    <mask id="ceepiv5m7d" fill="#fff">
                        <use xlink:href="#dr0cgq6z2c"/>
                    </mask>
                    <path fill="#FEFEFE" d="M-4.286 13.055L16.054 13.055 16.054 -4.333 -4.286 -4.333z" mask="url(#ceepiv5m7d)"/>
                </g>
                <g transform="translate(-370 -92) translate(370 92) translate(25 19)">
                    <mask id="07fqchjy5f" fill="#fff">
                        <use xlink:href="#7w483qptpe"/>
                    </mask>
                    <path fill="#FEFEFE" d="M-4.477 13.128L12.911 13.128 12.911 -4.26 -4.477 -4.26z" mask="url(#07fqchjy5f)"/>
                </g>
                <g transform="translate(-370 -92) translate(370 92) translate(34 19)">
                    <mask id="g53ywp5tqh" fill="#fff">
                        <use xlink:href="#3liwctgfxg"/>
                    </mask>
                    <path fill="#FEFEFE" d="M-4.62 13.128L12.03 13.128 12.03 -4.26 -4.62 -4.26z" mask="url(#g53ywp5tqh)"/>
                </g>
                <g transform="translate(-370 -92) translate(370 92) translate(42 19)">
                    <mask id="f037qpb5hj" fill="#fff">
                        <use xlink:href="#hens7xy6ti"/>
                    </mask>
                    <path fill="#FEFEFE" d="M-4.502 13.055L15.838 13.055 15.838 -4.333 -4.502 -4.333z" mask="url(#f037qpb5hj)"/>
                </g>
                <g transform="translate(-370 -92) translate(370 92) translate(54 25)">
                    <mask id="h6rvvh29vl" fill="#fff">
                        <use xlink:href="#wq9dw4hblk"/>
                    </mask>
                    <path fill="#FEFEFE" d="M-4.689 7.127L6.794 7.127 6.794 -4.355 -4.689 -4.355z" mask="url(#h6rvvh29vl)"/>
                </g>
                <path fill="#FEFEFE" d="M65.381 27.054L67.012 27.054 67.012 19.676 65.381 19.676z" transform="translate(-370 -92) translate(370 92)"/>
                <g transform="translate(-370 -92) translate(370 92) translate(56 19)">
                    <mask id="0a31ghfvun" fill="#fff">
                        <use xlink:href="#xi4rc2c6em"/>
                    </mask>
                    <path fill="#FEFEFE" d="M-4.476 13.128L12.912 13.128 12.912 -4.26 -4.476 -4.26z" mask="url(#0a31ghfvun)"/>
                </g>
                <g transform="translate(-370 -92) translate(370 92) translate(64 14)">
                    <mask id="0cfg1repmp" fill="#fff">
                        <use xlink:href="#e388jfylto"/>
                    </mask>
                    <path fill="#FEFEFE" d="M-4.63 9.408L9.056 9.408 9.056 -4.277 -4.63 -4.277z" mask="url(#0cfg1repmp)"/>
                </g>
            </g>
        </g>
    </g>
</svg>
