<svg xmlns="http://www.w3.org/2000/svg" width="148" height="148" viewBox="0 0 148 148">
    <defs>
        <filter id="zacb0rcfoa" width="148" height="148" x="0" y="0" filterUnits="userSpaceOnUse">
            <feOffset dy="4"/>
            <feGaussianBlur result="blur" stdDeviation="8"/>
            <feFlood flood-opacity=".2"/>
            <feComposite in2="blur" operator="in"/>
            <feComposite in="SourceGraphic"/>
        </filter>
    </defs>
    <g filter="url(#zacb0rcfoa)">
        <path fill="rgba(255,255,255,0.86)" d="M487 2169a49.843 49.843 0 1 1 19.463-3.929A49.688 49.688 0 0 1 487 2169zm-13.036-74a.969.969 0 0 0-.964.971v46.056a.969.969 0 0 0 .964.972.958.958 0 0 0 .493-.14l38.075-23.028a.975.975 0 0 0 0-1.664l-38.075-23.028a.956.956 0 0 0-.493-.139z" transform="translate(-413 -2049)"/>
    </g>
</svg>
