<svg xmlns="http://www.w3.org/2000/svg" width="124" height="124" viewBox="0 0 124 124">
    <defs>
        <style>
            .cls-1{fill:none}.cls-2{fill:#2d6191}
        </style>
    </defs>
    <g id="icon_성능과_안정성" transform="translate(-590.083 -154.527)">
        <g id="그룹_252">
            <g id="사각형_91">
                <path id="사각형_185" d="M0 0H124V124H0z" class="cls-1" transform="translate(590.083 154.527)"/>
            </g>
        </g>
        <g id="그룹_253">
            <g id="사각형_91-2">
                <path id="사각형_186" d="M0 0H124V124H0z" class="cls-1" transform="translate(590.083 154.527)"/>
            </g>
        </g>
        <path id="패스_200" d="M693.774 180.7l-39-16.956a6.994 6.994 0 0 0-5.582 0l-39 16.956a7 7 0 0 0-4.209 6.42v27.748a56.255 56.255 0 0 0 13.55 37.037c.777.89 1.593 1.768 2.45 2.625 12 12 30 18 30 18s18-6 30-18c.857-.857 1.674-1.735 2.451-2.625a56.259 56.259 0 0 0 13.549-37.037v-27.751a7 7 0 0 0-4.209-6.417zm.209 34.168a52.188 52.188 0 0 1-12.564 34.407c-.734.842-1.5 1.658-2.264 2.427-9.394 9.393-23 15-27.172 16.574V236a7.448 7.448 0 0 1-8.115-1.35l-12.294-11.35a6.5 6.5 0 1 1 8.819-9.552l8.41 7.763 3.18-3.18V167.16a2.981 2.981 0 0 1 1.2.249l39 16.956a3 3 0 0 1 1.8 2.752z" class="cls-2"/>
        <g id="그룹_254">
            <path id="패스_201" d="M648.973 232.394a3.241 3.241 0 0 1-2.205-.866l-12.294-11.348a2.25 2.25 0 1 1 3.052-3.306l11.411 10.533 21.472-21.471a2.25 2.25 0 1 1 3.182 3.182l-22.32 22.321a3.245 3.245 0 0 1-2.298.955z" class="cls-2"/>
        </g>
    </g>
</svg>
