<svg xmlns="http://www.w3.org/2000/svg" xmlns:xlink="http://www.w3.org/1999/xlink" width="31" height="44" viewBox="0 0 31 44">
    <defs>
        <path id="jb2i05foub" d="M0 0L31 0 31 34.314 0 34.314z"/>
        <path id="9s29f7opjd" d="M0 0L1.693 0 1.693 6.369 0 6.369z"/>
        <filter id="ncealkdl5a">
            <feColorMatrix in="SourceGraphic" values="0 0 0 0 0.419608 0 0 0 0 0.403922 0 0 0 0 0.913725 0 0 0 1.000000 0"/>
        </filter>
    </defs>
    <g fill="none" fill-rule="evenodd">
        <g filter="url(#ncealkdl5a)" transform="translate(-380 -634)">
            <g>
                <g transform="translate(380 634) translate(0 9.686)">
                    <mask id="t7r1uorx0c" fill="#fff">
                        <use xlink:href="#jb2i05foub"/>
                    </mask>
                    <path fill="#000" d="M15.5 1.669c1.864 0 3.673.36 5.374 1.07 1.644.685 3.121 1.666 4.39 2.917 1.268 1.25 2.263 2.706 2.959 4.327.72 1.678 1.084 3.46 1.084 5.299 0 1.668-.302 3.296-.898 4.84-.576 1.492-1.408 2.863-2.474 4.074-2.153 2.448-5.119 4.062-8.35 4.544-.256.038-.485.195-.612.419L15.5 31.765l-1.473-2.606c-.126-.224-.355-.38-.612-.419-3.231-.482-6.197-2.096-8.35-4.544C4 22.985 3.167 21.614 2.591 20.122c-.596-1.544-.898-3.172-.898-4.84 0-1.839.365-3.621 1.084-5.299.696-1.62 1.691-3.077 2.96-4.327 1.268-1.25 2.745-2.232 4.389-2.918 1.702-.71 3.51-1.07 5.374-1.07m14.282 7.665C29 7.513 27.883 5.879 26.46 4.476S23.38 1.97 21.534 1.2C19.622.404 17.592 0 15.5 0c-2.092 0-4.122.404-6.034 1.201-1.845.77-3.503 1.872-4.926 3.275C3.117 5.879 2 7.513 1.218 9.333.41 11.217 0 13.219 0 15.282c0 1.871.34 3.7 1.009 5.434.646 1.675 1.581 3.214 2.777 4.574 2.319 2.635 5.497 4.42 8.961 5.032l2.014 3.563c.15.264.432.429.74.429.306 0 .59-.165.738-.429l2.014-3.563c3.464-.613 6.642-2.397 8.96-5.032 1.197-1.36 2.132-2.9 2.778-4.574.67-1.735 1.009-3.563 1.009-5.434 0-2.063-.41-4.064-1.218-5.949" mask="url(#t7r1uorx0c)"/>
                </g>
                <g transform="translate(380 634) translate(14.654)">
                    <mask id="duv9e3vqae" fill="#fff">
                        <use xlink:href="#9s29f7opjd"/>
                    </mask>
                    <path fill="#000" d="M.846 6.369c.467 0 .847-.374.847-.835v-4.7c0-.46-.38-.834-.847-.834C.38 0 0 .374 0 .834v4.7c0 .46.38.835.846.835" mask="url(#duv9e3vqae)"/>
                </g>
                <path fill="#000" d="M23.386 8.778c.152.125.345.195.543.195.251 0 .488-.109.649-.298l3.064-3.6c.146-.171.215-.388.195-.61-.02-.222-.126-.423-.299-.566-.173-.143-.393-.212-.618-.192-.225.02-.429.124-.574.295l-3.065 3.6c-.145.17-.214.387-.194.61.02.221.125.422.299.566M6.422 8.593c.161.19.398.298.649.298.198 0 .391-.07.543-.195.174-.144.28-.345.3-.567.02-.222-.05-.438-.195-.609l-3.065-3.6c-.145-.171-.349-.276-.574-.295-.225-.02-.445.049-.618.192-.173.143-.28.344-.299.566-.02.222.05.439.195.61l3.064 3.6zM10.807 23.959c.06-.54.18-1.08.356-1.606.174-.525.402-1.027.677-1.494.278-.472.622-.889 1.023-1.24.318-.312.674-.546 1.058-.696.375-.146.763-.244 1.152-.29l.018-.001c.624-.031 1.203.048 1.721.234.519.185.978.461 1.365.819.386.358.698.798.925 1.309.224.501.376 1.063.453 1.668l.001.011c.076.93-.009 1.871-.251 2.8-.245.933-.678 1.81-1.288 2.608l-.19.247-.204-.236c-.428-.494-.915-1.107-1.45-1.823-.155-.17-.398-.247-.741-.237-.233.024-.412.104-.546.242-.122.125-.178.267-.176.445.09.233.115.307.125.343.003.01.017.052.082.165.25.347.489.674.712.972.222.296.479.59.764.87l.267.263-.348.143c-.186.077-.373.14-.556.187-.177.045-.352.084-.518.113l-.014.003h-.014c-.111.009-.221.013-.33.013-.532 0-1.024-.095-1.466-.284-.525-.224-.983-.538-1.362-.934-.376-.395-.674-.868-.885-1.407-.208-.531-.336-1.092-.383-1.668-.045-.482-.038-1 .023-1.54m-1.095 3.906c.326.733.767 1.37 1.312 1.893.542.521 1.192.923 1.934 1.194.734.27 1.571.357 2.488.26.24-.041.458-.087.65-.136.19-.049.368-.105.527-.166.163-.063.334-.135.51-.214.176-.08.368-.17.57-.27l.138-.068.125.09c.897.657 1.977 1.236 3.21 1.723l.16.062c.1.02.213.024.34.01l.003-.001c.237-.024.422-.107.566-.254.134-.137.195-.275.186-.422-.024-.252-.209-.474-.565-.68l-.028-.016-.01-.01c-.473-.2-.915-.397-1.313-.59-.42-.204-.835-.46-1.231-.76l-.204-.155.16-.198c.731-.904 1.27-1.933 1.6-3.059.33-1.127.462-2.333.39-3.584-.043-.519-.137-1.033-.28-1.526-.14-.485-.354-.957-.636-1.402-.591-.887-1.353-1.53-2.264-1.91-.922-.385-1.9-.544-2.906-.474-.593.042-1.18.176-1.747.399-.568.224-1.1.522-1.583.885-.493.39-.918.862-1.264 1.405-.351.55-.642 1.146-.865 1.769-.222.622-.379 1.272-.465 1.932-.087.662-.116 1.306-.087 1.915.056.828.251 1.621.579 2.358" transform="translate(380 634)"/>
            </g>
        </g>
    </g>
</svg>
