<?xml version="1.0" encoding="utf-8"?>
<!-- Generator: Adobe Illustrator 25.2.1, SVG Export Plug-In . SVG Version: 6.00 Build 0)  -->
<svg version="1.1" id="Layer_1" xmlns="http://www.w3.org/2000/svg" xmlns:xlink="http://www.w3.org/1999/xlink" x="0px" y="0px"
	 viewBox="0 0 106 80" style="enable-background:new 0 0 106 80;" xml:space="preserve">
<style type="text/css">
	.st0{fill:#344154;}
	.st1{filter:url(#Adobe_OpacityMaskFilter);}
	.st2{fill-rule:evenodd;clip-rule:evenodd;fill:#FFFFFF;}
	.st3{mask:url(#mask-2_3_);fill:#344154;}
	.st4{filter:url(#Adobe_OpacityMaskFilter_1_);}
	.st5{mask:url(#mask-2_4_);fill:#344154;}
	.st6{filter:url(#Adobe_OpacityMaskFilter_2_);}
	.st7{mask:url(#mask-2_5_);fill:#344154;}
	.st8{filter:url(#Adobe_OpacityMaskFilter_3_);}
	.st9{mask:url(#mask-2_7_);fill:#344154;}
	.st10{filter:url(#Adobe_OpacityMaskFilter_4_);}
	.st11{mask:url(#mask-2_8_);fill:#344154;}
	.st12{filter:url(#Adobe_OpacityMaskFilter_5_);}
	.st13{mask:url(#mask-2_6_);fill-rule:evenodd;clip-rule:evenodd;fill:#6663E5;}
</style>
<g id="Page-1">
	<g id="main" transform="translate(-908.000000, -2908.000000)">
		<g id="_x34_" transform="translate(429.500000, 2749.000000)">
			<g id="Group-29" transform="translate(0.000000, 119.000000)">
				<g id="Group-28" transform="translate(401.000000, 0.000000)">
					<g id="Group-40" transform="translate(77.500000, 40.000000)">
						<path class="st0" d="M1.2,36.5c-0.3,0-0.7-0.2-0.9-0.5c-0.4-0.5-0.3-1.2,0.2-1.6L25.1,16l24.6,18.5c0.5,0.4,0.6,1.1,0.2,1.6
							c-0.4,0.5-1.1,0.6-1.6,0.2L25.1,18.8L1.9,36.3C1.7,36.5,1.4,36.5,1.2,36.5z"/>
						<path class="st0" d="M45.7,62.6H4.6v-25c0-0.6,0.5-1.1,1.1-1.1s1.1,0.5,1.1,1.1v22.7h36.6V37.6c0-0.6,0.5-1.1,1.1-1.1
							s1.1,0.5,1.1,1.1V62.6z"/>
						<g id="Group-39">
							<path class="st0" d="M34.3,32.3c-0.2,0-0.5-0.1-0.7-0.2l-8.4-6.4l-8.4,6.4c-0.5,0.4-1.2,0.3-1.6-0.2s-0.3-1.2,0.2-1.6
								l9.8-7.4l9.8,7.4c0.5,0.4,0.6,1.1,0.2,1.6C34.9,32.1,34.6,32.3,34.3,32.3z"/>
							<path class="st0" d="M82.4,70.9c-0.6,0-1.1-0.5-1.1-1.1v-8c0-0.6,0.5-1.1,1.1-1.1s1.1,0.5,1.1,1.1v8
								C83.5,70.4,83,70.9,82.4,70.9z"/>
							<path class="st0" d="M102.2,62.8H62.6c-2.1,0-3.8-1.7-3.8-3.7v-9.2c0-2.1,1.7-3.8,3.8-3.8h39.6c2.1,0,3.8,1.7,3.8,3.8v9.2
								C105.9,61.1,104.2,62.8,102.2,62.8z M62.6,48.5c-0.8,0-1.5,0.7-1.5,1.5v9.2c0,0.8,0.7,1.5,1.5,1.5h39.6
								c0.8,0,1.5-0.7,1.5-1.5v-9.2c0-0.8-0.7-1.5-1.5-1.5H62.6z"/>
							<path class="st0" d="M94.8,55.6H82.4c-0.6,0-1.1-0.5-1.1-1.1s0.5-1.1,1.1-1.1h12.5c0.6,0,1.1,0.5,1.1,1.1
								S95.5,55.6,94.8,55.6z"/>
							<path class="st0" d="M99.5,56.2c-0.9,0-1.6-0.7-1.6-1.7c0-0.9,0.7-1.6,1.6-1.6s1.6,0.7,1.6,1.6
								C101.1,55.4,100.4,56.2,99.5,56.2z M99.5,53.9c-0.3,0-0.6,0.3-0.6,0.6c0,0.3,0.3,0.6,0.6,0.6s0.6-0.3,0.6-0.6
								C100.1,54.2,99.8,53.9,99.5,53.9z"/>
							<path class="st0" d="M102.2,39.8H62.6c-2.1,0-3.8-1.7-3.8-3.8v-9.2c0-2.1,1.7-3.8,3.8-3.8h39.6c2.1,0,3.8,1.7,3.8,3.8V36
								C105.9,38.1,104.2,39.8,102.2,39.8z M62.6,25.4c-0.8,0-1.5,0.7-1.5,1.5V36c0,0.8,0.7,1.5,1.5,1.5h39.6c0.8,0,1.5-0.7,1.5-1.5
								v-9.2c0-0.8-0.7-1.5-1.5-1.5H62.6z"/>
							<path class="st0" d="M94.8,32.6H82.4c-0.6,0-1.1-0.5-1.1-1.1s0.5-1.1,1.1-1.1h12.5c0.6,0,1.1,0.5,1.1,1.1
								S95.5,32.6,94.8,32.6z"/>
							<path class="st0" d="M99.5,33.1c-0.9,0-1.6-0.7-1.6-1.7s0.7-1.7,1.6-1.7s1.6,0.7,1.6,1.7S100.4,33.1,99.5,33.1z M99.5,30.8
								c-0.3,0-0.6,0.3-0.6,0.6s0.3,0.6,0.6,0.6s0.6-0.3,0.6-0.6S99.8,30.8,99.5,30.8z"/>
							<path class="st0" d="M102.2,16.7H62.6c-2.1,0-3.8-1.7-3.8-3.8V3.8c0-2.1,1.7-3.8,3.8-3.8h39.6c2.1,0,3.8,1.7,3.8,3.8V13
								C105.9,15,104.2,16.7,102.2,16.7z M62.6,2.3c-0.8,0-1.5,0.7-1.5,1.5V13c0,0.8,0.7,1.5,1.5,1.5h39.6c0.8,0,1.5-0.7,1.5-1.5
								V3.8c0-0.8-0.7-1.5-1.5-1.5H62.6z"/>
							<path class="st0" d="M94.8,9.5H82.4c-0.6,0-1.1-0.5-1.1-1.1s0.5-1.1,1.1-1.1h12.5c0.6,0,1.1,0.5,1.1,1.1S95.5,9.5,94.8,9.5z"
								/>
							<path class="st0" d="M99.5,10c-0.9,0-1.6-0.7-1.6-1.7c0-0.9,0.7-1.6,1.6-1.6s1.6,0.7,1.6,1.6C101.1,9.3,100.4,10,99.5,10z
								 M99.5,7.8c-0.3,0-0.6,0.3-0.6,0.6c0,0.3,0.3,0.6,0.6,0.6s0.6-0.3,0.6-0.6C100.1,8.1,99.8,7.8,99.5,7.8z"/>
							<path class="st0" d="M25.1,70.9c-0.6,0-1.1-0.5-1.1-1.1v-8c0-0.6,0.5-1.1,1.1-1.1s1.1,0.5,1.1,1.1v8
								C26.3,70.4,25.7,70.9,25.1,70.9z"/>
							<path class="st0" d="M82.4,48.5c-0.6,0-1.1-0.5-1.1-1.1v-8.7c0-0.6,0.5-1.1,1.1-1.1s1.1,0.5,1.1,1.1v8.7
								C83.5,47.9,83,48.5,82.4,48.5z"/>
							<path class="st0" d="M82.4,25.4c-0.6,0-1.1-0.5-1.1-1.1v-8.7c0-0.6,0.5-1.1,1.1-1.1s1.1,0.5,1.1,1.1v8.7
								C83.5,24.9,83,25.4,82.4,25.4z"/>
							<g id="Clip-33">
							</g>
							<defs>
								<filter id="Adobe_OpacityMaskFilter" filterUnits="userSpaceOnUse" x="19.4" y="68.6" width="11.3" height="11.3">
									<feColorMatrix  type="matrix" values="1 0 0 0 0  0 1 0 0 0  0 0 1 0 0  0 0 0 1 0"/>
								</filter>
							</defs>
							<mask maskUnits="userSpaceOnUse" x="19.4" y="68.6" width="11.3" height="11.3" id="mask-2_3_">
								<g class="st1">
									<polygon id="path-1_3_" class="st2" points="0,80 106,80 106,0 0,0 									"/>
								</g>
							</mask>
							<path class="st3" d="M30.8,79.9H19.4V68.6h11.3V79.9z M21.7,77.6h6.8v-6.8h-6.8V77.6z"/>
							<defs>
								<filter id="Adobe_OpacityMaskFilter_1_" filterUnits="userSpaceOnUse" x="76.7" y="68.6" width="11.3" height="11.3">
									<feColorMatrix  type="matrix" values="1 0 0 0 0  0 1 0 0 0  0 0 1 0 0  0 0 0 1 0"/>
								</filter>
							</defs>
							<mask maskUnits="userSpaceOnUse" x="76.7" y="68.6" width="11.3" height="11.3" id="mask-2_4_">
								<g class="st4">
									<polygon id="path-1_4_" class="st2" points="0,80 106,80 106,0 0,0 									"/>
								</g>
							</mask>
							<path class="st5" d="M88,79.9H76.7V68.6H88V79.9z M79,77.6h6.8v-6.8H79V77.6z"/>
							<defs>
								<filter id="Adobe_OpacityMaskFilter_2_" filterUnits="userSpaceOnUse" x="28.5" y="73.1" width="50.5" height="2.3">
									<feColorMatrix  type="matrix" values="1 0 0 0 0  0 1 0 0 0  0 0 1 0 0  0 0 0 1 0"/>
								</filter>
							</defs>
							<mask maskUnits="userSpaceOnUse" x="28.5" y="73.1" width="50.5" height="2.3" id="mask-2_5_">
								<g class="st6">
									<polygon id="path-1_5_" class="st2" points="0,80 106,80 106,0 0,0 									"/>
								</g>
							</mask>
							<path class="st7" d="M77.8,75.4H29.7c-0.6,0-1.1-0.5-1.1-1.1s0.5-1.1,1.1-1.1h48.2c0.6,0,1.1,0.5,1.1,1.1
								S78.5,75.4,77.8,75.4z"/>
							<defs>
								<filter id="Adobe_OpacityMaskFilter_3_" filterUnits="userSpaceOnUse" x="85.8" y="73.1" width="20.2" height="2.3">
									<feColorMatrix  type="matrix" values="1 0 0 0 0  0 1 0 0 0  0 0 1 0 0  0 0 0 1 0"/>
								</filter>
							</defs>
							<mask maskUnits="userSpaceOnUse" x="85.8" y="73.1" width="20.2" height="2.3" id="mask-2_7_">
								<g class="st8">
									<polygon id="path-1_7_" class="st2" points="0,80 106,80 106,0 0,0 									"/>
								</g>
							</mask>
							<path class="st9" d="M104.8,75.4H86.9c-0.6,0-1.1-0.5-1.1-1.1s0.5-1.1,1.1-1.1h17.9c0.6,0,1.1,0.5,1.1,1.1
								S105.4,75.4,104.8,75.4z"/>
							<defs>
								<filter id="Adobe_OpacityMaskFilter_4_" filterUnits="userSpaceOnUse" x="1.6" y="73.1" width="20.2" height="2.3">
									<feColorMatrix  type="matrix" values="1 0 0 0 0  0 1 0 0 0  0 0 1 0 0  0 0 0 1 0"/>
								</filter>
							</defs>
							<mask maskUnits="userSpaceOnUse" x="1.6" y="73.1" width="20.2" height="2.3" id="mask-2_8_">
								<g class="st10">
									<polygon id="path-1_8_" class="st2" points="0,80 106,80 106,0 0,0 									"/>
								</g>
							</mask>
							<path class="st11" d="M20.6,75.4H2.7c-0.6,0-1.1-0.5-1.1-1.1s0.5-1.1,1.1-1.1h17.9c0.6,0,1.1,0.5,1.1,1.1
								S21.2,75.4,20.6,75.4z"/>
							<defs>
								<filter id="Adobe_OpacityMaskFilter_5_" filterUnits="userSpaceOnUse" x="10" y="47.7" width="30.3" height="9.5">
									<feColorMatrix  type="matrix" values="1 0 0 0 0  0 1 0 0 0  0 0 1 0 0  0 0 0 1 0"/>
								</filter>
							</defs>
							<mask maskUnits="userSpaceOnUse" x="10" y="47.7" width="30.3" height="9.5" id="mask-2_6_">
								<g class="st12">
									<polygon id="path-1_6_" class="st2" points="0,80 106,80 106,0 0,0 									"/>
								</g>
							</mask>
							<path id="Fill-38" class="st13" d="M40.3,57.2v-9.5c-4.6,2-9.7,3.1-15.2,3.1c-5.4,0-10.5-1.1-15.2-3.1v9.5H40.3z"/>
						</g>
					</g>
				</g>
			</g>
		</g>
	</g>
</g>
</svg>
