<svg xmlns="http://www.w3.org/2000/svg" width="162" height="30" viewBox="0 0 162 30">
    <defs>
        <style>
            .cls-1{fill:none}.cls-2{isolation:isolate}.cls-3{fill:#fff}
        </style>
    </defs>
    <g id="logo_Edge_162x30px_" transform="translate(-20 -35)">
        <g id="그룹_2105">
            <path id="사각형_1718" d="M0 0H162V30H0z" class="cls-1" transform="translate(20 35)"/>
        </g>
        <g id="logo_Edge_92x14px" transform="translate(0 15.916)">
            <path id="사각형_1677" d="M0 0H162V24H0z" class="cls-1" transform="translate(20 24.084)"/>
            <g id="Edge_AI_Platform" class="cls-2" transform="translate(20 25.761)">
                <g id="그룹_2068" class="cls-2">
                    <path id="패스_2261" d="M-205.678 9.417h9.59v2.6h-6.464v3.614h5.492v2.617h-5.492v4.183h6.7v2.621h-9.823z" class="cls-3" transform="translate(205.678 -7.895)"/>
                    <path id="패스_2262" d="M-199.33 19.685c0-3.866 2.408-6.232 4.963-6.232a4.065 4.065 0 0 1 3 1.288l-.125-1.858V8.721h3.105v16.858h-2.513l-.254-1.226h-.065a4.9 4.9 0 0 1-3.273 1.522c-2.936 0-4.838-2.325-4.838-6.19zm7.838 2.408V16.9a3.15 3.15 0 0 0-2.2-.886c-1.33 0-2.45 1.266-2.45 3.634 0 2.45.888 3.674 2.45 3.674a2.635 2.635 0 0 0 2.2-1.229z" class="cls-3" transform="translate(210.511 -8.425)"/>
                    <path id="패스_2263" d="M-192.022 25.624a2.872 2.872 0 0 1 1.689-2.45v-.106a2.246 2.246 0 0 1-1.076-1.987 2.94 2.94 0 0 1 1.309-2.218v-.085a3.909 3.909 0 0 1-1.562-3.084c0-2.788 2.26-4.287 4.775-4.287a5.567 5.567 0 0 1 1.774.294h4.268v2.283h-2.029a2.969 2.969 0 0 1 .55 1.795c0 2.661-2.027 4.014-4.562 4.014a5.041 5.041 0 0 1-1.522-.275 1.179 1.179 0 0 0-.507 1.015c0 .632.465.97 1.858.97h2.008c2.852 0 4.395.888 4.395 2.957 0 2.388-2.473 4.2-6.422 4.2-2.792.006-4.946-.944-4.946-3.036zm8.407-.634c0-.845-.7-1.057-1.964-1.057h-1.437a6.775 6.775 0 0 1-1.647-.167 1.772 1.772 0 0 0-.782 1.372c0 .993 1.1 1.564 2.83 1.564 1.776-.002 3-.782 3-1.712zm-1.436-9.295c0-1.395-.782-2.175-1.837-2.175s-1.86.78-1.86 2.175a1.921 1.921 0 0 0 1.86 2.177c1.034 0 1.837-.784 1.837-2.172z" class="cls-3" transform="translate(216.075 -6.379)"/>
                    <path id="패스_2264" d="M-185.422 17.64c0-3.847 2.683-6.232 5.513-6.232 3.253 0 4.944 2.385 4.944 5.661a5.757 5.757 0 0 1-.148 1.414h-7.287a3.108 3.108 0 0 0 3.274 2.957 4.868 4.868 0 0 0 2.661-.824l1.057 1.9a7.456 7.456 0 0 1-4.141 1.31c-3.296.003-5.873-2.301-5.873-6.186zm7.794-1.2c0-1.606-.717-2.619-2.239-2.619a2.665 2.665 0 0 0-2.577 2.619z" class="cls-3" transform="translate(221.1 -6.379)"/>
                    <path id="패스_2265" d="M-167.685 21.035h-5.071l-1.1 4.014h-3.169l5.006-15.632h3.676l5.029 15.632h-3.274zm-.675-2.431l-.467-1.71c-.486-1.626-.907-3.422-1.372-5.113h-.085c-.4 1.712-.867 3.487-1.332 5.113l-.465 1.71z" class="cls-3" transform="translate(227.495 -7.895)"/>
                    <path id="패스_2266" d="M-168.551 9.417h3.128v15.632h-3.128z" class="cls-3" transform="translate(233.944 -7.895)"/>
                    <path id="패스_2267" d="M-162.587 9.417h5.133c3.465 0 6.128 1.2 6.128 4.9 0 3.57-2.684 5.175-6.043 5.175h-2.091v5.557h-3.126zm5.006 7.6c2.156 0 3.19-.909 3.19-2.7 0-1.816-1.14-2.429-3.3-2.429h-1.774v5.133z" class="cls-3" transform="translate(238.485 -7.895)"/>
                    <path id="패스_2268" d="M-155.087 22.262V8.721H-152V22.41c0 .7.338.928.634.928a1.825 1.825 0 0 0 .423-.041l.379 2.3a4.209 4.209 0 0 1-1.6.277c-2.162.001-2.923-1.415-2.923-3.612z" class="cls-3" transform="translate(244.195 -8.425)"/>
                    <path id="패스_2269" d="M-152 20.32c0-2.533 2.048-3.864 6.8-4.372-.042-1.161-.55-2.048-2.006-2.048a6.657 6.657 0 0 0-3.253 1.12l-1.12-2.05a9.442 9.442 0 0 1 4.942-1.562c3 0 4.542 1.793 4.542 5.217v6.908h-2.535l-.233-1.268h-.063a5.565 5.565 0 0 1-3.57 1.564A3.362 3.362 0 0 1-152 20.32zm6.8-.083v-2.388c-2.873.38-3.845 1.162-3.845 2.219 0 .928.655 1.332 1.562 1.332a3.138 3.138 0 0 0 2.283-1.162z" class="cls-3" transform="translate(246.543 -6.379)"/>
                    <path id="패스_2270" d="M-144.189 20.635V15.4h-1.67v-2.3l1.818-.148.358-3.169h2.6v3.169h2.915V15.4h-2.915v5.238c0 1.353.55 1.985 1.6 1.985a3.458 3.458 0 0 0 1.163-.252l.507 2.26a7.649 7.649 0 0 1-2.494.444c-2.806-.004-3.882-1.775-3.882-4.44z" class="cls-3" transform="translate(251.22 -7.622)"/>
                    <path id="패스_2271" d="M-133.71 11.258a3.861 3.861 0 0 0-1.245-.258c-.93 0-1.437.551-1.437 1.86v1.013h2.217v2.452h-2.217v9.379h-3.108v-9.376h-1.583v-2.3l1.583-.125v-.972c0-2.471 1.141-4.373 4.12-4.373a6.205 6.205 0 0 1 2.24.423z" class="cls-3" transform="translate(254.856 -8.553)"/>
                    <path id="패스_2272" d="M-136.943 17.64c0-3.951 2.725-6.232 5.682-6.232s5.684 2.281 5.684 6.232c0 3.908-2.726 6.189-5.684 6.189s-5.682-2.281-5.682-6.189zm8.2 0c0-2.239-.907-3.7-2.513-3.7s-2.513 1.46-2.513 3.7c0 2.218.909 3.653 2.513 3.653s2.509-1.436 2.509-3.653z" class="cls-3" transform="translate(258.008 -6.379)"/>
                    <path id="패스_2273" d="M-129.371 11.7h2.535l.21 2.091h.086a4.1 4.1 0 0 1 3.359-2.385 3.358 3.358 0 0 1 1.395.252l-.55 2.684a3.73 3.73 0 0 0-1.226-.19c-.93 0-2.048.611-2.725 2.323v7.056h-3.084z" class="cls-3" transform="translate(263.773 -6.379)"/>
                    <path id="패스_2274" d="M-124.5 11.7h2.536l.211 1.585h.083a4.981 4.981 0 0 1 3.634-1.879 3.223 3.223 0 0 1 3.255 2.07 5.24 5.24 0 0 1 3.759-2.07c2.515 0 3.676 1.774 3.676 4.752v7.373h-3.105v-6.99c0-1.816-.528-2.471-1.647-2.471a3.454 3.454 0 0 0-2.283 1.332v8.132h-3.105v-6.993c0-1.816-.527-2.471-1.647-2.471a3.454 3.454 0 0 0-2.283 1.332v8.132h-3.084z" class="cls-3" transform="translate(267.482 -6.379)"/>
                </g>
            </g>
        </g>
    </g>
</svg>
