<?xml version="1.0" encoding="UTF-8"?>
<svg width="18px" height="20px" viewBox="0 0 18 20" version="1.1" xmlns="http://www.w3.org/2000/svg" xmlns:xlink="http://www.w3.org/1999/xlink">
    <title>Group 6</title>
    <defs>
        <polygon id="path-1" points="1.12359551e-05 0.10446709 17.1850562 0.10446709 17.1850562 16.4044944 1.12359551e-05 16.4044944"></polygon>
    </defs>
    <g id="Page-1" stroke="none" stroke-width="1" fill="none" fill-rule="evenodd">
        <g id="Group-6">
            <path d="M8.43489888,0 C4.62096629,0 1.5181573,3.00011236 1.5181573,6.68752809 L1.5087191,14.7426966 C1.55916854,14.6783146 1.61175281,14.6186517 1.66534831,14.5616854 C1.87074157,14.3422472 2.08916854,14.1774157 2.26265169,14.0650562 L2.26253933,13.8404494 L2.27366292,13.7308989 L2.27658427,13.7016854 L2.28489888,6.68764045 C2.28489888,3.41 5.04366292,0.743483146 8.43489888,0.743483146 C11.8260225,0.743483146 14.5847865,3.41 14.5847865,6.68764045 L14.5847865,11.7849438 L14.5936629,11.9825843 L14.572764,13.8986517 C14.572764,13.8986517 14.8888315,14.0893258 15.2574831,14.4739326 C15.2886067,14.5064045 15.3197303,14.5395506 15.3515281,14.5749438 L15.3515281,6.68764045 C15.3515281,3.00011236 12.2487191,0 8.43489888,0" id="Fill-1" fill="#FDFEFF"></path>
            <g id="Group-5" transform="translate(0.000000, 3.505056)">
                <mask id="mask-2" fill="white">
                    <use xlink:href="#path-1"></use>
                </mask>
                <g id="Clip-4"></g>
                <path d="M8.63360674,15.8038876 L8.55147191,15.8038876 L0.700685393,15.8038876 C0.805853933,15.1680449 1.05214607,13.7742247 1.36383146,12.655573 C1.72888764,11.3456854 2.91225843,10.7962472 3.0095618,10.7529888 L6.6395618,9.51680899 L6.77124719,7.86995506 L6.59450562,7.77804494 C5.44731461,7.18242697 5.17866292,5.51321348 5.17619101,5.49692135 L5.14293258,5.27591011 L4.92169663,5.24444944 C4.68540449,5.21062921 4.50641573,5.07355056 4.38967416,4.83714607 C4.20697753,4.46669663 4.21978652,3.91916854 4.41540449,3.57040449 C4.43574157,3.54029213 4.52270787,3.44422472 4.58630337,3.37422472 C4.87304494,3.0581573 4.98888764,2.9228764 4.97866292,2.74557303 C4.96259551,2.47377528 5.12776404,1.67074157 5.23978652,1.2087191 C5.30259551,1.10849438 5.47821348,0.877258427 5.81821348,0.766921348 C6.26192135,0.622876404 6.82697753,0.729617978 7.49753933,1.08411236 C7.70169663,1.22635955 8.94023596,2.06231461 9.84416854,2.06231461 C10.3058539,2.06231461 11.3175393,2.01220225 12.0383258,1.61804494 C12.130236,2.04883146 12.2182135,2.54377528 12.2063034,2.74557303 C12.1959663,2.9228764 12.311809,3.0581573 12.5987753,3.37422472 C12.6623708,3.44422472 12.7494494,3.54029213 12.7654045,3.5634382 C12.9654045,3.91916854 12.9782135,4.46669663 12.7954045,4.83714607 C12.6786629,5.07355056 12.4996742,5.21062921 12.2634944,5.24444944 L12.0428202,5.27624719 L12.009,5.49647191 C12.0065281,5.51321348 11.7378764,7.18242697 10.5906854,7.77804494 L10.4139438,7.86995506 L10.5455169,9.51680899 L14.1758539,10.7532135 C14.2763034,10.7970337 15.4539438,11.3381573 15.8211348,12.655573 C16.1328202,13.7736629 16.3793371,15.1679326 16.4843933,15.8038876 L8.63360674,15.8038876 Z M17.133382,16.059618 C17.1209101,15.9771461 16.8252921,14.0214157 16.3996742,12.4944494 C15.9400112,10.8450112 14.4601236,10.2206292 14.3973146,10.1947865 L11.1127079,9.07546067 L11.0434944,8.21029213 C12.0750674,7.56332584 12.451809,6.28770787 12.5632697,5.78973034 C12.8960787,5.68298876 13.1651798,5.44489888 13.3339438,5.1028764 C13.6052921,4.55310112 13.5868652,3.79905618 13.2891124,3.26905618 C13.2496742,3.19905618 13.177764,3.1187191 13.0434944,2.97062921 C12.976191,2.89647191 12.860236,2.7687191 12.8075393,2.69860674 C12.8032697,2.26635955 12.6159663,1.43411236 12.5458539,1.13737079 C12.559,1.04613483 12.5311348,0.950292135 12.4604607,0.880741573 C12.3422584,0.76411236 12.1522584,0.765573034 12.0357416,0.883775281 C11.6842809,1.24040449 10.844618,1.46175281 9.84416854,1.46175281 C9.21551685,1.46175281 8.17529213,0.826696629 7.82753933,0.581977528 L7.79585393,0.562651685 C6.96091011,0.117483146 6.22731461,-0.00408988764 5.61562921,0.20141573 C4.93989888,0.428382022 4.67911236,0.978831461 4.66832584,1.00197753 C4.64933708,1.0428764 4.64135955,1.08568539 4.64158427,1.12782022 C4.57293258,1.41680899 4.38169663,2.26208989 4.37742697,2.69860674 C4.32473034,2.76883146 4.20866292,2.89658427 4.14158427,2.97074157 C4.00720225,3.1187191 3.93540449,3.19905618 3.89596629,3.26905618 C3.59832584,3.79905618 3.57978652,4.55310112 3.85124719,5.1028764 C4.01989888,5.44489888 4.28911236,5.68298876 4.62180899,5.78973034 C4.73326966,6.28770787 5.1101236,7.56332584 6.14158427,8.21029213 L6.07225843,9.07546067 L2.80495506,10.1882697 L2.78776404,10.1947865 C2.7248427,10.2206292 1.24495506,10.8450112 0.785292135,12.4944494 C0.359674157,14.0214157 0.0641685393,15.9771461 0.0516966292,16.059618 L1.12359551e-05,16.4045618 L8.55147191,16.4045618 L8.63360674,16.4045618 L17.1850674,16.4045618 L17.133382,16.059618 Z" id="Fill-3" fill="#FDFEFF" mask="url(#mask-2)"></path>
            </g>
        </g>
    </g>
</svg>