<svg width="19" height="19" viewBox="0 0 19 19" fill="none" xmlns="http://www.w3.org/2000/svg">
<path fill-rule="evenodd" clip-rule="evenodd" d="M1.24808 7.09318C0.95964 7.09318 0.724246 7.32585 0.724246 7.61169V13.6795C0.724246 13.9648 0.95964 14.1976 1.24808 14.1976H10.0468C10.3356 14.1976 10.571 13.9648 10.571 13.6795V7.61169C10.571 7.32585 10.3356 7.09318 10.0468 7.09318H1.24808ZM10.0468 14.684H1.24808C0.687776 14.684 0.23241 14.2335 0.23241 13.6795V7.61169C0.23241 7.05754 0.687776 6.60661 1.24808 6.60661H10.0468C10.6069 6.60661 11.0629 7.05754 11.0629 7.61169V13.6795C11.0629 14.2335 10.6069 14.684 10.0468 14.684Z" fill="white"/>
<path fill-rule="evenodd" clip-rule="evenodd" d="M1.24808 7.20011C1.01888 7.20011 0.832356 7.38473 0.832356 7.61169V13.6795C0.832356 13.9062 1.01888 14.0906 1.24808 14.0906H10.0468C10.2763 14.0906 10.4629 13.9062 10.4629 13.6795V7.61169C10.4629 7.38473 10.2763 7.20011 10.0468 7.20011H1.24808ZM10.0468 14.3045H1.24808C0.899673 14.3045 0.616133 14.0241 0.616133 13.6795V7.61169C0.616133 7.26683 0.899673 6.98626 1.24808 6.98626H10.0468C10.3955 6.98626 10.6791 7.26683 10.6791 7.61169V13.6795C10.6791 14.0241 10.3955 14.3045 10.0468 14.3045ZM1.24808 6.71354C0.747597 6.71354 0.340521 7.11642 0.340521 7.61169V13.6795C0.340521 14.1745 0.747597 14.5771 1.24808 14.5771H10.0468C10.5475 14.5771 10.9548 14.1745 10.9548 13.6795V7.61169C10.9548 7.11642 10.5475 6.71354 10.0468 6.71354H1.24808ZM10.0468 14.7909H1.24808C0.628386 14.7909 0.124298 14.2924 0.124298 13.6795V7.61169C0.124298 6.99852 0.628386 6.49969 1.24808 6.49969H10.0468C10.6666 6.49969 11.171 6.99852 11.171 7.61169V13.6795C11.171 14.2924 10.6666 14.7909 10.0468 14.7909Z" fill="white"/>
<path fill-rule="evenodd" clip-rule="evenodd" d="M8.75423 15.8592H2.54056C2.45898 15.8592 2.38272 15.8197 2.33703 15.7525C2.29104 15.686 2.28153 15.6013 2.3118 15.5263L2.78187 14.3511C2.83146 14.2261 2.97517 14.1639 3.10116 14.2146C3.22772 14.2642 3.28956 14.4053 3.2394 14.5303L2.90281 15.3726H8.39199L8.0554 14.5303C8.00538 14.4053 8.06708 14.2642 8.1935 14.2146C8.32006 14.1639 8.4632 14.2261 8.51293 14.3511L8.983 15.5263C9.01341 15.6013 9.00376 15.686 8.95777 15.7525C8.91222 15.8197 8.83568 15.8592 8.75423 15.8592Z" fill="white"/>
<path fill-rule="evenodd" clip-rule="evenodd" d="M3.00982 14.3039C2.99166 14.3039 2.97364 14.3075 2.95635 14.3149C2.92233 14.3294 2.89609 14.3561 2.88254 14.39L2.41218 15.5658C2.39517 15.6078 2.40051 15.655 2.42631 15.6921C2.45211 15.7301 2.49464 15.7522 2.54048 15.7522H8.75429C8.80027 15.7522 8.8428 15.7301 8.86817 15.6929C8.89426 15.655 8.89945 15.6078 8.88258 15.5662L8.41251 14.3903C8.39882 14.3561 8.37259 14.3294 8.33857 14.3149C8.30469 14.3005 8.26765 14.3004 8.23406 14.3136C8.16271 14.3417 8.12797 14.421 8.15593 14.491L8.5509 15.4795H2.74387L3.13898 14.491C3.15253 14.457 3.15196 14.4198 3.1374 14.3866C3.12269 14.3533 3.09574 14.3274 3.06129 14.3139C3.04456 14.3072 3.02712 14.3039 3.00982 14.3039ZM8.75429 15.9661H2.54048C2.42242 15.9661 2.31287 15.9086 2.24742 15.8121C2.1814 15.7167 2.16771 15.5948 2.21139 15.4866L2.68145 14.3118C2.71605 14.2244 2.78337 14.1557 2.87101 14.1184C2.95822 14.0814 3.05422 14.0805 3.14186 14.1155C3.22907 14.1497 3.29827 14.2158 3.33574 14.3016C3.37322 14.3875 3.37481 14.4827 3.33992 14.5697L3.06172 15.2657H8.23305L7.95499 14.5695C7.88306 14.3902 7.97214 14.1863 8.15377 14.1152C8.24069 14.0805 8.33698 14.0814 8.42405 14.1184C8.5114 14.1557 8.57872 14.2244 8.6136 14.3121L9.08353 15.4869C9.1272 15.5947 9.11365 15.7166 9.04706 15.813C8.98205 15.9086 8.87235 15.9661 8.75429 15.9661Z" fill="white"/>
<path fill-rule="evenodd" clip-rule="evenodd" d="M1.44545 16.7499L0.616018 18.2299C0.586179 18.2835 0.607513 18.3305 0.618036 18.3481C0.630721 18.37 0.661569 18.4065 0.72139 18.4065H10.5735C10.6358 18.4065 10.6666 18.3656 10.6773 18.3481C10.6904 18.3261 10.7077 18.2815 10.6789 18.2299L9.84946 16.7499H1.44545ZM10.5735 18.8931H0.72139C0.50214 18.8931 0.305377 18.782 0.19395 18.5953C0.0826676 18.4086 0.0794964 18.184 0.185446 17.9942L1.08565 16.3887C1.12861 16.3115 1.21106 16.2635 1.30072 16.2635H9.99418C10.0837 16.2635 10.1662 16.3115 10.2093 16.3887L11.1089 17.9938C11.2157 18.1834 11.2127 18.4081 11.1012 18.5947C10.9901 18.782 10.7928 18.8931 10.5735 18.8931Z" fill="white"/>
<mask id="mask0" mask-type="alpha" maskUnits="userSpaceOnUse" x="0" y="16" width="12" height="3">
<path d="M0 16.1566H11.2953V19H0V16.1566Z" fill="white"/>
</mask>
<g mask="url(#mask0)">
<path fill-rule="evenodd" clip-rule="evenodd" d="M1.50908 16.8568L0.71064 18.2816L0.721307 18.2996H10.5736L10.6788 18.2299L10.5842 18.2816L9.7858 16.8568H1.50908ZM10.5736 18.5134H0.721307C0.638421 18.5134 0.564617 18.4714 0.524111 18.4009C0.483317 18.3331 0.481876 18.2493 0.521228 18.1784L1.3818 16.643H9.91309L10.7735 18.1781C10.8136 18.2498 10.8124 18.3317 10.7705 18.4024C10.7271 18.4734 10.6556 18.5134 10.5736 18.5134ZM1.30078 16.3704C1.25048 16.3704 1.20435 16.3971 1.18042 16.4401L0.280068 18.046C0.192858 18.2022 0.195452 18.3873 0.287131 18.5409C0.378665 18.6946 0.540977 18.7862 0.721307 18.7862H10.5736C10.7543 18.7862 10.9168 18.6945 11.008 18.5407C11.0999 18.3866 11.1023 18.2016 11.0144 18.0458L10.1146 16.4404C10.0905 16.3971 10.0444 16.3704 9.9941 16.3704H1.30078ZM10.5736 19H0.721307C0.463713 19 0.231778 18.869 0.100891 18.6496C-0.0299962 18.4302 -0.033744 18.1659 0.0908004 17.9425L0.991009 16.3369C1.05299 16.2257 1.17163 16.1566 1.30078 16.1566H9.9941C10.1231 16.1566 10.2417 16.2256 10.3039 16.3371L11.2035 17.9419C11.3289 18.1647 11.3257 18.429 11.1943 18.649C11.064 18.8687 10.8319 19 10.5736 19Z" fill="white"/>
</g>
<path fill-rule="evenodd" clip-rule="evenodd" d="M18.646 17.4116H11.6565C11.5203 17.4116 11.4106 17.303 11.4106 17.1684C11.4106 17.0338 11.5203 16.9252 11.6565 16.9252H18.4001V0.593262H8.34746L5.89304 3.02069V6.13571C5.89304 6.27043 5.78334 6.37892 5.64712 6.37892C5.51105 6.37892 5.40121 6.27043 5.40121 6.13571V2.92019C5.40121 2.85546 5.42701 2.79345 5.47299 2.74797L8.0717 0.177831C8.11769 0.132353 8.18039 0.106834 8.24584 0.106834H18.646C18.7821 0.106834 18.8919 0.215468 18.8919 0.350048V17.1684C18.8919 17.303 18.7821 17.4116 18.646 17.4116Z" fill="white"/>
<mask id="mask1" mask-type="alpha" maskUnits="userSpaceOnUse" x="5" y="0" width="14" height="18">
<path d="M5.29305 0H19V17.5185H5.29305V0Z" fill="white"/>
</mask>
<g mask="url(#mask1)">
<path fill-rule="evenodd" clip-rule="evenodd" d="M11.6565 17.0321C11.5805 17.0321 11.5187 17.0933 11.5187 17.1684C11.5187 17.2435 11.5805 17.3047 11.6565 17.3047H18.646C18.7221 17.3047 18.7838 17.2435 18.7838 17.1684V0.350037C18.7838 0.274906 18.7221 0.213746 18.646 0.213746H8.24579C8.20918 0.213746 8.17357 0.228288 8.14806 0.253522L5.54949 2.82352C5.52398 2.84875 5.50928 2.88396 5.50928 2.92017V6.1357C5.50928 6.21097 5.57112 6.27199 5.64723 6.27199C5.72319 6.27199 5.78503 6.21097 5.78503 6.1357V2.97634L8.30259 0.486328H18.5082V17.0321H11.6565ZM18.646 17.5185H11.6565C11.4613 17.5185 11.3025 17.3616 11.3025 17.1684C11.3025 16.9754 11.4613 16.8183 11.6565 16.8183H18.2919V0.700173H8.3921L6.00125 3.06488V6.1357C6.00125 6.32887 5.8424 6.48583 5.64723 6.48583C5.4519 6.48583 5.29305 6.32887 5.29305 6.1357V2.92017C5.29305 2.82765 5.33082 2.73727 5.39655 2.67226L7.99526 0.102262C8.06099 0.0372525 8.15224 -9.91821e-05 8.24579 -9.91821e-05H18.646C18.8413 -9.91821e-05 19 0.157006 19 0.350037V17.1684C19 17.3616 18.8413 17.5185 18.646 17.5185Z" fill="white"/>
</g>
<path fill-rule="evenodd" clip-rule="evenodd" d="M13.9843 10.4303C13.9191 10.4303 13.8563 10.4048 13.8103 10.3593L13.1377 9.69415C13.0415 9.59906 13.0415 9.44494 13.1377 9.34985C13.2338 9.25476 13.3896 9.25476 13.4858 9.34985L13.9792 9.83785L15.1957 8.56305C15.2895 8.46553 15.4454 8.4614 15.544 8.55307C15.6427 8.64559 15.6472 8.7997 15.5542 8.89736L14.1634 10.3544C14.1175 10.4018 14.054 10.4293 13.9879 10.4303H13.9843Z" fill="white"/>
<path fill-rule="evenodd" clip-rule="evenodd" d="M13.3806 6.37897C13.3174 6.37897 13.2547 6.35544 13.2065 6.30783C13.1104 6.21274 13.1104 6.05863 13.2065 5.96354L14.8648 4.32391C14.9615 4.22839 15.1173 4.22939 15.2131 4.32391C15.3092 4.419 15.3092 4.57311 15.2131 4.6682L13.5546 6.30783C13.5066 6.35544 13.4433 6.37897 13.3806 6.37897Z" fill="white"/>
<path fill-rule="evenodd" clip-rule="evenodd" d="M15.0389 6.37897C14.9761 6.37897 14.9129 6.35544 14.8648 6.30783L13.2065 4.6682C13.1103 4.57311 13.1103 4.419 13.2065 4.32391C13.3026 4.22882 13.4585 4.22882 13.5546 4.32391L15.213 5.96354C15.3092 6.05863 15.3092 6.21274 15.213 6.30783C15.1649 6.35544 15.1018 6.37897 15.0389 6.37897Z" fill="white"/>
<path fill-rule="evenodd" clip-rule="evenodd" d="M13.3806 14.8286C13.3174 14.8286 13.2547 14.8051 13.2065 14.7575C13.1104 14.6624 13.1104 14.5083 13.2065 14.4132L14.8648 12.7736C14.9615 12.6785 15.1173 12.6785 15.2131 12.7736C15.3092 12.8687 15.3092 13.0228 15.2131 13.118L13.5546 14.7575C13.5066 14.8051 13.4433 14.8286 13.3806 14.8286Z" fill="white"/>
<path fill-rule="evenodd" clip-rule="evenodd" d="M15.0389 14.8286C14.9761 14.8286 14.9129 14.8051 14.8648 14.7575L13.2065 13.118C13.1103 13.0228 13.1103 12.8687 13.2065 12.7736C13.3026 12.6785 13.4585 12.6785 13.5546 12.7736L15.213 14.4132C15.3092 14.5083 15.3092 14.6624 15.213 14.7575C15.1649 14.8051 15.1018 14.8286 15.0389 14.8286Z" fill="white"/>
<path fill-rule="evenodd" clip-rule="evenodd" d="M8.79984 3.71133H6.70277C6.56669 3.71133 6.45685 3.6027 6.45685 3.46812C6.45685 3.33354 6.56669 3.2249 6.70277 3.2249H8.55392V1.3941C8.55392 1.25952 8.66376 1.15089 8.79984 1.15089C8.93592 1.15089 9.04576 1.25952 9.04576 1.3941V3.46812C9.04576 3.6027 8.93592 3.71133 8.79984 3.71133Z" fill="white"/>
<path fill-rule="evenodd" clip-rule="evenodd" d="M6.7028 3.33181C6.62683 3.33181 6.56499 3.39297 6.56499 3.46811C6.56499 3.54324 6.62683 3.6044 6.7028 3.6044H8.79987C8.87584 3.6044 8.93768 3.54324 8.93768 3.46811V1.39409C8.93768 1.31896 8.87584 1.2578 8.79987 1.2578C8.7239 1.2578 8.66206 1.31896 8.66206 1.39409V3.33181H6.7028ZM8.79987 3.81824H6.7028C6.50762 3.81824 6.34877 3.66128 6.34877 3.46811C6.34877 3.27507 6.50762 3.11797 6.7028 3.11797H8.44584V1.39409C8.44584 1.20106 8.60455 1.04395 8.79987 1.04395C8.99505 1.04395 9.1539 1.20106 9.1539 1.39409V3.46811C9.1539 3.66128 8.99505 3.81824 8.79987 3.81824Z" fill="white"/>
<path fill-rule="evenodd" clip-rule="evenodd" d="M9.3235 7.73026H5.91352L9.92648 11.6989V7.73026H9.3235Z" fill="white"/>
</svg>
