<svg width="19" height="17" viewBox="0 0 19 17" fill="none" xmlns="http://www.w3.org/2000/svg">
<mask id="mask0" mask-type="alpha" maskUnits="userSpaceOnUse" x="0" y="0" width="19" height="17">
<path d="M0 0H19V17H0V0Z" fill="white"/>
</mask>
<g mask="url(#mask0)">
<path fill-rule="evenodd" clip-rule="evenodd" d="M15.5649 17H3.76657C3.09894 17 2.55584 16.4483 2.55584 15.7707V9.25214H1.2128C0.692716 9.25214 0.244539 8.93045 0.0712123 8.43254C-0.102114 7.93442 0.0471363 7.39833 0.451635 7.06625L1.50097 6.20512C1.64851 6.08462 1.86477 6.10776 1.98387 6.25715C2.10308 6.40685 2.08018 6.62644 1.93263 6.74759L0.883406 7.60883C0.67077 7.78309 0.658839 8.02853 0.718709 8.19998C0.778367 8.37164 0.939548 8.55488 1.2128 8.55488H2.63883C2.97163 8.55488 3.24254 8.82974 3.24254 9.16777V15.7707C3.24254 16.0639 3.47755 16.3027 3.76657 16.3027H15.5649C15.8539 16.3027 16.089 16.0639 16.089 15.7707V9.16777C16.089 8.82974 16.3597 8.55488 16.6926 8.55488H17.7871C18.06 8.55488 18.2212 8.37208 18.2811 8.20095C18.3411 8.03004 18.3297 7.78493 18.1183 7.61013L14.8694 4.92179C14.7622 4.83255 14.701 4.70156 14.701 4.56181V1.44187H13.3057V2.70053C13.3057 2.88118 13.2059 3.04159 13.0454 3.11947C12.8847 3.19757 12.699 3.17486 12.5607 3.0616L9.8218 0.813732C9.6309 0.657211 9.3537 0.65667 9.16269 0.813732L8.03879 1.73631C7.89146 1.85703 7.6752 1.8341 7.55588 1.68428C7.43667 1.53447 7.45958 1.31499 7.60712 1.19373L8.73114 0.27137C9.17228 -0.0904568 9.81253 -0.0904568 10.2535 0.27137L12.619 2.21269V1.37967C12.619 1.02942 12.8994 0.744612 13.2443 0.744612H14.7624C15.1072 0.744612 15.3877 1.02942 15.3877 1.37967V4.45093L18.5521 7.06939C18.9544 7.40244 19.1021 7.93821 18.928 8.43471C18.754 8.9312 18.3062 9.25214 17.7871 9.25214H16.7757V15.7707C16.7757 16.4483 16.2325 17 15.5649 17Z" fill="white"/>
</g>
<path fill-rule="evenodd" clip-rule="evenodd" d="M4.43957 6.18538C4.42487 6.18538 4.41017 6.1844 4.39515 6.18246C4.20701 6.1579 4.07427 5.98288 4.09856 5.79196C4.17761 5.17161 4.48474 4.61302 4.96349 4.21918C5.44277 3.82479 6.04425 3.6355 6.65979 3.68644C6.84877 3.70213 6.9895 3.87044 6.97416 4.06233C6.95871 4.25412 6.79423 4.39441 6.60407 4.38154C6.16516 4.34466 5.73712 4.47998 5.3959 4.76078C5.05479 5.04159 4.83597 5.43944 4.77972 5.88142C4.75735 6.05709 4.60959 6.18538 4.43957 6.18538Z" fill="white"/>
<path fill-rule="evenodd" clip-rule="evenodd" d="M2.81757 5.97558C2.80297 5.97558 2.78827 5.97471 2.77336 5.97298C2.58533 5.94843 2.45238 5.77363 2.47656 5.58271C2.60866 4.53584 3.12629 3.59347 3.93401 2.92909C4.74152 2.26461 5.75506 1.94648 6.79225 2.03183C6.98123 2.04751 7.12185 2.21561 7.10651 2.40772C7.09107 2.5995 6.92658 2.7398 6.73632 2.72682C5.87746 2.65369 5.03597 2.92001 4.36632 3.47091C3.69656 4.02193 3.26734 4.80324 3.15761 5.6713C3.13535 5.84718 2.9878 5.97558 2.81757 5.97558Z" fill="white"/>
<path fill-rule="evenodd" clip-rule="evenodd" d="M9.17229 11.5086C9.10081 11.5086 9.02922 11.4809 8.97468 11.4254L7.69598 10.1271C7.58668 10.0163 7.58668 9.83652 7.69598 9.72575C7.80507 9.61488 7.98191 9.61488 8.09121 9.72575L9.17229 10.8236L11.065 8.90172C11.1741 8.79084 11.351 8.79084 11.4603 8.90172C11.5694 9.01248 11.5694 9.19226 11.4603 9.30303L9.3698 11.4254C9.31536 11.4809 9.24377 11.5086 9.17229 11.5086Z" fill="white"/>
<path fill-rule="evenodd" clip-rule="evenodd" d="M6.12388 7.29252V10.9656C6.12388 11.6959 6.41194 12.348 6.89421 12.7101C7.44583 13.1238 9.07352 14.2153 9.25739 14.3385L9.46758 14.4791L9.67584 14.3397C9.86153 14.2153 11.4893 13.1238 12.0408 12.71C12.5232 12.348 12.8113 11.6959 12.8113 10.9656V7.29252C11.4331 7.16802 9.96273 6.17913 9.46758 5.81882C8.97231 6.17913 7.50207 7.16802 6.12388 7.29252ZM9.46758 15.1028C9.41399 15.1028 9.36041 15.0872 9.31364 15.056L8.95165 14.8135C8.76447 14.6883 7.12527 13.5892 6.56204 13.1666C5.93766 12.698 5.56491 11.8751 5.56491 10.9656V7.02167C5.56491 6.86493 5.68998 6.73783 5.84434 6.73783C7.3785 6.73783 9.2772 5.25656 9.29617 5.24163C9.39695 5.16234 9.53789 5.16223 9.63877 5.24163C9.65773 5.25656 11.5595 6.73783 13.0907 6.73783C13.2452 6.73783 13.3702 6.86493 13.3702 7.02167V10.9656C13.3702 11.8751 12.9975 12.698 12.3731 13.1666C11.8099 13.5892 10.1706 14.6883 9.98553 14.8122L9.6213 15.056C9.57475 15.0872 9.52116 15.1028 9.46758 15.1028Z" fill="white"/>
</svg>
