<?xml version="1.0" encoding="UTF-8"?>
<svg width="19px" height="15px" viewBox="0 0 19 15" version="1.1" xmlns="http://www.w3.org/2000/svg" xmlns:xlink="http://www.w3.org/1999/xlink">
    <title>Group 11 Copy</title>
    <defs>
        <filter id="filter-1">
            <feColorMatrix in="SourceGraphic" type="matrix" values="0 0 0 0 1.000000 0 0 0 0 1.000000 0 0 0 0 1.000000 0 0 0 1.000000 0"></feColorMatrix>
        </filter>
    </defs>
    <g id="Page-1" stroke="none" stroke-width="1" fill="none" fill-rule="evenodd">
        <g id="Group-11-Copy" transform="translate(-593.000000, -783.000000)" filter="url(#filter-1)">
            <g transform="translate(593.000000, 783.000000)">
                <path d="M9.57803952,6.27123789 C9.46002133,6.27123789 9.3455378,6.21016692 9.28230676,6.10059263 C9.18755839,5.93760579 9.24372012,5.7282757 9.40739425,5.63421462 L13.7338113,3.13599941 L9.57803952,0.736754533 L4.90954649,3.43163398 C4.74724694,3.52363318 4.53654226,3.46953333 4.44316848,3.30664467 C4.34832192,3.14365783 4.40458183,2.93442592 4.56815778,2.84026666 L9.40739425,0.0463187008 C9.51274659,-0.0154395669 9.64333244,-0.0154395669 9.74868478,0.0463187008 L14.5879212,2.84026666 C14.6939609,2.90133763 14.7585665,3.01375928 14.7585665,3.13599941 C14.7585665,3.25814136 14.6939609,3.37056301 14.5879212,3.43163398 L9.74868478,6.22558194 C9.69537041,6.25651016 9.63636131,6.27123789 9.57803952,6.27123789" id="Fill-1" fill="#344154"></path>
                <path d="M9.57810824,1.72953096 L9.57801006,1.72943277 L12.0143688,3.13612705 L9.57801006,4.54262496 C10.0560721,3.66583429 10.0561703,2.60632163 9.57810824,1.72953096" id="Fill-3" fill="#F7778A"></path>
                <path d="M9.57803952,11.9118002 L4.39751252,8.92118796 L4.39751252,3.1359405 C4.39751252,2.94703286 4.5498954,2.79464998 4.73890123,2.79464998 C4.92780887,2.79464998 5.08019175,2.94703286 5.08019175,3.1359405 L5.08019175,8.52648488 L9.57803952,11.122394 L14.0758873,8.52648488 L14.0758873,3.1359405 C14.0758873,2.94703286 14.2282702,2.79464998 14.4171778,2.79464998 C14.6061836,2.79464998 14.7585665,2.94703286 14.7585665,3.1359405 L14.7585665,8.92118796 L9.57803952,11.9118002 Z" id="Fill-5" fill="#344154"></path>
                <path d="M9.57803952,8.85517828 C9.38913187,8.85517828 9.23665081,8.7027954 9.23665081,8.51378958 L9.23665081,5.929859 C9.23665081,5.74095136 9.38913187,5.58856848 9.57803952,5.58856848 C9.76694716,5.58856848 9.91942822,5.74095136 9.91942822,5.929859 L9.91942822,8.51378958 C9.91942822,8.7027954 9.76694716,8.85517828 9.57803952,8.85517828" id="Fill-7" fill="#344154"></path>
                <path d="M9.24346484,14.0901488 L0.228525082,8.38855481 C-0.0786952987,8.194247 -0.0755533836,7.74514952 0.234317988,7.55516184 L3.31771487,5.66441627 C3.44309692,5.58410107 3.60736016,5.63152435 3.68129335,5.77124139 C3.75512836,5.91036931 3.71133791,6.08906573 3.5837958,6.16947912 L1.03344444,7.72040693 C0.846696868,7.8340068 0.844340432,8.10421149 1.02902613,8.22105146 L9.34842444,13.4823846 C9.4445474,13.5432592 9.56718027,13.5432592 9.66330324,13.4823846 L17.9732758,8.22704074 C18.1602197,8.108728 18.1550159,7.83430135 17.9636537,7.72325429 L15.6243016,6.36584881 C15.4967594,6.28543542 15.452969,6.106739 15.5269022,5.96761108 C15.5996572,5.82789404 15.7645095,5.78047076 15.8903825,5.86078596 L18.7591473,7.55859831 C19.0748116,7.74544407 19.0814881,8.19994172 18.7715186,8.39601685 L9.76826283,14.0901488 C9.60802517,14.1914755 9.4037025,14.1914755 9.24346484,14.0901488" id="Fill-9" fill="#344154"></path>
            </g>
        </g>
    </g>
</svg>