<svg width="18" height="20" viewBox="0 0 18 20" fill="none" xmlns="http://www.w3.org/2000/svg">
<path fill-rule="evenodd" clip-rule="evenodd" d="M9.00018 14.1374C8.25924 14.1374 7.65648 14.7478 7.65648 15.4982C7.65648 16.2484 8.25924 16.8588 9.00018 16.8588C9.74112 16.8588 10.3438 16.2484 10.3438 15.4982C10.3438 14.7478 9.74112 14.1374 9.00018 14.1374ZM9.00018 17.5818C7.86571 17.5818 6.94271 16.6471 6.94271 15.4982C6.94271 14.3492 7.86571 13.4146 9.00018 13.4146C10.1345 13.4146 11.0574 14.3492 11.0574 15.4982C11.0574 16.6471 10.1345 17.5818 9.00018 17.5818Z" fill="white"/>
<mask id="mask0" mask-type="alpha" maskUnits="userSpaceOnUse" x="6" y="17" width="6" height="3">
<path d="M6.00071 17.9739H11.9996V20H6.00071V17.9739Z" fill="white"/>
</mask>
<g mask="url(#mask0)">
<path fill-rule="evenodd" clip-rule="evenodd" d="M11.6427 20C11.4996 20 11.3644 19.9122 11.3098 19.7688C11.0649 19.1275 10.444 18.6967 9.76491 18.6967H8.23533C7.55625 18.6967 6.93541 19.1275 6.69049 19.7687C6.61955 19.9549 6.41257 20.0475 6.22905 19.9754C6.04508 19.9034 5.95371 19.6941 6.02487 19.508C6.37531 18.5904 7.26373 17.9739 8.23533 17.9739H9.76491C10.7367 17.9739 11.6251 18.5904 11.9755 19.5081C12.0465 19.6942 11.9551 19.9035 11.7713 19.9755C11.7291 19.9922 11.6854 20 11.6427 20Z" fill="white"/>
</g>
<path fill-rule="evenodd" clip-rule="evenodd" d="M2.99951 12.3938C2.25846 12.3938 1.6557 13.0041 1.6557 13.7546C1.6557 14.5048 2.25846 15.1151 2.99951 15.1151C3.74033 15.1151 4.34298 14.5048 4.34298 13.7546C4.34298 13.0041 3.74033 12.3938 2.99951 12.3938ZM2.99951 15.8382C1.86504 15.8382 0.942036 14.9034 0.942036 13.7546C0.942036 12.6056 1.86504 11.671 2.99951 11.671C4.13386 11.671 5.05675 12.6056 5.05675 13.7546C5.05675 14.9034 4.13386 15.8382 2.99951 15.8382Z" fill="white"/>
<mask id="mask1" mask-type="alpha" maskUnits="userSpaceOnUse" x="0" y="16" width="6" height="3">
<path d="M0 16.2301H5.99885V18.2563H0V16.2301Z" fill="white"/>
</mask>
<g mask="url(#mask1)">
<path fill-rule="evenodd" clip-rule="evenodd" d="M5.642 18.2563C5.49877 18.2563 5.36374 18.1685 5.30897 18.0251C5.06416 17.3837 4.44332 16.9529 3.76424 16.9529H2.23455C1.55546 16.9529 0.934625 17.3837 0.689816 18.0249C0.618765 18.211 0.41212 18.3037 0.228261 18.2316C0.0444018 18.1595 -0.0469665 17.9503 0.0240852 17.7641C0.37463 16.8466 1.26294 16.2301 2.23455 16.2301H3.76424C4.73595 16.2301 5.62438 16.8467 5.9747 17.7643C6.04586 17.9507 5.95438 18.1597 5.77063 18.2318C5.72832 18.2484 5.68477 18.2563 5.642 18.2563Z" fill="white"/>
</g>
<path fill-rule="evenodd" clip-rule="evenodd" d="M15.0006 12.5531C14.2596 12.5531 13.6569 13.1634 13.6569 13.9139C13.6569 14.6641 14.2596 15.2744 15.0006 15.2744C15.7416 15.2744 16.3442 14.6641 16.3442 13.9139C16.3442 13.1634 15.7416 12.5531 15.0006 12.5531ZM15.0006 15.9975C13.8663 15.9975 12.9433 15.0628 12.9433 13.9139C12.9433 12.7649 13.8663 11.8303 15.0006 11.8303C16.135 11.8303 17.058 12.7649 17.058 13.9139C17.058 15.0628 16.135 15.9975 15.0006 15.9975Z" fill="white"/>
<mask id="mask2" mask-type="alpha" maskUnits="userSpaceOnUse" x="12" y="16" width="6" height="3">
<path d="M12.0012 16.3894H18V18.4156H12.0012V16.3894Z" fill="white"/>
</mask>
<g mask="url(#mask2)">
<path fill-rule="evenodd" clip-rule="evenodd" d="M17.6432 18.4156C17.5 18.4156 17.365 18.3278 17.3103 18.1845C17.0655 17.5431 16.4446 17.1122 15.7655 17.1122H14.2358C13.5568 17.1122 12.9359 17.5431 12.691 18.1843C12.6199 18.3704 12.4135 18.4632 12.2295 18.391C12.0457 18.3189 11.9543 18.1098 12.0253 17.9236C12.3757 17.0059 13.2641 16.3894 14.2358 16.3894H15.7655C16.7373 16.3894 17.6256 17.006 17.9759 17.9237C18.0471 18.11 17.9556 18.3191 17.7719 18.3911C17.7295 18.4077 17.686 18.4156 17.6432 18.4156Z" fill="white"/>
</g>
<path fill-rule="evenodd" clip-rule="evenodd" d="M8.62321 8.05746C8.53196 8.05746 8.44059 8.0221 8.37088 7.95162L6.73815 6.29786C6.59874 6.15689 6.59874 5.92793 6.73815 5.78674C6.87756 5.64565 7.1034 5.64565 7.24281 5.78674L8.62321 7.18494L11.0399 4.73732C11.1793 4.59613 11.4051 4.59613 11.5445 4.73732C11.684 4.8784 11.684 5.10736 11.5445 5.24844L8.87554 7.95162C8.80584 8.0221 8.71447 8.05746 8.62321 8.05746Z" fill="white"/>
<path fill-rule="evenodd" clip-rule="evenodd" d="M4.73088 2.68789V7.36586C4.73088 8.29603 5.0986 9.12671 5.7146 9.5877C6.41883 10.1147 8.49718 11.5048 8.73189 11.6616L9.00016 11.8408L9.26618 11.6632C9.50335 11.5048 11.5817 10.1147 12.286 9.58759C12.9019 9.12671 13.2697 8.29603 13.2697 7.36586V2.68789C11.51 2.52918 9.63255 1.26979 9.00016 0.81085C8.36787 1.26979 6.49067 2.52918 4.73088 2.68789ZM9.00016 12.6351C8.9318 12.6351 8.86333 12.6152 8.80372 12.5754L8.3415 12.2669C8.10252 12.1071 6.00958 10.7073 5.29031 10.1692C4.49303 9.57224 4.01711 8.52442 4.01711 7.36586V2.34285C4.01711 2.14323 4.17683 1.98145 4.37394 1.98145C6.33274 1.98145 8.75714 0.0947556 8.7815 0.0757703C8.91002 -0.025181 9.09006 -0.0252946 9.21881 0.0756567C9.24306 0.0947556 11.6714 1.98145 13.6266 1.98145C13.8237 1.98145 13.9834 2.14323 13.9834 2.34285V7.36586C13.9834 8.52442 13.5074 9.57224 12.7102 10.169C11.9911 10.7073 9.8979 12.1071 9.66173 12.2651L9.19647 12.5754C9.1371 12.6152 9.06874 12.6351 9.00016 12.6351Z" fill="white"/>
</svg>
