<?xml version="1.0" encoding="UTF-8"?>
<svg width="19px" height="19px" viewBox="0 0 19 19" version="1.1" xmlns="http://www.w3.org/2000/svg" xmlns:xlink="http://www.w3.org/1999/xlink">
    <title>Group 18 Copy</title>
    <defs>
        <filter id="filter-1">
            <feColorMatrix in="SourceGraphic" type="matrix" values="0 0 0 0 1.000000 0 0 0 0 1.000000 0 0 0 0 1.000000 0 0 0 1.000000 0"></feColorMatrix>
        </filter>
        <polygon id="path-2" points="0 0 19 0 19 19.0014271 0 19.0014271"></polygon>
    </defs>
    <g id="Page-1" stroke="none" stroke-width="1" fill="none" fill-rule="evenodd">
        <g filter="url(#filter-1)" id="Group-18-Copy">
            <g>
                <path d="M4.84156857,9.49004697 C4.79890234,9.3621939 4.75638173,9.19152899 4.7137155,9.04241561 C4.56445651,8.18952788 4.73512143,7.42211823 5.11868063,7.12360024 C5.18275279,4.73574759 7.12282846,2.83819252 9.4892752,2.83819252 C11.8771279,2.83819252 13.8173491,4.73574759 13.8600154,7.12360024 C14.2435746,7.42211823 14.4354998,8.18952788 14.2649805,9.04241561 C14.2435746,9.19152899 14.2009084,9.3621939 14.1582421,9.49004697 L4.84156857,9.49004697 Z" id="Fill-1" fill="#F7778A"></path>
                <path d="M0.471294372,6.24945221 C0.270777657,6.24945221 0.109141088,6.08723316 0.109141088,5.88700768 L0.109141088,2.28411401 C0.109141088,1.08494542 1.08463962,0.10915565 2.28322574,0.10915565 L5.88597379,0.10915565 C6.08649051,0.10915565 6.24798146,0.271520311 6.24798146,0.471600171 C6.24798146,0.671680032 6.08649051,0.834190311 5.88597379,0.834190311 L2.28322574,0.834190311 C1.48407125,0.834190311 0.833302038,1.48437705 0.833302038,2.28411401 L0.833302038,5.88700768 C0.833302038,6.08723316 0.671811088,6.24945221 0.471294372,6.24945221 M18.5287202,6.24945221 C18.3282035,6.24945221 18.1665669,6.08723316 18.1665669,5.88700768 L18.1665669,2.28411401 C18.1665669,1.48437705 17.5157977,0.834190311 16.7167888,0.834190311 L13.1138952,0.834190311 C12.9133784,0.834190311 12.7518875,0.671680032 12.7518875,0.471600171 C12.7518875,0.271520311 12.9133784,0.10915565 13.1138952,0.10915565 L16.7167888,0.10915565 C17.9153749,0.10915565 18.8907279,1.08494542 18.8907279,2.28411401 L18.8907279,5.88700768 C18.8907279,6.08723316 18.7292369,6.24945221 18.5287202,6.24945221 M5.88597379,18.8921986 L2.28322574,18.8921986 C1.08463962,18.8921986 0.109141088,17.9164088 0.109141088,16.7173859 L0.109141088,13.1144922 C0.109141088,12.9142667 0.270777657,12.751902 0.471294372,12.751902 C0.671811088,12.751902 0.833302038,12.9142667 0.833302038,13.1144922 L0.833302038,16.7173859 C0.833302038,17.5169772 1.48407125,18.1673096 2.28322574,18.1673096 L5.88597379,18.1673096 C6.08649051,18.1673096 6.24798146,18.3296742 6.24798146,18.5297541 C6.24798146,18.7298339 6.08649051,18.8921986 5.88597379,18.8921986 M16.7167888,18.8921986 L13.1138952,18.8921986 C12.9133784,18.8921986 12.7518875,18.7298339 12.7518875,18.5297541 C12.7518875,18.3296742 12.9133784,18.1673096 13.1138952,18.1673096 L16.7167888,18.1673096 C17.5157977,18.1673096 18.1665669,17.5169772 18.1665669,16.7173859 L18.1665669,13.1144922 C18.1665669,12.9142667 18.3282035,12.751902 18.5287202,12.751902 C18.7292369,12.751902 18.8907279,12.9142667 18.8907279,13.1144922 L18.8907279,16.7173859 C18.8907279,17.9164088 17.9153749,18.8921986 16.7167888,18.8921986" id="Fill-3" fill="#344154"></path>
                <g id="Group-7">
                    <mask id="mask-3" fill="white">
                        <use xlink:href="#path-2"></use>
                    </mask>
                    <g id="Clip-6"></g>
                    <path d="M2.28328399,0.218384109 C1.14483832,0.218384109 0.218413233,1.14495482 0.218413233,2.28398296 L0.218413233,5.88702225 C0.218413233,6.02667042 0.331995687,6.14025287 0.47135262,6.14025287 C0.610709553,6.14025287 0.724146388,6.02667042 0.724146388,5.88702225 L0.724146388,2.28398296 C0.724146388,1.42425116 1.42355219,0.724990975 2.28328399,0.724990975 L5.88588642,0.724990975 C6.02538897,0.724990975 6.13897143,0.611262904 6.13897143,0.471614733 C6.13897143,0.331966563 6.02538897,0.218384109 5.88588642,0.218384109 L2.28328399,0.218384109 Z M0.47135262,6.35868067 C0.211423544,6.35868067 -1.4561853e-05,6.14709694 -1.4561853e-05,5.88702225 L-1.4561853e-05,2.28398296 C-1.4561853e-05,1.02452829 1.02426618,-4.3685559e-05 2.28328399,-4.3685559e-05 L5.88588642,-4.3685559e-05 C6.1458155,-4.3685559e-05 6.35739922,0.211540039 6.35739922,0.471614733 C6.35739922,0.731689428 6.1458155,0.943418771 5.88588642,0.943418771 L2.28328399,0.943418771 C1.54397871,0.943418771 0.942574183,1.54467768 0.942574183,2.28398296 L0.942574183,5.88702225 C0.942574183,6.14709694 0.731136077,6.35868067 0.47135262,6.35868067 L0.47135262,6.35868067 Z M13.114099,0.218384109 C12.9745965,0.218384109 12.8611596,0.331966563 12.8611596,0.471614733 C12.8611596,0.611262904 12.9745965,0.724990975 13.114099,0.724990975 L16.7167014,0.724990975 C17.5764333,0.724990975 18.2758391,1.42425116 18.2758391,2.28398296 L18.2758391,5.88702225 C18.2758391,6.02667042 18.3894215,6.14025287 18.5287784,6.14025287 C18.6681354,6.14025287 18.7815722,6.02667042 18.7815722,5.88702225 L18.7815722,2.28398296 C18.7815722,1.14495482 17.8552927,0.218384109 16.7167014,0.218384109 L13.114099,0.218384109 Z M18.5287784,6.35868067 C18.2688494,6.35868067 18.0574113,6.14709694 18.0574113,5.88702225 L18.0574113,2.28398296 C18.0574113,1.54467768 17.4560067,0.943418771 16.7167014,0.943418771 L13.114099,0.943418771 C12.8541699,0.943418771 12.6427318,0.731689428 12.6427318,0.471614733 C12.6427318,0.211540039 12.8541699,-4.3685559e-05 13.114099,-4.3685559e-05 L16.7167014,-4.3685559e-05 C17.9757193,-4.3685559e-05 19,1.02452829 19,2.28398296 L19,5.88702225 C19,6.14709694 18.7885619,6.35868067 18.5287784,6.35868067 L18.5287784,6.35868067 Z M0.47135262,12.8611305 C0.331995687,12.8611305 0.218413233,12.9748586 0.218413233,13.1145067 L0.218413233,16.7174004 C0.218413233,17.8564286 1.14483832,18.7829993 2.28328399,18.7829993 L5.88588642,18.7829993 C6.02538897,18.7829993 6.13897143,18.6694168 6.13897143,18.5297686 C6.13897143,18.3901205 6.02538897,18.276538 5.88588642,18.276538 L2.28328399,18.276538 C1.42355219,18.276538 0.724146388,17.5771322 0.724146388,16.7174004 L0.724146388,13.1145067 C0.724146388,12.9748586 0.610709553,12.8611305 0.47135262,12.8611305 L0.47135262,12.8611305 Z M5.88588642,19.0014271 L2.28328399,19.0014271 C1.02426618,19.0014271 -1.4561853e-05,17.9768551 -1.4561853e-05,16.7174004 L-1.4561853e-05,13.1145067 C-1.4561853e-05,12.8542864 0.211423544,12.6427027 0.47135262,12.6427027 C0.731136077,12.6427027 0.942574183,12.8542864 0.942574183,13.1145067 L0.942574183,16.7174004 C0.942574183,17.4567057 1.54397871,18.0581102 2.28328399,18.0581102 L5.88588642,18.0581102 C6.1458155,18.0581102 6.35739922,18.2696939 6.35739922,18.5297686 C6.35739922,18.7898433 6.1458155,19.0014271 5.88588642,19.0014271 L5.88588642,19.0014271 Z M13.114099,18.276538 C12.9745965,18.276538 12.8611596,18.3901205 12.8611596,18.5297686 C12.8611596,18.6694168 12.9745965,18.7829993 13.114099,18.7829993 L16.7167014,18.7829993 C17.8552927,18.7829993 18.7815722,17.8564286 18.7815722,16.7174004 L18.7815722,13.1145067 C18.7815722,12.9748586 18.6681354,12.8611305 18.5287784,12.8611305 C18.3894215,12.8611305 18.2758391,12.9748586 18.2758391,13.1145067 L18.2758391,16.7174004 C18.2758391,17.5771322 17.5764333,18.276538 16.7167014,18.276538 L13.114099,18.276538 Z M16.7167014,19.0014271 L13.114099,19.0014271 C12.8541699,19.0014271 12.6427318,18.7898433 12.6427318,18.5297686 C12.6427318,18.2696939 12.8541699,18.0581102 13.114099,18.0581102 L16.7167014,18.0581102 C17.4560067,18.0581102 18.0574113,17.4567057 18.0574113,16.7174004 L18.0574113,13.1145067 C18.0574113,12.8542864 18.2688494,12.6427027 18.5287784,12.6427027 C18.7885619,12.6427027 19,12.8542864 19,13.1145067 L19,16.7174004 C19,17.9768551 17.9757193,19.0014271 16.7167014,19.0014271 L16.7167014,19.0014271 Z" id="Fill-5" fill="#344154" mask="url(#mask-3)"></path>
                </g>
                <path d="M4.84142295,9.85252062 C4.68939721,9.85252062 4.54843847,9.75670363 4.49776322,9.60467788 C4.46762019,9.51395754 4.43674906,9.40343307 4.40675164,9.29247175 L4.36539598,9.14190219 C4.20113828,8.21314721 4.35957124,7.39491669 4.76366266,6.96009976 C4.90913557,4.43303579 6.95594963,2.47577712 9.4892752,2.47577712 C12.0424049,2.47577712 14.0886365,4.43099713 14.2164895,6.95558558 C14.4433632,7.1914876 14.5977188,7.55014604 14.6660139,8.00782508 C14.6954289,8.20572066 14.5594212,8.39021934 14.3612344,8.41992552 C14.1672705,8.44788428 13.979277,8.31347837 13.9491339,8.11500032 C13.8977306,7.77367048 13.787643,7.51912929 13.6465386,7.41690509 C13.5546533,7.35006618 13.4988814,7.24405589 13.4974252,7.1301822 C13.457817,4.9266826 11.6971433,3.20052055 9.4892752,3.20052055 C7.30062869,3.20052055 5.54068313,4.92813879 5.48127077,7.13309457 C5.47821279,7.24172599 5.42695506,7.34322211 5.34176822,7.40962416 C5.10877857,7.59062799 4.93476443,8.20251705 5.07062652,8.97997439 L5.1058662,9.1018571 C5.13236878,9.19883904 5.15887135,9.29625783 5.1852283,9.37547431 C5.24842675,9.56521526 5.14634816,9.770683 4.95602474,9.83373583 C4.91787268,9.84669588 4.87972063,9.85252062 4.84142295,9.85252062 M14.925943,16.5256354 C14.8701711,16.5256354 14.812943,16.5128209 14.7599379,16.485299 C14.06592,16.1280968 13.2829291,15.8441407 12.433245,15.6417309 C11.5422052,15.4436897 10.8797865,14.7134128 10.7504773,13.7827647 L10.6872788,13.2528589 C10.6711152,13.1232584 10.7247028,12.9865226 10.8296938,12.9086167 C11.4806086,12.4250176 12.1157966,11.5936814 12.6174525,10.5675076 C12.6835633,10.4326648 12.8268519,10.3527203 12.9758197,10.3655347 C13.2175464,10.3846107 13.5996494,10.0221662 13.814728,9.37547431 C13.8779265,9.18529651 14.0828117,9.08205298 14.2731351,9.14627075 C14.4624392,9.20946919 14.5652459,9.41479132 14.5021931,9.60467788 C14.2259547,10.4333929 13.7221146,10.9806274 13.1728415,11.0764444 C12.6784666,12.0346143 12.0696355,12.8327495 11.4297877,13.3590148 L11.4695416,13.6927725 C11.5569127,14.320534 11.9888173,14.8004927 12.5954641,14.935481 C13.5077642,15.152307 14.3457988,15.4566497 15.0920938,15.8412283 C15.2697484,15.9326767 15.3394996,16.1511045 15.2484881,16.3293416 C15.1836878,16.4541367 15.0567085,16.5256354 14.925943,16.5256354 M4.05260738,16.5256354 C3.91965766,16.5256354 3.79195021,16.4522436 3.72860615,16.3251187 C3.63905075,16.1464447 3.71186002,15.9285994 3.89038833,15.8388984 C4.66449644,15.4522812 5.50835582,15.1485209 6.39924999,14.936646 C7.0060424,14.801512 7.44013124,14.3138355 7.50915442,13.6927725 C7.52240571,13.5704529 7.53638509,13.4558511 7.55473302,13.3445986 C6.90469191,12.8018783 6.31479124,12.0325756 5.84109416,11.10484 C5.74993696,10.9267485 5.82056195,10.7081751 5.99821656,10.6171635 C6.17601678,10.5264432 6.39488143,10.5957576 6.48603863,10.775014 C6.94808623,11.6781401 7.54730648,12.4363758 8.17317492,12.9105097 C8.2885048,12.9984633 8.3412187,13.1462661 8.30612464,13.2873705 C8.26709887,13.4425999 8.24875094,13.5981204 8.22894682,13.7728627 C8.12541204,14.7067143 7.47100237,15.4404861 6.56161465,15.6428958 C5.73027846,15.8407914 4.93913299,16.12533 4.21497204,16.4874833 C4.1628406,16.513549 4.1077968,16.5256354 4.05260738,16.5256354" id="Fill-8" fill="#344154"></path>
                <path d="M9.48940625,2.5849619 C7.04199562,2.5849619 5.01411197,4.50945639 4.87271638,6.96633223 L4.87038648,7.00550361 L4.84373829,7.0344817 C4.46003346,7.44731023 4.31805539,8.24762968 4.47313913,9.12279704 L4.51201928,9.26375578 C4.54157984,9.37267844 4.57186849,9.48116424 4.60142905,9.5704284 C4.64467776,9.69988328 4.79437361,9.77298378 4.92091611,9.73031755 C4.98571636,9.70876601 5.03784779,9.66376988 5.06799082,9.60333819 C5.09813386,9.54276088 5.10308489,9.47417455 5.08153335,9.40981116 C5.05503078,9.33015783 5.02838258,9.23259341 5.00188001,9.135029 L4.96576662,9.01023392 C4.81840066,8.17030624 5.01032589,7.52885661 5.27476914,7.32338887 C5.33447273,7.27679094 5.37000366,7.20616595 5.37204232,7.13029869 C5.43334772,4.86534808 7.24178424,3.09142315 9.48940625,3.09142315 C11.7574149,3.09142315 13.5658514,4.86447437 13.6066246,7.12811442 C13.6076439,7.20718528 13.6466697,7.28188758 13.7107418,7.32863113 C13.8776207,7.44934889 14.0005227,7.72296611 14.0570227,8.09880754 C14.0779918,8.23612581 14.2061361,8.33121471 14.3457842,8.31184745 C14.4829569,8.29116962 14.5784826,8.16200598 14.5579504,8.02395961 C14.4937327,7.59351124 14.3484054,7.25028836 14.137841,7.03142371 L14.1094454,7.00200877 L14.1074067,6.96123558 C13.981301,4.46635331 11.995938,2.5849619 9.48940625,2.5849619 M4.84155401,9.96170539 C4.63841616,9.96170539 4.45857728,9.83225052 4.39421389,9.63916035 C4.36348838,9.54669258 4.33203477,9.43412946 4.30130926,9.32112948 L4.26024484,9.17070554 C4.09234667,8.22520442 4.24146005,7.38993653 4.65690971,6.91522013 C4.82393417,4.36136235 6.93918894,2.3665341 9.48940625,2.3665341 C12.0579715,2.3665341 14.1735175,4.35917807 14.323359,6.91012348 C14.5503783,7.16204353 14.7057532,7.53482697 14.7740483,7.99177792 C14.8122004,8.24879462 14.6344002,8.48921082 14.3773834,8.52794535 C14.1197843,8.5644956 13.8799506,8.38698661 13.841216,8.13142609 C13.7947637,7.82315166 13.698073,7.58914268 13.5824519,7.50541203 C13.4626078,7.41804091 13.3900898,7.27824712 13.3881968,7.13160926 C13.3497535,4.98883259 11.637134,3.30985094 9.48940625,3.30985094 C7.36104582,3.30985094 5.64828067,4.99058001 5.59047011,7.13612344 C5.58668403,7.27766465 5.5204276,7.40872132 5.4088838,7.4958012 C5.23093796,7.63413881 5.04177949,8.1802083 5.17836967,8.96116047 L5.2108426,9.07153932 C5.23807327,9.17114239 5.26341089,9.26448387 5.28889413,9.3409336 C5.32864799,9.46048641 5.31961964,9.58833948 5.26341089,9.7009026 C5.20705652,9.81375697 5.1102202,9.89777886 4.99037615,9.9373871 C4.94305013,9.95355075 4.89281173,9.96170539 4.84155401,9.96170539 M6.16318779,10.6865944 C6.12357955,10.6865944 6.08426255,10.695914 6.04785791,10.7144076 C5.92408216,10.7778973 5.8748631,10.9307967 5.93835278,11.0550093 C6.40302151,11.9648339 6.98622372,12.7275838 7.62461536,13.2608388 L7.67252385,13.3008839 L7.66247617,13.3624805 C7.64689499,13.4572782 7.63349809,13.5595024 7.61777129,13.7045385 C7.54350584,14.3727819 7.07446855,14.8983192 6.42311687,15.0433552 C5.54299847,15.2524634 4.70671125,15.5533113 3.93915598,15.9365793 C3.81450652,15.9991953 3.76397689,16.1515122 3.82644724,16.2761617 C3.88717016,16.3986269 4.04516627,16.4503215 4.16617527,16.3898898 C4.898054,16.0239504 5.69531545,15.7367907 6.53640808,15.5365652 C7.40094529,15.3442031 8.02215394,14.6472728 8.12044645,13.7607472 C8.13908562,13.5969264 8.15816165,13.4277176 8.20009979,13.2606932 C8.22470932,13.1626919 8.18801345,13.0593028 8.10704955,12.9974149 C7.46836667,12.5136701 6.85807941,11.7420375 6.38875089,10.8247864 C6.358171,10.7645003 6.30618519,10.7199411 6.24196741,10.6991176 C6.21619293,10.6906718 6.18969036,10.6865944 6.16318779,10.6865944 M4.05259281,16.6348201 C3.87260831,16.6348201 3.71097174,16.5347802 3.63102717,16.3737261 C3.51482358,16.1419014 3.60903877,15.8579453 3.84130033,15.7414505 C4.62414554,15.3503191 5.47615956,15.0439377 6.37404342,14.8304609 C6.93452914,14.7055202 7.33687314,14.2545397 7.40065406,13.680657 C7.41346849,13.5621235 7.42482673,13.4708207 7.43720431,13.388255 C6.79502659,12.8388363 6.21022257,12.0677862 5.74380642,11.1544668 C5.62556418,10.9230789 5.71744947,10.6383947 5.94854608,10.5200068 C6.06125482,10.4623419 6.18954474,10.4524398 6.30953441,10.4914656 C6.42923284,10.5303458 6.5263604,10.6134939 6.58344287,10.7254746 C7.0379183,11.6137476 7.62592592,12.3588776 8.23912555,12.8235464 C8.38998635,12.938585 8.45784459,13.1309471 8.41212037,13.313844 C8.37367707,13.466889 8.35518352,13.6286712 8.33741806,13.7852111 C8.22878664,14.7655151 7.54103032,15.5367108 6.58548153,15.7494595 C5.76229998,15.945462 4.98061971,16.226797 4.2638853,16.5853098 C4.19777449,16.6182196 4.12671265,16.6348201 4.05259281,16.6348201 M12.9452252,10.4735545 C12.8483889,10.4735545 12.7581054,10.5287439 12.7155848,10.6155326 C12.2069393,11.6562682 11.560393,12.501875 10.8949163,12.9962499 C10.8240001,13.0489638 10.7842462,13.1465283 10.7957501,13.2392873 L10.8589485,13.7699212 C10.9815593,14.652952 11.6090296,15.3466786 12.4569663,15.535109 C13.3169893,15.7399943 14.1082804,16.0268628 14.8100161,16.3881424 C14.9291321,16.4506127 15.0891668,16.3999375 15.1514916,16.2790741 C15.2148356,16.1550071 15.1659078,16.0021076 15.042132,15.9383267 C14.3028268,15.5575343 13.4711993,15.2558127 12.5701119,15.0417534 C11.9194883,14.896863 11.4558389,14.3855963 11.3611868,13.7078877 L11.3142977,13.312679 L11.3604587,13.2746726 C11.9918607,12.7553969 12.584965,11.9779396 13.0756994,11.0264681 L13.1006002,10.9782684 L13.1540422,10.9688031 C13.6638527,10.8799758 14.1406077,10.343954 14.3984981,9.57013716 C14.4199041,9.50591939 14.414953,9.43747868 14.3846644,9.37690138 C14.3545213,9.31632407 14.3025355,9.27132794 14.2384634,9.25006764 C14.1743912,9.22807924 14.1060961,9.23273903 14.0456644,9.26273645 C13.9850871,9.2930251 13.9397998,9.34530215 13.9183938,9.40981116 C13.7078294,10.0429605 13.2986414,10.4981641 12.9675048,10.4745739 C12.9600783,10.4738458 12.9526518,10.4735545 12.9452252,10.4735545 M14.9260741,16.6348201 C14.8504981,16.6348201 14.7756501,16.6166178 14.7095393,16.5821062 C14.0239673,16.2289813 13.2492767,15.9483744 12.4078928,15.7480033 C11.4715657,15.5399144 10.7779846,14.7742522 10.6422682,13.7978799 L10.5787785,13.2657898 C10.5575182,13.0954162 10.6304731,12.9205283 10.764879,12.8209252 C11.4025425,12.3469369 12.0256442,11.5295801 12.5194366,10.51957 C12.6047691,10.3455558 12.7930538,10.2411474 12.9854159,10.2568742 C13.1552071,10.2723097 13.5052741,9.95966673 13.7110331,9.34107922 C13.7510782,9.22079831 13.8352457,9.12367075 13.9482456,9.067462 C14.0609544,9.01096201 14.1886618,9.00266175 14.308069,9.04285247 C14.4268937,9.08246071 14.5237301,9.16633698 14.5800844,9.27919134 C14.6365844,9.39190008 14.6456128,9.51975315 14.6058589,9.63916035 C14.3268538,10.47603 13.8212663,11.0446704 13.2456362,11.1733972 C12.7578142,12.1069576 12.171554,12.8764059 11.5452487,13.4050012 L11.5780128,13.6797833 C11.6591223,14.2628399 12.0584084,14.7040641 12.6191853,14.8288591 C13.538912,15.0474326 14.3871399,15.3551245 15.1420264,15.7440716 C15.3726861,15.8628963 15.4639889,16.1475805 15.3457467,16.379114 C15.2639091,16.5371101 15.1032918,16.6348201 14.9260741,16.6348201" id="Fill-10" fill="#344154"></path>
                <path d="M16.7167306,9.85252062 L2.28331311,9.85252062 C2.0827964,9.85252062 1.92115983,9.69030158 1.92115983,9.4900761 C1.92115983,9.28999624 2.0827964,9.12748596 2.28331311,9.12748596 L16.7167306,9.12748596 C16.9172473,9.12748596 17.0787382,9.28999624 17.0787382,9.4900761 C17.0787382,9.69030158 16.9172473,9.85252062 16.7167306,9.85252062" id="Fill-12" fill="#344154"></path>
                <path d="M2.28328399,9.24986208 C2.14392706,9.24986208 2.03049022,9.37025103 2.03049022,9.5182677 C2.03049022,9.66628437 2.14392706,9.78682766 2.28328399,9.78682766 L16.7167014,9.78682766 C16.8560584,9.78682766 16.9696408,9.66628437 16.9696408,9.5182677 C16.9696408,9.37025103 16.8560584,9.24986208 16.7167014,9.24986208 L2.28328399,9.24986208 Z M16.7167014,10.0183449 L2.28328399,10.0183449 C2.02350053,10.0183449 1.81206243,9.79392752 1.81206243,9.5182677 C1.81206243,9.24260787 2.02350053,9.01834487 2.28328399,9.01834487 L16.7167014,9.01834487 C16.9764849,9.01834487 17.1880686,9.24260787 17.1880686,9.5182677 C17.1880686,9.79392752 16.9764849,10.0183449 16.7167014,10.0183449 L16.7167014,10.0183449 Z" id="Fill-14" fill="#344154"></path>
                <path d="M12.8576939,11.366298 L12.793913,11.366298 C12.5933963,11.366298 12.4316141,11.204079 12.4316141,11.0038535 C12.4316141,10.8037737 12.5933963,10.6412634 12.793913,10.6412634 C12.9942841,10.6412634 13.188248,10.8037737 13.188248,11.0038535 C13.188248,11.204079 13.0582106,11.366298 12.8576939,11.366298" id="Fill-16" fill="#434A53"></path>
            </g>
        </g>
    </g>
</svg>