<?xml version="1.0" encoding="UTF-8"?>
<svg width="23px" height="17px" viewBox="0 0 23 17" version="1.1" xmlns="http://www.w3.org/2000/svg" xmlns:xlink="http://www.w3.org/1999/xlink">
    <title>Group 18</title>
    <defs>
        <polygon id="path-1" points="2.26666667e-05 -0.000566666667 21.71308 -0.000566666667 21.71308 16.8866667 2.26666667e-05 16.8866667"></polygon>
    </defs>
    <g id="Page-1" stroke="none" stroke-width="1" fill="none" fill-rule="evenodd">
        <g id="Group-18">
            <path d="M6.743968,11.5526447 L3.306228,11.5526447 C3.16286133,11.5526447 3.04658133,11.4178913 3.04658133,11.2517447 C3.04658133,11.0857113 3.16286133,10.9508447 3.306228,10.9508447 L6.224448,10.9508447 L6.224448,10.6040447 C6.224448,10.1056047 5.90337467,9.675618 5.47758133,9.60365133 L3.27075467,9.251638 C3.128748,9.22897133 3.029468,9.07710467 3.048848,8.91243133 C3.06845467,8.74787133 3.197428,8.63465133 3.34170133,8.65550467 L5.55068133,9.007858 C6.23170133,9.12300467 6.743968,9.808898 6.743968,10.6040447 L6.743968,11.5526447 Z" id="Fill-1" fill="#FFFFFF"></path>
            <g id="Group-5" transform="translate(0.000000, 0.000567)">
                <mask id="mask-2" fill="white">
                    <use xlink:href="#path-1"></use>
                </mask>
                <g id="Clip-4"></g>
                <path d="M4.98476267,13.881384 L16.7283627,13.881384 L16.7283627,15.0440707 C16.7283627,15.728264 17.2087827,16.2849573 17.7995893,16.2849573 L18.5435093,16.2849573 C19.134316,16.2849573 19.614736,15.728264 19.614736,15.0440707 L19.614736,7.68749067 L21.151536,7.03695733 C21.1768093,7.02641733 21.193696,6.998424 21.193696,6.96725733 L21.193696,5.705404 C21.193696,5.664264 21.1650227,5.630944 21.129436,5.630944 L19.5857227,5.630944 C19.0504493,5.630944 18.5589227,5.292984 18.3029027,4.74875733 L16.764516,1.481584 C16.5089493,0.938490667 16.0183293,0.601097333 15.484416,0.601097333 L6.22882267,0.601097333 C5.694796,0.601097333 5.20428933,0.938490667 4.948836,1.48135733 L3.409996,4.748984 C3.15408933,5.292984 2.66256267,5.630944 2.12740267,5.630944 L0.583689333,5.630944 C0.548216,5.630944 0.519429333,5.664264 0.519429333,5.705404 L0.519429333,6.96725733 C0.519429333,6.99819733 0.536316,7.02641733 0.561702667,7.03695733 L2.098276,7.68749067 L2.098276,15.0440707 C2.098276,15.728264 2.57880933,16.2849573 3.169616,16.2849573 L3.91342267,16.2849573 C4.50422933,16.2849573 4.98476267,15.728264 4.98476267,15.0440707 L4.98476267,13.881384 Z M18.5435093,16.8867573 L17.7995893,16.8867573 C16.9225027,16.8867573 16.208956,16.060104 16.208956,15.0440707 L16.208956,14.483184 L5.50416933,14.483184 L5.50416933,15.0440707 C5.50416933,16.060104 4.79062267,16.8867573 3.91342267,16.8867573 L3.169616,16.8867573 C2.292416,16.8867573 1.57886933,16.060104 1.57886933,15.0440707 L1.57886933,8.10829733 L0.383429333,7.602264 C0.154269333,7.50525067 2.26666667e-05,7.250024 2.26666667e-05,6.96725733 L2.26666667e-05,5.705404 C2.26666667e-05,5.33265067 0.261936,5.02925733 0.583689333,5.02925733 L2.12740267,5.02925733 C2.47238933,5.02925733 2.78904267,4.81143067 2.954056,4.46089067 L4.49266933,1.193264 C4.839356,0.457050667 5.50450933,-0.000589333333 6.22882267,-0.000589333333 L15.484416,-0.000589333333 C16.2085027,-0.000589333333 16.8737693,0.457050667 17.2205693,1.19349067 L18.7588427,4.460664 C18.9240827,4.81143067 19.240736,5.02925733 19.5857227,5.02925733 L21.129436,5.02925733 C21.4511893,5.02925733 21.713216,5.33265067 21.713216,5.705404 L21.713216,6.96725733 C21.713216,7.24979733 21.5590827,7.505024 21.3298093,7.602264 L20.134256,8.10829733 L20.134256,15.0440707 C20.134256,16.060104 19.4207093,16.8867573 18.5435093,16.8867573 L18.5435093,16.8867573 Z" id="Fill-3" fill="#FFFFFF" mask="url(#mask-2)"></path>
            </g>
            <path d="M5.11990133,5.06020867 L16.5932013,5.06020867 L15.365348,2.45206867 C15.3285147,2.373982 15.2576813,2.32513533 15.1806147,2.32513533 L6.53260133,2.32513533 C6.45542133,2.32513533 6.384588,2.373982 6.34764133,2.45229533 L5.11990133,5.06020867 Z M17.4680213,5.66189533 L4.244968,5.66189533 L5.89181467,2.164202 C6.01965467,1.89231533 6.265248,1.723562 6.53260133,1.723562 L15.1806147,1.723562 C15.4478547,1.723562 15.6933347,1.89231533 15.8214013,2.16397533 L17.4680213,5.66189533 Z" id="Fill-6" fill="#FFFFFF"></path>
            <path d="M18.4067953,11.5526447 L14.9691687,11.5526447 L14.9691687,10.6040447 C14.9691687,9.808898 15.4814353,9.12300467 16.1604153,9.008198 L18.3714353,8.65550467 C18.5136687,8.634538 18.6445687,8.74787133 18.6641753,8.91243133 C18.6835553,9.07710467 18.5843887,9.22897133 18.4422687,9.251638 L16.233402,9.60410467 C15.809762,9.675618 15.4885753,10.1056047 15.4885753,10.6040447 L15.4885753,10.9508447 L18.4067953,10.9508447 C18.5502753,10.9508447 18.6665553,11.0857113 18.6665553,11.2517447 C18.6665553,11.4178913 18.5502753,11.5526447 18.4067953,11.5526447" id="Fill-8" fill="#FFFFFF"></path>
            <path d="M13.1793973,11.6111927 L8.53375067,11.6111927 C8.39027067,11.6111927 8.27399067,11.4764393 8.27399067,11.310406 C8.27399067,11.1442593 8.39027067,11.0093927 8.53375067,11.0093927 L13.1793973,11.0093927 C13.3228773,11.0093927 13.4391573,11.1442593 13.4391573,11.310406 C13.4391573,11.4764393 13.3228773,11.6111927 13.1793973,11.6111927" id="Fill-10" fill="#FFFFFF"></path>
            <path d="M13.1797373,11.6111927 C13.169764,11.6111927 13.1597907,11.610626 13.1495907,11.6091527 C13.007244,11.590226 12.9050173,11.440966 12.9214507,11.2758393 L13.1002907,9.48041267 L8.612744,9.48041267 L8.79169733,11.2758393 C8.80813067,11.440966 8.705904,11.590226 8.563444,11.6091527 C8.42007733,11.6285327 8.29223733,11.5098727 8.27569067,11.344746 L8.02987067,8.87883933 L13.6832773,8.87883933 L13.4374573,11.344746 C13.4221573,11.4981993 13.3097307,11.6111927 13.1797373,11.6111927" id="Fill-12" fill="#FFFFFF"></path>
            <path d="M5.24452267,14.4837053 L3.85222267,14.4837053 C3.708856,14.4837053 3.592576,14.348952 3.592576,14.1828053 C3.592576,14.016772 3.708856,13.8819053 3.85222267,13.8819053 L5.24452267,13.8819053 C5.38788933,13.8819053 5.50416933,14.016772 5.50416933,14.1828053 C5.50416933,14.348952 5.38788933,14.4837053 5.24452267,14.4837053" id="Fill-14" fill="#FFFFFF"></path>
            <path d="M17.8610387,14.4837053 L16.4686253,14.4837053 C16.3252587,14.4837053 16.2089787,14.348952 16.2089787,14.1828053 C16.2089787,14.016772 16.3252587,13.8819053 16.4686253,13.8819053 L17.8610387,13.8819053 C18.0044053,13.8819053 18.1207987,14.016772 18.1207987,14.1828053 C18.1207987,14.348952 18.0044053,14.4837053 17.8610387,14.4837053" id="Fill-16" fill="#FFFFFF"></path>
        </g>
    </g>
</svg>