<?xml version="1.0" encoding="UTF-8"?>
<svg width="126px" height="24px" viewBox="0 0 126 24" version="1.1" xmlns="http://www.w3.org/2000/svg" xmlns:xlink="http://www.w3.org/1999/xlink">
    <!-- Generator: Sketch 53.2 (72643) - https://sketchapp.com -->
    <title>logo_title_navy</title>
    <desc>Created with Sketch.</desc>
    <defs>
        <polygon id="path-1" points="0 0.176992941 23.9629786 0.176992941 23.9629786 17.6146518 0 17.6146518"></polygon>
        <polygon id="path-3" points="0.588673164 0.351391765 15.9994074 0.351391765 15.9994074 17.7882353 0.588673164 17.7882353"></polygon>
        <polygon id="path-5" points="0.228175439 0.182691765 4.09414035 0.182691765 4.09414035 3.29411765 0.228175439 3.29411765"></polygon>
        <polygon id="path-7" points="0.14728655 0.533921569 4.97687719 0.533921569 4.97687719 4.58211765 0.14728655 4.58211765"></polygon>
    </defs>
    <g id="Page-1" stroke="none" stroke-width="1" fill="none" fill-rule="evenodd">
        <g id="Data_판매데이터" transform="translate(-17.000000, -23.000000)">
            <g id="logo_title_navy" transform="translate(17.000000, 22.714286)">
                <g id="Group-3" transform="translate(0.000000, 6.285714)">
                    <mask id="mask-2" fill="white">
                        <use xlink:href="#path-1"></use>
                    </mask>
                    <g id="Clip-2"></g>
                </g>
                <g id="Group-8" transform="translate(48.000000, 6.285714)">
                    <mask id="mask-4" fill="white">
                        <use xlink:href="#path-3"></use>
                    </mask>
                    <g id="Clip-7"></g>
                </g>
                <g id="Group-13" transform="translate(96.000000, 21.285714)">
                    <mask id="mask-6" fill="white">
                        <use xlink:href="#path-5"></use>
                    </mask>
                    <g id="Clip-12"></g>
                </g>
                <g id="Group-16" transform="translate(122.000000, 0.285714)">
                    <mask id="mask-8" fill="white">
                        <use xlink:href="#path-7"></use>
                    </mask>
                    <g id="Clip-15"></g>
                </g>
                <path d="M126,2.48293672 C126,3.69401594 125.027211,4.67941434 123.831628,4.67941434 C122.635311,4.67941434 121.662521,3.69401594 121.662521,2.48293672 C121.662521,1.27111269 122.635311,0.285714286 123.831628,0.285714286 C125.027211,0.285714286 126,1.27111269 126,2.48293672 Z M97.7360209,20.7679239 C98.6941044,20.7679239 99.4720418,21.5566895 99.4720418,22.5264467 C99.4720418,23.4969487 98.6941044,24.2857143 97.7360209,24.2857143 C96.7786727,24.2857143 96,23.4969487 96,22.5264467 C96,21.5566895 96.7786727,20.7679239 97.7360209,20.7679239 Z" id="Fill-299" fill="#002B49"></path>
                <path d="M125.120463,6.28571429 C125.605802,6.28571429 126,6.6891861 126,7.18594181 L126,23.2072614 C126,23.7040171 125.605802,24.1082474 125.120463,24.1082474 L123.031656,24.1082474 C122.545577,24.1082474 122.151378,23.7040171 122.151378,23.2072614 L122.151378,7.18594181 C122.151378,6.6891861 122.545577,6.28571429 123.031656,6.28571429 L125.120463,6.28571429 Z M63.8113402,6.44346266 C64.2959375,6.44346266 64.690877,6.84693448 64.690877,7.34369019 L64.690877,16.2557151 C64.690877,17.3402352 64.4834041,18.3913855 64.0743861,19.3818633 C63.6794467,20.3382128 63.1140831,21.196728 62.3931149,21.9338983 C61.6728876,22.6710686 60.8333635,23.2504906 59.8997356,23.6554792 C58.9327638,24.0741191 57.9042911,24.2857143 56.8461795,24.2857143 C55.7865859,24.2857143 54.7588542,24.0741191 53.7926234,23.6554792 C52.8575135,23.2504906 52.0179893,22.6710686 51.2977621,21.9338983 C50.5775348,21.196728 50.0114303,20.3382128 49.6164908,19.3818633 C49.2074729,18.3913855 49,17.3402352 49,16.2557151 L49,7.34369019 C49,6.84693448 49.3949394,6.44346266 49.8787958,6.44346266 L51.6215679,6.44346266 C52.1054243,6.44346266 52.4996228,6.84693448 52.4996228,7.34369019 L52.4996228,16.2557151 C52.4996228,18.708399 54.4491268,20.7037643 56.8461795,20.7037643 C59.2410092,20.7037643 61.1905132,18.708399 61.1905132,16.2557151 L61.1905132,7.34369019 C61.1905132,6.84693448 61.5854526,6.44346266 62.07005,6.44346266 L63.8113402,6.44346266 Z" id="Fill-300" fill="#002B49"></path>
                <path d="M42.4640899,9.07429731 C43.2590922,9.89244125 43.8840524,10.8454274 44.3198314,11.9059844 C44.7718049,13.0051759 45,14.1717886 45,15.3747632 L45,23.2084914 C45,23.7046806 44.6083878,24.1084498 44.1269697,24.1084498 L42.3963675,24.1084498 C41.9142134,24.1084498 41.5226011,23.7046806 41.5226011,23.2084914 L41.5226011,15.3747632 C41.5226011,12.4355053 39.1979556,10.0424343 36.3411001,10.0424343 C33.4842447,10.0424343 31.1595992,12.4355053 31.1595992,15.3747632 C31.1595992,18.3155361 33.4842447,20.7078496 36.3411001,20.7078496 C37.4047838,20.7078496 38.4294534,20.3768043 39.3017475,19.7510757 C39.4489702,19.6457776 39.6219568,19.5897196 39.8008323,19.5897196 C40.2822503,19.5897196 40.6745987,19.9934888 40.6745987,20.4889204 L40.6745987,22.5517037 C40.6745987,22.8963847 40.4890982,23.2039462 40.1895001,23.3577269 C38.999205,23.9652746 37.6683123,24.2857143 36.3411001,24.2857143 C35.1721523,24.2857143 34.038538,24.0508767 32.9711738,23.5857467 C31.9391431,23.1372826 31.0131126,22.4941306 30.2173742,21.6759866 C29.422372,20.8578427 28.7988841,19.9048565 28.3623689,18.843542 C27.9103954,17.7443505 27.6814642,16.5784953 27.6814642,15.3747632 C27.6814642,14.1717886 27.9103954,13.0051759 28.3623689,11.9059844 C28.7988841,10.8454274 29.422372,9.89244125 30.2173742,9.07429731 C31.0131126,8.25539582 31.9391431,7.61300132 32.9711738,7.16453724 C34.038538,6.69940725 35.1721523,6.4638121 36.3411001,6.4638121 C37.5100479,6.4638121 38.6443984,6.69940725 39.7117626,7.16453724 C40.7430572,7.61300132 41.6683515,8.25539582 42.4640899,9.07429731 Z M17.3097025,6.28571429 C19.1610272,6.28571429 20.9004628,7.02734662 22.2092721,8.37425396 C23.5188175,9.7211613 24.2387362,11.5119875 24.2387362,13.4172023 L24.2387362,23.2084157 C24.2387362,23.7053624 23.847124,24.108374 23.365706,24.108374 L21.6351038,24.108374 C21.1536857,24.108374 20.7606013,23.7053624 20.7606013,23.2084157 L20.7606013,13.4172023 C20.7606013,11.4582021 19.2125551,9.86433649 17.3097025,9.86433649 C15.4061137,9.86433649 13.8580676,11.4582021 13.8580676,13.4172023 L13.8580676,23.2084157 C13.8580676,23.7053624 13.4664553,24.108374 12.9843012,24.108374 L11.253699,24.108374 C10.773017,24.108374 10.3806687,23.7053624 10.3806687,23.2084157 L10.3806687,13.4172023 C10.3806687,11.4582021 8.83188646,9.86433649 6.92903378,9.86433649 C5.02618109,9.86433649 3.47739887,11.4582021 3.47739887,13.4172023 L3.47739887,23.2084157 C3.47739887,23.7053624 3.08578664,24.108374 2.60363247,24.108374 L0.873766397,24.108374 C0.392348348,24.108374 0,23.7053624 0,23.2084157 L0,13.4172023 C0,11.3703274 0.854627453,9.42117519 2.34599284,8.06896506 C3.62241318,6.90992781 5.2322928,6.28571429 6.92020042,6.28571429 C7.06668695,6.28571429 7.21464571,6.29025953 7.36334058,6.30010756 C9.20730421,6.41904145 10.8959479,7.2690021 12.118632,8.69317859 C13.4340663,7.1629464 15.3258773,6.28571429 17.3097025,6.28571429 Z" id="Fill-301" fill="#002B49"></path>
                <path d="M116.423578,9.07429731 C117.23128,9.89244125 117.865477,10.8454274 118.308965,11.9059844 C118.767412,13.0051759 119,14.1717886 119,15.3747632 L119,23.2084914 C119,23.7046806 118.601384,24.1084498 118.112275,24.1084498 L116.354025,24.1084498 C115.864917,24.1084498 115.4663,23.7046806 115.4663,23.2084914 L115.4663,15.3747632 C115.4663,12.4355053 113.105265,10.0424343 110.20277,10.0424343 C107.299528,10.0424343 104.937745,12.4355053 104.937745,15.3747632 C104.937745,18.3155361 107.299528,20.7078496 110.20277,20.7078496 C111.283447,20.7078496 112.323738,20.3768043 113.209968,19.7510757 C113.36029,19.6457776 113.53604,19.5897196 113.717773,19.5897196 C114.20763,19.5897196 114.604751,19.9934888 114.604751,20.4889204 L114.604751,22.5517037 C114.604751,22.8963847 114.416287,23.2047037 114.11265,23.3577269 C112.904087,23.9652746 111.551185,24.2857143 110.20277,24.2857143 C109.015148,24.2857143 107.862676,24.0508767 106.77826,23.5857467 C105.73049,23.1372826 104.788918,22.4941306 103.981215,21.6759866 C103.173512,20.8578427 102.540064,19.9048565 102.096575,18.843542 C101.637381,17.7443505 101.404793,16.5784953 101.404793,15.3747632 C101.404793,14.1717886 101.637381,13.0051759 102.096575,11.9059844 C102.540064,10.8454274 103.173512,9.89244125 103.981215,9.07429731 C104.788918,8.25539582 105.73049,7.61300132 106.77826,7.16453724 C107.862676,6.69940725 109.015148,6.4638121 110.20277,6.4638121 C111.390393,6.4638121 112.542865,6.69940725 113.627281,7.16453724 C114.674303,7.61300132 115.615127,8.25539582 116.423578,9.07429731 Z M85.5862327,6.28571429 C87.4671332,6.28571429 89.2351049,7.02734662 90.5640751,8.37425396 C91.8945411,9.7211613 92.6259609,11.5119875 92.6259609,13.4172023 L92.6259609,23.2084157 C92.6259609,23.7053624 92.2280925,24.108374 91.7389835,24.108374 L89.9814821,24.108374 C89.4923732,24.108374 89.093009,23.7053624 89.093009,23.2084157 L89.093009,13.4172023 C89.093009,11.4582021 87.5202322,9.86433649 85.5862327,9.86433649 C83.6529811,9.86433649 82.0802042,11.4582021 82.0802042,13.4172023 L82.0802042,23.2084157 C82.0802042,23.7053624 81.681588,24.108374 81.192479,24.108374 L79.4349776,24.108374 C78.9451208,24.108374 78.5472524,23.7053624 78.5472524,23.2084157 L78.5472524,13.4172023 C78.5472524,11.4582021 76.9737277,9.86433649 75.0397282,9.86433649 C73.1064766,9.86433649 71.5329519,11.4582021 71.5329519,13.4172023 L71.5329519,23.2084157 C71.5329519,23.7053624 71.1358313,24.108374 70.6452267,24.108374 L68.8884731,24.108374 C68.3986163,24.108374 68,23.7053624 68,23.2084157 L68,13.4172023 C68,11.3703274 68.8682805,9.42193273 70.3834711,8.06896506 C71.6802828,6.90992781 73.3166289,6.28571429 75.0307537,6.28571429 C75.1803283,6.28571429 75.3299029,6.29025953 75.4809732,6.30010756 C77.354395,6.41904145 79.0700156,7.2690021 80.3129804,8.69317859 C81.6486815,7.1629464 83.5707151,6.28571429 85.5862327,6.28571429 Z" id="Fill-302" fill="#002B49"></path>
            </g>
        </g>
    </g>
</svg>