<svg xmlns="http://www.w3.org/2000/svg" xmlns:xlink="http://www.w3.org/1999/xlink" width="60" height="56" viewBox="0 0 60 56">
    <defs>
        <path id="prefix__a" d="M0 54.569L59.749 54.569 59.749 0 0 0z"/>
    </defs>
    <g fill="none" fill-rule="evenodd" transform="translate(0 1)">
        <path stroke="#344154" stroke-linecap="round" stroke-linejoin="round" stroke-width="1.425" d="M25.733 20.882c-.346 1.143.014 2.4.817 3.288 1.314 1.45 3.75 2 5.424 1.608 3.038-.713 2.49-3.506 4.04-4.896M38.467 21.707c.436 1.066.274 2.348-.41 3.273-.683.926-1.867 1.462-3.019 1.367 0 0-1.191.938-1.312 4.469M31.54 25.854s-1.075 2.456-.386 4.961M41.139 15.553c.45-1.006.523-2.06.25-3.126-.656-2.571-2.65-3.06-3.597-3.988-.834-.819-1.171-2.324-.814-3.434M29.67 19.973c-1.032-1.464-.215-2.74-.814-3.781-.344-.599-1.063-.89-1.472-1.447-1.512-2.06 1.908-4.778.442-6.847"/>
        <path stroke="#344154" stroke-linecap="round" stroke-linejoin="round" stroke-width="1.425" d="M44.133 18.788c-.03 1.019-.544 1.973-1.37 2.578-.824.606-1.907.662-2.973.544-2.402-.37-8.605-3.375-13.771-1.124-.923.403-2.146-.024-2.78-.852-2.69-3.505 1.533-15.159 14.525-14.93 9.68.171 14.601 7.378 12.285 12.265-1.361 2.875-5.018 3.124-6.771.613-.897-1.286-.782-2.288-3.948-2.787-.436-.067-1.056-.18-1.632-.284-1.093-.199-2.03-.923-2.444-1.945-.034-.083-.06-.158-.079-.225-.167-.607-.294-1.28-.772-1.69-.52-.45-1.295-.444-1.906-.763-.642-.338-1.05-1.017-1.215-1.721-.164-.704-.118-1.438-.05-2.158"/>
        <path stroke="#344154" stroke-linecap="round" stroke-width="1.425" d="M39.245 36.227c5.96 6.207 13.61 4.797 13.61 4.797 2.333-.215 3.764-1.777 2.777-4.209-.517-1.17.027-1.918.401-2.586 1.112-1.98-.529-2.42-.541-3.807-.006-.604.492-1.086 1.095-1.149.9-.092 1.674-.48 2.15-.972.407-.42.45-1.072.144-1.567-3.853-6.238-3.31-5.004-4.447-12.786C52.907 3.515 42.657-.928 32.914 1.173 18.18 4.348 13.978 19.063 20.866 30.747"/>
        <path stroke="#344154" stroke-linecap="round" stroke-linejoin="round" stroke-width="1.425" d="M41.074 37.867S37.861 41.28 37.95 48.36"/>
        <mask id="prefix__b" fill="#fff">
            <use xlink:href="#prefix__a"/>
        </mask>
        <path stroke="#344154" stroke-linecap="round" stroke-linejoin="round" stroke-width="1.425" d="M.668 53.905L21.4 53.905 21.4 33.29.668 33.29zM21.401 37.017L27.294 37.017M21.401 43.598L27.294 43.598M21.401 50.178L27.294 50.178M29.289 39c-1.101 0-1.994-.888-1.994-1.983 0-1.095.893-1.982 1.994-1.982 1.1 0 1.994.887 1.994 1.982S30.39 39 29.289 39zM29.289 45.58c-1.101 0-1.994-.887-1.994-1.982s.893-1.983 1.994-1.983c1.1 0 1.994.888 1.994 1.983 0 1.095-.893 1.983-1.994 1.983zM4.416 33.093L4.416 27.231M11.034 33.093L11.034 27.231M6.41 25.248c0 1.095-.893 1.983-1.994 1.983s-1.994-.888-1.994-1.983c0-1.095.893-1.983 1.994-1.983 1.1 0 1.994.888 1.994 1.983zM13.028 25.248c0 1.095-.893 1.983-1.994 1.983-1.102 0-1.994-.888-1.994-1.983 0-1.095.892-1.983 1.994-1.983 1.1 0 1.994.888 1.994 1.983zM29.289 52.161c-1.101 0-1.994-.888-1.994-1.983 0-1.095.893-1.982 1.994-1.982 1.1 0 1.994.887 1.994 1.982s-.893 1.983-1.994 1.983z" mask="url(#prefix__b)"/>
        <path stroke="#344154" stroke-linecap="round" stroke-width="1.425" d="M12.594 37.028H4.428v13.139H17.64V41.79c-2.645 0-4.79-2.132-4.79-4.763h-.257z" mask="url(#prefix__b)"/>
        <path fill="#506DF5" d="M15.29 47.831v-4.1c-2.048-.711-3.675-2.33-4.39-4.367H6.775v8.467h8.515z" mask="url(#prefix__b)"/>
    </g>
</svg>
