<svg xmlns="http://www.w3.org/2000/svg" xmlns:xlink="http://www.w3.org/1999/xlink" width="36" height="38" viewBox="0 0 36 38">
    <defs>
        <path id="prefix__a" d="M0.093 0.162L3.661 0.162 3.661 4.469 0.093 4.469z"/>
        <path id="prefix__c" d="M0 37.715L35.461 37.715 35.461 0 0 0z"/>
    </defs>
    <g fill="none" fill-rule="evenodd">
        <path fill="#5D77FF" d="M27.007 20.284a.45.45 0 01-.45-.45v-3.407a.45.45 0 01.45-.45h1.334c.984 0 1.785.8 1.785 1.784a.45.45 0 01-.9 0 .885.885 0 00-.885-.884h-.884v2.957a.45.45 0 01-.45.45M33.372 31.816h-5.73a.45.45 0 010-.9h5.37c.063-.262.162-.644.302-1.078a26.094 26.094 0 001.239-7.315c.006-.25.222-.457.461-.438a.45.45 0 01.438.46 26.968 26.968 0 01-1.281 7.569c-.24.744-.356 1.333-.357 1.339a.45.45 0 01-.442.363"/>
        <path fill="#5D77FF" d="M24.813 31.816a.45.45 0 01-.443-.372c-.004-.023-.436-2.384-1.965-4.093-.421-.47-.82-1.02-1.187-1.633a9.315 9.315 0 01-1.307-4.784c0-1.12.911-2.032 2.032-2.032.835 0 1.597.523 1.896 1.303l.05.13v-7.452c0-.984.8-1.784 1.784-1.784s1.784.8 1.784 1.784v3.544a.45.45 0 11-.9 0v-3.544a.885.885 0 00-.884-.884.885.885 0 00-.884.884v9.877a.45.45 0 01-.87.16L23 20.529a1.139 1.139 0 00-1.056-.726c-.624 0-1.132.508-1.132 1.132 0 1.538.408 3.033 1.179 4.322a9.755 9.755 0 001.085 1.495c1.706 1.906 2.163 4.431 2.181 4.538a.45.45 0 01-.443.527M32.343 22.438a.45.45 0 01-.45-.45v-3.231a.885.885 0 00-.884-.884h-.884v2.958a.45.45 0 11-.9 0v-3.408a.45.45 0 01.45-.45h1.334c.984 0 1.784.8 1.784 1.784v3.231a.45.45 0 01-.45.45"/>
        <g transform="translate(31.8 18.515)">
            <mask id="prefix__b" fill="#fff">
                <use xlink:href="#prefix__a"/>
            </mask>
            <path fill="#5D77FF" d="M3.211 4.47a.45.45 0 01-.45-.45V1.945a.885.885 0 00-.884-.884H.543a.45.45 0 010-.9h1.334c.984 0 1.784.8 1.784 1.784v2.073a.45.45 0 01-.45.45" mask="url(#prefix__b)"/>
        </g>
        <mask id="prefix__d" fill="#fff">
            <use xlink:href="#prefix__c"/>
        </mask>
        <path fill="#5D77FF" d="M24.215 36.815h9.445V33.61h-9.445v3.206zm9.895.9H23.765a.45.45 0 01-.45-.45V33.16a.45.45 0 01.45-.45H34.11a.45.45 0 01.45.45v4.106a.45.45 0 01-.45.45z" mask="url(#prefix__d)"/>
        <path fill="#5D77FF" d="M31.81 34.869a.344.344 0 10.001.688.344.344 0 000-.688m0 .9a.557.557 0 110-1.114.557.557 0 010 1.114" mask="url(#prefix__d)"/>
        <path fill="#344154" d="M20.897 36.049H2.169A2.172 2.172 0 010 33.879V2.17C0 .973.973 0 2.17 0h25.786c1.196 0 2.17.973 2.17 2.17v11.992a.45.45 0 01-.9 0V2.169c0-.7-.57-1.269-1.27-1.269H2.169C1.47.9.9 1.47.9 2.17v31.71c0 .7.57 1.269 1.27 1.269h18.727a.45.45 0 010 .9" mask="url(#prefix__d)"/>
        <path fill="#344154" d="M11.961 7.206H3.066a.45.45 0 110-.9h8.895a.45.45 0 010 .9M7.615 13.327H3.066a.45.45 0 010-.9h4.549a.45.45 0 010 .9M21.997 13.327h-4.38a.45.45 0 010-.9h4.38a.45.45 0 010 .9M10.66 14.977a1.485 1.485 0 01-1.483-1.483.45.45 0 01.9 0 .584.584 0 001.166 0V12.26a.584.584 0 00-.583-.583.45.45 0 010-.9c.818 0 1.483.665 1.483 1.483v1.234c0 .818-.665 1.483-1.483 1.483M14.604 14.977a1.485 1.485 0 01-1.483-1.483.45.45 0 01.9 0 .584.584 0 001.166 0V12.26a.584.584 0 00-.583-.583.45.45 0 010-.9c.818 0 1.483.665 1.483 1.483v1.234c0 .818-.665 1.483-1.483 1.483M14.88 8.856a1.485 1.485 0 01-1.482-1.483.45.45 0 01.9 0 .584.584 0 001.165 0V6.14a.584.584 0 00-.582-.584.45.45 0 010-.9c.817 0 1.482.666 1.482 1.484v1.234c0 .818-.665 1.483-1.482 1.483M18.825 8.856a1.485 1.485 0 01-1.483-1.483.45.45 0 01.9 0 .584.584 0 001.166 0V6.14a.584.584 0 00-.583-.584.45.45 0 010-.9c.818 0 1.483.666 1.483 1.484v1.234c0 .818-.665 1.483-1.483 1.483M22.77 8.856a1.485 1.485 0 01-1.484-1.483.45.45 0 01.9 0 .584.584 0 001.166 0V6.14a.584.584 0 00-.583-.584.45.45 0 010-.9c.818 0 1.483.666 1.483 1.484v1.234c0 .818-.665 1.483-1.483 1.483M8.044 21.643A1.485 1.485 0 016.56 20.16a.45.45 0 01.9 0 .584.584 0 001.166 0v-1.235a.584.584 0 00-.583-.582.45.45 0 010-.9c.818 0 1.483.665 1.483 1.482v1.235c0 .817-.665 1.483-1.483 1.483M11.988 21.643a1.485 1.485 0 01-1.483-1.483.45.45 0 01.9 0 .584.584 0 001.166 0v-1.235a.584.584 0 00-.583-.582.45.45 0 010-.9c.818 0 1.483.665 1.483 1.482v1.235c0 .817-.665 1.483-1.483 1.483M18.374 19.993h-3.493a.45.45 0 110-.9h3.493a.45.45 0 010 .9M5.34 19.993H3.066a.45.45 0 010-.9H5.34a.45.45 0 010 .9" mask="url(#prefix__d)"/>
    </g>
</svg>
