<svg xmlns="http://www.w3.org/2000/svg" xmlns:xlink="http://www.w3.org/1999/xlink" width="249" height="253" viewBox="0 0 249 253">
    <defs>
        <path id="prefix__a" d="M0 0.049L79.029 0.049 79.029 108.607 0 108.607z"/>
        <path id="prefix__c" d="M0.227 0.543L174.108 0.543 174.108 252.733 0.227 252.733z"/>
        <path id="prefix__e" d="M167.842 1.068L5.246 92.088c-3.076 1.704-5.128 6.1-4.584 9.81l21.34 145.674c.544 3.71 3.48 5.343 6.554 3.637l162.599-91.019c3.075-1.703 5.12-6.097 4.576-9.806L174.39 4.71c-.397-2.713-2.07-4.316-4.142-4.316-.762 0-1.578.216-2.405.674"/>
        <path id="prefix__h" d="M90.532.534c2.032.792 3.552 2.847 3.99 5.843l5.314 40.754c.782 5.333-2.158 11.648-6.578 14.098L9.114 107.87l-2.812-1.136-.72-5.164L.36 48.12 85.112 1.14C87.05.07 88.947-.083 90.532.534z"/>
        <path id="prefix__k" d="M63.428.464l8.03 54.804c-.569.57-1.193 1.056-1.862 1.426l-56 30.984c-3.427 1.9-6.697.08-7.303-4.052L.57 43.039c-.606-4.133 1.681-9.033 5.107-10.932l56-30.983"/>
        <path id="prefix__n" d="M69.46 9.12c.358.14.625.5.702 1.028l.245 1.479c.137.937-.38 2.048-1.157 2.478L3.407 50.631c-.778.43-1.52.018-1.657-.92l-.244-1.479c-.138-.937.381-2.049 1.159-2.48L68.507 9.227c.34-.189.675-.215.953-.106zm1.324 9.047c.357.139.625.5.702 1.028l.244 1.478c.138.937-.38 2.049-1.157 2.479L35.768 42.32c-.778.43-1.52.018-1.657-.92l-.244-1.478c-.138-.938.381-2.05 1.158-2.48l34.806-19.169c.34-.189.674-.215.953-.106zM67.183.18c.34-.189.675-.216.953-.107.358.138.625.5.702 1.028l.245 1.478c.137.937-.38 2.049-1.157 2.479L2.083 41.584c-.778.43-1.52.018-1.656-.92l-.245-1.478c-.138-.937.382-2.05 1.159-2.48L67.183.18z"/>
        <path id="prefix__q" d="M10.637.021c.591.187 1.14.492 1.627.904l-.688 1.466c.645.586 1.158 1.406 1.469 2.433l1.177-.653c.098.36.181.743.24 1.145.058.396.09.806.106 1.213l-1.177.652c.013 1.19-.2 2.413-.59 3.573l.982.547c-.302.843-.686 1.665-1.138 2.431l-.976-.543c-.635 1.028-1.417 1.93-2.301 2.62l.208 1.418c-.315.234-.632.445-.965.628-.333.185-.66.332-.991.455l-.208-1.416c-.938.32-1.846.353-2.665.131l-.683 1.463c-.592-.187-1.134-.495-1.626-.9l.687-1.47c-.645-.586-1.158-1.407-1.469-2.432l-1.177.653c-.097-.36-.181-.743-.24-1.14-.058-.402-.09-.812-.106-1.218l1.178-.653c-.014-1.19.2-2.414.59-3.573l-.982-.54c.307-.853.684-1.672 1.137-2.438l.976.544c.636-1.029 1.417-1.93 2.302-2.615l-.208-1.424c.314-.234.633-.437.966-.622.332-.184.659-.339.989-.461l.209 1.423c.937-.326 1.845-.36 2.664-.139m.668 5.961c-.32-2.185-2.043-3.143-3.85-2.141C4.964 6.304 3.76 8.886 4.08 11.071c.32 2.185 2.044 3.143 3.85 2.142M6.972 6.67c1.182-.655 2.31-.029 2.52 1.401.208 1.424-.58 3.113-1.763 3.768-1.182.656-2.31.028-2.518-1.395"/>
        <path id="prefix__t" d="M22.353 1.168c-2.41 1.296-4.59 3.842-6.174 6.911-1.588 3.078-2.574 8.218-2.572 10.079 0 .531.002.812.003.948l.012.004c.004-.052.008-.084.013.003-.005 0-.009-.002-.013-.003l-.002.03c-.004.074-.007.149-.01-.034-1.33-.408-2.532-.406-4.591.715-2.071 1.127-4.68 3.93-6.298 7.057C1.099 30.01.08 33.674.072 37.125c-.008 3.45.998 6.028 2.62 7.395 1.618 1.363 3.861 1.51 6.328.136l13.464-7.5c4.447-2.479 8.874-4.942 13.274-7.393 2.398-1.336 4.549-3.904 6.089-6.978 1.536-3.068 2.463-6.65 2.432-10-.03-3.347-1.012-5.844-2.58-7.185-1.571-1.342-4.098-1.33-6.112-.233-2.001 1.09-3.176 2.372-4.474 4.2 0 .185-.004.115-.009.047l-.002-.03-.013.018c.004-.09.009-.064.013-.018l.011-.017c.001-.137 0-.415-.003-.938-.01-1.84-1.006-5.865-2.587-7.215C27.667.682 26.637.29 25.49.29c-.973 0-2.03.282-3.137.877"/>
        <path id="prefix__w" d="M32.84.13l7.606 50.626-28.603 16.62c-.211.14-.458.14-.74-.025-.291-.167-.55-.45-.764-.861-.213-.395-.412-.983-.576-1.765L.276 19.65c-.074-.337.006-.597.184-.7H.457"/>
        <path id="prefix__z" d="M36.733.2L.285 21.386C1.478 20.73 6.327 50.66 9.83 62.506l36.453-21.184L37.82 1.155l-.002-.01V1.14l-.002-.007-.002-.01v-.002l-.003-.011v-.004l-.002-.01-.002-.008-.001-.004-.003-.014-.004-.013-.001-.007-.002-.007-.003-.013v-.001l-.005-.015V1.01L37.785 1l-.003-.01V.984l-.005-.016-.001-.003-.004-.011-.003-.01-.002-.007-.005-.016-.006-.016L37.754.9 37.75.89l-.005-.013-.002-.004-.006-.016V.853L37.731.84l-.004-.01-.002-.006-.007-.017V.805L37.711.79l-.004-.008-.003-.008-.006-.016-.002-.002L37.69.74l-.002-.006-.006-.01-.006-.014-.002-.004-.008-.017-.002-.003-.007-.015-.005-.009-.004-.007-.008-.018-.01-.017-.004-.006-.005-.01-.008-.014-.001-.003-.01-.016-.003-.005-.008-.013-.006-.01-.004-.006-.01-.016-.002-.001-.01-.015-.005-.008-.005-.009-.01-.014-.002-.001-.012-.015-.003-.006-.008-.01-.012-.015L37.49.41l-.003-.001-.01-.013-.007-.008-.006-.006-.012-.014-.014-.014-.006-.006-.007-.008-.012-.01-.002-.003-.014-.012-.003-.004-.011-.009-.01-.008L37.37.29l-.015-.012h-.001l-.014-.01L37.33.26l-.007-.005-.014-.01h-.002l-.015-.01-.006-.003-.01-.006c-.085-.049-.18-.078-.286-.078-.08 0-.166.016-.258.052"/>
        <path id="prefix__C" d="M35.96 7.677c-2.495 1.956-2.58 4.372-6.361 8.381-.724.768-.973.97-1.871 1.5L9.29 28.417.6 58.975l-.001.002c-.117.315-.363.787-.535.972l36.45-21.181c.319-.181.49-.677.536-.971l8.69-30.56-.008.004 1.63-5.729c.083-.437-.227-.945-.315-1.037-1.514 1.379-9.596 6.326-11.086 7.202"/>
        <path id="prefix__F" d="M99.45 5.397l7.544 51.862c.62 4.234-1.713 9.247-5.222 11.19l-86.046 47.854c-3.509 1.945-6.858.082-7.478-4.15L.704 60.288c-.62-4.231 1.722-9.25 5.23-11.195L91.98 1.241"/>
        <path id="prefix__I" d="M86.666 1.089L5.165 46.415C1.84 48.257-.378 53.01.21 57.02l7.145 49.126c.587 4.008 3.76 5.773 7.083 3.931L95.942 64.75c3.324-1.842 5.533-6.59 4.946-10.6L93.742 5.026C93.313 2.092 91.506.36 89.265.36c-.823 0-1.706.234-2.6.729"/>
        <path id="prefix__L" d="M14.455 1.231l2.199 5.286c.353.841 1.184 1.065 2.087.519l5.513-3.341c1.979-1.197 3.056 1.363 1.558 3.737L21.659 14c-.67 1.062-.883 2.359-.527 3.219l2.216 5.25c.607 1.453-.417 3.653-1.697 4.426-.4.242-.827.345-1.238.238l-4.763-1.205c-.385-.103-.821-.005-1.246.251-.424.257-.835.672-1.169 1.209l-4.142 6.584c-.355.57-.758.968-1.16 1.21-1.276.773-2.534-.047-2.203-2.054l1.204-7.33c.2-1.196-.19-2.13-.961-2.321L1.203 22.3c-1.723-.428-1.142-3.99.847-5.192l5.526-3.327c.881-.532 1.602-1.692 1.795-2.863l1.192-7.334c.216-1.32.993-2.383 1.813-2.878"/>
        <path id="prefix__O" d="M.122 3.127l.295 7.238 9.095 26.357 9 30.327c1.438.855 5.66-.236 5.475-1.607-2.198-12.853.782-12.181-4.964-31.527-1.934-10.58-1.437-14.803-1.59-21.132-.078-3.25-2.195-7.547-3.74-9.846C8.542 3.119 5.86 1.597 1.065.184.696 1.1.073 1.958.122 3.127"/>
        <path id="prefix__R" d="M1.628 3.47C.658 6.324.965 7.769.792 10.71c-.448 5.138-.481 9.167.86 16.148C4.35 40.896 6.028 54.8 8.755 69.164c1.303.854 5.696-.237 5.725-1.608.26-12.255 1.567-20.788-.213-33.434.701-10.852 2.876-16.028 3.713-22.356.43-3.25-.599-6.323-1.784-8.62-5.18.18-8.59-1.206-13.164-2.618-.512.916-1.026 1.832-1.404 2.943"/>
        <path id="prefix__U" d="M4.184 1.116c-1.314.806-1.752 2.142-1.24 3.369.934 2.243 4.483 6.635 7.443 10.403l-9.133 2.085c-1.834.822-.445 4.71 1.367 5.166l12.75-1.65c3.25-.69 3.96-2.831 3.256-4.5-.014-.035-.03-.069-.048-.102-.22-1.033-6.713-10.371-7.65-11.636-1.302-1.76-2.661-2.892-3.227-3.233C7.209.723 6.646.594 6.088.594c-.692 0-1.376.198-1.904.522"/>
        <path id="prefix__X" d="M19.417.534c-2.53.286-7.242 1.734-11.461 4.044-2.998 1.643-5.882 3.99-6.949 5.453-1.456 4.253 1.25 6.003 1.928 10.977.404 2.961-1.68 6.384-1.365 10.73-.117.324-.183 1.625-.27 1.934 1.62 4.954 14.962 5.49 19.566-1.366l-.1-1.984c.445-4.928-2.69-6.6 2.155-17.411C24.723 8.89 24.77.504 19.929.504c-.165 0-.336.01-.512.03"/>
        <path id="prefix__aa" d="M.289 1.983c.483.751 1.824 2.69 1.83 2.695.02.023.042.045.065.067C1.41 5.29.863 6.292.676 7.075c-.25 1.045 1.342 3.222 2.287 4.708.838 1.32 2.528 1.354 3.053 2.336 1.634-.033 2.56-1.526 3.302-2.77-1.462-2.104-3.14-5.608-4.88-6.675-.906-1.11-2.208-2.849-3.06-3.922C1.24.576 1.084.502.93.502c-.53 0-1.024.885-.641 1.48"/>
        <path id="prefix__ad" d="M.108 2.669c.185.39.363.794.537 1.209.135.32.042 1.18.171 1.512 1.403 3.593 2.79 7.24 4.478 10.015.244.398.518 1.584 1.172 2.476.627.855 3.044 2.511 4.004 3.105 2.108 1.303 6.996 4.638 10.83 6.15 2.815 1.11 4.021.471 5.054-.545 2.404-2.367 2.352-5.557-.034-7.382-1.2-.917-3.538-1.088-5.246-1.79-2.817-1.156-6.172-2.906-9.026-3.697-.351-1.482-4.225-8.178-6.587-11.65-.26-.383-.807-.617-1.017-.912-.258-.366-.47-.658-.623-.854C2.828.389 1.116 1.581.108 2.669"/>
        <path id="prefix__ag" d="M.504 7.942c.222.351 2.732.224 3.756-.212.392 1.842.949 4.072 1.517 6.695l.046.426c2.2.956 8.62-.943 8.205-2.702-.768-1.712-1.297-3.047-1.547-4.44.044-.716.224-1.427.454-1.77.866-1.287 2.6-2.693 3.27-4.67-.226-.607-.794-.881-1.614-.881-2.869 0-8.825 3.351-14.087 7.554"/>
        <path id="prefix__aj" d="M8.876 1.266c-1.124.544-2.115.453-3.081.362C4.247 1.48 2.762 1.334.89 3.804c-1.773 2.338.078 8.623 2.147 11.804 3.913 6.015 7.906 7.707 1.082 15.357-6.484 7.27 1.592 13.917 9.288 15.876 7.896 2.01 11.763-1.87 13.348-3.316 3.075-2.81.49-4.555-.61-6.294-1.328-2.105 2.99-4.061 4.762-7.387 1.953-3.669-.466-10.136-4.76-13.728-3.415-2.856-2.139-7.612-4.488-11.395C19.866 1.834 17.163.018 13.85.018c-1.537 0-3.205.391-4.974 1.248"/>
        <path id="prefix__am" d="M10.865 3.085C7.6 4.603 4.216 6.903 2.181 9.915.88 11.842.51 13.976.622 15.58l1.212 2.47c-.085-1.205.206-2.541.905-3.946.233-.47.513-.946.838-1.426 2.028-3.002 5.347-5.407 8.6-6.918 2.616-1.213 5.586-2.055 8.486-2.114l.294-.003c.99-.003 1.927.087 2.89.306 1.77.402 3.424 1.227 4.387 2.828.074.122.157.24.22.367-1-5.004-4.101-6.702-7.814-6.7-3.122 0-6.675 1.199-9.775 2.641z"/>
        <path id="prefix__ap" d="M2.965 12.907C1.157 15.582.368 18.138.495 20.376L6.13 18.64c-.112-1.605.442-3.448 1.743-5.373 3.682-5.45 11.957-9.481 18.49-9 6.528.478 8.836 5.288 5.154 10.738-1.307 1.934-3.19 3.686-5.38 5.132l2.857 2.369c3.012-2.011 5.615-4.451 7.431-7.14C41.634 7.656 38.365.847 29.131.168c-.5-.037-1.008-.055-1.522-.055-8.972 0-19.718 5.501-24.644 12.794"/>
        <path id="prefix__ar" d="M.494 2.016c.24 4.22 3.72 7.285 9.764 7.728 6.02.443 13.097-1.823 18.736-5.598l-2.857-2.37c-3.958 2.613-8.898 4.18-13.11 3.87C8.8 5.336 6.344 3.216 6.13.28L.494 2.016z"/>
        <path id="prefix__au" d="M2.03 14.402c.265.569.561 1.137.882 1.69l4.454-.574c-.12-.229-.233-.462-.341-.694-2.803-6.014.31-10.433 6.954-9.869 6.645.564 14.303 5.896 17.106 11.91.107.228.197.45.283.664l5.444 1.572c-.202-.589-.443-1.192-.732-1.812C32.113 8.778 21.274 1.231 11.872.434c-.544-.047-1.07-.069-1.579-.069-8.308 0-12.001 6.017-8.264 14.037"/>
        <path id="prefix__ax" d="M.464.793C4.994 8.59 15.012 15.212 23.79 15.957c8.723.739 13.141-4.585 10.574-12.156L28.92 2.23c2.28 5.67-.845 9.748-7.237 9.207C15.29 10.894 7.961 5.94 4.918.218L.464.793z"/>
        <linearGradient id="prefix__f" x1="54.992%" x2="39.743%" y1="65.955%" y2="17.222%">
            <stop offset="0%" stop-color="#955BF2"/>
            <stop offset="100%" stop-color="#FF89DB"/>
        </linearGradient>
        <linearGradient id="prefix__i" x1="54.306%" x2="37.116%" y1="60.459%" y2="24.129%">
            <stop offset="0%" stop-color="#955BF2"/>
            <stop offset="100%" stop-color="#FF89DB"/>
        </linearGradient>
        <linearGradient id="prefix__l" x1="55.374%" x2="39.261%" y1="65.834%" y2="19.98%">
            <stop offset="0%" stop-color="#955BF2"/>
            <stop offset="100%" stop-color="#FF89DB"/>
        </linearGradient>
        <linearGradient id="prefix__o" x1="57.588%" x2="31.153%" y1="54.078%" y2="41.414%">
            <stop offset="0%" stop-color="#6D69FD"/>
            <stop offset="100%" stop-color="#3FAFF6"/>
        </linearGradient>
        <linearGradient id="prefix__r" x1="55.342%" x2="37.092%" y1="58.333%" y2="29.903%">
            <stop offset="0%" stop-color="#6D69FD"/>
            <stop offset="100%" stop-color="#3FAFF6"/>
        </linearGradient>
        <linearGradient id="prefix__u" x1="50.683%" x2="35.369%" y1="56.128%" y2="22.042%">
            <stop offset="0%" stop-color="#6D69FD"/>
            <stop offset="100%" stop-color="#3FAFF6"/>
        </linearGradient>
        <linearGradient id="prefix__x" x1="55.212%" x2="43.536%" y1="71.679%" y2="8.554%">
            <stop offset="0%" stop-color="#955BF2"/>
            <stop offset="100%" stop-color="#FF89DB"/>
        </linearGradient>
        <linearGradient id="prefix__A" x1="43.257%" x2="67.762%" y1="60.962%" y2="21.274%">
            <stop offset="0%" stop-color="#F95DB1"/>
            <stop offset="100%" stop-color="#FDBFBF"/>
        </linearGradient>
        <linearGradient id="prefix__D" x1="24.003%" x2="79.073%" y1="78.68%" y2="26.592%">
            <stop offset="0%" stop-color="#F95DB1"/>
            <stop offset="100%" stop-color="#FDBFBF"/>
        </linearGradient>
        <linearGradient id="prefix__G" x1="55.369%" x2="38.409%" y1="62.398%" y2="23.233%">
            <stop offset="0%" stop-color="#955BF2"/>
            <stop offset="100%" stop-color="#FF89DB"/>
        </linearGradient>
        <linearGradient id="prefix__J" x1="45.824%" x2="54.186%" y1="41.227%" y2="58.796%">
            <stop offset="0%" stop-color="#6D69FD"/>
            <stop offset="100%" stop-color="#3FAFF6"/>
        </linearGradient>
        <linearGradient id="prefix__M" x1="67.364%" x2="36.481%" y1="64.453%" y2="37.071%">
            <stop offset="0%" stop-color="#F95DB1"/>
            <stop offset="100%" stop-color="#FDBFBF"/>
        </linearGradient>
        <linearGradient id="prefix__P" x1="45.907%" x2="57.037%" y1="19.456%" y2="76.974%">
            <stop offset="0%" stop-color="#3D4695"/>
            <stop offset="100%" stop-color="#262F87"/>
        </linearGradient>
        <linearGradient id="prefix__S" x1="47.972%" x2="53.685%" y1="20.098%" y2="76.115%">
            <stop offset="0%" stop-color="#3D4695"/>
            <stop offset="100%" stop-color="#262F87"/>
        </linearGradient>
        <linearGradient id="prefix__V" x1="73.558%" x2="39.666%" y1="82.506%" y2="56.882%">
            <stop offset="0%" stop-color="#955BF2"/>
            <stop offset="100%" stop-color="#FF89DB"/>
        </linearGradient>
        <linearGradient id="prefix__Y" x1="0%" x2="100%" y1="50.001%" y2="50.001%">
            <stop offset="0%" stop-color="#955BF2"/>
            <stop offset="100%" stop-color="#FF89DB"/>
        </linearGradient>
        <linearGradient id="prefix__ab" x1="37.86%" x2="47.18%" y1="68.999%" y2="48.677%">
            <stop offset="0%" stop-color="#FF8977"/>
            <stop offset="100%" stop-color="#FFA799"/>
        </linearGradient>
        <linearGradient id="prefix__ae" x1="77.608%" x2="9.632%" y1="86.162%" y2="14.736%">
            <stop offset="0%" stop-color="#955BF2"/>
            <stop offset="100%" stop-color="#FF89DB"/>
        </linearGradient>
        <linearGradient id="prefix__ah" x1="49.529%" x2="38.92%" y1="46.795%" y2="76.28%">
            <stop offset="0%" stop-color="#FF8977"/>
            <stop offset="100%" stop-color="#FFA799"/>
        </linearGradient>
        <linearGradient id="prefix__ak" x1="39.802%" x2="54.523%" y1="13.2%" y2="81.919%">
            <stop offset="0%" stop-color="#592D67"/>
            <stop offset="100%" stop-color="#21043D"/>
        </linearGradient>
        <linearGradient id="prefix__an" x1="40.608%" x2="49.683%" y1="41.546%" y2="53.331%">
            <stop offset="0%" stop-color="#3864AF"/>
            <stop offset="100%" stop-color="#00BCCD"/>
        </linearGradient>
        <linearGradient id="prefix__as" x1="38.541%" x2="64.673%" y1="53.455%" y2="40.342%">
            <stop offset="0%" stop-color="#6D69FD"/>
            <stop offset="100%" stop-color="#3FAFF6"/>
        </linearGradient>
        <linearGradient id="prefix__av" x1="60.352%" x2="42.027%" y1="44.284%" y2="61.976%">
            <stop offset="0%" stop-color="#F95DB1"/>
            <stop offset="100%" stop-color="#FDBFBF"/>
        </linearGradient>
        <linearGradient id="prefix__ay" x1="60.195%" x2="47.254%" y1="60.667%" y2="39.479%">
            <stop offset="0%" stop-color="#955BF2"/>
            <stop offset="100%" stop-color="#FF89DB"/>
        </linearGradient>
    </defs>
    <g fill="none" fill-rule="evenodd">
        <g>
            <g transform="rotate(4 109.182 100.864) translate(0 .069) translate(0 38.556)">
                <mask id="prefix__b" fill="#fff">
                    <use xlink:href="#prefix__a"/>
                </mask>
                <path fill="#FFF" d="M8.808 106.739l.133.122c.955.858 2.075 1.424 3.339 1.66l.305-1.7c-.943-.19-1.69-.558-2.42-1.184l-.17-.153-1.187 1.255zm-.914-5.336l-1.69.356c.255 1.235.699 2.423 1.378 3.489l1.452-.938c-.548-.804-.944-1.96-1.14-2.907zm-.69-5.07l.446 3.428-1.714.223-.447-3.427 1.714-.223zm-.67-5.14l.446 3.427-1.714.223-.446-3.427 1.714-.223zm-.67-5.141l.446 3.428-1.713.223-.447-3.428 1.713-.223zm-.67-5.14l.446 3.426-1.714.224-.446-3.427 1.713-.223zm-.67-5.141l.446 3.427-1.714.224-.446-3.427 1.713-.224zm-.671-5.14l.447 3.427-1.714.223-.447-3.427 1.714-.224zm-.67-5.141l.447 3.427-1.714.223-.446-3.427 1.713-.223zm-.67-5.14l.446 3.426L1.246 64 .8 60.572l1.714-.223zm-.673-5.148l-1.712.235c.112 1.125.3 2.295.448 3.422l1.713-.224c-.148-1.133-.336-2.3-.449-3.433zm.234-4.853l-1.69-.363C.134 51.174-.01 52.388 0 53.604l1.729-.014c-.013-1.09.122-2.175.345-3.24zm1.73-4.6l-1.513-.835c-.582 1.056-1.068 2.174-1.436 3.322l1.646.527c.343-1.051.768-2.046 1.302-3.014zm3.003-3.836l-1.155-1.285c-.912.816-1.705 1.74-2.404 2.744l1.42.984c.632-.897 1.32-1.71 2.14-2.443zm4.21-2.653c-.919.509-2.04 1.052-2.941 1.669l-.965-1.435c.954-.644 2.091-1.204 3.068-1.745l.838 1.51zm4.534-2.513l-3.023 1.675-.838-1.511 3.023-1.675.838 1.51zm4.534-2.514l-3.023 1.677-.838-1.512 3.023-1.675.838 1.51zm4.534-2.513l-3.023 1.675-.838-1.51 3.023-1.676.838 1.511zm4.533-2.513l-3.022 1.676-.838-1.511 3.023-1.675.837 1.51zm4.534-2.513l-3.023 1.675-.837-1.51 3.022-1.676.838 1.511zm4.534-2.513l-3.022 1.676-.838-1.512 3.023-1.675.837 1.511zm4.535-2.513l-3.024 1.675-.837-1.51 3.023-1.676.838 1.51zm4.534-2.513l-3.023 1.676-.838-1.512 3.023-1.676.838 1.512zm4.534-2.514l-3.022 1.676-.838-1.511 3.023-1.676.837 1.511zm4.535-2.513l-3.023 1.676-.838-1.511 3.023-1.676.838 1.51zm4.534-2.514l-3.023 1.676-.838-1.512 3.023-1.675.838 1.511zm4.534-2.513l-3.022 1.676-.838-1.512 3.022-1.676.838 1.512zm4.535-2.514l-3.023 1.675-.838-1.51 3.023-1.676.838 1.511zm4.535-2.514L71.472 5.75l-.838-1.511 3.023-1.676.839 1.511zm4.533-2.513l-3.022 1.676-.838-1.512L78.192.05l.837 1.51zM14.072 106.886l.163 1.72c1.283-.116 2.477-.541 3.602-1.16l-.838-1.51c-.905.502-1.893.856-2.927.95z" mask="url(#prefix__b)"/>
            </g>
            <path fill="#FFF" d="M216.345 44.731l-.837-1.511 3.022-1.675.838 1.51-3.023 1.676zm7.557-4.189l-3.023 1.677-.838-1.512 3.023-1.675.838 1.51zm4.535-2.513l-3.024 1.675-.837-1.51 3.022-1.676.839 1.51zm4.447-2.24l-.48-1.66c-.663.166-1.46.537-2.06.867l-1.234.684.838 1.512 1.233-.685c.483-.27 1.167-.584 1.703-.718zm4.332.445l.876-1.489c-.314-.185-.638-.343-.978-.476-.895-.344-1.849-.5-2.807-.456l.075 1.726c.728-.023 1.426.073 2.105.34.253.1.494.217.729.355zm2.716 3.565l1.631-.57c-.427-1.22-1.047-2.32-1.938-3.262l-1.248 1.195c.713.766 1.178 1.59 1.533 2.574l.022.063zm.852 4.924c-.143-1.097-.223-2.3-.453-3.382l1.7-.31c.213 1.139.318 2.324.467 3.468l-1.714.224zm.67 5.141l-.446-3.428 1.713-.223.446 3.427-1.713.224zm.67 5.14l-.447-3.426 1.714-.224.447 3.427-1.714.223zm.67 5.141l-.447-3.427 1.714-.223.447 3.426-1.714.224zm.67 5.14l-.446-3.427 1.713-.223.447 3.427-1.714.223zm.67 5.141L243.688 67l1.713-.224.447 3.427-1.714.223zm.67 5.141l-.446-3.427 1.713-.224.447 3.428-1.713.223zm.67 5.14l-.446-3.426 1.714-.224.446 3.427-1.713.223zm.671 5.142l-.447-3.428 1.714-.223.446 3.427-1.713.224zm.176 4.943l1.715.213c.151-1.202.185-2.447.047-3.651l-1.717.194c.126 1.058.088 2.187-.045 3.244zm-1.352 4.716l1.574.712c.503-1.119.883-2.235 1.169-3.427l-1.683-.39c-.255 1.074-.608 2.098-1.06 3.105zm-2.667 4.102l1.277 1.163c.822-.913 1.525-1.878 2.139-2.943l-1.5-.859c-.587.979-1.15 1.788-1.916 2.639zm-3.919 2.897c1.074-.595 1.834-.992 2.756-1.771l1.122 1.313c-1.015.86-1.865 1.319-3.04 1.97l-.838-1.512zm-4.533 2.514l3.022-1.677.838 1.512-3.022 1.676-.838-1.511zm-4.535 2.513l3.024-1.675.837 1.51-3.023 1.676-.838-1.51zm-4.534 2.514l3.023-1.676.838 1.511-3.023 1.676-.838-1.51zm-9.947-64.48l-3.022 1.676-.839-1.51 3.023-1.676.838 1.51zM123.366 16.685l-.838-1.512 3.022-1.675.838 1.511-3.022 1.676zm7.557-4.189l-3.024 1.676-.837-1.511 3.023-1.675.838 1.51zm4.534-2.513l-3.023 1.675-.838-1.51 3.023-1.677.838 1.512zm4.448-2.24l-.481-1.66c-.663.166-1.46.537-2.06.867l-1.234.684.838 1.51 1.234-.683c.483-.27 1.166-.584 1.703-.718zm4.331.445l.876-1.489c-.314-.185-.637-.343-.978-.476-.895-.345-1.848-.5-2.807-.456l.075 1.726c.728-.023 1.426.073 2.105.34.253.1.494.217.729.355zm2.717 3.565l1.631-.57c-.427-1.22-1.047-2.321-1.94-3.262l-1.247 1.194c.713.767 1.178 1.59 1.533 2.574l.023.064zm.852 4.924c-.144-1.098-.223-2.3-.453-3.382l1.7-.31c.212 1.138.317 2.324.466 3.468l-1.713.224zm.67 5.14l-.447-3.427 1.714-.223.446 3.427-1.713.223zm.628 4.82l1.713-.224-.405-3.105-1.713.224.405 3.105zm-27.248-9.114l-3.023 1.675-.838-1.511 3.023-1.676.838 1.512z" transform="rotate(4 109.182 100.864) translate(0 .069)"/>
            <path fill="#59CAAF" d="M39.772 246.685l161.761-90.87c2.454-1.119 6.058-2.17 8.463-.702l6.156 3.759c1.237.755 5.31 3.266 2.586 4.742-8.012 4.347-154.88 87.404-163.016 91.82-1.539.834-3.79 1.133-6.153.934-2.353-.198-4.796-.838-6.665-1.993l-2.459-1.52c-1.738-1.074-2.7-2.247-2.793-3.37-.09-1.098.615-2.114 2.12-2.8" transform="rotate(4 109.182 100.864) translate(0 .069)"/>
            <g transform="rotate(4 109.182 100.864) translate(0 .069) translate(20.196)">
                <mask id="prefix__d" fill="#fff">
                    <use xlink:href="#prefix__c"/>
                </mask>
                <path fill="#303A7D" d="M167.498 1.214c1.154-.655 2.507-.899 3.773-.42l2.832 1.106C175.13 7.22 28.272 251.379 26.958 252.733l-2.527-.954c-1.66-.654-2.531-2.382-2.775-4.061L.316 102.045l-.003-.012c-.347-2.453.389-5.004 1.736-7.05.725-1.104 1.679-2.114 2.85-2.75L167.5 1.214z" mask="url(#prefix__d)"/>
            </g>
        </g>
        <g transform="rotate(4 109.182 100.864) translate(22.644 1.293)">
            <mask id="prefix__g" fill="#fff">
                <use xlink:href="#prefix__e"/>
            </mask>
            <path fill="url(#prefix__f)" d="M167.842 1.068L5.246 92.088c-3.076 1.704-5.128 6.1-4.584 9.81l21.34 145.674c.544 3.71 3.48 5.343 6.554 3.637l162.599-91.019c3.075-1.703 5.12-6.097 4.576-9.806L174.39 4.71c-.397-2.713-2.07-4.316-4.142-4.316-.762 0-1.578.216-2.405.674" mask="url(#prefix__g)"/>
        </g>
        <g>
            <path fill="#3E4992" d="M14.426 92.7L177.022 1.68c3.076-1.704 6.004-.068 6.548 3.642l.72 4.912L10.568 107.48l-.728-4.97c-.543-3.708 1.51-8.105 4.585-9.81" transform="rotate(4 109.182 100.864) translate(13.464 .68)"/>
            <path fill="#303A7D" d="M178.033 5.306c-1.233.283-2.18 1.75-2.115 3.28.064 1.528 1.117 2.54 2.35 2.258 1.233-.282 2.18-1.751 2.115-3.28-.064-1.53-1.117-2.54-2.35-2.258M172.418 8.531c-1.233.282-2.18 1.75-2.115 3.28.064 1.528 1.116 2.54 2.35 2.258 1.233-.283 2.18-1.751 2.115-3.28-.065-1.53-1.117-2.54-2.35-2.258M166.342 12.074c-1.233.282-2.18 1.75-2.116 3.279.065 1.529 1.117 2.54 2.351 2.258 1.233-.282 2.18-1.75 2.115-3.28-.065-1.53-1.117-2.54-2.35-2.257" transform="rotate(4 109.182 100.864) translate(13.464 .68)"/>
            <g transform="rotate(4 109.182 100.864) translate(13.464 .68) translate(11.016 64.872)">
                <mask id="prefix__j" fill="#fff">
                    <use xlink:href="#prefix__h"/>
                </mask>
                <path fill="url(#prefix__i)" d="M.36 48.12L85.112 1.142C87.05.07 88.947-.083 90.532.534c2.032.792 3.552 2.847 3.99 5.843l5.314 40.754c.782 5.333-2.158 11.648-6.578 14.098L9.114 107.87l-2.812-1.136-.72-5.164L.36 48.12z" mask="url(#prefix__j)"/>
            </g>
            <path fill="#303A7D" d="M5.718 127.111l6.305 42.845-.757.092-2.065-.802c-2.264-.892-3.452-3.249-3.784-5.54L.374 125.024l-.003-.022c-.474-3.342.53-6.822 2.368-9.614.99-1.505 2.291-2.884 3.89-3.75l82.752-45.87c1.574-.894 3.419-1.227 5.147-.575l1.82.71c.916.345 1.2.62 1.193.678-.859 8.008-93.028 52.316-91.823 60.53" transform="rotate(4 109.182 100.864) translate(13.464 .68)"/>
            <path fill="#298CD6" d="M8.711 112.457l82.751-45.87c1.84-1.02 3.64-1.163 5.144-.578 1.929.752 3.372 2.702 3.788 5.546l5.043 38.682c.742 5.063-2.048 11.056-6.243 13.381l-82.752 45.87c-4.197 2.325-8.201.099-8.942-4.962l-5.043-38.684c-.742-5.06 2.059-11.06 6.254-13.385" transform="rotate(4 109.182 100.864) translate(13.464 .68)"/>
            <path fill="#0FF" d="M7.172 128.586l47.135-25.932c.44-.243.87-.277 1.23-.137.46.18.805.646.905 1.325l.315 1.908c.178 1.209-.49 2.643-1.492 3.198L8.13 134.879c-1.004.555-1.96.024-2.138-1.186l-.315-1.907c-.178-1.21.492-2.644 1.495-3.2M8.88 140.256l47.134-25.932c.44-.243.871-.277 1.23-.137.461.179.807.646.906 1.326l.316 1.907c.176 1.21-.49 2.642-1.493 3.198L9.837 146.55c-1.003.556-1.96.024-2.137-1.186l-.316-1.907c-.177-1.21.492-2.644 1.495-3.2M38.975 135.974l18.747-9.98c.44-.243.871-.277 1.23-.137.461.18.806.646.906 1.327l.315 1.906c.177 1.21-.49 2.643-1.492 3.198l-18.748 9.98c-1.004.555-1.96.023-2.138-1.187l-.315-1.907c-.178-1.21.492-2.644 1.495-3.2" transform="rotate(4 109.182 100.864) translate(13.464 .68)"/>
            <path fill="#FFF" d="M99.076 90.692c1.454 13.053-5.783 28.998-16.187 35.59-10.403 6.592-20.376-1.898-21.47-11.724-1.096-9.826.744-13.912 3.718-20.393 1.81 1 3.621 1.999 5.43 2.977-1.93 4.165-3.12 6.83-2.417 13.147.704 6.315 7.117 11.767 13.797 7.531 6.679-4.235 11.33-14.48 10.396-22.86 2.221-1.417 4.484-2.842 6.733-4.268" transform="rotate(4 109.182 100.864) translate(13.464 .68)"/>
            <path fill="#FFF" d="M91.684 77.467c3.888 2.107 6.664 6.69 7.392 13.225-2.249 1.425-4.512 2.851-6.733 4.268-.466-4.19-2.24-7.146-4.742-8.501 1.367-2.99 2.733-5.982 4.083-8.992" transform="rotate(4 109.182 100.864) translate(13.464 .68)"/>
            <path fill="#FFF" d="M77.604 78.962c5.206-3.295 10.203-3.624 14.077-1.515-1.35 3.01-2.713 6.021-4.08 9.012-2.501-1.355-5.713-1.15-9.04.964-3.326 2.114-6.186 5.739-8.063 9.87-1.808-.979-3.617-1.958-5.427-2.957 2.922-6.446 7.328-12.079 12.533-15.374" transform="rotate(4 109.182 100.864) translate(13.464 .68)"/>
            <g transform="rotate(4 109.182 100.864) translate(13.464 .68) translate(123.012 24.48)">
                <mask id="prefix__m" fill="#fff">
                    <use xlink:href="#prefix__k"/>
                </mask>
                <path fill="url(#prefix__l)" d="M5.676 32.107l56-30.983c.593-.33 1.182-.547 1.752-.66l8.03 54.804c-.569.57-1.193 1.056-1.862 1.426l-56 30.984c-3.427 1.9-6.697.08-7.303-4.052L.57 43.039c-.606-4.133 1.681-9.033 5.107-10.932" mask="url(#prefix__m)"/>
            </g>
            <path fill="#273087" d="M130.472 63.642l6.411 41.748-.586.072-1.6-.623c-1.756-.69-2.676-2.518-2.934-4.294l-5.434-38.521-.003-.017c-.367-2.591.412-5.289 1.836-7.453.767-1.167 1.776-2.236 3.016-2.907l64.148-35.558c1.22-.692 2.65-.95 3.99-.445l1.41.551c.71.267.93.48.926.524-.666 6.208-72.114 40.556-71.18 46.923" transform="rotate(4 109.182 100.864) translate(13.464 .68)"/>
            <path fill="#FFF" d="M132.792 52.282l64.147-35.558c1.426-.79 2.821-.901 3.988-.447 1.495.582 2.613 2.095 2.936 4.299l5.433 38.522c.576 3.924-1.587 8.57-4.84 10.372l-64.147 35.558c-3.253 1.802-6.357.076-6.931-3.847l-5.434-38.523c-.576-3.923 1.596-8.573 4.848-10.376" transform="rotate(4 109.182 100.864) translate(13.464 .68)"/>
            <g transform="rotate(4 109.182 100.864) translate(13.464 .68) translate(134.64 39.168)">
                <mask id="prefix__p" fill="#fff">
                    <use xlink:href="#prefix__n"/>
                </mask>
                <path fill="url(#prefix__o)" d="M68.507 9.227c.34-.189.675-.215.953-.106.358.139.625.5.702 1.027l.245 1.479c.137.937-.38 2.048-1.157 2.478L3.407 50.631c-.778.43-1.52.018-1.657-.92l-.244-1.479c-.138-.937.381-2.049 1.159-2.48L68.507 9.227zM35.025 37.442l34.806-19.169c.34-.189.674-.215.953-.106.357.139.625.5.702 1.028l.244 1.478c.138.937-.38 2.049-1.157 2.479L35.768 42.32c-.778.43-1.52.018-1.657-.92l-.244-1.478c-.138-.938.381-2.05 1.158-2.48zm-33.684-.737c-.777.431-1.297 1.544-1.16 2.48l.246 1.48c.137.937.878 1.35 1.656.92L67.926 5.058c.777-.43 1.294-1.542 1.157-2.48l-.245-1.477c-.077-.527-.344-.89-.702-1.028-.278-.109-.612-.082-.953.107L1.34 36.705z" mask="url(#prefix__p)"/>
            </g>
            <g transform="rotate(4 109.182 100.864) translate(13.464 .68) translate(160.344 36.72)">
                <mask id="prefix__s" fill="#fff">
                    <use xlink:href="#prefix__q"/>
                </mask>
                <path fill="url(#prefix__r)" d="M1.9 7.755l-.981-.54c.307-.853.684-1.672 1.137-2.438l.976.544c.636-1.029 1.417-1.93 2.302-2.615l-.208-1.424c.314-.234.633-.437.966-.622.332-.184.659-.339.989-.461l.209 1.423c.937-.326 1.845-.36 2.664-.139l.683-1.462c.591.187 1.14.492 1.627.904l-.688 1.466c.645.586 1.158 1.406 1.469 2.433l1.177-.653c.098.36.181.743.24 1.145.058.396.09.806.106 1.213l-1.177.652c.013 1.19-.2 2.413-.59 3.573l.982.547c-.302.843-.686 1.665-1.138 2.431l-.976-.543c-.635 1.028-1.417 1.93-2.301 2.62l.208 1.418c-.315.234-.632.445-.965.628-.333.185-.66.332-.991.455l-.208-1.416c-.938.32-1.846.353-2.665.131l-.683 1.463c-.592-.187-1.134-.495-1.626-.9l.687-1.47c-.645-.586-1.158-1.407-1.469-2.432l-1.177.653c-.097-.36-.181-.743-.24-1.14-.058-.402-.09-.812-.106-1.218l1.178-.653c-.014-1.19.2-2.414.59-3.573m2.179 3.316c-.32-2.185.885-4.767 2.691-5.768 1.808-1.002 3.531-.044 3.851 2.141.32 2.185-.884 4.767-2.692 5.77-1.806 1-3.53.042-3.85-2.143m2.892-4.4c-1.182.655-1.97 2.343-1.76 3.773.207 1.423 1.335 2.05 2.517 1.395 1.183-.655 1.97-2.344 1.763-3.768-.21-1.43-1.338-2.056-2.52-1.4" mask="url(#prefix__s)"/>
            </g>
            <path fill="#6D6AFD" d="M98.13 5.559c-2.014 1.096-3.192 2.388-4.498 4.234.016-.324.03.866.02-.973-.01-1.84 1.045-4.8-.394-6.302-.57-.594-3.346-1.703-4.014-1.88-1.28-.34-2.764-.131-4.348.721-2.41 1.296-4.591 3.843-6.176 6.913-1.587 3.076-2.573 8.216-2.57 10.077.002 1.86.01.643.027.956-1.341-.415-2.544-.42-4.616.707-2.07 1.128-4.68 3.932-6.298 7.057-1.622 3.133-2.641 6.812-2.649 10.248-.006 2.68.606 4.817 1.647 6.3 1.048 1.496 3.075 2.392 4.512 2.881 4.12 1.467 12.062-6.815 16.253-9.15 4.447-2.479 8.874-4.943 13.274-7.393 2.398-1.336 4.548-3.905 6.089-6.979 1.537-3.068 2.464-6.65 2.432-9.998-.018-1.957 1.412-4.88-.439-6.3-2.876-2.21-5.95-2.374-8.253-1.12" transform="rotate(4 109.182 100.864) translate(13.464 .68)"/>
        </g>
        <g transform="rotate(4 109.182 100.864) translate(78.336 1.905)">
            <mask id="prefix__v" fill="#fff">
                <use xlink:href="#prefix__t"/>
            </mask>
            <path fill="url(#prefix__u)" d="M22.353 1.168c-2.41 1.296-4.59 3.842-6.174 6.911-1.588 3.078-2.574 8.218-2.572 10.079 0 .531.002.812.003.948l.012.004c.004-.052.008-.084.013.003-.005 0-.009-.002-.013-.003l-.002.03c-.004.074-.007.149-.01-.034-1.33-.408-2.532-.406-4.591.715-2.071 1.127-4.68 3.93-6.298 7.057C1.099 30.01.08 33.674.072 37.125c-.008 3.45.998 6.028 2.62 7.395 1.618 1.363 3.861 1.51 6.328.136l13.464-7.5c4.447-2.479 8.874-4.942 13.274-7.393 2.398-1.336 4.549-3.904 6.089-6.978 1.536-3.068 2.463-6.65 2.432-10-.03-3.347-1.012-5.844-2.58-7.185-1.571-1.342-4.098-1.33-6.112-.233-2.001 1.09-3.176 2.372-4.474 4.2 0 .185-.004.115-.009.047l-.002-.03-.013.018c.004-.09.009-.064.013-.018l.011-.017c.001-.137 0-.415-.003-.938-.01-1.84-1.006-5.865-2.587-7.215C27.667.682 26.637.29 25.49.29c-.973 0-2.03.282-3.137.877" mask="url(#prefix__v)"/>
        </g>
        <g>
            <path fill="#FFF" d="M18.697 10.899L22.825 8.553 16.333 19.739 9.8 15.959 13.926 13.612 13.914 3.025 18.685 0.312z" transform="rotate(4 109.182 100.864) translate(90.576 12.92)"/>
            <path fill="#FFF" d="M4.393 15.359L0.265 17.705 6.757 6.518 13.291 10.299 9.164 12.646 9.176 23.233 4.405 25.946z" transform="rotate(4 109.182 100.864) translate(90.576 12.92)"/>
            <g transform="rotate(4 109.182 100.864) translate(90.576 12.92) translate(85.68 76.5)">
                <mask id="prefix__y" fill="#fff">
                    <use xlink:href="#prefix__w"/>
                </mask>
                <path fill="url(#prefix__x)" d="M11.843 67.377l28.603-16.621L32.841.13.457 18.95H.46c-.178.103-.258.363-.184.7l9.487 45.075c.164.782.363 1.37.576 1.765.213.411.473.694.764.86.282.165.529.165.74.027" mask="url(#prefix__y)"/>
            </g>
        </g>
        <g transform="rotate(4 109.182 100.864) translate(180.54 86.36)">
            <mask id="prefix__B" fill="#fff">
                <use xlink:href="#prefix__z"/>
            </mask>
            <path fill="url(#prefix__A)" d="M36.733.2L.285 21.386C1.478 20.73 6.327 50.66 9.83 62.506l36.453-21.184L37.82 1.155l-.002-.01V1.14l-.002-.007-.002-.01v-.002l-.003-.011v-.004l-.002-.01-.002-.008-.001-.004-.003-.014-.004-.013-.001-.007-.002-.007-.003-.013v-.001l-.005-.015V1.01L37.785 1l-.003-.01V.984l-.005-.016-.001-.003-.004-.011-.003-.01-.002-.007-.005-.016-.006-.016L37.754.9 37.75.89l-.005-.013-.002-.004-.006-.016V.853L37.731.84l-.004-.01-.002-.006-.007-.017V.805L37.711.79l-.004-.008-.003-.008-.006-.016-.002-.002L37.69.74l-.002-.006-.006-.01-.006-.014-.002-.004-.008-.017-.002-.003-.007-.015-.005-.009-.004-.007-.008-.018-.01-.017-.004-.006-.005-.01-.008-.014-.001-.003-.01-.016-.003-.005-.008-.013-.006-.01-.004-.006-.01-.016-.002-.001-.01-.015-.005-.008-.005-.009-.01-.014-.002-.001-.012-.015-.003-.006-.008-.01-.012-.015L37.49.41l-.003-.001-.01-.013-.007-.008-.006-.006-.012-.014-.014-.014-.006-.006-.007-.008-.012-.01-.002-.003-.014-.012-.003-.004-.011-.009-.01-.008L37.37.29l-.015-.012h-.001l-.014-.01L37.33.26l-.007-.005-.014-.01h-.002l-.015-.01-.006-.003-.01-.006c-.085-.049-.18-.078-.286-.078-.08 0-.166.016-.258.052" mask="url(#prefix__B)"/>
        </g>
        <g>
            <path fill="#59CAAF" d="M32.313 6.052C17.003 23.596-1.258 34.43.527 49.657l3.797 17.745 36.452-21.184-8.463-40.166z" transform="rotate(4 109.182 100.864) translate(186.048 81.465)"/>
            <path fill="#F2F4FF" d="M4.83 22.585L5.653 63.322 43.884 41.252 43.77 0.868z" transform="rotate(4 109.182 100.864) translate(186.048 81.465)"/>
            <path fill="#C5DBF1" d="M5.539 22.94L4.741 22.475 4.854 62.86 5.654 63.322z" transform="rotate(4 109.182 100.864) translate(186.048 81.465)"/>
            <path fill="#DCE8F8" d="M43.771 0.868L42.968 0.402 4.74 22.475 5.539 22.939z" transform="rotate(4 109.182 100.864) translate(186.048 81.465)"/>
            <path fill="#C5DBF1" d="M6.993 52.948l35.385-20.43-.007-2.545-35.386 20.43.008 2.545zm-.02-6.73l.009 2.546 35.385-20.43-.008-2.545-35.385 20.43zm-.01-4.184l.007 2.546 35.386-20.43-.008-2.546-35.386 20.43zm-.012-4.182l.008 2.546L42.344 19.97l-.008-2.546L6.951 37.852zm-.011-4.184l.007 2.545L42.33 15.785l-.004-2.546L6.94 33.669zm-.012-4.184l.008 2.546L42.317 11.6l-.007-2.545L6.928 29.484zm-.011-4.181l35.381-20.43.008 2.546L6.92 27.85l-.003-2.546zm.08 29.28l35.385-20.428.008 2.546L7.004 57.13l-.008-2.547z" transform="rotate(4 109.182 100.864) translate(186.048 81.465)"/>
        </g>
        <g transform="rotate(4 109.182 100.864) translate(190.944 91.257)">
            <mask id="prefix__E" fill="#fff">
                <use xlink:href="#prefix__C"/>
            </mask>
            <path fill="url(#prefix__D)" d="M35.96 7.677c-2.495 1.956-2.58 4.372-6.361 8.381-.724.768-.973.97-1.871 1.5L9.29 28.417.6 58.975l-.001.002c-.117.315-.363.787-.535.972l36.45-21.181c.319-.181.49-.677.536-.971l8.69-30.56-.008.004 1.63-5.729c.083-.437-.227-.945-.315-1.037-1.514 1.379-9.596 6.326-11.086 7.202" mask="url(#prefix__E)"/>
        </g>
        <g>
            <path fill="#59CAAF" d="M128.18 27.24c-.06-.054-.121-.098-.179-.131-.284-.163-.54-.093-.625.189l-8.609 30.312-8.461-40.167c-.075-.375-.335-.743-.618-.905-.059-.034-.119-.06-.175-.075-.35-.094-.553.204-.456.654l8.51 40.435c.148.701.326 1.228.517 1.583.192.37.425.623.686.773.259.15.483.147.675.016.191-.145.357-.461.494-.945l8.69-30.562c.094-.341-.108-.871-.449-1.177" transform="rotate(4 109.182 100.864) translate(71.604 91.257)"/>
            <path fill="#59CAAF" d="M145.93 16.38l-18.386 10.685c.478-.234 1.212.84 1.086 1.352l18.57-10.79c.618-.36 1.003-.571 1.547-1.002 2.64-2.084 3.885-4.94 5.61-7.25.491-.659.985-1.121 1.479-1.498.458-.25.7-.382.619-.342l10.248-6.032c.077-.435-.229-.935-.316-1.028-.194-.206-.497-.46-.773-.316l-10.266 6.043c.081-.04-.161.093-.62.342-.493.377-.987.84-1.477 1.497-1.825 2.445-3.13 5.193-6.091 7.525-.422.333-.77.547-1.23.814" transform="rotate(4 109.182 100.864) translate(71.604 91.257)"/>
            <g transform="rotate(4 109.182 100.864) translate(71.604 91.257) translate(0 19.584)">
                <mask id="prefix__H" fill="#fff">
                    <use xlink:href="#prefix__F"/>
                </mask>
                <path fill="url(#prefix__G)" d="M5.935 49.093L91.979 1.241c3.51-1.944 6.85-.078 7.47 4.156l7.545 51.862c.62 4.234-1.713 9.247-5.222 11.19l-86.046 47.854c-3.509 1.945-6.858.082-7.478-4.15L.704 60.288c-.62-4.231 1.722-9.25 5.23-11.195" mask="url(#prefix__H)"/>
            </g>
            <path fill="#303A7D" d="M90.38 18.284c1.248-.708 2.71-.971 4.078-.455l3.06 1.196c1.112 5.751-79.301 108.271-80.72 109.734l-2.732-1.031c-1.794-.706-2.734-2.574-2.998-4.388L3.923 74.215l-.003-.013c-.375-2.653.42-5.41 1.876-7.62.784-1.193 1.815-2.285 3.081-2.972l81.504-45.326z" transform="rotate(4 109.182 100.864) translate(71.604 91.257)"/>
        </g>
        <g transform="rotate(4 109.182 100.864) translate(78.336 109.617)">
            <mask id="prefix__K" fill="#fff">
                <use xlink:href="#prefix__I"/>
            </mask>
            <path fill="url(#prefix__J)" d="M86.666 1.089L5.165 46.415C1.84 48.257-.378 53.01.21 57.02l7.145 49.126c.587 4.008 3.76 5.773 7.083 3.931L95.942 64.75c3.324-1.842 5.533-6.59 4.946-10.6L93.742 5.026C93.313 2.092 91.506.36 89.265.36c-.823 0-1.706.234-2.6.729" mask="url(#prefix__K)"/>
        </g>
        <g>
            <path fill="#3856D8" d="M45.688 78.719l-6.914-47.703-.637.353 6.914 47.704.637-.354zm4.347-44.647c-.37.205-.617.726-.554 1.165.067.445.42.641.789.437.362-.2.602-.726.538-1.172-.065-.438-.41-.631-.773-.43zm5.407 39.223l.625-.349-5.39-36.795-.625.347 5.39 36.797zm4.59-47.051c-.363.2-.61.728-.544 1.176.064.437.416.634.78.433.368-.205.615-.733.551-1.172-.065-.445-.418-.642-.787-.437zm5.715 41.32l.631-.351-5.697-38.887-.631.35 5.697 38.887zm3.657-53.551c-.375.208-.618.726-.55 1.179.063.43.41.631.785.423.355-.198.603-.727.54-1.157-.067-.453-.419-.644-.775-.445zm6.539 47.88l.638-.354-6.535-45.447-.637.353 6.534 45.448zM79.08 3.95c-.369.205-.616.734-.55 1.18.065.438.417.634.786.43.363-.2.61-.73.546-1.168-.066-.445-.419-.642-.782-.442zm7.17 52.212l.63-.352-7.156-49.772-.632.35 7.158 49.774zM89.717.4c-.374.208-.609.73-.543 1.183.063.43.404.634.779.426.368-.204.603-.726.54-1.157-.066-.454-.407-.657-.776-.452zm6.86 50.018l.62-.344-6.841-47.585-.62.344 6.842 47.585zm5.044-44.883c-.357.198-.604.726-.539 1.172.064.438.418.635.774.438.369-.204.616-.733.551-1.172-.065-.446-.418-.642-.786-.438zm5.387 39.081l.637-.353-5.368-36.65-.638.355 5.37 36.648zm6.528-33.952c-.37.204-.616.733-.55 1.18.063.437.416.634.786.43.362-.201.609-.731.545-1.168-.066-.447-.418-.643-.781-.442zm3.789 28.215l.63-.35-3.775-25.78-.632.351 3.777 25.779zm6.212-36.105c-.375.208-.622.737-.556 1.183.064.439.417.635.792.428.356-.197.603-.727.539-1.166-.065-.446-.419-.642-.775-.445zm4.098 30.371l.632-.35-4.092-27.931-.632.35 4.092 27.931zm-89.503-4.209c-.376.209-.616.734-.553 1.166.065.446.412.645.788.437.356-.198.603-.726.538-1.172-.064-.432-.417-.628-.773-.43z" transform="rotate(4 109.182 100.864) translate(45.9 135.32)"/>
            <g transform="rotate(4 109.182 100.864) translate(45.9 135.32) translate(0 48.96)">
                <mask id="prefix__N" fill="#fff">
                    <use xlink:href="#prefix__L"/>
                </mask>
                <path fill="url(#prefix__M)" d="M2.05 17.108l5.526-3.327c.881-.532 1.602-1.692 1.795-2.863l1.192-7.334c.216-1.32.993-2.383 1.813-2.878.821-.496 1.687-.424 2.08.525l2.198 5.286c.353.841 1.184 1.065 2.087.519l5.513-3.341c1.979-1.197 3.056 1.363 1.558 3.737L21.659 14c-.67 1.062-.883 2.359-.527 3.219l2.216 5.25c.607 1.453-.417 3.653-1.697 4.426-.4.242-.827.345-1.238.238l-4.763-1.205c-.385-.103-.821-.005-1.246.251-.424.257-.835.672-1.169 1.209l-4.142 6.584c-.355.57-.758.968-1.16 1.21-1.276.773-2.534-.047-2.203-2.054l1.204-7.33c.2-1.196-.19-2.13-.961-2.321L1.203 22.3c-1.723-.428-1.142-3.99.847-5.192" mask="url(#prefix__N)"/>
            </g>
            <path fill="#59CAAF" d="M78.629 90.977l31.067-17.693c3.387-1.547 8.234-2.78 11.684-.984 3.145 1.637 8.324 4.986 10.614 6.292 1.74.992 7.778 4.61 4.017 6.655-11.064 6.016-22.012 12.781-33.246 18.893-2.125 1.156-5.234 1.573-8.496 1.301-3.249-.27-6.581-1.216-9.202-2.74-1.867-1.085-3.703-2.154-5.509-3.206-2.437-1.419-3.729-3.097-3.857-4.649-.125-1.515.85-2.92 2.928-3.869" transform="rotate(4 109.182 100.864) translate(45.9 135.32)"/>
            <path fill="#FFA698" d="M117.028 65.056c.218 2.13.6 4.11 1.347 5.567.372.406.836.65 1.053 1.112 1.164 2.475 1.42 4.86.61 17.565l-2.983.064-.382-4.489c-.369-1.818-1.39-4.48-1.803-6.129-.9-3.59-.987-5.391-1.538-8.035l3.696-5.655z" transform="rotate(4 109.182 100.864) translate(45.9 135.32)"/>
            <path fill="#1F202B" d="M123.286 80.358c.325-.044.94-.07 1.01-.148.153-.171.444-1.014.232-1.172-.375-.25-1.14 1.076-1.242 1.32" transform="rotate(4 109.182 100.864) translate(45.9 135.32)"/>
            <path fill="#161A40" d="M121.629 75.278c-.356 1.135.15 2.23.507 3.41 1.247 4.119 1.979 4.35 1.45 6.213-.367 1.295-1.01 2.345-1.823 3.27-.808.921-1.052 1.583-2.09 2.3-1.562 1.08-2.953 1.584-2.613-.582.12-.766.35-1.638.51-2.008 1.107-2.572 2.395-3.7 1.698-6.908-.52-2.383-1.343-3.952-.273-5.557l2.634-.138z" transform="rotate(4 109.182 100.864) translate(45.9 135.32)"/>
            <path fill="#161F69" d="M121.382 72.71c.469 2.151 1.17 3.955 3.147 6.328-.248-.067-.884.583-1.234 1.302-2.578-2.963-3.832-4.404-4.625-3.128.076 1.07.468 3.011.797 4.521.108.497.228 1.595-.087 2.35-1.012 2.43-2.868 5.977-2.16 7.138-.25-.312-.53-1.168-.526-2.32.004-1.677.29-3.95.326-5.345.048-1.886-.665-3.523-.78-6.093-.032-.724-.038-1.433.005-2.152.108-1.817.307-4.227 1.585-4.91.455-.242 1.637-.066 2.25.244.858.436 1.122 1.237 1.302 2.064" transform="rotate(4 109.182 100.864) translate(45.9 135.32)"/>
        </g>
        <g transform="rotate(4 109.182 100.864) translate(140.148 138.993)">
            <mask id="prefix__Q" fill="#fff">
                <use xlink:href="#prefix__O"/>
            </mask>
            <path fill="url(#prefix__P)" d="M.122 3.127l.295 7.238 9.095 26.357 9 30.327c1.438.855 5.66-.236 5.475-1.607-2.198-12.853.782-12.181-4.964-31.527-1.934-10.58-1.437-14.803-1.59-21.132-.078-3.25-2.195-7.547-3.74-9.846C8.542 3.119 5.86 1.597 1.065.184.696 1.1.073 1.958.122 3.127" mask="url(#prefix__Q)"/>
        </g>
        <g>
            <path fill="#1E2353" d="M15.02 36.722L5.925 10.366 5.63 3.127c-.048-1.17.575-2.028.944-2.943.97.286 1.852.575 2.686.854l5.35 8.55c2.053 4.188 2.572 9.591 4.056 10.84-1.689 4.093-.96 12.323-.355 16.841 1.73-.58 3.32-.822 5.02-1.458-1.168.972-3.318 1.944-4.515 3.169 2.178 7.818 3.227 15.804 3.957 23.862l-7.752-26.12z" transform="rotate(4 109.182 100.864) translate(134.64 138.993)"/>
            <path fill="#FFA698" d="M11.471 71.975c.073 2.022 1.994 3.98 2.219 5.291.515 3.014-1.668 1.447-4.14 5.321-.99-.009-3.169 3.558-6.119 3.745-.677.043-1.887-1.6-.548-2.763.597-.347 1.13-.09 1.62-.516 1.022-.905 2.227-8.332 1.988-10.47l4.98-.608z" transform="rotate(4 109.182 100.864) translate(134.64 138.993)"/>
            <path fill="#161F69" d="M12.597 74.954c-2.395.294-4.631 6.142-6.483 8.683-.9 1.235-2.807-.038-2.033-.369-.394.028-1.844-.143-2.913.028-1.502.242-.975 1.746.046 2.452 2.274 1.57 4.291 2.455 6.353 1.415.344-.173.802-.495 1.264-.841.32-.24.69-.5.841-.682.667-.8.924-2.088 1.533-3.182.202-.363.366-.441.496-.343.251.351-.008 5.607-.133 6.661.068.301 1.093.54 1.298.31l1.902-9.34c.218-.757.133-1.661-.25-2.39-.572-1.095-1.667-1.943-1.921-2.402" transform="rotate(4 109.182 100.864) translate(134.64 138.993)"/>
            <path fill="#161A40" d="M6.347 87.57c.408-.07.815-.202 1.22-.407.344-.173.802-.495 1.264-.841.32-.24.69-.5.841-.681.722-.867 1.075-2.475 1.878-3.578-.267-.165-.967-.147-1.669 1.007-1.053 1.937-1.776 3.364-3.167 4.304-.117.079-.239.141-.367.196" transform="rotate(4 109.182 100.864) translate(134.64 138.993)"/>
        </g>
        <g transform="rotate(4 109.182 100.864) translate(132.192 143.277)">
            <mask id="prefix__T" fill="#fff">
                <use xlink:href="#prefix__R"/>
            </mask>
            <path fill="url(#prefix__S)" d="M1.628 3.47C.658 6.324.965 7.769.792 10.71c-.448 5.138-.481 9.167.86 16.148C4.35 40.896 6.028 54.8 8.755 69.164c1.303.854 5.696-.237 5.725-1.608.26-12.255 1.567-20.788-.213-33.434.701-10.852 2.876-16.028 3.713-22.356.43-3.25-.599-6.323-1.784-8.62-5.18.18-8.59-1.206-13.164-2.618-.512.916-1.026 1.832-1.404 2.943" mask="url(#prefix__T)"/>
        </g>
        <g transform="rotate(4 109.182 100.864) translate(147.492 111.453)">
            <mask id="prefix__W" fill="#fff">
                <use xlink:href="#prefix__U"/>
            </mask>
            <path fill="url(#prefix__V)" d="M4.184 1.116c-1.314.806-1.752 2.142-1.24 3.369.934 2.243 4.483 6.635 7.443 10.403l-9.133 2.085c-1.834.822-.445 4.71 1.367 5.166l12.75-1.65c3.25-.69 3.96-2.831 3.256-4.5-.014-.035-.03-.069-.048-.102-.22-1.033-6.713-10.371-7.65-11.636-1.302-1.76-2.661-2.892-3.227-3.233C7.209.723 6.646.594 6.088.594c-.692 0-1.376.198-1.904.522" mask="url(#prefix__W)"/>
        </g>
        <g transform="rotate(4 109.182 100.864) translate(133.416 110.84)">
            <mask id="prefix__Z" fill="#fff">
                <use xlink:href="#prefix__X"/>
            </mask>
            <path fill="url(#prefix__Y)" d="M19.417.534c-2.53.286-7.242 1.734-11.461 4.044-2.998 1.643-5.882 3.99-6.949 5.453-1.456 4.253 1.25 6.003 1.928 10.977.404 2.961-1.68 6.384-1.365 10.73-.117.324-.183 1.625-.27 1.934 1.62 4.954 14.962 5.49 19.566-1.366l-.1-1.984c.445-4.928-2.69-6.6 2.155-17.411C24.723 8.89 24.77.504 19.929.504c-.165 0-.336.01-.512.03" mask="url(#prefix__Z)"/>
        </g>
        <g transform="rotate(4 109.182 100.864) translate(107.1 87.585)">
            <mask id="prefix__ac" fill="#fff">
                <use xlink:href="#prefix__aa"/>
            </mask>
            <path fill="url(#prefix__ab)" d="M.289 1.983c.483.751 1.824 2.69 1.83 2.695.02.023.042.045.065.067C1.41 5.29.863 6.292.676 7.075c-.25 1.045 1.342 3.222 2.287 4.708.838 1.32 2.528 1.354 3.053 2.336 1.634-.033 2.56-1.526 3.302-2.77-1.462-2.104-3.14-5.608-4.88-6.675-.906-1.11-2.208-2.849-3.06-3.922C1.24.576 1.084.502.93.502c-.53 0-1.024.885-.641 1.48" mask="url(#prefix__ac)"/>
        </g>
        <g transform="rotate(4 109.182 100.864) translate(112.608 98.6)">
            <mask id="prefix__af" fill="#fff">
                <use xlink:href="#prefix__ad"/>
            </mask>
            <path fill="url(#prefix__ae)" d="M.108 2.669c.185.39.363.794.537 1.209.135.32.042 1.18.171 1.512 1.403 3.593 2.79 7.24 4.478 10.015.244.398.518 1.584 1.172 2.476.627.855 3.044 2.511 4.004 3.105 2.108 1.303 6.996 4.638 10.83 6.15 2.815 1.11 4.021.471 5.054-.545 2.404-2.367 2.352-5.557-.034-7.382-1.2-.917-3.538-1.088-5.246-1.79-2.817-1.156-6.172-2.906-9.026-3.697-.351-1.482-4.225-8.178-6.587-11.65-.26-.383-.807-.617-1.017-.912-.258-.366-.47-.658-.623-.854C2.828.389 1.116 1.581.108 2.669" mask="url(#prefix__af)"/>
        </g>
        <path fill="#FF8FD5" d="M152.833 111.374c5.354-.605 5.367 8.221 3.504 12.378-4.845 10.811-1.71 12.482-2.155 17.41l.1 1.985c-4.604 6.855-17.947 6.32-19.566 1.365.08-.282.142-1.4.242-1.833 4.857 4.643 11.887 3.414 16.042.937.385-1.822.15-2.63-.098-3.38-3.343-3.599-11.604-2.305-13.613-12.186-.583-2.869 1.31-5.39 3.152-7.667.882-1.09 1.54-1.662 2.722-3.31 1.933.457 5.53-.183 5.96-.972.15-.275-.612-2.688-.488-2.983 3.309-1.458 2.253-1.524 4.198-1.744" transform="rotate(4 109.182 100.864)"/>
        <g transform="rotate(4 109.182 100.864) translate(137.088 101.66)">
            <mask id="prefix__ai" fill="#fff">
                <use xlink:href="#prefix__ag"/>
            </mask>
            <path fill="url(#prefix__ah)" d="M.504 7.942c.222.351 2.732.224 3.756-.212.392 1.842.949 4.072 1.517 6.695l.046.426c2.2.956 8.62-.943 8.205-2.702-.768-1.712-1.297-3.047-1.547-4.44.044-.716.224-1.427.454-1.77.866-1.287 2.6-2.693 3.27-4.67-.226-.607-.794-.881-1.614-.881-2.869 0-8.825 3.351-14.087 7.554" mask="url(#prefix__ai)"/>
        </g>
        <g>
            <path fill="#FFA698" d="M1.153 18.377c.584.38 4.727-.997 5.062-.982 3.224.16 6.692-.102 7.332-1.052.867-1.288 2.6-2.694 3.27-4.67 1.072-3.16.863-6.723-2.026-9.204C9.767-1.845 1.887 1.316.758 6.202c-.463 2.004.11 2.17.016 3.513-.174 2.472-.455 1.54-.227 5.453.086 1.491.22 2.956.606 3.209" transform="rotate(4 109.182 100.864) translate(136.476 91.257)"/>
            <path fill="#59CAAF" d="M13.713 20.196c-.176 1.6-4.68 2.728-7.413 2.092-.292-.068-.474-.124-.58-.31-.4.22-1.494 1.8-1.619 2.587 2.361 2.276 9.822.942 10.729-1.725.216-.637.417-1.84-1.117-2.644" transform="rotate(4 109.182 100.864) translate(136.476 91.257)"/>
        </g>
        <g transform="rotate(4 109.182 100.864) translate(136.476 90.033)">
            <mask id="prefix__al" fill="#fff">
                <use xlink:href="#prefix__aj"/>
            </mask>
            <path fill="url(#prefix__ak)" d="M8.876 1.266c-1.124.544-2.115.453-3.081.362C4.247 1.48 2.762 1.334.89 3.804c-1.773 2.338.078 8.623 2.147 11.804 3.913 6.015 7.906 7.707 1.082 15.357-6.484 7.27 1.592 13.917 9.288 15.876 7.896 2.01 11.763-1.87 13.348-3.316 3.075-2.81.49-4.555-.61-6.294-1.328-2.105 2.99-4.061 4.762-7.387 1.953-3.669-.466-10.136-4.76-13.728-3.415-2.856-2.139-7.612-4.488-11.395C19.866 1.834 17.163.018 13.85.018c-1.537 0-3.205.391-4.974 1.248" mask="url(#prefix__al)"/>
        </g>
        <g transform="rotate(4 109.182 100.864) translate(213.588 167.145)">
            <mask id="prefix__ao" fill="#fff">
                <use xlink:href="#prefix__am"/>
            </mask>
            <path fill="url(#prefix__an)" d="M10.865 3.085C7.6 4.603 4.216 6.903 2.181 9.915.88 11.842.51 13.976.622 15.58l1.212 2.47c-.085-1.205.206-2.541.905-3.946.233-.47.513-.946.838-1.426 2.028-3.002 5.347-5.407 8.6-6.918 2.616-1.213 5.586-2.055 8.486-2.114l.294-.003c.99-.003 1.927.087 2.89.306 1.77.402 3.424 1.227 4.387 2.828.074.122.157.24.22.367-1-5.004-4.101-6.702-7.814-6.7-3.122 0-6.675 1.199-9.775 2.641z" mask="url(#prefix__ao)"/>
        </g>
        <path fill="#1994F0" d="M237.074 186.59c.1-.065.194-.136.292-.203.448-.306.885-.623 1.313-.947l.32-.244c.509-.396 1.001-.805 1.475-1.226.145-.128.286-.258.427-.388.164-.151.327-.303.486-.456.153-.149.301-.3.45-.45.153-.157.307-.313.455-.473.113-.12.22-.242.329-.364.251-.28.494-.563.728-.85.094-.115.19-.23.28-.347.307-.391.603-.787.876-1.191 2.621-3.88 3.095-7.532 1.743-10.29l1.212 2.471c1.351 2.757.877 6.409-1.744 10.289-.273.403-.569.8-.876 1.191-.09.117-.186.231-.28.347-.235.287-.476.57-.727.85-.063.068-.118.141-.18.21-.05.052-.102.102-.15.155-.148.158-.301.314-.455.47-.149.152-.297.302-.45.452-.159.153-.322.304-.485.455-.107.099-.209.2-.318.298-.035.031-.074.06-.11.091-.474.42-.966.83-1.475 1.226-.04.031-.076.066-.117.097-.066.05-.137.097-.204.147-.427.325-.864.641-1.312.947-.052.036-.1.074-.151.11-.047.03-.094.062-.14.093l-1.212-2.47z" transform="rotate(4 109.182 100.864)"/>
        <g transform="rotate(4 109.182 100.864) translate(208.08 164.085)">
            <mask id="prefix__aq" fill="#fff">
                <use xlink:href="#prefix__ap"/>
            </mask>
            <path d="M2.965 12.907C1.157 15.582.368 18.138.495 20.376L6.13 18.64c-.112-1.605.442-3.448 1.743-5.373 3.682-5.45 11.957-9.481 18.49-9 6.528.478 8.836 5.288 5.154 10.738-1.307 1.934-3.19 3.686-5.38 5.132l2.857 2.369c3.012-2.011 5.615-4.451 7.431-7.14C41.634 7.656 38.365.847 29.131.168c-.5-.037-1.008-.055-1.522-.055-8.972 0-19.718 5.501-24.644 12.794" mask="url(#prefix__aq)"/>
        </g>
        <g>
            <path fill="#00EDFF" d="M3.238 12.889c-1.644 2.432-2.08 4.653-2.059 6.72.675-.125 2.987-.593 4.951-.97L.495 20.376c-.126-2.238.662-4.794 2.47-7.47C7.56 6.105 17.22.867 25.779.195 17.29.955 7.784 6.158 3.238 12.889" transform="rotate(4 109.182 100.864) translate(208.08 164.085)"/>
            <path fill="#0D7AE9" d="M26.363 4.266c-.748-.055-1.522-.044-2.307.015.88-.08 1.742-.032 2.58-.033 6.861-.004 11.552 8.088.562 16.03 0 0 1.85 2.192 1.797 2.228l-2.858-2.37c2.19-1.445 4.073-3.197 5.38-5.13 3.682-5.45 1.374-10.26-5.154-10.74" transform="rotate(4 109.182 100.864) translate(208.08 164.085)"/>
            <path fill="#494CEC" d="M6.13 18.64l1.212 2.47c.05.68.219 1.317.504 1.899l-1.211-2.47c-.285-.581-.455-1.218-.504-1.9M2.242 24.727c1.66 1.905 4.166 2.844 6.615 3.218.13.02.262.039.396.056 4.16.537 8.703-.367 12.541-1.808 2.516-.944 4.967-2.193 7.2-3.687l1.212 2.47c-2.242 1.5-4.677 2.74-7.2 3.687-.053.019-.105.044-.157.063-3.806 1.412-8.28 2.269-12.385 1.745-2.584-.335-5.257-1.263-7.012-3.276-.355-.409-.69-.887-.94-1.367-.029-.054-.057-.109-.084-.164l-1.21-2.47c.265.542.629 1.077 1.024 1.533" transform="rotate(4 109.182 100.864) translate(208.08 164.085)"/>
        </g>
        <g transform="rotate(4 109.182 100.864) translate(208.08 182.445)">
            <mask id="prefix__at" fill="#fff">
                <use xlink:href="#prefix__ar"/>
            </mask>
            <path fill="url(#prefix__as)" d="M.494 2.016c.24 4.22 3.72 7.285 9.764 7.728 6.02.443 13.097-1.823 18.736-5.598l-2.857-2.37c-3.958 2.613-8.898 4.18-13.11 3.87C8.8 5.336 6.344 3.216 6.13.28L.494 2.016z" mask="url(#prefix__at)"/>
        </g>
        <g>
            <path fill="#AAB4FF" d="M187.155 152.568s.263 6.673 9.955 7.448c8.915.712 18.544-5.319 18.544-5.319-5.639 3.775-12.717 6.043-18.736 5.6-6.044-.445-9.525-3.509-9.763-7.729" transform="rotate(4 109.182 100.864) translate(21.42 31.893)"/>
            <path fill="#59CAAF" d="M16.618 1.15c.135.024.27.057.406.082 6.294 1.208 13.168 6.67 15.568 12.625l-1.765 2.551c-.553-1.371-1.326-2.638-2.23-3.806-.159-.207-.328-.408-.498-.61-2.975-3.562-7.448-6.509-11.948-7.678-.087-.023-.176-.048-.264-.069-3.179-.775-7.473-.829-9.494 2.092l1.766-2.55c1.79-2.59 5.61-3.111 8.46-2.636M2.93.614c-.057.089-.111.178-.162.27-.045.08-.087.163-.129.246-.047.093-.094.187-.138.283-.038.086-.074.173-.11.26-.04.096-.078.193-.113.291-.032.09-.062.181-.091.273-.033.1-.063.202-.09.304-.026.093-.05.186-.071.28-.026.11-.05.223-.072.335-.018.095-.034.19-.049.286-.018.116-.033.233-.047.35-.01.096-.02.191-.028.287-.012.144-.019.29-.024.435-.003.09-.007.177-.008.267-.002.163.004.33.011.498.003.074.003.146.008.22.016.271.045.547.083.828.01.071.024.144.035.216.033.218.072.436.119.658.02.1.042.2.065.302.031.13.064.26.098.39.032.12.063.238.099.358.038.133.08.265.122.4.04.121.079.243.122.366.047.135.097.27.148.406.046.125.093.249.144.374.055.137.114.276.174.415.075.172.147.344.228.517.132.285.272.57.42.852.147.282.302.563.462.84L2.37 14.97c-.32-.553-.616-1.121-.881-1.69-.043-.09-.084-.18-.124-.27-.037-.083-.069-.166-.104-.249-.06-.139-.119-.277-.174-.413-.05-.126-.098-.252-.145-.376-.05-.135-.101-.27-.147-.404-.043-.124-.083-.247-.122-.369-.043-.133-.084-.266-.122-.397-.036-.12-.068-.24-.1-.36-.033-.13-.067-.259-.097-.388-.012-.053-.028-.107-.04-.16C.305 9.847.3 9.8.289 9.751.242 9.53.203 9.311.17 9.094.158 9.022.145 8.95.135 8.877c-.038-.28-.067-.556-.083-.827-.001-.012-.004-.024-.004-.035-.004-.062-.001-.122-.004-.184-.008-.168-.013-.335-.011-.5 0-.09.005-.177.008-.266.005-.145.012-.292.023-.434.003-.04.003-.08.007-.119.005-.057.016-.113.022-.169.014-.117.029-.234.047-.35.014-.095.031-.19.05-.286.02-.112.045-.225.07-.336.012-.05.02-.101.033-.15.01-.043.026-.084.038-.128.028-.103.058-.205.09-.306.03-.09.06-.182.092-.272.035-.098.073-.195.113-.291.021-.053.039-.107.06-.158.016-.035.034-.067.05-.102.044-.096.09-.19.138-.284.042-.082.083-.164.129-.245.051-.092.105-.181.16-.27.033-.053.062-.108.095-.16l.103-.151L3.126.303c-.07.1-.133.206-.197.31" transform="rotate(4 109.182 100.864) translate(21.42 31.893)"/>
        </g>
        <g transform="rotate(4 109.182 100.864) translate(22.644 28.22)">
            <mask id="prefix__aw" fill="#fff">
                <use xlink:href="#prefix__au"/>
            </mask>
            <path fill="url(#prefix__av)" d="M2.03 14.402c.265.569.561 1.137.882 1.69l4.454-.574c-.12-.229-.233-.462-.341-.694-2.803-6.014.31-10.433 6.954-9.869 6.645.564 14.303 5.896 17.106 11.91.107.228.197.45.283.664l5.444 1.572c-.202-.589-.443-1.192-.732-1.812C32.113 8.778 21.274 1.231 11.872.434c-.544-.047-1.07-.069-1.579-.069-8.308 0-12.001 6.017-8.264 14.037" mask="url(#prefix__aw)"/>
        </g>
        <g>
            <path fill="#FDBEBE" d="M7.256 4.008c2.28-3.346 8.584-2.882 12.972-.8 5.424 2.572 9.558 6.783 11.546 10.84 0 0 4.915 1.633 5.039 1.993l-5.445-1.572c-.086-.213-.176-.436-.282-.663C28.282 7.79 20.624 2.459 13.979 1.896c-3.087-.263-5.4.561-6.723 2.112" transform="rotate(4 109.182 100.864) translate(22.644 31.28)"/>
            <path fill="#59CAAF" d="M3.185 12.51s4.06-.281 4.18-.052l-4.453.575c-.32-.554-.617-1.122-.883-1.691C-.046 6.889.173 3.056 2.197.525c-3.162 4.99.667 11.432.988 11.986M29.604 17.024c-.004-.01 1.613-2.335 1.764-2.555 1.934 4.496 1.047 6.316-1.963 9.254.132-.19.247-.392.352-.6l.053-.11c.893-1.882.546-4.122-.206-5.989" transform="rotate(4 109.182 100.864) translate(22.644 31.28)"/>
            <path fill="#59CAAF" d="M1.147 15.583l1.765-2.55c4.114 7.084 25.733 19.906 33.294 11.622l-1.765 2.551c-1.77 2.559-5.237 3.943-9.968 3.541-.545-.046-1.095-.115-1.648-.206-.19-.03-.383-.078-.574-.114-.416-.08-.817-.157-1.227-.256-1.525-.371-3.066-.896-4.51-1.513-.067-.029-.132-.063-.197-.092-5.384-2.343-10.542-6.296-13.978-11.152-.107-.15-.22-.298-.321-.449-.309-.456-.601-.916-.871-1.382" transform="rotate(4 109.182 100.864) translate(22.644 31.28)"/>
        </g>
        <g transform="rotate(4 109.182 100.864) translate(25.092 43.52)">
            <mask id="prefix__az" fill="#fff">
                <use xlink:href="#prefix__ax"/>
            </mask>
            <path fill="url(#prefix__ay)" d="M.464.793C4.994 8.59 15.012 15.212 23.79 15.957c8.723.739 13.141-4.585 10.574-12.156L28.92 2.23c2.28 5.67-.845 9.748-7.237 9.207C15.29 10.894 7.961 5.94 4.918.218L.464.793z" mask="url(#prefix__az)"/>
        </g>
        <path fill="#59CAAF" d="M48.78 59.095c14.12 1.013 10.677-11.773 10.677-11.773 2.566 7.57-1.852 12.894-10.574 12.155-8.779-.745-18.797-7.366-23.327-15.164 0 0 8.986 13.673 23.225 14.782" transform="rotate(4 109.182 100.864)"/>
    </g>
</svg>
