<svg xmlns="http://www.w3.org/2000/svg" xmlns:xlink="http://www.w3.org/1999/xlink" width="40" height="40" viewBox="0 0 40 40">
    <defs>
        <linearGradient id="prefix__d" x1="45.912%" x2="64.558%" y1="43.225%" y2="80.211%">
            <stop offset="0%" stop-color="#592D67"/>
            <stop offset="100%" stop-color="#21043D"/>
        </linearGradient>
        <linearGradient id="prefix__g" x1="54.781%" x2="44.024%" y1="94.742%" y2="5.548%">
            <stop offset="0%" stop-color="#1C8EF4"/>
            <stop offset="100%" stop-color="#00CFDD"/>
        </linearGradient>
        <linearGradient id="prefix__j" x1="47.323%" x2="51.504%" y1="67.869%" y2="41.852%">
            <stop offset="0%" stop-color="#1C8EF4"/>
            <stop offset="100%" stop-color="#00CFDD"/>
        </linearGradient>
        <linearGradient id="prefix__m" x1="54.717%" x2="49.406%" y1="89.622%" y2="27.577%">
            <stop offset="0%" stop-color="#1C8EF4"/>
            <stop offset="100%" stop-color="#00CFDD"/>
        </linearGradient>
        <linearGradient id="prefix__p" x1="47.783%" x2="61.226%" y1="72.752%" y2="34.576%">
            <stop offset="0%" stop-color="#1C8EF4"/>
            <stop offset="100%" stop-color="#00CFDD"/>
        </linearGradient>
        <linearGradient id="prefix__s" x1="48.175%" x2="42.247%" y1="53.284%" y2="85.152%">
            <stop offset="0%" stop-color="#FF8977"/>
            <stop offset="100%" stop-color="#FFA799"/>
        </linearGradient>
        <linearGradient id="prefix__v" x1="59.991%" x2="47.801%" y1="37.275%" y2="78.234%">
            <stop offset="0%" stop-color="#FFB89E"/>
            <stop offset="100%" stop-color="#FFA799"/>
        </linearGradient>
        <linearGradient id="prefix__y" x1="45.978%" x2="56.449%" y1="56.19%" y2="39.064%">
            <stop offset="0%" stop-color="#1C8EF4"/>
            <stop offset="100%" stop-color="#00CFDD"/>
        </linearGradient>
        <linearGradient id="prefix__B" x1="55.745%" x2="7.268%" y1="48.674%" y2="59.86%">
            <stop offset="0%" stop-color="#D1E8FF"/>
            <stop offset="100%" stop-color="#EDF6FF"/>
        </linearGradient>
        <path id="prefix__c" d="M30.582.258c-2.079.007-3.892.478-5.223 1.358-3.706 2.453-2.456 6.618-5.873 8.861-1.564 1.027-3.39 1.213-5.264 1.665-4.892 1.181-5.66 4.722-5.471 8.088.196 3.476.986 6.087.17 7.077-1.19 1.44-2.81 1.743-4.203 1.942-5.976.855-5.516 9.25-1.958 12.556 3.242 3.013 10.403 5.635 17.81 5.974 9.258.423 18.902-2.345 21.769-8.079.773-1.546 1.26-3.38 1.524-5.359 1.045-1.938 2.293-3.053 2.365-5.218.06-1.791-.147-3.416-.621-4.658-1.076-2.816-4.002-5.45-2.341-11.494.511-1.86.569-5.403-.624-8.14-1.02-2.342-3.034-4.094-5.582-3.7-.651-.072-1.295-.152-1.93-.225-1.558-.433-3.065-.644-4.455-.648h-.093z"/>
        <path id="prefix__f" d="M2.49.432C-1.648 1.525.89 8.92 1.909 11.213c1.602 3.607 5.924 9.51 7.52 12.388l3.688-.076c.174-1.813.597-2.123-.07-4.117-.93-2.782-2.166-6.56-4.336-11.055C7.602 6.056 7.488.263 3.692.263c-.365 0-.764.054-1.202.17"/>
        <path id="prefix__i" d="M6.81 6.471c.867 1.448 2.483 4.02 2.572 5.874.158 3.25-.554 5.513.043 7.27.673 1.979-.143 2.802-.319 4.601l-1.442-2.738c-1.218-3.458-3.36-7.53-4.977-11.11C1.658 8.09-2.18 1.362 2.012.34"/>
        <path id="prefix__l" d="M16.293.523c-5.88 1.35-11.934 4.403-14.636 7.282-1.966 2.093-1.887 4.417-.76 9.44.725 3.227 1.974 6.57 3.074 9.117 2.165 5.012-1.517 7.786-.191 11.239l-.41 2.338c3.953 2.838 18.088 3.05 21.631-2.577l.074-2.807c.61-1.344.209-4.74.03-5.636-.57-2.849-.304-4.36-.615-7.656-.078-.833-.234-1.357-.31-2.201 3.146-2.353 2.949-6.905 1.083-9.63-1.177-1.72-1.862-2.955-2.448-4.324-.18-1.048-.359-1.9-.545-2.477-.118-.49-.378-.951-.659-1.353C21.056.486 20.29.124 19.085.124c-.746 0-1.658.138-2.792.399"/>
        <path id="prefix__o" d="M8.076 2.069C4.524 6.413 2.92 14.467.39 21.684c-.501 1.427-.142 2.552.607 3.227.338.393.798.816 1.41 1.278 3.176 2.395 5.805 4.459 11.643 6.778.437.174.8.186 1.352.154.364.139.906.428 1.293.572-.54-.357.897-3.537 1.975-3.72-.373-.235-.76-.497-1.159-.778-.193-.453-.263-.588-.631-.861-2.82-2.095-6.317-5.464-9.527-7.235 2.204-3.452 4.487-6.393 5.938-9.922 1.585-3.854 2.155-8.861-.373-10.445-.584-.366-1.15-.53-1.695-.53-1.17 0-2.236.754-3.146 1.867"/>
        <path id="prefix__r" d="M.192 3.707c.632 2.5 5.416 4.189 5.914 2.2-.136-.768-.268-1.523-.356-2.338L0 .071c.222 1.236.28 2.442.192 3.636"/>
        <path id="prefix__u" d="M1.357 6.258C.829 6.715-.041 7.598.282 8.39c.389.956 2.274 1.575 2.39 2.515.162 1.323.808 2.117 1.465 2.415.712.322 1.462.033 1.838-.542.11-.5.22-1.123.433-1.915.488-1.816.576-2.52-.408-4.786-.17-.393-.258-.78-.196-1.396.182-1.812-.085-3.225-.67-4.535-.78 2.348-1.93 4.516-3.777 6.112"/>
        <path id="prefix__x" d="M1.238.966c.064.498.117 1.015.064 1.52-.298.549-.45 1.14-.485 1.832C.693 6.88-.279 12.925.492 17.233c.965 5.395 6.74 7.93 7.29-.056.26-3.756-1.09-11.877-1.454-13.705-.108-.537-.466-.934-.49-1.452-.017-.363-.02-1.125-.015-1.465-.43-.218-1.003-.303-1.6-.303-1.348 0-2.811.43-2.985.714"/>
        <path id="prefix__A" d="M12.003.053l-8.73.188c-.475.01-1.047.357-1.277.775L.141 4.393c-.23.418-.029.748.447.738l8.73-.189c.476-.01 1.047-.356 1.276-.774L12.45.791c.226-.412.036-.738-.425-.738h-.021"/>
        <circle id="prefix__a" cx="19.08" cy="19.08" r="19.08"/>
    </defs>
    <g fill="none" fill-rule="evenodd" transform="translate(1 1)">
        <mask id="prefix__b" fill="#fff">
            <use xlink:href="#prefix__a"/>
        </mask>
        <use fill="#B068EB" stroke="#808AAB" stroke-width=".5" xlink:href="#prefix__a"/>
        <g mask="url(#prefix__b)">
            <g>
                <g transform="translate(-18.36 6.84) translate(4.32)">
                    <mask id="prefix__e" fill="#fff">
                        <use xlink:href="#prefix__c"/>
                    </mask>
                    <path fill="url(#prefix__d)" d="M30.582.258c-2.079.007-3.892.478-5.223 1.358-3.706 2.453-2.456 6.618-5.873 8.861-1.564 1.027-3.39 1.213-5.264 1.665-4.892 1.181-5.66 4.722-5.471 8.088.196 3.476.986 6.087.17 7.077-1.19 1.44-2.81 1.743-4.203 1.942-5.976.855-5.516 9.25-1.958 12.556 3.242 3.013 10.403 5.635 17.81 5.974 9.258.423 18.902-2.345 21.769-8.079.773-1.546 1.26-3.38 1.524-5.359 1.045-1.938 2.293-3.053 2.365-5.218.06-1.791-.147-3.416-.621-4.658-1.076-2.816-4.002-5.45-2.341-11.494.511-1.86.569-5.403-.624-8.14-1.02-2.342-3.034-4.094-5.582-3.7-.651-.072-1.295-.152-1.93-.225-1.558-.433-3.065-.644-4.455-.648h-.093z" mask="url(#prefix__e)"/>
                </g>
                <path fill="#22043D" d="M43.45 4.32c.212 1.645-.389 3.077-1.364 4.456-2.275 3.217-3.471 2.965-4.716 7.063-2.047-1.368-3.452-1.577-4.043-.233-.95 2.162-.35 3.44-.571 5.676-.36 3.635-4.696-1.347-8.096 1.438-3.343 2.739-1.05 4.661-2.34 8.538-.484 1.451-.86 3.36-2.211 4-4.205 1.995-5.816 7.016 1.67 9.509 4.637 1.544 11.371 1.157 16.998-.764 7.429-2.537 12.01-13.517 10.115-18.733-.785-2.158-2.903-3.77-2.914-5.456-.037-5.795 1.08-9.511-2.527-15.494" transform="translate(-18.36 6.84)"/>
                <g transform="translate(-18.36 6.84) translate(40.68 20.88)">
                    <mask id="prefix__h" fill="#fff">
                        <use xlink:href="#prefix__f"/>
                    </mask>
                    <path fill="url(#prefix__g)" d="M2.49.432C-1.648 1.525.89 8.92 1.909 11.213c1.602 3.607 5.924 9.51 7.52 12.388l3.688-.076c.174-1.813.597-2.123-.07-4.117-.93-2.782-2.166-6.56-4.336-11.055C7.602 6.056 7.488.263 3.692.263c-.365 0-.764.054-1.202.17" mask="url(#prefix__h)"/>
                </g>
                <g transform="translate(-18.36 6.84) translate(41.135 21.6)">
                    <mask id="prefix__k" fill="#fff">
                        <use xlink:href="#prefix__i"/>
                    </mask>
                    <path fill="url(#prefix__j)" d="M6.81 6.471c.867 1.448 2.483 4.02 2.572 5.874.158 3.25-.554 5.513.043 7.27.673 1.979-.143 2.802-.319 4.601l-1.442-2.738c-1.218-3.458-3.36-7.53-4.977-11.11C1.658 8.09-2.18 1.362 2.012.34 6-.633 5.381 4.084 6.811 6.47" mask="url(#prefix__k)"/>
                </g>
                <g transform="translate(-18.36 6.84) translate(24.12 21.24)">
                    <mask id="prefix__n" fill="#fff">
                        <use xlink:href="#prefix__l"/>
                    </mask>
                    <path fill="url(#prefix__m)" d="M16.293.523c-5.88 1.35-11.934 4.403-14.636 7.282-1.966 2.093-1.887 4.417-.76 9.44.725 3.227 1.974 6.57 3.074 9.117 2.165 5.012-1.517 7.786-.191 11.239l-.41 2.338c3.953 2.838 18.088 3.05 21.631-2.577l.074-2.807c.61-1.344.209-4.74.03-5.636-.57-2.849-.304-4.36-.615-7.656-.078-.833-.234-1.357-.31-2.201 3.146-2.353 2.949-6.905 1.083-9.63-1.177-1.72-1.862-2.955-2.448-4.324-.18-1.048-.359-1.9-.545-2.477-.118-.49-.378-.951-.659-1.353C21.056.486 20.29.124 19.085.124c-.746 0-1.658.138-2.792.399" mask="url(#prefix__n)"/>
                </g>
                <g transform="translate(-18.36 6.84) translate(15.84 29.52)">
                    <mask id="prefix__q" fill="#fff">
                        <use xlink:href="#prefix__o"/>
                    </mask>
                    <path fill="url(#prefix__p)" d="M8.076 2.069C4.524 6.413 2.92 14.467.39 21.684c-.501 1.427-.142 2.552.607 3.227.338.393.798.816 1.41 1.278 3.176 2.395 5.805 4.459 11.643 6.778.437.174.8.186 1.352.154.364.139.906.428 1.293.572-.54-.357.897-3.537 1.975-3.72-.373-.235-.76-.497-1.159-.778-.193-.453-.263-.588-.631-.861-2.82-2.095-6.317-5.464-9.527-7.235 2.204-3.452 4.487-6.393 5.938-9.922 1.585-3.854 2.155-8.861-.373-10.445-.584-.366-1.15-.53-1.695-.53-1.17 0-2.236.754-3.146 1.867" mask="url(#prefix__q)"/>
                </g>
                <path fill="#FFA698" d="M35.154 17.64c.46 2.576.217 5.015-.594 7.514 2.143 1.953 5.955 1.123 6.84-.646-.187-1.145-.405-2.195-.53-3.37l-5.716-3.498z" transform="translate(-18.36 6.84)"/>
                <g transform="translate(-18.36 6.84) translate(34.92 17.64)">
                    <mask id="prefix__t" fill="#fff">
                        <use xlink:href="#prefix__r"/>
                    </mask>
                    <path fill="url(#prefix__s)" d="M.192 3.707c.632 2.5 5.416 4.189 5.914 2.2-.136-.768-.268-1.523-.356-2.338L0 .071c.222 1.236.28 2.442.192 3.636" mask="url(#prefix__t)"/>
                </g>
                <path fill="#FFA698" d="M44.067 6.84c1.072 1.674 1.644 3.353 1.396 5.734-.063.605.026.984.2 1.37 1.003 2.224.913 2.913.416 4.695-.483 1.734-.45 2.639-1.052 3.234-.618.611-1.541.752-2.325.8-1.605.1-4.36-.94-5.963-1.801-1.187-.639-1.142-1.075-1.643-2.18-1.676-1.434-.59-2.48-.029-2.587 1.61-.307 1.872 1.517 2.826 1.92-.158-3.204 6.055-8.612 6.174-11.185" transform="translate(-18.36 6.84)"/>
                <g transform="translate(-18.36 6.84) translate(39.6 7.56)">
                    <mask id="prefix__w" fill="#fff">
                        <use xlink:href="#prefix__u"/>
                    </mask>
                    <path fill="url(#prefix__v)" d="M1.357 6.258C.829 6.715-.041 7.598.282 8.39c.389.956 2.274 1.575 2.39 2.515.162 1.323.808 2.117 1.465 2.415.712.322 1.462.033 1.838-.542.11-.5.22-1.123.433-1.915.488-1.816.576-2.52-.408-4.786-.17-.393-.258-.78-.196-1.396.182-1.812-.085-3.225-.67-4.535-.78 2.348-1.93 4.516-3.777 6.112" mask="url(#prefix__w)"/>
                </g>
                <path fill="#FF8F7F" d="M43.905 6.84c-.892 3.925-6.062 6.897-6.105 11.16 1.415-4.431 6.43-7.463 6.105-11.16" transform="translate(-18.36 6.84)"/>
                <g transform="translate(-18.36 6.84) translate(47.52 25.56)">
                    <mask id="prefix__z" fill="#fff">
                        <use xlink:href="#prefix__x"/>
                    </mask>
                    <path fill="url(#prefix__y)" d="M1.238.966c.064.498.117 1.015.064 1.52-.298.549-.45 1.14-.485 1.832C.693 6.88-.279 12.925.492 17.233c.965 5.395 6.74 7.93 7.29-.056.26-3.756-1.09-11.877-1.454-13.705-.108-.537-.466-.934-.49-1.452-.017-.363-.02-1.125-.015-1.465-.43-.218-1.003-.303-1.6-.303-1.348 0-2.811.43-2.985.714" mask="url(#prefix__z)"/>
                </g>
                <g>
                    <path fill="#FF8B7B" d="M10.147.278c-.247 1.16-1.125.938-2.541 1.357.65 1.683 1.735 2.207 1.798 5.043.01.5-1.346.33-2.71.326-1.371-.002-3.21.279-3.417-.06-.452-.74-.507-1.141-.794-1.46-1.246-1.387-.342-2.956.283-3.685C3.29 1.185 4.3.817 5.24.54 6.046.302 7.658.212 8.234.177c.368-.023 1.501.19 1.913.102" transform="translate(-18.36 6.84) translate(46.8 19.44)"/>
                    <path fill="#303A7D" d="M12.562 1.707l.162.259c.084.135.077.326-.04.539L10.82 5.927c-.23.42-.807.776-1.284.785l-8.78.19c-.171.011-.358-.02-.45-.141l-.199-.325c-.4-.652 11.667-4.549 12.456-4.73" transform="translate(-18.36 6.84) translate(46.8 19.44)"/>
                </g>
                <g transform="translate(-18.36 6.84) translate(46.8 20.88)">
                    <mask id="prefix__C" fill="#fff">
                        <use xlink:href="#prefix__A"/>
                    </mask>
                    <path fill="url(#prefix__B)" d="M12.003.053l-8.73.188c-.475.01-1.047.357-1.277.775L.141 4.393c-.23.418-.029.748.447.738l8.73-.189c.476-.01 1.047-.356 1.276-.774L12.45.791c.226-.412.036-.738-.425-.738h-.021" mask="url(#prefix__C)"/>
                </g>
                <g>
                    <path fill="#303A7D" d="M6.863 3.239c.042-.078.146-.143.232-.144.087-.002.123.059.082.137-.042.077-.146.142-.233.144-.086.001-.123-.06-.08-.137" transform="translate(-18.36 6.84) translate(50.04 21.96)"/>
                    <path fill="#FF8B7B" d="M5.887 4.467l-.498-.69c-.018-.299.844-.674.597-1.065-.401-.633-4.14-.211-4.836-.175C-.27 2.61-.09 4.255.534 4.505c.949.381 4.324-.016 5.353-.038" transform="translate(-18.36 6.84) translate(50.04 21.96)"/>
                </g>
            </g>
        </g>
    </g>
</svg>
