<svg xmlns="http://www.w3.org/2000/svg" width="298.221" height="281.813" viewBox="0 0 298.221 281.813">
    <path id="deco-top" fill="#e60662" d="M16.769-71.356c14.842 2.52 30.347 6.941 48.37 13.707 24.825 9.373 49.033 24.1 70.324 42.844 14.137 12.468 21.823 26.882 23.589 44.214 1.458 14.414-3.092 30.331-12.236 42.8-9.674 13.265-35.516 32.144-60.474 44.259-28.4 13.707-64.185 23.389-86.581 23.389a70.331 70.331 0 0 1-19.216-2.21c-22.661-5.616-40.772-19.455-50.137-38.246-3.092-6.279-4.373-10.258-6.228-19.233-3.843-19.057-5.566-40.766-4.594-58.142 1.5-27.5 6.979-48.459 16.123-62.077C-52.849-57.075-33.456-68.7-10.619-72.2c6.008-.925 19.525-.483 27.388.844z" transform="rotate(160 84.754 96.925)"/>
</svg>
