<svg xmlns="http://www.w3.org/2000/svg" width="17" height="16" viewBox="0 0 17 16">
    <g id="icon-favorite-disable" fill="none" transform="translate(-42.5 -254)">
        <path id="사각형_77" d="M0 0H16V16H0z" data-name="사각형 77" transform="translate(43 254)"/>
        <path id="패스_101" stroke="#c9d0d8" d="M11.75 30a3.788 3.788 0 0 0-2.366.818A5.389 5.389 0 0 0 8 32.482a5.389 5.389 0 0 0-1.384-1.665A3.788 3.788 0 0 0 4.25 30 4.343 4.343 0 0 0 0 34.61c0 2.839 2.279 4.782 5.73 7.722.586.5 1.25 1.065 1.941 1.669a.5.5 0 0 0 .658 0c.69-.6 1.355-1.17 1.941-1.67 3.45-2.94 5.73-4.883 5.73-7.722A4.343 4.343 0 0 0 11.75 30z" data-name="패스 101" transform="translate(43 225)"/>
    </g>
</svg>
