<svg xmlns="http://www.w3.org/2000/svg" width="12" height="12.5" viewBox="0 0 12 12.5">
    <g id="icon-pause" transform="translate(-435 -231.5)">
        <path id="Rectangle_86" fill="none" d="M0 0H12V12H0z" data-name="Rectangle 86" transform="translate(435 232)"/>
        <path id="pause" fill="#616c78" stroke="rgba(0,0,0,0)" stroke-miterlimit="10" d="M6.072 11.333a.4.4 0 0 1-.4-.4V.4a.4.4 0 0 1 .4-.4H9.31a.4.4 0 0 1 .4.4v10.529a.4.4 0 0 1-.4.4zm-5.667 0a.4.4 0 0 1-.4-.4V.4A.4.4 0 0 1 .4 0h3.243a.4.4 0 0 1 .4.4v10.529a.4.4 0 0 1-.4.4z" transform="translate(436 232)"/>
    </g>
</svg>
