<svg xmlns="http://www.w3.org/2000/svg" width="12" height="12" viewBox="0 0 12 12">
    <path id="icon-bubble" fill="#c9d0d8" d="M76.967-3692.035a.588.588 0 0 1-.475-.438.586.586 0 0 1 .216-.608 2.523 2.523 0 0 0 .4-.375 3.445 3.445 0 0 1-1.108-2.5 3.505 3.505 0 0 1 1.534-2.846 4.333 4.333 0 0 1-.026-.472 4.464 4.464 0 0 1 1.551-3.35 5.529 5.529 0 0 1 3.695-1.368 5.528 5.528 0 0 1 3.695 1.368 4.464 4.464 0 0 1 1.551 3.35 4.493 4.493 0 0 1-1.522 3.323 3.5 3.5 0 0 0 .751.7.585.585 0 0 1 .239.594.588.588 0 0 1-.451.459 4.139 4.139 0 0 1-.885.1 3.688 3.688 0 0 1-2.061-.6q-.152.035-.305.062a4.038 4.038 0 0 1-3.747 2.312 4.443 4.443 0 0 1-.97-.106 2.833 2.833 0 0 1-1.556.446 3.216 3.216 0 0 1-.526-.051zm-.264-3.92a2.786 2.786 0 0 0 1.1 2.169.351.351 0 0 1 .082.458 2.8 2.8 0 0 1-.532.629 2.127 2.127 0 0 0 1.416-.4.354.354 0 0 1 .3-.06 3.724 3.724 0 0 0 .952.123 3.408 3.408 0 0 0 2.912-1.524h-.177a5.526 5.526 0 0 1-3.695-1.368 4.608 4.608 0 0 1-1.369-2.109 2.752 2.752 0 0 0-.992 2.082zm7.654.59a3.037 3.037 0 0 0 2.249.526 3.827 3.827 0 0 1-.9-.989.352.352 0 0 1 .082-.458 3.832 3.832 0 0 0 1.507-2.986 4.308 4.308 0 0 0-4.543-4.015 4.308 4.308 0 0 0-4.543 4.015 4.308 4.308 0 0 0 4.543 4.015 5.11 5.11 0 0 0 1.3-.167.351.351 0 0 1 .09-.012.353.353 0 0 1 .215.071zm-3.773-2.148a2.4 2.4 0 0 1-.931-1.865.351.351 0 0 1 .352-.352.351.351 0 0 1 .352.352 2.189 2.189 0 0 0 2.388 1.9 2.189 2.189 0 0 0 2.388-1.9.351.351 0 0 1 .352-.352.351.351 0 0 1 .352.352 2.4 2.4 0 0 1-.93 1.865 3.4 3.4 0 0 1-2.16.74 3.4 3.4 0 0 1-2.163-.74zm2.8-2.439v-.883a.351.351 0 0 1 .352-.352.351.351 0 0 1 .352.352v.883a.351.351 0 0 1-.352.352.351.351 0 0 1-.349-.353zm-2.121-.011v-.884a.352.352 0 0 1 .352-.352.352.352 0 0 1 .352.352v.884a.352.352 0 0 1-.352.352.352.352 0 0 1-.349-.352z" transform="translate(-76 3703.991)"/>
</svg>
