<svg xmlns="http://www.w3.org/2000/svg" width="12" height="12" viewBox="0 0 12 12">
    <g id="icon-location" transform="translate(-31 -875)">
        <path id="사각형_98" fill="none" d="M0 0H12V12H0z" data-name="사각형 98" transform="translate(31 875)"/>
        <path id="합치기_7" fill="#c9d0d8" d="M80.42-4458.148l-3.524-4.14a3.815 3.815 0 0 1-.7-1.161 4.846 4.846 0 0 1 .564-4.465 4.777 4.777 0 0 1 3.98-2.086 4.777 4.777 0 0 1 3.983 2.086 4.846 4.846 0 0 1 .563 4.467 3.814 3.814 0 0 1-.7 1.16l-3.523 4.139a.42.42 0 0 1-.319.148.419.419 0 0 1-.324-.148zm-2.973-9.289a4.009 4.009 0 0 0-.469 3.694 3 3 0 0 0 .554.909l3.207 3.767 3.205-3.764a2.994 2.994 0 0 0 .553-.907 4.009 4.009 0 0 0-.468-3.7 3.95 3.95 0 0 0-3.293-1.725 3.95 3.95 0 0 0-3.289 1.726zm.943 2.275a2.352 2.352 0 0 1 2.35-2.35 2.352 2.352 0 0 1 2.35 2.35 2.352 2.352 0 0 1-2.35 2.35 2.352 2.352 0 0 1-2.35-2.349zm.839 0a1.512 1.512 0 0 0 1.511 1.511 1.512 1.512 0 0 0 1.51-1.511 1.512 1.512 0 0 0-1.51-1.51 1.512 1.512 0 0 0-1.511 1.511z" data-name="합치기 7" transform="translate(-42.885 5345)"/>
    </g>
</svg>
