<svg xmlns="http://www.w3.org/2000/svg" width="24" height="24" viewBox="0 0 24 24">
    <g id="icon-camera" transform="translate(-161 -323)">
        <path id="Rectangle_81" fill="none" d="M0 0H24V24H0z" data-name="Rectangle 81" transform="translate(161 323)"/>
        <path id="Union_6" fill="#414853" d="M-3922.242-1838.6a1.76 1.76 0 0 1-1.758-1.757v-10.157a1.76 1.76 0 0 1 1.758-1.757h3.388l.436-2.183a1.174 1.174 0 0 1 1.148-.941h6.54a1.176 1.176 0 0 1 1.149.941l.436 2.183h3.386a1.759 1.759 0 0 1 1.758 1.757v10.157a1.759 1.759 0 0 1-1.758 1.757zm-.586-11.914v10.157a.587.587 0 0 0 .586.586h16.484a.587.587 0 0 0 .586-.586v-10.157a.587.587 0 0 0-.586-.586h-16.484a.587.587 0 0 0-.586.584zm5.168-1.757h7.32l-.39-1.954h-6.54zm-.676 6.835a4.34 4.34 0 0 1 4.336-4.335 4.341 4.341 0 0 1 4.336 4.335 4.341 4.341 0 0 1-4.336 4.336 4.34 4.34 0 0 1-4.336-4.337zm1.172 0a3.168 3.168 0 0 0 3.164 3.164 3.168 3.168 0 0 0 3.164-3.164 3.167 3.167 0 0 0-3.164-3.164 3.167 3.167 0 0 0-3.164 3.163zm-3.711-3.164a.585.585 0 0 1-.586-.585.585.585 0 0 1 .586-.586h1.875a.585.585 0 0 1 .586.586.585.585 0 0 1-.586.585z" data-name="Union 6" transform="translate(4087 2182.397)"/>
    </g>
</svg>
