<svg xmlns="http://www.w3.org/2000/svg" width="24" height="24" viewBox="0 0 24 24">
    <g id="menu" transform="rotate(180 12 12)">
        <path id="사각형_7" fill="none" d="M0 0H24V24H0z" data-name="사각형 7"/>
        <path id="menu-2" fill="#e60262" d="M1.025 14.359a1.084 1.084 0 0 1 0-2.166h13.95a1.084 1.084 0 0 1 0 2.166zm.057-6.143a1.083 1.083 0 0 1 0-2.166h8.662a1.083 1.083 0 0 1 0 2.166zm-.057-6.051A1.055 1.055 0 0 1 0 1.082 1.055 1.055 0 0 1 1.025 0h13.95A1.055 1.055 0 0 1 16 1.082a1.055 1.055 0 0 1-1.025 1.083z" data-name="menu" transform="translate(4 5)"/>
    </g>
</svg>
