<svg xmlns="http://www.w3.org/2000/svg" width="24" height="24" viewBox="0 0 24 24">
    <path id="icon-profile" fill="#414853" d="M12 0a11.99 11.99 0 0 0-6.508 22.068.917.917 0 0 0 .354.216A11.993 11.993 0 1 0 12 0zm0 22.142a10.089 10.089 0 0 1-4.865-1.247 4.575 4.575 0 0 1 4.846-3.986 4.573 4.573 0 0 1 4.848 4.007A10.077 10.077 0 0 1 12 22.142zM9.146 11.656A2.854 2.854 0 1 1 12 14.51a2.857 2.857 0 0 1-2.854-2.854zm9.371 8.1a6.235 6.235 0 0 0-3.851-4.223 4.713 4.713 0 1 0-5.345-.008 6.234 6.234 0 0 0-3.87 4.205 10.14 10.14 0 1 1 13.065.026z"/>
</svg>
