<svg xmlns="http://www.w3.org/2000/svg" width="16" height="16" viewBox="0 0 16 16">
    <path id="icon-time-s" fill="#a8b0bc" d="M-138-786a8 8 0 0 1 8-8 8.009 8.009 0 0 1 8 8 8 8 0 0 1-8 8 8 8 0 0 1-8-8zm1.143 0a6.857 6.857 0 0 0 6.857 6.857 6.865 6.865 0 0 0 6.857-6.857 6.857 6.857 0 0 0-6.857-6.857 6.857 6.857 0 0 0-6.857 6.857zm2.286.571a.571.571 0 0 1-.571-.571.571.571 0 0 1 .571-.571h4v-4a.571.571 0 0 1 .571-.571.571.571 0 0 1 .571.571V-786a.571.571 0 0 1-.571.571z" opacity="0.999" transform="translate(138 794)"/>
</svg>
