<svg xmlns="http://www.w3.org/2000/svg" width="24" height="24.001" viewBox="0 0 24 24.001">
    <path id="icon-play" fill="#414853" d="M25.389-1067.64a11.919 11.919 0 0 1-3.514-8.485 11.921 11.921 0 0 1 3.514-8.485 11.918 11.918 0 0 1 8.486-3.515 11.918 11.918 0 0 1 8.485 3.515 11.915 11.915 0 0 1 3.515 8.485 11.914 11.914 0 0 1-3.516 8.486 11.911 11.911 0 0 1-8.484 3.515 11.914 11.914 0 0 1-8.486-3.516zm1.193-15.778a10.246 10.246 0 0 0-3.018 7.293 10.345 10.345 0 0 0 3.019 7.293 10.243 10.243 0 0 0 7.292 3.018 10.238 10.238 0 0 0 7.292-3.019 10.341 10.341 0 0 0 3.019-7.292 10.242 10.242 0 0 0-3.019-7.293 10.24 10.24 0 0 0-7.292-3.018 10.243 10.243 0 0 0-7.293 3.018zm2.879 13.346a1.689 1.689 0 0 1-.489-1.189v-9.868c.016-.079.023-.128.029-.175a.972.972 0 0 1 .034-.176c.026-.054.041-.094.057-.137a.976.976 0 0 1 .132-.265 1.78 1.78 0 0 1 1.026-.78 1.708 1.708 0 0 1 1.286.183l8.424 4.862a1.117 1.117 0 0 1 .309.217l.087.1a2.76 2.76 0 0 0 .194.242l.019.024a1.587 1.587 0 0 1 .183 1.285 1.7 1.7 0 0 1-.729 1l-.036.02a.166.166 0 0 1-.045.023l-8.38 4.824a1.811 1.811 0 0 1-.4.2 1.431 1.431 0 0 1-.51.1 1.687 1.687 0 0 1-1.191-.49zm1.258-1.193h.005a.15.15 0 0 1 .053-.027l4.166-2.42 4.162-2.434-8.386-4.83z" transform="translate(-21.875 1088.125)"/>
</svg>
