<svg xmlns="http://www.w3.org/2000/svg" width="24" height="24" viewBox="0 0 24 24">
    <path id="icon-list" fill="#414853" d="M-135.428-770a2.571 2.571 0 0 1-2.572-2.571v-18.857a2.571 2.571 0 0 1 2.572-2.572h18.857a2.571 2.571 0 0 1 2.571 2.572v18.857a2.571 2.571 0 0 1-2.571 2.571zm-.857-21.429v18.857a.857.857 0 0 0 .857.857h18.857a.857.857 0 0 0 .857-.857v-18.857a.857.857 0 0 0-.857-.857h-18.857a.857.857 0 0 0-.857.858zm9.429 16.286a.857.857 0 0 1-.857-.857.857.857 0 0 1 .857-.857h7.714a.857.857 0 0 1 .857.857.857.857 0 0 1-.857.857zm-6 0a.857.857 0 0 1-.857-.857.857.857 0 0 1 .857-.857h2.571a.857.857 0 0 1 .857.857.857.857 0 0 1-.857.857zm6-6a.857.857 0 0 1-.857-.857.857.857 0 0 1 .857-.857h7.714a.857.857 0 0 1 .857.857.857.857 0 0 1-.857.857zm-6 0a.857.857 0 0 1-.857-.857.857.857 0 0 1 .857-.857h2.571a.857.857 0 0 1 .857.857.857.857 0 0 1-.857.857zm6-6a.857.857 0 0 1-.857-.857.857.857 0 0 1 .857-.857h7.714a.857.857 0 0 1 .857.857.857.857 0 0 1-.857.857zm-6 0a.857.857 0 0 1-.857-.857.857.857 0 0 1 .857-.857h2.571a.857.857 0 0 1 .857.857.857.857 0 0 1-.857.857z" transform="translate(138 794)"/>
</svg>
