<svg xmlns="http://www.w3.org/2000/svg" width="24" height="24" viewBox="0 0 24 24">
    <path id="icon-calendar" fill="#414853" d="M60.571-778A2.571 2.571 0 0 1 58-780.571v-16.286a2.571 2.571 0 0 1 2.571-2.571h2.571v-1.714A.857.857 0 0 1 64-802a.857.857 0 0 1 .857.857v1.714h10.285v-1.714A.857.857 0 0 1 76-802a.857.857 0 0 1 .857.857v1.714h2.571A2.571 2.571 0 0 1 82-796.857v16.286A2.571 2.571 0 0 1 79.428-778zm-.857-2.571a.857.857 0 0 0 .857.857h18.857a.857.857 0 0 0 .857-.857v-11.143H59.714zm0-16.286v3.429h20.571v-3.429a.857.857 0 0 0-.857-.857h-2.571V-796a.857.857 0 0 1-.857.857.857.857 0 0 1-.857-.857v-1.714H64.857V-796a.857.857 0 0 1-.857.857.857.857 0 0 1-.857-.857v-1.714h-2.572a.857.857 0 0 0-.857.857zm15.429 15.429a.857.857 0 0 1-.857-.857.857.857 0 0 1 .857-.857h1.714a.857.857 0 0 1 .857.857.857.857 0 0 1-.857.857zm-6 0a.857.857 0 0 1-.857-.857.857.857 0 0 1 .857-.857h1.714a.857.857 0 0 1 .857.857.857.857 0 0 1-.857.857zm-6 0a.857.857 0 0 1-.857-.857.857.857 0 0 1 .857-.857h1.714a.857.857 0 0 1 .857.857.857.857 0 0 1-.857.857zm12-3.429a.857.857 0 0 1-.857-.857.857.857 0 0 1 .857-.857h1.714a.857.857 0 0 1 .857.857.857.857 0 0 1-.857.857zm-6 0a.857.857 0 0 1-.857-.857.857.857 0 0 1 .857-.857h1.714a.857.857 0 0 1 .857.857.857.857 0 0 1-.857.857zm-6 0a.857.857 0 0 1-.857-.857.857.857 0 0 1 .857-.857h1.714a.857.857 0 0 1 .857.857.857.857 0 0 1-.857.857zm12-3.429a.857.857 0 0 1-.857-.857.857.857 0 0 1 .857-.857h1.714a.857.857 0 0 1 .857.857.857.857 0 0 1-.857.857zm-6 0a.857.857 0 0 1-.857-.857.857.857 0 0 1 .857-.857h1.714a.857.857 0 0 1 .857.857.857.857 0 0 1-.857.857zm-6 0a.857.857 0 0 1-.857-.857.857.857 0 0 1 .857-.857h1.714a.857.857 0 0 1 .857.857.857.857 0 0 1-.857.857z" transform="translate(-58 802)"/>
</svg>
