<svg xmlns="http://www.w3.org/2000/svg" width="16" height="16" viewBox="0 0 16 16">
    <g id="icon-book" transform="translate(-51 -204)">
        <path id="사각형_76" fill="none" d="M0 0H16V16H0z" data-name="사각형 76" transform="translate(51 204)"/>
        <path id="합치기_3" fill="#c9d0d8" d="M-3149.75-1938a2.252 2.252 0 0 1-2.25-2.25v-11.687a2.065 2.065 0 0 1 2.063-2.063h8.937a.5.5 0 0 1 .5.5v11.5a.5.5 0 0 1-.5.5h-8.75a1.252 1.252 0 0 0-1.25 1.25 1.251 1.251 0 0 0 1.25 1.25h8.75a.5.5 0 0 1 .5.5.5.5 0 0 1-.5.5zm-1.25-13.937v9.817a2.24 2.24 0 0 1 1.25-.38v-10.5h-.187a1.064 1.064 0 0 0-1.063 1.063zm2.25 9.437h7.25v-10.5h-7.25zm-1 2.75a.5.5 0 0 1-.5-.5.5.5 0 0 1 .5-.5h8.75a.5.5 0 0 1 .5.5.5.5 0 0 1-.5.5z" data-name="합치기 3" transform="translate(3205 2158)"/>
    </g>
</svg>
