<svg xmlns="http://www.w3.org/2000/svg" width="24" height="24" viewBox="0 0 24 24">
    <path id="icon-time" fill="#414853" d="M-138-782a12 12 0 0 1 12-12 12.013 12.013 0 0 1 12 12 12 12 0 0 1-12 12 12 12 0 0 1-12-12zm1.714 0A10.286 10.286 0 0 0-126-771.714 10.3 10.3 0 0 0-115.714-782 10.286 10.286 0 0 0-126-792.286 10.286 10.286 0 0 0-136.285-782zm3.429.857a.857.857 0 0 1-.857-.857.857.857 0 0 1 .857-.857h6v-6a.857.857 0 0 1 .857-.857.857.857 0 0 1 .857.857V-782a.857.857 0 0 1-.857.857z" transform="translate(138 794)"/>
</svg>
