<svg xmlns="http://www.w3.org/2000/svg" width="24" height="24" viewBox="0 0 24 24">
    <g id="icon-book" transform="translate(-207.434 -206.684)">
        <path id="사각형_13" fill="none" d="M0 0H24V24H0z" data-name="사각형 13" transform="translate(207.434 206.684)"/>
        <path id="패스_45" fill="#414853" d="M229.781 211.031a10.2 10.2 0 0 0-10.348-.265 10.2 10.2 0 0 0-10.348.265.769.769 0 0 0-.367.648V227.1a.774.774 0 0 0 .435.687.867.867 0 0 0 .847-.039 8.468 8.468 0 0 1 8.975 0c.011.007.023.008.034.015a.407.407 0 0 0 .035.024c.029.012.058.022.088.03a.644.644 0 0 0 .092.033.886.886 0 0 0 .138.02c.024 0 .046.009.07.009h.021a.741.741 0 0 0 .082-.01.849.849 0 0 0 .124-.021.787.787 0 0 0 .083-.031.74.74 0 0 0 .078-.028c.012-.006.021-.016.032-.022s.024-.01.036-.016a8.469 8.469 0 0 1 8.976 0 .854.854 0 0 0 1.144-.212.75.75 0 0 0 .14-.439v-15.421a.769.769 0 0 0-.367-.648zm-11.172 14.739a10.227 10.227 0 0 0-8.242 0v-13.661a8.477 8.477 0 0 1 8.242 0zm9.89 0a10.227 10.227 0 0 0-8.242 0v-13.661a8.477 8.477 0 0 1 8.242 0z" data-name="패스 45"/>
    </g>
</svg>
