<svg xmlns="http://www.w3.org/2000/svg" width="24" height="24" viewBox="0 0 24 24">
    <g id="icon-img-disabled" transform="translate(-197 -361)">
        <path id="사각형_81" fill="none" d="M0 0H24V24H0z" data-name="사각형 81" transform="translate(197 361)"/>
        <path id="합치기_5" fill="#c9d0d8" d="M-3988.409-1915.023h-13.181a3.177 3.177 0 0 1-2.274-.932 3.271 3.271 0 0 1-.931-2.272v-13.567a3.175 3.175 0 0 1 .931-2.273 3.276 3.276 0 0 1 2.274-.932h13.181a3.176 3.176 0 0 1 2.273.932 3.272 3.272 0 0 1 .931 2.273v13.59a3.174 3.174 0 0 1-.931 2.273 3.275 3.275 0 0 1-2.273.932zm-15.158-6.021v2.839a2.014 2.014 0 0 0 .568 1.41 2 2 0 0 0 1.409.59h13.181a2 2 0 0 0 1.409-.59 1.994 1.994 0 0 0 .591-1.41v-4.772l-3.773-3.773-5.068 5.092a.633.633 0 0 1-.864 0l-3.43-3.432zm.568-12.137a1.922 1.922 0 0 0-.568 1.387v9.021l3.591-3.612a.608.608 0 0 1 .862 0l3.432 3.43 5.069-5.09a.609.609 0 0 1 .863 0l3.341 3.363v-7.091a1.993 1.993 0 0 0-.591-1.409 2 2 0 0 0-1.409-.591h-13.181a2 2 0 0 0-1.41.591zm5.568 5.022a1.637 1.637 0 0 1 1.637-1.636 1.636 1.636 0 0 1 1.635 1.636 1.636 1.636 0 0 1-1.635 1.637 1.637 1.637 0 0 1-1.638-1.637z" data-name="합치기 5" transform="translate(4203.795 2298)"/>
    </g>
</svg>
