<svg xmlns="http://www.w3.org/2000/svg" width="36" height="36" viewBox="0 0 36 36">
    <g id="icon-up" transform="translate(0 -.038)">
        <path id="_36_36" fill="none" d="M0 0H36V36H0z" data-name="36*36" transform="translate(0 .038)"/>
        <path id="패스_120" fill="#a8b0bc" d="M.887 12a.88.88 0 0 1-.628-.26.891.891 0 0 1 0-1.255L4.746 6 .259 1.51A.888.888 0 0 1 .877 0a.9.9 0 0 1 .632.249l5.12 5.121a.888.888 0 0 1 0 1.255L1.514 11.74a.882.882 0 0 1-.627.26z" data-name="패스 120" transform="rotate(-90 16.945 4.944)"/>
    </g>
</svg>
