<svg xmlns="http://www.w3.org/2000/svg" width="16" height="16" viewBox="0 0 16 16">
    <g id="icon-baby-color" transform="translate(-20 -806)">
        <path id="사각형_99" fill="none" d="M0 0H16V16H0z" data-name="사각형 99" transform="translate(20 806)"/>
        <path id="합치기_8" fill="#ebb58c" d="M1.69 10.045a2.083 2.083 0 0 1 0-4.091 6.568 6.568 0 0 1 .529-1.206 1.545 1.545 0 0 1 .245-1.865A1.609 1.609 0 0 1 2.6 2.76c-.05-.041-.1-.082-.137-.123A1.545 1.545 0 0 1 4.649.452c.041.042.083.088.123.137.041-.049.082-.1.123-.137a1.544 1.544 0 0 1 2.628.934q.237-.018.477-.018a6.643 6.643 0 0 1 6.31 4.586 2.083 2.083 0 0 1 0 4.091 6.633 6.633 0 0 1-12.619 0zm.81-3.536l-.092.339-.352.007A1.143 1.143 0 0 0 .937 8 1.15 1.15 0 0 0 2.06 9.144l.352.007.088.339a5.7 5.7 0 0 0 10.993 0l.092-.339.352-.007a1.145 1.145 0 0 0 .787-1.954 1.135 1.135 0 0 0-.787-.334l-.352-.007-.085-.34a5.691 5.691 0 0 0-6.191-4.16 1.55 1.55 0 0 1-.226.288c-.041.041-.087.083-.137.123a1.6 1.6 0 0 1 .137.123A1.545 1.545 0 0 1 4.9 5.067a1.8 1.8 0 0 1-.123-.137 1.8 1.8 0 0 1-.123.137 1.548 1.548 0 0 1-1.711.323A5.652 5.652 0 0 0 2.5 6.509zm3.365-2.657a1.562 1.562 0 0 1-.478.326 1.329 1.329 0 0 0 .172.227.607.607 0 0 0 .859-.859 1.3 1.3 0 0 0-.227-.172 1.544 1.544 0 0 1-.326.478zm-2.737-.307a.607.607 0 1 0 .859.859 1.329 1.329 0 0 0 .172-.227 1.564 1.564 0 0 1-.478-.326 1.534 1.534 0 0 1-.325-.479 1.3 1.3 0 0 0-.228.173zM4.343 2.33a.607.607 0 0 0 .859.858.607.607 0 0 0-.859-.858zM3.128 1.115a.607.607 0 0 0 0 .858 1.254 1.254 0 0 0 .227.172 1.542 1.542 0 0 1 .8-.8 1.272 1.272 0 0 0-.172-.227.607.607 0 0 0-.859 0zm2.431 0a1.256 1.256 0 0 0-.172.227 1.548 1.548 0 0 1 .8.8 1.3 1.3 0 0 0 .227-.172.607.607 0 0 0-.859-.858zm.184 9.462l.807-.477a1.683 1.683 0 0 0 2.9 0l.807.477a2.62 2.62 0 0 1-4.516 0zm.175-2.391a.607.607 0 0 0-1.214 0h-.938A1.537 1.537 0 0 1 4.2 7.111a1.541 1.541 0 0 1-.438-1.076H4.7a.608.608 0 0 0 .607.607 1.546 1.546 0 0 1 1.548 1.545zm5.379 0a.607.607 0 0 0-1.214 0h-.938a1.546 1.546 0 0 1 1.545-1.543.608.608 0 0 0 .607-.607h.937a1.541 1.541 0 0 1-.434 1.075 1.537 1.537 0 0 1 .438 1.075z" data-name="합치기 8" transform="translate(20 807)"/>
    </g>
</svg>
