<svg xmlns="http://www.w3.org/2000/svg" width="16" height="16" viewBox="0 0 16 16">
    <path id="icon-calendar-s" fill="#a8b0bc" d="M59.714-786A1.714 1.714 0 0 1 58-787.714v-10.857a1.714 1.714 0 0 1 1.714-1.714h1.714v-1.143A.571.571 0 0 1 62-802a.571.571 0 0 1 .571.571v1.143h6.857v-1.143A.571.571 0 0 1 70-802a.571.571 0 0 1 .571.571v1.143h1.714A1.714 1.714 0 0 1 74-798.571v10.857A1.714 1.714 0 0 1 72.285-786zm-.571-1.714a.571.571 0 0 0 .571.571h12.571a.571.571 0 0 0 .571-.571v-7.429H59.142zm0-10.857v2.286h13.714v-2.286a.571.571 0 0 0-.571-.572h-1.715V-798a.571.571 0 0 1-.571.571.571.571 0 0 1-.571-.571v-1.143h-6.858V-798a.571.571 0 0 1-.571.571.571.571 0 0 1-.571-.571v-1.143h-1.715a.571.571 0 0 0-.572.572zm10.286 10.286a.571.571 0 0 1-.571-.571.571.571 0 0 1 .571-.572h1.143a.571.571 0 0 1 .571.572.571.571 0 0 1-.571.571zm-4 0a.571.571 0 0 1-.571-.571.571.571 0 0 1 .571-.572h1.143a.571.571 0 0 1 .571.572.571.571 0 0 1-.571.571zm-4 0a.571.571 0 0 1-.571-.571.571.571 0 0 1 .571-.572h1.143a.571.571 0 0 1 .571.572.571.571 0 0 1-.571.571zm8-2.286a.571.571 0 0 1-.571-.571.571.571 0 0 1 .571-.571h1.143a.571.571 0 0 1 .571.571.571.571 0 0 1-.571.571zm-4 0a.571.571 0 0 1-.571-.571.571.571 0 0 1 .571-.571h1.143a.571.571 0 0 1 .571.571.571.571 0 0 1-.571.571zm-4 0a.571.571 0 0 1-.571-.571.571.571 0 0 1 .571-.571h1.143a.571.571 0 0 1 .571.571.571.571 0 0 1-.571.571zm8-2.286a.571.571 0 0 1-.571-.572.571.571 0 0 1 .571-.571h1.143a.571.571 0 0 1 .571.571.571.571 0 0 1-.571.572zm-4 0a.571.571 0 0 1-.571-.572.571.571 0 0 1 .571-.571h1.143a.571.571 0 0 1 .571.571.571.571 0 0 1-.571.572zm-4 0a.571.571 0 0 1-.571-.572.571.571 0 0 1 .571-.571h1.143a.571.571 0 0 1 .571.571.571.571 0 0 1-.571.572z" transform="translate(-58 802)"/>
</svg>
