<svg xmlns="http://www.w3.org/2000/svg" width="24" height="24" viewBox="0 0 24 24">
    <g id="next-inactive" transform="translate(-401 -215)">
        <path id="사각형_67" fill="none" d="M0 0H24V24H0z" data-name="사각형 67" transform="translate(401 215)"/>
        <path id="패스_96" fill="#e3e8eb" d="M215.184 220.759a.88.88 0 0 1-.628-.26.891.891 0 0 1 0-1.255l4.488-4.487-4.487-4.487a.888.888 0 0 1 .618-1.51.9.9 0 0 1 .632.249l5.121 5.121a.888.888 0 0 1 0 1.255l-5.115 5.115a.882.882 0 0 1-.629.259z" data-name="패스 96" transform="translate(195.702 12.241)"/>
    </g>
</svg>
