<svg xmlns="http://www.w3.org/2000/svg" width="12" height="12" viewBox="0 0 12 12">
    <path id="icon-time" fill="#c9d0d8" d="M58-3830a6 6 0 0 1 6-6 6.006 6.006 0 0 1 6 6 6 6 0 0 1-6 6 6 6 0 0 1-6-6zm.857 0a5.143 5.143 0 0 0 5.143 5.143 5.149 5.149 0 0 0 5.143-5.143 5.143 5.143 0 0 0-5.143-5.143 5.143 5.143 0 0 0-5.143 5.143zm1.714.428a.429.429 0 0 1-.429-.428.429.429 0 0 1 .429-.429h3v-3a.429.429 0 0 1 .429-.428.429.429 0 0 1 .429.428v3.429a.429.429 0 0 1-.429.428z" transform="translate(-58 3836)"/>
</svg>
