<svg xmlns="http://www.w3.org/2000/svg" width="24" height="24" viewBox="0 0 24 24">
    <path id="icon-folder" fill="#414853" d="M21.429 2.571h-9.668L11.1.586A.857.857 0 0 0 10.286 0H2.571A2.571 2.571 0 0 0 0 2.571v18.858A2.571 2.571 0 0 0 2.571 24h18.858A2.571 2.571 0 0 0 24 21.429V5.143a2.571 2.571 0 0 0-2.571-2.572zm.857 18.857a.857.857 0 0 1-.857.857H2.571a.857.857 0 0 1-.857-.857V8.571h20.572zm0-14.571H1.714V2.571a.857.857 0 0 1 .857-.857h7.1l.658 1.986a.857.857 0 0 0 .813.586h10.287a.857.857 0 0 1 .857.857z"/>
</svg>
