<svg xmlns="http://www.w3.org/2000/svg" width="48" height="48" viewBox="0 0 48 48">
    <path id="icon-_avatar" fill="#fff" d="M40.971 7.029A24 24 0 0 0 7.029 40.971 24 24 0 0 0 40.971 7.029zM12.032 41.474a12.153 12.153 0 0 1 23.936 0 21.142 21.142 0 0 1-23.936 0zm4.337-20.486A7.631 7.631 0 1 1 24 28.619a7.639 7.639 0 0 1-7.631-7.631zM38.4 39.523a14.989 14.989 0 0 0-8.714-9.783 10.444 10.444 0 1 0-11.381 0A14.987 14.987 0 0 0 9.6 39.523a21.187 21.187 0 1 1 28.808 0z" data-name="icon- avatar"/>
</svg>
