<svg xmlns="http://www.w3.org/2000/svg" width="24" height="24" viewBox="0 0 24 24">
    <g id="icon-mic-disabled" transform="translate(-160 -406)">
        <path id="사각형_81" fill="none" d="M0 0H24V24H0z" data-name="사각형 81" transform="translate(160 406)"/>
        <path id="합치기_4" fill="#c9d0d8" stroke="rgba(0,0,0,0)" stroke-miterlimit="10" d="M3.087 20a.586.586 0 0 1 0-1.172h3.164v-2.644A6.844 6.844 0 0 1 0 9.375a.587.587 0 1 1 1.174 0 5.663 5.663 0 0 0 11.327 0 .587.587 0 1 1 1.173 0 6.844 6.844 0 0 1-6.251 6.81v2.643h3.164a.586.586 0 0 1 0 1.172zM6.6 13.711a4.106 4.106 0 0 1-4.1-4.1V4.132A4.125 4.125 0 0 1 6.6 0h.47a4.125 4.125 0 0 1 4.1 4.14v5.469a4.106 4.106 0 0 1-4.1 4.1zm0-1.173h.47a2.932 2.932 0 0 0 2.908-2.577h-.953a.587.587 0 0 1 0-1.173H10V7.461H8.4a.586.586 0 1 1 0-1.172H10V4.961h-.975a.587.587 0 0 1 0-1.173h.954A2.946 2.946 0 0 0 7.07 1.172H6.6a2.946 2.946 0 0 0-2.9 2.616h.954a.587.587 0 0 1 0 1.173h-.981v1.328h1.6a.586.586 0 1 1 0 1.172h-1.6v1.327h.976a.587.587 0 0 1 0 1.173H3.7a2.931 2.931 0 0 0 2.9 2.577z" data-name="합치기 4" transform="translate(165 408)"/>
    </g>
</svg>
