<svg xmlns="http://www.w3.org/2000/svg" width="12" height="12" viewBox="0 0 12 12">
    <path id="icon-certificate" fill="#c9d0d8" d="M85.344-3854.059l-.86-.573-.86.573a.352.352 0 0 1-.361.018.352.352 0 0 1-.186-.31v-2.343a2.11 2.11 0 0 1-.165-.165h-5.858a1.056 1.056 0 0 1-1.054-1.055v-7.031a1.056 1.056 0 0 1 1.054-1.055h9.891a1.056 1.056 0 0 1 1.055 1.054v7.031a1.056 1.056 0 0 1-1.055 1.055h-.89a2.106 2.106 0 0 1-.165.165v2.343a.352.352 0 0 1-.186.31.351.351 0 0 1-.166.042.351.351 0 0 1-.194-.059zm-.665-1.288l.508.339v-1.269a2.1 2.1 0 0 1-.7.121 2.1 2.1 0 0 1-.7-.121v1.269l.508-.339a.352.352 0 0 1 .2-.059.352.352 0 0 1 .184.059zm-1.6-2.918a1.408 1.408 0 0 0 1.406 1.406 1.408 1.408 0 0 0 1.406-1.406 1.408 1.408 0 0 0-1.406-1.406 1.408 1.408 0 0 0-1.407 1.405zm1.758-6.328a.352.352 0 0 1 .352.352 1.056 1.056 0 0 0 1.055 1.055.352.352 0 0 1 .352.352v2.813a.351.351 0 0 1-.352.352 1.087 1.087 0 0 0-.174.014 2.1 2.1 0 0 1 .526 1.392 2.1 2.1 0 0 1-.121.7h.472a.352.352 0 0 0 .352-.352v-7.031a.352.352 0 0 0-.352-.352h-9.893a.352.352 0 0 0-.352.352v7.031a.352.352 0 0 0 .352.352H82.5a2.1 2.1 0 0 1-.121-.7h-3.215a.351.351 0 0 1-.352-.352 1.056 1.056 0 0 0-1.055-1.055.351.351 0 0 1-.352-.352v-2.812a.352.352 0 0 1 .352-.352 1.056 1.056 0 0 0 1.055-1.055.352.352 0 0 1 .352-.352zm-6.727 2.074v2.18a1.763 1.763 0 0 1 1.371 1.371H82.5a2.113 2.113 0 0 1 1.989-1.406 2.1 2.1 0 0 1 .921.212 1.728 1.728 0 0 1 .485-.177v-2.18a1.764 1.764 0 0 1-1.371-1.371H79.48a1.764 1.764 0 0 1-1.371 1.37zm2.461 2.848a.351.351 0 0 1-.352-.352.352.352 0 0 1 .352-.352h1.453a.352.352 0 0 1 .352.352.351.351 0 0 1-.352.352zm-1.406-1.406a.351.351 0 0 1-.352-.352.352.352 0 0 1 .352-.352h5.672a.352.352 0 0 1 .352.352.351.351 0 0 1-.352.352zm1.406-1.406a.351.351 0 0 1-.352-.352.352.352 0 0 1 .352-.352h2.859a.352.352 0 0 1 .352.352.351.351 0 0 1-.352.352z" transform="translate(-76 3866)"/>
</svg>
