<svg xmlns="http://www.w3.org/2000/svg" width="13" height="12.473" viewBox="0 0 13 12.473">
    <g id="icon-baby" transform="translate(-19.5 -806)">
        <path id="사각형_99" fill="none" d="M0 0H12V12H0z" data-name="사각형 99" transform="translate(20 806)"/>
        <path id="합치기_8" fill="#c9d0d8" stroke="rgba(0,0,0,0)" stroke-miterlimit="10" d="M139.267-4264.566a1.551 1.551 0 0 1-.82-.439 1.554 1.554 0 0 1-.447-1.095 1.551 1.551 0 0 1 .457-1.1 1.551 1.551 0 0 1 .811-.43 4.925 4.925 0 0 1 .4-.9 1.152 1.152 0 0 1-.155-.58 1.151 1.151 0 0 1 .339-.819 1.3 1.3 0 0 1 .1-.092c-.037-.03-.072-.062-.1-.092a1.16 1.16 0 0 1 0-1.639 1.151 1.151 0 0 1 .819-.339 1.151 1.151 0 0 1 .819.339c.031.031.062.066.092.1.03-.037.061-.072.092-.1a1.16 1.16 0 0 1 1.638 0 1.153 1.153 0 0 1 .333.7q.177-.012.358-.013a4.982 4.982 0 0 1 4.732 3.439 1.552 1.552 0 0 1 .81.429 1.552 1.552 0 0 1 .458 1.1 1.554 1.554 0 0 1-.447 1.095 1.551 1.551 0 0 1-.82.439 4.982 4.982 0 0 1-4.732 3.439 4.982 4.982 0 0 1-4.737-3.442zm.61-2.652l-.069.254-.264.005a.853.853 0 0 0-.59.251.854.854 0 0 0-.251.607.862.862 0 0 0 .842.858l.264.005.069.254a4.277 4.277 0 0 0 4.122 3.154 4.277 4.277 0 0 0 4.122-3.152l.069-.254.264-.005a.862.862 0 0 0 .842-.858.855.855 0 0 0-.252-.607.854.854 0 0 0-.59-.25l-.264-.005-.069-.254a4.277 4.277 0 0 0-4.122-3.155 4.274 4.274 0 0 0-.521.032 1.161 1.161 0 0 1-.169.216c-.031.031-.066.062-.1.092a1.288 1.288 0 0 1 .1.092 1.16 1.16 0 0 1 0 1.638 1.154 1.154 0 0 1-.819.339 1.154 1.154 0 0 1-.819-.339 1.331 1.331 0 0 1-.092-.1 1.324 1.324 0 0 1-.092.1 1.161 1.161 0 0 1-1.283.242 4.236 4.236 0 0 0-.328.84zm2.521-1.993a1.163 1.163 0 0 1-.359.245.987.987 0 0 0 .129.17.456.456 0 0 0 .644 0 .456.456 0 0 0 0-.644.972.972 0 0 0-.17-.129 1.155 1.155 0 0 1-.242.358zm-2.053-.229a.456.456 0 0 0 0 .644.456.456 0 0 0 .644 0 .987.987 0 0 0 .129-.17 1.164 1.164 0 0 1-.359-.245 1.148 1.148 0 0 1-.244-.359.973.973 0 0 0-.17.13zm.911-.912a.456.456 0 0 0 0 .644.453.453 0 0 0 .322.133.453.453 0 0 0 .322-.133.452.452 0 0 0 .133-.322.454.454 0 0 0-.133-.322.453.453 0 0 0-.322-.133.453.453 0 0 0-.321.133zm-.911-.911a.455.455 0 0 0 0 .644.952.952 0 0 0 .171.129 1.153 1.153 0 0 1 .244-.359 1.154 1.154 0 0 1 .359-.244.968.968 0 0 0-.129-.17.454.454 0 0 0-.322-.133.454.454 0 0 0-.323.133zm1.823 0a.951.951 0 0 0-.129.17 1.153 1.153 0 0 1 .359.244 1.156 1.156 0 0 1 .244.359.971.971 0 0 0 .17-.129.455.455 0 0 0 0-.644.454.454 0 0 0-.322-.133.454.454 0 0 0-.322.133zm.138 7.1l.606-.357a1.269 1.269 0 0 0 1.088.622 1.268 1.268 0 0 0 1.088-.622l.606.357a1.975 1.975 0 0 1-1.693.968 1.975 1.975 0 0 1-1.695-.972zm.131-1.793a.456.456 0 0 0-.455-.455.456.456 0 0 0-.455.455h-.7a1.154 1.154 0 0 1 .328-.807 1.155 1.155 0 0 1-.328-.807h.7a.456.456 0 0 0 .455.456 1.16 1.16 0 0 1 1.158 1.158zm4.035 0a.456.456 0 0 0-.455-.455.456.456 0 0 0-.455.455h-.7a1.16 1.16 0 0 1 1.158-1.158.456.456 0 0 0 .455-.456h.7a1.155 1.155 0 0 1-.328.807 1.153 1.153 0 0 1 .328.807z" data-name="합치기 8" transform="translate(-118 5079.1)"/>
    </g>
</svg>
