<svg xmlns="http://www.w3.org/2000/svg" width="16" height="15.999" viewBox="0 0 16 15.999">
    <g id="icon-review" transform="translate(-132 -394)">
        <path id="사각형_75" fill="none" d="M0 0H16V15.999H0z" data-name="사각형 75" transform="translate(132 394)"/>
        <path id="합치기_2" fill="#ebb58c" d="M2.692 13.39A1.177 1.177 0 0 1 2 12.309V11h-.564A1.439 1.439 0 0 1 0 9.563V1.437A1.439 1.439 0 0 1 1.436 0h13.126A1.439 1.439 0 0 1 16 1.437v8.126A1.44 1.44 0 0 1 14.562 11H6.205l-2.214 2.189-.026.023a1.183 1.183 0 0 1-1.273.177zM1 1.437v8.126a.438.438 0 0 0 .436.437H2.5a.5.5 0 0 1 .5.5v1.808a.183.183 0 0 0 .11.173.186.186 0 0 0 .194-.02l2.344-2.318A.5.5 0 0 1 6 10h8.563A.438.438 0 0 0 15 9.563V1.437A.437.437 0 0 0 14.562 1H1.436A.437.437 0 0 0 1 1.437zm4.7 7.469a.5.5 0 0 1-.2-.49l.341-2L4.4 4.993a.5.5 0 0 1 .278-.851l1.986-.292.887-1.82a.5.5 0 0 1 .9 0l.889 1.821 1.986.292a.5.5 0 0 1 .278.851l-1.44 1.419.339 2a.5.5 0 0 1-.494.587.512.512 0 0 1-.236-.059L8 8l-1.773.943a.5.5 0 0 1-.527-.037zm2.534-1.915l1.111.591-.214-1.259a.5.5 0 0 1 .143-.44l.909-.9L8.932 4.8a.5.5 0 0 1-.378-.276L8 3.39l-.555 1.136a.5.5 0 0 1-.377.276l-1.252.184.91.9a.5.5 0 0 1 .143.44l-.216 1.256 1.111-.591A.51.51 0 0 1 8 6.933a.5.5 0 0 1 .234.058z" data-name="합치기 2" transform="translate(132 395)"/>
    </g>
</svg>
