<svg xmlns="http://www.w3.org/2000/svg" width="12" height="12" viewBox="0 0 12 12">
    <path id="icon-keyword" fill="#c9d0d8" d="M158.308-3843.325l-2.3-2.246a.278.278 0 0 1-.084-.2.279.279 0 0 1 .082-.2l.321-.321-.45-.45v-.006a4.748 4.748 0 0 1-6.61-.29 4.748 4.748 0 0 1 .1-6.616 4.748 4.748 0 0 1 6.616-.1 4.748 4.748 0 0 1 .289 6.61h.006l.45.45.269-.269a.279.279 0 0 1 .391 0l2.3 2.249a.974.974 0 0 1 .254.94.974.974 0 0 1-.687.69.969.969 0 0 1-.254.034.974.974 0 0 1-.693-.275zm.311-.475l.08.078a.418.418 0 0 0 .3.125.417.417 0 0 0 .3-.122.417.417 0 0 0 0-.59l-.083-.081zm-2.019-1.971l1.621 1.585.59-.59-1.621-1.586zm-8.038-4.5a4.174 4.174 0 0 0 4.174 4.174 4.178 4.178 0 0 0 4.174-4.174 4.174 4.174 0 0 0-4.174-4.174 4.174 4.174 0 0 0-4.175 4.171zm.556 0a3.617 3.617 0 0 1 3.617-3.617 3.622 3.622 0 0 1 3.617 3.617 3.617 3.617 0 0 1-3.617 3.617 3.617 3.617 0 0 1-3.617-3.62zm.557 0a3.061 3.061 0 0 0 3.061 3.061 3.064 3.064 0 0 0 3.061-3.061 3.061 3.061 0 0 0-3.061-3.061 3.061 3.061 0 0 0-3.062 3.058zm1.978 1.516l-1.113-2.226a.278.278 0 0 1 .125-.373.278.278 0 0 1 .373.125l.826 1.655.611-1.628a.278.278 0 0 1 .261-.181.278.278 0 0 1 .261.181l.611 1.628.828-1.655a.279.279 0 0 1 .161-.14.279.279 0 0 1 .212.015.278.278 0 0 1 .126.372l-1.113 2.226a.279.279 0 0 1-.25.154h-.015a.278.278 0 0 1-.246-.18l-.574-1.53-.573 1.531a.278.278 0 0 1-.246.18h-.018a.275.275 0 0 1-.247-.158z" transform="translate(-147.969 3855.041)"/>
</svg>
