<svg xmlns="http://www.w3.org/2000/svg" width="12" height="12.001" viewBox="0 0 12 12.001">
    <path id="icon-star" fill="#c9d0d8" d="M11.8 4.273a.869.869 0 0 0-.529-.282l-3.19-.441L6.823.533a.866.866 0 0 0-1.6 0L3.962 3.549l-3.19.441A.869.869 0 0 0 .314 5.5l2.4 2.143L2.224 11a.867.867 0 0 0 1.344.845l2.455-1.67 2.455 1.671a.867.867 0 0 0 1.344-.845L9.33 7.642l2.4-2.143a.869.869 0 0 0 .07-1.226zM8.586 7.158a.429.429 0 0 0-.138.382l.514 3.6-2.7-1.833a.429.429 0 0 0-.482 0l-2.709 1.822.529-3.591a.429.429 0 0 0-.138-.381L.889 4.84l3.432-.474a.429.429 0 0 0 .337-.259L6.029.858a.019.019 0 0 1 0 .006l1.359 3.241a.429.429 0 0 0 .337.259l3.436.495z" transform="translate(-.023)"/>
</svg>
