<svg xmlns="http://www.w3.org/2000/svg" width="16" height="16" viewBox="0 0 16 16">
    <g id="icon-openbook" transform="translate(-40 -343)">
        <path id="_16_16" fill="none" d="M0 0H16V16H0z" data-name="16*16" transform="translate(40 343)"/>
        <path id="icon-openbook-2" fill="#ebb58c" d="M-3117.635-1808.905c-1.081-1.087-1.5-1-3.039-.656a12.941 12.941 0 0 1-2.858.383.469.469 0 0 1-.469-.469v-11.25a.469.469 0 0 1 .469-.469c1.765 0 3.218-.8 4.89-.571a4.878 4.878 0 0 1 2.641 1.331 4.878 4.878 0 0 1 2.641-1.331c1.672-.23 3.125.571 4.89.571a.469.469 0 0 1 .469.469v11.25a.469.469 0 0 1-.469.469 12.917 12.917 0 0 1-2.854-.382c-1.543-.34-1.958-.431-3.038.655a2.3 2.3 0 0 1-1.635.676 2.3 2.3 0 0 1-1.638-.676zm-1.217-1.79a3.392 3.392 0 0 1 1.882 1.129 1.378 1.378 0 0 0 1.94 0 3.39 3.39 0 0 1 1.881-1.129c1.116-.174 2.379.459 4.21.566v-.939c-2.668-.175-4.266-1.649-6.731.816a.47.47 0 0 1-.663 0c-2.465-2.465-4.063-.99-6.731-.816v.939c1.62-.094 2.784-.6 3.8-.6a2.626 2.626 0 0 1 .412.029zm3.321-9.066v8.142a4.572 4.572 0 0 1 2.172-.942c1.522-.209 2.858.435 4.421.553v-8.435c-1.481-.1-2.635-.6-3.791-.6a3.884 3.884 0 0 0-2.802 1.281zm-3.11 7.2a4.572 4.572 0 0 1 2.172.942v-8.142c-2.388-2.277-3.98-.853-6.594-.682v8.435c1.347-.1 2.525-.594 3.8-.594a4.567 4.567 0 0 1 .622.04zm4.144-1.589a.468.468 0 0 1 .087-.657 2.618 2.618 0 0 1 1.674-.607 15.276 15.276 0 0 1 2.448.427.469.469 0 0 1 .373.548.469.469 0 0 1-.548.373 16.239 16.239 0 0 0-2.273-.411 1.7 1.7 0 0 0-1.1.414.468.468 0 0 1-.285.1.467.467 0 0 1-.379-.187zm-3.663.087a1.7 1.7 0 0 0-1.1-.414 16.25 16.25 0 0 0-2.273.411.469.469 0 0 1-.548-.373.468.468 0 0 1 .373-.548 15.34 15.34 0 0 1 2.448-.427 2.62 2.62 0 0 1 1.675.607.469.469 0 0 1 .087.657.468.468 0 0 1-.373.184.466.466 0 0 1-.289-.097zm0-1.875a1.7 1.7 0 0 0-1.1-.414 16.2 16.2 0 0 0-2.273.411.469.469 0 0 1-.548-.373.468.468 0 0 1 .373-.548 15.313 15.313 0 0 1 2.448-.427 2.62 2.62 0 0 1 1.675.607.469.469 0 0 1 .087.657.468.468 0 0 1-.373.184.467.467 0 0 1-.289-.097zm3.663-.087a.468.468 0 0 1 .087-.657 2.618 2.618 0 0 1 1.674-.607 15.249 15.249 0 0 1 2.448.427.469.469 0 0 1 .373.548.469.469 0 0 1-.548.373 16.226 16.226 0 0 0-2.273-.411 1.7 1.7 0 0 0-1.1.414.47.47 0 0 1-.285.1.468.468 0 0 1-.379-.187zm0-1.875a.468.468 0 0 1 .087-.657 2.618 2.618 0 0 1 1.674-.607 15.249 15.249 0 0 1 2.448.427.469.469 0 0 1 .373.548.469.469 0 0 1-.548.373 16.226 16.226 0 0 0-2.273-.411 1.7 1.7 0 0 0-1.1.414.47.47 0 0 1-.285.1.468.468 0 0 1-.379-.187zm-3.663.087a1.7 1.7 0 0 0-1.1-.414 16.25 16.25 0 0 0-2.273.411.469.469 0 0 1-.548-.373.468.468 0 0 1 .373-.548c.292-.055.58-.119.833-.175h.008a7.74 7.74 0 0 1 1.607-.25 2.62 2.62 0 0 1 1.675.607.469.469 0 0 1 .087.657.468.468 0 0 1-.373.184.467.467 0 0 1-.289-.099z" data-name="icon-openbook" transform="translate(3164 2165.978)"/>
    </g>
</svg>
