<svg xmlns="http://www.w3.org/2000/svg" width="24" height="24" viewBox="0 0 24 24">
    <path id="icon-page" fill="#414853" d="M60.571-778A2.571 2.571 0 0 1 58-780.571v-18.857A2.571 2.571 0 0 1 60.571-802h18.857A2.571 2.571 0 0 1 82-799.429v18.857A2.571 2.571 0 0 1 79.428-778zm-.857-2.571a.857.857 0 0 0 .857.857h18.857a.857.857 0 0 0 .857-.857V-790H59.714zm0-18.857v7.714h20.571v-7.714a.857.857 0 0 0-.857-.857H60.571a.857.857 0 0 0-.857.856zm9.429 6a.857.857 0 0 1-.857-.857.857.857 0 0 1 .857-.857h8.571a.857.857 0 0 1 .857.857.857.857 0 0 1-.857.857zM61.428-796A2.571 2.571 0 0 1 64-798.571 2.571 2.571 0 0 1 66.571-796 2.571 2.571 0 0 1 64-793.429 2.571 2.571 0 0 1 61.428-796zm1.714 0a.857.857 0 0 0 .857.857.857.857 0 0 0 .857-.857.857.857 0 0 0-.857-.857.857.857 0 0 0-.857.857zm6-.857a.857.857 0 0 1-.857-.857.857.857 0 0 1 .857-.857h8.571a.857.857 0 0 1 .857.857.857.857 0 0 1-.857.857z" transform="translate(-58 802)"/>
</svg>
