<svg xmlns="http://www.w3.org/2000/svg" width="24" height="24" viewBox="0 0 24 24">
    <g id="icon-password" transform="translate(-126 -503)">
        <path id="사각형_54" fill="none" d="M0 0H24V24H0z" data-name="사각형 54" transform="translate(126 503)"/>
        <path id="icon-password-2" fill="#414853" d="M81.276-927.588l-3.937-3.936a4.968 4.968 0 0 1-1.463-3.533 4.963 4.963 0 0 1 1.463-3.531l1.969-1.969a5.021 5.021 0 0 1 6.432-.535l8.664-8.792a.8.8 0 0 1 .583-.24h4.069a.818.818 0 0 1 .819.815v6.128a.82.82 0 0 1-.819.819h-1.965v2.01a.82.82 0 0 1-.818.819h-1.964v1.642a.83.83 0 0 1-.24.579c-.431.432-.9.912-1.371 1.4-.4.411-.8.827-1.193 1.22a5.022 5.022 0 0 1-1.2 5.137l-1.968 1.969a4.983 4.983 0 0 1-3.533 1.461 4.98 4.98 0 0 1-3.528-1.463zm-.81-11.809L78.5-937.43a3.337 3.337 0 0 0-.983 2.373 3.335 3.335 0 0 0 .983 2.373l3.936 3.937a3.361 3.361 0 0 0 4.746 0l1.968-1.969a3.361 3.361 0 0 0 .656-3.819.826.826 0 0 1 .16-.933c.488-.487 1-1.014 1.51-1.538.405-.416.809-.831 1.2-1.222v-2.123a.82.82 0 0 1 .819-.82h1.964v-2.009a.82.82 0 0 1 .819-.82h1.963v-3.33l-8.913 8.916a.808.808 0 0 1-.58.24.813.813 0 0 1-.58-.24.814.814 0 0 1-.24-.579.816.816 0 0 1 .24-.58l8.914-8.917H95.33l-8.955 9.09a.811.811 0 0 1-.581.245.811.811 0 0 1-.579-.241 3.334 3.334 0 0 0-2.373-.981 3.334 3.334 0 0 0-2.376.977zm1.793 8.857l-1.969-1.968a2.2 2.2 0 0 1-.646-1.563 2.2 2.2 0 0 1 .646-1.565 2.219 2.219 0 0 1 3.127 0l1.969 1.969a2.194 2.194 0 0 1 .647 1.563 2.2 2.2 0 0 1-.647 1.563 2.2 2.2 0 0 1-1.563.647 2.2 2.2 0 0 1-1.564-.647zm-.808-3.936a.564.564 0 0 0-.167.4.556.556 0 0 0 .167.4l1.967 1.968a.573.573 0 0 0 .81 0 .574.574 0 0 0 0-.81l-1.969-1.967a.564.564 0 0 0-.4-.167.567.567 0 0 0-.408.175z" data-name="icon-password" transform="translate(50.125 1453.124)"/>
    </g>
</svg>
