<svg xmlns="http://www.w3.org/2000/svg" width="24" height="24" viewBox="0 0 24 24">
    <g id="icon-logout" transform="translate(-46 -57)">
        <path id="사각형_52" fill="none" d="M0 0H24V24H0z" data-name="사각형 52" transform="translate(46 57)"/>
        <path id="icon-logout-2" fill="#414853" d="M78.99-760.23a2.994 2.994 0 0 1-2.99-2.99v-17.94a2.994 2.994 0 0 1 2.99-2.99h8.97a1 1 0 0 1 1 1 1 1 0 0 1-1 1h-8.97a1 1 0 0 0-1 1v17.94a1 1 0 0 0 1 1h8.97a1 1 0 0 1 1 1 1 1 0 0 1-1 1zm13.244-5.28a1 1 0 0 1 .01-1.409l4.331-4.274H84.97a1 1 0 0 1-1-1 1 1 0 0 1 1-1h11.6l-4.331-4.274a1 1 0 0 1-.01-1.409 1 1 0 0 1 1.409-.01l6.06 5.98a1 1 0 0 1 .3.71 1 1 0 0 1-.3.71l-6.06 5.98a.991.991 0 0 1-.7.287 1 1 0 0 1-.704-.291z" data-name="icon-logout" transform="translate(-30 841.15)"/>
    </g>
</svg>
