<svg xmlns="http://www.w3.org/2000/svg" id="bi_xs" width="52" height="24" viewBox="0 0 52 24">
    <defs>
        <style>
            .cls-1{fill:#e60062}.cls-2{fill:#4b2c7a}.cls-3{fill:#ed6a81}.cls-4{fill:#a4008b}.cls-5{fill:#667c87}
        </style>
    </defs>
    <path id="Path_63" d="M255.288 163.318a5.981 5.981 0 0 0-1.73-1.716c-2.649-1.7-5.474-1.719-8.249-4.891v8.89a3.72 3.72 0 0 0 1.726 3.36c2.726 1.635 6.342 3.071 8.253 5.281z" class="cls-1" data-name="Path 63" transform="translate(-213.09 -150.24)"/>
    <path id="Path_64" d="M277.087 163.318a5.976 5.976 0 0 1 1.73-1.716c2.649-1.7 5.474-1.719 8.25-4.891v8.89a3.722 3.722 0 0 1-1.727 3.36c-2.726 1.635-6.342 3.071-8.253 5.281z" class="cls-2" data-name="Path 64" transform="translate(-235.067 -150.24)"/>
    <path id="Path_65" d="M296.087 148.45s-.279-1.783-1.514-1.093c-1.329.744-.315 3.9-.315 3.9s3.3-.355 3.442-1.87c.131-1.407-1.614-.939-1.614-.939" class="cls-3" data-name="Path 65" transform="translate(-246.592 -142.878)"/>
    <path id="Path_66" d="M276.548 166.479a.758.758 0 1 0-.775.741.758.758 0 0 0 .775-.741" class="cls-3" data-name="Path 66" transform="translate(-233.522 -155.811)"/>
    <path id="Path_67" d="M282.071 158.63a1.226 1.226 0 1 1 1.2 1.252 1.225 1.225 0 0 1-1.2-1.252" class="cls-2" data-name="Path 67" transform="translate(-238.485 -150.034)"/>
    <path id="Path_68" d="M264.293 158.63a1.226 1.226 0 1 1 1.2 1.252 1.226 1.226 0 0 1-1.2-1.252" class="cls-2" data-name="Path 68" transform="translate(-226.116 -150.034)"/>
    <path id="Path_69" d="M270.38 140.542a8.8 8.8 0 0 0 2.651-4.645 1.286 1.286 0 0 1 2.043-.944c.981.533 2.067 3.5-4.694 5.589" class="cls-3" data-name="Path 69" transform="translate(-230.466 -134.087)"/>
    <path id="Path_70" d="M250.8 149.811l.318.686a.272.272 0 0 0 .2.154l.746.127a.272.272 0 0 1 .139.468l-.555.514a.272.272 0 0 0-.084.239l.11.748a.272.272 0 0 1-.4.277l-.661-.368a.273.273 0 0 0-.253-.006l-.678.335a.272.272 0 0 1-.388-.3l.146-.741a.272.272 0 0 0-.073-.243l-.529-.541a.272.272 0 0 1 .163-.46l.751-.09a.274.274 0 0 0 .209-.144l.351-.67a.273.273 0 0 1 .488.012" class="cls-3" data-name="Path 70" transform="translate(-215.401 -144.593)"/>
    <path id="Path_71" d="M260.672 134.88a5.783 5.783 0 0 0-1.284 2.064 15.539 15.539 0 0 1 2.94-2.122c-2.978 1.783-3.292 3.734-3.292 3.734a5.734 5.734 0 0 0 5.715-5.853 9.324 9.324 0 0 0-4.079 2.177" class="cls-4" data-name="Path 71" transform="translate(-222.524 -132.703)"/>
    <path id="Path_72" d="M288.66 141.522c-.316.858-.694 1.817-.982 2.685-.165.5-.355.333-.807.218-.389-.1-.269-.382-.205-.637.287-1.161.567-2.323.866-3.481.133-.515.285-.535 1.035-.333.446.12.479.4.329.87-.085.266-.226.681-.235.679" class="cls-4" data-name="Path 72" transform="translate(-241.59 -137.608)"/>
    <path id="Path_73" d="M171.894 170.093a1.3 1.3 0 0 1 1.02 1.5 1.22 1.22 0 0 1-.918 1.117 1.467 1.467 0 0 1-1.592-.374 1.35 1.35 0 0 1-.216-1.477 1.229 1.229 0 0 1 1.119-.8 2.255 2.255 0 0 1 .586.034" class="cls-2" data-name="Path 73" transform="translate(-161.036 -158.885)"/>
    <path id="Path_74" d="M148.873 183.668l-2.834 1.4c-.171-.353-.326-.677-.485-1q-.656-1.323-1.316-2.644c-.045-.09-.224-.323-.23-.121v3.412h-3.142V175H144v3.52c0 .257.074.257.12.181l2.021-3.834 3.091 1.414-.222.337c-.707 1.077-1.412 2.157-2.124 3.231-.078.118-.038.188.018.288q.973 1.724 1.937 3.452a.465.465 0 0 1 .028.082" class="cls-2" data-name="Path 74" transform="translate(-140.866 -162.694)"/>
    <path id="Path_75" d="M190.643 185.018h-2.692l-.044-.588a2.954 2.954 0 0 1-1.468.693 3.958 3.958 0 0 1-2.23-.306 3.444 3.444 0 0 1-1.851-2.219 5.513 5.513 0 0 1 .059-3.516 3.192 3.192 0 0 1 2.659-2.3 3.371 3.371 0 0 1 2.245.389 4.616 4.616 0 0 1 .468.364V175.3h2.854zm-2.838-4.8a.759.759 0 0 0-.224-.589 1.5 1.5 0 0 0-2.527.35 2.462 2.462 0 0 0-.122 1.608 1.583 1.583 0 0 0 2.652.838.545.545 0 0 0 .22-.483z" class="cls-2" data-name="Path 75" transform="translate(-169.372 -162.991)"/>
    <path id="Path_76" d="M212.558 186.469l1.827-1.258a2.331 2.331 0 0 0 1.459.94 1.558 1.558 0 0 0 .533.032.519.519 0 0 0 .511-.372c.018-.19-.068-.311-.317-.4-.675-.252-1.353-.5-2.029-.745a3.112 3.112 0 0 1-1.205-.713 1.994 1.994 0 0 1-.409-2.09 2.407 2.407 0 0 1 1.565-1.624 4.352 4.352 0 0 1 3.636.163 2.735 2.735 0 0 1 1.4 1.606l-1.8 1.052a5.429 5.429 0 0 0-.433-.53 1.6 1.6 0 0 0-1.637-.365.384.384 0 0 0-.285.352.444.444 0 0 0 .326.4c.574.208 1.073.378 1.647.588.35.128.7.25 1.042.406a1.945 1.945 0 0 1 1.045 2.615 2.477 2.477 0 0 1-1.644 1.578 4.708 4.708 0 0 1-3.685-.217 4.218 4.218 0 0 1-1.545-1.413" class="cls-2" data-name="Path 76" transform="translate(-190.417 -166.159)"/>
    <path id="Rectangle_64" d="M0 0H2.838V7.814H0z" class="cls-2" data-name="Rectangle 64" transform="translate(9.059 14.206)"/>
    <path id="Path_77" d="M158.9 156.254h.664v1.82h1.532v.568h-4.248v-.568h.824v-1.82h.664v1.82h.564z" class="cls-5" data-name="Path 77" transform="translate(-151.827 -149.207)"/>
    <path id="Path_78" d="M160.87 153.911h.7v-2.765h-3.635v.568h2.938z" class="cls-5" data-name="Path 78" transform="translate(-152.572 -145.632)"/>
    <path id="Path_79" d="M149.993 150.966v1.36h-.461v-1.36h-.67v4.394h.67v-2.434h.461v2.434h.665v-4.394z" class="cls-5" data-name="Path 79" transform="translate(-146.351 -145.527)"/>
    <path id="Path_80" d="M142.915 153.991h-1.2a.151.151 0 0 1-.151-.151v-2.047h1.353v-.568h-2.049v2.783a.551.551 0 0 0 .551.551h1.5z" class="cls-5" data-name="Path 80" transform="translate(-140.866 -145.695)"/>
    <path id="Path_81" d="M191.244 159a2.367 2.367 0 0 0-.786-.419 3.043 3.043 0 0 0-1.857.011 2.4 2.4 0 0 0-.781.43 2.027 2.027 0 0 0-.527.683 2.285 2.285 0 0 0 .011 1.866 2.038 2.038 0 0 0 .544.683 2.357 2.357 0 0 0 .78.414 3 3 0 0 0 .915.14 3.06 3.06 0 0 0 .952-.145 2.32 2.32 0 0 0 .78-.425 2.023 2.023 0 0 0 .528-.683 2.284 2.284 0 0 0-.011-1.866 2.074 2.074 0 0 0-.549-.688m-1.06 2.213a.94.94 0 0 1-.643.216.861.861 0 0 1-.641-.239.724.724 0 0 1-.214-.542.777.777 0 0 1 .214-.584.883.883 0 0 1 .652-.245.906.906 0 0 1 .631.222.761.761 0 0 1 .247.595.728.728 0 0 1-.247.577" class="cls-1" data-name="Path 81" transform="translate(-172.811 -150.777)"/>
    <path id="Path_82" d="M183.493 145.239a3.466 3.466 0 0 1-.666-.687 2.4 2.4 0 0 1-.368-.768 3.332 3.332 0 0 1-.11-.873v-.611a1.155 1.155 0 0 1 .059-.359.523.523 0 0 1 .177-.245h-1.524c-.144 0-.213.029-.268.106a.518.518 0 0 0-.06.3v.806a3.247 3.247 0 0 1-.115.884 2.507 2.507 0 0 1-.368.762 3.31 3.31 0 0 1-.661.677 6.016 6.016 0 0 1-.958.6 1.72 1.72 0 0 0 .356.443 1.319 1.319 0 0 0 .37.224 1.467 1.467 0 0 0 .736.022 1.933 1.933 0 0 0 .806-.45 2.432 2.432 0 0 0 .624-.772l.044-.093.044.093a2.249 2.249 0 0 0 .546.741 2.6 2.6 0 0 0 .792.491 1.085 1.085 0 0 0 .351.072 1.1 1.1 0 0 0 .4-.057 1.138 1.138 0 0 0 .4-.242 1.724 1.724 0 0 0 .342-.449 5.791 5.791 0 0 1-.949-.615z" class="cls-1" data-name="Path 82" transform="translate(-166.966 -138.869)"/>
    <path id="Path_83" d="M201.38 142.959h-1.327v-1.386a.9.9 0 0 1 .058-.322.649.649 0 0 1 .113-.185.251.251 0 0 1 .066-.06h-1.533a.282.282 0 0 0-.264.108.517.517 0 0 0-.064.295v4.376c0 .275.1.4.328.4h.967c.224 0 .328-.128.328-.4v-1.493h.587a.966.966 0 0 0 .582-.113.434.434 0 0 0 .159-.408z" class="cls-1" data-name="Path 83" transform="translate(-180.628 -138.399)"/>
    <g id="Group_1" data-name="Group 1" transform="translate(20.652 2.607)">
        <path id="Path_84" d="M220.4 159a2.366 2.366 0 0 0-.786-.419 3.044 3.044 0 0 0-1.857.011 2.4 2.4 0 0 0-.78.43 2.023 2.023 0 0 0-.527.683 2.287 2.287 0 0 0 .01 1.866 2.045 2.045 0 0 0 .544.683 2.359 2.359 0 0 0 .781.414 3 3 0 0 0 .915.14 3.059 3.059 0 0 0 .952-.145 2.322 2.322 0 0 0 .78-.425 2.022 2.022 0 0 0 .527-.683A2.112 2.112 0 0 0 220.4 159m-1.059 2.213a.94.94 0 0 1-.643.216.86.86 0 0 1-.64-.239.724.724 0 0 1-.214-.542.776.776 0 0 1 .214-.584.882.882 0 0 1 .652-.245.907.907 0 0 1 .632.222.762.762 0 0 1 .247.595.729.729 0 0 1-.247.577" class="cls-1" data-name="Path 84" transform="translate(-213.599 -152.967)"/>
        <path id="Path_85" d="M212.65 145.239a3.475 3.475 0 0 1-.666-.687 2.4 2.4 0 0 1-.368-.768 3.332 3.332 0 0 1-.109-.873v-.611a1.155 1.155 0 0 1 .059-.359.525.525 0 0 1 .177-.245h-1.524c-.144 0-.213.029-.268.106a.52.52 0 0 0-.06.3v.806a3.246 3.246 0 0 1-.115.884 2.5 2.5 0 0 1-.367.762 3.326 3.326 0 0 1-.661.677 6.031 6.031 0 0 1-.958.6 1.726 1.726 0 0 0 .356.443 1.318 1.318 0 0 0 .37.224 1.467 1.467 0 0 0 .736.022 1.934 1.934 0 0 0 .806-.45 2.433 2.433 0 0 0 .624-.772l.044-.093.044.093a2.251 2.251 0 0 0 .546.741 2.6 2.6 0 0 0 .792.491 1.087 1.087 0 0 0 .351.072 1.1 1.1 0 0 0 .4-.057 1.139 1.139 0 0 0 .4-.242 1.732 1.732 0 0 0 .342-.449 5.8 5.8 0 0 1-.951-.615z" class="cls-1" data-name="Path 85" transform="translate(-207.792 -141.476)"/>
        <path id="Path_86" d="M230.538 142.959h-1.328v-1.386a.9.9 0 0 1 .057-.322.65.65 0 0 1 .113-.185.251.251 0 0 1 .066-.06h-1.533a.281.281 0 0 0-.263.108.514.514 0 0 0-.064.295v4.376c0 .275.1.4.327.4h.967c.224 0 .328-.128.328-.4v-1.493h.587a.966.966 0 0 0 .582-.113.434.434 0 0 0 .159-.408z" class="cls-1" data-name="Path 86" transform="translate(-221.371 -141.006)"/>
    </g>
</svg>
