<svg xmlns="http://www.w3.org/2000/svg" width="168" height="105.5" viewBox="0 0 168 105.5">
    <defs>
        <style>
            .cls-1{fill:#e60062}.cls-2{fill:#4b2c7a}.cls-3{fill:#ed6a81}.cls-4{fill:#a4008b}.cls-5{fill:#667c87}
        </style>
    </defs>
    <g id="BI" transform="translate(-140.866 -132.703)">
        <g id="그룹_2" data-name="그룹 2" transform="translate(140.866 132.703)">
            <path id="패스_63" d="M277.087 177.752a19.052 19.052 0 0 0-5.51-5.466c-8.434-5.417-17.43-5.474-26.269-15.576v28.308c.023 4.6 1.778 8.468 5.5 10.7 8.68 5.205 20.2 9.78 26.281 16.817z" class="cls-1" data-name="패스 63" transform="translate(-140.866 -132.426)"/>
            <path id="패스_64" d="M277.087 177.752a19.037 19.037 0 0 1 5.509-5.466c8.435-5.417 17.43-5.474 26.27-15.576v28.308c-.024 4.6-1.779 8.468-5.5 10.7-8.68 5.205-20.2 9.78-26.28 16.817z" class="cls-2" data-name="패스 64" transform="translate(-140.866 -132.426)"/>
            <path id="패스_65" d="M300.89 151.184s-.89-5.678-4.82-3.48c-4.232 2.368-1 12.425-1 12.425s10.512-1.129 10.962-5.954c.417-4.481-5.139-2.991-5.139-2.991" class="cls-3" data-name="패스 65" transform="translate(-140.866 -132.643)"/>
            <path id="패스_66" d="M279.861 168.17a2.415 2.415 0 1 0-2.469 2.359 2.412 2.412 0 0 0 2.469-2.359" class="cls-3" data-name="패스 66" transform="translate(-140.866 -132.581)"/>
            <path id="패스_67" d="M282.072 161.246a3.9 3.9 0 1 1 3.816 3.987 3.9 3.9 0 0 1-3.816-3.987" class="cls-2" data-name="패스 67" transform="translate(-140.866 -132.608)"/>
            <path id="패스_68" d="M264.294 161.246a3.9 3.9 0 1 1 3.818 3.987 3.9 3.9 0 0 1-3.818-3.987" class="cls-2" data-name="패스 68" transform="translate(-140.866 -132.608)"/>
            <path id="패스_69" d="M270.38 153.259s5.785-4.447 8.441-14.79c1.177-4.588 4.489-4.106 6.507-3.007 3.123 1.7 6.581 11.157-14.948 17.8" class="cls-3" data-name="패스 69" transform="translate(-140.866 -132.703)"/>
            <path id="패스_70" d="M255.259 150.155l1.013 2.184a.867.867 0 0 0 .64.49l2.376.4a.866.866 0 0 1 .444 1.489l-1.766 1.637a.866.866 0 0 0-.269.761l.349 2.382a.867.867 0 0 1-1.281.881l-2.1-1.172a.869.869 0 0 0-.807-.02l-2.16 1.067a.867.867 0 0 1-1.235-.945l.466-2.361a.866.866 0 0 0-.231-.773l-1.683-1.722a.867.867 0 0 1 .518-1.466l2.391-.286a.872.872 0 0 0 .665-.458l1.119-2.132a.868.868 0 0 1 1.555.039" class="cls-3" data-name="패스 70" transform="translate(-140.866 -132.635)"/>
            <path id="패스_71" d="M264.246 139.635a18.416 18.416 0 0 0-4.089 6.572 49.475 49.475 0 0 1 9.362-6.756c-9.482 5.678-10.483 11.889-10.483 11.889s7.985-.359 13.011-5.506 5.188-13.131 5.188-13.131-7.963 1.785-12.989 6.932" class="cls-4" data-name="패스 71" transform="translate(-140.866 -132.703)"/>
            <path id="패스_72" d="M293.167 145.166c-1.007 2.732-2.209 5.786-3.127 8.549-.524 1.583-1.129 1.061-2.571.694-1.239-.315-.856-1.217-.654-2.03.915-3.7 1.8-7.4 2.759-11.084.425-1.64.908-1.705 3.295-1.062 1.421.382 1.527 1.261 1.046 2.772-.269.848-.721 2.169-.748 2.161" class="cls-4" data-name="패스 72" transform="translate(-140.866 -132.703)"/>
            <path id="패스_73" d="M175.884 170.183a4.128 4.128 0 0 1 3.249 4.779 3.885 3.885 0 0 1-2.922 3.557 4.67 4.67 0 0 1-5.068-1.19 4.3 4.3 0 0 1-.689-4.7 3.913 3.913 0 0 1 3.564-2.55 7.188 7.188 0 0 1 1.866.107" class="cls-2" data-name="패스 73" transform="translate(-140.866 -132.557)"/>
            <path id="패스_74" d="M166.362 202.9l-9.024 4.449c-.546-1.125-1.038-2.156-1.546-3.18q-2.09-4.214-4.191-8.42c-.142-.286-.714-1.028-.731-.386v10.864h-10V175.3h9.983v.7c0 3.5 0 7 .01 10.494-.011.82.237.82.382.577l6.436-12.208c3.275 1.5 6.527 2.988 9.842 4.5l-.707 1.072c-2.252 3.431-4.5 6.868-6.765 10.288-.249.375-.122.6.058.916q3.1 5.488 6.169 10.992a1.475 1.475 0 0 1 .088.26" class="cls-2" data-name="패스 74" transform="translate(-140.866 -132.426)"/>
            <path id="패스_75" d="M209.308 206.251h-8.573l-.141-1.873a9.408 9.408 0 0 1-4.675 2.206 12.6 12.6 0 0 1-7.1-.975 10.966 10.966 0 0 1-5.9-7.067 17.555 17.555 0 0 1 .189-11.2c1.431-4.013 4.121-6.686 8.468-7.309a10.735 10.735 0 0 1 7.15 1.239 14.736 14.736 0 0 1 1.491 1.16V175.3h9.088zm-9.036-15.3a2.417 2.417 0 0 0-.713-1.876 4.766 4.766 0 0 0-8.046 1.116 7.84 7.84 0 0 0-.389 5.121c1.225 4.877 6.047 4.748 8.446 2.668a1.735 1.735 0 0 0 .7-1.537z" class="cls-2" data-name="패스 75" transform="translate(-140.866 -132.426)"/>
            <path id="패스_76" d="M212.558 200.784l5.817-4.006a7.423 7.423 0 0 0 4.647 2.994 4.962 4.962 0 0 0 1.7.1 1.653 1.653 0 0 0 1.627-1.184c.057-.6-.218-.991-1.011-1.287-2.15-.8-4.309-1.58-6.461-2.373a9.909 9.909 0 0 1-3.838-2.27c-1.861-1.924-2.012-4.238-1.3-6.657a7.664 7.664 0 0 1 4.985-5.17 13.856 13.856 0 0 1 11.577.518 8.709 8.709 0 0 1 4.461 5.115l-5.737 3.351a17.3 17.3 0 0 0-1.38-1.688 5.079 5.079 0 0 0-5.212-1.163 1.224 1.224 0 0 0-.906 1.121 1.415 1.415 0 0 0 1.037 1.273c1.829.662 3.417 1.2 5.245 1.872 1.115.407 2.243.8 3.318 1.292 3.763 1.733 4.459 5.05 3.328 8.328a7.887 7.887 0 0 1-5.235 5.024 14.993 14.993 0 0 1-11.735-.691 13.432 13.432 0 0 1-4.921-4.5" class="cls-2" data-name="패스 76" transform="translate(-140.866 -132.426)"/>
            <path id="사각형_64" d="M0 0H9.039V24.882H0z" class="cls-2" data-name="사각형 64" transform="translate(29.293 48.919)"/>
            <path id="패스_77" d="M163.378 156.254h2.116v5.8h4.879v1.809h-13.529v-1.813h2.623v-5.8h2.115v5.8h1.795z" class="cls-5" data-name="패스 77" transform="translate(-140.866 -132.613)"/>
            <path id="패스_78" d="M167.288 159.95h2.218v-8.8h-11.575v1.808h9.356z" class="cls-5" data-name="패스 78" transform="translate(-140.866 -132.631)"/>
            <path id="패스_79" d="M152.464 150.966v4.334h-1.469v-4.332h-2.133v13.991h2.133v-7.752h1.469v7.752h2.117v-13.993z" class="cls-5" data-name="패스 79" transform="translate(-140.866 -132.626)"/>
            <path id="패스_80" d="M147.391 160.034h-3.828a.48.48 0 0 1-.48-.48v-6.52h4.308v-1.809h-6.525v8.863a1.755 1.755 0 0 0 1.755 1.754h4.77z" class="cls-5" data-name="패스 80" transform="translate(-140.866 -132.629)"/>
            <path id="패스_81" d="M200.3 160.223a7.54 7.54 0 0 0-2.5-1.335 9.69 9.69 0 0 0-5.912.034 7.657 7.657 0 0 0-2.486 1.369 6.455 6.455 0 0 0-1.679 2.176 7.277 7.277 0 0 0 .034 5.941 6.491 6.491 0 0 0 1.731 2.175 7.506 7.506 0 0 0 2.485 1.317 9.561 9.561 0 0 0 2.915.446 9.741 9.741 0 0 0 3.033-.463 7.388 7.388 0 0 0 2.484-1.352 6.441 6.441 0 0 0 1.68-2.174 7.274 7.274 0 0 0-.035-5.942 6.606 6.606 0 0 0-1.747-2.192m-3.374 7.046a2.991 2.991 0 0 1-2.047.689 2.743 2.743 0 0 1-2.04-.761 2.3 2.3 0 0 1-.68-1.725 2.473 2.473 0 0 1 .68-1.861 2.812 2.812 0 0 1 2.077-.78 2.886 2.886 0 0 1 2.01.708 2.422 2.422 0 0 1 .785 1.894 2.319 2.319 0 0 1-.785 1.836" class="cls-1" data-name="패스 81" transform="translate(-140.866 -132.595)"/>
            <path id="패스_82" d="M194.1 152.989a11.031 11.031 0 0 1-2.12-2.188 7.634 7.634 0 0 1-1.171-2.447 10.606 10.606 0 0 1-.349-2.781v-1.958a3.68 3.68 0 0 1 .189-1.144 1.664 1.664 0 0 1 .565-.78h-4.853c-.458 0-.678.093-.853.339a1.649 1.649 0 0 0-.19.943v2.567a10.339 10.339 0 0 1-.366 2.816 7.985 7.985 0 0 1-1.171 2.428 10.544 10.544 0 0 1-2.1 2.155 19.16 19.16 0 0 1-3.049 1.91 5.474 5.474 0 0 0 1.135 1.41 4.2 4.2 0 0 0 1.177.712 4.671 4.671 0 0 0 2.345.069 6.154 6.154 0 0 0 2.567-1.433 7.746 7.746 0 0 0 1.987-2.457l.141-.295.141.295a7.162 7.162 0 0 0 1.739 2.359 8.282 8.282 0 0 0 2.523 1.563 3.463 3.463 0 0 0 1.117.228 3.513 3.513 0 0 0 1.281-.18 3.62 3.62 0 0 0 1.28-.772 5.493 5.493 0 0 0 1.09-1.429 18.438 18.438 0 0 1-3.055-1.93z" class="cls-1" data-name="패스 82" transform="translate(-140.866 -132.703)"/>
            <path id="패스_83" d="M207.823 147.226H203.6l.006-4.415a2.865 2.865 0 0 1 .183-1.025 2.069 2.069 0 0 1 .36-.589.8.8 0 0 1 .211-.191h-4.882a.9.9 0 0 0-.839.344 1.645 1.645 0 0 0-.205.938v13.936c0 .875.332 1.282 1.044 1.282h3.078c.712 0 1.044-.407 1.044-1.282v-4.755h1.87a3.078 3.078 0 0 0 1.852-.359 1.383 1.383 0 0 0 .506-1.3z" class="cls-1" data-name="패스 83" transform="translate(-140.866 -132.703)"/>
            <g id="그룹_1" data-name="그룹 1" transform="translate(66.926 8.303)">
                <path id="패스_84" d="M229.454 160.223a7.535 7.535 0 0 0-2.5-1.335 9.694 9.694 0 0 0-5.913.034 7.652 7.652 0 0 0-2.485 1.369 6.442 6.442 0 0 0-1.679 2.176 7.282 7.282 0 0 0 .033 5.941 6.515 6.515 0 0 0 1.731 2.175 7.51 7.51 0 0 0 2.486 1.317 9.549 9.549 0 0 0 2.914.446 9.737 9.737 0 0 0 3.033-.463 7.393 7.393 0 0 0 2.485-1.352 6.438 6.438 0 0 0 1.679-2.174 6.726 6.726 0 0 0-1.782-8.134m-3.373 7.046a2.994 2.994 0 0 1-2.048.689 2.739 2.739 0 0 1-2.039-.761 2.3 2.3 0 0 1-.68-1.725 2.47 2.47 0 0 1 .68-1.861 2.809 2.809 0 0 1 2.076-.78 2.89 2.89 0 0 1 2.011.708 2.426 2.426 0 0 1 .785 1.894 2.322 2.322 0 0 1-.785 1.836" class="cls-1" data-name="패스 84" transform="translate(-207.792 -141.006)"/>
                <path id="패스_85" d="M223.261 152.989a11.058 11.058 0 0 1-2.12-2.188 7.633 7.633 0 0 1-1.171-2.447 10.608 10.608 0 0 1-.348-2.781v-1.958a3.68 3.68 0 0 1 .189-1.144 1.671 1.671 0 0 1 .565-.78h-4.852c-.458 0-.679.093-.854.339a1.657 1.657 0 0 0-.19.943v2.567a10.339 10.339 0 0 1-.366 2.816 7.96 7.96 0 0 1-1.17 2.428 10.6 10.6 0 0 1-2.105 2.155 19.218 19.218 0 0 1-3.05 1.91 5.494 5.494 0 0 0 1.135 1.41 4.206 4.206 0 0 0 1.178.712 4.671 4.671 0 0 0 2.345.069 6.157 6.157 0 0 0 2.566-1.433A7.749 7.749 0 0 0 217 153.15l.14-.295.141.295a7.165 7.165 0 0 0 1.74 2.359 8.266 8.266 0 0 0 2.522 1.563 3.469 3.469 0 0 0 1.117.228 3.513 3.513 0 0 0 1.281-.18 3.624 3.624 0 0 0 1.281-.772 5.515 5.515 0 0 0 1.09-1.429 18.449 18.449 0 0 1-3.051-1.93z" class="cls-1" data-name="패스 85" transform="translate(-207.792 -141.006)"/>
                <path id="패스_86" d="M236.981 147.226h-4.228l.006-4.415a2.866 2.866 0 0 1 .183-1.025 2.069 2.069 0 0 1 .36-.589.8.8 0 0 1 .211-.191h-4.882a.9.9 0 0 0-.838.344 1.637 1.637 0 0 0-.205.938v13.936c0 .875.331 1.282 1.043 1.282h3.079c.712 0 1.043-.407 1.043-1.282v-4.755h1.87a3.078 3.078 0 0 0 1.852-.359 1.383 1.383 0 0 0 .506-1.3z" class="cls-1" data-name="패스 86" transform="translate(-207.792 -141.006)"/>
            </g>
        </g>
        <path id="합치기_1" fill="#4b2c7a" stroke="rgba(0,0,0,0)" stroke-miterlimit="10" d="M-423.273-131.475a7.6 7.6 0 0 1-2.177-.7 3.534 3.534 0 0 1-1.375-1.21 3.162 3.162 0 0 1-.473-1.749 3.165 3.165 0 0 1 .473-1.75 3.541 3.541 0 0 1 1.375-1.21 7.6 7.6 0 0 1 2.177-.7 16.42 16.42 0 0 1 2.9-.231 16.477 16.477 0 0 1 2.894.231 7.6 7.6 0 0 1 2.189.7 3.541 3.541 0 0 1 1.375 1.21 3.164 3.164 0 0 1 .473 1.75 3.161 3.161 0 0 1-.473 1.749 3.534 3.534 0 0 1-1.375 1.21 7.6 7.6 0 0 1-2.189.7 16.482 16.482 0 0 1-2.894.23 16.426 16.426 0 0 1-2.9-.23zm-.275-4.9a1.361 1.361 0 0 0-.957 1.232 1.363 1.363 0 0 0 .957 1.232 8.258 8.258 0 0 0 3.178.439 8.254 8.254 0 0 0 3.179-.439 1.364 1.364 0 0 0 .958-1.232 1.362 1.362 0 0 0-.958-1.232 8.233 8.233 0 0 0-3.179-.44 8.237 8.237 0 0 0-3.177.445zm39.648 4.775a7.01 7.01 0 0 1-2.156-.792 3.775 3.775 0 0 1-1.364-1.331 3.638 3.638 0 0 1-.473-1.881 3.648 3.648 0 0 1 .473-1.881 3.789 3.789 0 0 1 1.364-1.331 7.033 7.033 0 0 1 2.156-.792 14.16 14.16 0 0 1 2.871-.264 14.16 14.16 0 0 1 2.871.264 6.863 6.863 0 0 1 2.156.8 3.867 3.867 0 0 1 1.363 1.342 3.6 3.6 0 0 1 .473 1.859 3.638 3.638 0 0 1-.473 1.881 3.775 3.775 0 0 1-1.363 1.331 7.018 7.018 0 0 1-2.156.792 14.092 14.092 0 0 1-2.871.265 14.092 14.092 0 0 1-2.871-.262zm-.253-5.467a1.666 1.666 0 0 0-.946 1.463 1.667 1.667 0 0 0 .946 1.463 6.451 6.451 0 0 0 3.124.561 6.451 6.451 0 0 0 3.124-.561 1.667 1.667 0 0 0 .946-1.463 1.665 1.665 0 0 0-.946-1.463 6.438 6.438 0 0 0-3.124-.562 6.438 6.438 0 0 0-3.128.566zm-56.221 5.423a1.006 1.006 0 0 1-.427-.9v-5.742h-6.908a.843.843 0 0 1-.748-.352 1.434 1.434 0 0 1-.242-.836 1.434 1.434 0 0 1 .242-.836.843.843 0 0 1 .748-.352h16.632a.846.846 0 0 1 .748.352 1.441 1.441 0 0 1 .242.836 1.441 1.441 0 0 1-.242.836.846.846 0 0 1-.748.352h-6.908v5.742a1 1 0 0 1-.429.9 1.728 1.728 0 0 1-.979.286 1.734 1.734 0 0 1-.985-.282zm73.271-.087a2.092 2.092 0 0 1-1.463-.4 1.972 1.972 0 0 1-.407-1.43v-4.334a1.972 1.972 0 0 1 .407-1.43 2.092 2.092 0 0 1 1.463-.4h9.5a2.1 2.1 0 0 1 1.463.4 1.976 1.976 0 0 1 .407 1.43v4.334a1.976 1.976 0 0 1-.407 1.43 2.1 2.1 0 0 1-1.463.4zm.924-5.148v2.309a.447.447 0 0 0 .506.506h6.644a.447.447 0 0 0 .507-.506v-2.309a.448.448 0 0 0-.507-.507h-6.644a.447.447 0 0 0-.51.51zm-38.94 4.993a2.088 2.088 0 0 1-1.462-.4 1.972 1.972 0 0 1-.407-1.429v-4.158a1.008 1.008 0 0 1 .428-.9 1.762 1.762 0 0 1 1-.285 1.723 1.723 0 0 1 .979.285 1.009 1.009 0 0 1 .429.9v3.08a.448.448 0 0 0 .506.506h9.482a.845.845 0 0 1 .748.352 1.472 1.472 0 0 1 .242.858 1.436 1.436 0 0 1-.242.836.847.847 0 0 1-.748.352zm9.1-5.521a1 1 0 0 1-.43-.9v-7.106h-2.751a.844.844 0 0 1-.748-.352 1.441 1.441 0 0 1-.242-.836 1.481 1.481 0 0 1 .242-.858.846.846 0 0 1 .748-.352h2.749v-3.124a1.007 1.007 0 0 1 .43-.9 1.725 1.725 0 0 1 .978-.285 1.692 1.692 0 0 1 .957.285 1.009 1.009 0 0 1 .429.9v12.628a1 1 0 0 1-.429.9 1.686 1.686 0 0 1-.957.286 1.718 1.718 0 0 1-.982-.279zm19.7-2.618a.934.934 0 0 1-.4-.836v-4.135h-1.76v3.211a.931.931 0 0 1-.4.836 1.587 1.587 0 0 1-.9.265 1.546 1.546 0 0 1-.879-.265.929.929 0 0 1-.4-.836v-9.13a.931.931 0 0 1 .4-.836 1.552 1.552 0 0 1 .879-.264 1.594 1.594 0 0 1 .9.264.933.933 0 0 1 .4.836v3.564h1.76v-3.674a.932.932 0 0 1 .4-.836 1.586 1.586 0 0 1 .9-.264 1.589 1.589 0 0 1 .9.264.932.932 0 0 1 .4.836v10.164a.934.934 0 0 1-.4.836 1.589 1.589 0 0 1-.9.264 1.586 1.586 0 0 1-.906-.261zm-32.967-.088a1.263 1.263 0 0 1-.429-.22 1.843 1.843 0 0 1-.329-.33 1.532 1.532 0 0 1-.307-.891 1.027 1.027 0 0 1 .482-.891q.706-.528 1.364-1.056t1.363-1.166a3.771 3.771 0 0 0 1.046-1.4 4.736 4.736 0 0 0 .3-1.771v-2.222a1.028 1.028 0 0 1 .428-.923 1.756 1.756 0 0 1 1-.286 1.756 1.756 0 0 1 1 .286 1.026 1.026 0 0 1 .428.923v2.112a4.737 4.737 0 0 0 .3 1.771 3.775 3.775 0 0 0 1.045 1.4q.706.637 1.32 1.133t1.1.868a1.035 1.035 0 0 1 .473.848 1.433 1.433 0 0 1-.32.868 1.542 1.542 0 0 1-.328.32 1.412 1.412 0 0 1-.43.209 1.175 1.175 0 0 1-.484.032.944.944 0 0 1-.473-.209q-.418-.308-.99-.781t-1.211-1.022c-.248-.221-.458-.411-.626-.572a4.586 4.586 0 0 1-.4-.418 2.487 2.487 0 0 1-.231-.33 1.391 1.391 0 0 1-.132-.33h-.022a2.1 2.1 0 0 1-.121.353 1.983 1.983 0 0 1-.23.384 4.294 4.294 0 0 1-.419.473c-.175.176-.4.382-.681.616q-.639.574-1.255 1.057t-1.254.968a1.193 1.193 0 0 1-.5.22 1.18 1.18 0 0 1-.2.017 1.032 1.032 0 0 1-.283-.037zm-19.415.022a.825.825 0 0 1-.736-.341 1.429 1.429 0 0 1-.231-.825 1.431 1.431 0 0 1 .231-.825.824.824 0 0 1 .736-.34h6.952v-1.826h-3.63a2.1 2.1 0 0 1-1.464-.4 1.975 1.975 0 0 1-.406-1.43v-3.542a1.976 1.976 0 0 1 .406-1.43 2.1 2.1 0 0 1 1.464-.4h10.845a.829.829 0 0 1 .738.341 1.4 1.4 0 0 1 .231.8 1.443 1.443 0 0 1-.231.825.829.829 0 0 1-.738.341h-9.372a.447.447 0 0 0-.506.506v1.562a.447.447 0 0 0 .506.506h9.593a.824.824 0 0 1 .735.341 1.385 1.385 0 0 1 .231.8 1.426 1.426 0 0 1-.231.825.822.822 0 0 1-.735.341h-4.665v1.826h6.953a.825.825 0 0 1 .736.34 1.437 1.437 0 0 1 .23.825 1.435 1.435 0 0 1-.23.825.826.826 0 0 1-.736.341zm70.587-.726a1 1 0 0 1-.429-.9v-9.218a1.009 1.009 0 0 1 .429-.9 1.73 1.73 0 0 1 .979-.285 1.727 1.727 0 0 1 .978.285 1.009 1.009 0 0 1 .429.9v9.218a1 1 0 0 1-.429.9 1.72 1.72 0 0 1-.978.286 1.723 1.723 0 0 1-.985-.283zm-32.417.143a1.354 1.354 0 0 1-.836-.451 1.535 1.535 0 0 1-.363-.9 1.031 1.031 0 0 1 .341-.859q.571-.5 1.22-1.133t1.2-1.2a3.433 3.433 0 0 0 .792-1.353 6.1 6.1 0 0 0 .22-1.727v-1.826a1.006 1.006 0 0 1 .429-.9 1.729 1.729 0 0 1 .978-.286 1.732 1.732 0 0 1 .979.286 1.006 1.006 0 0 1 .429.9v1.738a6.066 6.066 0 0 0 .22 1.727 3.41 3.41 0 0 0 .792 1.353c.352.383.7.737 1.045 1.067s.687.649 1.023.957a1.048 1.048 0 0 1 .363.847 1.346 1.346 0 0 1-.34.891 1.181 1.181 0 0 1-.814.429 1.22 1.22 0 0 1-.946-.319q-.374-.308-.737-.661c-.242-.234-.495-.484-.759-.748a8 8 0 0 1-.869-.99 2.086 2.086 0 0 1-.363-.726h-.023a2.34 2.34 0 0 1-.308.781 6.5 6.5 0 0 1-.946 1.112q-.485.485-.913.879t-.935.859a1.021 1.021 0 0 1-.694.267 1.235 1.235 0 0 1-.191-.011zm19.547-1.661a1.968 1.968 0 0 1-.407-1.43v-6.269a1.007 1.007 0 0 1 .428-.9 1.716 1.716 0 0 1 .979-.286 1.754 1.754 0 0 1 1 .286 1.006 1.006 0 0 1 .429.9v5.192a.447.447 0 0 0 .506.506q2 0 3.718-.1t3.322-.32a.9.9 0 0 1 .8.242 1.275 1.275 0 0 1 .341.792 1.756 1.756 0 0 1-.132.891.783.783 0 0 1-.66.451q-.683.089-1.508.166c-.55.05-1.185.1-1.9.143s-1.526.076-2.42.1-1.907.032-3.037.032a2.088 2.088 0 0 1-1.465-.393zm-73.49-1.144a3.873 3.873 0 0 1-1.848-3.476 4.134 4.134 0 0 1 .473-2.013 4.069 4.069 0 0 1 1.374-1.463 6.684 6.684 0 0 1 2.178-.891 12.858 12.858 0 0 1 2.9-.3 12.9 12.9 0 0 1 2.894.3 6.687 6.687 0 0 1 2.19.891 4.093 4.093 0 0 1 1.374 1.463 4.154 4.154 0 0 1 .473 2.013 3.873 3.873 0 0 1-1.848 3.476 9.343 9.343 0 0 1-5.083 1.188 9.338 9.338 0 0 1-5.083-1.185zm1.925-5.126a1.915 1.915 0 0 0-.957 1.65 1.914 1.914 0 0 0 .957 1.65 5.89 5.89 0 0 0 3.156.638 5.9 5.9 0 0 0 3.158-.638 1.914 1.914 0 0 0 .957-1.65 1.915 1.915 0 0 0-.957-1.65 5.9 5.9 0 0 0-3.158-.638 5.89 5.89 0 0 0-3.162.643z" data-name="합치기 1" transform="translate(590.274 368.947)"/>
    </g>
</svg>
