<?xml version="1.0" standalone="no"?>
<!DOCTYPE svg PUBLIC "-//W3C//DTD SVG 20010904//EN"
 "http://www.w3.org/TR/2001/REC-SVG-20010904/DTD/svg10.dtd">
<svg version="1.0" xmlns="http://www.w3.org/2000/svg"
 width="700.000000pt" height="700.000000pt" viewBox="0 0 700.000000 700.000000"
 preserveAspectRatio="xMidYMid meet">
<metadata>
Created by potrace 1.11, written by Peter Selinger 2001-2013
</metadata>
<g transform="translate(0.000000,700.000000) scale(0.100000,-0.100000)"
fill="#000000" stroke="none">
<path d="M3353 5935 c-454 -152 -770 -403 -929 -738 -20 -43 -34 -81 -30 -84
3 -3 29 16 58 44 57 53 198 160 318 240 133 88 133 83 0 -19 -111 -85 -262
-243 -329 -341 -59 -88 -117 -205 -127 -255 l-7 -34 59 7 c74 8 250 49 329 76
147 50 306 139 419 233 120 101 250 308 315 504 53 159 95 412 69 412 -7 0
-73 -20 -145 -45z"/>
<path d="M3732 5819 c-65 -32 -108 -96 -143 -213 -126 -418 -271 -692 -482
-908 l-66 -67 137 48 c468 165 779 365 910 586 106 179 93 378 -32 493 -85 78
-233 106 -324 61z"/>
<path d="M4337 5498 c-27 -21 -40 -66 -141 -470 -94 -378 -102 -420 -90 -452
6 -15 118 -56 154 -56 30 0 49 33 94 161 24 68 78 214 119 324 137 365 146
411 91 454 -25 19 -140 51 -187 51 -13 0 -31 -6 -40 -12z"/>
<path d="M4795 5031 c-211 -53 -269 -335 -156 -766 l18 -70 49 3 c27 2 94 14
150 27 324 77 502 197 520 351 18 150 -89 233 -267 208 l-69 -10 -16 55 c-9
31 -24 72 -34 91 -20 39 -92 110 -113 110 -6 0 -21 2 -32 4 -11 3 -33 1 -50
-3z"/>
<path d="M1992 4864 c-12 -8 -41 -51 -63 -95 -25 -51 -48 -83 -62 -88 -13 -5
-58 -12 -102 -16 -63 -6 -83 -12 -102 -31 -30 -30 -24 -44 60 -132 59 -62 69
-76 64 -100 -3 -15 -11 -62 -18 -105 -21 -128 6 -143 144 -75 l89 43 88 -47
c143 -77 172 -62 151 77 -18 123 -19 120 64 198 108 101 101 135 -35 157 -120
18 -123 21 -166 117 -32 72 -62 113 -84 113 -3 0 -16 -7 -28 -16z"/>
<path d="M1402 3452 c3 -1015 3 -1017 26 -1097 12 -44 43 -123 68 -175 39 -77
62 -109 128 -175 94 -93 184 -147 696 -420 625 -334 894 -510 1108 -728 l73
-74 67 70 c141 146 409 340 697 505 77 43 273 150 435 237 522 279 609 333
698 430 93 102 150 218 182 376 19 89 20 142 20 1078 l0 984 -127 -124 c-269
-261 -490 -395 -1003 -604 -284 -116 -483 -213 -610 -297 -109 -73 -247 -200
-310 -287 -25 -34 -47 -61 -50 -61 -3 0 -23 26 -45 56 -57 80 -209 222 -307
287 -156 104 -269 157 -743 354 -403 167 -679 345 -923 596 l-83 85 3 -1016z"/>
<path d="M2805 4346 c-93 -44 -145 -126 -145 -231 0 -146 109 -255 256 -255
211 0 330 243 201 412 -71 93 -205 125 -312 74z"/>
<path d="M3945 4346 c-93 -44 -145 -126 -145 -231 0 -193 201 -316 371 -227
187 98 184 370 -6 458 -68 32 -152 32 -220 0z"/>
<path d="M3455 3816 c-17 -7 -43 -28 -58 -45 -84 -100 -9 -251 125 -251 156 0
207 216 68 288 -50 25 -91 27 -135 8z"/>
</g>
</svg>
