<svg xmlns="http://www.w3.org/2000/svg" width="166" height="96" viewBox="0 0 166 96">
    <g>
        <path fill="#fba32c" d="M46 0h120l-46 96H0z" transform="translate(10) translate(-10)"/>
        <path fill="#fff" d="M3.4-8.78h4.957v-6.08h1.479V.22h-7.91v-15.08H3.4zm4.957 7.725v-6.431H3.4v6.431zm6.431-14.1v6.949h2.7v1.294h-2.7v8.3H13.31v-16.544zm5.951 6.1V-5.8H32.4v1.275h-5.9v3.877h6.579V.645H18.374V-.648h6.635v-3.881h-5.748v-5.8H30.7v-3.234H19.261v-1.297H32.18v5.8zm21.438-2.31v-2.2h-6.431v-1.295h7.91v3.345c0 6.321-2.513 10.4-8.021 11.865v-1.386c4.417-1.294 6.543-4.864 6.543-10.331zm6.431-3.789v6.949h2.7v1.294h-2.7v8.3h-1.477v-16.545zm10.479 3.789v-2.2H52.8v-1.295h7.762v3.345c0 6.265-2.44 10.423-7.873 11.865v-1.386C57-2.33 59.088-5.934 59.088-11.367zm6.838-3.789v16.52h-1.5v-16.522z" transform="translate(10) translate(39.356 47.156)"/>
        <path fill="none" stroke="#fff" stroke-linecap="round" stroke-linejoin="round" d="M43.282 56.758h64.2l-16.847-8.773" transform="translate(10) translate(-2.5 11)"/>
    </g>
</svg>
