<svg xmlns="http://www.w3.org/2000/svg" width="81.543" height="13.485" viewBox="0 0 81.543 13.485">
    <path fill="#fff" d="M7.7-.15H1.725v-6.705h4.92v-4.485h-4.92v-1.05H7.83v6.59H2.91v4.62h5a4.852 4.852 0 0 0 3.255-1v-10.45h1.215V.78h-1.22v-1.965A5.006 5.006 0 0 1 7.7-.15zm13.21-8.31a7.605 7.605 0 0 1-5.73 3.96v-1.08c3.09-.69 5.115-2.7 5.115-5.64v-1.26h1.215v1.26c0 2.94 2.1 4.95 5.13 5.64v1.08c-3-.615-4.89-2.19-5.73-3.96zM14.955.2V-.855H26.9V.2zm24.588-6.03h2.565v1.06h-11v-1.065H33.2v-5.505h-1.83v-1.05h10.483v1.05h-1.83v2.43a8.488 8.488 0 0 1-.48 3.075zM34.4-11.34v5.505h3.975a8.247 8.247 0 0 0 .45-2.97v-2.535zM30.648.2V-.855h11.94V.2zm15.645-7.88v2.64h9.465V-4h-4.785v3.15h5.34V.2h-11.94V-.855h5.385V-4h-4.665v-4.71h9.285v-2.63h-9.285v-1.05h10.485v4.71zM69.3-4.98h-4.6v4.125h5.34V.2H58.1V-.855h5.385V-4.98h-4.667v-7.41H69.3zm-1.2-1.065v-5.3h-8.082v5.3zm7.98-6.51v2.385A4.216 4.216 0 0 0 79.263-6v1.08a5.967 5.967 0 0 1-3.795-2.79 5.671 5.671 0 0 1-3.795 2.955V-5.85a4.4 4.4 0 0 0 3.195-4.32v-2.385zm2.64 4.905v-1.035h3.09V-10.2h-3.09v-1.035h3.09v-1.395h1.2v9.345h-1.2V-7.65zm4.545 8.5H73.038v-4.39h1.215v3.36h9.015z" transform="translate(-1.725 12.63)"/>
</svg>
