<svg xmlns="http://www.w3.org/2000/svg" width="150" height="48" viewBox="0 0 150 48">
    <defs>
        <style>
            .cls-3{fill:#fff}
        </style>
    </defs>
    <g id="button-bookmark" transform="translate(-1150)">
        <path id="button" fill="#fba32c" d="M30 0h120l-30 48H0z" transform="translate(1150)"/>
        <g id="ico-arrow-24px">
            <path id="arrow" d="M284.316 402.076a.491.491 0 0 1-.348.838h-15.8v-1.229h14.016l-5.9-5.9.869-.869z" class="cls-3" transform="translate(982.828 -370.911)"/>
        </g>
        <path id="바로가기" d="M3.366-8.946H8.19v-5.922h1.44V-.18h-7.7v-14.688h1.44zM8.19-1.422v-6.264H3.366v6.264zm6.264-13.734v6.768h2.628v1.26h-2.628V.954h-1.44v-16.11zm5.8 5.94v3.168h11.354v1.242h-5.742v3.78h6.408v1.26H17.946v-1.26h6.462v-3.78h-5.6v-5.652h11.144v-3.15H18.81v-1.26h12.582v5.652zm20.88-2.25v-2.142h-6.268v-1.26h7.7v3.258c0 6.156-2.448 10.134-7.812 11.556V-1.4c4.306-1.264 6.376-4.738 6.376-10.066zm6.264-3.69v6.768h2.628v1.26h-2.632V.954h-1.44v-16.11zm10.202 3.69v-2.142h-6.12v-1.26h7.56v3.258c0 6.1-2.376 10.152-7.668 11.556V-1.4C55.566-2.664 57.6-6.174 57.6-11.466zm6.66-3.69V.936H62.8v-16.092z" class="cls-3" transform="translate(1180 32)"/>
    </g>
</svg>
