<svg xmlns="http://www.w3.org/2000/svg" width="87" height="48" viewBox="0 0 87 48">
    <defs>
        <style>
            .cls-1{fill:#fff;opacity:0}
        </style>
    </defs>
    <g id="button-close" transform="translate(-1473)">
        <path id="button" d="M0 0H87V48H0z" class="cls-1" transform="translate(1473)"/>
        <path id="그만보기" fill="#fff" d="M-41.174-7.21v-3.514h-8.89v-.77h9.744v4.186a23.173 23.173 0 0 1-.434 4.452h-.84a23.206 23.206 0 0 0 .42-4.354zM-50.68.1v-.716h11.046V.1zm12.992-5.166v-6.5h5.866v6.5zm5.012-5.754h-4.172v5.02h4.172zm4.788-.91v3.61h1.96v.742h-1.96v4.27h-.854v-8.624zm-8.19 8.54V0h8.428v.742h-9.282v-3.934zm12.558-5.588h7.966v-2.716h.854v7.364h-4.382v3.514h5.068V.1H-25.06v-.716h5.124V-4.13h-4.438v-7.364h.854zm7.966 3.906v-3.15h-7.966v3.15zm8.666-4.018v-1.834h-4.886v-.77h5.74v2.52c0 4.7-1.876 7.812-5.824 8.848V-.9c3.29-.99 4.97-3.762 4.97-7.99zm4.06 9.548v-12.39h.854V.658z" transform="translate(1532 29)"/>
        <g id="ico-close-24px" transform="translate(15 -2)">
            <path id="ico-bg-24px" d="M0 0H24V24H0z" class="cls-1" transform="translate(1521 14)"/>
            <path id="x" fill="none" stroke="#fff" d="M6 6l-6 6 6-6-6-6 6 6 6-6-6 6 6 6z" transform="translate(1527 20)"/>
        </g>
    </g>
</svg>
