<svg xmlns="http://www.w3.org/2000/svg" width="124.43" height="22" viewBox="0 0 124.43 22">
    <g>
        <path fill="#fd9e00" d="M62.259 510.586l-.25-.157a4.429 4.429 0 0 0-3.587-1.116 6.792 6.792 0 0 0-3.139 1.08v-.036c0-.409.047-.852.088-1.283a11.256 11.256 0 0 0 .1-1.306 2.993 2.993 0 0 0-.2-1.186.223.223 0 0 0-.224-.144 3.475 3.475 0 0 0-1.447.472l-.1.241a9.44 9.44 0 0 1-.218 1.929c0-.006-.053.157-.053.157a23.235 23.235 0 0 0-.016 4.914c.016.141.287.35.495.427a3.14 3.14 0 0 0 1.364-.262l.156-.024a.243.243 0 0 0 .2-.276l.005-.4a4.032 4.032 0 0 1 2.942-2.881 2.037 2.037 0 0 1 1.958.627 2.691 2.691 0 0 1-.318 1.977 4.1 4.1 0 0 1-2.239 1.764 8.578 8.578 0 0 1-3.421.477c-.057-.036-1.261-.85-1.261-.85a18.062 18.062 0 0 0-3.594-2.13 4.5 4.5 0 0 1-.813-.584l-.125-.1c-.692-.551-2.015-1.432-3.072-2.133 0 0-.473-.32-.562-.382v-.123c.026-.032.693-.43.693-.43a7.143 7.143 0 0 0 1.452-.949c-.021.024.126-.073.126-.073l2.3-1.306a28.182 28.182 0 0 0 6.046-3.957l.062-.212.032-.185a1.315 1.315 0 0 0 .022-.773.252.252 0 0 0-.183-.173 5.022 5.022 0 0 0-3.566 1.645 2.981 2.981 0 0 1-.745.51l-.182.105c-1.328.755-4.333 2.617-5.9 3.62a51.657 51.657 0 0 1 .8-6.092l-.047-.237-.161-.3-.124-.219-.031-.009a1 1 0 0 0-.761-.049l-.312.118-.422.15a.249.249 0 0 0-.172.146 25.184 25.184 0 0 0-1.52 7.179 35.92 35.92 0 0 0-3.572-1.967l-.015-.013-.084-.015a2.462 2.462 0 0 1-.828-.388c-.031-.016-.572-.367-.572-.367l-.865-.559c.006 0-.233-.054-.233-.054a2.753 2.753 0 0 0-1.308.877.276.276 0 0 0-.042.138.851.851 0 0 0 .042.206l.041.179.042.107a12.321 12.321 0 0 0 2.5 1.7l1.2.636 1.833 1c0 .01.312.25.312.25l.219.123s.02.015.037.025L37.7 511.88l-1.75 1.16a10.262 10.262 0 0 1-1 .487 1.42 1.42 0 0 0-.791.647l-.047.1.047.067.135.1c-.006 0 .183.116.183.116l.192.133.183.028a4.7 4.7 0 0 0 1.619-.539c.78-.347 2.91-1.628 3.822-2.18l.385-.229a.864.864 0 0 0 .5-.242 4.834 4.834 0 0 1 .817-.5c.011 0 .151-.08.282-.151v.1a36.994 36.994 0 0 0 .5 6.363v.026l.032.063a7.613 7.613 0 0 1 .473 1.463l.344 1.16c.011.016.1.109.1.109a2.316 2.316 0 0 0 1.2.32l.1-.011.064-.146a2.854 2.854 0 0 0 .047-.531c0-.213-.021-.444-.037-.733l-.026-.416c-.131-1.945-.255-4.75-.255-6.618v-.146l1.775 1.116c2.464 1.594 6.181 4 8.42 4.64a.338.338 0 0 0 .329-.075l.343-.223.062-.021a.623.623 0 0 0 .234-.517c1.9-.093 4.53-.825 5.942-2.6a3.674 3.674 0 0 0 .8-2.247 1.889 1.889 0 0 0-.463-1.382" transform="translate(0.43) translate(-34.107 -499.318)"/>
        <path fill="#fff" d="M138.282 504.255h-8.232v6.945h8.232zm-1.728 5.432h-4.774v-3.927h4.774zm-9.5-5.671h-11.691v1.492h9.95v3h-11.205v1.5h6.2v2.168h-5.129v1.5H125.4v4.176h1.734v-5.675h-5.092v-2.168h6.258V508.5h-1.244zm6.3 8.675h-1.739v5.109h10.924v-1.5h-9.185zm9.054-8.77h-1.733v9.119h1.733zm-46.584.116h-3.131l-7.424 6.181v-6.181h-2.208v13.811h2.208v-7.4l8.08 7.4h3.124l-8.5-7.57zm11.189 6.63v-.059a3.154 3.154 0 0 0 2.718-3.122c0-2.347-1.692-3.422-4.925-3.422h-6.791v13.815h7.013c3.753 0 5.268-1.786 5.268-3.849a3.343 3.343 0 0 0-3.28-3.364zm-6.8-5.032h4.233c2.541 0 3.151.863 3.151 2.145 0 1.471-1.234 2.1-2.895 2.1h-4.489zm4.342 10.676h-4.342v-4.859h4.233c2.432 0 3.531.88 3.531 2.464.003 1.339-.715 2.395-3.418 2.395zm39.645-10.522h6.2v2.079h-6.2v1.489h6.2v3.987h1.751v-9.064H144.2zm14.531 9.633v1.485h13.279v-1.485zm11.846-4.635h-8.71v-5.013h8.71v-1.494H160.15v8h10.423zM156 503.98h-1.744v13.864H156v-8.892h1.771v-1.507H156z" transform="translate(0.43) translate(-48.007 -500.388)"/>
    </g>
</svg>
