<svg width="62" height="50" viewBox="0 0 62 50" xmlns="http://www.w3.org/2000/svg" xmlns:xlink="http://www.w3.org/1999/xlink">
    <defs>
        <path id="a" d="M0 0h61.036v5.638H0z"/>
    </defs>
    <g fill="none" fill-rule="evenodd">
        <g transform="translate(0 44.362)">
            <mask id="b" fill="#fff">
                <use xlink:href="#a"/>
            </mask>
            <path d="M1.85 1.85v.73a1.21 1.21 0 0 0 1.208 1.209h54.92a1.21 1.21 0 0 0 1.209-1.208V1.85H1.85zm56.129 3.788H3.059A3.06 3.06 0 0 1 0 2.581L0 1.335C0 .599.599 0 1.334 0h58.369c.735 0 1.334.599 1.334 1.334V2.58a3.06 3.06 0 0 1-3.058 3.057z" fill="#FFF" mask="url(#b)"/>
        </g>
        <path d="M54.432 16.653H39.815a.925.925 0 0 1 0-1.85h14.617a.925.925 0 0 1 0 1.85M21.222 16.653H6.605a.925.925 0 0 1 0-1.85h14.617a.925.925 0 0 1 0 1.85" fill="#FFF"/>
        <path d="M59.813 46.232a.923.923 0 0 1-.689-.307l-5.38-6a.926.926 0 0 1-.236-.617v-24.99c0-1.88-1.53-3.41-3.41-3.41h-9.469a.925.925 0 0 1 0-1.849h9.469c2.9 0 5.26 2.359 5.26 5.259v24.636l5.144 5.736a.925.925 0 0 1-.689 1.542M1.224 46.232a.925.925 0 0 1-.689-1.543l5.145-5.735V14.318c0-2.9 2.36-5.259 5.26-5.259h9.664a.924.924 0 1 1 0 1.85H10.94c-1.88 0-3.41 1.529-3.41 3.409v24.99a.926.926 0 0 1-.236.618l-5.38 6a.925.925 0 0 1-.69.306" fill="#FFF"/>
        <path d="M54.432 40.254H6.604a.925.925 0 0 1 0-1.85h47.828a.925.925 0 0 1 0 1.85M30.817 43.422h-1.195a.925.925 0 1 1 0-1.85h1.195a.925.925 0 0 1 0 1.85M35.003 43.422h-1.196a.925.925 0 1 1 0-1.85h1.196a.925.925 0 0 1 0 1.85M22.448 43.422h-1.196a.925.925 0 1 1 0-1.85h1.196a.925.925 0 0 1 0 1.85M26.632 43.422h-1.195a.925.925 0 1 1 0-1.85h1.195a.925.925 0 0 1 0 1.85M18.262 43.422h-1.195a.925.925 0 1 1 0-1.85h1.195a.925.925 0 0 1 0 1.85M9.893 43.422H8.697a.925.925 0 1 1 0-1.85h1.196a.925.925 0 0 1 0 1.85M14.078 43.422h-1.196a.925.925 0 1 1 0-1.85h1.196a.925.925 0 0 1 0 1.85M48.155 43.422h-1.196a.925.925 0 1 1 0-1.85h1.196a.925.925 0 0 1 0 1.85M52.34 43.422h-1.196a.925.925 0 1 1 0-1.85h1.196a.925.925 0 0 1 0 1.85M43.97 43.422h-1.195a.925.925 0 1 1 0-1.85h1.195a.925.925 0 0 1 0 1.85M30.518 1.85c-2.793 0-5.066 2.571-5.066 5.733 0 3.265 2.368 6.13 5.066 6.13 2.699 0 5.067-2.865 5.067-6.13 0-3.162-2.273-5.733-5.067-5.733m0 13.712c-3.749 0-6.916-3.654-6.916-7.98 0-4.18 3.103-7.582 6.916-7.582 3.814 0 6.917 3.402 6.917 7.583 0 4.325-3.168 7.98-6.917 7.98M30.215 18.256c-6.025 0-10.926 4.901-10.926 10.926v2.487a.9.9 0 0 0 .898.898H40.85a.9.9 0 0 0 .898-.898v-2.487c0-6.025-4.901-10.926-10.926-10.926h-.607zm10.635 16.16H20.187a2.75 2.75 0 0 1-2.748-2.747v-2.487c0-7.045 5.732-12.776 12.776-12.776h.607c7.045 0 12.776 5.73 12.776 12.776v2.487a2.75 2.75 0 0 1-2.748 2.748z" fill="#FFF"/>
        <path d="M23.662 34.417a.925.925 0 0 1-.924-.925v-6.367a.925.925 0 1 1 1.85 0v6.367c0 .51-.415.925-.926.925M37.375 34.417a.925.925 0 0 1-.925-.925v-6.367a.925.925 0 1 1 1.85 0v6.367c0 .51-.415.925-.925.925" fill="#FFF"/>
    </g>
</svg>
