<svg width="59" height="50" viewBox="0 0 59 50" xmlns="http://www.w3.org/2000/svg" xmlns:xlink="http://www.w3.org/1999/xlink">
    <defs>
        <path id="a" d="M0 0h11.776v11.777H0z"/>
        <path id="c" d="M0 0h11.776v11.777H0z"/>
    </defs>
    <g fill="none" fill-rule="evenodd">
        <g transform="translate(41.64)">
            <mask id="b" fill="#fff">
                <use xlink:href="#a"/>
            </mask>
            <path d="M5.889 1.77A4.123 4.123 0 0 0 1.77 5.889a4.123 4.123 0 0 0 4.119 4.118 4.123 4.123 0 0 0 4.117-4.118A4.123 4.123 0 0 0 5.89 1.77m0 10.007A5.895 5.895 0 0 1 0 5.89a5.895 5.895 0 0 1 5.889-5.89 5.895 5.895 0 0 1 5.887 5.89 5.895 5.895 0 0 1-5.887 5.888" fill="#FFF" mask="url(#b)"/>
        </g>
        <path d="M47.528 32.293c1.202 0 2.18.978 2.18 2.18v12.232c0 .841.662 1.525 1.476 1.525.875 0 1.274-.79 1.274-1.525V19.339a.884.884 0 1 1 1.77 0v11.045c0 .742.583 1.346 1.3 1.346.765 0 1.113-.699 1.113-1.346V18.643a3.768 3.768 0 0 0-3.764-3.765h-9.622c-1.1 0-2.134-.428-2.912-1.206l-6.248-6.247a1.359 1.359 0 0 0-.95-.404h-.015a1.27 1.27 0 0 0-.905.372c-.541.54-.294 1.28.163 1.74l8.377 8.376a6.206 6.206 0 0 1 1.833 4.418v24.778c0 .735.4 1.525 1.274 1.525.814 0 1.476-.684 1.476-1.525V34.472c0-1.201.978-2.179 2.18-2.179M51.184 50c-1.79 0-3.246-1.478-3.246-3.295V34.472a.41.41 0 0 0-.82 0v12.233c0 1.817-1.456 3.295-3.246 3.295-1.735 0-3.044-1.417-3.044-3.295V21.927a4.45 4.45 0 0 0-1.314-3.166l-8.377-8.377c-1.256-1.257-1.326-3.081-.164-4.244a3.025 3.025 0 0 1 2.19-.889 3.118 3.118 0 0 1 2.184.923l6.247 6.247a2.334 2.334 0 0 0 1.66.687h9.623a5.541 5.541 0 0 1 5.534 5.535v11.74c0 1.777-1.24 3.117-2.883 3.117-.464 0-.905-.106-1.3-.294v13.499c0 1.878-1.309 3.295-3.044 3.295" fill="#FFF"/>
        <g transform="translate(4.995)">
            <mask id="d" fill="#fff">
                <use xlink:href="#c"/>
            </mask>
            <path d="M5.888 1.77A4.123 4.123 0 0 0 1.77 5.889a4.123 4.123 0 0 0 4.118 4.118 4.123 4.123 0 0 0 4.118-4.118A4.123 4.123 0 0 0 5.888 1.77m0 10.007A5.895 5.895 0 0 1 0 5.89a5.895 5.895 0 0 1 5.888-5.89 5.895 5.895 0 0 1 5.888 5.89 5.895 5.895 0 0 1-5.888 5.888" fill="#FFF" mask="url(#d)"/>
        </g>
        <path d="M10.884 32.293c1.201 0 2.179.978 2.179 2.18v12.232c0 .841.663 1.525 1.476 1.525.875 0 1.274-.79 1.274-1.525V21.927c0-1.668.651-3.237 1.833-4.418l8.377-8.377c.458-.458.705-1.198.164-1.74a1.27 1.27 0 0 0-.906-.37h-.014a1.361 1.361 0 0 0-.95.402l-6.25 6.248a4.089 4.089 0 0 1-2.91 1.206H5.534a3.768 3.768 0 0 0-3.764 3.765v11.74c0 .648.348 1.347 1.113 1.347.717 0 1.3-.604 1.3-1.346V19.339a.885.885 0 1 1 1.77 0v27.366c0 .735.4 1.525 1.274 1.525.814 0 1.477-.684 1.477-1.525V34.472c0-1.201.977-2.179 2.18-2.179M14.539 50c-1.79 0-3.246-1.478-3.246-3.295V34.472a.41.41 0 0 0-.82 0v12.233c0 1.817-1.456 3.295-3.246 3.295-1.735 0-3.043-1.417-3.043-3.295v-13.5a3.015 3.015 0 0 1-1.301.295C1.24 33.5 0 32.16 0 30.384V18.643a5.541 5.541 0 0 1 5.534-5.535h9.623c.627 0 1.216-.244 1.66-.687l6.247-6.248a3.122 3.122 0 0 1 2.185-.922 3.004 3.004 0 0 1 2.19.89c1.161 1.162 1.091 2.986-.165 4.242l-8.377 8.378a4.45 4.45 0 0 0-1.313 3.166v10.104l-.001.035v14.639c0 1.878-1.309 3.295-3.044 3.295M24.62 38.325h-2.384a.885.885 0 0 1-.885-.872c-.04-2.72 1.56-4.807 2.908-6.08a.885.885 0 1 1 1.214 1.288c-.932.88-2.014 2.224-2.287 3.894h1.434a.885.885 0 0 1 0 1.77M36.175 38.325H33.79a.885.885 0 1 1 0-1.77h1.433c-.274-1.67-1.355-3.014-2.287-3.894a.885.885 0 1 1 1.214-1.288c1.934 1.825 2.94 3.927 2.909 6.08a.885.885 0 0 1-.885.872" fill="#FFF"/>
        <path d="M33.233 34.308a.886.886 0 0 1-.858-1.106c2.099-8.162-1.633-13.957-3.175-15.912-1.56 1.947-5.282 7.674-3.164 15.912a.886.886 0 0 1-1.715.442c-2.844-11.066 3.967-18.039 4.26-18.33a.882.882 0 0 1 1.25 0c.292.291 7.104 7.264 4.258 18.33a.886.886 0 0 1-.856.664" fill="#FFF"/>
        <path d="M32.322 21.857h-6.233a.885.885 0 0 1 0-1.77h6.233a.885.885 0 0 1 0 1.77M29.204 44.17a.885.885 0 0 1-.516-.165c-1.378-.99-3.646-3.807-2.362-7.39a.884.884 0 1 1 1.666.598c-.848 2.367.435 4.111 1.212 4.896.777-.784 2.062-2.528 1.213-4.896a.885.885 0 1 1 1.666-.597c1.284 3.582-.984 6.4-2.363 7.389a.885.885 0 0 1-.516.165M30.977 48.028a.885.885 0 0 1-.885-.885v-1.474a.885.885 0 0 1 1.77 0v1.474a.885.885 0 0 1-.885.885M34.52 49.22a.885.885 0 0 1-.885-.885V42.36a.885.885 0 0 1 1.77 0v5.975a.885.885 0 0 1-.885.885M27.434 49.85a.885.885 0 0 1-.885-.884v-3.35a.885.885 0 1 1 1.77 0v3.35a.885.885 0 0 1-.885.885M23.891 47.214a.885.885 0 0 1-.885-.885v-5.346a.885.885 0 1 1 1.77 0v5.346a.885.885 0 0 1-.885.885M29.206 25.96a.885.885 0 0 1-.885-.886v-.603a.885.885 0 0 1 1.77 0v.603a.885.885 0 0 1-.885.885M29.206 28.974a.885.885 0 0 1-.885-.885v-.604a.885.885 0 0 1 1.77 0v.604a.885.885 0 0 1-.885.885M29.206 31.988a.885.885 0 0 1-.885-.885V30.5a.885.885 0 0 1 1.77 0v.603a.885.885 0 0 1-.885.885" fill="#FFF"/>
    </g>
</svg>
