<svg width="51" height="50" viewBox="0 0 51 50" xmlns="http://www.w3.org/2000/svg" xmlns:xlink="http://www.w3.org/1999/xlink">
    <defs>
        <path id="a" d="M0 0h9.843v5.965H0z"/>
    </defs>
    <g fill="none" fill-rule="evenodd">
        <g transform="translate(35.83 44.035)">
            <mask id="b" fill="#fff">
                <use xlink:href="#a"/>
            </mask>
            <path d="M9.08 5.965a.763.763 0 0 1-.41-.12L4.922 3.464l-3.75 2.383A.763.763 0 0 1 0 5.202V.763a.763.763 0 1 1 1.526 0v3.05l2.986-1.898a.763.763 0 0 1 .819 0l2.986 1.898V.763a.763.763 0 1 1 1.526 0v4.439a.763.763 0 0 1-.763.763" fill="#FFF" mask="url(#b)"/>
        </g>
        <path d="M40.759 31.428c-.324 0-.65.037-.974.111a4.279 4.279 0 0 0-2.686 1.913 4.285 4.285 0 0 0-.548 3.251 4.285 4.285 0 0 0 1.913 2.686 4.28 4.28 0 0 0 3.251.547 4.28 4.28 0 0 0 2.687-1.911c.61-.976.805-2.131.547-3.252a4.28 4.28 0 0 0-1.912-2.686 4.277 4.277 0 0 0-2.278-.659m-.02 10.147a5.794 5.794 0 0 1-3.085-.892 5.794 5.794 0 0 1-2.589-3.638 5.793 5.793 0 0 1 .741-4.403 5.79 5.79 0 0 1 3.638-2.59 5.795 5.795 0 0 1 4.403.74 5.796 5.796 0 0 1 2.59 3.639 5.796 5.796 0 0 1-.742 4.403 5.796 5.796 0 0 1-3.637 2.59c-.438.1-.88.15-1.319.15" fill="#FFF"/>
        <path d="M37.841 41.397c.288 0 .56.163.689.434l.62 1.302 1.095-.94a.761.761 0 0 1 .992-.001l1.097.936.616-1.303a.764.764 0 0 1 .906-.406l1.384.41.033-1.442a.763.763 0 0 1 .663-.739l1.43-.188-.557-1.331a.763.763 0 0 1 .306-.944l1.23-.754-1.05-.99a.765.765 0 0 1-.105-.987l.816-1.188-1.36-.477a.763.763 0 0 1-.499-.86l.263-1.417-1.437.117a.763.763 0 0 1-.804-.582l-.336-1.402-1.266.692a.763.763 0 0 1-.97-.205l-.88-1.144-.873 1.147a.764.764 0 0 1-.971.208l-1.268-.689-.332 1.404a.773.773 0 0 1-.802.585l-1.438-.114.268 1.418a.763.763 0 0 1-.496.86l-1.359.482.821 1.186c.214.31.17.729-.102.988l-1.047.992 1.232.75a.762.762 0 0 1 .308.943l-.551 1.333 1.43.184c.373.048.656.36.666.736l.038 1.442 1.382-.414a.75.75 0 0 1 .218-.032m1.05 3.728a.767.767 0 0 1-.688-.435l-.77-1.612-1.71.513a.76.76 0 0 1-.982-.71l-.046-1.786-1.772-.228a.761.761 0 0 1-.608-1.049l.684-1.65-1.526-.928a.763.763 0 0 1-.129-1.205l1.296-1.23-1.017-1.468a.765.765 0 0 1 .374-1.153l1.683-.597-.331-1.755a.761.761 0 0 1 .81-.902l1.78.14.411-1.738a.761.761 0 0 1 1.107-.495l1.57.853 1.082-1.42a.76.76 0 0 1 1.212-.003l1.088 1.417 1.567-.857a.761.761 0 0 1 1.108.492l.417 1.736 1.78-.146a.765.765 0 0 1 .812.9l-.326 1.756 1.685.59a.763.763 0 0 1 .378 1.153l-1.012 1.472 1.3 1.225a.761.761 0 0 1-.125 1.206l-1.523.933.688 1.648a.765.765 0 0 1-.604 1.05l-1.771.234-.04 1.785a.763.763 0 0 1-.98.714l-1.713-.507-.764 1.615a.762.762 0 0 1-1.185.253l-1.358-1.16-1.355 1.165a.763.763 0 0 1-.496.184M48.411 27.495a.763.763 0 0 1-.763-.763v-8.245a3.79 3.79 0 0 0-3.785-3.785h-9.651a.763.763 0 0 1 0-1.526h9.651a5.317 5.317 0 0 1 5.311 5.31v8.246a.763.763 0 0 1-.763.763M30.543 42.266H5.31A5.317 5.317 0 0 1 0 36.956v-18.47a5.317 5.317 0 0 1 5.31-5.31h9.797a.763.763 0 0 1 0 1.525H5.31a3.789 3.789 0 0 0-3.784 3.785v18.47A3.789 3.789 0 0 0 5.31 40.74h25.233a.763.763 0 0 1 0 1.525M24.587 1.526c-1.87 0-3.392 1.729-3.392 3.853 0 2.2 1.585 4.13 3.392 4.13s3.392-1.93 3.392-4.13c0-2.124-1.522-3.853-3.392-3.853m0 9.51c-2.666 0-4.918-2.59-4.918-5.657C19.669 2.413 21.875 0 24.587 0s4.918 2.413 4.918 5.38c0 3.065-2.252 5.655-4.918 5.655" fill="#FFF"/>
        <path d="M24.376 13.513c-4.11 0-7.455 3.345-7.455 7.455v1.725c0 .276.225.501.502.501H31.75a.501.501 0 0 0 .501-.501v-1.725c0-4.11-3.344-7.455-7.455-7.455h-.42zm7.375 11.207H17.423a2.03 2.03 0 0 1-2.028-2.027v-1.725c0-4.952 4.03-8.98 8.981-8.98h.421c4.952 0 8.98 4.028 8.98 8.98v1.725a2.03 2.03 0 0 1-2.026 2.027z" fill="#FFF"/>
        <path d="M29.092 24.72a.763.763 0 0 1-.763-.763v-3.416a.763.763 0 0 1 1.526 0v3.416a.763.763 0 0 1-.763.763M20.081 24.72a.763.763 0 0 1-.763-.763v-3.416a.763.763 0 0 1 1.526 0v3.416a.763.763 0 0 1-.763.763M28.23 31.13H12.97a.763.763 0 0 1 0-1.526h15.26a.763.763 0 0 1 0 1.526M20.906 35.403H12.97a.763.763 0 0 1 0-1.526h7.935a.763.763 0 0 1 0 1.526M9.308 31.13h-1.22a.763.763 0 0 1 0-1.526h1.22a.763.763 0 0 1 0 1.526M9.308 35.403h-1.22a.763.763 0 0 1 0-1.526h1.22a.763.763 0 0 1 0 1.526" fill="#FFF"/>
    </g>
</svg>
