<svg width="400" height="273" viewBox="0 0 400 273" xmlns="http://www.w3.org/2000/svg" xmlns:xlink="http://www.w3.org/1999/xlink">
    <defs>
        <path id="a" d="M0 0h400v251.933H0z"/>
        <path id="c" d="M0 272.277h400V0H0z"/>
    </defs>
    <g fill="none" fill-rule="evenodd">
        <mask id="b" fill="#fff">
            <use xlink:href="#a"/>
        </mask>
        <path d="M228.243.501a103.945 103.945 0 0 0-3.44-.07l.001-.431c1.15.004 2.311.028 3.455.07l-.016.431zm-10.32.135-.028-.43c1.143-.073 2.304-.127 3.453-.161l.013.431c-1.144.034-2.3.088-3.439.16zm17.186.354c-1.136-.12-2.29-.222-3.429-.302l.031-.43c1.144.08 2.302.183 3.443.303l-.045.429zm-24.037.316-.057-.428c1.137-.15 2.293-.283 3.434-.394l.043.429c-1.137.111-2.288.243-3.42.393zm30.854.637a101.714 101.714 0 0 0-3.4-.535l.06-.427c1.137.16 2.286.34 3.414.537l-.074.425zm-37.643.498-.086-.423a101.07 101.07 0 0 1 3.4-.628l.07.425c-1.128.189-2.267.4-3.384.626zm44.377.92c-1.11-.274-2.238-.532-3.355-.767l.089-.422c1.121.236 2.255.495 3.37.77l-.104.419zm-51.08.68-.115-.417c1.11-.305 2.24-.595 3.356-.861l.1.419c-1.111.265-2.236.554-3.341.858zm57.703 1.196c-1.089-.349-2.197-.684-3.295-.995l.117-.415c1.103.313 2.216.65 3.31 1l-.132.41zm-64.287.862-.143-.406c1.085-.381 2.191-.748 3.288-1.091l.129.411c-1.092.342-2.194.707-3.274 1.086zm70.747 1.459c-1.06-.422-2.14-.831-3.21-1.216l.145-.406c1.075.387 2.16.797 3.224 1.221l-.16.4zm-77.17 1.048-.17-.396c1.058-.455 2.135-.897 3.203-1.314l.157.402a101.03 101.03 0 0 0-3.19 1.308zm83.46 1.71a101.79 101.79 0 0 0-3.122-1.433l.173-.395c1.05.461 2.104.945 3.135 1.44l-.187.389zm-89.693 1.23-.197-.383a102.166 102.166 0 0 1 3.104-1.53l.184.39c-1.032.487-2.072 1-3.09 1.524zm95.782 1.955c-.995-.564-2.01-1.117-3.018-1.644l.2-.382c1.012.529 2.031 1.085 3.03 1.651l-.212.375zm-101.797 1.406-.223-.37c.984-.594 1.99-1.179 2.991-1.738l.211.377c-.997.556-1.999 1.139-2.979 1.73zm107.657 2.187c-.952-.628-1.927-1.25-2.9-1.846l.225-.368c.977.599 1.957 1.223 2.913 1.855l-.238.36zm-113.427 1.574-.247-.353a101.91 101.91 0 0 1 2.865-1.938l.235.361c-.958.625-1.918 1.274-2.853 1.93zm119.03 2.412a101.56 101.56 0 0 0-2.768-2.04l.25-.352c.937.666 1.872 1.356 2.78 2.05l-.261.342zm-124.529 1.732-.271-.335c.893-.721 1.81-1.437 2.726-2.128l.26.345c-.913.687-1.826 1.4-2.715 2.118zm129.853 2.626c-.858-.752-1.74-1.5-2.625-2.225l.273-.333c.888.727 1.775 1.479 2.636 2.234l-.284.324zm-135.057 1.881-.293-.316c.84-.779 1.706-1.555 2.574-2.307l.283.326c-.865.749-1.728 1.522-2.564 2.297zm140.073 2.828c-.805-.809-1.636-1.616-2.469-2.397l.296-.314c.836.784 1.67 1.595 2.479 2.407l-.306.304zm-144.958 2.02-.314-.295c.783-.832 1.594-1.665 2.412-2.476l.303.306c-.813.808-1.621 1.637-2.4 2.465zm149.645 3.021c-.75-.863-1.524-1.724-2.3-2.56l.315-.293c.78.838 1.558 1.703 2.311 2.57l-.326.283zm-154.19 2.146-.333-.274c.728-.887 1.481-1.772 2.238-2.633l.324.285c-.754.857-1.503 1.739-2.229 2.622zm158.526 3.202c-.69-.913-1.405-1.825-2.123-2.71l.336-.272c.72.89 1.438 1.805 2.131 2.723l-.344.26zM142.24 42.794l-.351-.25c.665-.932 1.356-1.866 2.053-2.777l.343.262c-.695.907-1.383 1.837-2.045 2.765zm166.671 3.374a102.149 102.149 0 0 0-1.934-2.85l.353-.247c.66.937 1.313 1.9 1.942 2.862l-.36.235zM138.44 48.525l-.367-.226a101.38 101.38 0 0 1 1.86-2.91l.358.239c-.632.953-1.255 1.928-1.851 2.897zm-38.991 1.96-.017-.43a52.598 52.598 0 0 1 3.463-.024l-.012.431a51.927 51.927 0 0 0-3.434.023zm10.265.622a50.814 50.814 0 0 0-3.404-.438l.04-.43c1.147.11 2.302.258 3.434.443l-.07.425zm-17.089.116-.075-.424c1.13-.201 2.284-.366 3.428-.49l.047.43a50.599 50.599 0 0 0-3.4.484zm219.859.836a101.538 101.538 0 0 0-1.736-2.976l.37-.224c.596.985 1.182 1.99 1.742 2.99l-.376.21zm-196.089.617a50.202 50.202 0 0 0-3.313-.899l.098-.42c1.12.263 2.245.568 3.342.907l-.127.412zm-30.43.206-.132-.41a50.735 50.735 0 0 1 3.33-.952l.104.419a50.322 50.322 0 0 0-3.301.943zm49.074 1.617-.382-.2c.532-1.014 1.09-2.033 1.656-3.029l.375.214c-.564.991-1.12 2.006-1.65 3.015zm-12.24.644a50.484 50.484 0 0 0-3.16-1.344l.156-.402c1.072.413 2.144.869 3.187 1.355l-.182.39zm-43.211.298-.188-.389c1.036-.5 2.103-.971 3.172-1.4l.16.4c-1.059.425-2.117.892-3.144 1.389zm236.058 2.742a101.53 101.53 0 0 0-1.529-3.09l.383-.197a101.015 101.015 0 0 1 1.535 3.102l-.39.185zm-186.837.277a50.71 50.71 0 0 0-2.948-1.76l.208-.378a51.163 51.163 0 0 1 2.974 1.776l-.234.362zm-55.188.383-.24-.36a51.05 51.05 0 0 1 2.951-1.818l.214.375a50.677 50.677 0 0 0-2.925 1.803zm58.418 1.88-.409-.305.178-.238c.417-.937.853-1.878 1.297-2.798l.388.188c-.46.955-.913 1.933-1.344 2.906l-.11.248zm-63.866 2.298-.285-.323c.861-.759 1.761-1.5 2.675-2.2l.263.342a50.798 50.798 0 0 0-2.653 2.181zm250.208 1.49a100.614 100.614 0 0 0-1.314-3.188l.396-.171c.457 1.056.9 2.133 1.32 3.201l-.402.158zM63.34 67.895l-.327-.282a51.193 51.193 0 0 1 2.353-2.54l.307.304a50.877 50.877 0 0 0-2.334 2.518zm257.334 3.12c-.343-1.092-.71-2.193-1.091-3.272l.407-.144c.382 1.084.751 2.19 1.096 3.286l-.412.13zm-261.463 2.36-.361-.236a51.139 51.139 0 0 1 1.987-2.833l.345.26a50.813 50.813 0 0 0-1.97 2.809zm263.303 4.28a100.958 100.958 0 0 0-.861-3.332l.416-.115c.305 1.104.596 2.23.865 3.346l-.42.1zm4.948.859a87.083 87.083 0 0 0-3.397-.523l.058-.428c1.133.152 2.281.329 3.413.526l-.074.425zm-271.596.845-.39-.184a51.174 51.174 0 0 1 1.583-3.075l.377.21a50.578 50.578 0 0 0-1.57 3.05zm278.321.604a86.71 86.71 0 0 0-3.349-.791l.091-.422c1.123.242 2.255.51 3.365.796l-.107.417zm6.59 1.979a87.48 87.48 0 0 0-3.276-1.055l.124-.413c1.098.33 2.206.686 3.291 1.06l-.14.408zm6.394 2.488a87.335 87.335 0 0 0-3.173-1.308l.156-.402c1.068.416 2.141.858 3.19 1.314l-.173.396zM53.367 85.745l-.412-.13a50.539 50.539 0 0 1 1.15-3.265l.403.157a50 50 0 0 0-1.141 3.238zm299.987 1.673a86.863 86.863 0 0 0-3.063-1.556l.188-.388a87.816 87.816 0 0 1 3.078 1.563l-.203.38zm5.93 3.468a87.998 87.998 0 0 0-2.932-1.793l.218-.372c.991.58 1.982 1.185 2.946 1.801l-.232.364zm-307.52 1.53-.426-.072c.192-1.134.425-2.275.693-3.392l.42.1a50.346 50.346 0 0 0-.687 3.364zm313.162 2.395a87.733 87.733 0 0 0-2.783-2.018l.247-.354a88.64 88.64 0 0 1 2.796 2.028l-.26.344zm5.319 4.358a87.642 87.642 0 0 0-2.617-2.232l.273-.333a88.09 88.09 0 0 1 2.63 2.242l-.286.323zm-319.162.073-.43-.014c.036-1.15.112-2.312.225-3.454l.43.043a51.212 51.212 0 0 0-.225 3.425zm324.124 4.69a87.842 87.842 0 0 0-2.435-2.43l.299-.311c.827.793 1.65 1.615 2.447 2.442l-.311.299zM50.44 105.845l-.144-.406c.176-.063.352-.124.528-.185a54.407 54.407 0 0 1-.162-2.563l.43-.016c.035.874.092 1.76.176 2.71l.015.168-.16.054c-.228.078-.456.157-.683.238zm-6.38 2.591-.18-.391a75.243 75.243 0 0 1 3.178-1.378l.162.4c-1.06.43-2.123.891-3.16 1.37zm335.722.635a88.341 88.341 0 0 0-2.237-2.614l.322-.287a89.22 89.22 0 0 1 2.248 2.628l-.333.273zm-341.834 2.531-.216-.373a75.244 75.244 0 0 1 3.037-1.663l.199.383a74.76 74.76 0 0 0-3.02 1.653zm345.993 2.954a87.828 87.828 0 0 0-2.026-2.784l.344-.26a88.509 88.509 0 0 1 2.036 2.797l-.354.247zm-351.787.758-.249-.352a76.272 76.272 0 0 1 2.87-1.933l.234.363c-.96.614-1.92 1.261-2.855 1.922zm-5.429 4.224-.28-.328a76.394 76.394 0 0 1 2.682-2.186l.264.34c-.9.701-1.797 1.433-2.666 2.174zm360.931.815a87.74 87.74 0 0 0-1.8-2.936l.363-.232c.62.967 1.229 1.96 1.81 2.95l-.373.218zm-365.951 3.885-.309-.3a75.954 75.954 0 0 1 2.47-2.422l.295.315a76.117 76.117 0 0 0-2.456 2.407zm369.197 2.19a87.307 87.307 0 0 0-1.563-3.07l.38-.204a87.667 87.667 0 0 1 1.572 3.086l-.389.187zm-373.768 2.947-.334-.272a76.63 76.63 0 0 1 2.239-2.635l.322.287a76.106 76.106 0 0 0-2.227 2.62zm376.524 3.37a86.686 86.686 0 0 0-1.315-3.187l.395-.173a87.43 87.43 0 0 1 1.322 3.202l-.402.157zm-380.605 2.159-.358-.24a76.148 76.148 0 0 1 1.989-2.827l.347.256a75.414 75.414 0 0 0-1.978 2.81zm382.85 4.36a86.705 86.705 0 0 0-1.058-3.283l.408-.14a86.453 86.453 0 0 1 1.063 3.298l-.414.124zM9.495 140.78l-.38-.206a75.641 75.641 0 0 1 1.722-2.996l.369.223a75.26 75.26 0 0 0-1.711 2.979zm388.12 5.143a86.42 86.42 0 0 0-.79-3.348l.418-.107c.286 1.112.553 2.244.794 3.364l-.421.09zM6.495 146.958l-.396-.17c.453-1.053.937-2.11 1.438-3.141l.388.188a74.51 74.51 0 0 0-1.43 3.123zm392.303 5.74a86.95 86.95 0 0 0-.523-3.398l.425-.074c.196 1.127.373 2.276.525 3.416l-.427.057zm-394.721.683-.41-.133a74.895 74.895 0 0 1 1.14-3.258l.404.152a74.335 74.335 0 0 0-1.134 3.239zm395.363 6.165a88.21 88.21 0 0 0-.254-3.43l.43-.04c.106 1.14.192 2.3.254 3.446l-.43.024zm-397.18.457-.42-.095c.25-1.118.533-2.247.837-3.355l.416.114a74.355 74.355 0 0 0-.833 3.336zm397.717 6.43-.432-.01a87.373 87.373 0 0 0 .014-3.44l.431-.006a90.041 90.041 0 0 1-.013 3.457zm-398.917.339-.427-.056c.148-1.14.324-2.29.524-3.418l.425.076a74.986 74.986 0 0 0-.522 3.398zm398.485 6.56-.429-.045c.116-1.132.21-2.285.282-3.427l.43.027a89.219 89.219 0 0 1-.283 3.444zm-399.06.29-.43-.017c.043-1.146.114-2.307.21-3.451l.43.036a75.682 75.682 0 0 0-.21 3.431zm398.089 6.552-.424-.078c.204-1.12.39-2.262.55-3.395l.427.06a87.92 87.92 0 0 1-.553 3.413zm-398.471.344A77.274 77.274 0 0 1 0 177.063l.431-.003c.008 1.14.042 2.296.102 3.436l-.431.022zm396.96 6.4-.416-.111c.293-1.102.568-2.226.818-3.34l.42.094c-.25 1.12-.527 2.25-.821 3.356zm-396.286.48a75.576 75.576 0 0 1-.416-3.432l.43-.042c.11 1.136.25 2.284.413 3.412l-.427.062zm394.245 6.123-.406-.144c.38-1.075.743-2.174 1.08-3.265l.413.128a87.606 87.606 0 0 1-1.087 3.28zm-392.943.667a75.23 75.23 0 0 1-.73-3.38l.424-.081c.215 1.12.459 2.25.725 3.36l-.42.1zm390.387 5.745-.394-.175c.462-1.038.91-2.101 1.334-3.16l.4.159a87.337 87.337 0 0 1-1.34 3.176zm-388.46.904a75.055 75.055 0 0 1-1.042-3.306l.414-.12a73.979 73.979 0 0 0 1.036 3.287l-.408.14zm385.408 5.28-.38-.206a87.954 87.954 0 0 0 1.58-3.047l.387.19a88.38 88.38 0 0 1-1.587 3.063zM6.539 207.285a75.125 75.125 0 0 1-1.342-3.194l.402-.157a74.893 74.893 0 0 0 1.334 3.175l-.394.176zm379.34 4.76-.362-.235a87.31 87.31 0 0 0 1.817-2.915l.37.22a87.668 87.668 0 0 1-1.825 2.93zM9.657 213.468a76.006 76.006 0 0 1-1.63-3.055l.385-.194a74.759 74.759 0 0 0 1.62 3.038l-.375.211zm372.23 4.212-.342-.262a87.975 87.975 0 0 0 2.042-2.765l.352.249a88.255 88.255 0 0 1-2.052 2.778zm-368.559 1.656a75.974 75.974 0 0 1-1.903-2.891l.366-.23a75.465 75.465 0 0 0 1.892 2.876l-.355.245zm364.136 3.652-.32-.29a87.99 87.99 0 0 0 2.253-2.597l.331.276a88.142 88.142 0 0 1-2.264 2.61zM17.519 224.84a76.241 76.241 0 0 1-2.159-2.704l.344-.262a75.735 75.735 0 0 0 2.146 2.69l-.331.276zm355.117 3.093-.297-.313a88.723 88.723 0 0 0 2.451-2.414l.309.3c-.8.82-1.63 1.637-2.463 2.427zm-350.444 2.005a76.561 76.561 0 0 1-2.394-2.495l.318-.292c.77.84 1.57 1.675 2.38 2.482l-.304.305zm345.24 2.55-.27-.336a88.528 88.528 0 0 0 2.633-2.215l.284.324a88.498 88.498 0 0 1-2.646 2.226zm-340.123 2.1a76.457 76.457 0 0 1-2.611-2.267l.29-.319a75.428 75.428 0 0 0 2.596 2.254l-.275.331zm334.576 2.034-.243-.356a87.507 87.507 0 0 0 2.8-2.003l.258.346a88.535 88.535 0 0 1-2.815 2.013zm-329.06 2.128a75.814 75.814 0 0 1-2.805-2.018l.26-.344a75.09 75.09 0 0 0 2.79 2.006l-.244.356zm323.202 1.558-.215-.374c.99-.57 1.984-1.168 2.951-1.777l.23.365a88.016 88.016 0 0 1-2.966 1.786zm-317.33 2.082a75.79 75.79 0 0 1-2.977-1.752l.227-.367c.97.601 1.965 1.188 2.96 1.743l-.21.376zm311.195 1.131-.184-.39a86.841 86.841 0 0 0 3.084-1.538l.2.382a87.278 87.278 0 0 1-3.1 1.546zm-305.02 1.954a75.277 75.277 0 0 1-3.122-1.471l.192-.386c1.02.51 2.065 1.002 3.106 1.463l-.175.394zm298.647.764-.154-.403a86.897 86.897 0 0 0 3.199-1.29l.17.397c-1.06.452-2.143.888-3.215 1.296zM51.31 247.982a75.336 75.336 0 0 1-3.251-1.18l.157-.402c1.061.413 2.149.808 3.232 1.174l-.138.408zm285.644.459-.12-.414a86.589 86.589 0 0 0 3.283-1.028l.137.409a87.022 87.022 0 0 1-3.3 1.033zM57.96 249.886a75.182 75.182 0 0 1-3.346-.875l.118-.414c1.098.314 2.218.607 3.328.87l-.1.42zm272.286.225-.087-.423a87.072 87.072 0 0 0 3.354-.764l.104.418a87.8 87.8 0 0 1-3.37.769zm-265.49 1.058a75.227 75.227 0 0 1-3.413-.563l.08-.424c1.123.212 2.264.4 3.393.56l-.06.427zm258.67.075-.054-.428a87.952 87.952 0 0 0 3.404-.497l.071.426a88.53 88.53 0 0 1-3.421.499zm-6.888.592-.02-.43c1.14-.054 2.295-.13 3.433-.228l.037.43a89.306 89.306 0 0 1-3.45.228zm-244.98.097h-.725l-.07-.156a76.08 76.08 0 0 1-2.573-.2l.041-.43c.891.085 1.795.155 2.687.207l.13.008.063.14h.447v.431zm3.45 0h3.45v-.431h-3.45v.431zm6.9 0h3.451v-.431h-3.45v.431zm6.901 0h3.45v-.431h-3.45v.431zm6.901 0h3.45v-.431h-3.45v.431zm6.9 0h3.45v-.431h-3.45v.431zm6.901 0h3.45v-.431h-3.45v.431zm6.9 0h3.451v-.431h-3.45v.431zm6.902 0h3.45v-.431h-3.45v.431zm6.9 0h3.45v-.431h-3.45v.431zm6.9 0h3.451v-.431h-3.45v.431zm6.901 0h3.45v-.431h-3.45v.431zm6.901 0h3.45v-.431h-3.45v.431zm6.9 0h3.451v-.431h-3.45v.431zm6.901 0h3.45v-.431h-3.45v.431zm6.9 0h3.451v-.431h-3.45v.431zm6.902 0h3.45v-.431h-3.45v.431zm6.9 0h3.45v-.431h-3.45v.431zm6.9 0h3.451v-.431h-3.45v.431zm6.901 0h3.45v-.431h-3.45v.431zm6.901 0h3.45v-.431h-3.45v.431zm6.9 0h3.451v-.431h-3.45v.431zm6.901 0h3.45v-.431h-3.45v.431zm6.901 0h3.45v-.431h-3.45v.431zm6.9 0h3.45v-.431h-3.45v.431zm6.901 0h3.45v-.431h-3.45v.431zm6.9 0h3.451v-.431h-3.45v.431zm6.902 0h3.45v-.431h-3.45v.431zm6.9 0h3.45v-.431h-3.45v.431zm6.9 0h3.451v-.431h-3.45v.431zm6.901 0h3.45v-.431h-3.45v.431zm6.901 0h3.45v-.431h-3.45v.431zm6.9 0h3.451v-.431h-3.45v.431zm6.901 0h3.45v-.431h-3.45v.431zm6.901 0h3.45v-.431h-3.45v.431zm9.65 0h-2.75v-.431h2.75l.7-.003.003.431a87.33 87.33 0 0 1-.703.003z" fill="#C6E2FA" mask="url(#b)"/>
        <mask id="d" fill="#fff">
            <use xlink:href="#c"/>
        </mask>
        <path d="M231.847 33.884h.436v-3.449h-.436v3.45zm0 6.898h.436v-3.449h-.436v3.449zm0 6.898h.436v-3.449h-.436v3.449zm0 6.898h.436v-3.45h-.436v3.45zm0 6.898h.436v-3.45h-.436v3.45zm0 6.898h.436v-3.45h-.436v3.45zm0 6.898h.436v-3.45h-.436v3.45zm0 6.898h.436v-3.45h-.436v3.45zm0 4.986h.436v-1.538h-.436v1.538zM231.847 170.589h.436v-3.45h-.436v3.45zm0 6.898h.436v-3.45h-.436v3.45zm0 6.898h.436v-3.45h-.436v3.45zm0 6.897h.436v-3.449h-.436v3.45zm0 6.898h.436v-3.449h-.436v3.45zm0 6.898h.436v-3.449h-.436v3.45zm0 6.898h.436v-3.449h-.436v3.45zm0 6.898h.436v-3.449h-.436v3.45zm0 6.898h.436v-3.449h-.436v3.449zm0 6.898h.436v-3.45h-.436v3.45zm0 6.898h.436v-3.45h-.436v3.45zm0 6.898h.436v-3.45h-.436v3.45zm0 6.898h.436v-3.45h-.436v3.45zm0 6.897h.436v-3.448h-.436v3.448zm0 6.898h.436v-3.449h-.436v3.45zM78.892 78.235h3.45V77.8h-3.45v.436zm6.9 0h3.451V77.8h-3.45v.436zm6.901 0h3.45V77.8h-3.45v.436zm6.901 0h3.45V77.8h-3.45v.436zm6.9 0h3.45V77.8h-3.45v.436zm6.901 0h3.45V77.8h-3.45v.436zm6.9 0h3.451V77.8h-3.45v.436zm6.902 0h3.45V77.8h-3.45v.436zm6.9 0h3.45V77.8h-3.45v.436zm6.9 0h3.451V77.8h-3.45v.436zM84.427 218.721h2.94v-.436h-2.94v.436zm6.39 0h3.451v-.436h-3.45v.436zm6.902 0h3.45v-.436h-3.45v.436zm6.9 0h3.45v-.436h-3.45v.436zm6.9 0h3.451v-.436h-3.45v.436zm6.901 0h3.45v-.436h-3.45v.436zM220.421 218.721h3.45v-.436h-3.45v.436zm6.901 0h3.45v-.436h-3.45v.436zm6.9 0h3.451v-.436h-3.45v.436zm6.901 0h3.45v-.436h-3.45v.436zm6.9 0h3.451v-.436h-3.45v.436zM310.315 218.721h1.617v-.436h-1.617v.436zm5.067 0h3.45v-.436h-3.45v.436zm6.901 0h3.45v-.436h-3.45v.436z" fill="#C6E2FA" mask="url(#d)"/>
        <path fill="#318AF1" mask="url(#d)" d="M183.867 42.183h32.75V18.688h-32.75zM185.78 145.586h28.925v-28.914H185.78v28.914zm-1.295 1.294H216v-31.502h-31.514v31.502zM216.077 222.07h-31.24v-45.267h29.515a.647.647 0 1 1 0 1.293H186.13v42.681h28.652v-8.622a.647.647 0 0 1 1.294 0v9.916zM176.116 80.782l23.918 23.908 23.917-23.908-23.917-23.908-23.918 23.908zm23.918 25.737-25.747-25.737 25.747-25.737 25.747 25.737-25.747 25.737z"/>
        <path fill="#318AF1" mask="url(#d)" d="m211.039 80.782-11.005 11.001-11.005-11 11.005-11.002zM138.683 94.855c-8.438 0-15.303 6.862-15.303 15.296 0 8.435 6.865 15.297 15.303 15.297s15.302-6.862 15.302-15.297c0-8.434-6.864-15.296-15.302-15.296m0 31.886c-9.151 0-16.597-7.442-16.597-16.59 0-9.147 7.446-16.59 16.597-16.59 9.151 0 16.596 7.443 16.596 16.59 0 9.148-7.445 16.59-16.596 16.59M126.371 157.509c-5.352 0-9.706 4.352-9.706 9.702s4.354 9.702 9.706 9.702h40.853c5.352 0 9.706-4.352 9.706-9.702s-4.354-9.702-9.706-9.702h-40.853zm40.853 20.698h-40.853c-6.065 0-11-4.933-11-10.996 0-6.063 4.935-10.996 11-10.996h40.853c6.066 0 11 4.933 11 10.996 0 6.063-4.934 10.996-11 10.996z"/>
        <path d="M138.403 156.95a.647.647 0 0 1-.647-.647v-30.337a.647.647 0 1 1 1.294 0v30.337c0 .357-.29.646-.647.646M137.895 94.295a.646.646 0 0 1-.64-.567c-.03-.228-.659-5.64 2.848-9.61 2.335-2.643 5.917-3.983 10.647-3.983 12.704 0 24.66-.117 24.78-.118.356-.02.649.283.653.64a.647.647 0 0 1-.64.653c-.12.001-12.083.119-24.793.119-4.337 0-7.59 1.19-9.67 3.537-3.121 3.525-2.548 8.553-2.541 8.603a.647.647 0 0 1-.644.726M261.802 94.855c-8.438 0-15.303 6.862-15.303 15.296 0 8.435 6.865 15.297 15.303 15.297s15.302-6.862 15.302-15.297c0-8.434-6.864-15.296-15.302-15.296m0 31.886c-9.151 0-16.597-7.442-16.597-16.59 0-9.147 7.446-16.59 16.597-16.59 9.151 0 16.596 7.443 16.596 16.59 0 9.148-7.445 16.59-16.596 16.59" fill="#318AF1" mask="url(#d)"/>
        <path d="M262.082 146.88a.647.647 0 0 1-.647-.647v-20.267a.647.647 0 0 1 1.294 0v20.267c0 .357-.29.647-.647.647M262.59 94.295a.648.648 0 0 1-.644-.726c.006-.05.58-5.078-2.542-8.603-2.078-2.347-5.332-3.537-9.67-3.537-12.71 0-24.49-.118-24.607-.119a.647.647 0 0 1-.64-.653c.004-.357.28-.656.654-.64.117.001 11.89.118 24.593.118 4.73 0 8.313 1.34 10.648 3.984 3.506 3.97 2.877 9.381 2.848 9.61a.646.646 0 0 1-.64.566M154.118 157.509a.647.647 0 0 1-.647-.648c0-.128.026-12.791.013-14.259v-.043c-.037-4.37-.068-8.143 2.196-10.426 1.476-1.487 3.828-2.21 7.19-2.21h21.982a.647.647 0 1 1 0 1.293h-21.981c-3 0-5.052.598-6.272 1.828-1.885 1.9-1.857 5.256-1.821 9.504v.043c.012 1.475-.013 14.144-.013 14.272 0 .357-.29.646-.647.646M138.683 207.966c-8.438 0-15.303 6.862-15.303 15.297 0 8.434 6.865 15.296 15.303 15.296s15.302-6.862 15.302-15.296c0-8.435-6.864-15.297-15.302-15.297m0 31.886c-9.151 0-16.597-7.442-16.597-16.59 0-9.147 7.446-16.59 16.597-16.59 9.151 0 16.596 7.443 16.596 16.59 0 9.148-7.445 16.59-16.596 16.59" fill="#318AF1" mask="url(#d)"/>
        <path d="M149.96 223.263c0-6.227-5.049-11.274-11.277-11.274-6.229 0-11.278 5.047-11.278 11.274 0 6.226 5.05 11.273 11.278 11.273 6.228 0 11.278-5.047 11.278-11.273M273.36 110.151c0-6.226-5.05-11.273-11.278-11.273-6.23 0-11.278 5.047-11.278 11.273s5.049 11.274 11.278 11.274c6.228 0 11.278-5.048 11.278-11.274" fill="#318AF1" mask="url(#d)"/>
        <path d="M138.403 207.663a.647.647 0 0 1-.647-.646v-29.475a.647.647 0 1 1 1.294 0v29.475c0 .357-.29.646-.647.646" fill="#0461FD" mask="url(#d)"/>
        <path d="M163.302 203.922c-3.364 0-5.762-.77-7.332-2.351-2.362-2.382-2.523-6.282-2.486-10.76.013-1.467-.013-12.85-.013-12.964a.647.647 0 0 1 1.294-.003c0 .115.025 11.504.013 12.978-.036 4.332.096 7.807 2.11 9.838 1.315 1.325 3.413 1.969 6.414 1.969 5.141 0 10.487-.155 14.782-.28 2.812-.081 5.24-.152 6.768-.152a.647.647 0 1 1 0 1.294c-1.51 0-3.929.07-6.73.151-4.304.125-9.66.28-14.82.28" fill="#318AF1" mask="url(#d)"/>
        <path d="M199.963 56.815a.647.647 0 0 1-.647-.647V42.183a.647.647 0 1 1 1.293 0v13.985c0 .357-.29.647-.647.647M199.963 116.672a.647.647 0 0 1-.647-.647v-10.757a.647.647 0 1 1 1.293 0v10.757c0 .357-.29.647-.647.647" fill="#0461FD" mask="url(#d)"/>
        <path d="M199.963 177.776a.647.647 0 0 1-.647-.647v-30.896a.647.647 0 1 1 1.293 0v30.896c0 .357-.29.647-.647.647M170.22 96.748a1.294 1.294 0 1 1-2.587 0 1.294 1.294 0 0 1 2.587 0M170.22 112.971a1.294 1.294 0 1 1-2.587 0 1.294 1.294 0 0 1 2.587 0M230.66 96.748a1.294 1.294 0 1 1-2.587 0 1.294 1.294 0 0 1 2.587 0M230.66 112.971a1.294 1.294 0 1 1-2.587 0 1.294 1.294 0 0 1 2.587 0M230.66 128.075a1.294 1.294 0 1 1-2.587 0 1.294 1.294 0 0 1 2.587 0M200.901 229.964a1.294 1.294 0 1 1-2.587 0 1.294 1.294 0 0 1 2.587 0M200.901 246.187a1.294 1.294 0 1 1-2.587 0 1.294 1.294 0 0 1 2.587 0M200.901 261.291a1.294 1.294 0 1 1-2.587 0 1.294 1.294 0 0 1 2.587 0M230.66 144.298a1.294 1.294 0 1 1-2.587 0 1.294 1.294 0 0 1 2.587 0M186.242 39.534h32.532V16.04h-32.532z" fill="#318AF1" mask="url(#d)"/>
        <path d="M186.673 39.103h31.67V16.47h-31.67v22.633zm-.862.862h33.394V15.608h-33.394v24.357zM187.83 143.154h29.356v-29.347H187.83v29.347zm-.863.862h31.082v-31.07h-31.082v31.07zM218.127 219.206h-30.809V174.37h29.3a.431.431 0 1 1 0 .862H188.18v43.112h29.083v-8.838a.431.431 0 0 1 .863 0v9.7zM178.077 78.133l24.222 24.213 24.223-24.213-24.223-24.212-24.222 24.212zm24.222 25.433-25.442-25.433L202.3 52.701l25.443 25.432-25.443 25.433z" fill="#FFF" mask="url(#d)"/>
        <path fill="#FF2131" mask="url(#d)" d="m213.305 78.133-11.006 11.001-11.005-11 11.005-11.001z"/>
        <path d="M140.948 91.99c-8.556 0-15.518 6.96-15.518 15.513s6.962 15.512 15.518 15.512c8.557 0 15.518-6.96 15.518-15.512 0-8.554-6.961-15.513-15.518-15.513m0 31.887c-9.032 0-16.38-7.346-16.38-16.374 0-9.03 7.348-16.375 16.38-16.375 9.033 0 16.381 7.346 16.381 16.375 0 9.028-7.348 16.374-16.38 16.374M128.637 154.644c-5.471 0-9.922 4.45-9.922 9.919 0 5.468 4.45 9.917 9.922 9.917h40.853c5.47 0 9.921-4.449 9.921-9.917 0-5.47-4.45-9.919-9.921-9.919h-40.853zm40.853 20.699h-40.853c-5.947 0-10.785-4.836-10.785-10.78 0-5.945 4.838-10.78 10.785-10.78h40.853c5.946 0 10.784 4.835 10.784 10.78 0 5.944-4.838 10.78-10.784 10.78z" fill="#FFF" mask="url(#d)"/>
        <path d="M140.669 154.085a.431.431 0 0 1-.432-.431v-30.337a.431.431 0 0 1 .863 0v30.337a.431.431 0 0 1-.431.431M140.161 91.431a.43.43 0 0 1-.427-.378c-.028-.224-.647-5.542 2.796-9.44 2.292-2.595 5.82-3.91 10.486-3.91 12.704 0 24.662-.118 24.78-.12a.431.431 0 1 1 .009.862c-.119.002-12.08.12-24.79.12-4.407 0-7.717 1.217-9.838 3.618-3.189 3.61-2.594 8.712-2.587 8.763a.431.431 0 0 1-.429.485M264.067 91.99c-8.556 0-15.518 6.96-15.518 15.513s6.962 15.512 15.518 15.512c8.557 0 15.519-6.96 15.519-15.512 0-8.554-6.962-15.513-15.519-15.513m-16.38 15.513c0-9.03 7.348-16.375 16.38-16.375 9.033 0 16.381 7.346 16.381 16.375 0 9.028-7.348 16.374-16.38 16.374-9.033 0-16.381-7.346-16.381-16.374z" fill="#FFF" mask="url(#d)"/>
        <path d="M264.347 144.016a.431.431 0 0 1-.431-.431v-20.268a.431.431 0 0 1 .862 0v20.268a.431.431 0 0 1-.43.43M264.854 91.43a.431.431 0 0 1-.429-.484c.007-.05.595-5.167-2.591-8.769-2.122-2.397-5.43-3.612-9.834-3.612-12.71 0-24.487-.118-24.605-.119a.431.431 0 0 1 .005-.862c.121.001 11.895.118 24.6.118 4.666 0 8.194 1.316 10.485 3.91 3.444 3.899 2.825 9.217 2.797 9.441a.43.43 0 0 1-.428.378M156.384 154.644a.431.431 0 0 1-.432-.431c0-.128.026-12.793.013-14.261v-.043c-.036-4.322-.067-8.054 2.134-10.272 1.433-1.445 3.735-2.147 7.037-2.147h21.982a.431.431 0 1 1 0 .862h-21.982c-3.06 0-5.162.619-6.425 1.892-1.948 1.963-1.92 5.359-1.883 9.658v.043c.012 1.473-.013 14.141-.013 14.27 0 .237-.194.43-.431.43M140.948 205.102c-8.556 0-15.518 6.959-15.518 15.512s6.962 15.512 15.518 15.512c8.557 0 15.518-6.959 15.518-15.512s-6.961-15.512-15.518-15.512m0 31.886c-9.032 0-16.38-7.345-16.38-16.374s7.348-16.374 16.38-16.374c9.033 0 16.381 7.345 16.381 16.374s-7.348 16.374-16.38 16.374" fill="#FFF" mask="url(#d)"/>
        <path d="M152.226 220.614c0-6.226-5.049-11.274-11.278-11.274-6.228 0-11.278 5.048-11.278 11.274 0 6.226 5.05 11.273 11.278 11.273 6.229 0 11.278-5.047 11.278-11.273" fill="#FF2131" mask="url(#d)"/>
        <path d="M150.093 110.151c0-6.226-5.05-11.273-11.278-11.273-6.229 0-11.278 5.047-11.278 11.273s5.05 11.274 11.278 11.274c6.229 0 11.278-5.048 11.278-11.274" fill="#318AF1" mask="url(#d)"/>
        <path d="M152.226 107.503c0-6.227-5.049-11.274-11.278-11.274-6.228 0-11.278 5.047-11.278 11.274 0 6.226 5.05 11.273 11.278 11.273 6.229 0 11.278-5.047 11.278-11.273" fill="#FFF" mask="url(#d)"/>
        <path d="M275.625 107.503c0-6.227-5.05-11.274-11.278-11.274-6.229 0-11.278 5.047-11.278 11.274 0 6.226 5.05 11.273 11.278 11.273 6.229 0 11.278-5.047 11.278-11.273" fill="#C6E2FA" mask="url(#d)"/>
        <path d="M140.669 204.799a.431.431 0 0 1-.432-.431v-29.474a.431.431 0 0 1 .863 0v29.474a.431.431 0 0 1-.431.43M165.567 201.058c-3.303 0-5.651-.749-7.178-2.288-2.304-2.322-2.46-6.177-2.424-10.605.013-1.47-.013-12.853-.013-12.967a.431.431 0 0 1 .863-.003c0 .115.025 11.504.013 12.977-.037 4.383.1 7.9 2.173 9.99 1.357 1.369 3.505 2.033 6.566 2.033 5.145 0 10.492-.155 14.79-.279 2.809-.082 5.236-.152 6.76-.152a.431.431 0 1 1 0 .862c-1.512 0-3.933.07-6.736.152-4.302.124-9.657.28-14.814.28M202.228 53.95a.431.431 0 0 1-.431-.43V39.533a.431.431 0 0 1 .862 0V53.52a.431.431 0 0 1-.431.432M202.228 113.807a.431.431 0 0 1-.431-.43v-10.758a.431.431 0 0 1 .862 0v10.757a.431.431 0 0 1-.431.431M202.228 174.911a.431.431 0 0 1-.431-.43v-30.896a.431.431 0 0 1 .862 0v30.895a.431.431 0 0 1-.431.431M172.917 93.238a1.294 1.294 0 1 1-2.588-.001 1.294 1.294 0 0 1 2.588 0M172.917 109.46a1.294 1.294 0 1 1-2.588 0 1.294 1.294 0 0 1 2.588 0M233.357 93.238a1.294 1.294 0 1 1-2.587-.001 1.294 1.294 0 0 1 2.587 0M233.357 109.46a1.294 1.294 0 1 1-2.587 0 1.294 1.294 0 0 1 2.587 0M233.357 124.565a1.294 1.294 0 1 1-2.587-.001 1.294 1.294 0 0 1 2.587 0M203.598 226.453a1.294 1.294 0 1 1-2.587 0 1.294 1.294 0 0 1 2.587 0M203.598 242.676a1.294 1.294 0 1 1-2.587 0 1.294 1.294 0 0 1 2.587 0M203.598 257.78a1.294 1.294 0 1 1-2.587 0 1.294 1.294 0 0 1 2.587 0M233.357 140.787a1.294 1.294 0 1 1-2.587 0 1.294 1.294 0 0 1 2.587 0" fill="#FFF" mask="url(#d)"/>
        <path d="M319.413 248.747a.317.317 0 0 0-.16-.224c-1.108-1.371-10.277-12.762-11.635-16.254-2.17-5.565-1.69-11.873-1.268-17.443l2.17-28.665c.206-2.729.258-5.553-1.54-7.48-.66-.711-1.497-1.194-2.308-1.664l-.052-.03c-3.843-2.22-10.972-7.049-17.26-11.308-6.823-4.618-12.714-8.606-13.94-8.993-3.057-.962-4.864.18-6.956 1.508-.871.552-1.777 1.121-2.877 1.634-2.014-.638-4.037-1.211-6.03-1.776-5.86-1.664-11.92-3.388-17.255-6.57a.303.303 0 0 0-.116-.16.313.313 0 0 0-.268-.043.322.322 0 0 0-.354.138.313.313 0 0 0-.017.289c-1.104 1.76-1.358 3.863-.836 5.829-.975-.362-1.894-.436-2.743-.224a.435.435 0 0 0-.056-.07c-.742-.603-1.976-1.288-3.567-1.983-1.204-.525-2.032-.482-2.756.246-.009-.008-.013-.017-.026-.026l-1.635-1.142a.32.32 0 0 0-.448.077.325.325 0 0 0 .077.453l1.626 1.134c-.103.151-.207.315-.31.496h-.009a.328.328 0 0 0-.233.396.34.34 0 0 1 .022.06.312.312 0 0 0 .09.277c.561 1.496 2.342 3.449 3.296 4.169-.04.086-.078.176-.117.263a.41.41 0 0 0-.082.09c-.832 1.367 1.643 3.527 4.378 5.838-.833.215-1.717.538-2.661.983a.324.324 0 0 0-.156.43.282.282 0 0 0 .082.104l2.295 9.985c.03.125.06.306.095.513a.317.317 0 0 0-.018.38c.022.03.057.055.078.085.151 1.246.263 3.148.065 4.286-.557 3.181.573 4.492 2.286 6.475.319.375.668.776 1.03 1.225 4.326 5.302 14.785 26.354 16.588 30.251 2.562 5.518 5.749 8.334 9.126 11.313 2.428 2.147 4.942 4.363 7.491 7.773.06.082.16.13.26.13.003 0 .003-.005.008-.005 3.364 4.091 7.297 14.235 10.467 22.41 1.277 3.297 2.38 6.143 3.274 8.139l.095.211.232-.021c6.987-.729 19.784-3.143 26.952-11.102 3.342-3.712 5.378-8.13 5.602-12.157a.335.335 0 0 0 .004-.25" fill="#318AF1" mask="url(#d)"/>
        <path d="M299.912 173.305c2.122 1.901 3.209 4.945 2.765 7.76a.323.323 0 0 1-.32.272c-.017 0-.034 0-.051-.004a.326.326 0 0 1-.268-.371c.41-2.6-.595-5.415-2.557-7.174a.326.326 0 0 1-.026-.457.326.326 0 0 1 .457-.026" fill="#00056C" mask="url(#d)"/>
        <path d="M293.633 196.405c1.337 1.034.866 3.979-1.031 6.428-.953 1.232-2.118 2.172-3.282 2.655-1.1.457-2.058.436-2.687-.056-1.342-1.034-.871-3.979 1.026-6.428 1.432-1.845 3.338-2.975 4.766-2.975.461 0 .876.121 1.208.376" fill="#EAF4FE" mask="url(#d)"/>
        <path d="M287.15 198.608c-1.57 2.026-2.212 4.25-1.837 5.828-.047.018-.1.039-.15.056l-1.178-.823a.293.293 0 0 0-.104-.155c-.63-.492-.888-1.41-.72-2.591.172-1.246.794-2.609 1.75-3.842.954-1.228 2.119-2.172 3.283-2.651 1.1-.457 2.057-.44 2.687.052a.349.349 0 0 0 .211.064l1.19.832c-1.608.052-3.583 1.23-5.132 3.23" fill="#C6E2FA" mask="url(#d)"/>
        <path d="M291.105 193.857c-.81-.522-1.923-.54-3.161-.026-1.264.521-2.523 1.539-3.545 2.854-1.022 1.319-1.691 2.793-1.88 4.147-.186 1.315.103 2.38.801 3.04.013.081.057.159.13.21l.862.604c-.87.121-1.626-.026-2.19-.461-.091-.086-.199-.185-.32-.302-1.401-1.578-.737-5.091 1.626-8.14 2.523-3.254 6.043-4.767 7.845-3.37.6.46.95 1.22 1.018 2.18l-.979-.68a.297.297 0 0 0-.207-.056M248.507 153.926c-1.618-.306-2.976-1.211-3.727-2.483a.323.323 0 0 0-.59.086l-1.096-.18a6.514 6.514 0 0 1 .863-2.273c2.794 1.656 5.775 2.919 8.81 3.98-1.15.849-2.695 1.168-4.26.87" fill="#FFF" mask="url(#d)"/>
        <path d="M302.677 181.065c.444-2.815-.643-5.859-2.765-7.76a.326.326 0 0 0-.457.026.325.325 0 0 0 .026.457c1.962 1.759 2.967 4.574 2.557 7.174a.326.326 0 0 0 .32.375.324.324 0 0 0 .319-.272m9.087 2.03-2.17 28.666c-.426 5.635-.91 12.024 1.312 17.723 1.419 3.643 10.64 15.077 11.752 16.448-.215 3.884-2.19 8.165-5.442 11.773-6.944 7.709-19.357 10.114-26.3 10.865-.867-1.97-1.937-4.726-3.166-7.894-3.226-8.317-7.237-18.663-10.696-22.742a.327.327 0 0 0-.25-.108c-2.545-3.37-5.042-5.578-7.457-7.708-3.326-2.936-6.461-5.704-8.963-11.101-1.81-3.91-12.313-25.04-16.673-30.39-.371-.453-.72-.858-1.048-1.237-.85-.987-1.514-1.755-1.898-2.639.358-.521 1.061-.715 2.226-.608a.333.333 0 0 0 .353-.293.32.32 0 0 0-.293-.349c-.776-.073-1.824-.073-2.523.552-.173-.711-.185-1.535 0-2.604.185-1.06.125-2.647.004-3.889.212.082.44.138.69.143h.035c.798 0 1.609-.406 2.07-1.035.798-1.09.794-2.565.79-3.643l-.014-2.707a.322.322 0 0 0-.323-.32.323.323 0 0 0-.324.324l.013 2.707c.005 1.276-.043 2.406-.664 3.255-.34.47-.957.79-1.574.772-.237-.004-.543-.06-.79-.28-.047-.362-.098-.66-.142-.85l-2.281-9.915c.97-.44 1.872-.755 2.708-.927a.315.315 0 0 0 .432-.056c.004-.005.004-.013.013-.022 2.549-.397 4.563.496 6.49 2.768 2.7 3.182 5.137 8.834 5.935 13.748.22 1.371 7.254 7.98 14.276 10.265a.284.284 0 0 0 .099.017c.013 0 .026-.004.039-.004 3.023 2.846 6.003 5.66 8.444 7.972 2.187 2.065 3.968 3.75 4.9 4.621.056.06.12.112.18.168.061.056.113.108.165.151.013.009.017.017.021.022.557.43 1.247.646 2.027.646.41 0 .846-.064 1.294-.185l1.41.987c.057.04.121.056.186.056.022 0 .048-.013.07-.017.344.155.724.242 1.142.242.53 0 1.108-.125 1.72-.38 1.265-.522 2.524-1.535 3.546-2.854 2.182-2.82 2.588-6.04.914-7.338-.03-.021-.064-.038-.099-.06a.318.318 0 0 0-.116-.172l-.863-.604c.017-1.38-.423-2.483-1.276-3.147-1.57-1.255-5.008-3.95-9.157-7.2-.15-.771-.422-1.103-.664-1.397-.207-.25-.384-.474-.504-1.004.405.069.819.112 1.242.112a8.82 8.82 0 0 0 1.919-.215.32.32 0 0 0 .246-.384.32.32 0 0 0-.384-.246c-2.86.62-5.154-.16-7.444-2.522-.25-.254-.595-.927-.932-1.574-.284-.547-.556-1.073-.82-1.465 1.044-.332 1.816-.85 2.791-1.565a.324.324 0 0 0 .073-.453.328.328 0 0 0-.452-.069c-1.005.733-1.782 1.255-2.877 1.548-.798-.694-1.734-1.238-2.816-1.854-2.11-1.212-4.736-2.716-7.945-6.303a8.966 8.966 0 0 0-1.746-1.487l1.004-1.548a.327.327 0 0 0-.099-.449.322.322 0 0 0-.444.1l-1.013 1.556c-1.432-.832-3.063-1.388-4.658-1.936-.76-.258-1.544-.526-2.282-.819-.427-.168-.858-.336-1.29-.5-2.781-1.073-5.658-2.181-7.88-4.152-2.009-1.776-2.876-4.358-2.449-6.734l1.096.181a.303.303 0 0 0 .034.242c.845 1.435 2.364 2.449 4.162 2.79.427.081.85.12 1.268.12 1.35 0 2.627-.41 3.627-1.194a.322.322 0 0 0 .12-.212c2.61.888 5.263 1.639 7.872 2.38 4.18 1.186 8.5 2.41 12.56 4.156 4.515 1.944 8.832 4.755 13.007 7.476 1.013.66 2.023 1.319 3.027 1.957 1.027.655 2.131 1.074 3.196 1.479 1.035.392 2.105.797 3.075 1.418a.31.31 0 0 0 .173.052.337.337 0 0 0 .276-.151.33.33 0 0 0-.1-.448c-1.03-.656-2.13-1.074-3.195-1.475-1.035-.396-2.105-.802-3.075-1.418-1.005-.643-2.01-1.298-3.024-1.957-4.2-2.734-8.539-5.558-13.106-7.524-1.868-.806-3.787-1.495-5.724-2.125.876-.453 1.648-.935 2.338-1.37 2.118-1.342 3.649-2.312 6.418-1.44 1.134.357 7.271 4.513 13.77 8.915 6.297 4.263 13.44 9.096 17.3 11.33l.051.03c.768.444 1.566.905 2.161 1.543 1.618 1.733 1.561 4.406 1.363 6.993" fill="#FFF" mask="url(#d)"/>
        <path d="M289.829 191.27c-2.114-.086-4.848 1.457-6.914 4.121-1.95 2.518-2.777 5.36-2.346 7.377-.962-.91-2.226-2.104-3.67-3.466-7.5-7.088-20.051-18.952-23.523-21.936a.269.269 0 0 0-.125-.064c-1.07-3.48-2.808-7.252-5.094-9.946-2.117-2.492-4.394-3.45-7.245-2.958l-.074-.06c-1.889-1.59-4.662-3.932-4.614-5.023a.999.999 0 0 0 .038-.069c.889-2.246 1.95-3.612 3.24-4.16.9-.388 1.919-.353 3.031.095.091.034.186.026.268-.017a8.264 8.264 0 0 0 2.312 3.405c2.311 2.044 5.24 3.174 8.078 4.269l.707.271c.017.022.03.043.052.06 1.794 1.432 8.694 6.825 16 12.533a7400.76 7400.76 0 0 1 19.879 15.568" fill="#FF2131" mask="url(#d)"/>
        <path d="M239.152 154.539c-1.147.526-2.113 1.599-2.941 3.246-.928-.746-2.506-2.527-2.976-3.811.862-1.63 1.53-1.673 2.743-1.143 1.371.6 2.458 1.186 3.174 1.708" fill="#EAF4FE" mask="url(#d)"/>
        <path d="m309.595 211.761 2.169-28.665c.198-2.587.254-5.26-1.363-6.993-.595-.638-1.393-1.1-2.16-1.543l-.052-.03c-3.86-2.234-11.003-7.067-17.3-11.33-6.499-4.402-12.636-8.558-13.77-8.916-2.77-.87-4.3.1-6.418 1.44-.69.436-1.462.918-2.338 1.371 1.937.63 3.856 1.32 5.724 2.125 4.567 1.966 8.906 4.79 13.106 7.524 1.014.66 2.019 1.314 3.024 1.957.97.616 2.04 1.022 3.075 1.418 1.065.401 2.165.82 3.196 1.475.146.099.194.297.099.448a.337.337 0 0 1-.276.15.31.31 0 0 1-.173-.05c-.97-.622-2.04-1.027-3.075-1.42-1.065-.404-2.169-.823-3.195-1.478-1.005-.638-2.015-1.298-3.028-1.957-4.175-2.72-8.492-5.532-13.008-7.476-4.058-1.746-8.38-2.97-12.559-4.156-2.61-.741-5.262-1.492-7.871-2.38a.322.322 0 0 1-.12.212c-1.001.784-2.278 1.194-3.628 1.194-.418 0-.841-.039-1.268-.12-1.798-.341-3.317-1.355-4.162-2.79a.303.303 0 0 1-.034-.242.323.323 0 0 1 .59-.086c.75 1.272 2.11 2.177 3.727 2.483 1.565.298 3.11-.021 4.261-.87-3.036-1.061-6.017-2.324-8.811-3.98a6.514 6.514 0 0 0-.863 2.272c-.427 2.376.44 4.958 2.45 6.734 2.221 1.97 5.098 3.079 7.88 4.152.43.164.862.332 1.289.5.738.293 1.522.56 2.282.82 1.595.547 3.226 1.103 4.658 1.935l1.013-1.556a.322.322 0 0 1 .444-.1c.151.1.194.298.1.449l-1.005 1.548a8.97 8.97 0 0 1 1.746 1.487c3.21 3.587 5.836 5.091 7.945 6.303 1.082.616 2.018 1.16 2.816 1.854 1.095-.293 1.872-.815 2.877-1.548a.328.328 0 0 1 .453.069.324.324 0 0 1-.074.453c-.974.715-1.747 1.233-2.79 1.565.263.392.535.918.82 1.465.336.647.68 1.32.93 1.574 2.291 2.363 4.585 3.143 7.445 2.522a.32.32 0 0 1 .384.246.32.32 0 0 1-.246.384 8.82 8.82 0 0 1-1.92.215c-.422 0-.836-.043-1.242-.112.121.53.298.754.505 1.004.242.294.513.626.664 1.397a2091.55 2091.55 0 0 1 9.157 7.196c.854.668 1.293 1.772 1.276 3.151l.863.604c.06.043.095.103.116.172.035.022.07.039.1.06 1.673 1.298 1.267 4.519-.915 7.338-1.022 1.32-2.281 2.332-3.545 2.854-.613.255-1.19.38-1.721.38-.418 0-.798-.087-1.143-.242-.021.004-.047.017-.069.017a.323.323 0 0 1-.185-.056l-1.41-.987a5.01 5.01 0 0 1-1.295.185c-.78 0-1.47-.215-2.027-.646-.004-.005-.008-.013-.017-.017-.056-.048-.108-.1-.168-.156-.06-.056-.125-.107-.181-.168-.932-.87-2.713-2.556-4.9-4.621-2.44-2.311-5.42-5.126-8.444-7.972-.013 0-.026.004-.04.004a.285.285 0 0 1-.098-.017c-7.022-2.285-14.056-8.894-14.276-10.265-.798-4.914-3.235-10.566-5.935-13.748-1.927-2.272-3.942-3.165-6.49-2.768-.01.009-.01.017-.013.022a.315.315 0 0 1-.431.056c-.837.172-1.739.487-2.71.927l2.282 9.915c.043.19.095.488.143.85.245.22.552.276.789.28a1.937 1.937 0 0 0 1.574-.772c.621-.85.669-1.979.664-3.255l-.013-2.707c0-.177.143-.324.324-.324.177 0 .323.143.323.32l.013 2.707c.005 1.078.009 2.552-.789 3.643-.461.63-1.272 1.035-2.07 1.035h-.035a1.99 1.99 0 0 1-.69-.143c.121 1.242.181 2.828-.004 3.889-.186 1.07-.173 1.893 0 2.604.699-.625 1.747-.625 2.523-.552a.32.32 0 0 1 .293.35.333.333 0 0 1-.353.293c-1.165-.108-1.868.086-2.226.607.384.884 1.048 1.652 1.898 2.639.328.38.677.784 1.048 1.237 4.36 5.35 14.862 26.48 16.674 30.39 2.501 5.397 5.636 8.165 8.962 11.101 2.415 2.13 4.912 4.337 7.457 7.708.095 0 .185.035.25.108 3.459 4.079 7.47 14.426 10.696 22.742 1.229 3.168 2.299 5.923 3.166 7.894 6.943-.75 19.356-3.156 26.3-10.865 3.251-3.608 5.227-7.89 5.442-11.773-1.112-1.371-10.333-12.805-11.752-16.448-2.221-5.7-1.738-12.088-1.311-17.723zm-1.031-37.762c.81.47 1.647.953 2.307 1.664 1.799 1.927 1.747 4.751 1.54 7.48l-2.17 28.665c-.422 5.57-.9 11.878 1.269 17.443 1.358 3.493 10.527 14.883 11.636 16.254.086.047.142.129.16.224.03.082.03.168-.005.25-.224 4.027-2.26 8.445-5.602 12.158-7.168 7.958-19.965 10.372-26.952 11.1l-.233.022-.094-.21c-.893-1.997-1.997-4.842-3.274-8.14-3.17-8.174-7.103-18.319-10.467-22.41-.005 0-.005.004-.009.004a.325.325 0 0 1-.259-.129c-2.549-3.41-5.063-5.626-7.491-7.773-3.377-2.98-6.564-5.794-9.126-11.313-1.803-3.897-12.262-24.949-16.588-30.251-.362-.449-.711-.85-1.03-1.225-1.713-1.983-2.843-3.293-2.286-6.475.198-1.138.086-3.04-.065-4.285-.022-.03-.056-.056-.078-.087a.317.317 0 0 1 .018-.379 8.358 8.358 0 0 0-.095-.513l-2.295-9.985a.281.281 0 0 1-.082-.103.325.325 0 0 1 .156-.431 15.284 15.284 0 0 1 2.66-.983c-2.734-2.311-5.21-4.471-4.377-5.838a.411.411 0 0 1 .082-.09l.116-.263c-.953-.72-2.734-2.673-3.295-4.17a.313.313 0 0 1-.09-.275.334.334 0 0 0-.022-.06.328.328 0 0 1 .233-.397h.009c.103-.181.207-.345.31-.496l-1.626-1.134a.325.325 0 0 1-.077-.452.32.32 0 0 1 .448-.078l1.635 1.143c.013.008.017.017.026.025.724-.728 1.552-.771 2.756-.245 1.591.694 2.825 1.38 3.566 1.983a.435.435 0 0 1 .056.069c.85-.211 1.769-.138 2.743.224-.521-1.966-.267-4.07.837-5.829a.313.313 0 0 1 .017-.289.322.322 0 0 1 .354-.138.313.313 0 0 1 .267.044c.06.038.095.099.117.16 5.335 3.18 11.395 4.905 17.256 6.57 1.992.564 4.015 1.138 6.03 1.776 1.099-.513 2.005-1.083 2.876-1.634 2.092-1.328 3.899-2.47 6.957-1.51 1.224.389 7.116 4.377 13.939 8.994 6.288 4.26 13.417 9.088 17.26 11.308l.052.03zm-55.373-11.161c-2.838-1.095-5.767-2.225-8.079-4.269a8.265 8.265 0 0 1-2.311-3.405.321.321 0 0 1-.268.017c-1.112-.448-2.13-.483-3.031-.095-1.29.548-2.351 1.914-3.24 4.16a1 1 0 0 1-.038.07c-.048 1.09 2.725 3.431 4.614 5.022l.074.06c2.85-.491 5.128.466 7.245 2.958 2.286 2.694 4.024 6.467 5.094 9.946.043.008.086.03.125.064 3.472 2.984 16.023 14.848 23.523 21.936 1.444 1.362 2.708 2.556 3.67 3.466-.431-2.018.397-4.859 2.346-7.377 2.066-2.664 4.8-4.207 6.914-4.121-3.99-3.147-12.37-9.7-19.878-15.568-7.307-5.708-14.207-11.101-16.001-12.532-.022-.018-.035-.04-.052-.06-.237-.091-.47-.182-.707-.272zm-14.039-8.3c-.716-.521-1.803-1.107-3.174-1.707-1.212-.53-1.88-.487-2.743 1.143.47 1.285 2.048 3.065 2.976 3.81.828-1.646 1.794-2.72 2.941-3.245zm42.202 29.183c-.25-.306-.535-.651-.682-1.487-.004-.026 0-.048 0-.074-1.483-.4-2.863-1.271-4.209-2.655-.315-.328-.669-1.01-1.044-1.73-.302-.585-.638-1.236-.91-1.586-.013 0-.03.005-.043.005a.326.326 0 0 1-.315-.255c-.004-.03 0-.056 0-.086-.724-.603-1.587-1.104-2.579-1.673-2.148-1.233-4.826-2.767-8.104-6.432-1.669-1.871-4.218-2.742-6.68-3.583-.315-.107-.634-.22-.954-.327 2.868 2.255 8.557 6.7 14.518 11.355 3.717 2.91 7.655 5.984 11.161 8.73-.047-.068-.103-.133-.16-.202zm-14.457 7.027c-5.421-5.096-10.79-10.114-13.331-12.36.289 1.07.513 2.095.668 3.03.16.997 6.133 6.774 12.663 9.33zm22.423 14.74c1.164-.483 2.329-1.422 3.282-2.656 1.898-2.448 2.368-5.393 1.03-6.428-.331-.254-.745-.375-1.207-.375-1.428 0-3.334 1.13-4.766 2.975-1.897 2.449-2.367 5.393-1.026 6.428.63.492 1.587.513 2.687.056zm1.772-10.942a.35.35 0 0 1-.211-.064c-.63-.492-1.587-.509-2.687-.052-1.164.479-2.329 1.423-3.282 2.651-.958 1.233-1.579 2.596-1.751 3.842-.168 1.18.09 2.1.72 2.59a.293.293 0 0 1 .104.156l1.177.823c.052-.017.104-.038.151-.056-.375-1.578.267-3.802 1.837-5.828 1.549-2 3.524-3.178 5.133-3.23l-1.19-.832zm.181-2.134c-1.802-1.396-5.322.117-7.845 3.372-2.363 3.048-3.027 6.561-1.626 8.14.121.116.229.215.32.301.565.435 1.32.582 2.19.461l-.862-.603a.316.316 0 0 1-.13-.212c-.698-.66-.987-1.724-.802-3.039.19-1.354.859-2.828 1.88-4.147 1.023-1.315 2.282-2.333 3.546-2.854 1.238-.513 2.35-.496 3.161.026a.298.298 0 0 1 .207.056l.98.68c-.07-.96-.42-1.72-1.019-2.18z" fill="#00056C" mask="url(#d)"/>
        <path fill="#FFF" mask="url(#d)" d="m217.187 143.153.151-29.346-29.357 29.346z"/>
        <path d="M144.448 220.381a2.882 2.882 0 1 1-5.764-.001 2.882 2.882 0 0 1 5.764.001" fill="#FF2131" mask="url(#d)"/>
    </g>
</svg>
