<svg width="154" height="30" viewBox="0 0 154 30" xmlns="http://www.w3.org/2000/svg" xmlns:xlink="http://www.w3.org/1999/xlink">
    <defs>
        <path id="a" d="M0 0h32.997v7.683H0z"/>
    </defs>
    <g fill="none" fill-rule="evenodd">
        <path d="M21.596 17.78a5.387 5.387 0 0 0-.385-1.314c-.578-1.25-1.384-2.3-2.596-3.005-1.88-1.098-4.153-1.091-6.016.036a5.295 5.295 0 0 0-1.98 2.121 6.32 6.32 0 0 0-.376.93c-.492 1.56-.473 3.654.41 5.078.29.466.707.863 1.218 1.06.51.196 1.113.176 1.572-.122.593-.382.698-1.111.588-1.76-.14-.828-.244-1.645.06-2.457.099-.259.235-.506.434-.698.12-.117.265-.214.414-.286a1.751 1.751 0 0 1 1.04-.169c.62.102 1.121.578 1.395 1.139.273.56.348 1.197.377 1.82.129 2.713-.518 5.528-1.21 8.138-.072.268-.145.535-.223.801-.06.207-.164.47-.032.671a.522.522 0 0 0 .24.185c.404.162.734-.083 1.002-.356 1.593-1.6 2.614-3.669 3.312-5.794.26-.792.486-1.602.635-2.423.207-1.126.324-2.411.121-3.595" fill="#008077"/>
        <path fill="#231F20" d="M94.552 7.41h-3.177v19.788h3.177V14.545h2.942v-1.771h-2.942zM83.813 21.123c-1.365.004-2.48-2.183-2.483-4.889-.002-2.703 1.1-4.892 2.47-4.898 1.368 0 2.481 2.19 2.484 4.89 0 2.698-1.101 4.897-2.471 4.897zm1.56-14.185h-3.171v1.846h-4.324v1.775h2.958c-1.599 1.173-2.666 3.267-2.666 5.667 0 3.683 2.513 6.669 5.619 6.669 3.102 0 5.62-2.986 5.62-6.67 0-2.399-1.068-4.493-2.668-5.666h2.966V8.784h-4.334V6.938zM117.01 12.774h-2.94V7.41h-3.176v11.967c-.522.512-1.326 1.055-2.423 1.039h-5.047a1.344 1.344 0 0 1-1.351-1.342l.004-10.767h-3.15l.014 10.767c0 1.725 1.41 3.123 3.153 3.123h5.465s1.927.099 3.335-1.19v6.19h3.175V14.542h2.94v-1.768zM125.85 8.739c1.373-.008 2.49 1.754 2.501 3.939.015 2.18-1.082 3.958-2.448 3.966-1.368.008-2.488-1.757-2.5-3.936-.018-2.185 1.083-3.963 2.448-3.969m5.528 3.944c0-3.165-2.516-5.734-5.617-5.734-3.104 0-5.62 2.569-5.62 5.734 0 1.98.988 3.727 2.488 4.757h-5.824v1.85h2.433l.01 4.758c0 1.726 1.411 3.125 3.154 3.125l10.7.004V25.39h-9.374c-.739 0-1.343-.599-1.343-1.342l.005-4.759h12.18v-1.85h-5.68a5.757 5.757 0 0 0 2.488-4.756M139.89 17.79c-.776.01-1.416-1.435-1.427-3.221-.013-1.786.606-3.235 1.387-3.24.777-.005 1.42 1.44 1.434 3.223.006 1.785-.617 3.232-1.394 3.239m4.536-3.234c0-1.635-.712-3.087-1.813-3.998h1.988V8.784h-3.135V6.938h-3.172v1.846h-3.157v1.775h2.003c-1.103.91-1.813 2.363-1.813 3.998 0 2.773 2.036 5.017 4.547 5.017 2.519 0 4.552-2.244 4.552-5.017"/>
        <path d="M147.74 25.992c-1.371.004-2.482-1.762-2.487-3.94-.008-2.185 1.097-3.962 2.46-3.963 1.366-.007 2.486 1.76 2.49 3.944.006 2.183-1.097 3.959-2.463 3.959zm2.556-12.848v3.887a5.457 5.457 0 0 0-1.45-.533v-3.36l1.45.006zm2.998 8.796V7.425h-2.998v3.952l-1.45-.006V7.41h-3.02v9.287c-2.19.785-3.761 2.904-3.761 5.406 0 3.166 2.513 5.728 5.62 5.728 3.1 0 5.616-2.562 5.616-5.728 0-.055-.007-.108-.007-.164zM46.488 8.555 43.19 7.47c-1.609 4.552-5.514 7.833-5.514 7.833V8.016H34.37V23.99h3.306v-8.343l5.267 8.343h4.164l-5.88-8.577s3.742-2.427 5.26-6.859zm22.37 10.53c0-1.407-1.009-2.146-2.227-2.146h-2.807v4.375h2.807c1.23 0 2.227-.822 2.227-2.23zm-5.076-4.623h3.553c.617-.47.969-1.17.969-1.98 0-1.056-.594-1.918-1.955-1.918h-2.567v3.898zm8.556 4.622c0 3.102-2.16 4.907-5.445 4.907h-6.285V8.016h6.387c2.768 0 4.625 1.736 4.625 4 0 1.297-.55 2.371-1.552 3.107 1.233.723 2.27 2.033 2.27 3.961zM51.763 21.2h6.494v2.792H48.5V8.016h9.546l-.41 2.67h-5.92v3.62h5.023v2.68h-4.976V21.2z" fill="#231F20"/>
        <g transform="translate(0 4.558)">
            <mask id="b" fill="#fff">
                <use xlink:href="#a"/>
            </mask>
            <path d="M32.997.668c0-.408-.359-.676-.75-.668-.392.018-.756.22-1.119.358C24.124 3.02 16.223 3.524 8.842 2.461c-1.264-.18-2.542-.435-3.812-.634-.793-.124-1.581-.303-2.381-.365-.682-.05-1.534-.075-2.085.4-.73.628-.676 1.82-.265 2.61.497.943 1.364 1.65 2.269 2.19.877.522 1.925 1.082 2.971 1.016 2.82-.181 5.634-.453 8.439-.817 4.781-.623 9.797-1.21 14.287-3.063 1.468-.606 2.917-1.362 4.175-2.341.228-.174.557-.459.557-.789" fill="#008077" mask="url(#b)"/>
        </g>
        <path d="M12.908 2.824a2.756 2.756 0 0 0 5.51 0 1.55 1.55 0 0 0-.149-.66c-.234-.5-.503-.745-.472-1.343C17.83.011 16.793 0 16.23 0c-.606 0-1.254.083-1.803.361a2.768 2.768 0 0 0-1.52 2.398v.065" fill="#D01F37"/>
    </g>
</svg>
