<svg width="146" height="30" viewBox="0 0 146 30" xmlns="http://www.w3.org/2000/svg" xmlns:xlink="http://www.w3.org/1999/xlink">
    <defs>
        <path id="a" d="M0 0h29.738v29.73H0z"/>
    </defs>
    <g fill="none" fill-rule="evenodd">
        <path fill="#00346A" d="M138.52 5.935v11.76h3.66v-4.642h2.954V9.915h-2.955v-3.98zM135.191 26.968c1.775 0 3.206-1.329 3.206-3.02 0-1.693-1.431-2.985-3.206-2.985-1.767 0-3.132 1.292-3.132 2.985 0 1.691 1.365 3.02 3.132 3.02m-6.78-3.02c0-3.307 2.896-6.022 6.82-6.022 3.911 0 6.811 2.715 6.811 6.022 0 3.311-2.9 6.052-6.81 6.052-3.925 0-6.82-2.74-6.82-6.052M126.493 5.942c-.02 3.307-.183 6.025-5.023 8.287l1.763 2.692c2.084-.6 4.438-2.415 5.334-4.037.905 1.622 3.253 3.438 5.34 4.037l1.76-2.692c-4.838-2.262-5.005-4.98-5.021-8.287h-4.153zM86.449 11.496h-1.932V5.984h-3.45V29.75h3.45V14.958h1.932V29.75h3.553V5.984H86.45zM114.105 11.496h-1.668V5.984h-3.491V29.75h3.49V14.958h1.67V29.75h3.592V5.984h-3.593zM48.661 21.56h3.76v4.72h11.193v3.075H48.66zM59.972 18.532h-2.777v-3.056h2.777v-2.048h-2.78v-3.061h2.78V5.972h3.66v17.481h-3.66zM104.285 13.742c0 1.26-1.086 2.492-2.492 2.492-1.404 0-2.486-1.232-2.486-2.492 0-1.27 1.082-2.496 2.486-2.496 1.406 0 2.492 1.227 2.492 2.496zm-4.337-8.815v1.897h-4.177v2.9h2.062c-1.235.83-1.954 2.402-1.954 4.077 0 2.894 2.488 5.358 5.922 5.358 3.433 0 5.915-2.464 5.915-5.358 0-1.675-.719-3.248-1.95-4.077h2.062v-2.9h-4.173V4.927h-3.707zM52.205 13.503c0 1.266-1.086 2.366-2.492 2.366s-2.486-1.1-2.486-2.366c0-1.263 1.08-2.361 2.486-2.361 1.406 0 2.492 1.098 2.492 2.361zm-4.444-8.556v1.887h-4.644v2.904h2.588c-1.21.803-1.904 2.36-1.904 3.827 0 2.887 2.484 5.233 5.918 5.233 3.43 0 5.922-2.346 5.922-5.233 0-1.468-.7-3.024-1.902-3.827h2.58V6.834h-4.648V4.947h-3.91zM79.812 18.785h-5.975V9.774h4.913V6.652h-8.642v15.263h9.704z"/>
        <g>
            <mask id="b" fill="#fff">
                <use xlink:href="#a"/>
            </mask>
            <path d="M11.15 9.66A9.65 9.65 0 0 0 20.819 0h8.92l-.011 29.73H18.584V17.098H11.15V29.73H0V0h11.15v9.66z" fill="#F08700" mask="url(#b)"/>
        </g>
    </g>
</svg>
