<svg width="85" height="30" viewBox="0 0 85 30" xmlns="http://www.w3.org/2000/svg" xmlns:xlink="http://www.w3.org/1999/xlink">
    <defs>
        <path id="a" d="M0 0h23.52v11.187H0z"/>
        <path id="c" d="M0 30h84.649V0H0z"/>
    </defs>
    <g fill="none" fill-rule="evenodd">
        <g transform="translate(0 15.133)">
            <mask id="b" fill="#fff">
                <use xlink:href="#a"/>
            </mask>
            <path d="M23.52 7.792s-2.438-2.336-3.86-3.09c0 0-1.45-.871-2.858-1.234 0 0-1.727-.45-3.816-.29 0 0-3.134.26-3.845.174 0 0-1.814.16-3.714-.755 0 0-1.785-.71-2.22-2.597H0s-.015 3.003 3.555 4.977c0 0 1.814 1.132 4.657 1.364 0 0 .871.246 3.323.072 0 0 2.975-.246 4.774.972 0 0 2.075 1.277 4.251 3.802" fill="#009640" mask="url(#b)"/>
        </g>
        <mask id="d" fill="#fff">
            <use xlink:href="#c"/>
        </mask>
        <path d="M18.29 6.377h1.03v-1.03h-1.03v1.03zm-1.989 0h1.03v-1.03h-1.03v1.03zm-2.067.007h1.03v-1.03h-1.03v1.03zm23.694 8.764s-1.785-1.35-4.135-1.973c0 0-1.829-.508-5.253-.755 0 0-6.573-.29-7.66-.188l-.668-7.821h-1.045l-.029-.798s.929-.073 1.262-.261c0 0 .465.043.334-1.016 0 0-1.306-.29-1.857-1.378V0h-.464v.32s-.378.29-1.698.26c0 0-1.524.015-1.712-.217V.029h-.464v.987s-.32.957-1.814 1.393c0 0-.16.87.305 1.015 0 0 .565.174 1.276.232v.77h-.986l-.276 3.67-.198 3.212-.273 3.956 8.582-.102s5.543.102 7.429.233c0 0 4.178.043 6.427 1.726 0 0 1.48.9 1.393 2.119 0 0-.145.885-.957 1.233 0 0-.711.566-2.177.29 0 0-1.784-.363-2.611-.058 0 0-.958.305-1.713 1.712 0 0-.87 1.872-2.437 1.901 0 0-1.219.32-2.99-1.393L20.56 26.32s1.944 2.191 3.729 3.09c0 0 2.54 1.64 4.86-.55 0 0 .842-.726 1.8-2.308 0 0 1.146-2.002 3.134-2.176 0 0 2.205-.13 2.83-.232 0 0 2.974-.189 3.554-3.366 0 0 .653-3.396-2.54-5.63z" fill="#164193" mask="url(#d)"/>
        <path d="M6.587 10.664s-.493-.072-.478-.174c0 0 .348-.029.58.058h.537s-.261.189-.639.116m-.986 1.539s.45.029.522.087c0 0-.29.203-.522-.087m4.918-3.526s-1.436.972-1.886 1.044c0 0-1.552.639-3.22.131v.138s.304.058.34.109c0 0-.007.101-.334 0v.196s.276.087.61.166c0 0-.03.095-.602-.029v.218s.667.261 1.168.247c0 0 .08.16-.436.123l-.573-.065s-.072.065.109.123c0 0 .254.109.297.16 0 0-.043.007-.558-.051v.138s.624.174.812.29c0 0-.05.072-.355-.03l-.443-.108v.24s.421.101.486.137l.008.058s-.196.015-.327-.007l-.16-.065v.217l.131.044-.138.109v.225s.457.094.762.094c0 0 .29.094.435.123 0 0 .087.116-.297.051 0 0-.377-.022-.559-.036 0 0-.123.13-.333.043v.32s1.784.42 3.344-.24c0 0 .467-.196 1.463-.776 0 0 1.229-.832 2.583-.706l.198-3.212s-1.436-.087-2.525.58" fill="#E20714" mask="url(#d)"/>
        <path d="M51.973 12.469h-3.046s.421.284.558.617c0 0 .304 1.254-.715 2.037 0 0-.91 1.048-3.163 1.293l.656.559s.754.235 2.615-.49c0 0 1.146-.47 1.587-1.146 0 0 .539.783 1.92 1.205 0 0 1.185.401 2.194.411l.774-.617s-1.9-.196-2.949-1.029c0 0-1.048-.568-1.028-1.87 0 0-.118-.578.588-.94M45.146 17.817v1.254h4.437v3.467h1.852V19.03h4.378v-1.224s-.265.235-.568.235h-9.56s-.235-.01-.539-.225M63.335 15.552c-.581 0-1.053-.546-1.053-1.219s.472-1.219 1.053-1.219c.582 0 1.053.546 1.053 1.22 0 .672-.471 1.218-1.053 1.218m.013-3.318c-1.576 0-2.84 1.001-2.84 2.103 0 1.101 1.277 1.994 2.853 1.994 1.576 0 2.782-.91 2.782-2.01 0-1.102-1.219-2.087-2.795-2.087M59.861 16.58v1.044h2.547v1.49h1.841v-1.542h2.874v-.98l-.523.105h-6.23zM61.624 19.662h2.43s-.249.365-.249.574v1.228h6.4v.836h-7.118s-.94.117-1.123-.85v-1.162s.013-.182-.34-.626" fill="#6F6F6E" mask="url(#d)"/>
        <path d="M65.477 18.199v.797h2.468v.94h1.829v-7s.026-.392.587-.68h-3.056s.614.353.627.64v5.264l-2.455.039zM76.16 12.387h3.003s-.483.275-.561.653c0 0-.144 2.077.379 2.965 0 0 .823 1.659 2.468 1.92l-.81.705s-2.024-.118-2.938-1.92c0 0-.875 1.737-2.912 1.972l-.85-.653s1.764-.405 2.456-2.037c0 0 .522-.64.326-2.978 0 0 .04-.235-.561-.627M81.632 12.126h3.017s-.51.21-.575.666v9.338h-1.802v-9.325s-.053-.444-.64-.679M48.128 25.396c-.032-.713-.623-.938-1.143-.938-.391 0-1.053.11-1.053.81 0 .391.276.52.546.584l1.315.302c.597.141 1.048.501 1.048 1.233 0 1.09-1.016 1.39-1.807 1.39-.854 0-1.188-.255-1.394-.44-.393-.352-.47-.738-.47-1.168h.586c0 .835.681 1.08 1.272 1.08.45 0 1.208-.116 1.208-.778 0-.482-.225-.636-.981-.816l-.944-.218c-.302-.071-.984-.283-.984-1.086 0-.72.47-1.422 1.588-1.422 1.612 0 1.773.96 1.799 1.467h-.586zM53.155 24.046v2.994c0 .945-.593 1.737-1.858 1.737-1.24 0-1.774-.792-1.774-1.653v-3.078h.625v2.904c0 1.002.61 1.279 1.169 1.279.571 0 1.213-.264 1.213-1.266v-2.917h.625zM55.487 28.66h-.655l-1.2-4.613h.673l.861 3.751h.013l1.034-3.75h.68l1.035 3.75h.012l.861-3.75h.687l-1.213 4.611h-.656l-1.053-3.82h-.013zM64.083 26.353c0-.996-.529-2.424-2.252-2.424-1.723 0-2.252 1.428-2.252 2.424s.529 2.424 2.252 2.424c1.723 0 2.252-1.428 2.252-2.424m-.645 0c0 1.086-.604 1.876-1.607 1.876-1.003 0-1.607-.79-1.607-1.876 0-1.086.604-1.876 1.607-1.876 1.003 0 1.607.79 1.607 1.876M67.75 24.047h.606v4.612h-.702l-2.342-3.722H65.3v3.722h-.606v-4.612h.74l2.303 3.722h.013zM74.103 25.434c-.174-.809-.848-.957-1.292-.957-.835 0-1.51.617-1.51 1.831 0 1.086.386 1.92 1.53 1.92.404 0 1.105-.192 1.317-1.265h.604c-.257 1.738-1.67 1.814-2.018 1.814-1.047 0-2.077-.677-2.077-2.45 0-1.42.811-2.398 2.154-2.398 1.189 0 1.806.735 1.896 1.505h-.604zM75.47 28.66h.626v-4.614h-.625zM76.625 24.046h3.748v.549H78.81v4.065h-.625v-4.065h-1.561zM82.795 28.66h-.625v-1.857l-1.741-2.757h.726l1.324 2.217 1.325-2.217h.732l-1.741 2.757z" fill="#6F6F6E" mask="url(#d)"/>
    </g>
</svg>
