<svg width="117" height="30" viewBox="0 0 117 30" xmlns="http://www.w3.org/2000/svg" xmlns:xlink="http://www.w3.org/1999/xlink">
    <defs>
        <path id="a" d="M0 0h21.788v21.614H0z"/>
        <path id="c" d="M0 0h21.97v21.615H0z"/>
        <path id="e" d="M0 0h21.97v21.615H0z"/>
        <path id="g" d="M0 0h20.94v21.62H0z"/>
        <path id="i" d="M0 0h21.978v30H0z"/>
    </defs>
    <g fill="none" fill-rule="evenodd">
        <g transform="translate(70.706)">
            <mask id="b" fill="#fff">
                <use xlink:href="#a"/>
            </mask>
            <path d="M21.443 14.351c-1.626 4.496-5.493 7.263-10.459 7.263C4.834 21.614 0 16.988 0 10.807 0 4.581 4.834 0 10.984 0c5.098 0 9.36 3.156 10.722 7.608.263 1.21-.132 1.34-.79 1.47-.703.13-1.758 0-2.417-.39C17.796 8.3 16.74 6.83 16.74 6.83c-1.187-1.989-3.34-3.156-5.757-3.156-3.866 0-7.117 3.285-7.117 7.133 0 3.804 3.251 7.089 7.117 7.089 2.681 0 4.835-1.426 6.152-3.545 0 0 .66-1.167 2.285-1.6 1.758-.388 2.153.13 2.153.13s.395.13-.131 1.47" fill="#005386" mask="url(#b)"/>
        </g>
        <g transform="translate(24.219)">
            <mask id="d" fill="#fff">
                <use xlink:href="#c"/>
            </mask>
            <path d="M10.985 17.896c-3.867 0-7.074-3.285-7.074-7.089 0-3.848 3.207-7.133 7.074-7.133V0C4.833 0 0 4.58 0 10.807c0 6.181 4.833 10.808 10.985 10.808v-3.719zm0-14.222c3.91 0 7.118 3.285 7.118 7.133 0 3.804-3.207 7.09-7.118 7.09v3.718c6.195 0 10.985-4.627 10.985-10.808C21.97 4.581 17.18 0 10.985 0v3.674z" fill="#005386" mask="url(#d)"/>
        </g>
        <g transform="translate(94.697)">
            <mask id="f" fill="#fff">
                <use xlink:href="#e"/>
            </mask>
            <path d="M10.985 3.674V0C4.789 0 0 4.58 0 10.807c0 6.181 4.79 10.808 10.985 10.808v-3.719c-3.911 0-7.118-3.285-7.118-7.089 0-3.848 3.207-7.133 7.118-7.133zm0 0c3.866 0 7.074 3.285 7.074 7.133 0 3.804-3.208 7.09-7.074 7.09v3.718c6.151 0 10.985-4.627 10.985-10.808C21.97 4.581 17.136 0 10.985 0v3.674z" fill="#005386" mask="url(#f)"/>
        </g>
        <g transform="translate(47.983)">
            <mask id="h" fill="#fff">
                <use xlink:href="#g"/>
            </mask>
            <path d="M15.341 12.752c1.362.13 1.626.691 1.23 1.729-.79 1.989-3.602 3.545-6.15 3.545-2.945 0-4.438-1.426-5.625-2.637-1.098-1.167-3.251-1.297-3.91-1.037-.66.26-.396 1.297-.133 1.859 1.89 3.415 5.757 5.403 9.536 5.403 3.998.13 7.47-1.858 9.622-5.144 2.021-3.286 1.186-7.393-3.603-7.393l-10.72-.13c-1.627 0-1.759-.908-1.363-1.988 1.098-1.945 3.515-3.415 6.459-3.415 2.812 0 4.262 1.73 5.229 2.637 1.054.908 3.075 1.167 3.998.778.527-.26.395-.908 0-1.686C18.153 1.944 14.287 0 10.421 0 7.036 0 3.301 1.426 1.016 4.841c-1.845 2.94-1.714 7.781 4.966 7.781l9.358.13z" fill="#005386" mask="url(#h)"/>
        </g>
        <g>
            <mask id="j" fill="#fff">
                <use xlink:href="#i"/>
            </mask>
            <path d="M10.993 0C4.798 0 .008 4.58.008 10.807v14.31s-.131 1.858.66 3.155c.659.908 1.625 1.6 2.548 1.728.659-.128.791-.95.791-.95v-9.813c1.89 1.426 4.306 2.377 6.986 2.377v-3.718c-3.91 0-7.118-3.285-7.118-7.089a7.115 7.115 0 0 1 7.118-7.133V0zm0 21.614c6.151 0 10.985-4.626 10.985-10.807C21.978 4.581 17.144 0 10.993 0v3.674c3.867 0 7.074 3.155 7.074 7.133 0 3.804-3.207 7.09-7.074 7.09v3.717z" fill="#005386" mask="url(#j)"/>
        </g>
    </g>
</svg>
