<svg width="119" height="30" viewBox="0 0 119 30" xmlns="http://www.w3.org/2000/svg" xmlns:xlink="http://www.w3.org/1999/xlink">
    <defs>
        <path id="a" d="M0 0h16.962v30H0z"/>
        <path id="c" d="M0 0h12.341v7.664H0z"/>
        <path id="e" d="M0 30h118.333V0H0z"/>
    </defs>
    <g fill="none" fill-rule="evenodd">
        <path d="M16.76 4.004c.057.089.132.168.14.257.086.26.328.418.358.685.01.089.127.124.187.163.064.084.02.18.146.301.06.039.014.133.024.223l.182.117c.543.847.596 1.831-.034 2.743a.953.953 0 0 0-.238.384c-.05.05-.157.104-.209.153.01.09.07.128.136.213-.272.07-.304.297-.512.452l-.222.02c-.154.15-.315.21-.472.314-.05.05-.036.184-.03.228-.26.204-.639.33-1.035.321-.054.006-.095.144-.15.15-.28.026-.617.013-.896.038-.116-.034-.181-.117-.298-.152a.898.898 0 0 1-.34-.012c-.18-.12-.408-.143-.587-.216-.116-.035-.328.075-.448-.003-.375-.325-.747-.649-.953-.99-.137-.212-.37-.28-.45-.497-.01-.09.033-.228-.085-.261-.232-.07-.136-.212-.15-.346-.07-.128-.081-.217-.207-.341-.071-.128.02-.316-.053-.489-.005-.044.045-.095.04-.139-.085-.26.052-.543.028-.765a1.303 1.303 0 0 1 .061-.456c.138-.282.27-.61.52-.903a5.318 5.318 0 0 1-.02-.176c.05-.05.106-.056.157-.106.087-.232.178-.42.326-.613.197-.244.512-.454.765-.702.152-.148.366-.258.507-.497.05-.05.228.024.28-.025.152-.149.379-.125.536-.23.157-.105.126.122.288.062.111-.01.162-.06.268-.114.162-.06.344.057.517.085a.804.804 0 0 1 .52.132c.242.156.799.104.889.412.136.211.378.368.514.58" fill="#BC0D30" fill-rule="nonzero"/>
        <g transform="translate(10.982)">
            <mask id="b" fill="#fff">
                <use xlink:href="#a"/>
            </mask>
            <path d="M15.711 9.56c.05-.069.026-.207-.045-.268-.11-.069-.252.035-.315.155-.064.12-.016.31.15.301.04.01.155-.11.21-.188m.337-1.179c.008-.218.11-.378.07-.61-.077-.242-.255-.002-.383.015.072.283-.046.481-.133.731-.054.077-.093.292.032.275.197.044.407-.144.414-.41m-.848-.86c-.006-.14 0-.224-.056-.371-.016-.139.095-.292.047-.482-.032-.051-.103-.112-.094-.155.094-.292.102-.559.078-.877-.023-.096-.055-.146-.087-.2l.04-.213c.007-.268-.08-.465-.158-.707-.023-.094-.095-.154-.11-.291-.032-.052-.103-.114-.096-.156.071-.388-.118-.698-.174-1.068-.087-.42-.488-.687-.614-1.118.006-.043.138-.025.178-.016.314.293.663.637.749 1.059.055.146.03.274.095.378.267.327.314.74.363 1.153-.008.043.079.016.11.07-.008.043-.024.129.008.18.205.224.078.463.119.697a.635.635 0 0 0 .086.198c-.008.043-.11.156-.119.198.167.214.238.5.191.757.19.087.103.335.149.525.03.052.072.06.111.069a.663.663 0 0 0 .126-.242c.023-.352.039-.662-.025-.988-.054-.147-.072-.285.032-.396-.08-.017-.104-.113-.135-.165-.141-.568-.2-1.204-.369-1.785 0 0 .046-.034.056-.076-.06-.509-.45-.988-.633-1.5-.03-.092-.18-.202-.25-.299l.01-.087c.2.027.351.22.456.366.209.294.448.62.51.948.111.292.275.6.34.885.044.19.182.314.274.472.051.148.025.276.038.414.057.33.157.647.22.974.079.241.112.516.032.723-.11.379.142.791.244 1.126.056.148-.015.31-.077.43-.007.045.062.105.054.147-.07.164-.015.31-.047.484-.046.033.055.145 0 .22-.046.038-.085.029-.133.063-.063.121-.008.267-.032.397-.126.24-.062.567-.298.74-.088.024-.096.069-.143.102.04.009.072.06.102.112-.047.034-.087.025-.133.06-.016.086.152.192.183.242-.063.346-.322.647-.314 1.052-.016.086-.04.214-.054.301-.08.206-.23.354-.308.56-.016.085-.18.094-.197.18-.103.112-.093.293-.166.457-.054.076-.172.052-.267.12-.11.154-.094.293-.165.455-.119.199-.263.412-.38.61-.134.284-.36.557-.603.773-.039-.008-.126.017-.173.051-.126.242-.27.424-.538.544-.04-.008-.099.179-.145.213-.185.137-.291.293-.515.422-.084.025-.13.06-.224-.095-.291.517-.683.921-1.108 1.275-.221.129-.447.115-.593.26-.484.474-1.252.977-1.34 1.047-.037-.008-.185.21-.185.21-.156.014-.067.028-.21-.005 0 0-.008.242-.204.283-.416.081-.526.563-.558.761-.017.1-.085.032-.134.072-.046.04-.016.1-.063.14-.18.111-.336.332-.487.501-.046.04-.077-.02-.125.022a1.76 1.76 0 0 0-.347.552c-.19.42-.397.794-.657 1.091-.064.072.147.352.131.447-.06.132-.18.155-.24.287-.053.328-.068.696-.126 1.043-.094.34.024.582.07.885.051.256-.014.585-.001.833.018.2.155.417.133.612.007.298-.06.258.004.508-.009.146-.057.291-.023.391-.012.196-.044.318-.055.513-.042.047-.128.14-.13.188-.03.49-.35.92-.688 1.242-.208.133-.39.337-.628.32-.12-.007-.519.245-.653.277a2.24 2.24 0 0 1-.973.054c-.373-.101-.67-.194-.927-.576-.152-.168-.416-.106-.515-.367-.03-.102-.245-.156-.28-.21-.196-.174-.3-.388-.446-.604-.1-.26-.028-.438-.146-.69-.123-.156-.176-.265-.297-.42-.164-.205.037-.5-.083-.704a.579.579 0 0 1-.204-.258c-.078-.201-.06-.493-.18-.705-.066-.254-.024-1.176.025-1.425.01-.05-.134-.121-.126-.17.02-.358.144-.706.116-1.075.038-.199.02-.357.2-.527 0 0-.085-.07-.076-.12.105-.287.104-.51.161-.809.01-.05.115-.08.125-.13-.058-.22-.06-.664-.024-.864.02-.1.278-.248.338-.337.009-.048-.038-.177.06-.35.023-.042.091-.029.141-.069.008-.05-.025-.108-.016-.159.025-.148.278-.256.296-.355.1-.339.27-.48.449-.756.065-.12.089-.249.194-.36.047-.034.07-.001.078-.045.009-.044-.013-.138-.007-.181.1-.112.24-.216.262-.344.07-.164.13-.284.23-.397.186-.138.37-.275.485-.472.1-.113.215-.087.317-.2.144-.147.183-.36.29-.516.256-.303.532-.508.809-.715.23-.173.523-.242.746-.371.23-.172.37-.498.593-.628.137-.103.3-.112.438-.215.139-.104.255-.302.462-.345.46-.12.13.008.561-.164.269-.163.158-.208.427-.372.446-.259.678-.424.716-.416.046-.033.092-.068.108-.154.107-.156.679-.554.764-.58.084-.025.185.086.283-.025.054-.078-.054-.146 0-.225.147-.146.287-.344.43-.447.046-.034.157.035.243.008.047-.034.063-.12.11-.154.055-.077-.047-.188.007-.268.064-.12.127-.24.214-.265.134-.06.315-.155.292-.25.03-.172.101-.336.282-.431l.024-.13c.102-.111.197-.18.3-.29.109-.156.061-.345.125-.466.204-.225.402-.404.457-.706-.016-.138-.103-.336-.04-.457.055-.076.228-.129.244-.214.031-.173-.056-.37-.064-.551.024-.13.165-.233.15-.37-.016-.362.007-.715-.047-1.084.125-.017.141-.105.156-.19-.031-.276-.19-.533-.26-.818-.007-.18.141-.328.134-.507-.017-.138-.149-.302-.293-.422-.133-.164-.046-.413-.093-.602-.04-.232-.214-.406-.245-.68-.016-.138-.182-.13-.236-.276a2.352 2.352 0 0 1-.095-.603c-.024-.095-.15-.077-.221-.137-.159-.258-.102-.784-.45-.903.031-.173-.125-.208-.181-.353.205 0 .394.086.512.335.031.051.15.078.189.087.103.111.095.378.206.447.14.12.353.076.409.224.079.24.26.37.348.567a.358.358 0 0 0 .046.19c.143.12.158.257.259.369.237.276.474.552.364.93-.07.164.142.12.206.223.158.258.094.604.3.827-.04.44.173.844.308 1.23-.23.354-.103.972.08 1.325 0 0 .125-.017.134-.06.039-.214.431-.287.368-.39-.079-.242-.197-.744-.197-.968.023-.354.039-.664-.017-1.034a16.395 16.395 0 0 0-.094-.154c-.048-.19-.095-.38-.055-.594-.024-.096-.095-.154-.119-.25l.032-.172c.087-.026.197.043.275.061.072.059.008.18.04.232.126.205.315.292.354.525a10.6 10.6 0 0 0-.03.172c.03.275.196.49.236.723.016.137-.1.335-.046.482.18.353.188.757.158 1.153-.032.172.188.31.125.43-.061.12.017.138-.047.259-.008.042-.094.067-.101.112.118.25-.06.627-.1.843-.008.042.134.089.163-.07.017-.095.181-.094.267-.12.095-.07.165-.233.158-.413" fill="#0083C7" fill-rule="nonzero" mask="url(#b)"/>
        </g>
        <path d="M24.375 2.217c.21.158.293.423.458.638l-.016.087c-.29.248-.544-.166-.623-.406-.117-.25-.236-.498-.45-.68l.025-.13c-.103-.112-.236-.274-.103-.335.055-.077.15.078.26.147.165.215.196.49.449.68M25.568 1.112c.002.044-.067.119-.077.16a1.768 1.768 0 0 1-.393-.463C25.06.798 24.98.78 24.95.725c-.038-.011-.03-.053-.02-.095.126-.012.225.104.333.177.038.01.088-.022.126-.012a.399.399 0 0 1 .179.317" fill="#0083C7" fill-rule="nonzero"/>
        <g transform="translate(0 8.771)">
            <mask id="d" fill="#fff">
                <use xlink:href="#c"/>
            </mask>
            <path d="M10.049 3.417c0-.037.002-.072.003-.108-.128-.079-.186-.298-.35-.342-.032-.001-.099.032-.1.067-.008.217.084.365.175.55.039-.143.137-.137.2-.027a.299.299 0 0 0 .072-.14M7.785.262A.94.94 0 0 1 7.91.38c.064.043.129.047.197.017.066.005.124.174.19.178.095.045.154.212.247.293.064.04.13.1.193.143.09.114.148.227.241.307.06.077.161.05.228.054.128.047.18.232.27.348.034.003.092.116.09.153.062.04.123.117.219.16.028.04.025.112.053.15.238.38.55.622.752 1.035 0 0 .026.076.024.111.246.237.354.571.565.842.058.111.111.297.164.445.062.078.125.119.185.197.088.151.174.34.193.521-.005.071-.053.284-.178.166-.153-.158-.137-.371-.293-.493a.362.362 0 0 0-.071-.167c-.063-.075-.175-.07-.202-.18.009-.108-.113-.196-.175-.271-.157-.223-.384-.306-.572-.532-.034 0-.067-.002-.102.031-.034.071-.137.175-.043.287.129.078.189.225.351.306.095.075.12.293.178.476a.636.636 0 0 0 .223.192c.096.076.058.19.149.306-.003.037-.038.07-.041.104.059.115.191.088.283.204.07-.066.167-.014.224.09-.107.1-.08.175-.12.282-.111.17.14.335.298.42.1.008.086.187.18.267.058.114.221.127.31.278.027.075-.041.105-.08.174-.008.109.122.154.184.195.063.042.091.118.118.19-.101.029-.296-.105-.394-.114-.062-.027-.18-.169-.306-.196-.044-.01-.074.093-.121.084l-.19-.036c-.069-.012-.236-.196-.308-.206-.082-.015-.183.136-.263.122-.297-.05-.308-.07-.401-.108a2.62 2.62 0 0 1-.312-.151c-.065-.035-.047-.119-.107-.158-.06-.04-.189-.039-.25-.076-.237-.145-.461-.472-.664-.577-.134-.07-.246-.138-.394-.208-.074-.045-.125-.147-.216-.177-.278-.093-.502-.269-.82-.358-.603-.17-1.104.174-1.593.426-.026 0-.077-.005-.105.013-.112.096-.246.147-.357.221-.152.12-.363.152-.531.25-.054.032-.06.128-.111.16-.08.046-.222.056-.3.104-.071.047-.08.13-.15.182-.14.112-.278.205-.468.293-.109.056-1.011.21-1.162.212-.233.002-.394.194-.741.193-.528-.003-1.056-.013-1.494-.338-.093-.08-.11-.298-.172-.34-.19-.123-.171-.374-.225-.56-.062-.04-.193-.05-.186-.159.073-.536.34-1.022.665-1.391.076-.14.246-.197.26-.377 0 0 .292-.41.47-.576.038-.069-.02-.183.019-.251.27-.52.758-.878 1.156-1.353.106-.099.182-.238.349-.26.068.004.132.01.17-.06a.777.777 0 0 1 .323-.334c.382-.258.702-.649 1.138-.722.068-.03.106-.098.173-.13.073-.066.199.016.267-.015.323-.145.62-.457.952-.502.068-.03.107-.101.139-.098.296.025.645-.236.922.04.25-.051.625 0 .782.134" fill="#299039" fill-rule="nonzero" mask="url(#d)"/>
        </g>
        <path d="M46.374 29.277h-2.167V18.366h-4.518v-2.077h4.518v-5.537h2.167v18.525zm-4.743-7.002-1.492 1.546-4.15-4.03a9.495 9.495 0 0 1-1.952 2.453 13.06 13.06 0 0 1-2.258 1.638l-1.451-1.649a8.766 8.766 0 0 0 2.094-1.424 8.398 8.398 0 0 0 1.42-1.71 7.036 7.036 0 0 0 .81-1.832 6.988 6.988 0 0 0 .254-1.833v-2.85h2.29v2.443c0 .476-.03.93-.092 1.364-.062.435-.141.855-.237 1.263l4.764 4.62zM59.649 14.6c0-.637-.259-1.139-.777-1.505-.518-.367-1.13-.55-1.84-.55-.736 0-1.353.18-1.85.54-.497.36-.745.865-.745 1.516 0 .625.248 1.114.745 1.467.497.352 1.114.528 1.85.528.71 0 1.322-.162 1.84-.488.518-.325.777-.829.777-1.507zm2.248.021c0 .584-.125 1.117-.378 1.598-.252.482-.59.9-1.01 1.253a4.987 4.987 0 0 1-1.545.794 6.298 6.298 0 0 1-1.931.285 6.29 6.29 0 0 1-1.85-.266 4.882 4.882 0 0 1-1.544-.773c-.436-.34-.78-.75-1.033-1.231-.251-.482-.377-1.029-.377-1.64 0-.61.121-1.163.367-1.658a3.79 3.79 0 0 1 1.023-1.273 4.507 4.507 0 0 1 1.513-.814 6.144 6.144 0 0 1 1.9-.285c.669 0 1.3.095 1.892.285.592.19 1.106.462 1.543.814.436.34.783.758 1.042 1.252.26.496.388 1.05.388 1.66zm4.089 6.556h-7.747v1.017h3.842v4.785h-7.42v.916h7.911v2.076H52.413v-4.968h7.4v-.814H52.31v-1.995h3.74v-1.017h-7.583V19.14h17.518v2.036zM80.549 19.394h-9.895v-8.02h9.772v2.055H72.82v.876h7.36v2.076h-7.36v.958h7.728v2.055zm.04 10.577h-2.187v-4.245h-7.829v-2.077H80.59v6.322zm-13.695-7.463h17.497v-2.056H66.894v2.056zM100.523 21.155h-2.147V19.18H94.86v-2.038h3.516V15.68H94.86v-2.056h3.516v-2.87h2.147v10.402zm-.165 8.815H90.323v-5.11h7.296V23.8H90.22v-2.056h9.648v5.11h-7.256v1.06h7.746v2.055zM88.053 18.162h3.966V16.25h-3.966v1.913zm6.153 2.056h-8.32V11.75h2.167v2.444h3.966V11.75h2.187v8.468z" fill="#1D1D1B" fill-rule="nonzero"/>
        <g>
            <mask id="f" fill="#fff">
                <use xlink:href="#e"/>
            </mask>
            <path d="M116.147 29.276h2.186V10.752h-2.186v18.524zm-2.29-6.94-1.492 1.546-4.13-4.05c-.53.977-1.175 1.801-1.93 2.473a12.273 12.273 0 0 1-2.3 1.64l-1.453-1.65c.831-.447 1.537-.943 2.116-1.486a8.662 8.662 0 0 0 1.422-1.69 7.484 7.484 0 0 0 .786-1.81c.17-.613.255-1.216.255-1.813v-2.912h2.29v2.505c0 .475-.03.927-.093 1.354-.06.427-.139.837-.235 1.23l4.764 4.663z" fill="#1D1D1B" fill-rule="nonzero" mask="url(#f)"/>
        </g>
    </g>
</svg>
