<svg width="186" height="30" viewBox="0 0 186 30" xmlns="http://www.w3.org/2000/svg" xmlns:xlink="http://www.w3.org/1999/xlink">
    <defs>
        <path id="a" d="M0 30h186V0H0z"/>
        <path id="c" d="M0 30h186V0H0z"/>
        <path id="e" d="M0 30h186V0H0z"/>
        <path id="g" d="M0 30h186V0H0z"/>
        <path id="i" d="M0 30h186V0H0z"/>
        <path id="k" d="M0 30h186V0H0z"/>
        <path id="m" d="M0 30h186V0H0z"/>
        <path id="o" d="M0 30h186V0H0z"/>
        <path id="q" d="M0 30h186V0H0z"/>
        <path id="s" d="M0 30h186V0H0z"/>
        <path id="u" d="M0 30h186V0H0z"/>
        <path id="w" d="M0 30h186V0H0z"/>
        <path id="y" d="M0 30h186V0H0z"/>
        <path id="A" d="M0 30h186V0H0z"/>
        <path id="C" d="M0 30h186V0H0z"/>
        <path id="E" d="M0 30h186V0H0z"/>
        <path id="G" d="M0 30h186V0H0z"/>
        <path id="I" d="M0 30h186V0H0z"/>
        <path id="K" d="M0 30h186V0H0z"/>
        <path id="M" d="M0 30h186V0H0z"/>
        <path id="O" d="M0 30h186V0H0z"/>
        <path id="Q" d="M0 30h186V0H0z"/>
        <path id="S" d="M0 30h186V0H0z"/>
        <path id="U" d="M0 30h186V0H0z"/>
        <path id="W" d="M0 30h186V0H0z"/>
        <path id="Y" d="M0 30h186V0H0z"/>
        <path id="aa" d="M0 30h186V0H0z"/>
        <path id="ac" d="M0 30h186V0H0z"/>
        <path id="ae" d="M0 30h186V0H0z"/>
        <path id="ag" d="M0 30h186V0H0z"/>
        <path id="ai" d="M0 30h186V0H0z"/>
    </defs>
    <g fill="none" fill-rule="evenodd">
        <path fill="#555759" fill-rule="nonzero" d="M72.265 19.005h2.249V8.055h-2.249zM76.903 19.005v-8.128h2.163v1.534c.39-.625.82-1.066 1.293-1.325a2.965 2.965 0 0 1 1.44-.388c.632 0 1.175.206 1.629.618.456.412.684 1.06.684 1.949v5.74h-2.166v-5.204c0-.442-.04-.743-.118-.902a.858.858 0 0 0-.328-.358.894.894 0 0 0-.464-.122c-.298 0-.606.1-.927.299-.32.2-.669.591-1.043 1.173v5.114h-2.163zM92.249 18.817c-.887.245-1.713.366-2.479.366-1.358 0-2.378-.41-3.064-1.23-.682-.82-1.025-1.827-1.025-3.018 0-1.253.363-2.271 1.084-3.058.724-.786 1.785-1.179 3.187-1.179.646 0 1.39.105 2.234.315v1.583c-.87-.286-1.564-.43-2.081-.43-.737 0-1.275.288-1.614.861a3.65 3.65 0 0 0-.51 1.895c0 .531.098 1.028.293 1.488.197.46.47.797.822 1.008.351.213.748.318 1.188.318.636 0 1.29-.146 1.965-.441v1.522zM94.046 19.005V7.32h2.165v5.09c.39-.624.82-1.065 1.292-1.324a2.964 2.964 0 0 1 1.44-.388c.632 0 1.174.206 1.631.618.454.412.681 1.06.681 1.949v5.74h-2.163v-5.204c0-.442-.041-.743-.121-.902a.836.836 0 0 0-.328-.358.89.89 0 0 0-.464-.122c-.295 0-.603.1-.924.299-.32.2-.669.591-1.044 1.173v5.114h-2.165zM104.888 14.138h2.85c0-.741-.121-1.27-.366-1.587a1.132 1.132 0 0 0-.943-.479c-.42 0-.764.175-1.034.527-.27.35-.439.862-.507 1.54zm4.974 4.584c-1.023.307-1.99.46-2.906.46-.865 0-1.624-.162-2.277-.49-.65-.327-1.15-.84-1.5-1.537a4.987 4.987 0 0 1-.528-2.273c0-.758.15-1.46.448-2.104.298-.642.73-1.15 1.3-1.523.567-.37 1.267-.557 2.1-.557 1.022 0 1.838.33 2.448.991.609.66.915 1.888.915 3.688h-4.932c.048.545.17.975.365 1.29.197.315.461.566.795.75.331.184.779.278 1.338.278.719 0 1.532-.172 2.434-.514v1.541zM115.242 17.81c.614 0 1.077-.271 1.386-.815.31-.544.466-1.229.466-2.053 0-.823-.156-1.506-.466-2.05-.31-.548-.772-.82-1.386-.82-.611 0-1.072.272-1.382.82-.31.544-.465 1.227-.465 2.05 0 .824.155 1.509.465 2.053.31.544.77.815 1.382.815m0 1.373c-.87 0-1.613-.17-2.234-.513a3.375 3.375 0 0 1-1.423-1.512c-.326-.665-.488-1.404-.488-2.216 0-.81.16-1.545.481-2.208a3.37 3.37 0 0 1 1.418-1.515c.626-.348 1.372-.52 2.246-.52.876 0 1.625.172 2.246.52.62.347 1.094.852 1.42 1.515.323.663.486 1.399.486 2.208 0 .812-.164 1.551-.493 2.216-.324.666-.8 1.17-1.42 1.512-.622.343-1.37.513-2.239.513M120.793 19.005v-8.128h2.165v1.534c.39-.625.82-1.066 1.29-1.325a2.963 2.963 0 0 1 1.441-.388c.631 0 1.175.206 1.63.618.456.412.683 1.06.683 1.949v5.74h-2.164v-5.204c0-.442-.042-.743-.12-.902a.844.844 0 0 0-.33-.358.89.89 0 0 0-.462-.122c-.296 0-.606.1-.925.299-.323.2-.669.591-1.043 1.173v5.114h-2.165zM137.228 14.62h3.353l-1.674-4.362-1.679 4.363zm-3.32 4.385 4.212-10.95h2.25l4.208 10.95h-2.31l-1.127-2.926h-4.474l-1.126 2.926h-1.633z"/>
        <g>
            <mask id="b" fill="#fff">
                <use xlink:href="#a"/>
            </mask>
            <path d="M145.707 19.005h2.165v-8.128h-2.165v8.128zm0-9.503h2.165V7.678h-2.165v1.824z" fill="#555759" fill-rule="nonzero" mask="url(#b)"/>
        </g>
        <g>
            <mask id="d" fill="#fff">
                <use xlink:href="#c"/>
            </mask>
            <path d="M150.164 19.005v-8.128h2.164v1.53a3.21 3.21 0 0 1 1.06-1.244c.45-.31.947-.465 1.5-.465.13 0 .266.014.4.042v1.951a2.448 2.448 0 0 0-.853-.168c-.43 0-.82.11-1.172.329-.35.218-.663.55-.935.993v5.16h-2.164z" fill="#555759" fill-rule="nonzero" mask="url(#d)"/>
        </g>
        <g>
            <mask id="f" fill="#fff">
                <use xlink:href="#e"/>
            </mask>
            <path d="M158.72 16.881c.299.345.578.579.838.701.26.124.525.185.798.185.573 0 .998-.288 1.279-.867.28-.58.42-1.243.42-1.992 0-.772-.135-1.38-.403-1.825-.267-.443-.649-.664-1.14-.664-.309 0-.618.11-.929.336-.31.224-.597.528-.864.912v3.214zm-2.165 5.05V10.878h2.164v1.542c.271-.574.626-1.003 1.057-1.29.431-.287.939-.43 1.523-.43.973 0 1.725.368 2.257 1.108.533.74.798 1.71.798 2.912 0 1.271-.297 2.332-.892 3.186-.592.853-1.424 1.278-2.493 1.278-.283 0-.545-.029-.789-.091a2.692 2.692 0 0 1-.693-.283c-.22-.129-.476-.338-.768-.628v3.75h-2.164z" fill="#555759" fill-rule="nonzero" mask="url(#f)"/>
        </g>
        <g>
            <mask id="h" fill="#fff">
                <use xlink:href="#g"/>
            </mask>
            <path d="M169.653 17.81c.614 0 1.077-.271 1.386-.815.311-.544.466-1.229.466-2.053 0-.823-.155-1.506-.466-2.05-.31-.548-.772-.82-1.386-.82-.61 0-1.07.272-1.38.82-.31.544-.465 1.227-.465 2.05 0 .824.154 1.509.465 2.053.31.544.77.815 1.38.815m0 1.373c-.866 0-1.612-.17-2.233-.513a3.373 3.373 0 0 1-1.422-1.512c-.326-.665-.49-1.404-.49-2.216 0-.81.16-1.545.483-2.208a3.363 3.363 0 0 1 1.418-1.515c.622-.348 1.372-.52 2.244-.52.878 0 1.626.172 2.25.52.62.347 1.092.852 1.416 1.515.324.663.485 1.399.485 2.208 0 .812-.162 1.551-.489 2.216-.327.666-.8 1.17-1.421 1.512-.62.343-1.37.513-2.241.513" fill="#555759" fill-rule="nonzero" mask="url(#h)"/>
        </g>
        <g>
            <mask id="j" fill="#fff">
                <use xlink:href="#i"/>
            </mask>
            <path d="M175.205 19.005v-8.128h2.164v1.53c.26-.52.613-.936 1.063-1.244.446-.31.948-.465 1.499-.465.131 0 .265.014.401.042v1.951a2.454 2.454 0 0 0-.855-.168c-.43 0-.82.11-1.17.329-.352.218-.664.55-.938.993v5.16h-2.164z" fill="#555759" fill-rule="nonzero" mask="url(#j)"/>
        </g>
        <g>
            <mask id="l" fill="#fff">
                <use xlink:href="#k"/>
            </mask>
            <path d="M186 18.953c-.518.154-.922.23-1.221.23-.708 0-1.257-.101-1.647-.303a2.05 2.05 0 0 1-.879-.824c-.195-.346-.293-.858-.293-1.532V12.25h-.9v-1.373h.9V9.502l2.166-.252v1.627h1.72v1.373h-1.72v3.976c0 .586.103.979.308 1.182.206.205.506.308.9.308.186 0 .408-.028.666-.085v1.322z" fill="#555759" fill-rule="nonzero" mask="url(#l)"/>
        </g>
        <g>
            <mask id="n" fill="#fff">
                <use xlink:href="#m"/>
            </mask>
            <path d="M40.038 30c8.475 0 14.055-6.807 18.312-12.793 3.583-4.945 9.78-13.564 19.528-15.129.505-.081.386-.47-.123-.506-2.547-.185-7.23.07-12.474 3.237-6.56 3.959-11.474 12.144-16.85 16.178-2.963 2.224-7.84 4.457-12.403 1.96 0 0-4.323-2.042-4.135-7.725 0 0 .022-5.896 5.642-7.056 0 0 3.994-.714 5.859 2.432.187.316.233.766-.297.353-.615-.481-1.555-.876-3.004-.738 0 0-2.812.213-3.625 3.052 0 0-.873 2.654 1.214 4.776 0 0 1.244 1.592 3.942 1.46 5.489 0 10.675-7.38 12.217-8.942 3.364-3.407 9.13-9.21 19.345-9.896.521-.034.46-.393-.06-.468-4.657-.678-15.518-.11-25.41 10.418-1.207-4.198-5.23-6.986-10.09-6.886-4.322.089-11.661 3.466-11.661 12.466C25.965 25.746 34.128 30 40.038 30" fill="#3A8E95" fill-rule="nonzero" mask="url(#n)"/>
        </g>
        <g>
            <mask id="p" fill="#fff">
                <use xlink:href="#o"/>
            </mask>
            <path d="M27.92 26.07a15.07 15.07 0 0 1-3.65-10.39c-3.4-3.946-7.07-8.277-11.368-10.87C7.702 1.667 3.052 1.391.49 1.566c-.583.04-.679.43-.114.522 9.705 1.597 15.88 10.185 19.454 15.119 2.237 3.144 4.735 6.514 7.886 9.004.364.289.494.194.203-.143" fill="#6581BF" fill-rule="nonzero" mask="url(#p)"/>
        </g>
        <g>
            <mask id="r" fill="#fff">
                <use xlink:href="#q"/>
            </mask>
            <path d="M5.076.193c-.547.077-.575.438-.039.473 10.2.647 16.334 6.894 19.304 9.893.182.184.424.453.712.779A15.045 15.045 0 0 1 27.07 7.4C18.202-.016 9.213-.404 5.076.193" fill="#F5A700" fill-rule="nonzero" mask="url(#r)"/>
        </g>
        <g>
            <mask id="t" fill="#fff">
                <use xlink:href="#s"/>
            </mask>
            <path d="M80.225 25.091c.663.323 1.574 1.35 1.743 1.628l.7-.661.009-.008c-.017-.023-.673-.983-2.094-1.593l-.358.634z" fill="#595757" fill-rule="nonzero" mask="url(#t)"/>
        </g>
        <g>
            <mask id="v" fill="#fff">
                <use xlink:href="#u"/>
            </mask>
            <path fill="#595757" fill-rule="nonzero" mask="url(#v)" d="M83.272 27.447h1.07V22.38h-1.07v1.926H82.18v.626h1.09z"/>
        </g>
        <g>
            <mask id="x" fill="#fff">
                <use xlink:href="#w"/>
            </mask>
            <path fill="#595757" fill-rule="nonzero" mask="url(#x)" d="M80.585 26.902h-1.068v2.514h4.824v-.627h-3.756z"/>
        </g>
        <g>
            <mask id="z" fill="#fff">
                <use xlink:href="#y"/>
            </mask>
            <path d="M90.842 25.1c.104-.103.18-.378.212-.601.033-.227.05-.462.05-.706v-1.257h-5.185v.625h4.116v.655c0 .237-.01.469-.033.696-.024.228-.06.437-.113.627l-.008.031h-4.62v.626H88v1.027h-2.09v.624h4.116v1.97h1.069v-2.594h-2.019v-1.027h2.74v-.626h-1.043l.068-.07z" fill="#595757" fill-rule="nonzero" mask="url(#z)"/>
        </g>
        <g>
            <mask id="B" fill="#fff">
                <use xlink:href="#A"/>
            </mask>
            <path fill="#595757" fill-rule="nonzero" mask="url(#B)" d="M73.455 26.902h-1.069v2.514h4.945v-.627h-3.876z"/>
        </g>
        <g>
            <mask id="D" fill="#fff">
                <use xlink:href="#C"/>
            </mask>
            <path d="M73.184 25.769c-.586-.002-1.04-.552-1.04-1.328s.454-1.326 1.04-1.327c.583.001 1.038.551 1.04 1.327-.002.776-.457 1.326-1.04 1.328m0-3.282c-1.163.002-2.096.795-2.098 1.954.002 1.16.935 1.951 2.098 1.953 1.162-.002 2.095-.794 2.097-1.953-.002-1.159-.935-1.952-2.097-1.954" fill="#595757" fill-rule="nonzero" mask="url(#D)"/>
        </g>
        <g>
            <mask id="F" fill="#fff">
                <use xlink:href="#E"/>
            </mask>
            <path d="M104.854 25.39c.12-.119.257-.488.298-.716.045-.233.067-.499.067-.795v-1.344h-5.174v.626h4.105v.742c0 .288-.012.548-.037.778-.027.232-.085.543-.179.755l-.011.023h-1.242v-1.297h-1.076v1.297h-2.26v.626h6.718v-.626h-1.277l.068-.069z" fill="#595757" fill-rule="nonzero" mask="url(#F)"/>
        </g>
        <g>
            <mask id="H" fill="#fff">
                <use xlink:href="#G"/>
            </mask>
            <path d="M102.677 26.975c.813.002 1.566.417 1.57 1.023-.004.606-.757 1.022-1.57 1.023-.811 0-1.565-.417-1.569-1.023.004-.606.758-1.021 1.57-1.023m-2.591 1.023c0 .483.312.894.776 1.185.462.29 1.105.46 1.814.46.711 0 1.353-.17 1.815-.46.463-.291.775-.702.775-1.185 0-.483-.312-.893-.775-1.185-.462-.29-1.104-.46-1.815-.46-.71 0-1.352.17-1.814.46-.464.292-.776.702-.776 1.185" fill="#595757" fill-rule="nonzero" mask="url(#H)"/>
        </g>
        <g>
            <mask id="J" fill="#fff">
                <use xlink:href="#I"/>
            </mask>
            <path d="M119.438 25.39c.12-.119.255-.488.298-.716a4.29 4.29 0 0 0 .067-.795v-1.344h-5.175v.626h4.106v.742c0 .288-.013.548-.038.778-.026.232-.085.543-.178.755l-.01.023h-1.242v-1.297h-1.08v1.297h-2.26v.626h6.72v-.626h-1.276l.068-.069z" fill="#595757" fill-rule="nonzero" mask="url(#J)"/>
        </g>
        <g>
            <mask id="L" fill="#fff">
                <use xlink:href="#K"/>
            </mask>
            <path d="M117.26 26.975c.813.002 1.565.417 1.571 1.023-.006.606-.758 1.022-1.571 1.023-.812 0-1.564-.417-1.568-1.023.004-.606.756-1.021 1.568-1.023m-2.588 1.023c0 .483.31.894.775 1.185.461.29 1.103.46 1.813.46s1.354-.17 1.817-.46c.463-.291.774-.702.775-1.185-.001-.483-.312-.893-.775-1.185-.463-.29-1.107-.46-1.817-.46s-1.352.17-1.813.46c-.465.292-.775.702-.775 1.185" fill="#595757" fill-rule="nonzero" mask="url(#L)"/>
        </g>
        <g>
            <mask id="N" fill="#fff">
                <use xlink:href="#M"/>
            </mask>
            <path d="M110.17 26.975c.812.002 1.564.417 1.568 1.023-.004.606-.756 1.022-1.568 1.023-.813 0-1.565-.417-1.571-1.023.006-.606.758-1.021 1.571-1.023m-2.59 1.023c0 .483.31.894.774 1.185.463.29 1.105.46 1.816.46.71 0 1.352-.17 1.815-.46.463-.291.775-.702.775-1.185 0-.483-.312-.893-.775-1.185-.463-.29-1.105-.46-1.815-.46s-1.353.17-1.816.46c-.464.292-.774.702-.774 1.185" fill="#595757" fill-rule="nonzero" mask="url(#N)"/>
        </g>
        <g>
            <mask id="P" fill="#fff">
                <use xlink:href="#O"/>
            </mask>
            <path d="M107.971 24.547c.002-.593.35-1.016.796-1.016.445 0 .794.423.794 1.016 0 .594-.349 1.016-.794 1.017-.446-.001-.794-.423-.796-1.017m2.107 1.206c.334-.276.538-.665.538-1.13 0-.415-.165-.768-.437-1.038l-.073-.069h.809v-.626h-1.592v-.706h-1.113v.706h-1.558v.626h.775l-.072.07c-.273.269-.437.622-.437 1.037 0 .465.204.854.538 1.13.334.275.796.437 1.31.437s.977-.162 1.312-.437" fill="#595757" fill-rule="nonzero" mask="url(#P)"/>
        </g>
        <g>
            <mask id="R" fill="#fff">
                <use xlink:href="#Q"/>
            </mask>
            <path fill="#595757" fill-rule="nonzero" mask="url(#R)" d="M112.682 22.381h-1.07v4.015h1.07v-1.78h1.03v-.626h-1.03z"/>
        </g>
        <g>
            <mask id="T" fill="#fff">
                <use xlink:href="#S"/>
            </mask>
            <path fill="#595757" fill-rule="nonzero" mask="url(#T)" d="M76.26 27.447h1.07V22.38h-1.07z"/>
        </g>
        <g>
            <mask id="V" fill="#fff">
                <use xlink:href="#U"/>
            </mask>
            <path d="M122.984 25.629c.827.373 1.706 1.606 1.83 1.886l.797-.7.008-.01c-.019-.027-1.345-1.397-2.263-1.793l-.372.617z" fill="#595757" fill-rule="nonzero" mask="url(#V)"/>
        </g>
        <g>
            <mask id="X" fill="#fff">
                <use xlink:href="#W"/>
            </mask>
            <path fill="#595757" fill-rule="nonzero" mask="url(#X)" d="M127.096 22.378h-1.069v7.038h1.069v-4.249h1.032v-.626h-1.03z"/>
        </g>
        <g>
            <mask id="Z" fill="#fff">
                <use xlink:href="#Y"/>
            </mask>
            <path fill="#595757" fill-rule="nonzero" mask="url(#Z)" d="M82.447 23.516v-.626h-1.354l-.002-.706h-1.11v.706h-1.405v.626z"/>
        </g>
        <g>
            <mask id="ab" fill="#fff">
                <use xlink:href="#aa"/>
            </mask>
            <path d="m78.253 26.1.326.57c.71-.334 2.282-1.23 2.511-3.221H79.9c-.004.472-.136 1.824-1.647 2.652" fill="#595757" fill-rule="nonzero" mask="url(#ab)"/>
        </g>
        <g>
            <mask id="ad" fill="#fff">
                <use xlink:href="#ac"/>
            </mask>
            <path d="m120.913 26.94.327.571c1.572-.936 2.788-2.284 2.833-4.987h-1.176c-.018 1.849-.345 3.339-1.984 4.417" fill="#595757" fill-rule="nonzero" mask="url(#ad)"/>
        </g>
        <g>
            <mask id="af" fill="#fff">
                <use xlink:href="#ae"/>
            </mask>
            <path fill="#595757" fill-rule="nonzero" mask="url(#af)" d="M97.572 29.416h.909V22.38h-.91z"/>
        </g>
        <g>
            <mask id="ah" fill="#fff">
                <use xlink:href="#ag"/>
            </mask>
            <path fill="#595757" fill-rule="nonzero" mask="url(#ah)" d="M96.245 29.339h.864v-6.96h-.864v2.299h-1.009v.627h1.009z"/>
        </g>
        <g>
            <mask id="aj" fill="#fff">
                <use xlink:href="#ai"/>
            </mask>
            <path d="M94.345 25.093c.172-.444.318-.962.435-1.577h.933v-.626h-3.086v.626h1.024c-.007.201-.1 2.074-1.349 3.354l.44.484c.489-.422.936-.904 1.306-1.604.48.465.983 1.263 1.168 1.585l.774-.56a8.972 8.972 0 0 0-1.645-1.682" fill="#595757" fill-rule="nonzero" mask="url(#aj)"/>
        </g>
    </g>
</svg>
