<svg width="86" height="30" viewBox="0 0 86 30" xmlns="http://www.w3.org/2000/svg" xmlns:xlink="http://www.w3.org/1999/xlink">
    <defs>
        <path id="a" d="M0 0h10.017v11.441H0z"/>
        <path id="c" d="M0 30h85.45V0H0z"/>
    </defs>
    <g fill="none" fill-rule="evenodd">
        <path d="M41.139 26.576a6.352 6.352 0 0 1-1.942.27c-1.338 0-2.885-.794-2.885-3.028 0-2.225 1.331-3.08 3.172-3.08.331 0 1.029.043 1.518.263l-.108 1.285a2.257 2.257 0 0 0-1.223-.38c-1.086 0-1.978.533-1.978 1.912 0 1.16.698 1.862 1.676 1.862.18 0 .353-.034.475-.102V24.41h-.783v-1.117h2.078v3.283zM43.493 24.52l-1.858-3.68h1.54l.986 2.369.973-2.369h1.54l-1.842 3.68v2.225h-1.34zM47.112 20.84h3.538v1.117h-2.2v1.218h2.078v1.117h-2.079v1.337h2.28v1.116h-3.617zM51.283 23.792c0 1.879.877 3.055 2.517 3.055s2.516-1.176 2.516-3.055c0-1.895-.862-3.054-2.516-3.054s-2.517 1.16-2.517 3.054m1.38 0c0-1.023.324-1.886 1.137-1.886.812 0 1.136.863 1.136 1.886 0 .973-.324 1.888-1.136 1.888-.813 0-1.137-.915-1.137-1.888M57.014 20.84h1.705l1.696 4.01h.016l-.022-4.01h1.223v5.906h-1.663l-1.753-4.036H58.2l.043 4.036h-1.23zM67.154 26.576c-.848.254-1.481.27-1.941.27-1.338 0-2.884-.794-2.884-3.028 0-2.225 1.33-3.08 3.172-3.08.33 0 1.028.043 1.516.263l-.107 1.285a2.256 2.256 0 0 0-1.223-.38c-1.086 0-1.977.533-1.977 1.912 0 1.16.697 1.862 1.675 1.862.18 0 .352-.034.474-.102V24.41h-.783v-1.117h2.078v3.283zM68.06 20.84h1.705l1.697 4.01h.015l-.022-4.01h1.222v5.906h-1.661L69.26 22.71h-.014l.043 4.036h-1.23zM73.152 26.746h1.358l.396-1.261h1.884l.375 1.26h1.467l-1.934-5.905h-1.64l-1.906 5.906zm3.322-2.378h-1.258l.647-2.31h.014l.597 2.31zM79.049 20.84h2.107l1.064 3.925h.015l1.114-3.925h2.027v5.906h-1.308l.021-4.535h-.014l-1.28 4.535h-1.23l-1.222-4.535h-.014l.029 4.535h-1.309zM69.314 9.091h-4.465v-4.18h-1.796v5.597h6.26zM44.585 11.373h1.8v-6.64h-1.8v1.279h-1.933v1.417h1.933v.93h-1.933v1.418h1.933z" fill="#1D1D1B"/>
        <g transform="translate(75.433 5.154)">
            <mask id="b" fill="#fff">
                <use xlink:href="#a"/>
            </mask>
            <path fill="#1D1D1B" mask="url(#b)" d="M6.11 10.023V6.597h3.035V5.181H2.668V1.415h6.477V0H.87v6.597h3.441v3.426H0v1.418h10.017v-1.418z"/>
        </g>
        <path fill="#1D1D1B" d="M72.172 4.734h-1.797v6.44h1.797V8.176h1.572V6.758h-1.572z"/>
        <mask id="d" fill="#fff">
            <use xlink:href="#c"/>
        </mask>
        <path d="M66.87 15.734h3.505v-2.348H66.87v2.348zm-1.8 1.416h7.102v-5.183H65.07v5.183zM42.584 16.233a1.75 1.75 0 0 1-1.75-1.753c0-.97.783-1.756 1.75-1.756.966 0 1.748.787 1.748 1.756a1.75 1.75 0 0 1-1.748 1.753m0-5.028c-1.996 0-3.613 1.466-3.613 3.275 0 1.807 1.617 3.27 3.613 3.27s3.614-1.463 3.614-3.27c0-1.809-1.618-3.275-3.614-3.275M55.157 16.233a1.75 1.75 0 0 1-1.748-1.753c0-.97.782-1.756 1.748-1.756.965 0 1.747.787 1.747 1.756a1.75 1.75 0 0 1-1.747 1.753m0-5.028c-1.994 0-3.61 1.466-3.61 3.275 0 1.807 1.616 3.27 3.61 3.27 1.995 0 3.612-1.463 3.612-3.27 0-1.809-1.617-3.275-3.612-3.275M41.793 7.872s.48-1.256.45-2.805h-5.929v1.45h3.764s.133 2.887-4.004 3.495l.717 1.245c1.313-.112 3.953-.775 5.002-3.385M55.414 10.885l.732-1.209c-2.81-.934-2.794-3.752-2.794-4.054v-.647h-2.207v.663c0 .26.107 3.302-2.759 4.384l.77 1.16s2-.57 3.152-2.554c1.001 1.753 3.106 2.257 3.106 2.257M59.016 4.734H57.22v6.638h1.797V8.175h1.572V6.758h-1.572z" fill="#1D1D1B" mask="url(#d)"/>
        <path d="M15.292.003C10.022-.1 5.336 2.531 2.582 6.59c.051.059.097.115.136.166.03.035.056.07.08.097.016.001.03.005.04.008.197.036.49.089.743.317.158.144.26.304.343.432.035.054.083.13.105.152.043.042.109.092.18.146.112.086.242.183.367.311.105.107.2.215.293.32.063.077.125.146.187.213.048.053.114.11.183.174.104.092.22.197.333.325.145.161.227.33.292.467.027.05.065.127.08.15v-.001c.102.119.2.242.292.36l.147.185c.026.032.088.086.145.133.112.095.25.212.371.373.094.122.17.239.242.354.055.083.105.161.155.23.117.16.19.325.249.459.031.072.063.149.09.184.026.036.08.094.138.153.097.099.216.222.322.379.11.164.175.333.227.467.02.053.043.107.06.148l.067.045c.136.092.345.232.491.471.082.134.137.268.182.382l.287.195c.467.315.664.151.437-.365l-2.64-6.016c-.226-.517-.133-.571.207-.122l3.936 5.207c.34.45.579.359.531-.203l-.553-6.532c-.047-.562.06-.582.237-.049l1.904 6.166c.18.536.416.521.526-.032L15.06 6.08c.11-.555.22-.545.245.018l.271 6.502c.024.564.272.625.555.138l3.25-5.626c.281-.49.382-.447.22.095l-1.84 6.211c-.16.54.058.68.484.31l4.874-4.231c.425-.37.508-.296.18.163l-2.805 3.935c.142-.004.286-.01.397-.07.228-.123.36-.436.596-.551.236-.113.543-.073.782-.178.238-.106.404-.387.643-.484.241-.096.493-.166.733-.254.265-.097.51-.248.77-.336.263-.087.54-.126.799-.205.256-.08.568.032.82-.04.274-.077.485-.37.75-.437.268-.07.556-.028.808-.088.275-.065.557-.056.813-.11.278-.06.524-.207.776-.255.05-.01.1-.014.15-.016C27.475 4.558 21.93.132 15.293.003" fill="#E84F2D" mask="url(#d)"/>
        <path d="M13.017 29.05c.001-.015.006-.03.01-.044a.788.788 0 0 0-.035-.062c-.071-.126-.17-.3-.218-.521a3.07 3.07 0 0 0-.077-.283 5.227 5.227 0 0 1-.106-.376c-.04-.175-.044-.34-.051-.473a1.293 1.293 0 0 0-.016-.206 4.699 4.699 0 0 1-.071-.393c-.014-.1-.027-.196-.046-.272-.017-.066-.05-.148-.085-.235-.046-.115-.1-.247-.138-.398l-.04-.144-.13-.495a3.3 3.3 0 0 0-.091-.262 4.363 4.363 0 0 1-.123-.357 1.782 1.782 0 0 1-.053-.596c.002-.046.004-.1.002-.128a4.825 4.825 0 0 0-.102-.283c-.041-.106-.083-.213-.12-.331-.01-.021-.05-.073-.077-.114a1.822 1.822 0 0 1-.279-.496 1.665 1.665 0 0 0-.102-.225c-.056-.112-.122-.239-.173-.385-.04-.115-.084-.229-.131-.348l-.103-.27c-.096-.256-.078-.502-.067-.663l.005-.07a2.51 2.51 0 0 0-.099-.186c-.06-.112-.13-.237-.19-.382-.015-.039-.064-.108-.108-.175-.074-.11-.167-.247-.237-.415-.059-.14-.1-.273-.137-.39-.029-.093-.055-.181-.082-.243-.049-.11-.09-.217-.131-.32a6.19 6.19 0 0 0-.123-.292l-.125-.274a9.634 9.634 0 0 0-.162-.353c-.019-.042-.072-.11-.123-.175a2.385 2.385 0 0 1-.261-.393c-.09-.176-.132-.347-.168-.483l-.035-.133-.07-.059a1.54 1.54 0 0 1-.42-.46c-.12-.215-.155-.432-.182-.587a1.258 1.258 0 0 0-.022-.12c-.08-.14-.134-.279-.178-.392-.022-.059-.044-.118-.065-.162l-.069-.048a1.47 1.47 0 0 1-.472-.445c-.104-.16-.165-.32-.215-.45-.027-.064-.057-.145-.077-.173-.029-.044-.087-.103-.148-.167a2.64 2.64 0 0 1-.294-.341c-.108-.157-.178-.314-.234-.44-.03-.065-.065-.147-.084-.174a5.412 5.412 0 0 1-.206-.307 3.963 3.963 0 0 0-.171-.252c-.028-.035-.094-.091-.158-.145-.1-.087-.225-.194-.337-.334l-.155-.194c-.09-.114-.175-.222-.26-.323a1.953 1.953 0 0 1-.28-.457c-.023-.047-.056-.112-.071-.134a3.042 3.042 0 0 0-.213-.203 5.517 5.517 0 0 1-.276-.265c-.081-.087-.154-.17-.225-.252-.08-.092-.155-.18-.226-.251-.052-.054-.13-.11-.21-.174-.096-.073-.202-.154-.309-.255-.15-.146-.249-.301-.33-.424l-.048-.076-.045-.009c-.179-.032-.45-.082-.681-.28a3.076 3.076 0 0 1-.122-.111 14.943 14.943 0 0 0-1.763 6.767c-.15 7.707 5.54 14.165 13.004 15.157-.014-.052-.028-.103-.038-.158a1.509 1.509 0 0 1 .048-.658" fill="#009E5E" mask="url(#d)"/>
        <path d="M11.698 19.486c.025.061.067.137.111.22.068.12.146.257.21.418.1.262.082.508.07.674-.001.025-.005.058-.005.082l.076.199c.05.126.1.254.148.391.02.057.06.132.099.212.06.122.129.257.184.42l-.007-.016.077.114c.092.124.215.295.287.52.026.081.06.169.096.265.05.126.1.255.142.399.071.232.062.448.058.608-.004.045-.004.104-.004.132.022.069.05.148.082.231.046.117.095.249.136.395l.136.512.039.147c.015.06.045.137.08.22.049.125.105.267.147.429.036.148.056.29.076.417.014.096.027.189.046.266.042.18.049.351.054.488.002.08.007.163.018.21.018.08.045.167.073.263.036.117.076.25.108.392.009.022.036.071.057.107.075.13.178.309.222.54.055.268-.005.509-.044.665-.007.023-.012.05-.017.074.014.047.03.106.051.168.035.102.07.218.098.344.038.002.07.005.105.005a14.955 14.955 0 0 0 11.259-4.765c-5.206-4-11.6-5.403-14.313-5.841.017.031.031.063.045.095" fill="#004F9E" mask="url(#d)"/>
        <path d="M29.915 15.296a15.041 15.041 0 0 0-.309-3.319c-.092.016-.187.031-.279.048-.256.046-.485.214-.73.262-.25.052-.49.128-.73.184-.267.061-.535.07-.788.137-.259.065-.535.044-.781.114-.25.072-.46.267-.696.343-.262.084-.536.104-.782.192-.253.089-.538.076-.776.17-.24.095-.438.288-.663.386-.25.106-.526.137-.756.246-.254.12-.44.35-.67.473-.239.124-.476.226-.69.352-.237.138-.493.223-.703.357-.232.149-.392.376-.593.518-.231.166-.405.377-.598.53-.223.182-.496.265-.67.426-.176.16-.367.27-.516.389l-.335.538c-.07.254-.07.441-.178.285l-.724 1.163c3.039.93 6.678 2.463 9.914 4.983a14.943 14.943 0 0 0 3.053-8.777" fill="#F6A600" mask="url(#d)"/>
    </g>
</svg>
