<svg xmlns="http://www.w3.org/2000/svg" width="170" height="170" viewBox="0 0 170 170">
    <defs>
        <style>
            .cls-3,.cls-7{fill:none}.cls-3{stroke:#03020f;stroke-width:3px}.cls-6{stroke:none}
        </style>
    </defs>
    <g id="ico_accurate_170px" transform="translate(-875 -2958)">
        <g id="ico_accurate_170px-2">
            <path id="패스_2995" fill="#0b3496" d="M733.9 1065.9a85 85 0 1 1 85-85 85.1 85.1 0 0 1-85 85zm0-166.745a81.745 81.745 0 1 0 81.744 81.744A81.838 81.838 0 0 0 733.9 899.15z" transform="translate(226.104 2062.105)"/>
            <g id="그룹_2597" transform="translate(3 32)">
                <g id="그룹_2554" transform="translate(904.993 2999.988)">
                    <circle id="타원_93" cx="21" cy="21" r="21" fill="#316cbe" transform="translate(.007 .012)"/>
                </g>
                <g id="그룹_2569" transform="translate(-387 22)">
                    <g id="그룹_2564" transform="translate(1342.599 2989.29)">
                        <path id="패스_3000" d="M770.862 1000.319a6.4 6.4 0 1 1 6.4-6.4 6.409 6.409 0 0 1-6.4 6.4zm0-9.533a3.132 3.132 0 1 0 3.131 3.132 3.136 3.136 0 0 0-3.131-3.133z" transform="translate(-764.461 -987.516)"/>
                    </g>
                    <g id="타원_94" class="cls-3" transform="translate(1320 2964)">
                        <circle cx="29.5" cy="29.5" r="29.5" class="cls-6"/>
                        <circle cx="29.5" cy="29.5" r="28" class="cls-7"/>
                    </g>
                    <g id="타원_97" class="cls-3" transform="translate(1307 2952)">
                        <circle cx="41.5" cy="41.5" r="41.5" class="cls-6"/>
                        <circle cx="41.5" cy="41.5" r="40" class="cls-7"/>
                    </g>
                    <g id="타원_95" class="cls-3" transform="translate(1333 2979)">
                        <circle cx="16" cy="16" r="16" class="cls-6"/>
                        <circle cx="16" cy="16" r="14.5" class="cls-7"/>
                    </g>
                    <path id="사각형_2212" fill="#fff" d="M0 0H6V45.356H0z" transform="rotate(38 -3590.001 3478.6)"/>
                    <g id="그룹_2568" transform="translate(45.455 -15.842)">
                        <path id="패스_3006" d="M-5725.5 2662.073l34.188-42.6" class="cls-3" transform="rotate(-1 16538.184 -402844.11)"/>
                        <path id="패스_3007" d="M7327.644 3742.044l-8.51 8.8.131 5.586 2.566 2.236 5.439.043 8.426-8.763-6.061-1.923z" class="cls-3" transform="rotate(-4.01 -7236.413 87994.258)"/>
                        <circle id="타원_96" cx="4.5" cy="4.5" r="4.5" fill="#03020f" transform="translate(1351 2984)"/>
                    </g>
                </g>
            </g>
        </g>
    </g>
</svg>
