<svg xmlns="http://www.w3.org/2000/svg" width="848" height="496" viewBox="0 0 848 496">
    <defs>
        <style>
            .cls-2{fill:#f4fdff;stroke:#1054b2}.cls-3{fill:#2248f4}.cls-9{stroke:none}.cls-10{fill:none}
        </style>
    </defs>
    <g id="img_audiosegmentation" transform="translate(-354 -817)">
        <g id="img_boundingbox" fill="#fff" stroke="#c1d5e8" transform="translate(354 817)">
            <rect width="848" height="496" class="cls-9" rx="10"/>
            <rect width="847" height="495" x=".5" y=".5" class="cls-10" rx="9.5"/>
        </g>
        <g id="사각형_2649" class="cls-2" transform="translate(404 942)">
            <rect width="748" height="123" class="cls-9" rx="10"/>
            <rect width="747" height="122" x=".5" y=".5" class="cls-10" rx="9.5"/>
        </g>
        <g id="그룹_3290" transform="translate(526.456 672.045) translate(-12.003 285.955)">
            <g id="그룹_3223">
                <g id="그룹_3158" transform="translate(286.057)">
                    <path id="패스_4503" d="M322.29 377.949c-.638 0-1.158-.3-1.158-.676v-90.644c0-.373.52-.674 1.158-.674s1.155.3 1.155.674v90.644c0 .373-.516.676-1.155.676z" class="cls-3" transform="translate(-321.132 -285.955)"/>
                </g>
                <g id="그룹_3159" transform="translate(294.999 12.192)">
                    <path id="패스_4504" d="M332.7 371.643c-.639 0-1.155-.278-1.155-.619V304.65c0-.341.516-.617 1.155-.617s1.157.276 1.157.617v66.374c0 .341-.519.619-1.157.619z" class="cls-3" transform="translate(-331.545 -304.033)"/>
                </g>
                <g id="그룹_3160" transform="translate(303.936 12.906)">
                    <path id="패스_4505" d="M343.107 392.049c-.638 0-1.154-.384-1.154-.858v-64.462c0-.474.516-.861 1.154-.861s1.158.387 1.158.861v64.462c0 .475-.516.858-1.158.858z" class="cls-3" transform="translate(-341.953 -325.868)"/>
                </g>
                <g id="그룹_3161" transform="translate(312.873 21.506)">
                    <path id="패스_4506" d="M353.519 390.379a1.059 1.059 0 0 1-1.158-.91V342.3a1.191 1.191 0 0 1 2.312 0v47.167a1.055 1.055 0 0 1-1.154.912z" class="cls-3" transform="translate(-352.361 -341.396)"/>
                </g>
                <g id="그룹_3162" transform="translate(321.81 28.111)">
                    <path id="패스_4507" d="M363.927 386.96a1.056 1.056 0 0 1-1.158-.91V352.1a1.193 1.193 0 0 1 2.317 0v33.951a1.057 1.057 0 0 1-1.159.909z" class="cls-3" transform="translate(-362.769 -351.189)"/>
                </g>
                <g id="그룹_3163" transform="translate(330.751 32.41)">
                    <path id="패스_4508" d="M374.335 384.739a1.055 1.055 0 0 1-1.154-.91V358.47a1.191 1.191 0 0 1 2.313 0v25.359a1.059 1.059 0 0 1-1.159.91z" class="cls-3" transform="translate(-373.181 -357.564)"/>
                </g>
                <g id="그룹_3164" transform="translate(339.688 21.751)">
                    <path id="패스_4509" d="M384.748 390.252a1.057 1.057 0 0 1-1.159-.91v-46.676a1.191 1.191 0 0 1 2.313 0v46.676a1.055 1.055 0 0 1-1.154.91z" class="cls-3" transform="translate(-383.589 -341.76)"/>
                </g>
                <g id="그룹_3165" transform="translate(348.625 28.054)">
                    <path id="패스_4510" d="M395.155 386.992a1.059 1.059 0 0 1-1.158-.91v-34.071a1.193 1.193 0 0 1 2.317 0v34.071a1.058 1.058 0 0 1-1.159.91z" class="cls-3" transform="translate(-393.997 -351.105)"/>
                </g>
                <g id="그룹_3166" transform="translate(357.567 13.851)">
                    <path id="패스_4511" d="M405.564 391.563c-.638 0-1.154-.386-1.154-.86v-62.575c0-.474.516-.857 1.154-.857s1.158.383 1.158.857V390.7c0 .477-.522.863-1.158.863z" class="cls-3" transform="translate(-404.41 -327.271)"/>
                </g>
                <g id="그룹_3167" transform="translate(366.504 23.362)">
                    <path id="패스_4512" d="M415.972 389.418a1.054 1.054 0 0 1-1.154-.91v-43.453a1.19 1.19 0 0 1 2.312 0v43.453a1.056 1.056 0 0 1-1.158.91z" class="cls-3" transform="translate(-414.818 -344.148)"/>
                </g>
                <g id="그룹_3168" transform="translate(527.392 22.453)">
                    <path id="패스_4513" d="M603.342 389.886a1.057 1.057 0 0 1-1.158-.907v-45.27a1.19 1.19 0 0 1 2.312 0v45.27a1.052 1.052 0 0 1-1.154.907z" class="cls-3" transform="translate(-602.184 -342.799)"/>
                </g>
                <g id="그룹_3169" transform="translate(536.329 32.005)">
                    <path id="패스_4514" d="M613.75 384.948a1.058 1.058 0 0 1-1.158-.91V357.87a1.193 1.193 0 0 1 2.317 0v26.168a1.058 1.058 0 0 1-1.159.91z" class="cls-3" transform="translate(-612.592 -356.964)"/>
                </g>
                <g id="그룹_3170" transform="translate(545.271 37.036)">
                    <path id="패스_4515" d="M624.159 382.343a1.052 1.052 0 0 1-1.154-.906v-16.1a1.189 1.189 0 0 1 2.312 0v16.1a1.056 1.056 0 0 1-1.158.906z" class="cls-3" transform="translate(-623.005 -364.423)"/>
                </g>
                <g id="그룹_3171" transform="translate(554.207 42.863)">
                    <path id="패스_4516" d="M634.57 379.328a1.056 1.056 0 0 1-1.158-.906v-4.449a1.19 1.19 0 0 1 2.313 0v4.449a1.052 1.052 0 0 1-1.155.906z" class="cls-3" transform="translate(-633.412 -373.063)"/>
                </g>
                <g id="그룹_3172" transform="translate(563.144 40.95)">
                    <path id="패스_4517" d="M644.978 380.321a1.059 1.059 0 0 1-1.158-.91v-8.278a1.193 1.193 0 0 1 2.317 0v8.278a1.058 1.058 0 0 1-1.159.91z" class="cls-3" transform="translate(-643.82 -370.227)"/>
                </g>
                <g id="그룹_3173" transform="translate(572.115 42.816)">
                    <path id="패스_4518" d="M655.425 379.356a1.057 1.057 0 0 1-1.158-.91V373.9a1.191 1.191 0 0 1 2.313 0v4.546a1.052 1.052 0 0 1-1.155.91z" class="cls-3" transform="translate(-654.267 -372.994)"/>
                </g>
                <g id="그룹_3174" transform="translate(464.824 37.315)">
                    <path id="패스_4519" d="M530.477 382.2a1.057 1.057 0 0 1-1.158-.906v-15.548a1.19 1.19 0 0 1 2.313 0v15.546a1.052 1.052 0 0 1-1.155.908z" class="cls-3" transform="translate(-529.319 -364.836)"/>
                </g>
                <g id="그룹_3175" transform="translate(473.761 28.449)">
                    <path id="패스_4520" d="M540.885 386.788a1.058 1.058 0 0 1-1.158-.91V352.6a1.193 1.193 0 0 1 2.317 0v33.28a1.059 1.059 0 0 1-1.159.908z" class="cls-3" transform="translate(-539.727 -351.691)"/>
                </g>
                <g id="그룹_3176" transform="translate(482.703 36.202)">
                    <path id="패스_4521" d="M551.294 382.777a1.055 1.055 0 0 1-1.154-.91v-17.774a1.191 1.191 0 0 1 2.312 0v17.774a1.059 1.059 0 0 1-1.158.91z" class="cls-3" transform="translate(-550.14 -363.187)"/>
                </g>
                <g id="그룹_3177" transform="translate(491.64 13.851)">
                    <path id="패스_4522" d="M561.706 391.563c-.643 0-1.158-.386-1.158-.86v-62.575c0-.474.515-.857 1.158-.857s1.154.383 1.154.857V390.7c0 .477-.516.863-1.154.863z" class="cls-3" transform="translate(-560.548 -327.271)"/>
                </g>
                <g id="그룹_3178" transform="translate(500.576 19.919)">
                    <path id="패스_4523" d="M572.113 391.2a1.059 1.059 0 0 1-1.158-.91v-50.341a1.191 1.191 0 0 1 2.313 0v50.341a1.054 1.054 0 0 1-1.155.91z" class="cls-3" transform="translate(-570.955 -339.043)"/>
                </g>
                <g id="그룹_3179" transform="translate(509.518 33.599)">
                    <path id="패스_4524" d="M582.522 384.12a1.054 1.054 0 0 1-1.154-.91v-22.973a1.19 1.19 0 0 1 2.312 0v22.974a1.058 1.058 0 0 1-1.158.909z" class="cls-3" transform="translate(-581.368 -359.327)"/>
                </g>
                <g id="그룹_3180" transform="translate(518.455 37.315)">
                    <path id="패스_4525" d="M592.93 382.2a1.052 1.052 0 0 1-1.154-.906v-15.548a1.19 1.19 0 0 1 2.313 0v15.546a1.053 1.053 0 0 1-1.159.908z" class="cls-3" transform="translate(-591.776 -364.836)"/>
                </g>
                <g id="그룹_3181" transform="translate(375.441 27.194)">
                    <path id="패스_4526" d="M426.384 387.433a1.056 1.056 0 0 1-1.158-.906v-35.791a1.191 1.191 0 0 1 2.312 0v35.791a1.052 1.052 0 0 1-1.154.906z" class="cls-3" transform="translate(-425.226 -349.83)"/>
                </g>
                <g id="그룹_3182" transform="translate(384.377 15.9)">
                    <path id="패스_4527" d="M436.792 372.5c-.639 0-1.159-.278-1.159-.62v-58.957c0-.342.52-.618 1.159-.618s1.158.276 1.158.618v58.957c.001.342-.52.62-1.158.62z" class="cls-3" transform="translate(-435.633 -312.305)"/>
                </g>
                <g id="그룹_3183" transform="translate(393.32 21.751)">
                    <path id="패스_4528" d="M447.2 390.252a1.054 1.054 0 0 1-1.154-.91v-46.676a1.19 1.19 0 0 1 2.312 0v46.676a1.058 1.058 0 0 1-1.158.91z" class="cls-3" transform="translate(-446.047 -341.76)"/>
                </g>
                <g id="그룹_3184" transform="translate(402.256 16.259)">
                    <path id="패스_4529" d="M457.612 393.093a1.059 1.059 0 0 1-1.158-.91v-57.656a1.19 1.19 0 0 1 2.312 0v57.656a1.054 1.054 0 0 1-1.154.91z" class="cls-3" transform="translate(-456.454 -333.617)"/>
                </g>
                <g id="그룹_3185" transform="translate(411.193 26.447)">
                    <path id="패스_4530" d="M468.02 387.82a1.057 1.057 0 0 1-1.158-.906v-37.282a1.192 1.192 0 0 1 2.317 0v37.282a1.057 1.057 0 0 1-1.159.906z" class="cls-3" transform="translate(-466.862 -348.722)"/>
                </g>
                <g id="그룹_3186" transform="translate(420.135 34.174)">
                    <path id="패스_4531" d="M478.429 383.824a1.052 1.052 0 0 1-1.154-.906v-21.83a1.19 1.19 0 0 1 2.312 0v21.829a1.056 1.056 0 0 1-1.158.907z" class="cls-3" transform="translate(-477.275 -360.179)"/>
                </g>
                <g id="그룹_3187" transform="translate(429.072 36.246)">
                    <path id="패스_4532" d="M488.841 382.751a1.053 1.053 0 0 1-1.158-.906v-17.684a1.19 1.19 0 0 1 2.312 0v17.684a1.052 1.052 0 0 1-1.154.906z" class="cls-3" transform="translate(-487.683 -363.251)"/>
                </g>
                <g id="그룹_3188" transform="translate(438.009 19.644)">
                    <path id="패스_4533" d="M499.249 391.339a1.056 1.056 0 0 1-1.158-.91v-50.885a1.19 1.19 0 0 1 2.312 0v50.886a1.052 1.052 0 0 1-1.154.909z" class="cls-3" transform="translate(-498.091 -338.634)"/>
                </g>
                <g id="그룹_3189" transform="translate(446.95 26.979)">
                    <path id="패스_4534" d="M509.657 387.545a1.052 1.052 0 0 1-1.154-.906V350.42a1.19 1.19 0 0 1 2.312 0v36.219a1.056 1.056 0 0 1-1.158.906z" class="cls-3" transform="translate(-508.503 -349.51)"/>
                </g>
                <g id="그룹_3190" transform="translate(455.887 30.956)">
                    <path id="패스_4535" d="M520.065 385.491a1.055 1.055 0 0 1-1.154-.91v-28.263a1.19 1.19 0 0 1 2.312 0v28.263a1.056 1.056 0 0 1-1.158.91z" class="cls-3" transform="translate(-518.911 -355.408)"/>
                </g>
                <g id="그룹_3191" transform="translate(277.121 12.192)">
                    <path id="패스_4536" d="M311.883 371.643c-.642 0-1.157-.278-1.157-.619V304.65c0-.341.515-.617 1.157-.617s1.155.276 1.155.617v66.374c-.001.341-.517.619-1.155.619z" class="cls-3" transform="translate(-310.725 -304.033)"/>
                </g>
                <g id="그룹_3192" transform="translate(268.184 12.906)">
                    <path id="패스_4537" d="M301.471 392.049c-.638 0-1.154-.384-1.154-.858v-64.462c0-.474.516-.861 1.154-.861s1.158.387 1.158.861v64.462c0 .475-.52.858-1.158.858z" class="cls-3" transform="translate(-300.317 -325.868)"/>
                </g>
                <g id="그룹_3193" transform="translate(259.242 21.506)">
                    <path id="패스_4538" d="M291.062 390.379a1.059 1.059 0 0 1-1.158-.91V342.3a1.193 1.193 0 0 1 2.317 0v47.167a1.059 1.059 0 0 1-1.159.912z" class="cls-3" transform="translate(-289.904 -341.396)"/>
                </g>
                <g id="그룹_3194" transform="translate(250.305 28.111)">
                    <path id="패스_4539" d="M280.654 386.96a1.057 1.057 0 0 1-1.158-.91V352.1a1.19 1.19 0 0 1 2.312 0v33.951a1.052 1.052 0 0 1-1.154.909z" class="cls-3" transform="translate(-279.496 -351.189)"/>
                </g>
                <g id="그룹_3195" transform="translate(241.368 32.41)">
                    <path id="패스_4540" d="M270.242 384.739a1.055 1.055 0 0 1-1.154-.91V358.47a1.191 1.191 0 0 1 2.313 0v25.359a1.057 1.057 0 0 1-1.159.91z" class="cls-3" transform="translate(-269.088 -357.564)"/>
                </g>
                <g id="그룹_3196" transform="translate(232.427 21.751)">
                    <path id="패스_4541" d="M259.833 390.252a1.058 1.058 0 0 1-1.158-.91v-46.676a1.193 1.193 0 0 1 2.316 0v46.676a1.058 1.058 0 0 1-1.158.91z" class="cls-3" transform="translate(-258.676 -341.76)"/>
                </g>
                <g id="그룹_3197" transform="translate(223.49 28.054)">
                    <path id="패스_4542" d="M249.426 386.992a1.058 1.058 0 0 1-1.158-.91v-34.071a1.191 1.191 0 0 1 2.312 0v34.071a1.055 1.055 0 0 1-1.154.91z" class="cls-3" transform="translate(-248.268 -351.105)"/>
                </g>
                <g id="그룹_3198" transform="translate(214.553 13.851)">
                    <path id="패스_4543" d="M239.018 391.563c-.642 0-1.158-.386-1.158-.86v-62.575c0-.474.516-.857 1.158-.857s1.154.383 1.154.857V390.7c0 .477-.516.863-1.154.863z" class="cls-3" transform="translate(-237.86 -327.271)"/>
                </g>
                <g id="그룹_3199" transform="translate(205.616 23.362)">
                    <path id="패스_4544" d="M228.606 389.418a1.054 1.054 0 0 1-1.154-.91v-43.453a1.19 1.19 0 0 1 2.312 0v43.453a1.058 1.058 0 0 1-1.158.91z" class="cls-3" transform="translate(-227.452 -344.148)"/>
                </g>
                <g id="그룹_3200" transform="translate(44.724 22.453)">
                    <path id="패스_4545" d="M41.239 389.886a1.057 1.057 0 0 1-1.158-.907v-45.27a1.192 1.192 0 0 1 2.317 0v45.27a1.057 1.057 0 0 1-1.159.907z" class="cls-3" transform="translate(-40.081 -342.799)"/>
                </g>
                <g id="그룹_3201" transform="translate(35.786 32.005)">
                    <path id="패스_4546" d="M30.831 384.948a1.059 1.059 0 0 1-1.158-.91V357.87a1.191 1.191 0 0 1 2.312 0v26.168a1.054 1.054 0 0 1-1.154.91z" class="cls-3" transform="translate(-29.673 -356.964)"/>
                </g>
                <g id="그룹_3202" transform="translate(26.849 37.036)">
                    <path id="패스_4547" d="M20.42 382.343a1.053 1.053 0 0 1-1.155-.906v-16.1a1.054 1.054 0 0 1 1.155-.909 1.059 1.059 0 0 1 1.158.909v16.1a1.057 1.057 0 0 1-1.158.906z" class="cls-3" transform="translate(-19.265 -364.423)"/>
                </g>
                <g id="그룹_3203" transform="translate(17.908 42.863)">
                    <path id="패스_4548" d="M10.01 379.328a1.056 1.056 0 0 1-1.158-.906v-4.449a1.059 1.059 0 0 1 1.158-.91 1.059 1.059 0 0 1 1.159.91v4.449a1.057 1.057 0 0 1-1.159.906z" class="cls-3" transform="translate(-8.852 -373.063)"/>
                </g>
                <g id="그룹_3204" transform="translate(8.972 40.95)">
                    <path id="패스_4549" d="M-.4 380.321a1.058 1.058 0 0 1-1.158-.91v-8.278a1.056 1.056 0 0 1 1.158-.906 1.052 1.052 0 0 1 1.154.906v8.278a1.054 1.054 0 0 1-1.154.91z" class="cls-3" transform="translate(1.555 -370.227)"/>
                </g>
                <g id="그룹_3205" transform="translate(0 42.816)">
                    <path id="패스_4550" d="M-10.845 379.356a1.057 1.057 0 0 1-1.158-.91V373.9a1.057 1.057 0 0 1 1.158-.906 1.057 1.057 0 0 1 1.159.906v4.546a1.057 1.057 0 0 1-1.159.91z" class="cls-3" transform="translate(12.003 -372.994)"/>
                </g>
                <g id="그룹_3206" transform="translate(107.292 37.315)">
                    <path id="패스_4551" d="M114.1 382.2a1.056 1.056 0 0 1-1.158-.906v-15.548a1.192 1.192 0 0 1 2.317 0v15.546a1.057 1.057 0 0 1-1.159.908z" class="cls-3" transform="translate(-112.946 -364.836)"/>
                </g>
                <g id="그룹_3207" transform="translate(98.354 28.449)">
                    <path id="패스_4552" d="M103.7 386.788a1.059 1.059 0 0 1-1.158-.91V352.6a1.191 1.191 0 0 1 2.312 0v33.28a1.055 1.055 0 0 1-1.154.908z" class="cls-3" transform="translate(-102.538 -351.691)"/>
                </g>
                <g id="그룹_3208" transform="translate(89.417 36.202)">
                    <path id="패스_4553" d="M93.284 382.777a1.055 1.055 0 0 1-1.154-.91v-17.774a1.191 1.191 0 0 1 2.312 0v17.774a1.056 1.056 0 0 1-1.158.91z" class="cls-3" transform="translate(-92.13 -363.187)"/>
                </g>
                <g id="그룹_3209" transform="translate(80.48 13.851)">
                    <path id="패스_4554" d="M82.876 391.563c-.638 0-1.154-.386-1.154-.86v-62.575c0-.474.516-.857 1.154-.857s1.158.383 1.158.857V390.7c0 .477-.519.863-1.158.863z" class="cls-3" transform="translate(-81.722 -327.271)"/>
                </g>
                <g id="그룹_3210" transform="translate(71.539 19.919)">
                    <path id="패스_4555" d="M72.468 391.2a1.059 1.059 0 0 1-1.159-.91v-50.341a1.191 1.191 0 0 1 2.313 0v50.341a1.055 1.055 0 0 1-1.154.91z" class="cls-3" transform="translate(-71.309 -339.043)"/>
                </g>
                <g id="그룹_3211" transform="translate(62.602 33.599)">
                    <path id="패스_4556" d="M62.06 384.12a1.055 1.055 0 0 1-1.158-.91v-22.973a1.19 1.19 0 0 1 2.312 0v22.974a1.054 1.054 0 0 1-1.154.909z" class="cls-3" transform="translate(-60.902 -359.327)"/>
                </g>
                <g id="그룹_3212" transform="translate(53.665 37.315)">
                    <path id="패스_4557" d="M51.648 382.2a1.052 1.052 0 0 1-1.154-.906v-15.548a1.19 1.19 0 0 1 2.312 0v15.546a1.057 1.057 0 0 1-1.158.908z" class="cls-3" transform="translate(-50.494 -364.836)"/>
                </g>
                <g id="그룹_3213" transform="translate(196.674 27.194)">
                    <path id="패스_4558" d="M218.2 387.433a1.056 1.056 0 0 1-1.158-.906v-35.791a1.193 1.193 0 0 1 2.317 0v35.791a1.056 1.056 0 0 1-1.159.906z" class="cls-3" transform="translate(-217.039 -349.83)"/>
                </g>
                <g id="그룹_3214" transform="translate(187.737 15.9)">
                    <path id="패스_4559" d="M207.789 372.5c-.638 0-1.158-.278-1.158-.62v-58.957c0-.342.52-.618 1.158-.618s1.154.276 1.154.618v58.957c0 .342-.516.62-1.154.62z" class="cls-3" transform="translate(-206.631 -312.305)"/>
                </g>
                <g id="그룹_3215" transform="translate(178.801 21.751)">
                    <path id="패스_4560" d="M197.378 390.252a1.054 1.054 0 0 1-1.154-.91v-46.676a1.19 1.19 0 0 1 2.312 0v46.676a1.058 1.058 0 0 1-1.158.91z" class="cls-3" transform="translate(-196.224 -341.76)"/>
                </g>
                <g id="그룹_3216" transform="translate(169.86 16.259)">
                    <path id="패스_4561" d="M186.969 393.093a1.058 1.058 0 0 1-1.158-.91v-57.656a1.192 1.192 0 0 1 2.317 0v57.656a1.059 1.059 0 0 1-1.159.91z" class="cls-3" transform="translate(-185.811 -333.617)"/>
                </g>
                <g id="그룹_3217" transform="translate(160.922 26.447)">
                    <path id="패스_4562" d="M176.561 387.82a1.056 1.056 0 0 1-1.158-.906v-37.282a1.19 1.19 0 0 1 2.312 0v37.282a1.052 1.052 0 0 1-1.154.906z" class="cls-3" transform="translate(-175.403 -348.722)"/>
                </g>
                <g id="그룹_3218" transform="translate(151.985 34.174)">
                    <path id="패스_4563" d="M166.149 383.824a1.052 1.052 0 0 1-1.154-.906v-21.83a1.19 1.19 0 0 1 2.312 0v21.829a1.053 1.053 0 0 1-1.158.907z" class="cls-3" transform="translate(-164.995 -360.179)"/>
                </g>
                <g id="그룹_3219" transform="translate(143.048 36.246)">
                    <path id="패스_4564" d="M155.741 382.751a1.052 1.052 0 0 1-1.154-.906v-17.684a1.19 1.19 0 0 1 2.312 0v17.684a1.057 1.057 0 0 1-1.158.906z" class="cls-3" transform="translate(-154.587 -363.251)"/>
                </g>
                <g id="그룹_3220" transform="translate(134.107 19.644)">
                    <path id="패스_4565" d="M145.332 391.339a1.057 1.057 0 0 1-1.158-.91v-50.885a1.19 1.19 0 0 1 2.312 0v50.886a1.052 1.052 0 0 1-1.154.909z" class="cls-3" transform="translate(-144.174 -338.634)"/>
                </g>
                <g id="그룹_3221" transform="translate(125.17 26.979)">
                    <path id="패스_4566" d="M134.925 387.545a1.053 1.053 0 0 1-1.158-.906V350.42a1.19 1.19 0 0 1 2.312 0v36.219a1.052 1.052 0 0 1-1.154.906z" class="cls-3" transform="translate(-133.767 -349.51)"/>
                </g>
                <g id="그룹_3222" transform="translate(116.232 30.956)">
                    <path id="패스_4567" d="M124.513 385.491a1.055 1.055 0 0 1-1.155-.91v-28.263a1.19 1.19 0 0 1 2.313 0v28.263a1.059 1.059 0 0 1-1.158.91z" class="cls-3" transform="translate(-123.358 -355.408)"/>
                </g>
            </g>
            <g id="그룹_3289" style="mix-blend-mode:overlay;isolation:isolate" opacity="0.3">
                <g id="그룹_3224" transform="translate(286.057)">
                    <path id="패스_4568" d="M322.29 377.949c-.638 0-1.158-.3-1.158-.676v-90.644c0-.373.52-.674 1.158-.674s1.155.3 1.155.674v90.644c0 .373-.516.676-1.155.676z" class="cls-3" transform="translate(-321.132 -285.955)"/>
                </g>
                <g id="그룹_3225" transform="translate(294.999 12.192)">
                    <path id="패스_4569" d="M332.7 371.643c-.639 0-1.155-.278-1.155-.619V304.65c0-.341.516-.617 1.155-.617s1.157.276 1.157.617v66.374c0 .341-.519.619-1.157.619z" class="cls-3" transform="translate(-331.545 -304.033)"/>
                </g>
                <g id="그룹_3226" transform="translate(303.936 12.906)">
                    <path id="패스_4570" d="M343.107 392.049c-.638 0-1.154-.384-1.154-.858v-64.462c0-.474.516-.861 1.154-.861s1.158.387 1.158.861v64.462c0 .475-.516.858-1.158.858z" class="cls-3" transform="translate(-341.953 -325.868)"/>
                </g>
                <g id="그룹_3227" transform="translate(312.873 21.506)">
                    <path id="패스_4571" d="M353.519 390.379a1.059 1.059 0 0 1-1.158-.91V342.3a1.191 1.191 0 0 1 2.312 0v47.167a1.055 1.055 0 0 1-1.154.912z" class="cls-3" transform="translate(-352.361 -341.396)"/>
                </g>
                <g id="그룹_3228" transform="translate(321.81 28.111)">
                    <path id="패스_4572" d="M363.927 386.96a1.056 1.056 0 0 1-1.158-.91V352.1a1.193 1.193 0 0 1 2.317 0v33.951a1.057 1.057 0 0 1-1.159.909z" class="cls-3" transform="translate(-362.769 -351.189)"/>
                </g>
                <g id="그룹_3229" transform="translate(330.751 32.41)">
                    <path id="패스_4573" d="M374.335 384.739a1.055 1.055 0 0 1-1.154-.91V358.47a1.191 1.191 0 0 1 2.313 0v25.359a1.059 1.059 0 0 1-1.159.91z" class="cls-3" transform="translate(-373.181 -357.564)"/>
                </g>
                <g id="그룹_3230" transform="translate(339.688 21.751)">
                    <path id="패스_4574" d="M384.748 390.252a1.057 1.057 0 0 1-1.159-.91v-46.676a1.191 1.191 0 0 1 2.313 0v46.676a1.055 1.055 0 0 1-1.154.91z" class="cls-3" transform="translate(-383.589 -341.76)"/>
                </g>
                <g id="그룹_3231" transform="translate(348.625 28.054)">
                    <path id="패스_4575" d="M395.155 386.992a1.059 1.059 0 0 1-1.158-.91v-34.071a1.193 1.193 0 0 1 2.317 0v34.071a1.058 1.058 0 0 1-1.159.91z" class="cls-3" transform="translate(-393.997 -351.105)"/>
                </g>
                <g id="그룹_3232" transform="translate(357.567 13.851)">
                    <path id="패스_4576" d="M405.564 391.563c-.638 0-1.154-.386-1.154-.86v-62.575c0-.474.516-.857 1.154-.857s1.158.383 1.158.857V390.7c0 .477-.522.863-1.158.863z" class="cls-3" transform="translate(-404.41 -327.271)"/>
                </g>
                <g id="그룹_3233" transform="translate(366.504 23.362)">
                    <path id="패스_4577" d="M415.972 389.418a1.054 1.054 0 0 1-1.154-.91v-43.453a1.19 1.19 0 0 1 2.312 0v43.453a1.056 1.056 0 0 1-1.158.91z" class="cls-3" transform="translate(-414.818 -344.148)"/>
                </g>
                <g id="그룹_3234" transform="translate(527.392 22.453)">
                    <path id="패스_4578" d="M603.342 389.886a1.057 1.057 0 0 1-1.158-.907v-45.27a1.19 1.19 0 0 1 2.312 0v45.27a1.052 1.052 0 0 1-1.154.907z" class="cls-3" transform="translate(-602.184 -342.799)"/>
                </g>
                <g id="그룹_3235" transform="translate(536.329 32.005)">
                    <path id="패스_4579" d="M613.75 384.948a1.058 1.058 0 0 1-1.158-.91V357.87a1.193 1.193 0 0 1 2.317 0v26.168a1.058 1.058 0 0 1-1.159.91z" class="cls-3" transform="translate(-612.592 -356.964)"/>
                </g>
                <g id="그룹_3236" transform="translate(545.271 37.036)">
                    <path id="패스_4580" d="M624.159 382.343a1.052 1.052 0 0 1-1.154-.906v-16.1a1.189 1.189 0 0 1 2.312 0v16.1a1.056 1.056 0 0 1-1.158.906z" class="cls-3" transform="translate(-623.005 -364.423)"/>
                </g>
                <g id="그룹_3237" transform="translate(554.207 42.863)">
                    <path id="패스_4581" d="M634.57 379.328a1.056 1.056 0 0 1-1.158-.906v-4.449a1.19 1.19 0 0 1 2.313 0v4.449a1.052 1.052 0 0 1-1.155.906z" class="cls-3" transform="translate(-633.412 -373.063)"/>
                </g>
                <g id="그룹_3238" transform="translate(563.144 40.95)">
                    <path id="패스_4582" d="M644.978 380.321a1.059 1.059 0 0 1-1.158-.91v-8.278a1.193 1.193 0 0 1 2.317 0v8.278a1.058 1.058 0 0 1-1.159.91z" class="cls-3" transform="translate(-643.82 -370.227)"/>
                </g>
                <g id="그룹_3239" transform="translate(572.115 42.816)">
                    <path id="패스_4583" d="M655.425 379.356a1.057 1.057 0 0 1-1.158-.91V373.9a1.191 1.191 0 0 1 2.313 0v4.546a1.052 1.052 0 0 1-1.155.91z" class="cls-3" transform="translate(-654.267 -372.994)"/>
                </g>
                <g id="그룹_3240" transform="translate(464.824 37.315)">
                    <path id="패스_4584" d="M530.477 382.2a1.057 1.057 0 0 1-1.158-.906v-15.548a1.19 1.19 0 0 1 2.313 0v15.546a1.052 1.052 0 0 1-1.155.908z" class="cls-3" transform="translate(-529.319 -364.836)"/>
                </g>
                <g id="그룹_3241" transform="translate(473.761 28.449)">
                    <path id="패스_4585" d="M540.885 386.788a1.058 1.058 0 0 1-1.158-.91V352.6a1.193 1.193 0 0 1 2.317 0v33.28a1.059 1.059 0 0 1-1.159.908z" class="cls-3" transform="translate(-539.727 -351.691)"/>
                </g>
                <g id="그룹_3242" transform="translate(482.703 36.202)">
                    <path id="패스_4586" d="M551.294 382.777a1.055 1.055 0 0 1-1.154-.91v-17.774a1.191 1.191 0 0 1 2.312 0v17.774a1.059 1.059 0 0 1-1.158.91z" class="cls-3" transform="translate(-550.14 -363.187)"/>
                </g>
                <g id="그룹_3243" transform="translate(491.64 13.851)">
                    <path id="패스_4587" d="M561.706 391.563c-.643 0-1.158-.386-1.158-.86v-62.575c0-.474.515-.857 1.158-.857s1.154.383 1.154.857V390.7c0 .477-.516.863-1.154.863z" class="cls-3" transform="translate(-560.548 -327.271)"/>
                </g>
                <g id="그룹_3244" transform="translate(500.576 19.919)">
                    <path id="패스_4588" d="M572.113 391.2a1.059 1.059 0 0 1-1.158-.91v-50.341a1.191 1.191 0 0 1 2.313 0v50.341a1.054 1.054 0 0 1-1.155.91z" class="cls-3" transform="translate(-570.955 -339.043)"/>
                </g>
                <g id="그룹_3245" transform="translate(509.518 33.599)">
                    <path id="패스_4589" d="M582.522 384.12a1.054 1.054 0 0 1-1.154-.91v-22.973a1.19 1.19 0 0 1 2.312 0v22.974a1.058 1.058 0 0 1-1.158.909z" class="cls-3" transform="translate(-581.368 -359.327)"/>
                </g>
                <g id="그룹_3246" transform="translate(518.455 37.315)">
                    <path id="패스_4590" d="M592.93 382.2a1.052 1.052 0 0 1-1.154-.906v-15.548a1.19 1.19 0 0 1 2.313 0v15.546a1.053 1.053 0 0 1-1.159.908z" class="cls-3" transform="translate(-591.776 -364.836)"/>
                </g>
                <g id="그룹_3247" transform="translate(375.441 27.194)">
                    <path id="패스_4591" d="M426.384 387.433a1.056 1.056 0 0 1-1.158-.906v-35.791a1.191 1.191 0 0 1 2.312 0v35.791a1.052 1.052 0 0 1-1.154.906z" class="cls-3" transform="translate(-425.226 -349.83)"/>
                </g>
                <g id="그룹_3248" transform="translate(384.377 15.9)">
                    <path id="패스_4592" d="M436.792 372.5c-.639 0-1.159-.278-1.159-.62v-58.957c0-.342.52-.618 1.159-.618s1.158.276 1.158.618v58.957c.001.342-.52.62-1.158.62z" class="cls-3" transform="translate(-435.633 -312.305)"/>
                </g>
                <g id="그룹_3249" transform="translate(393.32 21.751)">
                    <path id="패스_4593" d="M447.2 390.252a1.054 1.054 0 0 1-1.154-.91v-46.676a1.19 1.19 0 0 1 2.312 0v46.676a1.058 1.058 0 0 1-1.158.91z" class="cls-3" transform="translate(-446.047 -341.76)"/>
                </g>
                <g id="그룹_3250" transform="translate(402.256 16.259)">
                    <path id="패스_4594" d="M457.612 393.093a1.059 1.059 0 0 1-1.158-.91v-57.656a1.19 1.19 0 0 1 2.312 0v57.656a1.054 1.054 0 0 1-1.154.91z" class="cls-3" transform="translate(-456.454 -333.617)"/>
                </g>
                <g id="그룹_3251" transform="translate(411.193 26.447)">
                    <path id="패스_4595" d="M468.02 387.82a1.057 1.057 0 0 1-1.158-.906v-37.282a1.192 1.192 0 0 1 2.317 0v37.282a1.057 1.057 0 0 1-1.159.906z" class="cls-3" transform="translate(-466.862 -348.722)"/>
                </g>
                <g id="그룹_3252" transform="translate(420.135 34.174)">
                    <path id="패스_4596" d="M478.429 383.824a1.052 1.052 0 0 1-1.154-.906v-21.83a1.19 1.19 0 0 1 2.312 0v21.829a1.056 1.056 0 0 1-1.158.907z" class="cls-3" transform="translate(-477.275 -360.179)"/>
                </g>
                <g id="그룹_3253" transform="translate(429.072 36.246)">
                    <path id="패스_4597" d="M488.841 382.751a1.053 1.053 0 0 1-1.158-.906v-17.684a1.19 1.19 0 0 1 2.312 0v17.684a1.052 1.052 0 0 1-1.154.906z" class="cls-3" transform="translate(-487.683 -363.251)"/>
                </g>
                <g id="그룹_3254" transform="translate(438.009 19.644)">
                    <path id="패스_4598" d="M499.249 391.339a1.056 1.056 0 0 1-1.158-.91v-50.885a1.19 1.19 0 0 1 2.312 0v50.886a1.052 1.052 0 0 1-1.154.909z" class="cls-3" transform="translate(-498.091 -338.634)"/>
                </g>
                <g id="그룹_3255" transform="translate(446.95 26.979)">
                    <path id="패스_4599" d="M509.657 387.545a1.052 1.052 0 0 1-1.154-.906V350.42a1.19 1.19 0 0 1 2.312 0v36.219a1.056 1.056 0 0 1-1.158.906z" class="cls-3" transform="translate(-508.503 -349.51)"/>
                </g>
                <g id="그룹_3256" transform="translate(455.887 30.956)">
                    <path id="패스_4600" d="M520.065 385.491a1.055 1.055 0 0 1-1.154-.91v-28.263a1.19 1.19 0 0 1 2.312 0v28.263a1.056 1.056 0 0 1-1.158.91z" class="cls-3" transform="translate(-518.911 -355.408)"/>
                </g>
                <g id="그룹_3257" transform="translate(277.121 12.192)">
                    <path id="패스_4601" d="M311.883 371.643c-.642 0-1.157-.278-1.157-.619V304.65c0-.341.515-.617 1.157-.617s1.155.276 1.155.617v66.374c-.001.341-.517.619-1.155.619z" class="cls-3" transform="translate(-310.725 -304.033)"/>
                </g>
                <g id="그룹_3258" transform="translate(268.184 12.906)">
                    <path id="패스_4602" d="M301.471 392.049c-.638 0-1.154-.384-1.154-.858v-64.462c0-.474.516-.861 1.154-.861s1.158.387 1.158.861v64.462c0 .475-.52.858-1.158.858z" class="cls-3" transform="translate(-300.317 -325.868)"/>
                </g>
                <g id="그룹_3259" transform="translate(259.242 21.506)">
                    <path id="패스_4603" d="M291.062 390.379a1.059 1.059 0 0 1-1.158-.91V342.3a1.193 1.193 0 0 1 2.317 0v47.167a1.059 1.059 0 0 1-1.159.912z" class="cls-3" transform="translate(-289.904 -341.396)"/>
                </g>
                <g id="그룹_3260" transform="translate(250.305 28.111)">
                    <path id="패스_4604" d="M280.654 386.96a1.057 1.057 0 0 1-1.158-.91V352.1a1.19 1.19 0 0 1 2.312 0v33.951a1.052 1.052 0 0 1-1.154.909z" class="cls-3" transform="translate(-279.496 -351.189)"/>
                </g>
                <g id="그룹_3261" transform="translate(241.368 32.41)">
                    <path id="패스_4605" d="M270.242 384.739a1.055 1.055 0 0 1-1.154-.91V358.47a1.191 1.191 0 0 1 2.313 0v25.359a1.057 1.057 0 0 1-1.159.91z" class="cls-3" transform="translate(-269.088 -357.564)"/>
                </g>
                <g id="그룹_3262" transform="translate(232.427 21.751)">
                    <path id="패스_4606" d="M259.833 390.252a1.058 1.058 0 0 1-1.158-.91v-46.676a1.193 1.193 0 0 1 2.316 0v46.676a1.058 1.058 0 0 1-1.158.91z" class="cls-3" transform="translate(-258.676 -341.76)"/>
                </g>
                <g id="그룹_3263" transform="translate(223.49 28.054)">
                    <path id="패스_4607" d="M249.426 386.992a1.058 1.058 0 0 1-1.158-.91v-34.071a1.191 1.191 0 0 1 2.312 0v34.071a1.055 1.055 0 0 1-1.154.91z" class="cls-3" transform="translate(-248.268 -351.105)"/>
                </g>
                <g id="그룹_3264" transform="translate(214.553 13.851)">
                    <path id="패스_4608" d="M239.018 391.563c-.642 0-1.158-.386-1.158-.86v-62.575c0-.474.516-.857 1.158-.857s1.154.383 1.154.857V390.7c0 .477-.516.863-1.154.863z" class="cls-3" transform="translate(-237.86 -327.271)"/>
                </g>
                <g id="그룹_3265" transform="translate(205.616 23.362)">
                    <path id="패스_4609" d="M228.606 389.418a1.054 1.054 0 0 1-1.154-.91v-43.453a1.19 1.19 0 0 1 2.312 0v43.453a1.058 1.058 0 0 1-1.158.91z" class="cls-3" transform="translate(-227.452 -344.148)"/>
                </g>
                <g id="그룹_3266" transform="translate(44.724 22.453)">
                    <path id="패스_4610" d="M41.239 389.886a1.057 1.057 0 0 1-1.158-.907v-45.27a1.192 1.192 0 0 1 2.317 0v45.27a1.057 1.057 0 0 1-1.159.907z" class="cls-3" transform="translate(-40.081 -342.799)"/>
                </g>
                <g id="그룹_3267" transform="translate(35.786 32.005)">
                    <path id="패스_4611" d="M30.831 384.948a1.059 1.059 0 0 1-1.158-.91V357.87a1.191 1.191 0 0 1 2.312 0v26.168a1.054 1.054 0 0 1-1.154.91z" class="cls-3" transform="translate(-29.673 -356.964)"/>
                </g>
                <g id="그룹_3268" transform="translate(26.849 37.036)">
                    <path id="패스_4612" d="M20.42 382.343a1.053 1.053 0 0 1-1.155-.906v-16.1a1.054 1.054 0 0 1 1.155-.909 1.059 1.059 0 0 1 1.158.909v16.1a1.057 1.057 0 0 1-1.158.906z" class="cls-3" transform="translate(-19.265 -364.423)"/>
                </g>
                <g id="그룹_3269" transform="translate(17.908 42.863)">
                    <path id="패스_4613" d="M10.01 379.328a1.056 1.056 0 0 1-1.158-.906v-4.449a1.059 1.059 0 0 1 1.158-.91 1.059 1.059 0 0 1 1.159.91v4.449a1.057 1.057 0 0 1-1.159.906z" class="cls-3" transform="translate(-8.852 -373.063)"/>
                </g>
                <g id="그룹_3270" transform="translate(8.972 40.95)">
                    <path id="패스_4614" d="M-.4 380.321a1.058 1.058 0 0 1-1.158-.91v-8.278a1.056 1.056 0 0 1 1.158-.906 1.052 1.052 0 0 1 1.154.906v8.278a1.054 1.054 0 0 1-1.154.91z" class="cls-3" transform="translate(1.555 -370.227)"/>
                </g>
                <g id="그룹_3271" transform="translate(0 42.816)">
                    <path id="패스_4615" d="M-10.845 379.356a1.057 1.057 0 0 1-1.158-.91V373.9a1.057 1.057 0 0 1 1.158-.906 1.057 1.057 0 0 1 1.159.906v4.546a1.057 1.057 0 0 1-1.159.91z" class="cls-3" transform="translate(12.003 -372.994)"/>
                </g>
                <g id="그룹_3272" transform="translate(107.292 37.315)">
                    <path id="패스_4616" d="M114.1 382.2a1.056 1.056 0 0 1-1.158-.906v-15.548a1.192 1.192 0 0 1 2.317 0v15.546a1.057 1.057 0 0 1-1.159.908z" class="cls-3" transform="translate(-112.946 -364.836)"/>
                </g>
                <g id="그룹_3273" transform="translate(98.354 28.449)">
                    <path id="패스_4617" d="M103.7 386.788a1.059 1.059 0 0 1-1.158-.91V352.6a1.191 1.191 0 0 1 2.312 0v33.28a1.055 1.055 0 0 1-1.154.908z" class="cls-3" transform="translate(-102.538 -351.691)"/>
                </g>
                <g id="그룹_3274" transform="translate(89.417 36.202)">
                    <path id="패스_4618" d="M93.284 382.777a1.055 1.055 0 0 1-1.154-.91v-17.774a1.191 1.191 0 0 1 2.312 0v17.774a1.056 1.056 0 0 1-1.158.91z" class="cls-3" transform="translate(-92.13 -363.187)"/>
                </g>
                <g id="그룹_3275" transform="translate(80.48 13.851)">
                    <path id="패스_4619" d="M82.876 391.563c-.638 0-1.154-.386-1.154-.86v-62.575c0-.474.516-.857 1.154-.857s1.158.383 1.158.857V390.7c0 .477-.519.863-1.158.863z" class="cls-3" transform="translate(-81.722 -327.271)"/>
                </g>
                <g id="그룹_3276" transform="translate(71.539 19.919)">
                    <path id="패스_4620" d="M72.468 391.2a1.059 1.059 0 0 1-1.159-.91v-50.341a1.191 1.191 0 0 1 2.313 0v50.341a1.055 1.055 0 0 1-1.154.91z" class="cls-3" transform="translate(-71.309 -339.043)"/>
                </g>
                <g id="그룹_3277" transform="translate(62.602 33.599)">
                    <path id="패스_4621" d="M62.06 384.12a1.055 1.055 0 0 1-1.158-.91v-22.973a1.19 1.19 0 0 1 2.312 0v22.974a1.054 1.054 0 0 1-1.154.909z" class="cls-3" transform="translate(-60.902 -359.327)"/>
                </g>
                <g id="그룹_3278" transform="translate(53.665 37.315)">
                    <path id="패스_4622" d="M51.648 382.2a1.052 1.052 0 0 1-1.154-.906v-15.548a1.19 1.19 0 0 1 2.312 0v15.546a1.057 1.057 0 0 1-1.158.908z" class="cls-3" transform="translate(-50.494 -364.836)"/>
                </g>
                <g id="그룹_3279" transform="translate(196.674 27.194)">
                    <path id="패스_4623" d="M218.2 387.433a1.056 1.056 0 0 1-1.158-.906v-35.791a1.193 1.193 0 0 1 2.317 0v35.791a1.056 1.056 0 0 1-1.159.906z" class="cls-3" transform="translate(-217.039 -349.83)"/>
                </g>
                <g id="그룹_3280" transform="translate(187.737 15.9)">
                    <path id="패스_4624" d="M207.789 372.5c-.638 0-1.158-.278-1.158-.62v-58.957c0-.342.52-.618 1.158-.618s1.154.276 1.154.618v58.957c0 .342-.516.62-1.154.62z" class="cls-3" transform="translate(-206.631 -312.305)"/>
                </g>
                <g id="그룹_3281" transform="translate(178.801 21.751)">
                    <path id="패스_4625" d="M197.378 390.252a1.054 1.054 0 0 1-1.154-.91v-46.676a1.19 1.19 0 0 1 2.312 0v46.676a1.058 1.058 0 0 1-1.158.91z" class="cls-3" transform="translate(-196.224 -341.76)"/>
                </g>
                <g id="그룹_3282" transform="translate(169.86 16.259)">
                    <path id="패스_4626" d="M186.969 393.093a1.058 1.058 0 0 1-1.158-.91v-57.656a1.192 1.192 0 0 1 2.317 0v57.656a1.059 1.059 0 0 1-1.159.91z" class="cls-3" transform="translate(-185.811 -333.617)"/>
                </g>
                <g id="그룹_3283" transform="translate(160.922 26.447)">
                    <path id="패스_4627" d="M176.561 387.82a1.056 1.056 0 0 1-1.158-.906v-37.282a1.19 1.19 0 0 1 2.312 0v37.282a1.052 1.052 0 0 1-1.154.906z" class="cls-3" transform="translate(-175.403 -348.722)"/>
                </g>
                <g id="그룹_3284" transform="translate(151.985 34.174)">
                    <path id="패스_4628" d="M166.149 383.824a1.052 1.052 0 0 1-1.154-.906v-21.83a1.19 1.19 0 0 1 2.312 0v21.829a1.053 1.053 0 0 1-1.158.907z" class="cls-3" transform="translate(-164.995 -360.179)"/>
                </g>
                <g id="그룹_3285" transform="translate(143.048 36.246)">
                    <path id="패스_4629" d="M155.741 382.751a1.052 1.052 0 0 1-1.154-.906v-17.684a1.19 1.19 0 0 1 2.312 0v17.684a1.057 1.057 0 0 1-1.158.906z" class="cls-3" transform="translate(-154.587 -363.251)"/>
                </g>
                <g id="그룹_3286" transform="translate(134.107 19.644)">
                    <path id="패스_4630" d="M145.332 391.339a1.057 1.057 0 0 1-1.158-.91v-50.885a1.19 1.19 0 0 1 2.312 0v50.886a1.052 1.052 0 0 1-1.154.909z" class="cls-3" transform="translate(-144.174 -338.634)"/>
                </g>
                <g id="그룹_3287" transform="translate(125.17 26.979)">
                    <path id="패스_4631" d="M134.925 387.545a1.053 1.053 0 0 1-1.158-.906V350.42a1.19 1.19 0 0 1 2.312 0v36.219a1.052 1.052 0 0 1-1.154.906z" class="cls-3" transform="translate(-133.767 -349.51)"/>
                </g>
                <g id="그룹_3288" transform="translate(116.232 30.956)">
                    <path id="패스_4632" d="M124.513 385.491a1.055 1.055 0 0 1-1.155-.91v-28.263a1.19 1.19 0 0 1 2.313 0v28.263a1.059 1.059 0 0 1-1.158.91z" class="cls-3" transform="translate(-123.358 -355.408)"/>
                </g>
            </g>
        </g>
        <g id="그룹_3305" transform="translate(9987 1164)">
            <circle id="타원_359" cx="25" cy="25" r="25" fill="#1b64c9" transform="translate(-9563 -185)"/>
            <path id="다각형_26" fill="#fff" d="M11.372 4.77a3 3 0 0 1 5.255 0l8.922 16.2a3 3 0 0 1-2.628 4.448H5.078a3 3 0 0 1-2.628-4.452z" transform="rotate(90 -4674.359 -4848.359)"/>
        </g>
        <g id="사각형_2658" class="cls-2" transform="translate(404 1085)">
            <rect width="748" height="202" class="cls-9" rx="10"/>
            <rect width="747" height="201" x=".5" y=".5" class="cls-10" rx="9.5"/>
        </g>
        <text id="컨퍼런스_녹음파일_데이터팀._mp3" fill="#03020f" font-family="NotoSansCJKkr-Black, Noto Sans CJK KR" font-size="18px" font-weight="800" letter-spacing="-0.01em" transform="translate(534 922)">
            <tspan x="-130.437" y="0">컨퍼런스 녹음파일_데이터팀. </tspan><tspan y="0">mp3</tspan>
        </text>
        <text id="마음_데이터는_인공지능을_위한_학습_데이터_수집_가공_분석_전문_플랫폼으로_고품질의_데이터셋을_정확하고_빠르게_구축합니다._AI_엔진을_활용한_다양한_분야의_프로젝트_경험을_바탕으로_고객의_인공지능이_최고의_성능을_만들어낼_수_있도록_합니다._인공지능을_위한_학습_데이터_수집_가공_분석_전문_플랫폼으로_고품질의_데이터셋을_정확하고_빠르게_구축합니다." fill="#03020f" font-family="NotoSansCJKkr-Medium, Noto Sans CJK KR" font-size="18px" font-weight="500" letter-spacing="-0.01em" transform="translate(424 1105)">
            <tspan x="0" y="21">마음 데이터는 인공지능을 위한 학습 데이터 수집, 가공, 분석 전문 플랫폼으로, 고품질의 </tspan><tspan x="0" y="51">데이터셋을 정확하고 빠르게 구축합니다. </tspan><tspan y="51">AI </tspan><tspan y="51">엔진을 활용한 다양한 분야의 프로젝트 경험을 </tspan><tspan x="0" y="81">바탕으로 고객의 인공지능이 최고의 성능을 만들어낼 수 있도록 합니다.</tspan><tspan x="0" y="111">인공지능을 위한 학습 데이터 수집, 가공, 분석 전문 플랫폼으로, 고품질의 데이터셋을 정확하고 </tspan><tspan x="0" y="141">빠르게 구축합니다.</tspan>
        </text>
    </g>
</svg>
