<svg xmlns="http://www.w3.org/2000/svg" width="848" height="496" viewBox="0 0 848 496">
    <defs>
        <linearGradient id="linear-gradient" x1=".008" x2="1.024" y1=".014" y2="1" gradientUnits="objectBoundingBox">
            <stop offset="0" stop-color="#2958d7"/>
            <stop offset="1" stop-color="#6ad0e8"/>
        </linearGradient>
        <linearGradient id="linear-gradient-2" x1=".5" x2=".5" y2="1" gradientUnits="objectBoundingBox">
            <stop offset="0" stop-color="#511bc9"/>
            <stop offset="1" stop-color="#1c62c4"/>
        </linearGradient>
        <filter id="사각형_2696" width="640" height="137" x="104" y="297" filterUnits="userSpaceOnUse">
            <feOffset dy="5"/>
            <feGaussianBlur result="blur" stdDeviation="5"/>
            <feFlood flood-color="#9dabbe" flood-opacity=".302"/>
            <feComposite in2="blur" operator="in"/>
            <feComposite in="SourceGraphic"/>
        </filter>
        <style>
            .cls-2{fill:#fff}.cls-7{stroke:none}.cls-8{fill:none}
        </style>
    </defs>
    <g id="img_graphemetophoneme" transform="translate(-359 -1503)">
        <g id="img_boundingbox" fill="url(#linear-gradient)" stroke="#c1d5e8" transform="translate(359 1503)">
            <rect width="848" height="496" class="cls-7" rx="10"/>
            <rect width="847" height="495" x=".5" y=".5" class="cls-8" rx="9.5"/>
        </g>
        <rect id="사각형_2693" width="730" height="362" class="cls-2" rx="10" transform="translate(418 1594)"/>
        <g filter="url(#사각형_2696)" transform="translate(359 1503)">
            <g id="사각형_2696-2" fill="#fff" stroke="#c1d5e8" transform="translate(119 307)">
                <rect width="610" height="107" class="cls-7" rx="10"/>
                <rect width="609" height="106" x=".5" y=".5" class="cls-8" rx="9.5"/>
            </g>
        </g>
        <text id="_떠뽀끼_김치보끔밥_제육뽀끔_주무날게요_." fill="#03020f" font-family="NotoSansCJKkr-Medium, Noto Sans CJK KR" font-size="30px" font-weight="500" letter-spacing="-0.03em" transform="translate(519 1876)">
            <tspan x="0" y="0">“떠뽀끼, 김치보끔밥, 제육뽀끔, 주무날게요”.</tspan>
        </text>
        <text id="_떡볶이_김치볶음밥_제육볶음_주문할게요_." fill="#03020f" font-family="NotoSansCJKkr-Medium, Noto Sans CJK KR" font-size="24px" font-weight="500" letter-spacing="-0.03em" transform="translate(808 1713)">
            <tspan x="-147.828" y="0">“떡볶이, 김치볶음밥, 제육볶음 </tspan><tspan x="-60.96" y="30">주문할게요”.</tspan>
        </text>
        <g id="그룹_3402" transform="translate(0 -2)">
            <circle id="타원_359" cx="42.5" cy="42.5" r="42.5" fill="url(#linear-gradient-2)" transform="translate(540 1675)"/>
            <path id="다각형_26" d="M21.048 4.77a3 3 0 0 1 5.255 0L44.9 38.529a3 3 0 0 1-2.628 4.448H5.078a3 3 0 0 1-2.628-4.448z" class="cls-2" transform="rotate(90 -542.24 1151.362)"/>
        </g>
    </g>
</svg>
