<svg xmlns="http://www.w3.org/2000/svg" width="848" height="496" viewBox="0 0 848 496">
    <defs>
        <linearGradient id="linear-gradient" x1=".008" x2="1.024" y1=".014" y2="1" gradientUnits="objectBoundingBox">
            <stop offset="0" stop-color="#2958d7"/>
            <stop offset="1" stop-color="#6ad0e8"/>
        </linearGradient>
        <filter id="사각형_2744" width="377" height="324" x="70" y="115" filterUnits="userSpaceOnUse">
            <feOffset dy="5"/>
            <feGaussianBlur result="blur" stdDeviation="5"/>
            <feFlood flood-color="#9dabbe" flood-opacity=".302"/>
            <feComposite in2="blur" operator="in"/>
            <feComposite in="SourceGraphic"/>
        </filter>
        <style>
            .cls-2{fill:#fff}.cls-4,.cls-6{fill:#03020f;font-size:22px;font-family:NotoSansCJKkr-Bold,Noto Sans CJK KR;font-weight:700;letter-spacing:-.01em}.cls-6{font-size:18px;font-family:NotoSansCJKkr-Medium,Noto Sans CJK KR;font-weight:500}.cls-9{fill:#8f04e6;opacity:.719}.cls-12{stroke:none}.cls-13{fill:none}
        </style>
    </defs>
    <g id="img_qa_cluegeneration" transform="translate(-364 -168)">
        <g id="img_boundingbox" fill="url(#linear-gradient)" stroke="#c1d5e8" transform="translate(364 168)">
            <rect width="848" height="496" class="cls-12" rx="10"/>
            <rect width="847" height="495" x=".5" y=".5" class="cls-13" rx="9.5"/>
        </g>
        <rect id="사각형_2681" width="730" height="362" class="cls-2" rx="10" transform="translate(423 259)"/>
        <g filter="url(#사각형_2744)" transform="translate(364 168)">
            <g id="사각형_2744-2" fill="#fff" stroke="#c1d5e8" transform="translate(85 125)">
                <rect width="347" height="294" class="cls-12" rx="10"/>
                <rect width="346" height="293" x=".5" y=".5" class="cls-13" rx="9.5"/>
            </g>
        </g>
        <text id="Q._빨간_장미의_꽃말은_무엇인가요_" class="cls-4" transform="translate(966 324)">
            <tspan x="-157.157" y="0">Q. </tspan><tspan y="0">빨간 장미의 꽃말은 무엇인가요?</tspan>
        </text>
        <text id="빨간_장미의_꽃말은_불타는_사랑" class="cls-4" transform="translate(608 336)">
            <tspan x="-139.788" y="0">빨간 장미의 꽃말은 불타는 사랑</tspan>
        </text>
        <text id="Answer" fill="#9b3ded" font-family="NotoSansCJKkr-Bold, Noto Sans CJK KR" font-size="20px" font-weight="700" letter-spacing="-0.01em" transform="translate(839 366)">
            <tspan x="0" y="0">Answer</tspan>
        </text>
        <text id="불타는_사랑_정렬적인_사랑_아름다움" class="cls-6" transform="translate(839 376)">
            <tspan x="0" y="21">불타는 사랑, 정렬적인 사랑,아름다움</tspan>
        </text>
        <text id="Clue_generation" fill="#2e5ed0" font-family="NotoSansCJKkr-Bold, Noto Sans CJK KR" font-size="20px" font-weight="700" letter-spacing="-0.01em" transform="translate(915 450)">
            <tspan x="-76.26" y="0">Clue generation</tspan>
        </text>
        <text id="빨간_장미의_꽃말은_불타는_사랑_정열적인_사랑_아름다움을_뜻합니다." class="cls-6" transform="translate(839 460)">
            <tspan x="0" y="21">빨간 장미의 꽃말은 불타는 사랑, </tspan><tspan x="0" y="48">정열적인 사랑, 아름다움을 뜻합니다.</tspan>
        </text>
        <path id="사각형_2745" fill="#6997ff" d="M0 0H290V54H0z" opacity="0.435" transform="translate(468 358)"/>
        <path id="사각형_2736" d="M0 0H104V27H0z" class="cls-9" transform="translate(622 358)"/>
        <path id="사각형_2737" d="M0 0H191V27H0z" class="cls-9" transform="translate(468 385)"/>
        <text id="빨간_장미의_꽃말은_불타는_사랑_정열적인_사랑_아름다움을_뜻합니다._또한_단순히_열정을_드러내기도_하며_존경_아름다움_애정_사랑_등을_의미한_다고_합니다._그런데_장미는_개별_송이에_따라_꽃말이_다르다고_합니다._" fill="#03020f" font-family="NotoSansCJKkr-Medium, Noto Sans CJK KR" font-size="20px" font-weight="500" letter-spacing="-0.035em" transform="translate(469 355)">
            <tspan x="0" y="23">빨간 장미의 꽃말은 </tspan><tspan y="23" class="cls-2">불타는 사랑, </tspan><tspan class="cls-2"><tspan x="0" y="53">정열적인 사랑, 아름다움</tspan><tspan y="53">을 뜻합니다.</tspan></tspan><tspan x="0" y="83">또한, 단순히 열정을 드러내기도 하며 </tspan><tspan x="0" y="113">존경, 아름다움, 애정, 사랑 등을 의미한</tspan><tspan x="0" y="143">다고 합니다.</tspan><tspan x="0" y="173">그런데 장미는 개별 송이에 따라 꽃말이 </tspan><tspan x="0" y="203">다르다고 합니다.</tspan>
        </text>
    </g>
</svg>
