<svg xmlns="http://www.w3.org/2000/svg" width="848" height="496" viewBox="0 0 848 496">
    <defs>
        <style>
            .cls-2{fill:#03020f}.cls-3{fill:#f4fdff;stroke:#1054b2}.cls-4{fill:#2248f4}.cls-8{stroke:none}.cls-9{fill:none}
        </style>
    </defs>
    <g id="img_audio_classification" transform="translate(-348 -2183)">
        <g id="img_audio_classification-2">
            <g id="img_boundingbox" fill="#fff" stroke="#c1d5e8" transform="translate(348 2183)">
                <rect width="848" height="496" class="cls-8" rx="10"/>
                <rect width="847" height="495" x=".5" y=".5" class="cls-9" rx="9.5"/>
            </g>
            <path id="패스_4735" d="M-44.892-14.886c-3.744 0-6.21 1.26-6.21 3.33 0 2.088 2.466 3.348 6.21 3.348s6.21-1.26 6.21-3.348c0-2.07-2.466-3.33-6.21-3.33zm0 2.2c2.088 0 3.2.342 3.2 1.134 0 .81-1.116 1.152-3.2 1.152s-3.2-.342-3.2-1.152c-.008-.796 1.112-1.138 3.2-1.138zM-50.814-4.3v5.83h11.754V-4.3zm8.892 2.25v1.33h-6.03v-1.332zm-10.62-5.454v2.268h15.282v-2.27zM-24.8-5.346h2.916v-9.828H-24.8v2.808h-2.754v2.322h2.754zm-1.066-2.664a4.8 4.8 0 0 1-3.582-5.076v-1.26h-2.97v1.4a5.251 5.251 0 0 1-3.96 5.382l1.512 2.322a6.329 6.329 0 0 0 3.978-3.438 5.861 5.861 0 0 0 3.546 2.934zm-1.818 7.524c-2.016 0-2.97-.324-2.97-1.134 0-.792.954-1.116 2.97-1.116 2 0 2.952.324 2.952 1.116 0 .81-.954 1.134-2.952 1.134zm0-4.464c-3.618 0-5.886 1.224-5.886 3.33 0 2.124 2.268 3.348 5.886 3.348 3.6 0 5.868-1.224 5.868-3.348 0-2.106-2.268-3.33-5.868-3.33zm17.244-9.162a4.41 4.41 0 0 0-4.716 4.248A4.413 4.413 0 0 0-10.44-5.6c2.664 0 4.734-1.8 4.734-4.266 0-2.446-2.07-4.246-4.734-4.246zm0 2.466a1.711 1.711 0 0 1 1.89 1.782 1.715 1.715 0 0 1-1.89 1.8 1.709 1.709 0 0 1-1.872-1.8 1.705 1.705 0 0 1 1.872-1.782zm5.976-3.564V1.746h2.916V-15.21zm-10.98 13.68a54.01 54.01 0 0 0 10.35-.77l-.2-2.07a80.381 80.381 0 0 1-10.476.522zm25.092-.9v-3.114h4.644V-7.83H5.166v-4h9.018v-2.286H2.25v8.568h4.482v3.118H.558v2.34h15.3v-2.34zm21.708-7.416h-5.724V-11h5.724zm2.88-4.806h-2.88v1.494h-5.724v-1.494h-2.88v7.038h11.484zm-8.784 11.43h-2.916v4.68h11.952V-.828h-9.036zM20.862-6.7v2.268h6.444v2.362h2.916v-2.358h5.94V-6.7zm27-4.914h-8.874V-6.3h12.276v-2.268h-9.306v-.918h8.874v-5.256H38.97v2.268h8.892zm4.68 6.246H37.26V-3.1h3.276v4.828h2.916V-3.1h2.934v4.828H49.3V-3.1h3.24z" class="cls-2" transform="translate(454 2288)"/>
            <g id="사각형_2672" class="cls-3" transform="translate(398 2308)">
                <rect width="748" height="123" class="cls-8" rx="10"/>
                <rect width="747" height="122" x=".5" y=".5" class="cls-9" rx="9.5"/>
            </g>
            <g id="그룹_3336" transform="translate(520.456 2038.045) translate(-12.003 285.955)">
                <g id="그룹_3223">
                    <g id="그룹_3158" transform="translate(286.057)">
                        <path id="패스_4503" d="M322.29 377.949c-.638 0-1.158-.3-1.158-.676v-90.644c0-.373.52-.674 1.158-.674s1.155.3 1.155.674v90.644c0 .373-.516.676-1.155.676z" class="cls-4" transform="translate(-321.132 -285.955)"/>
                    </g>
                    <g id="그룹_3159" transform="translate(294.999 12.192)">
                        <path id="패스_4504" d="M332.7 371.643c-.639 0-1.155-.278-1.155-.619V304.65c0-.341.516-.617 1.155-.617s1.157.276 1.157.617v66.374c0 .341-.519.619-1.157.619z" class="cls-4" transform="translate(-331.545 -304.033)"/>
                    </g>
                    <g id="그룹_3160" transform="translate(303.936 12.906)">
                        <path id="패스_4505" d="M343.107 392.049c-.638 0-1.154-.384-1.154-.858v-64.462c0-.474.516-.861 1.154-.861s1.158.387 1.158.861v64.462c0 .475-.516.858-1.158.858z" class="cls-4" transform="translate(-341.953 -325.868)"/>
                    </g>
                    <g id="그룹_3161" transform="translate(312.873 21.506)">
                        <path id="패스_4506" d="M353.519 390.379a1.059 1.059 0 0 1-1.158-.91V342.3a1.191 1.191 0 0 1 2.312 0v47.167a1.055 1.055 0 0 1-1.154.912z" class="cls-4" transform="translate(-352.361 -341.396)"/>
                    </g>
                    <g id="그룹_3162" transform="translate(321.81 28.111)">
                        <path id="패스_4507" d="M363.927 386.96a1.056 1.056 0 0 1-1.158-.91V352.1a1.193 1.193 0 0 1 2.317 0v33.951a1.057 1.057 0 0 1-1.159.909z" class="cls-4" transform="translate(-362.769 -351.189)"/>
                    </g>
                    <g id="그룹_3163" transform="translate(330.751 32.41)">
                        <path id="패스_4508" d="M374.335 384.739a1.055 1.055 0 0 1-1.154-.91V358.47a1.191 1.191 0 0 1 2.313 0v25.359a1.059 1.059 0 0 1-1.159.91z" class="cls-4" transform="translate(-373.181 -357.564)"/>
                    </g>
                    <g id="그룹_3164" transform="translate(339.688 21.751)">
                        <path id="패스_4509" d="M384.748 390.252a1.057 1.057 0 0 1-1.159-.91v-46.676a1.191 1.191 0 0 1 2.313 0v46.676a1.055 1.055 0 0 1-1.154.91z" class="cls-4" transform="translate(-383.589 -341.76)"/>
                    </g>
                    <g id="그룹_3165" transform="translate(348.625 28.054)">
                        <path id="패스_4510" d="M395.155 386.992a1.059 1.059 0 0 1-1.158-.91v-34.071a1.193 1.193 0 0 1 2.317 0v34.071a1.058 1.058 0 0 1-1.159.91z" class="cls-4" transform="translate(-393.997 -351.105)"/>
                    </g>
                    <g id="그룹_3166" transform="translate(357.567 13.851)">
                        <path id="패스_4511" d="M405.564 391.563c-.638 0-1.154-.386-1.154-.86v-62.575c0-.474.516-.857 1.154-.857s1.158.383 1.158.857V390.7c0 .477-.522.863-1.158.863z" class="cls-4" transform="translate(-404.41 -327.271)"/>
                    </g>
                    <g id="그룹_3167" transform="translate(366.504 23.362)">
                        <path id="패스_4512" d="M415.972 389.418a1.054 1.054 0 0 1-1.154-.91v-43.453a1.19 1.19 0 0 1 2.312 0v43.453a1.056 1.056 0 0 1-1.158.91z" class="cls-4" transform="translate(-414.818 -344.148)"/>
                    </g>
                    <g id="그룹_3168" transform="translate(527.392 22.453)">
                        <path id="패스_4513" d="M603.342 389.886a1.057 1.057 0 0 1-1.158-.907v-45.27a1.19 1.19 0 0 1 2.312 0v45.27a1.052 1.052 0 0 1-1.154.907z" class="cls-4" transform="translate(-602.184 -342.799)"/>
                    </g>
                    <g id="그룹_3169" transform="translate(536.329 32.005)">
                        <path id="패스_4514" d="M613.75 384.948a1.058 1.058 0 0 1-1.158-.91V357.87a1.193 1.193 0 0 1 2.317 0v26.168a1.058 1.058 0 0 1-1.159.91z" class="cls-4" transform="translate(-612.592 -356.964)"/>
                    </g>
                    <g id="그룹_3170" transform="translate(545.271 37.036)">
                        <path id="패스_4515" d="M624.159 382.343a1.052 1.052 0 0 1-1.154-.906v-16.1a1.189 1.189 0 0 1 2.312 0v16.1a1.056 1.056 0 0 1-1.158.906z" class="cls-4" transform="translate(-623.005 -364.423)"/>
                    </g>
                    <g id="그룹_3171" transform="translate(554.207 42.863)">
                        <path id="패스_4516" d="M634.57 379.328a1.056 1.056 0 0 1-1.158-.906v-4.449a1.19 1.19 0 0 1 2.313 0v4.449a1.052 1.052 0 0 1-1.155.906z" class="cls-4" transform="translate(-633.412 -373.063)"/>
                    </g>
                    <g id="그룹_3172" transform="translate(563.144 40.95)">
                        <path id="패스_4517" d="M644.978 380.321a1.059 1.059 0 0 1-1.158-.91v-8.278a1.193 1.193 0 0 1 2.317 0v8.278a1.058 1.058 0 0 1-1.159.91z" class="cls-4" transform="translate(-643.82 -370.227)"/>
                    </g>
                    <g id="그룹_3173" transform="translate(572.115 42.816)">
                        <path id="패스_4518" d="M655.425 379.356a1.057 1.057 0 0 1-1.158-.91V373.9a1.191 1.191 0 0 1 2.313 0v4.546a1.052 1.052 0 0 1-1.155.91z" class="cls-4" transform="translate(-654.267 -372.994)"/>
                    </g>
                    <g id="그룹_3174" transform="translate(464.824 37.315)">
                        <path id="패스_4519" d="M530.477 382.2a1.057 1.057 0 0 1-1.158-.906v-15.548a1.19 1.19 0 0 1 2.313 0v15.546a1.052 1.052 0 0 1-1.155.908z" class="cls-4" transform="translate(-529.319 -364.836)"/>
                    </g>
                    <g id="그룹_3175" transform="translate(473.761 28.449)">
                        <path id="패스_4520" d="M540.885 386.788a1.058 1.058 0 0 1-1.158-.91V352.6a1.193 1.193 0 0 1 2.317 0v33.28a1.059 1.059 0 0 1-1.159.908z" class="cls-4" transform="translate(-539.727 -351.691)"/>
                    </g>
                    <g id="그룹_3176" transform="translate(482.703 36.202)">
                        <path id="패스_4521" d="M551.294 382.777a1.055 1.055 0 0 1-1.154-.91v-17.774a1.191 1.191 0 0 1 2.312 0v17.774a1.059 1.059 0 0 1-1.158.91z" class="cls-4" transform="translate(-550.14 -363.187)"/>
                    </g>
                    <g id="그룹_3177" transform="translate(491.64 13.851)">
                        <path id="패스_4522" d="M561.706 391.563c-.643 0-1.158-.386-1.158-.86v-62.575c0-.474.515-.857 1.158-.857s1.154.383 1.154.857V390.7c0 .477-.516.863-1.154.863z" class="cls-4" transform="translate(-560.548 -327.271)"/>
                    </g>
                    <g id="그룹_3178" transform="translate(500.576 19.919)">
                        <path id="패스_4523" d="M572.113 391.2a1.059 1.059 0 0 1-1.158-.91v-50.341a1.191 1.191 0 0 1 2.313 0v50.341a1.054 1.054 0 0 1-1.155.91z" class="cls-4" transform="translate(-570.955 -339.043)"/>
                    </g>
                    <g id="그룹_3179" transform="translate(509.518 33.599)">
                        <path id="패스_4524" d="M582.522 384.12a1.054 1.054 0 0 1-1.154-.91v-22.973a1.19 1.19 0 0 1 2.312 0v22.974a1.058 1.058 0 0 1-1.158.909z" class="cls-4" transform="translate(-581.368 -359.327)"/>
                    </g>
                    <g id="그룹_3180" transform="translate(518.455 37.315)">
                        <path id="패스_4525" d="M592.93 382.2a1.052 1.052 0 0 1-1.154-.906v-15.548a1.19 1.19 0 0 1 2.313 0v15.546a1.053 1.053 0 0 1-1.159.908z" class="cls-4" transform="translate(-591.776 -364.836)"/>
                    </g>
                    <g id="그룹_3181" transform="translate(375.441 27.194)">
                        <path id="패스_4526" d="M426.384 387.433a1.056 1.056 0 0 1-1.158-.906v-35.791a1.191 1.191 0 0 1 2.312 0v35.791a1.052 1.052 0 0 1-1.154.906z" class="cls-4" transform="translate(-425.226 -349.83)"/>
                    </g>
                    <g id="그룹_3182" transform="translate(384.377 15.9)">
                        <path id="패스_4527" d="M436.792 372.5c-.639 0-1.159-.278-1.159-.62v-58.957c0-.342.52-.618 1.159-.618s1.158.276 1.158.618v58.957c.001.342-.52.62-1.158.62z" class="cls-4" transform="translate(-435.633 -312.305)"/>
                    </g>
                    <g id="그룹_3183" transform="translate(393.32 21.751)">
                        <path id="패스_4528" d="M447.2 390.252a1.054 1.054 0 0 1-1.154-.91v-46.676a1.19 1.19 0 0 1 2.312 0v46.676a1.058 1.058 0 0 1-1.158.91z" class="cls-4" transform="translate(-446.047 -341.76)"/>
                    </g>
                    <g id="그룹_3184" transform="translate(402.256 16.259)">
                        <path id="패스_4529" d="M457.612 393.093a1.059 1.059 0 0 1-1.158-.91v-57.656a1.19 1.19 0 0 1 2.312 0v57.656a1.054 1.054 0 0 1-1.154.91z" class="cls-4" transform="translate(-456.454 -333.617)"/>
                    </g>
                    <g id="그룹_3185" transform="translate(411.193 26.447)">
                        <path id="패스_4530" d="M468.02 387.82a1.057 1.057 0 0 1-1.158-.906v-37.282a1.192 1.192 0 0 1 2.317 0v37.282a1.057 1.057 0 0 1-1.159.906z" class="cls-4" transform="translate(-466.862 -348.722)"/>
                    </g>
                    <g id="그룹_3186" transform="translate(420.135 34.174)">
                        <path id="패스_4531" d="M478.429 383.824a1.052 1.052 0 0 1-1.154-.906v-21.83a1.19 1.19 0 0 1 2.312 0v21.829a1.056 1.056 0 0 1-1.158.907z" class="cls-4" transform="translate(-477.275 -360.179)"/>
                    </g>
                    <g id="그룹_3187" transform="translate(429.072 36.246)">
                        <path id="패스_4532" d="M488.841 382.751a1.053 1.053 0 0 1-1.158-.906v-17.684a1.19 1.19 0 0 1 2.312 0v17.684a1.052 1.052 0 0 1-1.154.906z" class="cls-4" transform="translate(-487.683 -363.251)"/>
                    </g>
                    <g id="그룹_3188" transform="translate(438.009 19.644)">
                        <path id="패스_4533" d="M499.249 391.339a1.056 1.056 0 0 1-1.158-.91v-50.885a1.19 1.19 0 0 1 2.312 0v50.886a1.052 1.052 0 0 1-1.154.909z" class="cls-4" transform="translate(-498.091 -338.634)"/>
                    </g>
                    <g id="그룹_3189" transform="translate(446.95 26.979)">
                        <path id="패스_4534" d="M509.657 387.545a1.052 1.052 0 0 1-1.154-.906V350.42a1.19 1.19 0 0 1 2.312 0v36.219a1.056 1.056 0 0 1-1.158.906z" class="cls-4" transform="translate(-508.503 -349.51)"/>
                    </g>
                    <g id="그룹_3190" transform="translate(455.887 30.956)">
                        <path id="패스_4535" d="M520.065 385.491a1.055 1.055 0 0 1-1.154-.91v-28.263a1.19 1.19 0 0 1 2.312 0v28.263a1.056 1.056 0 0 1-1.158.91z" class="cls-4" transform="translate(-518.911 -355.408)"/>
                    </g>
                    <g id="그룹_3191" transform="translate(277.121 12.192)">
                        <path id="패스_4536" d="M311.883 371.643c-.642 0-1.157-.278-1.157-.619V304.65c0-.341.515-.617 1.157-.617s1.155.276 1.155.617v66.374c-.001.341-.517.619-1.155.619z" class="cls-4" transform="translate(-310.725 -304.033)"/>
                    </g>
                    <g id="그룹_3192" transform="translate(268.184 12.906)">
                        <path id="패스_4537" d="M301.471 392.049c-.638 0-1.154-.384-1.154-.858v-64.462c0-.474.516-.861 1.154-.861s1.158.387 1.158.861v64.462c0 .475-.52.858-1.158.858z" class="cls-4" transform="translate(-300.317 -325.868)"/>
                    </g>
                    <g id="그룹_3193" transform="translate(259.242 21.506)">
                        <path id="패스_4538" d="M291.062 390.379a1.059 1.059 0 0 1-1.158-.91V342.3a1.193 1.193 0 0 1 2.317 0v47.167a1.059 1.059 0 0 1-1.159.912z" class="cls-4" transform="translate(-289.904 -341.396)"/>
                    </g>
                    <g id="그룹_3194" transform="translate(250.305 28.111)">
                        <path id="패스_4539" d="M280.654 386.96a1.057 1.057 0 0 1-1.158-.91V352.1a1.19 1.19 0 0 1 2.312 0v33.951a1.052 1.052 0 0 1-1.154.909z" class="cls-4" transform="translate(-279.496 -351.189)"/>
                    </g>
                    <g id="그룹_3195" transform="translate(241.368 32.41)">
                        <path id="패스_4540" d="M270.242 384.739a1.055 1.055 0 0 1-1.154-.91V358.47a1.191 1.191 0 0 1 2.313 0v25.359a1.057 1.057 0 0 1-1.159.91z" class="cls-4" transform="translate(-269.088 -357.564)"/>
                    </g>
                    <g id="그룹_3196" transform="translate(232.427 21.751)">
                        <path id="패스_4541" d="M259.833 390.252a1.058 1.058 0 0 1-1.158-.91v-46.676a1.193 1.193 0 0 1 2.316 0v46.676a1.058 1.058 0 0 1-1.158.91z" class="cls-4" transform="translate(-258.676 -341.76)"/>
                    </g>
                    <g id="그룹_3197" transform="translate(223.49 28.054)">
                        <path id="패스_4542" d="M249.426 386.992a1.058 1.058 0 0 1-1.158-.91v-34.071a1.191 1.191 0 0 1 2.312 0v34.071a1.055 1.055 0 0 1-1.154.91z" class="cls-4" transform="translate(-248.268 -351.105)"/>
                    </g>
                    <g id="그룹_3198" transform="translate(214.553 13.851)">
                        <path id="패스_4543" d="M239.018 391.563c-.642 0-1.158-.386-1.158-.86v-62.575c0-.474.516-.857 1.158-.857s1.154.383 1.154.857V390.7c0 .477-.516.863-1.154.863z" class="cls-4" transform="translate(-237.86 -327.271)"/>
                    </g>
                    <g id="그룹_3199" transform="translate(205.616 23.362)">
                        <path id="패스_4544" d="M228.606 389.418a1.054 1.054 0 0 1-1.154-.91v-43.453a1.19 1.19 0 0 1 2.312 0v43.453a1.058 1.058 0 0 1-1.158.91z" class="cls-4" transform="translate(-227.452 -344.148)"/>
                    </g>
                    <g id="그룹_3200" transform="translate(44.724 22.453)">
                        <path id="패스_4545" d="M41.239 389.886a1.057 1.057 0 0 1-1.158-.907v-45.27a1.192 1.192 0 0 1 2.317 0v45.27a1.057 1.057 0 0 1-1.159.907z" class="cls-4" transform="translate(-40.081 -342.799)"/>
                    </g>
                    <g id="그룹_3201" transform="translate(35.786 32.005)">
                        <path id="패스_4546" d="M30.831 384.948a1.059 1.059 0 0 1-1.158-.91V357.87a1.191 1.191 0 0 1 2.312 0v26.168a1.054 1.054 0 0 1-1.154.91z" class="cls-4" transform="translate(-29.673 -356.964)"/>
                    </g>
                    <g id="그룹_3202" transform="translate(26.849 37.036)">
                        <path id="패스_4547" d="M20.42 382.343a1.053 1.053 0 0 1-1.155-.906v-16.1a1.054 1.054 0 0 1 1.155-.909 1.059 1.059 0 0 1 1.158.909v16.1a1.057 1.057 0 0 1-1.158.906z" class="cls-4" transform="translate(-19.265 -364.423)"/>
                    </g>
                    <g id="그룹_3203" transform="translate(17.908 42.863)">
                        <path id="패스_4548" d="M10.01 379.328a1.056 1.056 0 0 1-1.158-.906v-4.449a1.059 1.059 0 0 1 1.158-.91 1.059 1.059 0 0 1 1.159.91v4.449a1.057 1.057 0 0 1-1.159.906z" class="cls-4" transform="translate(-8.852 -373.063)"/>
                    </g>
                    <g id="그룹_3204" transform="translate(8.972 40.95)">
                        <path id="패스_4549" d="M-.4 380.321a1.058 1.058 0 0 1-1.158-.91v-8.278a1.056 1.056 0 0 1 1.158-.906 1.052 1.052 0 0 1 1.154.906v8.278a1.054 1.054 0 0 1-1.154.91z" class="cls-4" transform="translate(1.555 -370.227)"/>
                    </g>
                    <g id="그룹_3205" transform="translate(0 42.816)">
                        <path id="패스_4550" d="M-10.845 379.356a1.057 1.057 0 0 1-1.158-.91V373.9a1.057 1.057 0 0 1 1.158-.906 1.057 1.057 0 0 1 1.159.906v4.546a1.057 1.057 0 0 1-1.159.91z" class="cls-4" transform="translate(12.003 -372.994)"/>
                    </g>
                    <g id="그룹_3206" transform="translate(107.292 37.315)">
                        <path id="패스_4551" d="M114.1 382.2a1.056 1.056 0 0 1-1.158-.906v-15.548a1.192 1.192 0 0 1 2.317 0v15.546a1.057 1.057 0 0 1-1.159.908z" class="cls-4" transform="translate(-112.946 -364.836)"/>
                    </g>
                    <g id="그룹_3207" transform="translate(98.354 28.449)">
                        <path id="패스_4552" d="M103.7 386.788a1.059 1.059 0 0 1-1.158-.91V352.6a1.191 1.191 0 0 1 2.312 0v33.28a1.055 1.055 0 0 1-1.154.908z" class="cls-4" transform="translate(-102.538 -351.691)"/>
                    </g>
                    <g id="그룹_3208" transform="translate(89.417 36.202)">
                        <path id="패스_4553" d="M93.284 382.777a1.055 1.055 0 0 1-1.154-.91v-17.774a1.191 1.191 0 0 1 2.312 0v17.774a1.056 1.056 0 0 1-1.158.91z" class="cls-4" transform="translate(-92.13 -363.187)"/>
                    </g>
                    <g id="그룹_3209" transform="translate(80.48 13.851)">
                        <path id="패스_4554" d="M82.876 391.563c-.638 0-1.154-.386-1.154-.86v-62.575c0-.474.516-.857 1.154-.857s1.158.383 1.158.857V390.7c0 .477-.519.863-1.158.863z" class="cls-4" transform="translate(-81.722 -327.271)"/>
                    </g>
                    <g id="그룹_3210" transform="translate(71.539 19.919)">
                        <path id="패스_4555" d="M72.468 391.2a1.059 1.059 0 0 1-1.159-.91v-50.341a1.191 1.191 0 0 1 2.313 0v50.341a1.055 1.055 0 0 1-1.154.91z" class="cls-4" transform="translate(-71.309 -339.043)"/>
                    </g>
                    <g id="그룹_3211" transform="translate(62.602 33.599)">
                        <path id="패스_4556" d="M62.06 384.12a1.055 1.055 0 0 1-1.158-.91v-22.973a1.19 1.19 0 0 1 2.312 0v22.974a1.054 1.054 0 0 1-1.154.909z" class="cls-4" transform="translate(-60.902 -359.327)"/>
                    </g>
                    <g id="그룹_3212" transform="translate(53.665 37.315)">
                        <path id="패스_4557" d="M51.648 382.2a1.052 1.052 0 0 1-1.154-.906v-15.548a1.19 1.19 0 0 1 2.312 0v15.546a1.057 1.057 0 0 1-1.158.908z" class="cls-4" transform="translate(-50.494 -364.836)"/>
                    </g>
                    <g id="그룹_3213" transform="translate(196.674 27.194)">
                        <path id="패스_4558" d="M218.2 387.433a1.056 1.056 0 0 1-1.158-.906v-35.791a1.193 1.193 0 0 1 2.317 0v35.791a1.056 1.056 0 0 1-1.159.906z" class="cls-4" transform="translate(-217.039 -349.83)"/>
                    </g>
                    <g id="그룹_3214" transform="translate(187.737 15.9)">
                        <path id="패스_4559" d="M207.789 372.5c-.638 0-1.158-.278-1.158-.62v-58.957c0-.342.52-.618 1.158-.618s1.154.276 1.154.618v58.957c0 .342-.516.62-1.154.62z" class="cls-4" transform="translate(-206.631 -312.305)"/>
                    </g>
                    <g id="그룹_3215" transform="translate(178.801 21.751)">
                        <path id="패스_4560" d="M197.378 390.252a1.054 1.054 0 0 1-1.154-.91v-46.676a1.19 1.19 0 0 1 2.312 0v46.676a1.058 1.058 0 0 1-1.158.91z" class="cls-4" transform="translate(-196.224 -341.76)"/>
                    </g>
                    <g id="그룹_3216" transform="translate(169.86 16.259)">
                        <path id="패스_4561" d="M186.969 393.093a1.058 1.058 0 0 1-1.158-.91v-57.656a1.192 1.192 0 0 1 2.317 0v57.656a1.059 1.059 0 0 1-1.159.91z" class="cls-4" transform="translate(-185.811 -333.617)"/>
                    </g>
                    <g id="그룹_3217" transform="translate(160.922 26.447)">
                        <path id="패스_4562" d="M176.561 387.82a1.056 1.056 0 0 1-1.158-.906v-37.282a1.19 1.19 0 0 1 2.312 0v37.282a1.052 1.052 0 0 1-1.154.906z" class="cls-4" transform="translate(-175.403 -348.722)"/>
                    </g>
                    <g id="그룹_3218" transform="translate(151.985 34.174)">
                        <path id="패스_4563" d="M166.149 383.824a1.052 1.052 0 0 1-1.154-.906v-21.83a1.19 1.19 0 0 1 2.312 0v21.829a1.053 1.053 0 0 1-1.158.907z" class="cls-4" transform="translate(-164.995 -360.179)"/>
                    </g>
                    <g id="그룹_3219" transform="translate(143.048 36.246)">
                        <path id="패스_4564" d="M155.741 382.751a1.052 1.052 0 0 1-1.154-.906v-17.684a1.19 1.19 0 0 1 2.312 0v17.684a1.057 1.057 0 0 1-1.158.906z" class="cls-4" transform="translate(-154.587 -363.251)"/>
                    </g>
                    <g id="그룹_3220" transform="translate(134.107 19.644)">
                        <path id="패스_4565" d="M145.332 391.339a1.057 1.057 0 0 1-1.158-.91v-50.885a1.19 1.19 0 0 1 2.312 0v50.886a1.052 1.052 0 0 1-1.154.909z" class="cls-4" transform="translate(-144.174 -338.634)"/>
                    </g>
                    <g id="그룹_3221" transform="translate(125.17 26.979)">
                        <path id="패스_4566" d="M134.925 387.545a1.053 1.053 0 0 1-1.158-.906V350.42a1.19 1.19 0 0 1 2.312 0v36.219a1.052 1.052 0 0 1-1.154.906z" class="cls-4" transform="translate(-133.767 -349.51)"/>
                    </g>
                    <g id="그룹_3222" transform="translate(116.232 30.956)">
                        <path id="패스_4567" d="M124.513 385.491a1.055 1.055 0 0 1-1.155-.91v-28.263a1.19 1.19 0 0 1 2.313 0v28.263a1.059 1.059 0 0 1-1.158.91z" class="cls-4" transform="translate(-123.358 -355.408)"/>
                    </g>
                </g>
                <g id="그룹_3289" style="mix-blend-mode:overlay;isolation:isolate" opacity="0.3">
                    <g id="그룹_3224" transform="translate(286.057)">
                        <path id="패스_4568" d="M322.29 377.949c-.638 0-1.158-.3-1.158-.676v-90.644c0-.373.52-.674 1.158-.674s1.155.3 1.155.674v90.644c0 .373-.516.676-1.155.676z" class="cls-4" transform="translate(-321.132 -285.955)"/>
                    </g>
                    <g id="그룹_3225" transform="translate(294.999 12.192)">
                        <path id="패스_4569" d="M332.7 371.643c-.639 0-1.155-.278-1.155-.619V304.65c0-.341.516-.617 1.155-.617s1.157.276 1.157.617v66.374c0 .341-.519.619-1.157.619z" class="cls-4" transform="translate(-331.545 -304.033)"/>
                    </g>
                    <g id="그룹_3226" transform="translate(303.936 12.906)">
                        <path id="패스_4570" d="M343.107 392.049c-.638 0-1.154-.384-1.154-.858v-64.462c0-.474.516-.861 1.154-.861s1.158.387 1.158.861v64.462c0 .475-.516.858-1.158.858z" class="cls-4" transform="translate(-341.953 -325.868)"/>
                    </g>
                    <g id="그룹_3227" transform="translate(312.873 21.506)">
                        <path id="패스_4571" d="M353.519 390.379a1.059 1.059 0 0 1-1.158-.91V342.3a1.191 1.191 0 0 1 2.312 0v47.167a1.055 1.055 0 0 1-1.154.912z" class="cls-4" transform="translate(-352.361 -341.396)"/>
                    </g>
                    <g id="그룹_3228" transform="translate(321.81 28.111)">
                        <path id="패스_4572" d="M363.927 386.96a1.056 1.056 0 0 1-1.158-.91V352.1a1.193 1.193 0 0 1 2.317 0v33.951a1.057 1.057 0 0 1-1.159.909z" class="cls-4" transform="translate(-362.769 -351.189)"/>
                    </g>
                    <g id="그룹_3229" transform="translate(330.751 32.41)">
                        <path id="패스_4573" d="M374.335 384.739a1.055 1.055 0 0 1-1.154-.91V358.47a1.191 1.191 0 0 1 2.313 0v25.359a1.059 1.059 0 0 1-1.159.91z" class="cls-4" transform="translate(-373.181 -357.564)"/>
                    </g>
                    <g id="그룹_3230" transform="translate(339.688 21.751)">
                        <path id="패스_4574" d="M384.748 390.252a1.057 1.057 0 0 1-1.159-.91v-46.676a1.191 1.191 0 0 1 2.313 0v46.676a1.055 1.055 0 0 1-1.154.91z" class="cls-4" transform="translate(-383.589 -341.76)"/>
                    </g>
                    <g id="그룹_3231" transform="translate(348.625 28.054)">
                        <path id="패스_4575" d="M395.155 386.992a1.059 1.059 0 0 1-1.158-.91v-34.071a1.193 1.193 0 0 1 2.317 0v34.071a1.058 1.058 0 0 1-1.159.91z" class="cls-4" transform="translate(-393.997 -351.105)"/>
                    </g>
                    <g id="그룹_3232" transform="translate(357.567 13.851)">
                        <path id="패스_4576" d="M405.564 391.563c-.638 0-1.154-.386-1.154-.86v-62.575c0-.474.516-.857 1.154-.857s1.158.383 1.158.857V390.7c0 .477-.522.863-1.158.863z" class="cls-4" transform="translate(-404.41 -327.271)"/>
                    </g>
                    <g id="그룹_3233" transform="translate(366.504 23.362)">
                        <path id="패스_4577" d="M415.972 389.418a1.054 1.054 0 0 1-1.154-.91v-43.453a1.19 1.19 0 0 1 2.312 0v43.453a1.056 1.056 0 0 1-1.158.91z" class="cls-4" transform="translate(-414.818 -344.148)"/>
                    </g>
                    <g id="그룹_3234" transform="translate(527.392 22.453)">
                        <path id="패스_4578" d="M603.342 389.886a1.057 1.057 0 0 1-1.158-.907v-45.27a1.19 1.19 0 0 1 2.312 0v45.27a1.052 1.052 0 0 1-1.154.907z" class="cls-4" transform="translate(-602.184 -342.799)"/>
                    </g>
                    <g id="그룹_3235" transform="translate(536.329 32.005)">
                        <path id="패스_4579" d="M613.75 384.948a1.058 1.058 0 0 1-1.158-.91V357.87a1.193 1.193 0 0 1 2.317 0v26.168a1.058 1.058 0 0 1-1.159.91z" class="cls-4" transform="translate(-612.592 -356.964)"/>
                    </g>
                    <g id="그룹_3236" transform="translate(545.271 37.036)">
                        <path id="패스_4580" d="M624.159 382.343a1.052 1.052 0 0 1-1.154-.906v-16.1a1.189 1.189 0 0 1 2.312 0v16.1a1.056 1.056 0 0 1-1.158.906z" class="cls-4" transform="translate(-623.005 -364.423)"/>
                    </g>
                    <g id="그룹_3237" transform="translate(554.207 42.863)">
                        <path id="패스_4581" d="M634.57 379.328a1.056 1.056 0 0 1-1.158-.906v-4.449a1.19 1.19 0 0 1 2.313 0v4.449a1.052 1.052 0 0 1-1.155.906z" class="cls-4" transform="translate(-633.412 -373.063)"/>
                    </g>
                    <g id="그룹_3238" transform="translate(563.144 40.95)">
                        <path id="패스_4582" d="M644.978 380.321a1.059 1.059 0 0 1-1.158-.91v-8.278a1.193 1.193 0 0 1 2.317 0v8.278a1.058 1.058 0 0 1-1.159.91z" class="cls-4" transform="translate(-643.82 -370.227)"/>
                    </g>
                    <g id="그룹_3239" transform="translate(572.115 42.816)">
                        <path id="패스_4583" d="M655.425 379.356a1.057 1.057 0 0 1-1.158-.91V373.9a1.191 1.191 0 0 1 2.313 0v4.546a1.052 1.052 0 0 1-1.155.91z" class="cls-4" transform="translate(-654.267 -372.994)"/>
                    </g>
                    <g id="그룹_3240" transform="translate(464.824 37.315)">
                        <path id="패스_4584" d="M530.477 382.2a1.057 1.057 0 0 1-1.158-.906v-15.548a1.19 1.19 0 0 1 2.313 0v15.546a1.052 1.052 0 0 1-1.155.908z" class="cls-4" transform="translate(-529.319 -364.836)"/>
                    </g>
                    <g id="그룹_3241" transform="translate(473.761 28.449)">
                        <path id="패스_4585" d="M540.885 386.788a1.058 1.058 0 0 1-1.158-.91V352.6a1.193 1.193 0 0 1 2.317 0v33.28a1.059 1.059 0 0 1-1.159.908z" class="cls-4" transform="translate(-539.727 -351.691)"/>
                    </g>
                    <g id="그룹_3242" transform="translate(482.703 36.202)">
                        <path id="패스_4586" d="M551.294 382.777a1.055 1.055 0 0 1-1.154-.91v-17.774a1.191 1.191 0 0 1 2.312 0v17.774a1.059 1.059 0 0 1-1.158.91z" class="cls-4" transform="translate(-550.14 -363.187)"/>
                    </g>
                    <g id="그룹_3243" transform="translate(491.64 13.851)">
                        <path id="패스_4587" d="M561.706 391.563c-.643 0-1.158-.386-1.158-.86v-62.575c0-.474.515-.857 1.158-.857s1.154.383 1.154.857V390.7c0 .477-.516.863-1.154.863z" class="cls-4" transform="translate(-560.548 -327.271)"/>
                    </g>
                    <g id="그룹_3244" transform="translate(500.576 19.919)">
                        <path id="패스_4588" d="M572.113 391.2a1.059 1.059 0 0 1-1.158-.91v-50.341a1.191 1.191 0 0 1 2.313 0v50.341a1.054 1.054 0 0 1-1.155.91z" class="cls-4" transform="translate(-570.955 -339.043)"/>
                    </g>
                    <g id="그룹_3245" transform="translate(509.518 33.599)">
                        <path id="패스_4589" d="M582.522 384.12a1.054 1.054 0 0 1-1.154-.91v-22.973a1.19 1.19 0 0 1 2.312 0v22.974a1.058 1.058 0 0 1-1.158.909z" class="cls-4" transform="translate(-581.368 -359.327)"/>
                    </g>
                    <g id="그룹_3246" transform="translate(518.455 37.315)">
                        <path id="패스_4590" d="M592.93 382.2a1.052 1.052 0 0 1-1.154-.906v-15.548a1.19 1.19 0 0 1 2.313 0v15.546a1.053 1.053 0 0 1-1.159.908z" class="cls-4" transform="translate(-591.776 -364.836)"/>
                    </g>
                    <g id="그룹_3247" transform="translate(375.441 27.194)">
                        <path id="패스_4591" d="M426.384 387.433a1.056 1.056 0 0 1-1.158-.906v-35.791a1.191 1.191 0 0 1 2.312 0v35.791a1.052 1.052 0 0 1-1.154.906z" class="cls-4" transform="translate(-425.226 -349.83)"/>
                    </g>
                    <g id="그룹_3248" transform="translate(384.377 15.9)">
                        <path id="패스_4592" d="M436.792 372.5c-.639 0-1.159-.278-1.159-.62v-58.957c0-.342.52-.618 1.159-.618s1.158.276 1.158.618v58.957c.001.342-.52.62-1.158.62z" class="cls-4" transform="translate(-435.633 -312.305)"/>
                    </g>
                    <g id="그룹_3249" transform="translate(393.32 21.751)">
                        <path id="패스_4593" d="M447.2 390.252a1.054 1.054 0 0 1-1.154-.91v-46.676a1.19 1.19 0 0 1 2.312 0v46.676a1.058 1.058 0 0 1-1.158.91z" class="cls-4" transform="translate(-446.047 -341.76)"/>
                    </g>
                    <g id="그룹_3250" transform="translate(402.256 16.259)">
                        <path id="패스_4594" d="M457.612 393.093a1.059 1.059 0 0 1-1.158-.91v-57.656a1.19 1.19 0 0 1 2.312 0v57.656a1.054 1.054 0 0 1-1.154.91z" class="cls-4" transform="translate(-456.454 -333.617)"/>
                    </g>
                    <g id="그룹_3251" transform="translate(411.193 26.447)">
                        <path id="패스_4595" d="M468.02 387.82a1.057 1.057 0 0 1-1.158-.906v-37.282a1.192 1.192 0 0 1 2.317 0v37.282a1.057 1.057 0 0 1-1.159.906z" class="cls-4" transform="translate(-466.862 -348.722)"/>
                    </g>
                    <g id="그룹_3252" transform="translate(420.135 34.174)">
                        <path id="패스_4596" d="M478.429 383.824a1.052 1.052 0 0 1-1.154-.906v-21.83a1.19 1.19 0 0 1 2.312 0v21.829a1.056 1.056 0 0 1-1.158.907z" class="cls-4" transform="translate(-477.275 -360.179)"/>
                    </g>
                    <g id="그룹_3253" transform="translate(429.072 36.246)">
                        <path id="패스_4597" d="M488.841 382.751a1.053 1.053 0 0 1-1.158-.906v-17.684a1.19 1.19 0 0 1 2.312 0v17.684a1.052 1.052 0 0 1-1.154.906z" class="cls-4" transform="translate(-487.683 -363.251)"/>
                    </g>
                    <g id="그룹_3254" transform="translate(438.009 19.644)">
                        <path id="패스_4598" d="M499.249 391.339a1.056 1.056 0 0 1-1.158-.91v-50.885a1.19 1.19 0 0 1 2.312 0v50.886a1.052 1.052 0 0 1-1.154.909z" class="cls-4" transform="translate(-498.091 -338.634)"/>
                    </g>
                    <g id="그룹_3255" transform="translate(446.95 26.979)">
                        <path id="패스_4599" d="M509.657 387.545a1.052 1.052 0 0 1-1.154-.906V350.42a1.19 1.19 0 0 1 2.312 0v36.219a1.056 1.056 0 0 1-1.158.906z" class="cls-4" transform="translate(-508.503 -349.51)"/>
                    </g>
                    <g id="그룹_3256" transform="translate(455.887 30.956)">
                        <path id="패스_4600" d="M520.065 385.491a1.055 1.055 0 0 1-1.154-.91v-28.263a1.19 1.19 0 0 1 2.312 0v28.263a1.056 1.056 0 0 1-1.158.91z" class="cls-4" transform="translate(-518.911 -355.408)"/>
                    </g>
                    <g id="그룹_3257" transform="translate(277.121 12.192)">
                        <path id="패스_4601" d="M311.883 371.643c-.642 0-1.157-.278-1.157-.619V304.65c0-.341.515-.617 1.157-.617s1.155.276 1.155.617v66.374c-.001.341-.517.619-1.155.619z" class="cls-4" transform="translate(-310.725 -304.033)"/>
                    </g>
                    <g id="그룹_3258" transform="translate(268.184 12.906)">
                        <path id="패스_4602" d="M301.471 392.049c-.638 0-1.154-.384-1.154-.858v-64.462c0-.474.516-.861 1.154-.861s1.158.387 1.158.861v64.462c0 .475-.52.858-1.158.858z" class="cls-4" transform="translate(-300.317 -325.868)"/>
                    </g>
                    <g id="그룹_3259" transform="translate(259.242 21.506)">
                        <path id="패스_4603" d="M291.062 390.379a1.059 1.059 0 0 1-1.158-.91V342.3a1.193 1.193 0 0 1 2.317 0v47.167a1.059 1.059 0 0 1-1.159.912z" class="cls-4" transform="translate(-289.904 -341.396)"/>
                    </g>
                    <g id="그룹_3260" transform="translate(250.305 28.111)">
                        <path id="패스_4604" d="M280.654 386.96a1.057 1.057 0 0 1-1.158-.91V352.1a1.19 1.19 0 0 1 2.312 0v33.951a1.052 1.052 0 0 1-1.154.909z" class="cls-4" transform="translate(-279.496 -351.189)"/>
                    </g>
                    <g id="그룹_3261" transform="translate(241.368 32.41)">
                        <path id="패스_4605" d="M270.242 384.739a1.055 1.055 0 0 1-1.154-.91V358.47a1.191 1.191 0 0 1 2.313 0v25.359a1.057 1.057 0 0 1-1.159.91z" class="cls-4" transform="translate(-269.088 -357.564)"/>
                    </g>
                    <g id="그룹_3262" transform="translate(232.427 21.751)">
                        <path id="패스_4606" d="M259.833 390.252a1.058 1.058 0 0 1-1.158-.91v-46.676a1.193 1.193 0 0 1 2.316 0v46.676a1.058 1.058 0 0 1-1.158.91z" class="cls-4" transform="translate(-258.676 -341.76)"/>
                    </g>
                    <g id="그룹_3263" transform="translate(223.49 28.054)">
                        <path id="패스_4607" d="M249.426 386.992a1.058 1.058 0 0 1-1.158-.91v-34.071a1.191 1.191 0 0 1 2.312 0v34.071a1.055 1.055 0 0 1-1.154.91z" class="cls-4" transform="translate(-248.268 -351.105)"/>
                    </g>
                    <g id="그룹_3264" transform="translate(214.553 13.851)">
                        <path id="패스_4608" d="M239.018 391.563c-.642 0-1.158-.386-1.158-.86v-62.575c0-.474.516-.857 1.158-.857s1.154.383 1.154.857V390.7c0 .477-.516.863-1.154.863z" class="cls-4" transform="translate(-237.86 -327.271)"/>
                    </g>
                    <g id="그룹_3265" transform="translate(205.616 23.362)">
                        <path id="패스_4609" d="M228.606 389.418a1.054 1.054 0 0 1-1.154-.91v-43.453a1.19 1.19 0 0 1 2.312 0v43.453a1.058 1.058 0 0 1-1.158.91z" class="cls-4" transform="translate(-227.452 -344.148)"/>
                    </g>
                    <g id="그룹_3266" transform="translate(44.724 22.453)">
                        <path id="패스_4610" d="M41.239 389.886a1.057 1.057 0 0 1-1.158-.907v-45.27a1.192 1.192 0 0 1 2.317 0v45.27a1.057 1.057 0 0 1-1.159.907z" class="cls-4" transform="translate(-40.081 -342.799)"/>
                    </g>
                    <g id="그룹_3267" transform="translate(35.786 32.005)">
                        <path id="패스_4611" d="M30.831 384.948a1.059 1.059 0 0 1-1.158-.91V357.87a1.191 1.191 0 0 1 2.312 0v26.168a1.054 1.054 0 0 1-1.154.91z" class="cls-4" transform="translate(-29.673 -356.964)"/>
                    </g>
                    <g id="그룹_3268" transform="translate(26.849 37.036)">
                        <path id="패스_4612" d="M20.42 382.343a1.053 1.053 0 0 1-1.155-.906v-16.1a1.054 1.054 0 0 1 1.155-.909 1.059 1.059 0 0 1 1.158.909v16.1a1.057 1.057 0 0 1-1.158.906z" class="cls-4" transform="translate(-19.265 -364.423)"/>
                    </g>
                    <g id="그룹_3269" transform="translate(17.908 42.863)">
                        <path id="패스_4613" d="M10.01 379.328a1.056 1.056 0 0 1-1.158-.906v-4.449a1.059 1.059 0 0 1 1.158-.91 1.059 1.059 0 0 1 1.159.91v4.449a1.057 1.057 0 0 1-1.159.906z" class="cls-4" transform="translate(-8.852 -373.063)"/>
                    </g>
                    <g id="그룹_3270" transform="translate(8.972 40.95)">
                        <path id="패스_4614" d="M-.4 380.321a1.058 1.058 0 0 1-1.158-.91v-8.278a1.056 1.056 0 0 1 1.158-.906 1.052 1.052 0 0 1 1.154.906v8.278a1.054 1.054 0 0 1-1.154.91z" class="cls-4" transform="translate(1.555 -370.227)"/>
                    </g>
                    <g id="그룹_3271" transform="translate(0 42.816)">
                        <path id="패스_4615" d="M-10.845 379.356a1.057 1.057 0 0 1-1.158-.91V373.9a1.057 1.057 0 0 1 1.158-.906 1.057 1.057 0 0 1 1.159.906v4.546a1.057 1.057 0 0 1-1.159.91z" class="cls-4" transform="translate(12.003 -372.994)"/>
                    </g>
                    <g id="그룹_3272" transform="translate(107.292 37.315)">
                        <path id="패스_4616" d="M114.1 382.2a1.056 1.056 0 0 1-1.158-.906v-15.548a1.192 1.192 0 0 1 2.317 0v15.546a1.057 1.057 0 0 1-1.159.908z" class="cls-4" transform="translate(-112.946 -364.836)"/>
                    </g>
                    <g id="그룹_3273" transform="translate(98.354 28.449)">
                        <path id="패스_4617" d="M103.7 386.788a1.059 1.059 0 0 1-1.158-.91V352.6a1.191 1.191 0 0 1 2.312 0v33.28a1.055 1.055 0 0 1-1.154.908z" class="cls-4" transform="translate(-102.538 -351.691)"/>
                    </g>
                    <g id="그룹_3274" transform="translate(89.417 36.202)">
                        <path id="패스_4618" d="M93.284 382.777a1.055 1.055 0 0 1-1.154-.91v-17.774a1.191 1.191 0 0 1 2.312 0v17.774a1.056 1.056 0 0 1-1.158.91z" class="cls-4" transform="translate(-92.13 -363.187)"/>
                    </g>
                    <g id="그룹_3275" transform="translate(80.48 13.851)">
                        <path id="패스_4619" d="M82.876 391.563c-.638 0-1.154-.386-1.154-.86v-62.575c0-.474.516-.857 1.154-.857s1.158.383 1.158.857V390.7c0 .477-.519.863-1.158.863z" class="cls-4" transform="translate(-81.722 -327.271)"/>
                    </g>
                    <g id="그룹_3276" transform="translate(71.539 19.919)">
                        <path id="패스_4620" d="M72.468 391.2a1.059 1.059 0 0 1-1.159-.91v-50.341a1.191 1.191 0 0 1 2.313 0v50.341a1.055 1.055 0 0 1-1.154.91z" class="cls-4" transform="translate(-71.309 -339.043)"/>
                    </g>
                    <g id="그룹_3277" transform="translate(62.602 33.599)">
                        <path id="패스_4621" d="M62.06 384.12a1.055 1.055 0 0 1-1.158-.91v-22.973a1.19 1.19 0 0 1 2.312 0v22.974a1.054 1.054 0 0 1-1.154.909z" class="cls-4" transform="translate(-60.902 -359.327)"/>
                    </g>
                    <g id="그룹_3278" transform="translate(53.665 37.315)">
                        <path id="패스_4622" d="M51.648 382.2a1.052 1.052 0 0 1-1.154-.906v-15.548a1.19 1.19 0 0 1 2.312 0v15.546a1.057 1.057 0 0 1-1.158.908z" class="cls-4" transform="translate(-50.494 -364.836)"/>
                    </g>
                    <g id="그룹_3279" transform="translate(196.674 27.194)">
                        <path id="패스_4623" d="M218.2 387.433a1.056 1.056 0 0 1-1.158-.906v-35.791a1.193 1.193 0 0 1 2.317 0v35.791a1.056 1.056 0 0 1-1.159.906z" class="cls-4" transform="translate(-217.039 -349.83)"/>
                    </g>
                    <g id="그룹_3280" transform="translate(187.737 15.9)">
                        <path id="패스_4624" d="M207.789 372.5c-.638 0-1.158-.278-1.158-.62v-58.957c0-.342.52-.618 1.158-.618s1.154.276 1.154.618v58.957c0 .342-.516.62-1.154.62z" class="cls-4" transform="translate(-206.631 -312.305)"/>
                    </g>
                    <g id="그룹_3281" transform="translate(178.801 21.751)">
                        <path id="패스_4625" d="M197.378 390.252a1.054 1.054 0 0 1-1.154-.91v-46.676a1.19 1.19 0 0 1 2.312 0v46.676a1.058 1.058 0 0 1-1.158.91z" class="cls-4" transform="translate(-196.224 -341.76)"/>
                    </g>
                    <g id="그룹_3282" transform="translate(169.86 16.259)">
                        <path id="패스_4626" d="M186.969 393.093a1.058 1.058 0 0 1-1.158-.91v-57.656a1.192 1.192 0 0 1 2.317 0v57.656a1.059 1.059 0 0 1-1.159.91z" class="cls-4" transform="translate(-185.811 -333.617)"/>
                    </g>
                    <g id="그룹_3283" transform="translate(160.922 26.447)">
                        <path id="패스_4627" d="M176.561 387.82a1.056 1.056 0 0 1-1.158-.906v-37.282a1.19 1.19 0 0 1 2.312 0v37.282a1.052 1.052 0 0 1-1.154.906z" class="cls-4" transform="translate(-175.403 -348.722)"/>
                    </g>
                    <g id="그룹_3284" transform="translate(151.985 34.174)">
                        <path id="패스_4628" d="M166.149 383.824a1.052 1.052 0 0 1-1.154-.906v-21.83a1.19 1.19 0 0 1 2.312 0v21.829a1.053 1.053 0 0 1-1.158.907z" class="cls-4" transform="translate(-164.995 -360.179)"/>
                    </g>
                    <g id="그룹_3285" transform="translate(143.048 36.246)">
                        <path id="패스_4629" d="M155.741 382.751a1.052 1.052 0 0 1-1.154-.906v-17.684a1.19 1.19 0 0 1 2.312 0v17.684a1.057 1.057 0 0 1-1.158.906z" class="cls-4" transform="translate(-154.587 -363.251)"/>
                    </g>
                    <g id="그룹_3286" transform="translate(134.107 19.644)">
                        <path id="패스_4630" d="M145.332 391.339a1.057 1.057 0 0 1-1.158-.91v-50.885a1.19 1.19 0 0 1 2.312 0v50.886a1.052 1.052 0 0 1-1.154.909z" class="cls-4" transform="translate(-144.174 -338.634)"/>
                    </g>
                    <g id="그룹_3287" transform="translate(125.17 26.979)">
                        <path id="패스_4631" d="M134.925 387.545a1.053 1.053 0 0 1-1.158-.906V350.42a1.19 1.19 0 0 1 2.312 0v36.219a1.052 1.052 0 0 1-1.154.906z" class="cls-4" transform="translate(-133.767 -349.51)"/>
                    </g>
                    <g id="그룹_3288" transform="translate(116.232 30.956)">
                        <path id="패스_4632" d="M124.513 385.491a1.055 1.055 0 0 1-1.155-.91v-28.263a1.19 1.19 0 0 1 2.313 0v28.263a1.059 1.059 0 0 1-1.158.91z" class="cls-4" transform="translate(-123.358 -355.408)"/>
                    </g>
                </g>
            </g>
            <g id="그룹_3337" transform="translate(9981 2530)">
                <circle id="타원_359" cx="25" cy="25" r="25" fill="#1b64c9" transform="translate(-9563 -185)"/>
                <path id="다각형_26" fill="#fff" d="M11.372 4.77a3 3 0 0 1 5.255 0l8.922 16.2a3 3 0 0 1-2.628 4.448H5.078a3 3 0 0 1-2.628-4.452z" transform="rotate(90 -4674.359 -4848.359)"/>
            </g>
            <g id="사각형_2673" class="cls-3" transform="translate(398 2455)">
                <rect width="748" height="143" class="cls-8" rx="10"/>
                <rect width="747" height="142" x=".5" y=".5" class="cls-9" rx="9.5"/>
            </g>
            <path id="패스_4736" d="M3.51 7a4.105 4.105 0 0 0-2.376 3.816c0 1.332.522 2.088 1.476 2.088a1.186 1.186 0 0 0 1.224-1.278 1.162 1.162 0 0 0-1.224-1.192.738.738 0 0 0-.2.018 2.831 2.831 0 0 1 1.64-2.52zm15.984-.85H17.64v11.88h1.854zM15.948 14a5.642 5.642 0 0 1-3.924-5.346V7.032h-1.89v1.62a5.975 5.975 0 0 1-3.978 5.634l.954 1.494a6.968 6.968 0 0 0 4-4.014 6.6 6.6 0 0 0 3.888 3.708zm-5.2 6.57v-3.656H8.874v5.166h11.088v-1.512zm14.22-6.948h5.562v-6.05h-7.436v1.512h5.6v3.042H23.13v6.426h1.332a40.8 40.8 0 0 0 7.686-.558l-.2-1.512a38.606 38.606 0 0 1-6.984.54zM37.6 12.45h-2.5V6.1h-1.872v16.3H35.1V14h2.5zm11.97.864c-.7.09-1.422.144-2.16.2a29.619 29.619 0 0 0 .432-5.418V7.32h-7.7v1.512h5.886a27.153 27.153 0 0 1-.486 4.788c-2.34.126-4.716.144-6.786.144l.234 1.53c1.26 0 2.646-.018 4.086-.072V21.5h1.872v-6.368c1.584-.072 3.186-.234 4.752-.432zm1.044-7.182v16.254h1.856V6.132zm5.994 6.714c2.862-.324 5.094-1.512 5.976-3.2.864 1.692 3.1 2.88 5.94 3.2l.666-1.458c-3.006-.306-5.112-1.638-5.364-3.132H68.6V6.762H56.592v1.494h4.734c-.27 1.494-2.358 2.808-5.364 3.132zm.252 5.742h9.414V22.4h1.856v-5.31H56.862zm6.624-4.41v-2.3h-1.852v2.3h-6.408v1.494h14.742v-1.494zM76.86 7.266c-2.538 0-4.41 1.6-4.41 3.906s1.872 3.906 4.41 3.906 4.428-1.6 4.428-3.906S79.4 7.266 76.86 7.266zm0 1.584a2.336 2.336 0 1 1-2.592 2.322A2.353 2.353 0 0 1 76.86 8.85zm6.264-2.736V22.4H85V6.114zm-11.2 12.852a56.58 56.58 0 0 0 10.35-.72l-.126-1.35a74.311 74.311 0 0 1-10.458.54zm30.24-7.074h1.692v4.482h1.764V6.114h-1.76v4.248h-1.692V6.42h-1.728v9.414h1.728zM99.882 7.95H96.75V6.276h-1.818V7.95h-3.15v1.458h8.1zm-5.85 4.968c0-.882.72-1.458 1.818-1.458 1.08 0 1.836.576 1.836 1.458s-.756 1.458-1.836 1.458c-1.098 0-1.818-.576-1.818-1.458zm5.31 0c0-1.674-1.44-2.808-3.492-2.808-2.034 0-3.474 1.134-3.474 2.808 0 1.692 1.44 2.808 3.474 2.808 2.05 0 3.492-1.116 3.492-2.808zm.882 8.064c-2.322 0-3.654-.522-3.654-1.494s1.332-1.476 3.654-1.476c2.34 0 3.636.5 3.636 1.476s-1.296 1.494-3.636 1.494zm0-4.374c-3.438 0-5.508 1.044-5.508 2.88s2.07 2.9 5.508 2.9 5.49-1.062 5.49-2.9-2.052-2.88-5.49-2.88zm17.476-3.366a37.42 37.42 0 0 1-6.984.522v-1.98h5.526V7.05h-7.38v1.494h5.544v1.836H108.9v4.9h1.314a41.479 41.479 0 0 0 7.686-.522zm-7.452 5.076h8.838V22.4h1.854v-5.58h-10.69zm13-8.136h-2.3v-4.05h-1.854v9.882h1.854v-4.3h2.3zm10.584.99h-3.744V8.2h3.744zm-5.6 0h-2.214v1.476h11.862v-1.476h-2.2V8.2h2.286V6.708h-12.038V8.2h2.3zm7.434 8.388c0 .936-1.332 1.422-3.726 1.422-2.376 0-3.708-.486-3.708-1.422 0-.918 1.332-1.4 3.708-1.4 2.394-.004 3.726.482 3.726 1.4zm3.654-4.122v-1.494h-14.706v1.494h6.426v1.332c-2.952.18-4.68 1.152-4.68 2.79 0 1.818 2.088 2.826 5.58 2.826 3.51 0 5.6-1.008 5.6-2.826 0-1.638-1.71-2.61-4.644-2.772v-1.35zm13.3-5v1.872h-3.94v1.512h3.942v1.868h1.854V6.132h-1.854v2.79h-3.348a9.191 9.191 0 0 0 .144-1.62h-7.38V8.8h5.4c-.324 2.538-2.43 4.536-6.246 5.6l.738 1.476c3.51-1.026 5.9-2.844 6.912-5.436zm-3.474 10.422c-2.2 0-3.582-.63-3.582-1.764 0-1.116 1.386-1.746 3.582-1.746 2.214 0 3.6.63 3.6 1.746.002 1.13-1.384 1.76-3.598 1.76zm0-4.968c-3.294 0-5.418 1.224-5.418 3.2 0 2 2.124 3.222 5.418 3.222s5.436-1.224 5.436-3.222c.002-1.98-2.14-3.204-5.434-3.204zm9.162-3.114a4.111 4.111 0 0 0 2.392-3.82c0-1.332-.54-2.088-1.476-2.088a1.164 1.164 0 0 0-1.206 1.278 1.143 1.143 0 0 0 1.206 1.17.612.612 0 0 0 .18-.018 2.838 2.838 0 0 1-1.62 2.538zm7.92 4.41c-1.116 0-1.8-1.458-1.8-4.032s.684-4.014 1.8-4.014 1.8 1.44 1.8 4.014-.682 4.028-1.798 4.028zm5.2-4.9h-1.746c-.2-3.042-1.512-4.9-3.456-4.9-2.106 0-3.492 2.2-3.492 5.76s1.386 5.778 3.492 5.778c1.98 0 3.312-1.944 3.474-5.112h1.728v7.794h1.728V6.438h-1.728zm3.258-6.156v16.236h1.764V6.132zm9.054 1.71v1.512h5.8c-.324 3.744-2.34 6.606-6.606 8.658l.99 1.476c5.58-2.7 7.524-6.8 7.524-11.646zm10.638-1.71v16.254h1.854V6.132zm6.462 12.924h9.468V22.3h1.854v-4.738h-11.318zm6.642-4.086v-1.476h4.918v-1.422h-9.5v-1.44h9.18V6.51h-11.038v1.422h9.2V9.3h-9.162v4.194h4.554v1.476h-6.444v1.494h14.74V14.97zm13.1-.522h2.61v-1.494h-5.238V9.21h5.094V7.7h-6.912v6.75h2.682v3.006c-1.278.036-2.484.054-3.456.054l.234 1.53a49.227 49.227 0 0 0 8.172-.558l-.108-1.35c-.936.126-1.98.2-3.078.252zm7.128-8.316v6.624h-1.6v-6.3h-1.74v15.138h1.746v-7.326h1.6v8.118h1.764V6.132zM236.466 21h7.56v-1.71h-2.592V7.752h-1.566a8.138 8.138 0 0 1-2.88 1.008v1.314h2.376v9.216h-2.9zm13.662.234c2.592 0 4.284-2.3 4.284-6.912 0-4.572-1.692-6.822-4.284-6.822-2.61 0-4.284 2.232-4.284 6.822 0 4.608 1.674 6.912 4.284 6.912zm0-1.638c-1.35 0-2.3-1.44-2.3-5.274 0-3.8.954-5.184 2.3-5.184s2.3 1.386 2.3 5.184c.004 3.834-.95 5.278-2.3 5.278zm10.08 1.638c2.592 0 4.284-2.3 4.284-6.912 0-4.572-1.692-6.822-4.284-6.822-2.61 0-4.284 2.232-4.284 6.822 0 4.608 1.676 6.912 4.284 6.912zm0-1.638c-1.35 0-2.3-1.44-2.3-5.274 0-3.8.954-5.184 2.3-5.184s2.3 1.386 2.3 5.184c.004 3.834-.95 5.278-2.3 5.278zm10.08 1.638c2.592 0 4.284-2.3 4.284-6.912 0-4.572-1.692-6.822-4.284-6.822-2.61 0-4.284 2.232-4.284 6.822-.004 4.608 1.674 6.912 4.284 6.912zm0-1.638c-1.35 0-2.3-1.44-2.3-5.274 0-3.8.954-5.184 2.3-5.184s2.3 1.386 2.3 5.184c.004 3.834-.95 5.278-2.3 5.278zm17.478-1.458h1.854V6.132h-1.854v1.98h-4.32v1.476h4.32v1.6h-4.32v1.476h4.32zm-2.52-4.356a36.837 36.837 0 0 1-6.318.54V7.248h-1.854v8.6h1.26a38.4 38.4 0 0 0 7.092-.558zm-4.32 6.786v-3.492h-1.854v5h10.962v-1.508zM309.8 6.15h-1.854v11.88h1.854zM306.252 14a5.642 5.642 0 0 1-3.924-5.346V7.032h-1.89v1.62a5.975 5.975 0 0 1-3.978 5.634l.954 1.494a6.968 6.968 0 0 0 4-4.014 6.6 6.6 0 0 0 3.888 3.708zm-5.2 6.57v-3.656h-1.872v5.166h11.088v-1.512zm14.22-6.948h5.562v-6.05H313.4v1.512h5.6v3.042h-5.562v6.426h1.332a40.8 40.8 0 0 0 7.686-.558l-.2-1.512a38.6 38.6 0 0 1-6.984.54zm12.636-1.17h-2.5V6.1h-1.872v16.3h1.864V14h2.5zm7.632 5.6h9.108V22.4h1.852v-5.85h-10.962zm6.03-6.03a3.952 3.952 0 0 0 .144-1.044 4.737 4.737 0 0 0-.126-1.044h3.06v2.088zm-4.086 1.332a2.386 2.386 0 1 1 2.466-2.376 2.331 2.331 0 0 1-2.468 2.372zm7.164-7.218v2.282h-3.852a4.356 4.356 0 0 0-3.312-1.4 3.969 3.969 0 1 0 0 7.92 4.234 4.234 0 0 0 3.312-1.4h3.852v2.214h1.852V6.114zM355.1 7.482h-1.85v2.664c0 3.006-1.584 6.084-4.122 7.326l1.134 1.494a8.4 8.4 0 0 0 3.924-5.094 8.1 8.1 0 0 0 3.744 4.788l1.134-1.476a7.888 7.888 0 0 1-3.96-7.038zm9.432 5.094H362V6.132h-1.854v16.254H362v-8.28h2.538zM376.83 8.9h-9.162v3.654h11.286v-1.3h-9.468V10.11h9.18V6.528h-11.034v1.278h9.2zm-7.47 10.782h9.36V16.05h-11.232v1.278h9.4v1.152h-9.36v3.726h11.682v-1.278h-9.85zm-3.582-6.1v1.368h14.742v-1.366zm20.9-6.21v1.514h5.67c-.324 2.574-2.628 4.68-6.354 5.814l.774 1.476c4.734-1.44 7.6-4.5 7.6-8.8zm3.618 9.342h-1.872v5.366h10.944v-1.512h-9.072zm8.424-5.832v-4.75h-1.854V17.9h1.854v-5.49h2.322v-1.53zm13.734 2.97a5.321 5.321 0 0 1-3.978-4.878V8.67h3.474V7.176h-8.892V8.67h3.528v.306a5.544 5.544 0 0 1-4.032 5.166l.972 1.458a6.638 6.638 0 0 0 4.032-3.762 6.35 6.35 0 0 0 3.96 3.456zm-7.6 4.392h9.108v4.14h1.854v-5.632h-10.96zm9.108-12.132v9.828h1.854V6.114zm14.454 1.872h-3.87v-1.87h-1.854v1.872h-3.87v1.476h9.594zm-6.966 5.31c0-1.026.882-1.638 2.16-1.638 1.3 0 2.178.612 2.178 1.638s-.882 1.638-2.178 1.638c-1.276.002-2.158-.61-2.158-1.632zm6.1 0c0-1.836-1.6-3.078-3.942-3.078-2.322 0-3.942 1.242-3.942 3.078 0 1.854 1.62 3.078 3.942 3.078 2.344.002 3.946-1.222 3.946-3.072zm-4.482 4.086H421.2v4.7h10.944v-1.512h-9.072zm8.424-6.066V6.132h-1.854v12.186h1.862v-5.472h2.3v-1.53zm19.17-.882v1.872h-3.942v1.512h3.942v1.874h1.854V6.132h-1.854v2.79h-3.348a9.193 9.193 0 0 0 .144-1.62h-7.38V8.8h5.4c-.324 2.538-2.43 4.536-6.246 5.6l.738 1.476c3.51-1.026 5.9-2.844 6.912-5.436zm-3.474 10.422c-2.2 0-3.582-.63-3.582-1.764 0-1.116 1.386-1.746 3.582-1.746 2.214 0 3.6.63 3.6 1.746.004 1.136-1.382 1.766-3.596 1.766zm0-4.968c-3.294 0-5.418 1.224-5.418 3.2 0 2 2.124 3.222 5.418 3.222s5.436-1.224 5.436-3.222c.004-1.974-2.138-3.198-5.432-3.198zm9.72-1.8a7.877 7.877 0 0 0 5.868-3.528 7.914 7.914 0 0 0 5.886 3.528l.666-1.458c-3.1-.414-5.382-2.2-5.49-4.086h4.914V7.05h-11.97v1.494h4.95c-.108 1.89-2.394 3.672-5.49 4.086zm13.23 1.188h-14.702v1.496h6.372v5.63h1.854v-5.63h6.462zm6.912-8.01c-2.538 0-4.41 1.6-4.41 3.906s1.872 3.906 4.41 3.906 4.428-1.6 4.428-3.906-1.886-3.904-4.424-3.904zm0 1.584a2.336 2.336 0 1 1-2.592 2.322 2.353 2.353 0 0 1 2.596-2.32zm6.264-2.736V22.4h1.872V6.114zm-11.2 12.852a56.58 56.58 0 0 0 10.35-.72l-.126-1.35a74.311 74.311 0 0 1-10.458.54zm23.112-7.524c0-1.764 1.746-2.88 4.176-2.88 2.412 0 4.158 1.116 4.158 2.88s-1.746 2.88-4.158 2.88c-2.422.002-4.168-1.114-4.168-2.878zm5.094 7.434v-3.1c2.97-.27 5.058-1.926 5.058-4.338 0-2.646-2.538-4.356-5.976-4.356-3.456 0-5.976 1.71-5.976 4.356 0 2.412 2.07 4.05 5.04 4.32v3.114h-6.408v1.512h14.732v-1.506zm10.4-5.094h4.284V7.806h-6.1v1.512h4.32v2.97h-4.274v6.336h1.1a32.918 32.918 0 0 0 5.976-.432l-.162-1.512a32.248 32.248 0 0 1-5.13.414zm9.81-7.65v6.282h-1.926V6.456h-1.734v15.12h1.746v-7.65h1.926v8.442h1.764V6.132zm17.676-.018h-1.854v12.224h1.854zm-3.006 8.334c-1.3.144-2.664.234-4.068.288V12.81h3.042V11.3h-6.048V8.652h5.974V7.14h-7.812v5.67h3.006v2c-1.548.054-3.06.072-4.41.072l.252 1.494a75.258 75.258 0 0 0 10.206-.576zm-5.85 6.12V17.49h-1.854v4.59h11.214v-1.512zm26.958-11.32a34.988 34.988 0 0 1-.63 7.434l1.872.2a37.221 37.221 0 0 0 .63-7.632v-1.6h-11.574v1.508h9.7zm-3.888 9.486v-5.724h-1.872v5.724h-5.472v1.53h14.688v-1.53zm20-6.966h-7.236V9.948h7.236zm1.836-5.13h-1.836v1.89h-7.236v-1.89h-1.836v6.588h10.908zm-9.162 11h-1.854v4.444h11.3v-1.512h-9.45zm-3.654-3.042v1.494h6.588v2.9h1.854v-2.9h6.3v-1.496zm20.052 2.592c-1.116 0-1.8-1.458-1.8-4.032s.684-4.014 1.8-4.014 1.8 1.44 1.8 4.014-.686 4.03-1.802 4.03zm5.2-4.9h-1.746c-.2-3.042-1.512-4.9-3.456-4.9-2.106 0-3.492 2.2-3.492 5.76s1.386 5.778 3.492 5.778c1.98 0 3.312-1.944 3.474-5.112h1.728v7.794h1.728V6.438h-1.728zm3.258-6.156v16.238h1.764V6.132zm10.15 1.316h-1.87v2.682c0 3.042-1.584 6.174-4.122 7.416l1.17 1.476a8.4 8.4 0 0 0 3.906-5.148 8.012 8.012 0 0 0 3.852 4.878l1.1-1.494c-2.484-1.152-4.032-4.1-4.032-7.128zm5.742-1.35v5.346h-3.472v1.512h3.474V22.4h1.872V6.1zm11.034 1.62h-1.854v10.62h1.35a39.418 39.418 0 0 0 7.722-.72l-.216-1.53a36.192 36.192 0 0 1-7 .7zm12.636 4.752h-2.466V6.132h-1.854v16.254h1.854V14h2.466zm5.04 4.9h-1.872v4.712h11.22v-1.512h-9.342zm-.252-7.492c0-1.152 1.476-1.8 3.888-1.8 2.394 0 3.87.648 3.87 1.8s-1.476 1.8-3.87 1.8c-2.41 0-3.888-.648-3.888-1.8zm4.806 4.77v-1.512c2.988-.2 4.878-1.4 4.878-3.258 0-2.052-2.286-3.294-5.8-3.294s-5.8 1.242-5.8 3.294c0 1.854 1.872 3.042 4.842 3.258v1.512h-6.408v1.494h14.706v-1.494zM9.2 45.948v-3.06H14v-1.476H4.626v-2.124H13.5V37.83H4.626v-1.962h9.234v-1.512H2.736v8.532h4.59v3.06H.918v1.53h14.724v-1.53zm9.018-11.106v1.512h5.8c-.324 3.744-2.34 6.606-6.606 8.658l.99 1.476c5.58-2.7 7.524-6.8 7.524-11.646zm10.638-1.71v16.254h1.854V33.132zm17.8 3.96H37.4v-2.034h9.09v-1.494H35.568v5.022h11.088zm-9.378 9.324h9.252v-4.032H35.406v1.422h9.306v1.26h-9.27v4.158H47v-1.44h-9.72zM33.7 39.7v1.5h14.7v-1.5zm23.7-4.93c2.52 0 3.87.486 3.87 1.422 0 .918-1.35 1.4-3.87 1.4s-3.87-.486-3.87-1.4c.002-.936 1.352-1.422 3.87-1.422zm0 4.212c3.636 0 5.8-.99 5.8-2.79 0-1.818-2.16-2.808-5.8-2.808-3.654 0-5.8.99-5.8 2.808.006 1.8 2.148 2.79 5.8 2.79zm-3.742 7.488h9.252v-3.888H51.786v1.4h9.306v1.17h-9.27v4.086h11.556V47.82h-9.72zm-3.618-6.534v1.476h14.724v-1.476zm25 4.428a2.268 2.268 0 1 1 2.27-2.264 2.164 2.164 0 0 1-2.268 2.264zm0-6.066a3.8 3.8 0 1 0 4.032 3.8 3.782 3.782 0 0 0-4.03-3.798zm.9-4.932h-1.852v2.268h-3.87v1.512h9.522v-1.512h-3.8zm9.486 6.3h-2.5v-6.534h-1.872V49.4h1.872v-8.19h2.5zm3.672-4.95h-1.852v10.62H88.6a39.419 39.419 0 0 0 7.722-.72l-.216-1.53a36.193 36.193 0 0 1-7 .7zm12.636 4.752H99.27v-6.336h-1.854v16.254h1.854V41h2.466zm12.24 1.134c-1.872-1.1-2.448-3.24-2.448-5.166v-1.368h-1.764v1.368a6.968 6.968 0 0 1-1.332 4.482 7.143 7.143 0 0 1-1.35-4.482v-1.368h-1.746v1.368a5.961 5.961 0 0 1-2.448 5.166l.99 1.314a5.475 5.475 0 0 0 2.322-3.168 5.49 5.49 0 0 0 2.232 3.348 5.494 5.494 0 0 0 2.232-3.258 5.2 5.2 0 0 0 2.3 3.078zm-8.55 4.32h9.45V49.4h1.854v-5.954h-11.3zm9.45-11.79v9.486h1.854v-9.486zm18.056 1.548h-3.87v-1.692h-1.854v1.692h-3.87v1.494h9.594zm-6.966 4.95c0-.918.864-1.476 2.16-1.476s2.178.558 2.178 1.476c0 .936-.882 1.494-2.178 1.494s-2.16-.558-2.16-1.494zm6.1 0c0-1.71-1.584-2.862-3.942-2.862-2.34 0-3.942 1.152-3.942 2.862 0 1.728 1.6 2.88 3.942 2.88 2.36 0 3.944-1.152 3.944-2.88zm2.106 8.082h-6.714v-1.494h6.714zm0-2.934h-6.714v-1.494h-1.836v5.9h10.386v-5.9h-1.836zm4.14-7.6h-2.3v-4.05h-1.854v9.486h1.854v-3.902h2.3zm7.2.18h3.42v-1.49h-3.4v-2.412h-1.872v2.412h-3.492v1.494h3.51v.938a7.408 7.408 0 0 1-4.014 6.588l1.026 1.422a7.871 7.871 0 0 0 3.924-4.788 7.677 7.677 0 0 0 3.906 4.536l1.008-1.44a7.079 7.079 0 0 1-4.014-6.318zm5.8-4.266v5.058h-3.06v1.512h3.06v1.858h-3.06v1.512h3.06V49.4h1.854V33.1zm8.262 5.346h7.7v2.664h-7.7zm4.77 7.434V42.6h4.77v-8.388h-1.836v2.736h-7.7v-2.736h-1.836V42.6h4.752v3.276h-6.408v1.53H170.8v-1.53zm10.908-11.16h-1.836v10.57h1.386a38.825 38.825 0 0 0 7.938-.774l-.2-1.548a37.646 37.646 0 0 1-7.29.738zm8.784-1.584v16.258h1.854V33.132zm13.41 11.232a2.268 2.268 0 1 1 2.266-2.26 2.164 2.164 0 0 1-2.268 2.264zm0-6.066a3.8 3.8 0 1 0 4.032 3.8 3.782 3.782 0 0 0-4.034-3.794zm.9-4.932h-1.854v2.268h-3.87v1.512h9.522v-1.508h-3.8zm9.486 6.3h-2.5v-6.53h-1.872V49.4h1.872v-8.19h2.5zm3.672-4.95h-1.854v10.62H211a39.419 39.419 0 0 0 7.722-.72l-.216-1.53a36.193 36.193 0 0 1-7 .7zm12.636 4.752h-2.468v-6.332h-1.854v16.254h1.854V41h2.466zm6.57-5.2c-2.538 0-4.41 1.6-4.41 3.906s1.872 3.906 4.41 3.906 4.428-1.6 4.428-3.906-1.892-3.904-4.43-3.904zm0 1.584a2.336 2.336 0 1 1-2.592 2.322 2.353 2.353 0 0 1 2.59-2.32zm6.264-2.736V49.4h1.872V33.114zm-11.2 12.852a56.58 56.58 0 0 0 10.35-.72L236 43.9a74.311 74.311 0 0 1-10.458.54zM256.68 36.5a36.637 36.637 0 0 1-.63 7.7l1.872.2a40.3 40.3 0 0 0 .612-7.9v-1.748h-11.25v1.494h9.4zm-10.962 9.09v1.53h14.706v-1.53zm26.226-5.49a40.719 40.719 0 0 1-7.182.486V38.73h5.562v-4.662h-7.434v1.494h5.616v1.746h-5.58V42.1h1.368a46.218 46.218 0 0 0 7.866-.486zm-5.274 4.968h7v2.646h-7zm-1.818 4.122h10.638v-5.6h-10.638zm8.784-16.074v9.664h1.854v-9.666zm16.344 0v16.306h1.872V33.114zm-6.786 1.206c-2.412 0-4.176 2.232-4.176 5.724 0 3.528 1.764 5.742 4.176 5.742 2.43 0 4.194-2.214 4.194-5.742 0-3.494-1.764-5.726-4.194-5.726zm0 1.674c1.422 0 2.412 1.53 2.412 4.05 0 2.556-.99 4.086-2.412 4.086-1.4 0-2.394-1.53-2.394-4.086 0-2.522.99-4.052 2.394-4.052zm18.108 1.08c0-1.116.954-1.836 2.3-1.836 1.368 0 2.286.72 2.286 1.836 0 1.134-.918 1.854-2.286 1.854-1.346-.002-2.302-.722-2.302-1.856zm7.344 4.194c-1.3.2-2.7.306-4.086.4v-1.4a3.3 3.3 0 0 0 3.06-3.186c0-1.926-1.656-3.24-4.014-3.24s-4.032 1.314-4.032 3.24a3.311 3.311 0 0 0 3.132 3.186v1.476c-1.458.054-2.844.054-4.014.054l.234 1.512a55.487 55.487 0 0 0 9.846-.684zm-5.85 3.24h-1.854v4.554h11.07v-1.496H302.8zm8.658-6.048V33.15H309.6v12.42h1.854v-5.58h2.232v-1.53zm15.264 4.248h1.854v-9.596h-1.854v3.258h-3.294v1.512h3.294zm-1.962-2.11a5.286 5.286 0 0 1-3.816-5.094V34h-1.872v1.6a5.688 5.688 0 0 1-4.032 5.454l.972 1.494a6.722 6.722 0 0 0 4.05-3.924 6.31 6.31 0 0 0 3.708 3.438zm-1.6 7.326c-2.3 0-3.618-.594-3.618-1.656s1.314-1.656 3.618-1.656 3.636.594 3.636 1.656-1.334 1.658-3.638 1.658zm0-4.77c-3.384 0-5.472 1.152-5.472 3.114s2.088 3.114 5.472 3.114c3.4 0 5.49-1.152 5.49-3.114s-2.09-3.112-5.492-3.112zm18.81-4.122h1.6V43.1h1.764v-9.99h-1.764v4.41h-1.6v-4.082h-1.728v9.576h1.728zm-2.448 1.8a26.823 26.823 0 0 1-2.88.252v-1.62h2.462v-1.492h-4.95V35.6h4.9v-1.5h-6.7v5.364h2.538v1.696c-1.3.054-2.538.054-3.492.054l.216 1.458a45.916 45.916 0 0 0 8.01-.558zm3.69 2.934h-1.818v.414a4.17 4.17 0 0 1-2.088 3.492 4.1 4.1 0 0 1-2.07-3.492v-.412h-1.782v.414a4.012 4.012 0 0 1-3.186 3.69l.864 1.368a5.266 5.266 0 0 0 3.222-2.736 5 5 0 0 0 2.97 2.88 5.229 5.229 0 0 0 2.97-2.9 5.13 5.13 0 0 0 3.24 2.754l.864-1.368a3.945 3.945 0 0 1-3.186-3.69zm18.576-5.778c-3.222-.414-5.616-2.2-5.616-4.068v-.63h-1.908v.63c0 1.89-2.358 3.654-5.616 4.068l.684 1.44a8.1 8.1 0 0 0 5.886-3.276 8.175 8.175 0 0 0 5.9 3.276zm-2.952 9.72H351.5v-1.744h7.326zm0-3.168H351.5v-1.654h-1.836v6.3h11.016v-6.3h-1.85zM347.85 40.4v1.48h14.724V40.4zm19.188-5.688H365.2v10.57h1.386a38.825 38.825 0 0 0 7.938-.774l-.2-1.548a37.646 37.646 0 0 1-7.29.738zm8.784-1.584v16.258h1.854V33.132zm7.308 3.042h5.706v-1.508h-7.56v10.746h1.332a40.117 40.117 0 0 0 7.6-.54l-.2-1.53a39.243 39.243 0 0 1-6.876.522zm12.618 3.2h-2.538v-6.256h-1.854V49.4h1.854v-8.5h2.538zm3.024 8.856a1.378 1.378 0 0 0 1.386-1.44 1.389 1.389 0 1 0-2.772 0 1.378 1.378 0 0 0 1.386 1.448zm9.774-9.108h-3.96v-3.664h3.96zm1.818-5.148h-7.614v6.63h7.614zm-4.122 12.258h8.64v-4.186h-10.494V43.5h8.658v1.386h-8.622v4.3h11v-1.474h-9.18zm8.64-9.774v-3.33h-1.854v8.216h1.854v-3.348h2.286v-1.53zm16.718 4.454a36.588 36.588 0 0 1-6.642.45v-2.07h5.364V37.83h-5.364V35.9h5.67v-1.49h-7.524v8.424h1.278a37.7 37.7 0 0 0 7.416-.468zm-4.9 3.186h-1.872v4.986h10.952v-1.512h-9.072zm8.424-6.012v-4.95h-1.854V45.21h1.854v-5.6h2.3v-1.53zm13.248-3.6h-1.854v2.664c0 3.006-1.584 6.084-4.122 7.326l1.134 1.494a8.4 8.4 0 0 0 3.924-5.094 8.1 8.1 0 0 0 3.744 4.788l1.134-1.476a7.888 7.888 0 0 1-3.96-7.038zm9.432 5.094h-2.538v-6.444h-1.846v16.254h1.854v-8.28h2.538zm10.71.486a37.42 37.42 0 0 1-6.984.522v-1.926h5.526v-4.68h-7.38v1.512h5.544v1.746h-5.5V42.1h1.314a41.479 41.479 0 0 0 7.686-.522zm-5.328 4.968h6.75v2.682h-6.75zm-1.818 4.158h10.386v-5.616h-10.378zm12.69-12.024h-2.3V33.15h-1.854v9.666h1.854v-4.122h2.3zm1.89 14.436a4.22 4.22 0 0 0 2.952-4.05c0-1.386-.594-2.232-1.6-2.232a1.345 1.345 0 0 0-1.44 1.332 1.3 1.3 0 0 0 1.386 1.332.738.738 0 0 0 .2-.018 2.794 2.794 0 0 1-1.962 2.466zm14.688-14.238h3.528v-1.494h-3.528v-2.412h-1.846v2.412h-3.6v1.494h3.6v.938a7.3 7.3 0 0 1-4.1 6.588l1.026 1.422a7.869 7.869 0 0 0 4.032-4.788 7.7 7.7 0 0 0 4.014 4.518l.99-1.44a7.026 7.026 0 0 1-4.1-6.3zm5.382-4.248v16.254h1.882V33.114zm7.254 3.078h3.942v7.668h-3.934zm-1.836 9.144h7.614v-10.62h-7.614zm14.562-5.85h-2.538v-6.354h-1.854V49.4h1.854v-8.384h2.538zm3.672-4.77h-1.854v10.62h1.35a39.419 39.419 0 0 0 7.722-.72l-.216-1.53a36.192 36.192 0 0 1-7 .7zm12.636 4.752h-2.466v-6.336h-1.854v16.254h1.854V41h2.466zm11.646 4.59h-4.032V40.08h4.032zm0-5.454h-4.032v-4.14h-1.854v11.088h7.734V34.464h-1.84zm8.676.774H550.1v-6.246h-1.854V49.4h1.854v-8.474h2.538zm7.254-3.1h3.618v-1.53h-9.1v1.53h3.618v1.552a7.949 7.949 0 0 1-4.194 6.984l1.062 1.476a8.384 8.384 0 0 0 4.086-5.112 7.966 7.966 0 0 0 4.1 4.7l1.026-1.458a7.333 7.333 0 0 1-4.212-6.588zm5.508-3.15v16.258h1.872V33.132zm15.92 2.772h-9.162v3.654h11.286v-1.3h-9.468V37.11h9.18v-3.582h-11.034v1.278h9.2zm-7.47 10.782h9.36V43.05h-11.232v1.278h9.4v1.152H572v3.726h11.682v-1.278h-9.842zm-3.582-6.1v1.368H585v-1.366zm31.806-7.452v8.73h1.854v-8.73zm-8.764 9.488v6.57h10.62v-6.57h-1.836v1.8h-6.948v-1.8zm1.836 3.24h6.948v1.836h-6.948zm.018-11.988c-2.484 0-4.32 1.548-4.32 3.78s1.836 3.78 4.32 3.78 4.3-1.548 4.3-3.78-1.818-3.78-4.302-3.78zm0 1.53a2.263 2.263 0 1 1-2.5 2.25 2.276 2.276 0 0 1 2.498-2.25zm19.1-.27c2.376 0 3.87.666 3.87 1.8 0 1.152-1.494 1.818-3.87 1.818-2.394 0-3.888-.666-3.888-1.818-.004-1.13 1.49-1.8 3.884-1.8zm0 5.112c3.51 0 5.8-1.242 5.8-3.312 0-2.052-2.286-3.294-5.8-3.294s-5.8 1.242-5.8 3.294c0 2.07 2.286 3.312 5.796 3.312zm-3.636 4.1h-1.872v4.738h11.214v-1.512h-9.342zm-3.726-2.79v1.512h14.706v-1.508zm31.32-2.628h-7.434v-3.452h7.434zM640.044 34h-11.106v6.426h11.106zm1.836 8.424h-14.742v1.494h6.39v5.472h1.854v-5.476h6.5zm8.964 5.544c-2.376 0-3.708-.5-3.708-1.494 0-.972 1.332-1.494 3.708-1.494s3.726.522 3.726 1.494c0 .986-1.35 1.49-3.726 1.49zm0-4.41c-3.492 0-5.6 1.062-5.6 2.916 0 1.872 2.106 2.916 5.6 2.916 3.51 0 5.6-1.044 5.6-2.916-.002-1.858-2.09-2.92-5.6-2.92zm-1.98-4.176a13.782 13.782 0 0 0 2.016.144 13.275 13.275 0 0 0 1.98-.144v1.656h-4zm2.016-4.536c2.412 0 3.87.576 3.87 1.62s-1.458 1.638-3.87 1.638c-2.43 0-3.888-.594-3.888-1.638s1.458-1.624 3.888-1.624zm3.834 6.192v-2.146a2.738 2.738 0 0 0 1.962-2.43c0-1.908-2.25-3.06-5.8-3.06-3.564 0-5.8 1.152-5.8 3.06a2.684 2.684 0 0 0 1.926 2.412v2.16h-3.492v1.476h14.706v-1.476zm19.26-1.908c-3.276-.468-5.724-2.5-5.724-4.608v-.864h-1.962v.864c0 2.142-2.412 4.14-5.724 4.608l.72 1.494a8.174 8.174 0 0 0 5.994-3.672 8.224 8.224 0 0 0 5.976 3.672zm.63 3.024h-14.688v1.512h6.372V49.4h1.854v-5.738h6.458zm2.2 9.45a4.22 4.22 0 0 0 2.952-4.05c0-1.386-.594-2.232-1.6-2.232a1.345 1.345 0 0 0-1.44 1.332 1.3 1.3 0 0 0 1.386 1.332.739.739 0 0 0 .2-.018 2.794 2.794 0 0 1-1.962 2.466zM11.88 63.5a36.637 36.637 0 0 1-.63 7.7l1.872.2a40.3 40.3 0 0 0 .612-7.9v-1.748H2.484v1.494h9.4zM.918 72.588v1.53h14.706v-1.53zm19.17-4.988h5.67v-6.03H18.18v1.512h5.706v3.024h-5.67v6.444H19.6a44.762 44.762 0 0 0 8.082-.576l-.2-1.512a46.537 46.537 0 0 1-7.4.558zm8.748-7.5v16.322h1.872V60.1zm16.074 3.15a34.988 34.988 0 0 1-.63 7.434l1.872.2a37.217 37.217 0 0 0 .63-7.632v-1.6H35.208v1.512h9.7zm-3.888 9.486v-5.728H39.15v5.724h-5.472v1.53h14.688v-1.53zm22.464-11.47H59.8v-1.3h-1.876v1.3h-3.708v1.278h9.27zm-6.768 3.816c0-.612.828-.954 2.124-.954 1.314 0 2.124.342 2.124.954 0 .63-.81.972-2.124.972-1.296 0-2.124-.342-2.124-.972zm7.218 2.574c-1.314.18-2.736.288-4.14.36v-.846c1.818-.18 2.916-.918 2.916-2.088 0-1.332-1.512-2.124-3.87-2.124s-3.87.792-3.87 2.124c0 1.17 1.116 1.908 2.952 2.088v.918c-1.494.036-2.916.036-4.14.036l.2 1.314a59.684 59.684 0 0 0 10.1-.648zm-6.12 6.174h8.838v-3.456h-10.71v1.26h8.874v1.026H55.98v3.582h11.268v-1.278h-9.432zm8.838-9.684v-4.014H64.8v9.558h1.854v-4.014h2.232v-1.53zm11-2.376c2.52 0 3.87.486 3.87 1.422 0 .918-1.35 1.4-3.87 1.4s-3.87-.486-3.87-1.4c-.002-.936 1.348-1.422 3.868-1.422zm0 4.212c3.636 0 5.8-.99 5.8-2.79 0-1.818-2.16-2.808-5.8-2.808-3.654 0-5.8.99-5.8 2.808.002 1.8 2.146 2.79 5.798 2.79zm-3.746 7.488h9.252v-3.888H72.036v1.4h9.306v1.17h-9.27v4.086h11.556V74.82h-9.72zm-3.618-6.534v1.476h14.724v-1.476zm33.246-2.844h-9.252v-2.034h9.09v-1.494H92.448v5.022h11.088zm-9.378 9.324h9.252v-4.032H92.286v1.422h9.306v1.26h-9.27v4.158h11.556v-1.44h-9.72zM90.576 66.7v1.5h14.706v-1.5zm27.594-3.456a34.988 34.988 0 0 1-.63 7.434l1.872.2a37.217 37.217 0 0 0 .63-7.632v-1.6h-11.574v1.512h9.7zm-3.888 9.486v-5.722h-1.872v5.724h-5.472v1.53h14.688v-1.53zm18.594-11.25h-1.854v2.664c0 3.006-1.584 6.084-4.122 7.326l1.134 1.494a8.4 8.4 0 0 0 3.924-5.094 8.1 8.1 0 0 0 3.742 4.79l1.134-1.476a7.888 7.888 0 0 1-3.96-7.038zm9.432 5.094h-2.538v-6.442h-1.854v16.254h1.854v-8.28h2.538zm15.156-1.474c-3.222-.414-5.6-2.268-5.6-4.158v-.612h-1.908v.612c0 1.926-2.358 3.744-5.6 4.158l.684 1.458a8.236 8.236 0 0 0 5.868-3.348 8.3 8.3 0 0 0 5.868 3.348zm-10.314 7.128h7.506v2.484h-7.506zm-1.836 3.96h11.16v-5.436h-11.16zm-1.764-8.514v1.494h14.706v-1.494zm27.9-7.56v16.308h1.872V60.114zm-6.786 1.206c-2.412 0-4.176 2.232-4.176 5.724 0 3.528 1.764 5.742 4.176 5.742 2.43 0 4.194-2.214 4.194-5.742 0-3.492-1.764-5.724-4.194-5.724zm0 1.674c1.422 0 2.412 1.53 2.412 4.05 0 2.556-.99 4.086-2.412 4.086-1.4 0-2.394-1.53-2.394-4.086 0-2.52.99-4.05 2.394-4.05zm14.076-1.278h-1.854v10.62h1.35a39.419 39.419 0 0 0 7.722-.72l-.216-1.53a36.194 36.194 0 0 1-7 .7zm12.636 4.752h-2.466v-6.336h-1.854v16.254h1.854V68h2.466zm18.972-6.354h-1.764v10.962h1.764zm-8.5 7.182h-2.9V62.94h2.9zm1.728-1.53h1.836v3.762h1.746v-9.072h-1.746v3.8h-1.832v-2.738h-6.354v7.2h6.354zm2.2 4.482h-1.854v.486c0 1.944-2.214 3.708-5.364 4.158l.684 1.44a7.817 7.817 0 0 0 5.616-3.24 7.774 7.774 0 0 0 5.58 3.24l.684-1.44c-3.132-.45-5.346-2.214-5.346-4.158zm12.186-1.8h2.61v-1.494h-5.238V63.21h5.094V61.7h-6.912v6.75h2.684v3.006c-1.278.036-2.484.054-3.456.054l.234 1.53a49.227 49.227 0 0 0 8.172-.558l-.108-1.35c-.936.126-1.98.2-3.078.252zm7.128-8.316v6.624h-1.6v-6.3h-1.746v15.138h1.746v-7.326h1.6v8.118h1.764V60.132zm10.242 3.15h3.618v-1.53h-9.108v1.53h3.618v1.548a7.949 7.949 0 0 1-4.194 6.984l1.062 1.476a8.384 8.384 0 0 0 4.086-5.112 7.967 7.967 0 0 0 4.1 4.7l1.026-1.458a7.333 7.333 0 0 1-4.212-6.588zm5.508-3.15v16.254h1.872V60.132zm15.912 2.768h-9.162v3.654h11.286v-1.3h-9.468V64.11h9.18v-3.582h-11.034v1.278h9.2zm-7.47 10.782h9.36V70.05H247.41v1.278h9.4v1.152h-9.36v3.726h11.682v-1.278h-9.846zm-3.582-6.1v1.368h14.742v-1.366zm25.956-6.1H269.8v2.664c0 3.006-1.584 6.084-4.122 7.326l1.134 1.494a8.4 8.4 0 0 0 3.924-5.094 8.1 8.1 0 0 0 3.744 4.788l1.134-1.476a7.888 7.888 0 0 1-3.96-7.038zm9.432 5.094h-2.538v-6.444h-1.85v16.254h1.854v-8.28h2.538zm10.62-.306a38.6 38.6 0 0 1-6.786.666v-5.85h-1.854v7.38h1.314a37.836 37.836 0 0 0 7.542-.7zm-1.926 8.658c-2.214 0-3.6-.666-3.6-1.746 0-1.116 1.386-1.764 3.6-1.764s3.6.648 3.6 1.764c0 1.08-1.382 1.746-3.6 1.746zm0-4.986c-3.294 0-5.436 1.224-5.436 3.24 0 1.98 2.142 3.222 5.436 3.222s5.436-1.242 5.436-3.222c0-2.016-2.142-3.24-5.436-3.24zm7.524-6.012V62.4h-2.25v-2.286h-1.872v9.612h1.872v-2.34h2.25v-1.53h-2.25V63.93zm6.156 7.434a2.268 2.268 0 1 1 2.268-2.264 2.164 2.164 0 0 1-2.268 2.264zm0-6.066a3.8 3.8 0 1 0 4.032 3.8 3.782 3.782 0 0 0-4.032-3.798zm.9-4.932h-1.854v2.268h-3.87v1.512h9.522v-1.512h-3.8zm9.486 6.3h-2.5v-6.534h-1.872V76.4h1.872v-8.19h2.5zm14.31-1.872h-9.306v-4.086H317v5.6h11.16zm-9.414 6.444h-1.854v4.788h11.358v-1.494h-9.5zm-3.654-2.988v1.494h14.76V68.25zm25.956-6.768h-1.854v2.664c0 3.006-1.584 6.084-4.122 7.326l1.134 1.494a8.4 8.4 0 0 0 3.924-5.094 8.1 8.1 0 0 0 3.744 4.788l1.134-1.476a7.888 7.888 0 0 1-3.96-7.038zm9.432 5.094h-2.538v-6.444h-1.854v16.254h1.854v-8.28h2.538zm10.71.486a37.42 37.42 0 0 1-6.984.522v-1.926h5.526v-4.68h-7.38v1.512h5.544v1.746h-5.508V69.1h1.314a41.479 41.479 0 0 0 7.686-.522zm-5.328 4.968h6.75v2.682h-6.75zm-1.818 4.158h10.386v-5.616h-10.386zm12.69-12.024h-2.3V60.15h-1.854v9.666h1.854v-4.122h2.3zm1.89 14.436a4.22 4.22 0 0 0 2.952-4.05c0-1.386-.594-2.232-1.6-2.232a1.345 1.345 0 0 0-1.44 1.332 1.3 1.3 0 0 0 1.386 1.332.738.738 0 0 0 .2-.018 2.794 2.794 0 0 1-1.962 2.466zm10.944-15.408h3.942v7.668h-3.942zm-1.836 9.144h7.614v-10.62h-7.614zm14.562-5.85h-2.538v-6.354H387.9V76.4h1.854v-8.384h2.538zm7.4-2.124h3.528v-1.494h-3.53v-2.412h-1.854v2.412h-3.6v1.494h3.6v.938a7.3 7.3 0 0 1-4.1 6.588l1.026 1.422a7.869 7.869 0 0 0 4.032-4.788 7.7 7.7 0 0 0 4.014 4.518l.99-1.44a7.025 7.025 0 0 1-4.1-6.3zm5.382-4.248v16.254h1.872V60.114zm19.962 3.132a34.988 34.988 0 0 1-.63 7.434l1.872.2a37.217 37.217 0 0 0 .63-7.632v-1.6h-11.576v1.512h9.7zm-3.888 9.486v-5.724h-1.872v5.724H413.8v1.53h14.69v-1.53zm23.742-4.662h-2.27a28.56 28.56 0 0 0 .414-5.526v-1.422h-11.088v1.494h9.27a24.733 24.733 0 0 1-.468 5.454h-10.566v1.53h6.354v6.786h1.872V69.6h6.48zm4.068-.486h5.31v-6.048H447.1v1.494h5.346v3.06h-5.31v6.61h1.242a42.089 42.089 0 0 0 7.074-.45l-.144-1.53a42.074 42.074 0 0 1-6.354.45zm9.216-7.488v3.618H455.2v1.512h2.97v2.916h-3.06v1.512h3.06V76.4h1.854V60.1zm19.872 3.15a34.988 34.988 0 0 1-.63 7.434l1.872.2a37.217 37.217 0 0 0 .63-7.632v-1.6h-11.576v1.512h9.7zm-3.888 9.486v-5.724h-1.872v5.724h-5.472v1.53H481.5v-1.53zm20-6.966h-7.236v-1.818h7.236zm1.836-5.13h-1.836v1.89h-7.236v-1.89h-1.836v6.588h10.904zm-9.162 11h-1.854v4.444h11.3v-1.512h-9.45zm-3.654-3.042v1.494h6.588v2.9h1.854v-2.9h6.3v-1.496zm18.9 3.528h9.108V76.4h1.854v-5.774h-10.966zm5.724-6.156v-1.82h3.384v1.818zm-1.818 1.53h-3.834v-2.468h3.834zm5.2-7.362v2.5H507.8v-1.548h-1.82v2.5h-3.834v-2.5h-1.836v7.9h7.49v-1.53h3.384v2.358h1.854v-9.682zM525.708 62h-3.888v-1.832h-1.854V62h-3.924v1.5h9.666zm-6.966 5.346c0-1.008.882-1.62 2.16-1.62s2.142.612 2.142 1.62c0 .99-.864 1.6-2.142 1.6s-2.16-.606-2.16-1.596zm3.078 2.954c1.8-.288 2.97-1.4 2.97-2.952 0-1.836-1.584-3.042-3.888-3.042-2.322 0-3.906 1.206-3.906 3.042 0 1.548 1.17 2.646 2.97 2.952v1.584c-1.512.054-2.97.054-4.212.054l.252 1.53a59.317 59.317 0 0 0 10.026-.648l-.144-1.368c-1.3.2-2.682.288-4.068.36zm9.162-3.384h-2.322v-6.8h-1.854v16.27h1.854v-7.938h2.322zm12.384-4.016H534.2v3.654h11.29v-1.3h-9.468V64.11h9.18v-3.582h-11.034v1.278h9.2zM535.9 73.686h9.36V70.05h-11.236v1.278h9.4v1.152h-9.36v3.726h11.682v-1.278H535.9zm-3.582-6.1v1.368h14.742v-1.37zm23.76-2.142h7.7v2.664h-7.7zm4.77 7.434V69.6h4.77v-8.388h-1.836v2.736h-7.7v-2.736h-1.836V69.6h4.752v3.276h-6.408v1.53h14.724v-1.53zm21.168-8.082h-9.306v-4.088h-1.854v5.6h11.16zm-9.416 6.442h-1.854v4.788H582.1v-1.494h-9.5zm-3.654-2.988v1.494H583.7V68.25zm31.878 2.79h1.854V60.132h-1.854v4.446h-3.2v1.53h3.2zm-10.584-9.648v1.494h5.328c-.306 2.61-2.376 4.662-6.12 5.832l.774 1.44c4.752-1.512 7.326-4.464 7.326-8.766zm8.01 8.352h-1.854v.63c0 2.142-2.142 3.978-5.274 4.518l.72 1.458a7.683 7.683 0 0 0 5.49-3.438 7.591 7.591 0 0 0 5.436 3.4l.738-1.458c-3.132-.522-5.256-2.358-5.256-4.482zm13.158-5.382h3.438v-1.494h-3.42v-2.412h-1.872v2.412h-3.494v1.494h3.51v.938a7.387 7.387 0 0 1-4.014 6.588l1.026 1.44a7.861 7.861 0 0 0 3.924-4.788 7.761 7.761 0 0 0 3.942 4.5l.972-1.422a7.12 7.12 0 0 1-4.014-6.318zm5.812-4.262v6.426H614v1.512h3.222v8.388h1.854V60.1zm13.88 7.07a40.79 40.79 0 0 1-6.66.45v-1.962h5.418v-4.734h-7.272v1.512h5.436v1.818h-5.4v4.878h1.278a44.57 44.57 0 0 0 7.344-.45zm-4.572 4.806h7.092v2.736h-7.092zm-1.818 4.212h10.728V70.5h-10.73zm8.874-16.038v3.51h-2.808v1.494h2.808v4.536h1.854v-9.54zm18.916 5.67h1.71v4.3h1.764v-9.97h-1.764v4.158h-1.71v-3.87h-1.746V69.6h1.746zm-2.124 1.764a4.729 4.729 0 0 1-3.168-4.41v-2.052h-1.8v2.052a5.439 5.439 0 0 1-3.276 4.878l.972 1.422a6.1 6.1 0 0 0 3.222-3.438 5.624 5.624 0 0 0 3.06 2.934zm.18 7.38c-2.286 0-3.654-.558-3.654-1.548 0-1.008 1.368-1.566 3.654-1.566s3.654.558 3.654 1.566c0 .99-1.368 1.548-3.654 1.548zm0-4.536c-3.384 0-5.508 1.116-5.508 2.988 0 1.854 2.124 2.97 5.508 2.97s5.508-1.116 5.508-2.97c0-1.872-2.124-2.988-5.508-2.988zm18.324-4.608h1.71v4.3h1.764v-9.97h-1.764v4.158h-1.71v-3.87h-1.746V69.6h1.746zm-2.124 1.764a4.729 4.729 0 0 1-3.168-4.41v-2.052h-1.8v2.052a5.439 5.439 0 0 1-3.276 4.878l.972 1.422a6.1 6.1 0 0 0 3.222-3.438 5.624 5.624 0 0 0 3.06 2.934zm.18 7.38c-2.286 0-3.654-.558-3.654-1.548 0-1.008 1.368-1.566 3.654-1.566s3.654.558 3.654 1.566c0 .99-1.368 1.548-3.654 1.548zm0-4.536c-3.384 0-5.508 1.116-5.508 2.988 0 1.854 2.124 2.97 5.508 2.97s5.508-1.116 5.508-2.97c0-1.872-2.124-2.988-5.508-2.988zm12.78.936a2.268 2.268 0 1 1 2.268-2.268 2.164 2.164 0 0 1-2.268 2.268zm0-6.066a3.8 3.8 0 1 0 4.032 3.8 3.782 3.782 0 0 0-4.032-3.798zm.9-4.932h-1.854v2.268h-3.87v1.512h9.522v-1.512h-3.8zm9.486 6.3h-2.5v-6.534h-1.872V76.4h1.87v-8.19h2.5zm12.492-3.42a34.988 34.988 0 0 1-.63 7.434l1.872.2a37.221 37.221 0 0 0 .63-7.632v-1.6h-11.574v1.512h9.7zm-3.888 9.486v-5.724h-1.872v5.724h-5.472v1.53h14.688v-1.53zM3.42 90.174h5.706v-1.512h-7.56v10.746H2.9a40.117 40.117 0 0 0 7.6-.54l-.2-1.53a39.243 39.243 0 0 1-6.876.522zm12.618 3.2H13.5v-6.26h-1.854V103.4H13.5v-8.5h2.538zm6.138-1.836h2.844V90.03h-2.844v-2.34h-1.764v2.34H17.55v1.512h2.862v.558c0 2.574-1.1 5.346-3.312 6.66l1.062 1.386a7.455 7.455 0 0 0 3.15-4.428 6.95 6.95 0 0 0 3.168 4.05l1.026-1.386a6.977 6.977 0 0 1-3.33-6.282zm7.308-4.41v6.412H27.7v-6.1h-1.744v15.19H27.7v-7.56h1.782v8.316h1.764V87.132zm12.456 12.82v-2.772h5.076v-1.494h-9.738v-2.268h9.378v-5.148H35.424v1.494h9.4v2.178H35.46v5.238h4.626v2.772h-6.408v1.53H48.4v-1.53zm16.6-4.7v1.3h3.132v.81h1.854V87.15h-1.858v8.1zm-3.294-6.462c1.4 0 2.286.45 2.286 1.224 0 .792-.882 1.242-2.286 1.242-1.422 0-2.3-.45-2.3-1.242-.008-.772.874-1.222 2.296-1.222zm0 3.78c2.43 0 4.014-.972 4.014-2.556 0-1.566-1.584-2.538-4.014-2.538-2.448 0-4.032.972-4.032 2.538-.004 1.59 1.58 2.558 4.028 2.558zm-1.026 4.716h1.85v-2.59a36.52 36.52 0 0 0 4.446-.5l-.144-1.3a81.626 81.626 0 0 1-10.4.54l.216 1.458c1.224 0 2.574-.018 4.032-.09zm7.506.648H59.9v.27a4.051 4.051 0 0 1-2.088 3.4 3.948 3.948 0 0 1-2.07-3.4v-.27h-1.8v.27c0 1.512-1.116 3.006-3.186 3.636l.846 1.35a5.182 5.182 0 0 0 3.24-2.682 4.919 4.919 0 0 0 2.97 2.826 4.979 4.979 0 0 0 2.988-2.844 5.1 5.1 0 0 0 3.258 2.7l.846-1.35c-2.088-.612-3.186-2.07-3.186-3.636zm18.63-5.94c-3.222-.414-5.616-2.2-5.616-4.068v-.63h-1.912v.63c0 1.89-2.358 3.654-5.616 4.068l.684 1.44a8.1 8.1 0 0 0 5.886-3.276 8.175 8.175 0 0 0 5.9 3.276zm-2.952 9.72h-7.33v-1.744H77.4zm0-3.168h-7.33v-1.654h-1.836v6.3h11.016v-6.3H77.4zM66.42 94.4v1.48h14.724V94.4zm19.188-5.688h-1.836v10.57h1.386a38.825 38.825 0 0 0 7.938-.774l-.2-1.548a37.646 37.646 0 0 1-7.29.738zm8.784-1.584v16.254h1.854v-16.25zm7.308 3.042h5.706v-1.508h-7.56v10.746h1.332a40.117 40.117 0 0 0 7.6-.54l-.2-1.53a39.243 39.243 0 0 1-6.876.522zm12.618 3.2h-2.538v-6.256h-1.854V103.4h1.854v-8.5h2.538zm3.024 8.856a1.378 1.378 0 0 0 1.386-1.44 1.389 1.389 0 1 0-2.772 0 1.378 1.378 0 0 0 1.386 1.448z" class="cls-2" transform="translate(418 2475)"/>
            <path id="패스_4737" d="M14.058-11.66H6.16v-1.826h7.9zm2.882-6.072h-2.882v2.068H6.16v-2.068H3.278v8.338H16.94zM5.962-4.026h-2.9V1.54H17.27V-.77H5.962zM.924-7.986V-5.7H8.91v3.19h2.9V-5.7h7.48v-2.286zm33.33-5.984H23.1v6.05h14.586v-2.31H26.07v-1.606H37.2v-5.918H23.078v2.31h11.176zm5.06 7.48H20.966v2.31h4.224v6.094h2.926V-4.18h4.07v6.094h2.926V-4.18h4.2zM59.8-13.64v1.74h-4.492v2.178H59.8v1.518h2.9V-18.37h-2.9v2.552h-3.722a11.709 11.709 0 0 0 .132-1.782h-9.042v2.31h5.852c-.352 2.376-2.42 4.312-7.018 5.214l.968 2.332c4.444-.968 7.3-2.882 8.536-5.9zM52.272-.594V-1.87H62.7v-5.588H49.346v2.288H59.8v1.144H49.368v5.72h13.75V-.594zm24.244-6.358a44.075 44.075 0 0 0 .55-7.766v-1.65H66.638v2.31h7.568a41.259 41.259 0 0 1-.528 6.864zm-4.422-3.608h-2.86v5.984c-1.276.022-2.508.022-3.63.022l.264 2.376a77.336 77.336 0 0 0 12.166-.814l-.154-2.09c-1.848.22-3.828.352-5.786.418zm12.342.33h-2.728v-8.162H78.8V1.87h2.9v-9.68h2.728zm3.982 2.178a2.007 2.007 0 0 0 2.024-2.09 2.013 2.013 0 0 0-2.024-2.112 2.009 2.009 0 0 0-2 2.112 2 2 0 0 0 2 2.09zm0 8.36A2.026 2.026 0 0 0 90.442-1.8a2.026 2.026 0 0 0-2.024-2.112 2.022 2.022 0 0 0-2 2.112 2.022 2.022 0 0 0 2 2.108zm25.124-11.99h-11.4v-5.544h-2.284v7.392h13.684zm2.068 4.4H97.636v1.848h4.4v7.15h2.264v-7.15h4.62v7.15h2.266v-7.15h4.422zm19.272-1.188c-3.916-.7-7.106-3.762-7.106-6.93v-1.5h-2.4v1.5c0 3.146-3.19 6.2-7.106 6.93l.968 1.87a10.4 10.4 0 0 0 7.326-5.456 10.4 10.4 0 0 0 7.328 5.456zm-17.226 5.742v1.87h18v-1.87zm19.162 6.688h1.76l6.116-21.516h-1.76zm16.17-20.482h-2.266v3.256c0 3.674-1.936 7.436-5.038 8.954l1.386 1.826a10.266 10.266 0 0 0 4.8-6.226 9.9 9.9 0 0 0 4.576 5.852l1.386-1.8c-2.992-1.474-4.84-5.06-4.84-8.6zm11.528 6.222h-3.1v-7.876h-2.266v19.87h2.266v-10.12h3.1zm14.058-5.566h-4.862v-2.284h-2.266v2.288h-4.884v1.826h12.012zm-8.69 6.49c0-1.21 1.1-1.958 2.706-1.958 1.584 0 2.684.748 2.684 1.958 0 1.232-1.1 1.98-2.684 1.98-1.606.004-2.706-.744-2.706-1.976zm3.828 3.63c2.244-.352 3.718-1.694 3.718-3.63 0-2.222-1.98-3.7-4.84-3.7-2.882 0-4.862 1.474-4.862 3.7 0 1.914 1.474 3.278 3.718 3.63v1.936c-1.87.066-3.7.066-5.28.066l.286 1.87a77.31 77.31 0 0 0 12.694-.814l-.154-1.65c-1.694.242-3.5.352-5.28.462zm6.4-12.452V1.694h2.288v-19.888z" class="cls-2" transform="translate(961 2648)"/>
        </g>
    </g>
</svg>
