<svg xmlns="http://www.w3.org/2000/svg" width="848" height="496" viewBox="0 0 848 496">
    <defs>
        <style>
            .cls-2{fill:#f4fdff;stroke:#1054b2}.cls-3{fill:#2248f4}.cls-7{fill:#03020f}.cls-8{stroke:none}.cls-9{fill:none}
        </style>
    </defs>
    <g id="img_audiosegmentation" transform="translate(-354 -817)">
        <g id="img_audiosegmentation-2">
            <g id="img_boundingbox" fill="#fff" stroke="#c1d5e8" transform="translate(354 817)">
                <rect width="848" height="496" class="cls-8" rx="10"/>
                <rect width="847" height="495" x=".5" y=".5" class="cls-9" rx="9.5"/>
            </g>
            <g id="사각형_2649" class="cls-2" transform="translate(404 942)">
                <rect width="748" height="123" class="cls-8" rx="10"/>
                <rect width="747" height="122" x=".5" y=".5" class="cls-9" rx="9.5"/>
            </g>
            <g id="그룹_3290" transform="translate(526.456 672.045) translate(-12.003 285.955)">
                <g id="그룹_3223">
                    <g id="그룹_3158" transform="translate(286.057)">
                        <path id="패스_4503" d="M322.29 377.949c-.638 0-1.158-.3-1.158-.676v-90.644c0-.373.52-.674 1.158-.674s1.155.3 1.155.674v90.644c0 .373-.516.676-1.155.676z" class="cls-3" transform="translate(-321.132 -285.955)"/>
                    </g>
                    <g id="그룹_3159" transform="translate(294.999 12.192)">
                        <path id="패스_4504" d="M332.7 371.643c-.639 0-1.155-.278-1.155-.619V304.65c0-.341.516-.617 1.155-.617s1.157.276 1.157.617v66.374c0 .341-.519.619-1.157.619z" class="cls-3" transform="translate(-331.545 -304.033)"/>
                    </g>
                    <g id="그룹_3160" transform="translate(303.936 12.906)">
                        <path id="패스_4505" d="M343.107 392.049c-.638 0-1.154-.384-1.154-.858v-64.462c0-.474.516-.861 1.154-.861s1.158.387 1.158.861v64.462c0 .475-.516.858-1.158.858z" class="cls-3" transform="translate(-341.953 -325.868)"/>
                    </g>
                    <g id="그룹_3161" transform="translate(312.873 21.506)">
                        <path id="패스_4506" d="M353.519 390.379a1.059 1.059 0 0 1-1.158-.91V342.3a1.191 1.191 0 0 1 2.312 0v47.167a1.055 1.055 0 0 1-1.154.912z" class="cls-3" transform="translate(-352.361 -341.396)"/>
                    </g>
                    <g id="그룹_3162" transform="translate(321.81 28.111)">
                        <path id="패스_4507" d="M363.927 386.96a1.056 1.056 0 0 1-1.158-.91V352.1a1.193 1.193 0 0 1 2.317 0v33.951a1.057 1.057 0 0 1-1.159.909z" class="cls-3" transform="translate(-362.769 -351.189)"/>
                    </g>
                    <g id="그룹_3163" transform="translate(330.751 32.41)">
                        <path id="패스_4508" d="M374.335 384.739a1.055 1.055 0 0 1-1.154-.91V358.47a1.191 1.191 0 0 1 2.313 0v25.359a1.059 1.059 0 0 1-1.159.91z" class="cls-3" transform="translate(-373.181 -357.564)"/>
                    </g>
                    <g id="그룹_3164" transform="translate(339.688 21.751)">
                        <path id="패스_4509" d="M384.748 390.252a1.057 1.057 0 0 1-1.159-.91v-46.676a1.191 1.191 0 0 1 2.313 0v46.676a1.055 1.055 0 0 1-1.154.91z" class="cls-3" transform="translate(-383.589 -341.76)"/>
                    </g>
                    <g id="그룹_3165" transform="translate(348.625 28.054)">
                        <path id="패스_4510" d="M395.155 386.992a1.059 1.059 0 0 1-1.158-.91v-34.071a1.193 1.193 0 0 1 2.317 0v34.071a1.058 1.058 0 0 1-1.159.91z" class="cls-3" transform="translate(-393.997 -351.105)"/>
                    </g>
                    <g id="그룹_3166" transform="translate(357.567 13.851)">
                        <path id="패스_4511" d="M405.564 391.563c-.638 0-1.154-.386-1.154-.86v-62.575c0-.474.516-.857 1.154-.857s1.158.383 1.158.857V390.7c0 .477-.522.863-1.158.863z" class="cls-3" transform="translate(-404.41 -327.271)"/>
                    </g>
                    <g id="그룹_3167" transform="translate(366.504 23.362)">
                        <path id="패스_4512" d="M415.972 389.418a1.054 1.054 0 0 1-1.154-.91v-43.453a1.19 1.19 0 0 1 2.312 0v43.453a1.056 1.056 0 0 1-1.158.91z" class="cls-3" transform="translate(-414.818 -344.148)"/>
                    </g>
                    <g id="그룹_3168" transform="translate(527.392 22.453)">
                        <path id="패스_4513" d="M603.342 389.886a1.057 1.057 0 0 1-1.158-.907v-45.27a1.19 1.19 0 0 1 2.312 0v45.27a1.052 1.052 0 0 1-1.154.907z" class="cls-3" transform="translate(-602.184 -342.799)"/>
                    </g>
                    <g id="그룹_3169" transform="translate(536.329 32.005)">
                        <path id="패스_4514" d="M613.75 384.948a1.058 1.058 0 0 1-1.158-.91V357.87a1.193 1.193 0 0 1 2.317 0v26.168a1.058 1.058 0 0 1-1.159.91z" class="cls-3" transform="translate(-612.592 -356.964)"/>
                    </g>
                    <g id="그룹_3170" transform="translate(545.271 37.036)">
                        <path id="패스_4515" d="M624.159 382.343a1.052 1.052 0 0 1-1.154-.906v-16.1a1.189 1.189 0 0 1 2.312 0v16.1a1.056 1.056 0 0 1-1.158.906z" class="cls-3" transform="translate(-623.005 -364.423)"/>
                    </g>
                    <g id="그룹_3171" transform="translate(554.207 42.863)">
                        <path id="패스_4516" d="M634.57 379.328a1.056 1.056 0 0 1-1.158-.906v-4.449a1.19 1.19 0 0 1 2.313 0v4.449a1.052 1.052 0 0 1-1.155.906z" class="cls-3" transform="translate(-633.412 -373.063)"/>
                    </g>
                    <g id="그룹_3172" transform="translate(563.144 40.95)">
                        <path id="패스_4517" d="M644.978 380.321a1.059 1.059 0 0 1-1.158-.91v-8.278a1.193 1.193 0 0 1 2.317 0v8.278a1.058 1.058 0 0 1-1.159.91z" class="cls-3" transform="translate(-643.82 -370.227)"/>
                    </g>
                    <g id="그룹_3173" transform="translate(572.115 42.816)">
                        <path id="패스_4518" d="M655.425 379.356a1.057 1.057 0 0 1-1.158-.91V373.9a1.191 1.191 0 0 1 2.313 0v4.546a1.052 1.052 0 0 1-1.155.91z" class="cls-3" transform="translate(-654.267 -372.994)"/>
                    </g>
                    <g id="그룹_3174" transform="translate(464.824 37.315)">
                        <path id="패스_4519" d="M530.477 382.2a1.057 1.057 0 0 1-1.158-.906v-15.548a1.19 1.19 0 0 1 2.313 0v15.546a1.052 1.052 0 0 1-1.155.908z" class="cls-3" transform="translate(-529.319 -364.836)"/>
                    </g>
                    <g id="그룹_3175" transform="translate(473.761 28.449)">
                        <path id="패스_4520" d="M540.885 386.788a1.058 1.058 0 0 1-1.158-.91V352.6a1.193 1.193 0 0 1 2.317 0v33.28a1.059 1.059 0 0 1-1.159.908z" class="cls-3" transform="translate(-539.727 -351.691)"/>
                    </g>
                    <g id="그룹_3176" transform="translate(482.703 36.202)">
                        <path id="패스_4521" d="M551.294 382.777a1.055 1.055 0 0 1-1.154-.91v-17.774a1.191 1.191 0 0 1 2.312 0v17.774a1.059 1.059 0 0 1-1.158.91z" class="cls-3" transform="translate(-550.14 -363.187)"/>
                    </g>
                    <g id="그룹_3177" transform="translate(491.64 13.851)">
                        <path id="패스_4522" d="M561.706 391.563c-.643 0-1.158-.386-1.158-.86v-62.575c0-.474.515-.857 1.158-.857s1.154.383 1.154.857V390.7c0 .477-.516.863-1.154.863z" class="cls-3" transform="translate(-560.548 -327.271)"/>
                    </g>
                    <g id="그룹_3178" transform="translate(500.576 19.919)">
                        <path id="패스_4523" d="M572.113 391.2a1.059 1.059 0 0 1-1.158-.91v-50.341a1.191 1.191 0 0 1 2.313 0v50.341a1.054 1.054 0 0 1-1.155.91z" class="cls-3" transform="translate(-570.955 -339.043)"/>
                    </g>
                    <g id="그룹_3179" transform="translate(509.518 33.599)">
                        <path id="패스_4524" d="M582.522 384.12a1.054 1.054 0 0 1-1.154-.91v-22.973a1.19 1.19 0 0 1 2.312 0v22.974a1.058 1.058 0 0 1-1.158.909z" class="cls-3" transform="translate(-581.368 -359.327)"/>
                    </g>
                    <g id="그룹_3180" transform="translate(518.455 37.315)">
                        <path id="패스_4525" d="M592.93 382.2a1.052 1.052 0 0 1-1.154-.906v-15.548a1.19 1.19 0 0 1 2.313 0v15.546a1.053 1.053 0 0 1-1.159.908z" class="cls-3" transform="translate(-591.776 -364.836)"/>
                    </g>
                    <g id="그룹_3181" transform="translate(375.441 27.194)">
                        <path id="패스_4526" d="M426.384 387.433a1.056 1.056 0 0 1-1.158-.906v-35.791a1.191 1.191 0 0 1 2.312 0v35.791a1.052 1.052 0 0 1-1.154.906z" class="cls-3" transform="translate(-425.226 -349.83)"/>
                    </g>
                    <g id="그룹_3182" transform="translate(384.377 15.9)">
                        <path id="패스_4527" d="M436.792 372.5c-.639 0-1.159-.278-1.159-.62v-58.957c0-.342.52-.618 1.159-.618s1.158.276 1.158.618v58.957c.001.342-.52.62-1.158.62z" class="cls-3" transform="translate(-435.633 -312.305)"/>
                    </g>
                    <g id="그룹_3183" transform="translate(393.32 21.751)">
                        <path id="패스_4528" d="M447.2 390.252a1.054 1.054 0 0 1-1.154-.91v-46.676a1.19 1.19 0 0 1 2.312 0v46.676a1.058 1.058 0 0 1-1.158.91z" class="cls-3" transform="translate(-446.047 -341.76)"/>
                    </g>
                    <g id="그룹_3184" transform="translate(402.256 16.259)">
                        <path id="패스_4529" d="M457.612 393.093a1.059 1.059 0 0 1-1.158-.91v-57.656a1.19 1.19 0 0 1 2.312 0v57.656a1.054 1.054 0 0 1-1.154.91z" class="cls-3" transform="translate(-456.454 -333.617)"/>
                    </g>
                    <g id="그룹_3185" transform="translate(411.193 26.447)">
                        <path id="패스_4530" d="M468.02 387.82a1.057 1.057 0 0 1-1.158-.906v-37.282a1.192 1.192 0 0 1 2.317 0v37.282a1.057 1.057 0 0 1-1.159.906z" class="cls-3" transform="translate(-466.862 -348.722)"/>
                    </g>
                    <g id="그룹_3186" transform="translate(420.135 34.174)">
                        <path id="패스_4531" d="M478.429 383.824a1.052 1.052 0 0 1-1.154-.906v-21.83a1.19 1.19 0 0 1 2.312 0v21.829a1.056 1.056 0 0 1-1.158.907z" class="cls-3" transform="translate(-477.275 -360.179)"/>
                    </g>
                    <g id="그룹_3187" transform="translate(429.072 36.246)">
                        <path id="패스_4532" d="M488.841 382.751a1.053 1.053 0 0 1-1.158-.906v-17.684a1.19 1.19 0 0 1 2.312 0v17.684a1.052 1.052 0 0 1-1.154.906z" class="cls-3" transform="translate(-487.683 -363.251)"/>
                    </g>
                    <g id="그룹_3188" transform="translate(438.009 19.644)">
                        <path id="패스_4533" d="M499.249 391.339a1.056 1.056 0 0 1-1.158-.91v-50.885a1.19 1.19 0 0 1 2.312 0v50.886a1.052 1.052 0 0 1-1.154.909z" class="cls-3" transform="translate(-498.091 -338.634)"/>
                    </g>
                    <g id="그룹_3189" transform="translate(446.95 26.979)">
                        <path id="패스_4534" d="M509.657 387.545a1.052 1.052 0 0 1-1.154-.906V350.42a1.19 1.19 0 0 1 2.312 0v36.219a1.056 1.056 0 0 1-1.158.906z" class="cls-3" transform="translate(-508.503 -349.51)"/>
                    </g>
                    <g id="그룹_3190" transform="translate(455.887 30.956)">
                        <path id="패스_4535" d="M520.065 385.491a1.055 1.055 0 0 1-1.154-.91v-28.263a1.19 1.19 0 0 1 2.312 0v28.263a1.056 1.056 0 0 1-1.158.91z" class="cls-3" transform="translate(-518.911 -355.408)"/>
                    </g>
                    <g id="그룹_3191" transform="translate(277.121 12.192)">
                        <path id="패스_4536" d="M311.883 371.643c-.642 0-1.157-.278-1.157-.619V304.65c0-.341.515-.617 1.157-.617s1.155.276 1.155.617v66.374c-.001.341-.517.619-1.155.619z" class="cls-3" transform="translate(-310.725 -304.033)"/>
                    </g>
                    <g id="그룹_3192" transform="translate(268.184 12.906)">
                        <path id="패스_4537" d="M301.471 392.049c-.638 0-1.154-.384-1.154-.858v-64.462c0-.474.516-.861 1.154-.861s1.158.387 1.158.861v64.462c0 .475-.52.858-1.158.858z" class="cls-3" transform="translate(-300.317 -325.868)"/>
                    </g>
                    <g id="그룹_3193" transform="translate(259.242 21.506)">
                        <path id="패스_4538" d="M291.062 390.379a1.059 1.059 0 0 1-1.158-.91V342.3a1.193 1.193 0 0 1 2.317 0v47.167a1.059 1.059 0 0 1-1.159.912z" class="cls-3" transform="translate(-289.904 -341.396)"/>
                    </g>
                    <g id="그룹_3194" transform="translate(250.305 28.111)">
                        <path id="패스_4539" d="M280.654 386.96a1.057 1.057 0 0 1-1.158-.91V352.1a1.19 1.19 0 0 1 2.312 0v33.951a1.052 1.052 0 0 1-1.154.909z" class="cls-3" transform="translate(-279.496 -351.189)"/>
                    </g>
                    <g id="그룹_3195" transform="translate(241.368 32.41)">
                        <path id="패스_4540" d="M270.242 384.739a1.055 1.055 0 0 1-1.154-.91V358.47a1.191 1.191 0 0 1 2.313 0v25.359a1.057 1.057 0 0 1-1.159.91z" class="cls-3" transform="translate(-269.088 -357.564)"/>
                    </g>
                    <g id="그룹_3196" transform="translate(232.427 21.751)">
                        <path id="패스_4541" d="M259.833 390.252a1.058 1.058 0 0 1-1.158-.91v-46.676a1.193 1.193 0 0 1 2.316 0v46.676a1.058 1.058 0 0 1-1.158.91z" class="cls-3" transform="translate(-258.676 -341.76)"/>
                    </g>
                    <g id="그룹_3197" transform="translate(223.49 28.054)">
                        <path id="패스_4542" d="M249.426 386.992a1.058 1.058 0 0 1-1.158-.91v-34.071a1.191 1.191 0 0 1 2.312 0v34.071a1.055 1.055 0 0 1-1.154.91z" class="cls-3" transform="translate(-248.268 -351.105)"/>
                    </g>
                    <g id="그룹_3198" transform="translate(214.553 13.851)">
                        <path id="패스_4543" d="M239.018 391.563c-.642 0-1.158-.386-1.158-.86v-62.575c0-.474.516-.857 1.158-.857s1.154.383 1.154.857V390.7c0 .477-.516.863-1.154.863z" class="cls-3" transform="translate(-237.86 -327.271)"/>
                    </g>
                    <g id="그룹_3199" transform="translate(205.616 23.362)">
                        <path id="패스_4544" d="M228.606 389.418a1.054 1.054 0 0 1-1.154-.91v-43.453a1.19 1.19 0 0 1 2.312 0v43.453a1.058 1.058 0 0 1-1.158.91z" class="cls-3" transform="translate(-227.452 -344.148)"/>
                    </g>
                    <g id="그룹_3200" transform="translate(44.724 22.453)">
                        <path id="패스_4545" d="M41.239 389.886a1.057 1.057 0 0 1-1.158-.907v-45.27a1.192 1.192 0 0 1 2.317 0v45.27a1.057 1.057 0 0 1-1.159.907z" class="cls-3" transform="translate(-40.081 -342.799)"/>
                    </g>
                    <g id="그룹_3201" transform="translate(35.786 32.005)">
                        <path id="패스_4546" d="M30.831 384.948a1.059 1.059 0 0 1-1.158-.91V357.87a1.191 1.191 0 0 1 2.312 0v26.168a1.054 1.054 0 0 1-1.154.91z" class="cls-3" transform="translate(-29.673 -356.964)"/>
                    </g>
                    <g id="그룹_3202" transform="translate(26.849 37.036)">
                        <path id="패스_4547" d="M20.42 382.343a1.053 1.053 0 0 1-1.155-.906v-16.1a1.054 1.054 0 0 1 1.155-.909 1.059 1.059 0 0 1 1.158.909v16.1a1.057 1.057 0 0 1-1.158.906z" class="cls-3" transform="translate(-19.265 -364.423)"/>
                    </g>
                    <g id="그룹_3203" transform="translate(17.908 42.863)">
                        <path id="패스_4548" d="M10.01 379.328a1.056 1.056 0 0 1-1.158-.906v-4.449a1.059 1.059 0 0 1 1.158-.91 1.059 1.059 0 0 1 1.159.91v4.449a1.057 1.057 0 0 1-1.159.906z" class="cls-3" transform="translate(-8.852 -373.063)"/>
                    </g>
                    <g id="그룹_3204" transform="translate(8.972 40.95)">
                        <path id="패스_4549" d="M-.4 380.321a1.058 1.058 0 0 1-1.158-.91v-8.278a1.056 1.056 0 0 1 1.158-.906 1.052 1.052 0 0 1 1.154.906v8.278a1.054 1.054 0 0 1-1.154.91z" class="cls-3" transform="translate(1.555 -370.227)"/>
                    </g>
                    <g id="그룹_3205" transform="translate(0 42.816)">
                        <path id="패스_4550" d="M-10.845 379.356a1.057 1.057 0 0 1-1.158-.91V373.9a1.057 1.057 0 0 1 1.158-.906 1.057 1.057 0 0 1 1.159.906v4.546a1.057 1.057 0 0 1-1.159.91z" class="cls-3" transform="translate(12.003 -372.994)"/>
                    </g>
                    <g id="그룹_3206" transform="translate(107.292 37.315)">
                        <path id="패스_4551" d="M114.1 382.2a1.056 1.056 0 0 1-1.158-.906v-15.548a1.192 1.192 0 0 1 2.317 0v15.546a1.057 1.057 0 0 1-1.159.908z" class="cls-3" transform="translate(-112.946 -364.836)"/>
                    </g>
                    <g id="그룹_3207" transform="translate(98.354 28.449)">
                        <path id="패스_4552" d="M103.7 386.788a1.059 1.059 0 0 1-1.158-.91V352.6a1.191 1.191 0 0 1 2.312 0v33.28a1.055 1.055 0 0 1-1.154.908z" class="cls-3" transform="translate(-102.538 -351.691)"/>
                    </g>
                    <g id="그룹_3208" transform="translate(89.417 36.202)">
                        <path id="패스_4553" d="M93.284 382.777a1.055 1.055 0 0 1-1.154-.91v-17.774a1.191 1.191 0 0 1 2.312 0v17.774a1.056 1.056 0 0 1-1.158.91z" class="cls-3" transform="translate(-92.13 -363.187)"/>
                    </g>
                    <g id="그룹_3209" transform="translate(80.48 13.851)">
                        <path id="패스_4554" d="M82.876 391.563c-.638 0-1.154-.386-1.154-.86v-62.575c0-.474.516-.857 1.154-.857s1.158.383 1.158.857V390.7c0 .477-.519.863-1.158.863z" class="cls-3" transform="translate(-81.722 -327.271)"/>
                    </g>
                    <g id="그룹_3210" transform="translate(71.539 19.919)">
                        <path id="패스_4555" d="M72.468 391.2a1.059 1.059 0 0 1-1.159-.91v-50.341a1.191 1.191 0 0 1 2.313 0v50.341a1.055 1.055 0 0 1-1.154.91z" class="cls-3" transform="translate(-71.309 -339.043)"/>
                    </g>
                    <g id="그룹_3211" transform="translate(62.602 33.599)">
                        <path id="패스_4556" d="M62.06 384.12a1.055 1.055 0 0 1-1.158-.91v-22.973a1.19 1.19 0 0 1 2.312 0v22.974a1.054 1.054 0 0 1-1.154.909z" class="cls-3" transform="translate(-60.902 -359.327)"/>
                    </g>
                    <g id="그룹_3212" transform="translate(53.665 37.315)">
                        <path id="패스_4557" d="M51.648 382.2a1.052 1.052 0 0 1-1.154-.906v-15.548a1.19 1.19 0 0 1 2.312 0v15.546a1.057 1.057 0 0 1-1.158.908z" class="cls-3" transform="translate(-50.494 -364.836)"/>
                    </g>
                    <g id="그룹_3213" transform="translate(196.674 27.194)">
                        <path id="패스_4558" d="M218.2 387.433a1.056 1.056 0 0 1-1.158-.906v-35.791a1.193 1.193 0 0 1 2.317 0v35.791a1.056 1.056 0 0 1-1.159.906z" class="cls-3" transform="translate(-217.039 -349.83)"/>
                    </g>
                    <g id="그룹_3214" transform="translate(187.737 15.9)">
                        <path id="패스_4559" d="M207.789 372.5c-.638 0-1.158-.278-1.158-.62v-58.957c0-.342.52-.618 1.158-.618s1.154.276 1.154.618v58.957c0 .342-.516.62-1.154.62z" class="cls-3" transform="translate(-206.631 -312.305)"/>
                    </g>
                    <g id="그룹_3215" transform="translate(178.801 21.751)">
                        <path id="패스_4560" d="M197.378 390.252a1.054 1.054 0 0 1-1.154-.91v-46.676a1.19 1.19 0 0 1 2.312 0v46.676a1.058 1.058 0 0 1-1.158.91z" class="cls-3" transform="translate(-196.224 -341.76)"/>
                    </g>
                    <g id="그룹_3216" transform="translate(169.86 16.259)">
                        <path id="패스_4561" d="M186.969 393.093a1.058 1.058 0 0 1-1.158-.91v-57.656a1.192 1.192 0 0 1 2.317 0v57.656a1.059 1.059 0 0 1-1.159.91z" class="cls-3" transform="translate(-185.811 -333.617)"/>
                    </g>
                    <g id="그룹_3217" transform="translate(160.922 26.447)">
                        <path id="패스_4562" d="M176.561 387.82a1.056 1.056 0 0 1-1.158-.906v-37.282a1.19 1.19 0 0 1 2.312 0v37.282a1.052 1.052 0 0 1-1.154.906z" class="cls-3" transform="translate(-175.403 -348.722)"/>
                    </g>
                    <g id="그룹_3218" transform="translate(151.985 34.174)">
                        <path id="패스_4563" d="M166.149 383.824a1.052 1.052 0 0 1-1.154-.906v-21.83a1.19 1.19 0 0 1 2.312 0v21.829a1.053 1.053 0 0 1-1.158.907z" class="cls-3" transform="translate(-164.995 -360.179)"/>
                    </g>
                    <g id="그룹_3219" transform="translate(143.048 36.246)">
                        <path id="패스_4564" d="M155.741 382.751a1.052 1.052 0 0 1-1.154-.906v-17.684a1.19 1.19 0 0 1 2.312 0v17.684a1.057 1.057 0 0 1-1.158.906z" class="cls-3" transform="translate(-154.587 -363.251)"/>
                    </g>
                    <g id="그룹_3220" transform="translate(134.107 19.644)">
                        <path id="패스_4565" d="M145.332 391.339a1.057 1.057 0 0 1-1.158-.91v-50.885a1.19 1.19 0 0 1 2.312 0v50.886a1.052 1.052 0 0 1-1.154.909z" class="cls-3" transform="translate(-144.174 -338.634)"/>
                    </g>
                    <g id="그룹_3221" transform="translate(125.17 26.979)">
                        <path id="패스_4566" d="M134.925 387.545a1.053 1.053 0 0 1-1.158-.906V350.42a1.19 1.19 0 0 1 2.312 0v36.219a1.052 1.052 0 0 1-1.154.906z" class="cls-3" transform="translate(-133.767 -349.51)"/>
                    </g>
                    <g id="그룹_3222" transform="translate(116.232 30.956)">
                        <path id="패스_4567" d="M124.513 385.491a1.055 1.055 0 0 1-1.155-.91v-28.263a1.19 1.19 0 0 1 2.313 0v28.263a1.059 1.059 0 0 1-1.158.91z" class="cls-3" transform="translate(-123.358 -355.408)"/>
                    </g>
                </g>
                <g id="그룹_3289" style="mix-blend-mode:overlay;isolation:isolate" opacity="0.3">
                    <g id="그룹_3224" transform="translate(286.057)">
                        <path id="패스_4568" d="M322.29 377.949c-.638 0-1.158-.3-1.158-.676v-90.644c0-.373.52-.674 1.158-.674s1.155.3 1.155.674v90.644c0 .373-.516.676-1.155.676z" class="cls-3" transform="translate(-321.132 -285.955)"/>
                    </g>
                    <g id="그룹_3225" transform="translate(294.999 12.192)">
                        <path id="패스_4569" d="M332.7 371.643c-.639 0-1.155-.278-1.155-.619V304.65c0-.341.516-.617 1.155-.617s1.157.276 1.157.617v66.374c0 .341-.519.619-1.157.619z" class="cls-3" transform="translate(-331.545 -304.033)"/>
                    </g>
                    <g id="그룹_3226" transform="translate(303.936 12.906)">
                        <path id="패스_4570" d="M343.107 392.049c-.638 0-1.154-.384-1.154-.858v-64.462c0-.474.516-.861 1.154-.861s1.158.387 1.158.861v64.462c0 .475-.516.858-1.158.858z" class="cls-3" transform="translate(-341.953 -325.868)"/>
                    </g>
                    <g id="그룹_3227" transform="translate(312.873 21.506)">
                        <path id="패스_4571" d="M353.519 390.379a1.059 1.059 0 0 1-1.158-.91V342.3a1.191 1.191 0 0 1 2.312 0v47.167a1.055 1.055 0 0 1-1.154.912z" class="cls-3" transform="translate(-352.361 -341.396)"/>
                    </g>
                    <g id="그룹_3228" transform="translate(321.81 28.111)">
                        <path id="패스_4572" d="M363.927 386.96a1.056 1.056 0 0 1-1.158-.91V352.1a1.193 1.193 0 0 1 2.317 0v33.951a1.057 1.057 0 0 1-1.159.909z" class="cls-3" transform="translate(-362.769 -351.189)"/>
                    </g>
                    <g id="그룹_3229" transform="translate(330.751 32.41)">
                        <path id="패스_4573" d="M374.335 384.739a1.055 1.055 0 0 1-1.154-.91V358.47a1.191 1.191 0 0 1 2.313 0v25.359a1.059 1.059 0 0 1-1.159.91z" class="cls-3" transform="translate(-373.181 -357.564)"/>
                    </g>
                    <g id="그룹_3230" transform="translate(339.688 21.751)">
                        <path id="패스_4574" d="M384.748 390.252a1.057 1.057 0 0 1-1.159-.91v-46.676a1.191 1.191 0 0 1 2.313 0v46.676a1.055 1.055 0 0 1-1.154.91z" class="cls-3" transform="translate(-383.589 -341.76)"/>
                    </g>
                    <g id="그룹_3231" transform="translate(348.625 28.054)">
                        <path id="패스_4575" d="M395.155 386.992a1.059 1.059 0 0 1-1.158-.91v-34.071a1.193 1.193 0 0 1 2.317 0v34.071a1.058 1.058 0 0 1-1.159.91z" class="cls-3" transform="translate(-393.997 -351.105)"/>
                    </g>
                    <g id="그룹_3232" transform="translate(357.567 13.851)">
                        <path id="패스_4576" d="M405.564 391.563c-.638 0-1.154-.386-1.154-.86v-62.575c0-.474.516-.857 1.154-.857s1.158.383 1.158.857V390.7c0 .477-.522.863-1.158.863z" class="cls-3" transform="translate(-404.41 -327.271)"/>
                    </g>
                    <g id="그룹_3233" transform="translate(366.504 23.362)">
                        <path id="패스_4577" d="M415.972 389.418a1.054 1.054 0 0 1-1.154-.91v-43.453a1.19 1.19 0 0 1 2.312 0v43.453a1.056 1.056 0 0 1-1.158.91z" class="cls-3" transform="translate(-414.818 -344.148)"/>
                    </g>
                    <g id="그룹_3234" transform="translate(527.392 22.453)">
                        <path id="패스_4578" d="M603.342 389.886a1.057 1.057 0 0 1-1.158-.907v-45.27a1.19 1.19 0 0 1 2.312 0v45.27a1.052 1.052 0 0 1-1.154.907z" class="cls-3" transform="translate(-602.184 -342.799)"/>
                    </g>
                    <g id="그룹_3235" transform="translate(536.329 32.005)">
                        <path id="패스_4579" d="M613.75 384.948a1.058 1.058 0 0 1-1.158-.91V357.87a1.193 1.193 0 0 1 2.317 0v26.168a1.058 1.058 0 0 1-1.159.91z" class="cls-3" transform="translate(-612.592 -356.964)"/>
                    </g>
                    <g id="그룹_3236" transform="translate(545.271 37.036)">
                        <path id="패스_4580" d="M624.159 382.343a1.052 1.052 0 0 1-1.154-.906v-16.1a1.189 1.189 0 0 1 2.312 0v16.1a1.056 1.056 0 0 1-1.158.906z" class="cls-3" transform="translate(-623.005 -364.423)"/>
                    </g>
                    <g id="그룹_3237" transform="translate(554.207 42.863)">
                        <path id="패스_4581" d="M634.57 379.328a1.056 1.056 0 0 1-1.158-.906v-4.449a1.19 1.19 0 0 1 2.313 0v4.449a1.052 1.052 0 0 1-1.155.906z" class="cls-3" transform="translate(-633.412 -373.063)"/>
                    </g>
                    <g id="그룹_3238" transform="translate(563.144 40.95)">
                        <path id="패스_4582" d="M644.978 380.321a1.059 1.059 0 0 1-1.158-.91v-8.278a1.193 1.193 0 0 1 2.317 0v8.278a1.058 1.058 0 0 1-1.159.91z" class="cls-3" transform="translate(-643.82 -370.227)"/>
                    </g>
                    <g id="그룹_3239" transform="translate(572.115 42.816)">
                        <path id="패스_4583" d="M655.425 379.356a1.057 1.057 0 0 1-1.158-.91V373.9a1.191 1.191 0 0 1 2.313 0v4.546a1.052 1.052 0 0 1-1.155.91z" class="cls-3" transform="translate(-654.267 -372.994)"/>
                    </g>
                    <g id="그룹_3240" transform="translate(464.824 37.315)">
                        <path id="패스_4584" d="M530.477 382.2a1.057 1.057 0 0 1-1.158-.906v-15.548a1.19 1.19 0 0 1 2.313 0v15.546a1.052 1.052 0 0 1-1.155.908z" class="cls-3" transform="translate(-529.319 -364.836)"/>
                    </g>
                    <g id="그룹_3241" transform="translate(473.761 28.449)">
                        <path id="패스_4585" d="M540.885 386.788a1.058 1.058 0 0 1-1.158-.91V352.6a1.193 1.193 0 0 1 2.317 0v33.28a1.059 1.059 0 0 1-1.159.908z" class="cls-3" transform="translate(-539.727 -351.691)"/>
                    </g>
                    <g id="그룹_3242" transform="translate(482.703 36.202)">
                        <path id="패스_4586" d="M551.294 382.777a1.055 1.055 0 0 1-1.154-.91v-17.774a1.191 1.191 0 0 1 2.312 0v17.774a1.059 1.059 0 0 1-1.158.91z" class="cls-3" transform="translate(-550.14 -363.187)"/>
                    </g>
                    <g id="그룹_3243" transform="translate(491.64 13.851)">
                        <path id="패스_4587" d="M561.706 391.563c-.643 0-1.158-.386-1.158-.86v-62.575c0-.474.515-.857 1.158-.857s1.154.383 1.154.857V390.7c0 .477-.516.863-1.154.863z" class="cls-3" transform="translate(-560.548 -327.271)"/>
                    </g>
                    <g id="그룹_3244" transform="translate(500.576 19.919)">
                        <path id="패스_4588" d="M572.113 391.2a1.059 1.059 0 0 1-1.158-.91v-50.341a1.191 1.191 0 0 1 2.313 0v50.341a1.054 1.054 0 0 1-1.155.91z" class="cls-3" transform="translate(-570.955 -339.043)"/>
                    </g>
                    <g id="그룹_3245" transform="translate(509.518 33.599)">
                        <path id="패스_4589" d="M582.522 384.12a1.054 1.054 0 0 1-1.154-.91v-22.973a1.19 1.19 0 0 1 2.312 0v22.974a1.058 1.058 0 0 1-1.158.909z" class="cls-3" transform="translate(-581.368 -359.327)"/>
                    </g>
                    <g id="그룹_3246" transform="translate(518.455 37.315)">
                        <path id="패스_4590" d="M592.93 382.2a1.052 1.052 0 0 1-1.154-.906v-15.548a1.19 1.19 0 0 1 2.313 0v15.546a1.053 1.053 0 0 1-1.159.908z" class="cls-3" transform="translate(-591.776 -364.836)"/>
                    </g>
                    <g id="그룹_3247" transform="translate(375.441 27.194)">
                        <path id="패스_4591" d="M426.384 387.433a1.056 1.056 0 0 1-1.158-.906v-35.791a1.191 1.191 0 0 1 2.312 0v35.791a1.052 1.052 0 0 1-1.154.906z" class="cls-3" transform="translate(-425.226 -349.83)"/>
                    </g>
                    <g id="그룹_3248" transform="translate(384.377 15.9)">
                        <path id="패스_4592" d="M436.792 372.5c-.639 0-1.159-.278-1.159-.62v-58.957c0-.342.52-.618 1.159-.618s1.158.276 1.158.618v58.957c.001.342-.52.62-1.158.62z" class="cls-3" transform="translate(-435.633 -312.305)"/>
                    </g>
                    <g id="그룹_3249" transform="translate(393.32 21.751)">
                        <path id="패스_4593" d="M447.2 390.252a1.054 1.054 0 0 1-1.154-.91v-46.676a1.19 1.19 0 0 1 2.312 0v46.676a1.058 1.058 0 0 1-1.158.91z" class="cls-3" transform="translate(-446.047 -341.76)"/>
                    </g>
                    <g id="그룹_3250" transform="translate(402.256 16.259)">
                        <path id="패스_4594" d="M457.612 393.093a1.059 1.059 0 0 1-1.158-.91v-57.656a1.19 1.19 0 0 1 2.312 0v57.656a1.054 1.054 0 0 1-1.154.91z" class="cls-3" transform="translate(-456.454 -333.617)"/>
                    </g>
                    <g id="그룹_3251" transform="translate(411.193 26.447)">
                        <path id="패스_4595" d="M468.02 387.82a1.057 1.057 0 0 1-1.158-.906v-37.282a1.192 1.192 0 0 1 2.317 0v37.282a1.057 1.057 0 0 1-1.159.906z" class="cls-3" transform="translate(-466.862 -348.722)"/>
                    </g>
                    <g id="그룹_3252" transform="translate(420.135 34.174)">
                        <path id="패스_4596" d="M478.429 383.824a1.052 1.052 0 0 1-1.154-.906v-21.83a1.19 1.19 0 0 1 2.312 0v21.829a1.056 1.056 0 0 1-1.158.907z" class="cls-3" transform="translate(-477.275 -360.179)"/>
                    </g>
                    <g id="그룹_3253" transform="translate(429.072 36.246)">
                        <path id="패스_4597" d="M488.841 382.751a1.053 1.053 0 0 1-1.158-.906v-17.684a1.19 1.19 0 0 1 2.312 0v17.684a1.052 1.052 0 0 1-1.154.906z" class="cls-3" transform="translate(-487.683 -363.251)"/>
                    </g>
                    <g id="그룹_3254" transform="translate(438.009 19.644)">
                        <path id="패스_4598" d="M499.249 391.339a1.056 1.056 0 0 1-1.158-.91v-50.885a1.19 1.19 0 0 1 2.312 0v50.886a1.052 1.052 0 0 1-1.154.909z" class="cls-3" transform="translate(-498.091 -338.634)"/>
                    </g>
                    <g id="그룹_3255" transform="translate(446.95 26.979)">
                        <path id="패스_4599" d="M509.657 387.545a1.052 1.052 0 0 1-1.154-.906V350.42a1.19 1.19 0 0 1 2.312 0v36.219a1.056 1.056 0 0 1-1.158.906z" class="cls-3" transform="translate(-508.503 -349.51)"/>
                    </g>
                    <g id="그룹_3256" transform="translate(455.887 30.956)">
                        <path id="패스_4600" d="M520.065 385.491a1.055 1.055 0 0 1-1.154-.91v-28.263a1.19 1.19 0 0 1 2.312 0v28.263a1.056 1.056 0 0 1-1.158.91z" class="cls-3" transform="translate(-518.911 -355.408)"/>
                    </g>
                    <g id="그룹_3257" transform="translate(277.121 12.192)">
                        <path id="패스_4601" d="M311.883 371.643c-.642 0-1.157-.278-1.157-.619V304.65c0-.341.515-.617 1.157-.617s1.155.276 1.155.617v66.374c-.001.341-.517.619-1.155.619z" class="cls-3" transform="translate(-310.725 -304.033)"/>
                    </g>
                    <g id="그룹_3258" transform="translate(268.184 12.906)">
                        <path id="패스_4602" d="M301.471 392.049c-.638 0-1.154-.384-1.154-.858v-64.462c0-.474.516-.861 1.154-.861s1.158.387 1.158.861v64.462c0 .475-.52.858-1.158.858z" class="cls-3" transform="translate(-300.317 -325.868)"/>
                    </g>
                    <g id="그룹_3259" transform="translate(259.242 21.506)">
                        <path id="패스_4603" d="M291.062 390.379a1.059 1.059 0 0 1-1.158-.91V342.3a1.193 1.193 0 0 1 2.317 0v47.167a1.059 1.059 0 0 1-1.159.912z" class="cls-3" transform="translate(-289.904 -341.396)"/>
                    </g>
                    <g id="그룹_3260" transform="translate(250.305 28.111)">
                        <path id="패스_4604" d="M280.654 386.96a1.057 1.057 0 0 1-1.158-.91V352.1a1.19 1.19 0 0 1 2.312 0v33.951a1.052 1.052 0 0 1-1.154.909z" class="cls-3" transform="translate(-279.496 -351.189)"/>
                    </g>
                    <g id="그룹_3261" transform="translate(241.368 32.41)">
                        <path id="패스_4605" d="M270.242 384.739a1.055 1.055 0 0 1-1.154-.91V358.47a1.191 1.191 0 0 1 2.313 0v25.359a1.057 1.057 0 0 1-1.159.91z" class="cls-3" transform="translate(-269.088 -357.564)"/>
                    </g>
                    <g id="그룹_3262" transform="translate(232.427 21.751)">
                        <path id="패스_4606" d="M259.833 390.252a1.058 1.058 0 0 1-1.158-.91v-46.676a1.193 1.193 0 0 1 2.316 0v46.676a1.058 1.058 0 0 1-1.158.91z" class="cls-3" transform="translate(-258.676 -341.76)"/>
                    </g>
                    <g id="그룹_3263" transform="translate(223.49 28.054)">
                        <path id="패스_4607" d="M249.426 386.992a1.058 1.058 0 0 1-1.158-.91v-34.071a1.191 1.191 0 0 1 2.312 0v34.071a1.055 1.055 0 0 1-1.154.91z" class="cls-3" transform="translate(-248.268 -351.105)"/>
                    </g>
                    <g id="그룹_3264" transform="translate(214.553 13.851)">
                        <path id="패스_4608" d="M239.018 391.563c-.642 0-1.158-.386-1.158-.86v-62.575c0-.474.516-.857 1.158-.857s1.154.383 1.154.857V390.7c0 .477-.516.863-1.154.863z" class="cls-3" transform="translate(-237.86 -327.271)"/>
                    </g>
                    <g id="그룹_3265" transform="translate(205.616 23.362)">
                        <path id="패스_4609" d="M228.606 389.418a1.054 1.054 0 0 1-1.154-.91v-43.453a1.19 1.19 0 0 1 2.312 0v43.453a1.058 1.058 0 0 1-1.158.91z" class="cls-3" transform="translate(-227.452 -344.148)"/>
                    </g>
                    <g id="그룹_3266" transform="translate(44.724 22.453)">
                        <path id="패스_4610" d="M41.239 389.886a1.057 1.057 0 0 1-1.158-.907v-45.27a1.192 1.192 0 0 1 2.317 0v45.27a1.057 1.057 0 0 1-1.159.907z" class="cls-3" transform="translate(-40.081 -342.799)"/>
                    </g>
                    <g id="그룹_3267" transform="translate(35.786 32.005)">
                        <path id="패스_4611" d="M30.831 384.948a1.059 1.059 0 0 1-1.158-.91V357.87a1.191 1.191 0 0 1 2.312 0v26.168a1.054 1.054 0 0 1-1.154.91z" class="cls-3" transform="translate(-29.673 -356.964)"/>
                    </g>
                    <g id="그룹_3268" transform="translate(26.849 37.036)">
                        <path id="패스_4612" d="M20.42 382.343a1.053 1.053 0 0 1-1.155-.906v-16.1a1.054 1.054 0 0 1 1.155-.909 1.059 1.059 0 0 1 1.158.909v16.1a1.057 1.057 0 0 1-1.158.906z" class="cls-3" transform="translate(-19.265 -364.423)"/>
                    </g>
                    <g id="그룹_3269" transform="translate(17.908 42.863)">
                        <path id="패스_4613" d="M10.01 379.328a1.056 1.056 0 0 1-1.158-.906v-4.449a1.059 1.059 0 0 1 1.158-.91 1.059 1.059 0 0 1 1.159.91v4.449a1.057 1.057 0 0 1-1.159.906z" class="cls-3" transform="translate(-8.852 -373.063)"/>
                    </g>
                    <g id="그룹_3270" transform="translate(8.972 40.95)">
                        <path id="패스_4614" d="M-.4 380.321a1.058 1.058 0 0 1-1.158-.91v-8.278a1.056 1.056 0 0 1 1.158-.906 1.052 1.052 0 0 1 1.154.906v8.278a1.054 1.054 0 0 1-1.154.91z" class="cls-3" transform="translate(1.555 -370.227)"/>
                    </g>
                    <g id="그룹_3271" transform="translate(0 42.816)">
                        <path id="패스_4615" d="M-10.845 379.356a1.057 1.057 0 0 1-1.158-.91V373.9a1.057 1.057 0 0 1 1.158-.906 1.057 1.057 0 0 1 1.159.906v4.546a1.057 1.057 0 0 1-1.159.91z" class="cls-3" transform="translate(12.003 -372.994)"/>
                    </g>
                    <g id="그룹_3272" transform="translate(107.292 37.315)">
                        <path id="패스_4616" d="M114.1 382.2a1.056 1.056 0 0 1-1.158-.906v-15.548a1.192 1.192 0 0 1 2.317 0v15.546a1.057 1.057 0 0 1-1.159.908z" class="cls-3" transform="translate(-112.946 -364.836)"/>
                    </g>
                    <g id="그룹_3273" transform="translate(98.354 28.449)">
                        <path id="패스_4617" d="M103.7 386.788a1.059 1.059 0 0 1-1.158-.91V352.6a1.191 1.191 0 0 1 2.312 0v33.28a1.055 1.055 0 0 1-1.154.908z" class="cls-3" transform="translate(-102.538 -351.691)"/>
                    </g>
                    <g id="그룹_3274" transform="translate(89.417 36.202)">
                        <path id="패스_4618" d="M93.284 382.777a1.055 1.055 0 0 1-1.154-.91v-17.774a1.191 1.191 0 0 1 2.312 0v17.774a1.056 1.056 0 0 1-1.158.91z" class="cls-3" transform="translate(-92.13 -363.187)"/>
                    </g>
                    <g id="그룹_3275" transform="translate(80.48 13.851)">
                        <path id="패스_4619" d="M82.876 391.563c-.638 0-1.154-.386-1.154-.86v-62.575c0-.474.516-.857 1.154-.857s1.158.383 1.158.857V390.7c0 .477-.519.863-1.158.863z" class="cls-3" transform="translate(-81.722 -327.271)"/>
                    </g>
                    <g id="그룹_3276" transform="translate(71.539 19.919)">
                        <path id="패스_4620" d="M72.468 391.2a1.059 1.059 0 0 1-1.159-.91v-50.341a1.191 1.191 0 0 1 2.313 0v50.341a1.055 1.055 0 0 1-1.154.91z" class="cls-3" transform="translate(-71.309 -339.043)"/>
                    </g>
                    <g id="그룹_3277" transform="translate(62.602 33.599)">
                        <path id="패스_4621" d="M62.06 384.12a1.055 1.055 0 0 1-1.158-.91v-22.973a1.19 1.19 0 0 1 2.312 0v22.974a1.054 1.054 0 0 1-1.154.909z" class="cls-3" transform="translate(-60.902 -359.327)"/>
                    </g>
                    <g id="그룹_3278" transform="translate(53.665 37.315)">
                        <path id="패스_4622" d="M51.648 382.2a1.052 1.052 0 0 1-1.154-.906v-15.548a1.19 1.19 0 0 1 2.312 0v15.546a1.057 1.057 0 0 1-1.158.908z" class="cls-3" transform="translate(-50.494 -364.836)"/>
                    </g>
                    <g id="그룹_3279" transform="translate(196.674 27.194)">
                        <path id="패스_4623" d="M218.2 387.433a1.056 1.056 0 0 1-1.158-.906v-35.791a1.193 1.193 0 0 1 2.317 0v35.791a1.056 1.056 0 0 1-1.159.906z" class="cls-3" transform="translate(-217.039 -349.83)"/>
                    </g>
                    <g id="그룹_3280" transform="translate(187.737 15.9)">
                        <path id="패스_4624" d="M207.789 372.5c-.638 0-1.158-.278-1.158-.62v-58.957c0-.342.52-.618 1.158-.618s1.154.276 1.154.618v58.957c0 .342-.516.62-1.154.62z" class="cls-3" transform="translate(-206.631 -312.305)"/>
                    </g>
                    <g id="그룹_3281" transform="translate(178.801 21.751)">
                        <path id="패스_4625" d="M197.378 390.252a1.054 1.054 0 0 1-1.154-.91v-46.676a1.19 1.19 0 0 1 2.312 0v46.676a1.058 1.058 0 0 1-1.158.91z" class="cls-3" transform="translate(-196.224 -341.76)"/>
                    </g>
                    <g id="그룹_3282" transform="translate(169.86 16.259)">
                        <path id="패스_4626" d="M186.969 393.093a1.058 1.058 0 0 1-1.158-.91v-57.656a1.192 1.192 0 0 1 2.317 0v57.656a1.059 1.059 0 0 1-1.159.91z" class="cls-3" transform="translate(-185.811 -333.617)"/>
                    </g>
                    <g id="그룹_3283" transform="translate(160.922 26.447)">
                        <path id="패스_4627" d="M176.561 387.82a1.056 1.056 0 0 1-1.158-.906v-37.282a1.19 1.19 0 0 1 2.312 0v37.282a1.052 1.052 0 0 1-1.154.906z" class="cls-3" transform="translate(-175.403 -348.722)"/>
                    </g>
                    <g id="그룹_3284" transform="translate(151.985 34.174)">
                        <path id="패스_4628" d="M166.149 383.824a1.052 1.052 0 0 1-1.154-.906v-21.83a1.19 1.19 0 0 1 2.312 0v21.829a1.053 1.053 0 0 1-1.158.907z" class="cls-3" transform="translate(-164.995 -360.179)"/>
                    </g>
                    <g id="그룹_3285" transform="translate(143.048 36.246)">
                        <path id="패스_4629" d="M155.741 382.751a1.052 1.052 0 0 1-1.154-.906v-17.684a1.19 1.19 0 0 1 2.312 0v17.684a1.057 1.057 0 0 1-1.158.906z" class="cls-3" transform="translate(-154.587 -363.251)"/>
                    </g>
                    <g id="그룹_3286" transform="translate(134.107 19.644)">
                        <path id="패스_4630" d="M145.332 391.339a1.057 1.057 0 0 1-1.158-.91v-50.885a1.19 1.19 0 0 1 2.312 0v50.886a1.052 1.052 0 0 1-1.154.909z" class="cls-3" transform="translate(-144.174 -338.634)"/>
                    </g>
                    <g id="그룹_3287" transform="translate(125.17 26.979)">
                        <path id="패스_4631" d="M134.925 387.545a1.053 1.053 0 0 1-1.158-.906V350.42a1.19 1.19 0 0 1 2.312 0v36.219a1.052 1.052 0 0 1-1.154.906z" class="cls-3" transform="translate(-133.767 -349.51)"/>
                    </g>
                    <g id="그룹_3288" transform="translate(116.232 30.956)">
                        <path id="패스_4632" d="M124.513 385.491a1.055 1.055 0 0 1-1.155-.91v-28.263a1.19 1.19 0 0 1 2.313 0v28.263a1.059 1.059 0 0 1-1.158.91z" class="cls-3" transform="translate(-123.358 -355.408)"/>
                    </g>
                </g>
            </g>
            <g id="그룹_3305" transform="translate(9987 1164)">
                <circle id="타원_359" cx="25" cy="25" r="25" fill="#1b64c9" transform="translate(-9563 -185)"/>
                <path id="다각형_26" fill="#fff" d="M11.372 4.77a3 3 0 0 1 5.255 0l8.922 16.2a3 3 0 0 1-2.628 4.448H5.078a3 3 0 0 1-2.628-4.452z" transform="rotate(90 -4674.359 -4848.359)"/>
            </g>
            <g id="사각형_2658" class="cls-2" transform="translate(404 1085)">
                <rect width="748" height="202" class="cls-8" rx="10"/>
                <rect width="747" height="201" x=".5" y=".5" class="cls-9" rx="9.5"/>
            </g>
            <path id="패스_4731" d="M3.312 9.192h3.942v7.668H3.312zm-1.836 9.144H9.09V7.716H1.476zm14.562-5.85H13.5V6.132h-1.854V22.4H13.5v-8.384h2.538zm8.6-6.012c-3.546 0-5.8 1.17-5.8 3.114 0 1.926 2.25 3.114 5.8 3.114s5.8-1.188 5.8-3.114c0-1.944-2.25-3.114-5.796-3.114zm0 1.44c2.412 0 3.87.594 3.87 1.674 0 1.062-1.458 1.656-3.87 1.656s-3.888-.594-3.888-1.656c.004-1.08 1.48-1.674 3.892-1.674zm-5.6 8.838v5.436H30.2v-5.436zm9.342 1.476v2.484h-7.5v-2.484zm-11.1-4.338v1.476h14.706V13.89zm22.644-4.338h4.32V8.04h-6.156v10.566h1.1a28.531 28.531 0 0 0 5.9-.45l-.162-1.53a23.378 23.378 0 0 1-5 .45zm6.408 2.664h-3.2v1.512h3.2v7.884h1.746V6.474h-1.746zm3.312-6.1v16.252h1.782V6.114zm15.786 0v16.306h1.87V6.114zM58.644 7.32c-2.412 0-4.176 2.232-4.176 5.724 0 3.528 1.764 5.742 4.176 5.742 2.43 0 4.194-2.214 4.194-5.742 0-3.492-1.764-5.724-4.194-5.724zm0 1.674c1.422 0 2.412 1.53 2.412 4.05 0 2.556-.99 4.086-2.412 4.086-1.4 0-2.394-1.53-2.394-4.086 0-2.52.99-4.05 2.394-4.05zm14.238 4.59H77.9v-1.476h-5.018V9.066h5.688v-1.53h-7.542v11.07h1.278a39.245 39.245 0 0 0 7.308-.486l-.162-1.494a38.6 38.6 0 0 1-6.57.468zM81.936 6.1v5.976h-3.114V13.6h3.114v8.8h1.872V6.1zm17.8 4.7h-9.304V6.708h-1.854v5.6h11.16zm-9.414 6.444H88.47v4.788h11.358v-1.5h-9.5zM86.67 14.25v1.494h14.76V14.25zm33.66-8.118h-1.854V17.94h1.854zm-11.268 5.148a2.5 2.5 0 0 1 5 0 2.5 2.5 0 0 1-5 0zm6.8 0a4.318 4.318 0 1 0-4.3 4.068 4.067 4.067 0 0 0 4.304-4.068zm-4.284 9.288v-3.816h-1.868v5.328h11.09v-1.512zm24.156-7.974a15.392 15.392 0 0 0 .45-4.32V6.906h-11.16V8.4h9.324a14.5 14.5 0 0 1-.432 4zm-5.13 8.37c-2.412 0-3.888-.594-3.888-1.62 0-1.008 1.476-1.6 3.888-1.6 2.394 0 3.834.594 3.834 1.6.004 1.026-1.438 1.62-3.83 1.62zm0-4.644c-3.51 0-5.724 1.152-5.724 3.024 0 1.89 2.214 3.042 5.724 3.042 3.456 0 5.688-1.152 5.688-3.042.008-1.872-2.228-3.024-5.684-3.024zm.36-2.754v-2.988H129.1v2.988h-5.76v1.494h14.652v-1.494zm14.724-4.284h3.618v-1.53H140.2v1.53h3.618v1.548a7.949 7.949 0 0 1-4.194 6.984l1.062 1.476a8.384 8.384 0 0 0 4.086-5.112 7.967 7.967 0 0 0 4.1 4.7l1.026-1.458a7.333 7.333 0 0 1-4.212-6.588zm5.508-3.15v16.254h1.872V6.132zm17.91 4.32h-9.252V6.438H158v5.508h11.11zm-5.72 10.458c-2.376 0-3.708-.558-3.708-1.548 0-1.026 1.332-1.548 3.708-1.548s3.726.522 3.726 1.548c0 .99-1.35 1.548-3.726 1.548zm0-4.554c-3.474 0-5.6 1.1-5.6 3.006 0 1.89 2.124 2.988 5.6 2.988 3.492 0 5.6-1.1 5.6-2.988-.002-1.908-2.108-3.006-5.6-3.006zm-7.308-2.772V15.1h14.706v-1.516zM179.8 7.77c2.52 0 3.87.486 3.87 1.422 0 .918-1.35 1.4-3.87 1.4s-3.87-.486-3.87-1.4c.002-.936 1.352-1.422 3.87-1.422zm0 4.212c3.636 0 5.8-.99 5.8-2.79 0-1.818-2.16-2.808-5.8-2.808-3.654 0-5.8.99-5.8 2.808.006 1.8 2.148 2.79 5.8 2.79zm-3.744 7.488h9.252v-3.888h-11.122v1.4h9.306v1.17h-9.27v4.086h11.556V20.82h-9.72zm-3.618-6.534v1.476h14.724v-1.476zM198 8.364c1.422 0 2.412.738 2.412 1.872 0 1.152-.99 1.89-2.412 1.89-1.4 0-2.412-.738-2.412-1.89 0-1.136 1.012-1.872 2.412-1.872zm0 5.292c2.43 0 4.194-1.4 4.194-3.42 0-2-1.764-3.4-4.194-3.4s-4.194 1.4-4.194 3.4c0 2.016 1.764 3.42 4.194 3.42zm5.238.612a75.644 75.644 0 0 1-10.53.576l.216 1.53c1.26 0 2.7-.018 4.23-.072v5.6h1.854v-5.708a35.586 35.586 0 0 0 4.356-.558zm1.062-8.136V22.4h1.854V6.132zm14.4 1.854h-3.87V6.114h-1.854v1.872h-3.87v1.476h9.594zm-6.966 5.31c0-1.026.882-1.638 2.16-1.638 1.3 0 2.178.612 2.178 1.638s-.882 1.638-2.178 1.638c-1.278 0-2.16-.612-2.16-1.634zm6.1 0c0-1.836-1.6-3.078-3.942-3.078-2.322 0-3.942 1.242-3.942 3.078 0 1.854 1.62 3.078 3.942 3.078 2.342 0 3.944-1.224 3.944-3.074zm-4.482 4.086h-1.872v4.7h10.944v-1.514h-9.072zm8.424-6.066V6.132h-1.854v12.186h1.854v-5.472h2.3v-1.53zm17.172-3.6h-3.87V6.042h-1.854v1.674h-3.87v1.476h9.594zm-6.966 5.148c0-.972.864-1.548 2.16-1.548s2.178.576 2.178 1.548c0 .954-.882 1.53-2.178 1.53s-2.158-.576-2.158-1.53zm6.1 0c0-1.782-1.6-2.97-3.942-2.97s-3.942 1.188-3.942 2.97c0 1.764 1.6 2.952 3.942 2.952s3.946-1.188 3.946-2.952zm-6.75 5.724h8.838v3.8h1.854v-5.294h-10.688zm13-8.1h-2.3V6.132h-1.854V16.3h1.854v-4.282h2.3zm15.3.5c-3.222-.414-5.616-2.2-5.616-4.068v-.63h-1.908v.63c0 1.89-2.358 3.654-5.616 4.068l.684 1.44a8.1 8.1 0 0 0 5.886-3.276 8.175 8.175 0 0 0 5.9 3.276zm-2.952 9.72h-7.326v-1.742h7.326zm0-3.168h-7.326v-1.652h-1.836v6.3h11.016v-6.3h-1.854zM245.7 13.4v1.48h14.724V13.4zm22.644-3.852h4.32V8.04h-6.156v10.566h1.1a28.531 28.531 0 0 0 5.9-.45l-.162-1.53a23.378 23.378 0 0 1-5 .45zm6.408 2.664h-3.2v1.512h3.2v7.884h1.748V6.474h-1.746zm3.312-6.1v16.256h1.782V6.114zm15.786 0v16.31h1.872V6.114zm-6.786 1.208c-2.412 0-4.176 2.232-4.176 5.724 0 3.528 1.764 5.742 4.176 5.742 2.43 0 4.194-2.214 4.194-5.742 0-3.492-1.764-5.724-4.194-5.724zm0 1.674c1.422 0 2.412 1.53 2.412 4.05 0 2.556-.99 4.086-2.412 4.086-1.4 0-2.394-1.53-2.394-4.086 0-2.52.99-4.05 2.394-4.05zm14.238 4.59h5.022v-1.476H301.3V9.066h5.688v-1.53h-7.542v11.07h1.278a39.245 39.245 0 0 0 7.308-.486l-.162-1.494a38.6 38.6 0 0 1-6.57.468zm9.054-7.484v5.976h-3.114V13.6h3.114v8.8h1.872V6.1zm22.68 6.03c-3.276-.468-5.724-2.5-5.724-4.608v-.868h-1.962v.864c0 2.142-2.412 4.14-5.724 4.608l.72 1.494a8.174 8.174 0 0 0 5.994-3.672 8.225 8.225 0 0 0 5.976 3.672zm.63 3.024h-14.688v1.512h6.372V22.4h1.85v-5.738h6.462zm11.718-1.872c-2.5-.756-3.978-2.628-3.978-4.608V8.6h3.474V7.1h-8.892v1.5h3.528v.07a5.278 5.278 0 0 1-4.032 4.878l.936 1.458a6.563 6.563 0 0 0 4.068-3.6 6.423 6.423 0 0 0 4 3.312zm1.53 7.416h-6.948v-1.8h6.948zm0-3.258h-6.948v-1.75h-1.836v6.5h10.62v-6.5h-1.836zM346.9 6.114v8.838h1.854V6.114zm5.342 18.486a4.22 4.22 0 0 0 2.952-4.05c0-1.386-.594-2.232-1.6-2.232a1.345 1.345 0 0 0-1.44 1.332 1.3 1.3 0 0 0 1.386 1.332.738.738 0 0 0 .2-.018 2.794 2.794 0 0 1-1.962 2.466zm9.342-16.758v1.512h5.688c-.378 3.744-2.52 6.606-6.5 8.64l1.026 1.422c5.31-2.682 7.326-6.858 7.326-11.574zm14.256 4.7h-2.466V6.114h-1.854v16.254h1.854v-8.28h2.466zm13.752.054a15.393 15.393 0 0 0 .45-4.32v-1.37h-11.16V8.4h9.324a14.5 14.5 0 0 1-.432 4zm-5.13 8.37c-2.412 0-3.888-.594-3.888-1.62 0-1.008 1.476-1.6 3.888-1.6 2.394 0 3.834.594 3.834 1.6.004 1.024-1.44 1.618-3.834 1.618zm0-4.644c-3.51 0-5.724 1.152-5.724 3.024 0 1.89 2.214 3.042 5.724 3.042 3.456 0 5.688-1.152 5.688-3.042 0-1.874-2.232-3.026-5.688-3.026zm.36-2.754v-2.99h-1.872v2.988h-5.76v1.494h14.652v-1.494zm9.234 11.032a4.22 4.22 0 0 0 2.952-4.05c0-1.386-.594-2.232-1.6-2.232a1.345 1.345 0 0 0-1.44 1.332 1.3 1.3 0 0 0 1.386 1.332.738.738 0 0 0 .2-.018 2.794 2.794 0 0 1-1.962 2.466zm19.512-12.834h-7.236V9.948h7.236zm1.836-5.13h-1.836v1.89h-7.236v-1.89H404.5v6.588h10.9zm-9.162 11h-1.854v4.444h11.3v-1.512h-9.45zm-3.654-3.042v1.494h6.588v2.9h1.854v-2.9h6.3v-1.496zm25.974-.882a5.4 5.4 0 0 1-3.8-5.022V6.96h-1.872v1.62a5.665 5.665 0 0 1-3.942 5.436l.972 1.476a6.755 6.755 0 0 0 3.924-3.834 6.323 6.323 0 0 0 3.726 3.492zm-7.074 4.374h9.112V22.4h1.854v-5.8h-10.966zM430.6 6.114v3.24h-3.3v1.53h3.3v4.9h1.854v-9.67zm17.3 4.374v1.53h2.952v6.012h1.848V6.15h-1.854v4.338zm1.008 3.8a5.345 5.345 0 0 1-3.816-4.878v-.56h3.384V7.356h-8.694V8.85h3.438v.558a5.657 5.657 0 0 1-4 5.22l.954 1.458a6.644 6.644 0 0 0 4.014-3.852 6.254 6.254 0 0 0 3.8 3.492zm-4.878 6.282V17h-1.86v5.08h10.944v-1.512zm22.59-9.324h-7.326V8.328h7.326zm1.818-4.392H457.47v5.866h10.962zm-9.18 10.53H457.4v4.7h11.3v-1.516h-9.45zm-3.654-3.06v1.494h6.588v3.042h1.854v-3.044h6.3v-1.494zm29.466-3.672h-3.75v-2.63h3.744zm-5.6 0h-2.214v1.4h11.862v-1.4h-2.2v-2.63h2.282V6.6h-12.038v1.422h2.3zm0 8.982h9.252v-3.78h-11.128v1.366h9.306v1.134h-9.27v3.888h11.556v-1.386h-9.72zm-3.618-6.444v1.476h14.724v-1.478zm26.586-1.44h1.8v5.38H506v-11h-1.764v4.1h-1.8v-3.8h-1.728v9.324h1.728zm-2.61 1.89a25.191 25.191 0 0 1-5.094.45v-2.018h4.32V7.356h-6.156v1.458h4.356v1.872h-4.32v4.9h1.1a29.176 29.176 0 0 0 5.966-.472zm1.6 2.772h-1.838v.36c0 1.926-2.232 3.69-5.364 4.122l.72 1.44a7.915 7.915 0 0 0 5.58-3.222 7.872 7.872 0 0 0 5.544 3.222l.72-1.44c-3.132-.432-5.364-2.2-5.364-4.122zm10.782 2.052h7.506v2.25h-7.506zm-1.836 3.726h11.16v-5.2h-11.16zm3.706-14.096h3.744v2.988h-3.744zm2.808 6.084v-1.6h4.986v-1.496h-2.2V8.094h2.286V6.6h-12.038v1.494h2.3v2.988h-2.214v1.494h5v1.6h-6.418v1.476h14.742v-1.474zM532.35 7.05c-3.4 0-5.976 1.836-5.976 4.59 0 2.772 2.574 4.59 5.976 4.59 3.384 0 5.976-1.818 5.976-4.59 0-2.754-2.592-4.59-5.976-4.59zm0 1.53c2.394 0 4.176 1.188 4.176 3.06s-1.782 3.06-4.176 3.06c-2.412 0-4.176-1.188-4.176-3.06s1.764-3.06 4.176-3.06zm-7.344 10.22v1.53h14.724V18.8zm24.642.144v-2.768h5.076v-1.494h-9.738v-2.268h9.378V7.266h-11.232V8.76h9.4v2.178h-9.36v5.238h4.626v2.772h-6.408v1.53h14.72v-1.53zm8.622 5.656a4.22 4.22 0 0 0 2.952-4.05c0-1.386-.594-2.232-1.6-2.232a1.345 1.345 0 0 0-1.44 1.332 1.3 1.3 0 0 0 1.386 1.332.739.739 0 0 0 .2-.018 2.794 2.794 0 0 1-1.968 2.466zm19.782-15.354a34.988 34.988 0 0 1-.63 7.434l1.872.2a37.221 37.221 0 0 0 .63-7.632v-1.6H568.35v1.508h9.7zm-3.888 9.486v-5.724h-1.872v5.724h-5.472v1.53h14.688v-1.53zm18.234-7.65h-3.744V8.094h3.746zm-5.6 0h-2.214v1.494h11.862v-1.494h-2.2V8.094h2.286V6.6H584.5v1.494h2.3zm7.488 9.63h-7.506V18.5h7.506zm3.6-5.346v-1.494h-14.704v1.494h6.426v1.656h-4.662v5.166h11.16v-5.166h-4.644v-1.656zm15.084-9.234h-1.87v8.388h1.872zm-3.384 6.714c-2.466-.7-3.906-2.484-3.96-4.374h3.474V6.978h-8.89v1.494h3.528a5.2 5.2 0 0 1-4.032 4.7l.882 1.458a6.526 6.526 0 0 0 4.122-3.6 6.3 6.3 0 0 0 4.05 3.24zM604.17 20.8v-1.44h8.8v-4.1h-10.654v1.4h8.82v1.37h-8.784v4.212h11.106V20.8zM621.2 7.266c-2.538 0-4.41 1.6-4.41 3.906s1.872 3.906 4.41 3.906 4.428-1.6 4.428-3.906-1.892-3.906-4.428-3.906zm0 1.584a2.336 2.336 0 1 1-2.592 2.322A2.353 2.353 0 0 1 621.2 8.85zm6.264-2.736V22.4h1.872V6.114zm-11.2 12.852a56.58 56.58 0 0 0 10.35-.72l-.126-1.35a74.311 74.311 0 0 1-10.458.54zM3.294 39.552h4.32V38.04H1.458v10.566h1.1a28.531 28.531 0 0 0 5.9-.45l-.158-1.53a23.379 23.379 0 0 1-5 .45zM9.7 42.216H6.5v1.512h3.2v7.884h1.746V36.474H9.7zm3.312-6.1v16.252H14.8V36.114zm15.786 0v16.306h1.872V36.114zm-6.784 1.204c-2.412 0-4.176 2.232-4.176 5.724 0 3.528 1.764 5.742 4.176 5.742 2.43 0 4.194-2.214 4.194-5.742 0-3.492-1.764-5.724-4.194-5.724zm0 1.674c1.422 0 2.412 1.53 2.412 4.05 0 2.556-.99 4.086-2.412 4.086-1.4 0-2.394-1.53-2.394-4.086 0-2.52.99-4.05 2.394-4.05zm14.238 4.59h5.022v-1.476h-5.022v-3.042h5.688v-1.53H34.4v11.07h1.278a39.245 39.245 0 0 0 7.308-.486l-.162-1.494a38.6 38.6 0 0 1-6.57.468zm9.054-7.484v5.976h-3.114V43.6h3.114v8.8h1.872V36.1zm18.5.018h-1.76v11.07h1.764zM58.86 45.69h1.746v-9.234H58.86v3.2h-2.286v1.512h2.286zm-.828-1.962a4.992 4.992 0 0 1-3.024-4.608v-2h-1.8v2a5.494 5.494 0 0 1-3.258 4.9l1.008 1.4a6.074 6.074 0 0 0 3.15-3.366 5.765 5.765 0 0 0 2.916 3.1zm1.332 2.664H57.51v.432c0 1.908-2.232 3.636-5.382 4.068l.684 1.422a7.794 7.794 0 0 0 5.616-3.168 7.754 7.754 0 0 0 5.6 3.168l.684-1.422c-3.15-.432-5.346-2.16-5.346-4.068zm14.418-8.622c2.52 0 3.87.486 3.87 1.422 0 .918-1.35 1.4-3.87 1.4s-3.87-.486-3.87-1.4c0-.936 1.35-1.422 3.87-1.422zm0 4.212c3.636 0 5.8-.99 5.8-2.79 0-1.818-2.16-2.808-5.8-2.808-3.654 0-5.8.99-5.8 2.808.004 1.8 2.146 2.79 5.8 2.79zm-3.744 7.488h9.252v-3.888H68.166v1.4h9.306v1.17H68.2v4.086h11.558V50.82h-9.72zm-3.618-6.534v1.476h14.724v-1.476zm29-2.718v1.512h2.88v4.086h1.854v-9.684H98.3v4.086zm.936 3.618a5.331 5.331 0 0 1-3.816-4.9v-.216h3.384v-1.49h-8.696v1.494h3.438v.234a5.707 5.707 0 0 1-3.978 5.292l.954 1.476a6.727 6.727 0 0 0 4.014-3.906 6.349 6.349 0 0 0 3.78 3.474zm-1.6 7.128c-2.322 0-3.636-.576-3.636-1.638s1.314-1.638 3.636-1.638c2.286 0 3.618.576 3.618 1.638s-1.336 1.638-3.622 1.638zm0-4.716c-3.4 0-5.49 1.152-5.49 3.078 0 1.944 2.088 3.078 5.49 3.078 3.384 0 5.472-1.134 5.472-3.078-.004-1.926-2.092-3.078-5.476-3.078zm17.87-8.748h-3.69v-1.512h-1.872V37.5h-3.726v1.35h9.288zm-6.768 4.284c0-.738.828-1.188 2.124-1.188s2.124.45 2.124 1.188c0 .72-.828 1.152-2.124 1.152s-2.124-.436-2.124-1.152zm7.218 2.988c-1.314.2-2.736.288-4.14.36v-1.008c1.8-.216 2.916-1.062 2.916-2.34 0-1.512-1.53-2.43-3.87-2.43s-3.87.918-3.87 2.43c0 1.278 1.116 2.142 2.952 2.34V45.2c-1.494.036-2.916.036-4.14.036l.216 1.476a61.284 61.284 0 0 0 10.08-.648zm-8.136 4.554h9V52.4h1.854v-4.55H104.94zm13.086-8.388h-2.232V36.15h-1.854v10.98h1.854v-4.662h2.232zm6.156 6.426a2.268 2.268 0 1 1 2.268-2.264 2.164 2.164 0 0 1-2.268 2.264zm0-6.066a3.8 3.8 0 1 0 4.032 3.8 3.782 3.782 0 0 0-4.032-3.798zm.9-4.932h-1.854v2.268h-3.87v1.512h9.522v-1.512h-3.8zm9.486 6.3h-2.5v-6.534h-1.872V52.4h1.872v-8.19h2.5zm12.492-3.42a34.989 34.989 0 0 1-.63 7.434l1.872.2a37.217 37.217 0 0 0 .63-7.632v-1.6h-11.574v1.512h9.7zm-3.888 9.486v-5.724H141.3v5.724h-5.472v1.53h14.688v-1.53zm16.182-1.692h-1.512v-3.96h1.512zm0-5.436h-1.512v-3.978h-1.548v10.908h4.59V37.626h-1.53zm5.328 5.436h-1.494v-3.96h1.494zm0-5.436h-1.494v-3.978h-1.53v10.908h4.554V37.626h-1.53zm6.462.738H169.2v-6.21h-1.818V52.4h1.818v-8.528h1.944zm12.456-1.368h-9.36v5.256h11.56v-1.512h-9.738V42.45h9.378V37.3H174.2v1.512h9.4zm-11.142 7.938v1.53h14.724v-1.53zm25.092-6.318h-2.394a13.888 13.888 0 0 0 .684-4.464h-6.318v1.494H194a9.808 9.808 0 0 1-5.256 8.01l1.062 1.314a12.126 12.126 0 0 0 4.752-4.86h2.988v7.524h1.754V36.528h-1.75zm3.4-6.462v16.254h1.782V36.132zm22.842 7.938h-2.268a28.56 28.56 0 0 0 .414-5.526v-1.422h-11.086v1.494h9.27a24.732 24.732 0 0 1-.468 5.454h-10.566v1.53h6.354v6.786h1.872V45.6h6.48zm2.988-.594c2.826-.234 5-1.17 6.012-2.628 1.008 1.458 3.186 2.394 6.012 2.628l.576-1.4c-3.312-.252-5.346-1.458-5.526-2.934h4.824V37.68h-4.95v-1.6h-1.854v1.6h-4.968v1.458h4.842c-.18 1.476-2.232 2.682-5.526 2.934zm13.374 2.25v-1.494H225.45v1.494h6.426v1.638h-4.788v1.476h9.412v3.528h1.854v-5h-4.624v-1.642zm11.3-8.046h-3.87v-1.692h-1.854v1.692h-3.87v1.494h9.594zm-6.966 4.95c0-.918.864-1.476 2.16-1.476s2.178.558 2.178 1.476c0 .936-.882 1.494-2.178 1.494s-2.154-.558-2.154-1.494zm6.1 0c0-1.71-1.584-2.862-3.942-2.862-2.34 0-3.942 1.152-3.942 2.862 0 1.728 1.6 2.88 3.942 2.88 2.366 0 3.954-1.152 3.954-2.88zm2.106 8.082h-6.714v-1.494h6.72zm0-2.934h-6.714v-1.494h-1.836v5.9h10.386v-5.9h-1.83zm4.14-7.6h-2.3v-4.05h-1.854v9.486h1.854v-3.902h2.3zm4.176-2.466h-1.836v10.57h1.386a38.824 38.824 0 0 0 7.938-.774l-.2-1.548a37.646 37.646 0 0 1-7.29.738zm8.784-1.584v16.258h1.854V36.132zm7.308 3.042h5.706v-1.508h-7.56v10.746h1.332a40.117 40.117 0 0 0 7.6-.54l-.2-1.53a39.243 39.243 0 0 1-6.876.522zm12.618 3.2h-2.53v-6.256h-1.854V52.4h1.854v-8.5h2.538zm3.024 8.856a1.378 1.378 0 0 0 1.386-1.44 1.389 1.389 0 1 0-2.772 0 1.378 1.378 0 0 0 1.394 1.448zm10.116-5.652l.54-1.782c.432-1.44.846-2.9 1.224-4.41h.072c.414 1.494.81 2.97 1.26 4.41l.522 1.782zM308.106 51h2.214l-4.392-13.248h-2.412L299.124 51h2.124l1.134-3.78h4.608zm3.78 0h2.088V37.752h-2.088zm22.176-14.868H332.3v12.132h1.764zm-11.988 5.256c0-1.494.864-2.448 2.034-2.448 1.188 0 2.052.954 2.052 2.448a2.071 2.071 0 1 1-4.086 0zm7.11.792v5.62h1.728V36.438h-1.728v4.212h-1.4a3.654 3.654 0 0 0-3.672-3.294 3.72 3.72 0 0 0-3.69 4.032 3.709 3.709 0 0 0 3.69 4 3.64 3.64 0 0 0 3.654-3.2zm-4 8.388V46.7h-1.872v5.38h11.2v-1.512zm24.898-14.418h-1.854v11.826h1.854zm-3.366 8.19a5.3 5.3 0 0 1-3.978-4.86v-.594h3.474v-1.494h-8.892v1.494h3.528v.594a5.544 5.544 0 0 1-4.032 5.166l.972 1.44a6.541 6.541 0 0 0 4.032-3.762 6.427 6.427 0 0 0 3.96 3.474zm-5.382 6.228V46.9h-1.872v5.18h11.088v-1.512zm19.08-12.8c2.52 0 3.87.486 3.87 1.422 0 .918-1.35 1.4-3.87 1.4s-3.87-.486-3.87-1.4c0-.934 1.35-1.42 3.87-1.42zm0 4.212c3.636 0 5.8-.99 5.8-2.79 0-1.818-2.16-2.808-5.8-2.808-3.654 0-5.8.99-5.8 2.808.004 1.802 2.146 2.792 5.8 2.792zm-3.744 7.49h9.252v-3.888H354.8v1.4h9.3v1.17h-9.27v4.086h11.56V50.82h-9.72zm-3.618-6.534v1.476h14.724v-1.476zm29.826-5.67h-3.69v-1.3h-1.872v1.3h-3.708v1.278h9.27zm-6.768 3.816c0-.612.828-.954 2.124-.954 1.314 0 2.124.342 2.124.954 0 .63-.81.972-2.124.972-1.296 0-2.124-.342-2.124-.972zm7.218 2.574c-1.314.18-2.736.288-4.14.36v-.846c1.818-.18 2.916-.918 2.916-2.088 0-1.332-1.512-2.124-3.87-2.124s-3.87.792-3.87 2.124c0 1.17 1.116 1.908 2.952 2.088v.918c-1.494.036-2.916.036-4.14.036l.2 1.314a59.684 59.684 0 0 0 10.1-.648zm-6.12 6.174h8.838v-3.456h-10.71v1.26h8.874v1.026h-8.838v3.582h11.268v-1.278h-9.432zm8.838-9.684v-4.014h-1.854v9.558h1.854v-4.014h2.232v-1.53zm10.962 10.818c-2.376 0-3.708-.5-3.708-1.494 0-.972 1.332-1.494 3.708-1.494s3.726.522 3.726 1.494c0 .99-1.35 1.494-3.726 1.494zm0-4.41c-3.492 0-5.6 1.062-5.6 2.916 0 1.872 2.106 2.916 5.6 2.916 3.51 0 5.6-1.044 5.6-2.916-.002-1.854-2.09-2.916-5.6-2.916zm-1.98-4.176a13.781 13.781 0 0 0 2.016.144 13.275 13.275 0 0 0 1.98-.144v1.656h-4zm2.016-4.536c2.412 0 3.87.576 3.87 1.62s-1.458 1.638-3.87 1.638c-2.43 0-3.888-.594-3.888-1.638s1.458-1.62 3.888-1.62zm3.834 6.192v-2.142a2.738 2.738 0 0 0 1.962-2.43c0-1.908-2.25-3.06-5.8-3.06-3.564 0-5.8 1.152-5.8 3.06a2.684 2.684 0 0 0 1.926 2.412v2.16h-3.492v1.476h14.706v-1.476zm14.814-6.048h-3.87v-1.872h-1.854v1.872H406.1v1.476h9.594zm-6.966 5.31c0-1.026.882-1.638 2.16-1.638 1.3 0 2.178.612 2.178 1.638s-.882 1.638-2.178 1.638c-1.278 0-2.16-.612-2.16-1.634zm6.1 0c0-1.836-1.6-3.078-3.942-3.078-2.322 0-3.942 1.242-3.942 3.078 0 1.854 1.62 3.078 3.942 3.078 2.342 0 3.944-1.224 3.944-3.074zm-4.482 4.086h-1.872v4.7h10.944v-1.514h-9.072zm8.424-6.066v-5.184h-1.854v12.186h1.854v-5.472h2.3v-1.53zm10.062-2.142h5.706v-1.512h-7.56v10.746h1.332a40.117 40.117 0 0 0 7.6-.54l-.2-1.53a39.243 39.243 0 0 1-6.876.522zm12.618 3.2h-2.538v-6.26h-1.854V52.4h1.854v-8.5h2.538zm3.276-1.44a2.519 2.519 0 1 1 2.5 2.322 2.31 2.31 0 0 1-2.498-2.318zm6.84 0c0-2.286-1.854-3.87-4.338-3.87-2.466 0-4.32 1.584-4.32 3.87s1.854 3.888 4.32 3.888c2.486.004 4.34-1.598 4.34-3.884zm-1.4 9.972c-2.268 0-3.582-.576-3.582-1.638 0-1.08 1.314-1.656 3.582-1.656s3.582.576 3.582 1.656c-.002 1.066-1.316 1.642-3.584 1.642zm0-4.77c-3.33 0-5.418 1.17-5.418 3.132 0 1.944 2.088 3.114 5.418 3.114 3.348 0 5.418-1.17 5.418-3.114-.002-1.958-2.072-3.128-5.42-3.128zm7.488-6.264v-1.53H455.4v-2.228h-1.854v9.576h1.854v-2.3h2.25v-1.53h-2.25v-1.98zm11.052-1.89h-3.87v-1.868h-1.854v1.872h-3.87v1.476h9.59zm-6.966 5.31c0-1.026.882-1.638 2.16-1.638 1.3 0 2.178.612 2.178 1.638s-.882 1.638-2.178 1.638c-1.28.004-2.162-.608-2.162-1.63zm6.1 0c0-1.836-1.6-3.078-3.942-3.078-2.322 0-3.942 1.242-3.942 3.078 0 1.854 1.62 3.078 3.942 3.078 2.34.004 3.942-1.22 3.942-3.07zm-4.482 4.086h-1.872v4.7h10.944v-1.51h-9.072zm8.424-6.066v-5.18h-1.854v12.186h1.854v-5.472h2.3v-1.53zm18.522.45h-7.236v-1.814h7.234zm1.836-5.13H490.3v1.89h-7.236v-1.89h-1.834v6.588h10.908zm-9.162 11h-1.854v4.448h11.3v-1.512h-9.45zm-3.654-3.042v1.494h6.588v2.9h1.854v-2.9h6.3v-1.492zm20.718 2.54c-1.422 0-2.394-1.53-2.394-4.086 0-2.52.972-4.05 2.394-4.05 1.4 0 2.394 1.53 2.394 4.05 0 2.556-.99 4.086-2.394 4.086zm0-9.81c-2.43 0-4.176 2.232-4.176 5.724 0 3.528 1.746 5.742 4.176 5.742s4.176-2.214 4.176-5.742c0-3.492-1.746-5.724-4.176-5.724zm10.71 4.3v-1.53h-2.45v-3.96h-1.854V52.4h1.854v-5.972h2.448V44.9H508.3v-3.278zm6.588-4.356c-2.538 0-4.41 1.6-4.41 3.906s1.872 3.906 4.41 3.906 4.428-1.6 4.428-3.906-1.89-3.904-4.428-3.904zm0 1.584a2.336 2.336 0 1 1-2.592 2.322 2.353 2.353 0 0 1 2.592-2.32zm6.264-2.736V52.4h1.872V36.114zm-11.2 12.852a56.58 56.58 0 0 0 10.35-.72l-.126-1.35a74.311 74.311 0 0 1-10.458.54zm29.142-4.5H537.8v-5.31h3.744zm-5.6 0h-2.34v1.512h12.132v-1.51h-2.358v-5.31h2.394v-1.494h-12.216v1.494h2.394zm-3.618 4.392v1.53h14.76v-1.53zm24.66.09v-2.77h5.076v-1.494h-9.732v-2.268h9.378v-5.148h-11.232v1.494h9.4v2.178h-9.36v5.238h4.626v2.772h-6.412v1.53h14.724v-1.53zm14.832-8.712v1.53h2.142v4.176h1.728v-9.466h-1.728v3.762zm1.278 3.78a4.746 4.746 0 0 1-3.042-4.428v-.7h2.592v-1.494h-7.2v1.494h2.79v.7a5.151 5.151 0 0 1-3.2 4.77l.972 1.422a5.8 5.8 0 0 0 3.168-3.294 5.4 5.4 0 0 0 2.988 2.952zm-5.256 4.194h9.162v4.176h1.854v-5.67h-11.01zm9.26-12.076v9.918h1.764v-9.918zm17.478 8.586H585.2v-2.232h8.892v-1.458H585.2V38.94h9.252v-1.494h-11.144v8.766h11.268zm-13.088 4.158v1.512h14.742v-1.512zm31.86-8.442v1.872h-3.942v1.512h3.942v1.872h1.85v-9.558h-1.85v2.79H610a9.19 9.19 0 0 0 .144-1.62h-7.38V38.8h5.4c-.324 2.538-2.43 4.536-6.246 5.6l.738 1.476c3.51-1.026 5.9-2.844 6.912-5.436zm-3.474 10.422c-2.2 0-3.582-.63-3.582-1.764 0-1.116 1.386-1.746 3.582-1.746 2.214 0 3.6.63 3.6 1.746 0 1.134-1.386 1.764-3.6 1.764zm0-4.968c-3.294 0-5.418 1.224-5.418 3.2 0 2 2.124 3.222 5.418 3.222s5.436-1.224 5.436-3.222c0-1.976-2.142-3.2-5.436-3.2zm17.712-8.19h-3.78V35.97h-1.872v1.73h-3.78v1.476h9.432zm-6.768 5.094c0-.918.846-1.512 2.052-1.512s2.052.594 2.052 1.512c0 .936-.846 1.53-2.052 1.53s-2.052-.594-2.052-1.53zm5.868 0c0-1.728-1.584-2.916-3.816-2.916s-3.816 1.188-3.816 2.916c0 1.746 1.584 2.916 3.816 2.916s3.816-1.17 3.816-2.916zm-3.96 5.418h7.038v2.5h-7.038zm-1.818 3.978h10.674v-5.436H620.91zm8.82-16.074v4.86h-2.412V42.5h2.412v3.46h1.854v-9.846zm12.114 1.656c2.52 0 3.87.486 3.87 1.422 0 .918-1.35 1.4-3.87 1.4s-3.87-.486-3.87-1.4c0-.936 1.35-1.422 3.87-1.422zm0 4.212c3.636 0 5.8-.99 5.8-2.79 0-1.818-2.16-2.808-5.8-2.808-3.654 0-5.8.99-5.8 2.808.004 1.8 2.146 2.79 5.8 2.79zM638.1 49.47h9.252v-3.888h-11.124v1.4h9.306v1.17h-9.27v4.086h11.556V50.82h-9.72zm-3.618-6.534v1.476h14.724v-1.476zM7.362 77.058H3.33V73.08h4.032zm0-5.454H3.33v-4.14H1.476v11.088H9.2V67.464H7.362zm8.676.774H13.5v-6.246h-1.854V82.4H13.5v-8.474h2.538zm10.422.792a36.839 36.839 0 0 1-6.642.45v-1.746h5.364V70.4h-5.364v-1.676h5.67V67.23h-7.524v7.884h1.278a39.262 39.262 0 0 0 7.416-.468zm-1.692 7.794c-2.268 0-3.582-.558-3.582-1.548 0-1.008 1.314-1.548 3.582-1.548 2.25 0 3.564.54 3.564 1.548 0 .99-1.314 1.548-3.564 1.548zm0-4.536c-3.366 0-5.418 1.1-5.418 2.988 0 1.872 2.052 2.97 5.418 2.97 3.348 0 5.4-1.1 5.4-2.97 0-1.89-2.052-2.988-5.4-2.988zm5.22-6.264v-4.032h-1.854v9.936h1.854v-4.374h2.3v-1.53zm11.034-3.114c-3.4 0-5.976 1.836-5.976 4.59 0 2.772 2.574 4.59 5.976 4.59 3.384 0 5.976-1.818 5.976-4.59.002-2.754-2.592-4.59-5.976-4.59zm0 1.53c2.394 0 4.176 1.188 4.176 3.06s-1.782 3.06-4.176 3.06c-2.412 0-4.176-1.188-4.176-3.06s1.764-3.06 4.176-3.06zM33.678 78.8v1.53H48.4V78.8zm24.642.144v-2.768h5.08v-1.494h-9.742v-2.268h9.378v-5.148H51.8v1.494h9.4v2.178h-9.36v5.238h4.626v2.772h-6.408v1.53h14.724v-1.53zm23.22-9.7a34.988 34.988 0 0 1-.63 7.434l1.872.2a37.217 37.217 0 0 0 .63-7.632v-1.6H71.838v1.512h9.7zm-3.888 9.486v-5.722H75.78v5.724h-5.472v1.53H85v-1.53zm9.72-11.43v1.5h4.464c-.306 2.5-1.98 4.428-5.184 5.688l.882 1.332c4.176-1.674 6.21-4.518 6.21-8.514zm2.016 10.6h9.2v4.5h1.854v-5.99H89.388zm9.288-11.772v3.942h-1.8v-3.632H95.13V75.6h1.746v-4.014h1.8v4.086h1.764v-9.54zm9.63 1.134c-2.538 0-4.41 1.6-4.41 3.906s1.872 3.906 4.41 3.906 4.428-1.6 4.428-3.906-1.89-3.902-4.428-3.902zm0 1.584a2.336 2.336 0 1 1-2.592 2.322 2.353 2.353 0 0 1 2.592-2.318zm6.264-2.736V82.4h1.872V66.114zm-11.2 12.852a56.58 56.58 0 0 0 10.35-.72l-.12-1.342a74.31 74.31 0 0 1-10.458.54zm33.34-12.83h-1.854V77.94h1.854zm-11.268 5.148a2.5 2.5 0 1 1 2.5 2.466 2.372 2.372 0 0 1-2.5-2.466zm6.8 0a4.318 4.318 0 1 0-4.3 4.068 4.067 4.067 0 0 0 4.304-4.068zm-4.284 9.288v-3.816h-1.868v5.328h11.088v-1.512zm24.156-7.974a15.392 15.392 0 0 0 .45-4.32v-1.368h-11.16V68.4h9.324a14.5 14.5 0 0 1-.432 4zm-5.13 8.37c-2.412 0-3.888-.594-3.888-1.62 0-1.008 1.476-1.6 3.888-1.6 2.394 0 3.834.594 3.834 1.6.004 1.026-1.436 1.62-3.83 1.62zm0-4.644c-3.51 0-5.724 1.152-5.724 3.024 0 1.89 2.214 3.042 5.724 3.042 3.456 0 5.688-1.152 5.688-3.042.004-1.872-2.228-3.024-5.684-3.024zm.36-2.754v-2.988h-1.872v2.988h-5.76v1.494h14.652v-1.494zm14.724-4.284h3.618v-1.53h-9.108v1.53h3.622v1.548a7.949 7.949 0 0 1-4.194 6.984l1.062 1.476a8.384 8.384 0 0 0 4.086-5.112 7.967 7.967 0 0 0 4.1 4.7l1.026-1.458a7.333 7.333 0 0 1-4.212-6.588zm5.508-3.15v16.254h1.872V66.132zm17.91 4.32h-9.252v-4.014h-1.854v5.508h11.11zm-5.72 10.458c-2.376 0-3.708-.558-3.708-1.548 0-1.026 1.332-1.548 3.708-1.548s3.726.522 3.726 1.548c0 .99-1.35 1.548-3.726 1.548zm0-4.554c-3.474 0-5.6 1.1-5.6 3.006 0 1.89 2.124 2.988 5.6 2.988 3.492 0 5.6-1.1 5.6-2.988-.002-1.908-2.108-3.006-5.6-3.006zm-7.308-2.772V75.1h14.706v-1.516zm27.882-7.47v16.308h1.872V66.114zm-6.786 1.206c-2.412 0-4.176 2.232-4.176 5.724 0 3.528 1.764 5.742 4.176 5.742 2.43 0 4.194-2.214 4.194-5.742 0-3.492-1.764-5.724-4.194-5.724zm0 1.674c1.422 0 2.412 1.53 2.412 4.05 0 2.556-.99 4.086-2.412 4.086-1.4 0-2.394-1.53-2.394-4.086 0-2.52.99-4.05 2.394-4.05zm16.884 6.354A6.21 6.21 0 0 0 214.47 72a6.192 6.192 0 0 0 4.032 3.186l.828-1.44c-2.394-.648-3.834-2.268-3.942-4.1h3.546v-1.498h-3.546v-1.89h-1.854v1.89h-3.528v1.494h3.51c-.09 1.908-1.512 3.6-3.924 4.266zm4.95-.522h-1.854v2.79c-1.566.054-3.1.054-4.374.054l.234 1.53a53.674 53.674 0 0 0 10.35-.738l-.144-1.35a39.735 39.735 0 0 1-4.212.414zm5.2-8.712v16.308h1.872V66.114zm16.11 3.132a34.989 34.989 0 0 1-.63 7.434l1.872.2a37.217 37.217 0 0 0 .63-7.632v-1.6H227v1.512h9.7zm-3.888 9.486v-5.724h-1.87v5.724h-5.472v1.53h14.688v-1.53zm14.274-11.466c-2.538 0-4.41 1.6-4.41 3.906s1.872 3.906 4.41 3.906 4.428-1.6 4.428-3.906-1.888-3.906-4.426-3.906zm0 1.584a2.336 2.336 0 1 1-2.592 2.322 2.353 2.353 0 0 1 2.594-2.322zm6.264-2.736V82.4h1.872V66.114zm-11.2 12.852a56.58 56.58 0 0 0 10.35-.72l-.126-1.35a74.31 74.31 0 0 1-10.458.54zm31.554-3.258h1.854v-9.594h-1.854v3.258h-3.294v1.512h3.294zm-1.956-2.108a5.286 5.286 0 0 1-3.816-5.094V67h-1.872v1.6a5.688 5.688 0 0 1-4.032 5.454l.974 1.492a6.722 6.722 0 0 0 4.05-3.924 6.31 6.31 0 0 0 3.708 3.438zm-1.6 7.326c-2.3 0-3.618-.594-3.618-1.656s1.314-1.656 3.618-1.656 3.636.594 3.636 1.656-1.334 1.658-3.638 1.658zm0-4.77c-3.384 0-5.472 1.152-5.472 3.114s2.088 3.114 5.472 3.114c3.4 0 5.49-1.152 5.49-3.114s-2.09-3.112-5.492-3.112zm21.366-5.706h-9.252v-4.012h-1.86v5.508h11.11zm-5.726 10.46c-2.376 0-3.708-.558-3.708-1.548 0-1.026 1.332-1.548 3.708-1.548s3.726.522 3.726 1.548c0 .99-1.35 1.548-3.726 1.548zm0-4.554c-3.474 0-5.6 1.1-5.6 3.006 0 1.89 2.124 2.988 5.6 2.988 3.492 0 5.6-1.1 5.6-2.988-.002-1.908-2.108-3.006-5.6-3.006zm-7.308-2.772V75.1h14.706v-1.516zM302.2 67.77c2.52 0 3.87.486 3.87 1.422 0 .918-1.35 1.4-3.87 1.4s-3.87-.486-3.87-1.4c.002-.936 1.352-1.422 3.87-1.422zm0 4.212c3.636 0 5.8-.99 5.8-2.79 0-1.818-2.16-2.808-5.8-2.808-3.654 0-5.8.99-5.8 2.808.006 1.8 2.148 2.79 5.8 2.79zm-3.744 7.488h9.252v-3.888h-11.122v1.4h9.306v1.17h-9.27v4.086h11.556V80.82h-9.72zm-3.618-6.534v1.476h14.724v-1.476zm26.622.774h-3.96v-4.7h3.96zm1.818-6.192h-7.614V75.2h7.614zm-3.906 9.36H317.5v5.2h10.944v-1.51h-9.072zm8.424-5.922v-4.842h-1.854V78.03h1.858v-5.544h2.3v-1.53zm16.668-.864h-9.252v-2.034h9.09v-1.494h-10.924v5.022h11.088zm-9.378 9.324h9.252v-4.032h-11.122v1.422h9.306v1.26h-9.27v4.158h11.556v-1.44h-9.72zm-3.58-6.716v1.5h14.706v-1.5zm20.736 4.428c-1.386 0-2.34-1.512-2.34-4.086 0-2.52.954-4.05 2.34-4.05 1.4 0 2.358 1.53 2.358 4.05 0 2.576-.954 4.088-2.358 4.088zm7.258-11.014v6.066h-3.168c-.252-2.988-1.908-4.86-4.086-4.86-2.394 0-4.1 2.232-4.1 5.724 0 3.528 1.71 5.742 4.1 5.742 2.232 0 3.888-1.944 4.1-5.094h3.15v8.73h1.872V66.114zm14.9 4.95h1.836v3.366H378v-8.3h-1.764v3.42H374.4v-3.112h-1.746v7.938h1.746zm-2.844.666a27.468 27.468 0 0 1-4.734.45v-5.148h-1.854v6.66h1.062a30.114 30.114 0 0 0 5.724-.45zm-2.52 8.982v-1.44H378v-4.158h-10.854v1.458h9v1.314h-8.964v4.3h11.412v-1.474zm29.52-8.586c-3.276-.468-5.724-2.5-5.724-4.608v-.864h-1.962v.864c0 2.142-2.412 4.14-5.724 4.608l.72 1.494a8.174 8.174 0 0 0 5.994-3.672 8.225 8.225 0 0 0 5.976 3.672zm.63 3.024H384.5v1.512h6.372V82.4h1.854v-5.738h6.462zm18.954-9h-1.854v9.234h1.854zm-8.766 2.412a2.312 2.312 0 1 1-2.5 2.3 2.306 2.306 0 0 1 2.5-2.3zm0 6.138c2.484 0 4.3-1.566 4.3-3.834s-1.818-3.834-4.3-3.834-4.32 1.566-4.32 3.834 1.836 3.834 4.32 3.834zm7.038 1.386h-1.818v.72a4.685 4.685 0 0 1-2.124 3.726 4.366 4.366 0 0 1-2.052-3.726v-.72h-1.8v.72a4.391 4.391 0 0 1-3.15 4l.9 1.368a5.487 5.487 0 0 0 3.15-2.88 5.1 5.1 0 0 0 2.988 3.024 5.488 5.488 0 0 0 2.97-3.06 5.246 5.246 0 0 0 3.186 2.916l.918-1.368a4.211 4.211 0 0 1-3.168-4zm12.978 2.826v-3.834h4.81v-1.494h-9.414V68.85h9.27v-1.494h-11.128v7.722h4.608v3.834h-6.408v1.53h14.724v-1.53zm9.756.144h9.468V82.3h1.854v-4.738h-11.322zm6.642-4.086v-1.476h4.912v-1.422h-9.5v-1.44h9.18V66.51h-11.036v1.422h9.2V69.3h-9.164v4.194h4.554v1.476h-6.444v1.494h14.742V74.97zm21.582-7.29h-3.87v-1.692h-1.854v1.692h-3.87v1.494h9.594zm-6.97 4.95c0-.918.864-1.476 2.16-1.476s2.178.558 2.178 1.476c0 .936-.882 1.494-2.178 1.494s-2.16-.558-2.16-1.494zm6.1 0c0-1.71-1.584-2.862-3.942-2.862-2.34 0-3.942 1.152-3.942 2.862 0 1.728 1.6 2.88 3.942 2.88 2.364 0 3.948-1.152 3.948-2.88zm2.106 8.082H461.9v-1.494h6.714zm0-2.934H461.9v-1.494h-1.836v5.9h10.386v-5.9h-1.836zm4.14-7.6h-2.3v-4.05h-1.854v9.486h1.854v-3.902h2.3zm4.176-2.466h-1.836v10.57h1.386a38.825 38.825 0 0 0 7.938-.774l-.2-1.548a37.646 37.646 0 0 1-7.29.738zm8.784-1.584v16.258h1.854V66.132zm7.308 3.042h5.706v-1.508h-7.56v10.746h1.34a40.116 40.116 0 0 0 7.6-.54l-.2-1.53a39.243 39.243 0 0 1-6.876.522zm12.618 3.2H503.1v-6.256h-1.854V82.4h1.854v-8.5h2.538zm3.024 8.856a1.378 1.378 0 0 0 1.386-1.44 1.389 1.389 0 1 0-2.772 0 1.378 1.378 0 0 0 1.392 1.448zM14.31 96.132h-1.854v11.808h1.854zM3.042 101.28a2.372 2.372 0 0 1 2.5-2.466 2.466 2.466 0 1 1 0 4.932 2.382 2.382 0 0 1-2.5-2.466zm6.8 0a4.067 4.067 0 0 0-4.3-4.068 4.075 4.075 0 1 0 0 8.136 4.077 4.077 0 0 0 4.304-4.068zm-4.284 9.288v-3.816H3.69v5.328h11.088v-1.512zm24.156-7.974a15.392 15.392 0 0 0 .45-4.32v-1.368H19.008V98.4h9.324a14.5 14.5 0 0 1-.432 4zm-5.13 8.37c-2.412 0-3.888-.594-3.888-1.62 0-1.008 1.476-1.6 3.888-1.6 2.394 0 3.834.594 3.834 1.6.004 1.026-1.436 1.62-3.83 1.62zm0-4.644c-3.51 0-5.724 1.152-5.724 3.024 0 1.89 2.214 3.042 5.724 3.042 3.456 0 5.688-1.152 5.688-3.042.004-1.872-2.228-3.024-5.684-3.024zm.36-2.754v-2.988h-1.868v2.988h-5.76v1.494h14.652v-1.494zm14.724-4.284h3.622v-1.53h-9.108v1.53H37.8v1.548a7.949 7.949 0 0 1-4.194 6.984l1.062 1.476a8.384 8.384 0 0 0 4.086-5.112 7.967 7.967 0 0 0 4.1 4.7l1.026-1.458a7.333 7.333 0 0 1-4.212-6.588zm5.508-3.15v16.254h1.872V96.132zm17.91 4.32h-9.248v-4.014h-1.854v5.508H63.09zm-5.72 10.458c-2.376 0-3.708-.558-3.708-1.548 0-1.026 1.332-1.548 3.708-1.548s3.726.522 3.726 1.548c0 .99-1.35 1.548-3.726 1.548zm0-4.554c-3.474 0-5.6 1.1-5.6 3.006 0 1.89 2.124 2.988 5.6 2.988 3.492 0 5.6-1.1 5.6-2.988-.002-1.908-2.108-3.006-5.6-3.006zm-7.308-2.772v1.516h14.706v-1.512zm23.724-5.814c2.52 0 3.87.486 3.87 1.422 0 .918-1.35 1.4-3.87 1.4s-3.87-.486-3.87-1.4c0-.936 1.35-1.422 3.87-1.422zm0 4.212c3.636 0 5.8-.99 5.8-2.79 0-1.818-2.16-2.808-5.8-2.808-3.654 0-5.8.99-5.8 2.808.004 1.8 2.146 2.79 5.8 2.79zm-3.744 7.488h9.252v-3.888H68.166v1.4h9.306v1.17H68.2v4.086h11.558v-1.418h-9.72zm-3.618-6.534v1.476h14.724v-1.476zm25.56-4.572c1.422 0 2.412.738 2.412 1.872 0 1.152-.99 1.89-2.412 1.89-1.4 0-2.412-.738-2.412-1.89 0-1.136 1.008-1.872 2.412-1.872zm0 5.292c2.43 0 4.194-1.4 4.194-3.42 0-2-1.764-3.4-4.194-3.4s-4.194 1.4-4.194 3.4c0 2.016 1.764 3.42 4.194 3.42zm5.238.612a75.644 75.644 0 0 1-10.53.576l.216 1.53c1.26 0 2.7-.018 4.23-.072v5.6h1.854v-5.706a35.587 35.587 0 0 0 4.356-.558zm1.062-8.136V112.4h1.854V96.132zm14.4 1.854h-3.87v-1.872h-1.854v1.872h-3.87v1.476h9.594zm-6.966 5.31c0-1.026.882-1.638 2.16-1.638 1.3 0 2.178.612 2.178 1.638s-.882 1.638-2.178 1.638c-1.274 0-2.16-.612-2.16-1.634zm6.1 0c0-1.836-1.6-3.078-3.942-3.078-2.322 0-3.942 1.242-3.942 3.078 0 1.854 1.62 3.078 3.942 3.078 2.342 0 3.944-1.224 3.944-3.074zm-4.482 4.086h-1.872v4.7h10.944v-1.512h-9.072zm8.424-6.066v-5.184H113.9v12.186h1.854v-5.472h2.3v-1.53zm17.172-3.6h-3.87v-1.674h-1.854v1.674h-3.87v1.476h9.594zm-6.966 5.148c0-.972.864-1.548 2.16-1.548s2.178.576 2.178 1.548c0 .954-.882 1.53-2.178 1.53s-2.158-.576-2.158-1.53zm6.1 0c0-1.782-1.6-2.97-3.942-2.97s-3.942 1.188-3.942 2.97c0 1.764 1.6 2.952 3.942 2.952s3.946-1.188 3.946-2.952zm-6.75 5.724h8.838v3.8h1.854v-5.292h-10.688zm13-8.1h-2.3v-4.356h-1.854V106.3h1.854v-4.284h2.3zm15.3.5c-3.222-.414-5.616-2.2-5.616-4.068v-.63h-1.908v.63c0 1.89-2.358 3.654-5.616 4.068l.684 1.44a8.1 8.1 0 0 0 5.886-3.276 8.175 8.175 0 0 0 5.9 3.276zm-2.952 9.72h-7.326v-1.746h7.326zm0-3.168h-7.326v-1.656H141.5v6.3h11.016v-6.3h-1.856zm-10.98-4.14v1.476h14.72V103.4zm22.644-3.852h4.32V98.04h-6.156v10.566h1.1a28.531 28.531 0 0 0 5.9-.45l-.162-1.53a23.379 23.379 0 0 1-5 .45zm6.408 2.664h-3.2v1.512h3.2v7.884h1.746V96.474h-1.746zm3.312-6.1v16.254h1.782V96.114zm15.786 0v16.308h1.87V96.114zm-6.786 1.206c-2.412 0-4.176 2.232-4.176 5.724 0 3.528 1.764 5.742 4.176 5.742 2.43 0 4.194-2.214 4.194-5.742 0-3.49-1.764-5.722-4.194-5.722zm0 1.674c1.422 0 2.412 1.53 2.412 4.05 0 2.556-.99 4.086-2.412 4.086-1.4 0-2.394-1.53-2.394-4.086 0-2.518.99-4.048 2.394-4.048zm14.238 4.59h5.018v-1.476h-5.022v-3.04h5.688v-1.53h-7.542v11.07h1.278a39.246 39.246 0 0 0 7.308-.486l-.162-1.494a38.6 38.6 0 0 1-6.57.468zm9.054-7.488v5.976h-3.114v1.53h3.114v8.8h1.872V96.1zm22.68 6.03c-3.276-.468-5.724-2.5-5.724-4.608v-.864h-1.962v.864c0 2.142-2.412 4.14-5.724 4.608l.72 1.494a8.173 8.173 0 0 0 5.994-3.672 8.225 8.225 0 0 0 5.976 3.672zm.63 3.024h-14.688v1.512h6.372v5.74h1.854v-5.742h6.462zm11.718-1.872c-2.5-.756-3.978-2.628-3.978-4.608V98.6h3.474v-1.5h-8.892v1.5h3.532v.072a5.278 5.278 0 0 1-4.032 4.878l.936 1.458a6.563 6.563 0 0 0 4.068-3.6 6.423 6.423 0 0 0 4 3.312zm1.53 7.416h-6.948v-1.8h6.948zm0-3.258h-6.948v-1.744h-1.836v6.5h10.62v-6.5h-1.836zm-.018-11.322v8.838h1.854v-8.836zm5.346 18.486a4.22 4.22 0 0 0 2.952-4.05c0-1.386-.594-2.232-1.6-2.232a1.345 1.345 0 0 0-1.44 1.332 1.3 1.3 0 0 0 1.386 1.332.738.738 0 0 0 .2-.018 2.794 2.794 0 0 1-1.962 2.466zm9.342-16.758v1.512h5.688c-.378 3.744-2.52 6.606-6.5 8.64l1.026 1.422c5.31-2.682 7.326-6.858 7.326-11.574zm14.256 4.7h-2.466v-6.426H265.5v16.254h1.854v-8.28h2.466zm13.752.054a15.393 15.393 0 0 0 .45-4.32v-1.368h-11.16V98.4h9.324a14.5 14.5 0 0 1-.432 4zm-5.13 8.37c-2.412 0-3.888-.594-3.888-1.62 0-1.008 1.476-1.6 3.888-1.6 2.394 0 3.834.594 3.834 1.6 0 1.026-1.44 1.62-3.834 1.62zm0-4.644c-3.51 0-5.724 1.152-5.724 3.024 0 1.89 2.214 3.042 5.724 3.042 3.456 0 5.688-1.152 5.688-3.042 0-1.872-2.23-3.024-5.688-3.024zm.36-2.754v-2.988h-1.872v2.988h-5.76v1.494h14.652v-1.494zm9.234 11.034a4.22 4.22 0 0 0 2.952-4.05c0-1.386-.594-2.232-1.6-2.232a1.345 1.345 0 0 0-1.44 1.332 1.3 1.3 0 0 0 1.386 1.332.738.738 0 0 0 .2-.018 2.794 2.794 0 0 1-1.962 2.466zm19.512-12.834h-7.236v-1.818h7.236zm1.836-5.13h-1.836v1.89h-7.236v-1.89h-1.836v6.588h10.908zm-9.162 11h-1.854v4.446h11.3v-1.512h-9.45zm-3.654-3.042v1.494h6.588v2.9h1.854v-2.9h6.3v-1.494zm25.974-.882a5.4 5.4 0 0 1-3.8-5.022v-1.73h-1.872v1.62a5.665 5.665 0 0 1-3.942 5.436l.972 1.476a6.755 6.755 0 0 0 3.924-3.834 6.323 6.323 0 0 0 3.726 3.492zm-7.074 4.374h9.108v4.32h1.854v-5.8h-10.962zm9.108-11.97v3.24h-3.294v1.53h3.294v4.9h1.854v-9.672zm17.3 4.374v1.53h2.952v6.012h1.854V96.15h-1.854v4.338zm1.008 3.8a5.345 5.345 0 0 1-3.816-4.878v-.562h3.384v-1.494h-8.694v1.494h3.438v.558a5.657 5.657 0 0 1-4 5.22l.954 1.458a6.644 6.644 0 0 0 4.014-3.852 6.254 6.254 0 0 0 3.8 3.492zM338 110.568V107h-1.85v5.076h10.944v-1.512zm22.59-9.324h-7.326v-2.916h7.326zm1.818-4.392H351.45v5.868h10.962zm-9.18 10.53h-1.854v4.7h11.3v-1.512h-9.45zm-3.654-3.06v1.494h6.588v3.042h1.854v-3.042h6.3v-1.494zm29.466-3.672h-3.74v-2.628h3.744zm-5.6 0h-2.214v1.4h11.862v-1.4h-2.2v-2.628h2.286V96.6h-12.032v1.422h2.3zm0 8.982h9.26v-3.78h-11.126v1.368h9.306v1.134h-9.27v3.888h11.556v-1.386h-9.72zm-3.618-6.444v1.476h14.724v-1.476zm26.586-1.44h1.8v5.382h1.764v-11h-1.764v4.1h-1.8v-3.8h-1.728v9.324h1.728zm-2.61 1.89a25.191 25.191 0 0 1-5.094.45v-2.016h4.32v-4.716h-6.156v1.458h4.356v1.872h-4.32v4.9h1.1a29.176 29.176 0 0 0 5.976-.468zm1.6 2.772h-1.828v.36c0 1.926-2.232 3.69-5.364 4.122l.72 1.44a7.915 7.915 0 0 0 5.58-3.222 7.872 7.872 0 0 0 5.544 3.222l.72-1.44c-3.132-.432-5.364-2.2-5.364-4.122zm10.782 2.052h7.506v2.25h-7.506zm-1.836 3.726h11.16v-5.2h-11.16zm3.708-14.094h3.748v2.988h-3.74zm2.808 6.084v-1.6h4.986v-1.494h-2.2v-2.99h2.286V96.6H403.9v1.494h2.3v2.988h-2.214v1.494h5v1.6h-6.416v1.476h14.742v-1.476zm15.47-7.128c-3.4 0-5.976 1.836-5.976 4.59 0 2.772 2.574 4.59 5.976 4.59 3.384 0 5.976-1.818 5.976-4.59 0-2.754-2.592-4.59-5.976-4.59zm0 1.53c2.394 0 4.176 1.188 4.176 3.06s-1.782 3.06-4.176 3.06c-2.412 0-4.176-1.188-4.176-3.06s1.764-3.06 4.176-3.06zm-7.344 10.22v1.53h14.724v-1.53zm24.642.144v-2.772h5.072v-1.494h-9.738v-2.268h9.378v-5.144h-11.228v1.494h9.4v2.178h-9.36v5.238h4.626v2.772h-6.408v1.53h14.72v-1.53zm8.622 5.652a4.22 4.22 0 0 0 2.952-4.05c0-1.386-.594-2.232-1.6-2.232a1.345 1.345 0 0 0-1.44 1.332 1.3 1.3 0 0 0 1.386 1.332.738.738 0 0 0 .2-.018 2.794 2.794 0 0 1-1.962 2.466zm19.782-15.354a34.988 34.988 0 0 1-.63 7.434l1.872.2a37.217 37.217 0 0 0 .63-7.632v-1.6H462.33v1.512h9.7zm-3.888 9.486v-5.724h-1.872v5.724H460.8v1.53h14.688v-1.53zm18.234-7.65h-3.744v-2.984h3.744zm-5.6 0h-2.214v1.494h11.862v-1.494h-2.2v-2.984h2.286V96.6h-12.036v1.494h2.3zm7.488 9.63h-7.506V108.5h7.506zm3.6-5.346v-1.494h-14.704v1.494h6.426v1.656h-4.662v5.166h11.16v-5.166h-4.644v-1.656zm15.084-9.234h-1.87v8.388h1.872zm-3.384 6.714c-2.466-.7-3.906-2.484-3.96-4.374h3.474v-1.49h-8.89v1.494h3.528a5.2 5.2 0 0 1-4.032 4.7l.882 1.458a6.526 6.526 0 0 0 4.122-3.6 6.3 6.3 0 0 0 4.05 3.24zm-5.416 7.958v-1.44h8.8v-4.1H496.3v1.4h8.82v1.368h-8.784v4.212h11.106v-1.44zm17.028-13.536c-2.538 0-4.41 1.6-4.41 3.906s1.872 3.906 4.41 3.906 4.428-1.6 4.428-3.906-1.89-3.904-4.428-3.904zm0 1.584a2.336 2.336 0 1 1-2.592 2.322 2.353 2.353 0 0 1 2.592-2.32zm6.264-2.736V112.4h1.872V96.114zm-11.2 12.852a56.581 56.581 0 0 0 10.35-.72l-.126-1.35a74.311 74.311 0 0 1-10.458.54zm22.32-9.414h4.32v-1.51h-6.152v10.566h1.1a28.531 28.531 0 0 0 5.9-.45l-.162-1.53a23.378 23.378 0 0 1-5 .45zm6.408 2.664h-3.2v1.512h3.2v7.884h1.746V96.474h-1.746zm3.312-6.1v16.254h1.782V96.114zm15.786 0v16.308h1.872V96.114zm-6.786 1.206c-2.412 0-4.176 2.232-4.176 5.724 0 3.528 1.764 5.742 4.176 5.742 2.43 0 4.194-2.214 4.194-5.742.004-3.492-1.76-5.724-4.19-5.724zm0 1.674c1.422 0 2.412 1.53 2.412 4.05 0 2.556-.99 4.086-2.412 4.086-1.4 0-2.394-1.53-2.394-4.086.004-2.52.994-4.05 2.398-4.05zm14.238 4.59h5.022v-1.476h-5.022v-3.042h5.688v-1.53h-7.538v11.07h1.278a39.246 39.246 0 0 0 7.308-.486l-.162-1.494a38.6 38.6 0 0 1-6.57.468zm9.054-7.488v5.976h-3.114v1.53h3.114v8.8h1.872V96.1zm18.5.018h-1.764v11.07h1.764zm-4.95 9.576h1.746v-9.234h-1.746v3.2h-2.286v1.512h2.286zm-.828-1.962a4.992 4.992 0 0 1-3.024-4.608v-2h-1.8v2a5.494 5.494 0 0 1-3.258 4.9l1.008 1.4a6.074 6.074 0 0 0 3.15-3.366 5.765 5.765 0 0 0 2.916 3.1zm1.332 2.664h-1.854v.432c0 1.908-2.232 3.636-5.382 4.068l.684 1.422a7.794 7.794 0 0 0 5.616-3.168 7.754 7.754 0 0 0 5.6 3.168l.684-1.422c-3.15-.432-5.346-2.16-5.346-4.068zm14.418-8.622c2.52 0 3.87.486 3.87 1.422 0 .918-1.35 1.4-3.87 1.4s-3.87-.486-3.87-1.4c.008-.936 1.358-1.422 3.878-1.422zm0 4.212c3.636 0 5.8-.99 5.8-2.79 0-1.818-2.16-2.808-5.8-2.808-3.654 0-5.8.99-5.8 2.808.012 1.8 2.154 2.79 5.808 2.79zm-3.744 7.488h9.252v-3.888h-11.116v1.4h9.306v1.17h-9.27v4.086h11.556v-1.418h-9.72zm-3.618-6.534v1.476h14.724v-1.476zm29-2.718v1.512h2.88v4.086h1.854v-9.684h-1.848v4.086zm.936 3.618a5.331 5.331 0 0 1-3.816-4.9v-.216h3.384v-1.49H616.5v1.494h3.438v.234a5.707 5.707 0 0 1-3.978 5.292l.954 1.476a6.727 6.727 0 0 0 4.014-3.906 6.35 6.35 0 0 0 3.78 3.474zm-1.6 7.128c-2.322 0-3.636-.576-3.636-1.638s1.314-1.638 3.636-1.638c2.286 0 3.618.576 3.618 1.638s-1.328 1.638-3.614 1.638zm0-4.716c-3.4 0-5.49 1.152-5.49 3.078 0 1.944 2.088 3.078 5.49 3.078 3.384 0 5.472-1.134 5.472-3.078.008-1.926-2.084-3.078-5.468-3.078zM641.9 97.5h-3.69v-1.512h-1.872V97.5h-3.728v1.35h9.29zm-6.768 4.284c0-.738.828-1.188 2.124-1.188s2.124.45 2.124 1.188c0 .72-.828 1.152-2.124 1.152s-2.126-.436-2.126-1.152zm7.218 2.988c-1.314.2-2.736.288-4.14.36v-1.008c1.8-.216 2.916-1.062 2.916-2.34 0-1.512-1.53-2.43-3.87-2.43s-3.87.918-3.87 2.43c0 1.278 1.116 2.142 2.952 2.34v1.08c-1.494.036-2.916.036-4.14.036l.216 1.476a61.284 61.284 0 0 0 10.08-.648zm-8.136 4.554h9v3.074h1.854v-4.55h-10.856zm13.086-8.388h-2.232V96.15h-1.854v10.98h1.854v-4.662h2.232zm6.156 6.426a2.268 2.268 0 1 1 2.268-2.268 2.164 2.164 0 0 1-2.27 2.268zm0-6.066a3.8 3.8 0 1 0 4.032 3.8 3.782 3.782 0 0 0-4.034-3.798zm.9-4.932H652.5v2.268h-3.87v1.512h9.522v-1.512h-3.8zm9.486 6.3h-2.5v-6.534h-1.872V112.4h1.872v-8.19h2.5zm12.492-3.42a34.988 34.988 0 0 1-.63 7.434l1.872.2a37.221 37.221 0 0 0 .63-7.632v-1.6H666.63v1.512h9.7zm-3.888 9.486v-5.724h-1.872v5.724H665.1v1.53h14.688v-1.53zM4.194 137.04H2.682v-3.96h1.512zm0-5.436H2.682v-3.978H1.134v10.908h4.59v-10.908h-1.53zm5.328 5.436H8.028v-3.96h1.494zm0-5.436H8.028v-3.978H6.5v10.908h4.554v-10.908H9.522zm6.462.738H14.04v-6.21h-1.818V142.4h1.818v-8.532h1.944zm12.456-1.368h-9.36v5.256h11.556v-1.512H20.9v-2.268h9.378v-5.15H19.044v1.512h9.4zm-11.14 7.938v1.53h14.722v-1.53zm25.092-6.318H40a13.888 13.888 0 0 0 .684-4.464h-6.322v1.494h4.482a9.808 9.808 0 0 1-5.256 8.01l1.062 1.314a12.126 12.126 0 0 0 4.752-4.86h2.988v7.524h1.746v-15.084H42.39zm3.4-6.462v16.254h1.782v-16.254zm22.842 7.938h-2.268a28.56 28.56 0 0 0 .414-5.526v-1.422H55.692v1.494h9.27a24.732 24.732 0 0 1-.468 5.454H53.928v1.53h6.354v6.786h1.872V135.6h6.48zm2.988-.594c2.826-.234 5-1.17 6.012-2.628 1.008 1.458 3.186 2.394 6.012 2.628l.576-1.4c-3.312-.252-5.346-1.458-5.526-2.934h4.824v-1.462h-4.95v-1.6h-1.854v1.6h-4.968v1.458h4.842c-.18 1.476-2.232 2.682-5.526 2.934zM85 135.726v-1.494H70.29v1.494h6.426v1.638h-4.788v1.476h9.414v3.528H83.2v-5h-4.63v-1.638zm11.3-8.046h-3.87v-1.692h-1.854v1.692h-3.87v1.494H96.3zm-6.966 4.95c0-.918.864-1.476 2.16-1.476s2.178.558 2.178 1.476c0 .936-.882 1.494-2.178 1.494s-2.16-.558-2.16-1.494zm6.1 0c0-1.71-1.584-2.862-3.942-2.862-2.34 0-3.942 1.152-3.942 2.862 0 1.728 1.6 2.88 3.942 2.88 2.36 0 3.944-1.152 3.944-2.88zm2.106 8.082h-6.712v-1.494h6.714zm0-2.934h-6.712v-1.494h-1.836v5.9h10.386v-5.9h-1.836zm4.14-7.6h-2.3v-4.05h-1.856v9.486h1.854v-3.906h2.3zm4.176-2.466h-1.836v10.566h1.386a38.824 38.824 0 0 0 7.938-.774l-.2-1.548a37.648 37.648 0 0 1-7.29.738zm8.784-1.584v16.254h1.86v-16.25zm7.308 3.042h5.706v-1.512H120.1v10.746h1.332a40.117 40.117 0 0 0 7.6-.54l-.2-1.53a39.244 39.244 0 0 1-6.876.522zm12.618 3.2h-2.536v-6.264h-1.854V142.4h1.854v-8.5h2.538zm3.024 8.856a1.378 1.378 0 0 0 1.386-1.44 1.389 1.389 0 1 0-2.772 0 1.378 1.378 0 0 0 1.388 1.448z" class="cls-7" transform="translate(424 1105)"/>
        </g>
        <path id="패스_4784" d="M-120.582-10.224V-7.9h2.574v5.148h2.916V-15.21h-2.916v4.986zm-7.686-3.726v2.286h4.788a9.227 9.227 0 0 1-.22 1.064l-5.436.144.378 2.232 3.816-.288a10.233 10.233 0 0 1-4.284 2.25l1.116 2.25c5.814-1.854 7.668-4.968 7.668-9.936zm4.806 13.122v-3.114h-2.916v5.4h11.718V-.828zm15.084-10.764h1.08v7.236c-.36 0-.72.018-1.08.036zm3.888 0h1.422v-2.286h-9.36v2.286h1.242v7.326h-1.656l.288 2.322a58.342 58.342 0 0 0 10.008-.684l-.2-2.088c-.558.054-1.152.126-1.746.18zm3.114-3.6v6.012h-2.124v2.322h2.124v8.55h2.916v-16.884zm16.488 12.456h2.916v-12.438h-2.916v3.852h-2.34v2.412h2.34zm-2.034-4.77a38.233 38.233 0 0 1-5.832.378v-1.314h4.806v-5.652h-7.7v2.286h4.824v1.224h-4.806v5.76h1.44a48.379 48.379 0 0 0 7.484-.376zm-3.564 6.678v-2.916H-93.4v5.2h11.808V-.828zM-64.8-7.506c-4.3-.72-5.76-3.384-5.76-5.616v-1.188h-3.114v1.188c0 2.178-1.512 4.9-5.76 5.616l1.206 2.412a8.279 8.279 0 0 0 6.1-4.068 8.246 8.246 0 0 0 6.12 4.068zm-14.868 4.932v2.34h15.282v-2.34zm22.338.648h8.892V1.71h2.916v-5.922H-57.33zm7.43-5.634v-1.512h4.554v-2.286h-8.964v-3.636h-2.916v5.922h4.41v1.512h-6.174v2.286h15.318V-7.56zm15.1-7.326c-3.744 0-6.21 1.26-6.21 3.33 0 2.088 2.466 3.348 6.21 3.348s6.21-1.26 6.21-3.348c.006-2.07-2.46-3.33-6.204-3.33zm0 2.2c2.088 0 3.2.342 3.2 1.134 0 .81-1.116 1.152-3.2 1.152s-3.2-.342-3.2-1.152c0-.796 1.118-1.138 3.206-1.138zM-40.716-4.3v5.83h11.754V-4.3zm8.892 2.25v1.33h-6.03v-1.332zm-10.62-5.454v2.268h15.282v-2.27zm20.844-3.98h1.17v7.074l-1.17.054zm3.978 0h1.242v-2.286h-9.27v2.286h1.242V-4.3H-26.1l.288 2.322a57.337 57.337 0 0 0 9.918-.684l-.144-2.106c-.522.072-1.044.126-1.584.18zm7.38 2.5h-2.268v-6.192h-2.916V1.71h2.916v-8.316h2.268zm15.066-6.21H1.908v8.354h2.916zm-11.16 4.338c0-1.062.756-1.584 1.782-1.584s1.782.522 1.782 1.584a1.573 1.573 0 0 1-1.782 1.6 1.573 1.573 0 0 1-1.782-1.598zm6.372 0c0-2.268-1.98-3.906-4.59-3.906s-4.59 1.638-4.59 3.906c0 2.286 1.98 3.924 4.59 3.924s4.59-1.636 4.59-3.922zM-3.744-.684v-.63h8.568v-4.9H-6.642v2.2h8.586v.63h-8.568V1.53H5.184V-.684zm10.6 3.618h9.794V1.152H6.858zm13.95-14.022h3.636v-2.286h-6.5V-1.89h1.228a31.2 31.2 0 0 0 5.9-.414l-.216-2.358a22.718 22.718 0 0 1-4.05.4zm5.04 1.908h-2.554v2.322h2.556v7.884h2.7v-15.948h-2.7zm3.546-6.012V1.674h2.754v-16.866zm15.912-.036V1.764h2.916v-16.992zm-6.282 1.134c-2.592 0-4.518 2.34-4.518 6.12s1.926 6.12 4.518 6.12 4.518-2.34 4.518-6.12-1.924-6.12-4.516-6.12zm0 2.646c1.044 0 1.728 1.1 1.728 3.474S40.068-4.5 39.024-4.5 37.3-5.6 37.3-7.974s.68-3.474 1.724-3.474zM54.306-6.93h4.446v-2.25h-4.446v-2.358h4.932v-2.322h-7.83v11.9h1.422a48.525 48.525 0 0 0 7.326-.4l-.234-2.3a39.1 39.1 0 0 1-5.616.4zm7.776-8.28v5.724h-2.574v2.322h2.574v8.91H65V-15.21zm15.246 6.768a40.717 40.717 0 0 1-6.318.4v-.882h4.77v-2.214h-4.77v-.846h5.29v-2.268h-8.19V-5.8h1.494a50.864 50.864 0 0 0 7.992-.4zM72.792-2.3h5.724v1.58h-5.724zM69.93 1.53h11.43v-6.084H69.93zm8.514-16.7v10.004h2.916v-10.008zM86.31.252a1.919 1.919 0 0 0 1.908-2 1.914 1.914 0 0 0-1.908-1.98 1.9 1.9 0 0 0-1.91 1.982A1.908 1.908 0 0 0 86.31.252zM90.756 0h3.186v-6.84a2.474 2.474 0 0 1 1.638-.918c.81 0 1.17.414 1.17 1.818V0h3.222v-6.84a2.474 2.474 0 0 1 1.638-.918c.81 0 1.17.414 1.17 1.818V0h3.2v-6.336c0-2.556-.972-4.158-3.2-4.158a4.47 4.47 0 0 0-3.2 1.692 2.809 2.809 0 0 0-2.808-1.692 4.225 4.225 0 0 0-3.114 1.548h-.072l-.216-1.3h-2.61zm17.73 3.726h3.186V.792l-.09-1.6a3.363 3.363 0 0 0 2.376 1.06c2.2 0 4.3-2.016 4.3-5.544 0-3.15-1.548-5.2-4-5.2a4.451 4.451 0 0 0-2.88 1.242h-.072l-.216-.99h-2.61zm4.716-6.1a2.238 2.238 0 0 1-1.53-.594V-7.02a2.191 2.191 0 0 1 1.638-.864c1.134 0 1.656.846 1.656 2.646 0 2.052-.792 2.862-1.766 2.862zM124.056.252c2.664 0 4.95-1.4 4.95-3.906a3.309 3.309 0 0 0-2.592-3.258V-7a3.069 3.069 0 0 0 2.16-2.952c0-2.394-1.818-3.69-4.59-3.69a6.3 6.3 0 0 0-4.158 1.656l1.62 1.962a3.563 3.563 0 0 1 2.394-1.116c.99 0 1.53.5 1.53 1.422 0 1.062-.72 1.764-3.006 1.764v2.25c2.808 0 3.42.684 3.42 1.836 0 1.008-.81 1.53-2.052 1.53a4.088 4.088 0 0 1-2.79-1.3l-1.476 2.018a5.747 5.747 0 0 0 4.59 1.872z" class="cls-7" transform="translate(534 922)"/>
    </g>
</svg>
