<svg xmlns="http://www.w3.org/2000/svg" width="848" height="496" viewBox="0 0 848 496">
    <defs>
        <linearGradient id="linear-gradient" x1=".5" x2=".5" y2="1" gradientUnits="objectBoundingBox">
            <stop offset="0" stop-color="#7c72c7"/>
            <stop offset="1" stop-color="#354bc6"/>
        </linearGradient>
        <style>
            .cls-8{fill:#fff}.cls-2{fill:#f4fdff;stroke:#1054b2}.cls-3{fill:#ff07e2}.cls-4{fill:#053d76;stroke:#053d76;stroke-width:1.3px}.cls-5{fill:#18d7fa;stroke:#18d7fa}.cls-5,.cls-8{stroke-width:.8px}.cls-6{fill:url(#linear-gradient)}.cls-7{fill:#4af0ff;stroke:transparent}.cls-8{stroke:#fff}.cls-9{fill:#03020f}.cls-10{stroke:none}.cls-11{fill:none}
        </style>
    </defs>
    <g id="img_voicerecording" transform="translate(-350 -2846)">
        <g id="img_voicerecording-2">
            <rect id="img_boundingbox" width="848" height="496" fill="#fff" rx="10" transform="translate(350 2846)"/>
            <g id="사각형_2674" class="cls-2" transform="translate(400 2971)">
                <rect width="748" height="70" class="cls-10" rx="10"/>
                <rect width="747" height="69" x=".5" y=".5" class="cls-11" rx="9.5"/>
            </g>
            <path id="패스_4503" d="M322.136 331.023c-.553 0-1-.149-1-.331v-44.407c0-.183.451-.33 1-.33s1 .147 1 .33v44.407c.001.183-.446.331-1 .331z" class="cls-3" transform="translate(464.777 2697.511)"/>
            <path id="패스_4504" d="M332.546 335.767c-.554 0-1-.131-1-.291v-31.154c0-.16.447-.289 1-.289s1 .129 1 .289v31.154c.003.161-.446.291-1 .291z" class="cls-3" transform="translate(462.114 2686.1)"/>
            <path id="패스_4505" d="M342.953 356.364c-.553 0-1-.177-1-.4v-29.7c0-.219.447-.4 1-.4s1 .178 1 .4v29.7c.004.224-.443.4-1 .4z" class="cls-3" transform="translate(459.451 2664.883)"/>
            <path id="패스_4506" d="M353.365 376.049c-.553 0-1-.289-1-.644v-33.368c0-.354.451-.641 1-.641s1 .287 1 .641v33.368c0 .355-.447.644-1 .644z" class="cls-3" transform="translate(456.789 2647.277)"/>
            <path id="패스_4507" d="M363.773 382.192a.915.915 0 0 1-1-.789v-29.426a1.034 1.034 0 0 1 2.008 0V381.4a.916.916 0 0 1-1.008.792z" class="cls-3" transform="translate(454.127 2639.309)"/>
            <path id="패스_4508" d="M374.181 381.116a.914.914 0 0 1-1-.789V358.35a1.032 1.032 0 0 1 2 0v21.978a.918.918 0 0 1-1 .788z" class="cls-3" transform="translate(451.465 2636.66)"/>
            <path id="패스_4509" d="M384.594 375.988c-.557 0-1-.288-1-.642V342.4c0-.354.447-.64 1-.64s1 .286 1 .64v32.946c0 .354-.447.642-1 .642z" class="cls-3" transform="translate(448.802 2647.126)"/>
            <path id="패스_4510" d="M395 382.208a.918.918 0 0 1-1-.789v-29.528a1.034 1.034 0 0 1 2.008 0v29.529a.917.917 0 0 1-1.008.788z" class="cls-3" transform="translate(446.14 2639.343)"/>
            <path id="패스_4511" d="M405.41 369.993c-.553 0-1-.257-1-.571V327.84c0-.315.447-.569 1-.569s1 .255 1 .569v41.581c.004.315-.447.572-1 .572z" class="cls-3" transform="translate(443.477 2657.368)"/>
            <path id="패스_4512" d="M415.818 374.717c-.553 0-1-.276-1-.614v-29.342c0-.339.447-.613 1-.613s1 .274 1 .613V374.1c.004.341-.443.617-1 .617z" class="cls-3" transform="translate(440.813 2646.568)"/>
            <path id="패스_4513" d="M603.188 374.076c-.553 0-1-.269-1-.6V343.4c0-.333.451-.6 1-.6s1 .271 1 .6v30.07c0 .336-.447.606-1 .606z" class="cls-3" transform="translate(392.89 2647.562)"/>
            <path id="패스_4514" d="M613.6 381.218a.917.917 0 0 1-1-.789V357.75a1.034 1.034 0 0 1 2.008 0v22.68a.917.917 0 0 1-1.008.788z" class="cls-3" transform="translate(390.228 2636.909)"/>
            <path id="패스_4515" d="M624.005 379.954a.911.911 0 0 1-1-.786v-13.957a1.031 1.031 0 0 1 2 0v13.958a.915.915 0 0 1-1 .785z" class="cls-3" transform="translate(387.563 2633.811)"/>
            <path id="패스_4516" d="M634.416 378.493a.915.915 0 0 1-1-.786v-3.856a1.032 1.032 0 0 1 2.005 0v3.856a.912.912 0 0 1-1.005.786z" class="cls-3" transform="translate(384.901 2630.221)"/>
            <path id="패스_4517" d="M644.824 378.976a.917.917 0 0 1-1-.789v-7.174a1.034 1.034 0 0 1 2.008 0v7.174a.917.917 0 0 1-1.008.789z" class="cls-3" transform="translate(382.239 2631.399)"/>
            <path id="패스_4518" d="M655.271 378.508a.916.916 0 0 1-1-.789v-3.94a1.032 1.032 0 0 1 2 0v3.94a.912.912 0 0 1-1 .789z" class="cls-3" transform="translate(379.567 2630.249)"/>
            <path id="패스_4519" d="M530.323 379.884a.916.916 0 0 1-1-.786v-13.473a1.031 1.031 0 0 1 2 0V379.1a.911.911 0 0 1-1 .784z" class="cls-3" transform="translate(411.526 2633.639)"/>
            <path id="패스_4520" d="M540.731 382.109a.917.917 0 0 1-1-.788v-28.844a1.034 1.034 0 0 1 2.008 0v28.844a.918.918 0 0 1-1.008.788z" class="cls-3" transform="translate(408.865 2639.1)"/>
            <path id="패스_4521" d="M551.14 380.166a.914.914 0 0 1-1-.789v-15.4a1.032 1.032 0 0 1 2 0v15.4a.918.918 0 0 1-1 .789z" class="cls-3" transform="translate(406.202 2634.323)"/>
            <path id="패스_4522" d="M561.552 369.993c-.557 0-1-.257-1-.571V327.84c0-.315.446-.569 1-.569s1 .255 1 .569v41.581c0 .315-.452.572-1 .572z" class="cls-3" transform="translate(403.539 2657.368)"/>
            <path id="패스_4523" d="M571.959 371.247c-.553 0-1-.252-1-.562V339.6c0-.31.451-.56 1-.56s1 .25 1 .56v31.082c0 .312-.446.565-1 .565z" class="cls-3" transform="translate(400.877 2650.855)"/>
            <path id="패스_4524" d="M582.368 380.815a.914.914 0 0 1-1-.789v-19.911a1.031 1.031 0 0 1 2 0v19.911a.917.917 0 0 1-1 .789z" class="cls-3" transform="translate(398.214 2635.928)"/>
            <path id="패스_4525" d="M592.776 379.884a.912.912 0 0 1-1-.786v-13.473a1.031 1.031 0 0 1 2 0V379.1a.913.913 0 0 1-1 .784z" class="cls-3" transform="translate(395.551 2633.639)"/>
            <path id="패스_4526" d="M426.23 382.421a.915.915 0 0 1-1-.786v-31.02a1.032 1.032 0 0 1 2 0v31.02a.911.911 0 0 1-1 .786z" class="cls-3" transform="translate(438.152 2639.874)"/>
            <path id="패스_4527" d="M436.638 351.476c-.554 0-1-.181-1-.4v-38.369c0-.223.451-.4 1-.4s1 .18 1 .4v38.365c.004.222-.447.404-1 .404z" class="cls-3" transform="translate(435.49 2674.11)"/>
            <path id="패스_4528" d="M447.047 375.988c-.554 0-1-.288-1-.642V342.4c0-.354.447-.64 1-.64s1 .286 1 .64v32.946c.003.354-.447.642-1 .642z" class="cls-3" transform="translate(432.826 2647.126)"/>
            <path id="패스_4529" d="M457.458 372.164c-.553 0-1-.265-1-.59v-37.367c0-.327.451-.59 1-.59s1 .263 1 .59v37.367c0 .326-.446.59-1 .59z" class="cls-3" transform="translate(430.164 2653.109)"/>
            <path id="패스_4530" d="M467.866 382.608a.916.916 0 0 1-1-.786v-32.311a1.033 1.033 0 0 1 2.008 0v32.312a.916.916 0 0 1-1.008.785z" class="cls-3" transform="translate(427.502 2640.335)"/>
            <path id="패스_4531" d="M478.275 380.672a.912.912 0 0 1-1-.786v-18.919a1.031 1.031 0 0 1 2 0v18.919a.915.915 0 0 1-1 .786z" class="cls-3" transform="translate(424.838 2635.574)"/>
            <path id="패스_4532" d="M488.687 380.152a.913.913 0 0 1-1-.786V364.04a1.031 1.031 0 0 1 2 0v15.327a.912.912 0 0 1-1 .785z" class="cls-3" transform="translate(422.177 2634.298)"/>
            <path id="패스_4533" d="M499.095 371.313c-.554 0-1-.251-1-.564V339.2c0-.311.45-.564 1-.564s1 .253 1 .564v31.551c.005.311-.447.562-1 .562z" class="cls-3" transform="translate(419.515 2651.026)"/>
            <path id="패스_4534" d="M509.5 382.475a.912.912 0 0 1-1-.786V350.3a1.031 1.031 0 0 1 2 0v31.391a.915.915 0 0 1-1 .784z" class="cls-3" transform="translate(416.852 2640.007)"/>
            <path id="패스_4535" d="M519.911 381.481a.914.914 0 0 1-1-.789V356.2a1.031 1.031 0 0 1 2 0v24.5a.915.915 0 0 1-1 .781z" class="cls-3" transform="translate(414.188 2637.556)"/>
            <path id="패스_4536" d="M311.728 335.767c-.557 0-1-.131-1-.291v-31.154c0-.16.447-.289 1-.289s1 .129 1 .289v31.154c.001.161-.446.291-1 .291z" class="cls-3" transform="translate(467.439 2686.1)"/>
            <path id="패스_4537" d="M301.317 356.364c-.553 0-1-.177-1-.4v-29.7c0-.219.447-.4 1-.4s1 .178 1 .4v29.7c.004.224-.447.4-1 .4z" class="cls-3" transform="translate(470.101 2664.883)"/>
            <path id="패스_4538" d="M290.908 376.049c-.553 0-1-.289-1-.644v-33.368c0-.354.451-.641 1-.641s1 .287 1 .641v33.368c.004.355-.447.644-1 .644z" class="cls-3" transform="translate(472.765 2647.277)"/>
            <path id="패스_4539" d="M280.5 382.192a.916.916 0 0 1-1-.789v-29.426a1.031 1.031 0 0 1 2 0V381.4a.911.911 0 0 1-1 .792z" class="cls-3" transform="translate(475.427 2639.309)"/>
            <path id="패스_4540" d="M270.088 381.116a.914.914 0 0 1-1-.789V358.35a1.032 1.032 0 0 1 2 0v21.978a.916.916 0 0 1-1 .788z" class="cls-3" transform="translate(478.09 2636.66)"/>
            <path id="패스_4541" d="M259.679 375.988c-.553 0-1-.288-1-.642V342.4c0-.354.45-.64 1-.64s1 .286 1 .64v32.946c.004.354-.446.642-1 .642z" class="cls-3" transform="translate(480.753 2647.126)"/>
            <path id="패스_4542" d="M249.272 382.208a.917.917 0 0 1-1-.789v-29.528a1.032 1.032 0 0 1 2 0v29.529a.914.914 0 0 1-1 .788z" class="cls-3" transform="translate(483.415 2639.343)"/>
            <path id="패스_4543" d="M238.864 369.993c-.557 0-1-.257-1-.571V327.84c0-.315.447-.569 1-.569s1 .255 1 .569v41.581c0 .315-.447.572-1 .572z" class="cls-3" transform="translate(486.076 2657.368)"/>
            <path id="패스_4544" d="M228.452 374.717c-.554 0-1-.276-1-.614v-29.342c0-.339.447-.613 1-.613s1 .274 1 .613V374.1c.004.341-.446.617-1 .617z" class="cls-3" transform="translate(488.739 2646.568)"/>
            <path id="패스_4545" d="M41.085 374.076c-.553 0-1-.269-1-.6V343.4c0-.333.451-.6 1-.6s1 .271 1 .6v30.07c.004.336-.447.606-1 .606z" class="cls-3" transform="translate(536.665 2647.562)"/>
            <path id="패스_4546" d="M30.677 381.218a.917.917 0 0 1-1-.789V357.75a1.032 1.032 0 0 1 2 0v22.68a.913.913 0 0 1-1 .788z" class="cls-3" transform="translate(539.327 2636.909)"/>
            <path id="패스_4547" d="M20.266 379.954a.912.912 0 0 1-1-.786v-13.957a1.032 1.032 0 0 1 2 0v13.958a.916.916 0 0 1-1 .785z" class="cls-3" transform="translate(541.99 2633.811)"/>
            <path id="패스_4548" d="M9.856 378.493a.915.915 0 0 1-1-.786v-3.856a.917.917 0 0 1 1-.789.918.918 0 0 1 1 .789v3.856a.916.916 0 0 1-1 .786z" class="cls-3" transform="translate(544.653 2630.221)"/>
            <path id="패스_4549" d="M-.551 378.976a.917.917 0 0 1-1-.789v-7.174a.915.915 0 0 1 1-.786.912.912 0 0 1 1 .786v7.174a.914.914 0 0 1-1 .789z" class="cls-3" transform="translate(547.314 2631.399)"/>
            <path id="패스_4550" d="M-11 378.508a.916.916 0 0 1-1-.789v-3.94a.916.916 0 0 1 1-.786.916.916 0 0 1 1 .786v3.94a.916.916 0 0 1-1 .789z" class="cls-3" transform="translate(549.987 2630.249)"/>
            <path id="패스_4551" d="M113.95 379.884a.915.915 0 0 1-1-.786v-13.473a1.033 1.033 0 0 1 2.008 0V379.1a.916.916 0 0 1-1.008.784z" class="cls-3" transform="translate(518.027 2633.639)"/>
            <path id="패스_4552" d="M103.542 382.109a.918.918 0 0 1-1-.788v-28.844a1.032 1.032 0 0 1 2 0v28.844a.914.914 0 0 1-1 .788z" class="cls-3" transform="translate(520.689 2639.1)"/>
            <path id="패스_4553" d="M93.13 380.166a.914.914 0 0 1-1-.789v-15.4a1.032 1.032 0 0 1 2 0v15.4a.915.915 0 0 1-1 .789z" class="cls-3" transform="translate(523.353 2634.323)"/>
            <path id="패스_4554" d="M82.722 369.993c-.553 0-1-.257-1-.571V327.84c0-.315.447-.569 1-.569s1 .255 1 .569v41.581c.004.315-.446.572-1 .572z" class="cls-3" transform="translate(526.015 2657.368)"/>
            <path id="패스_4555" d="M72.314 371.247c-.554 0-1-.252-1-.562V339.6c0-.31.451-.56 1-.56s1 .25 1 .56v31.082c0 .312-.447.565-1 .565z" class="cls-3" transform="translate(528.678 2650.855)"/>
            <path id="패스_4556" d="M61.905 380.815a.914.914 0 0 1-1-.789v-19.911a1.031 1.031 0 0 1 2 0v19.911a.914.914 0 0 1-1 .789z" class="cls-3" transform="translate(531.339 2635.928)"/>
            <path id="패스_4557" d="M51.494 379.884a.911.911 0 0 1-1-.786v-13.473a1.031 1.031 0 0 1 2 0V379.1a.916.916 0 0 1-1 .784z" class="cls-3" transform="translate(534.002 2633.639)"/>
            <path id="패스_4558" d="M218.043 382.421a.915.915 0 0 1-1-.786v-31.02a1.034 1.034 0 0 1 2.008 0v31.02a.915.915 0 0 1-1.008.786z" class="cls-3" transform="translate(491.402 2639.874)"/>
            <path id="패스_4559" d="M207.635 351.476c-.553 0-1-.181-1-.4v-38.369c0-.223.451-.4 1-.4s1 .18 1 .4v38.365c0 .222-.447.404-1 .404z" class="cls-3" transform="translate(494.064 2674.11)"/>
            <path id="패스_4560" d="M197.224 375.988c-.554 0-1-.288-1-.642V342.4c0-.354.447-.64 1-.64s1 .286 1 .64v32.946c.003.354-.447.642-1 .642z" class="cls-3" transform="translate(496.727 2647.126)"/>
            <path id="패스_4561" d="M186.815 372.164c-.554 0-1-.265-1-.59v-37.367c0-.327.45-.59 1-.59s1 .263 1 .59v37.367c.004.326-.447.59-1 .59z" class="cls-3" transform="translate(499.391 2653.109)"/>
            <path id="패스_4562" d="M176.407 382.608a.915.915 0 0 1-1-.786v-32.311a1.031 1.031 0 0 1 2 0v32.312a.912.912 0 0 1-1 .785z" class="cls-3" transform="translate(502.052 2640.335)"/>
            <path id="패스_4563" d="M166 380.672a.912.912 0 0 1-1-.786v-18.919a1.031 1.031 0 0 1 2 0v18.919a.913.913 0 0 1-1 .786z" class="cls-3" transform="translate(504.714 2635.574)"/>
            <path id="패스_4564" d="M155.587 380.152a.912.912 0 0 1-1-.786V364.04a1.031 1.031 0 0 1 2 0v15.327a.916.916 0 0 1-1 .785z" class="cls-3" transform="translate(507.377 2634.298)"/>
            <path id="패스_4565" d="M145.178 371.313c-.553 0-1-.251-1-.564V339.2c0-.311.451-.564 1-.564s1 .253 1 .564v31.551c0 .311-.446.562-1 .562z" class="cls-3" transform="translate(510.04 2651.026)"/>
            <path id="패스_4566" d="M134.771 382.475a.913.913 0 0 1-1-.786V350.3a1.031 1.031 0 0 1 2 0v31.391a.912.912 0 0 1-1 .784z" class="cls-3" transform="translate(512.702 2640.007)"/>
            <path id="패스_4567" d="M124.359 381.481a.914.914 0 0 1-1-.789V356.2a1.031 1.031 0 0 1 2 0v24.5a.918.918 0 0 1-1 .781z" class="cls-3" transform="translate(515.364 2637.556)"/>
            <path id="패스_4568" d="M322.136 331.023c-.553 0-1-.149-1-.331v-44.407c0-.183.451-.33 1-.33s1 .147 1 .33v44.407c.001.183-.446.331-1 .331z" class="cls-3" transform="translate(464.777 2697.511)"/>
            <path id="패스_4569" d="M332.546 335.767c-.554 0-1-.131-1-.291v-31.154c0-.16.447-.289 1-.289s1 .129 1 .289v31.154c.003.161-.446.291-1 .291z" class="cls-3" transform="translate(462.114 2686.1)"/>
            <path id="패스_4570" d="M342.953 356.364c-.553 0-1-.177-1-.4v-29.7c0-.219.447-.4 1-.4s1 .178 1 .4v29.7c.004.224-.443.4-1 .4z" class="cls-3" transform="translate(459.451 2664.883)"/>
            <path id="패스_4571" d="M353.365 376.049c-.553 0-1-.289-1-.644v-33.368c0-.354.451-.641 1-.641s1 .287 1 .641v33.368c0 .355-.447.644-1 .644z" class="cls-3" transform="translate(456.789 2647.277)"/>
            <path id="패스_4572" d="M363.773 382.192a.915.915 0 0 1-1-.789v-29.426a1.034 1.034 0 0 1 2.008 0V381.4a.916.916 0 0 1-1.008.792z" class="cls-3" transform="translate(454.127 2639.309)"/>
            <path id="패스_4573" d="M374.181 381.116a.914.914 0 0 1-1-.789V358.35a1.032 1.032 0 0 1 2 0v21.978a.918.918 0 0 1-1 .788z" class="cls-3" transform="translate(451.465 2636.66)"/>
            <path id="패스_4574" d="M384.594 375.988c-.557 0-1-.288-1-.642V342.4c0-.354.447-.64 1-.64s1 .286 1 .64v32.946c0 .354-.447.642-1 .642z" class="cls-3" transform="translate(448.802 2647.126)"/>
            <path id="패스_4575" d="M395 382.208a.918.918 0 0 1-1-.789v-29.528a1.034 1.034 0 0 1 2.008 0v29.529a.917.917 0 0 1-1.008.788z" class="cls-3" transform="translate(446.14 2639.343)"/>
            <path id="패스_4576" d="M405.41 369.993c-.553 0-1-.257-1-.571V327.84c0-.315.447-.569 1-.569s1 .255 1 .569v41.581c.004.315-.447.572-1 .572z" class="cls-3" transform="translate(443.477 2657.368)"/>
            <path id="패스_4577" d="M415.818 374.717c-.553 0-1-.276-1-.614v-29.342c0-.339.447-.613 1-.613s1 .274 1 .613V374.1c.004.341-.443.617-1 .617z" class="cls-3" transform="translate(440.813 2646.568)"/>
            <path id="패스_4578" d="M603.188 374.076c-.553 0-1-.269-1-.6V343.4c0-.333.451-.6 1-.6s1 .271 1 .6v30.07c0 .336-.447.606-1 .606z" class="cls-3" transform="translate(392.89 2647.562)"/>
            <path id="패스_4579" d="M613.6 381.218a.917.917 0 0 1-1-.789V357.75a1.034 1.034 0 0 1 2.008 0v22.68a.917.917 0 0 1-1.008.788z" class="cls-3" transform="translate(390.228 2636.909)"/>
            <path id="패스_4580" d="M624.005 379.954a.911.911 0 0 1-1-.786v-13.957a1.031 1.031 0 0 1 2 0v13.958a.915.915 0 0 1-1 .785z" class="cls-3" transform="translate(387.563 2633.811)"/>
            <path id="패스_4581" d="M634.416 378.493a.915.915 0 0 1-1-.786v-3.856a1.032 1.032 0 0 1 2.005 0v3.856a.912.912 0 0 1-1.005.786z" class="cls-3" transform="translate(384.901 2630.221)"/>
            <path id="패스_4582" d="M644.824 378.976a.917.917 0 0 1-1-.789v-7.174a1.034 1.034 0 0 1 2.008 0v7.174a.917.917 0 0 1-1.008.789z" class="cls-3" transform="translate(382.239 2631.399)"/>
            <path id="패스_4583" d="M655.271 378.508a.916.916 0 0 1-1-.789v-3.94a1.032 1.032 0 0 1 2 0v3.94a.912.912 0 0 1-1 .789z" class="cls-3" transform="translate(379.567 2630.249)"/>
            <path id="패스_4584" d="M530.323 379.884a.916.916 0 0 1-1-.786v-13.473a1.031 1.031 0 0 1 2 0V379.1a.911.911 0 0 1-1 .784z" class="cls-3" transform="translate(411.526 2633.639)"/>
            <path id="패스_4585" d="M540.731 382.109a.917.917 0 0 1-1-.788v-28.844a1.034 1.034 0 0 1 2.008 0v28.844a.918.918 0 0 1-1.008.788z" class="cls-3" transform="translate(408.865 2639.1)"/>
            <path id="패스_4586" d="M551.14 380.166a.914.914 0 0 1-1-.789v-15.4a1.032 1.032 0 0 1 2 0v15.4a.918.918 0 0 1-1 .789z" class="cls-3" transform="translate(406.202 2634.323)"/>
            <path id="패스_4587" d="M561.552 369.993c-.557 0-1-.257-1-.571V327.84c0-.315.446-.569 1-.569s1 .255 1 .569v41.581c0 .315-.452.572-1 .572z" class="cls-3" transform="translate(403.539 2657.368)"/>
            <path id="패스_4588" d="M571.959 371.247c-.553 0-1-.252-1-.562V339.6c0-.31.451-.56 1-.56s1 .25 1 .56v31.082c0 .312-.446.565-1 .565z" class="cls-3" transform="translate(400.877 2650.855)"/>
            <path id="패스_4589" d="M582.368 380.815a.914.914 0 0 1-1-.789v-19.911a1.031 1.031 0 0 1 2 0v19.911a.917.917 0 0 1-1 .789z" class="cls-3" transform="translate(398.214 2635.928)"/>
            <path id="패스_4590" d="M592.776 379.884a.912.912 0 0 1-1-.786v-13.473a1.031 1.031 0 0 1 2 0V379.1a.913.913 0 0 1-1 .784z" class="cls-3" transform="translate(395.551 2633.639)"/>
            <path id="패스_4591" d="M426.23 382.421a.915.915 0 0 1-1-.786v-31.02a1.032 1.032 0 0 1 2 0v31.02a.911.911 0 0 1-1 .786z" class="cls-3" transform="translate(438.152 2639.874)"/>
            <path id="패스_4592" d="M436.638 351.476c-.554 0-1-.181-1-.4v-38.369c0-.223.451-.4 1-.4s1 .18 1 .4v38.365c.004.222-.447.404-1 .404z" class="cls-3" transform="translate(435.49 2674.11)"/>
            <path id="패스_4593" d="M447.047 375.988c-.554 0-1-.288-1-.642V342.4c0-.354.447-.64 1-.64s1 .286 1 .64v32.946c.003.354-.447.642-1 .642z" class="cls-3" transform="translate(432.826 2647.126)"/>
            <path id="패스_4594" d="M457.458 372.164c-.553 0-1-.265-1-.59v-37.367c0-.327.451-.59 1-.59s1 .263 1 .59v37.367c0 .326-.446.59-1 .59z" class="cls-3" transform="translate(430.164 2653.109)"/>
            <path id="패스_4595" d="M467.866 382.608a.916.916 0 0 1-1-.786v-32.311a1.033 1.033 0 0 1 2.008 0v32.312a.916.916 0 0 1-1.008.785z" class="cls-3" transform="translate(427.502 2640.335)"/>
            <path id="패스_4596" d="M478.275 380.672a.912.912 0 0 1-1-.786v-18.919a1.031 1.031 0 0 1 2 0v18.919a.915.915 0 0 1-1 .786z" class="cls-3" transform="translate(424.838 2635.574)"/>
            <path id="패스_4597" d="M488.687 380.152a.913.913 0 0 1-1-.786V364.04a1.031 1.031 0 0 1 2 0v15.327a.912.912 0 0 1-1 .785z" class="cls-3" transform="translate(422.177 2634.298)"/>
            <path id="패스_4598" d="M499.095 371.313c-.554 0-1-.251-1-.564V339.2c0-.311.45-.564 1-.564s1 .253 1 .564v31.551c.005.311-.447.562-1 .562z" class="cls-3" transform="translate(419.515 2651.026)"/>
            <path id="패스_4599" d="M509.5 382.475a.912.912 0 0 1-1-.786V350.3a1.031 1.031 0 0 1 2 0v31.391a.915.915 0 0 1-1 .784z" class="cls-3" transform="translate(416.852 2640.007)"/>
            <path id="패스_4600" d="M519.911 381.481a.914.914 0 0 1-1-.789V356.2a1.031 1.031 0 0 1 2 0v24.5a.915.915 0 0 1-1 .781z" class="cls-3" transform="translate(414.188 2637.556)"/>
            <path id="패스_4601" d="M311.728 335.767c-.557 0-1-.131-1-.291v-31.154c0-.16.447-.289 1-.289s1 .129 1 .289v31.154c.001.161-.446.291-1 .291z" class="cls-3" transform="translate(467.439 2686.1)"/>
            <path id="패스_4602" d="M301.317 356.364c-.553 0-1-.177-1-.4v-29.7c0-.219.447-.4 1-.4s1 .178 1 .4v29.7c.004.224-.447.4-1 .4z" class="cls-3" transform="translate(470.101 2664.883)"/>
            <path id="패스_4603" d="M290.908 376.049c-.553 0-1-.289-1-.644v-33.368c0-.354.451-.641 1-.641s1 .287 1 .641v33.368c.004.355-.447.644-1 .644z" class="cls-3" transform="translate(472.765 2647.277)"/>
            <path id="패스_4604" d="M280.5 382.192a.916.916 0 0 1-1-.789v-29.426a1.031 1.031 0 0 1 2 0V381.4a.911.911 0 0 1-1 .792z" class="cls-3" transform="translate(475.427 2639.309)"/>
            <path id="패스_4605" d="M270.088 381.116a.914.914 0 0 1-1-.789V358.35a1.032 1.032 0 0 1 2 0v21.978a.916.916 0 0 1-1 .788z" class="cls-3" transform="translate(478.09 2636.66)"/>
            <path id="패스_4606" d="M259.679 375.988c-.553 0-1-.288-1-.642V342.4c0-.354.45-.64 1-.64s1 .286 1 .64v32.946c.004.354-.446.642-1 .642z" class="cls-3" transform="translate(480.753 2647.126)"/>
            <path id="패스_4607" d="M249.272 382.208a.917.917 0 0 1-1-.789v-29.528a1.032 1.032 0 0 1 2 0v29.529a.914.914 0 0 1-1 .788z" class="cls-3" transform="translate(483.415 2639.343)"/>
            <path id="패스_4608" d="M238.864 369.993c-.557 0-1-.257-1-.571V327.84c0-.315.447-.569 1-.569s1 .255 1 .569v41.581c0 .315-.447.572-1 .572z" class="cls-3" transform="translate(486.076 2657.368)"/>
            <path id="패스_4609" d="M228.452 374.717c-.554 0-1-.276-1-.614v-29.342c0-.339.447-.613 1-.613s1 .274 1 .613V374.1c.004.341-.446.617-1 .617z" class="cls-3" transform="translate(488.739 2646.568)"/>
            <path id="패스_4610" d="M41.085 374.076c-.553 0-1-.269-1-.6V343.4c0-.333.451-.6 1-.6s1 .271 1 .6v30.07c.004.336-.447.606-1 .606z" class="cls-3" transform="translate(536.665 2647.562)"/>
            <path id="패스_4611" d="M30.677 381.218a.917.917 0 0 1-1-.789V357.75a1.032 1.032 0 0 1 2 0v22.68a.913.913 0 0 1-1 .788z" class="cls-3" transform="translate(539.327 2636.909)"/>
            <path id="패스_4612" d="M20.266 379.954a.912.912 0 0 1-1-.786v-13.957a1.032 1.032 0 0 1 2 0v13.958a.916.916 0 0 1-1 .785z" class="cls-3" transform="translate(541.99 2633.811)"/>
            <path id="패스_4613" d="M9.856 378.493a.915.915 0 0 1-1-.786v-3.856a.917.917 0 0 1 1-.789.918.918 0 0 1 1 .789v3.856a.916.916 0 0 1-1 .786z" class="cls-3" transform="translate(544.653 2630.221)"/>
            <path id="패스_4614" d="M-.551 378.976a.917.917 0 0 1-1-.789v-7.174a.915.915 0 0 1 1-.786.912.912 0 0 1 1 .786v7.174a.914.914 0 0 1-1 .789z" class="cls-3" transform="translate(547.314 2631.399)"/>
            <path id="패스_4615" d="M-11 378.508a.916.916 0 0 1-1-.789v-3.94a.916.916 0 0 1 1-.786.916.916 0 0 1 1 .786v3.94a.916.916 0 0 1-1 .789z" class="cls-3" transform="translate(549.987 2630.249)"/>
            <path id="패스_4616" d="M113.95 379.884a.915.915 0 0 1-1-.786v-13.473a1.033 1.033 0 0 1 2.008 0V379.1a.916.916 0 0 1-1.008.784z" class="cls-3" transform="translate(518.027 2633.639)"/>
            <path id="패스_4617" d="M103.542 382.109a.918.918 0 0 1-1-.788v-28.844a1.032 1.032 0 0 1 2 0v28.844a.914.914 0 0 1-1 .788z" class="cls-3" transform="translate(520.689 2639.1)"/>
            <path id="패스_4618" d="M93.13 380.166a.914.914 0 0 1-1-.789v-15.4a1.032 1.032 0 0 1 2 0v15.4a.915.915 0 0 1-1 .789z" class="cls-3" transform="translate(523.353 2634.323)"/>
            <path id="패스_4619" d="M82.722 369.993c-.553 0-1-.257-1-.571V327.84c0-.315.447-.569 1-.569s1 .255 1 .569v41.581c.004.315-.446.572-1 .572z" class="cls-3" transform="translate(526.015 2657.368)"/>
            <path id="패스_4620" d="M72.314 371.247c-.554 0-1-.252-1-.562V339.6c0-.31.451-.56 1-.56s1 .25 1 .56v31.082c0 .312-.447.565-1 .565z" class="cls-3" transform="translate(528.678 2650.855)"/>
            <path id="패스_4621" d="M61.905 380.815a.914.914 0 0 1-1-.789v-19.911a1.031 1.031 0 0 1 2 0v19.911a.914.914 0 0 1-1 .789z" class="cls-3" transform="translate(531.339 2635.928)"/>
            <path id="패스_4622" d="M51.494 379.884a.911.911 0 0 1-1-.786v-13.473a1.031 1.031 0 0 1 2 0V379.1a.916.916 0 0 1-1 .784z" class="cls-3" transform="translate(534.002 2633.639)"/>
            <path id="패스_4623" d="M218.043 382.421a.915.915 0 0 1-1-.786v-31.02a1.034 1.034 0 0 1 2.008 0v31.02a.915.915 0 0 1-1.008.786z" class="cls-3" transform="translate(491.402 2639.874)"/>
            <path id="패스_4624" d="M207.635 351.476c-.553 0-1-.181-1-.4v-38.369c0-.223.451-.4 1-.4s1 .18 1 .4v38.365c0 .222-.447.404-1 .404z" class="cls-3" transform="translate(494.064 2674.11)"/>
            <path id="패스_4625" d="M197.224 375.988c-.554 0-1-.288-1-.642V342.4c0-.354.447-.64 1-.64s1 .286 1 .64v32.946c.003.354-.447.642-1 .642z" class="cls-3" transform="translate(496.727 2647.126)"/>
            <path id="패스_4626" d="M186.815 372.164c-.554 0-1-.265-1-.59v-37.367c0-.327.45-.59 1-.59s1 .263 1 .59v37.367c.004.326-.447.59-1 .59z" class="cls-3" transform="translate(499.391 2653.109)"/>
            <path id="패스_4627" d="M176.407 382.608a.915.915 0 0 1-1-.786v-32.311a1.031 1.031 0 0 1 2 0v32.312a.912.912 0 0 1-1 .785z" class="cls-3" transform="translate(502.052 2640.335)"/>
            <path id="패스_4628" d="M166 380.672a.912.912 0 0 1-1-.786v-18.919a1.031 1.031 0 0 1 2 0v18.919a.913.913 0 0 1-1 .786z" class="cls-3" transform="translate(504.714 2635.574)"/>
            <path id="패스_4629" d="M155.587 380.152a.912.912 0 0 1-1-.786V364.04a1.031 1.031 0 0 1 2 0v15.327a.916.916 0 0 1-1 .785z" class="cls-3" transform="translate(507.377 2634.298)"/>
            <path id="패스_4630" d="M145.178 371.313c-.553 0-1-.251-1-.564V339.2c0-.311.451-.564 1-.564s1 .253 1 .564v31.551c0 .311-.446.562-1 .562z" class="cls-3" transform="translate(510.04 2651.026)"/>
            <path id="패스_4631" d="M134.771 382.475a.913.913 0 0 1-1-.786V350.3a1.031 1.031 0 0 1 2 0v31.391a.912.912 0 0 1-1 .784z" class="cls-3" transform="translate(512.702 2640.007)"/>
            <path id="패스_4632" d="M124.359 381.481a.914.914 0 0 1-1-.789V356.2a1.031 1.031 0 0 1 2 0v24.5a.918.918 0 0 1-1 .781z" class="cls-3" transform="translate(515.364 2637.556)"/>
            <g id="사각형_2675" class="cls-2" transform="translate(400 3106)">
                <rect width="748" height="70" class="cls-10" rx="10"/>
                <rect width="747" height="69" x=".5" y=".5" class="cls-11" rx="9.5"/>
            </g>
            <g id="사각형_2676" class="cls-2" transform="translate(400 3241)">
                <rect width="748" height="70" class="cls-10" rx="10"/>
                <rect width="747" height="69" x=".5" y=".5" class="cls-11" rx="9.5"/>
            </g>
            <path id="패스_4610-2" d="M42.7 386.473c-1.441 0-2.617-.376-2.617-.841v-41.989c0-.465 1.176-.844 2.617-.844s2.617.379 2.617.844v41.989c-.002.468-1.178.841-2.617.841z" class="cls-4" transform="translate(617.837 2776.364)"/>
            <path id="패스_4611-2" d="M32.29 402.564c-1.441 0-2.617-.665-2.617-1.482v-42.64c0-.818 1.176-1.477 2.617-1.477s2.607.659 2.607 1.477v42.64c.003.818-1.164 1.482-2.607 1.482z" class="cls-4" transform="translate(608.577 2761.236)"/>
            <path id="패스_4612-2" d="M21.874 393.624c-1.443 0-2.609-.66-2.609-1.477V365.9c0-.816 1.166-1.481 2.609-1.481s2.617.665 2.617 1.481v26.242c0 .821-1.176 1.482-2.617 1.482z" class="cls-4" transform="translate(599.318 2761.976)"/>
            <path id="패스_4613-2" d="M11.469 383.272c-1.441 0-2.617-.659-2.617-1.477v-7.25c0-.818 1.176-1.483 2.617-1.483s2.619.665 2.619 1.483v7.25c0 .818-1.176 1.477-2.619 1.477z" class="cls-4" transform="translate(591.1 2762.832)"/>
            <path id="패스_4614-2" d="M1.062 386.675c-1.443 0-2.617-.665-2.617-1.483V371.7c0-.817 1.174-1.477 2.617-1.477s2.607.66 2.607 1.477v13.489c0 .821-1.169 1.486-2.607 1.486z" class="cls-4" transform="translate(581.318 2762.549)"/>
            <path id="패스_4615-2" d="M-9.386 383.361c-1.441 0-2.617-.66-2.617-1.483v-7.407c0-.817 1.176-1.477 2.617-1.477s2.619.66 2.619 1.477v7.407c0 .822-1.176 1.483-2.619 1.483z" class="cls-4" transform="translate(571.498 2762.823)"/>
            <path id="패스_4616-2" d="M115.563 393.128c-1.443 0-2.617-.66-2.617-1.477v-25.332c0-.817 1.174-1.483 2.617-1.483s2.617.666 2.617 1.483v25.332c0 .817-1.18 1.477-2.617 1.477z" class="cls-4" transform="translate(682.666 2762.018)"/>
            <path id="패스_4617-2" d="M105.155 399.626c-1.441 0-2.617-.558-2.617-1.242v-45.455c0-.685 1.176-1.238 2.617-1.238s2.607.553 2.607 1.238v45.455c0 .684-1.162 1.242-2.607 1.242z" class="cls-4" transform="translate(673.406 2765.341)"/>
            <path id="패스_4618-2" d="M94.737 395.109c-1.441 0-2.607-.666-2.607-1.483v-28.962c0-.818 1.166-1.477 2.607-1.477s2.617.659 2.617 1.477v28.962c0 .817-1.166 1.483-2.617 1.483z" class="cls-4" transform="translate(664.145 2761.852)"/>
            <path id="패스_4619-2" d="M84.329 389.2c-1.441 0-2.607-.372-2.607-.828V328.1c0-.456 1.166-.825 2.607-.825s2.617.369 2.617.825v60.28c0 .452-1.174.82-2.617.82z" class="cls-4" transform="translate(654.887 2782.763)"/>
            <path id="패스_4620-2" d="M73.928 381.2c-1.443 0-2.619-.33-2.619-.735v-40.69c0-.406 1.176-.733 2.619-.733s2.607.327 2.607.733v40.69c0 .406-1.166.735-2.607.735z" class="cls-4" transform="translate(645.622 2780.878)"/>
            <path id="패스_4621-2" d="M63.517 399.727c-1.451 0-2.615-.665-2.615-1.482V360.81c0-.818 1.164-1.483 2.615-1.483s2.609.665 2.609 1.483v37.435c0 .818-1.166 1.482-2.609 1.482z" class="cls-4" transform="translate(636.362 2761.472)"/>
            <path id="패스_4622-2" d="M53.1 393.128c-1.443 0-2.607-.66-2.607-1.477v-25.332c0-.817 1.164-1.483 2.607-1.483s2.617.666 2.617 1.483v25.332c.001.817-1.175 1.477-2.617 1.477z" class="cls-4" transform="translate(627.101 2762.018)"/>
            <path id="패스_4629-2" d="M157.194 395.027c-1.441 0-2.607-.66-2.607-1.477v-28.816c0-.817 1.166-1.483 2.607-1.483s2.617.666 2.617 1.483v28.816c0 .816-1.176 1.477-2.617 1.477z" class="cls-4" transform="translate(719.713 2761.861)"/>
            <path id="패스_4630-2" d="M146.791 381.686c-1.441 0-2.617-.331-2.617-.743v-41.566c0-.409 1.176-.743 2.617-.743s2.607.334 2.607.743v41.565c.002.413-1.164.744-2.607.744z" class="cls-4" transform="translate(709.927 2780.84)"/>
            <path id="패스_4631-2" d="M136.384 393.1c-1.453 0-2.617-.465-2.617-1.039v-41.508c0-.574 1.164-1.043 2.617-1.043s2.607.468 2.607 1.043v41.508c0 .574-1.166 1.039-2.607 1.039z" class="cls-4" transform="translate(700.146 2769.695)"/>
            <path id="패스_4632-2" d="M125.967 404.428c-1.443 0-2.609-.666-2.609-1.482v-46.055c0-.822 1.166-1.483 2.609-1.483s2.617.66 2.617 1.483v46.055c0 .816-1.176 1.482-2.617 1.482z" class="cls-4" transform="translate(691.929 2761.082)"/>
            <path id="패스_4616-3" d="M115.563 393.128c-1.443 0-2.617-.66-2.617-1.477v-25.332c0-.817 1.174-1.483 2.617-1.483s2.617.666 2.617 1.483v25.332c0 .817-1.18 1.477-2.617 1.477z" class="cls-4" transform="translate(779.974 2762.018)"/>
            <path id="패스_4629-3" d="M157.194 395.027c-1.441 0-2.607-.66-2.607-1.477v-28.816c0-.817 1.166-1.483 2.607-1.483s2.617.666 2.617 1.483v28.816c0 .816-1.176 1.477-2.617 1.477z" class="cls-4" transform="translate(817.021 2761.861)"/>
            <path id="패스_4630-3" d="M146.791 381.686c-1.441 0-2.617-.331-2.617-.743v-41.566c0-.409 1.176-.743 2.617-.743s2.607.334 2.607.743v41.565c.002.413-1.164.744-2.607.744z" class="cls-4" transform="translate(807.234 2780.84)"/>
            <path id="패스_4631-3" d="M136.384 393.1c-1.453 0-2.617-.465-2.617-1.039v-41.508c0-.574 1.164-1.043 2.617-1.043s2.607.468 2.607 1.043v41.508c0 .574-1.166 1.039-2.607 1.039z" class="cls-4" transform="translate(797.453 2769.695)"/>
            <path id="패스_4632-3" d="M125.967 404.428c-1.443 0-2.609-.666-2.609-1.482v-46.055c0-.822 1.166-1.483 2.609-1.483s2.617.66 2.617 1.483v46.055c0 .816-1.176 1.482-2.617 1.482z" class="cls-4" transform="translate(789.236 2761.082)"/>
            <path id="패스_4629-4" d="M157.194 395.027c-1.441 0-2.607-.66-2.607-1.477v-28.816c0-.817 1.166-1.483 2.607-1.483s2.617.666 2.617 1.483v28.816c0 .816-1.176 1.477-2.617 1.477z" class="cls-4" transform="translate(876.028 2761.861)"/>
            <path id="패스_4630-4" d="M146.791 381.686c-1.441 0-2.617-.331-2.617-.743v-41.566c0-.409 1.176-.743 2.617-.743s2.607.334 2.607.743v41.565c.002.413-1.164.744-2.607.744z" class="cls-4" transform="translate(866.242 2780.84)"/>
            <path id="패스_4631-4" d="M136.384 393.1c-1.453 0-2.617-.465-2.617-1.039v-41.508c0-.574 1.164-1.043 2.617-1.043s2.607.468 2.607 1.043v41.508c0 .574-1.166 1.039-2.607 1.039z" class="cls-4" transform="translate(856.461 2769.695)"/>
            <path id="패스_4513-2" d="M603.342 383.886c-.638 0-1.158-.354-1.158-.792v-39.5c0-.437.52-.794 1.158-.794s1.154.357 1.154.794v39.5c.004.439-.516.792-1.154.792z" class="cls-5" transform="translate(285.606 2912.201)"/>
            <path id="패스_4513-3" d="M603.342 383.886c-.638 0-1.158-.354-1.158-.792v-39.5c0-.437.52-.794 1.158-.794s1.154.357 1.154.794v39.5c.004.439-.516.792-1.154.792z" class="cls-5" transform="translate(321.16 2912.201)"/>
            <path id="패스_4514-2" d="M613.75 384.948a1.058 1.058 0 0 1-1.158-.91V357.87a1.193 1.193 0 0 1 2.317 0v26.168a1.058 1.058 0 0 1-1.159.91z" class="cls-5" transform="translate(284.136 2905.036)"/>
            <path id="패스_4514-3" d="M613.75 384.948a1.058 1.058 0 0 1-1.158-.91V357.87a1.193 1.193 0 0 1 2.317 0v26.168a1.058 1.058 0 0 1-1.159.91z" class="cls-5" transform="translate(319.689 2905.036)"/>
            <path id="패스_4515-2" d="M624.159 382.343a1.052 1.052 0 0 1-1.154-.906v-16.1a1.189 1.189 0 0 1 2.312 0v16.1a1.056 1.056 0 0 1-1.158.906z" class="cls-5" transform="translate(282.664 2902.577)"/>
            <path id="패스_4515-3" d="M624.159 382.343a1.052 1.052 0 0 1-1.154-.906v-16.1a1.189 1.189 0 0 1 2.312 0v16.1a1.056 1.056 0 0 1-1.158.906z" class="cls-5" transform="translate(318.218 2902.577)"/>
            <path id="패스_4516-2" d="M634.57 379.328a1.056 1.056 0 0 1-1.158-.906v-4.449a1.19 1.19 0 0 1 2.313 0v4.449a1.052 1.052 0 0 1-1.155.906z" class="cls-5" transform="translate(218.565 2899.937)"/>
            <path id="패스_4517-2" d="M644.978 380.321a1.059 1.059 0 0 1-1.158-.91v-8.278a1.193 1.193 0 0 1 2.317 0v8.278a1.058 1.058 0 0 1-1.159.91z" class="cls-5" transform="translate(217.095 2900.773)"/>
            <path id="패스_4518-2" d="M655.425 379.356a1.057 1.057 0 0 1-1.158-.91V373.9a1.191 1.191 0 0 1 2.313 0v4.546a1.052 1.052 0 0 1-1.155.91z" class="cls-5" transform="translate(215.619 2900.006)"/>
            <path id="패스_4525-2" d="M592.93 382.2a1.052 1.052 0 0 1-1.154-.906v-15.548a1.19 1.19 0 0 1 2.313 0v15.546a1.053 1.053 0 0 1-1.159.908z" class="cls-5" transform="translate(287.077 2902.164)"/>
            <path id="패스_4525-3" d="M592.93 382.2a1.052 1.052 0 0 1-1.154-.906v-15.548a1.19 1.19 0 0 1 2.313 0v15.546a1.053 1.053 0 0 1-1.159.908z" class="cls-5" transform="translate(322.631 2902.164)"/>
            <path id="패스_4547-2" d="M20.42 382.343a1.053 1.053 0 0 1-1.155-.906v-16.1a1.054 1.054 0 0 1 1.155-.909 1.059 1.059 0 0 1 1.158.909v16.1a1.057 1.057 0 0 1-1.158.906z" class="cls-5" transform="translate(957.773 2902.577)"/>
            <path id="패스_4548-2" d="M10.01 379.328a1.056 1.056 0 0 1-1.158-.906v-4.449a1.059 1.059 0 0 1 1.158-.91 1.059 1.059 0 0 1 1.159.91v4.449a1.057 1.057 0 0 1-1.159.906z" class="cls-5" transform="translate(959.245 2899.937)"/>
            <path id="패스_4549-2" d="M-.4 380.321a1.058 1.058 0 0 1-1.158-.91v-8.278a1.056 1.056 0 0 1 1.158-.906 1.052 1.052 0 0 1 1.154.906v8.278a1.054 1.054 0 0 1-1.154.91z" class="cls-5" transform="translate(960.715 2900.773)"/>
            <path id="패스_4550-2" d="M-10.845 379.356a1.057 1.057 0 0 1-1.158-.91V373.9a1.057 1.057 0 0 1 1.158-.906 1.057 1.057 0 0 1 1.159.906v4.546a1.057 1.057 0 0 1-1.159.91z" class="cls-5" transform="translate(962.191 2900.006)"/>
            <path id="패스_4563-2" d="M166.149 383.824a1.052 1.052 0 0 1-1.154-.906v-21.83a1.19 1.19 0 0 1 2.312 0v21.829a1.053 1.053 0 0 1-1.158.907z" class="cls-5" transform="translate(861.281 2903.821)"/>
            <path id="패스_4564-2" d="M155.741 382.751a1.052 1.052 0 0 1-1.154-.906v-17.684a1.19 1.19 0 0 1 2.312 0v17.684a1.057 1.057 0 0 1-1.158.906z" class="cls-5" transform="translate(862.752 2902.749)"/>
            <path id="패스_4565-2" d="M145.332 375.735c-.638 0-1.158-.285-1.158-.64v-35.82c0-.353.52-.64 1.158-.64s1.154.288 1.154.64v35.82c0 .355-.515.64-1.154.64z" class="cls-5" transform="translate(864.224 2918.366)"/>
            <path id="패스_4566-2" d="M134.925 387.545a1.053 1.053 0 0 1-1.158-.906V350.42a1.19 1.19 0 0 1 2.312 0v36.219a1.052 1.052 0 0 1-1.154.906z" class="cls-5" transform="translate(865.694 2907.49)"/>
            <path id="패스_4567-2" d="M124.513 385.491a1.055 1.055 0 0 1-1.155-.91v-28.263a1.19 1.19 0 0 1 2.313 0v28.263a1.059 1.059 0 0 1-1.158.91z" class="cls-5" transform="translate(867.165 2905.592)"/>
            <path id="패스_4580-2" d="M624.159 382.343a1.052 1.052 0 0 1-1.154-.906v-16.1a1.189 1.189 0 0 1 2.312 0v16.1a1.056 1.056 0 0 1-1.158.906z" class="cls-5" transform="translate(282.664 2902.577)"/>
            <path id="패스_4580-3" d="M624.159 382.343a1.052 1.052 0 0 1-1.154-.906v-16.1a1.189 1.189 0 0 1 2.312 0v16.1a1.056 1.056 0 0 1-1.158.906z" class="cls-5" transform="translate(318.218 2902.577)"/>
            <path id="패스_4581-2" d="M634.57 379.328a1.056 1.056 0 0 1-1.158-.906v-4.449a1.19 1.19 0 0 1 2.313 0v4.449a1.052 1.052 0 0 1-1.155.906z" class="cls-5" transform="translate(218.565 2899.937)"/>
            <path id="패스_4582-2" d="M644.978 380.321a1.059 1.059 0 0 1-1.158-.91v-8.278a1.193 1.193 0 0 1 2.317 0v8.278a1.058 1.058 0 0 1-1.159.91z" class="cls-5" transform="translate(217.095 2900.773)"/>
            <path id="패스_4583-2" d="M655.425 379.356a1.057 1.057 0 0 1-1.158-.91V373.9a1.191 1.191 0 0 1 2.313 0v4.546a1.052 1.052 0 0 1-1.155.91z" class="cls-5" transform="translate(215.619 2900.006)"/>
            <path id="패스_4590-2" d="M592.93 382.2a1.052 1.052 0 0 1-1.154-.906v-15.548a1.19 1.19 0 0 1 2.313 0v15.546a1.053 1.053 0 0 1-1.159.908z" class="cls-5" transform="translate(287.077 2902.164)"/>
            <path id="패스_4590-3" d="M592.93 382.2a1.052 1.052 0 0 1-1.154-.906v-15.548a1.19 1.19 0 0 1 2.313 0v15.546a1.053 1.053 0 0 1-1.159.908z" class="cls-5" transform="translate(322.631 2902.164)"/>
            <path id="패스_4612-3" d="M20.42 382.343a1.053 1.053 0 0 1-1.155-.906v-16.1a1.054 1.054 0 0 1 1.155-.909 1.059 1.059 0 0 1 1.158.909v16.1a1.057 1.057 0 0 1-1.158.906z" class="cls-5" transform="translate(957.773 2902.577)"/>
            <path id="패스_4613-3" d="M10.01 379.328a1.056 1.056 0 0 1-1.158-.906v-4.449a1.059 1.059 0 0 1 1.158-.91 1.059 1.059 0 0 1 1.159.91v4.449a1.057 1.057 0 0 1-1.159.906z" class="cls-5" transform="translate(959.245 2899.937)"/>
            <path id="패스_4614-3" d="M-.4 380.321a1.058 1.058 0 0 1-1.158-.91v-8.278a1.056 1.056 0 0 1 1.158-.906 1.052 1.052 0 0 1 1.154.906v8.278a1.054 1.054 0 0 1-1.154.91z" class="cls-5" transform="translate(960.715 2900.773)"/>
            <path id="패스_4615-3" d="M-10.845 379.356a1.057 1.057 0 0 1-1.158-.91V373.9a1.057 1.057 0 0 1 1.158-.906 1.057 1.057 0 0 1 1.159.906v4.546a1.057 1.057 0 0 1-1.159.91z" class="cls-5" transform="translate(962.191 2900.006)"/>
            <path id="패스_4503-2" d="M322.366 337.955c-.68 0-1.234-.171-1.234-.382v-51.237c0-.211.554-.381 1.234-.381s1.23.17 1.23.381v51.237c.004.211-.549.382-1.23.382z" class="cls-5" transform="translate(402.743 2964.045)"/>
            <path id="패스_4507-2" d="M364 386.96c-.681 0-1.234-.405-1.234-.91V352.1c0-.5.553-.909 1.234-.909s1.234.408 1.234.909v33.951c.003.504-.551.909-1.234.909z" class="cls-5" transform="translate(206.258 2906.811)"/>
            <path id="패스_4545-2" d="M41.315 383.886c-.68 0-1.234-.354-1.234-.792v-39.5c0-.437.554-.794 1.234-.794s1.234.357 1.234.794v39.5c0 .439-.554.792-1.234.792z" class="cls-5" transform="translate(567.06 2912.201)"/>
            <path id="패스_4546-2" d="M30.907 384.948c-.68 0-1.234-.408-1.234-.91V357.87c0-.5.554-.906 1.234-.906s1.229.4 1.229.906v26.168c.001.502-.548.91-1.229.91z" class="cls-5" transform="translate(558.427 2905.036)"/>
            <path id="패스_4551-2" d="M114.18 382.2c-.681 0-1.234-.405-1.234-.906v-15.548c0-.5.553-.91 1.234-.91s1.234.409 1.234.91v15.546c0 .501-.554.908-1.234.908z" class="cls-5" transform="translate(641.965 2902.164)"/>
            <path id="패스_4554-2" d="M82.951 366.628c-.68 0-1.229-.236-1.229-.526V327.8c0-.29.55-.524 1.229-.524s1.234.234 1.234.524v38.3c.001.292-.553.528-1.234.528z" class="cls-5" transform="translate(694.705 2928.729)"/>
            <path id="패스_4556-2" d="M62.135 384.12c-.684 0-1.233-.408-1.233-.91v-22.973c0-.5.549-.91 1.233-.91s1.23.408 1.23.91v22.974c.001.501-.549.909-1.23.909z" class="cls-5" transform="translate(572.35 2904.673)"/>
            <path id="패스_4557-2" d="M51.723 382.2c-.681 0-1.229-.405-1.229-.906v-15.548c0-.5.549-.91 1.229-.91s1.234.409 1.234.91v15.546c.001.501-.557.908-1.234.908z" class="cls-5" transform="translate(566.171 2902.164)"/>
            <path id="패스_4562-2" d="M176.637 387.82c-.681 0-1.234-.405-1.234-.906v-37.282c0-.5.553-.91 1.234-.91s1.23.409 1.23.91v37.282c0 .501-.55.906-1.23.906z" class="cls-5" transform="translate(613.01 2907.278)"/>
            <path id="패스_4568-2" d="M322.366 337.955c-.68 0-1.234-.171-1.234-.382v-51.237c0-.211.554-.381 1.234-.381s1.23.17 1.23.381v51.237c.004.211-.549.382-1.23.382z" class="cls-5" transform="translate(393.222 2964.045)"/>
            <path id="패스_4572-2" d="M364 386.96c-.681 0-1.234-.405-1.234-.91V352.1c0-.5.553-.909 1.234-.909s1.234.408 1.234.909v33.951c.003.504-.551.909-1.234.909z" class="cls-5" transform="translate(370.627 2906.811)"/>
            <path id="패스_4574-2" d="M384.824 380.648c-.685 0-1.235-.328-1.235-.73v-37.431c0-.4.55-.727 1.235-.727s1.23.325 1.23.727v37.431c-.001.402-.554.73-1.23.73z" class="cls-5" transform="translate(423.865 2915.24)"/>
            <path id="패스_4578-2" d="M603.418 383.886c-.68 0-1.234-.354-1.234-.792v-39.5c0-.437.554-.794 1.234-.794s1.229.357 1.229.794v39.5c.001.439-.547.792-1.229.792z" class="cls-5" transform="translate(224.313 2912.201)"/>
            <path id="패스_4579-2" d="M613.826 384.948c-.681 0-1.234-.408-1.234-.91V357.87c0-.5.554-.906 1.234-.906s1.234.4 1.234.906v26.168c0 .502-.554.91-1.234.91z" class="cls-5" transform="translate(223.425 2905.036)"/>
            <path id="패스_4595-2" d="M468.1 387.82c-.68 0-1.234-.405-1.234-.906v-37.282c0-.5.554-.91 1.234-.91s1.234.409 1.234.91v37.282c-.004.501-.558.906-1.234.906z" class="cls-5" transform="translate(111.701 2907.278)"/>
            <path id="패스_4597-2" d="M488.917 382.751c-.685 0-1.234-.405-1.234-.906v-17.684c0-.5.549-.91 1.234-.91s1.23.409 1.23.91v17.684c0 .501-.547.906-1.23.906z" class="cls-5" transform="translate(355.404 2902.749)"/>
            <path id="패스_4599-2" d="M509.733 387.545c-.68 0-1.229-.405-1.229-.906V350.42c0-.5.55-.91 1.229-.91s1.234.409 1.234.91v36.219c0 .501-.554.906-1.234.906z" class="cls-5" transform="translate(308.473 2907.49)"/>
            <path id="패스_4600-2" d="M520.141 385.491c-.68 0-1.23-.409-1.23-.91v-28.263c0-.5.55-.91 1.23-.91s1.234.405 1.234.91v28.263c0 .501-.55.91-1.234.91z" class="cls-5" transform="translate(279.022 2905.592)"/>
            <path id="패스_4603-2" d="M291.138 380.775c-.68 0-1.234-.329-1.234-.731v-37.919c0-.4.554-.729 1.234-.729s1.234.326 1.234.729v37.919c0 .402-.554.731-1.234.731z" class="cls-5" transform="translate(414.924 2914.604)"/>
            <path id="패스_4610-3" d="M41.315 383.886c-.68 0-1.234-.354-1.234-.792v-39.5c0-.437.554-.794 1.234-.794s1.234.357 1.234.794v39.5c0 .439-.554.792-1.234.792z" class="cls-5" transform="translate(726.821 2912.201)"/>
            <path id="패스_4611-3" d="M30.907 384.948c-.68 0-1.234-.408-1.234-.91V357.87c0-.5.554-.906 1.234-.906s1.229.4 1.229.906v26.168c.001.502-.548.91-1.229.91z" class="cls-5" transform="translate(567.947 2905.036)"/>
            <path id="패스_4616-4" d="M114.18 382.2c-.681 0-1.234-.405-1.234-.906v-15.548c0-.5.553-.91 1.234-.91s1.234.409 1.234.91v15.546c0 .501-.554.908-1.234.908z" class="cls-5" transform="translate(629.975 2902.164)"/>
            <path id="패스_4617-3" d="M103.772 386.788c-.68 0-1.234-.409-1.234-.91V352.6c0-.5.554-.906 1.234-.906s1.23.4 1.23.906v33.28c-.002.499-.55.908-1.23.908z" class="cls-5" transform="translate(540.234 2906.309)"/>
            <path id="패스_4619-3" d="M82.951 366.628c-.68 0-1.229-.236-1.229-.526V327.8c0-.29.55-.524 1.229-.524s1.234.234 1.234.524v38.3c.001.292-.553.528-1.234.528z" class="cls-5" transform="translate(580.104 2928.729)"/>
            <path id="패스_4620-3" d="M72.544 375.6c-.681 0-1.235-.286-1.235-.638v-35.28c0-.352.554-.635 1.235-.635s1.23.284 1.23.635v35.28c-.001.347-.55.638-1.23.638z" class="cls-5" transform="translate(580.984 2918.957)"/>
            <path id="패스_4621-3" d="M62.135 384.12c-.684 0-1.233-.408-1.233-.91v-22.973c0-.5.549-.91 1.233-.91s1.23.408 1.23.91v22.974c.001.501-.549.909-1.23.909z" class="cls-5" transform="translate(498.593 2904.673)"/>
            <path id="패스_4622-3" d="M51.723 382.2c-.681 0-1.229-.405-1.229-.906v-15.548c0-.5.549-.91 1.229-.91s1.234.409 1.234.91v15.546c.001.501-.557.908-1.234.908z" class="cls-5" transform="translate(575.691 2902.164)"/>
            <path id="패스_4627-2" d="M176.637 387.82c-.681 0-1.234-.405-1.234-.906v-37.282c0-.5.553-.91 1.234-.91s1.23.409 1.23.91v37.282c0 .501-.55.906-1.23.906z" class="cls-5" transform="translate(519.904 2907.278)"/>
            <path id="패스_4628-2" d="M166.225 383.824c-.68 0-1.23-.405-1.23-.906v-21.83c0-.5.55-.909 1.23-.909s1.234.408 1.234.909v21.829c0 .501-.549.907-1.234.907z" class="cls-5" transform="translate(518.326 2903.821)"/>
            <path id="패스_4629-5" d="M155.816 382.751c-.68 0-1.229-.405-1.229-.906v-17.684c0-.5.55-.91 1.229-.91s1.234.409 1.234.91v17.684c.001.501-.55.906-1.234.906z" class="cls-5" transform="translate(519.214 2902.749)"/>
            <path id="패스_4630-5" d="M145.332 375.735c-.638 0-1.158-.285-1.158-.64v-35.82c0-.353.52-.64 1.158-.64s1.154.288 1.154.64v35.82c0 .355-.515.64-1.154.64z" class="cls-5" transform="translate(864.224 2918.366)"/>
            <path id="패스_4631-5" d="M134.925 387.545a1.053 1.053 0 0 1-1.158-.906V350.42a1.19 1.19 0 0 1 2.312 0v36.219a1.052 1.052 0 0 1-1.154.906z" class="cls-5" transform="translate(865.694 2907.49)"/>
            <path id="패스_4632-4" d="M124.513 385.491a1.055 1.055 0 0 1-1.155-.91v-28.263a1.19 1.19 0 0 1 2.313 0v28.263a1.059 1.059 0 0 1-1.158.91z" class="cls-5" transform="translate(867.165 2905.592)"/>
            <path id="패스_4643" d="M69.6 147.886a23.086 23.086 0 1 0 23.087 23.087A23.112 23.112 0 0 0 69.6 147.886z" class="cls-6" transform="translate(389.914 2834.543)"/>
            <path id="패스_4644" d="M69.7 194.587a23.515 23.515 0 1 1 23.516-23.515A23.542 23.542 0 0 1 69.7 194.587zm0-46.168a22.652 22.652 0 1 0 22.653 22.653A22.678 22.678 0 0 0 69.7 148.42z" class="cls-7" transform="translate(389.814 2834.443)"/>
            <path id="패스_4645" d="M61.33 162.871v4.907a4.254 4.254 0 0 0 4.243 4.241h1.617a4.254 4.254 0 0 0 4.243-4.241v-4.907z" class="cls-8" transform="translate(393.134 2837.841)"/>
            <path id="패스_4646" d="M67.236 175.925a8.109 8.109 0 0 1-8.1-8.1v-4.4a.561.561 0 1 1 1.121 0v4.4a6.986 6.986 0 0 0 6.979 6.98h1.617a6.986 6.986 0 0 0 6.979-6.98v-4.459a.561.561 0 0 1 1.121 0v4.459a8.109 8.109 0 0 1-8.1 8.1z" class="cls-8" transform="translate(391.471 2837.793)"/>
            <path id="패스_4647" d="M65.814 177.046a4.808 4.808 0 0 1-4.8-4.8v-10.47a4.806 4.806 0 0 1 4.8-4.8h1.617a4.8 4.8 0 0 1 4.8 4.8v10.468a4.807 4.807 0 0 1-4.8 4.8zm0-18.952a3.686 3.686 0 0 0-3.682 3.682v10.468a3.685 3.685 0 0 0 3.682 3.682h1.617a3.685 3.685 0 0 0 3.682-3.682v-10.468a3.686 3.686 0 0 0-3.682-3.682z" class="cls-8" transform="translate(392.893 2833.375)"/>
            <path id="패스_4648" d="M64.446 177.632a.562.562 0 0 1-.561-.561V170.3a.561.561 0 1 1 1.121 0v6.767a.562.562 0 0 1-.56.565z" class="cls-8" transform="translate(395.069 2843.048)"/>
            <path id="패스_4649" d="M61.66 174.715a.561.561 0 0 1 0-1.121h9.791a.561.561 0 0 1 0 1.121z" class="cls-8" transform="translate(392.96 2845.965)"/>
            <path id="패스_4650" d="M63.6 159.572a.589.589 0 1 1-.589-.589.586.586 0 0 1 .589.589z" class="cls-8" transform="translate(393.958 2834.895)"/>
            <path id="패스_4651" d="M65 159.572a.589.589 0 1 1-.589-.589.587.587 0 0 1 .589.589z" class="cls-8" transform="translate(395.021 2834.895)"/>
            <path id="패스_4652" d="M66.4 159.572a.589.589 0 1 1-.589-.589.586.586 0 0 1 .589.589z" class="cls-8" transform="translate(396.083 2834.895)"/>
            <path id="패스_4653" d="M63.6 160.78a.589.589 0 1 1-.589-.589.588.588 0 0 1 .589.589z" class="cls-8" transform="translate(393.958 2835.81)"/>
            <circle id="타원_360" cx=".589" cy=".589" r=".589" class="cls-8" transform="translate(458.841 2996)"/>
            <path id="패스_4654" d="M66.4 160.78a.589.589 0 1 1-.589-.589.588.588 0 0 1 .589.589z" class="cls-8" transform="translate(396.083 2835.81)"/>
            <path id="패스_4655" d="M63.6 161.99a.589.589 0 1 1-.589-.591.587.587 0 0 1 .589.591z" class="cls-8" transform="translate(393.958 2836.725)"/>
            <path id="패스_4656" d="M65 161.99a.589.589 0 1 1-.589-.591.588.588 0 0 1 .589.591z" class="cls-8" transform="translate(395.021 2836.725)"/>
            <path id="패스_4657" d="M66.4 161.99a.589.589 0 1 1-.589-.591.587.587 0 0 1 .589.591z" class="cls-8" transform="translate(396.083 2836.725)"/>
            <path id="패스_4643-2" d="M69.6 147.886a23.086 23.086 0 1 0 23.087 23.087A23.112 23.112 0 0 0 69.6 147.886z" class="cls-6" transform="translate(389.914 3104.543)"/>
            <path id="패스_4644-2" d="M69.7 194.587a23.515 23.515 0 1 1 23.516-23.515A23.542 23.542 0 0 1 69.7 194.587zm0-46.168a22.652 22.652 0 1 0 22.653 22.653A22.678 22.678 0 0 0 69.7 148.42z" class="cls-7" transform="translate(389.814 3104.443)"/>
            <path id="패스_4645-2" d="M61.33 162.871v4.907a4.254 4.254 0 0 0 4.243 4.241h1.617a4.254 4.254 0 0 0 4.243-4.241v-4.907z" class="cls-8" transform="translate(393.134 3107.841)"/>
            <path id="패스_4646-2" d="M67.236 175.925a8.109 8.109 0 0 1-8.1-8.1v-4.4a.561.561 0 1 1 1.121 0v4.4a6.986 6.986 0 0 0 6.979 6.98h1.617a6.986 6.986 0 0 0 6.979-6.98v-4.459a.561.561 0 0 1 1.121 0v4.459a8.109 8.109 0 0 1-8.1 8.1z" class="cls-8" transform="translate(391.471 3107.793)"/>
            <path id="패스_4647-2" d="M65.814 177.046a4.808 4.808 0 0 1-4.8-4.8v-10.47a4.806 4.806 0 0 1 4.8-4.8h1.617a4.8 4.8 0 0 1 4.8 4.8v10.468a4.807 4.807 0 0 1-4.8 4.8zm0-18.952a3.686 3.686 0 0 0-3.682 3.682v10.468a3.685 3.685 0 0 0 3.682 3.682h1.617a3.685 3.685 0 0 0 3.682-3.682v-10.468a3.686 3.686 0 0 0-3.682-3.682z" class="cls-8" transform="translate(392.893 3103.375)"/>
            <path id="패스_4648-2" d="M64.446 177.632a.562.562 0 0 1-.561-.561V170.3a.561.561 0 1 1 1.121 0v6.767a.562.562 0 0 1-.56.565z" class="cls-8" transform="translate(395.069 3113.048)"/>
            <path id="패스_4649-2" d="M61.66 174.715a.561.561 0 0 1 0-1.121h9.791a.561.561 0 0 1 0 1.121z" class="cls-8" transform="translate(392.96 3115.965)"/>
            <path id="패스_4650-2" d="M63.6 159.572a.589.589 0 1 1-.589-.589.586.586 0 0 1 .589.589z" class="cls-8" transform="translate(393.958 3104.895)"/>
            <path id="패스_4651-2" d="M65 159.572a.589.589 0 1 1-.589-.589.587.587 0 0 1 .589.589z" class="cls-8" transform="translate(395.021 3104.895)"/>
            <path id="패스_4652-2" d="M66.4 159.572a.589.589 0 1 1-.589-.589.586.586 0 0 1 .589.589z" class="cls-8" transform="translate(396.083 3104.895)"/>
            <path id="패스_4653-2" d="M63.6 160.78a.589.589 0 1 1-.589-.589.588.588 0 0 1 .589.589z" class="cls-8" transform="translate(393.958 3105.81)"/>
            <circle id="타원_360-2" cx=".589" cy=".589" r=".589" class="cls-8" transform="translate(458.841 3266)"/>
            <path id="패스_4654-2" d="M66.4 160.78a.589.589 0 1 1-.589-.589.588.588 0 0 1 .589.589z" class="cls-8" transform="translate(396.083 3105.81)"/>
            <path id="패스_4655-2" d="M63.6 161.99a.589.589 0 1 1-.589-.591.587.587 0 0 1 .589.591z" class="cls-8" transform="translate(393.958 3106.725)"/>
            <path id="패스_4656-2" d="M65 161.99a.589.589 0 1 1-.589-.591.588.588 0 0 1 .589.591z" class="cls-8" transform="translate(395.021 3106.725)"/>
            <path id="패스_4657-2" d="M66.4 161.99a.589.589 0 1 1-.589-.591.587.587 0 0 1 .589.591z" class="cls-8" transform="translate(396.083 3106.725)"/>
            <path id="패스_4643-3" d="M69.6 147.886a23.086 23.086 0 1 0 23.087 23.087A23.112 23.112 0 0 0 69.6 147.886z" class="cls-6" transform="translate(389.914 2970.028)"/>
            <path id="패스_4644-3" d="M69.7 194.587a23.515 23.515 0 1 1 23.516-23.515A23.542 23.542 0 0 1 69.7 194.587zm0-46.168a22.652 22.652 0 1 0 22.653 22.653A22.678 22.678 0 0 0 69.7 148.42z" class="cls-7" transform="translate(389.814 2969.928)"/>
            <path id="패스_4645-3" d="M61.33 162.871v4.907a4.254 4.254 0 0 0 4.243 4.241h1.617a4.254 4.254 0 0 0 4.243-4.241v-4.907z" class="cls-8" transform="translate(393.134 2973.326)"/>
            <path id="패스_4646-3" d="M67.236 175.925a8.109 8.109 0 0 1-8.1-8.1v-4.4a.561.561 0 1 1 1.121 0v4.4a6.986 6.986 0 0 0 6.979 6.98h1.617a6.986 6.986 0 0 0 6.979-6.98v-4.459a.561.561 0 0 1 1.121 0v4.459a8.109 8.109 0 0 1-8.1 8.1z" class="cls-8" transform="translate(391.471 2973.278)"/>
            <path id="패스_4647-3" d="M65.814 177.046a4.808 4.808 0 0 1-4.8-4.8v-10.47a4.806 4.806 0 0 1 4.8-4.8h1.617a4.8 4.8 0 0 1 4.8 4.8v10.468a4.807 4.807 0 0 1-4.8 4.8zm0-18.952a3.686 3.686 0 0 0-3.682 3.682v10.468a3.685 3.685 0 0 0 3.682 3.682h1.617a3.685 3.685 0 0 0 3.682-3.682v-10.468a3.686 3.686 0 0 0-3.682-3.682z" class="cls-8" transform="translate(392.893 2968.859)"/>
            <path id="패스_4648-3" d="M64.446 177.632a.562.562 0 0 1-.561-.561V170.3a.561.561 0 1 1 1.121 0v6.767a.562.562 0 0 1-.56.565z" class="cls-8" transform="translate(395.069 2978.533)"/>
            <path id="패스_4649-3" d="M61.66 174.715a.561.561 0 0 1 0-1.121h9.791a.561.561 0 0 1 0 1.121z" class="cls-8" transform="translate(392.96 2981.449)"/>
            <path id="패스_4650-3" d="M63.6 159.572a.589.589 0 1 1-.589-.589.586.586 0 0 1 .589.589z" class="cls-8" transform="translate(393.958 2970.38)"/>
            <path id="패스_4651-3" d="M65 159.572a.589.589 0 1 1-.589-.589.587.587 0 0 1 .589.589z" class="cls-8" transform="translate(395.021 2970.38)"/>
            <path id="패스_4652-3" d="M66.4 159.572a.589.589 0 1 1-.589-.589.586.586 0 0 1 .589.589z" class="cls-8" transform="translate(396.083 2970.38)"/>
            <path id="패스_4653-3" d="M63.6 160.78a.589.589 0 1 1-.589-.589.588.588 0 0 1 .589.589z" class="cls-8" transform="translate(393.958 2971.295)"/>
            <circle id="타원_360-3" cx=".589" cy=".589" r=".589" class="cls-8" transform="translate(458.841 3131.485)"/>
            <path id="패스_4654-3" d="M66.4 160.78a.589.589 0 1 1-.589-.589.588.588 0 0 1 .589.589z" class="cls-8" transform="translate(396.083 2971.295)"/>
            <path id="패스_4655-3" d="M63.6 161.99a.589.589 0 1 1-.589-.591.587.587 0 0 1 .589.591z" class="cls-8" transform="translate(393.958 2972.21)"/>
            <path id="패스_4656-3" d="M65 161.99a.589.589 0 1 1-.589-.591.588.588 0 0 1 .589.591z" class="cls-8" transform="translate(395.021 2972.21)"/>
            <path id="패스_4657-3" d="M66.4 161.99a.589.589 0 1 1-.589-.591.587.587 0 0 1 .589.591z" class="cls-8" transform="translate(396.083 2972.21)"/>
        </g>
        <path id="패스_4779" d="M-121 .252a4.624 4.624 0 0 0 4.846-4.752 3.9 3.9 0 0 0-4.176-4.23 3.4 3.4 0 0 0-1.386.27l.2-2.268h4.77v-2.664h-7.524l-.342 6.624 1.4.918a2.966 2.966 0 0 1 1.89-.648 1.865 1.865 0 0 1 1.962 2.07 1.9 1.9 0 0 1-2.106 2.088 4.076 4.076 0 0 1-2.754-1.278l-1.456 2.018A6.381 6.381 0 0 0-121 .252zm12.078-14.022h-2.826v2.628c0 2.844-.594 5.868-3.168 7.452l1.728 2.178A7.019 7.019 0 0 0-110.34-5.4a6.417 6.417 0 0 0 2.628 3.51l1.548-2.268c-2.34-1.584-2.754-4.356-2.754-7.128zm2.79 4.086h-1.746v2.322h1.746v8.37h2.7v-15.966h-2.7zm3.438-5.508V1.692h2.754v-16.884zm4.338 18.126h9.792V1.152h-9.792zm19.746-9.666a9.493 9.493 0 0 0 .072-1.26 9.036 9.036 0 0 0-.126-1.6h2.412v2.862zM-82.98-4.5c-1.026 0-1.692-1.1-1.692-3.474s.666-3.474 1.692-3.474 1.692 1.1 1.692 3.474S-81.954-4.5-82.98-4.5zm6.732-10.728v3.312h-3.2a3.976 3.976 0 0 0-3.528-2.178c-2.556 0-4.446 2.34-4.446 6.12s1.89 6.12 4.446 6.12a4.134 4.134 0 0 0 3.722-2.556h3.006v6.156h2.916V-15.21zM-66.582-4.5c-1.044 0-1.728-1.1-1.728-3.474s.684-3.474 1.728-3.474c1.062 0 1.746 1.1 1.746 3.474S-65.52-4.5-66.582-4.5zm0-9.594c-2.592 0-4.536 2.34-4.536 6.12s1.944 6.12 4.536 6.12c2.61 0 4.554-2.34 4.554-6.12s-1.944-6.12-4.554-6.12zm11.106 5.076h-2.268v-6.174h-2.916V1.71h2.916v-8.352h2.268zm.54 11.952h9.792V1.152h-9.792zm19.782-5.292V-5.85h4.644v-2.286h-9.2v-5.832h-2.916v8.118h4.554v3.492h-6.174v2.322h15.282v-2.322zm10.674-4.428h3.618v-6.858h-6.444v2.286h3.636v2.3h-3.618v7.182h1.224A34.062 34.062 0 0 0-20.2-2.25l-.2-2.322a29.675 29.675 0 0 1-4.086.324zm8.622-8.406v6.228h-1.062v-5.976h-2.7V.936h2.7v-7.6h1.062v8.338h2.758v-16.866zm19.53 5.9h-6.156v-1.328h6.156zm2.88-5.274h-2.88v1.692h-6.156v-1.692h-2.88V-7H6.552zm1.728 8.95H-7v2.268h6.12V1.71h2.914v-5.058H8.28zm12.06-4.842h-9.108v5.94H23.6V-6.8h-9.488v-1.426h9.108v-5.9H11.214v2.286h9.126zM9.558-2.43v2.34H24.84v-2.34zm30.186-8.478H30.8V-14.6h-2.918v5.976h11.862zm-9.108 7.2H27.72v5.076h12.132V-.918h-9.216zm-4.518-3.438v2.286h15.3v-2.286zm28.314-7.74c-3.744 0-6.21 1.26-6.21 3.33 0 2.088 2.466 3.348 6.21 3.348s6.21-1.26 6.21-3.348c0-2.07-2.466-3.33-6.21-3.33zm0 2.2c2.088 0 3.2.342 3.2 1.134 0 .81-1.116 1.152-3.2 1.152s-3.2-.342-3.2-1.152c-.004-.796 1.112-1.138 3.2-1.138zM48.51-4.3v5.83h11.754V-4.3zm8.89 2.248V-.72h-6.03v-1.332zM46.782-7.506v2.268h15.282v-2.268zM74.7-5.346h2.916v-9.828H74.7v2.808h-2.754v2.322H74.7zM73.638-8.01a4.8 4.8 0 0 1-3.582-5.076v-1.26h-2.97v1.4a5.251 5.251 0 0 1-3.96 5.382l1.512 2.322a6.329 6.329 0 0 0 3.978-3.438 5.861 5.861 0 0 0 3.546 2.934zM71.82-.486c-2.016 0-2.97-.324-2.97-1.134 0-.792.954-1.116 2.97-1.116 2 0 2.952.324 2.952 1.116 0 .81-.954 1.134-2.952 1.134zm0-4.464c-3.618 0-5.886 1.224-5.886 3.33 0 2.12 2.266 3.348 5.886 3.348 3.6 0 5.868-1.224 5.868-3.348 0-2.106-2.268-3.33-5.868-3.33zM82.44.252a1.919 1.919 0 0 0 1.908-2 1.914 1.914 0 0 0-1.908-1.98 1.9 1.9 0 0 0-1.908 1.98 1.908 1.908 0 0 0 1.908 2zM86.886 0h3.186v-6.84a2.474 2.474 0 0 1 1.638-.918c.81 0 1.17.414 1.17 1.818V0h3.22v-6.84a2.474 2.474 0 0 1 1.638-.918c.81 0 1.17.414 1.17 1.818V0h3.2v-6.336c0-2.556-.972-4.158-3.2-4.158a4.47 4.47 0 0 0-3.2 1.692 2.809 2.809 0 0 0-2.808-1.692 4.225 4.225 0 0 0-3.114 1.548h-.072l-.216-1.3h-2.61zm17.73 3.726h3.184V.792l-.09-1.6a3.363 3.363 0 0 0 2.378 1.06c2.2 0 4.3-2.016 4.3-5.544 0-3.15-1.548-5.2-4-5.2a4.451 4.451 0 0 0-2.88 1.242h-.072l-.216-.99h-2.61zm4.716-6.1a2.238 2.238 0 0 1-1.53-.594V-7.02a2.191 2.191 0 0 1 1.638-.864c1.134 0 1.656.846 1.656 2.646.004 2.052-.796 2.862-1.764 2.862zM120.186.252c2.664 0 4.95-1.4 4.95-3.906a3.309 3.309 0 0 0-2.592-3.258V-7a3.069 3.069 0 0 0 2.16-2.952c0-2.394-1.818-3.69-4.59-3.69a6.3 6.3 0 0 0-4.158 1.656l1.62 1.962a3.563 3.563 0 0 1 2.394-1.116c.99 0 1.53.5 1.53 1.422 0 1.062-.72 1.764-3.006 1.764v2.25c2.808 0 3.42.684 3.42 1.836 0 1.008-.81 1.53-2.052 1.53a4.088 4.088 0 0 1-2.79-1.3L115.6-1.62a5.747 5.747 0 0 0 4.586 1.872z" class="cls-9" transform="translate(527.004 2951.036)"/>
        <path id="패스_4780" d="M-127.908-2.142c-.846 0-1.674-.666-1.944-2.9a2.19 2.19 0 0 1 1.89-1.206c.882 0 1.6.486 1.6 1.962.002 1.514-.7 2.144-1.546 2.144zm4.3-9.9a5.351 5.351 0 0 0-3.906-1.6c-2.772 0-5.328 2.214-5.328 7.056 0 4.878 2.484 6.84 5 6.84a4.3 4.3 0 0 0 4.41-4.536c0-2.916-1.692-4.212-3.924-4.212a3.6 3.6 0 0 0-2.556 1.314c.126-2.916 1.224-3.906 2.61-3.906a3.033 3.033 0 0 1 2 .936zm6.374 12.294c2.826 0 4.752-2.412 4.752-7.02 0-4.572-1.926-6.876-4.752-6.876s-4.734 2.268-4.734 6.876 1.908 7.02 4.734 7.02zm0-2.484c-.954 0-1.71-.864-1.71-4.536 0-3.654.756-4.41 1.71-4.41s1.728.756 1.728 4.41c0 3.668-.774 4.536-1.728 4.536zm9.4-8.73h3.348v-2.322h-6.21v11.358h1.224a32.988 32.988 0 0 0 5.868-.414l-.216-2.34a29.515 29.515 0 0 1-4.014.378zm8.568-4.23v6.372h-1.062v-6.1h-2.7V.936h2.7v-7.452h1.062v8.19h2.754v-16.866zm4.338 18.126h9.792V1.152h-9.792zm12.2-11.034c3.348-.252 5.256-1.4 6.12-2.88.864 1.476 2.772 2.628 6.12 2.88l.99-2.25c-3.006-.234-4.356-1.08-4.842-1.908h4.014v-2.268h-12.546v2.268h4c-.5.828-1.854 1.674-4.842 1.908zm9.036 6.732c0 .666-.918.918-2.952.918-2.052 0-2.97-.252-2.97-.918 0-.684.918-.918 2.97-.918 2.034 0 2.952.234 2.952.918zm4.734-4v-2.264h-15.3v2.268h6.192v.936c-2.826.27-4.5 1.35-4.5 3.06 0 1.98 2.25 3.114 5.922 3.114 3.654 0 5.9-1.134 5.9-3.114 0-1.692-1.638-2.754-4.41-3.042v-.954zm12.618 2.542h2.916v-12.366h-2.916v1.71h-3.708v2.25h3.708v.846h-3.708v2.25h3.708zm-2.178-4.806a35.6 35.6 0 0 1-5.382.468V-14.2h-2.9v9.414h1.4a39.814 39.814 0 0 0 7.128-.5zm-3.348 6.8v-3.11h-2.916v5.4h11.718V-.828zm24.246-8.474a38.472 38.472 0 0 1-5.886.612v-5.724h-2.9v8.1h1.458A39.028 39.028 0 0 0-37.3-7zm-4.32 6.552h5.49V-.72h-5.49zM-44.8 1.53h11.2V-5h-11.2zm13.3-13.338h-2.106v-3.384h-2.916v9.5h2.916V-9.45h2.106zm12.4 6.462h2.916v-9.828H-19.1v2.808h-2.754v2.322h2.754zm-1.06-2.664a4.8 4.8 0 0 1-3.582-5.076v-1.26h-2.97v1.4a5.251 5.251 0 0 1-3.96 5.382l1.512 2.322a6.329 6.329 0 0 0 3.978-3.438 5.861 5.861 0 0 0 3.546 2.934zm-1.818 7.524c-2.016 0-2.97-.324-2.97-1.134 0-.792.954-1.116 2.97-1.116 2 0 2.952.324 2.952 1.116 0 .81-.954 1.134-2.952 1.134zm0-4.464c-3.618 0-5.886 1.224-5.886 3.33 0 2.124 2.268 3.348 5.886 3.348 3.6 0 5.868-1.224 5.868-3.348 0-2.106-2.268-3.33-5.868-3.33zm7.7 7.884h9.792V1.152h-9.792zm13.396-4.86h8.856V1.71h2.916v-5.922H-.882zm9.018-13.248v4.068h-.774v-3.816h-2.7v7.344a3.658 3.658 0 0 1-2.754-3.636h2.286v-2.25H1.908v-1.584H-.846v1.584h-2.286v2.25h2.286A3.906 3.906 0 0 1-3.69-7.29l1.314 2.124A4.979 4.979 0 0 0 .576-7.7a4.89 4.89 0 0 0 2.9 2.268l1.188-2V-4.9h2.7v-3.9h.774v3.978h2.752v-10.35zM20.07-10.62a1.573 1.573 0 0 1 1.782-1.6 1.573 1.573 0 0 1 1.782 1.6A1.577 1.577 0 0 1 21.852-9a1.577 1.577 0 0 1-1.782-1.62zm6.372 0c0-2.286-1.98-3.942-4.59-3.942s-4.59 1.656-4.59 3.942c0 2.3 1.98 3.942 4.59 3.942s4.59-1.638 4.59-3.942zm-4.716 9.378h3.132V-5.9H18.9v2.088h3.15v.612h-3.132v4.748h1.188a27.93 27.93 0 0 0 5.868-.36L25.722-.9a24 24 0 0 1-4 .324zm3.708-2.394h2.916v5.364h2.88V-5.9h-5.8zm2.88-11.538v8.586h2.916v-8.586zm18.972 4.266H38.34V-14.6h-2.916v5.976h11.862zm-9.108 7.2h-2.916v5.076h12.132V-.918h-9.216zM33.66-7.146v2.286h15.3v-2.286zm28.314-7.74c-3.744 0-6.21 1.26-6.21 3.33 0 2.088 2.466 3.348 6.21 3.348s6.21-1.26 6.21-3.348c0-2.07-2.466-3.33-6.21-3.33zm0 2.2c2.088 0 3.2.342 3.2 1.134 0 .81-1.116 1.152-3.2 1.152s-3.2-.342-3.2-1.152c-.004-.796 1.112-1.138 3.2-1.138zM56.052-4.3v5.83h11.754V-4.3zm8.892 2.25v1.33h-6.03v-1.332zm-10.62-5.456v2.268h15.282v-2.268zm27.918 2.16h2.916v-9.828h-2.916v2.808h-2.754v2.322h2.754zM81.18-8.01a4.8 4.8 0 0 1-3.58-5.076v-1.26h-2.97v1.4a5.251 5.251 0 0 1-3.96 5.382l1.51 2.326a6.329 6.329 0 0 0 3.978-3.438A5.861 5.861 0 0 0 79.7-5.742zM79.362-.486c-2.016 0-2.97-.324-2.97-1.134 0-.792.954-1.116 2.97-1.116 2 0 2.952.324 2.952 1.116 0 .81-.954 1.134-2.952 1.134zm0-4.464c-3.618 0-5.886 1.224-5.886 3.33 0 2.124 2.268 3.348 5.886 3.348 3.6 0 5.868-1.224 5.868-3.348 0-2.106-2.268-3.33-5.868-3.33zm10.62 5.2a1.919 1.919 0 0 0 1.908-2 1.914 1.914 0 0 0-1.908-1.98 1.9 1.9 0 0 0-1.908 1.98A1.908 1.908 0 0 0 89.982.252zM94.428 0h3.186v-6.84a2.474 2.474 0 0 1 1.638-.918c.81 0 1.17.414 1.17 1.818V0h3.222v-6.84a2.474 2.474 0 0 1 1.638-.918c.81 0 1.17.414 1.17 1.818V0h3.2v-6.336c0-2.556-.972-4.158-3.2-4.158a4.47 4.47 0 0 0-3.2 1.692 2.809 2.809 0 0 0-2.808-1.692 4.225 4.225 0 0 0-3.114 1.548h-.072l-.216-1.3h-2.61zm17.73 3.726h3.186V.792l-.09-1.6a3.363 3.363 0 0 0 2.376 1.06c2.2 0 4.3-2.016 4.3-5.544 0-3.15-1.548-5.2-4-5.2a4.451 4.451 0 0 0-2.88 1.242h-.072l-.216-.99h-2.61zm4.716-6.1a2.238 2.238 0 0 1-1.53-.594V-7.02a2.191 2.191 0 0 1 1.638-.864c1.134 0 1.656.846 1.656 2.646 0 2.052-.792 2.862-1.764 2.862zM127.728.252c2.664 0 4.95-1.4 4.95-3.906a3.309 3.309 0 0 0-2.592-3.258V-7a3.069 3.069 0 0 0 2.16-2.952c0-2.394-1.818-3.69-4.59-3.69a6.3 6.3 0 0 0-4.158 1.656l1.62 1.962a3.563 3.563 0 0 1 2.394-1.116c.99 0 1.53.5 1.53 1.422 0 1.062-.72 1.764-3.006 1.764v2.25c2.808 0 3.42.684 3.42 1.836 0 1.008-.81 1.53-2.052 1.53a4.088 4.088 0 0 1-2.79-1.3l-1.476 2.018a5.747 5.747 0 0 0 4.59 1.872z" class="cls-9" transform="translate(534.168 3086)"/>
        <path id="패스_4781" d="M-120.51 0h9.288v-2.7h-2.466a19.008 19.008 0 0 0-2.178.18c2.052-2.07 4.032-4.608 4.032-6.912a4.074 4.074 0 0 0-4.392-4.212 5.6 5.6 0 0 0-4.446 2.07l1.746 1.728a3.223 3.223 0 0 1 2.268-1.3 1.67 1.67 0 0 1 1.746 1.89c0 1.944-2.25 4.374-5.6 7.416zm15.678.252c2.826 0 4.752-2.412 4.752-7.02 0-4.572-1.926-6.876-4.752-6.876s-4.734 2.268-4.734 6.876 1.908 7.02 4.734 7.02zm0-2.484c-.954 0-1.71-.864-1.71-4.536 0-3.654.756-4.41 1.71-4.41s1.728.756 1.728 4.41c.004 3.668-.774 4.536-1.728 4.536zm9.4-8.73h3.348v-2.322H-98.3v11.358h1.224a32.988 32.988 0 0 0 5.868-.414l-.216-2.34a29.515 29.515 0 0 1-4.014.378zm8.568-4.23v6.372h-1.066v-6.1h-2.7V.936h2.7v-7.452h1.062v8.19h2.754v-16.866zm4.334 18.126h9.792V1.152h-9.792zm19.746-9.666a9.493 9.493 0 0 0 .072-1.26 9.036 9.036 0 0 0-.126-1.6h2.412v2.862zM-67.158-4.5c-1.026 0-1.692-1.1-1.692-3.474s.666-3.474 1.692-3.474 1.692 1.1 1.692 3.474-.666 3.474-1.692 3.474zm6.732-10.728v3.312h-3.2a3.976 3.976 0 0 0-3.528-2.178c-2.556 0-4.446 2.34-4.446 6.12s1.89 6.12 4.446 6.12a4.134 4.134 0 0 0 3.722-2.556h3.006v6.156h2.916V-15.21zm16.488 9.882h2.916v-9.828h-2.916v2.808h-2.754v2.322h2.754zM-45-8.01a4.8 4.8 0 0 1-3.582-5.076v-1.26h-2.97v1.4a5.251 5.251 0 0 1-3.96 5.382L-54-5.238a6.329 6.329 0 0 0 3.978-3.438 5.861 5.861 0 0 0 3.546 2.934zm-1.818 7.524c-2.016 0-2.97-.324-2.97-1.134 0-.792.954-1.116 2.97-1.116 2 0 2.952.324 2.952 1.116 0 .81-.954 1.134-2.952 1.134zm0-4.464c-3.618 0-5.886 1.224-5.886 3.33 0 2.124 2.268 3.348 5.886 3.348 3.6 0 5.868-1.224 5.868-3.348 0-2.106-2.268-3.33-5.868-3.33zm7.7 7.884h9.792V1.152h-9.792zm13.95-13.9h3.348v-2.322h-6.21v11.362h1.23a32.988 32.988 0 0 0 5.868-.414l-.216-2.34a29.515 29.515 0 0 1-4.014.378zm8.568-4.23v6.376h-1.062v-6.1h-2.7V.936h2.7v-7.452h1.062v8.19h2.754v-16.866zm14.724 1.764h-3.452v-1.638h-2.916v1.638h-3.474v2.25h9.846zm-4.9 4.914c.882 0 1.458.324 1.458 1.026 0 .72-.576 1.044-1.458 1.044s-1.458-.324-1.458-1.044c.008-.698.584-1.022 1.466-1.022zm1.44 4.05a3.216 3.216 0 0 0 2.78-3.02c0-1.89-1.764-3.2-4.212-3.2s-4.212 1.314-4.212 3.2a3.181 3.181 0 0 0 2.736 3.024v1.224c-1.368.036-2.682.036-3.816.036l.342 2.322a51.933 51.933 0 0 0 10.044-.7l-.216-2.09c-1.116.162-2.268.252-3.438.324zM3.636-8.5H1.782v-6.678h-2.916v16.87h2.916V-6.12h1.854zM9.5-3.924a1.552 1.552 0 0 1-1.6-1.764 1.552 1.552 0 0 1 1.6-1.764 1.544 1.544 0 0 1 1.6 1.764 1.544 1.544 0 0 1-1.6 1.764zm0-5.868a4.115 4.115 0 0 0-4.374 4.1A4.115 4.115 0 0 0 9.5-1.584a4.115 4.115 0 0 0 4.374-4.1A4.115 4.115 0 0 0 9.5-9.792zm1.458-5.076H8.046v2.07H4.608v2.286h9.774V-12.8h-3.42zm9.36 6.1H18.09v-6.408h-2.916V1.692h2.916V-6.39h2.232zM34.88-10.91h-8.942v-3.69h-2.916v5.976h11.862zm-9.108 7.2H22.86v5.078h12.132V-.918h-9.216zm-4.514-3.436v2.286h15.3v-2.286zm28.314-7.74c-3.744 0-6.21 1.26-6.21 3.33 0 2.088 2.466 3.348 6.21 3.348s6.21-1.26 6.21-3.348c0-2.07-2.466-3.33-6.21-3.33zm0 2.2c2.088 0 3.2.342 3.2 1.134 0 .81-1.116 1.152-3.2 1.152s-3.2-.342-3.2-1.152c-.004-.796 1.112-1.138 3.2-1.138zM43.65-4.3v5.83H55.4V-4.3zm8.892 2.25v1.33h-6.03v-1.332zm-10.62-5.456v2.268H57.2v-2.268zm27.918 2.16h2.916v-9.828H69.84v2.808h-2.754v2.322h2.754zM68.778-8.01a4.8 4.8 0 0 1-3.578-5.076v-1.26h-2.97v1.4a5.251 5.251 0 0 1-3.96 5.382l1.512 2.322A6.329 6.329 0 0 0 63.76-8.68a5.861 5.861 0 0 0 3.54 2.938zM66.96-.486c-2.016 0-2.97-.324-2.97-1.134 0-.792.954-1.116 2.97-1.116 2 0 2.952.324 2.952 1.116 0 .81-.954 1.134-2.952 1.134zm0-4.464c-3.618 0-5.886 1.224-5.886 3.33 0 2.124 2.268 3.348 5.886 3.348 3.6 0 5.868-1.224 5.868-3.348 0-2.106-2.268-3.33-5.868-3.33zM77.58.252a1.919 1.919 0 0 0 1.908-2 1.914 1.914 0 0 0-1.908-1.98 1.9 1.9 0 0 0-1.908 1.98 1.908 1.908 0 0 0 1.908 2zM82.026 0h3.186v-6.84a2.474 2.474 0 0 1 1.638-.918c.81 0 1.17.414 1.17 1.818V0h3.222v-6.84a2.474 2.474 0 0 1 1.638-.918c.81 0 1.17.414 1.17 1.818V0h3.2v-6.336c0-2.556-.972-4.158-3.2-4.158a4.47 4.47 0 0 0-3.2 1.692 2.809 2.809 0 0 0-2.808-1.692 4.225 4.225 0 0 0-3.114 1.548h-.072l-.216-1.3h-2.61zm17.73 3.726h3.186V.792l-.09-1.6a3.363 3.363 0 0 0 2.376 1.06c2.2 0 4.3-2.016 4.3-5.544 0-3.15-1.548-5.2-4-5.2a4.451 4.451 0 0 0-2.88 1.242h-.072l-.216-.99h-2.61zm4.716-6.1a2.238 2.238 0 0 1-1.53-.594V-7.02a2.191 2.191 0 0 1 1.638-.864c1.134 0 1.656.846 1.656 2.646 0 2.052-.792 2.862-1.764 2.862zM115.326.252c2.664 0 4.95-1.4 4.95-3.906a3.309 3.309 0 0 0-2.592-3.258V-7a3.069 3.069 0 0 0 2.16-2.952c0-2.394-1.818-3.69-4.59-3.69a6.3 6.3 0 0 0-4.158 1.656l1.62 1.962a3.563 3.563 0 0 1 2.394-1.116c.99 0 1.53.5 1.53 1.422 0 1.062-.72 1.764-3.006 1.764v2.25c2.808 0 3.42.684 3.42 1.836 0 1.008-.81 1.53-2.052 1.53a4.088 4.088 0 0 1-2.79-1.3l-1.476 2.018a5.747 5.747 0 0 0 4.59 1.872z" class="cls-9" transform="translate(522 3221)"/>
    </g>
</svg>
