<svg xmlns="http://www.w3.org/2000/svg" width="848" height="496" viewBox="0 0 848 496">
    <defs>
        <style>
            .cls-2{fill:#f4fdff;stroke:#1054b2}.cls-10,.cls-5{fill:#3027ff}.cls-5,.cls-6{opacity:.189}.cls-6{fill:#fc2cff}.cls-7{fill:#03020f;font-size:18px;font-family:NotoSansCJKkr-Black,Noto Sans CJK KR;font-weight:800;letter-spacing:-.01em}.cls-8{fill:#7782b4}.cls-9{fill:#ff1fff}.cls-11{stroke:none}.cls-12{fill:none}
        </style>
    </defs>
    <g id="img_speech_separation" transform="translate(-355 -1498)">
        <g id="img_boundingbox" fill="#fff" stroke="#c1d5e8" transform="translate(355 1498)">
            <rect width="848" height="496" class="cls-11" rx="10"/>
            <rect width="847" height="495" x=".5" y=".5" class="cls-12" rx="9.5"/>
        </g>
        <g id="사각형_2659" class="cls-2" transform="translate(405 1623)">
            <rect width="748" height="74" class="cls-11" rx="10"/>
            <rect width="747" height="73" x=".5" y=".5" class="cls-12" rx="9.5"/>
        </g>
        <circle id="타원_359" cx="25" cy="25" r="25" fill="#1b64c9" transform="translate(425 1635)"/>
        <path id="다각형_26" fill="#fff" d="M11.372 4.77a3 3 0 0 1 5.255 0l8.922 16.2a3 3 0 0 1-2.628 4.448H5.078a3 3 0 0 1-2.628-4.452z" transform="rotate(90 -590.359 1055.641)"/>
        <path id="사각형_2666" d="M0 0H128V50H0z" class="cls-5" transform="translate(519 1636)"/>
        <path id="사각형_2667" d="M0 0H72V50H0z" class="cls-5" transform="translate(737 1636)"/>
        <path id="사각형_2669" d="M0 0H90V50H0z" class="cls-6" transform="translate(647 1636)"/>
        <path id="사각형_2670" d="M0 0H81V50H0z" class="cls-6" transform="translate(809 1636)"/>
        <path id="사각형_2671" d="M0 0H123V50H0z" class="cls-6" transform="translate(978 1636)"/>
        <path id="사각형_2668" d="M0 0H88V50H0z" class="cls-5" transform="translate(890 1636)"/>
        <text id="주간회의_녹음파일_월요일._mp3" class="cls-7" transform="translate(527 1603)">
            <tspan x="-122.247" y="0">주간회의 녹음파일_월요일. </tspan><tspan y="0">mp3</tspan>
        </text>
        <g id="사각형_2660" class="cls-2" transform="translate(405 1780)">
            <rect width="338" height="48" class="cls-11" rx="10"/>
            <rect width="337" height="47" x=".5" y=".5" class="cls-12" rx="9.5"/>
        </g>
        <text id="대표님" class="cls-7" transform="translate(982 1760)">
            <tspan x="-24.66" y="0">대표님</tspan>
        </text>
        <text id="부장님" class="cls-7" transform="translate(568 1760)">
            <tspan x="-24.66" y="0">부장님</tspan>
        </text>
        <g id="사각형_2661" class="cls-2" transform="translate(815 1780)">
            <rect width="338" height="48" class="cls-11" rx="10"/>
            <rect width="337" height="47" x=".5" y=".5" class="cls-12" rx="9.5"/>
        </g>
        <g id="그룹_3158" transform="translate(808.511 1635.511)">
            <path id="패스_4503" d="M322.29 334.987c-.638 0-1.158-.162-1.158-.361v-48.312c0-.2.52-.359 1.158-.359s1.155.16 1.155.359v48.313c0 .199-.516.36-1.155.36z" class="cls-8" transform="translate(-321.132 -285.955)"/>
        </g>
        <g id="그룹_3159" transform="translate(817.452 1641.987)">
            <path id="패스_4504" d="M332.7 342.779c-.639 0-1.155-.159-1.155-.355v-38.038c0-.2.516-.353 1.155-.353s1.157.158 1.157.353v38.038c0 .196-.519.355-1.157.355z" class="cls-8" transform="translate(-331.545 -304.033)"/>
        </g>
        <g id="그룹_3160" transform="translate(826.389 1642.396)">
            <path id="패스_4505" d="M343.107 363.8c-.638 0-1.154-.22-1.154-.492v-36.946c0-.272.516-.493 1.154-.493s1.158.222 1.158.493V363.3c0 .276-.516.5-1.158.5z" class="cls-8" transform="translate(-341.953 -325.868)"/>
        </g>
        <g id="그룹_3161" transform="translate(835.326 1647.324)">
            <path id="패스_4506" d="M353.519 369.467c-.638 0-1.158-.234-1.158-.521v-27.03c0-.287.52-.519 1.158-.519s1.154.232 1.154.519v27.03c0 .287-.516.521-1.154.521z" class="cls-8" transform="translate(-352.361 -341.396)"/>
        </g>
        <g id="그룹_3162" transform="translate(844.264 1651.11)">
            <path id="패스_4507" d="M363.927 371.689c-.639 0-1.158-.232-1.158-.522V351.71c0-.287.519-.521 1.158-.521s1.158.234 1.158.521v19.457c.001.289-.52.522-1.158.522z" class="cls-8" transform="translate(-362.769 -351.189)"/>
        </g>
        <g id="그룹_3163" transform="translate(853.204 1653.573)">
            <path id="패스_4508" d="M374.335 373.137c-.638 0-1.154-.234-1.154-.521v-14.533c0-.287.516-.519 1.154-.519s1.159.232 1.159.519v14.533c0 .284-.52.521-1.159.521z" class="cls-8" transform="translate(-373.181 -357.564)"/>
        </g>
        <g id="그룹_3164" transform="translate(862.142 1647.465)">
            <path id="패스_4509" d="M384.748 369.55c-.643 0-1.159-.234-1.159-.521V342.28c0-.287.516-.519 1.159-.519s1.154.232 1.154.519v26.749c-.002.287-.516.521-1.154.521z" class="cls-8" transform="translate(-383.589 -341.76)"/>
        </g>
        <g id="그룹_3165" transform="translate(871.078 1651.077)">
            <path id="패스_4510" d="M395.155 371.671c-.638 0-1.158-.234-1.158-.521v-19.525c0-.287.52-.519 1.158-.519s1.158.232 1.158.519v19.525c.001.287-.519.521-1.158.521z" class="cls-8" transform="translate(-393.997 -351.105)"/>
        </g>
        <g id="그룹_3166" transform="translate(880.02 1642.938)">
            <path id="패스_4511" d="M405.564 364.116c-.638 0-1.154-.221-1.154-.493v-35.861c0-.271.516-.491 1.154-.491s1.158.22 1.158.491v35.861c0 .272-.522.493-1.158.493z" class="cls-8" transform="translate(-404.41 -327.271)"/>
        </g>
        <g id="그룹_3167" transform="translate(888.957 1648.388)">
            <path id="패스_4512" d="M415.972 370.092c-.638 0-1.154-.234-1.154-.521v-24.9c0-.288.516-.52 1.154-.52s1.158.232 1.158.52v24.9c0 .287-.516.521-1.158.521z" class="cls-8" transform="translate(-414.818 -344.148)"/>
        </g>
        <g id="그룹_3181" transform="translate(897.895 1650.585)">
            <path id="패스_4526" d="M426.384 371.38c-.639 0-1.158-.232-1.158-.519v-20.512c0-.287.519-.52 1.158-.52s1.154.232 1.154.52v20.511c0 .288-.516.52-1.154.52z" class="cls-8" transform="translate(-425.226 -349.83)"/>
        </g>
        <g id="그룹_3182" transform="translate(906.83 1644.112)">
            <path id="패스_4527" d="M436.792 346.8c-.639 0-1.159-.16-1.159-.355v-33.786c0-.2.52-.354 1.159-.354s1.158.158 1.158.354v33.787c.001.196-.52.354-1.158.354z" class="cls-8" transform="translate(-435.633 -312.305)"/>
        </g>
        <g id="그룹_3183" transform="translate(915.772 1647.465)">
            <path id="패스_4528" d="M447.2 369.55c-.639 0-1.154-.234-1.154-.521V342.28c0-.287.515-.519 1.154-.519s1.157.232 1.157.519v26.749c.002.287-.518.521-1.157.521z" class="cls-8" transform="translate(-446.047 -341.76)"/>
        </g>
        <g id="그룹_3184" transform="translate(924.709 1644.318)">
            <path id="패스_4529" d="M457.612 367.7c-.638 0-1.158-.234-1.158-.522v-33.04c0-.289.52-.521 1.158-.521s1.154.232 1.154.521v33.042c0 .287-.515.52-1.154.52z" class="cls-8" transform="translate(-456.454 -333.617)"/>
        </g>
        <g id="그룹_3185" transform="translate(933.646 1650.156)">
            <path id="패스_4530" d="M468.02 371.128c-.638 0-1.158-.232-1.158-.519v-21.366c0-.287.52-.521 1.158-.521s1.158.234 1.158.521v21.365c.001.292-.52.52-1.158.52z" class="cls-8" transform="translate(-466.862 -348.722)"/>
        </g>
        <g id="그룹_3186" transform="translate(942.588 1654.584)">
            <path id="패스_4531" d="M478.429 373.729c-.639 0-1.154-.232-1.154-.519V360.7c0-.287.515-.521 1.154-.521s1.158.234 1.158.521v12.51c0 .29-.519.519-1.158.519z" class="cls-8" transform="translate(-477.275 -360.179)"/>
        </g>
        <g id="그룹_3187" transform="translate(951.525 1655.772)">
            <path id="패스_4532" d="M488.841 374.426c-.643 0-1.158-.232-1.158-.519v-10.135c0-.287.515-.521 1.158-.521s1.154.234 1.154.521v10.134c.005.288-.516.52-1.154.52z" class="cls-8" transform="translate(-487.683 -363.251)"/>
        </g>
        <g id="그룹_3188" transform="translate(960.462 1646.257)">
            <path id="패스_4533" d="M499.249 368.838c-.639 0-1.158-.232-1.158-.521v-29.162c0-.287.52-.521 1.158-.521s1.154.234 1.154.521v29.162c-.003.289-.516.521-1.154.521z" class="cls-8" transform="translate(-498.091 -338.634)"/>
        </g>
        <g id="그룹_3189" transform="translate(969.402 1650.461)">
            <path id="패스_4534" d="M509.657 371.307c-.638 0-1.154-.232-1.154-.519v-20.757c0-.287.516-.521 1.154-.521s1.158.234 1.158.521v20.756c0 .288-.515.52-1.158.52z" class="cls-8" transform="translate(-508.503 -349.51)"/>
        </g>
        <g id="그룹_3168" transform="translate(1049.845 1647.867)">
            <path id="패스_4513" d="M603.342 369.784c-.638 0-1.158-.232-1.158-.52V343.32c0-.287.52-.521 1.158-.521s1.154.234 1.154.521v25.944c.004.288-.516.52-1.154.52z" class="cls-8" transform="translate(-602.184 -342.799)"/>
        </g>
        <g id="그룹_3169" transform="translate(1058.782 1653.342)">
            <path id="패스_4514" d="M613.75 373c-.639 0-1.158-.234-1.158-.521v-15c0-.288.52-.519 1.158-.519s1.158.232 1.158.519v15c.001.288-.52.521-1.158.521z" class="cls-8" transform="translate(-612.592 -356.964)"/>
        </g>
        <g id="그룹_3170" transform="translate(1067.724 1656.225)">
            <path id="패스_4515" d="M624.159 374.693c-.639 0-1.154-.232-1.154-.519v-9.229c0-.287.515-.521 1.154-.521s1.157.234 1.157.521v9.229c.001.286-.516.519-1.157.519z" class="cls-8" transform="translate(-623.005 -364.423)"/>
        </g>
        <g id="그룹_3171" transform="translate(1076.66 1659.564)">
            <path id="패스_4516" d="M634.57 376.654c-.638 0-1.158-.232-1.158-.519v-2.55c0-.288.52-.521 1.158-.521s1.155.234 1.155.521v2.55c0 .287-.516.519-1.155.519z" class="cls-8" transform="translate(-633.412 -373.063)"/>
        </g>
        <g id="그룹_3172" transform="translate(1085.598 1658.468)">
            <path id="패스_4517" d="M644.978 376.012c-.638 0-1.158-.234-1.158-.521v-4.744c0-.287.52-.519 1.158-.519s1.158.232 1.158.519v4.744c.001.287-.519.521-1.158.521z" class="cls-8" transform="translate(-643.82 -370.227)"/>
        </g>
        <g id="그룹_3173" transform="translate(1094.568 1659.537)">
            <path id="패스_4518" d="M655.425 376.64c-.638 0-1.158-.232-1.158-.521v-2.605c0-.287.52-.519 1.158-.519s1.155.232 1.155.519v2.605c0 .289-.516.521-1.155.521z" class="cls-8" transform="translate(-654.267 -372.994)"/>
        </g>
        <g id="그룹_3174" transform="translate(987.277 1656.384)">
            <path id="패스_4519" d="M530.477 374.786c-.638 0-1.158-.232-1.158-.519v-8.909c0-.287.52-.521 1.158-.521s1.154.234 1.154.521v8.909c0 .287-.515.519-1.154.519z" class="cls-8" transform="translate(-529.319 -364.836)"/>
        </g>
        <g id="그룹_3175" transform="translate(996.214 1651.304)">
            <path id="패스_4520" d="M540.885 371.8c-.639 0-1.158-.234-1.158-.521V352.21c0-.288.52-.519 1.158-.519s1.158.232 1.158.519v19.072c.001.288-.52.518-1.158.518z" class="cls-8" transform="translate(-539.727 -351.691)"/>
        </g>
        <g id="그룹_3176" transform="translate(1005.156 1655.747)">
            <path id="패스_4521" d="M551.294 374.414c-.638 0-1.154-.234-1.154-.521v-10.186c0-.288.516-.519 1.154-.519s1.158.232 1.158.519v10.186c0 .287-.52.521-1.158.521z" class="cls-8" transform="translate(-550.14 -363.187)"/>
        </g>
        <g id="그룹_3177" transform="translate(1014.093 1642.938)">
            <path id="패스_4522" d="M561.706 364.116c-.643 0-1.158-.221-1.158-.493v-35.861c0-.271.515-.491 1.158-.491s1.154.22 1.154.491v35.861c0 .272-.516.493-1.154.493z" class="cls-8" transform="translate(-560.548 -327.271)"/>
        </g>
        <g id="그룹_3178" transform="translate(1023.029 1646.415)">
            <path id="패스_4523" d="M572.113 368.933c-.638 0-1.158-.234-1.158-.521v-28.85c0-.288.52-.519 1.158-.519s1.154.232 1.154.519v28.849c0 .289-.515.522-1.154.522z" class="cls-8" transform="translate(-570.955 -339.043)"/>
        </g>
        <g id="그룹_3179" transform="translate(1031.971 1654.255)">
            <path id="패스_4524" d="M582.522 373.536c-.638 0-1.154-.234-1.154-.521v-13.167c0-.288.516-.521 1.154-.521s1.158.234 1.158.521v13.166c0 .286-.519.522-1.158.522z" class="cls-8" transform="translate(-581.368 -359.327)"/>
        </g>
        <g id="그룹_3180" transform="translate(1040.908 1656.384)">
            <path id="패스_4525" d="M592.93 374.786c-.638 0-1.154-.232-1.154-.519v-8.909c0-.287.516-.521 1.154-.521s1.158.234 1.158.521v8.909c.001.287-.515.519-1.158.519z" class="cls-8" transform="translate(-591.776 -364.836)"/>
        </g>
        <g id="그룹_3190" transform="translate(978.34 1652.74)">
            <path id="패스_4535" d="M520.065 372.648c-.638 0-1.154-.234-1.154-.521v-16.2c0-.289.516-.521 1.154-.521s1.158.232 1.158.521v16.2c0 .287-.516.521-1.158.521z" class="cls-8" transform="translate(-518.911 -355.408)"/>
        </g>
        <g id="그룹_3191" transform="translate(799.574 1641.987)">
            <path id="패스_4536" d="M311.883 342.779c-.642 0-1.157-.159-1.157-.355v-38.038c0-.2.515-.353 1.157-.353s1.155.158 1.155.353v38.038c-.001.196-.517.355-1.155.355z" class="cls-8" transform="translate(-310.725 -304.033)"/>
        </g>
        <g id="그룹_3192" transform="translate(790.637 1642.396)">
            <path id="패스_4537" d="M301.471 363.8c-.638 0-1.154-.22-1.154-.492v-36.946c0-.272.516-.493 1.154-.493s1.158.222 1.158.493V363.3c0 .276-.52.5-1.158.5z" class="cls-8" transform="translate(-300.317 -325.868)"/>
        </g>
        <g id="그룹_3193" transform="translate(781.695 1647.324)">
            <path id="패스_4538" d="M291.062 369.467c-.638 0-1.158-.234-1.158-.521v-27.03c0-.287.52-.519 1.158-.519s1.158.232 1.158.519v27.03c.001.287-.52.521-1.158.521z" class="cls-8" transform="translate(-289.904 -341.396)"/>
        </g>
        <g id="그룹_3194" transform="translate(772.759 1651.11)">
            <path id="패스_4539" d="M280.654 371.689c-.638 0-1.158-.232-1.158-.522V351.71c0-.287.52-.521 1.158-.521s1.154.234 1.154.521v19.457c0 .289-.515.522-1.154.522z" class="cls-8" transform="translate(-279.496 -351.189)"/>
        </g>
        <g id="그룹_3195" transform="translate(763.821 1653.573)">
            <path id="패스_4540" d="M270.242 373.137c-.638 0-1.154-.234-1.154-.521v-14.533c0-.287.516-.519 1.154-.519s1.159.232 1.159.519v14.533c-.001.284-.516.521-1.159.521z" class="cls-8" transform="translate(-269.088 -357.564)"/>
        </g>
        <g id="그룹_3196" transform="translate(754.881 1647.465)">
            <path id="패스_4541" d="M259.833 369.55c-.638 0-1.158-.234-1.158-.521V342.28c0-.287.519-.519 1.158-.519s1.158.232 1.158.519v26.749c.001.287-.519.521-1.158.521z" class="cls-8" transform="translate(-258.676 -341.76)"/>
        </g>
        <g id="그룹_3197" transform="translate(745.943 1651.077)">
            <path id="패스_4542" d="M249.426 371.671c-.639 0-1.158-.234-1.158-.521v-19.525c0-.287.52-.519 1.158-.519s1.154.232 1.154.519v19.525c0 .287-.516.521-1.154.521z" class="cls-8" transform="translate(-248.268 -351.105)"/>
        </g>
        <g id="그룹_3198" transform="translate(737.006 1642.938)">
            <path id="패스_4543" d="M239.018 364.116c-.642 0-1.158-.221-1.158-.493v-35.861c0-.271.516-.491 1.158-.491s1.154.22 1.154.491v35.861c0 .272-.516.493-1.154.493z" class="cls-8" transform="translate(-237.86 -327.271)"/>
        </g>
        <path id="패스_4544" d="M228.606 370.092c-.639 0-1.154-.234-1.154-.521v-24.9c0-.288.515-.52 1.154-.52s1.158.232 1.158.52v24.9c0 .287-.519.521-1.158.521z" class="cls-8" transform="translate(500.617 1304.24)"/>
        <path id="패스_4558" d="M218.2 371.38c-.638 0-1.158-.232-1.158-.519v-20.512c0-.287.52-.52 1.158-.52s1.158.232 1.158.52v20.511c-.002.288-.522.52-1.158.52z" class="cls-8" transform="translate(502.089 1300.755)"/>
        <path id="패스_4559" d="M207.789 346.8c-.638 0-1.158-.16-1.158-.355v-33.786c0-.2.52-.354 1.158-.354s1.154.158 1.154.354v33.787c0 .196-.516.354-1.154.354z" class="cls-8" transform="translate(503.56 1331.807)"/>
        <path id="패스_4560" d="M197.378 369.55c-.639 0-1.154-.234-1.154-.521V342.28c0-.287.515-.519 1.154-.519s1.158.232 1.158.519v26.749c0 .287-.52.521-1.158.521z" class="cls-8" transform="translate(505.03 1305.705)"/>
        <path id="패스_4561" d="M186.969 367.7c-.639 0-1.158-.234-1.158-.522v-33.04c0-.289.52-.521 1.158-.521s1.158.232 1.158.521v33.042c.001.287-.52.52-1.158.52z" class="cls-8" transform="translate(506.502 1310.701)"/>
        <path id="패스_4562" d="M176.561 371.128c-.639 0-1.158-.232-1.158-.519v-21.366c0-.287.519-.521 1.158-.521s1.154.234 1.154.521v21.365c0 .292-.515.52-1.154.52z" class="cls-8" transform="translate(507.972 1301.434)"/>
        <path id="패스_4563" d="M166.149 373.729c-.638 0-1.154-.232-1.154-.519V360.7c0-.287.516-.521 1.154-.521s1.158.234 1.158.521v12.51c0 .29-.515.519-1.158.519z" class="cls-8" transform="translate(509.443 1294.406)"/>
        <path id="패스_4564" d="M155.741 374.426c-.638 0-1.154-.232-1.154-.519v-10.135c0-.287.516-.521 1.154-.521s1.158.234 1.158.521v10.134c.001.288-.52.52-1.158.52z" class="cls-8" transform="translate(510.914 1292.521)"/>
        <path id="패스_4565" d="M145.332 368.838c-.638 0-1.158-.232-1.158-.521v-29.162c0-.287.52-.521 1.158-.521s1.154.234 1.154.521v29.162c0 .289-.515.521-1.154.521z" class="cls-8" transform="translate(512.386 1307.623)"/>
        <path id="패스_4566" d="M134.925 371.307c-.643 0-1.158-.232-1.158-.519v-20.757c0-.287.515-.521 1.158-.521s1.154.234 1.154.521v20.756c0 .288-.516.52-1.154.52z" class="cls-8" transform="translate(513.856 1300.951)"/>
        <g id="그룹_3200" transform="translate(567.177 1647.867)">
            <path id="패스_4545" d="M41.239 369.784c-.638 0-1.158-.232-1.158-.52V343.32c0-.287.52-.521 1.158-.521s1.158.234 1.158.521v25.944c.003.288-.52.52-1.158.52z" class="cls-8" transform="translate(-40.081 -342.799)"/>
        </g>
        <g id="그룹_3201" transform="translate(558.239 1653.342)">
            <path id="패스_4546" d="M30.831 373c-.638 0-1.158-.234-1.158-.521v-15c0-.288.52-.519 1.158-.519s1.154.232 1.154.519v15c0 .288-.515.521-1.154.521z" class="cls-8" transform="translate(-29.673 -356.964)"/>
        </g>
        <g id="그룹_3202" transform="translate(549.303 1656.225)">
            <path id="패스_4547" d="M20.42 374.693c-.639 0-1.155-.232-1.155-.519v-9.229c0-.287.516-.521 1.155-.521s1.158.234 1.158.521v9.229c0 .286-.52.519-1.158.519z" class="cls-8" transform="translate(-19.265 -364.423)"/>
        </g>
        <g id="그룹_3203" transform="translate(540.361 1659.564)">
            <path id="패스_4548" d="M10.01 376.654c-.638 0-1.158-.232-1.158-.519v-2.55c0-.288.52-.521 1.158-.521s1.159.234 1.159.521v2.55c.001.287-.52.519-1.159.519z" class="cls-8" transform="translate(-8.852 -373.063)"/>
        </g>
        <g id="그룹_3204" transform="translate(531.425 1658.468)">
            <path id="패스_4549" d="M-.4 376.012c-.639 0-1.158-.234-1.158-.521v-4.744c0-.287.52-.519 1.158-.519s1.154.232 1.154.519v4.744c.003.287-.513.521-1.154.521z" class="cls-8" transform="translate(1.555 -370.227)"/>
        </g>
        <g id="그룹_3205" transform="translate(522.453 1659.537)">
            <path id="패스_4550" d="M-10.845 376.64c-.638 0-1.158-.232-1.158-.521v-2.605c0-.287.52-.519 1.158-.519s1.159.232 1.159.519v2.605c.001.289-.52.521-1.159.521z" class="cls-8" transform="translate(12.003 -372.994)"/>
        </g>
        <g id="그룹_3206" transform="translate(629.745 1656.384)">
            <path id="패스_4551" d="M114.1 374.786c-.639 0-1.158-.232-1.158-.519v-8.909c0-.287.52-.521 1.158-.521s1.158.234 1.158.521v8.909c.005.287-.516.519-1.158.519z" class="cls-8" transform="translate(-112.946 -364.836)"/>
        </g>
        <g id="그룹_3207" transform="translate(620.808 1651.304)">
            <path id="패스_4552" d="M103.7 371.8c-.638 0-1.158-.234-1.158-.521V352.21c0-.288.52-.519 1.158-.519s1.154.232 1.154.519v19.072c-.004.288-.52.518-1.154.518z" class="cls-8" transform="translate(-102.538 -351.691)"/>
        </g>
        <g id="그룹_3208" transform="translate(611.87 1655.747)">
            <path id="패스_4553" d="M93.284 374.414c-.638 0-1.154-.234-1.154-.521v-10.186c0-.288.516-.519 1.154-.519s1.158.232 1.158.519v10.186c0 .287-.516.521-1.158.521z" class="cls-8" transform="translate(-92.13 -363.187)"/>
        </g>
        <g id="그룹_3209" transform="translate(602.934 1642.938)">
            <path id="패스_4554" d="M82.876 364.116c-.638 0-1.154-.221-1.154-.493v-35.861c0-.271.516-.491 1.154-.491s1.158.22 1.158.491v35.861c0 .272-.519.493-1.158.493z" class="cls-8" transform="translate(-81.722 -327.271)"/>
        </g>
        <g id="그룹_3210" transform="translate(593.992 1646.415)">
            <path id="패스_4555" d="M72.468 368.933c-.639 0-1.159-.234-1.159-.521v-28.85c0-.288.52-.519 1.159-.519s1.154.232 1.154.519v28.849c0 .289-.516.522-1.154.522z" class="cls-8" transform="translate(-71.309 -339.043)"/>
        </g>
        <g id="그룹_3211" transform="translate(585.056 1654.255)">
            <path id="패스_4556" d="M62.06 373.536c-.642 0-1.158-.234-1.158-.521v-13.167c0-.288.515-.521 1.158-.521s1.155.234 1.155.521v13.166c-.001.286-.515.522-1.155.522z" class="cls-8" transform="translate(-60.902 -359.327)"/>
        </g>
        <g id="그룹_3212" transform="translate(576.118 1656.384)">
            <path id="패스_4557" d="M51.648 374.786c-.639 0-1.154-.232-1.154-.519v-8.909c0-.287.515-.521 1.154-.521s1.158.234 1.158.521v8.909c0 .287-.52.519-1.158.519z" class="cls-8" transform="translate(-50.494 -364.836)"/>
        </g>
        <g id="그룹_3222" transform="translate(638.686 1652.74)">
            <path id="패스_4567" d="M124.513 372.648c-.639 0-1.155-.234-1.155-.521v-16.2c0-.289.516-.521 1.155-.521s1.158.232 1.158.521v16.2c0 .287-.52.521-1.158.521z" class="cls-8" transform="translate(-123.358 -355.408)"/>
        </g>
        <g id="사각형_2662" class="cls-2" transform="translate(405 1848)">
            <rect width="338" height="48" class="cls-11" rx="10"/>
            <rect width="337" height="47" x=".5" y=".5" class="cls-12" rx="9.5"/>
        </g>
        <g id="사각형_2663" class="cls-2" transform="translate(405 1916)">
            <rect width="338" height="48" class="cls-11" rx="10"/>
            <rect width="337" height="47" x=".5" y=".5" class="cls-12" rx="9.5"/>
        </g>
        <g id="그룹_3314" transform="translate(1023.446 1791.277)">
            <path id="패스_4544-2" d="M228.606 370.092c-.639 0-1.154-.234-1.154-.521v-24.9c0-.288.515-.52 1.154-.52s1.158.232 1.158.52v24.9c0 .287-.519.521-1.158.521z" class="cls-9" transform="translate(-227.452 -344.148)"/>
        </g>
        <g id="그룹_3315" transform="translate(1014.505 1793.473)">
            <path id="패스_4558-2" d="M218.2 371.38c-.638 0-1.158-.232-1.158-.519v-20.512c0-.287.52-.52 1.158-.52s1.158.232 1.158.52v20.511c-.002.288-.522.52-1.158.52z" class="cls-9" transform="translate(-217.039 -349.83)"/>
        </g>
        <g id="그룹_3316" transform="translate(1005.567 1787)">
            <path id="패스_4559-2" d="M207.789 346.8c-.638 0-1.158-.16-1.158-.355v-33.786c0-.2.52-.354 1.158-.354s1.154.158 1.154.354v33.787c0 .196-.516.354-1.154.354z" class="cls-9" transform="translate(-206.631 -312.305)"/>
        </g>
        <g id="그룹_3317" transform="translate(996.631 1790.354)">
            <path id="패스_4560-2" d="M197.378 369.55c-.639 0-1.154-.234-1.154-.521V342.28c0-.287.515-.519 1.154-.519s1.158.232 1.158.519v26.749c0 .287-.52.521-1.158.521z" class="cls-9" transform="translate(-196.224 -341.76)"/>
        </g>
        <g id="그룹_3318" transform="translate(987.689 1787.206)">
            <path id="패스_4561-2" d="M186.969 367.7c-.639 0-1.158-.234-1.158-.522v-33.04c0-.289.52-.521 1.158-.521s1.158.232 1.158.521v33.042c.001.287-.52.52-1.158.52z" class="cls-9" transform="translate(-185.811 -333.617)"/>
        </g>
        <g id="그룹_3319" transform="translate(978.752 1793.045)">
            <path id="패스_4562-2" d="M176.561 371.128c-.639 0-1.158-.232-1.158-.519v-21.366c0-.287.519-.521 1.158-.521s1.154.234 1.154.521v21.365c0 .292-.515.52-1.154.52z" class="cls-9" transform="translate(-175.403 -348.722)"/>
        </g>
        <g id="그룹_3320" transform="translate(969.815 1797.473)">
            <path id="패스_4563-2" d="M166.149 373.729c-.638 0-1.154-.232-1.154-.519V360.7c0-.287.516-.521 1.154-.521s1.158.234 1.158.521v12.51c0 .29-.515.519-1.158.519z" class="cls-9" transform="translate(-164.995 -360.179)"/>
        </g>
        <g id="그룹_3321" transform="translate(960.878 1798.66)">
            <path id="패스_4564-2" d="M155.741 374.426c-.638 0-1.154-.232-1.154-.519v-10.135c0-.287.516-.521 1.154-.521s1.158.234 1.158.521v10.134c.001.288-.52.52-1.158.52z" class="cls-9" transform="translate(-154.587 -363.251)"/>
        </g>
        <g id="그룹_3322" transform="translate(951.937 1789.146)">
            <path id="패스_4565-2" d="M145.332 368.838c-.638 0-1.158-.232-1.158-.521v-29.162c0-.287.52-.521 1.158-.521s1.154.234 1.154.521v29.162c0 .289-.515.521-1.154.521z" class="cls-9" transform="translate(-144.174 -338.634)"/>
        </g>
        <g id="그룹_3323" transform="translate(943 1793.349)">
            <path id="패스_4566-2" d="M134.925 371.307c-.643 0-1.158-.232-1.158-.519v-20.757c0-.287.515-.521 1.158-.521s1.154.234 1.154.521v20.756c0 .288-.516.52-1.154.52z" class="cls-9" transform="translate(-133.767 -349.51)"/>
        </g>
        <g id="사각형_2664" class="cls-2" transform="translate(815 1848)">
            <rect width="338" height="48" class="cls-11" rx="10"/>
            <rect width="337" height="47" x=".5" y=".5" class="cls-12" rx="9.5"/>
        </g>
        <g id="사각형_2665" class="cls-2" transform="translate(815 1916)">
            <rect width="338" height="48" class="cls-11" rx="10"/>
            <rect width="337" height="47" x=".5" y=".5" class="cls-12" rx="9.5"/>
        </g>
        <g id="그룹_3200-2" transform="translate(559.724 1790.929)">
            <path id="패스_4545-2" d="M41.239 369.784c-.638 0-1.158-.232-1.158-.52V343.32c0-.287.52-.521 1.158-.521s1.158.234 1.158.521v25.944c.003.288-.52.52-1.158.52z" class="cls-10" transform="translate(-40.081 -342.799)"/>
        </g>
        <g id="그룹_3201-2" transform="translate(550.786 1796.404)">
            <path id="패스_4546-2" d="M30.831 373c-.638 0-1.158-.234-1.158-.521v-15c0-.288.52-.519 1.158-.519s1.154.232 1.154.519v15c0 .288-.515.521-1.154.521z" class="cls-10" transform="translate(-29.673 -356.964)"/>
        </g>
        <g id="그룹_3202-2" transform="translate(541.85 1799.287)">
            <path id="패스_4547-2" d="M20.42 374.693c-.639 0-1.155-.232-1.155-.519v-9.229c0-.287.516-.521 1.155-.521s1.158.234 1.158.521v9.229c0 .286-.52.519-1.158.519z" class="cls-10" transform="translate(-19.265 -364.423)"/>
        </g>
        <g id="그룹_3203-2" transform="translate(532.908 1802.626)">
            <path id="패스_4548-2" d="M10.01 376.654c-.638 0-1.158-.232-1.158-.519v-2.55c0-.288.52-.521 1.158-.521s1.159.234 1.159.521v2.55c.001.287-.52.519-1.159.519z" class="cls-10" transform="translate(-8.852 -373.063)"/>
        </g>
        <g id="그룹_3204-2" transform="translate(523.972 1801.53)">
            <path id="패스_4549-2" d="M-.4 376.012c-.639 0-1.158-.234-1.158-.521v-4.744c0-.287.52-.519 1.158-.519s1.154.232 1.154.519v4.744c.003.287-.513.521-1.154.521z" class="cls-10" transform="translate(1.555 -370.227)"/>
        </g>
        <g id="그룹_3205-2" transform="translate(515 1802.599)">
            <path id="패스_4550-2" d="M-10.845 376.64c-.638 0-1.158-.232-1.158-.521v-2.605c0-.287.52-.519 1.158-.519s1.159.232 1.159.519v2.605c.001.289-.52.521-1.159.521z" class="cls-10" transform="translate(12.003 -372.994)"/>
        </g>
        <g id="그룹_3206-2" transform="translate(622.292 1799.447)">
            <path id="패스_4551-2" d="M114.1 374.786c-.639 0-1.158-.232-1.158-.519v-8.909c0-.287.52-.521 1.158-.521s1.158.234 1.158.521v8.909c.005.287-.516.519-1.158.519z" class="cls-10" transform="translate(-112.946 -364.836)"/>
        </g>
        <g id="그룹_3207-2" transform="translate(613.354 1794.366)">
            <path id="패스_4552-2" d="M103.7 371.8c-.638 0-1.158-.234-1.158-.521V352.21c0-.288.52-.519 1.158-.519s1.154.232 1.154.519v19.072c-.004.288-.52.518-1.154.518z" class="cls-10" transform="translate(-102.538 -351.691)"/>
        </g>
        <g id="그룹_3208-2" transform="translate(604.417 1798.809)">
            <path id="패스_4553-2" d="M93.284 374.414c-.638 0-1.154-.234-1.154-.521v-10.186c0-.288.516-.519 1.154-.519s1.158.232 1.158.519v10.186c0 .287-.516.521-1.158.521z" class="cls-10" transform="translate(-92.13 -363.187)"/>
        </g>
        <g id="그룹_3209-2" transform="translate(595.48 1786)">
            <path id="패스_4554-2" d="M82.876 364.116c-.638 0-1.154-.221-1.154-.493v-35.861c0-.271.516-.491 1.154-.491s1.158.22 1.158.491v35.861c0 .272-.519.493-1.158.493z" class="cls-10" transform="translate(-81.722 -327.271)"/>
        </g>
        <g id="그룹_3210-2" transform="translate(586.539 1789.477)">
            <path id="패스_4555-2" d="M72.468 368.933c-.639 0-1.159-.234-1.159-.521v-28.85c0-.288.52-.519 1.159-.519s1.154.232 1.154.519v28.849c0 .289-.516.522-1.154.522z" class="cls-10" transform="translate(-71.309 -339.043)"/>
        </g>
        <g id="그룹_3211-2" transform="translate(577.603 1797.318)">
            <path id="패스_4556-2" d="M62.06 373.536c-.642 0-1.158-.234-1.158-.521v-13.167c0-.288.515-.521 1.158-.521s1.155.234 1.155.521v13.166c-.001.286-.515.522-1.155.522z" class="cls-10" transform="translate(-60.902 -359.327)"/>
        </g>
        <g id="그룹_3212-2" transform="translate(568.665 1799.447)">
            <path id="패스_4557-2" d="M51.648 374.786c-.639 0-1.154-.232-1.154-.519v-8.909c0-.287.515-.521 1.154-.521s1.158.234 1.158.521v8.909c0 .287-.52.519-1.158.519z" class="cls-10" transform="translate(-50.494 -364.836)"/>
        </g>
        <g id="그룹_3222-2" transform="translate(631.232 1795.802)">
            <path id="패스_4567-2" d="M124.513 372.648c-.639 0-1.155-.234-1.155-.521v-16.2c0-.289.516-.521 1.155-.521s1.158.232 1.158.521v16.2c0 .287-.52.521-1.158.521z" class="cls-10" transform="translate(-123.358 -355.408)"/>
        </g>
        <g id="그룹_3191-2" transform="translate(604.568 1853)">
            <path id="패스_4536-2" d="M311.883 342.779c-.642 0-1.157-.159-1.157-.355v-38.038c0-.2.515-.353 1.157-.353s1.155.158 1.155.353v38.038c-.001.196-.517.355-1.155.355z" class="cls-10" transform="translate(-310.725 -304.033)"/>
        </g>
        <g id="그룹_3192-2" transform="translate(595.631 1853.409)">
            <path id="패스_4537-2" d="M301.471 363.8c-.638 0-1.154-.22-1.154-.492v-36.946c0-.272.516-.493 1.154-.493s1.158.222 1.158.493V363.3c0 .276-.52.5-1.158.5z" class="cls-10" transform="translate(-300.317 -325.868)"/>
        </g>
        <g id="그룹_3193-2" transform="translate(586.689 1858.337)">
            <path id="패스_4538-2" d="M291.062 369.467c-.638 0-1.158-.234-1.158-.521v-27.03c0-.287.52-.519 1.158-.519s1.158.232 1.158.519v27.03c.001.287-.52.521-1.158.521z" class="cls-10" transform="translate(-289.904 -341.396)"/>
        </g>
        <g id="그룹_3194-2" transform="translate(577.753 1862.123)">
            <path id="패스_4539-2" d="M280.654 371.689c-.638 0-1.158-.232-1.158-.522V351.71c0-.287.52-.521 1.158-.521s1.154.234 1.154.521v19.457c0 .289-.515.522-1.154.522z" class="cls-10" transform="translate(-279.496 -351.189)"/>
        </g>
        <g id="그룹_3195-2" transform="translate(568.815 1864.586)">
            <path id="패스_4540-2" d="M270.242 373.137c-.638 0-1.154-.234-1.154-.521v-14.533c0-.287.516-.519 1.154-.519s1.159.232 1.159.519v14.533c-.001.284-.516.521-1.159.521z" class="cls-10" transform="translate(-269.088 -357.564)"/>
        </g>
        <g id="그룹_3196-2" transform="translate(559.875 1858.478)">
            <path id="패스_4541-2" d="M259.833 369.55c-.638 0-1.158-.234-1.158-.521V342.28c0-.287.519-.519 1.158-.519s1.158.232 1.158.519v26.749c.001.287-.519.521-1.158.521z" class="cls-10" transform="translate(-258.676 -341.76)"/>
        </g>
        <g id="그룹_3197-2" transform="translate(550.938 1862.09)">
            <path id="패스_4542-2" d="M249.426 371.671c-.639 0-1.158-.234-1.158-.521v-19.525c0-.287.52-.519 1.158-.519s1.154.232 1.154.519v19.525c0 .287-.516.521-1.154.521z" class="cls-10" transform="translate(-248.268 -351.105)"/>
        </g>
        <g id="그룹_3198-2" transform="translate(542 1853.951)">
            <path id="패스_4543-2" d="M239.018 364.116c-.642 0-1.158-.221-1.158-.493v-35.861c0-.271.516-.491 1.158-.491s1.154.22 1.154.491v35.861c0 .272-.516.493-1.154.493z" class="cls-10" transform="translate(-237.86 -327.271)"/>
        </g>
        <g id="그룹_3158-2" transform="translate(947 1853)">
            <path id="패스_4503-2" d="M322.29 324.7c-.638 0-1.158-.128-1.158-.285v-38.176c0-.157.52-.284 1.158-.284s1.155.127 1.155.284v38.177c0 .157-.516.284-1.155.284z" class="cls-9" transform="translate(-321.132 -285.955)"/>
        </g>
        <g id="그룹_3159-2" transform="translate(955.941 1855.949)">
            <path id="패스_4504-2" d="M332.7 336.358c-.639 0-1.155-.133-1.155-.3v-31.73c0-.163.516-.295 1.155-.295s1.157.132 1.157.295v31.734c0 .163-.519.296-1.157.296z" class="cls-9" transform="translate(-331.545 -304.033)"/>
        </g>
        <g id="그룹_3160-2" transform="translate(964.878 1856.358)">
            <path id="패스_4505-2" d="M343.107 357.374c-.638 0-1.154-.183-1.154-.408v-30.688c0-.226.516-.41 1.154-.41s1.158.184 1.158.41v30.688c0 .225-.516.408-1.158.408z" class="cls-9" transform="translate(-341.953 -325.868)"/>
        </g>
        <g id="그룹_3161-2" transform="translate(973.815 1858.174)">
            <path id="패스_4506-2" d="M353.519 369.467c-.638 0-1.158-.234-1.158-.521v-27.03c0-.287.52-.519 1.158-.519s1.154.232 1.154.519v27.03c0 .287-.516.521-1.154.521z" class="cls-9" transform="translate(-352.361 -341.396)"/>
        </g>
        <g id="그룹_3162-2" transform="translate(982.753 1861.929)">
            <path id="패스_4507-2" d="M363.927 371.689c-.639 0-1.158-.232-1.158-.522V351.71c0-.287.519-.521 1.158-.521s1.158.234 1.158.521v19.457c.001.289-.52.522-1.158.522z" class="cls-9" transform="translate(-362.769 -351.189)"/>
        </g>
        <g id="그룹_3163-2" transform="translate(991.693 1864.382)">
            <path id="패스_4508-2" d="M374.335 373.137c-.638 0-1.154-.234-1.154-.521v-14.533c0-.287.516-.519 1.154-.519s1.159.232 1.159.519v14.533c0 .284-.52.521-1.159.521z" class="cls-9" transform="translate(-373.181 -357.564)"/>
        </g>
        <g id="그룹_3164-2" transform="translate(1000.631 1858.313)">
            <path id="패스_4509-2" d="M384.748 369.55c-.643 0-1.159-.234-1.159-.521V342.28c0-.287.516-.519 1.159-.519s1.154.232 1.154.519v26.749c-.002.287-.516.521-1.154.521z" class="cls-9" transform="translate(-383.589 -341.76)"/>
        </g>
        <g id="그룹_3165-2" transform="translate(1009.567 1861.897)">
            <path id="패스_4510-2" d="M395.155 371.671c-.638 0-1.158-.234-1.158-.521v-19.525c0-.287.52-.519 1.158-.519s1.158.232 1.158.519v19.525c.001.287-.519.521-1.158.521z" class="cls-9" transform="translate(-393.997 -351.105)"/>
        </g>
        <g id="그룹_3166-2" transform="translate(1018.509 1856.9)">
            <path id="패스_4511-2" d="M405.564 357.694c-.638 0-1.154-.183-1.154-.407v-29.611c0-.224.516-.405 1.154-.405s1.158.181 1.158.405v29.611c0 .225-.522.407-1.158.407z" class="cls-9" transform="translate(-404.41 -327.271)"/>
        </g>
        <g id="그룹_3167-2" transform="translate(533 1927.277)">
            <path id="패스_4512-2" d="M415.972 370.092c-.638 0-1.154-.234-1.154-.521v-24.9c0-.288.516-.52 1.154-.52s1.158.232 1.158.52v24.9c0 .287-.516.521-1.158.521z" class="cls-10" transform="translate(-414.818 -344.148)"/>
        </g>
        <g id="그룹_3181-2" transform="translate(541.938 1929.473)">
            <path id="패스_4526-2" d="M426.384 371.38c-.639 0-1.158-.232-1.158-.519v-20.512c0-.287.519-.52 1.158-.52s1.154.232 1.154.52v20.511c0 .288-.516.52-1.154.52z" class="cls-10" transform="translate(-425.226 -349.83)"/>
        </g>
        <g id="그룹_3182-2" transform="translate(550.873 1923)">
            <path id="패스_4527-2" d="M436.792 346.8c-.639 0-1.159-.16-1.159-.355v-33.786c0-.2.52-.354 1.159-.354s1.158.158 1.158.354v33.787c.001.196-.52.354-1.158.354z" class="cls-10" transform="translate(-435.633 -312.305)"/>
        </g>
        <g id="그룹_3183-2" transform="translate(559.815 1926.354)">
            <path id="패스_4528-2" d="M447.2 369.55c-.639 0-1.154-.234-1.154-.521V342.28c0-.287.515-.519 1.154-.519s1.157.232 1.157.519v26.749c.002.287-.518.521-1.157.521z" class="cls-10" transform="translate(-446.047 -341.76)"/>
        </g>
        <g id="그룹_3184-2" transform="translate(568.752 1923.206)">
            <path id="패스_4529-2" d="M457.612 367.7c-.638 0-1.158-.234-1.158-.522v-33.04c0-.289.52-.521 1.158-.521s1.154.232 1.154.521v33.042c0 .287-.515.52-1.154.52z" class="cls-10" transform="translate(-456.454 -333.617)"/>
        </g>
        <g id="그룹_3185-2" transform="translate(577.689 1929.045)">
            <path id="패스_4530-2" d="M468.02 371.128c-.638 0-1.158-.232-1.158-.519v-21.366c0-.287.52-.521 1.158-.521s1.158.234 1.158.521v21.365c.001.292-.52.52-1.158.52z" class="cls-10" transform="translate(-466.862 -348.722)"/>
        </g>
        <g id="그룹_3186-2" transform="translate(586.631 1933.473)">
            <path id="패스_4531-2" d="M478.429 373.729c-.639 0-1.154-.232-1.154-.519V360.7c0-.287.515-.521 1.154-.521s1.158.234 1.158.521v12.51c0 .29-.519.519-1.158.519z" class="cls-10" transform="translate(-477.275 -360.179)"/>
        </g>
        <g id="그룹_3187-2" transform="translate(595.568 1934.66)">
            <path id="패스_4532-2" d="M488.841 374.426c-.643 0-1.158-.232-1.158-.519v-10.135c0-.287.515-.521 1.158-.521s1.154.234 1.154.521v10.134c.005.288-.516.52-1.154.52z" class="cls-10" transform="translate(-487.683 -363.251)"/>
        </g>
        <g id="그룹_3188-2" transform="translate(604.505 1925.146)">
            <path id="패스_4533-2" d="M499.249 368.838c-.639 0-1.158-.232-1.158-.521v-29.162c0-.287.52-.521 1.158-.521s1.154.234 1.154.521v29.162c-.003.289-.516.521-1.154.521z" class="cls-10" transform="translate(-498.091 -338.634)"/>
        </g>
        <g id="그룹_3189-2" transform="translate(613.445 1929.349)">
            <path id="패스_4534-2" d="M509.657 371.307c-.638 0-1.154-.232-1.154-.519v-20.757c0-.287.516-.521 1.154-.521s1.158.234 1.158.521v20.756c0 .288-.515.52-1.158.52z" class="cls-10" transform="translate(-508.503 -349.51)"/>
        </g>
        <g id="그룹_3168-2" transform="translate(996.505 1926.929)">
            <path id="패스_4513-2" d="M603.342 369.784c-.638 0-1.158-.232-1.158-.52V343.32c0-.287.52-.521 1.158-.521s1.154.234 1.154.521v25.944c.004.288-.516.52-1.154.52z" class="cls-9" transform="translate(-602.184 -342.799)"/>
        </g>
        <g id="그룹_3169-2" transform="translate(1005.442 1932.404)">
            <path id="패스_4514-2" d="M613.75 373c-.639 0-1.158-.234-1.158-.521v-15c0-.288.52-.519 1.158-.519s1.158.232 1.158.519v15c.001.288-.52.521-1.158.521z" class="cls-9" transform="translate(-612.592 -356.964)"/>
        </g>
        <g id="그룹_3170-2" transform="translate(1014.384 1935.287)">
            <path id="패스_4515-2" d="M624.159 374.693c-.639 0-1.154-.232-1.154-.519v-9.229c0-.287.515-.521 1.154-.521s1.157.234 1.157.521v9.229c.001.286-.516.519-1.157.519z" class="cls-9" transform="translate(-623.005 -364.423)"/>
        </g>
        <g id="그룹_3171-2" transform="translate(1023.32 1938.626)">
            <path id="패스_4516-2" d="M634.57 376.654c-.638 0-1.158-.232-1.158-.519v-2.55c0-.288.52-.521 1.158-.521s1.155.234 1.155.521v2.55c0 .287-.516.519-1.155.519z" class="cls-9" transform="translate(-633.412 -373.063)"/>
        </g>
        <g id="그룹_3172-2" transform="translate(1032.258 1937.53)">
            <path id="패스_4517-2" d="M644.978 376.012c-.638 0-1.158-.234-1.158-.521v-4.744c0-.287.52-.519 1.158-.519s1.158.232 1.158.519v4.744c.001.287-.519.521-1.158.521z" class="cls-9" transform="translate(-643.82 -370.227)"/>
        </g>
        <g id="그룹_3173-2" transform="translate(1041.229 1938.599)">
            <path id="패스_4518-2" d="M655.425 376.64c-.638 0-1.158-.232-1.158-.521v-2.605c0-.287.52-.519 1.158-.519s1.155.232 1.155.519v2.605c0 .289-.516.521-1.155.521z" class="cls-9" transform="translate(-654.267 -372.994)"/>
        </g>
        <g id="그룹_3174-2" transform="translate(933.938 1935.447)">
            <path id="패스_4519-2" d="M530.477 374.786c-.638 0-1.158-.232-1.158-.519v-8.909c0-.287.52-.521 1.158-.521s1.154.234 1.154.521v8.909c0 .287-.515.519-1.154.519z" class="cls-9" transform="translate(-529.319 -364.836)"/>
        </g>
        <g id="그룹_3175-2" transform="translate(942.874 1930.366)">
            <path id="패스_4520-2" d="M540.885 371.8c-.639 0-1.158-.234-1.158-.521V352.21c0-.288.52-.519 1.158-.519s1.158.232 1.158.519v19.072c.001.288-.52.518-1.158.518z" class="cls-9" transform="translate(-539.727 -351.691)"/>
        </g>
        <g id="그룹_3176-2" transform="translate(951.816 1934.809)">
            <path id="패스_4521-2" d="M551.294 374.414c-.638 0-1.154-.234-1.154-.521v-10.186c0-.288.516-.519 1.154-.519s1.158.232 1.158.519v10.186c0 .287-.52.521-1.158.521z" class="cls-9" transform="translate(-550.14 -363.187)"/>
        </g>
        <g id="그룹_3177-2" transform="translate(960.753 1922)">
            <path id="패스_4522-2" d="M561.706 364.116c-.643 0-1.158-.221-1.158-.493v-35.861c0-.271.515-.491 1.158-.491s1.154.22 1.154.491v35.861c0 .272-.516.493-1.154.493z" class="cls-9" transform="translate(-560.548 -327.271)"/>
        </g>
        <g id="그룹_3178-2" transform="translate(969.689 1925.477)">
            <path id="패스_4523-2" d="M572.113 368.933c-.638 0-1.158-.234-1.158-.521v-28.85c0-.288.52-.519 1.158-.519s1.154.232 1.154.519v28.849c0 .289-.515.522-1.154.522z" class="cls-9" transform="translate(-570.955 -339.043)"/>
        </g>
        <g id="그룹_3179-2" transform="translate(978.631 1933.318)">
            <path id="패스_4524-2" d="M582.522 373.536c-.638 0-1.154-.234-1.154-.521v-13.167c0-.288.516-.521 1.154-.521s1.158.234 1.158.521v13.166c0 .286-.519.522-1.158.522z" class="cls-9" transform="translate(-581.368 -359.327)"/>
        </g>
        <g id="그룹_3180-2" transform="translate(987.568 1935.447)">
            <path id="패스_4525-2" d="M592.93 374.786c-.638 0-1.154-.232-1.154-.519v-8.909c0-.287.516-.521 1.154-.521s1.158.234 1.158.521v8.909c.001.287-.515.519-1.158.519z" class="cls-9" transform="translate(-591.776 -364.836)"/>
        </g>
        <g id="그룹_3190-2" transform="translate(925 1931.802)">
            <path id="패스_4535-2" d="M520.065 372.648c-.638 0-1.154-.234-1.154-.521v-16.2c0-.289.516-.521 1.154-.521s1.158.232 1.158.521v16.2c0 .287-.516.521-1.158.521z" class="cls-9" transform="translate(-518.911 -355.408)"/>
        </g>
    </g>
</svg>
