<svg xmlns="http://www.w3.org/2000/svg" width="848" height="496" viewBox="0 0 848 496">
    <defs>
        <style>
            .cls-2{fill:#f4fdff;stroke:#1054b2}.cls-10,.cls-5{fill:#3027ff}.cls-5,.cls-6{opacity:.189}.cls-6{fill:#fc2cff}.cls-7{fill:#03020f}.cls-8{fill:#7782b4}.cls-9{fill:#ff1fff}.cls-11{stroke:none}.cls-12{fill:none}
        </style>
    </defs>
    <g id="img_speech_separation" transform="translate(-355 -1498)">
        <g id="img_boundingbox" fill="#fff" stroke="#c1d5e8" transform="translate(355 1498)">
            <rect width="848" height="496" class="cls-11" rx="10"/>
            <rect width="847" height="495" x=".5" y=".5" class="cls-12" rx="9.5"/>
        </g>
        <g id="사각형_2659" class="cls-2" transform="translate(405 1623)">
            <rect width="748" height="74" class="cls-11" rx="10"/>
            <rect width="747" height="73" x=".5" y=".5" class="cls-12" rx="9.5"/>
        </g>
        <circle id="타원_359" cx="25" cy="25" r="25" fill="#1b64c9" transform="translate(425 1635)"/>
        <path id="다각형_26" fill="#fff" d="M11.372 4.77a3 3 0 0 1 5.255 0l8.922 16.2a3 3 0 0 1-2.628 4.448H5.078a3 3 0 0 1-2.628-4.452z" transform="rotate(90 -590.359 1055.641)"/>
        <path id="사각형_2666" d="M0 0H128V50H0z" class="cls-5" transform="translate(519 1636)"/>
        <path id="사각형_2667" d="M0 0H72V50H0z" class="cls-5" transform="translate(737 1636)"/>
        <path id="사각형_2669" d="M0 0H90V50H0z" class="cls-6" transform="translate(647 1636)"/>
        <path id="사각형_2670" d="M0 0H81V50H0z" class="cls-6" transform="translate(809 1636)"/>
        <path id="사각형_2671" d="M0 0H123V50H0z" class="cls-6" transform="translate(978 1636)"/>
        <path id="사각형_2668" d="M0 0H88V50H0z" class="cls-5" transform="translate(890 1636)"/>
        <g id="사각형_2660" class="cls-2" transform="translate(405 1780)">
            <rect width="338" height="48" class="cls-11" rx="10"/>
            <rect width="337" height="47" x=".5" y=".5" class="cls-12" rx="9.5"/>
        </g>
        <path id="패스_4734" d="M-20.754-10.962h3.348v-2.322h-6.21v11.358h1.224a32.988 32.988 0 0 0 5.868-.414l-.216-2.34a29.515 29.515 0 0 1-4.014.378zm8.568-4.23v6.372h-1.062v-6.1h-2.7V.936h2.7v-7.452h1.062v8.19h2.754v-16.866zM-1.242-5.076h2.448v2.718h-2.448zm-.288-6.606h3.006v4.338H-1.53zM4.1-2.358v-2.718h2.3v-2.268H4.374v-4.338H6.5v-2.286H-6.552v2.286h2.124v4.338h-2.016v2.268h2.3v2.718h-3.488v2.322H7.65v-2.322zm14.742-7.02a31.075 31.075 0 0 1-6.3.648v-5.508h-2.9v7.884h1.518a36.147 36.147 0 0 0 8.01-.7zM14.31-2.88h5.724v2.16H14.31zm-2.862 4.41h11.43v-6.66h-11.43zm8.514-16.74v9.432h2.916v-9.432z" class="cls-7" transform="translate(982 1760)"/>
        <path id="패스_4733" d="M-13.338-9.288h-6.156v-1.332h6.156zm2.88-5.274h-2.88v1.692h-6.156v-1.692h-2.88V-7h11.916zm1.728 8.946h-15.282v2.268h6.12V1.71h2.916v-5.058h6.246zm11.3-2.2C0-8.55-.954-10.17-1.134-11.826h3.06v-2.286h-9.18v2.286h3.114A5.156 5.156 0 0 1-7.992-7.2l1.458 2.286a6.356 6.356 0 0 0 3.978-3.42 6.081 6.081 0 0 0 3.744 2.79zM.144-.486c-1.944 0-2.9-.342-2.9-1.17s.956-1.152 2.9-1.152c1.962 0 2.916.324 2.916 1.152S2.106-.486.144-.486zm0-4.554c-3.528 0-5.8 1.26-5.8 3.384s2.268 3.384 5.8 3.384c3.546 0 5.814-1.26 5.814-3.384S3.69-5.04.144-5.04zm5.616-6.48v-3.654H2.844v9.918H5.76v-3.906h2.106v-2.358zm13.086 2.142a31.075 31.075 0 0 1-6.3.648v-5.508h-2.9v7.884h1.514a36.147 36.147 0 0 0 8.01-.7zM14.31-2.88h5.724v2.16H14.31zm-2.862 4.41h11.43v-6.66h-11.43zm8.514-16.74v9.432h2.916v-9.432z" class="cls-7" transform="translate(568 1760)"/>
        <g id="사각형_2661" class="cls-2" transform="translate(815 1780)">
            <rect width="338" height="48" class="cls-11" rx="10"/>
            <rect width="337" height="47" x=".5" y=".5" class="cls-12" rx="9.5"/>
        </g>
        <g id="그룹_3158" transform="translate(808.511 1635.511)">
            <path id="패스_4503" d="M322.29 334.987c-.638 0-1.158-.162-1.158-.361v-48.312c0-.2.52-.359 1.158-.359s1.155.16 1.155.359v48.313c0 .199-.516.36-1.155.36z" class="cls-8" transform="translate(-321.132 -285.955)"/>
        </g>
        <g id="그룹_3159" transform="translate(817.452 1641.987)">
            <path id="패스_4504" d="M332.7 342.779c-.639 0-1.155-.159-1.155-.355v-38.038c0-.2.516-.353 1.155-.353s1.157.158 1.157.353v38.038c0 .196-.519.355-1.157.355z" class="cls-8" transform="translate(-331.545 -304.033)"/>
        </g>
        <g id="그룹_3160" transform="translate(826.389 1642.396)">
            <path id="패스_4505" d="M343.107 363.8c-.638 0-1.154-.22-1.154-.492v-36.946c0-.272.516-.493 1.154-.493s1.158.222 1.158.493V363.3c0 .276-.516.5-1.158.5z" class="cls-8" transform="translate(-341.953 -325.868)"/>
        </g>
        <g id="그룹_3161" transform="translate(835.326 1647.324)">
            <path id="패스_4506" d="M353.519 369.467c-.638 0-1.158-.234-1.158-.521v-27.03c0-.287.52-.519 1.158-.519s1.154.232 1.154.519v27.03c0 .287-.516.521-1.154.521z" class="cls-8" transform="translate(-352.361 -341.396)"/>
        </g>
        <g id="그룹_3162" transform="translate(844.264 1651.11)">
            <path id="패스_4507" d="M363.927 371.689c-.639 0-1.158-.232-1.158-.522V351.71c0-.287.519-.521 1.158-.521s1.158.234 1.158.521v19.457c.001.289-.52.522-1.158.522z" class="cls-8" transform="translate(-362.769 -351.189)"/>
        </g>
        <g id="그룹_3163" transform="translate(853.204 1653.573)">
            <path id="패스_4508" d="M374.335 373.137c-.638 0-1.154-.234-1.154-.521v-14.533c0-.287.516-.519 1.154-.519s1.159.232 1.159.519v14.533c0 .284-.52.521-1.159.521z" class="cls-8" transform="translate(-373.181 -357.564)"/>
        </g>
        <g id="그룹_3164" transform="translate(862.142 1647.465)">
            <path id="패스_4509" d="M384.748 369.55c-.643 0-1.159-.234-1.159-.521V342.28c0-.287.516-.519 1.159-.519s1.154.232 1.154.519v26.749c-.002.287-.516.521-1.154.521z" class="cls-8" transform="translate(-383.589 -341.76)"/>
        </g>
        <g id="그룹_3165" transform="translate(871.078 1651.077)">
            <path id="패스_4510" d="M395.155 371.671c-.638 0-1.158-.234-1.158-.521v-19.525c0-.287.52-.519 1.158-.519s1.158.232 1.158.519v19.525c.001.287-.519.521-1.158.521z" class="cls-8" transform="translate(-393.997 -351.105)"/>
        </g>
        <g id="그룹_3166" transform="translate(880.02 1642.938)">
            <path id="패스_4511" d="M405.564 364.116c-.638 0-1.154-.221-1.154-.493v-35.861c0-.271.516-.491 1.154-.491s1.158.22 1.158.491v35.861c0 .272-.522.493-1.158.493z" class="cls-8" transform="translate(-404.41 -327.271)"/>
        </g>
        <g id="그룹_3167" transform="translate(888.957 1648.388)">
            <path id="패스_4512" d="M415.972 370.092c-.638 0-1.154-.234-1.154-.521v-24.9c0-.288.516-.52 1.154-.52s1.158.232 1.158.52v24.9c0 .287-.516.521-1.158.521z" class="cls-8" transform="translate(-414.818 -344.148)"/>
        </g>
        <g id="그룹_3181" transform="translate(897.895 1650.585)">
            <path id="패스_4526" d="M426.384 371.38c-.639 0-1.158-.232-1.158-.519v-20.512c0-.287.519-.52 1.158-.52s1.154.232 1.154.52v20.511c0 .288-.516.52-1.154.52z" class="cls-8" transform="translate(-425.226 -349.83)"/>
        </g>
        <g id="그룹_3182" transform="translate(906.83 1644.112)">
            <path id="패스_4527" d="M436.792 346.8c-.639 0-1.159-.16-1.159-.355v-33.786c0-.2.52-.354 1.159-.354s1.158.158 1.158.354v33.787c.001.196-.52.354-1.158.354z" class="cls-8" transform="translate(-435.633 -312.305)"/>
        </g>
        <g id="그룹_3183" transform="translate(915.772 1647.465)">
            <path id="패스_4528" d="M447.2 369.55c-.639 0-1.154-.234-1.154-.521V342.28c0-.287.515-.519 1.154-.519s1.157.232 1.157.519v26.749c.002.287-.518.521-1.157.521z" class="cls-8" transform="translate(-446.047 -341.76)"/>
        </g>
        <g id="그룹_3184" transform="translate(924.709 1644.318)">
            <path id="패스_4529" d="M457.612 367.7c-.638 0-1.158-.234-1.158-.522v-33.04c0-.289.52-.521 1.158-.521s1.154.232 1.154.521v33.042c0 .287-.515.52-1.154.52z" class="cls-8" transform="translate(-456.454 -333.617)"/>
        </g>
        <g id="그룹_3185" transform="translate(933.646 1650.156)">
            <path id="패스_4530" d="M468.02 371.128c-.638 0-1.158-.232-1.158-.519v-21.366c0-.287.52-.521 1.158-.521s1.158.234 1.158.521v21.365c.001.292-.52.52-1.158.52z" class="cls-8" transform="translate(-466.862 -348.722)"/>
        </g>
        <g id="그룹_3186" transform="translate(942.588 1654.584)">
            <path id="패스_4531" d="M478.429 373.729c-.639 0-1.154-.232-1.154-.519V360.7c0-.287.515-.521 1.154-.521s1.158.234 1.158.521v12.51c0 .29-.519.519-1.158.519z" class="cls-8" transform="translate(-477.275 -360.179)"/>
        </g>
        <g id="그룹_3187" transform="translate(951.525 1655.772)">
            <path id="패스_4532" d="M488.841 374.426c-.643 0-1.158-.232-1.158-.519v-10.135c0-.287.515-.521 1.158-.521s1.154.234 1.154.521v10.134c.005.288-.516.52-1.154.52z" class="cls-8" transform="translate(-487.683 -363.251)"/>
        </g>
        <g id="그룹_3188" transform="translate(960.462 1646.257)">
            <path id="패스_4533" d="M499.249 368.838c-.639 0-1.158-.232-1.158-.521v-29.162c0-.287.52-.521 1.158-.521s1.154.234 1.154.521v29.162c-.003.289-.516.521-1.154.521z" class="cls-8" transform="translate(-498.091 -338.634)"/>
        </g>
        <g id="그룹_3189" transform="translate(969.402 1650.461)">
            <path id="패스_4534" d="M509.657 371.307c-.638 0-1.154-.232-1.154-.519v-20.757c0-.287.516-.521 1.154-.521s1.158.234 1.158.521v20.756c0 .288-.515.52-1.158.52z" class="cls-8" transform="translate(-508.503 -349.51)"/>
        </g>
        <g id="그룹_3168" transform="translate(1049.845 1647.867)">
            <path id="패스_4513" d="M603.342 369.784c-.638 0-1.158-.232-1.158-.52V343.32c0-.287.52-.521 1.158-.521s1.154.234 1.154.521v25.944c.004.288-.516.52-1.154.52z" class="cls-8" transform="translate(-602.184 -342.799)"/>
        </g>
        <g id="그룹_3169" transform="translate(1058.782 1653.342)">
            <path id="패스_4514" d="M613.75 373c-.639 0-1.158-.234-1.158-.521v-15c0-.288.52-.519 1.158-.519s1.158.232 1.158.519v15c.001.288-.52.521-1.158.521z" class="cls-8" transform="translate(-612.592 -356.964)"/>
        </g>
        <g id="그룹_3170" transform="translate(1067.724 1656.225)">
            <path id="패스_4515" d="M624.159 374.693c-.639 0-1.154-.232-1.154-.519v-9.229c0-.287.515-.521 1.154-.521s1.157.234 1.157.521v9.229c.001.286-.516.519-1.157.519z" class="cls-8" transform="translate(-623.005 -364.423)"/>
        </g>
        <g id="그룹_3171" transform="translate(1076.66 1659.564)">
            <path id="패스_4516" d="M634.57 376.654c-.638 0-1.158-.232-1.158-.519v-2.55c0-.288.52-.521 1.158-.521s1.155.234 1.155.521v2.55c0 .287-.516.519-1.155.519z" class="cls-8" transform="translate(-633.412 -373.063)"/>
        </g>
        <g id="그룹_3172" transform="translate(1085.598 1658.468)">
            <path id="패스_4517" d="M644.978 376.012c-.638 0-1.158-.234-1.158-.521v-4.744c0-.287.52-.519 1.158-.519s1.158.232 1.158.519v4.744c.001.287-.519.521-1.158.521z" class="cls-8" transform="translate(-643.82 -370.227)"/>
        </g>
        <g id="그룹_3173" transform="translate(1094.568 1659.537)">
            <path id="패스_4518" d="M655.425 376.64c-.638 0-1.158-.232-1.158-.521v-2.605c0-.287.52-.519 1.158-.519s1.155.232 1.155.519v2.605c0 .289-.516.521-1.155.521z" class="cls-8" transform="translate(-654.267 -372.994)"/>
        </g>
        <g id="그룹_3174" transform="translate(987.277 1656.384)">
            <path id="패스_4519" d="M530.477 374.786c-.638 0-1.158-.232-1.158-.519v-8.909c0-.287.52-.521 1.158-.521s1.154.234 1.154.521v8.909c0 .287-.515.519-1.154.519z" class="cls-8" transform="translate(-529.319 -364.836)"/>
        </g>
        <g id="그룹_3175" transform="translate(996.214 1651.304)">
            <path id="패스_4520" d="M540.885 371.8c-.639 0-1.158-.234-1.158-.521V352.21c0-.288.52-.519 1.158-.519s1.158.232 1.158.519v19.072c.001.288-.52.518-1.158.518z" class="cls-8" transform="translate(-539.727 -351.691)"/>
        </g>
        <g id="그룹_3176" transform="translate(1005.156 1655.747)">
            <path id="패스_4521" d="M551.294 374.414c-.638 0-1.154-.234-1.154-.521v-10.186c0-.288.516-.519 1.154-.519s1.158.232 1.158.519v10.186c0 .287-.52.521-1.158.521z" class="cls-8" transform="translate(-550.14 -363.187)"/>
        </g>
        <g id="그룹_3177" transform="translate(1014.093 1642.938)">
            <path id="패스_4522" d="M561.706 364.116c-.643 0-1.158-.221-1.158-.493v-35.861c0-.271.515-.491 1.158-.491s1.154.22 1.154.491v35.861c0 .272-.516.493-1.154.493z" class="cls-8" transform="translate(-560.548 -327.271)"/>
        </g>
        <g id="그룹_3178" transform="translate(1023.029 1646.415)">
            <path id="패스_4523" d="M572.113 368.933c-.638 0-1.158-.234-1.158-.521v-28.85c0-.288.52-.519 1.158-.519s1.154.232 1.154.519v28.849c0 .289-.515.522-1.154.522z" class="cls-8" transform="translate(-570.955 -339.043)"/>
        </g>
        <g id="그룹_3179" transform="translate(1031.971 1654.255)">
            <path id="패스_4524" d="M582.522 373.536c-.638 0-1.154-.234-1.154-.521v-13.167c0-.288.516-.521 1.154-.521s1.158.234 1.158.521v13.166c0 .286-.519.522-1.158.522z" class="cls-8" transform="translate(-581.368 -359.327)"/>
        </g>
        <g id="그룹_3180" transform="translate(1040.908 1656.384)">
            <path id="패스_4525" d="M592.93 374.786c-.638 0-1.154-.232-1.154-.519v-8.909c0-.287.516-.521 1.154-.521s1.158.234 1.158.521v8.909c.001.287-.515.519-1.158.519z" class="cls-8" transform="translate(-591.776 -364.836)"/>
        </g>
        <g id="그룹_3190" transform="translate(978.34 1652.74)">
            <path id="패스_4535" d="M520.065 372.648c-.638 0-1.154-.234-1.154-.521v-16.2c0-.289.516-.521 1.154-.521s1.158.232 1.158.521v16.2c0 .287-.516.521-1.158.521z" class="cls-8" transform="translate(-518.911 -355.408)"/>
        </g>
        <g id="그룹_3191" transform="translate(799.574 1641.987)">
            <path id="패스_4536" d="M311.883 342.779c-.642 0-1.157-.159-1.157-.355v-38.038c0-.2.515-.353 1.157-.353s1.155.158 1.155.353v38.038c-.001.196-.517.355-1.155.355z" class="cls-8" transform="translate(-310.725 -304.033)"/>
        </g>
        <g id="그룹_3192" transform="translate(790.637 1642.396)">
            <path id="패스_4537" d="M301.471 363.8c-.638 0-1.154-.22-1.154-.492v-36.946c0-.272.516-.493 1.154-.493s1.158.222 1.158.493V363.3c0 .276-.52.5-1.158.5z" class="cls-8" transform="translate(-300.317 -325.868)"/>
        </g>
        <g id="그룹_3193" transform="translate(781.695 1647.324)">
            <path id="패스_4538" d="M291.062 369.467c-.638 0-1.158-.234-1.158-.521v-27.03c0-.287.52-.519 1.158-.519s1.158.232 1.158.519v27.03c.001.287-.52.521-1.158.521z" class="cls-8" transform="translate(-289.904 -341.396)"/>
        </g>
        <g id="그룹_3194" transform="translate(772.759 1651.11)">
            <path id="패스_4539" d="M280.654 371.689c-.638 0-1.158-.232-1.158-.522V351.71c0-.287.52-.521 1.158-.521s1.154.234 1.154.521v19.457c0 .289-.515.522-1.154.522z" class="cls-8" transform="translate(-279.496 -351.189)"/>
        </g>
        <g id="그룹_3195" transform="translate(763.821 1653.573)">
            <path id="패스_4540" d="M270.242 373.137c-.638 0-1.154-.234-1.154-.521v-14.533c0-.287.516-.519 1.154-.519s1.159.232 1.159.519v14.533c-.001.284-.516.521-1.159.521z" class="cls-8" transform="translate(-269.088 -357.564)"/>
        </g>
        <g id="그룹_3196" transform="translate(754.881 1647.465)">
            <path id="패스_4541" d="M259.833 369.55c-.638 0-1.158-.234-1.158-.521V342.28c0-.287.519-.519 1.158-.519s1.158.232 1.158.519v26.749c.001.287-.519.521-1.158.521z" class="cls-8" transform="translate(-258.676 -341.76)"/>
        </g>
        <g id="그룹_3197" transform="translate(745.943 1651.077)">
            <path id="패스_4542" d="M249.426 371.671c-.639 0-1.158-.234-1.158-.521v-19.525c0-.287.52-.519 1.158-.519s1.154.232 1.154.519v19.525c0 .287-.516.521-1.154.521z" class="cls-8" transform="translate(-248.268 -351.105)"/>
        </g>
        <g id="그룹_3198" transform="translate(737.006 1642.938)">
            <path id="패스_4543" d="M239.018 364.116c-.642 0-1.158-.221-1.158-.493v-35.861c0-.271.516-.491 1.158-.491s1.154.22 1.154.491v35.861c0 .272-.516.493-1.154.493z" class="cls-8" transform="translate(-237.86 -327.271)"/>
        </g>
        <path id="패스_4544" d="M228.606 370.092c-.639 0-1.154-.234-1.154-.521v-24.9c0-.288.515-.52 1.154-.52s1.158.232 1.158.52v24.9c0 .287-.519.521-1.158.521z" class="cls-8" transform="translate(500.617 1304.24)"/>
        <path id="패스_4558" d="M218.2 371.38c-.638 0-1.158-.232-1.158-.519v-20.512c0-.287.52-.52 1.158-.52s1.158.232 1.158.52v20.511c-.002.288-.522.52-1.158.52z" class="cls-8" transform="translate(502.089 1300.755)"/>
        <path id="패스_4559" d="M207.789 346.8c-.638 0-1.158-.16-1.158-.355v-33.786c0-.2.52-.354 1.158-.354s1.154.158 1.154.354v33.787c0 .196-.516.354-1.154.354z" class="cls-8" transform="translate(503.56 1331.807)"/>
        <path id="패스_4560" d="M197.378 369.55c-.639 0-1.154-.234-1.154-.521V342.28c0-.287.515-.519 1.154-.519s1.158.232 1.158.519v26.749c0 .287-.52.521-1.158.521z" class="cls-8" transform="translate(505.03 1305.705)"/>
        <path id="패스_4561" d="M186.969 367.7c-.639 0-1.158-.234-1.158-.522v-33.04c0-.289.52-.521 1.158-.521s1.158.232 1.158.521v33.042c.001.287-.52.52-1.158.52z" class="cls-8" transform="translate(506.502 1310.701)"/>
        <path id="패스_4562" d="M176.561 371.128c-.639 0-1.158-.232-1.158-.519v-21.366c0-.287.519-.521 1.158-.521s1.154.234 1.154.521v21.365c0 .292-.515.52-1.154.52z" class="cls-8" transform="translate(507.972 1301.434)"/>
        <path id="패스_4563" d="M166.149 373.729c-.638 0-1.154-.232-1.154-.519V360.7c0-.287.516-.521 1.154-.521s1.158.234 1.158.521v12.51c0 .29-.515.519-1.158.519z" class="cls-8" transform="translate(509.443 1294.406)"/>
        <path id="패스_4564" d="M155.741 374.426c-.638 0-1.154-.232-1.154-.519v-10.135c0-.287.516-.521 1.154-.521s1.158.234 1.158.521v10.134c.001.288-.52.52-1.158.52z" class="cls-8" transform="translate(510.914 1292.521)"/>
        <path id="패스_4565" d="M145.332 368.838c-.638 0-1.158-.232-1.158-.521v-29.162c0-.287.52-.521 1.158-.521s1.154.234 1.154.521v29.162c0 .289-.515.521-1.154.521z" class="cls-8" transform="translate(512.386 1307.623)"/>
        <path id="패스_4566" d="M134.925 371.307c-.643 0-1.158-.232-1.158-.519v-20.757c0-.287.515-.521 1.158-.521s1.154.234 1.154.521v20.756c0 .288-.516.52-1.154.52z" class="cls-8" transform="translate(513.856 1300.951)"/>
        <g id="그룹_3200" transform="translate(567.177 1647.867)">
            <path id="패스_4545" d="M41.239 369.784c-.638 0-1.158-.232-1.158-.52V343.32c0-.287.52-.521 1.158-.521s1.158.234 1.158.521v25.944c.003.288-.52.52-1.158.52z" class="cls-8" transform="translate(-40.081 -342.799)"/>
        </g>
        <g id="그룹_3201" transform="translate(558.239 1653.342)">
            <path id="패스_4546" d="M30.831 373c-.638 0-1.158-.234-1.158-.521v-15c0-.288.52-.519 1.158-.519s1.154.232 1.154.519v15c0 .288-.515.521-1.154.521z" class="cls-8" transform="translate(-29.673 -356.964)"/>
        </g>
        <g id="그룹_3202" transform="translate(549.303 1656.225)">
            <path id="패스_4547" d="M20.42 374.693c-.639 0-1.155-.232-1.155-.519v-9.229c0-.287.516-.521 1.155-.521s1.158.234 1.158.521v9.229c0 .286-.52.519-1.158.519z" class="cls-8" transform="translate(-19.265 -364.423)"/>
        </g>
        <g id="그룹_3203" transform="translate(540.361 1659.564)">
            <path id="패스_4548" d="M10.01 376.654c-.638 0-1.158-.232-1.158-.519v-2.55c0-.288.52-.521 1.158-.521s1.159.234 1.159.521v2.55c.001.287-.52.519-1.159.519z" class="cls-8" transform="translate(-8.852 -373.063)"/>
        </g>
        <g id="그룹_3204" transform="translate(531.425 1658.468)">
            <path id="패스_4549" d="M-.4 376.012c-.639 0-1.158-.234-1.158-.521v-4.744c0-.287.52-.519 1.158-.519s1.154.232 1.154.519v4.744c.003.287-.513.521-1.154.521z" class="cls-8" transform="translate(1.555 -370.227)"/>
        </g>
        <g id="그룹_3205" transform="translate(522.453 1659.537)">
            <path id="패스_4550" d="M-10.845 376.64c-.638 0-1.158-.232-1.158-.521v-2.605c0-.287.52-.519 1.158-.519s1.159.232 1.159.519v2.605c.001.289-.52.521-1.159.521z" class="cls-8" transform="translate(12.003 -372.994)"/>
        </g>
        <g id="그룹_3206" transform="translate(629.745 1656.384)">
            <path id="패스_4551" d="M114.1 374.786c-.639 0-1.158-.232-1.158-.519v-8.909c0-.287.52-.521 1.158-.521s1.158.234 1.158.521v8.909c.005.287-.516.519-1.158.519z" class="cls-8" transform="translate(-112.946 -364.836)"/>
        </g>
        <g id="그룹_3207" transform="translate(620.808 1651.304)">
            <path id="패스_4552" d="M103.7 371.8c-.638 0-1.158-.234-1.158-.521V352.21c0-.288.52-.519 1.158-.519s1.154.232 1.154.519v19.072c-.004.288-.52.518-1.154.518z" class="cls-8" transform="translate(-102.538 -351.691)"/>
        </g>
        <g id="그룹_3208" transform="translate(611.87 1655.747)">
            <path id="패스_4553" d="M93.284 374.414c-.638 0-1.154-.234-1.154-.521v-10.186c0-.288.516-.519 1.154-.519s1.158.232 1.158.519v10.186c0 .287-.516.521-1.158.521z" class="cls-8" transform="translate(-92.13 -363.187)"/>
        </g>
        <g id="그룹_3209" transform="translate(602.934 1642.938)">
            <path id="패스_4554" d="M82.876 364.116c-.638 0-1.154-.221-1.154-.493v-35.861c0-.271.516-.491 1.154-.491s1.158.22 1.158.491v35.861c0 .272-.519.493-1.158.493z" class="cls-8" transform="translate(-81.722 -327.271)"/>
        </g>
        <g id="그룹_3210" transform="translate(593.992 1646.415)">
            <path id="패스_4555" d="M72.468 368.933c-.639 0-1.159-.234-1.159-.521v-28.85c0-.288.52-.519 1.159-.519s1.154.232 1.154.519v28.849c0 .289-.516.522-1.154.522z" class="cls-8" transform="translate(-71.309 -339.043)"/>
        </g>
        <g id="그룹_3211" transform="translate(585.056 1654.255)">
            <path id="패스_4556" d="M62.06 373.536c-.642 0-1.158-.234-1.158-.521v-13.167c0-.288.515-.521 1.158-.521s1.155.234 1.155.521v13.166c-.001.286-.515.522-1.155.522z" class="cls-8" transform="translate(-60.902 -359.327)"/>
        </g>
        <g id="그룹_3212" transform="translate(576.118 1656.384)">
            <path id="패스_4557" d="M51.648 374.786c-.639 0-1.154-.232-1.154-.519v-8.909c0-.287.515-.521 1.154-.521s1.158.234 1.158.521v8.909c0 .287-.52.519-1.158.519z" class="cls-8" transform="translate(-50.494 -364.836)"/>
        </g>
        <g id="그룹_3222" transform="translate(638.686 1652.74)">
            <path id="패스_4567" d="M124.513 372.648c-.639 0-1.155-.234-1.155-.521v-16.2c0-.289.516-.521 1.155-.521s1.158.232 1.158.521v16.2c0 .287-.52.521-1.158.521z" class="cls-8" transform="translate(-123.358 -355.408)"/>
        </g>
        <g id="사각형_2662" class="cls-2" transform="translate(405 1848)">
            <rect width="338" height="48" class="cls-11" rx="10"/>
            <rect width="337" height="47" x=".5" y=".5" class="cls-12" rx="9.5"/>
        </g>
        <g id="사각형_2663" class="cls-2" transform="translate(405 1916)">
            <rect width="338" height="48" class="cls-11" rx="10"/>
            <rect width="337" height="47" x=".5" y=".5" class="cls-12" rx="9.5"/>
        </g>
        <g id="그룹_3314" transform="translate(1023.446 1791.277)">
            <path id="패스_4544-2" d="M228.606 370.092c-.639 0-1.154-.234-1.154-.521v-24.9c0-.288.515-.52 1.154-.52s1.158.232 1.158.52v24.9c0 .287-.519.521-1.158.521z" class="cls-9" transform="translate(-227.452 -344.148)"/>
        </g>
        <g id="그룹_3315" transform="translate(1014.505 1793.473)">
            <path id="패스_4558-2" d="M218.2 371.38c-.638 0-1.158-.232-1.158-.519v-20.512c0-.287.52-.52 1.158-.52s1.158.232 1.158.52v20.511c-.002.288-.522.52-1.158.52z" class="cls-9" transform="translate(-217.039 -349.83)"/>
        </g>
        <g id="그룹_3316" transform="translate(1005.567 1787)">
            <path id="패스_4559-2" d="M207.789 346.8c-.638 0-1.158-.16-1.158-.355v-33.786c0-.2.52-.354 1.158-.354s1.154.158 1.154.354v33.787c0 .196-.516.354-1.154.354z" class="cls-9" transform="translate(-206.631 -312.305)"/>
        </g>
        <g id="그룹_3317" transform="translate(996.631 1790.354)">
            <path id="패스_4560-2" d="M197.378 369.55c-.639 0-1.154-.234-1.154-.521V342.28c0-.287.515-.519 1.154-.519s1.158.232 1.158.519v26.749c0 .287-.52.521-1.158.521z" class="cls-9" transform="translate(-196.224 -341.76)"/>
        </g>
        <g id="그룹_3318" transform="translate(987.689 1787.206)">
            <path id="패스_4561-2" d="M186.969 367.7c-.639 0-1.158-.234-1.158-.522v-33.04c0-.289.52-.521 1.158-.521s1.158.232 1.158.521v33.042c.001.287-.52.52-1.158.52z" class="cls-9" transform="translate(-185.811 -333.617)"/>
        </g>
        <g id="그룹_3319" transform="translate(978.752 1793.045)">
            <path id="패스_4562-2" d="M176.561 371.128c-.639 0-1.158-.232-1.158-.519v-21.366c0-.287.519-.521 1.158-.521s1.154.234 1.154.521v21.365c0 .292-.515.52-1.154.52z" class="cls-9" transform="translate(-175.403 -348.722)"/>
        </g>
        <g id="그룹_3320" transform="translate(969.815 1797.473)">
            <path id="패스_4563-2" d="M166.149 373.729c-.638 0-1.154-.232-1.154-.519V360.7c0-.287.516-.521 1.154-.521s1.158.234 1.158.521v12.51c0 .29-.515.519-1.158.519z" class="cls-9" transform="translate(-164.995 -360.179)"/>
        </g>
        <g id="그룹_3321" transform="translate(960.878 1798.66)">
            <path id="패스_4564-2" d="M155.741 374.426c-.638 0-1.154-.232-1.154-.519v-10.135c0-.287.516-.521 1.154-.521s1.158.234 1.158.521v10.134c.001.288-.52.52-1.158.52z" class="cls-9" transform="translate(-154.587 -363.251)"/>
        </g>
        <g id="그룹_3322" transform="translate(951.937 1789.146)">
            <path id="패스_4565-2" d="M145.332 368.838c-.638 0-1.158-.232-1.158-.521v-29.162c0-.287.52-.521 1.158-.521s1.154.234 1.154.521v29.162c0 .289-.515.521-1.154.521z" class="cls-9" transform="translate(-144.174 -338.634)"/>
        </g>
        <g id="그룹_3323" transform="translate(943 1793.349)">
            <path id="패스_4566-2" d="M134.925 371.307c-.643 0-1.158-.232-1.158-.519v-20.757c0-.287.515-.521 1.158-.521s1.154.234 1.154.521v20.756c0 .288-.516.52-1.154.52z" class="cls-9" transform="translate(-133.767 -349.51)"/>
        </g>
        <g id="사각형_2664" class="cls-2" transform="translate(815 1848)">
            <rect width="338" height="48" class="cls-11" rx="10"/>
            <rect width="337" height="47" x=".5" y=".5" class="cls-12" rx="9.5"/>
        </g>
        <g id="사각형_2665" class="cls-2" transform="translate(815 1916)">
            <rect width="338" height="48" class="cls-11" rx="10"/>
            <rect width="337" height="47" x=".5" y=".5" class="cls-12" rx="9.5"/>
        </g>
        <g id="그룹_3200-2" transform="translate(559.724 1790.929)">
            <path id="패스_4545-2" d="M41.239 369.784c-.638 0-1.158-.232-1.158-.52V343.32c0-.287.52-.521 1.158-.521s1.158.234 1.158.521v25.944c.003.288-.52.52-1.158.52z" class="cls-10" transform="translate(-40.081 -342.799)"/>
        </g>
        <g id="그룹_3201-2" transform="translate(550.786 1796.404)">
            <path id="패스_4546-2" d="M30.831 373c-.638 0-1.158-.234-1.158-.521v-15c0-.288.52-.519 1.158-.519s1.154.232 1.154.519v15c0 .288-.515.521-1.154.521z" class="cls-10" transform="translate(-29.673 -356.964)"/>
        </g>
        <g id="그룹_3202-2" transform="translate(541.85 1799.287)">
            <path id="패스_4547-2" d="M20.42 374.693c-.639 0-1.155-.232-1.155-.519v-9.229c0-.287.516-.521 1.155-.521s1.158.234 1.158.521v9.229c0 .286-.52.519-1.158.519z" class="cls-10" transform="translate(-19.265 -364.423)"/>
        </g>
        <g id="그룹_3203-2" transform="translate(532.908 1802.626)">
            <path id="패스_4548-2" d="M10.01 376.654c-.638 0-1.158-.232-1.158-.519v-2.55c0-.288.52-.521 1.158-.521s1.159.234 1.159.521v2.55c.001.287-.52.519-1.159.519z" class="cls-10" transform="translate(-8.852 -373.063)"/>
        </g>
        <g id="그룹_3204-2" transform="translate(523.972 1801.53)">
            <path id="패스_4549-2" d="M-.4 376.012c-.639 0-1.158-.234-1.158-.521v-4.744c0-.287.52-.519 1.158-.519s1.154.232 1.154.519v4.744c.003.287-.513.521-1.154.521z" class="cls-10" transform="translate(1.555 -370.227)"/>
        </g>
        <g id="그룹_3205-2" transform="translate(515 1802.599)">
            <path id="패스_4550-2" d="M-10.845 376.64c-.638 0-1.158-.232-1.158-.521v-2.605c0-.287.52-.519 1.158-.519s1.159.232 1.159.519v2.605c.001.289-.52.521-1.159.521z" class="cls-10" transform="translate(12.003 -372.994)"/>
        </g>
        <g id="그룹_3206-2" transform="translate(622.292 1799.447)">
            <path id="패스_4551-2" d="M114.1 374.786c-.639 0-1.158-.232-1.158-.519v-8.909c0-.287.52-.521 1.158-.521s1.158.234 1.158.521v8.909c.005.287-.516.519-1.158.519z" class="cls-10" transform="translate(-112.946 -364.836)"/>
        </g>
        <g id="그룹_3207-2" transform="translate(613.354 1794.366)">
            <path id="패스_4552-2" d="M103.7 371.8c-.638 0-1.158-.234-1.158-.521V352.21c0-.288.52-.519 1.158-.519s1.154.232 1.154.519v19.072c-.004.288-.52.518-1.154.518z" class="cls-10" transform="translate(-102.538 -351.691)"/>
        </g>
        <g id="그룹_3208-2" transform="translate(604.417 1798.809)">
            <path id="패스_4553-2" d="M93.284 374.414c-.638 0-1.154-.234-1.154-.521v-10.186c0-.288.516-.519 1.154-.519s1.158.232 1.158.519v10.186c0 .287-.516.521-1.158.521z" class="cls-10" transform="translate(-92.13 -363.187)"/>
        </g>
        <g id="그룹_3209-2" transform="translate(595.48 1786)">
            <path id="패스_4554-2" d="M82.876 364.116c-.638 0-1.154-.221-1.154-.493v-35.861c0-.271.516-.491 1.154-.491s1.158.22 1.158.491v35.861c0 .272-.519.493-1.158.493z" class="cls-10" transform="translate(-81.722 -327.271)"/>
        </g>
        <g id="그룹_3210-2" transform="translate(586.539 1789.477)">
            <path id="패스_4555-2" d="M72.468 368.933c-.639 0-1.159-.234-1.159-.521v-28.85c0-.288.52-.519 1.159-.519s1.154.232 1.154.519v28.849c0 .289-.516.522-1.154.522z" class="cls-10" transform="translate(-71.309 -339.043)"/>
        </g>
        <g id="그룹_3211-2" transform="translate(577.603 1797.318)">
            <path id="패스_4556-2" d="M62.06 373.536c-.642 0-1.158-.234-1.158-.521v-13.167c0-.288.515-.521 1.158-.521s1.155.234 1.155.521v13.166c-.001.286-.515.522-1.155.522z" class="cls-10" transform="translate(-60.902 -359.327)"/>
        </g>
        <g id="그룹_3212-2" transform="translate(568.665 1799.447)">
            <path id="패스_4557-2" d="M51.648 374.786c-.639 0-1.154-.232-1.154-.519v-8.909c0-.287.515-.521 1.154-.521s1.158.234 1.158.521v8.909c0 .287-.52.519-1.158.519z" class="cls-10" transform="translate(-50.494 -364.836)"/>
        </g>
        <g id="그룹_3222-2" transform="translate(631.232 1795.802)">
            <path id="패스_4567-2" d="M124.513 372.648c-.639 0-1.155-.234-1.155-.521v-16.2c0-.289.516-.521 1.155-.521s1.158.232 1.158.521v16.2c0 .287-.52.521-1.158.521z" class="cls-10" transform="translate(-123.358 -355.408)"/>
        </g>
        <g id="그룹_3191-2" transform="translate(604.568 1853)">
            <path id="패스_4536-2" d="M311.883 342.779c-.642 0-1.157-.159-1.157-.355v-38.038c0-.2.515-.353 1.157-.353s1.155.158 1.155.353v38.038c-.001.196-.517.355-1.155.355z" class="cls-10" transform="translate(-310.725 -304.033)"/>
        </g>
        <g id="그룹_3192-2" transform="translate(595.631 1853.409)">
            <path id="패스_4537-2" d="M301.471 363.8c-.638 0-1.154-.22-1.154-.492v-36.946c0-.272.516-.493 1.154-.493s1.158.222 1.158.493V363.3c0 .276-.52.5-1.158.5z" class="cls-10" transform="translate(-300.317 -325.868)"/>
        </g>
        <g id="그룹_3193-2" transform="translate(586.689 1858.337)">
            <path id="패스_4538-2" d="M291.062 369.467c-.638 0-1.158-.234-1.158-.521v-27.03c0-.287.52-.519 1.158-.519s1.158.232 1.158.519v27.03c.001.287-.52.521-1.158.521z" class="cls-10" transform="translate(-289.904 -341.396)"/>
        </g>
        <g id="그룹_3194-2" transform="translate(577.753 1862.123)">
            <path id="패스_4539-2" d="M280.654 371.689c-.638 0-1.158-.232-1.158-.522V351.71c0-.287.52-.521 1.158-.521s1.154.234 1.154.521v19.457c0 .289-.515.522-1.154.522z" class="cls-10" transform="translate(-279.496 -351.189)"/>
        </g>
        <g id="그룹_3195-2" transform="translate(568.815 1864.586)">
            <path id="패스_4540-2" d="M270.242 373.137c-.638 0-1.154-.234-1.154-.521v-14.533c0-.287.516-.519 1.154-.519s1.159.232 1.159.519v14.533c-.001.284-.516.521-1.159.521z" class="cls-10" transform="translate(-269.088 -357.564)"/>
        </g>
        <g id="그룹_3196-2" transform="translate(559.875 1858.478)">
            <path id="패스_4541-2" d="M259.833 369.55c-.638 0-1.158-.234-1.158-.521V342.28c0-.287.519-.519 1.158-.519s1.158.232 1.158.519v26.749c.001.287-.519.521-1.158.521z" class="cls-10" transform="translate(-258.676 -341.76)"/>
        </g>
        <g id="그룹_3197-2" transform="translate(550.938 1862.09)">
            <path id="패스_4542-2" d="M249.426 371.671c-.639 0-1.158-.234-1.158-.521v-19.525c0-.287.52-.519 1.158-.519s1.154.232 1.154.519v19.525c0 .287-.516.521-1.154.521z" class="cls-10" transform="translate(-248.268 -351.105)"/>
        </g>
        <g id="그룹_3198-2" transform="translate(542 1853.951)">
            <path id="패스_4543-2" d="M239.018 364.116c-.642 0-1.158-.221-1.158-.493v-35.861c0-.271.516-.491 1.158-.491s1.154.22 1.154.491v35.861c0 .272-.516.493-1.154.493z" class="cls-10" transform="translate(-237.86 -327.271)"/>
        </g>
        <g id="그룹_3158-2" transform="translate(947 1853)">
            <path id="패스_4503-2" d="M322.29 324.7c-.638 0-1.158-.128-1.158-.285v-38.176c0-.157.52-.284 1.158-.284s1.155.127 1.155.284v38.177c0 .157-.516.284-1.155.284z" class="cls-9" transform="translate(-321.132 -285.955)"/>
        </g>
        <g id="그룹_3159-2" transform="translate(955.941 1855.949)">
            <path id="패스_4504-2" d="M332.7 336.358c-.639 0-1.155-.133-1.155-.3v-31.73c0-.163.516-.295 1.155-.295s1.157.132 1.157.295v31.734c0 .163-.519.296-1.157.296z" class="cls-9" transform="translate(-331.545 -304.033)"/>
        </g>
        <g id="그룹_3160-2" transform="translate(964.878 1856.358)">
            <path id="패스_4505-2" d="M343.107 357.374c-.638 0-1.154-.183-1.154-.408v-30.688c0-.226.516-.41 1.154-.41s1.158.184 1.158.41v30.688c0 .225-.516.408-1.158.408z" class="cls-9" transform="translate(-341.953 -325.868)"/>
        </g>
        <g id="그룹_3161-2" transform="translate(973.815 1858.174)">
            <path id="패스_4506-2" d="M353.519 369.467c-.638 0-1.158-.234-1.158-.521v-27.03c0-.287.52-.519 1.158-.519s1.154.232 1.154.519v27.03c0 .287-.516.521-1.154.521z" class="cls-9" transform="translate(-352.361 -341.396)"/>
        </g>
        <g id="그룹_3162-2" transform="translate(982.753 1861.929)">
            <path id="패스_4507-2" d="M363.927 371.689c-.639 0-1.158-.232-1.158-.522V351.71c0-.287.519-.521 1.158-.521s1.158.234 1.158.521v19.457c.001.289-.52.522-1.158.522z" class="cls-9" transform="translate(-362.769 -351.189)"/>
        </g>
        <g id="그룹_3163-2" transform="translate(991.693 1864.382)">
            <path id="패스_4508-2" d="M374.335 373.137c-.638 0-1.154-.234-1.154-.521v-14.533c0-.287.516-.519 1.154-.519s1.159.232 1.159.519v14.533c0 .284-.52.521-1.159.521z" class="cls-9" transform="translate(-373.181 -357.564)"/>
        </g>
        <g id="그룹_3164-2" transform="translate(1000.631 1858.313)">
            <path id="패스_4509-2" d="M384.748 369.55c-.643 0-1.159-.234-1.159-.521V342.28c0-.287.516-.519 1.159-.519s1.154.232 1.154.519v26.749c-.002.287-.516.521-1.154.521z" class="cls-9" transform="translate(-383.589 -341.76)"/>
        </g>
        <g id="그룹_3165-2" transform="translate(1009.567 1861.897)">
            <path id="패스_4510-2" d="M395.155 371.671c-.638 0-1.158-.234-1.158-.521v-19.525c0-.287.52-.519 1.158-.519s1.158.232 1.158.519v19.525c.001.287-.519.521-1.158.521z" class="cls-9" transform="translate(-393.997 -351.105)"/>
        </g>
        <g id="그룹_3166-2" transform="translate(1018.509 1856.9)">
            <path id="패스_4511-2" d="M405.564 357.694c-.638 0-1.154-.183-1.154-.407v-29.611c0-.224.516-.405 1.154-.405s1.158.181 1.158.405v29.611c0 .225-.522.407-1.158.407z" class="cls-9" transform="translate(-404.41 -327.271)"/>
        </g>
        <g id="그룹_3167-2" transform="translate(533 1927.277)">
            <path id="패스_4512-2" d="M415.972 370.092c-.638 0-1.154-.234-1.154-.521v-24.9c0-.288.516-.52 1.154-.52s1.158.232 1.158.52v24.9c0 .287-.516.521-1.158.521z" class="cls-10" transform="translate(-414.818 -344.148)"/>
        </g>
        <g id="그룹_3181-2" transform="translate(541.938 1929.473)">
            <path id="패스_4526-2" d="M426.384 371.38c-.639 0-1.158-.232-1.158-.519v-20.512c0-.287.519-.52 1.158-.52s1.154.232 1.154.52v20.511c0 .288-.516.52-1.154.52z" class="cls-10" transform="translate(-425.226 -349.83)"/>
        </g>
        <g id="그룹_3182-2" transform="translate(550.873 1923)">
            <path id="패스_4527-2" d="M436.792 346.8c-.639 0-1.159-.16-1.159-.355v-33.786c0-.2.52-.354 1.159-.354s1.158.158 1.158.354v33.787c.001.196-.52.354-1.158.354z" class="cls-10" transform="translate(-435.633 -312.305)"/>
        </g>
        <g id="그룹_3183-2" transform="translate(559.815 1926.354)">
            <path id="패스_4528-2" d="M447.2 369.55c-.639 0-1.154-.234-1.154-.521V342.28c0-.287.515-.519 1.154-.519s1.157.232 1.157.519v26.749c.002.287-.518.521-1.157.521z" class="cls-10" transform="translate(-446.047 -341.76)"/>
        </g>
        <g id="그룹_3184-2" transform="translate(568.752 1923.206)">
            <path id="패스_4529-2" d="M457.612 367.7c-.638 0-1.158-.234-1.158-.522v-33.04c0-.289.52-.521 1.158-.521s1.154.232 1.154.521v33.042c0 .287-.515.52-1.154.52z" class="cls-10" transform="translate(-456.454 -333.617)"/>
        </g>
        <g id="그룹_3185-2" transform="translate(577.689 1929.045)">
            <path id="패스_4530-2" d="M468.02 371.128c-.638 0-1.158-.232-1.158-.519v-21.366c0-.287.52-.521 1.158-.521s1.158.234 1.158.521v21.365c.001.292-.52.52-1.158.52z" class="cls-10" transform="translate(-466.862 -348.722)"/>
        </g>
        <g id="그룹_3186-2" transform="translate(586.631 1933.473)">
            <path id="패스_4531-2" d="M478.429 373.729c-.639 0-1.154-.232-1.154-.519V360.7c0-.287.515-.521 1.154-.521s1.158.234 1.158.521v12.51c0 .29-.519.519-1.158.519z" class="cls-10" transform="translate(-477.275 -360.179)"/>
        </g>
        <g id="그룹_3187-2" transform="translate(595.568 1934.66)">
            <path id="패스_4532-2" d="M488.841 374.426c-.643 0-1.158-.232-1.158-.519v-10.135c0-.287.515-.521 1.158-.521s1.154.234 1.154.521v10.134c.005.288-.516.52-1.154.52z" class="cls-10" transform="translate(-487.683 -363.251)"/>
        </g>
        <g id="그룹_3188-2" transform="translate(604.505 1925.146)">
            <path id="패스_4533-2" d="M499.249 368.838c-.639 0-1.158-.232-1.158-.521v-29.162c0-.287.52-.521 1.158-.521s1.154.234 1.154.521v29.162c-.003.289-.516.521-1.154.521z" class="cls-10" transform="translate(-498.091 -338.634)"/>
        </g>
        <g id="그룹_3189-2" transform="translate(613.445 1929.349)">
            <path id="패스_4534-2" d="M509.657 371.307c-.638 0-1.154-.232-1.154-.519v-20.757c0-.287.516-.521 1.154-.521s1.158.234 1.158.521v20.756c0 .288-.515.52-1.158.52z" class="cls-10" transform="translate(-508.503 -349.51)"/>
        </g>
        <g id="그룹_3168-2" transform="translate(996.505 1926.929)">
            <path id="패스_4513-2" d="M603.342 369.784c-.638 0-1.158-.232-1.158-.52V343.32c0-.287.52-.521 1.158-.521s1.154.234 1.154.521v25.944c.004.288-.516.52-1.154.52z" class="cls-9" transform="translate(-602.184 -342.799)"/>
        </g>
        <g id="그룹_3169-2" transform="translate(1005.442 1932.404)">
            <path id="패스_4514-2" d="M613.75 373c-.639 0-1.158-.234-1.158-.521v-15c0-.288.52-.519 1.158-.519s1.158.232 1.158.519v15c.001.288-.52.521-1.158.521z" class="cls-9" transform="translate(-612.592 -356.964)"/>
        </g>
        <g id="그룹_3170-2" transform="translate(1014.384 1935.287)">
            <path id="패스_4515-2" d="M624.159 374.693c-.639 0-1.154-.232-1.154-.519v-9.229c0-.287.515-.521 1.154-.521s1.157.234 1.157.521v9.229c.001.286-.516.519-1.157.519z" class="cls-9" transform="translate(-623.005 -364.423)"/>
        </g>
        <g id="그룹_3171-2" transform="translate(1023.32 1938.626)">
            <path id="패스_4516-2" d="M634.57 376.654c-.638 0-1.158-.232-1.158-.519v-2.55c0-.288.52-.521 1.158-.521s1.155.234 1.155.521v2.55c0 .287-.516.519-1.155.519z" class="cls-9" transform="translate(-633.412 -373.063)"/>
        </g>
        <g id="그룹_3172-2" transform="translate(1032.258 1937.53)">
            <path id="패스_4517-2" d="M644.978 376.012c-.638 0-1.158-.234-1.158-.521v-4.744c0-.287.52-.519 1.158-.519s1.158.232 1.158.519v4.744c.001.287-.519.521-1.158.521z" class="cls-9" transform="translate(-643.82 -370.227)"/>
        </g>
        <g id="그룹_3173-2" transform="translate(1041.229 1938.599)">
            <path id="패스_4518-2" d="M655.425 376.64c-.638 0-1.158-.232-1.158-.521v-2.605c0-.287.52-.519 1.158-.519s1.155.232 1.155.519v2.605c0 .289-.516.521-1.155.521z" class="cls-9" transform="translate(-654.267 -372.994)"/>
        </g>
        <g id="그룹_3174-2" transform="translate(933.938 1935.447)">
            <path id="패스_4519-2" d="M530.477 374.786c-.638 0-1.158-.232-1.158-.519v-8.909c0-.287.52-.521 1.158-.521s1.154.234 1.154.521v8.909c0 .287-.515.519-1.154.519z" class="cls-9" transform="translate(-529.319 -364.836)"/>
        </g>
        <g id="그룹_3175-2" transform="translate(942.874 1930.366)">
            <path id="패스_4520-2" d="M540.885 371.8c-.639 0-1.158-.234-1.158-.521V352.21c0-.288.52-.519 1.158-.519s1.158.232 1.158.519v19.072c.001.288-.52.518-1.158.518z" class="cls-9" transform="translate(-539.727 -351.691)"/>
        </g>
        <g id="그룹_3176-2" transform="translate(951.816 1934.809)">
            <path id="패스_4521-2" d="M551.294 374.414c-.638 0-1.154-.234-1.154-.521v-10.186c0-.288.516-.519 1.154-.519s1.158.232 1.158.519v10.186c0 .287-.52.521-1.158.521z" class="cls-9" transform="translate(-550.14 -363.187)"/>
        </g>
        <g id="그룹_3177-2" transform="translate(960.753 1922)">
            <path id="패스_4522-2" d="M561.706 364.116c-.643 0-1.158-.221-1.158-.493v-35.861c0-.271.515-.491 1.158-.491s1.154.22 1.154.491v35.861c0 .272-.516.493-1.154.493z" class="cls-9" transform="translate(-560.548 -327.271)"/>
        </g>
        <g id="그룹_3178-2" transform="translate(969.689 1925.477)">
            <path id="패스_4523-2" d="M572.113 368.933c-.638 0-1.158-.234-1.158-.521v-28.85c0-.288.52-.519 1.158-.519s1.154.232 1.154.519v28.849c0 .289-.515.522-1.154.522z" class="cls-9" transform="translate(-570.955 -339.043)"/>
        </g>
        <g id="그룹_3179-2" transform="translate(978.631 1933.318)">
            <path id="패스_4524-2" d="M582.522 373.536c-.638 0-1.154-.234-1.154-.521v-13.167c0-.288.516-.521 1.154-.521s1.158.234 1.158.521v13.166c0 .286-.519.522-1.158.522z" class="cls-9" transform="translate(-581.368 -359.327)"/>
        </g>
        <g id="그룹_3180-2" transform="translate(987.568 1935.447)">
            <path id="패스_4525-2" d="M592.93 374.786c-.638 0-1.154-.232-1.154-.519v-8.909c0-.287.516-.521 1.154-.521s1.158.234 1.158.521v8.909c.001.287-.515.519-1.158.519z" class="cls-9" transform="translate(-591.776 -364.836)"/>
        </g>
        <g id="그룹_3190-2" transform="translate(925 1931.802)">
            <path id="패스_4535-2" d="M520.065 372.648c-.638 0-1.154-.234-1.154-.521v-16.2c0-.289.516-.521 1.154-.521s1.158.232 1.158.521v16.2c0 .287-.516.521-1.158.521z" class="cls-9" transform="translate(-518.911 -355.408)"/>
        </g>
        <path id="패스_4783" d="M-119.376-6.75c3.06-.378 4.968-1.53 5.958-3.114.99 1.584 2.916 2.736 5.976 3.114l1.044-2.268c-3.528-.4-4.914-1.818-5.22-3.132h4.482v-2.268h-12.618v2.268h4.554c-.306 1.314-1.692 2.736-5.22 3.132zm13.608.72h-15.3v2.286h6.12v5.472h2.916v-5.472h6.264zm1.8-7.92v2.286h5.094c-.4 2.052-2.25 3.762-5.85 4.7l1.188 2.268c5.148-1.386 7.83-4.536 7.83-9.252zm4.626 9.522h-2.916v5.886h11.61V-.828h-8.694zm8.208-6.264v-4.5h-2.916v11.97h2.916v-5.112h2.124v-2.358zm13.68-2.736h-3.6v-1.656h-2.916v1.656h-3.6v2.25h10.116zm-5.04 4.914c.9 0 1.512.324 1.512 1.026 0 .72-.612 1.044-1.512 1.044-.918 0-1.53-.324-1.53-1.044 0-.702.612-1.026 1.53-1.026zm1.422 4.068a3.258 3.258 0 0 0 2.862-3.042c0-1.89-1.782-3.2-4.284-3.2-2.52 0-4.3 1.314-4.3 3.2 0 1.494 1.116 2.628 2.826 3.042v1.206c-1.386.036-2.736.036-3.924.036l.342 2.322A55.86 55.86 0 0 0-77.13-1.6l-.216-2.07c-1.206.144-2.466.252-3.726.324zm4.482-10.728V1.692h2.916v-16.866zm10.584 1.062a4.41 4.41 0 0 0-4.716 4.248A4.413 4.413 0 0 0-66.006-5.6c2.664 0 4.734-1.8 4.734-4.266 0-2.446-2.07-4.246-4.734-4.246zm0 2.466a1.711 1.711 0 0 1 1.89 1.782 1.715 1.715 0 0 1-1.89 1.8 1.709 1.709 0 0 1-1.872-1.8 1.705 1.705 0 0 1 1.872-1.782zm5.976-3.564V1.746h2.916V-15.21zM-71.01-1.53a54.01 54.01 0 0 0 10.35-.77l-.2-2.07a80.381 80.381 0 0 1-10.476.522zm21.96-.4h8.892v3.64h2.916v-5.922H-49.05zm7.434-5.634v-1.508h4.554v-2.286h-8.964v-3.636h-2.916v5.922h4.41v1.512h-6.174v2.286h15.318V-7.56zm15.1-7.326c-3.744 0-6.21 1.26-6.21 3.33 0 2.088 2.466 3.348 6.21 3.348s6.21-1.26 6.21-3.348c.006-2.066-2.464-3.326-6.208-3.326zm0 2.2c2.088 0 3.2.342 3.2 1.134 0 .81-1.116 1.152-3.2 1.152s-3.2-.342-3.2-1.152c-.002-.792 1.116-1.134 3.202-1.134zm-5.92 8.39v5.83h11.754V-4.3zm8.892 2.25v1.33h-6.03v-1.332zm-10.62-5.454v2.268h15.282v-2.27zm20.844-3.978h1.17v7.072l-1.17.054zm3.978 0H-8.1v-2.288h-9.27v2.286h1.242V-4.3h-1.692l.288 2.322a57.337 57.337 0 0 0 9.918-.684l-.144-2.108c-.522.072-1.044.126-1.584.18zm7.38 2.5H-4.23v-6.192h-2.916V1.71h2.916v-8.316h2.268zm15.062-6.21h-2.912v8.352H13.1zM1.944-10.854c0-1.062.756-1.584 1.782-1.584s1.782.522 1.782 1.584a1.573 1.573 0 0 1-1.782 1.6 1.573 1.573 0 0 1-1.782-1.6zm6.372 0c0-2.268-1.98-3.906-4.59-3.906s-4.59 1.638-4.59 3.906c0 2.286 1.98 3.924 4.59 3.924s4.59-1.638 4.59-3.924zM4.536-.684v-.63H13.1v-4.9H1.638v2.2h8.586v.63H1.656V1.53h11.808V-.684zm10.6 3.618h9.794V1.152h-9.792zM34.578-7.488V-5.8h2.754v.288h2.916v-9.7h-2.916v7.722zm-3.42-5.634c.99 0 1.566.2 1.566.648 0 .486-.576.666-1.566.666-.972 0-1.548-.18-1.548-.666 0-.45.576-.648 1.548-.648zm0 3.186c2.538 0 4.266-.99 4.266-2.538 0-1.512-1.728-2.52-4.266-2.52-2.52 0-4.248 1.008-4.248 2.52 0 1.548 1.728 2.538 4.248 2.538zm-1.512 4.428h2.916V-7.65c1.386-.072 2.772-.2 4.158-.4l-.162-1.746c-3.51.324-7.452.306-10.71.306l.306 1.962c1.1 0 2.268 0 3.492-.018zm1.422 5.184v-.522h9.18V-5.04H28.17v1.926h9.2v.486h-9.18v4.266h12.364V-.324zm17.37-5.022a9.108 9.108 0 0 0 1.584.126 9.108 9.108 0 0 0 1.584-.126v2.862h-3.168zm1.584-6.894c2.16 0 3.528.828 3.528 2.394 0 1.548-1.368 2.394-3.528 2.394s-3.528-.848-3.528-2.394c0-1.566 1.368-2.394 3.528-2.394zM54.5-2.484v-3.924a4.061 4.061 0 0 0 1.93-3.438c0-2.826-2.736-4.644-6.408-4.644s-6.408 1.818-6.408 4.644a4.061 4.061 0 0 0 1.926 3.438v3.924h-3.15v2.322h15.282v-2.322zm18.58-12.708h-2.916v8.352h2.916zm-11.16 4.338c0-1.062.756-1.584 1.782-1.584s1.782.522 1.782 1.584a1.573 1.573 0 0 1-1.782 1.6 1.573 1.573 0 0 1-1.782-1.6zm6.372 0c0-2.268-1.98-3.906-4.59-3.906s-4.59 1.638-4.59 3.906c0 2.286 1.98 3.924 4.59 3.924s4.59-1.638 4.59-3.924zm-3.78 10.17v-.63h8.568v-4.9H61.614v2.2H70.2v.63h-8.568V1.53H73.44V-.684zM78.03.252a1.919 1.919 0 0 0 1.908-2 1.914 1.914 0 0 0-1.908-1.98 1.9 1.9 0 0 0-1.908 1.98 1.908 1.908 0 0 0 1.908 2zM82.476 0h3.186v-6.84a2.474 2.474 0 0 1 1.638-.918c.81 0 1.17.414 1.17 1.818V0h3.222v-6.84a2.474 2.474 0 0 1 1.638-.918c.81 0 1.17.414 1.17 1.818V0h3.2v-6.336c0-2.556-.972-4.158-3.2-4.158A4.47 4.47 0 0 0 91.3-8.8a2.809 2.809 0 0 0-2.808-1.692 4.225 4.225 0 0 0-3.114 1.548H85.3l-.216-1.3h-2.61zm17.73 3.726h3.186V.792l-.09-1.6a3.363 3.363 0 0 0 2.376 1.06c2.2 0 4.3-2.016 4.3-5.544 0-3.15-1.548-5.2-4-5.2a4.451 4.451 0 0 0-2.88 1.242h-.072l-.216-.99h-2.61zm4.716-6.1a2.238 2.238 0 0 1-1.53-.594V-7.02a2.191 2.191 0 0 1 1.638-.864c1.134 0 1.656.846 1.656 2.646 0 2.052-.792 2.862-1.764 2.862zM115.776.252c2.664 0 4.95-1.4 4.95-3.906a3.309 3.309 0 0 0-2.592-3.258V-7a3.069 3.069 0 0 0 2.16-2.952c0-2.394-1.818-3.69-4.59-3.69a6.3 6.3 0 0 0-4.158 1.656l1.62 1.962a3.563 3.563 0 0 1 2.394-1.116c.99 0 1.53.5 1.53 1.422 0 1.062-.72 1.764-3.006 1.764v2.25c2.808 0 3.42.684 3.42 1.836 0 1.008-.81 1.53-2.052 1.53a4.088 4.088 0 0 1-2.79-1.3l-1.476 2.018a5.747 5.747 0 0 0 4.59 1.872z" class="cls-7" transform="translate(526.783 1603.002)"/>
    </g>
</svg>
