<?xml version="1.0" encoding="utf-8"?>
<!-- Generator: Adobe Illustrator 24.2.1, SVG Export Plug-In . SVG Version: 6.00 Build 0)  -->
<svg version="1.1" xmlns="http://www.w3.org/2000/svg" xmlns:xlink="http://www.w3.org/1999/xlink" x="0px" y="0px"
	 viewBox="0 0 20 20" style="enable-background:new 0 0 20 20;" xml:space="preserve">
<style type="text/css">
	.st0{display:none;}
	.st1{display:inline;}
	.st2{fill:#35384D;}
</style>
<g id="레이어_2" class="st0">
	<g class="st1">
		<rect x="40" width="20" height="20"/>
	</g>
</g>
<g id="레이어_1">
	<g>
		<g>
			<path class="st2" d="M19.65,4.24c-0.24-1.06-1.11-1.85-2.16-1.97C15.01,2,12.5,2,10,2C7.5,2,4.99,2,2.51,2.28
				C1.47,2.39,0.6,3.18,0.35,4.24C0,5.76,0,8.41,0,9.97s0,4.21,0.35,5.73c0.24,1.06,1.11,1.85,2.16,1.97
				c2.48,0.28,4.99,0.28,7.49,0.28c2.5,0,5.01,0,7.49-0.28c1.05-0.12,1.92-0.9,2.16-1.97C20,14.18,20,11.53,20,9.97
				C20,8.41,20,5.76,19.65,4.24z M7.42,13.07c0-2.21,0-4.4,0-6.61c2.12,1.11,4.23,2.2,6.36,3.32C11.65,10.88,9.54,11.97,7.42,13.07z
				"/>
		</g>
	</g>
</g>
</svg>
