<?xml version="1.0" encoding="UTF-8"?>
<svg width="140px" height="28px" viewBox="0 0 140 28" version="1.1" xmlns="http://www.w3.org/2000/svg" xmlns:xlink="http://www.w3.org/1999/xlink">
    <!-- Generator: Sketch 57.1 (83088) - https://sketch.com -->
    <title>logo_maumai_blue</title>
    <desc>Created with Sketch.</desc>
    <defs>
        <polygon id="path-1" points="0 0.196658824 26.9583509 0.196658824 26.9583509 19.5718353 0 19.5718353"></polygon>
        <polygon id="path-3" points="0.66225731 0.390435294 17.9993333 0.390435294 17.9993333 19.7647059 0.66225731 19.7647059"></polygon>
        <polygon id="path-5" points="0.228175439 0.228364706 4.09414035 0.228364706 4.09414035 4.11764706 0.228175439 4.11764706"></polygon>
        <polygon id="path-7" points="0.14728655 0.640705882 4.97687719 0.640705882 4.97687719 5.49854118 0.14728655 5.49854118"></polygon>
    </defs>
    <g id="Symbols" stroke="none" stroke-width="1" fill="none" fill-rule="evenodd">
        <g id="Head_landing" transform="translate(-50.000000, -23.000000)">
            <g id="logo_maumai_blue" transform="translate(50.000000, 23.000000)">
                <g id="Group-3" transform="translate(0.000000, 7.594753)">
                    <mask id="mask-2" fill="white">
                        <use xlink:href="#path-1"></use>
                    </mask>
                    <g id="Clip-2"></g>
                </g>
                <g id="Group-8" transform="translate(53.216374, 7.594753)">
                    <mask id="mask-4" fill="white">
                        <use xlink:href="#path-3"></use>
                    </mask>
                    <g id="Clip-7"></g>
                </g>
                <g id="Group-13" transform="translate(105.614035, 23.241812)">
                    <mask id="mask-6" fill="white">
                        <use xlink:href="#path-5"></use>
                    </mask>
                    <g id="Clip-12"></g>
                </g>
                <g id="Group-16" transform="translate(134.269006, 0.182988)">
                    <mask id="mask-8" fill="white">
                        <use xlink:href="#path-7"></use>
                    </mask>
                    <g id="Clip-15"></g>
                </g>
                <path d="M107.775193,23.4701765 C108.841977,23.4701765 109.708175,24.3422941 109.708175,25.4145294 C109.708175,26.4875882 108.841977,27.3597059 107.775193,27.3597059 C106.709228,27.3597059 105.842211,26.4875882 105.842211,25.4145294 C105.842211,24.3422941 106.709228,23.4701765 107.775193,23.4701765 Z M136.831497,0.823529412 C138.162725,0.823529412 139.245883,1.91305882 139.245883,3.25294118 C139.245883,4.592 138.162725,5.68152941 136.831497,5.68152941 C135.49945,5.68152941 134.416292,4.592 134.416292,3.25294118 C134.416292,1.91305882 135.49945,0.823529412 136.831497,0.823529412 Z" id="Fill-299" fill="#0080DF"></path>
                <path d="M56.7752398,7.98518824 C57.3098596,7.98518824 57.7454152,8.42330588 57.7454152,8.96271765 L57.7454152,8.96271765 L57.7454152,18.6400118 C57.7454152,21.3033059 59.8994503,23.4700118 62.5479883,23.4700118 C65.1940702,23.4700118 67.3481053,21.3033059 67.3481053,18.6400118 L67.3481053,18.6400118 L67.3481053,8.96271765 C67.3481053,8.42330588 67.7844795,7.98518824 68.3199181,7.98518824 L68.3199181,7.98518824 L70.2438947,7.98518824 C70.7793333,7.98518824 71.2157076,8.42330588 71.2157076,8.96271765 L71.2157076,8.96271765 L71.2157076,18.6400118 C71.2157076,19.8176588 70.9864678,20.9590706 70.534538,22.0346 C70.0981637,23.0730706 69.4734854,24.0053059 68.6768772,24.8057765 C67.8810877,25.6062471 66.9534854,26.2354235 65.9219064,26.6751882 C64.8534854,27.1297765 63.7171111,27.3595412 62.5479883,27.3595412 C61.3772281,27.3595412 60.2416725,27.1297765 59.1740702,26.6751882 C58.1408538,26.2354235 57.2132515,25.6062471 56.417462,24.8057765 C55.6216725,24.0053059 54.9961754,23.0730706 54.5598012,22.0346 C54.1078713,20.9590706 53.8786316,19.8176588 53.8786316,18.6400118 L53.8786316,18.6400118 L53.8786316,8.96271765 C53.8786316,8.42330588 54.3150058,7.98518824 54.8496257,7.98518824 L54.8496257,7.98518824 Z M137.985228,7.81389412 C138.521485,7.81389412 138.957041,8.25201176 138.957041,8.79142353 L138.957041,8.79142353 L138.957041,26.1884824 C138.957041,26.7278941 138.521485,27.1668353 137.985228,27.1668353 L137.985228,27.1668353 L135.677275,27.1668353 C135.140199,27.1668353 134.704643,26.7278941 134.704643,26.1884824 L134.704643,26.1884824 L134.704643,8.79142353 C134.704643,8.25201176 135.140199,7.81389412 135.677275,7.81389412 L135.677275,7.81389412 Z" id="Fill-300" fill="#0080DF"></path>
                <path d="M40.4187368,7.98502353 C41.7188538,7.98502353 42.9804912,8.24114118 44.1676257,8.74678824 C45.3146433,9.23431765 46.3437661,9.93267059 47.2287953,10.8229059 C48.1130058,11.7123176 48.8080936,12.7483176 49.2927719,13.9012588 C49.795462,15.0962 50.0492632,16.3644353 50.0492632,17.6722 L50.0492632,17.6722 L50.0492632,26.1883176 C50.0492632,26.7277294 49.6137076,27.1666706 49.078269,27.1666706 L49.078269,27.1666706 L47.1534737,27.1666706 C46.6172164,27.1666706 46.1816608,26.7277294 46.1816608,26.1883176 L46.1816608,26.1883176 L46.1816608,17.6722 C46.1816608,14.4769059 43.5961637,11.8753765 40.4187368,11.8753765 C37.2413099,11.8753765 34.6558129,14.4769059 34.6558129,17.6722 C34.6558129,20.8691412 37.2413099,23.4698471 40.4187368,23.4698471 C41.6017778,23.4698471 42.7414269,23.1099647 43.7116023,22.4297294 C43.875345,22.3152588 44.0677427,22.2543176 44.2666901,22.2543176 C44.8021287,22.2543176 45.2385029,22.6932588 45.2385029,23.2318471 L45.2385029,23.2318471 L45.2385029,25.4743176 C45.2385029,25.8490235 45.0321871,26.1833765 44.6989708,26.3505529 C43.3751111,27.0110235 41.8948772,27.3593765 40.4187368,27.3593765 C39.1186199,27.3593765 37.8578012,27.1040824 36.6706667,26.5984353 C35.5228304,26.1109059 34.4928889,25.4117294 33.6078596,24.5223176 C32.7236491,23.6329059 32.0301988,22.5969059 31.5447018,21.4431412 C31.0420117,20.2482 30.7873918,18.9807882 30.7873918,17.6722 C30.7873918,16.3644353 31.0420117,15.0962 31.5447018,13.9012588 C32.0301988,12.7483176 32.7236491,11.7123176 33.6078596,10.8229059 C34.4928889,9.93267059 35.5228304,9.23431765 36.6706667,8.74678824 C37.8578012,8.24114118 39.1186199,7.98502353 40.4187368,7.98502353 Z M19.2518012,7.79141176 C21.3108655,7.79141176 23.2454854,8.59764706 24.7011579,10.0618824 C26.1576491,11.5261176 26.9583509,13.4729412 26.9583509,15.5441176 L26.9583509,15.5441176 L26.9583509,26.1882353 C26.9583509,26.7284706 26.5227953,27.1665882 25.9873567,27.1665882 L25.9873567,27.1665882 L24.0625614,27.1665882 C23.5271228,27.1665882 23.0899298,26.7284706 23.0899298,26.1882353 L23.0899298,26.1882353 L23.0899298,15.5441176 C23.0899298,13.4144706 21.3681754,11.6817647 19.2518012,11.6817647 C17.1346082,11.6817647 15.4128538,13.4144706 15.4128538,15.5441176 L15.4128538,15.5441176 L15.4128538,26.1882353 C15.4128538,26.7284706 14.9772982,27.1665882 14.4410409,27.1665882 L14.4410409,27.1665882 L12.5162456,27.1665882 C11.9816257,27.1665882 11.5452515,26.7284706 11.5452515,26.1882353 L11.5452515,26.1882353 L11.5452515,15.5441176 C11.5452515,13.4144706 9.82267836,11.6817647 7.70630409,11.6817647 C5.58992982,11.6817647 3.86735673,13.4144706 3.86735673,15.5441176 L3.86735673,15.5441176 L3.86735673,26.1882353 C3.86735673,26.7284706 3.43180117,27.1665882 2.89554386,27.1665882 L2.89554386,27.1665882 L0.971567251,27.1665882 C0.436128655,27.1665882 -0.000245614035,26.7284706 -0.000245614035,26.1882353 L-0.000245614035,26.1882353 L-0.000245614035,15.5441176 C-0.000245614035,13.3189412 0.950280702,11.2 2.60899415,9.73 C4.02864327,8.47 5.81916959,7.79141176 7.69647953,7.79141176 C7.85940351,7.79141176 8.02396491,7.79635294 8.18934503,7.80705882 C10.2402222,7.93635294 12.1183509,8.86035294 13.4782339,10.4085882 C14.9412749,8.74505882 17.0453684,7.79141176 19.2518012,7.79141176 Z" id="Fill-301" fill="#0080DF"></path>
                <path d="M121.245076,7.98502353 C122.545193,7.98502353 123.80683,8.24114118 124.993965,8.74678824 C126.140164,9.23431765 127.170105,9.93267059 128.055135,10.8229059 C128.939345,11.7123176 129.633614,12.7483176 130.119111,13.9012588 C130.620982,15.0962 130.875602,16.3644353 130.875602,17.6722 L130.875602,17.6722 L130.875602,26.1883176 C130.875602,26.7277294 130.439228,27.1666706 129.903789,27.1666706 L129.903789,27.1666706 L127.978994,27.1666706 C127.443556,27.1666706 127.007181,26.7277294 127.007181,26.1883176 L127.007181,26.1883176 L127.007181,17.6722 C127.007181,14.4769059 124.422503,11.8753765 121.245076,11.8753765 C118.06683,11.8753765 115.481333,14.4769059 115.481333,17.6722 C115.481333,20.8691412 118.06683,23.4698471 121.245076,23.4698471 C122.428117,23.4698471 123.566947,23.1099647 124.537123,22.4297294 C124.701684,22.3152588 124.894082,22.2543176 125.093029,22.2543176 C125.629287,22.2543176 126.064023,22.6932588 126.064023,23.2318471 L126.064023,23.2318471 L126.064023,25.4743176 C126.064023,25.8490235 125.857708,26.1842 125.52531,26.3505529 C124.202269,27.0110235 122.721216,27.3593765 121.245076,27.3593765 C119.944959,27.3593765 118.683322,27.1040824 117.496187,26.5984353 C116.34917,26.1109059 115.318409,25.4117294 114.434199,24.5223176 C113.549988,23.6329059 112.856538,22.5969059 112.371041,21.4431412 C111.868351,20.2482 111.613731,18.9807882 111.613731,17.6722 C111.613731,16.3644353 111.868351,15.0962 112.371041,13.9012588 C112.856538,12.7483176 113.549988,11.7123176 114.434199,10.8229059 C115.318409,9.93267059 116.34917,9.23431765 117.496187,8.74678824 C118.683322,8.24114118 119.944959,7.98502353 121.245076,7.98502353 Z M94.2967953,7.79141176 C96.3558596,7.79141176 98.2912982,8.59764706 99.746152,10.0618824 C101.202643,11.5261176 102.003345,13.4729412 102.003345,15.5441176 L102.003345,15.5441176 L102.003345,26.1882353 C102.003345,26.7284706 101.567789,27.1665882 101.032351,27.1665882 L101.032351,27.1665882 L99.1083743,27.1665882 C98.5729357,27.1665882 98.1357427,26.7284706 98.1357427,26.1882353 L98.1357427,26.1882353 L98.1357427,15.5441176 C98.1357427,13.4144706 96.4139883,11.6817647 94.2967953,11.6817647 C92.1804211,11.6817647 90.4586667,13.4144706 90.4586667,15.5441176 L90.4586667,15.5441176 L90.4586667,26.1882353 C90.4586667,26.7284706 90.0222924,27.1665882 89.4868538,27.1665882 L89.4868538,27.1665882 L87.5628772,27.1665882 C87.0266199,27.1665882 86.5910643,26.7284706 86.5910643,26.1882353 L86.5910643,26.1882353 L86.5910643,15.5441176 C86.5910643,13.4144706 84.8684912,11.6817647 82.7512982,11.6817647 C80.634924,11.6817647 78.9123509,13.4144706 78.9123509,15.5441176 L78.9123509,15.5441176 L78.9123509,26.1882353 C78.9123509,26.7284706 78.477614,27.1665882 77.940538,27.1665882 L77.940538,27.1665882 L76.0173801,27.1665882 C75.4811228,27.1665882 75.0447485,26.7284706 75.0447485,26.1882353 L75.0447485,26.1882353 L75.0447485,15.5441176 C75.0447485,13.3189412 75.9952749,11.2008235 77.6539883,9.73 C79.0736374,8.47 80.8649825,7.79141176 82.7414737,7.79141176 C82.9052164,7.79141176 83.0689591,7.79635294 83.2343392,7.80705882 C85.2852164,7.93635294 87.163345,8.86035294 88.5240468,10.4085882 C89.986269,8.74505882 92.0903626,7.79141176 94.2967953,7.79141176 Z" id="Fill-302" fill="#0080DF"></path>
            </g>
        </g>
    </g>
</svg>