<?xml version="1.0" encoding="UTF-8"?>
<svg width="16px" height="18px" viewBox="0 0 16 18" version="1.1" xmlns="http://www.w3.org/2000/svg" xmlns:xlink="http://www.w3.org/1999/xlink">
    <!-- Generator: Sketch 53.2 (72643) - https://sketchapp.com -->
    <title>ico_eng_1</title>
    <desc>Created with Sketch.</desc>
    <g id="Page-1" stroke="none" stroke-width="1" fill="none" fill-rule="evenodd">
        <g id="new_console_menu_icons_puble" transform="translate(-22.000000, -360.000000)">
            <g id="ico_eng_1" transform="translate(22.000000, 360.000000)">
                <path d="M3.78646914,9.9476642 C3.90350617,9.8305284 3.98103704,9.68297284 4.01718519,9.52475062 C4.0317037,9.46094815 4.04128395,9.39596049 4.04128395,9.32978765 C4.04128395,9.26361481 4.0317037,9.1985284 4.01718519,9.13482469 C3.98103704,8.97660247 3.90350617,8.82904691 3.78646914,8.71210864 C3.68276543,8.60721975 3.55022222,8.53996049 3.40888889,8.50272593 C3.11279012,8.42499753 2.77432099,8.49235556 2.5545679,8.71210864 C2.39051852,8.87615802 2.2962963,9.0993679 2.2962963,9.32978765 C2.2962963,9.56020741 2.39051852,9.78341728 2.5545679,9.9476642 C2.71871605,10.108158 2.94192593,10.2022815 3.16879012,10.2022815 C3.2505679,10.2022815 3.33076543,10.1865778 3.40888889,10.1640593 C3.55071605,10.1231704 3.68296296,10.0511704 3.78646914,9.9476642" id="Fill-1" fill="#FB9223"></path>
                <path d="M3.17231605,5.28148148 C3.39918025,5.28148148 3.62594568,5.18716049 3.78643951,5.02320988 C3.95058765,4.86261728 4.04125432,4.63565432 4.04125432,4.40898765 C4.04125432,4.17866667 3.95058765,3.95160494 3.78643951,3.79111111 C3.46199506,3.46666667 2.87918025,3.46666667 2.55453827,3.79111111 C2.39048889,3.95160494 2.29982222,4.17866667 2.29982222,4.40898765 C2.29982222,4.63565432 2.39048889,4.86261728 2.55453827,5.02320988 C2.71513086,5.18716049 2.9418963,5.28148148 3.17231605,5.28148148" id="Fill-3" fill="#FB9223"></path>
                <path d="M3.16875062,7.7419358 C3.25062716,7.7419358 3.33072593,7.72613333 3.40884938,7.70341728 C3.55067654,7.66233086 3.68302222,7.58944198 3.78642963,7.48356543 C3.9010963,7.37146667 3.97912099,7.22628148 4.01714568,7.07210864 C4.03363951,7.00544198 4.04489877,6.93778765 4.04489877,6.86944198 C4.04489877,6.79991111 4.03363951,6.7316642 4.01714568,6.66460247 C3.97912099,6.50914568 3.9010963,6.36396049 3.78642963,6.25176296 C3.73773827,6.20247901 3.68154074,6.16326914 3.62247901,6.12899753 C3.29210864,5.9370963 2.82988642,5.97630617 2.5545284,6.25176296 C2.39047901,6.41235556 2.29625679,6.63902222 2.29625679,6.86944198 C2.29625679,7.09640494 2.39047901,7.3230716 2.5545284,7.48356543 C2.71512099,7.64781235 2.94198519,7.7419358 3.16875062,7.7419358" id="Fill-5" fill="#FB9223"></path>
                <path d="M6.52079012,8.64750617 C6.32602469,8.4988642 6.0694321,8.44237037 5.82834568,8.48266667 C5.65619753,8.51140741 5.49323457,8.58725926 5.36967901,8.71209877 C5.20562963,8.87614815 5.11496296,9.09935802 5.11496296,9.32977778 C5.11496296,9.56019753 5.20562963,9.78340741 5.36967901,9.94765432 C5.53017284,10.1081481 5.75703704,10.2022716 5.98745679,10.2022716 C6.06933333,10.2022716 6.14962963,10.1860741 6.22804938,10.162963 C6.36661728,10.1217778 6.49669136,10.0501728 6.60158025,9.94765432 C6.71101235,9.83812346 6.78587654,9.70123457 6.82587654,9.5545679 C6.84592593,9.48128395 6.85995062,9.40651852 6.85995062,9.32977778 C6.85995062,9.09935802 6.7657284,8.87614815 6.60158025,8.71209877 C6.57688889,8.68750617 6.54824691,8.66834568 6.52079012,8.64750617" id="Fill-7" fill="#FB9223"></path>
                <path d="M5.94860247,5.28148148 C6.17902222,5.28148148 6.40578765,5.18716049 6.56638025,5.02320988 C6.7305284,4.86261728 6.8210963,4.63565432 6.8210963,4.40898765 C6.8210963,4.17866667 6.7305284,3.95160494 6.56638025,3.79111111 C6.24173827,3.46666667 5.65892346,3.46666667 5.33447901,3.79111111 C5.17033086,3.95160494 5.0796642,4.17866667 5.0796642,4.40898765 C5.0796642,4.63565432 5.17033086,4.86261728 5.33447901,5.02320988 C5.49497284,5.18716049 5.72183704,5.28148148 5.94860247,5.28148148" id="Fill-9" fill="#FB9223"></path>
                <path d="M5.9521679,7.7419358 C6.1790321,7.7419358 6.40579753,7.64781235 6.56639012,7.48356543 C6.73043951,7.3230716 6.82466173,7.09640494 6.82466173,6.86944198 C6.82466173,6.74460247 6.79493333,6.6219358 6.74357531,6.50934321 C6.70001975,6.4139358 6.64155062,6.32534321 6.56639012,6.25176296 C6.24174815,5.92702222 5.65547654,5.92702222 5.33448889,6.25176296 C5.25922963,6.32534321 5.20076049,6.4139358 5.1573037,6.50934321 C5.10584691,6.6219358 5.07611852,6.74460247 5.07611852,6.86944198 C5.07611852,7.09640494 5.17034074,7.3230716 5.33448889,7.48356543 C5.49498272,7.64781235 5.72174815,7.7419358 5.9521679,7.7419358" id="Fill-11" fill="#FB9223"></path>
                <polygon id="Fill-13" fill="#344154" points="11.7986173 4.27462716 11.3541728 3.83028148 11.0617284 4.12272593 12.1022222 5.16321975 13.142716 4.12272593 12.8502716 3.83028148 12.4030617 4.27739259 12.4030617 2.56410864 10.2528395 2.56410864 10.2528395 3.16845432 11.7986173 3.16845432"></polygon>
                <path d="M10.4193778,9.60902716 C10.3939951,9.60902716 10.3682173,9.60487901 10.3429333,9.59608889 C10.220563,9.55391605 10.1555753,9.42048395 10.1977481,9.29811358 L10.872316,7.34305185 C10.9049086,7.24853333 10.9938963,7.18502716 11.0939457,7.18502716 C11.1938963,7.18502716 11.282884,7.24853333 11.3154765,7.34305185 L11.9898469,9.29811358 C12.0320198,9.42048395 11.9670321,9.55391605 11.8446617,9.59608889 C11.7225877,9.63855802 11.5888593,9.5734716 11.5466864,9.4509037 L11.0939457,8.13831111 L10.6410074,9.4509037 C10.6075259,9.54808889 10.516563,9.60902716 10.4193778,9.60902716" id="Fill-15" fill="#344154"></path>
                <path d="M13.3441481,10.5072691 L12.2280988,10.5072691 C12.1445432,10.5072691 12.0673086,10.4628247 12.0252346,10.3904296 C11.983358,10.3183309 11.9830617,10.2292444 12.0245432,10.1565531 L12.9403951,8.55210864 L12.2280988,8.55210864 C12.0986173,8.55210864 11.9936296,8.44712099 11.9936296,8.31763951 C11.9936296,8.18825679 12.0986173,8.08317037 12.2280988,8.08317037 L13.3441481,8.08317037 C13.4277037,8.08317037 13.5049383,8.12761481 13.5469136,8.20000988 C13.5887901,8.27220741 13.5890864,8.36129383 13.5477037,8.43388642 L12.6318519,10.0384296 L13.3441481,10.0384296 C13.4736296,10.0384296 13.5786173,10.1433185 13.5786173,10.2728 C13.5786173,10.4023802 13.4736296,10.5072691 13.3441481,10.5072691" id="Fill-17" fill="#344154"></path>
                <path d="M11.6009383,9.12397037 L10.5836543,9.12397037 C10.4542716,9.12397037 10.349284,9.01908148 10.349284,8.8896 C10.349284,8.76001975 10.4542716,8.65513086 10.5836543,8.65513086 L11.6009383,8.65513086 C11.7304198,8.65513086 11.8354074,8.76001975 11.8354074,8.8896 C11.8354074,9.01908148 11.7304198,9.12397037 11.6009383,9.12397037" id="Fill-19" fill="#344154"></path>
                <path d="M15.3729383,14.310321 L14.5000494,13.4358519 C14.3584198,13.2938272 14.1695802,13.2155062 13.9687901,13.2155062 L7.93333333,13.2155062 C8.45412346,12.8468148 8.84750617,12.310716 9.03476543,11.6857284 L13.2957037,11.6857284 C13.4636049,11.6857284 13.5998025,11.5495309 13.5998025,11.3815309 C13.5998025,11.2134321 13.4636049,11.0773333 13.2957037,11.0773333 L9.14528395,11.0773333 C9.15071605,11.0049383 9.15614815,10.9324444 9.15614815,10.8586667 L9.15614815,10.4135309 L9.15614815,10.1703704 L9.15614815,9.56207407 L9.15614815,8.65481481 L9.15614815,8.04651852 L9.15614815,7.51279012 L9.15614815,6.51674074 L15.230716,6.51674074 C15.3091358,6.51674074 15.3729383,6.58054321 15.3729383,6.65896296 L15.3729383,14.310321 Z M6.26488889,13.0560988 L4.01718519,13.0560988 L3.40888889,13.0560988 L2.89135802,13.0560988 C1.6797037,13.0560988 0.693925926,12.0702222 0.693925926,10.8586667 L0.693925926,2.89135802 C0.693925926,1.6797037 1.6797037,0.694024691 2.89135802,0.694024691 L6.26488889,0.694024691 C7.47644444,0.694024691 8.46222222,1.6797037 8.46222222,2.89135802 L8.46222222,5.90834568 L8.46222222,6.51674074 L8.46222222,8.04651852 L8.46222222,8.65481481 L8.46222222,9.56207407 L8.46222222,10.1703704 L8.46222222,10.8586667 C8.46222222,10.9324444 8.4582716,11.0053333 8.45116049,11.0773333 C8.43002469,11.2906667 8.37728395,11.4945185 8.29935802,11.6857284 C7.97185185,12.4882963 7.18390123,13.0560988 6.26488889,13.0560988 L6.26488889,13.0560988 Z M5.70241975,13.8238025 L5.70241975,14.6756543 C5.70241975,14.6855309 5.6988642,14.6940247 5.69165432,14.7013333 C5.68474074,14.7082469 5.67585185,14.7119012 5.66597531,14.7119012 L3.48987654,14.7119012 C3.48,14.7119012 3.47150617,14.7082469 3.4642963,14.7011358 C3.45738272,14.6940247 3.4537284,14.6855309 3.4537284,14.6756543 L3.4537284,13.7499259 L3.8402963,13.7499259 L5.70241975,13.7499259 L5.70241975,13.8238025 Z M15.230716,5.90834568 L9.15614815,5.90834568 L9.15614815,2.89135802 C9.15614815,1.29708642 7.85906173,0 6.26488889,0 L2.89135802,0 C1.29708642,0 0,1.29708642 0,2.89135802 L0,10.8586667 C0,12.422321 1.24869136,13.6969877 2.80088889,13.745284 L2.80088889,14.6756543 C2.80088889,14.8596543 2.87269136,15.0329877 3.00266667,15.1628642 C3.13293827,15.2931358 3.30607407,15.3647407 3.48987654,15.3647407 L3.52632099,15.3647407 L3.52632099,17.9397531 L4.17916049,17.9397531 L4.17916049,15.3647407 L4.97708642,15.3647407 L4.97708642,17.9397531 L5.62992593,17.9397531 L5.62992593,15.3647407 L5.66597531,15.3647407 C5.85007407,15.3647407 6.02301235,15.2931358 6.15328395,15.1628642 C6.28345679,15.0329877 6.35535802,14.8596543 6.35535802,14.6756543 L6.35535802,13.8238025 L13.9687901,13.8238025 C14.0068148,13.8238025 14.0425679,13.8388148 14.0694321,13.8655802 L15.9813333,15.7808395 L15.9813333,6.65896296 C15.9813333,6.2451358 15.6445432,5.90834568 15.230716,5.90834568 L15.230716,5.90834568 Z" id="Fill-21" fill="#344154"></path>
            </g>
        </g>
    </g>
</svg>