<?xml version="1.0" encoding="UTF-8"?>
<svg width="19px" height="16px" viewBox="0 0 19 16" version="1.1" xmlns="http://www.w3.org/2000/svg" xmlns:xlink="http://www.w3.org/1999/xlink">
    <!-- Generator: Sketch 53.2 (72643) - https://sketchapp.com -->
    <title>ico_layer3_imgsub</title>
    <desc>Created with Sketch.</desc>
    <defs>
        <polygon id="path-1" points="4.07753968e-05 0.0159226519 18.4508671 0.0159226519 18.4508671 15.9116022 4.07753968e-05 15.9116022"></polygon>
        <polygon id="path-3" points="0 16.0061878 18.4508671 16.0061878 18.4508671 0.110497238 0 0.110497238"></polygon>
    </defs>
    <g id="Page-1" stroke="none" stroke-width="1" fill="none" fill-rule="evenodd">
        <g id="Landing_8th" transform="translate(-420.000000, -926.000000)">
            <g id="ico_layer3_imgsub" transform="translate(419.945087, 926.000000)">
                <g id="Group-3" transform="translate(0.000000, 0.094586)">
                    <mask id="mask-2" fill="white">
                        <use xlink:href="#path-1"></use>
                    </mask>
                    <g id="Clip-2"></g>
                    <path d="M17.9409096,11.2034365 L0.512485575,11.2034365 L0.512485575,1.06896133 C0.512485575,0.793823204 0.719012959,0.569955801 0.972737866,0.569955801 L17.479434,0.569955801 C17.7338725,0.569955801 17.9409096,0.793823204 17.9409096,1.06896133 L17.9409096,11.2034365 Z M17.9409096,12.2012265 C17.9409096,12.4764751 17.734586,12.7001215 17.4807592,12.7001215 L0.971412666,12.7001215 C0.718401329,12.7001215 0.512485575,12.4764751 0.512485575,12.2012265 L0.512485575,11.7646519 L17.9409096,11.7646519 L17.9409096,12.2012265 Z M10.8878872,13.340011 C10.7156112,13.622884 10.6283518,13.9292928 10.6283518,14.2506188 C10.6283518,14.5259779 10.6968545,14.7958122 10.8322288,15.0522762 L10.8756546,15.1348177 L7.57631338,15.1348177 L7.62004499,15.0522762 C7.75531737,14.7958122 7.82392197,14.5260884 7.82392197,14.2506188 C7.82392197,13.9266409 7.73625487,13.620232 7.56316331,13.3403425 L7.51005336,13.2543757 L10.9399778,13.2543757 L10.8878872,13.340011 Z M17.479434,0.0159226519 L0.972737866,0.0159226519 C0.436337521,0.0159226519 4.07753968e-05,0.488298343 4.07753968e-05,1.06896133 L4.07753968e-05,12.2012265 C4.07753968e-05,12.7818895 0.43572589,13.2543757 0.971412666,13.2543757 L6.78761527,13.2543757 L6.80137696,13.2659779 C7.13186155,13.5445414 7.31382176,13.8943757 7.31382176,14.2506188 C7.31382176,14.5594586 7.17895714,14.8601215 6.92390703,15.1199006 L6.90912595,15.1348177 L3.43210592,15.1348177 C3.23444719,15.1348177 3.07369019,15.3091823 3.07369019,15.5234365 C3.07369019,15.7374696 3.23444719,15.9116133 3.43210592,15.9116133 L15.0201679,15.9116133 C15.2169092,15.9116133 15.3771565,15.7374696 15.3771565,15.5234365 C15.3771565,15.3091823 15.2169092,15.1348177 15.0201679,15.1348177 L11.5430459,15.1348177 L11.5283668,15.1199006 C11.2732147,14.8601215 11.1383501,14.5594586 11.1383501,14.2506188 C11.1383501,13.8953702 11.3203103,13.5457569 11.6507949,13.2659779 L11.6646585,13.2543757 L17.4807592,13.2543757 C18.0156305,13.2543757 18.4509078,12.7818895 18.4509078,12.2012265 L18.4509078,1.06896133 C18.4509078,0.488298343 18.0151208,0.0159226519 17.479434,0.0159226519 L17.479434,0.0159226519 Z" id="Fill-1" fill="#344154" mask="url(#mask-2)"></path>
                </g>
                <mask id="mask-4" fill="white">
                    <use xlink:href="#path-3"></use>
                </mask>
                <g id="Clip-5"></g>
                <path d="M2.27761173,9.42453039 L8.61747236,9.42453039 L8.61747236,2.55237569 L2.27761173,2.55237569 L2.27761173,9.42453039 Z M8.92471497,1.88917127 L1.97159237,1.88917127 C1.80298611,1.88917127 1.66434976,2.03779006 1.66434976,2.22077348 L1.66434976,9.75767956 C1.66434976,9.94044199 1.80298611,10.0892818 1.97159237,10.0892818 L8.92471497,10.0892818 C9.09332124,10.0892818 9.23073433,9.94044199 9.23073433,9.75767956 L9.23073433,2.22077348 C9.23073433,2.03779006 9.09332124,1.88917127 8.92471497,1.88917127 L8.92471497,1.88917127 Z" id="Fill-4" fill="#344154" mask="url(#mask-4)"></path>
                <path d="M4.45317283,4.67681768 L6.54382936,5.98499448 L4.45317283,7.29295028 L4.45317283,4.67681768 Z M3.99302248,8.15748066 C4.04134132,8.18742541 4.09485903,8.20134807 4.14725541,8.20134807 C4.20077312,8.20134807 4.25316951,8.18742541 4.30026509,8.15748066 L7.31132427,6.27250829 C7.40684063,6.21306077 7.46423201,6.104 7.46423201,5.98499448 C7.46423201,5.86587845 7.40684063,5.75659669 7.31132427,5.69714917 L4.30026509,3.81228729 C4.20597199,3.75416575 4.08833497,3.75416575 3.99302248,3.81228729 C3.89883131,3.87328177 3.8400128,3.98234254 3.8400128,4.10134807 L3.8400128,7.86974586 C3.8400128,7.98886188 3.89883131,8.09792265 3.99302248,8.15748066 L3.99302248,8.15748066 Z" id="Fill-6" fill="#344154" mask="url(#mask-4)"></path>
                <path d="M16.2022772,2.32691713 L10.6822059,2.32691713 C10.5133958,2.32691713 10.3762885,2.47575691 10.3762885,2.65862983 C10.3762885,2.84139227 10.5133958,2.99023204 10.6822059,2.99023204 L16.2022772,2.99023204 C16.3707815,2.99023204 16.5068694,2.84139227 16.5068694,2.65862983 C16.5068694,2.47575691 16.3707815,2.32691713 16.2022772,2.32691713" id="Fill-7" fill="#F7778A" mask="url(#mask-4)"></path>
                <path d="M10.6821652,4.48398895 L14.5496096,4.48398895 C14.7183178,4.48398895 14.855527,4.33514917 14.855527,4.15238674 C14.855527,3.96818785 14.7183178,3.81923757 14.5496096,3.81923757 L10.6821652,3.81923757 C10.513457,3.81923757 10.3762477,3.96818785 10.3762477,4.15238674 C10.3762477,4.33514917 10.513457,4.48398895 10.6821652,4.48398895" id="Fill-8" fill="#F7778A" mask="url(#mask-4)"></path>
                <path d="M16.2022772,5.66870718 L10.6822059,5.66870718 C10.5133958,5.66870718 10.3762885,5.81743646 10.3762885,6.00030939 C10.3762885,6.18307182 10.5133958,6.3319116 10.6822059,6.3319116 L16.2022772,6.3319116 C16.3707815,6.3319116 16.5068694,6.18307182 16.5068694,6.00030939 C16.5068694,5.81743646 16.3707815,5.66870718 16.2022772,5.66870718" id="Fill-9" fill="#F7778A" mask="url(#mask-4)"></path>
                <path d="M14.5496606,7.16096133 L10.6822161,7.16096133 C10.513406,7.16096133 10.3762987,7.3099116 10.3762987,7.4941105 C10.3762987,7.67687293 10.513406,7.82571271 10.6822161,7.82571271 L14.5496606,7.82571271 C14.7182668,7.82571271 14.855578,7.67687293 14.855578,7.4941105 C14.855578,7.3099116 14.7182668,7.16096133 14.5496606,7.16096133" id="Fill-10" fill="#F7778A" mask="url(#mask-4)"></path>
                <path d="M14.5496606,8.97099448 L10.6822161,8.97099448 C10.513406,8.97099448 10.3762987,9.11994475 10.3762987,9.30403315 C10.3762987,9.48690608 10.513406,9.63574586 10.6822161,9.63574586 L14.5496606,9.63574586 C14.7182668,9.63574586 14.855578,9.48690608 14.855578,9.30403315 C14.855578,9.11994475 14.7182668,8.97099448 14.5496606,8.97099448" id="Fill-11" fill="#F7778A" mask="url(#mask-4)"></path>
            </g>
        </g>
    </g>
</svg>