<?xml version="1.0" encoding="UTF-8"?>
<svg width="16px" height="15px" viewBox="0 0 16 15" version="1.1" xmlns="http://www.w3.org/2000/svg" xmlns:xlink="http://www.w3.org/1999/xlink">
    <!-- Generator: Sketch 53.2 (72643) - https://sketchapp.com -->
    <title>ico_voice_bot</title>
    <desc>Created with Sketch.</desc>
    <defs>
        <polygon id="path-1" points="1.08108108e-05 0.0677837838 15.984973 0.0677837838 15.984973 13.0469946 1.08108108e-05 13.0469946"></polygon>
    </defs>
    <g id="Page-1" stroke="none" stroke-width="1" fill="none" fill-rule="evenodd">
        <g id="new_console_menu_icons_puble" transform="translate(-19.000000, -438.000000)">
            <g id="ico_voice_bot" transform="translate(19.000000, 438.000000)">
                <path d="M2.96330811,9.79231351 C2.96547027,9.80107027 2.96774054,9.80917838 2.9699027,9.81793514 C2.97822703,9.78442162 2.98384865,9.74982703 2.98384865,9.71382703 L2.98384865,7.32398919 L2.95433514,9.71652973 C2.95433514,9.74215135 2.95682162,9.76798919 2.96330811,9.79231351" id="Fill-1" fill="#344154"></path>
                <path d="M11.9971459,12.4843459 C12.316173,11.9497514 12.5857946,11.311373 12.8171459,10.5455351 C12.5800649,10.367373 12.4216865,10.0911568 12.4026595,9.7771027 C12.1066595,10.9402378 11.7439568,11.8199135 11.2785514,12.4843459 L11.9971459,12.4843459 Z" id="Fill-3" fill="#344154"></path>
                <path d="M7.99646486,2.57641081 C10.7732216,2.57641081 12.1732216,3.93900541 12.3828432,6.85478919 C12.3711676,6.85608649 12.3571135,6.85738378 12.3455459,6.85857297 C12.2926811,6.86376216 12.2400324,6.86754595 12.1872757,6.87154595 C12.1268432,6.87662703 12.0665189,6.88181622 12.0086811,6.88441081 C11.9585189,6.88700541 11.9096541,6.8883027 11.8607892,6.89078919 C11.8016541,6.89349189 11.7413297,6.89587027 11.6833838,6.89587027 C11.6371135,6.89727568 11.5921405,6.89587027 11.5470595,6.89587027 C11.4880324,6.89587027 11.4288973,6.89587027 11.3709514,6.89457297 C11.328573,6.89349189 11.2848973,6.89078919 11.2424108,6.8883027 C11.1858703,6.8856 11.1293297,6.88311351 11.0739784,6.87922162 C11.0316,6.87662703 10.9905189,6.87273514 10.9493297,6.86895135 C10.8952757,6.86376216 10.8413297,6.85857297 10.7873838,6.85349189 C10.7474919,6.84841081 10.7076,6.84332973 10.6678162,6.83814054 C10.6163568,6.83035676 10.5648973,6.82387027 10.5147351,6.8163027 C10.4749514,6.80981622 10.4376541,6.80203243 10.3990595,6.79565405 C10.3501946,6.78797838 10.3013297,6.77900541 10.2538703,6.76862703 C10.2152757,6.76095135 10.1779784,6.75327568 10.1419784,6.74549189 C10.0944108,6.73403243 10.0481405,6.72365405 10.0043568,6.71349189 C9.96716757,6.70441081 9.93246486,6.69414054 9.89505946,6.68387027 C9.85268108,6.67349189 9.8103027,6.66062703 9.76792432,6.64905946 C9.73192432,6.63749189 9.69711351,6.62722162 9.66251892,6.61695135 C9.62262703,6.60408649 9.58154595,6.59132973 9.54165405,6.57705946 C9.50814054,6.56549189 9.47343784,6.55273514 9.44003243,6.54116757 C9.40273514,6.5268973 9.36554595,6.51414054 9.32824865,6.49997838 C9.29614054,6.48722162 9.26132973,6.47424865 9.22922162,6.46019459 C9.19581622,6.44592432 9.15970811,6.43046486 9.12641081,6.4176 C9.09300541,6.40354595 9.06078919,6.38819459 9.03127568,6.37392432 C8.99787027,6.35987027 8.96705946,6.34441081 8.93473514,6.32905946 C8.90532973,6.31478919 8.87322162,6.29943784 8.84349189,6.28408649 C8.81278919,6.26862703 8.78305946,6.25316757 8.75484324,6.23770811 C8.72532973,6.22235676 8.69570811,6.2068973 8.66608649,6.19024865 C8.63905946,6.17597838 8.61214054,6.16051892 8.58641081,6.14387027 C8.55808649,6.12841081 8.52868108,6.11035676 8.50154595,6.09370811 C8.47592432,6.07835676 8.45019459,6.06419459 8.42695135,6.04873514 C8.40003243,6.03078919 8.37300541,6.01403243 8.34738378,5.99738378 C8.32295135,5.98192432 8.30100541,5.96646486 8.27916757,5.95100541 C8.25354595,5.93305946 8.22770811,5.91641081 8.20338378,5.89835676 C8.18284324,5.8828973 8.16100541,5.86743784 8.13905946,5.85338378 C8.11592432,5.83543784 8.09278919,5.81738378 8.07095135,5.80062703 C8.05041081,5.78635676 8.03105946,5.77100541 8.01181622,5.75554595 C7.98997838,5.7388973 7.96814054,5.72224865 7.94738378,5.70419459 C7.92954595,5.68873514 7.91149189,5.67468108 7.89343784,5.65932973 C7.8743027,5.64246486 7.85376216,5.62581622 7.83570811,5.61035676 C7.81765405,5.59370811 7.8008973,5.57943784 7.78284324,5.56408649 C7.76749189,5.54862703 7.75084324,5.53446486 7.73408649,5.51911351 C7.71614054,5.50224865 7.69938378,5.4868973 7.68392432,5.47154595 C7.66846486,5.45857297 7.65570811,5.44451892 7.64154595,5.43165405 C7.62478919,5.4136 7.60943784,5.39824865 7.59268108,5.38278919 C7.58241081,5.37122162 7.56954595,5.35965405 7.55927568,5.34927568 C7.54251892,5.33132973 7.52576216,5.31338378 7.50911351,5.29673514 C7.50143784,5.28765405 7.49365405,5.27997838 7.48727568,5.2708973 C7.46803243,5.25035676 7.44997838,5.23122162 7.43322162,5.21176216 C7.43073514,5.20797838 7.42673514,5.20419459 7.42295135,5.2003027 C7.30338378,5.06268108 7.23916757,4.96754595 7.2263027,4.9496 C7.16327568,4.84916757 7.0463027,4.79911351 6.92932973,4.81457297 C6.79949189,4.83381622 6.67603243,4.85954595 6.55268108,4.88916757 C6.52435676,4.89554595 6.49614054,4.90203243 6.46770811,4.90970811 C6.34954595,4.93803243 6.23257297,4.97143784 6.11808649,5.00743784 C6.10143784,5.01381622 6.08727568,5.02019459 6.07181622,5.02408649 C5.9703027,5.05878919 5.87127568,5.0948973 5.77354595,5.13468108 C5.74532973,5.14495135 5.7196,5.15522162 5.69268108,5.16678919 C5.58857297,5.21046486 5.48554595,5.25543784 5.38792432,5.30322162 C5.3623027,5.31597838 5.33776216,5.32743784 5.31343784,5.34170811 C5.23235676,5.38149189 5.15397838,5.42268108 5.07808649,5.46635676 C5.05235676,5.48041081 5.02532973,5.49338378 4.99970811,5.50873514 C4.91095135,5.55900541 4.82619459,5.61154595 4.74251892,5.66311351 C4.7143027,5.68224865 4.68597838,5.7016 4.65765405,5.71835676 C4.59343784,5.76073514 4.5303027,5.80192432 4.46997838,5.8456 C4.44695135,5.86105946 4.42370811,5.87781622 4.40057297,5.89446486 C4.32727568,5.94581622 4.25657297,5.99857297 4.18987027,6.05132973 C4.16154595,6.07316757 4.13451892,6.09370811 4.10749189,6.11554595 C4.05473514,6.15673514 4.00457297,6.19911351 3.95581622,6.23900541 C3.92878919,6.26084324 3.90305946,6.28408649 3.87614054,6.30592432 C3.82727568,6.3483027 3.77841081,6.39068108 3.73343784,6.43046486 C3.7116,6.45241081 3.68835676,6.47295135 3.66651892,6.4923027 C3.65873514,6.49997838 3.64846486,6.51035676 3.63949189,6.51792432 C3.93008649,3.83500541 5.33127568,2.57641081 7.99646486,2.57641081 M3.62284324,7.39468108 C3.63570811,7.37932973 3.64976216,7.36387027 3.66522162,7.34722162 C3.67678919,7.33554595 3.68835676,7.3216 3.69992432,7.30851892 C3.72176216,7.28549189 3.74500541,7.26105946 3.76932973,7.23532973 C3.7808973,7.22257297 3.79246486,7.2108973 3.80414054,7.19943784 C3.83354595,7.16722162 3.86705946,7.13511351 3.90046486,7.10041081 C3.91203243,7.09014054 3.9223027,7.07976216 3.93387027,7.0683027 C3.97246486,7.0296 4.01614054,6.98851892 4.06122162,6.94603243 C4.07019459,6.93835676 4.07787027,6.93068108 4.08684324,6.9228973 C4.25538378,6.76743784 4.45851892,6.59381622 4.69376216,6.4216 C4.69754595,6.41900541 4.70273514,6.41522162 4.70651892,6.41251892 C4.77722162,6.36116757 4.85181622,6.30841081 4.9303027,6.25705946 C4.94695135,6.24538378 4.96749189,6.23392432 4.98543784,6.22095135 C5.04987027,6.17857297 5.11538378,6.13749189 5.1823027,6.0976 C5.20922162,6.08095135 5.23624865,6.06549189 5.26457297,6.05003243 C5.32619459,6.01403243 5.38922162,5.97814054 5.45473514,5.94343784 C5.48695135,5.92538378 5.52035676,5.90992432 5.55246486,5.89316757 C5.61549189,5.86105946 5.68111351,5.83024865 5.74532973,5.80062703 C5.78122162,5.78527568 5.81862703,5.76722162 5.85462703,5.75176216 C5.92014054,5.72343784 5.98705946,5.69651892 6.05505946,5.67078919 C6.09365405,5.65662703 6.13105946,5.64127568 6.16965405,5.62711351 C6.24273514,5.60127568 6.31743784,5.57824865 6.39192432,5.5563027 C6.42792432,5.54484324 6.46262703,5.53327568 6.49992432,5.52300541 C6.60673514,5.49338378 6.71462703,5.46635676 6.82781622,5.44451892 C6.8328973,5.44451892 6.83549189,5.44332973 6.84068108,5.44192432 C6.92424865,5.54862703 7.05149189,5.69651892 7.22500541,5.86624865 L7.2263027,5.86743784 C7.25322162,5.89446486 7.28165405,5.92019459 7.30987027,5.94722162 C7.31376216,5.94981622 7.31635676,5.9536 7.32014054,5.9563027 C7.34716757,5.98192432 7.37678919,6.00754595 7.4048973,6.03327568 C7.41008649,6.03727568 7.41527568,6.04235676 7.42046486,6.04743784 C7.44868108,6.07187027 7.4768973,6.09641081 7.50662703,6.12073514 C7.51549189,6.12841081 7.52197838,6.13349189 7.52976216,6.13997838 C7.55927568,6.16441081 7.58878919,6.18884324 7.61970811,6.21338378 C7.62878919,6.21976216 7.63895135,6.22873514 7.64792432,6.23522162 C7.67754595,6.25954595 7.70835676,6.28268108 7.74046486,6.30592432 C7.75203243,6.31478919 7.7623027,6.32257297 7.77397838,6.33154595 C7.80608649,6.35468108 7.83700541,6.37792432 7.8716,6.40095135 C7.88327568,6.41003243 7.89484324,6.41900541 7.90770811,6.42668108 C7.94111351,6.45111351 7.97451892,6.47295135 8.00922162,6.49478919 C8.02338378,6.50505946 8.03743784,6.51414054 8.0516,6.52451892 C8.0863027,6.54635676 8.12111351,6.56678919 8.15700541,6.58992432 C8.17127568,6.5988973 8.18662703,6.60927568 8.20338378,6.61954595 C8.23927568,6.64019459 8.27538378,6.66203243 8.31257297,6.68246486 C8.32932973,6.69273514 8.34738378,6.70311351 8.36403243,6.71219459 C8.40132973,6.73262703 8.43862703,6.75327568 8.47722162,6.77370811 C8.49646486,6.78419459 8.51570811,6.79446486 8.53376216,6.80343784 C8.57235676,6.82387027 8.61214054,6.84332973 8.65073514,6.86246486 C8.67116757,6.87273514 8.69192432,6.88311351 8.71246486,6.89208649 C8.75343784,6.91132973 8.79343784,6.93068108 8.83451892,6.94862703 C8.85646486,6.9576 8.8783027,6.96787027 8.90014054,6.97824865 C8.94122162,6.9948973 8.98370811,7.01154595 9.02749189,7.03100541 C9.05051892,7.03857297 9.07495135,7.04884324 9.09808649,7.05792432 C9.14057297,7.07468108 9.18424865,7.09251892 9.22792432,7.10678919 C9.25365405,7.11705946 9.27938378,7.12603243 9.30500541,7.13511351 C9.35008649,7.14916757 9.39376216,7.16451892 9.44003243,7.17997838 C9.46587027,7.18905946 9.49278919,7.19803243 9.51981622,7.20581622 C9.56597838,7.21987027 9.61235676,7.23273514 9.65981622,7.2468973 C9.68814054,7.25457297 9.71776216,7.26235676 9.74608649,7.27003243 C9.79365405,7.2828973 9.84111351,7.29565405 9.88997838,7.30732973 C9.9196,7.31511351 9.95041081,7.3216 9.98251892,7.32787027 C10.0314919,7.33943784 10.0790595,7.3496 10.1292216,7.36008649 C10.1612216,7.36765405 10.1947351,7.37284324 10.2281405,7.37932973 C10.2783027,7.3883027 10.3271676,7.39857297 10.3771135,7.40635676 C10.4132216,7.41143784 10.4505189,7.41651892 10.4852216,7.42300541 C10.5353838,7.42949189 10.5855459,7.43727568 10.6368973,7.44354595 C10.6741946,7.44862703 10.7140865,7.45262703 10.7539784,7.45651892 C10.8041405,7.4616 10.8543027,7.46797838 10.9056541,7.47316757 C10.9480324,7.47576216 10.9905189,7.47835676 11.0328973,7.48095135 C11.0830595,7.48473514 11.1332216,7.48981622 11.184573,7.49122162 C11.2309514,7.49370811 11.2784108,7.49500541 11.3260865,7.49641081 C11.3748432,7.4976 11.4237081,7.50019459 11.4739784,7.50019459 C11.5291135,7.50149189 11.5856541,7.50019459 11.6436,7.49878919 C11.6859784,7.49878919 11.7283568,7.50019459 11.7707351,7.49878919 C11.8467351,7.49641081 11.9239243,7.49370811 12.0021946,7.48862703 C12.0280324,7.48732973 12.0550595,7.48603243 12.0806811,7.48473514 C12.1859784,7.47965405 12.2914919,7.4696 12.3994919,7.46062703 L12.3994919,6.97684324 C12.3994919,6.59954595 12.6019784,6.26916757 12.9033838,6.08614054 C12.4870595,3.32278919 10.8739784,1.97468108 7.99646486,1.97468108 C5.11711351,1.97468108 3.50273514,3.32397838 3.08781622,6.08927568 C3.38597838,6.27284324 3.58554595,6.6016 3.58554595,6.97684324 L3.58554595,7.43846486 C3.58554595,7.43727568 3.58673514,7.43727568 3.58803243,7.43587027 C3.59722162,7.42300541 3.61127568,7.40895135 3.62284324,7.39468108" id="Fill-5" fill="#344154"></path>
                <path d="M13.0307243,9.71777297 L13.0024,7.11842162 C13.0024,7.11582703 13.0011027,7.11323243 13.0011027,7.11063784 L13.0011027,9.71388108 C13.0011027,9.75074595 13.0070486,9.78598919 13.0156973,9.82015135 C13.0180757,9.81074595 13.0205622,9.80177297 13.0229405,9.79225946 C13.0281297,9.76804324 13.0307243,9.74220541 13.0307243,9.71777297" id="Fill-7" fill="#344154"></path>
                <path d="M10.3862486,13.4176216 C9.65857297,13.9614054 8.83197838,14.2495135 7.99651892,14.2495135 C7.15943784,14.2495135 6.33284324,13.9602162 5.60397838,13.4138378 C4.67100541,12.716 4.04549189,11.5902703 3.58235676,9.77686486 C3.56354595,10.091027 3.40570811,10.367027 3.16905946,10.5452973 C3.6536,12.1471351 4.30732973,13.1968649 5.24268108,13.8972973 C6.07576216,14.5206486 7.0283027,14.8511351 7.99651892,14.8511351 C8.96300541,14.8511351 9.91446486,14.5233514 10.7475459,13.8997838 C11.0546811,13.6704865 11.3306811,13.4010811 11.5812757,13.0872432 L10.7699243,13.0872432 C10.6478703,13.2065946 10.520627,13.3171892 10.3862486,13.4176216" id="Fill-9" fill="#344154"></path>
                <path d="M3.58556757,7.43842162 L3.55854054,9.68566486 C3.56632432,9.7168 3.57454054,9.74620541 3.58243243,9.77690811 C3.58362162,9.75593514 3.58556757,9.73517838 3.58556757,9.71388108 L3.58556757,7.43842162 Z" id="Fill-11" fill="#344154"></path>
                <path d="M12.4027135,9.7771027 C12.4104973,9.74629189 12.4187135,9.71688649 12.4264973,9.68564324 L12.4032541,7.46023784 L12.3994703,7.46056216 L12.3994703,9.71385946 C12.3994703,9.73515676 12.4014162,9.75612973 12.4027135,9.7771027" id="Fill-13" fill="#344154"></path>
                <path d="M9.35261622,11.9097081 L6.99229189,11.9097081 C6.82515676,11.9097081 6.69023784,12.0447351 6.69023784,12.2117622 C6.69023784,13.0113297 7.35477838,13.6620324 8.1724,13.6620324 C8.65358919,13.6620324 9.08050811,13.4356541 9.35142703,13.0873297 L8.53499459,13.0873297 C8.47272432,13.0873297 8.41477838,13.0681946 8.36677838,13.0355459 C8.30396757,13.0493838 8.23953514,13.0591135 8.1724,13.0591135 C7.79704865,13.0591135 7.47694054,12.8314378 7.35099459,12.512627 L8.40915676,12.512627 C8.44753514,12.4948973 8.48991351,12.4843027 8.53499459,12.4843027 L9.62753514,12.4843027 C9.64483243,12.3959784 9.65467027,12.3049514 9.65467027,12.2117622 C9.65467027,12.0447351 9.51975135,11.9097081 9.35261622,11.9097081" id="Fill-15" fill="#344154"></path>
                <g id="Group-19" transform="translate(0.000000, 0.040324)">
                    <mask id="mask-2" fill="white">
                        <use xlink:href="#path-1"></use>
                    </mask>
                    <g id="Clip-18"></g>
                    <path d="M14.9295243,8.99607568 L14.9295243,7.61283243 C15.1942811,7.72980541 15.3820649,7.99585946 15.3820649,8.30450811 C15.3820649,8.61304865 15.1942811,8.8791027 14.9295243,8.99607568 L14.9295243,8.99607568 Z M14.3264973,7.24634595 C14.3264973,7.24775135 14.3253081,7.24775135 14.3253081,7.24904865 L14.3253081,9.35996757 C14.3253081,9.36256216 14.3264973,9.36256216 14.3264973,9.36256216 L14.3264973,9.67358919 C14.3264973,9.88850811 14.1706054,10.0680757 13.9653081,10.105373 C13.9397946,10.1099135 13.9137405,10.1132649 13.8869297,10.1132649 L13.4420649,10.1132649 C13.4148216,10.1132649 13.3883351,10.1100216 13.3622811,10.1051568 C13.1925514,10.0739135 13.0575243,9.94515676 13.0156865,9.77985946 C13.0070378,9.7456973 13.0010919,9.71034595 13.0010919,9.67358919 L13.0010919,7.07034595 L13.0010919,7.06775135 L13.0010919,6.93650811 C13.0010919,6.69380541 13.1988216,6.49737297 13.4415243,6.49704865 L13.4420649,6.49704865 L13.8869297,6.49704865 C13.9106054,6.49704865 13.9333081,6.5004 13.9559027,6.50396757 C14.1657405,6.53726486 14.3264973,6.71726486 14.3264973,6.93650811 L14.3264973,7.24634595 Z M2.98379459,6.93650811 L2.98379459,7.27985946 L2.98379459,7.28234595 L2.98379459,7.28364324 L2.98379459,9.67358919 C2.98379459,9.70958919 2.97817297,9.74407568 2.96995676,9.77758919 C2.92271351,9.96937297 2.74984865,10.1132649 2.54433514,10.1132649 L2.09817297,10.1132649 C1.85514595,10.1132649 1.65979459,9.91521081 1.65979459,9.67358919 L1.65979459,9.36256216 L1.65979459,9.35996757 L1.65979459,7.24904865 L1.65979459,7.24775135 L1.65979459,6.93650811 C1.65979459,6.76623784 1.75687568,6.62018378 1.89806486,6.54731892 C1.95828108,6.51629189 2.02552432,6.49704865 2.09817297,6.49704865 L2.54433514,6.49704865 C2.59017297,6.49704865 2.63374054,6.50612973 2.67547027,6.51931892 C2.85309189,6.57542703 2.98379459,6.73985946 2.98379459,6.93650811 L2.98379459,6.93650811 Z M1.05557838,8.99607568 C0.790605405,8.8791027 0.60292973,8.61304865 0.60292973,8.30450811 C0.60292973,7.99585946 0.790605405,7.72980541 1.05557838,7.61283243 L1.05557838,8.99607568 Z M14.9295243,6.98288649 L14.9295243,6.93650811 C14.9295243,6.43077838 14.5668216,6.00796757 14.0880108,5.91391351 C13.8246595,2.03445405 11.7777405,0.0677513514 7.99763243,0.0677513514 C4.21763243,0.0677513514 2.17125405,2.03402162 1.9064973,5.91261622 C1.42303784,6.00288649 1.05557838,6.42742703 1.05557838,6.93650811 L1.05557838,6.98288649 C0.452551351,7.1204 1.08108108e-05,7.66050811 1.08108108e-05,8.30450811 C1.08108108e-05,8.94861622 0.452551351,9.4896973 1.05557838,9.62731892 L1.05557838,9.67358919 C1.05557838,10.2482919 1.52357838,10.7148865 2.09817297,10.7148865 L2.54433514,10.7148865 C2.77892973,10.7148865 2.99482162,10.6361838 3.16909189,10.5049405 C3.40574054,10.3267784 3.56347027,10.0506703 3.58238919,9.73661622 C3.5744973,9.70580541 3.56638919,9.67650811 3.55860541,9.64537297 L3.58552432,7.39812973 L3.58552432,6.93650811 C3.58552432,6.56137297 3.38595676,6.23261622 3.08779459,6.04894054 C2.97482162,5.97942703 2.8479027,5.93099459 2.7119027,5.90883243 C2.95817297,2.47737297 4.64768649,0.872508108 7.99763243,0.872508108 C11.350173,0.872508108 13.0360108,2.47380541 13.2824973,5.90764324 C13.1454162,5.92883243 13.0174162,5.97650811 12.9033622,6.04580541 C12.6019568,6.22883243 12.3994703,6.55921081 12.3994703,6.93650811 L12.3994703,7.42029189 L12.4032541,7.41996757 L12.4264973,9.64537297 C12.4187135,9.67661622 12.4104973,9.70591351 12.4027135,9.73683243 C12.4217405,10.0508865 12.5800108,10.3271027 12.8170919,10.5052649 C12.9715784,10.6212649 13.1586054,10.695427 13.3622811,10.7108865 L13.3622811,11.2947784 C13.3622811,11.9285081 12.8468216,12.4440757 12.2130919,12.4440757 L11.9970919,12.4440757 L11.2784973,12.4440757 L9.62757838,12.4440757 L8.53492973,12.4440757 C8.48995676,12.4440757 8.44757838,12.4545622 8.4092,12.4722919 C8.30617297,12.5198595 8.23417297,12.6232108 8.23417297,12.7449405 C8.23417297,12.8492649 8.28682162,12.9409405 8.36671351,12.9952108 C8.41482162,13.0278595 8.47265946,13.0469946 8.53492973,13.0469946 L9.35147027,13.0469946 L10.7699568,13.0469946 L11.5812,13.0469946 L12.2130919,13.0469946 C13.1797946,13.0469946 13.9653081,12.2601838 13.9653081,11.2947784 L13.9653081,10.7109946 C14.5033622,10.6707784 14.9295243,10.2219135 14.9295243,9.67358919 L14.9295243,9.62731892 C15.5324432,9.4896973 15.9849838,8.94861622 15.9849838,8.30450811 C15.9849838,7.66050811 15.5324432,7.1204 14.9295243,6.98288649 L14.9295243,6.98288649 Z" id="Fill-17" fill="#344154" mask="url(#mask-2)"></path>
                </g>
            </g>
        </g>
    </g>
</svg>