<?xml version="1.0" encoding="UTF-8"?>
<svg width="32px" height="27px" viewBox="0 0 32 27" version="1.1" xmlns="http://www.w3.org/2000/svg" xmlns:xlink="http://www.w3.org/1999/xlink">
    <!-- Generator: Sketch 53.2 (72643) - https://sketchapp.com -->
    <title>ico_layer4_voicebot</title>
    <desc>Created with Sketch.</desc>
    <defs>
        <polygon id="path-1" points="0.0668728647 0.0116556569 16.6280165 0.0116556569 16.6280165 8.80732918 0.0668728647 8.80732918"></polygon>
        <polygon id="path-3" points="2.16396294e-05 0.120318307 31.9965725 0.120318307 31.9965725 23.1586643 2.16396294e-05 23.1586643"></polygon>
    </defs>
    <g id="Page-1" stroke="none" stroke-width="1" fill="none" fill-rule="evenodd">
        <g id="academy-커리큘럼" transform="translate(-1240.000000, -483.000000)">
            <g id="ico_layer4_voicebot" transform="translate(1240.081614, 483.235980)">
                <path d="M5.59308682,17.57353 C5.59741475,17.5875865 5.60195907,17.6006018 5.606287,17.6146584 C5.62294951,17.5608618 5.63420212,17.5053299 5.63420212,17.447542 L5.63420212,13.6113269 L5.57512593,17.4518804 C5.57512593,17.4930087 5.58010304,17.5343106 5.59308682,17.57353" id="Fill-1" fill="#474F59"></path>
                <path d="M24.758771,17.6146584 C24.1426315,19.6786393 23.3874218,21.2396221 22.4186561,22.4186561 L23.9146734,22.4186561 C24.5785198,21.4700191 25.1399763,20.3372179 25.6213212,18.9782402 C25.1278246,18.6620918 24.7983767,18.1719467 24.758771,17.6146584" id="Fill-3" fill="#474F59"></path>
                <path d="M15.2144937,4.2488769 C21.1035718,4.2488769 24.0727585,6.61798449 24.5173341,11.6875815 C24.4925717,11.6896491 24.4627652,11.6920927 24.4382322,11.6941603 C24.3263431,11.7031826 24.2144541,11.7097613 24.102565,11.716716 C23.9743971,11.7255504 23.8464584,11.7343847 23.7237931,11.7388959 C23.6174068,11.743595 23.5137719,11.7458506 23.4101369,11.7501738 C23.2847203,11.7546849 23.1567816,11.7590081 23.0338871,11.7590081 C22.9357549,11.7612637 22.8403741,11.7590081 22.744764,11.7590081 C22.6195766,11.7590081 22.49416,11.7590081 22.3712655,11.7567525 C22.2813874,11.7546849 22.188758,11.7501738 22.0988799,11.7458506 C21.9787367,11.7411514 21.8588229,11.7368283 21.7414311,11.7300615 C21.651553,11.7255504 21.5644263,11.7185957 21.4770703,11.7120169 C21.3624299,11.7031826 21.2480187,11.6941603 21.1336076,11.6853259 C21.049003,11.6764916 20.9643983,11.6676572 20.880023,11.6586349 C20.7708853,11.6451015 20.6617477,11.6338236 20.5553613,11.620666 C20.470986,11.6092002 20.3918841,11.5958547 20.3100309,11.5847648 C20.2063959,11.5714193 20.102761,11.5558182 20.0021067,11.5375856 C19.9202535,11.5244281 19.8411516,11.5108946 19.7648011,11.4975491 C19.6639175,11.4774369 19.5657853,11.4595803 19.4729266,11.4419116 C19.394054,11.4261225 19.3204548,11.4080779 19.2411236,11.3904092 C19.1512456,11.3723646 19.0613675,11.3499968 18.9714894,11.3298846 C18.8951389,11.3095844 18.8213104,11.2919157 18.7479406,11.2740591 C18.663336,11.2516913 18.5762092,11.2295114 18.4916046,11.2047001 C18.4207568,11.1843999 18.3471577,11.162408 18.2760806,11.1422958 C18.1969788,11.1174844 18.1181061,11.0953046 18.0390043,11.0706812 C17.9709079,11.0483134 17.8973087,11.0259456 17.828983,11.0015102 C17.7581352,10.9766988 17.6815554,10.9498199 17.610937,10.9274521 C17.5400892,10.9028287 17.4717635,10.8763257 17.4091698,10.8515143 C17.338322,10.826891 17.272977,10.8002 17.204422,10.773509 C17.1420577,10.7486976 17.0739613,10.7220066 17.010909,10.6951277 C16.9457933,10.6682487 16.882741,10.6415577 16.8228987,10.6146788 C16.7603051,10.5879878 16.6974821,10.5611088 16.6346592,10.5321622 C16.577339,10.5071629 16.5202481,10.4804719 16.4659085,10.4513374 C16.4056076,10.4244584 16.3432433,10.3932563 16.2856938,10.3643097 C16.2313542,10.3376187 16.1767854,10.3129954 16.1277193,10.2861164 C16.0703991,10.2549142 16.0130789,10.2257797 15.9587393,10.1966452 C15.9069218,10.1697662 15.8603778,10.1430752 15.8140631,10.1161963 C15.7597235,10.0849941 15.7049254,10.0560476 15.6533372,10.0246574 C15.6097739,9.99777848 15.5634592,9.97089952 15.5169151,9.94627614 C15.4678491,9.91526196 15.418783,9.88387185 15.3724682,9.85473731 C15.3289049,9.82992597 15.2878636,9.80323498 15.2470516,9.77635602 C15.2007369,9.74740945 15.1544222,9.71827491 15.1104002,9.68707277 C15.0725689,9.66019381 15.034279,9.63557043 14.9959891,9.60887943 C14.9554064,9.5797449 14.911843,9.55079833 14.8735531,9.52391937 C14.8352632,9.4949728 14.7997247,9.47016146 14.7614348,9.44347046 C14.7288769,9.4165915 14.6935677,9.39178016 14.6580292,9.36508917 C14.6199686,9.33595463 14.58443,9.30926364 14.5516429,9.28238468 C14.5188557,9.26001688 14.4918006,9.23558146 14.4617648,9.21302569 C14.4262263,9.18182354 14.3936684,9.15513255 14.3581298,9.12825359 C14.3363482,9.10814137 14.3090637,9.08784117 14.2872821,9.06998452 C14.2517435,9.03859441 14.216205,9.00758023 14.1808958,8.9784457 C14.1646168,8.96265666 14.1481086,8.94949913 14.134581,8.93371009 C14.093769,8.89799679 14.0554792,8.86472703 14.0199406,8.83089337 C14.0146672,8.82431461 14.0061838,8.81773584 13.9981589,8.81078115 C13.7445743,8.57169 13.6083815,8.40628103 13.5810971,8.37489091 C13.4474264,8.20045964 13.1993445,8.11343196 12.9512627,8.14031092 C12.6758964,8.17376864 12.4140577,8.21850425 12.1524483,8.27000659 C12.0923767,8.28109651 12.0325344,8.29237439 11.9724628,8.30553193 C11.7216296,8.35477869 11.4735477,8.41304776 11.2307393,8.47564001 C11.1954301,8.48672993 11.1653943,8.49781985 11.1326072,8.50458658 C10.9173125,8.56492327 10.7072912,8.62770349 10.5000213,8.69687451 C10.4401791,8.71473116 10.3856102,8.73258781 10.3285193,8.75270004 C10.1077219,8.8286378 9.88921722,8.90683113 9.68217663,8.98991154 C9.62783708,9.01190342 9.57579033,9.03201565 9.52420214,9.05682699 C9.35224152,9.12599802 9.18601292,9.19761258 9.02505778,9.27355034 C8.97048894,9.29798575 8.91316874,9.32054152 8.85882918,9.34723252 C8.67058962,9.43444816 8.49083345,9.52598698 8.31359937,9.6154582 C8.25352779,9.64891592 8.19345622,9.68256161 8.13338464,9.71150818 C7.99719183,9.78537833 7.86329182,9.85699289 7.73535312,9.93293065 C7.68651631,9.9598096 7.63722093,9.98875617 7.58815483,10.0178907 C7.43270243,10.107174 7.28275277,10.1989008 7.1412865,10.2906275 C7.08121492,10.3285964 7.02389471,10.3643097 6.96657451,10.4020906 C6.85468546,10.4737052 6.74829916,10.5475753 6.6448935,10.6169343 C6.5875733,10.6549032 6.53300446,10.6951277 6.47591353,10.7332845 C6.3722786,10.8069667 6.26864366,10.8804609 6.17326284,10.9498199 C6.12694811,10.9879767 6.07765273,11.02369 6.03133801,11.0573357 C6.01482979,11.0706812 5.99304811,11.0887258 5.97424708,11.1018834 C6.59032467,6.43697444 9.56203348,4.2488769 15.2144937,4.2488769 M5.93870855,12.6262774 C5.96599297,12.5995864 5.99579948,12.5727075 6.02858664,12.5435729 C6.05311969,12.5234607 6.07765273,12.4992132 6.10218578,12.4764695 C6.14850051,12.436433 6.19779589,12.393953 6.24938407,12.3490294 C6.27391712,12.3270375 6.29845017,12.3067374 6.3232125,12.2866251 C6.38580617,12.2307996 6.45665394,12.1749741 6.52750172,12.1144494 C6.55203477,12.0967807 6.57381645,12.0787361 6.5983495,12.0586239 C6.68020275,11.9915205 6.77283221,11.9199059 6.86844231,11.8462237 C6.88747262,11.8328782 6.90375156,11.8195327 6.92278187,11.8059993 C7.28023068,11.535706 7.71104935,11.2336466 8.20996444,10.9344068 C8.21798927,10.9297077 8.22899475,10.9231289 8.23701957,10.9186177 C8.38696924,10.8293345 8.54517301,10.7376077 8.71163089,10.6483244 C8.74694014,10.6280243 8.79073277,10.6081 8.82856411,10.5855442 C8.96521548,10.511862 9.10415967,10.4402475 9.2460845,10.3710765 C9.30317543,10.3419419 9.36049563,10.315063 9.42056721,10.288372 C9.55125728,10.2257797 9.684928,10.1631875 9.82387219,10.1030387 C9.89219787,10.0714607 9.96304565,10.0445817 10.0311421,10.0156351 C10.1648128,9.9598096 10.3039862,9.90623965 10.4401791,9.85473731 C10.5163003,9.82804632 10.5956315,9.79665621 10.671982,9.76977725 C10.8109262,9.72053049 10.952851,9.67372727 11.0970686,9.62899166 C11.1789219,9.60436828 11.258253,9.57767729 11.3401063,9.55305391 C11.4953294,9.50813033 11.6535332,9.46790588 11.8115077,9.429937 C11.8878582,9.41001274 11.9614573,9.38990051 12.0405592,9.37204386 C12.2670887,9.32054152 12.495911,9.27355034 12.735968,9.23558146 C12.7467442,9.23558146 12.7522469,9.23332588 12.7632524,9.23107031 C12.9404865,9.4165915 13.21035,9.67372727 13.5783457,9.96864395 L13.5810971,9.97089952 C13.638188,10.0178907 13.6984889,10.0626263 13.7583312,10.1096175 C13.7665853,10.1139407 13.772088,10.1205195 13.7801129,10.1254065 C13.8374331,10.1697662 13.900256,10.2145018 13.959869,10.2592374 C13.9708745,10.2660042 13.98188,10.2750265 13.9928855,10.2838608 C14.0527278,10.3261529 14.1125701,10.3688209 14.1756223,10.4113009 C14.1944233,10.4244584 14.2081802,10.4334807 14.2246884,10.4447586 C14.2872821,10.4872387 14.3498757,10.5297187 14.4154501,10.5723867 C14.4347096,10.5834766 14.456262,10.5988897 14.4752923,10.6103556 C14.5381153,10.6524597 14.6034603,10.6928721 14.6715567,10.7332845 C14.6963191,10.7486976 14.7178715,10.7622311 14.7426338,10.7776442 C14.8107302,10.8180566 14.8763045,10.858469 14.9496744,10.8985055 C14.9744367,10.9142946 14.9989698,10.9297077 15.0262542,10.9432411 C15.097102,10.9857212 15.1679497,11.02369 15.2415489,11.0616589 C15.2715847,11.0795156 15.3013912,11.0953046 15.331427,11.1133492 C15.4050261,11.1511301 15.4788545,11.1868434 15.5549758,11.2270679 C15.5852408,11.242669 15.6177987,11.2605256 15.6533372,11.2785702 C15.7294585,11.3144715 15.8060383,11.3522524 15.8849109,11.3879657 C15.9204494,11.4058224 15.9587393,11.423867 15.9940486,11.439656 C16.0731504,11.4751813 16.1522523,11.5108946 16.2341056,11.5466079 C16.2749176,11.5648405 16.3157296,11.5826972 16.3540195,11.5982982 C16.4358727,11.6338236 16.5202481,11.6676572 16.6021013,11.700927 C16.6456647,11.7185957 16.6894573,11.7368283 16.7330207,11.7524293 C16.8199181,11.7858871 16.904752,11.8195327 16.9918787,11.8507349 C17.0384227,11.866336 17.0847375,11.8841926 17.1310522,11.9022372 C17.2181789,11.9311838 17.3082863,11.9601304 17.401145,11.993964 C17.4499818,12.0071216 17.5017993,12.0249782 17.5508654,12.0407672 C17.6409727,12.0699018 17.7336022,12.100916 17.8262317,12.1257273 C17.8808005,12.143584 17.9353693,12.159185 17.9899382,12.1749741 C18.085319,12.1994095 18.1779484,12.2261005 18.2760806,12.2529794 C18.3308788,12.2687685 18.3879697,12.2843695 18.4452899,12.297903 C18.5431928,12.3223384 18.6415543,12.3447062 18.7422086,12.3691416 C18.8022801,12.3826751 18.8651031,12.3960206 18.9251747,12.4095541 C19.0260582,12.4319219 19.1267125,12.4541017 19.2303474,12.4744019 C19.2931704,12.4877474 19.3585154,12.4992132 19.4266118,12.5101152 C19.530476,12.5302274 19.6313596,12.5478961 19.7377459,12.5661287 C19.8058423,12.5792862 19.8766901,12.5883085 19.9475379,12.5995864 C20.0539242,12.6151875 20.1575591,12.6330441 20.2634869,12.6463896 C20.3400667,12.6554119 20.4191685,12.6642463 20.4927677,12.6755242 C20.599154,12.6868021 20.7055403,12.7003355 20.8144487,12.7112375 C20.8935506,12.7200718 20.9781552,12.7270265 21.0627598,12.7337932 C21.1691461,12.7426276 21.2755324,12.7537175 21.3844408,12.7627398 C21.4743189,12.767251 21.5644263,12.7715742 21.6543044,12.7762733 C21.7606907,12.782852 21.867077,12.7916864 21.9759854,12.7941299 C22.0743468,12.7982651 22.1750011,12.8007087 22.276114,12.8031522 C22.3795196,12.8052198 22.4833838,12.809731 22.5897701,12.809731 C22.7067034,12.8119866 22.8266172,12.809731 22.9495118,12.8072875 C23.0393898,12.8072875 23.1292679,12.809731 23.219146,12.8072875 C23.3803304,12.8031522 23.5440369,12.7982651 23.7100363,12.7896188 C23.7648344,12.7873632 23.8221546,12.7851076 23.8764941,12.782852 C24.0998137,12.7740177 24.323821,12.756537 24.5526433,12.7409359 L24.5526433,11.8997937 C24.5526433,11.2436088 24.9820863,10.6693765 25.6213212,10.3511522 C24.7383608,5.54658547 21.3172615,3.20266516 15.2144937,3.20266516 C9.10782816,3.20266516 5.68397755,5.54846511 4.80399773,10.3566032 C5.43635426,10.6757673 5.85960667,11.2473681 5.85960667,11.8997937 L5.85960667,12.7022152 C5.85960667,12.7003355 5.86212876,12.7003355 5.86488013,12.697892 C5.884369,12.6755242 5.9141755,12.6510888 5.93870855,12.6262774" id="Fill-5" fill="#474F59"></path>
                <path d="M26.4215547,17.6146584 C26.4263155,17.5979825 26.4312926,17.5820733 26.4360533,17.5652057 C26.4462239,17.5220784 26.4516338,17.4762676 26.4516338,17.4331403 L26.394938,12.8244614 C26.394938,12.8194778 26.3923412,12.8152609 26.3923412,12.8106606 L26.3923412,17.42624 C26.3923412,17.4914101 26.404243,17.5538968 26.4215547,17.6146584" id="Fill-7" fill="#474F59"></path>
                <g id="Group-11" transform="translate(6.405330, 17.614658)">
                    <mask id="mask-2" fill="white">
                        <use xlink:href="#path-1"></use>
                    </mask>
                    <g id="Clip-10"></g>
                    <path d="M14.2755475,6.32257549 C12.8429528,7.2651471 11.2156138,7.7645414 9.57060942,7.7645414 C7.92262536,7.7645414 6.29528633,7.26289842 4.86035045,6.31601684 C3.02358144,5.1064145 1.79211615,3.15493522 0.88054238,0.0116556569 C0.843296195,0.556398336 0.53276943,1.03480496 0.0668728647,1.34381104 C1.02058804,4.12036841 2.30781619,5.93973775 4.14926757,7.15383745 C5.78916389,8.23451548 7.66445609,8.80736666 9.57060942,8.80736666 C11.4735702,8.80736666 13.3467341,8.23920023 14.9866304,7.15814742 C15.5915084,6.76069327 16.1346642,6.29371743 16.6280165,5.74972431 L15.0309001,5.74972431 C14.790609,5.95660285 14.539889,6.1483028 14.2755475,6.32257549" id="Fill-9" fill="#474F59" mask="url(#mask-2)"></path>
                </g>
                <path d="M7.23304614,13.6113269 L7.17894706,17.4586411 C7.1945276,17.5119424 7.21097372,17.5622825 7.22677065,17.6146584 C7.229151,17.578754 7.23304614,17.5434049 7.23304614,17.5069454 L7.23304614,13.6113269 Z" id="Fill-12" fill="#7D71D1"></path>
                <path d="M24.8012875,13.6113269 C24.7986907,13.6113269 24.7963104,13.6117005 24.7937136,13.6118873 L24.7937136,17.5053798 C24.7937136,17.5421796 24.7976088,17.5782322 24.8002055,17.6146584 C24.815786,17.5614201 24.8322322,17.5104234 24.8475963,17.4566247 L24.8012875,13.6113269 Z" id="Fill-14" fill="#7D71D1"></path>
                <path d="M16.78094,22.8751776 C16.6621919,22.9004686 16.540378,22.9182513 16.4134545,22.9182513 C15.7038275,22.9182513 15.0986415,22.502136 14.8605322,21.919456 L16.8610592,21.919456 C16.9338205,21.887052 17.0137353,21.8676886 17.0989641,21.8676886 L19.1646901,21.8676886 C19.1971875,21.7060636 19.2159909,21.5398941 19.2159909,21.3695753 C19.2159909,21.0643055 18.9609176,20.8173235 18.644733,20.8173235 L14.1825849,20.8173235 C13.8664002,20.8173235 13.6113269,21.0643055 13.6113269,21.3695753 C13.6113269,22.8309185 14.8676857,24.0199887 16.4134545,24.0199887 C17.3231752,24.0199887 18.1302942,23.6062444 18.6424847,22.9696236 L17.0989641,22.9696236 C16.9812379,22.9696236 16.8716872,22.9348485 16.78094,22.8751776" id="Fill-16" fill="#474F59"></path>
                <g id="Group-20">
                    <mask id="mask-4" fill="white">
                        <use xlink:href="#path-3"></use>
                    </mask>
                    <g id="Clip-19"></g>
                    <path d="M29.8839171,15.9683502 L29.8839171,13.5128589 C30.4138716,13.7206814 30.789752,14.1929355 30.789752,14.7407964 C30.789752,15.2882735 30.4138716,15.7605276 29.8839171,15.9683502 L29.8839171,15.9683502 Z M28.6768586,12.8625259 C28.6768586,12.8648287 28.6744782,12.8648287 28.6744782,12.8673233 L28.6744782,16.6142695 C28.6744782,16.618875 28.6768586,16.618875 28.6768586,16.618875 L28.6768586,17.1709576 C28.6768586,17.5524453 28.3648151,17.8709913 27.9538785,17.9373871 C27.902809,17.9454467 27.8506575,17.9512035 27.7969912,17.9512035 L26.9065205,17.9512035 C26.8519886,17.9512035 26.7989715,17.9456386 26.74682,17.9370033 C26.4070778,17.8815456 26.1367989,17.6528065 26.0530535,17.3595906 C26.0357418,17.2987598 26.02384,17.2362019 26.02384,17.1709576 L26.02384,12.5501205 L26.02384,12.545515 L26.02384,12.3125542 C26.02384,11.8817494 26.4196288,11.5330758 26.9054385,11.5325001 L26.9065205,11.5325001 L27.7969912,11.5325001 C27.844382,11.5325001 27.8898252,11.5384489 27.9350521,11.5447814 C28.3550773,11.6036932 28.6768586,11.9233907 28.6768586,12.3125542 L28.6768586,12.8625259 Z M5.97255936,12.3125542 L5.97255936,12.9220135 L5.97255936,12.9262351 L5.97255936,12.9287298 L5.97255936,17.1709576 C5.97255936,17.2348587 5.96130676,17.2960732 5.94486064,17.3555608 C5.85029546,17.6959829 5.50427778,17.9512035 5.09290843,17.9512035 L4.19984092,17.9512035 C3.71338205,17.9512035 3.32235395,17.5998434 3.32235395,17.1709576 L3.32235395,16.618875 L3.32235395,16.6142695 L3.32235395,12.8673233 L3.32235395,12.8648287 L3.32235395,12.3125542 C3.32235395,12.0103192 3.51667782,11.7510688 3.79929138,11.6217314 C3.91982412,11.5666575 4.05442261,11.5325001 4.19984092,11.5325001 L5.09290843,11.5325001 C5.18466046,11.5325001 5.27186816,11.5486193 5.35539713,11.5718386 C5.71093624,11.6714323 5.97255936,11.9634968 5.97255936,12.3125542 L5.97255936,12.3125542 Z M2.11291506,15.9683502 C1.58252774,15.7605276 1.20686377,15.2882735 1.20686377,14.7407964 C1.20686377,14.1929355 1.58252774,13.7206814 2.11291506,13.5128589 L2.11291506,15.9683502 Z M29.8839171,12.3948773 L29.8839171,12.3125542 C29.8839171,11.4148683 29.1579075,10.6643661 28.1994883,10.4974173 C27.672347,3.61125707 23.5750995,0.120299117 16.0085867,0.120299117 C8.44229027,0.120299117 4.34612481,3.61048949 3.81617029,10.4951145 C2.84844606,10.655347 2.11291506,11.4089196 2.11291506,12.3125542 L2.11291506,12.3948773 C0.905856528,12.638968 2.16396294e-05,13.5976765 2.16396294e-05,14.7407964 C2.16396294e-05,15.8841082 0.905856528,16.8445438 2.11291506,17.0888264 L2.11291506,17.1709576 C2.11291506,18.1910726 3.04969462,19.0192924 4.19984092,19.0192924 L5.09290843,19.0192924 C5.56248839,19.0192924 5.99463179,18.8795926 6.34346261,18.6466318 C6.8171541,18.3303885 7.13287629,17.8402881 7.17074564,17.2826406 C7.15494872,17.2281423 7.13871899,17.1761387 7.12313846,17.1208729 L7.17702114,13.1317549 L7.17702114,12.3125542 C7.17702114,11.6466778 6.77755358,11.0631244 6.1807326,10.7370944 C5.95459847,10.6137058 5.70054922,10.5275448 5.42832268,10.4882063 C5.92127344,4.39745182 9.30311473,1.54857529 16.0085867,1.54857529 C22.7192522,1.54857529 26.093736,4.39111927 26.5871195,10.4862873 C26.312729,10.5238988 26.0565158,10.6085246 25.8282177,10.7315294 C25.2249049,11.0564081 24.8195946,11.642648 24.8195946,12.3125542 L24.8195946,13.1712854 C24.8221914,13.1710935 24.8247881,13.1707097 24.8271685,13.1707097 L24.8736937,17.1208729 C24.8581132,17.1761387 24.841667,17.2283342 24.8260865,17.2832163 C24.8641723,17.8406719 25.1809764,18.3309642 25.6555335,18.6472075 C25.9647638,18.8531111 26.3391294,18.9847512 26.74682,19.0121923 L26.74682,20.0486184 C26.74682,21.1733163 25.7150425,22.0886565 24.4465274,22.0886565 L24.0141676,22.0886565 L22.5757814,22.0886565 L19.2711936,22.0886565 L17.0840763,22.0886565 C16.9940554,22.0886565 16.9092281,22.1072704 16.8324074,22.1387412 C16.6261817,22.2231751 16.4820618,22.406435 16.4820618,22.6227009 C16.4820618,22.8078798 16.5874468,22.970607 16.7473636,23.0669384 C16.84366,23.1248907 16.959432,23.1586643 17.0840763,23.1586643 L18.7185175,23.1586643 L21.5578533,23.1586643 L23.1816911,23.1586643 L24.4465274,23.1586643 C26.3815431,23.1586643 27.9538785,21.7620508 27.9538785,20.0486184 L27.9538785,19.0121923 C29.0308829,18.9409991 29.8839171,18.1442501 29.8839171,17.1709576 L29.8839171,17.0888264 C31.0907592,16.8445438 31.9965941,15.8841082 31.9965941,14.7407964 C31.9965941,13.5976765 31.0907592,12.638968 29.8839171,12.3948773 L29.8839171,12.3948773 Z" id="Fill-18" fill="#474F59" mask="url(#mask-4)"></path>
                </g>
            </g>
        </g>
    </g>
</svg>