<?xml version="1.0" encoding="UTF-8"?>
<svg width="20px" height="20px" viewBox="0 0 20 20" version="1.1" xmlns="http://www.w3.org/2000/svg" xmlns:xlink="http://www.w3.org/1999/xlink">
    <title>Group 5</title>
    <defs>
        <polygon id="path-1" points="0 0.109194862 19.6407574 0.109194862 19.6407574 7.4555858 0 7.4555858"></polygon>
        <polygon id="path-3" points="0 5.91715976e-05 12.5952663 5.91715976e-05 12.5952663 11.3986391 0 11.3986391"></polygon>
    </defs>
    <g id="Page-1" stroke="none" stroke-width="1" fill="none" fill-rule="evenodd">
        <g id="헤어컬러1" transform="translate(-684.000000, -944.000000)">
            <g id="Group-5" transform="translate(684.000000, 944.000000)">
                <g id="Group-26">
                    <g id="Group-3" transform="translate(0.000000, 12.477870)">
                        <mask id="mask-2" fill="white">
                            <use xlink:href="#path-1"></use>
                        </mask>
                        <g id="Clip-2"></g>
                        <path d="M19.6407574,7.4555858 L-7.10059172e-05,7.4555858 L-7.10059172e-05,3.89570414 C-7.10059172e-05,3.05712426 0.216142012,2.26777515 0.626201183,1.61416568 C0.863715976,1.23487574 1.15152663,0.908011834 1.48217751,0.641502959 C1.6676213,0.492863905 1.89223669,0.32860355 2.14194083,0.157597633 C2.26549112,0.0721538462 2.43519527,0.103514793 2.51957396,0.228130178 C2.60454438,0.35156213 2.57318343,0.520792899 2.44915976,0.60564497 C2.21188166,0.768840237 1.99839053,0.924224852 1.8224142,1.06493491 C1.53969231,1.29286391 1.29164497,1.57511243 1.08667456,1.90233136 C0.731289941,2.47002367 0.543005917,3.15937278 0.543005917,3.89570414 L0.543005917,6.91262722 L19.0976805,6.91262722 L19.0976805,3.89570414 C19.0976805,3.1599645 18.9093964,2.47061538 18.5541302,1.90233136 C18.348568,1.57452071 18.1009941,1.29286391 17.8173254,1.06493491 C17.6418225,0.924224852 17.4284497,0.768248521 17.1904615,0.605171598 C17.0664379,0.520201183 17.0350769,0.350970414 17.1200473,0.227538462 C17.2048994,0.102923077 17.3748402,0.0721538462 17.4977988,0.15712426 C17.7479763,0.329076923 17.9725917,0.492863905 18.1575621,0.641502959 C18.4888047,0.907420118 18.7770888,1.23487574 19.0144852,1.61416568 C19.4245444,2.26884024 19.6407574,3.05771598 19.6407574,3.89570414 L19.6407574,7.4555858 Z" id="Fill-1" fill="#474F59" mask="url(#mask-2)"></path>
                    </g>
                    <path d="M9.82035503,0.542970414 C7.3191716,0.542970414 5.28449704,3.10001183 5.28449704,6.24261538 C5.28449704,9.38521893 7.3191716,11.9415503 9.82035503,11.9415503 C12.3216568,11.9415503 14.356213,9.38521893 14.356213,6.24261538 C14.356213,3.10001183 12.3216568,0.542970414 9.82035503,0.542970414 M9.82035503,12.4846272 C7.01976331,12.4846272 4.74142012,9.68462722 4.74142012,6.24261538 C4.74142012,2.80001183 7.01976331,1.18343195e-05 9.82035503,1.18343195e-05 C12.6210651,1.18343195e-05 14.8992899,2.80001183 14.8992899,6.24261538 C14.8992899,9.68462722 12.6210651,12.4846272 9.82035503,12.4846272" id="Fill-4" fill="#474F59"></path>
                    <path d="M16.3893254,2.82408284 C16.2389112,2.82408284 16.1177278,2.70289941 16.1177278,2.55260355 L16.1177278,0.543017751 L14.1082604,0.543017751 C13.9579645,0.543017751 13.8367811,0.421715976 13.8367811,0.271538462 C13.8367811,0.121242604 13.9579645,5.91715976e-05 14.1082604,5.91715976e-05 L16.6608047,5.91715976e-05 L16.6608047,2.55260355 C16.6608047,2.70289941 16.5396213,2.82408284 16.3893254,2.82408284" id="Fill-6" fill="#474F59"></path>
                    <path d="M5.5320355,12.4846509 L2.97949112,12.4846509 L2.97949112,9.93210651 C2.97949112,9.78181065 3.10067456,9.66062722 3.25097041,9.66062722 C3.40114793,9.66062722 3.5224497,9.78181065 3.5224497,9.93210651 L3.5224497,11.941574 L5.5320355,11.941574 C5.68233136,11.941574 5.80351479,12.0628757 5.80351479,12.2131716 C5.80351479,12.3634675 5.68233136,12.4846509 5.5320355,12.4846509" id="Fill-8" fill="#474F59"></path>
                    <path d="M16.6608047,12.4846509 L14.1082604,12.4846509 C13.9579645,12.4846509 13.8367811,12.3634675 13.8367811,12.2131716 C13.8367811,12.0628757 13.9579645,11.941574 14.1082604,11.941574 L16.1177278,11.941574 L16.1177278,9.93210651 C16.1177278,9.78181065 16.2390296,9.66062722 16.3893254,9.66062722 C16.5396213,9.66062722 16.6608047,9.78181065 16.6608047,9.93210651 L16.6608047,12.4846509 Z" id="Fill-10" fill="#474F59"></path>
                    <path d="M3.25092308,2.82408284 C3.10062722,2.82408284 2.97944379,2.70289941 2.97944379,2.55260355 L2.97944379,5.91715976e-05 L5.53257988,5.91715976e-05 C5.68287574,5.91715976e-05 5.80405917,0.121242604 5.80405917,0.271538462 C5.80405917,0.421715976 5.68287574,0.543017751 5.53257988,0.543017751 L3.52240237,0.543017751 L3.52240237,2.55260355 C3.52240237,2.70289941 3.40121893,2.82408284 3.25092308,2.82408284" id="Fill-12" fill="#474F59"></path>
                    <path d="M16.389787,3.95700592 C16.3552308,3.95700592 16.3155858,3.95144379 16.2870651,3.94020118 C16.2523905,3.92304142 16.2239882,3.90564497 16.1953491,3.87712426 C16.1439882,3.83132544 16.1149941,3.75712426 16.1149941,3.68824852 C16.1149941,3.61404734 16.1439882,3.54528994 16.1953491,3.49392899 C16.2239882,3.47108876 16.2523905,3.44813018 16.2870651,3.4364142 C16.3495503,3.40789349 16.4238698,3.40789349 16.4926272,3.4364142 C16.5273018,3.44813018 16.5557041,3.47108876 16.5786627,3.49392899 C16.6071834,3.5224497 16.6244615,3.55085207 16.6412663,3.58552663 C16.6529822,3.61404734 16.6585444,3.65416568 16.6585444,3.68824852 C16.6585444,3.76256805 16.6300237,3.83132544 16.5786627,3.87712426 C16.5273018,3.92860355 16.4585444,3.95700592 16.389787,3.95700592" id="Fill-14" fill="#474F59"></path>
                    <path d="M16.1149586,4.94143195 C16.1149586,4.79220118 16.347218,4.66663905 16.6204005,4.66663905 C16.8938005,4.66663905 17.1149586,4.79220118 17.1149586,4.94143195 C17.1149586,5.09007101 16.8938005,5.21018935 16.6204005,5.21018935 C16.347218,5.21018935 16.1149586,5.09007101 16.1149586,4.94143195 M16.1149586,6.19397633 C16.1149586,6.03977515 16.347218,5.91977515 16.6204005,5.91977515 C16.8938005,5.91977515 17.1149586,6.03977515 17.1149586,6.19397633 C17.1149586,6.34261538 16.8938005,6.46261538 16.6204005,6.46261538 C16.347218,6.46261538 16.1149586,6.34261538 16.1149586,6.19397633 M16.1149586,7.44711243 C16.1149586,7.29231953 16.347218,7.17231953 16.6204005,7.17231953 C16.8938005,7.17231953 17.1149586,7.29231953 17.1149586,7.44711243 C17.1149586,7.59575148 16.8938005,7.71575148 16.6204005,7.71575148 C16.347218,7.71575148 16.1149586,7.59575148 16.1149586,7.44711243" id="Fill-16" fill="#474F59"></path>
                    <path d="M16.389787,8.97457988 C16.3155858,8.97457988 16.2468284,8.94605917 16.1953491,8.89398817 C16.1439882,8.84274556 16.1149941,8.77398817 16.1149941,8.70534911 C16.1149941,8.63102959 16.1439882,8.56227219 16.1953491,8.5107929 C16.2983077,8.41363314 16.4813846,8.41363314 16.5786627,8.5107929 C16.6300237,8.56227219 16.6585444,8.63102959 16.6585444,8.70534911 C16.6585444,8.77398817 16.6300237,8.84274556 16.5786627,8.89398817 C16.5273018,8.94605917 16.4641065,8.97457988 16.389787,8.97457988" id="Fill-18" fill="#474F59"></path>
                    <path d="M3.24930178,3.95700592 C3.18054438,3.95700592 3.11178698,3.92860355 3.06042604,3.87712426 C3.00847337,3.83132544 2.98007101,3.76256805 2.98007101,3.68824852 C2.98007101,3.61404734 3.00847337,3.54528994 3.06042604,3.49392899 C3.08338462,3.47108876 3.11178698,3.44813018 3.14586982,3.4364142 C3.24930178,3.39676923 3.36942012,3.41960947 3.44373964,3.49392899 C3.49510059,3.54528994 3.52350296,3.61404734 3.52350296,3.68824852 C3.52350296,3.75712426 3.49510059,3.83132544 3.44373964,3.87712426 C3.41510059,3.90564497 3.38610651,3.92304142 3.35202367,3.94020118 C3.3236213,3.95144379 3.28894675,3.95700592 3.24930178,3.95700592" id="Fill-20" fill="#474F59"></path>
                    <path d="M2.98002367,4.94143195 C2.98002367,4.79220118 3.20101213,4.66663905 3.47534263,4.66663905 C3.74858452,4.66663905 3.98002367,4.79220118 3.98002367,4.94143195 C3.98002367,5.09007101 3.74858452,5.21018935 3.47534263,5.21018935 C3.20101213,5.21018935 2.98002367,5.09007101 2.98002367,4.94143195 M2.98002367,6.19397633 C2.98002367,6.03977515 3.20101213,5.91977515 3.47534263,5.91977515 C3.74858452,5.91977515 3.98002367,6.03977515 3.98002367,6.19397633 C3.98002367,6.34261538 3.74858452,6.46261538 3.47534263,6.46261538 C3.20101213,6.46261538 2.98002367,6.34261538 2.98002367,6.19397633 M2.98002367,7.44711243 C2.98002367,7.29231953 3.20101213,7.17231953 3.47534263,7.17231953 C3.74858452,7.17231953 3.98002367,7.29231953 3.98002367,7.44711243 C3.98002367,7.59575148 3.74858452,7.71575148 3.47534263,7.71575148 C3.20101213,7.71575148 2.98002367,7.59575148 2.98002367,7.44711243" id="Fill-22" fill="#474F59"></path>
                    <path d="M3.24930178,8.97457988 C3.18054438,8.97457988 3.11178698,8.94605917 3.06042604,8.89398817 C3.00847337,8.84274556 2.98007101,8.78002367 2.98007101,8.70534911 C2.98007101,8.63102959 3.00847337,8.56227219 3.06042604,8.5107929 C3.08338462,8.48795266 3.11178698,8.46499408 3.14586982,8.45386982 C3.24930178,8.41363314 3.36942012,8.43647337 3.44373964,8.5107929 C3.49510059,8.56227219 3.52350296,8.63102959 3.52350296,8.70534911 C3.52350296,8.77398817 3.49510059,8.84274556 3.44373964,8.89398817 C3.39226036,8.94605917 3.3236213,8.97457988 3.24930178,8.97457988" id="Fill-24" fill="#474F59"></path>
                </g>
                <g id="Group-3" opacity="0.5" transform="translate(3.550296, 0.591716)">
                    <mask id="mask-4" fill="white">
                        <use xlink:href="#path-3"></use>
                    </mask>
                    <g id="Clip-2"></g>
                    <polygon id="Fill-1" fill="#F7778A" mask="url(#mask-4)" points="-0.000118343195 11.3986391 12.5952663 11.3986391 12.5952663 5.91715976e-05 -0.000118343195 5.91715976e-05"></polygon>
                </g>
            </g>
        </g>
    </g>
</svg>