<?xml version="1.0" encoding="UTF-8"?>
<svg width="18px" height="20px" viewBox="0 0 18 20" version="1.1" xmlns="http://www.w3.org/2000/svg" xmlns:xlink="http://www.w3.org/1999/xlink">
    <title>Group 56</title>
    <defs>
        <polygon id="path-1" points="0 0.103322276 16.9941 0.103322276 16.9941 16.2222222 0 16.2222222"></polygon>
    </defs>
    <g id="Page-1" stroke="none" stroke-width="1" fill="none" fill-rule="evenodd">
        <g id="Group-6">
            <path d="M8.34114444,7.77777778e-05 C4.5697,7.77777778e-05 1.50125556,2.96674444 1.50125556,6.6133 L1.49192222,14.5788556 C1.54181111,14.5151889 1.59381111,14.4561889 1.64681111,14.3999667 C1.84992222,14.1829667 2.06592222,14.0198556 2.23747778,13.9087444 L2.23736667,13.6867444 L2.24836667,13.5783 L2.25136667,13.5494111 L2.25947778,6.61341111 C2.25947778,3.37207778 4.98758889,0.735188889 8.34114444,0.735188889 C11.6945889,0.735188889 14.4227,3.37207778 14.4227,6.61341111 L14.4227,11.6539667 L14.4314778,11.8494111 L14.4109222,13.7443 C14.4109222,13.7443 14.7234778,13.9327444 15.0879222,14.3131889 C15.1187,14.3451889 15.1494778,14.3780778 15.1809222,14.4129667 L15.1809222,6.61341111 C15.1809222,2.96674444 12.1125889,7.77777778e-05 8.34114444,7.77777778e-05" id="Fill-1" fill="#F7778A"></path>
            <g id="Group-5" transform="translate(0.000000, 3.466111)">
                <mask id="mask-2" fill="white">
                    <use xlink:href="#path-1"></use>
                </mask>
                <g id="Clip-4"></g>
                <path d="M8.53765556,15.6283667 L8.45643333,15.6283667 L0.692988889,15.6283667 C0.796877778,14.9994778 1.04043333,13.6211444 1.34865556,12.5149222 C1.70976667,11.2195889 2.87987778,10.6762556 2.9761,10.6335889 L6.56576667,9.41103333 L6.6961,7.78247778 L6.52121111,7.69158889 C5.38687778,7.10258889 5.12121111,5.45192222 5.11865556,5.43592222 L5.08576667,5.21736667 L4.86698889,5.18614444 C4.63332222,5.1527 4.45632222,5.01725556 4.34087778,4.78336667 C4.16032222,4.41703333 4.17287778,3.87558889 4.36632222,3.5307 C4.38643333,3.50092222 4.47254444,3.40603333 4.53532222,3.3367 C4.81887778,3.02414444 4.93343333,2.89036667 4.92332222,2.71514444 C4.90743333,2.44625556 5.07076667,1.65214444 5.18154444,1.19536667 C5.24365556,1.09625556 5.41743333,0.867477778 5.75354444,0.758366667 C6.19243333,0.616033333 6.7511,0.721477778 7.41421111,1.07203333 C7.6161,1.21281111 8.84087778,2.03936667 9.73487778,2.03936667 C10.1913222,2.03936667 11.1917667,1.98981111 11.9045444,1.60014444 C11.9954333,2.02614444 12.0824333,2.51547778 12.0706556,2.71514444 C12.0604333,2.89036667 12.1749889,3.02414444 12.4588778,3.3367 C12.5216556,3.40603333 12.6077667,3.50092222 12.6235444,3.52381111 C12.8213222,3.87558889 12.8339889,4.41703333 12.6532111,4.78336667 C12.5378778,5.01725556 12.3607667,5.1527 12.1272111,5.18614444 L11.9089889,5.2177 L11.8755444,5.43547778 C11.8731,5.45192222 11.6074333,7.10258889 10.4729889,7.69158889 L10.2982111,7.78247778 L10.4283222,9.41103333 L14.0183222,10.6338111 C14.1177667,10.6771444 15.2822111,11.2122556 15.6453222,12.5149222 C15.9535444,13.6205889 16.1973222,14.9994778 16.3012111,15.6283667 L8.53765556,15.6283667 Z M16.9429889,15.8811444 C16.9306556,15.7995889 16.6383222,13.8657 16.2174333,12.3555889 C15.7628778,10.7244778 14.2994333,10.1070333 14.2373222,10.0814778 L10.9892111,8.9747 L10.9208778,8.11903333 C11.9408778,7.47925556 12.3134333,6.21781111 12.4237667,5.72536667 C12.7527667,5.61981111 13.0188778,5.38436667 13.1857667,5.04625556 C13.4541,4.50247778 13.4358778,3.75681111 13.1414333,3.23281111 C13.1025444,3.16347778 13.0313222,3.08403333 12.8985444,2.93758889 C12.8321,2.86425556 12.7173222,2.73792222 12.6652111,2.66858889 C12.6611,2.24114444 12.4757667,1.41825556 12.4065444,1.1247 C12.4194333,1.03447778 12.3918778,0.939811111 12.3219889,0.870922222 C12.2052111,0.7557 12.0172111,0.757033333 11.9019889,0.873922222 C11.5545444,1.22658889 10.7241,1.44547778 9.73487778,1.44547778 C9.11321111,1.44547778 8.08454444,0.817588889 7.74054444,0.575588889 L7.70932222,0.556366667 C6.88354444,0.116144444 6.1581,-0.00396666667 5.55332222,0.199144444 C4.88498889,0.423588889 4.6271,0.967922222 4.61643333,0.990922222 C4.59776667,1.03136667 4.58976667,1.0737 4.58998889,1.11536667 C4.52221111,1.40114444 4.33298889,2.23692222 4.32876667,2.66858889 C4.27665556,2.73814444 4.16198889,2.86447778 4.09554444,2.9377 C3.96265556,3.08403333 3.89165556,3.16347778 3.85276667,3.23281111 C3.55832222,3.75681111 3.53998889,4.50247778 3.80843333,5.04625556 C3.97532222,5.38436667 4.24143333,5.61981111 4.57043333,5.72536667 C4.68065556,6.21781111 5.05332222,7.47925556 6.07332222,8.11903333 L6.00476667,8.9747 L2.77376667,10.0751444 L2.75687778,10.0814778 C2.69454444,10.1070333 1.23121111,10.7244778 0.776544444,12.3555889 C0.355766667,13.8657 0.0634333333,15.7995889 0.0511,15.8811444 L-1.11111108e-05,16.2222556 L8.45643333,16.2222556 L8.53765556,16.2222556 L16.9941,16.2222556 L16.9429889,15.8811444 Z" id="Fill-3" fill="#344154" mask="url(#mask-2)"></path>
            </g>
        </g>
    </g>
</svg>