<svg xmlns="http://www.w3.org/2000/svg" width="216" height="216.001" viewBox="0 0 216 216.001">
    <defs>
        <filter id="wt05e611da" width="216" height="216.001" x="0" y="0" filterUnits="userSpaceOnUse">
            <feOffset/>
            <feGaussianBlur result="blur" stdDeviation="16"/>
            <feFlood flood-color="#fff"/>
            <feComposite in2="blur" operator="in"/>
            <feComposite in="SourceGraphic"/>
        </filter>
    </defs>
    <g filter="url(#wt05e611da)" transform="matrix(1, 0, 0, 1, 0, 0)">
        <g fill="#3d3e57">
            <path d="M5014 3101.75c-8.066 0-15.891-1.58-23.258-4.695-3.542-1.499-6.956-3.352-10.148-5.509-3.165-2.139-6.14-4.593-8.843-7.296-2.704-2.703-5.158-5.679-7.296-8.843-2.158-3.194-4.012-6.609-5.51-10.15-3.115-7.366-4.695-15.191-4.695-23.257s1.58-15.89 4.696-23.257c1.497-3.54 3.35-6.955 5.509-10.15 2.137-3.164 4.592-6.14 7.296-8.843 2.704-2.704 5.679-5.158 8.843-7.296 3.192-2.157 6.607-4.01 10.148-5.51 7.367-3.115 15.192-4.694 23.258-4.694 8.066 0 15.891 1.58 23.258 4.695 3.54 1.498 6.955 3.352 10.149 5.51 3.164 2.137 6.139 4.591 8.843 7.295 2.702 2.702 5.157 5.678 7.296 8.844 2.158 3.193 4.01 6.608 5.509 10.149 3.115 7.366 4.695 15.191 4.695 23.257s-1.58 15.89-4.695 23.258c-1.498 3.54-3.351 6.955-5.509 10.149-2.137 3.164-4.592 6.14-7.296 8.843-2.703 2.703-5.678 5.157-8.843 7.296-3.196 2.159-6.61 4.012-10.15 5.509-7.366 3.115-15.191 4.695-23.257 4.695zm-10.25-86.298v53.094l.413-.358 30-25.999.219-.189-.218-.189-30-26-.414-.36z" transform="translate(-4906 -2934)"/>
            <path fill="#fff" d="M5014 3101.5c8.032 0 15.825-1.573 23.16-4.675 3.524-1.49 6.924-3.336 10.107-5.486 3.152-2.13 6.114-4.574 8.806-7.266 2.693-2.692 5.137-5.655 7.266-8.806 2.148-3.18 3.994-6.58 5.486-10.107 3.102-7.336 4.675-15.128 4.675-23.16s-1.573-15.824-4.675-23.16c-1.492-3.526-3.338-6.926-5.486-10.106-2.13-3.153-4.575-6.116-7.266-8.807-2.693-2.693-5.656-5.137-8.806-7.266-3.18-2.148-6.58-3.994-10.107-5.486-7.335-3.102-15.128-4.675-23.16-4.675-8.033 0-15.825 1.573-23.16 4.675-3.527 1.492-6.927 3.338-10.107 5.486-3.15 2.129-6.113 4.573-8.805 7.266-2.693 2.692-5.137 5.655-7.266 8.807-2.15 3.18-3.995 6.58-5.486 10.106-3.102 7.336-4.676 15.128-4.676 23.16s1.574 15.824 4.676 23.16c1.491 3.526 3.337 6.926 5.486 10.107 2.129 3.151 4.573 6.114 7.266 8.806 2.691 2.692 5.654 5.136 8.805 7.266 3.18 2.148 6.58 3.994 10.107 5.486 7.335 3.102 15.127 4.675 23.16 4.675m-10.5-86.595l.827.717 30.437 26.378-.436.378-30.828 26.716v-54.19M5014 3102c-8.1 0-15.958-1.586-23.355-4.715-3.556-1.504-6.985-3.365-10.191-5.532-3.179-2.147-6.166-4.612-8.88-7.326-2.715-2.715-5.18-5.703-7.326-8.88-2.167-3.208-4.029-6.637-5.533-10.192-3.128-7.397-4.715-15.255-4.715-23.355s1.587-15.957 4.715-23.355c1.504-3.555 3.366-6.984 5.533-10.191 2.146-3.178 4.61-6.165 7.326-8.88 2.715-2.715 5.702-5.18 8.88-7.327 3.206-2.167 6.635-4.028 10.191-5.532 7.397-3.13 15.255-4.715 23.355-4.715s15.958 1.586 23.355 4.715c3.555 1.504 6.984 3.365 10.192 5.532 3.178 2.147 6.165 4.612 8.88 7.326 2.715 2.715 5.18 5.703 7.326 8.88 2.167 3.209 4.028 6.638 5.532 10.192 3.129 7.398 4.715 15.255 4.715 23.355s-1.586 15.958-4.715 23.355c-1.504 3.555-3.365 6.984-5.532 10.192-2.147 3.178-4.612 6.165-7.327 8.88-2.714 2.714-5.7 5.179-8.88 7.326-3.208 2.167-6.636 4.029-10.191 5.532-7.397 3.129-15.255 4.715-23.355 4.715zm-10-86v51.999l30-25.999-30-26z" transform="translate(-4906 -2934)"/>
        </g>
    </g>
</svg>
