<svg xmlns="http://www.w3.org/2000/svg" xmlns:xlink="http://www.w3.org/1999/xlink" width="416" height="208" viewBox="0 0 416 208">
    <defs>
        <linearGradient id="linear-gradient" x1=".5" x2=".5" y2="2.508" gradientUnits="objectBoundingBox">
            <stop offset=".18" stop-color="#fff"/>
            <stop offset=".225" stop-color="#e7e7e7"/>
            <stop offset=".317" stop-color="#ababab"/>
            <stop offset=".343" stop-color="#999"/>
            <stop offset=".348" stop-color="#a5a5a5"/>
            <stop offset=".356" stop-color="#c7c7c7"/>
            <stop offset=".366" stop-color="#fcfcfc"/>
            <stop offset=".367" stop-color="#fff"/>
            <stop offset=".647" stop-color="#fff"/>
            <stop offset=".756" stop-color="#fff"/>
            <stop offset=".79" stop-color="#f3f3f3"/>
            <stop offset=".851" stop-color="#d3d3d3"/>
            <stop offset=".932" stop-color="#a0a0a0"/>
            <stop offset=".944" stop-color="#999"/>
            <stop offset=".989" stop-color="#fff"/>
        </linearGradient>
        <linearGradient id="linear-gradient-4" x1=".5" x2=".5" y1="0" y2="2.483" xlink:href="#linear-gradient"/>
        <linearGradient id="linear-gradient-8" x1=".5" x2=".5" y1="-1.516" y2="1.01" xlink:href="#linear-gradient"/>
        <linearGradient id="linear-gradient-10" x1=".5" x2=".5" y1="-1.473" y2="1" xlink:href="#linear-gradient"/>
        <linearGradient id="linear-gradient-11" x1=".5" x2=".5" y1="-1.469" y2="1" xlink:href="#linear-gradient"/>
        <linearGradient id="linear-gradient-13" x1=".01" x2="6.96" y1=".5" y2=".5" xlink:href="#linear-gradient"/>
        <linearGradient id="linear-gradient-14" x1="-4.29" x2="23.336" y1=".5" y2=".5" xlink:href="#linear-gradient"/>
        <linearGradient id="linear-gradient-15" x1="-2.078" x2="6.023" y1=".5" y2=".5" xlink:href="#linear-gradient"/>
        <linearGradient id="linear-gradient-16" x1="-3.364" x2="5.008" y1=".5" y2=".5" xlink:href="#linear-gradient"/>
        <linearGradient id="linear-gradient-17" x1="-3.379" x2="2.841" y1=".5" y2=".5" xlink:href="#linear-gradient"/>
        <linearGradient id="linear-gradient-18" x1="-4.982" x2="1.968" y1=".5" y2=".5" xlink:href="#linear-gradient"/>
        <linearGradient id="linear-gradient-19" x1="-6.855" x2=".992" y1=".5" y2=".5" xlink:href="#linear-gradient"/>
        <linearGradient id="linear-gradient-20" x1="-.109" x2="9.639" y1=".5" y2=".5" xlink:href="#linear-gradient"/>
        <linearGradient id="linear-gradient-21" x1="-6.464" x2="42.979" y1=".5" y2=".5" xlink:href="#linear-gradient"/>
        <linearGradient id="linear-gradient-22" x1="-1.22" x2="5.832" y1=".5" y2=".5" xlink:href="#linear-gradient"/>
        <linearGradient id="linear-gradient-23" x1="-3.448" x2="6.914" y1=".5" y2=".5" xlink:href="#linear-gradient"/>
        <linearGradient id="linear-gradient-24" x1="-4.425" x2="5.323" y1=".5" y2=".5" xlink:href="#linear-gradient"/>
        <clipPath id="clip-path">
            <path id="mask" d="M0 0H416V208H0z" class="cls-1" transform="translate(-0.384)"/>
        </clipPath>
        <clipPath id="clip-path-2">
            <path id="mask-2" d="M0 0H416V147H0z" class="cls-1" transform="translate(-0.384 -0.32)"/>
        </clipPath>
        <style>
            .cls-1,.cls-3{fill:#fff}.cls-1{stroke:#707070}.cls-6{fill:url(#linear-gradient)}.cls-8{fill:url(#linear-gradient-8)}
        </style>
    </defs>
    <g id="img_title_THE_AGE_OF_AI_KIOSK_2" clip-path="url(#clip-path)" transform="translate(0.384)">
        <path id="pth" d="M3292.106 2381.954v.8h-9.079v30.381h-.887v-30.381h-9.079v-.8z" class="cls-3" transform="translate(-3272.211 -2381.689)"/>
        <path id="pth-2" d="M3321.575 2381.954v31.179h-.886V2397.5h-19.442v15.634h-.885v-31.179h.885v14.745h19.442v-14.748z" class="cls-3" transform="translate(-3276.26 -2381.689)"/>
        <path id="pth-3" d="M3334.526 2382.752v14.392h13.022v.8h-13.022v14.393h14.35v.8h-15.235v-31.179h15.235v.8z" class="cls-3" transform="translate(-3281.197 -2381.689)"/>
        <path id="pth-4" d="M3389.436 2404.7h-15.412l-3.276 8.592h-1.02l11.559-30.248h.887l11.514 30.248h-1.018zm-.309-.8l-7.4-19.441-7.4 19.441z" class="cls-3" transform="translate(-3286.549 -2381.851)"/>
        <path id="pth-5" d="M3429.876 2391.165a12.984 12.984 0 0 0-4.85-6.312 13.772 13.772 0 0 0-8.126-2.414 13.933 13.933 0 0 0-7.085 1.839 13.022 13.022 0 0 0-5.028 5.27 18.3 18.3 0 0 0 0 15.988 13.013 13.013 0 0 0 5.028 5.27 14.6 14.6 0 0 0 14.06.066 13.194 13.194 0 0 0 5.071-5.116 16.1 16.1 0 0 0 1.993-7.772h-14.7v-.8h15.545v.354a17.464 17.464 0 0 1-1.9 8.237 13.963 13.963 0 0 1-5.292 5.647 15.657 15.657 0 0 1-15.367 0 13.96 13.96 0 0 1-5.291-5.647 18.759 18.759 0 0 1 0-16.475 13.946 13.946 0 0 1 5.291-5.646 14.744 14.744 0 0 1 7.684-2.015 14.449 14.449 0 0 1 8.636 2.568 14.617 14.617 0 0 1 5.226 6.954z" class="cls-3" transform="translate(-3291.339 -2381.643)"/>
        <path id="pth-6" d="M3444.87 2382.752v14.392h13.02v.8h-13.02v14.393h14.349v.8h-15.236v-31.179h15.236v.8z" class="cls-3" transform="translate(-3297.563 -2381.689)"/>
        <path id="pth-7" d="M3488.828 2411.426a13.963 13.963 0 0 1-5.292-5.647 18.777 18.777 0 0 1 0-16.475 13.949 13.949 0 0 1 5.292-5.646 15.657 15.657 0 0 1 15.367 0 13.955 13.955 0 0 1 5.292 5.646 18.768 18.768 0 0 1 0 16.475 13.97 13.97 0 0 1-5.292 5.647 15.657 15.657 0 0 1-15.367 0zm14.77-.62a13.018 13.018 0 0 0 5.026-5.27 18.3 18.3 0 0 0 0-15.988 13.027 13.027 0 0 0-5.026-5.27 14.57 14.57 0 0 0-14.172 0 13.013 13.013 0 0 0-5.026 5.27 18.292 18.292 0 0 0 0 15.988 13 13 0 0 0 5.026 5.27 14.579 14.579 0 0 0 14.172 0z" class="cls-3" transform="translate(-3303.148 -2381.643)"/>
        <path id="pth-8" d="M3538.83 2381.954v.8h-14.349v14.392h13.02v.8h-13.02v15.19h-.886v-31.179z" class="cls-3" transform="translate(-3309.372 -2381.689)"/>
        <g id="img_title_AI_Human_KIOSK" clip-path="url(#clip-path-2)" transform="translate(0 61.32)">
            <path id="pth-9" d="M41.454-20.344H19.809L16.34-10.1H1.552l20.983-57.994h16.358L59.876-10.1H44.923zm-3.635-10.9L30.631-52.48l-7.1 21.231zm42.545-36.85V-10.1H66.237v-57.994zm77.986 0V-10.1h-14.127v-23.875h-21.975V-10.1h-14.126v-57.994h14.127v22.718h21.975v-22.718zm24.04 0v34.7q0 5.2 2.561 8.013t7.518 2.809q4.957 0 7.6-2.809t2.644-8.013v-34.7h14.127v34.614a24.609 24.609 0 0 1-3.3 13.135 21.159 21.159 0 0 1-8.881 8.1 27.928 27.928 0 0 1-12.433 2.726 27.233 27.233 0 0 1-12.268-2.685 20.016 20.016 0 0 1-8.55-8.1 25.855 25.855 0 0 1-3.139-13.177v-34.613zm110.039 0V-10.1H278.3v-34.78L265.333-10.1h-11.4l-13.054-34.863V-10.1h-14.126v-57.994h16.687l16.275 40.15 16.109-40.15zm46.263 47.75h-21.644l-3.47 10.244H298.79l20.983-57.994h16.357L357.115-10.1h-14.953zm-3.635-10.9L327.87-52.48l-7.1 21.231zm80.3 21.149H401.23L377.6-45.871V-10.1h-14.124v-57.994H377.6l23.63 35.936v-35.936h14.127zM37.819 76.77L14.109 50.5v26.27H6.591V19.19h7.518v26.683L37.9 19.19h9.5L21.3 48.021 47.65 76.77zm25.775-57.58v57.58h-7.518V19.19zM102.5 77.349a29.057 29.057 0 0 1-14.618-3.759A27.516 27.516 0 0 1 77.431 63.1a30.041 30.041 0 0 1-3.841-15.161 30.041 30.041 0 0 1 3.841-15.159 27.515 27.515 0 0 1 10.45-10.492 30.481 30.481 0 0 1 29.327 0 27.3 27.3 0 0 1 10.409 10.45 30.235 30.235 0 0 1 3.8 15.2 30.235 30.235 0 0 1-3.8 15.2 27.3 27.3 0 0 1-10.409 10.45 29.217 29.217 0 0 1-14.708 3.761zm0-6.526a21.219 21.219 0 0 0 10.863-2.809 19.769 19.769 0 0 0 7.6-8.013 25.31 25.31 0 0 0 2.768-12.061 25.248 25.248 0 0 0-2.768-12.1 19.92 19.92 0 0 0-7.559-7.972 22.573 22.573 0 0 0-21.81 0 19.92 19.92 0 0 0-7.559 7.972 25.248 25.248 0 0 0-2.768 12.1A25.31 25.31 0 0 0 84.04 60a19.769 19.769 0 0 0 7.6 8.013 21.219 21.219 0 0 0 10.86 2.809zm57.085 6.526a24.628 24.628 0 0 1-10.2-2.024 17 17 0 0 1-7.063-5.618 14.393 14.393 0 0 1-2.644-8.3h8.013a10.552 10.552 0 0 0 3.346 6.816q2.933 2.768 8.55 2.768 5.37 0 8.468-2.685a8.713 8.713 0 0 0 3.1-6.9 7.83 7.83 0 0 0-1.817-5.37 11.611 11.611 0 0 0-4.544-3.139 71 71 0 0 0-7.352-2.313 64.752 64.752 0 0 1-9.129-2.974 14.7 14.7 0 0 1-5.865-4.668q-2.437-3.181-2.437-8.55a14.816 14.816 0 0 1 2.4-8.344 15.607 15.607 0 0 1 6.733-5.618 23.705 23.705 0 0 1 9.955-1.983q8.1 0 13.259 4.048a14.954 14.954 0 0 1 5.824 10.74h-8.261a8.912 8.912 0 0 0-3.47-5.824 12.325 12.325 0 0 0-8.1-2.52 11.729 11.729 0 0 0-7.683 2.437 8.321 8.321 0 0 0-2.974 6.816 7.386 7.386 0 0 0 1.776 5.122 11.451 11.451 0 0 0 4.378 3.015q2.6 1.033 7.311 2.354a68.668 68.668 0 0 1 9.17 3.1 15.3 15.3 0 0 1 5.948 4.709q2.478 3.181 2.478 8.633a15.159 15.159 0 0 1-2.23 7.923 16.4 16.4 0 0 1-6.609 6.031 21.809 21.809 0 0 1-10.327 2.318zm61.463-.578L197.343 50.5v26.27h-7.518V19.19h7.518v26.683l23.792-26.683h9.5L204.53 48.021l26.353 28.749z" class="cls-3" transform="translate(-0.23 68.866)"/>
            <g id="AI_HUMAN_KIOSK" opacity="0.7" transform="translate(0.715 0.346)">
                <path id="패스_13557" d="M3321.122 2686.7h-21.645l-3.47 10.244h-14.787l20.983-57.994h16.356l20.984 57.994h-14.953zm-3.635-10.9l-7.187-21.231-7.1 21.231z" class="cls-6" transform="translate(-3280.613 -2638.524)"/>
                <path id="패스_13558" d="M3371.3 2638.95v57.994h-14.127v-57.994z" class="cls-6" transform="translate(-3291.878 -2638.524)"/>
                <path id="패스_13559" d="M3456.577 2638.95v57.994h-14.127v-23.875h-21.974v23.875h-14.128v-57.994h14.128v22.719h21.974v-22.719z" class="cls-6" transform="translate(-3299.173 -2638.524)"/>
                <path id="패스_13560" fill="url(#linear-gradient-4)" d="M3491.091 2638.95v34.7q0 5.2 2.56 8.013t7.519 2.809q4.955 0 7.6-2.809t2.644-8.013v-34.7h14.126v34.615a24.611 24.611 0 0 1-3.3 13.135 21.159 21.159 0 0 1-8.881 8.1 27.918 27.918 0 0 1-12.433 2.726 27.224 27.224 0 0 1-12.268-2.684 20.007 20.007 0 0 1-8.551-8.1 25.847 25.847 0 0 1-3.138-13.177v-34.615z" transform="translate(-3309.647 -2638.524)"/>
                <path id="패스_13561" d="M3611.315 2638.95v57.994h-14.127v-34.78l-12.97 34.78h-11.4l-13.053-34.861v34.861h-14.127v-57.994h16.688l16.275 40.15 16.109-40.15z" class="cls-6" transform="translate(-3319.833 -2638.524)"/>
                <path id="패스_13562" d="M3670.124 2686.7h-21.644l-3.47 10.244h-14.788l20.984-57.994h16.357l20.984 57.994h-14.954zm-3.635-10.9l-7.187-21.231-7.102 21.231z" class="cls-6" transform="translate(-3332.38 -2638.524)"/>
                <path id="패스_13563" d="M3758.054 2696.944h-14.127l-23.627-35.771v35.771h-14.126v-57.994h14.126l23.627 35.937v-35.937h14.127z" class="cls-6" transform="translate(-3343.646 -2638.524)"/>
                <path id="패스_13564" d="M3318.365 2799.016l-23.71-26.27v26.27h-7.517v-57.581h7.517v26.684l23.791-26.684h9.5l-26.105 28.832 26.353 28.749z" class="cls-8" transform="translate(-3281.491 -2653.726)"/>
                <path id="패스_13565" d="M3352.758 2741.435v57.581h-7.518v-57.581z" class="cls-8" transform="translate(-3290.109 -2653.726)"/>
                <path id="패스_13566" fill="url(#linear-gradient-10)" d="M3380.095 2795.72a27.506 27.506 0 0 1-10.451-10.493 31.835 31.835 0 0 1 0-30.318 27.514 27.514 0 0 1 10.451-10.492 30.477 30.477 0 0 1 29.327 0 27.315 27.315 0 0 1 10.41 10.45 32.31 32.31 0 0 1 0 30.4 27.311 27.311 0 0 1-10.41 10.451 30.484 30.484 0 0 1-29.327 0zm25.486-5.577a19.767 19.767 0 0 0 7.6-8.013 27.76 27.76 0 0 0 0-24.164 19.947 19.947 0 0 0-7.559-7.972 22.579 22.579 0 0 0-21.81 0 19.933 19.933 0 0 0-7.559 7.972 27.751 27.751 0 0 0 0 24.164 19.759 19.759 0 0 0 7.6 8.013 22.414 22.414 0 0 0 21.728 0z" transform="translate(-3293.159 -2653.61)"/>
                <path id="패스_13567" fill="url(#linear-gradient-11)" d="M3453.109 2797.441a16.98 16.98 0 0 1-7.064-5.618 14.393 14.393 0 0 1-2.645-8.3h8.015a10.547 10.547 0 0 0 3.345 6.816q2.932 2.769 8.55 2.767 5.369 0 8.468-2.684a8.712 8.712 0 0 0 3.1-6.9 7.834 7.834 0 0 0-1.816-5.369 11.619 11.619 0 0 0-4.544-3.14 71 71 0 0 0-7.352-2.313 64.713 64.713 0 0 1-9.129-2.974 14.686 14.686 0 0 1-5.866-4.667q-2.437-3.18-2.437-8.551a14.808 14.808 0 0 1 2.4-8.343 15.622 15.622 0 0 1 6.734-5.619 23.7 23.7 0 0 1 9.955-1.982q8.1 0 13.259 4.049a14.961 14.961 0 0 1 5.824 10.739h-8.262a8.921 8.921 0 0 0-3.469-5.824 12.332 12.332 0 0 0-8.1-2.52 11.729 11.729 0 0 0-7.682 2.438 8.32 8.32 0 0 0-2.975 6.815 7.383 7.383 0 0 0 1.775 5.122 11.449 11.449 0 0 0 4.379 3.016q2.6 1.033 7.311 2.354a68.688 68.688 0 0 1 9.17 3.1 15.326 15.326 0 0 1 5.948 4.709q2.479 3.181 2.479 8.633a15.16 15.16 0 0 1-2.23 7.93 16.389 16.389 0 0 1-6.61 6.031 21.8 21.8 0 0 1-10.327 2.313 24.612 24.612 0 0 1-10.204-2.028z" transform="translate(-3304.669 -2653.596)"/>
                <path id="패스_13568" d="M3533.508 2799.016l-23.711-26.27v26.27h-7.517v-57.581h7.517v26.684l23.793-26.684h9.5l-26.105 28.832 26.353 28.749z" class="cls-8" transform="translate(-3313.402 -2653.726)"/>
                <path id="패스_13569" fill="url(#linear-gradient-13)" d="M3340.046 2697.3h-15.865l-3.47-10.244h-21.034l-3.47 10.244h-15.7l.207-.571 21.086-58.275h16.953l.1.282zm-15.254-.852h14.04l-20.675-57.142H3302.4l-20.676 57.142h13.876l3.471-10.244h22.255zm-6.817-20.3H3302.5l7.693-22.992zm-14.293-.852h13.105l-6.59-19.47z" transform="translate(-3280.507 -2638.45)"/>
                <path id="패스_13570" fill="url(#linear-gradient-14)" d="M3371.649 2697.3h-14.979v-58.85h14.979zm-14.127-.852h13.278V2639.3h-13.275z" transform="translate(-3291.804 -2638.45)"/>
                <path id="패스_13571" fill="url(#linear-gradient-15)" d="M3456.929 2697.3h-14.979v-23.88h-21.122v23.88h-14.979v-58.85h14.979v22.719h21.122v-22.719h14.979zm-14.127-.852h13.276V2639.3H3442.8v22.718h-22.826V2639.3H3406.7v57.142h13.276v-23.875h22.824z" transform="translate(-3299.099 -2638.45)"/>
                <path id="패스_13572" fill="url(#linear-gradient-16)" d="M3500.847 2697.874a27.758 27.758 0 0 1-12.457-2.729 20.505 20.505 0 0 1-8.73-8.263 26.373 26.373 0 0 1-3.2-13.391v-35.041h14.978v35.124c0 3.344.824 5.944 2.449 7.726s4.038 2.67 7.2 2.67 5.618-.9 7.29-2.675 2.529-4.379 2.529-7.721v-35.124h14.978v35.041a25.138 25.138 0 0 1-3.367 13.358 21.671 21.671 0 0 1-9.056 8.255 28.471 28.471 0 0 1-12.614 2.77zm-23.532-58.572v34.189a25.538 25.538 0 0 0 3.081 12.963 19.676 19.676 0 0 0 8.371 7.928 26.926 26.926 0 0 0 12.079 2.64 27.628 27.628 0 0 0 12.245-2.683 20.839 20.839 0 0 0 8.706-7.937 24.3 24.3 0 0 0 3.24-12.912v-34.19h-13.274v34.272c0 3.566-.928 6.36-2.76 8.3s-4.5 2.943-7.91 2.943-6.051-.992-7.833-2.948-2.672-4.736-2.672-8.3V2639.3z" transform="translate(-3309.573 -2638.45)"/>
                <path id="패스_13573" fill="url(#linear-gradient-17)" d="M3611.667 2697.3h-14.979v-32.845l-12.248 32.845h-11.991l-.1-.276-12.229-32.66v32.936h-14.979v-58.85h17.4l.107.266 15.879 39.171 15.823-39.437h17.319zm-14.127-.852h13.276V2639.3h-15.892l-16.4 40.862-16.563-40.862h-15.971v57.142h13.275v-36.788l13.774 36.788h10.809l13.691-36.715z" transform="translate(-3319.759 -2638.45)"/>
                <path id="패스_13574" fill="url(#linear-gradient-18)" d="M3689.048 2697.3h-15.866l-3.469-10.244h-21.035l-3.47 10.244h-15.7l.207-.571 21.086-58.275h16.954l.1.282zm-15.255-.852h14.041l-20.674-57.142h-15.76l-20.676 57.142h13.876l3.47-10.244h22.254zm-6.816-20.3H3651.5l7.694-22.992zm-14.294-.852h13.106l-6.59-19.47z" transform="translate(-3332.274 -2638.45)"/>
                <path id="패스_13575" fill="url(#linear-gradient-19)" d="M3758.405 2697.3h-14.782l-22.972-34.78v34.78h-14.978v-58.85h14.782l.127.193 22.845 34.747v-34.94h14.979zm-14.324-.852h13.473V2639.3h-13.275v36.933L3720 2639.3h-13.471v57.142h13.271v-36.762z" transform="translate(-3343.571 -2638.45)"/>
                <path id="패스_13576" fill="url(#linear-gradient-20)" d="M3329.09 2799.367h-10.99l-.127-.141-22.967-25.448v25.589h-8.369v-58.432h8.369v25.992l23.176-25.992h10.651l-26.489 29.256zm-10.61-.852h8.674l-25.962-28.321 25.723-28.407h-8.352l-24.408 27.375v-27.375h-6.665v56.729h6.665v-26.952z" transform="translate(-3281.417 -2653.651)"/>
                <path id="패스_13577" fill="url(#linear-gradient-21)" d="M3353.109 2799.367h-8.369v-58.432h8.369zm-7.518-.852h6.666v-56.729h-6.666z" transform="translate(-3290.035 -2653.651)"/>
                <path id="패스_13578" fill="url(#linear-gradient-22)" d="M3394.643 2799.831a29.589 29.589 0 0 1-14.833-3.815 28.043 28.043 0 0 1-10.61-10.651 32.257 32.257 0 0 1 0-30.74 28.07 28.07 0 0 1 10.61-10.651 30.905 30.905 0 0 1 29.747 0 27.86 27.86 0 0 1 10.57 10.61 32.734 32.734 0 0 1 0 30.822 27.846 27.846 0 0 1-10.57 10.61 29.751 29.751 0 0 1-14.914 3.815zm0-58.82a28.769 28.769 0 0 0-14.412 3.7 27.223 27.223 0 0 0-10.291 10.333 31.4 31.4 0 0 0 0 29.9 27.207 27.207 0 0 0 10.291 10.333 30.055 30.055 0 0 0 28.906 0 27.008 27.008 0 0 0 10.25-10.291 31.882 31.882 0 0 0 0-29.98 27.016 27.016 0 0 0-10.25-10.291 28.937 28.937 0 0 0-14.494-3.704zm0 52.293a21.73 21.73 0 0 1-11.078-2.867 20.261 20.261 0 0 1-7.762-8.181 28.172 28.172 0 0 1 0-24.566 20.443 20.443 0 0 1 7.718-8.138 23 23 0 0 1 22.241 0 20.455 20.455 0 0 1 7.719 8.138 28.189 28.189 0 0 1 0 24.566 20.278 20.278 0 0 1-7.762 8.181 21.731 21.731 0 0 1-11.076 2.863zm0-45.766a20.832 20.832 0 0 0-10.69 2.75 19.6 19.6 0 0 0-7.4 7.806 27.334 27.334 0 0 0 0 23.762 19.424 19.424 0 0 0 7.439 7.846 21.991 21.991 0 0 0 21.3 0 19.449 19.449 0 0 0 7.438-7.846 27.341 27.341 0 0 0 0-23.762 19.608 19.608 0 0 0-7.4-7.806 20.836 20.836 0 0 0-10.687-2.75z" transform="translate(-3293.085 -2653.537)"/>
                <path id="패스_13579" fill="url(#linear-gradient-23)" d="M3463.235 2799.816a25.153 25.153 0 0 1-10.376-2.061 17.482 17.482 0 0 1-7.237-5.76 14.882 14.882 0 0 1-2.723-8.542l-.007-.433h8.833l.039.382a10.179 10.179 0 0 0 3.214 6.55c1.863 1.759 4.642 2.651 8.258 2.651 3.459 0 6.214-.868 8.19-2.58a8.337 8.337 0 0 0 2.95-6.577 7.457 7.457 0 0 0-1.711-5.088 11.259 11.259 0 0 0-4.38-3.025 71.107 71.107 0 0 0-7.306-2.3 65.315 65.315 0 0 1-9.188-3 15.16 15.16 0 0 1-6.034-4.8 14.172 14.172 0 0 1-2.524-8.809 15.292 15.292 0 0 1 2.466-8.578 16.107 16.107 0 0 1 6.912-5.771 24.233 24.233 0 0 1 10.132-2.021c5.468 0 10.017 1.393 13.522 4.139a15.437 15.437 0 0 1 5.986 11.032l.046.468h-9.108l-.047-.373a8.55 8.55 0 0 0-3.317-5.548 11.97 11.97 0 0 0-7.825-2.423 11.374 11.374 0 0 0-7.413 2.341 7.954 7.954 0 0 0-2.818 6.486 7 7 0 0 0 1.667 4.838 11.077 11.077 0 0 0 4.219 2.9c1.718.682 4.164 1.469 7.269 2.34a69.624 69.624 0 0 1 9.227 3.119 15.806 15.806 0 0 1 6.112 4.837c1.7 2.188 2.569 5.181 2.569 8.9a15.646 15.646 0 0 1-2.291 8.149 16.878 16.878 0 0 1-6.776 6.188 22.317 22.317 0 0 1-10.53 2.369zm-19.47-15.944a13.933 13.933 0 0 0 2.552 7.629 16.64 16.64 0 0 0 6.892 5.477 24.311 24.311 0 0 0 10.027 1.986 21.477 21.477 0 0 0 10.128-2.264 16.042 16.042 0 0 0 6.443-5.873 14.806 14.806 0 0 0 2.17-7.711c0-3.522-.8-6.337-2.389-8.372a14.972 14.972 0 0 0-5.784-4.581 68.9 68.9 0 0 0-9.111-3.077c-3.136-.879-5.609-1.676-7.355-2.368a11.929 11.929 0 0 1-4.539-3.127 7.823 7.823 0 0 1-1.885-5.406 8.765 8.765 0 0 1 3.13-7.145 12.2 12.2 0 0 1 7.953-2.534 12.793 12.793 0 0 1 8.367 2.617 9.48 9.48 0 0 1 3.566 5.727h7.418a14.558 14.558 0 0 0-5.611-9.978c-3.352-2.627-7.724-3.958-13-3.958a23.384 23.384 0 0 0-9.777 1.944 15.272 15.272 0 0 0-6.556 5.465 14.47 14.47 0 0 0-2.324 8.109 13.355 13.355 0 0 0 2.349 8.291 14.331 14.331 0 0 0 5.7 4.537 64.78 64.78 0 0 0 9.067 2.952 71.94 71.94 0 0 1 7.4 2.329 12.1 12.1 0 0 1 4.707 3.254 8.284 8.284 0 0 1 1.923 5.651 9.157 9.157 0 0 1-3.244 7.22c-2.135 1.851-5.078 2.788-8.748 2.788-3.841 0-6.816-.97-8.843-2.883a10.977 10.977 0 0 1-3.431-6.7z" transform="translate(-3304.594 -2653.522)"/>
                <path id="패스_13580" fill="url(#linear-gradient-24)" d="M3544.232 2799.367h-10.989l-.126-.141-22.969-25.448v25.589h-8.368v-58.432h8.368v25.992l23.177-25.992h10.651l-26.49 29.256zm-10.609-.852h8.673l-25.962-28.321 25.722-28.407h-8.351l-24.409 27.375v-27.375h-6.665v56.729h6.665v-26.952z" transform="translate(-3313.328 -2653.651)"/>
            </g>
        </g>
    </g>
</svg>
