<svg xmlns="http://www.w3.org/2000/svg" xmlns:xlink="http://www.w3.org/1999/xlink" width="416" height="144" viewBox="0 0 416 144">
    <defs>
        <linearGradient id="linear-gradient" x1=".01" x2="6.063" y1=".5" y2=".5" gradientUnits="objectBoundingBox">
            <stop offset=".18" stop-color="#fff"/>
            <stop offset=".225" stop-color="#e7e7e7"/>
            <stop offset=".317" stop-color="#ababab"/>
            <stop offset=".343" stop-color="#999"/>
            <stop offset=".348" stop-color="#a5a5a5"/>
            <stop offset=".356" stop-color="#c7c7c7"/>
            <stop offset=".366" stop-color="#fcfcfc"/>
            <stop offset=".367" stop-color="#fff"/>
            <stop offset=".647" stop-color="#fff"/>
            <stop offset=".756" stop-color="#fff"/>
            <stop offset=".79" stop-color="#f3f3f3"/>
            <stop offset=".851" stop-color="#d3d3d3"/>
            <stop offset=".932" stop-color="#a0a0a0"/>
            <stop offset=".944" stop-color="#999"/>
            <stop offset=".989" stop-color="#fff"/>
        </linearGradient>
        <linearGradient id="linear-gradient-2" x1="-4.96" x2="22.447" y1=".5" y2=".5" xlink:href="#linear-gradient"/>
        <linearGradient id="linear-gradient-3" x1="-2.113" x2="4.893" y1=".5" y2=".5" xlink:href="#linear-gradient"/>
        <linearGradient id="linear-gradient-4" x1="-12.62" x2="14.787" y1=".5" y2=".5" xlink:href="#linear-gradient"/>
        <linearGradient id="linear-gradient-5" x1="-2.934" x2="2.737" y1=".5" y2=".5" xlink:href="#linear-gradient"/>
        <linearGradient id="linear-gradient-6" x1="-5.654" x2="2.312" y1=".5" y2=".5" xlink:href="#linear-gradient"/>
        <linearGradient id="linear-gradient-7" x1="-6.025" x2=".982" y1=".5" y2=".5" xlink:href="#linear-gradient"/>
        <linearGradient id="linear-gradient-8" x1=".5" x2=".5" y1="-1.03" y2="1.01" xlink:href="#linear-gradient"/>
        <linearGradient id="linear-gradient-9" x1=".5" x2=".5" y1="-1.033" y2="1.01" xlink:href="#linear-gradient"/>
        <linearGradient id="linear-gradient-12" x1=".5" x2=".5" y1="-.995" y2="1" xlink:href="#linear-gradient"/>
        <clipPath id="clip-path">
            <path id="mask" fill="#fff" stroke="#707070" d="M0 0H416V144H0z" transform="translate(3272.063 2381.643)"/>
        </clipPath>
        <style>
            .cls-3{fill:#fff}.cls-12{fill:url(#linear-gradient-9)}.cls-13{fill:url(#linear-gradient-12)}
        </style>
    </defs>
    <g id="img_title_THE_AGE_OF_AI_KIOSK" clip-path="url(#clip-path)" transform="translate(-3272.063 -2381.643)">
        <path id="pth" d="M3295.423 2381.954v.937h-10.66v35.672h-1.041v-35.672h-10.66v-.937z" class="cls-3"/>
        <path id="pth-2" d="M3325.27 2381.954v36.609h-1.041v-18.357H3301.4v18.357h-1.039v-36.609h1.039v17.317h22.828v-17.317z" class="cls-3"/>
        <path id="pth-3" d="M3334.68 2382.891v16.9h15.29v.937h-15.29v16.9h16.849v.936h-17.888v-36.609h17.888v.937z" class="cls-3"/>
        <path id="pth-4" d="M3392.868 2408.475h-18.1l-3.847 10.088h-1.2l13.572-35.516h1.041l13.519 35.516h-1.2zm-.363-.937l-8.685-22.827-8.684 22.827z" class="cls-3"/>
        <path id="pth-5" d="M3434.728 2392.823a15.246 15.246 0 0 0-5.694-7.411 16.17 16.17 0 0 0-9.542-2.834 16.362 16.362 0 0 0-8.319 2.159 15.291 15.291 0 0 0-5.9 6.188 21.491 21.491 0 0 0 0 18.772 15.279 15.279 0 0 0 5.9 6.188 17.138 17.138 0 0 0 16.509.078 15.494 15.494 0 0 0 5.954-6.007 18.9 18.9 0 0 0 2.34-9.126h-17.264v-.935h18.252v.416a20.506 20.506 0 0 1-2.236 9.672 16.4 16.4 0 0 1-6.214 6.63 18.384 18.384 0 0 1-18.044 0 16.393 16.393 0 0 1-6.213-6.63 22.027 22.027 0 0 1 0-19.344 16.379 16.379 0 0 1 6.213-6.63 17.312 17.312 0 0 1 9.022-2.366 16.967 16.967 0 0 1 10.14 3.015 17.166 17.166 0 0 1 6.136 8.165z" class="cls-3"/>
        <path id="pth-6" d="M3445.024 2382.891v16.9h15.287v.937h-15.287v16.9h16.848v.936h-17.889v-36.609h17.889v.937z" class="cls-3"/>
        <path id="pth-7" d="M3490.081 2416.613a16.4 16.4 0 0 1-6.214-6.63 22.047 22.047 0 0 1 0-19.344 16.38 16.38 0 0 1 6.214-6.63 18.384 18.384 0 0 1 18.044 0 16.388 16.388 0 0 1 6.214 6.63 22.038 22.038 0 0 1 0 19.344 16.4 16.4 0 0 1-6.214 6.63 18.384 18.384 0 0 1-18.044 0zm17.342-.728a15.284 15.284 0 0 0 5.9-6.188 21.491 21.491 0 0 0 0-18.772 15.3 15.3 0 0 0-5.9-6.188 17.11 17.11 0 0 0-16.64 0 15.281 15.281 0 0 0-5.9 6.188 21.48 21.48 0 0 0 0 18.772 15.269 15.269 0 0 0 5.9 6.188 17.118 17.118 0 0 0 16.64 0z" class="cls-3"/>
        <path id="pth-8" d="M3541.483 2381.954v.937h-16.848v16.9h15.288v.937h-15.288v17.836h-1.04v-36.609z" class="cls-3"/>
        <path id="pth-9" d="M3321.722 2510.263h-27.8l-4.6 13.3h-14.7l25.1-69.9h16.3l25.1 69.9h-14.8zm-3.8-11.2l-10.1-29.2-10.1 29.2z" class="cls-3"/>
        <path id="pth-10" d="M3363.52 2453.763v69.8h-14v-69.8z" class="cls-3"/>
        <path id="pth-11" d="M3438.52 2523.563l-25.4-31.1v31.1h-14v-69.8h14v31.3l25.4-31.3h16.9l-28.8 34.6 29.6 35.2z" class="cls-3"/>
        <path id="pth-12" d="M3478.42 2453.763v69.8h-14v-69.8z" class="cls-3"/>
        <path id="pth-13" d="M3505.62 2519.662a34.311 34.311 0 0 1-13-12.75 37.658 37.658 0 0 1 0-36.8 34.336 34.336 0 0 1 13-12.75 37.614 37.614 0 0 1 36.05 0 34.086 34.086 0 0 1 12.9 12.75 38.011 38.011 0 0 1 0 36.8 33.962 33.962 0 0 1-12.949 12.75 37.511 37.511 0 0 1-36 0zm29.1-10.75a19.525 19.525 0 0 0 7.5-8.149 26.74 26.74 0 0 0 2.7-12.3 26.436 26.436 0 0 0-2.7-12.25 19.282 19.282 0 0 0-7.5-8.051 21.642 21.642 0 0 0-11.1-2.8 21.909 21.909 0 0 0-11.15 2.8 19.175 19.175 0 0 0-7.55 8.051 26.439 26.439 0 0 0-2.7 12.25 26.744 26.744 0 0 0 2.7 12.3 19.414 19.414 0 0 0 7.55 8.149 21.583 21.583 0 0 0 11.15 2.851 21.321 21.321 0 0 0 11.1-2.851z" class="cls-3"/>
        <path id="pth-14" d="M3579.669 2521.763a21.558 21.558 0 0 1-9.25-7.2 18.934 18.934 0 0 1-3.5-11.1h15a9.687 9.687 0 0 0 3.05 6.8 10.8 10.8 0 0 0 7.549 2.5q4.9 0 7.7-2.351a7.641 7.641 0 0 0 2.8-6.149 7.116 7.116 0 0 0-1.9-5.1 13.325 13.325 0 0 0-4.75-3.149 78.769 78.769 0 0 0-7.85-2.55 83.938 83.938 0 0 1-11.049-3.95 19.333 19.333 0 0 1-7.3-5.9q-3.052-3.95-3.051-10.55a18.855 18.855 0 0 1 3.1-10.8 19.716 19.716 0 0 1 8.7-7.05 31.658 31.658 0 0 1 12.8-2.45q10.8 0 17.548 5.25t7.452 14.649h-15.4a8 8 0 0 0-3.051-5.949 11.493 11.493 0 0 0-7.548-2.35 9.722 9.722 0 0 0-6.551 2.1 7.588 7.588 0 0 0-2.45 6.1 6.3 6.3 0 0 0 1.85 4.65 14.04 14.04 0 0 0 4.6 3q2.748 1.151 7.75 2.65a81.709 81.709 0 0 1 11.1 4 19.976 19.976 0 0 1 7.4 6q3.1 4 3.1 10.5a19.742 19.742 0 0 1-2.9 10.4 20.464 20.464 0 0 1-8.5 7.649 28.979 28.979 0 0 1-13.3 2.851 33.147 33.147 0 0 1-13.149-2.501z" class="cls-3"/>
        <path id="pth-15" d="M3668.017 2523.563l-25.4-31.1v31.1h-14v-69.8h14v31.3l25.4-31.3h16.9l-28.8 34.6 29.6 35.2z" class="cls-3"/>
        <path id="pth-16" fill="url(#linear-gradient)" d="M3341.833 2524.063h-15.867l-4.6-13.3h-27.087l-4.6 13.3h-15.768l25.46-70.9h17l.119.331zm-15.154-1h13.732l-24.74-68.9h-15.6l-24.741 68.9h13.633l4.6-13.3h28.513zm-8.054-23.5h-21.6l10.8-31.23zm-20.2-1h18.8l-9.4-27.171z"/>
        <path id="pth-17" fill="url(#linear-gradient-2)" d="M3364.02 2524.063h-15v-70.8h15zm-14-1h13v-68.8h-13z"/>
        <path id="pth-18" fill="url(#linear-gradient-3)" d="M3457.293 2524.063h-19.01l-.15-.184-24.513-30.013v30.2h-15v-70.8h15v30.39l24.662-30.39h18.205l-29.215 35.1zm-18.535-1h16.387l-29.177-34.7 28.386-34.1h-15.595l-26.139 32.209v-32.209h-13v68.8h13v-32z"/>
        <path id="pth-19" fill="url(#linear-gradient-4)" d="M3478.92 2524.063h-15v-70.8h15zm-14-1h13v-68.8h-13z"/>
        <path id="pth-20" fill="url(#linear-gradient-5)" d="M3523.62 2524.763a36.8 36.8 0 0 1-18.245-4.665 34.965 34.965 0 0 1-13.186-12.932 38.16 38.16 0 0 1 0-37.307 35 35 0 0 1 13.186-12.932 38.117 38.117 0 0 1 36.541 0 34.741 34.741 0 0 1 13.084 12.934 38.51 38.51 0 0 1 0 37.3 34.6 34.6 0 0 1-13.137 12.934 36.8 36.8 0 0 1-18.243 4.668zm0-71.5a35.838 35.838 0 0 0-17.756 4.536 34.006 34.006 0 0 0-12.813 12.567 37.159 37.159 0 0 0 0 36.292 33.972 33.972 0 0 0 12.813 12.568 37.011 37.011 0 0 0 35.51 0 33.628 33.628 0 0 0 12.763-12.565 37.52 37.52 0 0 0 0-36.3 33.75 33.75 0 0 0-12.714-12.566 35.775 35.775 0 0 0-17.803-4.532zm0 59a22.175 22.175 0 0 1-11.4-2.919 20 20 0 0 1-7.743-8.354 27.355 27.355 0 0 1-2.754-12.527 27.038 27.038 0 0 1 2.755-12.478 19.747 19.747 0 0 1 7.745-8.256 22.494 22.494 0 0 1 11.4-2.866 22.217 22.217 0 0 1 11.351 2.867 19.854 19.854 0 0 1 7.693 8.255 27.029 27.029 0 0 1 2.756 12.478 27.347 27.347 0 0 1-2.755 12.527 20.1 20.1 0 0 1-7.691 8.353 21.91 21.91 0 0 1-11.357 2.92zm0-46.4a21.511 21.511 0 0 0-10.9 2.732 18.765 18.765 0 0 0-7.356 7.847 26.062 26.062 0 0 0-2.644 12.021 26.379 26.379 0 0 0 2.645 12.073 19.024 19.024 0 0 0 7.357 7.945 21.2 21.2 0 0 0 10.9 2.782 20.938 20.938 0 0 0 10.845-2.78 19.118 19.118 0 0 0 7.309-7.946 26.352 26.352 0 0 0 2.646-12.073 26.051 26.051 0 0 0-2.645-12.021 18.871 18.871 0 0 0-7.307-7.848 21.247 21.247 0 0 0-10.85-2.732z"/>
        <path id="pth-21" fill="url(#linear-gradient-6)" d="M3592.819 2524.763a33.813 33.813 0 0 1-13.347-2.54 22.16 22.16 0 0 1-9.459-7.367 19.514 19.514 0 0 1-3.594-11.385l-.008-.508h15.975l.032.465a9.244 9.244 0 0 0 2.887 6.465 10.369 10.369 0 0 0 7.213 2.37 11.2 11.2 0 0 0 7.38-2.233 7.107 7.107 0 0 0 2.62-5.767 6.655 6.655 0 0 0-1.763-4.756 12.844 12.844 0 0 0-4.575-3.03 78.286 78.286 0 0 0-7.8-2.532 84.907 84.907 0 0 1-11.124-3.977 19.918 19.918 0 0 1-7.487-6.05c-2.093-2.708-3.155-6.361-3.155-10.855a19.435 19.435 0 0 1 3.186-11.079 20.3 20.3 0 0 1 8.915-7.229 32.293 32.293 0 0 1 13-2.492c7.279 0 13.287 1.8 17.855 5.355 4.594 3.573 7.165 8.622 7.644 15.007l.04.537h-16.413l-.026-.472a7.457 7.457 0 0 0-2.87-5.591 11.057 11.057 0 0 0-7.23-2.236 9.284 9.284 0 0 0-6.226 1.98 7.055 7.055 0 0 0-2.275 5.72 5.772 5.772 0 0 0 1.7 4.3 13.626 13.626 0 0 0 4.438 2.892c1.8.755 4.4 1.64 7.7 2.632a82.554 82.554 0 0 1 11.167 4.025 20.566 20.566 0 0 1 7.585 6.147c2.126 2.745 3.2 6.38 3.2 10.807a20.337 20.337 0 0 1-2.972 10.659 21.044 21.044 0 0 1-8.7 7.836 29.625 29.625 0 0 1-13.513 2.902zm-25.387-20.8a18.389 18.389 0 0 0 3.392 10.307 21.174 21.174 0 0 0 9.041 7.033 32.814 32.814 0 0 0 12.954 2.46 28.638 28.638 0 0 0 13.072-2.8 20.058 20.058 0 0 0 8.3-7.463 19.342 19.342 0 0 0 2.828-10.141c0-4.2-1.007-7.629-3-10.194a19.55 19.55 0 0 0-7.216-5.853 81.767 81.767 0 0 0-11.03-3.974c-3.342-1-5.966-1.9-7.8-2.667a14.619 14.619 0 0 1-4.759-3.108 6.811 6.811 0 0 1-2-5 8.091 8.091 0 0 1 2.625-6.48 10.244 10.244 0 0 1 6.876-2.22 12.029 12.029 0 0 1 7.867 2.464 8.5 8.5 0 0 1 3.193 5.835h14.4a18.949 18.949 0 0 0-7.214-13.755c-4.39-3.413-10.191-5.144-17.242-5.144a31.314 31.314 0 0 0-12.6 2.408 19.32 19.32 0 0 0-8.485 6.871 18.458 18.458 0 0 0-3.016 10.521c0 4.268.991 7.715 2.946 10.244a18.914 18.914 0 0 0 7.113 5.751 83.9 83.9 0 0 0 10.982 3.926 79.572 79.572 0 0 1 7.9 2.565 13.866 13.866 0 0 1 4.925 3.269 7.626 7.626 0 0 1 2.038 5.445 8.154 8.154 0 0 1-2.977 6.532 12.14 12.14 0 0 1-8.023 2.468 11.33 11.33 0 0 1-7.885-2.63 10.055 10.055 0 0 1-3.173-6.67z"/>
        <path id="pth-22" fill="url(#linear-gradient-7)" d="M3686.791 2524.063h-19.011l-.15-.184-24.512-30.013v30.2h-15v-70.8h15v30.39l24.661-30.39h18.2l-29.214 35.1zm-18.536-1h16.388l-29.177-34.7 28.385-34.1h-15.595l-26.138 32.209v-32.209h-13v68.8h13v-32z"/>
        <path id="pth-23" fill="url(#linear-gradient-8)" d="M3321.722 2510.263h-27.8l-4.6 13.3h-14.7l25.1-69.9h16.3l25.1 69.9h-14.8zm-3.8-11.2l-10.1-29.2-10.1 29.2z"/>
        <path id="pth-24" d="M3363.52 2453.763v69.8h-14v-69.8z" class="cls-12"/>
        <path id="pth-25" d="M3438.52 2523.563l-25.4-31.1v31.1h-14v-69.8h14v31.3l25.4-31.3h16.9l-28.8 34.6 29.6 35.2z" class="cls-12"/>
        <path id="pth-26" d="M3478.42 2453.763v69.8h-14v-69.8z" class="cls-12"/>
        <path id="pth-27" d="M3505.62 2519.662a34.311 34.311 0 0 1-13-12.75 37.658 37.658 0 0 1 0-36.8 34.336 34.336 0 0 1 13-12.75 37.614 37.614 0 0 1 36.05 0 34.086 34.086 0 0 1 12.9 12.75 38.011 38.011 0 0 1 0 36.8 33.962 33.962 0 0 1-12.949 12.75 37.511 37.511 0 0 1-36 0zm29.1-10.75a19.525 19.525 0 0 0 7.5-8.149 26.74 26.74 0 0 0 2.7-12.3 26.436 26.436 0 0 0-2.7-12.25 19.282 19.282 0 0 0-7.5-8.051 21.642 21.642 0 0 0-11.1-2.8 21.909 21.909 0 0 0-11.15 2.8 19.175 19.175 0 0 0-7.55 8.051 26.439 26.439 0 0 0-2.7 12.25 26.744 26.744 0 0 0 2.7 12.3 19.414 19.414 0 0 0 7.55 8.149 21.583 21.583 0 0 0 11.15 2.851 21.321 21.321 0 0 0 11.1-2.851z" class="cls-13"/>
        <path id="pth-28" d="M3579.669 2521.763a21.558 21.558 0 0 1-9.25-7.2 18.934 18.934 0 0 1-3.5-11.1h15a9.687 9.687 0 0 0 3.05 6.8 10.8 10.8 0 0 0 7.549 2.5q4.9 0 7.7-2.351a7.641 7.641 0 0 0 2.8-6.149 7.116 7.116 0 0 0-1.9-5.1 13.325 13.325 0 0 0-4.75-3.149 78.769 78.769 0 0 0-7.85-2.55 83.938 83.938 0 0 1-11.049-3.95 19.333 19.333 0 0 1-7.3-5.9q-3.052-3.95-3.051-10.55a18.855 18.855 0 0 1 3.1-10.8 19.716 19.716 0 0 1 8.7-7.05 31.658 31.658 0 0 1 12.8-2.45q10.8 0 17.548 5.25t7.452 14.649h-15.4a8 8 0 0 0-3.051-5.949 11.493 11.493 0 0 0-7.548-2.35 9.722 9.722 0 0 0-6.551 2.1 7.588 7.588 0 0 0-2.45 6.1 6.3 6.3 0 0 0 1.85 4.65 14.04 14.04 0 0 0 4.6 3q2.748 1.151 7.75 2.65a81.709 81.709 0 0 1 11.1 4 19.976 19.976 0 0 1 7.4 6q3.1 4 3.1 10.5a19.742 19.742 0 0 1-2.9 10.4 20.464 20.464 0 0 1-8.5 7.649 28.979 28.979 0 0 1-13.3 2.851 33.147 33.147 0 0 1-13.149-2.501z" class="cls-13"/>
        <path id="pth-29" d="M3668.017 2523.563l-25.4-31.1v31.1h-14v-69.8h14v31.3l25.4-31.3h16.9l-28.8 34.6 29.6 35.2z" class="cls-12"/>
    </g>
</svg>
