<svg xmlns="http://www.w3.org/2000/svg" xmlns:xlink="http://www.w3.org/1999/xlink" width="488" height="172" viewBox="0 0 488 172">
    <defs>
        <linearGradient id="linear-gradient" x1=".5" x2=".5" y2="2.508" gradientUnits="objectBoundingBox">
            <stop offset=".18" stop-color="#fff"/>
            <stop offset=".225" stop-color="#e7e7e7"/>
            <stop offset=".317" stop-color="#ababab"/>
            <stop offset=".343" stop-color="#999"/>
            <stop offset=".348" stop-color="#a5a5a5"/>
            <stop offset=".356" stop-color="#c7c7c7"/>
            <stop offset=".366" stop-color="#fcfcfc"/>
            <stop offset=".367" stop-color="#fff"/>
            <stop offset=".647" stop-color="#fff"/>
            <stop offset=".756" stop-color="#fff"/>
            <stop offset=".79" stop-color="#f3f3f3"/>
            <stop offset=".851" stop-color="#d3d3d3"/>
            <stop offset=".932" stop-color="#a0a0a0"/>
            <stop offset=".944" stop-color="#999"/>
            <stop offset=".989" stop-color="#fff"/>
        </linearGradient>
        <linearGradient id="linear-gradient-4" x1=".5" x2=".5" y1="0" y2="2.483" xlink:href="#linear-gradient"/>
        <linearGradient id="linear-gradient-8" x1=".5" x2=".5" y1="-1.516" y2="1.01" xlink:href="#linear-gradient"/>
        <linearGradient id="linear-gradient-10" x1=".5" x2=".5" y1="-1.473" y2="1" xlink:href="#linear-gradient"/>
        <linearGradient id="linear-gradient-11" x1=".5" x2=".5" y1="-1.469" y2="1" xlink:href="#linear-gradient"/>
        <linearGradient id="linear-gradient-13" x1=".01" x2="6.96" y1=".5" y2=".5" xlink:href="#linear-gradient"/>
        <linearGradient id="linear-gradient-14" x1="-4.29" x2="23.336" y1=".5" y2=".5" xlink:href="#linear-gradient"/>
        <linearGradient id="linear-gradient-15" x1="-2.078" x2="6.023" y1=".5" y2=".5" xlink:href="#linear-gradient"/>
        <linearGradient id="linear-gradient-16" x1="-3.364" x2="5.008" y1=".5" y2=".5" xlink:href="#linear-gradient"/>
        <linearGradient id="linear-gradient-17" x1="-3.379" x2="2.841" y1=".5" y2=".5" xlink:href="#linear-gradient"/>
        <linearGradient id="linear-gradient-18" x1="-4.982" x2="1.968" y1=".5" y2=".5" xlink:href="#linear-gradient"/>
        <linearGradient id="linear-gradient-19" x1="-6.855" x2=".992" y1=".5" y2=".5" xlink:href="#linear-gradient"/>
        <linearGradient id="linear-gradient-20" x1="-.109" x2="9.639" y1=".5" y2=".5" xlink:href="#linear-gradient"/>
        <linearGradient id="linear-gradient-21" x1="-6.464" x2="42.979" y1=".5" y2=".5" xlink:href="#linear-gradient"/>
        <linearGradient id="linear-gradient-22" x1="-1.22" x2="5.832" y1=".5" y2=".5" xlink:href="#linear-gradient"/>
        <linearGradient id="linear-gradient-23" x1="-3.448" x2="6.914" y1=".5" y2=".5" xlink:href="#linear-gradient"/>
        <linearGradient id="linear-gradient-24" x1="-4.425" x2="5.323" y1=".5" y2=".5" xlink:href="#linear-gradient"/>
        <clipPath id="clip-path">
            <path id="mask" fill="#fff" stroke="#707070" d="M0 0H488V172H0z" transform="translate(1073 268)"/>
        </clipPath>
        <style>
            .cls-5{fill:url(#linear-gradient)}.cls-7{fill:url(#linear-gradient-8)}
        </style>
    </defs>
    <g id="img_title_AI_Human_KIOSK" clip-path="url(#clip-path)" transform="translate(-1073 -268)">
        <path id="pth" fill="#fff" d="M48.4-12.028H22.989L18.915 0H1.552L26.19-68.094H45.4L70.034 0H52.477zm-4.268-12.8L35.7-49.761l-8.346 24.929zM94.09-68.094V0H77.5v-68.094zm91.568 0V0h-16.587v-28.033h-25.8V0h-16.589v-68.094h16.587v26.675h25.8v-26.675zm28.227 0v40.74q0 6.111 3.007 9.409t8.827 3.3q5.82 0 8.924-3.3t3.1-9.409v-40.74h16.587v40.643q0 9.118-3.88 15.423a24.845 24.845 0 0 1-10.428 9.506 32.793 32.793 0 0 1-14.6 3.2 31.976 31.976 0 0 1-14.4-3.153 23.5 23.5 0 0 1-10.04-9.506q-3.682-6.352-3.682-15.47v-40.643zm129.2 0V0H326.5v-40.837L311.273 0h-13.386l-15.326-40.934V0h-16.587v-68.094h19.594l19.109 47.142 18.915-47.142zm54.32 56.066H372L367.921 0h-17.363L375.2-68.094h19.2L419.04 0h-17.557zm-4.268-12.8L384.7-49.761l-8.34 24.929zM487.425 0h-16.587L443.1-42V0h-16.591v-68.094H443.1l27.742 42.2v-42.2h16.587zM44.135 102L16.3 71.154V102H7.469V34.391H16.3v31.331l27.932-31.331h11.155L24.735 68.244 55.678 102zM74.4 34.391V102h-8.828V34.391zm45.687 68.288a34.117 34.117 0 0 1-17.169-4.413 32.308 32.308 0 0 1-12.27-12.319 35.273 35.273 0 0 1-4.511-17.8 35.273 35.273 0 0 1 4.511-17.8 32.308 32.308 0 0 1 12.27-12.319 35.79 35.79 0 0 1 34.435 0A32.057 32.057 0 0 1 149.574 50.3a35.5 35.5 0 0 1 4.462 17.848 35.5 35.5 0 0 1-4.462 17.848 32.058 32.058 0 0 1-12.222 12.271 34.306 34.306 0 0 1-17.266 4.412zm0-7.663a24.915 24.915 0 0 0 12.755-3.3 23.212 23.212 0 0 0 8.924-9.409 29.718 29.718 0 0 0 3.249-14.162 29.645 29.645 0 0 0-3.249-14.211 23.389 23.389 0 0 0-8.876-9.361 26.5 26.5 0 0 0-25.608 0 23.389 23.389 0 0 0-8.876 9.361 29.645 29.645 0 0 0-3.249 14.211 29.718 29.718 0 0 0 3.249 14.162 23.212 23.212 0 0 0 8.924 9.409 24.915 24.915 0 0 0 12.756 3.3zm67.027 7.663a28.918 28.918 0 0 1-11.98-2.377 19.962 19.962 0 0 1-8.294-6.6 16.9 16.9 0 0 1-3.1-9.748h9.409a12.39 12.39 0 0 0 3.928 8q3.444 3.249 10.04 3.249 6.3 0 9.942-3.152a10.23 10.23 0 0 0 3.637-8.1 9.193 9.193 0 0 0-2.134-6.305 13.633 13.633 0 0 0-5.335-3.686 83.362 83.362 0 0 0-8.633-2.716 76.029 76.029 0 0 1-10.719-3.492 17.262 17.262 0 0 1-6.887-5.481q-2.862-3.734-2.861-10.04a17.4 17.4 0 0 1 2.813-9.8 18.325 18.325 0 0 1 7.906-6.6 27.834 27.834 0 0 1 11.689-2.328q9.506 0 15.568 4.753a17.558 17.558 0 0 1 6.839 12.61h-9.7a10.464 10.464 0 0 0-4.074-6.839q-3.589-2.958-9.506-2.958a13.772 13.772 0 0 0-9.021 2.861 9.77 9.77 0 0 0-3.492 8 8.672 8.672 0 0 0 2.085 6.014 13.445 13.445 0 0 0 5.141 3.541q3.056 1.212 8.584 2.764a80.627 80.627 0 0 1 10.764 3.651 17.959 17.959 0 0 1 6.984 5.529q2.91 3.734 2.91 10.136A17.8 17.8 0 0 1 207 92.882a19.251 19.251 0 0 1-7.76 7.081 25.608 25.608 0 0 1-12.127 2.716zm72.167-.679l-27.839-30.846V102h-8.827V34.391h8.827v31.331l27.936-31.331h11.155l-30.652 33.853L270.824 102z" transform="translate(1073 337)"/>
        <g id="AI_HUMAN_KIOSK" opacity="0.7" transform="translate(-2206.668 -2370.044)">
            <path id="패스_13458" d="M3328.071 2695.016h-25.414l-4.074 12.028h-17.363l24.638-68.094h19.205l24.639 68.094h-17.557zm-4.268-12.8l-8.439-24.929-8.342 24.929z" class="cls-5"/>
            <path id="패스_13459" d="M3373.758 2638.95v68.094h-16.587v-68.094z" class="cls-5"/>
            <path id="패스_13460" d="M3465.325 2638.95v68.094h-16.588v-28.033h-25.8v28.033h-16.588v-68.094h16.588v26.675h25.8v-26.675z" class="cls-5"/>
            <path id="패스_13461" fill="url(#linear-gradient-4)" d="M3493.551 2638.95v40.741q0 6.109 3.006 9.408t8.828 3.3q5.818 0 8.923-3.3t3.1-9.408v-40.741H3534v40.643q0 9.119-3.879 15.423a24.845 24.845 0 0 1-10.428 9.506 32.781 32.781 0 0 1-14.6 3.2 31.966 31.966 0 0 1-14.405-3.152 23.494 23.494 0 0 1-10.04-9.506q-3.687-6.352-3.685-15.472v-40.642z"/>
            <path id="패스_13462" d="M3622.754 2638.95v68.094h-16.588v-40.837l-15.229 40.837h-13.385l-15.327-40.933v40.933h-16.587v-68.094h19.594l19.109 47.142 18.915-47.142z" class="cls-5"/>
            <path id="패스_13463" d="M3677.073 2695.016h-25.414l-4.074 12.028h-17.364l24.639-68.094h19.206l24.638 68.094h-17.558zm-4.268-12.8l-8.439-24.929-8.343 24.929z" class="cls-5"/>
            <path id="패스_13464" d="M3767.089 2707.044H3750.5l-27.742-42v42h-16.587v-68.094h16.587l27.742 42.2v-42.2h16.587z" class="cls-5"/>
            <path id="패스_13465" d="M3323.8 2809.044l-27.839-30.845v30.845h-8.826v-67.609h8.826v31.331l27.935-31.331h11.156l-30.652 33.853 30.943 33.756z" class="cls-7"/>
            <path id="패스_13466" d="M3354.067 2741.435v67.609h-8.827v-67.609z" class="cls-7"/>
            <path id="패스_13467" fill="url(#linear-gradient-10)" d="M3382.584 2805.31a32.294 32.294 0 0 1-12.271-12.32 37.377 37.377 0 0 1 0-35.6 32.305 32.305 0 0 1 12.271-12.319 35.784 35.784 0 0 1 34.434 0 32.07 32.07 0 0 1 12.223 12.27 37.935 37.935 0 0 1 0 35.7 32.066 32.066 0 0 1-12.223 12.271 35.793 35.793 0 0 1-34.434 0zm29.925-6.548a23.21 23.21 0 0 0 8.923-9.409 32.594 32.594 0 0 0 0-28.372 23.419 23.419 0 0 0-8.876-9.361 26.51 26.51 0 0 0-25.608 0 23.4 23.4 0 0 0-8.875 9.361 32.585 32.585 0 0 0 0 28.372 23.2 23.2 0 0 0 8.924 9.409 26.317 26.317 0 0 0 25.512 0z"/>
            <path id="패스_13468" fill="url(#linear-gradient-11)" d="M3454.8 2807.347a19.939 19.939 0 0 1-8.294-6.6 16.9 16.9 0 0 1-3.106-9.747h9.41a12.386 12.386 0 0 0 3.928 8q3.442 3.251 10.039 3.249 6.3 0 9.943-3.152a10.23 10.23 0 0 0 3.637-8.1 9.2 9.2 0 0 0-2.133-6.3 13.647 13.647 0 0 0-5.336-3.687 83.4 83.4 0 0 0-8.632-2.716 75.966 75.966 0 0 1-10.719-3.492 17.245 17.245 0 0 1-6.887-5.48q-2.862-3.734-2.861-10.04a17.386 17.386 0 0 1 2.812-9.8 18.341 18.341 0 0 1 7.907-6.6 27.826 27.826 0 0 1 11.688-2.328q9.505 0 15.568 4.754a17.566 17.566 0 0 1 6.839 12.609h-9.7a10.475 10.475 0 0 0-4.073-6.838q-3.591-2.958-9.506-2.959a13.771 13.771 0 0 0-9.02 2.862 9.769 9.769 0 0 0-3.493 8 8.667 8.667 0 0 0 2.085 6.014 13.443 13.443 0 0 0 5.142 3.541q3.055 1.213 8.584 2.764a80.7 80.7 0 0 1 10.767 3.638 18 18 0 0 1 6.984 5.529q2.91 3.735 2.91 10.137a17.8 17.8 0 0 1-2.619 9.311 19.24 19.24 0 0 1-7.761 7.081 25.594 25.594 0 0 1-12.125 2.716 28.9 28.9 0 0 1-11.978-2.366z"/>
            <path id="패스_13469" d="M3538.946 2809.044l-27.84-30.845v30.845h-8.826v-67.609h8.826v31.331l27.937-31.331h11.157l-30.652 33.853 30.943 33.756z" class="cls-7"/>
            <path id="패스_13470" fill="url(#linear-gradient-13)" d="M3350.415 2707.544h-18.628l-4.074-12.028h-24.7l-4.074 12.028h-18.434l.243-.67 24.758-68.424h19.906l.119.331zm-17.911-1h16.485l-24.276-67.094h-18.5l-24.277 67.094h16.292l4.075-12.028h26.131zm-8-23.832h-18.172l9.033-27zm-16.783-1h15.379l-7.738-22.861z"/>
            <path id="패스_13471" fill="url(#linear-gradient-14)" d="M3374.258 2707.544h-17.587v-69.094h17.587zm-16.587-1h15.587v-67.094h-15.587z"/>
            <path id="패스_13472" fill="url(#linear-gradient-15)" d="M3465.825 2707.544h-17.588v-28.033h-24.8v28.033h-17.588v-69.094h17.588v26.675h24.8v-26.675h17.588zm-16.588-1h15.588v-67.094h-15.588v26.675h-26.8v-26.675h-15.588v67.094h15.588v-28.033h26.8z"/>
            <path id="패스_13473" fill="url(#linear-gradient-16)" d="M3505.094 2708.223a32.59 32.59 0 0 1-14.627-3.2 24.075 24.075 0 0 1-10.25-9.7c-2.491-4.29-3.753-9.58-3.753-15.723v-41.15h17.587v41.241c0 3.927.967 6.979 2.876 9.071s4.741 3.135 8.458 3.135 6.6-1.057 8.559-3.141 2.969-5.141 2.969-9.065v-41.241h17.587v41.143c0 6.145-1.33 11.422-3.953 15.685a25.446 25.446 0 0 1-10.634 9.693 33.431 33.431 0 0 1-14.819 3.252zm-27.63-68.773v40.143c0 5.964 1.216 11.085 3.618 15.221a23.1 23.1 0 0 0 9.829 9.309 31.619 31.619 0 0 0 14.183 3.1 32.439 32.439 0 0 0 14.378-3.15 24.467 24.467 0 0 0 10.222-9.319c2.525-4.1 3.8-9.2 3.8-15.161v-40.143h-15.586v40.241c0 4.187-1.09 7.467-3.24 9.751s-5.284 3.455-9.288 3.455-7.1-1.165-9.2-3.461-3.137-5.561-3.137-9.745v-40.241z"/>
            <path id="패스_13474" fill="url(#linear-gradient-17)" d="M3623.254 2707.544h-17.588v-38.565l-14.381 38.565h-14.08l-.121-.324-14.359-38.348v38.672h-17.587v-69.094h20.431l.126.312 18.644 45.993 18.579-46.3h20.336zm-16.588-1h15.588v-67.094h-18.66l-19.251 47.979-19.443-47.979h-18.757v67.094h15.587v-43.195l16.173 43.195h12.692l16.076-43.109z"/>
            <path id="패스_13475" fill="url(#linear-gradient-18)" d="M3699.417 2707.544h-18.629l-4.073-12.028h-24.7l-4.074 12.028h-18.434l.243-.67 24.758-68.424h19.907l.119.331zm-17.912-1h16.486l-24.275-67.094h-18.505l-24.277 67.094h16.292l4.075-12.028h26.13zm-8-23.832h-18.173l9.034-27zm-16.784-1h15.389l-7.738-22.861z"/>
            <path id="패스_13476" fill="url(#linear-gradient-19)" d="M3767.589 2707.544h-17.356l-26.973-40.837v40.837h-17.587v-69.094h17.356l.149.226 26.824 40.8v-41.026h17.587zm-16.819-1h15.819v-67.094H3751v43.365l-28.512-43.365h-15.817v67.094h15.587v-43.165z"/>
            <path id="패스_13477" fill="url(#linear-gradient-20)" d="M3336.483 2809.544h-12.9l-.149-.165-26.967-29.88v30.045h-9.826v-68.609h9.826v30.519l27.212-30.519h12.506l-31.1 34.351zm-12.458-1h10.185l-30.484-33.254 30.2-33.355h-9.806l-28.659 32.143v-32.143h-7.826v66.609h7.826V2776.9z"/>
            <path id="패스_13478" fill="url(#linear-gradient-21)" d="M3354.567 2809.544h-9.827v-68.609h9.827zm-8.827-1h7.827v-66.609h-7.827z"/>
            <path id="패스_13479" fill="url(#linear-gradient-22)" d="M3399.753 2810.223a34.746 34.746 0 0 1-17.416-4.479 32.93 32.93 0 0 1-12.458-12.506 37.876 37.876 0 0 1 0-36.094 32.96 32.96 0 0 1 12.458-12.506 36.286 36.286 0 0 1 34.928 0 32.714 32.714 0 0 1 12.411 12.458 38.436 38.436 0 0 1 0 36.19 32.7 32.7 0 0 1-12.411 12.458 34.937 34.937 0 0 1-17.512 4.479zm0-69.064a33.779 33.779 0 0 0-16.922 4.348 31.967 31.967 0 0 0-12.083 12.132 36.874 36.874 0 0 0 0 35.1 31.943 31.943 0 0 0 12.083 12.133 35.291 35.291 0 0 0 33.94 0 31.709 31.709 0 0 0 12.035-12.083 37.434 37.434 0 0 0 0-35.2 31.723 31.723 0 0 0-12.035-12.083 33.975 33.975 0 0 0-17.018-4.347zm0 61.4a25.512 25.512 0 0 1-13.007-3.366 23.788 23.788 0 0 1-9.114-9.606 33.078 33.078 0 0 1 0-28.844 24 24 0 0 1 9.062-9.555 27.008 27.008 0 0 1 26.114 0 24.014 24.014 0 0 1 9.064 9.555 33.1 33.1 0 0 1 0 28.844 23.811 23.811 0 0 1-9.114 9.606 25.513 25.513 0 0 1-13.005 3.367zm0-53.737a24.459 24.459 0 0 0-12.552 3.229 23.016 23.016 0 0 0-8.688 9.165 32.095 32.095 0 0 0 0 27.9 22.81 22.81 0 0 0 8.734 9.212 25.822 25.822 0 0 0 25.01 0 22.835 22.835 0 0 0 8.733-9.212 32.1 32.1 0 0 0 0-27.9 23.028 23.028 0 0 0-8.688-9.165 24.465 24.465 0 0 0-12.549-3.228z"/>
            <path id="패스_13480" fill="url(#linear-gradient-23)" d="M3466.778 2810.223a29.535 29.535 0 0 1-12.183-2.42 20.528 20.528 0 0 1-8.5-6.763 17.472 17.472 0 0 1-3.2-10.029l-.009-.509h10.371l.045.449a11.953 11.953 0 0 0 3.774 7.69c2.187 2.066 5.45 3.113 9.7 3.113 4.061 0 7.3-1.019 9.616-3.03a9.789 9.789 0 0 0 3.464-7.722 8.755 8.755 0 0 0-2.009-5.974 13.218 13.218 0 0 0-5.143-3.552 83.408 83.408 0 0 0-8.578-2.7 76.732 76.732 0 0 1-10.789-3.517 17.8 17.8 0 0 1-7.085-5.635c-1.967-2.564-2.964-6.044-2.964-10.343a17.954 17.954 0 0 1 2.9-10.072 18.912 18.912 0 0 1 8.116-6.776 28.452 28.452 0 0 1 11.9-2.373c6.42 0 11.762 1.635 15.877 4.86a18.125 18.125 0 0 1 7.028 12.954l.054.549h-10.694l-.055-.438a10.039 10.039 0 0 0-3.9-6.514 14.054 14.054 0 0 0-9.188-2.845 13.355 13.355 0 0 0-8.7 2.748 9.339 9.339 0 0 0-3.309 7.616 8.224 8.224 0 0 0 1.957 5.68 13 13 0 0 0 4.954 3.41c2.017.8 4.889 1.725 8.535 2.747a81.755 81.755 0 0 1 10.834 3.662 18.559 18.559 0 0 1 7.176 5.679c2 2.569 3.016 6.083 3.016 10.445a18.372 18.372 0 0 1-2.69 9.568 19.821 19.821 0 0 1-7.956 7.266 26.205 26.205 0 0 1-12.365 2.776zm-22.861-18.721a16.359 16.359 0 0 0 3 8.958 19.538 19.538 0 0 0 8.092 6.431 28.545 28.545 0 0 0 11.773 2.332 25.22 25.22 0 0 0 11.892-2.658 18.835 18.835 0 0 0 7.565-6.9 17.383 17.383 0 0 0 2.548-9.054c0-4.135-.943-7.441-2.8-9.83a17.576 17.576 0 0 0-6.791-5.379 80.856 80.856 0 0 0-10.7-3.613c-3.682-1.032-6.586-1.968-8.636-2.781a14.007 14.007 0 0 1-5.329-3.672 9.185 9.185 0 0 1-2.213-6.348 10.292 10.292 0 0 1 3.675-8.389 14.32 14.32 0 0 1 9.338-2.975c4.044 0 7.35 1.034 9.824 3.073a11.132 11.132 0 0 1 4.187 6.724h8.71a17.094 17.094 0 0 0-6.588-11.716c-3.935-3.084-9.069-4.647-15.26-4.647a27.459 27.459 0 0 0-11.48 2.283 17.93 17.93 0 0 0-7.7 6.417 16.989 16.989 0 0 0-2.729 9.521c0 4.074.928 7.349 2.758 9.735a16.828 16.828 0 0 0 6.689 5.327 76.062 76.062 0 0 0 10.646 3.466 84.436 84.436 0 0 1 8.69 2.735 14.207 14.207 0 0 1 5.527 3.821 9.727 9.727 0 0 1 2.258 6.635 10.751 10.751 0 0 1-3.809 8.478c-2.507 2.173-5.962 3.274-10.271 3.274-4.51 0-8-1.139-10.383-3.385a12.889 12.889 0 0 1-4.028-7.867z"/>
            <path id="패스_13481" fill="url(#linear-gradient-24)" d="M3551.626 2809.544h-12.9l-.148-.165-26.969-29.88v30.045h-9.826v-68.609h9.826v30.519l27.213-30.519h12.506l-31.1 34.351zm-12.457-1h10.183l-30.483-33.254 30.2-33.355h-9.8l-28.66 32.143v-32.143h-7.826v66.609h7.826V2776.9z"/>
        </g>
    </g>
</svg>
