<svg xmlns="http://www.w3.org/2000/svg" width="185" height="37" viewBox="0 0 185 37">
    <defs>
        <clipPath id="clip-path">
            <path id="mask" d="M0 0H185V37H0z" class="cls-1" transform="translate(1073 192)"/>
        </clipPath>
        <clipPath id="clip-path-2">
            <path id="mask-2" d="M0 0H99V36H0z" class="cls-1" transform="translate(1073 191)"/>
        </clipPath>
        <style>
            .cls-1{fill:#fff;stroke:#707070}.cls-6{fill:none;stroke:#fff}
        </style>
    </defs>
    <g id="img_logo_collaboration" clip-path="url(#clip-path)" transform="translate(-1073 -192)">
        <text id="KIOSK" fill="#fff" font-family="Poppins-Regular, Poppins" font-size="21px" transform="translate(1199 228)">
            <tspan x="0" y="0">KIOSK</tspan>
        </text>
        <g id="img_logo" clip-path="url(#clip-path-2)" transform="translate(0 1)">
            <path id="logo_AI_Human" fill="#fff" stroke="rgba(0,0,0,0)" stroke-miterlimit="10" d="M-15862.685 321.072a3.8 3.8 0 0 1-1.114-2.983v-6.713h2.731v6.35a1.722 1.722 0 0 0 1.806 1.913 1.737 1.737 0 0 0 1.829-1.913v-6.35h2.731v10.5h-2.668v-.97a3.829 3.829 0 0 1-2.731 1.09 3.638 3.638 0 0 1-2.584-.924zm28.311-.02a3.3 3.3 0 0 1-.9-2.36c0-1.673 1.2-3.043 3.742-3.043h2.584v-.523c0-1.15-.591-1.653-2.041-1.653a2.4 2.4 0 0 0-2.1.867l-1.741-1.633a4.707 4.707 0 0 1 3.949-1.45c3.067 0 4.665 1.25 4.665 3.71v6.913h-2.672v-.907a3.407 3.407 0 0 1-2.687 1.006 3.843 3.843 0 0 1-2.799-.927zm1.726-2.42c0 .727.5 1.21 1.573 1.21a2.235 2.235 0 0 0 1.726-.5 1.7 1.7 0 0 0 .4-1.33v-.567h-2.165c-.991-.003-1.534.44-1.534 1.187zm15.1 3.247v-6.35a1.723 1.723 0 0 0-1.8-1.917 1.738 1.738 0 0 0-1.829 1.917v6.35h-2.731v-10.5h2.667v.966a3.837 3.837 0 0 1 2.732-1.086 3.64 3.64 0 0 1 2.584.927 3.8 3.8 0 0 1 1.113 2.983v6.713zm-21.984 0v-6.35a1.724 1.724 0 0 0-1.81-1.917 1.728 1.728 0 0 0-1.825 1.857v6.41h-2.731v-6.35a1.724 1.724 0 0 0-1.81-1.917 1.738 1.738 0 0 0-1.829 1.917v6.35h-2.731v-10.5h2.668v.966a3.932 3.932 0 0 1 2.735-1.086 3.447 3.447 0 0 1 2.9 1.33 4.257 4.257 0 0 1 3.279-1.33 3.924 3.924 0 0 1 2.688.927 3.87 3.87 0 0 1 1.2 2.983v6.713zm-29.7 0v-6.006h-5.063v6.006h-2.92v-14.353h2.92v5.867h5.063v-5.867h2.92v14.353zm-19.74 0v-14.353h2.919v14.353zm-4.262 0l-.882-2.54h-5.316l-.9 2.54h-3.047l5.443-14.353h2.288l5.464 14.353zm-5.379-4.9h3.722l-1.829-5.22zm23.638-12.584a.3.3 0 0 1-.079-.08.524.524 0 0 1 .742-.727.248.248 0 0 1 .08.08.515.515 0 0 1-.412.829.611.611 0 0 1-.334-.102zm2.932-.1a2.6 2.6 0 0 1-.818-.539 2.578 2.578 0 0 1-.552-.8 2.494 2.494 0 0 1-.2-.978 2.528 2.528 0 0 1 .2-.982 2.561 2.561 0 0 1 .552-.8 2.531 2.531 0 0 1 .818-.539 2.611 2.611 0 0 1 1-.2 2.6 2.6 0 0 1 1 .2 2.531 2.531 0 0 1 .818.539 2.482 2.482 0 0 1 .552.8 2.443 2.443 0 0 1 .2.982v2.468h-1.03v-2.468a1.557 1.557 0 0 0-2.336-1.31 1.226 1.226 0 0 0-.539.527 1.536 1.536 0 0 0 1.944 2.173.87.87 0 0 0 .252-.14.285.285 0 0 1 .419.08s.009.008.009.012v.839a2.645 2.645 0 0 1-1.29.335 2.607 2.607 0 0 1-1.002-.194zm-15.587.02a2.344 2.344 0 0 1-.735-.487 2.3 2.3 0 0 1-.5-.719 2.248 2.248 0 0 1-.18-.883v-2.772h1.03v2.772a1.308 1.308 0 0 0 2.069 1.022 1.042 1.042 0 0 0 .5-.887v-2.907h1.034v2.772a2.235 2.235 0 0 1-.184.883 2.273 2.273 0 0 1-.5.719 2.307 2.307 0 0 1-.739.487 2.368 2.368 0 0 1-.9.176 2.373 2.373 0 0 1-.898-.172zm-6.011-.02a2.555 2.555 0 0 1-.818-.539 2.5 2.5 0 0 1-.551-.8 2.4 2.4 0 0 1-.2-.978 2.431 2.431 0 0 1 .2-.982 2.479 2.479 0 0 1 .551-.8 2.49 2.49 0 0 1 .818-.539 2.6 2.6 0 0 1 1-.2 2.591 2.591 0 0 1 1 .2 2.49 2.49 0 0 1 .818.539 2.423 2.423 0 0 1 .552.8 2.447 2.447 0 0 1 .2.982v2.468h-1.034v-2.468a1.557 1.557 0 0 0-2.336-1.31 1.268 1.268 0 0 0-.539.527 1.538 1.538 0 0 0 1.948 2.173 1.044 1.044 0 0 0 .252-.14.285.285 0 0 1 .419.08.013.013 0 0 1 0 .012v.839a2.631 2.631 0 0 1-1.286.335 2.593 2.593 0 0 1-.997-.194zm-19.356-5.931a6.034 6.034 0 0 1 1.5-3.97 6.289 6.289 0 0 1 3.091-1.925 7.1 7.1 0 0 1 7.137-6.474 7.17 7.17 0 0 1 6.569 4.217 5.429 5.429 0 0 1 2.564-.643 5.3 5.3 0 0 1 5.283 4.517 5.356 5.356 0 0 1 3.7 2.252.732.732 0 0 1-.2 1.038.774.774 0 0 1-1.062-.2 3.825 3.825 0 0 0-3.151-1.641h-.767v-.747a3.766 3.766 0 0 0-3.8-3.722 3.856 3.856 0 0 0-2.46.887l-.923.767-.312-1.146a5.616 5.616 0 0 0-5.439-4.082 5.573 5.573 0 0 0-5.627 5.507v.068l.008.639-.646.108a4.71 4.71 0 0 0-2.8 1.554 4.565 4.565 0 0 0-1.13 3 4.67 4.67 0 0 0 4.716 4.613.756.756 0 0 1 .764.751.755.755 0 0 1-.764.747 6.186 6.186 0 0 1-6.254-6.11zm45.551 6.078v-5.032h1.139v5.032zm-9.772 0v-3.023a1.049 1.049 0 0 0-1.721-.771.764.764 0 0 0-.332.635v3.159h-1.034v-3.023a1.05 1.05 0 0 0-1.722-.771.762.762 0 0 0-.327.635v3.159h-1.034v-3.062a1.787 1.787 0 0 1 .228-.891 2.087 2.087 0 0 1 1.829-1.078h.132a2.074 2.074 0 0 1 1.414.679 2.084 2.084 0 0 1 1.541-.679 2.082 2.082 0 0 1 1.905 1.222 1.8 1.8 0 0 1 .155.747v3.067zm-20.052 0v-3.023a1.052 1.052 0 0 0-1.726-.771.78.78 0 0 0-.327.639v3.155h-1.03v-3.023a1.053 1.053 0 0 0-1.726-.771.767.767 0 0 0-.327.639v3.155h-1.034v-3.071a1.762 1.762 0 0 1 .228-.887 2.091 2.091 0 0 1 1.829-1.078h.132a2.072 2.072 0 0 1 1.413.679 2.087 2.087 0 0 1 1.542-.679 2.083 2.083 0 0 1 1.9 1.214 1.75 1.75 0 0 1 .16.755v3.067zm29.121-7.153a1.272 1.272 0 0 1 1.286-1.258 1.271 1.271 0 0 1 1.282 1.258 1.271 1.271 0 0 1-1.282 1.258 1.272 1.272 0 0 1-1.289-1.253z" transform="translate(16986 -95.001)"/>
        </g>
        <g id="X" transform="translate(-1.334 0.365)">
            <path id="pth" d="M-3771.665-4130.365l9 9" class="cls-6" transform="translate(4954 4349)"/>
            <path id="pth-2" d="M0 0l9 9" class="cls-6" transform="translate(1191.334 218.635) rotate(90)"/>
        </g>
    </g>
</svg>
