<svg id="logo_maumai" xmlns="http://www.w3.org/2000/svg" width="95" height="36" viewBox="0 0 95 36">
    <defs>
        <clipPath id="clip-path">
            <path id="사각형_442" data-name="사각형 442" class="cls-1" d="M0 0h94.078v35.079H0z"/>
        </clipPath>
        <style>
            .cls-1{fill:none}.cls-3{fill:#e6e6e4}
        </style>
    </defs>
    <path id="사각형_443" data-name="사각형 443" class="cls-1" d="M0 0h95v36H0z"/>
    <g id="그룹_564" data-name="그룹 564" transform="translate(.461 .461)">
        <g id="그룹_563" data-name="그룹 563" style="clip-path:url(#clip-path)">
            <path id="패스_13774" data-name="패스 13774" class="cls-3" d="M5.984 18.006a5.952 5.952 0 0 1-1.589-11.7 6.867 6.867 0 0 1 13.134-2.2 5.114 5.114 0 0 1 7.52 3.773 5.113 5.113 0 0 1 3.549 2.2.728.728 0 0 1-.2 1.012.735.735 0 0 1-1.018-.2 3.646 3.646 0 0 0-3.021-1.6h-.733v-.723a3.646 3.646 0 0 0-6-2.762l-.884.748-.3-1.116a5.4 5.4 0 0 0-10.6 1.388v.064l.007.625-.619.1a4.529 4.529 0 0 0-2.683 1.518 4.491 4.491 0 0 0 3.437 7.415.729.729 0 1 1 0 1.459"/>
            <path id="패스_13775" data-name="패스 13775" class="cls-3" d="M18.865 19.887a1.98 1.98 0 0 0-1.478.663 1.963 1.963 0 0 0-1.354-.659h-.126a2 2 0 0 0-1.754 1.051 1.768 1.768 0 0 0-.217.868v2.99h.99v-3.081a.757.757 0 0 1 .315-.621 1.006 1.006 0 0 1 1.652.752v2.95h.99v-3.081a.757.757 0 0 1 .317-.619 1 1 0 0 1 1.651.752V24.8h.99v-2.992a1.733 1.733 0 0 0-.151-.735 2 2 0 0 0-1.822-1.186" transform="translate(-4.779 -6.82)"/>
            <path id="패스_13776" data-name="패스 13776" class="cls-3" d="M30.144 20.681a2.472 2.472 0 0 0-4.016.78A2.458 2.458 0 0 0 28.4 24.87a2.483 2.483 0 0 0 1.234-.329v-.815a.02.02 0 0 0 0-.012.275.275 0 0 0-.4-.08.9.9 0 0 1-.242.138 1.488 1.488 0 0 1-1.865-2.118 1.214 1.214 0 0 1 .517-.513 1.491 1.491 0 0 1 2.238 1.275v2.405h.99v-2.405a2.441 2.441 0 0 0-.722-1.735" transform="translate(-8.895 -6.846)"/>
            <path id="패스_13777" data-name="패스 13777" class="cls-3" d="M39.373 19.962h-.991v2.831a1.018 1.018 0 0 1-.478.865 1.25 1.25 0 0 1-1.981-1v-2.7h-.99v2.7a2.2 2.2 0 0 0 .65 1.562 2.225 2.225 0 0 0 3.615-.7 2.187 2.187 0 0 0 .174-.86z" transform="translate(-11.981 -6.846)"/>
            <path id="패스_13778" data-name="패스 13778" class="cls-3" d="M48.112 19.887a1.98 1.98 0 0 0-1.478.663 1.963 1.963 0 0 0-1.354-.659h-.126A2 2 0 0 0 43.4 20.94a1.775 1.775 0 0 0-.216.866V24.8h.99v-3.081a.756.756 0 0 1 .315-.62 1 1 0 0 1 1.651.752V24.8h.99v-3.081a.755.755 0 0 1 .315-.62 1 1 0 0 1 1.651.752V24.8h.99v-2.993a1.721 1.721 0 0 0-.148-.726 2 2 0 0 0-1.825-1.194" transform="translate(-14.81 -6.82)"/>
            <path id="패스_13779" data-name="패스 13779" class="cls-3" d="M56 26.034a.506.506 0 0 0-.712.708.263.263 0 0 0 .077.076.506.506 0 0 0 .712-.707.272.272 0 0 0-.077-.077" transform="translate(-18.927 -8.894)"/>
            <path id="사각형_440" data-name="사각형 440" class="cls-3" transform="translate(43.649 13.072)" d="M0 0h1.089v4.903H0z"/>
            <path id="패스_13780" data-name="패스 13780" class="cls-3" d="M61.644 20.681a2.472 2.472 0 0 0-4.016.78A2.458 2.458 0 0 0 59.9 24.87a2.483 2.483 0 0 0 1.234-.329v-.815a.02.02 0 0 0 0-.012.276.276 0 0 0-.4-.079.892.892 0 0 1-.24.137 1.488 1.488 0 0 1-1.866-2.118 1.216 1.216 0 0 1 .518-.513 1.491 1.491 0 0 1 2.238 1.275v2.405h.99v-2.405a2.441 2.441 0 0 0-.722-1.735" transform="translate(-19.698 -6.846)"/>
            <path id="패스_13781" data-name="패스 13781" class="cls-3" d="M67.867 16.112a1.23 1.23 0 1 1-1.23-1.224 1.227 1.227 0 0 1 1.23 1.224" transform="translate(-22.433 -5.106)"/>
            <path id="패스_13782" data-name="패스 13782" class="cls-3" d="m23.747 45.91-.847-2.474h-5.092l-.866 2.474h-2.919l5.214-13.983h2.194l5.236 13.983zm-3.342-9.859-1.812 5.087h3.564z" transform="translate(-4.81 -10.95)"/>
            <path id="사각형_441" data-name="사각형 441" class="cls-3" transform="translate(23.019 20.977)" d="M0 0h2.798v13.983H0z"/>
            <path id="패스_13783" data-name="패스 13783" class="cls-3" d="M59.832 45.91v-5.852H54.98v5.852h-2.8V31.927h2.8v5.715h4.852v-5.715h2.8V45.91z" transform="translate(-17.897 -10.95)"/>
            <path id="패스_13784" data-name="패스 13784" class="cls-3" d="M77.914 47.868v-.943a3.633 3.633 0 0 1-2.614 1.062 3.455 3.455 0 0 1-2.476-.9 3.74 3.74 0 0 1-1.068-2.907v-6.54h2.618v6.187a1.746 1.746 0 1 0 3.483 0v-6.191h2.618v10.232z" transform="translate(-24.61 -12.908)"/>
            <path id="패스_13785" data-name="패스 13785" class="cls-3" d="M100.77 47.807v-6.186a1.744 1.744 0 1 0-3.482-.058v6.245H94.67v-6.187a1.746 1.746 0 1 0-3.483 0v6.187H88.57V37.575h2.556v.943a3.719 3.719 0 0 1 2.618-1.06 3.28 3.28 0 0 1 2.779 1.3 4.048 4.048 0 0 1 3.141-1.3 3.715 3.715 0 0 1 2.577.9 3.807 3.807 0 0 1 1.147 2.907v6.54z" transform="translate(-30.377 -12.847)"/>
            <path id="패스_13786" data-name="패스 13786" class="cls-3" d="M119.47 47.807v-.884a3.231 3.231 0 0 1-2.577.982 3.636 3.636 0 0 1-2.678-.9 3.236 3.236 0 0 1-.866-2.3c0-1.63 1.147-2.966 3.584-2.966h2.477v-.511c0-1.119-.564-1.61-1.954-1.61a2.275 2.275 0 0 0-2.013.845l-1.671-1.591a4.469 4.469 0 0 1 3.786-1.415c2.94 0 4.468 1.218 4.468 3.614v6.736zm-.06-4.321h-2.076c-.945 0-1.469.432-1.469 1.159 0 .707.483 1.178 1.51 1.178a2.11 2.11 0 0 0 1.651-.491 1.655 1.655 0 0 0 .383-1.3z" transform="translate(-38.876 -12.847)"/>
            <path id="패스_13787" data-name="패스 13787" class="cls-3" d="M136.02 47.807v-6.186a1.746 1.746 0 1 0-3.483 0v6.187h-2.616V37.575h2.556v.943a3.636 3.636 0 0 1 2.617-1.06 3.454 3.454 0 0 1 2.476.9 3.737 3.737 0 0 1 1.068 2.907v6.54z" transform="translate(-44.56 -12.847)"/>
        </g>
    </g>
</svg>
