<svg xmlns="http://www.w3.org/2000/svg" xmlns:xlink="http://www.w3.org/1999/xlink" width="58" height="35" viewBox="0 0 58 35">
    <defs>
        <path id="prefix__a" d="M0.446 0.256L15.913 0.256 15.913 17.01 0.446 17.01z"/>
        <path id="prefix__c" d="M0.736 0.256L16.203 0.256 16.203 17.01 0.736 17.01z"/>
        <path id="prefix__e" d="M0.052 0.679L15.188 0.679 15.188 11.493 0.052 11.493z"/>
        <path id="prefix__g" d="M0.068 0.679L15.204 0.679 15.204 11.493 0.068 11.493z"/>
    </defs>
    <g fill="none" fill-rule="evenodd">
        <path fill="#506DF5" d="M5.768 31.508c3.035 0 4.436-1.47 4.436-5.354v-.851c0-4.068-1.678-5.285-4.642-5.285H3.47v11.49h2.298zM0 17.398h5.746c5.17 0 8.135 2.413 8.135 7.951v.506c0 5.447-2.758 8.296-8.113 8.296H0V17.398z"/>
        <g transform="translate(14.58 17.142)">
            <mask id="prefix__b" fill="#fff">
                <use xlink:href="#prefix__a"/>
            </mask>
            <path fill="#506DF5" d="M5.778 10.552h4.367L7.96 4.186h-.092l-2.091 6.366zM6.398.256h3.632l5.883 16.754H12.35l-1.401-3.999H4.973l-1.355 4H.446L6.398.255z" mask="url(#prefix__b)"/>
        </g>
        <path fill="#506DF5" d="M34.534 20.018L29.846 20.018 29.846 17.398 42.692 17.398 42.692 20.018 37.981 20.018 37.981 34.151 34.534 34.151z"/>
        <g transform="translate(41.31 17.142)">
            <mask id="prefix__d" fill="#fff">
                <use xlink:href="#prefix__c"/>
            </mask>
            <path fill="#506DF5" d="M6.068 10.552h4.366L8.251 4.186H8.16l-2.092 6.366zM6.688.256h3.632l5.883 16.754h-3.562l-1.402-3.999H5.264l-1.356 4H.736L6.69.255z" mask="url(#prefix__d)"/>
        </g>
        <g transform="translate(0 .132)">
            <mask id="prefix__f" fill="#fff">
                <use xlink:href="#prefix__e"/>
            </mask>
            <path fill="#00263E" d="M10.861.678c-1.24 0-2.42.532-3.241 1.462C6.856 1.275 5.8.76 4.65.687 4.557.681 4.465.678 4.373.678c-1.055 0-2.059.38-2.857 1.082C.586 2.581.052 3.764.052 5.005v5.942c0 .302.244.546.545.546h1.08c.302 0 .546-.244.546-.546V5.005c0-1.188.967-2.155 2.156-2.155 1.188 0 2.155.967 2.155 2.155v5.942c0 .302.245.546.545.546h1.08c.302 0 .546-.244.546-.546V5.005c0-1.188.967-2.155 2.156-2.155 1.188 0 2.156.967 2.156 2.155v5.942c0 .302.244.546.545.546h1.08c.302 0 .546-.244.546-.546V5.005c0-1.155-.45-2.242-1.267-3.06-.818-.816-1.904-1.267-3.06-1.267" mask="url(#prefix__f)"/>
        </g>
        <path fill="#00263E" d="M26.57 2.502c-.498-.497-1.075-.887-1.72-1.159-.666-.282-1.375-.425-2.104-.425-.73 0-1.438.143-2.105.425-.644.272-1.222.662-1.72 1.16-.496.496-.886 1.074-1.158 1.718-.282.667-.425 1.375-.425 2.104 0 .731.143 1.438.425 2.106.272.644.662 1.221 1.159 1.718.497.496 1.075.887 1.72 1.16.666.28 1.374.424 2.104.424.83 0 1.66-.194 2.403-.563.188-.094.304-.28.304-.49V9.43c0-.3-.246-.546-.547-.546-.111 0-.22.034-.311.098-.545.38-1.185.58-1.85.58-1.783 0-3.235-1.451-3.235-3.236 0-1.783 1.452-3.235 3.236-3.235 1.783 0 3.236 1.452 3.236 3.235v4.754c0 .3.244.546.546.546h1.08c.3 0 .545-.245.545-.546V6.325c0-.73-.142-1.437-.425-2.104-.272-.644-.662-1.222-1.158-1.719M39.492.918h-1.08c-.301 0-.546.245-.546.545v5.402c0 1.487-1.209 2.697-2.695 2.697-1.487 0-2.697-1.21-2.697-2.697V1.463c0-.3-.244-.545-.544-.545h-1.081c-.301 0-.546.245-.546.545v5.402c0 .658.128 1.296.383 1.896.244.579.596 1.1 1.043 1.547.446.446.967.798 1.547 1.042.6.255 1.238.383 1.895.383s1.294-.128 1.894-.383c.58-.244 1.1-.596 1.547-1.042.447-.447.798-.968 1.044-1.547.253-.6.382-1.238.382-1.896V1.463c0-.3-.245-.545-.546-.545"/>
        <g transform="translate(42.12 .132)">
            <mask id="prefix__h" fill="#fff">
                <use xlink:href="#prefix__g"/>
            </mask>
            <path fill="#00263E" d="M10.877.678c-1.24 0-2.42.532-3.24 1.462C6.871 1.275 5.816.76 4.665.687 4.573.681 4.481.678 4.389.678c-1.054 0-2.059.38-2.857 1.082C.602 2.582.068 3.764.068 5.005v5.942c0 .302.244.546.546.546h1.08c.3 0 .545-.244.545-.546V5.005c0-1.188.967-2.155 2.156-2.155s2.155.967 2.155 2.155v5.942c0 .302.245.546.547.546h1.08c.3 0 .545-.244.545-.546V5.005c0-1.188.967-2.155 2.155-2.155 1.188 0 2.155.967 2.155 2.155v5.942c0 .302.246.546.546.546h1.08c.301 0 .546-.244.546-.546V5.005c0-1.155-.45-2.242-1.268-3.06C13.12 1.13 12.033.678 10.877.678" mask="url(#prefix__h)"/>
        </g>
    </g>
</svg>
