<svg xmlns="http://www.w3.org/2000/svg" width="34" height="55" viewBox="0 0 34 55">
    <g fill="none" fill-rule="evenodd">
        <path stroke="#344154" stroke-linecap="round" stroke-linejoin="round" stroke-width="1.425" d="M23.268 38.136L25.078 38.136M23.268 42.046L25.078 42.046M23.268 45.956L25.078 45.956M8.718 42.046L10.528 42.046M8.718 45.956L10.528 45.956M20.808 48.416L20.808 50.227M16.897 48.416L16.897 50.227M12.988 48.416L12.988 50.227M20.808 33.866L20.808 35.677M16.897 33.866L16.897 35.677"/>
        <g>
            <path fill="#506DF5" d="M16.04 38.083c0 1.735-1.405 3.144-3.142 3.144v4.675h7.82v-7.82H16.04z" transform="translate(0 .053)"/>
            <path stroke="#344154" stroke-linecap="round" stroke-linejoin="round" stroke-width="1.425" d="M12.59 15.21c1.243-.799 2.719-1.268 4.307-1.268 1.589 0 3.065.47 4.308 1.269M10.384 12.467c1.881-1.209 4.112-1.917 6.514-1.917 2.4 0 4.633.708 6.512 1.917M15.145 17.582c.507-.324 1.106-.516 1.752-.516.647 0 1.247.192 1.752.516M17.035 19.668c0 .077-.062.138-.138.138-.077 0-.138-.061-.138-.138 0-.076.061-.138.138-.138.076 0 .138.062.138.138zM16.789 24.192L16.789 30.718M28.065 53.288H5.73c-2.77 0-5.017-2.247-5.017-5.02V35.716c0-2.772 2.247-5.017 5.017-5.017h22.335c2.772 0 5.018 2.245 5.018 5.017V48.27c0 2.772-2.246 5.019-5.018 5.019z" transform="translate(0 .053)"/>
            <path stroke="#344154" stroke-linecap="round" stroke-linejoin="round" stroke-width="1.425" d="M28.037 12.425c0 6.5-4.987 11.767-11.14 11.767-6.152 0-11.14-5.268-11.14-11.767 0-6.498 4.988-11.766 11.14-11.766 6.153 0 11.14 5.268 11.14 11.766zM28.037 9.674h2.874c.638 0 1.154.514 1.154 1.152v3.2c0 .637-.516 1.153-1.154 1.153h-2.874" transform="translate(0 .053)"/>
            <path stroke="#344154" stroke-linecap="round" stroke-linejoin="round" stroke-width="1.425" d="M5.757 9.674H2.883c-.636 0-1.152.514-1.152 1.152v3.2c0 .637.516 1.153 1.152 1.153h2.874" transform="translate(0 .053)"/>
        </g>
    </g>
</svg>
