<?xml version="1.0" encoding="UTF-8"?>
<svg width="18px" height="19px" viewBox="0 0 18 19" version="1.1" xmlns="http://www.w3.org/2000/svg" xmlns:xlink="http://www.w3.org/1999/xlink">
    <title>Group 8</title>
    <defs>
        <polygon id="path-1" points="2.79420965e-05 0.112798148 17.382625 0.112798148 17.382625 17.8749875 2.79420965e-05 17.8749875"></polygon>
    </defs>
    <g id="Page-1" stroke="none" stroke-width="1" fill="none" fill-rule="evenodd">
        <g id="아바타" transform="translate(-374.000000, -1244.000000)">
            <g id="Group-8" transform="translate(374.000000, 1244.000000)">
                <path d="M8.50515,3.6644375 L8.50515,7.8909375 C8.50515,8.5955625 9.600275,8.5966875 9.600275,7.8909375 L9.600275,3.6644375 C9.600275,2.9598125 8.50515,2.9586875 8.50515,3.6644375" id="Fill-1" fill="#F7778A"></path>
                <path d="M11.165925,5.2301125 L6.939425,5.2301125 C6.2348,5.2301125 6.233675,6.3252375 6.939425,6.3252375 L11.165925,6.3252375 C11.870675,6.3252375 11.871675,5.2301125 11.165925,5.2301125" id="Fill-3" fill="#F7778A"></path>
                <g id="Group-7" transform="translate(0.000000, 0.012250)">
                    <mask id="mask-2" fill="white">
                        <use xlink:href="#path-1"></use>
                    </mask>
                    <g id="Clip-6"></g>
                    <path d="M15.327425,8.6186125 C15.078425,9.0529875 14.8458,9.4636125 14.6858,9.8524875 C13.993675,11.5368625 13.915425,13.1722375 13.853675,14.4859875 C13.766425,16.4031125 13.65555,17.0227375 12.690675,17.0227375 C11.573175,17.0227375 10.3103,14.6531125 10.21205,11.1298625 C10.2103,11.0934875 10.203175,11.0571125 10.19405,11.0243625 C10.13405,10.2429875 9.4853,9.6234875 8.687675,9.6234875 C7.8553,9.6234875 7.1738,10.2993625 7.1703,11.1333625 C7.070425,14.6549875 5.809175,17.0227375 4.691675,17.0227375 C3.726925,17.0227375 3.61605,16.4031125 3.528675,14.4859875 C3.4653,13.1722375 3.388925,11.5368625 2.696675,9.8524875 C2.536675,9.4636125 2.302425,9.0529875 2.055175,8.6186125 C1.10655,6.9504875 0.02905,5.0607375 1.811675,2.7329875 C2.57855,1.7299875 3.5488,1.1483625 4.695425,1.0012375 C5.71305,0.8722375 6.75405,1.0939875 7.67555,1.4319875 C8.035175,1.5628625 8.376925,1.7118625 8.6913,1.8662375 C9.8178,2.4168625 10.593675,3.0164875 10.610175,3.0292375 C10.79355,3.1744875 11.062675,3.1418625 11.207925,2.9564875 C11.3513,2.7729875 11.32055,2.5058625 11.135175,2.3604875 C11.08255,2.3186125 10.539175,1.8972375 9.7088,1.4319875 C10.6303,1.0939875 11.6713,0.8722375 12.685175,1.0012375 C13.833675,1.1483625 14.80405,1.7299875 15.5708,2.7329875 C17.3533,5.0607375 16.2758,6.9504875 15.327425,8.6186125 M16.248675,2.2151125 C15.336425,1.0229875 14.171675,0.3307375 12.7888,0.1563625 C11.329675,-0.0271375 9.86505,0.3961125 8.6913,0.9194875 C7.519175,0.3961125 6.052925,-0.0271375 4.593675,0.1563625 C3.210675,0.3307375 2.046175,1.0229875 1.1338,2.2151125 C-0.98845,4.9898625 0.341675,7.3321125 1.3138,9.0419875 C1.5483,9.4507375 1.7698,9.8378625 1.90805,10.1777375 C2.545675,11.7239875 2.618425,13.2776125 2.67655,14.5261125 C2.75655,16.2468625 2.830925,17.8749875 4.691675,17.8749875 C6.481675,17.8749875 7.91355,14.9874875 8.022675,11.1607375 L8.022675,11.1407375 C8.022675,10.7754875 8.320425,10.4756125 8.687675,10.4756125 C9.054675,10.4756125 9.35455,10.7754875 9.35455,11.1407375 C9.35455,11.1716125 9.3563,11.1989875 9.361675,11.2279875 C9.487175,15.0222375 10.9098,17.8749875 12.690675,17.8749875 C14.54955,17.8749875 14.625925,16.2468625 14.705925,14.5261125 C14.763925,13.2776125 14.836675,11.7239875 15.47455,10.1777375 C15.612675,9.8378625 15.8343,9.4507375 16.0668,9.0419875 C17.03905,7.3321125 18.3728,4.9898625 16.248675,2.2151125" id="Fill-5" fill="#344154" mask="url(#mask-2)"></path>
                </g>
            </g>
        </g>
    </g>
</svg>