<svg width="47" height="39" viewBox="0 0 47 39" fill="none" xmlns="http://www.w3.org/2000/svg">
<g filter="url(#filter0_d)">
<mask id="mask0" mask-type="alpha" maskUnits="userSpaceOnUse" x="9" y="9" width="29" height="21">
<path d="M9 9H37.431V29.412H9V9Z" fill="white"/>
</mask>
<g mask="url(#mask0)">
<path fill-rule="evenodd" clip-rule="evenodd" d="M34.744 25.99C34.942 26.189 34.942 26.512 34.744 26.711C34.644 26.811 34.514 26.861 34.384 26.861C34.254 26.861 34.124 26.811 34.026 26.711L27.277 19.928L24.651 22.567C24.256 22.965 23.736 23.164 23.216 23.164C22.696 23.164 22.176 22.964 21.779 22.567L19.154 19.927L12.405 26.711C12.306 26.811 12.175 26.861 12.046 26.861C11.916 26.861 11.786 26.811 11.687 26.711C11.489 26.511 11.489 26.189 11.687 25.989L18.436 19.206L11.687 12.423C11.489 12.223 11.489 11.9 11.687 11.701C11.885 11.501 12.207 11.501 12.405 11.701L22.497 21.845C22.689 22.038 22.944 22.144 23.216 22.144C23.486 22.144 23.742 22.038 23.934 21.845L34.026 11.701C34.224 11.501 34.546 11.501 34.744 11.701C34.942 11.901 34.942 12.223 34.744 12.423L27.995 19.206L34.744 25.989V25.99ZM35.4 9H11.03C9.91 9 9 9.916 9 11.041V27.371C9 28.496 9.91 29.412 11.03 29.412H35.4C36.52 29.412 37.431 28.496 37.431 27.371V11.04C37.431 9.916 36.52 9 35.401 9H35.4Z" fill="white"/>
</g>
</g>
<defs>
<filter id="filter0_d" x="5" y="7" width="36.431" height="28.412" filterUnits="userSpaceOnUse" color-interpolation-filters="sRGB">
<feFlood flood-opacity="0" result="BackgroundImageFix"/>
<feColorMatrix in="SourceAlpha" type="matrix" values="0 0 0 0 0 0 0 0 0 0 0 0 0 0 0 0 0 0 127 0"/>
<feOffset dy="2"/>
<feGaussianBlur stdDeviation="2"/>
<feColorMatrix type="matrix" values="0 0 0 0 0 0 0 0 0 0 0 0 0 0 0 0 0 0 0.1 0"/>
<feBlend mode="normal" in2="BackgroundImageFix" result="effect1_dropShadow"/>
<feBlend mode="normal" in="SourceGraphic" in2="effect1_dropShadow" result="shape"/>
</filter>
</defs>
</svg>
