<svg width="60" height="60" viewBox="0 0 60 60" xmlns="http://www.w3.org/2000/svg" xmlns:xlink="http://www.w3.org/1999/xlink">
    <defs>
        <path id="a" d="M0 0h60v60H0z"/>
        <path id="c" d="M0 0h58v48.022H0z"/>
    </defs>
    <g fill="none" fill-rule="evenodd">
        <mask id="b" fill="#fff">
            <use xlink:href="#a"/>
        </mask>
        <g mask="url(#b)">
            <g transform="translate(1 6)">
                <mask id="d" fill="#fff">
                    <use xlink:href="#c"/>
                </mask>
                <path d="M5.47 30.643h46.286V.94H5.47v29.703zm52.062 14.563a.468.468 0 0 1-.436-.3l-5.192-13.324H5.002a.469.469 0 0 1-.467-.47V.47c0-.26.209-.47.467-.47h47.221c.259 0 .468.21.468.47v30.554l5.277 13.54a.47.47 0 0 1-.436.642z" fill="#FFF" mask="url(#d)"/>
                <path d="M9.076 27.357H48.15V4.225H9.076v23.132zm39.541.94H8.608a.469.469 0 0 1-.467-.47V3.755c0-.26.209-.47.467-.47h40.01c.258 0 .467.21.467.47v24.072c0 .26-.21.47-.468.47zM26.77 48.022H.468a.469.469 0 0 1-.468-.47v-2.817c0-.05.008-.1.024-.149l4.533-13.624a.467.467 0 0 1 .592-.297.47.47 0 0 1 .296.595L.935 44.812v2.27H26.77c.258 0 .468.21.468.47s-.21.47-.468.47" fill="#FFF" mask="url(#d)"/>
                <path d="M30.651 45.205H.468a.469.469 0 0 1 0-.94H30.65c.259 0 .468.21.468.47s-.21.47-.468.47" fill="#FFF" mask="url(#d)"/>
                <path d="M57.532 48.022H26.77a.469.469 0 0 1 0-.94h30.294v-1.877H30.651a.469.469 0 0 1 0-.94h26.881c.259 0 .468.211.468.47v2.817c0 .26-.21.47-.468.47M20.115 35.83h-1.728a.469.469 0 0 1-.468-.47c0-.26.21-.47.468-.47h1.728c.258 0 .467.21.467.47s-.209.47-.467.47M26.356 35.83h-1.728a.469.469 0 0 1-.467-.47c0-.26.209-.47.467-.47h1.728c.259 0 .468.21.468.47s-.21.47-.468.47M33.084 35.83h-1.817a.469.469 0 0 1 0-.94h1.817c.26 0 .468.21.468.47s-.209.47-.468.47M40.33 35.83h-1.817a.469.469 0 0 1 0-.94h1.817c.258 0 .468.21.468.47s-.21.47-.468.47M23.276 39.556H21.55a.469.469 0 0 1-.468-.47c0-.26.21-.47.468-.47h1.727c.259 0 .468.21.468.47s-.21.47-.468.47M29.631 39.556h-1.727a.469.469 0 0 1 0-.94h1.727c.259 0 .468.21.468.47s-.209.47-.468.47M36.253 39.556h-1.728a.469.469 0 0 1-.467-.47c0-.26.209-.47.467-.47h1.728c.259 0 .468.21.468.47s-.21.47-.468.47M25.144 10.218v11.034l9.514-5.517-9.514-5.517zm-.936 12.662V8.59l12.321 7.145-12.321 7.145z" fill="#FFF" mask="url(#d)"/>
            </g>
        </g>
    </g>
</svg>
