<svg width="60" height="60" viewBox="0 0 60 60" xmlns="http://www.w3.org/2000/svg" xmlns:xlink="http://www.w3.org/1999/xlink">
    <defs>
        <path id="a" d="M0 0h60v60H0z"/>
    </defs>
    <g fill="none" fill-rule="evenodd">
        <mask id="b" fill="#fff">
            <use xlink:href="#a"/>
        </mask>
        <g mask="url(#b)">
            <path d="M42.247 27.812c0 .675.542 1.223 1.212 1.223.67 0 1.212-.548 1.212-1.223 0-.676-.543-1.224-1.212-1.224-.67 0-1.212.548-1.212 1.224zM44.98 33.066c0 .676.543 1.224 1.212 1.224.67 0 1.212-.548 1.212-1.224 0-.675-.542-1.223-1.212-1.223-.67 0-1.212.548-1.212 1.223zM50.92 36.932c0 .676.542 1.223 1.212 1.223.67 0 1.212-.547 1.212-1.223s-.543-1.224-1.212-1.224c-.67 0-1.213.548-1.213 1.224zM42.979 19.162c0 .676.542 1.224 1.212 1.224.67 0 1.212-.548 1.212-1.224 0-.676-.543-1.224-1.212-1.224-.67 0-1.212.548-1.212 1.224zM46.32 23.245c0 .676.543 1.224 1.213 1.224s1.212-.548 1.212-1.224c0-.675-.543-1.223-1.212-1.223-.67 0-1.212.548-1.212 1.223z" stroke="#FFF" stroke-width="1.2" stroke-linecap="round" stroke-linejoin="round"/>
            <path d="M53.344 36.932h2.619c1.369 0 2.12-1.626 2.531-2.728 1.5-4.017-.504-8.911-3.79-11.4.038-.734.012-2.248-.848-3.694-1.243-2.087-3.71-3.164-6.323-2.807-.18-.273-1.52-2.227-3.9-2.38-1.723-.11-2.96.79-3.326 1.079v4.16h2.672M55.963 36.932s4.119 9.504-4.653 13.714h-3.285V49.05" stroke="#FFF" stroke-width="1.2" stroke-linecap="round" stroke-linejoin="round"/>
            <path d="M51.31 50.646c-.196.996-.582 2.006-1.306 2.735-.857.864-2.019.925-3.09 1.362-.794.324-1.492.826-2.143 1.377-.598.506-1.166 1.011-1.974 1.11-.86.104-1.704-.085-2.49-.437v-8.157" stroke="#FFF" stroke-width="1.2" stroke-linecap="round" stroke-linejoin="round"/>
            <path stroke="#FFF" stroke-width="1.2" stroke-linecap="round" stroke-linejoin="round" d="M40.307 53.69h3.366v-1.95M56.61 44.564h-4.725v-3.31h-5.823M58.7 29.13h-2.737v3.103h-5.365M54.704 22.805h-3.887v5.007h-6.102M47.533 16.302v5.72M40.307 23.245v14.663h5.502V34.29"/>
            <path stroke="#FFF" stroke-width="1.2" stroke-linecap="round" stroke-linejoin="round" d="M40.307 37.907v8.335h4.68M55.963 29.129h-1.751M50.817 22.805v-2.069M50.817 27.812v1.317M51.885 44.564v2.121M46.91 47.808c0 .603.5 1.092 1.116 1.092.616 0 1.115-.489 1.115-1.092 0-.602-.5-1.092-1.115-1.092-.617 0-1.116.49-1.116 1.092zM42.592 50.646c0 .603.484 1.092 1.082 1.092.597 0 1.081-.49 1.081-1.092 0-.603-.484-1.092-1.081-1.092-.598 0-1.082.489-1.082 1.092zM43.898 41.255c0 .602.484 1.091 1.082 1.091.597 0 1.082-.489 1.082-1.091 0-.603-.485-1.092-1.082-1.092-.598 0-1.082.489-1.082 1.092zM51.885 41.255h2.053M35.665 27.812c0 .675-.543 1.223-1.212 1.223-.67 0-1.213-.548-1.213-1.223 0-.676.543-1.224 1.213-1.224.669 0 1.212.548 1.212 1.224zM32.931 33.066c0 .676-.542 1.224-1.212 1.224-.67 0-1.212-.548-1.212-1.224 0-.675.542-1.223 1.212-1.223.67 0 1.212.548 1.212 1.223zM26.992 36.932c0 .676-.543 1.223-1.212 1.223-.67 0-1.212-.547-1.212-1.223s.542-1.224 1.212-1.224c.67 0 1.212.548 1.212 1.224zM34.933 19.162c0 .676-.543 1.224-1.212 1.224-.67 0-1.213-.548-1.213-1.224 0-.676.543-1.224 1.213-1.224.669 0 1.212.548 1.212 1.224zM31.59 23.245c0 .676-.542 1.224-1.212 1.224-.67 0-1.212-.548-1.212-1.224 0-.675.543-1.223 1.212-1.223.67 0 1.213.548 1.213 1.223z"/>
            <path d="M24.568 36.932h-2.62c-1.369 0-2.12-1.626-2.531-2.728-1.5-4.017.504-8.911 3.79-11.4-.038-.734-.012-2.248.848-3.694 1.243-2.087 3.71-3.164 6.323-2.807.18-.273 1.52-2.227 3.9-2.38 1.724-.11 2.96.79 3.326 1.079v4.16h-2.671M21.948 36.932s-4.118 9.504 4.653 13.714h3.285V49.05" stroke="#FFF" stroke-width="1.2" stroke-linecap="round" stroke-linejoin="round"/>
            <path d="M26.601 50.646c.196.996.582 2.006 1.306 2.735.858.864 2.02.925 3.091 1.362.793.324 1.49.826 2.142 1.377.598.506 1.166 1.011 1.974 1.11.86.104 1.704-.085 2.49-.437v-8.157" stroke="#FFF" stroke-width="1.2" stroke-linecap="round" stroke-linejoin="round"/>
            <path stroke="#FFF" stroke-width="1.2" stroke-linecap="round" stroke-linejoin="round" d="M37.604 53.69h-3.366v-1.95M21.302 44.564h4.724v-3.31h5.823M19.21 29.13h2.738v3.103h5.365M23.207 22.805h3.887v5.007h6.102M30.378 16.302v5.72M37.604 23.245v14.663h-5.501V34.29"/>
            <path stroke="#FFF" stroke-width="1.2" stroke-linecap="round" stroke-linejoin="round" d="M37.604 37.907v8.335h-4.68M21.948 29.129H23.7M27.094 22.805v-2.069M27.094 27.812v1.317M26.026 44.564v2.121M31.001 47.808c0 .603-.499 1.092-1.115 1.092a1.104 1.104 0 0 1-1.116-1.092c0-.602.5-1.092 1.116-1.092.616 0 1.115.49 1.115 1.092zM35.32 50.646c0 .603-.485 1.092-1.082 1.092a1.087 1.087 0 0 1-1.082-1.092c0-.603.484-1.092 1.082-1.092.597 0 1.081.489 1.081 1.092zM34.013 41.255c0 .602-.484 1.091-1.082 1.091a1.087 1.087 0 0 1-1.082-1.091c0-.603.485-1.092 1.082-1.092.598 0 1.082.489 1.082 1.092zM26.026 41.255h-2.053"/>
            <path d="m3.283 48.423-.97-8.383.066-.427L8.569 4.32h21.174L27.87 15.143c.473-.257.956-.495 1.45-.71l1.728-9.984c.214.096.406.239.556.43.278.357.378.813.265 1.297l-1.306 7.77c.459-.161.925-.304 1.398-.428l1.189-7.078a2.793 2.793 0 0 0-.519-2.378 2.738 2.738 0 0 0-2.049-1.055c-.02-.002-.04-.007-.062-.007H8.02a.655.655 0 0 0-.644.545L1.088 39.398l-.08.53a.652.652 0 0 0-.003.176L2.05 49.16a.655.655 0 0 0 .65.583h22.753c-.54-.411-1.059-.852-1.555-1.32H3.283z" fill="#FFF"/>
            <path d="m5.985 35.56 5.062-27.796h14.968l-1.82 9.992c.5-.453 1.021-.88 1.563-1.277l1.686-9.256a.665.665 0 0 0-.14-.542.652.652 0 0 0-.503-.238H10.503a.656.656 0 0 0-.644.541L4.556 36.101a.665.665 0 0 0 .14.542c.125.15.31.238.503.238h12.593a21.34 21.34 0 0 1-.185-1.32H5.985zM5.164 39.312a.657.657 0 0 0-.654.66c0 .365.293.66.654.66H18.79c-.16-.433-.31-.872-.44-1.32H5.163z" fill="#FFF"/>
        </g>
    </g>
</svg>
