<svg width="60" height="60" viewBox="0 0 60 60" xmlns="http://www.w3.org/2000/svg" xmlns:xlink="http://www.w3.org/1999/xlink">
    <defs>
        <path id="a" d="M0 0h60v60H0z"/>
        <path id="c" d="M0 0h14.418v19.364H0z"/>
    </defs>
    <g fill="none" fill-rule="evenodd">
        <mask id="b" fill="#fff">
            <use xlink:href="#a"/>
        </mask>
        <g mask="url(#b)">
            <path d="M39.293 39.398a5.136 5.136 0 0 1-2.037-.422c-.444-.192-.698-.436-.883-.614-.151-.146-.191-.175-.236-.178-.046-.006-.064 0-.237.14-.155.123-.366.292-.69.425-1.067.44-2.138 0-2.49-.144a.505.505 0 0 1-.312-.467v-3.152h-1.421a.503.503 0 0 1-.502-.504v-2.155a.503.503 0 1 1 1.003 0v1.65h1.422c.277 0 .502.227.502.505v3.306c.363.119.917.235 1.42.028.189-.078.312-.176.442-.28.215-.174.485-.384.93-.359.417.029.664.265.862.456.159.152.31.296.588.417.312.135.642.232.98.287 1.9.307 3.853-.814 4.542-2.613.71-1.852.023-3.97-1.632-5.037a.504.504 0 0 1-.129-.73 4.144 4.144 0 0 0 .85-2.344c.08-1.642-.855-3.227-2.327-3.944a4.128 4.128 0 0 0-2.602-.35.5.5 0 0 1-.595-.472 2.67 2.67 0 0 0-1.93-2.45 2.648 2.648 0 0 0-3.043 1.258.513.513 0 0 1-.46.256.502.502 0 0 1-.435-.297 4.108 4.108 0 0 0-2.623-2.282 4.066 4.066 0 0 0-3.123.364 4.098 4.098 0 0 0-2.055 2.95.504.504 0 0 1-.752.351 2.598 2.598 0 0 0-.83-.326 2.465 2.465 0 0 0-2.239.656 2.46 2.46 0 0 0-.7 2.201.501.501 0 1 1-.99.169c-.196-1.158.165-2.286.99-3.093a3.499 3.499 0 0 1 3.675-.767 5.097 5.097 0 0 1 2.412-3.022 5.057 5.057 0 0 1 3.887-.453 5.098 5.098 0 0 1 2.865 2.11 3.64 3.64 0 0 1 3.697-1.045 3.671 3.671 0 0 1 2.591 2.828 5.11 5.11 0 0 1 2.698.506c1.829.89 2.99 2.86 2.892 4.901a5.213 5.213 0 0 1-.762 2.478 5.24 5.24 0 0 1 1.607 5.946 5.18 5.18 0 0 1-4.82 3.312" fill="#FFF"/>
            <path d="M36.036 24.79a.506.506 0 0 1-.48-.65c.158-.524.447-.987.836-1.339.187-.17.398-.314.626-.428a.5.5 0 0 1 .673.225.505.505 0 0 1-.224.676 1.831 1.831 0 0 0-.403.277c-.32.29-.475.639-.548.881a.502.502 0 0 1-.48.358M30.242 41.984h-1.064a.503.503 0 0 1 0-1.008h.562v-3.01c-.533-.137-.81-.3-1.042-.434-.065-.038-.127-.075-.195-.108-.45-.222-.861-.119-1.609.1-.552.16-1.239.36-2.107.392-.496.02-1.655.062-2.806-.538-1.13-.587-1.8-1.539-2.19-2.34-.926.11-2.599.107-4.135-.942-1.182-.808-2.008-1.963-2.325-3.25a4.792 4.792 0 0 1 .86-4.06 4.303 4.303 0 0 1 3.412-1.678h.453c.277 0 .502.226.502.505v2.999h1.696c.277 0 .501.226.501.504a.503.503 0 0 1-.501.504h-2.198a.503.503 0 0 1-.502-.504v-2.999a3.262 3.262 0 0 0-2.572 1.29 3.773 3.773 0 0 0-.676 3.197c.253 1.03.95 2 1.915 2.658 1.522 1.04 3.28.816 3.782.724a.5.5 0 0 1 .555.304c.288.703.849 1.654 1.884 2.193.917.477 1.857.442 2.308.425.745-.028 1.34-.2 1.865-.354.776-.226 1.51-.439 2.33-.036.088.043.17.091.258.142.24.14.488.285 1.13.404.238.045.41.253.41.496v3.92a.503.503 0 0 1-.5.504" fill="#FFF"/>
            <path d="M24.968 34.05a.632.632 0 0 0 0 1.266.632.632 0 0 0 0-1.267m0 2.275a1.64 1.64 0 0 1-1.634-1.641 1.64 1.64 0 0 1 1.634-1.642 1.64 1.64 0 0 1 1.634 1.642 1.64 1.64 0 0 1-1.634 1.641M34.903 27.345a.632.632 0 0 0 0 1.267.632.632 0 0 0 0-1.267m0 2.275a1.64 1.64 0 0 1-1.634-1.641 1.64 1.64 0 0 1 1.634-1.642 1.64 1.64 0 0 1 1.635 1.642 1.64 1.64 0 0 1-1.635 1.641M40.057 34.05a.632.632 0 0 0 0 1.266.632.632 0 0 0 0-1.267m0 2.275a1.64 1.64 0 0 1-1.634-1.641 1.64 1.64 0 0 1 1.634-1.642 1.64 1.64 0 0 1 1.634 1.642 1.64 1.64 0 0 1-1.634 1.641M26.695 27.03a.632.632 0 0 0 0 1.267.632.632 0 0 0 0-1.267m0 2.275a1.64 1.64 0 0 1-1.634-1.642 1.64 1.64 0 0 1 1.634-1.641 1.64 1.64 0 0 1 1.634 1.641 1.64 1.64 0 0 1-1.634 1.642M30.987 30.559a.632.632 0 0 0-.63.633c0 .35.282.634.63.634a.632.632 0 0 0 0-1.267m0 2.275a1.64 1.64 0 0 1-1.634-1.642 1.64 1.64 0 0 1 1.634-1.641 1.64 1.64 0 0 1 1.634 1.641 1.64 1.64 0 0 1-1.634 1.642M21.399 28.483a.632.632 0 0 0 0 1.266.632.632 0 0 0 0-1.267m0 2.276a1.64 1.64 0 0 1-1.634-1.642 1.64 1.64 0 0 1 1.634-1.642 1.64 1.64 0 0 1 1.634 1.642 1.64 1.64 0 0 1-1.634 1.642" fill="#FFF"/>
            <path d="M26.695 26.917a.503.503 0 0 1-.502-.504v-1.646c0-.278.224-.504.502-.504h4.134v-2.856a.503.503 0 1 1 1.004 0v3.36a.503.503 0 0 1-.502.504h-4.134v1.142a.503.503 0 0 1-.502.504M41.815 30.767h-3.062a.503.503 0 0 1-.502-.504v-1.78h-2.215a.503.503 0 0 1-.502-.505c0-.278.224-.504.502-.504h2.717c.277 0 .501.226.501.504v1.78h2.56c.278 0 .502.227.502.505a.503.503 0 0 1-.501.504M36.17 38.185a.503.503 0 0 1-.501-.504v-2.999c0-.278.224-.504.502-.504h2.754a.503.503 0 0 1 0 1.008h-2.252v2.495a.503.503 0 0 1-.502.504M20.094 34.986a.503.503 0 0 1-.502-.504v-2.048c0-.278.224-.504.502-.504h4.874c.277 0 .502.226.502.504v1.111a.503.503 0 1 1-1.004 0v-.606h-3.87v1.543a.503.503 0 0 1-.502.504M22.577 25.352a.503.503 0 0 1-.502-.505v-2.283a.503.503 0 1 1 1.004 0v2.283a.503.503 0 0 1-.502.505" fill="#FFF"/>
            <path d="M27.445 25.271a.503.503 0 0 1-.502-.504v-2.203a.503.503 0 1 1 1.004 0v2.203a.503.503 0 0 1-.502.504M39.791 28.483h-1.039a.503.503 0 0 1-.501-.505c0-.278.224-.504.501-.504h1.04c.277 0 .501.226.501.504a.503.503 0 0 1-.502.505M36.17 35.187a.503.503 0 0 1-.501-.505v-1.766a.503.503 0 1 1 1.004 0v1.766a.503.503 0 0 1-.502.505M33.958 34.986H32.91a.503.503 0 0 1-.501-.504c0-.278.224-.504.501-.504h1.048a.503.503 0 0 1 0 1.008M32.6 25.271h-1.27a.503.503 0 0 1-.501-.504c0-.278.224-.504.502-.504h1.268a.503.503 0 0 1 0 1.008M32.91 44.856a.503.503 0 0 1-.502-.504v-6.214a.503.503 0 1 1 1.004 0v6.214a.503.503 0 0 1-.502.504" fill="#FFF"/>
            <path d="M35.263 41.984H32.91a.503.503 0 0 1-.501-.504c0-.278.224-.504.501-.504h2.353a.503.503 0 0 1 0 1.008M27.616 9.043a.503.503 0 0 1-.502-.504c0-1.947-1.59-3.53-3.545-3.53-.478 0-.943.093-1.38.277a.505.505 0 0 1-.39-.93 4.55 4.55 0 0 1 6.317 4.182.503.503 0 0 1-.5.505" fill="#FFF"/>
            <path d="M23.076 7.424a1.84 1.84 0 0 0-1.843 1.834 1.84 1.84 0 0 0 1.843 1.833 1.84 1.84 0 0 0 1.842-1.833 1.84 1.84 0 0 0-1.842-1.834m0 4.675a2.847 2.847 0 0 1-2.846-2.841 2.847 2.847 0 0 1 5.692 0 2.847 2.847 0 0 1-2.846 2.841M10.993 51.452a.495.495 0 0 1-.28-.086 4.383 4.383 0 0 1-1.94-3.637c0-1.574.855-3.036 2.231-3.817a.502.502 0 0 1 .684.192c.136.242.05.55-.19.687a3.387 3.387 0 0 0-1.721 2.938c0 1.122.559 2.168 1.496 2.8a.506.506 0 0 1-.28.923" fill="#FFF"/>
            <path d="M13.724 46.048c-.931 0-1.69.754-1.69 1.682 0 .926.759 1.68 1.69 1.68.932 0 1.69-.754 1.69-1.68 0-.928-.758-1.682-1.69-1.682m0 4.37a2.695 2.695 0 0 1-2.693-2.688 2.695 2.695 0 0 1 5.387 0 2.695 2.695 0 0 1-2.694 2.689M55.764 40.557a.503.503 0 0 1-.502-.505c0-.278.224-.504.502-.504a3.23 3.23 0 0 0 3.232-3.219c0-.396-.071-.783-.213-1.15a.501.501 0 1 1 .936-.364c.186.483.281.992.281 1.514 0 2.331-1.9 4.228-4.236 4.228" fill="#FFF"/>
            <path d="M55.252 34.445c-.843 0-1.53.682-1.53 1.522 0 .839.687 1.522 1.53 1.522.844 0 1.53-.683 1.53-1.522 0-.84-.686-1.522-1.53-1.522m0 4.052a2.535 2.535 0 0 1-2.534-2.53 2.535 2.535 0 0 1 5.068 0 2.535 2.535 0 0 1-2.534 2.53M42.956 55.862c-3.787 0-8.955-3.084-14.307-8.702a.506.506 0 0 1 .016-.713.5.5 0 0 1 .71.016c6.454 6.776 12.72 9.82 15.963 7.754 2.408-1.535 2.992-5.77 1.601-11.622a.502.502 0 1 1 .976-.234c1.519 6.39.794 10.902-2.039 12.707-.837.534-1.82.794-2.92.794M32.443 16.335a.498.498 0 0 1-.367-.16c-1.754-1.881-3.522-3.517-5.256-4.862a.506.506 0 0 1-.09-.708.5.5 0 0 1 .703-.09c1.777 1.377 3.585 3.05 5.376 4.971a.506.506 0 0 1-.366.849M13.527 19.861a.502.502 0 0 1-.489-.393c-1.4-6.188-.644-10.568 2.127-12.333 1.107-.706 2.471-.946 4.056-.715.263.039.536.091.81.156a.504.504 0 0 1-.228.982 8.874 8.874 0 0 0-.727-.14c-1.34-.196-2.475-.004-3.374.568-2.35 1.498-2.965 5.601-1.685 11.26a.504.504 0 0 1-.49.615M13.375 44.061a.504.504 0 0 1-.492-.605c.123-.603.267-1.225.43-1.85a.501.501 0 1 1 .97.256 34.684 34.684 0 0 0-.416 1.796.502.502 0 0 1-.492.403M47.414 20.332a.504.504 0 0 1-.487-.627c1.484-5.959.92-10.12-1.589-11.719-2.631-1.676-7.33.011-12.57 4.514a.5.5 0 0 1-.707-.056.505.505 0 0 1 .055-.71c5.675-4.878 10.69-6.554 13.76-4.6 2.903 1.85 3.622 6.401 2.024 12.817a.502.502 0 0 1-.486.381M18.092 55.865c-1.104 0-2.089-.262-2.927-.797-.921-.586-1.628-1.475-2.102-2.642a.505.505 0 0 1 .276-.657.5.5 0 0 1 .654.276c.393.97.968 1.7 1.709 2.172 2.612 1.664 7.276.007 12.476-4.433a.5.5 0 0 1 .707.057c.18.213.154.53-.057.71-4.085 3.49-7.826 5.314-10.736 5.314M41.189 41.747a.504.504 0 0 1-.074-1.003c4.086-.615 7.755-1.618 10.61-2.9a.505.505 0 0 1 .41.92c-2.937 1.32-6.696 2.35-10.872 2.977a.472.472 0 0 1-.074.006" fill="#FFF"/>
            <g transform="translate(2 21.194)">
                <mask id="d" fill="#fff">
                    <use xlink:href="#c"/>
                </mask>
                <path d="M13.206 19.364a.504.504 0 0 1-.127-.017C4.846 17.185-.043 13.54 0 9.597.045 5.555 5.205 1.972 13.805.012a.504.504 0 0 1 .222.983C6.032 2.818 1.042 6.118 1.004 9.608c-.037 3.398 4.687 6.756 12.329 8.764a.504.504 0 0 1-.127.992" fill="#FFF" mask="url(#d)"/>
            </g>
            <path d="M58.116 33.747a.505.505 0 0 1-.456-.713c.244-.537.37-1.087.376-1.633.041-3.743-5.667-7.39-14.542-9.29a.504.504 0 0 1 .209-.987c9.507 2.036 15.384 5.978 15.337 10.288a5.05 5.05 0 0 1-.467 2.04.502.502 0 0 1-.457.295" fill="#FFF"/>
        </g>
    </g>
</svg>
