<svg width="60" height="60" viewBox="0 0 60 60" xmlns="http://www.w3.org/2000/svg" xmlns:xlink="http://www.w3.org/1999/xlink">
    <defs>
        <path id="a" d="M0 0h60v60H0z"/>
    </defs>
    <g fill="none" fill-rule="evenodd">
        <mask id="b" fill="#fff">
            <use xlink:href="#a"/>
        </mask>
        <g mask="url(#b)" fill="#FFF">
            <path d="M44.963 28.186a.615.615 0 0 0-.611.616c0 .34.274.617.611.617a.614.614 0 0 0 .611-.617.615.615 0 0 0-.61-.616m0 2.285a1.664 1.664 0 0 1-1.656-1.669c0-.92.742-1.668 1.655-1.668s1.655.748 1.655 1.668c0 .92-.742 1.669-1.655 1.669M47.52 33.092a.615.615 0 0 0-.612.617c0 .34.274.616.611.616a.614.614 0 0 0 .612-.616.615.615 0 0 0-.612-.617m0 2.285a1.664 1.664 0 0 1-1.655-1.668c0-.92.742-1.67 1.655-1.67s1.656.75 1.656 1.67c0 .92-.743 1.668-1.656 1.668M53.073 36.702a.614.614 0 0 0-.611.616c0 .34.274.616.611.616a.615.615 0 0 0 .612-.616.615.615 0 0 0-.612-.616m0 2.285a1.664 1.664 0 0 1-1.655-1.67c0-.919.742-1.667 1.655-1.667s1.656.748 1.656 1.668c0 .92-.743 1.669-1.656 1.669M45.648 20.11a.615.615 0 0 0-.612.616c0 .34.274.616.612.616a.615.615 0 0 0 .611-.616.615.615 0 0 0-.611-.617m0 2.285a1.664 1.664 0 0 1-1.656-1.668c0-.92.743-1.669 1.656-1.669.912 0 1.655.749 1.655 1.669s-.743 1.668-1.655 1.668M48.773 23.922a.615.615 0 0 0-.612.616c0 .34.275.617.612.617a.615.615 0 0 0 .611-.617.615.615 0 0 0-.611-.616m0 2.285a1.664 1.664 0 0 1-1.655-1.669c0-.92.742-1.668 1.655-1.668s1.655.749 1.655 1.668c0 .92-.742 1.67-1.655 1.67"/>
            <path d="M56.656 37.844h-2.45a.524.524 0 0 1-.521-.526c0-.29.233-.526.522-.526h2.45c.708 0 1.323-.722 1.878-2.207 1.366-3.655-.64-7.974-3.37-10.037a.528.528 0 0 1-.207-.449c.042-.816-.048-2.025-.72-3.151-1.04-1.745-3.158-2.676-5.395-2.371a.522.522 0 0 1-.504-.23c-.206-.31-1.33-1.865-3.246-1.988-1.137-.071-2.034.384-2.555.748v3.092h1.976c.288 0 .522.236.522.527 0 .29-.234.526-.522.526h-2.498a.524.524 0 0 1-.522-.526V16.84c0-.162.074-.315.2-.414.587-.463 1.82-1.225 3.465-1.118 2.045.131 3.355 1.535 3.857 2.19 2.533-.234 4.91.885 6.117 2.907.733 1.229.89 2.521.877 3.469 3.828 3.049 4.672 7.95 3.502 11.082-.268.714-1.08 2.887-2.856 2.887"/>
            <path d="M52.305 50.65h-3.071a.524.524 0 0 1-.522-.527v-1.49c0-.29.233-.526.522-.526.288 0 .521.235.521.526v.964h2.431c3.13-1.536 4.76-4.001 4.848-7.33.067-2.567-.847-4.717-.856-4.739a.528.528 0 0 1 .27-.692.52.52 0 0 1 .686.271c.041.093 3.955 9.39-4.605 13.49a.517.517 0 0 1-.224.052"/>
            <path d="M43.9 56.823c-.679 0-1.381-.16-2.096-.479a.527.527 0 0 1-.31-.48v-7.618c0-.29.233-.526.522-.526.288 0 .522.236.522.526v7.263c.608.225 1.194.305 1.744.24.573-.07 1.007-.438 1.51-.864l.063-.054c.487-.412 1.24-1.002 2.143-1.37.336-.137.673-.235.999-.33.676-.196 1.26-.366 1.718-.826.52-.523.882-1.291 1.078-2.285a.52.52 0 0 1 .614-.413.525.525 0 0 1 .41.619c-.237 1.201-.696 2.151-1.365 2.823-.647.652-1.42.876-2.166 1.093-.314.092-.61.178-.897.295-.59.24-1.165.61-1.863 1.2l-.063.054c-.577.489-1.175.994-2.056 1.102-.167.02-.337.03-.507.03"/>
            <path d="M45.164 53.492h-3.148a.524.524 0 0 1-.522-.527c0-.29.233-.526.522-.526h2.626v-1.295c0-.29.233-.526.522-.526.288 0 .522.236.522.526v1.821c0 .29-.234.527-.522.527M57.26 44.97h-4.418a.524.524 0 0 1-.521-.526V41.88h-4.924a.524.524 0 0 1-.522-.526c0-.29.234-.526.522-.526h5.445c.289 0 .522.235.522.526v2.564h3.896c.289 0 .522.236.522.526 0 .29-.233.526-.522.526M56.656 33.456H51.64a.524.524 0 0 1-.522-.526c0-.29.234-.526.522-.526h4.495v-2.372c0-.29.234-.526.522-.526h2.56c.288 0 .522.236.522.526 0 .29-.234.526-.522.526h-2.038v2.372c0 .29-.233.526-.522.526M51.844 29.328h-5.706a.524.524 0 0 1-.522-.526c0-.29.233-.526.522-.526h5.184v-4.15c0-.29.234-.525.522-.525h3.635c.288 0 .522.235.522.526 0 .29-.234.526-.522.526h-3.113v4.149c0 .29-.233.526-.522.526M48.773 23.922a.524.524 0 0 1-.522-.526v-5.34c0-.291.233-.527.522-.527.288 0 .522.236.522.526v5.34c0 .291-.234.527-.522.527M47.16 38.755h-5.144a.524.524 0 0 1-.522-.526v-13.69c0-.29.233-.527.522-.527.288 0 .522.236.522.526v13.165h4.1V34.85c0-.29.234-.526.522-.526.289 0 .522.235.522.526v3.378c0 .29-.233.526-.522.526"/>
            <path d="M46.393 46.537h-4.377a.524.524 0 0 1-.522-.526v-7.782c0-.291.233-.526.522-.526.288 0 .522.235.522.526v7.256h3.855c.288 0 .522.236.522.526 0 .29-.234.526-.522.526M56.656 30.559h-1.638a.524.524 0 0 1-.522-.527c0-.29.234-.526.522-.526h1.638c.289 0 .522.236.522.526 0 .29-.233.527-.522.527M51.844 24.653a.524.524 0 0 1-.522-.526v-1.932c0-.29.234-.526.522-.526.289 0 .522.236.522.526v1.932c0 .29-.233.526-.522.526M51.844 30.559a.524.524 0 0 1-.522-.527v-1.23c0-.29.234-.526.522-.526.289 0 .522.235.522.526v1.23c0 .29-.233.527-.522.527M52.843 46.951a.524.524 0 0 1-.522-.526v-1.98c0-.291.233-.527.522-.527.288 0 .522.236.522.526v1.981c0 .29-.234.526-.522.526M49.234 46.98c-.288 0-.522.222-.522.494s.234.493.522.493c.287 0 .521-.221.521-.493s-.234-.494-.521-.494m0 2.039a1.557 1.557 0 0 1-1.566-1.545c0-.852.703-1.546 1.566-1.546.863 0 1.565.694 1.565 1.546 0 .852-.702 1.545-1.565 1.545M45.164 49.63c-.27 0-.49.22-.49.493 0 .272.22.493.49.493s.49-.22.49-.493a.492.492 0 0 0-.49-.494m0 2.04a1.541 1.541 0 0 1-1.534-1.546c0-.852.688-1.546 1.534-1.546.846 0 1.533.694 1.533 1.546 0 .852-.687 1.545-1.533 1.545M46.386 40.86c-.27 0-.49.222-.49.494s.22.493.49.493.49-.22.49-.493a.492.492 0 0 0-.49-.493m0 2.038a1.541 1.541 0 0 1-1.534-1.545c0-.852.688-1.545 1.534-1.545.845 0 1.533.693 1.533 1.545s-.688 1.545-1.533 1.545M54.762 41.88h-1.92a.524.524 0 0 1-.522-.526c0-.29.234-.526.522-.526h1.92c.289 0 .522.236.522.526 0 .29-.233.526-.522.526M36.541 28.186a.615.615 0 0 0-.611.616c0 .34.274.617.611.617a.614.614 0 0 0 .612-.617.615.615 0 0 0-.612-.616m0 2.285a1.664 1.664 0 0 1-1.655-1.669c0-.92.742-1.668 1.655-1.668s1.655.748 1.655 1.668c0 .92-.742 1.669-1.655 1.669M33.985 33.092a.615.615 0 0 0-.611.617c0 .34.274.616.611.616a.614.614 0 0 0 .611-.616.615.615 0 0 0-.611-.617m0 2.285a1.664 1.664 0 0 1-1.655-1.668c0-.92.742-1.67 1.655-1.67s1.655.75 1.655 1.67c0 .92-.742 1.668-1.655 1.668M28.431 36.702a.614.614 0 0 0-.611.616c0 .34.274.616.611.616a.615.615 0 0 0 .612-.616.614.614 0 0 0-.612-.616m0 2.285a1.664 1.664 0 0 1-1.655-1.67c0-.919.742-1.667 1.655-1.667s1.655.748 1.655 1.668c0 .92-.742 1.669-1.655 1.669M35.857 20.11a.615.615 0 0 0-.612.616c0 .34.274.616.612.616a.615.615 0 0 0 .611-.616.615.615 0 0 0-.611-.617m0 2.285a1.664 1.664 0 0 1-1.656-1.668c0-.92.743-1.669 1.656-1.669.913 0 1.655.749 1.655 1.669s-.742 1.668-1.655 1.668M32.731 23.922a.615.615 0 0 0-.611.616c0 .34.274.617.611.617a.615.615 0 0 0 .612-.617.615.615 0 0 0-.612-.616m0 2.285a1.664 1.664 0 0 1-1.655-1.669c0-.92.743-1.668 1.655-1.668.913 0 1.656.749 1.656 1.668 0 .92-.743 1.67-1.656 1.67"/>
            <path d="M27.298 37.844h-2.45c-1.776 0-2.588-2.173-2.855-2.887-1.17-3.131-.327-8.033 3.502-11.082-.014-.948.144-2.24.876-3.469 1.206-2.022 3.583-3.142 6.117-2.908.503-.653 1.813-2.058 3.857-2.189 1.649-.108 2.878.655 3.465 1.118.127.1.2.252.2.414v3.885c0 .29-.233.526-.521.526H36.99a.524.524 0 0 1-.522-.526c0-.29.234-.527.522-.527h1.977v-3.092c-.521-.364-1.416-.82-2.555-.748-1.916.123-3.04 1.678-3.247 1.989a.523.523 0 0 1-.503.229c-2.238-.305-4.355.626-5.396 2.37-.672 1.127-.762 2.336-.72 3.152a.528.528 0 0 1-.207.449c-2.73 2.063-4.736 6.382-3.37 10.037.556 1.485 1.17 2.207 1.879 2.207h2.45c.288 0 .522.235.522.526 0 .29-.234.526-.522.526"/>
            <path d="M32.27 50.65H29.2a.518.518 0 0 1-.224-.052c-8.56-4.102-4.646-13.398-4.605-13.491a.52.52 0 0 1 .687-.271.528.528 0 0 1 .27.692c-.01.022-.924 2.172-.857 4.74.088 3.328 1.719 5.793 4.848 7.329h2.43v-.964c0-.29.234-.526.523-.526.288 0 .522.235.522.526v1.49c0 .29-.234.526-.522.526"/>
            <path d="M37.605 56.823a4.2 4.2 0 0 1-.507-.03c-.882-.108-1.48-.613-2.057-1.102l-.063-.053c-.698-.59-1.272-.96-1.863-1.201a9.043 9.043 0 0 0-.897-.295c-.747-.217-1.519-.441-2.166-1.093-.668-.672-1.127-1.622-1.365-2.823a.525.525 0 0 1 .41-.619.52.52 0 0 1 .614.413c.196.994.559 1.762 1.078 2.285.458.46 1.042.63 1.718.827.326.094.663.192 1 .33.902.367 1.655.957 2.142 1.37l.064.053c.502.426.936.793 1.51.863.55.066 1.136-.014 1.744-.24v-7.262c0-.29.233-.526.522-.526.288 0 .522.236.522.526v7.617a.527.527 0 0 1-.311.481c-.714.319-1.417.479-2.095.479"/>
            <path d="M39.489 53.492H36.34a.524.524 0 0 1-.522-.527v-1.82c0-.291.234-.527.522-.527.289 0 .522.236.522.526v1.295h2.627c.288 0 .522.236.522.526 0 .29-.234.527-.522.527M28.662 44.97h-4.418a.524.524 0 0 1-.522-.526c0-.29.234-.526.522-.526h3.896v-2.564c0-.29.233-.526.522-.526h5.445c.288 0 .522.235.522.526 0 .29-.234.526-.522.526h-4.923v2.564c0 .29-.234.526-.522.526M29.865 33.456h-5.017a.524.524 0 0 1-.522-.526v-2.372h-2.037a.524.524 0 0 1-.522-.526c0-.29.233-.526.522-.526h2.559c.288 0 .522.236.522.526v2.372h4.495c.288 0 .522.236.522.526 0 .29-.234.526-.522.526M35.367 29.328H29.66a.524.524 0 0 1-.522-.526v-4.15h-3.113a.524.524 0 0 1-.522-.525c0-.29.234-.526.522-.526h3.635c.288 0 .522.235.522.526v4.149h5.185c.288 0 .522.235.522.526 0 .29-.234.526-.522.526M32.731 23.922a.524.524 0 0 1-.522-.526v-5.34c0-.291.234-.527.522-.527.289 0 .522.236.522.526v5.34c0 .291-.233.527-.522.527M39.489 38.755h-5.145a.524.524 0 0 1-.522-.526V34.85c0-.29.234-.526.522-.526.288 0 .522.235.522.526v2.852h4.1V24.538c0-.29.234-.526.523-.526.288 0 .522.236.522.526v13.69c0 .291-.234.527-.522.527"/>
            <path d="M39.489 46.537h-4.377a.524.524 0 0 1-.522-.526c0-.29.233-.526.522-.526h3.855v-7.256c0-.291.233-.526.522-.526.288 0 .522.235.522.526v7.782c0 .29-.234.526-.522.526M26.486 30.559h-1.638a.524.524 0 0 1-.522-.527c0-.29.234-.526.522-.526h1.638c.289 0 .522.236.522.526 0 .29-.233.527-.522.527M29.66 24.653a.524.524 0 0 1-.522-.526v-1.932c0-.29.233-.526.522-.526.288 0 .522.236.522.526v1.932c0 .29-.234.526-.522.526M29.66 30.559a.524.524 0 0 1-.522-.527v-1.23c0-.29.233-.526.522-.526.288 0 .522.235.522.526v1.23c0 .29-.234.527-.522.527M28.662 46.951a.524.524 0 0 1-.522-.526v-1.98c0-.291.233-.527.522-.527.288 0 .522.236.522.526v1.981c0 .29-.234.526-.522.526M32.27 46.98c-.287 0-.521.222-.521.494s.234.493.522.493c.287 0 .521-.221.521-.493s-.234-.494-.521-.494m0 2.039a1.557 1.557 0 0 1-1.566-1.545c0-.852.703-1.546 1.566-1.546.863 0 1.565.694 1.565 1.546 0 .852-.702 1.545-1.565 1.545M36.34 49.63c-.27 0-.49.22-.49.493 0 .272.22.493.49.493s.49-.22.49-.493a.492.492 0 0 0-.49-.494m0 2.04a1.541 1.541 0 0 1-1.533-1.546c0-.852.688-1.546 1.533-1.546.846 0 1.534.694 1.534 1.546 0 .852-.688 1.545-1.534 1.545M35.119 40.86c-.27 0-.49.222-.49.494s.22.493.49.493.49-.22.49-.493a.492.492 0 0 0-.49-.493m0 2.038a1.541 1.541 0 0 1-1.534-1.545c0-.852.688-1.545 1.534-1.545.845 0 1.533.693 1.533 1.545s-.688 1.545-1.533 1.545M28.662 41.88h-1.92a.524.524 0 0 1-.522-.526c0-.29.234-.526.522-.526h1.92c.288 0 .522.236.522.526 0 .29-.234.526-.522.526M7.658 57.68c-.225 0-.418-.01-.59-.033l-.03-.003a6.087 6.087 0 0 1-1.211-.246l-.127-.043a4.17 4.17 0 0 1-.277-.1 4.162 4.162 0 0 1-.503-.224 5.528 5.528 0 0 1-1.362-.964 4.88 4.88 0 0 1-.925-1.196 4.692 4.692 0 0 1-.213-.42 1.751 1.751 0 0 1-.11-.262 2.39 2.39 0 0 1-.075-.222A4.566 4.566 0 0 1 2 52.514V9.906c0-.29.234-.527.522-.527.288 0 .522.236.522.527v42.608c0 .386.062.767.185 1.133.022.073.04.124.061.18a.908.908 0 0 0 .057.14.533.533 0 0 1 .025.052c.045.11.108.222.174.341.194.352.44.67.73.945.324.313.697.576 1.111.785.15.076.276.136.406.18.097.04.167.064.237.087l.127.044c.189.06.414.112.672.156.105.017.217.03.325.041l.037.005c.136.017.286.025.467.025.288 0 .521.236.521.526 0 .29-.233.526-.521.526M32.966 14.307a.524.524 0 0 1-.522-.526V9.906c0-.29.233-.527.522-.527.288 0 .522.236.522.527v3.875c0 .29-.234.526-.522.526"/>
            <path d="M3.044 9.38h29.4V6.867c0-2.103-1.699-3.815-3.786-3.815H6.83c-2.087 0-3.785 1.712-3.785 3.815V9.38zm29.921 1.052H2.522A.524.524 0 0 1 2 9.906V6.867C2 4.184 4.167 2 6.83 2h21.828c2.663 0 4.83 2.184 4.83 4.867v3.039c0 .29-.234.526-.523.526z"/>
            <path d="M19.11 7.849h-5.53c-.66 0-1.196-.494-1.196-1.1V5.54c0-.527.461-.956 1.028-.956h7.722c.567 0 1.028.43 1.028.957v.907c0 .29-.233.526-.522.526a.524.524 0 0 1-.522-.526V5.64l-7.69-.004v1.113c.005.003.058.047.152.047h5.53c.288 0 .521.236.521.527 0 .29-.233.526-.522.526M24.163 51.82H2.523A.524.524 0 0 1 2 51.294c0-.29.234-.526.522-.526h21.64c.288 0 .522.236.522.526 0 .29-.234.526-.522.526M27.142 7.783a.524.524 0 0 1-.522-.526c0-.29.234-.526.522-.526a.64.64 0 0 0 .637-.642.64.64 0 0 0-.637-.642.64.64 0 0 0-.637.642c0 .29-.234.527-.522.527a.524.524 0 0 1-.522-.527 1.69 1.69 0 0 1 1.681-1.694c.927 0 1.681.76 1.681 1.694a1.69 1.69 0 0 1-1.681 1.694M30.4 57.675H7.66c-.195 0-.382-.008-.569-.023a6.323 6.323 0 0 1-1.656-.389 5.8 5.8 0 0 1-.514-.232 5.3 5.3 0 0 1-1.364-.958.487.487 0 0 1-.047-.053 5.013 5.013 0 0 1-.879-1.145 3.452 3.452 0 0 1-.227-.445 4.698 4.698 0 0 1-.172-.467 4.636 4.636 0 0 1-.23-1.452c0-.29.234-.526.522-.526.288 0 .522.236.522.526 0 .39.061.77.181 1.135.042.138.09.26.14.376.042.102.098.21.165.32.206.368.453.686.744.96a.525.525 0 0 1 .052.057c.313.295.667.54 1.054.729.156.078.293.14.427.193.45.17.912.28 1.372.323.152.012.312.019.479.019H30.4c.38 0 .752-.107 1.073-.307a.52.52 0 0 1 .719.17.529.529 0 0 1-.17.725 3.065 3.065 0 0 1-1.622.464"/>
        </g>
    </g>
</svg>
