<svg width="60" height="60" viewBox="0 0 60 60" xmlns="http://www.w3.org/2000/svg" xmlns:xlink="http://www.w3.org/1999/xlink">
    <defs>
        <path id="a" d="M0 0h60v60H0z"/>
    </defs>
    <g fill="none" fill-rule="evenodd">
        <mask id="b" fill="#fff">
            <use xlink:href="#a"/>
        </mask>
        <path d="M38.675 19.1H25.27a1.747 1.747 0 0 1-1.747-1.747v-13.4c0-.964.782-1.746 1.747-1.746h13.406c.965 0 1.747.782 1.747 1.747v13.4c0 .964-.782 1.746-1.747 1.746z" stroke="#FFF" stroke-width="1.2" stroke-linecap="round" stroke-linejoin="round" mask="url(#b)"/>
        <path d="M36.708 9.301v5.383a.703.703 0 0 1-.703.703H27.94a.703.703 0 0 1-.703-.703V6.623c0-.388.315-.703.703-.703h5.26M27.37 2.207V0M30.438 2.207V0M33.507 2.207V0M36.575 2.207V0M27.37 21.358v-2.207M30.438 21.358v-2.207M33.507 21.358v-2.207M36.575 21.358v-2.207M42.631 14.747h-2.209M42.631 11.68h-2.209M42.631 8.613h-2.209M42.631 5.547h-2.209M23.522 14.747h-2.208M23.522 11.68h-2.208M23.522 8.613h-2.208M23.522 5.547h-2.208M43.445 23.558v5.352h5.611v1.136M44.599 36.207a1.153 1.153 0 1 1-2.307 0 1.153 1.153 0 0 1 2.307 0zM35.625 29.866a1.153 1.153 0 1 1-2.307 0 1.153 1.153 0 0 1 2.307 0zM50.21 31.363a1.153 1.153 0 1 1-2.307 0 1.153 1.153 0 0 1 2.307 0zM29.762 48.856h2.488a1.018 1.018 0 0 0 1.018-1.02 5.98 5.98 0 0 1 5.979-5.977 5.977 5.977 0 0 1 5.807 4.556" stroke="#FFF" stroke-width="1.2" stroke-linecap="round" stroke-linejoin="round" mask="url(#b)"/>
        <path d="M13.46 23.558c-1.407 2.929-2.098 7.776-2.109 10.592 0 .512.018.937.042 1.231l-.003.035a10.734 10.734 0 0 1-1.291 4.367c-1.039 1.9-2.2 3.823-3.099 5.695h4.544l-.066 2.164c-.015.463-.123.926-.383 1.305-.112.165-.207.404-.2.747.01.53.386.986.898 1.126l.674.19c-.635.108-1.144.55-1.305 1.129-.004.007-.004.014-.007.017-.155.586.2 1.186.765 1.403.294.112.635.309.831.66.404.694.154 1.816-.754 2.63a.995.995 0 0 0-.197.26c-.473.88.063 1.974 1.025 2.237.856.238 2.07.473 3.453.603 1.375.13 2.765.007 4.102-.326 2.684-.66 4.99-2.195 6.67-4.258 1.846-2.272 2.79-5.152 2.814-8.084l.046-5.092V30.397M12.467 51.012h2.372M43.445 35.074v-3.058h-3.626v-8.458M42.32 58.887l2.998-4.569v-4.487M44.777 59.426l2.835-3.99v-5.591" stroke="#FFF" stroke-width="1.2" stroke-linecap="round" stroke-linejoin="round" mask="url(#b)"/>
        <path d="M48.624 48.025a2.146 2.146 0 1 1-4.293 0 2.146 2.146 0 0 1 4.293 0zM33.268 47.835v10.533M34.471 23.558v5.155" stroke="#FFF" stroke-width="1.2" stroke-linecap="round" stroke-linejoin="round" mask="url(#b)"/>
        <path d="M13.46 23.558h38.16c3.89 6.78 1.452 15.912.673 17.897a20.43 20.43 0 0 1-3.723 6.093" stroke="#FFF" stroke-width="1.2" stroke-linecap="round" stroke-linejoin="round" mask="url(#b)"/>
    </g>
</svg>
