<svg width="60" height="60" viewBox="0 0 60 60" xmlns="http://www.w3.org/2000/svg" xmlns:xlink="http://www.w3.org/1999/xlink">
    <defs>
        <path id="a" d="M0 0h60v60H0z"/>
    </defs>
    <g fill="none" fill-rule="evenodd">
        <mask id="b" fill="#fff">
            <use xlink:href="#a"/>
        </mask>
        <g mask="url(#b)" stroke="#FFF" stroke-linecap="round" stroke-linejoin="round" stroke-width="1.2">
            <path d="M33.381 43.518v13.925M49.626 44.15v5.732l-5.135 7.56"/>
            <path d="M37.494 4.527c.887-.023 1.864.002 2.912.104 1.596.159 4.857.51 8.327 2.418.763.42 4.848 2.74 7.633 7.637 4.825 8.498 1.73 17.702.768 20.19-1.616 4.193-4.034 7.13-5.801 8.913-.23.231-.538.362-.862.362h-.845a1.26 1.26 0 0 1-1.25-1.264v-.013c0-4.135-3.316-7.493-7.41-7.493s-7.412 3.358-7.412 7.493c.001.705-.564 1.277-1.261 1.277h-3.084"/>
            <path d="m29.395 35.798-.06 6.38c-.027 3.675-1.198 7.286-3.488 10.134-2.082 2.586-4.936 4.509-8.262 5.336-1.661.416-3.382.57-5.084.412-1.717-.164-3.22-.459-4.28-.758-1.193-.332-1.86-1.702-1.272-2.806.07-.126.148-.239.245-.323 1.125-1.02 1.434-2.427.935-3.297-.245-.44-.666-.688-1.032-.828-.699-.27-1.138-1.024-.948-1.758.004-.005.004-.014.009-.024.199-.724.833-1.277 1.62-1.412l-.838-.239a1.513 1.513 0 0 1-1.11-1.412c-.01-.43.106-.73.245-.935.323-.477.458-1.057.476-1.637l.083-2.713H1c1.115-2.348 2.554-4.756 3.84-7.137a13.529 13.529 0 0 0 1.6-5.477l.005-.042c-.028-.369-.051-.902-.051-1.543.023-6.43 2.85-14.26 8.73-19.227C20.309 2.11 27.54.24 34.41 1.282"/>
            <path d="M34.41 1.282v5.556H29.48l-.032 5.825M7.777 46.856h2.94M26.32 9.79c0 .838-.671 1.517-1.5 1.517s-1.5-.679-1.5-1.516c0-.838.671-1.517 1.5-1.517s1.5.68 1.5 1.517zM24.416 16.111c0 .838-.671 1.517-1.5 1.517s-1.5-.679-1.5-1.517c0-.837.671-1.516 1.5-1.516s1.5.679 1.5 1.516zM27.82 31.576c0 .837-.671 1.516-1.5 1.516-.828 0-1.5-.679-1.5-1.516 0-.838.672-1.517 1.5-1.517.829 0 1.5.679 1.5 1.517zM46.963 28.336H36.36a1.744 1.744 0 0 1-1.734-1.752v-10.72c0-.969.777-1.754 1.734-1.754h10.604c.958 0 1.734.785 1.734 1.753v10.72c0 .969-.776 1.753-1.734 1.753z"/>
            <path d="M45.604 20.085v4.533a.588.588 0 0 1-.585.591h-6.715a.588.588 0 0 1-.585-.591v-6.79c0-.326.262-.59.585-.59h4.38M37.829 14.11v-1.858M40.384 14.11v-1.858M42.939 14.11v-1.858M45.494 14.11v-1.858M37.829 30.238V28.38M40.384 30.238V28.38M42.939 30.238V28.38M45.494 30.238V28.38M50.536 24.671h-1.839M50.536 22.088h-1.839M50.536 19.505h-1.839M50.536 16.923h-1.839M34.625 24.67H26.32v5.248M34.625 22.088h-6.348M34.625 19.505H24.4l-1.047-1.942M34.625 16.923h-6.348l-2.9-5.725"/>
        </g>
    </g>
</svg>
