<svg width="60" height="60" viewBox="0 0 60 60" xmlns="http://www.w3.org/2000/svg" xmlns:xlink="http://www.w3.org/1999/xlink">
    <defs>
        <path id="a" d="M0 0h60v60H0z"/>
    </defs>
    <g fill="none" fill-rule="evenodd">
        <mask id="b" fill="#fff">
            <use xlink:href="#a"/>
        </mask>
        <g stroke="#FFF" stroke-width=".96" mask="url(#b)" stroke-linecap="round" stroke-linejoin="round">
            <path d="M34.721 29.93H24.21M0 26.44V8.485C0 6.558 1.585 5 3.546 5h50.903C56.409 5 58 6.558 58 8.485v16.839"/>
            <path d="M56.82 41.813c.512-.908.78-1.928.78-2.966v-9.96c0-.688-.288-1.364-.84-1.786-.686-.524-1.738-.73-3.022 1.018v-1.637c0-.89-.583-1.732-1.473-1.922-.181-.036-.369-.052-.562-.036-1.001.052-2.008 1.58-2.169 1.732V24.55c0-.81-.514-1.59-1.312-1.78a1.659 1.659 0 0 0-.584-.041c-.68.058-1.28.495-1.559 1.132-.133.284-.267.573-.407.863v-7.87c0-.984-.664-1.9-1.644-2.084a3.238 3.238 0 0 0-.321-.032 2.032 2.032 0 0 0-.595.053c-.948.21-1.575 1.105-1.57 2.058.006 3.111.006 6.217.012 9.322 0 1.069.005 2.132.005 3.196 0 .031.021.342-.23.552a.672.672 0 0 1-.659.1l-.064-.09-1.206-1.684s-.969-1.863-2.393-2.074c-.011-.005-.017-.005-.027-.005a.957.957 0 0 0-.3.005c-.584.1-.975.727-.729 1.311l1.023 2.448L41.6 40.414a6.21 6.21 0 0 0 .943 1.507M57.05 51.689H42.89a.83.83 0 0 1-.838-.823v-6.69a.83.83 0 0 1 .838-.823h14.16a.83.83 0 0 1 .838.823v6.69a.83.83 0 0 1-.838.823zM2.405 41.813a6.044 6.044 0 0 1-.78-2.966v-9.96c0-.688.29-1.364.842-1.786.685-.524 1.737-.73 3.02 1.018v-1.637c0-.89.584-1.732 1.474-1.922.182-.036.37-.052.562-.036 1.001.052 2.008 1.58 2.169 1.732V24.55c0-.81.514-1.59 1.312-1.78a1.66 1.66 0 0 1 .584-.041c.68.058 1.28.495 1.559 1.132.134.284.267.573.407.863v-7.87c0-.984.664-1.9 1.644-2.084.107-.016.214-.027.321-.032.204-.01.402.005.595.053.948.21 1.575 1.105 1.57 2.058-.006 3.111-.006 6.217-.011 9.322 0 1.069-.006 2.132-.006 3.196 0 .031-.021.342.23.552a.673.673 0 0 0 .66.1l.063-.09 1.206-1.684s.969-1.863 2.394-2.074c.01-.005.016-.005.026-.005a.957.957 0 0 1 .3.005c.584.1.975.727.729 1.311l-1.023 2.448-4.626 10.484a6.21 6.21 0 0 1-.943 1.507M2.176 51.689h14.16a.83.83 0 0 0 .838-.823v-6.69a.83.83 0 0 0-.838-.823H2.176a.83.83 0 0 0-.838.823v6.69a.83.83 0 0 0 .838.823zM22.56 42.096v6.176c0 2.414 1.992 4.37 4.448 4.37h1.75c2.456 0 4.448-1.956 4.448-4.37v-6.176c0-1.604-1.323-2.904-2.955-2.904h-4.735c-1.632 0-2.955 1.3-2.955 2.904z"/>
            <path d="M27.883 41.412h0a.86.86 0 0 1 .868.853v.837a.86.86 0 0 1-.868.852.86.86 0 0 1-.867-.852v-.837a.86.86 0 0 1 .867-.853zM27.885 39.192V29.93M8.292 11.102v1.418H4.98V9.264h1.896M17.215 11.102v1.418h-3.312V9.264h1.896M53.016 11.102v1.418h-3.312V9.264H51.6M26.404 11.102v1.418h-3.312V9.264h1.896M36.378 11.102v1.418h-3.313V9.264h1.896M26.404 18.581V20h-3.312v-3.256h1.896M36.378 18.581V20h-3.313v-3.256h1.896M44.774 11.102v1.418h-3.312V9.264h1.896M8.292 18.581V20H4.98v-3.256h1.896M53.016 18.581V20h-3.312v-3.256H51.6"/>
        </g>
    </g>
</svg>
