<svg width="60" height="60" viewBox="0 0 60 60" xmlns="http://www.w3.org/2000/svg" xmlns:xlink="http://www.w3.org/1999/xlink">
    <defs>
        <path id="a" d="M0 0h60v60H0z"/>
        <path id="c" d="M0 0h13.876v22.815H0z"/>
        <path id="e" d="M0 0h12.182v22.815H0z"/>
        <path id="g" d="M0 0h11.334v22.815H0z"/>
        <path id="i" d="M0 0h12.183v22.815H0z"/>
        <path id="k" d="M0 0h13.876v22.815H0z"/>
        <path id="m" d="M0 50h51.887V0H0z"/>
    </defs>
    <g fill="none" fill-rule="evenodd">
        <mask id="b" fill="#fff">
            <use xlink:href="#a"/>
        </mask>
        <g mask="url(#b)">
            <path fill="#FFF" d="M7.454 48.597H8.58V27.044H7.454zM51.306 48.597h1.127V31.013h-1.127z"/>
            <g transform="translate(4 5)">
                <mask id="d" fill="#fff">
                    <use xlink:href="#c"/>
                </mask>
                <path d="m5.165 1.141-3.888 14.9a4.498 4.498 0 0 0 .773 3.883 4.382 4.382 0 0 0 3.51 1.75c2.19 0 4.03-1.592 4.373-3.784l2.624-16.749H5.165zm.394 21.674c-1.737 0-3.342-.8-4.402-2.194a5.649 5.649 0 0 1-.97-4.872L4.298 0h9.578l-2.829 18.07c-.43 2.75-2.738 4.746-5.488 4.746z" fill="#FFF" mask="url(#d)"/>
                <g transform="translate(10.113)">
                    <mask id="f" fill="#fff">
                        <use xlink:href="#e"/>
                    </mask>
                    <path d="M3.584 1.141 1.183 16.485A4.516 4.516 0 0 0 2.188 20.1a4.4 4.4 0 0 0 3.368 1.573h.165c2.356 0 4.298-1.867 4.423-4.249l.85-16.283h-7.41zm2.137 21.674h-.165A5.523 5.523 0 0 1 1.33 20.84a5.67 5.67 0 0 1-1.26-4.535L2.621 0h9.56l-.912 17.484c-.157 2.99-2.594 5.33-5.55 5.33z" fill="#FFF" mask="url(#f)"/>
                </g>
                <g transform="translate(20.277)">
                    <mask id="h" fill="#fff">
                        <use xlink:href="#g"/>
                    </mask>
                    <path d="m1.959 1.141-.825 15.81a4.48 4.48 0 0 0 1.21 3.323 4.362 4.362 0 0 0 3.213 1.4h.22a4.362 4.362 0 0 0 3.213-1.4 4.48 4.48 0 0 0 1.21-3.324L9.375 1.141H1.959zm3.818 21.674h-.22a5.474 5.474 0 0 1-4.032-1.755 5.62 5.62 0 0 1-1.517-4.17L.89 0h9.554l.882 16.89a5.62 5.62 0 0 1-1.517 4.17 5.474 5.474 0 0 1-4.032 1.755z" fill="#FFF" mask="url(#h)"/>
                </g>
                <g transform="translate(29.591)">
                    <mask id="j" fill="#fff">
                        <use xlink:href="#i"/>
                    </mask>
                    <path d="m1.189 1.141.85 16.283c.124 2.382 2.067 4.25 4.423 4.25h.164A4.4 4.4 0 0 0 9.994 20.1a4.52 4.52 0 0 0 1.007-3.615L8.597 1.141H1.19zm5.437 21.674h-.164c-2.956 0-5.393-2.342-5.549-5.33L0 0h9.56l2.554 16.306a5.67 5.67 0 0 1-1.263 4.535 5.52 5.52 0 0 1-4.225 1.974z" fill="#FFF" mask="url(#j)"/>
                </g>
                <g transform="translate(38.01)">
                    <mask id="l" fill="#fff">
                        <use xlink:href="#k"/>
                    </mask>
                    <path d="M1.32 1.141 3.943 17.89c.343 2.192 2.183 3.783 4.374 3.783a4.38 4.38 0 0 0 3.509-1.749 4.502 4.502 0 0 0 .773-3.883L8.711 1.14H1.32zm6.997 21.674c-2.75 0-5.057-1.996-5.488-4.746L0-.001h9.578l4.111 15.75a5.649 5.649 0 0 1-.97 4.872 5.494 5.494 0 0 1-4.402 2.194z" fill="#FFF" mask="url(#l)"/>
                </g>
                <mask id="n" fill="#fff">
                    <use xlink:href="#m"/>
                </mask>
                <path fill="#FFF" mask="url(#n)" d="M17.214 44.487h1.128V25.648h-1.128zM13.131 35.993h1.127v-2.54h-1.127zM26.931 33.23l-.797-.808 5.473-5.542.796.806zM27.853 39.191l-.797-.807 10.437-10.57.798.806z"/>
                <path d="M1.834 48.858h48.22v-4.371H1.833v4.371zM.706 50H51.18v-6.655H.706V50z" fill="#FFF" mask="url(#n)"/>
            </g>
        </g>
    </g>
</svg>
