<svg xmlns="http://www.w3.org/2000/svg" width="18" height="14" viewBox="0 0 18 14">
    <defs>
        <clipPath id="flamz7q87a">
            <path data-name="사각형 4055" style="fill:#1ea6ac" d="M0 0h17.874v13.457H0z"/>
        </clipPath>
    </defs>
    <g data-name="ico_check">
        <g data-name="그룹 6771" style="clip-path:url(#flamz7q87a)" transform="translate(0 .271)">
            <path data-name="패스 17100" d="M17.874 1.694c-.043.038-.087.075-.128.116Q12.02 7.519 6.3 13.23c-.053.053-.1.115-.193.227a1.27 1.27 0 0 0-.131-.2Q3.06 10.338.143 7.426C.1 7.382.048 7.345 0 7.3v-.031L1.492 5.78a2.072 2.072 0 0 0 .143-.18l4.472 4.463L16.162 0c.388.38.746.735 1.108 1.086.2.193.4.382.6.573z" style="fill:#1ea6ac"/>
        </g>
    </g>
    <path data-name="ico_check" style="fill:none" d="M0 0h18v14H0z"/>
</svg>
