<svg width="87" height="66" xmlns="http://www.w3.org/2000/svg" xmlns:xlink="http://www.w3.org/1999/xlink">
    <defs>
        <filter id="a">
            <feColorMatrix in="SourceGraphic" values="0 0 0 0 0.121569 0 0 0 0 0.180392 0 0 0 0 0.231373 0 0 0 1.000000 0"/>
        </filter>
        <path id="b" d="M0 0h59.064v49.902H0z"/>
    </defs>
    <g transform="translate(-1472 -835)" filter="url(#a)" fill="none" fill-rule="evenodd" opacity=".1">
        <path d="M1507.18 837.581c-2.608 0-4.73 2.178-4.73 4.856v27.556c0 2.677 2.122 4.855 4.73 4.855h31.289c.333 0 .653.136.889.378l6.861 7.045c.025.025.077.078.176.036.1-.043.1-.118.1-.154v-6.014c0-.713.563-1.291 1.258-1.291h4.003c2.607 0 4.73-2.178 4.73-4.855v-27.556c0-2.678-2.123-4.856-4.73-4.856h-44.576zm39.15 47.321c-.694 0-1.376-.28-1.89-.806l-6.492-6.667h-30.768c-3.994 0-7.244-3.336-7.244-7.436v-27.556c0-4.101 3.25-7.437 7.244-7.437h44.576c3.994 0 7.244 3.336 7.244 7.437v27.556c0 4.1-3.25 7.436-7.244 7.436h-2.746v4.724a2.741 2.741 0 0 1-1.652 2.539c-.333.141-.682.21-1.027.21z" fill="#232426"/>
        <g transform="translate(1472 851.098)">
            <mask id="c" fill="#fff">
                <use xlink:href="#b"/>
            </mask>
            <path d="M12.67 49.902c-.346 0-.695-.068-1.028-.21a2.741 2.741 0 0 1-1.653-2.539V42.43H7.244C3.25 42.43 0 39.093 0 34.993V7.437C0 3.337 3.25 0 7.244 0H28.7c.695 0 1.258.578 1.258 1.29 0 .714-.563 1.291-1.258 1.291H7.244c-2.607 0-4.73 2.179-4.73 4.856v27.556c0 2.677 2.123 4.855 4.73 4.855h4.003c.695 0 1.257.578 1.257 1.29v6.015c0 .036 0 .111.1.154.1.042.152-.01.177-.036l6.861-7.045a1.24 1.24 0 0 1 .89-.378H51.82c2.608 0 4.73-2.178 4.73-4.855V24.952c0-.713.563-1.29 1.257-1.29s1.257.577 1.257 1.29v10.04c0 4.101-3.25 7.437-7.244 7.437H21.052l-6.493 6.667a2.634 2.634 0 0 1-1.89.806" fill="#232426" mask="url(#c)"/>
        </g>
    </g>
</svg>
