<svg width="108" height="120" xmlns="http://www.w3.org/2000/svg" xmlns:xlink="http://www.w3.org/1999/xlink">
    <defs>
        <path id="b" d="M0 0h108v48.8H0z"/>
        <path id="d" d="M0 0h63.2v63.2H0z"/>
        <filter id="a">
            <feColorMatrix in="SourceGraphic" values="0 0 0 0 0.121569 0 0 0 0 0.180392 0 0 0 0 0.231373 0 0 0 1.000000 0"/>
        </filter>
    </defs>
    <g transform="translate(-979 -926)" filter="url(#a)" fill="none" fill-rule="evenodd" opacity=".1">
        <g transform="translate(979 997.2)">
            <mask id="c" fill="#fff">
                <use xlink:href="#b"/>
            </mask>
            <path d="M106.338 48.8H1.662c-.468 0-.914-.195-1.229-.536a1.63 1.63 0 0 1-.426-1.258l2.775-29.455c.433-4.603 3.599-8.471 8.064-9.855L35.438.076A1.666 1.666 0 0 1 37.52 1.15a1.639 1.639 0 0 1-1.088 2.058L11.84 10.83c-3.183.987-5.44 3.745-5.75 7.026L3.487 45.516h101.028l-2.606-27.66c-.309-3.282-2.565-6.04-5.749-7.026L71.567 3.21A1.638 1.638 0 0 1 70.48 1.15 1.666 1.666 0 0 1 72.562.076l24.592 7.62c4.465 1.384 7.63 5.252 8.065 9.855l2.774 29.455a1.63 1.63 0 0 1-.426 1.258 1.672 1.672 0 0 1-1.229.536" fill="#232426" mask="url(#c)"/>
        </g>
        <path d="M1032.2 1011.6c-.29 0-.58-.079-.84-.237l-17.947-10.976c-.786-.48-1.047-1.53-.583-2.345.463-.814 1.476-1.085 2.262-.604l17.108 10.461 17.107-10.461c.787-.48 1.8-.21 2.263.604.464.815.203 1.865-.583 2.345l-17.947 10.976c-.26.158-.55.237-.84.237" fill="#232426"/>
        <path d="M1036.638 1018h-6.476a1.64 1.64 0 0 1-1.526-1.034l-4.722-11.937a1.628 1.628 0 0 1 .926-2.115 1.643 1.643 0 0 1 2.127.92l4.313 10.904h4.24l4.313-10.904a1.643 1.643 0 0 1 2.127-.92 1.628 1.628 0 0 1 .926 2.115l-4.722 11.937a1.64 1.64 0 0 1-1.526 1.034" fill="#232426"/>
        <path d="M1041.357 1046c-.782 0-1.474-.577-1.613-1.396l-4.485-26.435h-3.718l-4.485 26.435c-.155.917-1.006 1.53-1.897 1.37-.892-.16-1.49-1.032-1.334-1.948l4.721-27.83c.137-.807.819-1.396 1.616-1.396h6.476c.797 0 1.479.589 1.616 1.395l4.721 27.83c.156.917-.441 1.79-1.334 1.95a1.6 1.6 0 0 1-.284.025M1000.197 1046c-.069 0-.139-.003-.21-.009-1.096-.095-1.89-.91-1.776-1.819l2.41-19.09c.115-.908 1.096-1.568 2.192-1.473 1.096.095 1.89.91 1.776 1.818l-2.41 19.09c-.107.85-.973 1.483-1.982 1.483M1066.603 1046c-1.009 0-1.875-.632-1.982-1.483l-2.41-19.09c-.115-.909.68-1.723 1.776-1.818 1.096-.095 2.077.565 2.192 1.474l2.41 19.09c.115.908-.68 1.723-1.776 1.818-.071.006-.141.009-.21.009" fill="#232426"/>
        <g transform="translate(1000.6 926)">
            <mask id="e" fill="#fff">
                <use xlink:href="#d"/>
            </mask>
            <path d="M61.528 63.2a1.672 1.672 0 0 1-1.672-1.672V31.6c0-15.58-12.675-28.256-28.256-28.256-15.58 0-28.257 12.675-28.257 28.256v29.928a1.672 1.672 0 1 1-3.343 0V31.6C0 14.175 14.176 0 31.6 0s31.6 14.175 31.6 31.6v29.928c0 .924-.748 1.672-1.672 1.672" fill="#232426" mask="url(#e)"/>
        </g>
        <path d="M995.286 966.136c-1.89 0-3.426 1.574-3.426 3.508v12.712c0 1.934 1.537 3.507 3.426 3.507h5.254v-19.727h-5.254zm6.884 23.064h-6.884c-3.686 0-6.686-3.07-6.686-6.844v-12.712c0-3.774 3-6.844 6.686-6.844h6.884c.9 0 1.63.747 1.63 1.668v23.064c0 .92-.73 1.668-1.63 1.668zM1063.86 985.864h5.254c1.89 0 3.426-1.574 3.426-3.508v-12.712c0-1.934-1.537-3.507-3.426-3.507h-5.254v19.727zm5.254 3.336h-6.884c-.9 0-1.63-.747-1.63-1.668v-23.064c0-.92.73-1.668 1.63-1.668h6.884c3.686 0 6.686 3.07 6.686 6.844v12.712c0 3.774-3 6.844-6.686 6.844zM1033 992.446a2.758 2.758 0 0 0-2.754 2.754 2.758 2.758 0 0 0 2.754 2.754 2.758 2.758 0 0 0 2.754-2.754 2.758 2.758 0 0 0-2.754-2.754m0 8.754c-3.308 0-6-2.692-6-6 0-3.309 2.692-6 6-6s6 2.691 6 6c0 3.308-2.692 6-6 6" fill="#232426"/>
        <path d="M1037.785 996.4a1.667 1.667 0 0 1-.35-3.296c8.71-1.877 15.032-9.717 15.032-18.642v-15.659c0-10.515-8.553-19.07-19.067-19.07s-19.067 8.555-19.067 19.07v15.659a19.029 19.029 0 0 0 14.455 18.508 1.667 1.667 0 0 1-.803 3.235A22.356 22.356 0 0 1 1011 974.462v-15.659c0-12.353 10.048-22.403 22.4-22.403 12.351 0 22.4 10.05 22.4 22.403v15.659c0 10.485-7.428 19.696-17.663 21.9a1.69 1.69 0 0 1-.352.038" fill="#232426"/>
        <path d="M1028.518 996.4h-17.822c-5.126 0-9.296-4.255-9.296-9.485 0-.947.753-1.715 1.682-1.715.928 0 1.68.768 1.68 1.715 0 3.338 2.662 6.054 5.934 6.054h17.822c.929 0 1.682.768 1.682 1.715 0 .948-.753 1.716-1.682 1.716" fill="#232426"/>
    </g>
</svg>
