<svg width="115" height="128" xmlns="http://www.w3.org/2000/svg" xmlns:xlink="http://www.w3.org/1999/xlink">
    <defs>
        <path id="a" d="M0 0h81v41H0z"/>
        <path id="c" d="M0 0h52v44H0z"/>
        <path id="e" d="M0 0h44v54H0z"/>
    </defs>
    <g fill="none" fill-rule="evenodd">
        <path d="M80 23.964 52.602 5.871a4.548 4.548 0 0 0-1.71-.674 4.577 4.577 0 0 0-3.838.548L3.202 34.483c-1.948 1.276-2.78 3.808-1.77 5.909 1.22 2.54 4.374 3.356 6.653 1.862l2.703-1.772 64.642-9.79" fill="#2CACE5"/>
        <g transform="translate(0 4)">
            <mask id="b" fill="#fff">
                <use xlink:href="#a"/>
            </mask>
            <path d="M4.549 40.774a6.234 6.234 0 0 1-3.96-3.33c-1.337-2.8-.33-6.242 2.34-8.005L45.988 1.022a6.18 6.18 0 0 1 5.115-.781 6.143 6.143 0 0 1 2.224.904l26.91 17.897a1.708 1.708 0 0 1 .475 2.373 1.72 1.72 0 0 1-2.38.474L51.429 3.997a2.716 2.716 0 0 0-1.024-.404 1.724 1.724 0 0 1-.202-.049 2.751 2.751 0 0 0-2.321.332L4.825 32.293c-1.234.815-1.733 2.431-1.137 3.682a2.77 2.77 0 0 0 1.78 1.501 2.76 2.76 0 0 0 2.256-.351l2.655-1.753c.207-.136.442-.227.688-.264l63.47-9.682a1.716 1.716 0 0 1 1.955 1.433c.144.934-.5 1.807-1.437 1.95L11.96 38.435l-2.34 1.544A6.183 6.183 0 0 1 6.211 41a6.233 6.233 0 0 1-1.662-.226z" fill="#18386B" mask="url(#b)"/>
        </g>
        <path d="m76 31.668-25.463-16.51a.98.98 0 0 0-1.068 0L30.501 27.522 11.437 39.948a.958.958 0 0 0-.437.803v50.288c0 .531.434.961.971.961h52.645" fill="#FFF"/>
        <path d="M63.962 94H11.7C10.211 94 9 92.79 9 91.304V40.662c0-.909.453-1.75 1.211-2.25L47.965 13.45c.906-.599 2.078-.599 2.983.001l25.273 16.623c.8.526 1.02 1.598.491 2.394a1.74 1.74 0 0 1-2.406.49L49.457 16.613 12.473 41.067v49.476h51.49c.958 0 1.736.774 1.736 1.729 0 .954-.778 1.728-1.737 1.728z" fill="#18386B"/>
        <path d="M65 99.268v-36.11c0-.638.53-1.158 1.176-1.158h46.647c.647 0 1.177.52 1.177 1.157V102" fill="#2CACE5"/>
        <g transform="translate(63 60)">
            <mask id="d" fill="#fff">
                <use xlink:href="#c"/>
            </mask>
            <path d="M50.267 44a1.729 1.729 0 0 1-1.732-1.725V3.45H3.466v36.055c0 .953-.776 1.725-1.733 1.725A1.729 1.729 0 0 1 0 39.506V2.898C0 1.3 1.3 0 2.897 0h46.205C50.7 0 52 1.3 52 2.898v39.377A1.73 1.73 0 0 1 50.267 44" fill="#18386B" mask="url(#d)"/>
        </g>
        <path d="m78.797 127 4.389-5.359c4.844.194 10.268-1.815 13.636-5.885l3.177-3.84 5.264-6.437c1.107-1.338.949-3.338-.352-4.446-1.3-1.108-3.27-.92-4.376.417l-6.726 8.266 7.66-9.35c1.113-1.336.956-3.33-.349-4.433-1.304-1.103-3.283-.913-4.396.423l-7.01 8.551 7.836-9.567c1.114-1.335.913-3.367-.446-4.516-1.36-1.15-3.383-.996-4.497.339l-7.194 8.66 5.497-6.692 6.652-8.19 2.98-3.571c1.155-1.383.982-3.459-.382-4.612-1.366-1.155-3.426-.969-4.58.414L79.53 96.456l2.117-11.568c.325-1.772-.832-3.474-2.57-3.78-1.74-.306-3.428.894-3.752 2.666l-5.928 18.585s-2.106 4.292-.467 6.86l.39.748a.274.274 0 0 1-.03.3L65 115.551" fill="#FFF"/>
        <g transform="translate(64 74)">
            <mask id="f" fill="#fff">
                <use xlink:href="#e"/>
            </mask>
            <path d="M15.366 54c-.384 0-.77-.13-1.09-.394a1.737 1.737 0 0 1-.232-2.432l4.344-5.31c.34-.417.858-.649 1.39-.628 4.585.18 9.341-1.861 12.11-5.212l3.144-3.805 5.203-6.373c.495-.6.432-1.509-.133-1.99a1.286 1.286 0 0 0-.958-.302c-.27.023-.52.124-.73.289l-6.87 8.399c-.601.734-1.68.84-2.41.235a1.736 1.736 0 0 1-.237-2.428l6.656-8.192c.12-.146.248-.284.381-.413l.546-.667c.508-.61.447-1.489-.124-1.972a1.306 1.306 0 0 0-.981-.3 1.412 1.412 0 0 0-.956.507l-6.927 8.464a1.705 1.705 0 0 1-2.412.234 1.736 1.736 0 0 1-.232-2.431l.016-.02 7.738-9.462c.508-.61.404-1.526-.221-2.055-.625-.529-1.538-.474-2.035.124l-7.118 8.58a1.704 1.704 0 0 1-2.41.22 1.737 1.737 0 0 1-.225-2.429l5.44-6.632 6.577-8.11 2.964-3.557c.537-.644.461-1.603-.17-2.138a1.463 1.463 0 0 0-1.088-.34c-.404.037-.77.229-1.028.54L17.404 23.11c-.499.602-1.338.788-2.042.454a1.73 1.73 0 0 1-.955-1.876l2.095-11.464a1.511 1.511 0 0 0-.241-1.14 1.398 1.398 0 0 0-.913-.592c-.793-.14-1.583.434-1.732 1.253a1.736 1.736 0 0 1-.054.215L7.696 28.38a1.69 1.69 0 0 1-.095.237c-.426.878-1.444 3.708-.557 5.1.027.042.052.085.075.13l.387.74a2.005 2.005 0 0 1-.226 2.2L3.04 42.02a1.704 1.704 0 0 1-2.41.245 1.737 1.737 0 0 1-.244-2.43l3.634-4.486c-1.738-3.074.033-7.246.45-8.138l5.8-18.212c.544-2.623 3.06-4.371 5.669-3.91a4.798 4.798 0 0 1 3.135 2.023 4.965 4.965 0 0 1 .799 3.737l-.918 5.017L30.662 1.78A4.904 4.904 0 0 1 34.01.02a4.85 4.85 0 0 1 3.6 1.136c2.077 1.76 2.341 4.902.589 7.005l-2.95 3.538-2.074 2.558a4.989 4.989 0 0 1 3.173 4.86c.81.144 1.57.498 2.213 1.043a4.818 4.818 0 0 1 1.68 4.034c.759.16 1.47.508 2.076 1.025 2.005 1.71 2.255 4.774.558 6.83l-5.203 6.373-3.15 3.813c-3.302 3.995-8.608 6.426-14.013 6.467l-3.82 4.67a1.705 1.705 0 0 1-1.322.628z" fill="#18386B" mask="url(#f)"/>
        </g>
        <path d="M57.837 42.443 31.58 57.953a.346.346 0 0 1-.467-.11L23.05 45.008a.324.324 0 0 1 .114-.453L49.42 29.048a.346.346 0 0 1 .467.11L57.95 41.99a.323.323 0 0 1-.114.452" fill="#2CACE5"/>
        <path d="m24.013 45.326 6.491 10.672 23.481-14.324-6.49-10.672-23.482 14.324zM30.033 60a2.102 2.102 0 0 1-1.787-.998l-7.95-13.07a2.07 2.07 0 0 1 .69-2.83l25.892-15.794a2.095 2.095 0 0 1 2.874.69l7.95 13.07c.589.971.277 2.24-.693 2.832L31.12 59.693a2.089 2.089 0 0 1-1.087.307z" fill="#18386B"/>
        <path d="M28.917 55.835 24.1 58.973a.167.167 0 0 1-.238-.061l-4.837-8.493a.193.193 0 0 1 .057-.255l4.816-3.137a.167.167 0 0 1 .238.062l4.837 8.492c.05.088.025.201-.057.254" fill="#FFF"/>
        <path d="m21.895 51.096 3.12 5.07 2.09-1.26-3.12-5.07-2.09 1.26zM24.507 60a1.849 1.849 0 0 1-1.572-.872l-4.67-7.59a1.785 1.785 0 0 1 .61-2.466l4.652-2.805a1.87 1.87 0 0 1 1.41-.212c.479.117.88.41 1.132.826l4.667 7.582c.52.84.248 1.948-.611 2.466l-4.651 2.804c-.291.176-.629.267-.967.267zM71.682 81C70.753 81 70 80.256 70 79.338V69.306C70 68.034 71.047 67 72.334 67h13.332C86.953 67 88 68.034 88 69.306v9.32c0 .918-.753 1.662-1.682 1.662-.93 0-1.683-.744-1.683-1.662v-8.303h-11.27v9.015c0 .918-.753 1.662-1.683 1.662M104.982 79c-.193 0-.39-.037-.58-.116-.867-.355-1.31-1.423-.99-2.384.16-.48.242-.985.242-1.505 0-2.362-1.707-4.284-3.806-4.284-1.115 0-2.17.548-2.894 1.504-.595.785-1.65.885-2.358.226-.707-.66-.798-1.83-.203-2.614C95.755 68.03 97.743 67 99.848 67c3.944 0 7.152 3.587 7.152 7.995 0 .96-.151 1.9-.45 2.793-.249.749-.888 1.212-1.568 1.212M100.226 17c-.346 0-.696-.104-1.002-.32-5.56-3.93-12.82-4.044-18.493-.293-.823.545-1.92.299-2.45-.55-.529-.847-.29-1.976.534-2.52 6.876-4.548 15.675-4.408 22.415.353.807.57 1.013 1.707.459 2.538a1.757 1.757 0 0 1-1.463.792M103.3 9a1.54 1.54 0 0 1-.976-.358c-7.374-5.991-17.08-6.303-24.726-.796-.795.573-1.843.294-2.34-.625-.497-.92-.254-2.128.542-2.702 8.807-6.343 19.985-5.983 28.479.917.767.624.951 1.846.411 2.732-.33.542-.856.832-1.39.832" fill="#18386B"/>
        <path d="M105 54V34.758C105 26.091 98.25 19 90 19s-15 7.091-15 15.758V54h30z" fill="#FFE375"/>
        <path d="M75.557 51.52h27.886V34.282c0-7.61-6.254-13.803-13.943-13.803-7.688 0-13.943 6.192-13.943 13.803V51.52zM105.222 55H73.778C72.796 55 72 54.221 72 53.26V34.282C72 24.752 79.85 17 89.5 17S107 24.752 107 34.282V53.26c0 .961-.796 1.74-1.778 1.74z" fill="#18386B"/>
        <path d="M110.293 56H69.707C68.764 56 68 55.105 68 54s.764-2 1.707-2h40.586c.943 0 1.707.895 1.707 2s-.764 2-1.707 2M65.203 82H43.797C42.804 82 42 81.224 42 80.267V50.733c0-.957.804-1.733 1.797-1.733.992 0 1.796.776 1.796 1.733v27.801h19.61c.993 0 1.797.776 1.797 1.733 0 .957-.804 1.733-1.797 1.733" fill="#18386B"/>
    </g>
</svg>
