<svg width="200" height="116" xmlns="http://www.w3.org/2000/svg" xmlns:xlink="http://www.w3.org/1999/xlink">
    <defs>
        <filter id="a">
            <feColorMatrix in="SourceGraphic" values="0 0 0 0 0.121569 0 0 0 0 0.180392 0 0 0 0 0.231373 0 0 0 0.100000 0"/>
        </filter>
        <path id="b" d="M0 0h200v116H0z"/>
    </defs>
    <g transform="translate(-1313 -1969)" filter="url(#a)" fill="none" fill-rule="evenodd">
        <path d="M1394.476 2077.814c.702 1.589 2.883 1.47 4.377 1.47h32.436c1.464 0 3.67.108 4.368-1.47h-41.181zm42.54 0c-.818 2.683-3.38 2.745-5.744 2.745h-32.368c-2.396 0-4.976-.081-5.788-2.745h-74.678c-1.509 0-1.745.257-1.547 1.834.086.683.454 1.265 1.822 1.802 2.945 1.157 7.077 1.186 10.24 1.186h169.59c3.164 0 7.295-.029 10.24-1.186 1.434-.563 1.77-1.174 1.833-1.9.136-1.559-.054-1.736-1.558-1.736h-72.042zm-103.297-81.231c0 1.397-2.132 1.397-2.132 0v-22.033c0-2.923 2.396-5.31 5.33-5.31h152.126c2.934 0 5.33 2.387 5.33 5.31v22.177c0 1.397-2.132 1.397-2.132 0v-22.177c0-1.75-1.44-3.186-3.198-3.186h-152.126c-1.757 0-3.198 1.436-3.198 3.186v22.033zm152.088 69.694c.396-.395 1 .205.603.6l-3.733 3.72c-.397.395-1-.206-.603-.601l3.733-3.72zm.13-4.955c.397-.395 1 .205.604.6l-8.613 8.581c-.396.395-1-.205-.603-.6l8.613-8.581zm-54.7-61.296h-36.514c-2.93 0-5.33 2.392-5.33 5.31v36.38c0 2.92 2.4 5.311 5.33 5.311h36.514c2.93 0 5.33-2.392 5.33-5.31v-36.38c0-2.92-2.4-5.311-5.33-5.311zm24.21 22.863c-.068-.932-.135-4.34-1.396-4.47-.798-.082-1.565 1.016-1.892 1.602-.712 1.277-1.399 2.208-2.258 2.868h5.547zm11.544 0c-.09-1.674-.32-8.425-2.397-8.193-1.502.169-2.208 5.467-2.543 8.193h4.94zm13.484 0c-.25-2.317-.523-4.782-.917-6.743-1.098-5.48-2.818-4.662-3.98.202-.512 2.144-.832 4.66-1.05 6.541h5.947zm1.418 1.275c.285 2.908.475 5.911 1.062 8.768 1.137 5.543 3.065 4.617 4.144-.314.538-2.455.863-5.564 1.128-8.454h-6.334zm-13.553 0c.267 4.203.864 6.953 1.59 8.217.42.733.605.748 1.07.035.798-1.219 1.56-3.95 2.094-8.252h-4.754zm-11.518 0c.148 1.592.43 2.829.787 3.707.694 1.706 1.347 1.864 2.077.1.362-.877.673-2.143.913-3.807h-3.777zm-43.307 11.964c0 .838-1.28.838-1.28 0v-25.203c0-.838 1.28-.838 1.28 0v25.203zm3.9-3.49c0 .837-1.28.837-1.28 0v-18.222c0-.838 1.28-.838 1.28 0v18.221zm3.9-4.963c0 .838-1.28.838-1.28 0v-8.297c0-.838 1.28-.838 1.28 0v8.297zm3.9 1.574c0 .838-1.28.838-1.28 0v-11.445c0-.838 1.28-.838 1.28 0v11.445zm3.9-3.417c0 .838-1.28.838-1.28 0v-4.61c0-.839 1.28-.839 1.28 0v4.61zm-19.5 6.805c0 .838-1.28.838-1.28 0v-18.221c0-.838 1.28-.838 1.28 0v18.221zm-3.9-4.962c0 .838-1.28.838-1.28 0v-8.297c0-.838 1.28-.838 1.28 0v8.297zm-3.9 1.574c0 .838-1.28.838-1.28 0v-11.445c0-.838 1.28-.838 1.28 0v11.445zm-3.9-3.417c0 .838-1.28.838-1.28 0v-4.61c0-.839 1.28-.839 1.28 0v4.61zm-31.857-1.668c.24 1.664.55 2.93.913 3.807.73 1.764 1.384 1.606 2.077-.1.357-.878.64-2.115.787-3.707h-3.777zm-12.495 0c.534 4.303 1.297 7.033 2.094 8.252.466.713.65.698 1.07-.035.726-1.264 1.323-4.014 1.59-8.217h-4.754zm-15.133 0c.265 2.89.59 6 1.128 8.454 1.249 5.704 3.193 5.226 4.253-.224.607-3.121.833-7 .954-8.23h-6.335zm13.7-1.275c-.193-1.656-1.188-10.468-3.086-10.527-1.684-.052-2.328 5.575-2.862 10.527h5.947zm12.476 0c-.335-2.726-1.04-8.024-2.543-8.193-2.078-.232-2.308 6.52-2.397 8.193h4.94zm12.15 0c-.86-.66-1.546-1.591-2.258-2.868-.768-1.377-2.345-2.618-2.884-.362-.244 1.021-.328 2.18-.405 3.23h5.547zm5.59 1.275c-.467.014-.902.014-1.31 0h-9.92c-.157 1.782-.475 3.18-.884 4.185-1.125 2.768-3.27 2.932-4.44.105-.417-1.008-.767-2.437-1.025-4.29h-5.172c-.28 4.457-.942 7.428-1.758 8.85-.9 1.568-2.259 1.61-3.25.094-.902-1.38-1.75-4.35-2.31-8.944h-6.23c-.151 1.494-.327 5.068-.96 8.205-1.383 6.86-5.155 7.931-6.778.518-.554-2.528-.886-5.746-1.158-8.723h-23.28c-.841 0-.841-1.275 0-1.275h23.164c-.23-2.464-.733-11.697-4.04-12.074-.835-.095-.69-1.36.145-1.264 4.457.507 4.862 9.972 5.174 13.338h6.584c.595-5.524 1.316-11.885 4.18-11.796 3.204.099 4.047 9.28 4.337 11.796h4.973c.135-2.537.313-9.85 3.815-9.457 2.52.282 3.325 6.467 3.69 9.457h4.036c.083-1.147.175-2.409.441-3.524.785-3.29 3.76-2.619 5.242.039.785 1.407 1.507 2.316 2.486 2.841.73.392 1.634.591 2.843.644h6.32v-11.573c-24.942.616-49.789-5.924-72.143-16.706-.756-.364-.202-1.509.554-1.146 22.183 10.7 46.838 17.198 71.59 16.581v-4.708c0-4.092 3.355-7.435 7.461-7.435h36.514c4.106 0 7.462 3.343 7.462 7.435v4.702c27.39.44 48.85-5.11 73.076-17.372.749-.377 1.324.758.574 1.135-24.402 12.351-46.06 17.947-73.65 17.507v11.58h7.018c1.209-.053 2.112-.252 2.842-.644.98-.525 1.7-1.434 2.486-2.841.62-1.112 1.717-2.395 3.135-2.25 2.388.247 2.421 3.979 2.548 5.735h4.036c.365-2.99 1.17-9.175 3.69-9.457 3.502-.392 3.68 6.92 3.815 9.457h4.973c.223-1.933.554-4.58 1.092-6.835 1.493-6.25 4.921-6.951 6.414-.235.47 2.117.753 4.673 1.011 7.07h6.584c.312-3.366.717-12.831 5.174-13.338.835-.095.98 1.17.145 1.264-3.307.377-3.81 9.61-4.04 12.074h22.466c.842 0 .842 1.275 0 1.275h-22.581c-.272 2.977-.605 6.195-1.158 8.723-1.322 6.033-4.907 7.337-6.515.647-.728-3.032-.91-6.264-1.223-9.37h-6.231c-.56 4.595-1.408 7.564-2.31 8.944-.991 1.516-2.349 1.474-3.25-.095-.815-1.42-1.478-4.392-1.758-8.849h-5.172c-.258 1.853-.608 3.282-1.025 4.29-1.169 2.827-3.315 2.663-4.44-.105-.409-1.005-.727-2.403-.885-4.185H1438.7v11.462c27.736.076 49.02 5.058 73.686 17.367.75.374.18 1.509-.57 1.135-24.489-12.22-45.579-17.156-73.116-17.232v4.82c0 4.092-3.356 7.435-7.462 7.435h-36.514c-4.106 0-7.462-3.343-7.462-7.434v-4.837c-22.242-.152-51.633 6.958-71.595 16.566-.756.363-1.311-.782-.555-1.145 20.14-9.694 49.71-16.842 72.15-16.69v-11.447h-4.916zm-63.908 51.526h13.149v-24.594c0-1.397 2.132-1.397 2.132 0v24.594h158.522v-25.522c0-1.397 2.133-1.397 2.133 0v25.522h14.684c2.874 0 3.727 1.077 3.702 3.872-.015 1.521-.396 2.761-3.202 3.863-3.251 1.278-7.533 1.335-11.015 1.335h-169.59c-3.482 0-7.763-.057-11.014-1.335-2.709-1.064-3.158-2.256-3.199-3.706-.08-2.856.753-4.03 3.698-4.03z" fill="#FEFEFE"/>
        <g transform="translate(1313 1969)">
            <mask id="c" fill="#fff">
                <use xlink:href="#b"/>
            </mask>
            <path d="M23.917 2.124h152.126a3.436 3.436 0 0 1 3.439 3.426v22.177c0 .558.415.808.825.808.412 0 .826-.25.826-.808V5.55c0-2.796-2.283-5.071-5.09-5.071H23.917c-2.807 0-5.09 2.275-5.09 5.071v22.033c0 .558.415.808.826.808.41 0 .825-.25.825-.808V5.55a3.436 3.436 0 0 1 3.439-3.426zm156.39 26.89c-.649 0-1.306-.442-1.306-1.287V5.55a2.956 2.956 0 0 0-2.958-2.947H23.917a2.956 2.956 0 0 0-2.958 2.947v22.033c0 .845-.657 1.287-1.306 1.287-.65 0-1.307-.442-1.307-1.287V5.55c0-3.06 2.499-5.55 5.57-5.55h152.127c3.072 0 5.57 2.49 5.57 5.55v22.177c0 .845-.656 1.287-1.306 1.287zM33.45 53.65h5.41c-1.09-9.272-2.435-10.036-2.823-10.048h-.016c-1.454 0-2.151 6.164-2.57 10.048zm5.95.479h-6.485l.029-.265c.656-6.084 1.3-10.742 3.076-10.742l.032.001c.943.029 1.703 1.542 2.39 4.76.512 2.392.819 5.04.92 5.911l.038.335zm7.52-.48h4.415c-.192-1.536-.437-3.27-.795-4.76-.6-2.491-1.2-2.92-1.503-2.955a.683.683 0 0 0-.537.181C47.243 47.18 47 52.026 46.92 53.62l-.001.03zm4.958.48h-5.465l.014-.252.014-.282c.155-3.095.494-6.783 1.748-7.845.272-.23.575-.328.902-.292 1.54.173 2.256 4.344 2.755 8.402l.032.269zm6.591-.48h4.643c-.623-.598-1.202-1.4-1.823-2.512-.507-.907-1.247-1.544-1.722-1.478-.398.055-.61.604-.718 1.055-.22.92-.309 1.976-.38 2.936zm5.994.48H57.95l.02-.274c.076-1.04.162-2.217.41-3.252.207-.867.583-1.344 1.12-1.418.8-.11 1.685.784 2.207 1.72.75 1.342 1.426 2.205 2.195 2.795l.559.429zm73.084-.48h4.646l-.005-.075c-.055-.944-.223-3.82-1.161-3.916-.58-.06-1.255.76-1.657 1.48-.62 1.112-1.2 1.913-1.823 2.512zm5.16.48h-6.51l.558-.43c.769-.59 1.446-1.452 2.195-2.794.24-.431 1.102-1.828 2.126-1.724 1.345.138 1.512 2.993 1.592 4.366l.02.325.02.257zm6.617-.48h4.415l-.001-.03c-.08-1.593-.323-6.44-1.579-7.504a.682.682 0 0 0-.537-.18c-.304.033-.902.463-1.502 2.955-.36 1.49-.604 3.223-.796 4.76zm4.922.48h-5.465l.033-.269c.498-4.058 1.215-8.23 2.754-8.402.327-.037.63.062.902.292 1.254 1.062 1.593 4.75 1.748 7.845l.014.282.014.252zm7.553-.48h5.41c-.257-2.37-.521-4.639-.885-6.456-.666-3.32-1.408-3.591-1.62-3.595h-.006c-.473 0-1.214.999-1.885 3.805-.477 2-.792 4.357-1.014 6.247zm5.945.48h-6.485l.031-.267c.226-1.945.55-4.45 1.056-6.57.455-1.906 1.232-4.173 2.352-4.173h.015c.867.016 1.548 1.318 2.082 3.98.382 1.905.653 4.287.92 6.765l.029.265zm-83.468-2.297c-.184 0-.4.102-.4.39v4.61c0 .287.216.389.4.389.184 0 .4-.102.4-.39v-4.61c0-.287-.216-.389-.4-.389zm0 5.868c-.437 0-.88-.298-.88-.868v-4.61c0-.57.443-.869.88-.869s.88.298.88.869v4.61c0 .57-.443.868-.88.868zm31.2-5.868c-.184 0-.4.102-.4.39v4.61c0 .287.216.389.4.389.184 0 .4-.102.4-.39v-4.61c0-.287-.216-.389-.4-.389zm0 5.868c-.437 0-.88-.298-.88-.868v-4.61c0-.57.443-.869.88-.869s.88.298.88.869v4.61c0 .57-.443.868-.88.868zm-23.4-7.711c-.184 0-.4.102-.4.39v8.296c0 .287.216.39.4.39.184 0 .4-.103.4-.39v-8.297c0-.287-.216-.39-.4-.39zm0 9.554c-.437 0-.88-.298-.88-.868v-8.297c0-.57.443-.868.88-.868s.88.298.88.868v8.297c0 .57-.443.868-.88.868zm15.6-9.554c-.184 0-.4.102-.4.39v8.296c0 .287.216.39.4.39.184 0 .4-.103.4-.39v-8.297c0-.287-.216-.39-.4-.39zm0 9.554c-.437 0-.88-.298-.88-.868v-8.297c0-.57.443-.868.88-.868s.88.298.88.868v8.297c0 .57-.443.868-.88.868zm-54.339-4.14c.227 1.478.515 2.647.858 3.476.423 1.025.712 1.106.791 1.106.106 0 .4-.119.84-1.204.345-.848.601-2.011.745-3.378h-3.234zm1.65 5.06c-.449 0-.842-.445-1.237-1.401-.379-.917-.692-2.217-.929-3.864l-.04-.274H57.1l-.025.262c-.143 1.547-.414 2.817-.803 3.775-.422 1.038-.818 1.501-1.284 1.503h-.002zm89.101-5.06c.144 1.367.4 2.53.745 3.378.441 1.085.734 1.203.84 1.204.079 0 .368-.08.792-1.106.343-.83.63-1.998.857-3.476h-3.234zm1.585 5.06h-.002c-.466 0-.862-.464-1.283-1.502-.39-.958-.66-2.228-.804-3.775l-.025-.262h4.319l-.04.274c-.237 1.647-.55 2.947-.929 3.864-.395.956-.788 1.402-1.236 1.402zM88.175 48.416c-.184 0-.4.102-.4.39v11.444c0 .287.216.389.4.389.184 0 .4-.102.4-.39V48.805c0-.287-.216-.389-.4-.389zm0 12.702c-.437 0-.88-.298-.88-.868V48.804c0-.57.443-.868.88-.868s.88.298.88.868V60.25c0 .57-.443.868-.88.868zm23.4-12.702c-.184 0-.4.102-.4.39v11.444c0 .287.216.389.4.389.184 0 .4-.102.4-.39V48.805c0-.287-.216-.389-.4-.389zm0 12.702c-.437 0-.88-.298-.88-.868V48.804c0-.57.443-.868.88-.868s.88.298.88.868V60.25c0 .57-.443.868-.88.868zm-70.74-5.714c.494 3.845 1.21 6.638 2.023 7.882.216.33.31.4.342.414.03-.016.12-.09.319-.437.74-1.288 1.285-4.073 1.541-7.859h-4.224zM43.2 64.18c-.275 0-.49-.242-.745-.633-.884-1.352-1.62-4.24-2.13-8.354l-.033-.269h5.281l-.016.255c-.254 3.987-.83 6.942-1.62 8.32-.245.426-.44.673-.723.681H43.2zm112.397-8.777c.256 3.786.802 6.571 1.541 7.86.199.345.289.42.32.436.031-.014.125-.083.341-.414.814-1.244 1.53-4.037 2.022-7.882h-4.224zm1.86 8.777h-.014c-.282-.008-.478-.255-.722-.68-.792-1.379-1.367-4.334-1.62-8.32l-.017-.256h5.282l-.034.27c-.51 4.112-1.246 7-2.13 8.353-.256.39-.47.633-.745.633zM95.975 45.027c-.184 0-.4.102-.4.39v18.22c0 .287.216.39.4.39.184 0 .4-.103.4-.39v-18.22c0-.288-.216-.39-.4-.39zm0 19.478c-.437 0-.88-.298-.88-.868v-18.22c0-.57.443-.87.88-.87s.88.3.88.87v18.22c0 .57-.443.868-.88.868zm7.8-19.478c-.184 0-.4.102-.4.39v18.22c0 .287.216.39.4.39.184 0 .4-.103.4-.39v-18.22c0-.288-.216-.39-.4-.39zm0 19.478c-.437 0-.88-.298-.88-.868v-18.22c0-.57.443-.87.88-.87s.88.3.88.87v18.22c0 .57-.443.868-.88.868zm-78.082-9.102c.266 2.864.585 5.814 1.1 8.164.627 2.866 1.386 3.886 1.89 3.886h.004c.528-.006 1.301-1.088 1.888-4.105.485-2.493.723-5.436.865-7.194.023-.293.043-.543.061-.75h-5.808zm2.988 12.53c-.945 0-1.739-1.435-2.358-4.264-.536-2.446-.861-5.523-1.132-8.483l-.024-.262h6.863l-.026.263c-.024.24-.05.578-.085 1.005-.143 1.769-.382 4.728-.872 7.247-.397 2.042-1.128 4.479-2.355 4.493h-.01zm140.476-12.53c.048.502.095 1.011.14 1.505.21 2.315.427 4.708.893 6.976.683 3.328 1.49 3.591 1.722 3.593h.003c.505 0 1.318-1.023 1.95-3.91.514-2.35.834-5.3 1.099-8.164h-5.807zm2.758 12.553h-.006c-.913-.006-1.65-1.344-2.19-3.976-.471-2.295-.69-4.701-.901-7.028-.053-.58-.107-1.18-.165-1.765l-.026-.263h6.863l-.023.262c-.272 2.96-.597 6.037-1.133 8.483-.35 1.602-1.131 4.287-2.419 4.287zm-72.04-26.42c-.184 0-.4.102-.4.389v25.203c0 .287.216.39.4.39.184 0 .4-.103.4-.39V41.925c0-.287-.216-.39-.4-.39zm0 26.46c-.437 0-.88-.298-.88-.868V41.925c0-.57.443-.868.88-.868s.88.298.88.868v25.203c0 .57-.443.868-.88.868zm-18.152-36.73c-2.806 0-5.09 2.274-5.09 5.07v36.38c0 2.797 2.284 5.072 5.09 5.072h36.514c2.806 0 5.09-2.275 5.09-5.071v-36.38c0-2.797-2.284-5.072-5.09-5.072H81.723zm36.514 47H81.723c-3.071 0-5.57-2.489-5.57-5.55v-36.38c0-3.06 2.499-5.55 5.57-5.55h36.514c3.071 0 5.57 2.49 5.57 5.55v36.38c0 3.061-2.499 5.55-5.57 5.55zm7.221-10.61h.241c14.13.04 26.127 1.332 37.756 4.069 11.667 2.745 22.938 6.936 35.468 13.19.137.067.263.065.374-.008a.465.465 0 0 0 .2-.397c-.009-.133-.082-.234-.22-.302-24.531-12.242-45.849-17.266-73.579-17.342h-.24V54.923h17.302l.02.219c.146 1.657.446 3.08.868 4.116.508 1.252 1.27 2 2.036 2.002h.004c.743 0 1.456-.692 1.955-1.899.42-1.016.76-2.44 1.01-4.231l.028-.207h5.607l.014.225c.26 4.153.874 7.259 1.727 8.745.393.685.887 1.07 1.39 1.084.503.017 1.018-.34 1.45-1 .946-1.449 1.754-4.589 2.272-8.843l.026-.21h6.661l.022.215c.064.632.123 1.28.18 1.907.227 2.474.461 5.032 1.038 7.432.656 2.728 1.691 4.291 2.842 4.291h.013c1.285-.013 2.537-1.95 3.19-4.934.543-2.475.875-5.641 1.154-8.694l.02-.218h22.801c.289 0 .391-.214.391-.397 0-.184-.102-.398-.39-.398h-22.73l.024-.262c.018-.189.037-.418.06-.68.282-3.363.944-11.24 4.192-11.61.153-.017.257-.088.31-.21a.464.464 0 0 0-.05-.443c-.08-.107-.198-.153-.35-.135-3.908.444-4.567 8.392-4.884 12.212-.028.337-.054.643-.078.91l-.02.218h-7.02l-.023-.214c-.234-2.175-.526-4.881-1.006-7.044-.634-2.849-1.692-4.555-2.831-4.564h-.01c-1.208 0-2.397 1.838-3.105 4.803-.515 2.158-.839 4.652-1.087 6.807l-.024.212h-5.416l-.012-.227c-.007-.126-.014-.263-.02-.41-.111-2.241-.342-6.904-2.093-8.388a1.803 1.803 0 0 0-1.435-.434c-2.38.266-3.178 6.792-3.479 9.248l-.025.21h-4.473l-.016-.222c-.01-.136-.02-.285-.029-.444-.113-1.819-.303-4.863-2.303-5.069-1.463-.151-2.516 1.437-2.901 2.127-.878 1.573-1.626 2.424-2.582 2.936-.751.404-1.688.617-2.946.673h-7.269V42.066l.245.004c13.677.216 26.094-1.074 37.96-3.95 11.58-2.807 22.885-7.107 35.577-13.532a.368.368 0 0 0 .208-.235.425.425 0 0 0-.039-.293c-.082-.164-.27-.308-.526-.18-12.636 6.396-23.885 10.676-35.402 13.469-11.807 2.863-24.167 4.148-37.786 3.93l-.237-.004v-4.938c0-3.968-3.24-7.196-7.221-7.196H81.723c-3.982 0-7.221 3.228-7.221 7.196v4.942l-.235.006c-11.971.298-24.36-1.065-36.82-4.053-11.688-2.803-23.424-7.026-34.88-12.552-.137-.066-.263-.062-.374.013a.464.464 0 0 0-.194.4c.01.133.085.234.223.3 11.51 5.552 23.303 9.795 35.054 12.611 12.512 3 24.954 4.369 36.98 4.072l.246-.006V54.13H67.93c-1.258-.056-2.194-.27-2.946-.673-.956-.512-1.704-1.363-2.582-2.936-.788-1.413-2.03-2.264-3.087-2.119-.82.113-1.427.83-1.711 2.02-.263 1.103-.355 2.369-.435 3.485l-.016.223H52.68l-.025-.21c-.3-2.457-1.098-8.983-3.479-9.25a1.802 1.802 0 0 0-1.435.435c-1.751 1.484-1.981 6.147-2.092 8.387l-.02.411-.013.227H40.2l-.024-.212-.051-.454c-.304-2.731-1.228-11.044-4.054-11.13l-.05-.002c-1.127 0-1.995 1.184-2.652 3.617-.622 2.307-.96 5.446-1.232 7.967l-.023.214h-7.02l-.02-.218c-.024-.267-.05-.573-.077-.91-.317-3.82-.976-11.768-4.884-12.212-.153-.018-.271.028-.35.135a.464.464 0 0 0-.051.443c.053.122.158.193.31.21 3.249.37 3.91 8.247 4.193 11.61.022.262.041.491.059.68l.024.262H.871c-.288 0-.39.214-.39.398 0 .183.102.397.39.397h23.5l.02.218c.278 3.053.61 6.22 1.152 8.694.676 3.083 1.806 4.922 3.026 4.922h.01c1.324-.011 2.609-2.145 3.272-5.436.489-2.423.704-5.114.846-6.895.041-.51.076-.951.11-1.287l.022-.216h6.661l.026.211c.519 4.254 1.326 7.394 2.273 8.843.431.66.946 1.015 1.449 1 .504-.014.997-.4 1.39-1.084.853-1.486 1.467-4.592 1.727-8.745l.014-.225h5.607l.029.207c.25 1.792.59 3.215 1.01 4.231.498 1.207 1.21 1.9 1.954 1.9h.004c.766-.003 1.528-.751 2.036-2.003.422-1.036.722-2.46.868-4.116l.02-.219h10.148c.398.014.821.014 1.293 0h5.164v11.927l-.242-.001c-10.845-.074-23.596 1.534-36.88 4.647-12.808 3.001-25.296 7.27-35.165 12.02a.368.368 0 0 0-.211.23.425.425 0 0 0 .034.295c.08.164.264.312.523.188 20.602-9.915 50.085-16.739 71.702-16.59l.239.002v5.075c0 3.967 3.24 7.195 7.221 7.195h36.514c3.982 0 7.221-3.228 7.221-7.195v-5.061zm73.655 17.786a.907.907 0 0 1-.405-.1c-12.496-6.235-23.733-10.414-35.363-13.15-11.527-2.713-23.42-4.003-37.406-4.056v4.58c0 4.232-3.455 7.675-7.702 7.675H81.723c-4.247 0-7.702-3.443-7.702-7.674v-4.599h-.45c-21.484 0-50.475 6.761-70.8 16.543-.515.248-.976-.02-1.166-.411-.19-.392-.113-.918.401-1.165 9.9-4.764 22.423-9.045 35.263-12.055 13.222-3.098 25.924-4.71 36.752-4.66V55.402h-4.672c-.48.014-.91.014-1.317 0h-9.696c-.157 1.611-.46 3.003-.881 4.036-.593 1.46-1.498 2.298-2.48 2.301h-.006c-.962 0-1.814-.779-2.4-2.195-.418-1.014-.758-2.406-1.01-4.142H46.82c-.274 4.113-.902 7.208-1.776 8.73-.479.834-1.116 1.304-1.793 1.324-.679.017-1.34-.413-1.866-1.218-.97-1.484-1.793-4.616-2.321-8.836h-5.8c-.027.298-.056.658-.088 1.062-.144 1.792-.36 4.5-.854 6.951-.721 3.577-2.154 5.808-3.74 5.82h-.014c-1.484.001-2.758-1.929-3.495-5.298-.535-2.441-.867-5.534-1.143-8.535H.871c-.572 0-.871-.44-.871-.876s.3-.877.871-.877h22.9l-.035-.423c-.136-1.615-.363-4.318-.94-6.711-.68-2.825-1.631-4.327-2.828-4.463a.837.837 0 0 1-.697-.495.937.937 0 0 1 .105-.919.84.84 0 0 1 .791-.326c4.3.489 4.981 8.701 5.309 12.648l.058.689h6.148c.27-2.5.608-5.548 1.223-7.826.733-2.715 1.773-4.012 3.181-3.97 1.416.043 2.553 1.644 3.38 4.756.655 2.466.968 5.286 1.137 6.8l.026.24h4.53l.01-.182c.114-2.308.351-7.11 2.26-8.728a2.294 2.294 0 0 1 1.801-.546c1.21.135 2.145 1.406 2.858 3.885.557 1.942.853 4.227 1.018 5.57h3.6c.078-1.078.175-2.272.43-3.34.45-1.882 1.517-2.3 2.113-2.382 1.254-.173 2.69.776 3.573 2.36.83 1.486 1.522 2.282 2.39 2.748.685.367 1.553.562 2.734.615h6.075V42.56c-.995.024-1.993.035-2.994.035-11.056 0-22.43-1.384-33.864-4.125-11.784-2.824-23.61-7.078-35.15-12.645a.833.833 0 0 1-.493-.696.938.938 0 0 1 .403-.832.84.84 0 0 1 .854-.048c11.425 5.51 23.128 9.722 34.783 12.517 12.338 2.959 24.603 4.32 36.46 4.045v-4.474c0-4.232 3.456-7.675 7.703-7.675h36.514c4.247 0 7.702 3.443 7.702 7.675v4.466c13.485.2 25.73-1.083 37.428-3.92 11.48-2.783 22.696-7.05 35.299-13.43a.84.84 0 0 1 .855.033.938.938 0 0 1 .418.825.834.834 0 0 1-.481.704c-12.726 6.442-24.065 10.754-35.682 13.57-11.835 2.869-24.213 4.166-37.837 3.967V53.65h6.772c1.18-.053 2.05-.248 2.734-.615.868-.466 1.56-1.262 2.39-2.748.431-.772 1.624-2.55 3.37-2.37 2.405.247 2.611 3.545 2.734 5.516l.014.217h3.598c.165-1.344.46-3.63 1.019-5.57.712-2.48 1.647-3.75 2.857-3.886a2.294 2.294 0 0 1 1.8.546c1.91 1.618 2.147 6.42 2.261 8.728l.01.182h4.53c.247-2.12.568-4.54 1.072-6.651.774-3.24 2.11-5.17 3.574-5.17a.7.7 0 0 1 .013 0c1.42.01 2.59 1.764 3.296 4.938.47 2.119.76 4.735.992 6.883h6.148c.019-.21.038-.441.059-.689.327-3.946 1.008-12.159 5.308-12.648.32-.037.61.082.791.326.194.26.235.621.105.919a.837.837 0 0 1-.697.495c-1.197.136-2.148 1.638-2.829 4.463-.576 2.393-.803 5.096-.939 6.71-.012.154-.024.295-.036.424h22.203c.573 0 .872.441.872.877 0 .435-.3.876-.872.876h-22.362c-.276 3.001-.608 6.094-1.142 8.535-.715 3.26-2.115 5.295-3.656 5.311h-.018c-1.413 0-2.587-1.653-3.31-4.659-.584-2.433-.82-5.009-1.048-7.5-.051-.554-.103-1.126-.159-1.687h-5.8c-.53 4.22-1.352 7.352-2.322 8.836-.526.805-1.187 1.24-1.866 1.218-.677-.02-1.314-.49-1.793-1.325-.874-1.521-1.502-4.616-1.776-8.729H149.1c-.252 1.736-.592 3.128-1.012 4.142-.585 1.416-1.437 2.195-2.399 2.195h-.005c-.983-.003-1.887-.841-2.48-2.3-.42-1.034-.724-2.426-.882-4.037H125.94v10.985c27.694.104 49.02 5.15 73.554 17.391.289.144.465.4.484.702a.942.942 0 0 1-.415.826.81.81 0 0 1-.449.135zm-25.881 6.99a.175.175 0 0 0-.124.059l-8.613 8.58c-.051.052-.069.105-.053.163a.23.23 0 0 0 .154.153c.058.016.11-.002.162-.053l8.613-8.581c.118-.118.026-.227-.004-.258a.203.203 0 0 0-.135-.063zm-8.596 9.44a.636.636 0 0 1-.164-.022.71.71 0 0 1-.495-.493.633.633 0 0 1 .178-.624l8.613-8.58.17.169-.17-.17c.303-.302.71-.223.939.004.228.228.307.633.004.936l-8.613 8.58a.651.651 0 0 1-.462.2zm8.463-4.485c-.042 0-.083.02-.122.059l-3.733 3.72c-.118.117-.027.226.004.257.03.031.14.122.259.004l3.733-3.719c.051-.051.069-.104.053-.161a.231.231 0 0 0-.154-.155.152.152 0 0 0-.04-.005zm-3.71 4.577a.69.69 0 0 1-.481-.202c-.229-.228-.308-.633-.004-.935l3.733-3.72.17.17-.17-.17a.638.638 0 0 1 .626-.177.71.71 0 0 1 .495.493.633.633 0 0 1-.178.624l-3.733 3.719a.641.641 0 0 1-.459.198zm-87.5 7.09c.73 1.006 2.348.999 3.67.992l.294-.001h32.702c1.26.006 2.945.013 3.687-.992H81.888zm3.354 1.472c-1.473 0-3.316-.096-3.987-1.616l-.149-.336h41.918l-.148.336c-.72 1.63-2.803 1.62-4.324 1.615l-.264-.001H85.563l-.32.002zm-79.805-1.473c-.731 0-1.075.067-1.226.237-.157.177-.18.55-.082 1.328.075.602.389 1.106 1.672 1.61 2.976 1.169 7.294 1.169 10.151 1.169h169.59c2.858 0 7.176 0 10.152-1.17 1.321-.518 1.623-1.034 1.681-1.697.058-.654.06-1.095-.102-1.272-.158-.171-.565-.205-1.216-.205h-71.867c-.945 2.745-3.698 2.745-5.92 2.745H85.905c-2.122 0-5.012 0-5.963-2.745H5.438zm180.105 4.823H15.953c-2.894 0-7.267 0-10.328-1.203-1.286-.505-1.858-1.083-1.972-1.995-.104-.821-.104-1.364.199-1.706.295-.332.805-.398 1.586-.398h74.856l.052.17c.726 2.382 2.947 2.575 5.558 2.575h32.368c2.68 0 4.787-.19 5.514-2.575l.052-.17h72.22c.822 0 1.29.056 1.57.36.286.311.301.795.227 1.637-.085.973-.66 1.582-1.984 2.102-3.06 1.203-7.434 1.203-10.328 1.203zM5.438 106.929c-1.34 0-2.208.249-2.728.782-.547.56-.772 1.486-.73 3.002.035 1.222.294 2.408 3.047 3.49 3.097 1.216 7.096 1.318 10.926 1.318h169.59c3.83 0 7.83-.102 10.927-1.318 2.798-1.1 3.036-2.3 3.05-3.644.012-1.451-.22-2.337-.751-2.872-.514-.517-1.376-.758-2.71-.758h-14.926V81.168c0-.559-.414-.809-.826-.809-.41 0-.825.25-.825.809v25.761H20.478V82.096c0-.559-.415-.808-.825-.808-.411 0-.826.25-.826.808v24.833H5.438zM185.543 116H15.953c-3.876 0-7.927-.104-11.102-1.352-2.729-1.072-3.305-2.295-3.35-3.922-.047-1.656.22-2.689.864-3.35.617-.631 1.594-.926 3.073-.926h12.908V82.096c0-.845.657-1.287 1.307-1.287.649 0 1.306.442 1.306 1.287v24.354H179V81.168c0-.845.657-1.288 1.306-1.288.65 0 1.307.443 1.307 1.288v25.282h14.444c1.472 0 2.442.286 3.052.9.63.633.904 1.624.89 3.214-.017 1.759-.57 2.99-3.354 4.084-3.175 1.248-7.226 1.352-11.103 1.352z" fill="#FEFEFE" mask="url(#c)"/>
        </g>
    </g>
</svg>
