<svg width="218" height="114" xmlns="http://www.w3.org/2000/svg" xmlns:xlink="http://www.w3.org/1999/xlink">
    <defs>
        <filter id="a">
            <feColorMatrix in="SourceGraphic" values="0 0 0 0 0.121569 0 0 0 0 0.180392 0 0 0 0 0.231373 0 0 0 0.100000 0"/>
        </filter>
        <path id="b" d="M0 114h218V0H0z"/>
    </defs>
    <g transform="translate(-996 -1970)" filter="url(#a)" fill="none" fill-rule="evenodd">
        <g transform="translate(996 1970)">
            <path d="M162.135 53.418h-1.78a.4.4 0 0 1-.4-.399v-4.294a.4.4 0 0 1 .4-.398h1.78a.4.4 0 0 1 .401.398v4.294a.4.4 0 0 1-.4.399M168.728 59.747h-2.313a.521.521 0 0 1-.522-.518v-14.1c0-.284.235-.517.522-.517h2.313c.287 0 .522.233.522.517v14.1a.521.521 0 0 1-.522.518M175.7 65.388h-2.314a.521.521 0 0 1-.521-.518V40.864c0-.285.235-.518.521-.518h2.314c.287 0 .522.233.522.518V64.87a.521.521 0 0 1-.522.518M182.672 70.204h-2.314a.521.521 0 0 1-.521-.518V36.048c0-.285.234-.518.521-.518h2.314c.287 0 .521.233.521.518v33.638a.521.521 0 0 1-.521.518M189.644 66.706h-2.314a.521.521 0 0 1-.522-.518v-25.74c0-.285.235-.518.522-.518h2.314c.286 0 .521.233.521.518v25.74a.521.521 0 0 1-.521.518M196.763 65.451h-2.314a.521.521 0 0 1-.521-.517v-22.12c0-.284.235-.517.521-.517h2.314c.287 0 .522.233.522.518v22.119a.521.521 0 0 1-.522.517M215.237 48.2l2.17.001c.327 0 .593.143.593.317l-.023 10.464c0 .174-.267.316-.593.315h-2.171c-.326-.001-.593-.143-.592-.317l.022-10.464c0-.174.268-.316.594-.316M208.231 45.332l2.171.002c.326 0 .593.054.593.12l-.036 16.744c0 .065-.268.119-.594.119l-2.17-.002c-.327 0-.593-.054-.593-.12l.036-16.744c0-.066.267-.12.593-.119M201.445 39.187h2.17c.327.001.593.143.593.317l-.057 25.902c0 .174-.267.316-.593.316l-2.171-.002c-.326 0-.593-.142-.592-.316l.056-25.902c0-.174.267-.315.594-.315" fill="#FCFDFC"/>
            <path d="M101.427 65.213c0-.307.251-.556.56-.556h23.544c.309 0 .56.25.56.556v16.138h-24.664V65.213zm-2.934 21.703 1.952-3.233.613-1.012a.568.568 0 0 1 .368-.207h24.664c.111 0 .311.112.369.207l.612 1.014 1.953 3.23h-30.53zm-19.426-43.68c-3.555 0-6.447-2.872-6.447-6.402 0-3.528 2.891-6.398 6.463-6.398h.002l.65.01v-.568c0-3.528 2.892-6.4 6.446-6.4 1.05 0 2.099.261 3.03.755l.567.302.223-.6c1.336-3.602 4.827-6.022 8.686-6.022 4.58 0 8.514 3.393 9.153 7.893l.063.448.456.03c4.477.289 7.984 4.008 7.984 8.463 0 4.68-3.834 8.486-8.547 8.486l-28.729.002zm11.49 26.985c.619 0 1.122.5 1.122 1.113v.557h-8.408v-.557c0-.614.502-1.113 1.12-1.113h6.167zm1.122 15.582c0 .614-.503 1.113-1.121 1.113h-6.166a1.118 1.118 0 0 1-1.121-1.113v-.557h8.408v.557zm-8.408-1.67h8.408v-11.13h-8.408v11.13zM73.18 65.77c.618 0 1.121.499 1.121 1.113v1.113H59.728v-1.113c0-.614.502-1.113 1.121-1.113h12.332zm1.121 20.033c0 .614-.503 1.113-1.121 1.113H60.849a1.118 1.118 0 0 1-1.121-1.113V84.69h14.574v1.113zm-14.574-2.226h14.574V69.109H59.728v14.468zm70.479 3.132-2.787-4.61a1.394 1.394 0 0 0-.209-.254V65.213c0-.92-.754-1.67-1.681-1.67h-11.211v-9.46a.558.558 0 0 0-.56-.556h-9.748v-9.179h3.785l.56-.002v-.016c5.072-.289 9.108-4.476 9.108-9.583 0-4.892-3.736-8.997-8.585-9.535-.903-4.827-5.206-8.412-10.192-8.412-4.121 0-7.867 2.46-9.508 6.184a7.616 7.616 0 0 0-2.998-.618c-3.986 0-7.263 3.076-7.547 6.969-3.972.222-7.135 3.501-7.135 7.499 0 4.143 3.395 7.514 7.568 7.514h5.885v8.623H67.295c-.31 0-.56.249-.56.556v11.13h-5.886a2.236 2.236 0 0 0-2.242 2.226v18.92a2.236 2.236 0 0 0 2.242 2.226h12.332a2.236 2.236 0 0 0 2.242-2.226V66.882a2.236 2.236 0 0 0-2.242-2.225h-5.325V54.084h17.657c.31 0 .56-.25.56-.557v-9.179h7.848v15.3h-6.446c-.31 0-.56.25-.56.557v8.904h-2.523a2.236 2.236 0 0 0-2.242 2.225v14.469a2.236 2.236 0 0 0 2.242 2.226h6.166a2.236 2.236 0 0 0 2.242-2.226V71.334a2.236 2.236 0 0 0-2.242-2.225h-2.523V60.76h6.447c.31 0 .56-.249.56-.556V44.348h7.848v9.736c0 .307.25.556.56.556h9.749v8.904h-11.211c-.927 0-1.682.749-1.682 1.67v16.631c-.08.08-.153.162-.209.253l-2.786 4.61c-.182.302-.2.63-.047.898.153.268.445.423.8.423h31.39c.355 0 .646-.153.8-.423.152-.268.136-.596-.047-.897z" fill="#FEFEFE"/>
            <path d="M101.427 65.213c0-.307.251-.556.56-.556h23.544c.309 0 .56.25.56.556v16.138h-24.664V65.213zm-2.934 21.703 1.952-3.233.613-1.012a.568.568 0 0 1 .368-.207h24.664c.111 0 .311.112.369.207l.612 1.014 1.953 3.23h-30.53zm-19.426-43.68c-3.555 0-6.447-2.872-6.447-6.402 0-3.528 2.891-6.398 6.463-6.398h.002l.65.01v-.568c0-3.528 2.892-6.4 6.446-6.4 1.05 0 2.099.261 3.03.755l.567.302.223-.6c1.336-3.602 4.827-6.022 8.686-6.022 4.58 0 8.514 3.393 9.153 7.893l.063.448.456.03c4.477.289 7.984 4.008 7.984 8.463 0 4.68-3.834 8.486-8.547 8.486l-28.729.002zm11.49 26.985c.619 0 1.122.5 1.122 1.113v.557h-8.408v-.557c0-.614.502-1.113 1.12-1.113h6.167zm1.122 15.582c0 .614-.503 1.113-1.121 1.113h-6.166a1.118 1.118 0 0 1-1.121-1.113v-.557h8.408v.557zm-8.408-1.67h8.408v-11.13h-8.408v11.13zM73.18 65.77c.618 0 1.121.499 1.121 1.113v1.113H59.728v-1.113c0-.614.502-1.113 1.121-1.113h12.332zm1.121 20.033c0 .614-.503 1.113-1.121 1.113H60.849a1.118 1.118 0 0 1-1.121-1.113V84.69h14.574v1.113zm-14.574-2.226h14.574V69.109H59.728v14.468zm70.479 3.132-2.787-4.61a1.394 1.394 0 0 0-.209-.254V65.213c0-.92-.754-1.67-1.681-1.67h-11.211v-9.46a.558.558 0 0 0-.56-.556h-9.748v-9.179h3.785l.56-.002v-.016c5.072-.289 9.108-4.476 9.108-9.583 0-4.892-3.736-8.997-8.585-9.535-.903-4.827-5.206-8.412-10.192-8.412-4.121 0-7.867 2.46-9.508 6.184a7.616 7.616 0 0 0-2.998-.618c-3.986 0-7.263 3.076-7.547 6.969-3.972.222-7.135 3.501-7.135 7.499 0 4.143 3.395 7.514 7.568 7.514h5.885v8.623H67.295c-.31 0-.56.249-.56.556v11.13h-5.886a2.236 2.236 0 0 0-2.242 2.226v18.92a2.236 2.236 0 0 0 2.242 2.226h12.332a2.236 2.236 0 0 0 2.242-2.226V66.882a2.236 2.236 0 0 0-2.242-2.225h-5.325V54.084h17.657c.31 0 .56-.25.56-.557v-9.179h7.848v15.3h-6.446c-.31 0-.56.25-.56.557v8.904h-2.523a2.236 2.236 0 0 0-2.242 2.225v14.469a2.236 2.236 0 0 0 2.242 2.226h6.166a2.236 2.236 0 0 0 2.242-2.226V71.334a2.236 2.236 0 0 0-2.242-2.225h-2.523V60.76h6.447c.31 0 .56-.249.56-.556V44.348h7.848v9.736c0 .307.25.556.56.556h9.749v8.904h-11.211c-.927 0-1.682.749-1.682 1.67v16.631c-.08.08-.153.162-.209.253l-2.786 4.61c-.182.302-.2.63-.047.898.153.268.445.423.8.423h31.39c.355 0 .646-.153.8-.423.152-.268.136-.596-.047-.897z" stroke="#FEFEFE" stroke-width=".5"/>
            <mask id="c" fill="#fff">
                <use xlink:href="#b"/>
            </mask>
            <path d="M103.67 79.125h20.18V66.883h-20.18v12.242zm20.74-13.355h-21.301c-.31 0-.56.249-.56.556v13.356c0 .307.25.556.56.556h21.3c.31 0 .561-.249.561-.556V66.326a.559.559 0 0 0-.56-.556z" fill="#FEFEFE" mask="url(#c)"/>
            <path d="M103.67 79.125h20.18V66.883h-20.18v12.242zm20.74-13.355h-21.301c-.31 0-.56.249-.56.556v13.356c0 .307.25.556.56.556h21.3c.31 0 .561-.249.561-.556V66.326a.559.559 0 0 0-.56-.556z" stroke="#FEFEFE" stroke-width=".5" mask="url(#c)"/>
            <path d="M76.732 106.935c.673 1.561 2.766 1.445 4.199 1.445h31.114c1.404 0 3.52.106 4.19-1.445H76.732zm40.807 0c-.785 2.636-3.243 2.697-5.51 2.697h-31.05c-2.298 0-4.772-.08-5.552-2.697H3.793c-1.448 0-1.674.253-1.484 1.802.082.671.435 1.243 1.748 1.771 2.824 1.137 6.788 1.166 9.822 1.166h162.68c3.034 0 6.997-.029 9.822-1.166 1.375-.553 1.697-1.154 1.758-1.867.131-1.532-.051-1.706-1.494-1.706H117.54zM18.45 27.109c0 1.373-2.045 1.373-2.045 0V5.458c0-2.873 2.299-5.22 5.113-5.22h145.928c2.814 0 5.113 2.347 5.113 5.22V27.25c0 1.373-2.046 1.373-2.046 0V5.458c0-1.72-1.382-3.132-3.067-3.132H21.518c-1.685 0-3.068 1.412-3.068 3.132v21.651zm145.89 68.488c.381-.388.96.202.58.59l-3.581 3.655c-.38.388-.96-.202-.579-.59l3.58-3.655zm.127-4.87c.38-.387.958.203.578.591l-8.261 8.433c-.38.388-.96-.203-.579-.59l8.262-8.433zM3.793 104.848h12.612V80.68c0-1.373 2.045-1.373 2.045 0v24.168h152.063v-25.08c0-1.373 2.046-1.373 2.046 0v25.08h14.086c2.757 0 3.575 1.058 3.55 3.805-.014 1.496-.38 2.714-3.07 3.797-3.12 1.255-7.226 1.312-10.566 1.312H13.879c-3.34 0-7.447-.057-10.565-1.312-2.598-1.046-3.03-2.217-3.068-3.642-.077-2.807.722-3.96 3.547-3.96z" fill="#FEFEFE" mask="url(#c)"/>
            <path d="M76.732 106.935c.673 1.561 2.766 1.445 4.199 1.445h31.114c1.404 0 3.52.106 4.19-1.445H76.732zm40.807 0c-.785 2.636-3.243 2.697-5.51 2.697h-31.05c-2.298 0-4.772-.08-5.552-2.697H3.793c-1.448 0-1.674.253-1.484 1.802.082.671.435 1.243 1.748 1.771 2.824 1.137 6.788 1.166 9.822 1.166h162.68c3.034 0 6.997-.029 9.822-1.166 1.375-.553 1.697-1.154 1.758-1.867.131-1.532-.051-1.706-1.494-1.706H117.54zM18.45 27.109c0 1.373-2.045 1.373-2.045 0V5.458c0-2.873 2.299-5.22 5.113-5.22h145.928c2.814 0 5.113 2.347 5.113 5.22V27.25c0 1.373-2.046 1.373-2.046 0V5.458c0-1.72-1.382-3.132-3.067-3.132H21.518c-1.685 0-3.068 1.412-3.068 3.132v21.651zm145.89 68.488c.381-.388.96.202.58.59l-3.581 3.655c-.38.388-.96-.202-.579-.59l3.58-3.655zm.127-4.87c.38-.387.958.203.578.591l-8.261 8.433c-.38.388-.96-.203-.579-.59l8.262-8.433zM3.793 104.848h12.612V80.68c0-1.373 2.045-1.373 2.045 0v24.168h152.063v-25.08c0-1.373 2.046-1.373 2.046 0v25.08h14.086c2.757 0 3.575 1.058 3.55 3.805-.014 1.496-.38 2.714-3.07 3.797-3.12 1.255-7.226 1.312-10.566 1.312H13.879c-3.34 0-7.447-.057-10.565-1.312-2.598-1.046-3.03-2.217-3.068-3.642-.077-2.807.722-3.96 3.547-3.96z" stroke="#FEFEFE" stroke-width=".5" mask="url(#c)"/>
        </g>
    </g>
</svg>
