<svg width="73" height="68" xmlns="http://www.w3.org/2000/svg" xmlns:xlink="http://www.w3.org/1999/xlink">
    <defs>
        <path id="a" d="M0 0h19v16H0z"/>
        <path id="c" d="M0 68h73V0H0z"/>
    </defs>
    <g fill="none" fill-rule="evenodd">
        <path d="M39.393 14.972S37.689 7.299 41.38 4.395c2.36-1.856 4.479 1.452 5.326-1.073.723-2.155 6.485-3.851 8.448-.141 0 0 3.078 2.067 1.285 4.819-1.792 2.752-9.387 1.01-11.004 1.571-2.723.947-3.45 3.346-3.692 5.429" fill="#FFF"/>
        <path d="M41.724 16a.906.906 0 0 1-.118-.007c-.531-.067-.91-.569-.846-1.121.143-1.224.578-4.948 4.36-6.257.665-.23 1.674-.191 3.4-.103 2.332.119 6.234.318 7.147-1.077.338-.518.457-1.01.363-1.5-.174-.91-1.055-1.683-1.38-1.904a1.012 1.012 0 0 1-.32-.358c-.86-1.617-2.57-1.72-3.513-1.638-1.693.148-3.004 1.046-3.199 1.625-.737 2.185-2.432 1.677-3.343 1.405-.967-.29-1.597-.438-2.332.138-1.593 1.247-1.967 3.703-2 5.544-.039 2.134.362 3.973.366 3.991.12.542-.205 1.082-.727 1.207-.52.125-1.041-.212-1.162-.753-.076-.34-1.805-8.34 2.355-11.597 1.547-1.21 3.046-.762 4.037-.465.273.081.68.204.824.184.023-.028.082-.113.152-.32.579-1.719 2.886-2.793 4.866-2.966 2.311-.202 4.212.693 5.255 2.46.504.387 1.71 1.456 2.02 3.036.201 1.025-.026 2.077-.658 3.042-1.524 2.33-5.583 2.123-8.845 1.957-1.043-.053-2.341-.119-2.692.002-1.81.627-2.75 2.042-3.048 4.589-.06.511-.478.886-.962.886" fill="#18386B"/>
        <path fill="#2CACE5" d="m36 43 1.91-26h6.182L46 42.974"/>
        <path d="M35.035 44c-.025 0-.05 0-.075-.003-.57-.038-.998-.504-.957-1.041l1.897-25.05c.039-.51.489-.906 1.031-.906h6.14c.542 0 .992.395 1.03.905l1.896 25.025c.041.538-.388 1.004-.957 1.042-.572.039-1.064-.366-1.105-.903L42.11 18.95h-4.215l-1.83 24.146c-.038.513-.492.905-1.03.905" fill="#18386B"/>
        <path d="M4 44V26.978A.99.99 0 0 1 5 26h25a.99.99 0 0 1 1 .978V44" fill="#FFF"/>
        <path d="M31.98 44c-.565 0-1.022-.425-1.022-.95V26.9H6.042v16.15c0 .525-.458.95-1.021.95C4.457 44 4 43.575 4 43.05V26.88C4 25.843 4.906 25 6.02 25h24.96c1.114 0 2.02.843 2.02 1.879V43.05c0 .525-.457.95-1.02.95" fill="#18386B"/>
        <path fill="#2CACE5" d="m53 43 1.914-26h6.174L63 42.976"/>
        <path d="M52.034 45c-.025 0-.05 0-.075-.003a1.016 1.016 0 0 1-.956-1.076l1.901-25.985a1.022 1.022 0 0 1 1.03-.936h6.133c.542 0 .992.408 1.03.936l1.9 25.96a1.016 1.016 0 0 1-.956 1.078 1.025 1.025 0 0 1-1.103-.934l-1.832-25.025h-4.21l-1.834 25.049c-.038.53-.492.936-1.028.936" fill="#18386B"/>
        <path d="M1 66.415V44.718C1 43.769 1.773 43 2.726 43h66.548c.953 0 1.726.77 1.726 1.718V67" fill="#FFF"/>
        <path d="M72.006 68c-.55 0-.995-.455-.995-1.015V43.802a.766.766 0 0 0-.757-.773H2.746a.766.766 0 0 0-.758.773v22.574c0 .56-.445 1.015-.994 1.015-.549 0-.994-.454-.994-1.015V43.802C0 42.257 1.232 41 2.746 41h67.508C71.768 41 73 42.257 73 43.802v23.183c0 .56-.445 1.015-.994 1.015" fill="#18386B"/>
        <path d="M56.397 14.972S54.673 7.299 58.41 4.395c2.387-1.856 4.531 1.452 5.389-1.073.857-2.525 8.712-4.42 9.186 2.272.428 6.06-7.717 3.03-10.472 3.977-2.756.947-3.491 3.346-3.736 5.429" fill="#FFF"/>
        <g transform="translate(54)">
            <mask id="b" fill="#fff">
                <use xlink:href="#a"/>
            </mask>
            <path d="M3.765 16a.925.925 0 0 1-.12-.007c-.537-.067-.92-.57-.855-1.121.145-1.224.584-4.948 4.408-6.258 1.003-.343 2.353-.268 3.917-.182 1.982.11 4.447.247 5.41-.762.403-.421.567-1.076.501-2-.105-1.478-.706-3.305-2.973-3.614-1.962-.266-4.056.795-4.331 1.603-.745 2.185-2.46 1.678-3.38 1.405-.977-.29-1.613-.438-2.357.138-2.655 2.057-2.092 7.58-1.651 9.535a1.008 1.008 0 0 1-.734 1.208.98.98 0 0 1-1.176-.753c-.076-.34-1.823-8.34 2.38-11.598 1.564-1.21 3.08-.762 4.081-.465.276.081.687.204.833.184.023-.028.083-.113.153-.32.65-1.906 3.719-3.304 6.44-2.933 1.3.177 4.358 1.064 4.67 5.464.108 1.513-.248 2.71-1.057 3.557-1.583 1.658-4.415 1.5-6.915 1.363-1.25-.07-2.542-.142-3.192.08-1.83.628-2.78 2.043-3.08 4.59a.99.99 0 0 1-.972.886z" fill="#18386B" mask="url(#b)"/>
        </g>
        <mask id="d" fill="#fff">
            <use xlink:href="#c"/>
        </mask>
        <path fill="#2CACE5" mask="url(#d)" d="M11 37h6v-6h-6z"/>
        <path d="M11.092 36.908h4.816v-4.816h-4.816v4.816zM16.954 39h-6.908A1.046 1.046 0 0 1 9 37.954v-6.908C9 30.468 9.469 30 10.046 30h6.908c.577 0 1.046.468 1.046 1.046v6.908c0 .578-.469 1.046-1.046 1.046z" fill="#18386B" mask="url(#d)"/>
        <path fill="#2CACE5" mask="url(#d)" d="M20 37h6v-6h-6z"/>
        <path d="M21.092 36.908h4.815v-4.816h-4.815v4.816zM26.954 39h-6.908A1.046 1.046 0 0 1 19 37.954v-6.908c0-.578.469-1.046 1.046-1.046h6.908c.577 0 1.046.468 1.046 1.046v6.908c0 .578-.469 1.046-1.046 1.046z" fill="#18386B" mask="url(#d)"/>
        <path fill="#FFE96B" mask="url(#d)" d="M7 59h11V49H7z"/>
        <path d="M9.13 58.87h8.74v-8.74H9.13v8.74zM18.936 61H8.065A1.066 1.066 0 0 1 7 59.935v-10.87C7 48.477 7.477 48 8.065 48h10.87c.588 0 1.065.477 1.065 1.065v10.87c0 .588-.477 1.065-1.065 1.065z" fill="#18386B" mask="url(#d)"/>
        <path fill="#FFE96B" mask="url(#d)" d="M23 59h11V49H23z"/>
        <path d="M24.13 58.87h8.74v-8.74h-8.74v8.74zM33.936 61h-10.87A1.066 1.066 0 0 1 22 59.935v-10.87c0-.588.477-1.065 1.065-1.065h10.87c.588 0 1.065.477 1.065 1.065v10.87c0 .588-.477 1.065-1.065 1.065z" fill="#18386B" mask="url(#d)"/>
        <path fill="#FFE96B" mask="url(#d)" d="M39 59h11V49H39z"/>
        <path d="M40.13 58.87h8.74v-8.74h-8.74v8.74zM49.936 61h-10.87A1.066 1.066 0 0 1 38 59.935v-10.87c0-.588.477-1.065 1.065-1.065h10.87c.588 0 1.065.477 1.065 1.065v10.87c0 .588-.477 1.065-1.065 1.065z" fill="#18386B" mask="url(#d)"/>
        <path fill="#FFE96B" mask="url(#d)" d="M54 59h11V49H54z"/>
        <path d="M55.13 58.87h8.74v-8.74h-8.74v8.74zM64.936 61h-10.87A1.065 1.065 0 0 1 53 59.935v-10.87c0-.588.477-1.065 1.065-1.065h10.87c.588 0 1.065.477 1.065 1.065v10.87c0 .588-.477 1.065-1.065 1.065z" fill="#18386B" mask="url(#d)"/>
        <path d="M22.955 18a1.09 1.09 0 0 1-.74-.282c-1.259-1.158-2.934-1.796-4.715-1.796-1.781 0-3.456.638-4.716 1.796a1.11 1.11 0 0 1-1.478 0 .907.907 0 0 1 0-1.359C12.96 14.838 15.16 14 17.5 14s4.54.838 6.194 2.36a.907.907 0 0 1 0 1.358 1.09 1.09 0 0 1-.74.282" fill="#FFE96B" mask="url(#d)"/>
        <path d="M25.026 14a.962.962 0 0 1-.689-.29 12.346 12.346 0 0 0-17.674 0 .96.96 0 0 1-1.378 0 1.006 1.006 0 0 1 0-1.405 14.27 14.27 0 0 1 20.43 0c.38.388.38 1.017 0 1.404a.962.962 0 0 1-.689.291" fill="#FFE96B" mask="url(#d)"/>
        <path d="M29.989 9c-.26 0-.518-.089-.715-.265C25.728 5.56 21.014 3.81 16 3.81c-5.014 0-9.728 1.749-13.273 4.924a1.096 1.096 0 0 1-1.43 0 .84.84 0 0 1 0-1.281C5.223 3.937 10.445 2 16 2s10.776 1.937 14.704 5.454a.84.84 0 0 1 0 1.28 1.071 1.071 0 0 1-.715.266" fill="#FFE96B" mask="url(#d)"/>
    </g>
</svg>
