<svg width="254" height="108" xmlns="http://www.w3.org/2000/svg">
    <g fill="none" fill-rule="evenodd">
        <path d="M12.042 10.05c-2.483 0-4.497-2.026-4.497-4.525C7.545 3.025 9.559 1 12.042 1c2.484 0 4.498 2.026 4.498 4.525 0 2.499-2.014 4.525-4.498 4.525" fill="#FFF"/>
        <path d="M12.042 10.05c-2.483 0-4.497-2.026-4.497-4.525C7.545 3.025 9.559 1 12.042 1c2.484 0 4.498 2.026 4.498 4.525 0 2.499-2.014 4.525-4.498 4.525z" stroke="#414042" stroke-width="1.62" stroke-linecap="round" stroke-linejoin="round"/>
        <path d="M21.324 16.53c-.476-2.676-2.851-4.526-5.802-4.526h-.07L9 11.975h-.04c-2.99.038-5.3 1.884-5.751 4.61L1.027 30.497A2.19 2.19 0 0 0 2.845 33a2.186 2.186 0 0 0 2.498-1.823l1.785-11.38.226 9.125c.003.122.015.242.026.362-.007.06-.014.12-.017.183l-.996 21.862a2.316 2.316 0 0 0 2.313 2.424c1.228 0 2.252-.97 2.308-2.212l.804-17.647a5.125 5.125 0 0 0 .827.051c.19-.005.375-.021.558-.045l.725 17.875a2.315 2.315 0 0 0 2.405 2.223 2.316 2.316 0 0 0 2.217-2.41l-.886-21.847a2.325 2.325 0 0 0-.045-.36c.026-.235.043-.472.037-.714l-.233-9.45 2.516 12.894a2.186 2.186 0 0 0 2.563 1.729 2.19 2.19 0 0 0 1.725-2.57l-2.877-14.74z" fill="#FB8F23"/>
        <path d="M21.324 16.53c-.476-2.676-2.851-4.526-5.802-4.526h-.07L9 11.975h-.04c-2.99.038-5.3 1.884-5.751 4.61L1.027 30.497A2.19 2.19 0 0 0 2.845 33a2.186 2.186 0 0 0 2.498-1.823l1.785-11.38.226 9.125c.003.122.015.242.026.362-.007.06-.014.12-.017.183l-.996 21.862a2.316 2.316 0 0 0 2.313 2.424c1.228 0 2.252-.97 2.308-2.212l.804-17.647a5.125 5.125 0 0 0 .827.051c.19-.005.375-.021.558-.045l.725 17.875a2.315 2.315 0 0 0 2.405 2.223 2.316 2.316 0 0 0 2.217-2.41l-.886-21.847a2.325 2.325 0 0 0-.045-.36c.026-.235.043-.472.037-.714l-.233-9.45 2.516 12.894a2.186 2.186 0 0 0 2.563 1.729 2.19 2.19 0 0 0 1.725-2.57l-2.877-14.74z" stroke="#414042" stroke-width="1.62" stroke-linecap="round" stroke-linejoin="round"/>
        <path d="M37.787 10.017a4.246 4.246 0 0 0 4.24-4.251 4.246 4.246 0 0 0-4.24-4.25 4.246 4.246 0 0 0-4.24 4.25 4.246 4.246 0 0 0 4.24 4.25" fill="#FFF"/>
        <path d="M37.787 10.017a4.246 4.246 0 0 0 4.24-4.251 4.246 4.246 0 0 0-4.24-4.25 4.246 4.246 0 0 0-4.24 4.25 4.246 4.246 0 0 0 4.24 4.25z" stroke="#414042" stroke-width="1.62" stroke-linecap="round" stroke-linejoin="round"/>
        <path d="m51.217 30.325-6.48-14.35a2.382 2.382 0 0 0-.028-.062c-1.281-2.604-3.15-3.915-5.574-3.885l-2.343-.002h-.028c-2.336.03-4.43 1.554-5.472 3.978l-6.7 14.278a2.063 2.063 0 0 0 .986 2.742 2.054 2.054 0 0 0 2.736-.988l4.618-9.841.004.177-2.147 15.096c-.109.9-.415 1.69 1.825 1.69h.648l-.648 12.43a2.06 2.06 0 0 0 2.056 2.154 2.058 2.058 0 0 0 2.052-1.967l.657-12.616h1.683l.584 12.606a2.058 2.058 0 0 0 2.138 1.976 2.059 2.059 0 0 0 1.97-2.143l-.577-12.44h.768c2.342 0 1.934-.79 1.825-1.69l-2.54-15.312v-.022l4.24 9.891a2.056 2.056 0 0 0 2.721 1.028 2.063 2.063 0 0 0 1.026-2.728" fill="#FB8F23"/>
        <path d="m51.217 30.325-6.48-14.35a2.382 2.382 0 0 0-.028-.062c-1.281-2.604-3.15-3.915-5.574-3.885l-2.343-.002h-.028c-2.336.03-4.43 1.554-5.472 3.978l-6.7 14.278a2.063 2.063 0 0 0 .986 2.742 2.054 2.054 0 0 0 2.736-.988l4.618-9.841.004.177-2.147 15.096c-.109.9-.415 1.69 1.825 1.69h.648l-.648 12.43a2.06 2.06 0 0 0 2.056 2.154 2.058 2.058 0 0 0 2.052-1.967l.657-12.616h1.683l.584 12.606a2.058 2.058 0 0 0 2.138 1.976 2.059 2.059 0 0 0 1.97-2.143l-.577-12.44h.768c2.342 0 1.934-.79 1.825-1.69l-2.54-15.312v-.022l4.24 9.891a2.056 2.056 0 0 0 2.721 1.028 2.063 2.063 0 0 0 1.026-2.728z" stroke="#414042" stroke-width="1.62" stroke-linecap="round" stroke-linejoin="round"/>
        <path d="M12.042 63.05c-2.483 0-4.497-2.026-4.497-4.525 0-2.5 2.014-4.525 4.497-4.525 2.484 0 4.498 2.026 4.498 4.525 0 2.499-2.014 4.525-4.498 4.525" fill="#FFF"/>
        <path d="M12.042 63.05c-2.483 0-4.497-2.026-4.497-4.525 0-2.5 2.014-4.525 4.497-4.525 2.484 0 4.498 2.026 4.498 4.525 0 2.499-2.014 4.525-4.498 4.525z" stroke="#414042" stroke-width="1.62" stroke-linecap="round" stroke-linejoin="round"/>
        <path d="M21.324 69.53c-.476-2.676-2.851-4.526-5.802-4.526h-.07L9 64.975h-.04c-2.99.038-5.3 1.884-5.751 4.61L1.027 83.497A2.19 2.19 0 0 0 2.845 86a2.186 2.186 0 0 0 2.498-1.823l1.785-11.38.226 9.125c.003.122.015.242.026.362-.007.06-.014.12-.017.183l-.996 21.862a2.316 2.316 0 0 0 2.313 2.424c1.228 0 2.252-.97 2.308-2.212l.804-17.647a5.125 5.125 0 0 0 .827.051c.19-.005.375-.021.558-.045l.725 17.875a2.315 2.315 0 0 0 2.405 2.223 2.316 2.316 0 0 0 2.217-2.41l-.886-21.847a2.325 2.325 0 0 0-.045-.36c.026-.235.043-.472.037-.714l-.233-9.45 2.516 12.894a2.186 2.186 0 0 0 2.563 1.729 2.19 2.19 0 0 0 1.725-2.57l-2.877-14.74z" fill="#FB8F23"/>
        <path d="M21.324 69.53c-.476-2.676-2.851-4.526-5.802-4.526h-.07L9 64.975h-.04c-2.99.038-5.3 1.884-5.751 4.61L1.027 83.497A2.19 2.19 0 0 0 2.845 86a2.186 2.186 0 0 0 2.498-1.823l1.785-11.38.226 9.125c.003.122.015.242.026.362-.007.06-.014.12-.017.183l-.996 21.862a2.316 2.316 0 0 0 2.313 2.424c1.228 0 2.252-.97 2.308-2.212l.804-17.647a5.125 5.125 0 0 0 .827.051c.19-.005.375-.021.558-.045l.725 17.875a2.315 2.315 0 0 0 2.405 2.223 2.316 2.316 0 0 0 2.217-2.41l-.886-21.847a2.325 2.325 0 0 0-.045-.36c.026-.235.043-.472.037-.714l-.233-9.45 2.516 12.894a2.186 2.186 0 0 0 2.563 1.729 2.19 2.19 0 0 0 1.725-2.57l-2.877-14.74z" stroke="#414042" stroke-width="1.62" stroke-linecap="round" stroke-linejoin="round"/>
        <path d="M37.787 63.017a4.246 4.246 0 0 0 4.24-4.251 4.246 4.246 0 0 0-4.24-4.25 4.246 4.246 0 0 0-4.24 4.25 4.246 4.246 0 0 0 4.24 4.25" fill="#FFF"/>
        <path d="M37.787 63.017a4.246 4.246 0 0 0 4.24-4.251 4.246 4.246 0 0 0-4.24-4.25 4.246 4.246 0 0 0-4.24 4.25 4.246 4.246 0 0 0 4.24 4.25z" stroke="#414042" stroke-width="1.62" stroke-linecap="round" stroke-linejoin="round"/>
        <path d="m51.217 83.325-6.48-14.35a2.382 2.382 0 0 0-.028-.062c-1.281-2.604-3.15-3.915-5.574-3.885l-2.343-.002h-.028c-2.336.03-4.43 1.554-5.472 3.978l-6.7 14.278a2.063 2.063 0 0 0 .986 2.742 2.054 2.054 0 0 0 2.736-.988l4.618-9.841.004.177-2.147 15.096c-.109.9-.415 1.69 1.825 1.69h.648l-.648 12.43a2.06 2.06 0 0 0 2.056 2.154 2.058 2.058 0 0 0 2.052-1.967l.657-12.616h1.683l.584 12.606a2.058 2.058 0 0 0 2.138 1.976 2.059 2.059 0 0 0 1.97-2.143l-.577-12.44h.768c2.342 0 1.934-.79 1.825-1.69l-2.54-15.312v-.022l4.24 9.891a2.056 2.056 0 0 0 2.721 1.028 2.063 2.063 0 0 0 1.026-2.728" fill="#FB8F23"/>
        <path d="m51.217 83.325-6.48-14.35a2.382 2.382 0 0 0-.028-.062c-1.281-2.604-3.15-3.915-5.574-3.885l-2.343-.002h-.028c-2.336.03-4.43 1.554-5.472 3.978l-6.7 14.278a2.063 2.063 0 0 0 .986 2.742 2.054 2.054 0 0 0 2.736-.988l4.618-9.841.004.177-2.147 15.096c-.109.9-.415 1.69 1.825 1.69h.648l-.648 12.43a2.06 2.06 0 0 0 2.056 2.154 2.058 2.058 0 0 0 2.052-1.967l.657-12.616h1.683l.584 12.606a2.058 2.058 0 0 0 2.138 1.976 2.059 2.059 0 0 0 1.97-2.143l-.577-12.44h.768c2.342 0 1.934-.79 1.825-1.69l-2.54-15.312v-.022l4.24 9.891a2.056 2.056 0 0 0 2.721 1.028 2.063 2.063 0 0 0 1.026-2.728z" stroke="#414042" stroke-width="1.62" stroke-linecap="round" stroke-linejoin="round"/>
        <g>
            <path d="M62.442 10.05c-2.483 0-4.497-2.026-4.497-4.525 0-2.5 2.014-4.525 4.497-4.525 2.484 0 4.498 2.026 4.498 4.525 0 2.499-2.014 4.525-4.498 4.525" fill="#FFF"/>
            <path d="M62.442 10.05c-2.483 0-4.497-2.026-4.497-4.525 0-2.5 2.014-4.525 4.497-4.525 2.484 0 4.498 2.026 4.498 4.525 0 2.499-2.014 4.525-4.498 4.525z" stroke="#414042" stroke-width="1.62" stroke-linecap="round" stroke-linejoin="round"/>
            <path d="M71.724 16.53c-.476-2.676-2.851-4.526-5.802-4.526h-.07l-6.451-.03h-.04c-2.99.038-5.3 1.884-5.751 4.61l-2.183 13.913A2.19 2.19 0 0 0 53.245 33a2.186 2.186 0 0 0 2.498-1.823l1.785-11.38.226 9.125c.003.122.015.242.026.362-.007.06-.014.12-.017.183l-.996 21.862a2.316 2.316 0 0 0 2.313 2.424c1.228 0 2.252-.97 2.308-2.212l.804-17.647a5.125 5.125 0 0 0 .827.051c.19-.005.375-.021.558-.045l.725 17.875a2.315 2.315 0 0 0 2.405 2.223 2.316 2.316 0 0 0 2.217-2.41l-.886-21.847a2.325 2.325 0 0 0-.045-.36c.026-.235.043-.472.037-.714l-.233-9.45 2.516 12.894a2.186 2.186 0 0 0 2.563 1.729 2.19 2.19 0 0 0 1.725-2.57l-2.877-14.74z" fill="#FB8F23"/>
            <path d="M71.724 16.53c-.476-2.676-2.851-4.526-5.802-4.526h-.07l-6.451-.03h-.04c-2.99.038-5.3 1.884-5.751 4.61l-2.183 13.913A2.19 2.19 0 0 0 53.245 33a2.186 2.186 0 0 0 2.498-1.823l1.785-11.38.226 9.125c.003.122.015.242.026.362-.007.06-.014.12-.017.183l-.996 21.862a2.316 2.316 0 0 0 2.313 2.424c1.228 0 2.252-.97 2.308-2.212l.804-17.647a5.125 5.125 0 0 0 .827.051c.19-.005.375-.021.558-.045l.725 17.875a2.315 2.315 0 0 0 2.405 2.223 2.316 2.316 0 0 0 2.217-2.41l-.886-21.847a2.325 2.325 0 0 0-.045-.36c.026-.235.043-.472.037-.714l-.233-9.45 2.516 12.894a2.186 2.186 0 0 0 2.563 1.729 2.19 2.19 0 0 0 1.725-2.57l-2.877-14.74z" stroke="#414042" stroke-width="1.62" stroke-linecap="round" stroke-linejoin="round"/>
            <path d="M88.187 10.017a4.246 4.246 0 0 0 4.24-4.251 4.246 4.246 0 0 0-4.24-4.25 4.246 4.246 0 0 0-4.24 4.25 4.246 4.246 0 0 0 4.24 4.25" fill="#FFF"/>
            <path d="M88.187 10.017a4.246 4.246 0 0 0 4.24-4.251 4.246 4.246 0 0 0-4.24-4.25 4.246 4.246 0 0 0-4.24 4.25 4.246 4.246 0 0 0 4.24 4.25z" stroke="#414042" stroke-width="1.62" stroke-linecap="round" stroke-linejoin="round"/>
            <path d="m101.617 30.325-6.48-14.35a2.382 2.382 0 0 0-.028-.062c-1.281-2.604-3.15-3.915-5.574-3.885l-2.343-.002h-.028c-2.336.03-4.43 1.554-5.472 3.978l-6.7 14.278a2.063 2.063 0 0 0 .986 2.742 2.054 2.054 0 0 0 2.736-.988l4.618-9.841.004.177-2.147 15.096c-.109.9-.415 1.69 1.825 1.69h.648l-.648 12.43a2.06 2.06 0 0 0 2.056 2.154 2.058 2.058 0 0 0 2.052-1.967l.657-12.616h1.683l.584 12.606a2.058 2.058 0 0 0 2.138 1.976 2.059 2.059 0 0 0 1.97-2.143l-.577-12.44h.768c2.342 0 1.934-.79 1.825-1.69l-2.54-15.312v-.022l4.24 9.891a2.056 2.056 0 0 0 2.721 1.028 2.063 2.063 0 0 0 1.026-2.728" fill="#FB8F23"/>
            <path d="m101.617 30.325-6.48-14.35a2.382 2.382 0 0 0-.028-.062c-1.281-2.604-3.15-3.915-5.574-3.885l-2.343-.002h-.028c-2.336.03-4.43 1.554-5.472 3.978l-6.7 14.278a2.063 2.063 0 0 0 .986 2.742 2.054 2.054 0 0 0 2.736-.988l4.618-9.841.004.177-2.147 15.096c-.109.9-.415 1.69 1.825 1.69h.648l-.648 12.43a2.06 2.06 0 0 0 2.056 2.154 2.058 2.058 0 0 0 2.052-1.967l.657-12.616h1.683l.584 12.606a2.058 2.058 0 0 0 2.138 1.976 2.059 2.059 0 0 0 1.97-2.143l-.577-12.44h.768c2.342 0 1.934-.79 1.825-1.69l-2.54-15.312v-.022l4.24 9.891a2.056 2.056 0 0 0 2.721 1.028 2.063 2.063 0 0 0 1.026-2.728z" stroke="#414042" stroke-width="1.62" stroke-linecap="round" stroke-linejoin="round"/>
        </g>
        <g>
            <path d="M62.442 63.05c-2.483 0-4.497-2.026-4.497-4.525 0-2.5 2.014-4.525 4.497-4.525 2.484 0 4.498 2.026 4.498 4.525 0 2.499-2.014 4.525-4.498 4.525" fill="#FFF"/>
            <path d="M62.442 63.05c-2.483 0-4.497-2.026-4.497-4.525 0-2.5 2.014-4.525 4.497-4.525 2.484 0 4.498 2.026 4.498 4.525 0 2.499-2.014 4.525-4.498 4.525z" stroke="#414042" stroke-width="1.62" stroke-linecap="round" stroke-linejoin="round"/>
            <path d="M71.724 69.53c-.476-2.676-2.851-4.526-5.802-4.526h-.07l-6.451-.03h-.04c-2.99.038-5.3 1.884-5.751 4.61l-2.183 13.913A2.19 2.19 0 0 0 53.245 86a2.186 2.186 0 0 0 2.498-1.823l1.785-11.38.226 9.125c.003.122.015.242.026.362-.007.06-.014.12-.017.183l-.996 21.862a2.316 2.316 0 0 0 2.313 2.424c1.228 0 2.252-.97 2.308-2.212l.804-17.647a5.125 5.125 0 0 0 .827.051c.19-.005.375-.021.558-.045l.725 17.875a2.315 2.315 0 0 0 2.405 2.223 2.316 2.316 0 0 0 2.217-2.41l-.886-21.847a2.325 2.325 0 0 0-.045-.36c.026-.235.043-.472.037-.714l-.233-9.45 2.516 12.894a2.186 2.186 0 0 0 2.563 1.729 2.19 2.19 0 0 0 1.725-2.57l-2.877-14.74z" fill="#FB8F23"/>
            <path d="M71.724 69.53c-.476-2.676-2.851-4.526-5.802-4.526h-.07l-6.451-.03h-.04c-2.99.038-5.3 1.884-5.751 4.61l-2.183 13.913A2.19 2.19 0 0 0 53.245 86a2.186 2.186 0 0 0 2.498-1.823l1.785-11.38.226 9.125c.003.122.015.242.026.362-.007.06-.014.12-.017.183l-.996 21.862a2.316 2.316 0 0 0 2.313 2.424c1.228 0 2.252-.97 2.308-2.212l.804-17.647a5.125 5.125 0 0 0 .827.051c.19-.005.375-.021.558-.045l.725 17.875a2.315 2.315 0 0 0 2.405 2.223 2.316 2.316 0 0 0 2.217-2.41l-.886-21.847a2.325 2.325 0 0 0-.045-.36c.026-.235.043-.472.037-.714l-.233-9.45 2.516 12.894a2.186 2.186 0 0 0 2.563 1.729 2.19 2.19 0 0 0 1.725-2.57l-2.877-14.74z" stroke="#414042" stroke-width="1.62" stroke-linecap="round" stroke-linejoin="round"/>
            <path d="M88.187 63.017a4.246 4.246 0 0 0 4.24-4.251 4.246 4.246 0 0 0-4.24-4.25 4.246 4.246 0 0 0-4.24 4.25 4.246 4.246 0 0 0 4.24 4.25" fill="#FFF"/>
            <path d="M88.187 63.017a4.246 4.246 0 0 0 4.24-4.251 4.246 4.246 0 0 0-4.24-4.25 4.246 4.246 0 0 0-4.24 4.25 4.246 4.246 0 0 0 4.24 4.25z" stroke="#414042" stroke-width="1.62" stroke-linecap="round" stroke-linejoin="round"/>
            <path d="m101.617 83.325-6.48-14.35a2.382 2.382 0 0 0-.028-.062c-1.281-2.604-3.15-3.915-5.574-3.885l-2.343-.002h-.028c-2.336.03-4.43 1.554-5.472 3.978l-6.7 14.278a2.063 2.063 0 0 0 .986 2.742 2.054 2.054 0 0 0 2.736-.988l4.618-9.841.004.177-2.147 15.096c-.109.9-.415 1.69 1.825 1.69h.648l-.648 12.43a2.06 2.06 0 0 0 2.056 2.154 2.058 2.058 0 0 0 2.052-1.967l.657-12.616h1.683l.584 12.606a2.058 2.058 0 0 0 2.138 1.976 2.059 2.059 0 0 0 1.97-2.143l-.577-12.44h.768c2.342 0 1.934-.79 1.825-1.69l-2.54-15.312v-.022l4.24 9.891a2.056 2.056 0 0 0 2.721 1.028 2.063 2.063 0 0 0 1.026-2.728" fill="#FB8F23"/>
            <path d="m101.617 83.325-6.48-14.35a2.382 2.382 0 0 0-.028-.062c-1.281-2.604-3.15-3.915-5.574-3.885l-2.343-.002h-.028c-2.336.03-4.43 1.554-5.472 3.978l-6.7 14.278a2.063 2.063 0 0 0 .986 2.742 2.054 2.054 0 0 0 2.736-.988l4.618-9.841.004.177-2.147 15.096c-.109.9-.415 1.69 1.825 1.69h.648l-.648 12.43a2.06 2.06 0 0 0 2.056 2.154 2.058 2.058 0 0 0 2.052-1.967l.657-12.616h1.683l.584 12.606a2.058 2.058 0 0 0 2.138 1.976 2.059 2.059 0 0 0 1.97-2.143l-.577-12.44h.768c2.342 0 1.934-.79 1.825-1.69l-2.54-15.312v-.022l4.24 9.891a2.056 2.056 0 0 0 2.721 1.028 2.063 2.063 0 0 0 1.026-2.728z" stroke="#414042" stroke-width="1.62" stroke-linecap="round" stroke-linejoin="round"/>
        </g>
        <g>
            <path d="M112.842 10.05c-2.483 0-4.497-2.026-4.497-4.525 0-2.5 2.014-4.525 4.497-4.525 2.484 0 4.498 2.026 4.498 4.525 0 2.499-2.014 4.525-4.498 4.525" fill="#FFF"/>
            <path d="M112.842 10.05c-2.483 0-4.497-2.026-4.497-4.525 0-2.5 2.014-4.525 4.497-4.525 2.484 0 4.498 2.026 4.498 4.525 0 2.499-2.014 4.525-4.498 4.525z" stroke="#414042" stroke-width="1.62" stroke-linecap="round" stroke-linejoin="round"/>
            <path d="M122.124 16.53c-.476-2.676-2.851-4.526-5.802-4.526h-.07l-6.451-.03h-.04c-2.99.038-5.3 1.884-5.751 4.61l-2.183 13.913A2.19 2.19 0 0 0 103.645 33a2.186 2.186 0 0 0 2.498-1.823l1.785-11.38.226 9.125c.003.122.015.242.026.362-.007.06-.014.12-.017.183l-.996 21.862a2.316 2.316 0 0 0 2.313 2.424c1.228 0 2.252-.97 2.308-2.212l.804-17.647a5.125 5.125 0 0 0 .827.051c.19-.005.375-.021.558-.045l.725 17.875a2.315 2.315 0 0 0 2.405 2.223 2.316 2.316 0 0 0 2.217-2.41l-.886-21.847a2.325 2.325 0 0 0-.045-.36c.026-.235.043-.472.037-.714l-.233-9.45 2.516 12.894a2.186 2.186 0 0 0 2.563 1.729 2.19 2.19 0 0 0 1.725-2.57l-2.877-14.74z" fill="#FB8F23"/>
            <path d="M122.124 16.53c-.476-2.676-2.851-4.526-5.802-4.526h-.07l-6.451-.03h-.04c-2.99.038-5.3 1.884-5.751 4.61l-2.183 13.913A2.19 2.19 0 0 0 103.645 33a2.186 2.186 0 0 0 2.498-1.823l1.785-11.38.226 9.125c.003.122.015.242.026.362-.007.06-.014.12-.017.183l-.996 21.862a2.316 2.316 0 0 0 2.313 2.424c1.228 0 2.252-.97 2.308-2.212l.804-17.647a5.125 5.125 0 0 0 .827.051c.19-.005.375-.021.558-.045l.725 17.875a2.315 2.315 0 0 0 2.405 2.223 2.316 2.316 0 0 0 2.217-2.41l-.886-21.847a2.325 2.325 0 0 0-.045-.36c.026-.235.043-.472.037-.714l-.233-9.45 2.516 12.894a2.186 2.186 0 0 0 2.563 1.729 2.19 2.19 0 0 0 1.725-2.57l-2.877-14.74z" stroke="#414042" stroke-width="1.62" stroke-linecap="round" stroke-linejoin="round"/>
            <path d="M138.587 10.017a4.246 4.246 0 0 0 4.24-4.251 4.246 4.246 0 0 0-4.24-4.25 4.246 4.246 0 0 0-4.24 4.25 4.246 4.246 0 0 0 4.24 4.25" fill="#FFF"/>
            <path d="M138.587 10.017a4.246 4.246 0 0 0 4.24-4.251 4.246 4.246 0 0 0-4.24-4.25 4.246 4.246 0 0 0-4.24 4.25 4.246 4.246 0 0 0 4.24 4.25z" stroke="#414042" stroke-width="1.62" stroke-linecap="round" stroke-linejoin="round"/>
            <path d="m152.017 30.325-6.48-14.35a2.382 2.382 0 0 0-.028-.062c-1.281-2.604-3.15-3.915-5.574-3.885l-2.343-.002h-.028c-2.336.03-4.43 1.554-5.472 3.978l-6.7 14.278a2.063 2.063 0 0 0 .986 2.742 2.054 2.054 0 0 0 2.736-.988l4.618-9.841.004.177-2.147 15.096c-.109.9-.415 1.69 1.825 1.69h.648l-.648 12.43a2.06 2.06 0 0 0 2.056 2.154 2.058 2.058 0 0 0 2.052-1.967l.657-12.616h1.683l.584 12.606a2.058 2.058 0 0 0 2.138 1.976 2.059 2.059 0 0 0 1.97-2.143l-.577-12.44h.768c2.342 0 1.934-.79 1.825-1.69l-2.54-15.312v-.022l4.24 9.891a2.056 2.056 0 0 0 2.721 1.028 2.063 2.063 0 0 0 1.026-2.728" fill="#FB8F23"/>
            <path d="m152.017 30.325-6.48-14.35a2.382 2.382 0 0 0-.028-.062c-1.281-2.604-3.15-3.915-5.574-3.885l-2.343-.002h-.028c-2.336.03-4.43 1.554-5.472 3.978l-6.7 14.278a2.063 2.063 0 0 0 .986 2.742 2.054 2.054 0 0 0 2.736-.988l4.618-9.841.004.177-2.147 15.096c-.109.9-.415 1.69 1.825 1.69h.648l-.648 12.43a2.06 2.06 0 0 0 2.056 2.154 2.058 2.058 0 0 0 2.052-1.967l.657-12.616h1.683l.584 12.606a2.058 2.058 0 0 0 2.138 1.976 2.059 2.059 0 0 0 1.97-2.143l-.577-12.44h.768c2.342 0 1.934-.79 1.825-1.69l-2.54-15.312v-.022l4.24 9.891a2.056 2.056 0 0 0 2.721 1.028 2.063 2.063 0 0 0 1.026-2.728z" stroke="#414042" stroke-width="1.62" stroke-linecap="round" stroke-linejoin="round"/>
        </g>
        <g>
            <path d="M112.842 63.05c-2.483 0-4.497-2.026-4.497-4.525 0-2.5 2.014-4.525 4.497-4.525 2.484 0 4.498 2.026 4.498 4.525 0 2.499-2.014 4.525-4.498 4.525" fill="#FFF"/>
            <path d="M112.842 63.05c-2.483 0-4.497-2.026-4.497-4.525 0-2.5 2.014-4.525 4.497-4.525 2.484 0 4.498 2.026 4.498 4.525 0 2.499-2.014 4.525-4.498 4.525z" stroke="#414042" stroke-width="1.62" stroke-linecap="round" stroke-linejoin="round"/>
            <path d="M122.124 69.53c-.476-2.676-2.851-4.526-5.802-4.526h-.07l-6.451-.03h-.04c-2.99.038-5.3 1.884-5.751 4.61l-2.183 13.913A2.19 2.19 0 0 0 103.645 86a2.186 2.186 0 0 0 2.498-1.823l1.785-11.38.226 9.125c.003.122.015.242.026.362-.007.06-.014.12-.017.183l-.996 21.862a2.316 2.316 0 0 0 2.313 2.424c1.228 0 2.252-.97 2.308-2.212l.804-17.647a5.125 5.125 0 0 0 .827.051c.19-.005.375-.021.558-.045l.725 17.875a2.315 2.315 0 0 0 2.405 2.223 2.316 2.316 0 0 0 2.217-2.41l-.886-21.847a2.325 2.325 0 0 0-.045-.36c.026-.235.043-.472.037-.714l-.233-9.45 2.516 12.894a2.186 2.186 0 0 0 2.563 1.729 2.19 2.19 0 0 0 1.725-2.57l-2.877-14.74z" fill="#FB8F23"/>
            <path d="M122.124 69.53c-.476-2.676-2.851-4.526-5.802-4.526h-.07l-6.451-.03h-.04c-2.99.038-5.3 1.884-5.751 4.61l-2.183 13.913A2.19 2.19 0 0 0 103.645 86a2.186 2.186 0 0 0 2.498-1.823l1.785-11.38.226 9.125c.003.122.015.242.026.362-.007.06-.014.12-.017.183l-.996 21.862a2.316 2.316 0 0 0 2.313 2.424c1.228 0 2.252-.97 2.308-2.212l.804-17.647a5.125 5.125 0 0 0 .827.051c.19-.005.375-.021.558-.045l.725 17.875a2.315 2.315 0 0 0 2.405 2.223 2.316 2.316 0 0 0 2.217-2.41l-.886-21.847a2.325 2.325 0 0 0-.045-.36c.026-.235.043-.472.037-.714l-.233-9.45 2.516 12.894a2.186 2.186 0 0 0 2.563 1.729 2.19 2.19 0 0 0 1.725-2.57l-2.877-14.74z" stroke="#414042" stroke-width="1.62" stroke-linecap="round" stroke-linejoin="round"/>
            <path d="M138.587 63.017a4.246 4.246 0 0 0 4.24-4.251 4.246 4.246 0 0 0-4.24-4.25 4.246 4.246 0 0 0-4.24 4.25 4.246 4.246 0 0 0 4.24 4.25" fill="#FFF"/>
            <path d="M138.587 63.017a4.246 4.246 0 0 0 4.24-4.251 4.246 4.246 0 0 0-4.24-4.25 4.246 4.246 0 0 0-4.24 4.25 4.246 4.246 0 0 0 4.24 4.25z" stroke="#414042" stroke-width="1.62" stroke-linecap="round" stroke-linejoin="round"/>
            <path d="m152.017 83.325-6.48-14.35a2.382 2.382 0 0 0-.028-.062c-1.281-2.604-3.15-3.915-5.574-3.885l-2.343-.002h-.028c-2.336.03-4.43 1.554-5.472 3.978l-6.7 14.278a2.063 2.063 0 0 0 .986 2.742 2.054 2.054 0 0 0 2.736-.988l4.618-9.841.004.177-2.147 15.096c-.109.9-.415 1.69 1.825 1.69h.648l-.648 12.43a2.06 2.06 0 0 0 2.056 2.154 2.058 2.058 0 0 0 2.052-1.967l.657-12.616h1.683l.584 12.606a2.058 2.058 0 0 0 2.138 1.976 2.059 2.059 0 0 0 1.97-2.143l-.577-12.44h.768c2.342 0 1.934-.79 1.825-1.69l-2.54-15.312v-.022l4.24 9.891a2.056 2.056 0 0 0 2.721 1.028 2.063 2.063 0 0 0 1.026-2.728" fill="#FB8F23"/>
            <path d="m152.017 83.325-6.48-14.35a2.382 2.382 0 0 0-.028-.062c-1.281-2.604-3.15-3.915-5.574-3.885l-2.343-.002h-.028c-2.336.03-4.43 1.554-5.472 3.978l-6.7 14.278a2.063 2.063 0 0 0 .986 2.742 2.054 2.054 0 0 0 2.736-.988l4.618-9.841.004.177-2.147 15.096c-.109.9-.415 1.69 1.825 1.69h.648l-.648 12.43a2.06 2.06 0 0 0 2.056 2.154 2.058 2.058 0 0 0 2.052-1.967l.657-12.616h1.683l.584 12.606a2.058 2.058 0 0 0 2.138 1.976 2.059 2.059 0 0 0 1.97-2.143l-.577-12.44h.768c2.342 0 1.934-.79 1.825-1.69l-2.54-15.312v-.022l4.24 9.891a2.056 2.056 0 0 0 2.721 1.028 2.063 2.063 0 0 0 1.026-2.728z" stroke="#414042" stroke-width="1.62" stroke-linecap="round" stroke-linejoin="round"/>
        </g>
        <g>
            <path d="M163.242 10.05c-2.483 0-4.497-2.026-4.497-4.525 0-2.5 2.014-4.525 4.497-4.525 2.484 0 4.498 2.026 4.498 4.525 0 2.499-2.014 4.525-4.498 4.525" fill="#FFF"/>
            <path d="M163.242 10.05c-2.483 0-4.497-2.026-4.497-4.525 0-2.5 2.014-4.525 4.497-4.525 2.484 0 4.498 2.026 4.498 4.525 0 2.499-2.014 4.525-4.498 4.525z" stroke="#414042" stroke-width="1.62" stroke-linecap="round" stroke-linejoin="round"/>
            <path d="M172.524 16.53c-.476-2.676-2.851-4.526-5.802-4.526h-.07l-6.451-.03h-.04c-2.99.038-5.3 1.884-5.751 4.61l-2.183 13.913A2.19 2.19 0 0 0 154.045 33a2.186 2.186 0 0 0 2.498-1.823l1.785-11.38.226 9.125c.003.122.015.242.026.362-.007.06-.014.12-.017.183l-.996 21.862a2.316 2.316 0 0 0 2.313 2.424c1.228 0 2.252-.97 2.308-2.212l.804-17.647a5.125 5.125 0 0 0 .827.051c.19-.005.375-.021.558-.045l.725 17.875a2.315 2.315 0 0 0 2.405 2.223 2.316 2.316 0 0 0 2.217-2.41l-.886-21.847a2.325 2.325 0 0 0-.045-.36c.026-.235.043-.472.037-.714l-.233-9.45 2.516 12.894a2.186 2.186 0 0 0 2.563 1.729 2.19 2.19 0 0 0 1.725-2.57l-2.877-14.74z" fill="#FB8F23"/>
            <path d="M172.524 16.53c-.476-2.676-2.851-4.526-5.802-4.526h-.07l-6.451-.03h-.04c-2.99.038-5.3 1.884-5.751 4.61l-2.183 13.913A2.19 2.19 0 0 0 154.045 33a2.186 2.186 0 0 0 2.498-1.823l1.785-11.38.226 9.125c.003.122.015.242.026.362-.007.06-.014.12-.017.183l-.996 21.862a2.316 2.316 0 0 0 2.313 2.424c1.228 0 2.252-.97 2.308-2.212l.804-17.647a5.125 5.125 0 0 0 .827.051c.19-.005.375-.021.558-.045l.725 17.875a2.315 2.315 0 0 0 2.405 2.223 2.316 2.316 0 0 0 2.217-2.41l-.886-21.847a2.325 2.325 0 0 0-.045-.36c.026-.235.043-.472.037-.714l-.233-9.45 2.516 12.894a2.186 2.186 0 0 0 2.563 1.729 2.19 2.19 0 0 0 1.725-2.57l-2.877-14.74z" stroke="#414042" stroke-width="1.62" stroke-linecap="round" stroke-linejoin="round"/>
            <path d="M188.987 10.017a4.246 4.246 0 0 0 4.24-4.251 4.246 4.246 0 0 0-4.24-4.25 4.246 4.246 0 0 0-4.24 4.25 4.246 4.246 0 0 0 4.24 4.25" fill="#FFF"/>
            <path d="M188.987 10.017a4.246 4.246 0 0 0 4.24-4.251 4.246 4.246 0 0 0-4.24-4.25 4.246 4.246 0 0 0-4.24 4.25 4.246 4.246 0 0 0 4.24 4.25z" stroke="#414042" stroke-width="1.62" stroke-linecap="round" stroke-linejoin="round"/>
            <path d="m202.417 30.325-6.48-14.35a2.382 2.382 0 0 0-.028-.062c-1.281-2.604-3.15-3.915-5.574-3.885l-2.343-.002h-.028c-2.336.03-4.43 1.554-5.472 3.978l-6.7 14.278a2.063 2.063 0 0 0 .986 2.742 2.054 2.054 0 0 0 2.736-.988l4.618-9.841.004.177-2.147 15.096c-.109.9-.415 1.69 1.825 1.69h.648l-.648 12.43a2.06 2.06 0 0 0 2.056 2.154 2.058 2.058 0 0 0 2.052-1.967l.657-12.616h1.683l.584 12.606a2.058 2.058 0 0 0 2.138 1.976 2.059 2.059 0 0 0 1.97-2.143l-.577-12.44h.768c2.342 0 1.934-.79 1.825-1.69l-2.54-15.312v-.022l4.24 9.891a2.056 2.056 0 0 0 2.721 1.028 2.063 2.063 0 0 0 1.026-2.728" fill="#FB8F23"/>
            <path d="m202.417 30.325-6.48-14.35a2.382 2.382 0 0 0-.028-.062c-1.281-2.604-3.15-3.915-5.574-3.885l-2.343-.002h-.028c-2.336.03-4.43 1.554-5.472 3.978l-6.7 14.278a2.063 2.063 0 0 0 .986 2.742 2.054 2.054 0 0 0 2.736-.988l4.618-9.841.004.177-2.147 15.096c-.109.9-.415 1.69 1.825 1.69h.648l-.648 12.43a2.06 2.06 0 0 0 2.056 2.154 2.058 2.058 0 0 0 2.052-1.967l.657-12.616h1.683l.584 12.606a2.058 2.058 0 0 0 2.138 1.976 2.059 2.059 0 0 0 1.97-2.143l-.577-12.44h.768c2.342 0 1.934-.79 1.825-1.69l-2.54-15.312v-.022l4.24 9.891a2.056 2.056 0 0 0 2.721 1.028 2.063 2.063 0 0 0 1.026-2.728z" stroke="#414042" stroke-width="1.62" stroke-linecap="round" stroke-linejoin="round"/>
        </g>
        <g>
            <path d="M163.242 63.05c-2.483 0-4.497-2.026-4.497-4.525 0-2.5 2.014-4.525 4.497-4.525 2.484 0 4.498 2.026 4.498 4.525 0 2.499-2.014 4.525-4.498 4.525" fill="#FFF"/>
            <path d="M163.242 63.05c-2.483 0-4.497-2.026-4.497-4.525 0-2.5 2.014-4.525 4.497-4.525 2.484 0 4.498 2.026 4.498 4.525 0 2.499-2.014 4.525-4.498 4.525z" stroke="#414042" stroke-width="1.62" stroke-linecap="round" stroke-linejoin="round"/>
            <path d="M172.524 69.53c-.476-2.676-2.851-4.526-5.802-4.526h-.07l-6.451-.03h-.04c-2.99.038-5.3 1.884-5.751 4.61l-2.183 13.913A2.19 2.19 0 0 0 154.045 86a2.186 2.186 0 0 0 2.498-1.823l1.785-11.38.226 9.125c.003.122.015.242.026.362-.007.06-.014.12-.017.183l-.996 21.862a2.316 2.316 0 0 0 2.313 2.424c1.228 0 2.252-.97 2.308-2.212l.804-17.647a5.125 5.125 0 0 0 .827.051c.19-.005.375-.021.558-.045l.725 17.875a2.315 2.315 0 0 0 2.405 2.223 2.316 2.316 0 0 0 2.217-2.41l-.886-21.847a2.325 2.325 0 0 0-.045-.36c.026-.235.043-.472.037-.714l-.233-9.45 2.516 12.894a2.186 2.186 0 0 0 2.563 1.729 2.19 2.19 0 0 0 1.725-2.57l-2.877-14.74z" fill="#FB8F23"/>
            <path d="M172.524 69.53c-.476-2.676-2.851-4.526-5.802-4.526h-.07l-6.451-.03h-.04c-2.99.038-5.3 1.884-5.751 4.61l-2.183 13.913A2.19 2.19 0 0 0 154.045 86a2.186 2.186 0 0 0 2.498-1.823l1.785-11.38.226 9.125c.003.122.015.242.026.362-.007.06-.014.12-.017.183l-.996 21.862a2.316 2.316 0 0 0 2.313 2.424c1.228 0 2.252-.97 2.308-2.212l.804-17.647a5.125 5.125 0 0 0 .827.051c.19-.005.375-.021.558-.045l.725 17.875a2.315 2.315 0 0 0 2.405 2.223 2.316 2.316 0 0 0 2.217-2.41l-.886-21.847a2.325 2.325 0 0 0-.045-.36c.026-.235.043-.472.037-.714l-.233-9.45 2.516 12.894a2.186 2.186 0 0 0 2.563 1.729 2.19 2.19 0 0 0 1.725-2.57l-2.877-14.74z" stroke="#414042" stroke-width="1.62" stroke-linecap="round" stroke-linejoin="round"/>
            <path d="M188.987 63.017a4.246 4.246 0 0 0 4.24-4.251 4.246 4.246 0 0 0-4.24-4.25 4.246 4.246 0 0 0-4.24 4.25 4.246 4.246 0 0 0 4.24 4.25" fill="#FFF"/>
            <path d="M188.987 63.017a4.246 4.246 0 0 0 4.24-4.251 4.246 4.246 0 0 0-4.24-4.25 4.246 4.246 0 0 0-4.24 4.25 4.246 4.246 0 0 0 4.24 4.25z" stroke="#414042" stroke-width="1.62" stroke-linecap="round" stroke-linejoin="round"/>
            <path d="m202.417 83.325-6.48-14.35a2.382 2.382 0 0 0-.028-.062c-1.281-2.604-3.15-3.915-5.574-3.885l-2.343-.002h-.028c-2.336.03-4.43 1.554-5.472 3.978l-6.7 14.278a2.063 2.063 0 0 0 .986 2.742 2.054 2.054 0 0 0 2.736-.988l4.618-9.841.004.177-2.147 15.096c-.109.9-.415 1.69 1.825 1.69h.648l-.648 12.43a2.06 2.06 0 0 0 2.056 2.154 2.058 2.058 0 0 0 2.052-1.967l.657-12.616h1.683l.584 12.606a2.058 2.058 0 0 0 2.138 1.976 2.059 2.059 0 0 0 1.97-2.143l-.577-12.44h.768c2.342 0 1.934-.79 1.825-1.69l-2.54-15.312v-.022l4.24 9.891a2.056 2.056 0 0 0 2.721 1.028 2.063 2.063 0 0 0 1.026-2.728" fill="#FB8F23"/>
            <path d="m202.417 83.325-6.48-14.35a2.382 2.382 0 0 0-.028-.062c-1.281-2.604-3.15-3.915-5.574-3.885l-2.343-.002h-.028c-2.336.03-4.43 1.554-5.472 3.978l-6.7 14.278a2.063 2.063 0 0 0 .986 2.742 2.054 2.054 0 0 0 2.736-.988l4.618-9.841.004.177-2.147 15.096c-.109.9-.415 1.69 1.825 1.69h.648l-.648 12.43a2.06 2.06 0 0 0 2.056 2.154 2.058 2.058 0 0 0 2.052-1.967l.657-12.616h1.683l.584 12.606a2.058 2.058 0 0 0 2.138 1.976 2.059 2.059 0 0 0 1.97-2.143l-.577-12.44h.768c2.342 0 1.934-.79 1.825-1.69l-2.54-15.312v-.022l4.24 9.891a2.056 2.056 0 0 0 2.721 1.028 2.063 2.063 0 0 0 1.026-2.728z" stroke="#414042" stroke-width="1.62" stroke-linecap="round" stroke-linejoin="round"/>
        </g>
        <g>
            <path d="M213.642 10.05c-2.483 0-4.497-2.026-4.497-4.525 0-2.5 2.014-4.525 4.497-4.525 2.484 0 4.498 2.026 4.498 4.525 0 2.499-2.014 4.525-4.498 4.525" fill="#FFF"/>
            <path d="M213.642 10.05c-2.483 0-4.497-2.026-4.497-4.525 0-2.5 2.014-4.525 4.497-4.525 2.484 0 4.498 2.026 4.498 4.525 0 2.499-2.014 4.525-4.498 4.525z" stroke="#414042" stroke-width="1.62" stroke-linecap="round" stroke-linejoin="round"/>
            <path d="M222.924 16.53c-.476-2.676-2.851-4.526-5.802-4.526h-.07l-6.451-.03h-.04c-2.99.038-5.3 1.884-5.751 4.61l-2.183 13.913A2.19 2.19 0 0 0 204.445 33a2.186 2.186 0 0 0 2.498-1.823l1.785-11.38.226 9.125c.003.122.015.242.026.362-.007.06-.014.12-.017.183l-.996 21.862a2.316 2.316 0 0 0 2.313 2.424c1.228 0 2.252-.97 2.308-2.212l.804-17.647a5.125 5.125 0 0 0 .827.051c.19-.005.375-.021.558-.045l.725 17.875a2.315 2.315 0 0 0 2.405 2.223 2.316 2.316 0 0 0 2.217-2.41l-.886-21.847a2.325 2.325 0 0 0-.045-.36c.026-.235.043-.472.037-.714l-.233-9.45 2.516 12.894a2.186 2.186 0 0 0 2.563 1.729 2.19 2.19 0 0 0 1.725-2.57l-2.877-14.74z" fill="#FB8F23"/>
            <path d="M222.924 16.53c-.476-2.676-2.851-4.526-5.802-4.526h-.07l-6.451-.03h-.04c-2.99.038-5.3 1.884-5.751 4.61l-2.183 13.913A2.19 2.19 0 0 0 204.445 33a2.186 2.186 0 0 0 2.498-1.823l1.785-11.38.226 9.125c.003.122.015.242.026.362-.007.06-.014.12-.017.183l-.996 21.862a2.316 2.316 0 0 0 2.313 2.424c1.228 0 2.252-.97 2.308-2.212l.804-17.647a5.125 5.125 0 0 0 .827.051c.19-.005.375-.021.558-.045l.725 17.875a2.315 2.315 0 0 0 2.405 2.223 2.316 2.316 0 0 0 2.217-2.41l-.886-21.847a2.325 2.325 0 0 0-.045-.36c.026-.235.043-.472.037-.714l-.233-9.45 2.516 12.894a2.186 2.186 0 0 0 2.563 1.729 2.19 2.19 0 0 0 1.725-2.57l-2.877-14.74z" stroke="#414042" stroke-width="1.62" stroke-linecap="round" stroke-linejoin="round"/>
            <path d="M239.387 10.017a4.246 4.246 0 0 0 4.24-4.251 4.246 4.246 0 0 0-4.24-4.25 4.246 4.246 0 0 0-4.24 4.25 4.246 4.246 0 0 0 4.24 4.25" fill="#FFF"/>
            <path d="M239.387 10.017a4.246 4.246 0 0 0 4.24-4.251 4.246 4.246 0 0 0-4.24-4.25 4.246 4.246 0 0 0-4.24 4.25 4.246 4.246 0 0 0 4.24 4.25z" stroke="#414042" stroke-width="1.62" stroke-linecap="round" stroke-linejoin="round"/>
            <path d="m252.817 30.325-6.48-14.35a2.382 2.382 0 0 0-.028-.062c-1.281-2.604-3.15-3.915-5.574-3.885l-2.343-.002h-.028c-2.336.03-4.43 1.554-5.472 3.978l-6.7 14.278a2.063 2.063 0 0 0 .986 2.742 2.054 2.054 0 0 0 2.736-.988l4.618-9.841.004.177-2.147 15.096c-.109.9-.415 1.69 1.825 1.69h.648l-.648 12.43a2.06 2.06 0 0 0 2.056 2.154 2.058 2.058 0 0 0 2.052-1.967l.657-12.616h1.683l.584 12.606a2.058 2.058 0 0 0 2.138 1.976 2.059 2.059 0 0 0 1.97-2.143l-.577-12.44h.768c2.342 0 1.934-.79 1.825-1.69l-2.54-15.312v-.022l4.24 9.891a2.056 2.056 0 0 0 2.721 1.028 2.063 2.063 0 0 0 1.026-2.728" fill="#FB8F23"/>
            <path d="m252.817 30.325-6.48-14.35a2.382 2.382 0 0 0-.028-.062c-1.281-2.604-3.15-3.915-5.574-3.885l-2.343-.002h-.028c-2.336.03-4.43 1.554-5.472 3.978l-6.7 14.278a2.063 2.063 0 0 0 .986 2.742 2.054 2.054 0 0 0 2.736-.988l4.618-9.841.004.177-2.147 15.096c-.109.9-.415 1.69 1.825 1.69h.648l-.648 12.43a2.06 2.06 0 0 0 2.056 2.154 2.058 2.058 0 0 0 2.052-1.967l.657-12.616h1.683l.584 12.606a2.058 2.058 0 0 0 2.138 1.976 2.059 2.059 0 0 0 1.97-2.143l-.577-12.44h.768c2.342 0 1.934-.79 1.825-1.69l-2.54-15.312v-.022l4.24 9.891a2.056 2.056 0 0 0 2.721 1.028 2.063 2.063 0 0 0 1.026-2.728z" stroke="#414042" stroke-width="1.62" stroke-linecap="round" stroke-linejoin="round"/>
        </g>
        <g>
            <path d="M213.642 63.05c-2.483 0-4.497-2.026-4.497-4.525 0-2.5 2.014-4.525 4.497-4.525 2.484 0 4.498 2.026 4.498 4.525 0 2.499-2.014 4.525-4.498 4.525" fill="#FFF"/>
            <path d="M213.642 63.05c-2.483 0-4.497-2.026-4.497-4.525 0-2.5 2.014-4.525 4.497-4.525 2.484 0 4.498 2.026 4.498 4.525 0 2.499-2.014 4.525-4.498 4.525z" stroke="#414042" stroke-width="1.62" stroke-linecap="round" stroke-linejoin="round"/>
            <path d="M222.924 69.53c-.476-2.676-2.851-4.526-5.802-4.526h-.07l-6.451-.03h-.04c-2.99.038-5.3 1.884-5.751 4.61l-2.183 13.913A2.19 2.19 0 0 0 204.445 86a2.186 2.186 0 0 0 2.498-1.823l1.785-11.38.226 9.125c.003.122.015.242.026.362-.007.06-.014.12-.017.183l-.996 21.862a2.316 2.316 0 0 0 2.313 2.424c1.228 0 2.252-.97 2.308-2.212l.804-17.647a5.125 5.125 0 0 0 .827.051c.19-.005.375-.021.558-.045l.725 17.875a2.315 2.315 0 0 0 2.405 2.223 2.316 2.316 0 0 0 2.217-2.41l-.886-21.847a2.325 2.325 0 0 0-.045-.36c.026-.235.043-.472.037-.714l-.233-9.45 2.516 12.894a2.186 2.186 0 0 0 2.563 1.729 2.19 2.19 0 0 0 1.725-2.57l-2.877-14.74z" fill="#FB8F23"/>
            <path d="M222.924 69.53c-.476-2.676-2.851-4.526-5.802-4.526h-.07l-6.451-.03h-.04c-2.99.038-5.3 1.884-5.751 4.61l-2.183 13.913A2.19 2.19 0 0 0 204.445 86a2.186 2.186 0 0 0 2.498-1.823l1.785-11.38.226 9.125c.003.122.015.242.026.362-.007.06-.014.12-.017.183l-.996 21.862a2.316 2.316 0 0 0 2.313 2.424c1.228 0 2.252-.97 2.308-2.212l.804-17.647a5.125 5.125 0 0 0 .827.051c.19-.005.375-.021.558-.045l.725 17.875a2.315 2.315 0 0 0 2.405 2.223 2.316 2.316 0 0 0 2.217-2.41l-.886-21.847a2.325 2.325 0 0 0-.045-.36c.026-.235.043-.472.037-.714l-.233-9.45 2.516 12.894a2.186 2.186 0 0 0 2.563 1.729 2.19 2.19 0 0 0 1.725-2.57l-2.877-14.74z" stroke="#414042" stroke-width="1.62" stroke-linecap="round" stroke-linejoin="round"/>
            <path d="M239.387 63.017a4.246 4.246 0 0 0 4.24-4.251 4.246 4.246 0 0 0-4.24-4.25 4.246 4.246 0 0 0-4.24 4.25 4.246 4.246 0 0 0 4.24 4.25" fill="#FFF"/>
            <path d="M239.387 63.017a4.246 4.246 0 0 0 4.24-4.251 4.246 4.246 0 0 0-4.24-4.25 4.246 4.246 0 0 0-4.24 4.25 4.246 4.246 0 0 0 4.24 4.25z" stroke="#414042" stroke-width="1.62" stroke-linecap="round" stroke-linejoin="round"/>
            <path d="m252.817 83.325-6.48-14.35a2.382 2.382 0 0 0-.028-.062c-1.281-2.604-3.15-3.915-5.574-3.885l-2.343-.002h-.028c-2.336.03-4.43 1.554-5.472 3.978l-6.7 14.278a2.063 2.063 0 0 0 .986 2.742 2.054 2.054 0 0 0 2.736-.988l4.618-9.841.004.177-2.147 15.096c-.109.9-.415 1.69 1.825 1.69h.648l-.648 12.43a2.06 2.06 0 0 0 2.056 2.154 2.058 2.058 0 0 0 2.052-1.967l.657-12.616h1.683l.584 12.606a2.058 2.058 0 0 0 2.138 1.976 2.059 2.059 0 0 0 1.97-2.143l-.577-12.44h.768c2.342 0 1.934-.79 1.825-1.69l-2.54-15.312v-.022l4.24 9.891a2.056 2.056 0 0 0 2.721 1.028 2.063 2.063 0 0 0 1.026-2.728" fill="#FB8F23"/>
            <path d="m252.817 83.325-6.48-14.35a2.382 2.382 0 0 0-.028-.062c-1.281-2.604-3.15-3.915-5.574-3.885l-2.343-.002h-.028c-2.336.03-4.43 1.554-5.472 3.978l-6.7 14.278a2.063 2.063 0 0 0 .986 2.742 2.054 2.054 0 0 0 2.736-.988l4.618-9.841.004.177-2.147 15.096c-.109.9-.415 1.69 1.825 1.69h.648l-.648 12.43a2.06 2.06 0 0 0 2.056 2.154 2.058 2.058 0 0 0 2.052-1.967l.657-12.616h1.683l.584 12.606a2.058 2.058 0 0 0 2.138 1.976 2.059 2.059 0 0 0 1.97-2.143l-.577-12.44h.768c2.342 0 1.934-.79 1.825-1.69l-2.54-15.312v-.022l4.24 9.891a2.056 2.056 0 0 0 2.721 1.028 2.063 2.063 0 0 0 1.026-2.728z" stroke="#414042" stroke-width="1.62" stroke-linecap="round" stroke-linejoin="round"/>
        </g>
    </g>
</svg>
