<svg width="94" height="120" xmlns="http://www.w3.org/2000/svg" xmlns:xlink="http://www.w3.org/1999/xlink">
    <defs>
        <path id="b" d="M0 0h94v120H0z"/>
        <path id="d" d="M0 120h94V0H0z"/>
        <filter id="a">
            <feColorMatrix in="SourceGraphic" values="0 0 0 0 0.121569 0 0 0 0 0.180392 0 0 0 0 0.231373 0 0 0 1.000000 0"/>
        </filter>
    </defs>
    <g transform="translate(-1445 -1070)" filter="url(#a)" fill="none" fill-rule="evenodd" opacity=".1">
        <g transform="translate(1445 1070)">
            <mask id="c" fill="#fff">
                <use xlink:href="#b"/>
            </mask>
            <path d="M9.563 3.891c-3.1 0-5.621 2.49-5.621 5.549v101.12c0 3.06 2.522 5.549 5.621 5.549h74.874c3.1 0 5.62-2.49 5.62-5.549V9.44c0-3.06-2.52-5.549-5.62-5.549H9.563zm74.874 116.11H9.563C4.29 120 0 115.765 0 110.56V9.44C0 4.235 4.29 0 9.563 0h74.874C89.71 0 94 4.235 94 9.44v101.12c0 5.206-4.29 9.44-9.563 9.44z" fill="#232426" mask="url(#c)"/>
            <mask id="e" fill="#fff">
                <use xlink:href="#d"/>
            </mask>
            <path d="M16.784 11.986h60.432V4.014H16.784v7.972zM79.181 16H14.819c-1.084 0-1.964-.898-1.964-2.007V2.007c0-1.109.88-2.007 1.964-2.007h64.362c1.085 0 1.964.898 1.964 2.007v11.986c0 1.109-.88 2.007-1.964 2.007zM23.973 48c-.517 0-1.034-.19-1.43-.567l-5.08-4.864a1.877 1.877 0 0 1 0-2.737 2.084 2.084 0 0 1 2.859 0l3.65 3.496 8.732-8.361a2.084 2.084 0 0 1 2.858 0c.79.756.79 1.981 0 2.737l-10.16 9.73a2.062 2.062 0 0 1-1.43.566M23.973 72c-.535 0-1.05-.204-1.43-.567l-5.08-4.865a1.877 1.877 0 0 1 0-2.736 2.085 2.085 0 0 1 2.859 0l3.65 3.496 8.732-8.361a2.085 2.085 0 0 1 2.858 0c.79.756.79 1.98 0 2.736l-10.16 9.73a2.067 2.067 0 0 1-1.43.567M23.973 96.8c-.517 0-1.034-.19-1.43-.567l-5.08-4.865a1.877 1.877 0 0 1 0-2.736 2.085 2.085 0 0 1 2.859 0l3.65 3.496 8.732-8.361a2.084 2.084 0 0 1 2.858 0c.79.756.79 1.981 0 2.737l-10.16 9.73a2.062 2.062 0 0 1-1.43.566M74.353 48H46.16c-1.089 0-1.972-.895-1.972-2s.883-2 1.972-2h28.193c1.088 0 1.972.895 1.972 2s-.884 2-1.972 2M74.353 72H46.16c-1.089 0-1.972-.895-1.972-2s.883-2 1.972-2h28.193c1.088 0 1.972.895 1.972 2s-.884 2-1.972 2M74.353 96.8H46.16c-1.089 0-1.972-.895-1.972-2s.883-2 1.972-2h28.193c1.088 0 1.972.895 1.972 2s-.884 2-1.972 2" fill="#232426" mask="url(#e)"/>
        </g>
    </g>
</svg>
