<svg width="199" height="117" xmlns="http://www.w3.org/2000/svg" xmlns:xlink="http://www.w3.org/1999/xlink">
    <defs>
        <filter id="a">
            <feColorMatrix in="SourceGraphic" values="0 0 0 0 0.121569 0 0 0 0 0.180392 0 0 0 0 0.231373 0 0 0 0.100000 0"/>
        </filter>
        <path id="b" d="M0 0h199v117H0z"/>
    </defs>
    <g transform="translate(-959 -2206)" filter="url(#a)" fill="none" fill-rule="evenodd">
        <path d="M1039.18 2315.753c.703 1.603 2.89 1.483 4.388 1.483h32.517c1.468 0 3.68.11 4.38-1.483h-41.285zm42.647 0c-.82 2.706-3.389 2.769-5.759 2.769h-32.449c-2.402 0-4.988-.082-5.802-2.769h-74.865c-1.513 0-1.75.26-1.551 1.85.086.69.454 1.276 1.826 1.818 2.953 1.167 7.094 1.196 10.266 1.196h170.016c3.171 0 7.313-.029 10.265-1.196 1.437-.568 1.773-1.184 1.837-1.916.137-1.573-.053-1.752-1.561-1.752h-72.223zM978.27 2233.82c0 1.409-2.137 1.409-2.137 0v-22.224c0-2.948 2.402-5.356 5.343-5.356h152.509c2.94 0 5.343 2.408 5.343 5.356v22.37c0 1.408-2.137 1.408-2.137 0v-22.37a3.222 3.222 0 0 0-3.206-3.213H981.476a3.222 3.222 0 0 0-3.206 3.213v22.224zm152.47 70.296c.397-.398 1.002.208.604.606l-3.742 3.752c-.397.398-1.002-.208-.604-.606l3.742-3.752zm.131-4.998c.398-.398 1.002.208.605.606l-8.634 8.655c-.398.399-1.002-.207-.605-.606l8.634-8.655zm-167.92 14.493h13.182v-24.807c0-1.41 2.137-1.41 2.137 0v24.807h158.92v-25.743c0-1.41 2.138-1.41 2.138 0v25.743h14.722c2.88 0 3.736 1.086 3.71 3.905-.014 1.535-.396 2.785-3.21 3.897-3.259 1.289-7.55 1.347-11.041 1.347H973.493c-3.49 0-7.783-.058-11.042-1.347-2.715-1.073-3.166-2.275-3.207-3.738-.08-2.881.755-4.064 3.708-4.064z" fill="#FEFEFE"/>
        <g transform="translate(959 2206)">
            <mask id="c" fill="#fff">
                <use xlink:href="#b"/>
            </mask>
            <path d="M22.476 2.143h152.509c1.9 0 3.445 1.549 3.445 3.453v22.37c0 .563.417.816.83.816.412 0 .829-.253.829-.817V5.596c0-2.82-2.29-5.116-5.104-5.116H22.476c-2.814 0-5.104 2.295-5.104 5.116V27.82c0 .564.417.817.83.817.412 0 .829-.253.829-.817V5.596a3.454 3.454 0 0 1 3.445-3.453zM179.26 29.262c-.65 0-1.308-.446-1.308-1.297V5.596c0-1.64-1.33-2.973-2.966-2.973H22.476a2.974 2.974 0 0 0-2.966 2.973V27.82c0 .851-.658 1.297-1.309 1.297-.65 0-1.308-.446-1.308-1.297V5.596C16.893 2.511 19.398 0 22.476 0h152.509c3.078 0 5.583 2.51 5.583 5.596v22.37c0 .85-.658 1.296-1.309 1.296zm-7.218 64.026-8.634 8.655c-.12.12-.028.231.004.263.031.03.142.123.261.004l8.634-8.655c.12-.12.028-.231-.004-.263-.03-.031-.142-.124-.261-.004zm-8.489 9.46a.689.689 0 0 1-.48-.203c-.228-.23-.308-.637-.004-.941l8.634-8.655c.304-.305.71-.225.939.004.229.229.308.637.004.941l-8.634 8.655a.64.64 0 0 1-.459.2zm8.481-4.522c-.043 0-.084.02-.124.06l-3.742 3.751c-.12.12-.027.231.004.263.031.031.142.124.262.004l3.742-3.751c.052-.053.07-.107.054-.165a.234.234 0 0 0-.156-.156.156.156 0 0 0-.04-.006zm-3.72 4.617a.689.689 0 0 1-.48-.204c-.23-.229-.308-.637-.005-.941l3.743-3.751a.637.637 0 0 1 .626-.18.712.712 0 0 1 .495.497.64.64 0 0 1-.178.628l-3.743 3.751a.64.64 0 0 1-.458.2zm-87.723 7.15c.732 1.019 2.355 1.011 3.684 1.004h33.078c1.265.005 2.956.013 3.7-1.004H80.59zm3.366 1.485c-1.476 0-3.323-.096-3.995-1.628l-.148-.337h42.018l-.148.337c-.72 1.642-2.807 1.633-4.333 1.627H84.277l-.32.001zm-80.004-1.485c-.734 0-1.08.067-1.23.239-.159.18-.182.556-.084 1.341.076.608.39 1.116 1.677 1.625 2.984 1.18 7.313 1.18 10.178 1.18h170.016c2.864 0 7.194 0 10.177-1.18 1.326-.524 1.628-1.044 1.687-1.714.057-.66.06-1.105-.104-1.284-.158-.173-.566-.207-1.22-.207h-72.048c-.946 2.769-3.706 2.769-5.933 2.769H84.62c-2.127 0-5.024 0-5.976-2.769H3.952zm180.557 4.864H14.493c-2.901 0-7.285 0-10.353-1.212-1.29-.51-1.862-1.093-1.977-2.012-.103-.828-.104-1.374.2-1.719.295-.335.806-.4 1.589-.4h75.042l.052.17c.728 2.402 2.955 2.598 5.573 2.598h32.45c2.686 0 4.8-.191 5.53-2.599l.05-.17h72.4c.824 0 1.293.056 1.573.363.287.313.302.801.228 1.65-.086.98-.662 1.594-1.988 2.119-3.068 1.212-7.452 1.212-10.353 1.212zM3.952 107.851c-1.345 0-2.215.25-2.737.789-.548.565-.774 1.499-.731 3.029.034 1.233.294 2.43 3.055 3.521 3.105 1.227 7.114 1.33 10.954 1.33h170.016c3.84 0 7.849-.103 10.954-1.33 2.806-1.11 3.045-2.321 3.058-3.676.013-1.465-.22-2.359-.753-2.898-.516-.522-1.38-.765-2.718-.765h-14.961V81.868c0-.564-.417-.817-.83-.817-.412 0-.829.253-.829.817v25.983H19.03V82.804c0-.564-.416-.817-.829-.817-.412 0-.829.253-.829.817v25.047H3.952zM184.509 117H14.493c-3.886 0-7.947-.105-11.13-1.363-2.735-1.081-3.312-2.315-3.358-3.955-.046-1.67.221-2.711.867-3.377.618-.637 1.597-.934 3.08-.934h12.941V82.804c0-.851.658-1.297 1.308-1.297s1.309.446 1.309 1.297v24.567H177.95V81.868c0-.851.659-1.297 1.308-1.297.65 0 1.309.446 1.309 1.297v25.503h14.482c1.475 0 2.447.288 3.058.907.631.638.906 1.637.892 3.24-.017 1.774-.572 3.016-3.362 4.119-3.182 1.258-7.243 1.363-11.13 1.363z" fill="#FEFEFE" mask="url(#c)"/>
        </g>
        <path d="m1042.03 2237.855 3.746-3.76-2.105-2.012a15.37 15.37 0 0 0-1.64 5.772zm20.67-10.369 2.251-2.176a15.199 15.199 0 0 0-6.23-1.808l3.978 3.984zm-12.707-2.02 2.158 2.18 4.137-4.129a15.132 15.132 0 0 0-6.295 1.949zm-7.956 26.527v6.737l3.363-3.356-3.363-3.38zm26.952-18.31 4.196 4.204a14.785 14.785 0 0 0-1.99-6.453l-2.206 2.25zm-22.528 22.827-3.396 3.44h6.836l-3.44-3.44zm-1.014-11.647-3.418-3.433v6.861l3.418-3.428zm11.56 11.434-3.635 3.66h7.279l-3.644-3.66zm14.331 3.674-3.757-3.775c-1.22 1.22-2.51 2.513-3.77 3.775h7.527zm1.82-19.896-4.227 4.263 4.227 4.252v-8.515zm-6.787-14.113-2.608 2.58 4.217 4.234 2.615-2.639-4.224-4.175zm-17.646.3c-1.738 1.236-3.244 2.753-4.324 4.562l2.244 2.344 4.485-4.494-2.405-2.412zm20.007 28.82 4.407 4.426v-8.964l-4.407 4.539zm-12.696.196-4.255-4.26-4.48 4.484 4.246 4.262 4.489-4.486zm10.513-.112-4.2-4.228-4.364 4.345 4.228 4.243 4.336-4.36zm-20.019-9.398-4.398 4.408 4.271 4.29 4.393-4.412-4.266-4.286zm10.638-.122-4.411 4.4 4.238 4.255 4.395-4.418-4.222-4.237zm10.647-.195-4.395 4.41 4.123 4.141 4.398-4.413-4.126-4.138zm-15.861-5.041-4.414 4.399 4.236 4.25 4.394-4.417-4.216-4.232zm14.827 4.026-4.182-4.194-4.4 4.345 4.21 4.227 4.372-4.378zm-20.04-9.334-4.448 4.498 4.195 4.21 4.439-4.509-4.186-4.2zm14.755 4.165-4.172-4.224-4.324 4.346 4.186 4.202 4.31-4.324zm2.018-.104 4.216 4.232 4.425-4.329-4.253-4.281-4.388 4.378zm-11.353-9.42-4.398 4.403 4.126 4.143 4.398-4.405-4.126-4.14zm10.346 8.458 4.32-4.433-4.117-4.146-4.372 4.387 4.17 4.192zm-4.85-13.863-4.483 4.358 4.141 4.17 4.477-4.376-4.136-4.152zm-15.424 37.933c.764 6.713 7.237 13.774 16.269 13.248 9.04-.525 14.09-8.1 14.447-13.248h-30.716zm-2.435-12.796c0-3.362-.005-6.724 0-10.087.015-8.898 5.958-16.19 14.677-17.825 4.007-.752 7.87-.165 11.485 1.863 6.342 3.557 9.413 9.039 9.478 16.245.06 6.646.026 13.294.01 19.942-.022 8.79-6.267 16.285-14.839 17.84-9.36 1.699-18.673-4.69-20.45-14.07-.232-1.227-.328-2.494-.345-3.745-.047-3.387-.016-6.775-.016-10.163z" fill="#FEFEFE"/>
        <path d="m1059.357 2223.8 3.345 3.35 1.844-1.782a15.003 15.003 0 0 0-5.189-1.568zm3.34 4.022-4.597-4.602.637.043c2.214.15 4.343.767 6.328 1.835l.29.156-2.659 2.568zm-12.312-2.301 1.767 1.786 3.486-3.48a14.985 14.985 0 0 0-5.253 1.694zm1.765 2.465-2.547-2.573.27-.156a15.463 15.463 0 0 1 6.395-1.979l.653-.054-4.771 4.762zm11.952.557 3.877 3.893 2.276-2.297-3.884-3.84-2.269 2.244zm3.878 4.573-4.557-4.576 2.948-2.915 4.563 4.51-2.954 2.981zm-14.465-4.417 3.803 3.83 4.133-4.041-3.797-3.813-4.14 4.024zm3.798 4.506-4.48-4.512 4.826-4.692 4.474 4.491-4.82 4.713zm-12.611-2.414 1.947 2.034 4.143-4.151-2.093-2.098c-1.685 1.227-3.029 2.643-3.997 4.215zm1.94 2.72-2.54-2.653.094-.158c1.04-1.742 2.517-3.301 4.39-4.634l.165-.117 2.718 2.725-4.828 4.837zm-2.902-1.031a15.058 15.058 0 0 0-1.4 4.724l3.093-3.106-1.693-1.618zm-2.004 6.01.056-.656a15.607 15.607 0 0 1 1.666-5.861l.147-.285 2.514 2.402-4.383 4.4zm27.59-4.808 3.56 3.565a14.522 14.522 0 0 0-1.742-5.418l-1.818 1.853zm4.143 4.828-4.817-4.825 2.592-2.643.158.271a15.024 15.024 0 0 1 2.022 6.557l.045.64zm-14.793-4.5 3.83 3.85 3.985-4.09-3.781-3.808-4.034 4.047zm3.833 4.533-4.51-4.534 4.712-4.727 4.452 4.485-4.654 4.776zm-14.407-4.397 3.788 3.803 4.058-4.065-3.787-3.801-4.06 4.063zm3.787 4.482-4.464-4.482 4.736-4.742 4.465 4.48-4.737 4.744zm11.964.535 3.88 3.894 4.081-3.993-3.913-3.94-4.048 4.04zm3.875 4.57-4.553-4.57 4.728-4.718 4.592 4.624-4.767 4.663zm-14.39-4.344 3.848 3.863 3.972-3.986-3.834-3.883-3.985 4.006zm3.848 4.542-4.524-4.542 4.663-4.687 4.509 4.566-4.648 4.663zm-14.556-4.332 3.857 3.87 4.102-4.167-3.847-3.86-4.112 4.157zm3.859 4.551-4.534-4.55 4.786-4.838 4.523 4.538-4.775 4.85zm-4.22-2.14v5.702l2.84-2.849-2.84-2.852zm-.48 6.86v-8.02l3.997 4.014-3.996 4.007zm16.75-4.281 3.87 3.885 4.034-4.038-3.845-3.856-4.06 4.009zm3.87 4.564-4.55-4.567 4.742-4.682 4.52 4.532-4.712 4.717zm6.86-4.815 3.65 3.67v-7.35l-3.65 3.68zm4.129 4.833-4.804-4.833 4.804-4.845v9.678zm-25.519-4.361 3.897 3.91 4.056-4.078-3.88-3.893-4.073 4.06zm3.897 4.589-4.575-4.59 4.753-4.738 4.554 4.571-4.732 4.757zm11.982.462 3.786 3.801 4.059-4.073-3.788-3.798-4.057 4.07zm3.785 4.48-4.462-4.48 4.734-4.75 4.465 4.478-4.737 4.753zm-14.447-4.295 3.899 3.915 4.057-4.078-3.885-3.898-4.071 4.06zm3.899 4.594-4.577-4.595 4.75-4.738 4.56 4.576-4.733 4.757zm-14.525-4.464 3.933 3.95 4.055-4.072-3.928-3.946-4.06 4.068zm3.933 4.63-4.61-4.63 4.737-4.748 4.604 4.626-4.73 4.752zm-4.127-2.232v5.579l2.786-2.78-2.786-2.8zm-.479 6.734v-7.895l3.942 3.962-3.942 3.933zm16.527-4.024 3.889 3.902 3.998-4.02-3.862-3.889-4.025 4.007zm3.889 4.582-4.568-4.584 4.706-4.683 4.536 4.567-4.674 4.7zm6.855-4.785 3.832 3.847v-7.793l-3.832 3.946zm4.31 5.007-4.982-5.003 4.983-5.132v10.135zm-25.738-4.586 3.908 3.923 4.149-4.147-3.916-3.92-4.14 4.144zm3.907 4.602-4.584-4.602 4.818-4.823 4.594 4.6-4.828 4.825zm-7.908-.395h5.683l-2.86-2.86-2.823 2.86zm6.842.48h-7.99l3.969-4.02 4.02 4.02zm3.467-.471h6.126l-3.066-3.08-3.06 3.08zm7.28.48h-8.432l4.211-4.241 4.221 4.24zm3.16-.467h6.373l-3.18-3.195-3.192 3.195zm7.528.48h-8.684l4.349-4.354 4.335 4.354zm-29.412 2.3c.446 3.277 2.23 6.515 4.922 8.92a15.169 15.169 0 0 0 11.062 3.849c5.078-.295 8.414-2.782 10.319-4.816 2.184-2.333 3.622-5.286 3.882-7.953h-30.185zm15.073 13.275a15.628 15.628 0 0 1-10.47-3.997c-2.852-2.548-4.716-6.007-5.112-9.491l-.03-.267h31.241l-.018.256c-.197 2.84-1.704 6.02-4.032 8.505-1.964 2.098-5.404 4.663-10.64 4.967-.314.018-.627.027-.939.027zm.196-54.297a17.62 17.62 0 0 0-3.254.31c-4.214.79-7.831 2.901-10.462 6.105-2.622 3.195-4.012 7.166-4.019 11.485-.004 2.309-.003 4.656-.002 6.927l.001 3.159c0 .961-.002 1.923-.005 2.884-.006 2.385-.012 4.852.021 7.276.019 1.377.13 2.588.342 3.703.847 4.471 3.433 8.39 7.28 11.036 2.98 2.049 6.4 3.116 9.866 3.116 1.008 0 2.02-.09 3.026-.273 8.463-1.535 14.62-8.94 14.641-17.605l.009-3.203c.016-5.486.032-11.158-.018-16.736-.032-3.572-.824-6.725-2.353-9.373-1.552-2.686-3.908-4.929-7.003-6.665-2.546-1.428-5.25-2.146-8.07-2.146zm-.233 56.481c-3.562 0-7.075-1.096-10.135-3.2-3.953-2.718-6.61-6.746-7.481-11.343-.216-1.142-.33-2.38-.35-3.786-.033-2.428-.027-4.896-.02-7.283.002-.96.004-1.922.004-2.883v-3.159c-.002-2.27-.003-4.619.001-6.928.007-4.43 1.435-8.507 4.129-11.789 2.702-3.292 6.417-5.46 10.743-6.272 4.116-.773 8.034-.137 11.646 1.89 3.17 1.778 5.588 4.08 7.183 6.843 1.572 2.72 2.385 5.953 2.418 9.608.05 5.581.033 11.255.018 16.742l-.009 3.203c-.021 8.898-6.345 16.5-15.035 18.077-1.035.187-2.076.28-3.112.28z" fill="#FEFEFE"/>
        <path d="M1058.729 2286.85v.823c0 4.26.009 8.52-.015 12.78-.002.377-.107.893-.36 1.09-.284.22-.867.31-1.18.162-.299-.143-.582-.661-.59-1.021-.053-2.283-.028-4.568-.028-6.852v-6.937c-1.762-.294-3.468-.481-5.126-.872-4.957-1.17-9.194-3.637-12.663-7.387-.292-.315-.565-.868-.5-1.252.16-.942 1.23-1.125 1.934-.371a24.08 24.08 0 0 0 5.36 4.322c9.456 5.591 21.794 3.853 29.337-4.143.088-.093.173-.189.262-.281.605-.63 1.127-.703 1.664-.231.532.466.508 1.09-.087 1.746a24.67 24.67 0 0 1-5.351 4.46c-3.592 2.212-7.487 3.492-11.695 3.801-.23.017-.458.045-.686.075-.073.01-.143.044-.276.087" fill="#FEFEFE"/>
        <path d="M1039.22 2276.785a.777.777 0 0 0-.225.033c-.265.08-.44.295-.492.606-.05.29.188.776.44 1.05 3.42 3.698 7.64 6.16 12.542 7.315 1.123.265 2.253.433 3.449.611.541.081 1.101.165 1.661.258l.2.033v7.141c0 .565 0 1.129-.002 1.693-.005 1.69-.01 3.437.03 5.153.006.28.248.712.454.81.224.106.71.036.93-.135.148-.114.265-.51.267-.9.02-3.363.018-6.782.016-10.088V2286.674l.166-.053.113-.04a.955.955 0 0 1 .204-.057c.207-.027.452-.058.7-.076 4.123-.303 8.022-1.57 11.588-3.767a24.537 24.537 0 0 0 5.299-4.416c.279-.308.418-.607.404-.865-.012-.195-.111-.377-.297-.54-.508-.445-.9-.235-1.334.217-.049.05-.097.103-.144.154l-.117.126c-4.626 4.904-11.04 7.478-17.504 7.479a23.794 23.794 0 0 1-12.129-3.294 24.458 24.458 0 0 1-5.412-4.365c-.236-.253-.53-.392-.807-.392m18.344 25.232c-.183 0-.356-.03-.492-.096-.405-.192-.718-.81-.728-1.232-.04-1.722-.035-3.472-.03-5.165l.003-1.692v-6.734c-.49-.08-.979-.152-1.454-.223-1.206-.18-2.345-.35-3.488-.619-4.996-1.178-9.297-3.687-12.784-7.457-.339-.366-.64-.984-.56-1.455.083-.494.384-.853.826-.986.51-.154 1.092.034 1.52.49a23.977 23.977 0 0 0 5.306 4.28c9.363 5.537 21.577 3.812 29.041-4.1l.113-.122.15-.162c.69-.718 1.361-.8 1.995-.245.282.248.441.55.46.874.022.395-.155.804-.528 1.215a25.016 25.016 0 0 1-5.403 4.502c-3.632 2.237-7.603 3.528-11.803 3.837-.235.017-.472.047-.672.073a.401.401 0 0 0-.068.02v.653l.001 2.692c.002 3.307.003 6.726-.016 10.09-.002.429-.122 1.02-.453 1.278-.234.182-.601.284-.936.284" fill="#FEFEFE"/>
    </g>
</svg>
