<svg width="92" height="63" xmlns="http://www.w3.org/2000/svg" xmlns:xlink="http://www.w3.org/1999/xlink">
    <defs>
        <path id="a" d="M0 0h51.2v23.127H0z"/>
    </defs>
    <g fill="none" fill-rule="evenodd" opacity=".1">
        <g transform="translate(40.8 39.873)">
            <mask id="b" fill="#fff">
                <use xlink:href="#a"/>
            </mask>
            <path d="M50.22 23.127H.98a.99.99 0 0 1-.724-.313.945.945 0 0 1-.25-.734L1.308 8.354c.212-2.223 1.755-4.09 3.931-4.759L16.81.045a.983.983 0 0 1 1.227.627.954.954 0 0 1-.641 1.2L5.826 5.424C4.405 5.86 3.397 7.08 3.26 8.53l-1.206 12.68h47.094L47.94 8.53c-.138-1.451-1.146-2.671-2.567-3.107L33.805 1.872a.954.954 0 0 1-.641-1.2.983.983 0 0 1 1.227-.628L45.96 3.595c2.176.669 3.72 2.536 3.93 4.759l1.306 13.726a.946.946 0 0 1-.251.734.989.989 0 0 1-.724.313" fill="#232426" mask="url(#b)"/>
        </g>
        <path d="M66.4 46.253c-.174 0-.349-.041-.504-.124l-8.608-4.587c-.472-.252-.629-.801-.35-1.228.278-.426.887-.568 1.359-.316l8.103 4.318 8.103-4.318c.472-.252 1.08-.11 1.36.316.278.427.12.976-.351 1.228l-8.608 4.587c-.155.083-.33.124-.504.124" fill="#232426"/>
        <path d="M66 17.92c-5.048 0-8.854 3.804-8.854 8.847 0 5.371 4.085 11.932 8.854 11.932 4.769 0 8.854-6.56 8.854-11.932 0-5.043-3.806-8.846-8.854-8.846m0 22.75c-5.983 0-10.8-7.607-10.8-13.904 0-6.167 4.643-10.818 10.8-10.818 6.157 0 10.8 4.65 10.8 10.818 0 6.297-4.818 13.904-10.8 13.904M68.752 50.24h-3.104c-.405 0-.768-.23-.916-.58l-2.263-5.347c-.2-.47.05-1.001.555-1.186.506-.185 1.078.046 1.277.516l2.018 4.768h1.762l2.018-4.768c.2-.47.77-.7 1.277-.516.506.185.754.716.555 1.186l-2.263 5.347c-.148.35-.511.58-.916.58" fill="#232426"/>
        <path d="M71.014 63a.989.989 0 0 1-.968-.826l-2.122-12.331h-1.448l-2.122 12.33a.987.987 0 0 1-1.139.812.996.996 0 0 1-.8-1.154l2.263-13.157a.988.988 0 0 1 .97-.826h3.104c.478 0 .888.349.97.826l2.263 13.157a.996.996 0 0 1-.97 1.169M51.21 63a.715.715 0 0 1-.085-.005c-.444-.053-.767-.508-.72-1.016l.78-8.518c.047-.507.443-.877.89-.823.445.053.767.508.72 1.016l-.78 8.518c-.044.475-.395.828-.805.828M81.59 63c-.41 0-.76-.353-.804-.828l-.782-8.518c-.046-.508.276-.963.721-1.016.445-.054.843.316.89.824l.78 8.517c.047.508-.276.963-.72 1.016a.717.717 0 0 1-.085.005M3.975 1.913c-1.121 0-2.034.9-2.034 2.006v23.053c0 1.105.913 2.005 2.034 2.005h29.356c.257 0 .504.1.686.28l6.857 6.76c.517.51 1.113.322 1.284.252.17-.07.727-.353.727-1.073v-5.262c0-.529.435-.957.97-.957h3.37c1.121 0 2.034-.9 2.034-2.005V3.919c0-1.106-.913-2.006-2.034-2.006H3.975zm37.712 36.365a3.098 3.098 0 0 1-2.185-.908l-6.573-6.48H3.975C1.783 30.89 0 29.133 0 26.973V3.919C0 1.758 1.783 0 3.975 0h43.25C49.417 0 51.2 1.758 51.2 3.919v23.053c0 2.16-1.783 3.919-3.975 3.919h-2.399v4.305c0 1.267-.738 2.356-1.925 2.84a3.205 3.205 0 0 1-1.214.242z" fill="#232426"/>
        <path d="M15.6 13.875a1.68 1.68 0 0 0-1.68 1.676 1.68 1.68 0 0 0 1.68 1.675 1.68 1.68 0 0 0 1.68-1.675 1.68 1.68 0 0 0-1.68-1.676m0 5.264c-1.985 0-3.6-1.61-3.6-3.588a3.598 3.598 0 0 1 3.6-3.589c1.985 0 3.6 1.61 3.6 3.589a3.598 3.598 0 0 1-3.6 3.588M26 13.875a1.68 1.68 0 0 0-1.68 1.676A1.68 1.68 0 0 0 26 17.226a1.68 1.68 0 0 0 1.68-1.675A1.68 1.68 0 0 0 26 13.875m0 5.264c-1.985 0-3.6-1.61-3.6-3.588a3.598 3.598 0 0 1 3.6-3.589c1.985 0 3.6 1.61 3.6 3.589a3.598 3.598 0 0 1-3.6 3.588M35.6 13.875a1.68 1.68 0 0 0-1.68 1.676 1.68 1.68 0 0 0 1.68 1.675 1.68 1.68 0 0 0 1.68-1.675 1.68 1.68 0 0 0-1.68-1.676m0 5.264c-1.985 0-3.6-1.61-3.6-3.588a3.598 3.598 0 0 1 3.6-3.589c1.985 0 3.6 1.61 3.6 3.589a3.598 3.598 0 0 1-3.6 3.588" fill="#232426"/>
    </g>
</svg>
