<svg width="68" height="103" xmlns="http://www.w3.org/2000/svg" xmlns:xlink="http://www.w3.org/1999/xlink">
    <defs>
        <path id="a" d="M0 0h6v4H0z"/>
    </defs>
    <g fill="none" fill-rule="evenodd">
        <path d="M4.831 42.016C5.08 38.069 8.201 35 11.97 35H28.739c3.709 0 6.802 2.975 7.126 6.852l1.122 48.684c.108 2.643-.459 4.326-1.245 5.631-1.838 3.052-5.25 4.833-8.84 4.833H14.603C8.83 101 4.064 96.431 4.001 90.716L4 90.536l.831-48.52z" fill="#2CACE5"/>
        <path d="m6.582 41.94-.838 48.707.002.155c.058 5.226 4.459 9.478 9.811 9.478h12.395c3.38 0 6.506-1.7 8.159-4.434.871-1.442 1.22-3.039 1.132-5.179l-1.131-48.906c-.289-3.422-3.002-6.04-6.309-6.04h-16.9c-3.32 0-6.093 2.73-6.321 6.219M27.952 102H15.557C9.254 102 4.07 96.985 4.002 90.822L4 90.632l.838-48.741c0-.013 0-.026.002-.039C5.117 37.45 8.658 34 12.902 34h16.901c4.223 0 7.683 3.298 8.05 7.67l1.133 48.942c.101 2.445-.336 4.393-1.377 6.115C35.643 99.98 31.943 102 27.952 102" fill="#18386B"/>
        <path d="m6.582 41.94-.838 48.707.002.155c.058 5.226 4.459 9.478 9.811 9.478h12.395c3.38 0 6.506-1.7 8.159-4.434.871-1.442 1.22-3.039 1.132-5.179l-1.131-48.906c-.289-3.422-3.002-6.04-6.309-6.04h-16.9c-3.32 0-6.093 2.73-6.321 6.219zM27.952 102H15.557C9.254 102 4.07 96.985 4.002 90.822L4 90.632l.838-48.741c0-.013 0-.026.002-.039C5.117 37.45 8.658 34 12.902 34h16.901c4.223 0 7.683 3.298 8.05 7.67l1.133 48.942c.101 2.445-.336 4.393-1.377 6.115C35.643 99.98 31.943 102 27.952 102z" stroke="#18386B" stroke-width="1.12"/>
        <path d="M10.06 75.431 7 84.091l2.226.998a70.202 70.202 0 0 0 22.547 0L34 84.09l-2.827-8.617C30.885 74.597 30.03 74 29.063 74H12.155c-.95 0-1.793.576-2.095 1.431" fill="#FFF"/>
        <path d="M10.27 84.345a64.308 64.308 0 0 0 21.46 0l1.377-.646-2.52-8.049a1.293 1.293 0 0 0-1.247-.897H12.872c-.564 0-1.06.35-1.236.872l-2.727 8.081 1.36.64zM21 87c-3.715 0-7.43-.315-11.12-.944a.828.828 0 0 1-.213-.067l-2.169-1.018a.886.886 0 0 1-.45-1.086l2.98-8.836A3.002 3.002 0 0 1 12.873 73H29.34c1.317 0 2.469.849 2.865 2.111l2.754 8.793a.886.886 0 0 1-.457 1.067l-2.17 1.018a.828.828 0 0 1-.213.067C28.43 86.686 24.715 87 21 87z" fill="#18386B"/>
        <path d="M9.568 46h20.863c.927 0 1.652.75 1.561 1.615l-2.137 3.716C29.264 52.359 28.118 53 26.872 53H13.127c-1.245 0-2.39-.64-2.983-1.67l-2.136-3.715C7.917 46.75 8.64 46 9.568 46" fill="#FFF"/>
        <path d="m9.69 48.315 1.971 3.656a2.45 2.45 0 0 0 2.162 1.282h13.353c.907 0 1.736-.491 2.162-1.282l1.971-3.656a.64.64 0 0 0-.152-.333.692.692 0 0 0-.523-.235H10.366a.692.692 0 0 0-.523.235.639.639 0 0 0-.152.333M27.176 55H13.823a4.127 4.127 0 0 1-3.633-2.177l-2.076-3.85a.9.9 0 0 1-.102-.337 2.425 2.425 0 0 1 .58-1.824A2.354 2.354 0 0 1 10.365 46h20.268c.678 0 1.324.296 1.773.811.435.498.646 1.163.582 1.825a.896.896 0 0 1-.103.337l-2.077 3.85A4.127 4.127 0 0 1 27.176 55" fill="#18386B"/>
        <g transform="translate(0 76)">
            <mask id="b" fill="#fff">
                <use xlink:href="#a"/>
            </mask>
            <path d="M5.003 4a1.11 1.11 0 0 1-.344-.054c-.103-.034-2.547-.838-4.367-2.443a.809.809 0 0 1 0-1.245 1.094 1.094 0 0 1 1.411 0C3.205 1.583 5.327 2.287 5.35 2.294c.516.169.78.675.589 1.13-.149.356-.53.576-.935.576" fill="#18386B" mask="url(#b)"/>
        </g>
        <path d="M36.997 81c-.46 0-.874-.282-.975-.696-.115-.474.226-.94.762-1.044.049-.01 1.915-.406 3.47-1.962.365-.365.995-.4 1.408-.078.413.321.453.878.089 1.242-2.02 2.021-4.442 2.499-4.544 2.518a1.14 1.14 0 0 1-.21.02M30.904 102c-.422 0-.784-.346-.83-.812-.293-3.02.283-5.371 1.712-6.988 2.118-2.396 5.298-2.202 5.433-2.193.46.033.809.464.78.964-.03.499-.428.878-.886.846-.046-.002-2.566-.133-4.132 1.65-1.066 1.213-1.485 3.074-1.246 5.53.048.499-.284.945-.743.998a.761.761 0 0 1-.088.005M11.096 102a.835.835 0 0 1-.088-.005c-.459-.053-.791-.499-.743-.997.24-2.464-.183-4.328-1.255-5.542-1.587-1.795-4.096-1.64-4.121-1.639-.457.032-.857-.347-.887-.847-.03-.5.319-.93.78-.963.134-.009 3.314-.203 5.432 2.193 1.43 1.617 2.005 3.968 1.711 6.989-.044.465-.407.811-.829.811" fill="#18386B"/>
        <path d="M38 13.5a6.5 6.5 0 1 0 13 0 6.5 6.5 0 0 0-13 0" fill="#FFE375"/>
        <path d="M44.5 7.217a6.29 6.29 0 0 0-6.283 6.283 6.29 6.29 0 0 0 6.283 6.283 6.29 6.29 0 0 0 6.283-6.283A6.29 6.29 0 0 0 44.5 7.217M44.5 21c-4.136 0-7.5-3.365-7.5-7.5C37 9.364 40.364 6 44.5 6c4.135 0 7.5 3.364 7.5 7.5 0 4.135-3.365 7.5-7.5 7.5" fill="#003887"/>
        <path d="M44.5 7.217a6.29 6.29 0 0 0-6.283 6.283 6.29 6.29 0 0 0 6.283 6.283 6.29 6.29 0 0 0 6.283-6.283A6.29 6.29 0 0 0 44.5 7.217zM44.5 21c-4.136 0-7.5-3.365-7.5-7.5C37 9.364 40.364 6 44.5 6c4.135 0 7.5 3.364 7.5 7.5 0 4.135-3.365 7.5-7.5 7.5z" stroke="#18386B" stroke-width="1.68"/>
        <path d="M54.487 21a.405.405 0 0 1-.18-.043c-.25-.124-.372-.474-.272-.783a20.78 20.78 0 0 0 .991-6.4 20.87 20.87 0 0 0-.856-5.964c-.093-.312.037-.658.289-.773.253-.115.532.045.625.357.608 2.04.916 4.187.916 6.38 0 2.366-.357 4.67-1.061 6.847-.076.236-.259.379-.452.379" fill="#18386B"/>
        <path d="M54.487 21a.405.405 0 0 1-.18-.043c-.25-.124-.372-.474-.272-.783a20.78 20.78 0 0 0 .991-6.4 20.87 20.87 0 0 0-.856-5.964c-.093-.312.037-.658.289-.773.253-.115.532.045.625.357.608 2.04.916 4.187.916 6.38 0 2.366-.357 4.67-1.061 6.847-.076.236-.259.379-.452.379z" stroke="#18386B" stroke-width="1.68"/>
        <path d="M59.592 24a.568.568 0 0 1-.52-.795 21.668 21.668 0 0 0 1.793-8.677c0-3.036-.611-5.974-1.817-8.732a.568.568 0 0 1 1.04-.456A22.79 22.79 0 0 1 62 14.528c0 3.173-.635 6.244-1.888 9.13a.567.567 0 0 1-.52.342" fill="#18386B"/>
        <path d="M59.592 24a.568.568 0 0 1-.52-.795 21.668 21.668 0 0 0 1.793-8.677c0-3.036-.611-5.974-1.817-8.732a.568.568 0 0 1 1.04-.456A22.79 22.79 0 0 1 62 14.528c0 3.173-.635 6.244-1.888 9.13a.567.567 0 0 1-.52.342z" stroke="#18386B" stroke-width="1.68"/>
        <path d="M63.987 26a.552.552 0 0 1-.233-.052.573.573 0 0 1-.277-.755 27.207 27.207 0 0 0 2.4-11.242c0-4.263-.948-8.342-2.817-12.126a.574.574 0 0 1 .25-.764.558.558 0 0 1 .754.254C66.012 5.258 67 9.509 67 13.95a28.35 28.35 0 0 1-2.501 11.715.561.561 0 0 1-.512.334" fill="#18386B"/>
        <path d="M63.987 26a.552.552 0 0 1-.233-.052.573.573 0 0 1-.277-.755 27.207 27.207 0 0 0 2.4-11.242c0-4.263-.948-8.342-2.817-12.126a.574.574 0 0 1 .25-.764.558.558 0 0 1 .754.254C66.012 5.258 67 9.509 67 13.95a28.35 28.35 0 0 1-2.501 11.715.561.561 0 0 1-.512.334z" stroke="#18386B" stroke-width="1.68"/>
        <path d="M33.487 21c-.208 0-.403-.152-.48-.4A22.227 22.227 0 0 1 32 13.938c0-2.246.325-4.445.966-6.534.098-.319.392-.483.659-.365.266.118.402.472.304.792a20.808 20.808 0 0 0-.902 6.107c0 2.145.316 4.24.94 6.229.1.319-.034.674-.3.794a.433.433 0 0 1-.18.04" fill="#18386B"/>
        <path d="M33.487 21c-.208 0-.403-.152-.48-.4A22.227 22.227 0 0 1 32 13.938c0-2.246.325-4.445.966-6.534.098-.319.392-.483.659-.365.266.118.402.472.304.792a20.808 20.808 0 0 0-.902 6.107c0 2.145.316 4.24.94 6.229.1.319-.034.674-.3.794a.433.433 0 0 1-.18.04z" stroke="#18386B" stroke-width="1.68"/>
        <path d="M29.428 23a.574.574 0 0 1-.525-.33A21.205 21.205 0 0 1 27 13.857c0-2.952.596-5.818 1.773-8.52a.581.581 0 0 1 .748-.295.54.54 0 0 1 .307.718 20.164 20.164 0 0 0-1.684 8.097c0 2.91.609 5.729 1.808 8.376a.54.54 0 0 1-.296.721.59.59 0 0 1-.228.046" fill="#18386B"/>
        <path d="M29.428 23a.574.574 0 0 1-.525-.33A21.205 21.205 0 0 1 27 13.857c0-2.952.596-5.818 1.773-8.52a.581.581 0 0 1 .748-.295.54.54 0 0 1 .307.718 20.164 20.164 0 0 0-1.684 8.097c0 2.91.609 5.729 1.808 8.376a.54.54 0 0 1-.296.721.59.59 0 0 1-.228.046z" stroke="#18386B" stroke-width="1.68"/>
        <path d="M24.261 27a.59.59 0 0 1-.534-.331A27.581 27.581 0 0 1 21 14.654c0-4.32.969-8.467 2.88-12.33a.597.597 0 0 1 .786-.267c.294.138.417.48.275.766a26.454 26.454 0 0 0-2.762 11.83c0 4.03.88 7.908 2.616 11.53a.568.568 0 0 1-.285.763.599.599 0 0 1-.249.054" fill="#18386B"/>
        <path d="M24.261 27a.59.59 0 0 1-.534-.331A27.581 27.581 0 0 1 21 14.654c0-4.32.969-8.467 2.88-12.33a.597.597 0 0 1 .786-.267c.294.138.417.48.275.766a26.454 26.454 0 0 0-2.762 11.83c0 4.03.88 7.908 2.616 11.53a.568.568 0 0 1-.285.763.599.599 0 0 1-.249.054z" stroke="#18386B" stroke-width="1.68"/>
        <path d="M43.5 38c-.276 0-.5-.255-.5-.57V20.57c0-.315.224-.57.5-.57s.5.255.5.57v16.86c0 .315-.224.57-.5.57" fill="#18386B"/>
        <path d="M43.5 38c-.276 0-.5-.255-.5-.57V20.57c0-.315.224-.57.5-.57s.5.255.5.57v16.86c0 .315-.224.57-.5.57z" stroke="#18386B" stroke-width="1.68"/>
    </g>
</svg>
