<svg width="128" height="130" xmlns="http://www.w3.org/2000/svg">
    <g fill="none" fill-rule="evenodd">
        <path d="M50.367 119.972a3.945 3.945 0 0 1 3.94 3.95 3.946 3.946 0 0 1-3.94 3.95 3.946 3.946 0 0 1-3.94-3.95 3.945 3.945 0 0 1 3.94-3.95" fill="#2CACE5"/>
        <path d="M50.367 121.1a2.822 2.822 0 0 0 0 5.644 2.822 2.822 0 0 0 0-5.644m0 7.9c-2.794 0-5.066-2.278-5.066-5.078 0-2.8 2.272-5.078 5.066-5.078 2.793 0 5.066 2.278 5.066 5.078 0 2.8-2.273 5.078-5.066 5.078" fill="#18386B"/>
        <path d="M50.367 121.1a2.822 2.822 0 0 0 0 5.644 2.822 2.822 0 0 0 0-5.644zm0 7.9c-2.794 0-5.066-2.278-5.066-5.078 0-2.8 2.272-5.078 5.066-5.078 2.793 0 5.066 2.278 5.066 5.078 0 2.8-2.273 5.078-5.066 5.078z" stroke="#18386B" stroke-width="1.296"/>
        <path d="M50.367 2.441a3.945 3.945 0 0 1 3.94 3.95 3.946 3.946 0 0 1-3.94 3.95 3.946 3.946 0 0 1-3.94-3.95 3.945 3.945 0 0 1 3.94-3.95" fill="#FFCE3B"/>
        <path d="M50.367 3.57a2.822 2.822 0 0 0 0 5.643 2.822 2.822 0 0 0 0-5.644m0 7.9c-2.794 0-5.066-2.278-5.066-5.078 0-2.8 2.272-5.077 5.066-5.077 2.793 0 5.066 2.277 5.066 5.077s-2.273 5.078-5.066 5.078" fill="#18386B"/>
        <path d="M50.367 3.57a2.822 2.822 0 0 0 0 5.643 2.822 2.822 0 0 0 0-5.644zm0 7.899c-2.794 0-5.066-2.278-5.066-5.078 0-2.8 2.272-5.077 5.066-5.077 2.793 0 5.066 2.277 5.066 5.077s-2.273 5.078-5.066 5.078z" stroke="#18386B" stroke-width="1.296"/>
        <path fill="#18386B" d="M50.367 10.341v109.631z"/>
        <path stroke="#18386B" stroke-width=".864" d="M50.367 10.341v109.631z"/>
        <path d="M50.367 121.1a1.127 1.127 0 0 1-1.126-1.128V10.34a1.127 1.127 0 1 1 2.251 0v109.63c0 .624-.503 1.129-1.125 1.129" fill="#18386B"/>
        <path d="M50.367 121.1a1.127 1.127 0 0 1-1.126-1.128V10.34a1.127 1.127 0 1 1 2.251 0v109.63c0 .624-.503 1.129-1.125 1.129z" stroke="#18386B" stroke-width=".864"/>
        <path d="M75.707 11.422c2.561 0 4.637-2.08 4.637-4.647a4.642 4.642 0 0 0-4.637-4.647 4.642 4.642 0 0 0-4.636 4.647 4.642 4.642 0 0 0 4.636 4.647" fill="#2CACE5"/>
        <path d="M75.707 3.256a3.519 3.519 0 0 0 0 7.038 3.519 3.519 0 0 0 0-7.038m0 9.294c-3.177 0-5.761-2.59-5.761-5.775C69.946 3.59 72.53 1 75.707 1s5.762 2.59 5.762 5.775c0 3.184-2.585 5.775-5.762 5.775" fill="#18386B"/>
        <path d="M75.707 3.256a3.519 3.519 0 0 0 0 7.038 3.519 3.519 0 0 0 0-7.038zm0 9.294c-3.177 0-5.761-2.59-5.761-5.775C69.946 3.59 72.53 1 75.707 1s5.762 2.59 5.762 5.775c0 3.184-2.585 5.775-5.762 5.775z" stroke="#18386B" stroke-width="1.296"/>
        <path fill="#18386B" d="M75.707 117.81V11.423z"/>
        <path stroke="#18386B" stroke-width=".864" d="M75.707 117.81V11.423z"/>
        <path d="M75.707 118.939a1.127 1.127 0 0 1-1.125-1.128V11.42c0-.622.504-1.127 1.125-1.127.622 0 1.126.505 1.126 1.128V117.81c0 .623-.504 1.128-1.126 1.128" fill="#18386B"/>
        <path d="M75.707 118.939a1.127 1.127 0 0 1-1.125-1.128V11.42c0-.622.504-1.127 1.125-1.127.622 0 1.126.505 1.126 1.128V117.81c0 .623-.504 1.128-1.126 1.128z" stroke="#18386B" stroke-width=".864"/>
        <path d="M75.707 117.81c2.561 0 4.637 2.081 4.637 4.648a4.642 4.642 0 0 1-4.637 4.647 4.642 4.642 0 0 1-4.636-4.647 4.642 4.642 0 0 1 4.636-4.647" fill="#FFCE3B"/>
        <path d="M75.707 118.939a3.519 3.519 0 0 0 0 7.038 3.519 3.519 0 0 0 0-7.038m0 9.294c-3.177 0-5.761-2.591-5.761-5.775s2.584-5.775 5.761-5.775 5.762 2.59 5.762 5.775c0 3.184-2.585 5.775-5.762 5.775" fill="#18386B"/>
        <path d="M75.707 118.939a3.519 3.519 0 0 0 0 7.038 3.519 3.519 0 0 0 0-7.038zm0 9.294c-3.177 0-5.761-2.591-5.761-5.775s2.584-5.775 5.761-5.775 5.762 2.59 5.762 5.775c0 3.184-2.585 5.775-5.762 5.775z" stroke="#18386B" stroke-width="1.296"/>
        <path d="M117.79 80.73a3.945 3.945 0 0 1 3.942-3.95 3.946 3.946 0 0 1 3.94 3.95 3.946 3.946 0 0 1-3.94 3.95 3.945 3.945 0 0 1-3.941-3.95" fill="#2CACE5"/>
        <path d="M121.934 77.908a2.822 2.822 0 0 0 0 5.645 2.822 2.822 0 0 0 0-5.645m0 7.9c-2.794 0-5.067-2.278-5.067-5.077 0-2.8 2.273-5.078 5.067-5.078 2.793 0 5.066 2.277 5.066 5.078 0 2.8-2.273 5.077-5.066 5.077" fill="#18386B"/>
        <path d="M121.934 77.908a2.822 2.822 0 0 0 0 5.645 2.822 2.822 0 0 0 0-5.645zm0 7.9c-2.794 0-5.067-2.278-5.067-5.077 0-2.8 2.273-5.078 5.067-5.078 2.793 0 5.066 2.277 5.066 5.078 0 2.8-2.273 5.077-5.066 5.077z" stroke="#18386B" stroke-width="1.296"/>
        <path d="M2.438 80.73a3.945 3.945 0 0 1 3.94-3.95 3.946 3.946 0 0 1 3.942 3.95 3.946 3.946 0 0 1-3.941 3.95 3.945 3.945 0 0 1-3.941-3.95" fill="#FFCE3B"/>
        <path d="M6.379 77.908a2.822 2.822 0 0 0 0 5.645 2.822 2.822 0 0 0 0-5.645m0 7.9c-2.794 0-5.066-2.278-5.066-5.077 0-2.8 2.272-5.078 5.066-5.078s5.066 2.277 5.066 5.078c0 2.8-2.272 5.077-5.066 5.077" fill="#18386B"/>
        <path d="M6.379 77.908a2.822 2.822 0 0 0 0 5.645 2.822 2.822 0 0 0 0-5.645zm0 7.9c-2.794 0-5.066-2.278-5.066-5.077 0-2.8 2.272-5.078 5.066-5.078s5.066 2.277 5.066 5.078c0 2.8-2.272 5.077-5.066 5.077z" stroke="#18386B" stroke-width="1.296"/>
        <path fill="#18386B" d="M10.32 80.73H117.79z"/>
        <path stroke="#18386B" stroke-width=".864" d="M10.32 80.73H117.79z"/>
        <path d="M117.79 81.858H10.32a1.127 1.127 0 0 1 0-2.255h107.47a1.127 1.127 0 0 1 0 2.256" fill="#18386B"/>
        <path d="M117.79 81.858H10.32a1.127 1.127 0 0 1 0-2.255h107.47a1.127 1.127 0 0 1 0 2.256z" stroke="#18386B" stroke-width=".864"/>
        <path d="M11.398 55.332a4.642 4.642 0 0 0-4.637-4.647 4.642 4.642 0 0 0-4.636 4.647 4.642 4.642 0 0 0 4.636 4.647c2.561 0 4.637-2.08 4.637-4.647" fill="#2CACE5"/>
        <path d="M6.762 51.813a3.519 3.519 0 0 0 0 7.038 3.519 3.519 0 0 0 0-7.038m0 9.294C3.584 61.107 1 58.517 1 55.332c0-3.184 2.584-5.775 5.762-5.775 3.177 0 5.761 2.591 5.761 5.775s-2.584 5.775-5.761 5.775" fill="#18386B"/>
        <path d="M6.762 51.813a3.519 3.519 0 0 0 0 7.038 3.519 3.519 0 0 0 0-7.038zm0 9.294C3.584 61.107 1 58.517 1 55.332c0-3.184 2.584-5.775 5.762-5.775 3.177 0 5.761 2.591 5.761 5.775s-2.584 5.775-5.761 5.775z" stroke="#18386B" stroke-width="1.296"/>
        <path fill="#18386B" d="M115.635 55.332H11.398z"/>
        <path stroke="#18386B" stroke-width=".864" d="M115.635 55.332H11.398z"/>
        <path d="M115.635 56.46H11.398a1.127 1.127 0 0 1 0-2.256h104.237c.621 0 1.125.505 1.125 1.128 0 .623-.504 1.128-1.125 1.128" fill="#18386B"/>
        <path d="M115.635 56.46H11.398a1.127 1.127 0 0 1 0-2.256h104.237c.621 0 1.125.505 1.125 1.128 0 .623-.504 1.128-1.125 1.128z" stroke="#18386B" stroke-width=".864"/>
        <path d="M115.635 55.332a4.642 4.642 0 0 1 4.636-4.647c2.56 0 4.636 2.08 4.636 4.647a4.642 4.642 0 0 1-4.636 4.647 4.642 4.642 0 0 1-4.636-4.647" fill="#FFCE3B"/>
        <path d="M120.271 51.813a3.52 3.52 0 0 0 0 7.038 3.519 3.519 0 0 0 0-7.038m0 9.294c-3.177 0-5.762-2.59-5.762-5.775 0-3.184 2.585-5.775 5.762-5.775 3.177 0 5.762 2.591 5.762 5.775s-2.585 5.775-5.762 5.775" fill="#18386B"/>
        <path d="M120.271 51.813a3.52 3.52 0 0 0 0 7.038 3.519 3.519 0 0 0 0-7.038zm0 9.294c-3.177 0-5.762-2.59-5.762-5.775 0-3.184 2.585-5.775 5.762-5.775 3.177 0 5.762 2.591 5.762 5.775s-2.585 5.775-5.762 5.775z" stroke="#18386B" stroke-width="1.296"/>
        <path d="M102.807 64.947c0 21.757-17.597 39.394-39.304 39.394S24.2 86.704 24.2 64.947c0-21.756 17.596-39.394 39.303-39.394 21.707 0 39.304 17.638 39.304 39.394" fill="#FFF"/>
        <path d="M63.503 26.681c-21.051 0-38.178 17.167-38.178 38.266 0 21.1 17.127 38.266 38.178 38.266 21.052 0 38.178-17.166 38.178-38.266 0-21.1-17.126-38.266-38.178-38.266m0 78.788c-22.292 0-40.428-18.178-40.428-40.522 0-22.343 18.136-40.521 40.428-40.521 22.293 0 40.43 18.178 40.43 40.521 0 22.344-18.137 40.522-40.43 40.522" fill="#18386B"/>
        <path d="M63.503 26.681c-21.051 0-38.178 17.167-38.178 38.266 0 21.1 17.127 38.266 38.178 38.266 21.052 0 38.178-17.166 38.178-38.266 0-21.1-17.126-38.266-38.178-38.266zm0 78.788c-22.292 0-40.428-18.178-40.428-40.522 0-22.343 18.136-40.521 40.428-40.521 22.293 0 40.43 18.178 40.43 40.521 0 22.344-18.137 40.522-40.43 40.522z" stroke="#18386B" stroke-width="1.296"/>
        <path d="M54.929 18.713a47.077 47.077 0 0 1 8.575-.783c2.76 0 5.465.239 8.095.697l-16.67.086z" fill="#18386B"/>
        <path d="M54.929 18.713a47.077 47.077 0 0 1 8.575-.783c2.76 0 5.465.239 8.095.697l-16.67.086z" stroke="#18386B" stroke-width=".864"/>
        <path d="M54.928 19.841a1.128 1.128 0 0 1-.203-2.237 48.65 48.65 0 0 1 17.066-.088 1.128 1.128 0 0 1-.385 2.222 46.406 46.406 0 0 0-16.273.084c-.069.013-.138.02-.205.02" fill="#18386B"/>
        <path d="M54.928 19.841a1.128 1.128 0 0 1-.203-2.237 48.65 48.65 0 0 1 17.066-.088 1.128 1.128 0 0 1-.385 2.222 46.406 46.406 0 0 0-16.273.084c-.069.013-.138.02-.205.02z" stroke="#18386B" stroke-width=".864"/>
        <path d="M19.161 50.695a1.128 1.128 0 0 1-1.063-1.497c4.734-13.715 15.71-24.796 29.359-29.644a1.129 1.129 0 0 1 .752 2.126c-13.01 4.62-23.472 15.183-27.984 28.255-.162.467-.597.76-1.064.76" fill="#18386B"/>
        <path d="M19.161 50.695a1.128 1.128 0 0 1-1.063-1.497c4.734-13.715 15.71-24.796 29.359-29.644a1.129 1.129 0 0 1 .752 2.126c-13.01 4.62-23.472 15.183-27.984 28.255-.162.467-.597.76-1.064.76z" stroke="#18386B" stroke-width=".864"/>
        <path d="M17.883 75.94a47.236 47.236 0 0 1-1.29-10.993c0-2 .125-3.97.367-5.905l.923 16.898z" fill="#18386B"/>
        <path d="M17.883 75.94a47.236 47.236 0 0 1-1.29-10.993c0-2 .125-3.97.367-5.905l.923 16.898z" stroke="#18386B" stroke-width=".864"/>
        <path d="M17.882 77.068c-.509 0-.97-.348-1.094-.865a48.495 48.495 0 0 1-1.32-11.256c0-2.02.126-4.054.375-6.045a1.125 1.125 0 1 1 2.233.28 46.637 46.637 0 0 0-.357 5.765c0 3.627.423 7.237 1.258 10.73a1.128 1.128 0 0 1-1.095 1.391" fill="#18386B"/>
        <path d="M17.882 77.068c-.509 0-.97-.348-1.094-.865a48.495 48.495 0 0 1-1.32-11.256c0-2.02.126-4.054.375-6.045a1.125 1.125 0 1 1 2.233.28 46.637 46.637 0 0 0-.357 5.765c0 3.627.423 7.237 1.258 10.73a1.128 1.128 0 0 1-1.095 1.391z" stroke="#18386B" stroke-width=".864"/>
        <path d="M46.757 110.008c-.134 0-.27-.024-.402-.075-11.577-4.436-21.214-13.45-26.441-24.73a1.129 1.129 0 0 1 .546-1.498 1.123 1.123 0 0 1 1.495.547c4.982 10.754 14.168 19.346 25.203 23.574a1.129 1.129 0 0 1-.401 2.182" fill="#18386B"/>
        <path d="M46.757 110.008c-.134 0-.27-.024-.402-.075-11.577-4.436-21.214-13.45-26.441-24.73a1.129 1.129 0 0 1 .546-1.498 1.123 1.123 0 0 1 1.495.547c4.982 10.754 14.168 19.346 25.203 23.574a1.129 1.129 0 0 1-.401 2.182z" stroke="#18386B" stroke-width=".864"/>
        <path d="M107.642 50.695c-.467 0-.903-.293-1.064-.76-4.513-13.072-14.974-23.634-27.984-28.255a1.129 1.129 0 0 1-.685-1.44c.208-.586.851-.894 1.437-.686 13.65 4.848 24.625 15.929 29.36 29.644a1.128 1.128 0 0 1-1.064 1.497" fill="#18386B"/>
        <path d="M107.642 50.695c-.467 0-.903-.293-1.064-.76-4.513-13.072-14.974-23.634-27.984-28.255a1.129 1.129 0 0 1-.685-1.44c.208-.586.851-.894 1.437-.686 13.65 4.848 24.625 15.929 29.36 29.644a1.128 1.128 0 0 1-1.064 1.497z" stroke="#18386B" stroke-width=".864"/>
        <path d="M108.92 75.94a47.236 47.236 0 0 0 1.29-10.993c0-2-.125-3.97-.367-5.905l-.923 16.898z" fill="#18386B"/>
        <path d="M108.92 75.94a47.236 47.236 0 0 0 1.29-10.993c0-2-.125-3.97-.367-5.905l-.923 16.898z" stroke="#18386B" stroke-width=".864"/>
        <path d="M108.921 77.068a1.126 1.126 0 0 1-1.095-1.39 46.223 46.223 0 0 0 1.258-10.73c0-1.928-.12-3.867-.358-5.765a1.126 1.126 0 1 1 2.233-.28c.25 1.99.376 4.024.376 6.044 0 3.803-.445 7.59-1.32 11.256a1.126 1.126 0 0 1-1.094.865" fill="#18386B"/>
        <path d="M108.921 77.068a1.126 1.126 0 0 1-1.095-1.39 46.223 46.223 0 0 0 1.258-10.73c0-1.928-.12-3.867-.358-5.765a1.126 1.126 0 1 1 2.233-.28c.25 1.99.376 4.024.376 6.044 0 3.803-.445 7.59-1.32 11.256a1.126 1.126 0 0 1-1.094.865z" stroke="#18386B" stroke-width=".864"/>
        <path d="M80.046 110.008a1.129 1.129 0 0 1-.402-2.182c11.035-4.228 20.222-12.82 25.204-23.574.261-.565.93-.81 1.495-.547.563.262.808.933.546 1.498-5.227 11.28-14.864 20.294-26.44 24.73-.133.05-.27.075-.403.075" fill="#18386B"/>
        <path d="M80.046 110.008a1.129 1.129 0 0 1-.402-2.182c11.035-4.228 20.222-12.82 25.204-23.574.261-.565.93-.81 1.495-.547.563.262.808.933.546 1.498-5.227 11.28-14.864 20.294-26.44 24.73-.133.05-.27.075-.403.075z" stroke="#18386B" stroke-width=".864"/>
        <path d="M70.53 111.44a47.188 47.188 0 0 1-7.027.524c-2.545 0-5.044-.203-7.48-.594l14.507.07z" fill="#18386B"/>
        <path d="M70.53 111.44a47.188 47.188 0 0 1-7.027.524c-2.545 0-5.044-.203-7.48-.594l14.507.07z" stroke="#18386B" stroke-width=".864"/>
        <path d="M63.503 113.092c-2.567 0-5.143-.204-7.658-.608a1.127 1.127 0 0 1 .357-2.228c4.646.747 9.506.77 14.16.07a1.128 1.128 0 0 1 .335 2.23 48.497 48.497 0 0 1-7.194.536" fill="#18386B"/>
        <path d="M63.503 113.092c-2.567 0-5.143-.204-7.658-.608a1.127 1.127 0 0 1 .357-2.228c4.646.747 9.506.77 14.16.07a1.128 1.128 0 0 1 .335 2.23 48.497 48.497 0 0 1-7.194.536z" stroke="#18386B" stroke-width=".864"/>
        <path d="M63.264 76.518c-6.376 0-11.545-5.18-11.545-11.57 0-6.392 5.17-11.572 11.545-11.572 6.376 0 11.544 5.18 11.544 11.571 0 6.39-5.168 11.571-11.544 11.571m29.565-7.484V60.86a2.119 2.119 0 0 0-2.116-2.122h-4.37c-.497 0-.926-.33-1.076-.804a23.038 23.038 0 0 0-1.497-3.62c-.23-.443-.159-.98.193-1.332l3.09-3.098a2.125 2.125 0 0 0 0-3l-5.766-5.781a2.114 2.114 0 0 0-2.994 0L75.202 44.2a1.131 1.131 0 0 1-1.328.194 22.927 22.927 0 0 0-3.613-1.5 1.135 1.135 0 0 1-.802-1.078v-4.38a2.12 2.12 0 0 0-2.117-2.122h-8.156a2.12 2.12 0 0 0-2.117 2.121v4.38c0 .498-.329.928-.802 1.079-1.254.399-2.462.902-3.613 1.5-.441.23-.977.159-1.328-.194l-3.091-3.097a2.114 2.114 0 0 0-2.994 0l-5.767 5.78a2.124 2.124 0 0 0 0 3l3.09 3.099c.352.351.423.889.194 1.331a22.999 22.999 0 0 0-1.497 3.62c-.15.476-.58.805-1.076.805h-4.37c-1.17 0-2.117.95-2.117 2.122v8.174c0 1.172.948 2.122 2.117 2.122h4.37c.497 0 .925.33 1.076.804.398 1.257.9 2.467 1.497 3.621.229.442.158.98-.193 1.332l-3.09 3.097a2.124 2.124 0 0 0 0 3l5.766 5.781a2.114 2.114 0 0 0 2.994 0l3.09-3.097a1.131 1.131 0 0 1 1.329-.194 22.89 22.89 0 0 0 3.613 1.5c.473.151.802.58.802 1.079v4.38a2.12 2.12 0 0 0 2.117 2.122h8.156a2.12 2.12 0 0 0 2.117-2.122v-4.38c0-.498.328-.928.802-1.079a22.886 22.886 0 0 0 3.613-1.5c.441-.23.977-.159 1.328.194l3.091 3.097a2.114 2.114 0 0 0 2.994 0l5.767-5.78a2.125 2.125 0 0 0 0-3l-3.091-3.098a1.137 1.137 0 0 1-.193-1.332 23.043 23.043 0 0 0 1.497-3.62c.15-.475.579-.805 1.076-.805h4.37c1.169 0 2.116-.95 2.116-2.122" fill="#FFE96B"/>
        <path d="M63.264 54.504c-5.745 0-10.42 4.685-10.42 10.443 0 5.759 4.675 10.443 10.42 10.443s10.42-4.684 10.42-10.443c0-5.758-4.675-10.443-10.42-10.443m0 23.142c-6.986 0-12.67-5.697-12.67-12.699s5.684-12.699 12.67-12.699 12.67 5.697 12.67 12.7c0 7.001-5.684 12.698-12.67 12.698m-11.149 6.592c.358 0 .72.085 1.057.26 1.1.572 2.255 1.052 3.436 1.428a2.258 2.258 0 0 1 1.586 2.153v4.38c0 .548.445.994.992.994h8.156a.993.993 0 0 0 .991-.994v-4.38c0-.986.638-1.851 1.587-2.153a21.782 21.782 0 0 0 3.435-1.427c.886-.46 1.947-.3 2.643.397l3.09 3.097a1.013 1.013 0 0 0 1.403 0l5.767-5.78a.989.989 0 0 0 .29-.702.987.987 0 0 0-.29-.703l-3.09-3.098a2.263 2.263 0 0 1-.398-2.648 21.965 21.965 0 0 0 1.424-3.443 2.254 2.254 0 0 1 2.149-1.59h4.37a.994.994 0 0 0 .991-.995V60.86a.994.994 0 0 0-.991-.994h-4.37a2.254 2.254 0 0 1-2.149-1.59 21.965 21.965 0 0 0-1.424-3.444c-.458-.886-.299-1.95.397-2.648l3.09-3.098a.989.989 0 0 0 .291-.703.987.987 0 0 0-.29-.702l-5.767-5.78a1.014 1.014 0 0 0-1.402 0l-3.091 3.097a2.25 2.25 0 0 1-2.643.398 21.874 21.874 0 0 0-3.435-1.427 2.258 2.258 0 0 1-1.587-2.153v-4.38a.993.993 0 0 0-.991-.994h-8.156a.993.993 0 0 0-.992.993v4.38c0 .986-.637 1.851-1.586 2.154-1.181.376-2.337.856-3.436 1.427a2.25 2.25 0 0 1-2.642-.398L47.439 41.9a1.013 1.013 0 0 0-1.402 0l-5.767 5.78a.997.997 0 0 0 0 1.405l3.09 3.098c.696.697.855 1.761.397 2.648a21.996 21.996 0 0 0-1.424 3.443 2.254 2.254 0 0 1-2.148 1.59h-4.37a.994.994 0 0 0-.991.995v8.174c0 .548.444.994.99.994h4.371c.983 0 1.847.64 2.148 1.59a21.975 21.975 0 0 0 1.424 3.444 2.263 2.263 0 0 1-.397 2.648l-3.09 3.098a.997.997 0 0 0 0 1.406l5.767 5.78a1.014 1.014 0 0 0 1.402 0l3.091-3.098a2.233 2.233 0 0 1 1.585-.658m15.227 11.47h-8.156a3.25 3.25 0 0 1-3.242-3.25v-4.38a23.927 23.927 0 0 1-3.808-1.577L49.03 89.59a3.216 3.216 0 0 1-2.293.952c-.866 0-1.68-.338-2.293-.952l-5.767-5.78a3.258 3.258 0 0 1 0-4.596l3.091-3.097a24.058 24.058 0 0 1-1.581-3.814l-4.373-.018a3.25 3.25 0 0 1-3.242-3.25V60.86a3.25 3.25 0 0 1 3.242-3.25h4.37c.417-1.322.945-2.6 1.574-3.816l-3.08-3.113a3.258 3.258 0 0 1 0-4.595l5.767-5.78a3.215 3.215 0 0 1 2.292-.952c.866 0 1.68.338 2.293.952l3.09 3.097a23.914 23.914 0 0 1 3.805-1.584l.018-4.384a3.25 3.25 0 0 1 3.242-3.25h8.156a3.25 3.25 0 0 1 3.242 3.25v4.38c1.32.418 2.594.948 3.807 1.578l3.106-3.087a3.215 3.215 0 0 1 2.293-.952c.866 0 1.68.338 2.292.952l5.767 5.78c.612.613.95 1.43.95 2.297 0 .868-.338 1.685-.95 2.298l-3.09 3.098a24.127 24.127 0 0 1 1.58 3.814l4.374.017a3.25 3.25 0 0 1 3.242 3.25v8.174a3.25 3.25 0 0 1-3.242 3.25h-4.37a24.064 24.064 0 0 1-1.574 3.816l3.08 3.113c.612.614.95 1.43.95 2.298 0 .868-.338 1.684-.95 2.298l-5.767 5.78a3.217 3.217 0 0 1-2.292.952c-.866 0-1.68-.338-2.293-.952l-3.09-3.097a23.935 23.935 0 0 1-3.806 1.583l-.017 4.384a3.25 3.25 0 0 1-3.242 3.25" fill="#003887"/>
    </g>
</svg>
