<?xml version="1.0" encoding="UTF-8"?>
<svg width="17px" height="22px" viewBox="0 0 17 22" version="1.1" xmlns="http://www.w3.org/2000/svg" xmlns:xlink="http://www.w3.org/1999/xlink">
    <title>Group 14</title>
    <defs>
        <polygon id="path-1" points="0.078070922 0.13151773 12.9560284 0.13151773 12.9560284 17.0212766 0.078070922 17.0212766"></polygon>
    </defs>
    <g id="Page-1" stroke="none" stroke-width="1" fill="none" fill-rule="evenodd">
        <g id="아바타" transform="translate(-423.000000, -1242.000000)">
            <g id="Group-14" transform="translate(423.000000, 1242.000000)">
                <polygon id="Fill-1" fill="#27C4AA" points="6.94441135 9.57713475 7.70965957 9.57713475 7.70965957 11.2369929 7.72512057 11.2369929 8.99207092 9.57713475 9.83476596 9.57713475 8.66625532 11.0818156 10.0415745 13.4035177 9.19887943 13.4035177 8.21121986 11.6867801 7.70965957 12.3280567 7.70965957 13.4035177 6.94441135 13.4035177"></polygon>
                <g id="Group-13" transform="translate(0.000000, 0.054752)">
                    <path d="M12.7918865,11.4200993 C12.7918865,10.5978298 12.4299007,10.1066241 11.8611064,10.1066241 C11.2924539,10.1066241 10.9304681,10.5978298 10.9304681,11.4200993 C10.9304681,12.2369787 11.2924539,12.7592482 11.8611064,12.7592482 C12.4299007,12.7592482 12.7918865,12.2369787 12.7918865,11.4200993 M10.1497589,11.4200993 C10.1497589,10.174 10.847773,9.45002837 11.8611064,9.45002837 C12.8747234,9.45002837 13.5727376,10.1791064 13.5727376,11.4200993 C13.5727376,12.6609504 12.8747234,13.4210922 11.8611064,13.4210922 C10.847773,13.4210922 10.1497589,12.6609504 10.1497589,11.4200993" id="Fill-2" fill="#27C4AA"></path>
                    <path d="M14.4726809,15.9542553 L6.22658156,15.9542553 C5.98941844,15.9542553 5.79622695,15.762766 5.79622695,15.5274468 C5.79622695,15.2922695 5.98941844,15.0989362 6.22658156,15.0989362 L14.4726809,15.0989362 C14.7097021,15.0989362 14.8993475,15.2922695 14.8993475,15.5274468 C14.8993475,15.762766 14.7097021,15.9542553 14.4726809,15.9542553" id="Fill-4" fill="#344154"></path>
                    <path d="M14.3459291,17.6155177 L11.6945816,17.6155177 C11.4574184,17.6155177 11.2640851,17.4240284 11.2640851,17.1870071 C11.2640851,16.9516879 11.4574184,16.7603404 11.6945816,16.7603404 L14.3459291,16.7603404 C14.5812482,16.7603404 14.7725957,16.9516879 14.7725957,17.1870071 C14.7725957,17.4240284 14.5812482,17.6155177 14.3459291,17.6155177" id="Fill-6" fill="#344154"></path>
                    <g id="Group-10" transform="translate(3.829787, 2.695035)">
                        <mask id="mask-2" fill="white">
                            <use xlink:href="#path-1"></use>
                        </mask>
                        <g id="Clip-9"></g>
                        <path d="M9.18856738,3.8991773 L9.18856738,1.59038298 L11.4972199,3.8991773 L9.18856738,3.8991773 Z M12.9488511,4.24541844 L12.9488511,4.24371631 C12.9414752,4.2052766 12.9268652,4.17080851 12.9104113,4.13790071 C12.9067234,4.13066667 12.9031773,4.12329078 12.8977872,4.11605674 C12.8794894,4.08130496 12.8593475,4.05024113 12.8321135,4.02314894 L9.06459574,0.257475177 C9.0373617,0.230099291 9.00629787,0.208255319 8.9715461,0.189957447 C8.96431206,0.184567376 8.95707801,0.180879433 8.94970213,0.177191489 C8.91679433,0.160879433 8.88232624,0.14612766 8.84402837,0.138893617 L8.8421844,0.138893617 C8.81466667,0.133361702 8.78941844,0.13151773 8.76190071,0.13151773 L6.51707801,0.13151773 L6.51707801,0.986836879 L8.33339007,0.986836879 L8.33339007,4.32584397 C8.33339007,4.56286525 8.52487943,4.75421277 8.76190071,4.75421277 L12.1027518,4.75421277 L12.1027518,16.1641418 L0.933390071,16.1641418 L0.933390071,0.986836879 L3.47339007,0.986836879 L3.47339007,0.13151773 L0.506723404,0.13151773 C0.269702128,0.13151773 0.078070922,0.323007092 0.078070922,0.558184397 L0.078070922,16.5926525 C0.078070922,16.8279716 0.269702128,17.021305 0.506723404,17.021305 L12.5294184,17.021305 C12.7645957,17.021305 12.9560851,16.8279716 12.9560851,16.5926525 L12.9560851,4.32584397 C12.9560851,4.2981844 12.9542411,4.27293617 12.9488511,4.24541844 L12.9488511,4.24541844 Z" id="Fill-8" fill="#344154" mask="url(#mask-2)"></path>
                    </g>
                    <path d="M11.1383688,4.54758865 C10.9724113,4.38148936 10.7006383,4.38148936 10.534539,4.54758865 L9.91099291,5.17312057 C9.90390071,4.86985816 9.86943262,4.57382979 9.81255319,4.28531915 C9.77198582,4.07978723 9.72049645,3.87808511 9.65638298,3.68177305 C9.55921986,3.38404255 9.43524823,3.09822695 9.28858156,2.82659574 C9.21453901,2.68929078 9.13439716,2.5558156 9.0487234,2.42631206 C8.11680851,1.01822695 6.52120567,0.0871631206 4.70843972,0.0871631206 C3.08716312,0.0871631206 1.58829787,0.820212766 0.594539007,2.10219858 C0.384751773,2.37212766 0.200638298,2.66560284 0.0456028369,2.97567376 C-0.060070922,3.18716312 0.0239007092,3.44432624 0.237092199,3.55014184 C0.448865248,3.65595745 0.703900709,3.57014184 0.809716312,3.35865248 C0.939361702,3.09765957 1.09411348,2.85170213 1.26929078,2.62744681 C2.1006383,1.5570922 3.3535461,0.940638298 4.70843972,0.940638298 C6.01028369,0.940638298 7.17865248,1.51680851 7.9758156,2.42631206 C8.08730496,2.5535461 8.19170213,2.68702128 8.28801418,2.82659574 C8.47099291,3.09198582 8.62546099,3.37865248 8.74673759,3.68177305 C8.82446809,3.87666667 8.8887234,4.07808511 8.93794326,4.28531915 C9.00489362,4.56702128 9.04503546,4.85893617 9.05411348,5.15865248 L8.44304965,4.54758865 C8.27539007,4.38148936 8.00531915,4.38148936 7.83950355,4.54758865 C7.67170213,4.71553191 7.67170213,4.9851773 7.83950355,5.15297872 L9.18702128,6.5006383 C9.27099291,6.58432624 9.38035461,6.62460993 9.49,6.62460993 C9.59751773,6.62460993 9.70858156,6.58432624 9.79255319,6.5006383 L11.1383688,5.15297872 C11.3060284,4.9851773 11.3060284,4.71553191 11.1383688,4.54758865" id="Fill-11" fill="#344154"></path>
                </g>
            </g>
        </g>
    </g>
</svg>