<?xml version="1.0" encoding="UTF-8"?>
<svg width="23px" height="17px" viewBox="0 0 23 17" version="1.1" xmlns="http://www.w3.org/2000/svg" xmlns:xlink="http://www.w3.org/1999/xlink">
    <title>Group 18</title>
    <defs>
        <polygon id="path-1" points="7.93333333e-05 -0.000566666667 21.71308 -0.000566666667 21.71308 16.8866667 7.93333333e-05 16.8866667"></polygon>
    </defs>
    <g id="Page-1" stroke="none" stroke-width="1" fill="none" fill-rule="evenodd">
        <g id="헤어컬러1" transform="translate(-654.000000, -946.000000)">
            <g id="Group-18" transform="translate(654.000000, 946.000000)">
                <path d="M6.74392267,11.552622 L3.306296,11.552622 C3.162816,11.552622 3.046536,11.4178687 3.046536,11.251722 C3.046536,11.0856887 3.162816,10.950822 3.306296,10.950822 L6.224516,10.950822 L6.224516,10.604022 C6.224516,10.1056953 5.90344267,9.67559533 5.47764933,9.603742 L3.27070933,9.25161533 C3.128816,9.22894867 3.029536,9.077082 3.048916,8.91240867 C3.06852267,8.74784867 3.19738267,8.634742 3.34176933,8.655482 L5.55074933,9.00783533 C6.23176933,9.12309533 6.74392267,9.80887533 6.74392267,10.604022 L6.74392267,11.552622 Z" id="Fill-1" fill="#474F59"></path>
                <g id="Group-5" transform="translate(0.000000, 0.000567)">
                    <mask id="mask-2" fill="white">
                        <use xlink:href="#path-1"></use>
                    </mask>
                    <g id="Clip-4"></g>
                    <path d="M4.98481933,13.8813727 L16.728306,13.8813727 L16.728306,15.0440593 C16.728306,15.7282527 17.2088393,16.284946 17.799646,16.284946 L18.5434527,16.284946 C19.1342593,16.284946 19.6147927,15.7282527 19.6147927,15.0440593 L19.6147927,7.68747933 L21.1514793,7.036946 C21.1767527,7.026406 21.1937527,6.99841267 21.1937527,6.967246 L21.1937527,5.70539267 C21.1937527,5.66425267 21.164966,5.63093267 21.1293793,5.63093267 L19.585666,5.63093267 C19.050506,5.63093267 18.5589793,5.29297267 18.302846,4.748746 L16.7644593,1.48157267 C16.5088927,0.938479333 16.0182727,0.601086 15.4844727,0.601086 L6.228766,0.601086 C5.69473933,0.601086 5.204346,0.938479333 4.94877933,1.48145933 L3.41005267,4.74897267 C3.154146,5.29297267 2.66261933,5.63093267 2.12745933,5.63093267 L0.583632667,5.63093267 C0.548272667,5.63093267 0.519486,5.66425267 0.519486,5.70539267 L0.519486,6.967246 C0.519486,6.998186 0.536372667,7.026406 0.561759333,7.036946 L2.09833267,7.68747933 L2.09833267,15.0440593 C2.09833267,15.7282527 2.578866,16.284946 3.16955933,16.284946 L3.91347933,16.284946 C4.504286,16.284946 4.98481933,15.7282527 4.98481933,15.0440593 L4.98481933,13.8813727 Z M18.5434527,16.886746 L17.799646,16.886746 C16.922446,16.886746 16.2088993,16.0600927 16.2088993,15.0440593 L16.2088993,14.4831727 L5.504226,14.4831727 L5.504226,15.0440593 C5.504226,16.0600927 4.79067933,16.886746 3.91347933,16.886746 L3.16955933,16.886746 C2.29247267,16.886746 1.578926,16.0600927 1.578926,15.0440593 L1.578926,8.108286 L0.383486,7.60225267 C0.154212667,7.50523933 7.93333324e-05,7.25001267 7.93333324e-05,6.967246 L7.93333324e-05,5.70539267 C7.93333324e-05,5.33263933 0.261879333,5.02935933 0.583632667,5.02935933 L2.12745933,5.02935933 C2.47233267,5.02935933 2.788986,4.81153267 2.95411267,4.46087933 L4.492726,1.19325267 C4.83941267,0.457039333 5.504566,-0.000600666666 6.228766,-0.000600666666 L15.4844727,-0.000600666666 C16.2085593,-0.000600666666 16.8737127,0.457039333 17.2205127,1.19347933 L18.7588993,4.46065267 C18.924026,4.81153267 19.2407927,5.02935933 19.585666,5.02935933 L21.1293793,5.02935933 C21.451246,5.02935933 21.7131593,5.33263933 21.7131593,5.70539267 L21.7131593,6.967246 C21.7131593,7.249786 21.559026,7.505126 21.329866,7.60225267 L20.1341993,8.108286 L20.1341993,15.0440593 C20.1341993,16.0600927 19.4206527,16.886746 18.5434527,16.886746 L18.5434527,16.886746 Z" id="Fill-3" fill="#474F59" mask="url(#mask-2)"></path>
                </g>
                <path d="M5.11984467,5.06019733 L16.5931447,5.06019733 L15.3652913,2.45205733 C15.328458,2.37397067 15.2576247,2.325124 15.180558,2.325124 L6.53254467,2.325124 C6.455478,2.325124 6.38464467,2.37397067 6.34758467,2.452284 L5.11984467,5.06019733 Z M17.468078,5.66199733 L4.24502467,5.66199733 L5.891758,2.16419067 C6.01971133,1.892304 6.26519133,1.72355067 6.53254467,1.72355067 L15.180558,1.72355067 C15.4479113,1.72355067 15.6933913,1.892304 15.8213447,2.163964 L17.468078,5.66199733 Z" id="Fill-6" fill="#F7778A"></path>
                <path d="M18.406852,11.552622 L14.9692253,11.552622 L14.9692253,10.604022 C14.9692253,9.80887533 15.4813787,9.12309533 16.160472,9.00817533 L18.3713787,8.655482 C18.513612,8.63451533 18.6446253,8.74784867 18.664232,8.91240867 C18.683612,9.077082 18.584332,9.22894867 18.4423253,9.25161533 L16.2333453,9.604082 C15.8097053,9.67559533 15.488632,10.1056953 15.488632,10.604022 L15.488632,10.950822 L18.406852,10.950822 C18.5502187,10.950822 18.6664987,11.0856887 18.6664987,11.251722 C18.6664987,11.4178687 18.5502187,11.552622 18.406852,11.552622" id="Fill-8" fill="#474F59"></path>
                <path d="M13.1794653,11.61117 L8.53370533,11.61117 C8.39022533,11.61117 8.27394533,11.4764167 8.27394533,11.3103833 C8.27394533,11.1442367 8.39022533,11.00937 8.53370533,11.00937 L13.1794653,11.00937 C13.322832,11.00937 13.439112,11.1442367 13.439112,11.3103833 C13.439112,11.4764167 13.322832,11.61117 13.1794653,11.61117" id="Fill-10" fill="#474F59"></path>
                <path d="M13.179794,11.61117 C13.1698207,11.61117 13.1598473,11.6106033 13.1496473,11.60913 C13.0071873,11.5902033 12.9049607,11.4409433 12.921394,11.2758167 L13.1003473,9.48039 L8.61280067,9.48039 L8.79164067,11.2758167 C8.808074,11.4409433 8.70596067,11.5902033 8.56350067,11.60913 C8.42002067,11.6286233 8.29218067,11.50985 8.27574733,11.3447233 L8.029814,8.87881667 L13.6832207,8.87881667 L13.4374007,11.3447233 C13.4221007,11.4981767 13.3097873,11.61117 13.179794,11.61117" id="Fill-12" fill="#474F59"></path>
                <path d="M5.244466,14.483694 L3.85227933,14.483694 C3.70879933,14.483694 3.59251933,14.3489407 3.59251933,14.182794 C3.59251933,14.0167607 3.70879933,13.881894 3.85227933,13.881894 L5.244466,13.881894 C5.387946,13.881894 5.504226,14.0167607 5.504226,14.182794 C5.504226,14.3489407 5.387946,14.483694 5.244466,14.483694" id="Fill-14" fill="#474F59"></path>
                <path d="M17.8609933,14.483694 L16.4686933,14.483694 C16.3252133,14.483694 16.2089333,14.3489407 16.2089333,14.182794 C16.2089333,14.0167607 16.3252133,13.881894 16.4686933,13.881894 L17.8609933,13.881894 C18.0044733,13.881894 18.1207533,14.0167607 18.1207533,14.182794 C18.1207533,14.3489407 18.0044733,14.483694 17.8609933,14.483694" id="Fill-16" fill="#474F59"></path>
            </g>
        </g>
    </g>
</svg>