<?xml version="1.0" encoding="UTF-8"?>
<svg width="20px" height="19px" viewBox="0 0 20 19" version="1.1" xmlns="http://www.w3.org/2000/svg" xmlns:xlink="http://www.w3.org/1999/xlink">
    <title>Group 10</title>
    <defs>
        <polygon id="path-1" points="0 -6.30570376e-05 19.9399977 -6.30570376e-05 19.9399977 18.1420765 0 18.1420765"></polygon>
    </defs>
    <g id="Page-1" stroke="none" stroke-width="1" fill="none" fill-rule="evenodd">
        <g id="Group-10">
            <g id="Group-3" transform="translate(0.000000, 0.000109)">
                <mask id="mask-2" fill="white">
                    <use xlink:href="#path-1"></use>
                </mask>
                <g id="Clip-2"></g>
                <path d="M16.9898907,15.1890601 L15.2908743,5.67528962 C15.2648634,5.52949727 15.1275956,5.42873224 14.983224,5.44545355 C14.8361202,5.46162842 14.7268306,5.58927869 14.7334973,5.73714754 C14.769235,6.54742077 15.0869399,13.666 15.1891257,14.1262186 C15.252623,14.4110273 15.3051913,16.2019563 15.3277049,17.4373661 L9.97010929,17.5782404 L4.61229508,17.4373661 C4.63480874,16.2019563 4.68737705,14.4110273 4.75065574,14.1262186 C4.85295082,13.666 5.17076503,6.54742077 5.20661202,5.73714754 C5.2131694,5.58927869 5.10387978,5.46162842 4.95666667,5.44545355 C4.81218579,5.42851366 4.67513661,5.52949727 4.64912568,5.67528962 L2.95010929,15.1890601 L0.604754098,14.7845792 C1.43,9.886 2.81043716,2.56239344 3.36169399,1.7355082 C3.90781421,0.916273224 6.01590164,0.630371585 7.01830601,0.57168306 C7.2257377,1.16119126 7.95174863,2.67365027 9.94202186,2.67343169 C9.99469945,2.67343169 10.0486885,2.67244809 10.1031148,2.6702623 L10.1148087,2.6702623 C10.3684699,2.6702623 12.2459563,2.59987978 12.922459,0.57168306 C13.9249727,0.630480874 16.0321858,0.916491803 16.5780874,1.7355082 C17.1293443,2.56239344 18.5097814,9.886 19.3352459,14.7845792 L16.9898907,15.1890601 Z M9.97153005,1.11157377 C10.1012568,1.11507104 11.2842077,1.13102732 12.2010383,0.837147541 C11.514918,2.14239344 10.1753552,2.11157377 10.1113115,2.10829508 C10.1034426,2.1080765 10.0954645,2.1080765 10.0871585,2.10829508 C8.66409836,2.16731148 7.99415301,1.33616393 7.70125683,0.757038251 C8.20836066,0.92020765 8.98377049,1.1144153 9.80136612,1.1144153 C9.85786885,1.1144153 9.91469945,1.11354098 9.97153005,1.11157377 L9.97153005,1.11157377 Z M19.9361202,14.9676393 C19.7255191,13.7091694 17.8551366,2.63714754 17.0460656,1.42370492 C16.1910929,0.141300546 13.0774317,0.0105901639 12.7254098,-6.30570376e-05 C12.7212568,-6.30570376e-05 12.717541,0.000535519126 12.7136066,0.000535519126 C12.7059563,0.000644808743 12.698306,0.00119125683 12.6906557,0.00184699454 C12.6793989,0.00283060109 12.6683607,0.00457923497 12.6574317,0.00676502732 C12.6528415,0.00774863388 12.6483607,0.00873224044 12.6436612,0.00982513661 C12.6055191,0.0197704918 12.5708743,0.0368196721 12.5412568,0.0605355191 C11.9469399,0.499005464 10.4901093,0.561846995 9.97699454,0.549387978 C9.97131148,0.549169399 9.9657377,0.549387978 9.95994536,0.549497268 C8.74562842,0.592229508 7.55,0.113540984 7.36300546,0.0351803279 C7.3247541,0.0129945355 7.28081967,0.000972677596 7.23404372,0.000535519126 C7.23043716,0.000316939891 7.2268306,0.000207650273 7.22333333,0.000207650273 C7.22027322,0.000316939891 7.21743169,-6.30570376e-05 7.21448087,-6.30570376e-05 C6.86234973,0.0105901639 3.74879781,0.141300546 2.89382514,1.42370492 C2.08464481,2.63714754 0.214480874,13.7091694 0.00387978142,14.9676393 C-0.0215846995,15.1202077 0.0809289617,15.2646885 0.233387978,15.2911366 L3.13,15.7905902 C3.28300546,15.8168197 3.42748634,15.715071 3.45437158,15.5629399 L4.44213115,10.0321202 C4.3404918,12.0706995 4.24311475,13.8078579 4.20180328,14.0042514 C4.09874317,14.4681858 4.05054645,17.3766011 4.04540984,17.7065464 C4.04289617,17.8606448 4.16497268,17.9878579 4.31918033,17.9919016 L9.87415301,18.1381311 C9.89131148,18.141082 9.90825137,18.1427213 9.92748634,18.141847 L9.97010929,18.1407541 L10.0125137,18.141847 C10.0150273,18.1420818 10.017541,18.1420818 10.0200546,18.1420818 C10.0355738,18.1420818 10.0509836,18.1406448 10.0659563,18.1381311 L15.620929,17.9919016 C15.774918,17.9878579 15.8969945,17.8606448 15.8946995,17.7065464 C15.8895628,17.3766011 15.8410383,14.4681858 15.7381967,14.0045792 C15.6968852,13.8080765 15.5993989,12.0706995 15.4978689,10.0320109 L16.4855191,15.5629399 C16.512623,15.7149617 16.656776,15.816929 16.81,15.7905902 L19.7065027,15.2911366 C19.8589617,15.2646885 19.9615847,15.1202077 19.9361202,14.9676393 L19.9361202,14.9676393 Z" id="Fill-1" fill="#344154" mask="url(#mask-2)"></path>
            </g>
            <path d="M8.12355191,7.5237377 C8.01382514,7.41401093 7.83590164,7.41401093 7.72606557,7.5237377 L7.20071038,8.04931148 L6.6752459,7.5237377 C6.56540984,7.41401093 6.38748634,7.41401093 6.27775956,7.5237377 C6.16781421,7.63368306 6.16781421,7.81149727 6.27775956,7.92133333 L6.80311475,8.44668852 L6.27775956,8.97215301 C6.16781421,9.08198907 6.16781421,9.25991257 6.27775956,9.36974863 C6.33262295,9.42461202 6.40453552,9.45215301 6.47655738,9.45215301 C6.54846995,9.45215301 6.62038251,9.42461202 6.6752459,9.36974863 L7.20071038,8.84417486 L7.72606557,9.36974863 C7.78092896,9.42461202 7.85284153,9.45215301 7.92486339,9.45215301 C7.99677596,9.45215301 8.06868852,9.42461202 8.12355191,9.36974863 C8.23349727,9.25991257 8.23349727,9.08198907 8.12355191,8.97215301 L7.59819672,8.44668852 L8.12355191,7.92133333 C8.23349727,7.81149727 8.23349727,7.63368306 8.12355191,7.5237377" id="Fill-4" fill="#F7778A"></path>
            <path d="M10.8205792,7.5237377 C10.7106339,7.41401093 10.5328197,7.41401093 10.4229836,7.5237377 L9.89762842,8.04931148 L9.37205464,7.5237377 C9.26232787,7.41401093 9.08440437,7.41401093 8.97456831,7.5237377 C8.86484153,7.63368306 8.86484153,7.81149727 8.97456831,7.92133333 L9.50014208,8.44668852 L8.97456831,8.97215301 C8.86484153,9.08198907 8.86484153,9.25991257 8.97456831,9.36974863 C9.02943169,9.42461202 9.10145355,9.45215301 9.17336612,9.45215301 C9.24527869,9.45215301 9.31719126,9.42461202 9.37205464,9.36974863 L9.89762842,8.84417486 L10.4229836,9.36974863 C10.4779563,9.42461202 10.5497596,9.45215301 10.6217814,9.45215301 C10.693694,9.45215301 10.7656066,9.42461202 10.8205792,9.36974863 C10.930306,9.25991257 10.930306,9.08198907 10.8205792,8.97215301 L10.2950055,8.44668852 L10.8205792,7.92133333 C10.930306,7.81149727 10.930306,7.63368306 10.8205792,7.5237377" id="Fill-6" fill="#F7778A"></path>
            <path d="M13.1417049,8.44672131 L13.6672787,7.92125683 C13.7768962,7.81153005 13.7768962,7.63349727 13.6672787,7.52377049 C13.5573333,7.41404372 13.3795191,7.41404372 13.2696831,7.52377049 L12.7442186,8.04923497 L12.2189727,7.52377049 C12.1091366,7.41404372 11.9312131,7.41404372 11.8214863,7.52377049 C11.711541,7.63349727 11.711541,7.81153005 11.8214863,7.92125683 L12.3468415,8.44672131 L11.8214863,8.97218579 C11.711541,9.08191257 11.711541,9.25994536 11.8214863,9.36967213 C11.8763497,9.42453552 11.9482623,9.4520765 12.0201749,9.4520765 C12.0920874,9.4520765 12.1641093,9.42453552 12.2189727,9.36967213 L12.7442186,8.84431694 L13.2696831,9.36967213 C13.3246557,9.42453552 13.396459,9.4520765 13.4683716,9.4520765 C13.5402842,9.4520765 13.612306,9.42453552 13.6672787,9.36967213 C13.7768962,9.25994536 13.7768962,9.08191257 13.6672787,8.97218579 L13.1417049,8.44672131 Z" id="Fill-8" fill="#F7778A"></path>
        </g>
    </g>
</svg>