<svg xmlns="http://www.w3.org/2000/svg" xmlns:xlink="http://www.w3.org/1999/xlink" width="21" height="14" viewBox="0 0 21 14">
    <defs>
        <path id="prefix__a" d="M0 0L21 0 21 14 0 14z"/>
    </defs>
    <g fill="none" fill-rule="evenodd">
        <mask id="prefix__b" fill="#fff">
            <use xlink:href="#prefix__a"/>
        </mask>
        <path fill="#002B49" d="M10.5.726c-.219 0-.438.035-.645.104L.992 3.793c-.303.101-.326.363-.326.441 0 .079.023.341.326.442l2.016.674-.31.417c-.306.412-.477.898-.495 1.407l-.006.2-.16.1c-.222.139-.355.375-.355.633 0 .312.188.504.3.59l.181.14-.86 4.206c-.015.078.015.134.035.161.02.027.064.071.137.071h1.782c.074 0 .118-.044.137-.07.02-.028.05-.084.034-.162L2.57 8.837l.18-.14c.113-.086.3-.278.3-.59 0-.251-.123-.477-.337-.62l-.169-.113.01-.215c.029-.625.32-1.19.801-1.55l.133-.098 6.367 2.128c.295.099.759.179 1.291 0l8.863-2.963c.303-.1.326-.363.326-.441 0-.078-.023-.34-.326-.442L11.146.83c-.208-.07-.427-.104-.646-.104zM3.257 14H1.475c-.257 0-.496-.125-.656-.343-.16-.217-.22-.498-.166-.771l.768-3.756c-.26-.275-.405-.637-.405-1.023 0-.455.197-.872.534-1.15.04-.427.161-.838.36-1.216L.795 5.37C.312 5.207 0 4.762 0 4.234c0-.527.313-.972.796-1.134L9.66.138c.55-.184 1.132-.184 1.682 0L20.204 3.1c.484.162.796.607.796 1.135 0 .527-.312.972-.796 1.135L11.34 8.332c-.694.231-1.298.129-1.682 0L3.61 6.31c-.192.186-.321.43-.37.7.301.278.476.673.476 1.097 0 .386-.145.748-.405 1.023l.768 3.756c.055.273-.005.554-.165.771-.16.218-.4.343-.657.343zm1.476-2.556c.035.771 2.223 1.831 5.767 1.831 3.544 0 5.732-1.06 5.766-1.831l-.398-3.468L11.64 9.39c-.942.314-1.76.173-2.28 0L5.133 7.975l-.399 3.468zM10.5 14c-3.119 0-6.433-.902-6.433-2.575l.002-.045.5-4.35 4.986 1.666c.431.145 1.108.262 1.889 0L16.43 7.03l.502 4.395c0 1.673-3.314 2.575-6.433 2.575z" mask="url(#prefix__b)"/>
    </g>
</svg>
