<svg xmlns="http://www.w3.org/2000/svg" width="36" height="36" viewBox="0 0 36 36">
    <defs>
        <linearGradient id="b06vk2fadb" x2="1" y2="1" gradientUnits="objectBoundingBox">
            <stop offset="0" stop-color="#ffc500"/>
            <stop offset="1" stop-color="#f83600"/>
        </linearGradient>
        <clipPath id="txd9bpk58a">
            <path fill="#fff" stroke="#707070" d="M0 0H36V36H0z" transform="translate(579 890)"/>
        </clipPath>
    </defs>
    <g clip-path="url(#txd9bpk58a)" transform="translate(-579 -890)">
        <path fill="url(#b06vk2fadb)" d="M589.594 818.116h-.257v-9.125a9.316 9.316 0 0 0-18.632 0v9.125h-.257a3.949 3.949 0 0 0-3.944 3.944v4.861a1.463 1.463 0 0 0 1.461 1.461h24.112a1.463 1.463 0 0 0 1.461-1.461v-4.861a3.949 3.949 0 0 0-3.944-3.944zm-15.966 0v-9.125a6.393 6.393 0 0 1 12.787 0v9.125zm-4.2 3.944a1.023 1.023 0 0 1 1.022-1.022h19.146a1.023 1.023 0 0 1 1.022 1.022v3.4h-21.19zm9.134-25.781v-2.435a1.461 1.461 0 0 1 2.922 0v2.435a1.461 1.461 0 0 1-2.922 0zm-11.28 3.448a1.461 1.461 0 0 1 2.067-2.067l1.722 1.722a1.461 1.461 0 0 1-2.071 2.067zm21.693 1.722a1.463 1.463 0 0 1 0-2.067l1.722-1.722a1.461 1.461 0 0 1 2.066 2.067l-1.722 1.722a1.461 1.461 0 0 1-2.066 0zm-7.491 3.455a1.463 1.463 0 0 1-1.461 1.461 2.63 2.63 0 0 0-2.627 2.627 1.461 1.461 0 0 1-2.922 0 5.556 5.556 0 0 1 5.55-5.549 1.463 1.463 0 0 1 1.458 1.457z" transform="translate(16.496 97.617)"/>
    </g>
</svg>
