<svg xmlns="http://www.w3.org/2000/svg" width="36" height="36" viewBox="0 0 36 36">
    <defs>
        <linearGradient id="syeinb1fxb" x1=".1" x2=".901" y1=".014" y2=".689" gradientUnits="objectBoundingBox">
            <stop offset="0" stop-color="#0ff"/>
            <stop offset="1" stop-color="#a23aff"/>
        </linearGradient>
        <clipPath id="2bmvpit90a">
            <path fill="#022b49" stroke="#707070" d="M0 0H36V36H0z" transform="translate(706 883)"/>
        </clipPath>
    </defs>
    <g clip-path="url(#2bmvpit90a)" transform="translate(-706 -883)">
        <path fill="url(#syeinb1fxb)" d="M888.148 540.048v16.837a1.616 1.616 0 0 1-3.231 0v-16.837a1.616 1.616 0 1 1 3.231 0zm4.94-7.548h-13.175a4.385 4.385 0 0 0-4.38 4.38v1.926a1.618 1.618 0 0 0 1.615 1.617 1.618 1.618 0 0 0 1.615-1.617v-1.93a1.146 1.146 0 0 1 1.147-1.145h13.182a1.148 1.148 0 0 1 1.144 1.144v1.931a1.615 1.615 0 0 0 3.231 0v-1.931a4.385 4.385 0 0 0-4.374-4.375z" transform="translate(-162.533 355.5)"/>
    </g>
</svg>
