<svg xmlns="http://www.w3.org/2000/svg" width="36" height="36" viewBox="0 0 36 36">
    <defs>
        <linearGradient id="x6occoomjb" x1=".138" x2=".862" y1=".245" y2=".969" gradientUnits="objectBoundingBox">
            <stop offset="0" stop-color="#0ff"/>
            <stop offset="1" stop-color="#a23aff"/>
        </linearGradient>
        <clipPath id="0a1bib1qda">
            <path fill="#fff" d="M0 0H36V36H0z" transform="translate(571 938)"/>
        </clipPath>
    </defs>
    <g clip-path="url(#0a1bib1qda)" transform="translate(-571 -938)">
        <path fill="url(#x6occoomjb)" d="M945.964 548.763l.475-1a10.939 10.939 0 0 0 1.087-4.383v-.272a10.611 10.611 0 0 0-3.555-7.879 12.718 12.718 0 0 0-16.893 0 10.748 10.748 0 0 0-3.5 6.846 8.943 8.943 0 0 0-4.043 7.367 8.587 8.587 0 0 0 1.629 5.027l-1.536 3.8a1.271 1.271 0 0 0 1.691 1.639l4.472-1.971a10.511 10.511 0 0 0 3.59.626h.081a10.423 10.423 0 0 0 5.171-1.4 9.524 9.524 0 0 0 3.285-3.171 12.536 12.536 0 0 0 2.116-.589l5.715 2.52a1.284 1.284 0 0 0 1.4-.251 1.256 1.256 0 0 0 .3-1.365zm-2.5-.615a1.362 1.362 0 0 0-.015.9l1.261 3.784-4.139-1.975a1.263 1.263 0 0 0-1.012-.006 10.234 10.234 0 0 1-4.03.814c-5.66 0-9.462-4.423-9.462-8.553 0-4.716 4.245-8.552 9.462-8.552 5.04 0 9.462 4.052 9.462 8.671a8.481 8.481 0 0 1-1.117 4.2zm-14.13 7.873a7.925 7.925 0 0 1-3.075-.63 1.27 1.27 0 0 0-1.011.006l-2.094.923.638-1.578a1.266 1.266 0 0 0-.211-1.3 6.1 6.1 0 0 1-1.507-4 6.167 6.167 0 0 1 1.687-4.2 11.178 11.178 0 0 0 3.173 5.575 12.271 12.271 0 0 0 7.522 3.345 7.792 7.792 0 0 1-5.078 1.856z" transform="translate(-344.535 409.981)"/>
    </g>
</svg>
