<svg xmlns="http://www.w3.org/2000/svg" width="36" height="36" viewBox="0 0 36 36">
    <defs>
        <clipPath id="f0arldqfsa">
            <path fill="#fff" stroke="#707070" d="M0 0H36V36H0z" transform="translate(1669 57)"/>
        </clipPath>
    </defs>
    <g clip-path="url(#f0arldqfsa)" transform="translate(-1669 -57)">
        <path fill="#353b67" stroke="rgba(0,0,0,0)" stroke-miterlimit="10" d="M-5586.652-7.41a1.283 1.283 0 0 1-1.287-1.276v-23.348a1.283 1.283 0 0 1 1.287-1.277h9.809a1.283 1.283 0 0 1 1.287 1.277 1.282 1.282 0 0 1-1.287 1.276h-8.521v20.8h20.965v-8.452a1.284 1.284 0 0 1 1.288-1.277 1.284 1.284 0 0 1 1.288 1.277v9.729a1.283 1.283 0 0 1-1.288 1.276zm7.408-9.8a1.283 1.283 0 0 1-.836-1.38l.518-3.6a13.09 13.09 0 0 1 12.928-11.119h.273v-2.615a1.28 1.28 0 0 1 .754-1.162 1.293 1.293 0 0 1 1.382.2l7.845 6.809a1.269 1.269 0 0 1 .44.96 1.268 1.268 0 0 1-.441.961l-7.845 6.809a1.294 1.294 0 0 1-1.381.2 1.28 1.28 0 0 1-.754-1.162v-2.611h-1.016a10.449 10.449 0 0 0-8.891 4.886l-1.445 2.3a1.3 1.3 0 0 1-1.092.6 1.318 1.318 0 0 1-.439-.079zm2.7-6.543a13.052 13.052 0 0 1 9.164-3.718h2.3a1.284 1.284 0 0 1 1.288 1.277v1.077l4.605-4-4.605-4v1.078a1.283 1.283 0 0 1-1.288 1.276h-1.561a10.547 10.547 0 0 0-9.9 7.007z" transform="translate(7258.939 97.203)"/>
    </g>
</svg>
