<svg xmlns="http://www.w3.org/2000/svg" width="36" height="36" viewBox="0 0 36 36">
    <defs>
        <clipPath id="fikq7clhwa">
            <path fill="#fff" d="M0 0H36V36H0z" transform="translate(2486 -130)"/>
        </clipPath>
    </defs>
    <g clip-path="url(#fikq7clhwa)" transform="translate(-2486 130)">
        <path fill="#353b67" d="M225.993 46.127l.475-1a10.938 10.938 0 0 0 1.087-4.383v-.272A10.613 10.613 0 0 0 224 32.593a12.718 12.718 0 0 0-16.893 0 10.752 10.752 0 0 0-3.5 6.846 8.943 8.943 0 0 0-4.043 7.367 8.58 8.58 0 0 0 1.629 5.027l-1.536 3.8a1.271 1.271 0 0 0 1.691 1.639l4.472-1.971a10.478 10.478 0 0 0 3.59.626h.081a10.409 10.409 0 0 0 5.171-1.4 9.526 9.526 0 0 0 3.285-3.17 12.621 12.621 0 0 0 2.116-.589l5.715 2.52a1.286 1.286 0 0 0 1.4-.251 1.256 1.256 0 0 0 .3-1.365zm-2.5-.615a1.363 1.363 0 0 0-.015.9l1.261 3.784-4.139-1.975a1.27 1.27 0 0 0-1.012-.006 10.207 10.207 0 0 1-4.03.814c-5.66 0-9.462-4.423-9.462-8.553 0-4.716 4.245-8.552 9.462-8.552 5.04 0 9.462 4.052 9.462 8.671a8.479 8.479 0 0 1-1.117 4.2zm-17.207 7.243a1.276 1.276 0 0 0-1.011.006l-2.094.923.638-1.578a1.268 1.268 0 0 0-.211-1.3 6.1 6.1 0 0 1-1.507-4 6.168 6.168 0 0 1 1.687-4.2 11.175 11.175 0 0 0 3.173 5.575 12.264 12.264 0 0 0 7.522 3.345 7.786 7.786 0 0 1-5.078 1.856v.192l-.042-.189a7.9 7.9 0 0 1-3.075-.63zm3.117.818z" transform="translate(2290.438 -155.383)"/>
    </g>
</svg>
