<svg xmlns="http://www.w3.org/2000/svg" width="36" height="36" viewBox="0 0 36 36">
    <defs>
        <linearGradient id="a6gp3hmjmb" x1=".036" x2=".826" y1=".117" y2=".964" gradientUnits="objectBoundingBox">
            <stop offset="0" stop-color="#0ff"/>
            <stop offset="1" stop-color="#a23aff"/>
        </linearGradient>
        <clipPath id="p3kbm8h8ya">
            <path fill="#fff" stroke="#707070" d="M0 0H36V36H0z" transform="translate(557 940)"/>
        </clipPath>
    </defs>
    <g clip-path="url(#p3kbm8h8ya)" transform="translate(-557 -940)">
        <path fill="url(#a6gp3hmjmb)" d="M838.787 630.439a1.284 1.284 0 0 1-1.287-1.276v-23.348a1.283 1.283 0 0 1 1.287-1.277h9.813a1.277 1.277 0 1 1 0 2.553h-8.521v20.8h20.961v-8.452a1.288 1.288 0 0 1 2.576 0v9.729a1.283 1.283 0 0 1-1.288 1.276zm7.409-9.8a1.283 1.283 0 0 1-.836-1.38l.518-3.6a13.09 13.09 0 0 1 12.928-11.119h.273v-2.615a1.28 1.28 0 0 1 .754-1.162 1.294 1.294 0 0 1 1.382.2l7.845 6.809a1.267 1.267 0 0 1 0 1.921l-7.845 6.809a1.3 1.3 0 0 1-1.381.2 1.281 1.281 0 0 1-.754-1.162v-2.611h-1.016a10.447 10.447 0 0 0-8.891 4.886l-1.445 2.3a1.3 1.3 0 0 1-1.092.6 1.321 1.321 0 0 1-.44-.079zm2.7-6.543a13.046 13.046 0 0 1 9.164-3.718h2.3a1.284 1.284 0 0 1 1.288 1.277v1.077l4.6-4-4.6-4v1.078a1.284 1.284 0 0 1-1.288 1.276h-1.56a10.546 10.546 0 0 0-9.9 7.007z" transform="translate(-278.5 342.353)"/>
    </g>
</svg>
