<svg xmlns="http://www.w3.org/2000/svg" width="36" height="36" viewBox="0 0 36 36">
    <defs>
        <clipPath id="hys0drlyqa">
            <path fill="#022b49" stroke="#707070" d="M0 0H36V36H0z" transform="translate(2323 -273)"/>
        </clipPath>
    </defs>
    <g clip-path="url(#hys0drlyqa)" transform="translate(-2323 273)">
        <path fill="#353b67" d="M48.2 88.858v16.837a1.615 1.615 0 0 1-3.231 0V88.858a1.615 1.615 0 1 1 3.231 0zm4.94-7.548H39.965a4.385 4.385 0 0 0-4.38 4.38v1.926a1.618 1.618 0 0 0 1.615 1.617 1.618 1.618 0 0 0 1.615-1.617v-1.93a1.146 1.146 0 0 1 1.147-1.145h13.182a1.148 1.148 0 0 1 1.144 1.144v1.931a1.615 1.615 0 0 0 3.231 0v-1.931a4.386 4.386 0 0 0-4.374-4.375z" transform="translate(2294.415 -349.31)"/>
    </g>
</svg>
