<svg xmlns="http://www.w3.org/2000/svg" width="36" height="36" viewBox="0 0 36 36">
    <defs>
        <linearGradient id="oem5wcpo6b" x1="-.041" x2="1.038" y1=".209" y2=".819" gradientUnits="objectBoundingBox">
            <stop offset="0" stop-color="#0ff"/>
            <stop offset="1" stop-color="#a23aff"/>
        </linearGradient>
        <clipPath id="xxgj884gja">
            <path fill="#353b67" d="M0 0H36V36H0z" transform="translate(904 149)"/>
        </clipPath>
    </defs>
    <g clip-path="url(#xxgj884gja)" transform="translate(-904 -149)">
        <path fill="url(#oem5wcpo6b)" d="M907.5 551.975a7.46 7.46 0 0 0 7.452-7.452v-6.571a7.452 7.452 0 0 0-14.9 0v6.571a7.461 7.461 0 0 0 7.448 7.452zm-.237-2.616a4.8 4.8 0 0 1-4.763-4.836v-6.571a4.805 4.805 0 0 1 4.8-4.838h.2a4.8 4.8 0 0 1 4.8 4.838v6.571a4.8 4.8 0 0 1-4.763 4.836zm9.25 1.963a1.311 1.311 0 0 1-.335.956 11.617 11.617 0 0 1-7.358 3.813v3.761h2.111a1.324 1.324 0 0 1 0 2.647h-6.865a1.324 1.324 0 0 1-.073-2.647h2.184v-3.761a11.618 11.618 0 0 1-7.358-3.812 1.324 1.324 0 0 1 1.973-1.765 8.984 8.984 0 0 0 13.416 0 1.326 1.326 0 0 1 1.869-.1 1.315 1.315 0 0 1 .436.908z" transform="translate(14.498 -379.673)"/>
    </g>
</svg>
