<svg xmlns="http://www.w3.org/2000/svg" width="88.153" height="37.977" viewBox="0 0 88.153 37.977"><path d="M523.788,762.529a7.02,7.02,0,0,1,3.816,1.008l.168-.935h2.568v13.081h-2.568l-.168-.913a7.224,7.224,0,0,1-3.816,1.008c-4.009,0-6.505-2.544-6.505-6.624C517.283,765.05,519.779,762.529,523.788,762.529Zm.119,10.274c2.377,0,3.529-1.2,3.529-3.649,0-2.472-1.152-3.673-3.529-3.673s-3.528,1.2-3.528,3.673C520.379,771.6,521.531,772.8,523.907,772.8Zm12-15a1.608,1.608,0,1,1-1.608,1.608A1.434,1.434,0,0,1,535.907,757.8Zm1.512,4.825v13.057H534.4V762.626Zm-19.176,33.057v-16.8h1.8v7.633h10.825v-7.633h1.8v16.8h-1.8V788.05H520.043v7.633ZM536.626,782.6h1.728v7.249a4.742,4.742,0,0,0,.985,3.311,4.335,4.335,0,0,0,2.928.984,5.533,5.533,0,0,0,3-.887,3.768,3.768,0,0,0,1.585-3.289v-7.344h1.728v13.032h-1.369l-.383-1.7a6.761,6.761,0,0,1-4.873,1.824c-3.216,0-5.329-1.343-5.329-5.424Zm17.065.047.384,1.681a6.143,6.143,0,0,1,4.512-1.8c2.184,0,3.817.769,4.657,2.4a6.309,6.309,0,0,1,5.184-2.4c3.217,0,5.281,1.681,5.281,5.425v7.753H571.98v-7.249a4.682,4.682,0,0,0-.96-3.313,3.939,3.939,0,0,0-2.712-.984,5.219,5.219,0,0,0-2.832.889,4.1,4.1,0,0,0-1.584,3.408v7.249h-1.728v-7.249a4.746,4.746,0,0,0-.984-3.313,3.942,3.942,0,0,0-2.713-.984,5.034,5.034,0,0,0-2.832.889,4.254,4.254,0,0,0-1.584,3.408v7.225h-1.728V782.649Zm23.016,6.505c0-4.177,2.4-6.625,6.48-6.625a6.334,6.334,0,0,1,4.849,1.824l.359-1.727h1.345v13.057H588.4l-.359-1.752a6.346,6.346,0,0,1-4.849,1.847C579.107,795.778,576.707,793.307,576.707,789.154Zm1.8,0c0,3.24,1.68,4.968,4.824,4.968s4.825-1.728,4.825-4.968c0-3.264-1.68-4.969-4.825-4.969S578.507,785.89,578.507,789.154Zm14.975-6.505h1.369l.384,1.7a6.756,6.756,0,0,1,4.872-1.824c3.216,0,5.329,1.681,5.329,5.425v7.729h-1.728v-7.2a4.744,4.744,0,0,0-.96-3.337,4.417,4.417,0,0,0-2.953-.984,5.332,5.332,0,0,0-3,.889,3.825,3.825,0,0,0-1.584,3.288v7.345h-1.729Z" transform="translate(-517.283 -757.801)" fill="#fff" style="isolation:isolate"/></svg>