<svg width="100" height="100" viewBox="0 0 100 100" fill="none" xmlns="http://www.w3.org/2000/svg">
<path d="M40.1 7C36 8.1 30.8 10.1 28.5 11.4C23.7 14.2 15.8 22.1 12.8 27.1C10.2 31.3 7 40.5 7 43.7C7 45 6 47.4 4.8 49.1C2.1 52.7 1.1 64.7 3 70.5C4.5 74.9 8 76.7 12.1 75C15.7 73.4 16.9 70 16.9 60.8C16.8 54.5 16.4 52.4 14.6 49.8C12.8 47.1 12.6 45.7 13.1 42.3C15.2 30.7 25.4 18.3 36.7 13.9C45.3 10.6 57.4 10.7 65.3 14.3C77.2 19.7 84.7 28.5 87.6 40.3C89.3 47 88.5 47.5 86.4992 49.8C84.6992 52.4 84.2992 54.5 84.1992 60.8C84.1992 70 85.3992 73.4 88.9992 75C93.0992 76.7 96.5992 74.9 98.0992 70.5C99.9992 64.7 98.9992 52.7 96.2992 49.1C96.2572 49.0405 96.2061 48.9876 96.1466 48.9408C95.2868 47.3416 94.5046 44.1708 93.8 41C91.5 32 89.8 28.1 85 22.1C74.4 8.70001 56.3 2.6 40.1 7Z" fill="#A4A4A8"/>
<path d="M82.1318 41.1C79.1318 30.4 70.9541 21.8 59.9541 18.4C56.9253 17.4465 53.816 17.0068 50.727 17.0294C47.6381 17.0068 44.5288 17.4465 41.5 18.4C30.5 21.8 22.2 30.4 19.2 41.1C19.0394 41.7224 18.915 42.2642 18.8318 42.7513C18.7457 43.1891 18.7047 43.5748 18.7108 43.9404C18.692 45.2079 19.1073 46.173 20.1 47.6C21.6 49.9 22 52.4 22 59.6C22 67.3 22.4 69.4 24.7 73.9C28.0535 80.6909 34.0078 86.8492 39.9698 89.9589C40.1192 90.1638 40.5365 90.4295 41.1541 90.8C43.6313 92.1896 47.0575 92.8492 50.7271 92.7125C54.3966 92.8492 57.8229 92.1896 60.3 90.8C60.9176 90.4295 61.3349 90.1638 61.4843 89.9589C67.4463 86.8492 73.4006 80.6909 76.7541 73.9C79.0541 69.4 79.4541 67.3 79.4541 59.6C79.4541 52.4 80 50 81 48C81.7774 46.4452 82.6398 45.2079 82.621 43.9405C82.6272 43.5749 82.5861 43.1892 82.5 42.7513C82.4168 42.2642 82.2925 41.7224 82.1318 41.1Z" fill="#A4A4A8"/>
</svg>
