<svg width="100" height="121" viewBox="0 0 100 121" fill="none" xmlns="http://www.w3.org/2000/svg">
<path d="M40.1 7C36 8.1 30.8 10.1 28.5 11.4C23.7 14.2 15.8 22.1 12.8 27.1C10.2 31.3 7 40.5 7 43.7C7 45 6 47.4 4.8 49.1C2.1 52.7 1.1 64.7 3 70.5C4.5 74.9 8 76.7 12.1 75C15.7 73.4 16.9 70 16.9 60.8C16.8 54.5 16.4 52.4 14.6 49.8C12.8 47.1 12.6 45.7 13.1 42.3C15.2 30.7 25.4 18.3 36.7 13.9C45.3 10.6 57.4 10.7 65.3 14.3C77.2 19.7 84.7 28.5 87.6 40.3C89.3 47 89.3 47.1 87.2 49.3C85.2 51.4 85 52.8 85 61.8C85 71.5 84.9 72 82.6 73.6C78.2 76.4 69.1 78.3 66 77C59.6 74.3 52 77.5 54.6 81.7C55.9 83.8 63.5 84.7 65.5 83C66.3 82.4 69.6 81.2 73 80.4C76.4 79.6 80.5 78.2 82.3 77.3C84.1 76.4 87.6 75.5 90.2 75.5C97.9 75.2 99 73.6 99 62C99 54.1 98.7 51.8 97.2 49.9C96.2 48.6 94.6 44.6 93.8 41C91.5 32 89.8 28.1 85 22.1C74.4 8.7 56.3 2.6 40.1 7Z" fill="#4C60BF"/>
<path d="M41.5 18.4C30.5 21.8 22.2 30.4 19.2 41.1C18.4 44.2 18.5 45.3 20.1 47.6C21.6 49.9 22 52.4 22 59.6C22 67.3 22.4 69.4 24.7 73.9C28.7 82 36.4 89.2 43.4 91.4C49.5 93.4 56.2 93.1 60.3 90.8C62.3 89.6 62.2 89.5 57.7 89C52.1 88.3 49.2 85.8 48.4 80.8C47.9 77.8 48.3 76.7 50.8 73.9C54 70.3 55 70.2 70.5 71.1C72.2 71.2 74.7 70.8 76.3 70.2C79 69.1 79 68.9 79 60.4C79 53.5 79.4 51 81.1 48C83.2 44.4 83.2 44.1 81.6 39.3C76.2 22.9 57.7 13.3 41.5 18.4Z" fill="#4C60BF"/>
<path d="M25.1531 88.4066C25.3469 93.2011 28.8824 96.737 33.6384 96.8919" stroke="black" stroke-opacity="0.9" stroke-width="3" stroke-linecap="round" stroke-linejoin="round"/>
<path d="M18.082 88.4066C18.2827 97.2265 24.7343 103.745 33.6384 103.963" stroke="black" stroke-opacity="0.9" stroke-width="3" stroke-linecap="round" stroke-linejoin="round"/>
<path d="M9.30387 89.1137C9.12043 103.034 19.0383 113.153 33.3455 113.155" stroke="black" stroke-opacity="0.9" stroke-width="3" stroke-linecap="round" stroke-linejoin="round"/>
</svg>
