<svg xmlns="http://www.w3.org/2000/svg" id="그룹_30" width="95.772" height="102.895" viewBox="0 0 95.772 102.895">
    <defs>
        <style>
            .cls-1{fill:#8487f5}
        </style>
    </defs>
    <g id="그룹_29">
        <g id="사각형_14" transform="translate(38.503 93.395)">
            <path id="사각형_24" d="M0 0H17.037V2.434H0z" class="cls-1"/>
        </g>
        <g id="그룹_23" transform="translate(0 25.067)">
            <g id="그룹_20" transform="translate(49.162)">
                <g id="그룹_19">
                    <path id="패스_138" d="M417.729 662.709h-36.777a4.921 4.921 0 0 0-4.917 4.917v12.242a4.921 4.921 0 0 0 4.917 4.917h1.789v7.034a2.6 2.6 0 0 0 4.3 1.988l10.008-8.5a2.18 2.18 0 0 1 1.414-.52h19.273a4.921 4.921 0 0 0 4.915-4.917v-12.244a4.92 4.92 0 0 0-4.922-4.917z" class="cls-1" transform="translate(-376.035 -662.709)"/>
                </g>
            </g>
            <g id="그룹_22" transform="translate(0 17.206)">
                <g id="그룹_21">
                    <path id="패스_139" d="M348.531 677.252v12.242a4.923 4.923 0 0 0 4.915 4.917h19.277a2.18 2.18 0 0 1 1.414.52l10.008 8.5a2.607 2.607 0 0 0 4.3-1.988v-7.034h1.789a4.921 4.921 0 0 0 4.917-4.917v-12.238a4.921 4.921 0 0 0-4.917-4.916h-36.787a4.923 4.923 0 0 0-4.916 4.914z" class="cls-1" transform="translate(-348.531 -672.335)"/>
                </g>
            </g>
        </g>
        <g id="그룹_28" transform="translate(17.832)">
            <g id="그룹_24">
                <path id="패스_140" d="M361.826 661.96h53.107v8.846h3.319v-13.824a8.307 8.307 0 0 0-8.3-8.3h-43.146a8.306 8.306 0 0 0-8.3 8.3v31.032h3.319zm0-4.978a4.989 4.989 0 0 1 4.98-4.98h43.149a4.99 4.99 0 0 1 4.978 4.98v1.659h-53.107z" class="cls-1" transform="translate(-358.507 -648.685)"/>
            </g>
            <path id="선_1" fill="#5d6db1" d="M3.319 0L0 0" transform="translate(0 39.329)"/>
            <g id="그룹_25" transform="translate(56.537 49.161)">
                <path id="사각형_25" d="M0 0H3.319V33.819H0z" class="cls-1"/>
            </g>
            <g id="그룹_26" transform="translate(0 66.368)">
                <path id="사각형_26" d="M0 0H3.319V16.612H0z" class="cls-1"/>
            </g>
            <g id="그룹_27" transform="translate(0 86.299)">
                <path id="패스_141" d="M358.507 696.965v8.3a8.309 8.309 0 0 0 8.3 8.3h43.149a8.308 8.308 0 0 0 8.3-8.3v-8.3zm56.427 8.3a4.99 4.99 0 0 1-4.978 4.978h-43.15a4.99 4.99 0 0 1-4.978-4.978v-4.98h53.107z" class="cls-1" transform="translate(-358.507 -696.965)"/>
            </g>
        </g>
    </g>
</svg>
