<svg xmlns="http://www.w3.org/2000/svg" width="96.975" height="102.895" viewBox="0 0 96.975 102.895">
    <defs>
        <style>
            .cls-1{fill:#8285f3}.cls-2{fill:#fff}
        </style>
    </defs>
    <g id="그룹_38">
        <g id="그룹_37">
            <g id="패스_38" transform="translate(12.294 14.627)">
                <path id="패스_154" d="M65.637 661.651a1.678 1.678 0 0 0 2.192-.1 1.532 1.532 0 0 0-.1-2.175 1.554 1.554 0 0 0-2.188.1 1.532 1.532 0 0 0 .096 2.175z" class="cls-1" transform="translate(-65.134 -658.974)"/>
            </g>
            <g id="패스_39" transform="translate(7.053 21.492)">
                <path id="패스_155" d="M63.163 665.361a1.606 1.606 0 0 0 2.136-.5 1.53 1.53 0 0 0-.5-2.118 1.556 1.556 0 0 0-2.134.5 1.537 1.537 0 0 0 .498 2.118z" class="cls-1" transform="translate(-62.432 -662.513)"/>
            </g>
            <g id="패스_40" transform="translate(18.706 8.83)">
                <path id="패스_156" d="M69.991 659.069a1.588 1.588 0 0 0 1.238-2.469 1.559 1.559 0 0 0-2.173-.3 1.534 1.534 0 0 0-.3 2.157 1.553 1.553 0 0 0 1.235.612z" class="cls-1" transform="translate(-68.439 -655.986)"/>
            </g>
            <g id="패스_41" transform="translate(3.173 29.197)">
                <path id="패스_157" d="M61.424 669.461a1.629 1.629 0 0 0 2-.879 1.535 1.535 0 0 0-.883-1.992 1.541 1.541 0 1 0-1.123 2.871z" class="cls-1" transform="translate(-60.431 -666.485)"/>
            </g>
            <g id="패스_42" transform="translate(.798 37.481)">
                <path id="패스_158" d="M60.473 673.808a1.656 1.656 0 0 0 1.808-1.232 1.55 1.55 0 1 0-1.808 1.232z" class="cls-1" transform="translate(-59.208 -670.756)"/>
            </g>
            <g id="패스_43" transform="translate(3.152 62.927)">
                <path id="패스_159" d="M61.409 683.976a1.542 1.542 0 0 0 .561 2.98 1.622 1.622 0 0 0 1.519-1.719 1.671 1.671 0 0 0-.072-.378 1.555 1.555 0 0 0-2.006-.883z" class="cls-1" transform="translate(-60.421 -683.873)"/>
            </g>
            <g id="패스_44" transform="translate(.784 54.632)">
                <path id="패스_160" d="M61.033 682.653a1.541 1.541 0 1 0-1.806-1.236 1.548 1.548 0 0 0 1.8 1.236z" class="cls-1" transform="translate(-59.2 -679.597)"/>
            </g>
            <g id="패스_45" transform="translate(0 46.057)">
                <path id="패스_161" d="M60.348 678.257a1.54 1.54 0 1 0-1.552-1.542 1.545 1.545 0 0 0 1.552 1.542z" class="cls-1" transform="translate(-58.796 -675.176)"/>
            </g>
            <g id="패스_46" transform="translate(86.62 71.066)">
                <path id="패스_162" d="M105.83 688.309a1.555 1.555 0 0 0-2.14.475 1.534 1.534 0 0 0 .479 2.126 1.557 1.557 0 0 0 2.14-.475 1.534 1.534 0 0 0-.479-2.126z" class="cls-1" transform="translate(-103.448 -688.068)"/>
            </g>
            <g id="패스_47" transform="translate(87.131 21.918)">
                <path id="패스_163" d="M104.457 662.974a1.533 1.533 0 0 0-.52 2.115 1.612 1.612 0 0 0 2.128.518 1.536 1.536 0 0 0 .563-2.107 1.556 1.556 0 0 0-2.12-.559l-.054.031z" class="cls-1" transform="translate(-103.712 -662.733)"/>
            </g>
            <g id="패스_48" transform="translate(81.97 15.016)">
                <path id="패스_164" d="M101.571 659.567a1.532 1.532 0 0 0-.126 2.175 1.557 1.557 0 0 0 2.19.124 1.532 1.532 0 0 0 .126-2.175 1.555 1.555 0 0 0-2.188-.126z" class="cls-1" transform="translate(-101.051 -659.175)"/>
            </g>
            <g id="패스_49" transform="translate(90.603 63.399)">
                <path id="패스_165" d="M107.6 684.227a1.555 1.555 0 0 0-2.016.857 1.616 1.616 0 0 0 1.044 2.039 1.705 1.705 0 0 0 .4.076 1.538 1.538 0 0 0 .576-2.97z" class="cls-1" transform="translate(-105.502 -684.116)"/>
            </g>
            <g id="패스_50" transform="translate(93.908 46.572)">
                <path id="패스_166" d="M108.776 675.442a1.545 1.545 0 0 0-1.571 1.519v.012a1.634 1.634 0 0 0 1.55 1.556 1.541 1.541 0 0 0 .017-3.081z" class="cls-1" transform="translate(-107.205 -675.442)"/>
            </g>
            <g id="패스_51" transform="translate(90.925 29.68)">
                <path id="패스_167" d="M107.219 669.816a1.548 1.548 0 0 0 1.453-2.081 1.555 1.555 0 0 0-2-.9 1.54 1.54 0 0 0 .545 2.984z" class="cls-1" transform="translate(-105.667 -666.734)"/>
            </g>
            <g id="패스_52" transform="translate(93.205 37.985)">
                <path id="패스_168" d="M106.866 672.821a1.658 1.658 0 0 0 1.794 1.251 1.54 1.54 0 1 0-1.794-1.251z" class="cls-1" transform="translate(-106.843 -671.015)"/>
            </g>
            <g id="패스_53" transform="translate(81.319 77.884)">
                <path id="패스_169" d="M103.322 691.994a1.56 1.56 0 0 0-2.192.08 1.532 1.532 0 0 0 .08 2.175 1.556 1.556 0 0 0 2.19-.078 1.533 1.533 0 0 0-.078-2.177z" class="cls-1" transform="translate(-100.715 -691.583)"/>
            </g>
            <g id="패스_54" transform="translate(93.044 55.139)">
                <path id="패스_170" d="M108.593 679.887a1.551 1.551 0 0 0-1.822 1.212 1.649 1.649 0 0 0 1.447 1.831l.078.008a1.54 1.54 0 0 0 .3-3.052z" class="cls-1" transform="translate(-106.76 -679.858)"/>
            </g>
            <g id="패스_55" transform="translate(50.777 92.584)">
                <path id="패스_171" d="M86.4 699.164a1.546 1.546 0 0 0-1.422 1.661 1.672 1.672 0 0 0 1.67 1.412 1.54 1.54 0 1 0-.25-3.071z" class="cls-1" transform="translate(-84.971 -699.161)"/>
            </g>
            <g id="패스_56" transform="translate(67.434 88.076)">
                <path id="패스_172" d="M94.431 696.992a1.534 1.534 0 0 0-.718 2.054 1.618 1.618 0 0 0 2.072.712 1.538 1.538 0 0 0 .715-2.058 1.556 1.556 0 0 0-2.069-.708z" class="cls-1" transform="translate(-93.558 -696.837)"/>
            </g>
            <g id="패스_57" transform="translate(59.316 91.099)">
                <path id="패스_173" d="M90.517 698.449a1.538 1.538 0 0 0-1.088 1.891 1.65 1.65 0 0 0 1.9 1.084 1.543 1.543 0 1 0-.815-2.976z" class="cls-1" transform="translate(-89.373 -698.395)"/>
            </g>
            <g id="패스_58" transform="translate(75.627 9.149)">
                <path id="패스_174" d="M100.277 656.47a1.559 1.559 0 0 0-2.175.281 1.532 1.532 0 0 0 .283 2.159 1.556 1.556 0 0 0 2.171-.277 1.539 1.539 0 0 0-.281-2.163z" class="cls-1" transform="translate(-97.781 -656.151)"/>
            </g>
            <g id="패스_59" transform="translate(74.849 83.616)">
                <path id="패스_175" d="M98.01 694.839a1.534 1.534 0 0 0-.326 2.155 1.557 1.557 0 0 0 2.169.324 1.534 1.534 0 0 0 .326-2.155 1.56 1.56 0 0 0-2.169-.324z" class="cls-1" transform="translate(-97.38 -694.538)"/>
            </g>
            <g id="패스_60" transform="translate(42.11 92.489)">
                <path id="패스_176" d="M82.206 699.12a1.551 1.551 0 0 0-1.7 1.375 1.659 1.659 0 0 0 1.544 1.7 1.539 1.539 0 0 0 .157-3.073z" class="cls-1" transform="translate(-80.504 -699.112)"/>
            </g>
            <g id="패스_61" transform="translate(3.294)">
                <path id="패스_177" d="M133.53 701.186a5.878 5.878 0 0 0-1.981-4.4 5.948 5.948 0 0 0 .372-8.44c-.12-.13-.244-.254-.372-.37a5.948 5.948 0 0 0 .371-8.442c-.118-.128-.242-.25-.371-.369a5.938 5.938 0 0 0 .31-8.431 6.023 6.023 0 0 0-3.523-1.841v-11.414a6.073 6.073 0 0 0-6.091-6.045H93.3a1.509 1.509 0 0 0 0 3.017h28.943a3.042 3.042 0 0 1 3.049 3.028v.8H87.817v-.8a3.042 3.042 0 0 1 3.051-3.028h3.855a1.509 1.509 0 0 0 0-3.017h-3.854a6.072 6.072 0 0 0-6.085 6.045v22.08a6.423 6.423 0 0 0-8.79 2.13 6.336 6.336 0 0 0-.929 3.2v35.358l-2.842 2.836a8.282 8.282 0 0 0-10.964 4 8.162 8.162 0 0 0 1.657 9.247l9.4 9.375a1.526 1.526 0 0 0 2.147-.027 1.5 1.5 0 0 0 .006-2.1l-9.4-9.376a5.155 5.155 0 0 1 .142-7.325 5.242 5.242 0 0 1 7.212-.018L88.094 742.5a5.189 5.189 0 0 1 0 7.342 5.388 5.388 0 0 1-7.585-.169 5.093 5.093 0 0 1-.367-.423 1.524 1.524 0 0 0-2.147.027 1.5 1.5 0 0 0-.006 2.1c7.232 7.6 18.708-.875 13.259-9.794l2.735-2.729a20.691 20.691 0 0 0 19.88-11.208h8.382a6.075 6.075 0 0 0 6.087-6.045v-14.539a5.93 5.93 0 0 0 5.191-5.876zm-3.038.021a2.9 2.9 0 0 1-2.906 2.887h-2.65a2.9 2.9 0 1 1 0-5.794h2.65a2.905 2.905 0 0 1 2.908 2.9v.006zm0-8.811a2.9 2.9 0 0 1-2.906 2.887h-2.65a2.9 2.9 0 1 1 0-5.794h2.65a2.905 2.905 0 0 1 2.908 2.9v.006zm0-8.811a2.9 2.9 0 0 1-2.906 2.887h-2.65a2.9 2.9 0 1 1 0-5.794h2.65a2.905 2.905 0 0 1 2.908 2.9v.006zm0-8.832a2.982 2.982 0 0 1-2.906 2.908h-2.65a2.9 2.9 0 1 1 0-5.8h2.65a2.9 2.9 0 0 1 2.906 2.886zM95.58 735.912l-2.126-.1a1.528 1.528 0 0 0-1.146.442l-3.094 3.083-14.5-14.464 2.941-2.937a1.505 1.505 0 0 0 .442-1.065v-35.982c0-4.248 6.594-4.248 6.594 0v18.245a1.51 1.51 0 0 0 .916 1.385 13.612 13.612 0 0 1 7.536 9.065 16.818 16.818 0 0 1-1.952 13.944 1.5 1.5 0 0 0 .541 2.064 1.524 1.524 0 0 0 1.955-.359 16.646 16.646 0 0 0 .982-1.583H110.4a17.325 17.325 0 0 1-14.815 8.262zm26.666-11.28H95.932a20.4 20.4 0 0 0 .921-6.953H125.3v3.921a3.045 3.045 0 0 1-3.054 3.032z" class="cls-1" transform="translate(-60.494 -651.434)"/>
            </g>
            <g id="패스_62" transform="translate(33.974 11.608)">
                <path id="패스_178" d="M76.778 664.662a1.558 1.558 0 0 0 2.192-.029l4.539-4.627a1.535 1.535 0 0 0-.083-2.179 1.561 1.561 0 0 0-2.138.027l-4.537 4.629a1.532 1.532 0 0 0 .027 2.179z" class="cls-2" transform="translate(-76.31 -657.418)"/>
            </g>
            <g id="패스_63" transform="translate(33.974 11.608)">
                <path id="패스_179" d="M76.778 674.565a1.557 1.557 0 0 0 2.192-.027l14.252-14.532a1.535 1.535 0 0 0-.083-2.179 1.561 1.561 0 0 0-2.138.027l-14.252 14.533a1.534 1.534 0 0 0 .029 2.178z" class="cls-2" transform="translate(-76.309 -657.418)"/>
            </g>
        </g>
    </g>
</svg>
