<svg xmlns="http://www.w3.org/2000/svg" width="124" height="124" viewBox="0 0 124 124">
    <g>
        <path fill="none" d="M0 0H124V124H0z" transform="translate(-211.557 -2721.557) translate(211.557 2721.557)" style="mix-blend-mode:screen;isolation:isolate"/>
        <path fill="#2d6191" d="M197.715 342h-11.159v-42a10 10 0 0 0-10-10h-52a10 10 0 0 0-10 10v42H103.4a2 2 0 0 0-1.417 3.423l41.5 41.506a10 10 0 0 0 14.143 0l41.505-41.506a2 2 0 0 0-1.416-3.423zm-43.037 16.42v7.645h-8v-7.637a25.315 25.315 0 0 1-13.421-6.62l5.464-6.557c3.407 3.15 7.907 5.272 12.085 5.272 4.95 0 7.586-2.122 7.586-5.465 0-3.535-2.893-4.628-7.136-6.429l-6.364-2.7c-4.822-1.993-9.643-5.851-9.643-12.793 0-6.341 4.531-11.483 11.429-13.168v-7.978h8v7.623a20.879 20.879 0 0 1 11.942 5.873l-4.821 5.978a15.176 15.176 0 0 0-10.093-3.921c-4.178 0-6.879 1.865-6.879 5.014 0 3.407 3.408 4.629 7.457 6.236l6.237 2.636c5.785 2.378 9.578 6.042 9.578 12.921.001 6.764-4.914 12.65-13.421 14.07z" transform="translate(-211.557 -2721.557) translate(123.001 2443.628)"/>
    </g>
</svg>
