<svg xmlns="http://www.w3.org/2000/svg" width="124" height="124" viewBox="0 0 124 124">
    <g>
        <path fill="none" d="M0 0H124V124H0z" transform="translate(-211.557 -2721.557) translate(211.557 2721.557)" style="mix-blend-mode:screen;isolation:isolate"/>
        <path fill="#2d6191" d="M240 176.142h-5a3 3 0 0 0-3 3v20a3 3 0 0 0 3 3h1.776a19.036 19.036 0 0 1-9.233 15.326A113.189 113.189 0 0 0 232.982 205l-2.582.044a1.929 1.929 0 0 1-2.112-1.766 103.625 103.625 0 0 1-7.888 16.712 19.163 19.163 0 0 1-2.63.2h-11.884a3.99 3.99 0 0 0-3.881-3.084h-6.01a4 4 0 0 0-3.995 4v2.075a4 4 0 0 0 3.995 3.995h6.01a3.979 3.979 0 0 0 3.432-1.981h11.54c-4.994 6.834-11.4 12.449-18.977 12.449-10.2 0-18.727-10.2-24.086-18.755a111.494 111.494 0 0 1-9.555-19.572l-.454-1.257-1.284-.338c-.25-.066-6.121-1.678-6.121-7.578a4.976 4.976 0 0 1 2.295-4.6l4.876 2.438A2.991 2.991 0 0 0 168 185.3v-15.16s30-.142 30-14c24 0 30 14 30 14V178s0-6 6-6h6v-5.811c0-22.891-13.134-35.136-36-34.047l-4-4c-23.2 0-44 14.8-44 38v15.268a9.818 9.818 0 0 0-4.5 8.732c0 6.943 5.035 10.639 8.571 12 2.6 6.9 16.382 40.5 37.929 40.5 10.947 0 19.465-8.642 25.529-18.15a24.091 24.091 0 0 0 18.278-22.563 8 8 0 0 0 6.193-7.787v-10a8 8 0 0 0-8-8z" transform="translate(-211.557 -2721.557) translate(73.557 2598.916)"/>
    </g>
</svg>
