<svg xmlns="http://www.w3.org/2000/svg" width="484.571" height="120" viewBox="0 0 484.571 120">
    <defs>
        <style>
            .cls-2{fill:#1a1311}.cls-3{fill:#007d7e}
        </style>
    </defs>
    <g id="하나은행_로고" transform="translate(.571)">
        <rect id="사각형_106" width="484" height="120" fill="#fff" rx="6"/>
        <g id="그룹_162" transform="translate(-104.112 -211.417)">
            <g id="그룹_160" transform="translate(212.179 245.928)">
                <path id="패스_75" d="M234.5 233.809h-10.041v62.544H234.5V256.36h9.3v-5.595h-9.3z" class="cls-2" transform="translate(-44.266 -232.311)"/>
                <path id="패스_76" d="M225.354 278.027c-4.314.01-7.832-6.906-7.844-15.455s3.48-15.464 7.806-15.481 7.84 6.918 7.847 15.452-3.473 15.483-7.809 15.483m4.935-44.845h-10.028v5.843H206.6v5.6h9.349c-5.054 3.717-8.432 10.336-8.432 17.912 0 11.645 7.949 21.082 17.762 21.082s17.767-9.438 17.767-21.082c0-7.577-3.378-14.2-8.432-17.912h9.375v-5.6h-13.7z" class="cls-2" transform="translate(-69.069 -233.182)"/>
                <path id="패스_77" d="M291.609 250.766h-9.292v-16.957H272.28v37.824a10.591 10.591 0 0 1-7.66 3.28h-15.954a4.246 4.246 0 0 1-4.271-4.23l.017-34.038h-9.961l.043 34.038a9.922 9.922 0 0 0 9.968 9.87h17.275s6.1.3 10.544-3.765v19.563h10.037v-40h9.292z" class="cls-2" transform="translate(-30.391 -232.311)"/>
                <path id="패스_78" d="M286.7 238.853c4.34-.022 7.873 5.542 7.906 12.45.048 6.891-3.423 12.514-7.744 12.538s-7.861-5.549-7.9-12.443c-.06-6.9 3.425-12.526 7.734-12.545m17.478 12.466a17.764 17.764 0 1 0-35.522 0 18.182 18.182 0 0 0 7.866 15.037h-18.407v5.844h7.689l.031 15.036a9.926 9.926 0 0 0 9.973 9.884l33.821.017v-5.654H280a4.253 4.253 0 0 1-4.252-4.247l.017-15.036h38.505v-5.848h-17.96a18.2 18.2 0 0 0 7.866-15.037" class="cls-2" transform="translate(2.465 -233.156)"/>
                <path id="패스_79" d="M297.395 267.493c-2.458.026-4.476-4.541-4.514-10.185s1.918-10.223 4.383-10.235 4.493 4.543 4.534 10.183c.017 5.64-1.952 10.223-4.4 10.238m14.334-10.226a16.386 16.386 0 0 0-5.732-12.64h6.285v-5.6h-9.908v-5.843h-10.03v5.843h-9.98v5.6h6.33a16.372 16.372 0 0 0-5.73 12.638c0 8.774 6.435 15.865 14.37 15.865 7.964 0 14.392-7.092 14.392-15.865" class="cls-2" transform="translate(36.15 -233.182)"/>
                <path id="패스_80" d="M309.479 292.544c-4.338.014-7.849-5.568-7.866-12.457-.024-6.906 3.464-12.512 7.778-12.521s7.856 5.563 7.873 12.469-3.473 12.509-7.785 12.509m8.074-40.612v12.29a17.142 17.142 0 0 0-4.581-1.686v-10.619zm9.478 27.809v-45.882h-9.478v12.488l-4.581-.021v-12.517h-9.543v29.359a18.04 18.04 0 1 0 23.626 17.086c0-.172-.024-.344-.024-.514" class="cls-2" transform="translate(48.879 -232.311)"/>
                <path id="패스_81" d="M187.329 237.315l-10.422-3.425c-5.085 14.387-17.43 24.754-17.43 24.754v-23.037h-10.455v50.5h10.455v-26.372l16.647 26.373h13.159L170.7 258.995s11.831-7.668 16.63-21.679m70.7 33.284c0-4.448-3.184-6.781-7.039-6.781h-8.869v13.831h8.869a6.712 6.712 0 0 0 7.039-7.051m-16.04-14.609h11.229a7.692 7.692 0 0 0 3.065-6.263c0-3.337-1.877-6.058-6.179-6.058h-8.114zm27.05 14.61c0 9.8-6.829 15.51-17.215 15.51h-19.871v-50.5h20.2c8.747 0 14.619 5.489 14.619 12.648a11.756 11.756 0 0 1-4.906 9.817 14.107 14.107 0 0 1 7.173 12.525M204 277.282h20.526v8.826h-30.84v-50.5h30.174l-1.3 8.442h-18.71v11.439h15.875v8.477H204z" class="cls-2" transform="translate(-149.022 -232.199)"/>
            </g>
            <g id="그룹_161" transform="translate(103.542 224.003)">
                <path id="패스_82" d="M153.578 256.963a17.22 17.22 0 0 0-1.218-4.144 20.415 20.415 0 0 0-8.207-9.5 18.45 18.45 0 0 0-19.014.119 16.718 16.718 0 0 0-6.265 6.7 19.441 19.441 0 0 0-1.185 2.94c-1.55 4.925-1.493 11.554 1.3 16.049a8.112 8.112 0 0 0 3.843 3.349 5.569 5.569 0 0 0 4.973-.387c1.875-1.206 2.2-3.516 1.858-5.568-.442-2.611-.776-5.193.184-7.758a6.073 6.073 0 0 1 1.376-2.214 5.253 5.253 0 0 1 1.314-.9 5.536 5.536 0 0 1 3.284-.535 6.308 6.308 0 0 1 4.412 3.6 14.656 14.656 0 0 1 1.192 5.747c.408 8.585-1.641 17.478-3.831 25.723-.225.853-.456 1.694-.7 2.539-.191.654-.518 1.483-.107 2.121a1.657 1.657 0 0 0 .764.583c1.273.516 2.312-.265 3.165-1.127 5.035-5.064 8.262-11.592 10.467-18.311a58.359 58.359 0 0 0 2.009-7.66 33.66 33.66 0 0 0 .385-11.37" class="cls-3" transform="translate(-85.312 -200.767)"/>
                <path id="패스_83" d="M207.841 232.138a2.187 2.187 0 0 0-2.367-2.1 11.4 11.4 0 0 0-3.538 1.123c-22.14 8.418-47.109 10.008-70.444 6.652-3.994-.58-8.038-1.381-12.051-2.009-2.508-.392-4.995-.96-7.527-1.151-2.157-.165-4.847-.241-6.59 1.256-2.305 1.99-2.14 5.759-.834 8.25a18.6 18.6 0 0 0 7.166 6.929c2.773 1.651 6.086 3.413 9.395 3.206q13.368-.849 26.674-2.58c15.113-1.966 30.962-3.819 45.158-9.681a56.829 56.829 0 0 0 13.2-7.4c.721-.547 1.758-1.455 1.758-2.5" class="cls-3" transform="translate(-103.542 -215.623)"/>
                <path id="패스_84" fill="#d50049" d="M120.622 232.929a8.71 8.71 0 0 0 17.42 0 4.855 4.855 0 0 0-.473-2.083c-.745-1.584-1.586-2.355-1.5-4.247.105-2.563-3.172-2.6-4.942-2.6a12.779 12.779 0 0 0-5.7 1.139 8.824 8.824 0 0 0-3.418 3.079 8.686 8.686 0 0 0-1.385 4.507v.2" transform="translate(-79.823 -224.003)"/>
            </g>
        </g>
    </g>
</svg>
