<svg xmlns="http://www.w3.org/2000/svg" width="484" height="120" viewBox="0 0 484 120">
    <defs>
        <style>
            .cls-3{fill:#0070be}.cls-5{fill:#1a1311}
        </style>
    </defs>
    <g id="서울특별시_로고" transform="translate(-706 -1492)">
        <g id="그룹_128" transform="translate(706 1492)">
            <rect id="사각형_106" width="484" height="120" fill="#fff" rx="6"/>
            <g id="그룹_181" transform="translate(-31.017 -452.582)">
                <g id="그룹_181-2" transform="translate(69.017 460.582)">
                    <path id="패스_96" fill="#b20023" d="M106.91 469.188a2.387 2.387 0 0 1 .484.9c.3.9 1.134 1.448 1.238 2.371.033.309.435.431.643.568.223.29.071.619.5 1.043.208.133.051.46.084.771.208.133.422.27.625.407a8.2 8.2 0 0 1-.115 9.51 3.307 3.307 0 0 0-.822 1.328c-.175.175-.541.362-.723.533.038.312.243.444.471.738-.939.243-1.05 1.03-1.768 1.567-.19.018-.575.051-.767.071a9.166 9.166 0 0 1-1.629 1.087c-.172.172-.124.636-.1.791a5.7 5.7 0 0 1-3.571 1.112c-.186.02-.329.5-.517.517-.968.093-2.133.049-3.094.135-.4-.117-.625-.407-1.032-.528a3.032 3.032 0 0 1-1.169-.04 10.283 10.283 0 0 0-2.027-.749c-.4-.122-1.136.259-1.551-.011a16.432 16.432 0 0 1-3.288-3.434c-.473-.731-1.275-.966-1.551-1.719-.035-.312.111-.789-.294-.906-.8-.241-.469-.736-.519-1.2a3.708 3.708 0 0 0-.714-1.18c-.245-.442.073-1.1-.183-1.7-.018-.152.157-.327.139-.482-.294-.906.181-1.885.093-2.654a4.591 4.591 0 0 1 .214-1.58 13.839 13.839 0 0 1 1.795-3.129c-.022-.15-.053-.46-.069-.612.172-.175.365-.192.541-.367a7.742 7.742 0 0 1 1.125-2.126c.683-.844 1.768-1.571 2.643-2.431a8.058 8.058 0 0 0 1.748-1.724c.177-.172.789.082.968-.088.522-.515 1.308-.433 1.85-.8s.435.424.995.217a2.261 2.261 0 0 0 .926-.4c.559-.208 1.187.2 1.783.3a2.749 2.749 0 0 1 1.8.458c.835.544 2.758.362 3.067 1.428.468.731 1.303 1.274 1.771 2.008z" transform="translate(-49.051 -455.309)"/>
                    <path id="패스_97" d="M138.647 486.656a3.408 3.408 0 0 0-.192-1.284c-.053-.48.327-1.012.161-1.671-.111-.177-.354-.387-.323-.537a7.626 7.626 0 0 0 .27-3.039 2.232 2.232 0 0 0-.3-.692c.024-.148.082-.444.137-.743a6.91 6.91 0 0 0-.546-2.449c-.082-.325-.327-.535-.38-1.01-.108-.181-.354-.393-.329-.542.245-1.344-.409-2.418-.6-3.7-.3-1.456-1.684-2.382-2.122-3.874.022-.15.477-.088.614-.057a7.632 7.632 0 0 1 2.586 3.671c.192.508.108.953.329 1.313a7.343 7.343 0 0 1 1.251 4c-.024.148.272.057.382.241a1 1 0 0 0 .027.625c.707.776.272 1.607.411 2.416a2.2 2.2 0 0 0 .3.687c-.027.15-.378.542-.409.685a3.4 3.4 0 0 1 .661 2.625c.652.3.354 1.162.513 1.821a.5.5 0 0 0 .385.239 2.319 2.319 0 0 0 .433-.838 13 13 0 0 0-.086-3.428 1.251 1.251 0 0 1 .108-1.372c-.272-.06-.356-.391-.462-.57-.488-1.969-.692-4.175-1.275-6.188a.561.561 0 0 0 .194-.265c-.21-1.764-1.554-3.423-2.19-5.2-.1-.318-.617-.7-.86-1.034 0 0 .02-.15.035-.3a2.681 2.681 0 0 1 1.574 1.268 9.393 9.393 0 0 1 1.764 3.286 26.484 26.484 0 0 1 1.169 3.07 6.08 6.08 0 0 0 .946 1.635 5.293 5.293 0 0 1 .133 1.434c.2 1.143.541 2.243.758 3.377a3.947 3.947 0 0 1 .11 2.506c-.378 1.313.491 2.743.844 3.905a1.91 1.91 0 0 1-.267 1.494c-.027.15.217.36.188.506-.243.568-.051 1.076-.161 1.675-.161.117.19.5 0 .767-.161.128-.3.1-.46.217-.219.42-.029.924-.111 1.375-.435.831-.214 1.967-1.03 2.564-.3.086-.329.241-.5.356.139.031.25.21.354.389-.161.117-.3.086-.46.208-.053.3.524.665.634.84-.219 1.2-1.114 2.243-1.085 3.644-.055.3-.139.745-.188 1.045-.276.714-.791 1.227-1.063 1.938-.053.3-.625.327-.681.628-.354.387-.32 1.015-.57 1.582-.188.265-.6.181-.924.416a6.8 6.8 0 0 0-.568 1.58c-.411.687-.908 1.428-1.313 2.113a8.74 8.74 0 0 1-2.082 2.681 1.021 1.021 0 0 0-.6.177 3.751 3.751 0 0 1-1.856 1.885c-.137-.029-.34.619-.5.738a16.613 16.613 0 0 1-1.775 1.463c-.29.088-.451.21-.771-.329a16.037 16.037 0 0 1-3.826 4.42c-.767.446-1.545.4-2.051.9a41.752 41.752 0 0 1-4.623 3.629c-.13-.029-.639.731-.639.731-.541.047-.23.1-.729-.02 0 0-.022.84-.7.981-1.437.281-1.819 1.951-1.927 2.639-.057.345-.294.11-.462.25s-.055.343-.217.482a9.272 9.272 0 0 0-1.682 1.739c-.159.139-.267-.068-.433.075a6.109 6.109 0 0 0-1.2 1.914 15.254 15.254 0 0 1-2.267 3.784c-.221.25.508 1.22.453 1.549-.208.458-.623.535-.827.995-.186 1.138-.236 2.411-.435 3.616a6.471 6.471 0 0 0 .241 3.068 20.958 20.958 0 0 1 0 2.886c.062.7.537 1.448.46 2.122.024 1.034-.21.9.013 1.764a4.421 4.421 0 0 0-.08 1.355c-.042.681-.15 1.1-.188 1.777-.146.164-.442.484-.451.652a6.881 6.881 0 0 1-2.374 4.305c-.72.462-1.346 1.169-2.168 1.109a19.066 19.066 0 0 0-2.254.961 7.7 7.7 0 0 1-3.359.188 4.775 4.775 0 0 1-3.2-2c-.524-.586-1.434-.369-1.777-1.273-.1-.356-.849-.541-.97-.729a10.135 10.135 0 0 1-1.538-2.1c-.343-.9-.1-1.518-.5-2.393-.422-.537-.606-.915-1.025-1.452-.564-.712.128-1.735-.285-2.44a2.005 2.005 0 0 1-.705-.9 16.372 16.372 0 0 0-.621-2.442 20.529 20.529 0 0 1 .088-4.942c.031-.175-.464-.418-.438-.59a27.365 27.365 0 0 0 .4-3.726c.13-.687.066-1.238.692-1.826 0 0-.3-.243-.265-.413a16.3 16.3 0 0 0 .557-2.807c.033-.172.4-.278.431-.451a9.077 9.077 0 0 1-.082-2.995c.068-.345.959-.86 1.165-1.169a2.083 2.083 0 0 1 .206-1.211c.084-.148.318-.1.491-.239.027-.177-.086-.378-.055-.552.086-.515.959-.891 1.021-1.233a9.024 9.024 0 0 1 1.547-2.619 5.1 5.1 0 0 1 .672-1.251c.164-.117.245 0 .272-.152s-.046-.48-.027-.63c.347-.389.827-.745.9-1.193a4.8 4.8 0 0 1 .8-1.375 5.787 5.787 0 0 0 1.671-1.638c.345-.391.745-.3 1.094-.69a11.212 11.212 0 0 0 1.006-1.792 15.611 15.611 0 0 1 2.789-2.477 22.188 22.188 0 0 1 2.577-1.286c.8-.6 1.275-1.726 2.046-2.175.473-.36 1.032-.389 1.514-.747s.877-1.048 1.593-1.2a6.877 6.877 0 0 0 1.936-.566c.928-.566.544-.723 1.474-1.291a24.794 24.794 0 0 1 2.471-1.441.778.778 0 0 0 .373-.537 11.749 11.749 0 0 1 2.639-2.009c.292-.088.639.3.979-.088.186-.27-.188-.506 0-.778a16.272 16.272 0 0 1 1.481-1.551c.161-.115.544.122.842.029.161-.117.217-.416.378-.533.192-.27-.161-.654.027-.93.219-.418.433-.833.736-.919.464-.21 1.087-.537 1.008-.864a1.918 1.918 0 0 1 .977-1.494c.027-.146.057-.3.08-.451.351-.387.681-.623 1.036-1.01.376-.537.212-1.193.433-1.613a5 5 0 0 0 1.576-2.447c-.053-.477-.356-1.165-.135-1.585.186-.263.785-.444.84-.74a9.43 9.43 0 0 0-.219-1.912c.077-.449.568-.807.515-1.284a35.92 35.92 0 0 0-.161-3.757c.431-.057.488-.362.539-.661a24.988 24.988 0 0 0-.9-2.833c-.027-.625.486-1.136.46-1.757a2.7 2.7 0 0 0-1.008-1.463c-.46-.568-.159-1.432-.323-2.086-.137-.8-.74-1.408-.849-2.358-.053-.477-.625-.449-.816-.957a8.287 8.287 0 0 1-.327-2.091c-.082-.327-.517-.267-.76-.473-.548-.9-.354-2.718-1.554-3.132.108-.6-.433-.723-.628-1.224a1.843 1.843 0 0 1 1.77 1.162c.108.177.517.27.652.3.356.387.329 1.311.709 1.551.488.415 1.222.263 1.414.776.272.831.9 1.28 1.2 1.965a1.27 1.27 0 0 0 .161.659c.493.418.548.893.9 1.28.818.957 1.638 1.914 1.253 3.224-.239.568.493.418.716.774.544.9.323 2.093 1.03 2.866-.135 1.523.6 2.926 1.065 4.268-.789 1.222-.351 3.366.276 4.588 0 0 .435-.057.464-.208.135-.74 1.49-.992 1.271-1.35a15.341 15.341 0 0 1-.683-3.355 15.731 15.731 0 0 0-.055-3.585c-.108-.181-.217-.358-.325-.535a4.669 4.669 0 0 1-.19-2.06c-.082-.332-.327-.533-.409-.864.027-.153.082-.451.106-.6.3-.088.683.148.953.212.25.2.026.621.137.8.435.714 1.087 1.014 1.224 1.821-.027.146-.08.444-.106.6.108.953.678 1.7.818 2.508.055.473-.349 1.158-.161 1.669a7.465 7.465 0 0 1 .546 4c-.111.594.648 1.072.433 1.487s.057.482-.164.9c-.027.148-.325.234-.349.389.4.864-.208 2.175-.347 2.922-.027.148.464.309.564-.241.062-.329.628-.327.922-.416a1.739 1.739 0 0 0 .534-1.427zm2.93 2.981c.024-.758.38-1.311.243-2.117-.27-.838-.884-.007-1.324.053a4.054 4.054 0 0 1-.46 2.535c-.188.267-.323 1.012.108.955a1.33 1.33 0 0 0 1.434-1.426zm-1.165 4.086a.793.793 0 0 0-.157-.93c-.376-.237-.869.124-1.087.539s-.053 1.076.522 1.043c.133.034.531-.382.723-.652z" class="cls-3" transform="translate(-48.261 -460.582)"/>
                    <path id="패스_98" d="M108.54 465.667c.725.548 1.01 1.467 1.58 2.21l-.055.3c-1 .862-1.879-.572-2.153-1.406a6.53 6.53 0 0 0-1.554-2.358c.031-.146.06-.294.088-.447-.356-.391-.813-.953-.356-1.162.188-.27.519.27.9.508.569.746.677 1.699 1.55 2.355z" class="cls-3" transform="translate(-24.39 -457.981)"/>
                    <path id="패스_99" d="M110.178 463.244c.009.152-.232.411-.265.557a6.123 6.123 0 0 1-1.357-1.607.857.857 0 0 1-.511-.294c-.133-.038-.1-.181-.069-.329.435-.04.776.36 1.149.614.13.035.3-.075.435-.04a1.383 1.383 0 0 1 .618 1.099z" class="cls-3" transform="translate(-21.911 -459.388)"/>
                    <path id="패스_100" fill="#25832a" d="M95.895 475.25a3.392 3.392 0 0 1 .427.409.667.667 0 0 0 .683.06c.223.018.424.6.654.617.329.155.533.736.853 1.014.219.139.446.347.665.5a7.527 7.527 0 0 0 .831 1.065c.21.267.557.172.787.188.444.163.621.8.937 1.2.115.011.312.4.3.53a4.826 4.826 0 0 0 .756.557c.1.137.086.387.188.519.818 1.319 1.9 2.157 2.592 3.591a1.471 1.471 0 0 1 .084.382 25.3 25.3 0 0 1 1.951 2.917 16.128 16.128 0 0 1 .568 1.545c.21.27.429.411.634.683a4.75 4.75 0 0 1 .667 1.806c-.018.245-.181.984-.612.575-.528-.544-.475-1.286-1.014-1.711a1.223 1.223 0 0 0-.243-.577c-.219-.261-.608-.245-.7-.625.029-.373-.393-.678-.608-.939-.539-.771-1.324-1.061-1.974-1.841a.422.422 0 0 0-.351.106c-.119.245-.473.606-.15.995.444.272.654.78 1.213 1.059.329.263.413 1.017.614 1.653a2.184 2.184 0 0 0 .771.663c.329.263.2.661.513 1.063-.011.126-.133.239-.144.36.2.4.661.3.977.707.243-.23.577-.049.776.314-.369.349-.274.606-.415.975-.385.59.484 1.16 1.032 1.456.343.026.294.65.617.926.2.393.767.44 1.07.964.1.261-.137.365-.272.6-.029.376.418.535.634.678a1.252 1.252 0 0 1 .407.659c-.347.1-1.021-.367-1.359-.4-.214-.095-.623-.586-1.059-.681-.15-.035-.256.327-.418.292-.206-.04-.427-.08-.652-.124-.241-.042-.818-.676-1.065-.716-.285-.049-.632.473-.906.424a4.123 4.123 0 0 1-1.386-.376 9.06 9.06 0 0 1-1.081-.524c-.221-.119-.159-.411-.367-.546s-.652-.133-.862-.263c-.818-.5-1.591-1.638-2.292-2-.462-.239-.851-.477-1.364-.718-.252-.159-.431-.51-.743-.614-.964-.323-1.737-.933-2.835-1.242-2.08-.59-3.806.6-5.5 1.476a.7.7 0 0 0-.358.046 11.324 11.324 0 0 1-1.235.767 14.332 14.332 0 0 1-1.832.864c-.186.111-.206.449-.385.555-.276.161-.767.195-1.039.36-.243.164-.274.453-.515.632a7.647 7.647 0 0 1-1.616 1.019 27.194 27.194 0 0 1-4.011.732c-.8.011-1.359.672-2.557.67-1.823-.009-3.647-.044-5.16-1.174-.318-.276-.38-1.032-.594-1.176-.654-.429-.59-1.3-.776-1.94-.212-.139-.667-.175-.639-.552a9.354 9.354 0 0 1 2.294-4.824c.263-.48.849-.681.9-1.306a18.279 18.279 0 0 1 1.624-2c.135-.239-.066-.634.064-.871.93-1.806 2.617-3.043 3.993-4.687.365-.345.628-.827 1.2-.906.232.018.455.038.586-.2a2.683 2.683 0 0 1 1.116-1.162c1.317-.9 2.422-2.25 3.927-2.5.234-.1.367-.343.6-.453.252-.228.685.055.919-.051 1.118-.5 2.139-1.585 3.289-1.742.236-.1.369-.347.482-.338 1.021.086 2.223-.82 3.182.137a3.769 3.769 0 0 1 2.712.469zm7.812 10.935c0-.126.009-.248.013-.374-.444-.272-.641-1.032-1.207-1.185-.113 0-.345.111-.349.232a3.742 3.742 0 0 0 .608 1.905c.133-.493.471-.475.687-.093a1.032 1.032 0 0 0 .248-.485z" transform="translate(-69.017 -443.934)"/>
                </g>
                <g id="그룹_182" transform="translate(173.716 497.368)">
                    <path id="패스_101" d="M155.416 517.392l-5.154 5.364-14.328-13.972a32.847 32.847 0 0 1-6.738 8.5 44.919 44.919 0 0 1-7.795 5.678l-5.01-5.715a30.214 30.214 0 0 0 7.231-4.937 29.086 29.086 0 0 0 4.906-5.932 24.576 24.576 0 0 0 2.789-6.349 24.253 24.253 0 0 0 .88-6.352V483.8h7.903v8.469a33.888 33.888 0 0 1-.318 4.729q-.322 2.258-.813 4.376zm16.372 24.275h-7.481v-37.825h-15.6v-7.2h15.6v-19.2h7.481z" class="cls-5" transform="translate(-116.392 -476.96)"/>
                    <path id="패스_102" d="M205.208 513.856h-26.745v3.525h13.267v16.586h-25.617v3.176h27.311v7.2h-35.072V527.12H183.9v-2.82H158v-6.915h12.915v-3.525h-26.186v-7.06h60.479zm-14.118-22.728a11.767 11.767 0 0 1-1.3 5.541 14.184 14.184 0 0 1-3.487 4.343 17.2 17.2 0 0 1-5.333 2.751 22.774 22.774 0 0 1-13.055.068 16.919 16.919 0 0 1-5.328-2.679 13.05 13.05 0 0 1-3.565-4.272 12.127 12.127 0 0 1-1.306-5.68 12.8 12.8 0 0 1 1.271-5.75 13.13 13.13 0 0 1 3.529-4.416 15.513 15.513 0 0 1 5.224-2.82 22.167 22.167 0 0 1 13.088 0 16.3 16.3 0 0 1 5.331 2.82 13.224 13.224 0 0 1 3.6 4.343 12.279 12.279 0 0 1 1.332 5.751zm-7.759-.071a6.065 6.065 0 0 0-2.681-5.22 10.675 10.675 0 0 0-6.352-1.9 10.549 10.549 0 0 0-6.387 1.87 6.114 6.114 0 0 0-2.575 5.253 5.9 5.9 0 0 0 2.575 5.085 10.728 10.728 0 0 0 6.387 1.83 11.66 11.66 0 0 0 6.352-1.688 5.752 5.752 0 0 0 2.681-5.23z" class="cls-5" transform="translate(-82.104 -477.227)"/>
                    <path id="패스_103" d="M233.922 517.023h-60.409V509.9h60.409zm-13.122 25.87h-7.552v-14.718h-27.034v-7.2H220.8zm-.141-36.666H186.5v-27.8h33.73v7.125h-26.252v3.037h25.406v7.2h-25.406v3.311h26.677z" class="cls-5" transform="translate(-47.275 -475.78)"/>
                    <path id="패스_104" d="M231.9 510.264h-28.717v-29.355h7.476v8.471h13.693v-8.471h7.548zm-7.549-7.129V496.5h-13.692v6.632zm28.79 40.934H218.5v-17.716h25.19v-3.669h-25.547v-7.129h33.307v17.718H226.4v3.669h26.743zm.568-30.558H246.3v-6.842h-12.14v-7.063h12.14v-5.076h-12.14v-7.13h12.14v-9.952h7.41z" class="cls-5" transform="translate(-11.374 -476.96)"/>
                    <path id="패스_105" d="M268.243 517.6l-5.149 5.362-14.259-14.042a31.262 31.262 0 0 1-6.665 8.575 42.491 42.491 0 0 1-7.941 5.684l-5.012-5.72a34.75 34.75 0 0 0 7.3-5.149 30.071 30.071 0 0 0 4.908-5.861 25.968 25.968 0 0 0 2.714-6.276 23.433 23.433 0 0 0 .882-6.281V483.8h7.9v8.681a32.775 32.775 0 0 1-.318 4.694q-.315 2.224-.809 4.27zm15.457 24.067h-7.55v-64.219h7.55z" class="cls-5" transform="translate(20.127 -476.96)"/>
                </g>
            </g>
        </g>
    </g>
</svg>
