<svg xmlns="http://www.w3.org/2000/svg" id="수원시_로고" width="484" height="120" viewBox="0 0 484 120">
    <defs>
        <style>
            .cls-5{fill:#5f5e5e}
        </style>
    </defs>
    <rect id="사각형_106" width="484" height="120" fill="#fff" rx="6"/>
    <g id="그룹_189" transform="translate(90.038 -220.25)">
        <path id="패스_106" fill="#008a32" d="M159.556 376.781s-5.68-5.443-8.993-7.2a29.642 29.642 0 0 0-6.661-2.874 30.113 30.113 0 0 0-8.892-.676s-7.3.609-8.96.406a18.349 18.349 0 0 1-8.655-1.758 9.209 9.209 0 0 1-5.173-6.052h-7.472s-.034 7 8.283 11.6a26.184 26.184 0 0 0 10.853 3.178s2.029.575 7.743.169c0 0 6.931-.575 11.124 2.265a47.789 47.789 0 0 1 9.906 8.858" transform="translate(0 -95.111)"/>
        <path id="패스_107" fill="#003288" d="M272.145 263.548a31.011 31.011 0 0 0-9.636-4.6 69.167 69.167 0 0 0-12.239-1.758s-15.316-.676-17.852-.44l-1.555-18.224h-2.434l-.068-1.86a10.581 10.581 0 0 0 2.941-.609s1.082.1.778-2.367a6.97 6.97 0 0 1-4.328-3.212v-2.228h-1.082v.744s-.879.676-3.956.609c0 0-3.55.034-3.99-.507v-.778h-1.082v2.3s-.744 2.231-4.226 3.246c0 0-.372 2.029.71 2.367a15.569 15.569 0 0 0 2.975.541v1.792h-2.3l-.642 8.554-.459 7.482-.637 9.219 20-.237s12.915.237 17.311.541c0 0 9.737.1 14.978 4.023 0 0 3.449 2.1 3.246 4.936a4.056 4.056 0 0 1-2.231 2.874s-1.657 1.319-5.072.676c0 0-4.159-.845-6.086-.135 0 0-2.231.71-3.99 3.99 0 0-2.029 4.362-5.68 4.429 0 0-2.84.744-6.965-3.246l-6.9 7.912s4.531 5.105 8.689 7.2a9.325 9.325 0 0 0 11.327-1.282 23.948 23.948 0 0 0 4.192-5.376s2.671-4.666 7.3-5.072c0 0 5.139-.3 6.593-.541a9.317 9.317 0 0 0 8.283-7.844 13.606 13.606 0 0 0-5.913-13.119zm-52.811-20.421h-2.4v-2.4h2.4zm4.818-.017h-2.4v-2.4h2.4zm4.632 0h-2.4v-2.4h2.4z" transform="translate(-79.016)"/>
        <g id="그룹_183" transform="translate(117.361 247.107)">
            <path id="패스_108" fill="#dc000c" d="M163.276 299.329s-3.347 2.265-4.4 2.434a12.314 12.314 0 0 1-7.506.3v.321a2.653 2.653 0 0 1 .794.253s-.017.237-.778 0v.457s.642.2 1.42.389c0 0-.068.22-1.4-.068v.507a8.592 8.592 0 0 0 2.722.575s.186.372-1.014.288l-1.335-.152s-.169.152.253.287a3.6 3.6 0 0 1 .693.372 11.443 11.443 0 0 1-1.3-.118v.321a12.177 12.177 0 0 1 1.893.676s-.118.169-.828-.068l-1.031-.254v.558a11.523 11.523 0 0 1 1.133.321l.017.135a4.011 4.011 0 0 1-.761-.017l-.372-.152v.507l.3.1-.321.254v.524a11.169 11.169 0 0 0 1.775.22s.676.22 1.014.287c0 0 .2.27-.693.118 0 0-.879-.051-1.3-.085a.7.7 0 0 1-.778.1v.744a14.217 14.217 0 0 0 7.793-.558 33.981 33.981 0 0 0 3.409-1.809 10.428 10.428 0 0 1 6.018-1.645l.462-7.483a11.471 11.471 0 0 0-5.879 1.361zm-11.462 8.216a4.764 4.764 0 0 1 1.217.2.885.885 0 0 1-1.216-.2zm2.3-3.584s-1.15-.169-1.116-.406a3.8 3.8 0 0 1 1.352.135h1.25a2.037 2.037 0 0 1-1.486.271z" transform="translate(-151.375 -297.968)"/>
        </g>
        <g id="그룹_187" transform="translate(117.581 303.511)">
            <g id="그룹_184" transform="translate(0 .592)">
                <path id="패스_109" d="M166.113 508.688h-5.258a3.013 3.013 0 0 1 .964 1.065 3.583 3.583 0 0 1-1.234 3.516s-1.572 1.809-5.46 2.231l1.132.964s1.3.406 4.514-.845a7.082 7.082 0 0 0 2.739-1.978 6.352 6.352 0 0 0 3.313 2.079 14.525 14.525 0 0 0 3.787.71l1.335-1.065a11.721 11.721 0 0 1-5.088-1.775 3.706 3.706 0 0 1-1.775-3.229 1.567 1.567 0 0 1 1.014-1.623" class="cls-5" transform="translate(-154.33 -508.688)"/>
                <path id="패스_110" d="M152.187 542.767v2.164h7.658v5.984h3.195v-6.052h7.56v-2.113a1.7 1.7 0 0 1-.98.406h-16.5a1.92 1.92 0 0 1-.933-.389z" class="cls-5" transform="translate(-152.187 -533.537)"/>
            </g>
            <g id="그룹_185" transform="translate(25.397 .186)">
                <path id="패스_111" d="M255.11 507.189c-2.72 0-4.9 1.728-4.9 3.629s2.205 3.443 4.925 3.443 4.8-1.57 4.8-3.471-2.105-3.601-4.825-3.601zm-.022 5.727a2.126 2.126 0 1 1 1.817-2.1 1.976 1.976 0 0 1-1.817 2.1z" class="cls-5" transform="translate(-249.092 -507.189)"/>
                <path id="패스_112" d="M246.084 534.916v1.8h4.4v2.57h3.178v-2.66h4.959v-1.69l-.9.18h-10.758z" class="cls-5" transform="translate(-246.084 -527.416)"/>
                <path id="패스_113" d="M257.333 554.584h4.192a2.6 2.6 0 0 0-.428.992v2.119h11.045v1.442h-12.285a1.744 1.744 0 0 1-1.938-1.465v-2.006s.023-.316-.586-1.082z" class="cls-5" transform="translate(-254.29 -541.765)"/>
                <path id="패스_114" d="M281.916 517.59v1.375h4.26v1.623h3.156v-12.082s.045-.676 1.014-1.172h-5.275s1.059.609 1.082 1.1v9.084z" class="cls-5" transform="translate(-272.224 -507.295)"/>
            </g>
            <g id="그룹_186" transform="translate(49.695)">
                <path id="패스_115" d="M339.748 508.166h5.184a2.15 2.15 0 0 0-.969 1.127s-.248 3.584.654 5.116a6.468 6.468 0 0 0 4.26 3.313l-1.4 1.217a6.469 6.469 0 0 1-5.071-3.313 6.789 6.789 0 0 1-5.026 3.4l-1.465-1.127a6.549 6.549 0 0 0 4.238-3.516s.9-1.1.563-5.139c.001.004.069-.402-.968-1.078z" class="cls-5" transform="translate(-335.916 -507.715)"/>
                <path id="패스_116" d="M385 506.5h5.207a1.69 1.69 0 0 0-.992 1.15v16.116H386.1v-16.094a1.61 1.61 0 0 0-1.1-1.172z" class="cls-5" transform="translate(-371.724 -506.5)"/>
            </g>
        </g>
        <g id="그룹_188" transform="translate(117.622 323.882)">
            <path id="패스_117" d="M157.444 584.345a1.738 1.738 0 0 0-1.973-1.619c-.676 0-1.817.189-1.817 1.4 0 .676.477.9.942 1.009l2.269.521a2.069 2.069 0 0 1 1.81 2.129c0 1.882-1.755 2.4-3.119 2.4a3.177 3.177 0 0 1-2.406-.759 2.443 2.443 0 0 1-.811-2.017h1.011c0 1.441 1.176 1.863 2.2 1.863.776 0 2.085-.2 2.085-1.341 0-.832-.388-1.1-1.693-1.408l-1.629-.377a1.919 1.919 0 0 1-1.7-1.874 2.433 2.433 0 0 1 2.741-2.454c2.783 0 3.061 1.656 3.105 2.532z" class="cls-5" transform="translate(-152.339 -581.813)"/>
            <path id="패스_118" d="M186.384 582.563v5.167a2.887 2.887 0 0 1-3.206 3 2.757 2.757 0 0 1-3.062-2.854v-5.311h1.079v5.012c0 1.729 1.053 2.206 2.017 2.206a1.937 1.937 0 0 0 2.094-2.184v-5.034z" class="cls-5" transform="translate(-172.603 -582.36)"/>
            <path id="패스_119" d="M209.532 590.528H208.4l-2.073-7.96h1.164l1.485 6.474H209l1.785-6.474h1.175l1.785 6.474h.022l1.485-6.474h1.186l-2.1 7.96h-1.131l-1.818-6.594h-.022z" class="cls-5" transform="translate(-191.726 -582.364)"/>
            <path id="패스_120" d="M250.943 586c0 1.874-1.043 3.237-2.774 3.237s-2.774-1.363-2.774-3.237 1.043-3.237 2.774-3.237 2.774 1.36 2.774 3.237zm1.112 0c0-1.718-.912-4.184-3.887-4.184s-3.886 2.465-3.886 4.184.912 4.184 3.886 4.184 3.887-2.469 3.887-4.184z" class="cls-5" transform="translate(-219.413 -581.813)"/>
            <path id="패스_121" d="M282.2 582.568h1.045v7.959h-1.215l-4.041-6.424h-.022v6.424h-1.045v-7.959h1.278l3.975 6.424h.022z" class="cls-5" transform="translate(-243.225 -582.364)"/>
            <path id="패스_122" d="M320.917 584.411a2.075 2.075 0 0 0-2.229-1.652c-1.442 0-2.606 1.064-2.606 3.16 0 1.874.665 3.315 2.639 3.315.7 0 1.908-.332 2.273-2.184h1.042a3.358 3.358 0 0 1-3.482 3.131c-1.808 0-3.586-1.168-3.586-4.228 0-2.45 1.4-4.14 3.719-4.14a3.01 3.01 0 0 1 3.271 2.6z" class="cls-5" transform="translate(-270.981 -581.813)"/>
            <path id="패스_123" d="M346.766 590.525h-1.079v-7.962h1.079z" class="cls-5" transform="translate(-293.39 -582.36)"/>
            <path id="패스_124" d="M353.052 582.563h6.469v.947h-2.7v7.016h-1.079v-7.016h-2.695z" class="cls-5" transform="translate(-298.763 -582.36)"/>
            <path id="패스_125" d="M381.406 590.525h-1.079v-3.2l-3.006-4.757h1.253l2.286 3.826 2.286-3.826h1.264l-3.005 4.757z" class="cls-5" transform="translate(-316.468 -582.36)"/>
        </g>
    </g>
</svg>
