<?xml version="1.0" encoding="UTF-8"?>
<svg width="58px" height="54px" viewBox="0 0 58 54" version="1.1" xmlns="http://www.w3.org/2000/svg" xmlns:xlink="http://www.w3.org/1999/xlink">
    <!-- Generator: Sketch 53.2 (72643) - https://sketchapp.com -->
    <title>ico_layer4_mvp</title>
    <desc>Created with Sketch.</desc>
    <g id="Page-1" stroke="none" stroke-width="1" fill="none" fill-rule="evenodd">
        <g id="Landing_8th" transform="translate(-874.000000, -541.000000)">
            <g id="ico_layer4_mvp" transform="translate(874.000000, 541.000000)">
                <path d="M8,2.5 C4.96243388,2.5 2.5,4.96243388 2.5,8 L2.5,13 C2.5,16.0375661 4.96243388,18.5 8,18.5 L13,18.5 C16.0375661,18.5 18.5,16.0375661 18.5,13 L18.5,8 C18.5,4.96243388 16.0375661,2.5 13,2.5 L8,2.5 Z M8,0 L13,0 C17.418278,0 21,3.581722 21,8 L21,13 C21,17.418278 17.418278,21 13,21 L8,21 C3.581722,21 0,17.418278 0,13 L0,8 C0,3.581722 3.581722,0 8,0 Z" id="Rectangle" fill="#00ADBB" fill-rule="nonzero"></path>
                <path d="M45,16.5 C41.9624339,16.5 39.5,18.9624339 39.5,22 L39.5,27 C39.5,30.0375661 41.9624339,32.5 45,32.5 L50,32.5 C53.0375661,32.5 55.5,30.0375661 55.5,27 L55.5,22 C55.5,18.9624339 53.0375661,16.5 50,16.5 L45,16.5 Z M45,14 L50,14 C54.418278,14 58,17.581722 58,22 L58,27 C58,31.418278 54.418278,35 50,35 L45,35 C40.581722,35 37,31.418278 37,27 L37,22 C37,17.581722 40.581722,14 45,14 Z" id="Rectangle-Copy-34" fill="#7056D4" fill-rule="nonzero"></path>
                <path d="M19,35.5 C15.9624339,35.5 13.5,37.9624339 13.5,41 L13.5,46 C13.5,49.0375661 15.9624339,51.5 19,51.5 L24,51.5 C27.0375661,51.5 29.5,49.0375661 29.5,46 L29.5,41 C29.5,37.9624339 27.0375661,35.5 24,35.5 L19,35.5 Z M19,33 L24,33 C28.418278,33 32,36.581722 32,41 L32,46 C32,50.418278 28.418278,54 24,54 L19,54 C14.581722,54 11,50.418278 11,46 L11,41 C11,36.581722 14.581722,33 19,33 Z" id="Rectangle-Copy-37" fill="#ED7676" fill-rule="nonzero"></path>
                <path d="M21.1701177,8.83686938 L20.8298823,7.89652906 C32.9302798,3.518345 42.0023717,5.44686659 47.9068039,13.7092929 L47.0931961,14.2907071 C41.4738714,6.42724884 32.8792967,4.60023658 21.1701177,8.83686938 Z" id="Path-2" fill="#002B49" fill-rule="nonzero"></path>
                <path d="M47.0178978,34.86742 L47.9821022,35.13258 C46.2140211,41.5618735 40.8380865,44.7807617 32,44.7807617 L32,43.7807617 C40.4255853,43.7807617 45.3829841,40.8124755 47.0178978,34.86742 Z" id="Path-2-Copy" fill="#002B49" fill-rule="nonzero"></path>
                <circle id="Oval" fill="#000000" cx="21" cy="8" r="2"></circle>
                <circle id="Oval-Copy" fill="#000000" cx="48" cy="14" r="2"></circle>
                <circle id="Oval-Copy-2" fill="#000000" cx="48" cy="35" r="2"></circle>
                <circle id="Oval-Copy-3" fill="#000000" cx="32" cy="44" r="2"></circle>
            </g>
        </g>
    </g>
</svg>