<svg xmlns="http://www.w3.org/2000/svg" width="69" height="70" fill="none" viewBox="0 0 69 70">
    <mask id="prefix__a" width="69" height="70" x="0" y="0" maskUnits="userSpaceOnUse">
        <path fill="#fff" d="M0 0h68.479v69.472H0V0z"/>
    </mask>
    <g mask="url(#prefix__a)">
        <path fill="#F2A048" fill-rule="evenodd" d="M43.737 20.604c0 .29-.232.524-.517.524h-4.117c-1.011 0-1.83.831-1.83 1.856v4.374h5.857c.302 0 .54.264.514.57l-.513 6.164c-.024.272-.247.48-.515.48h-5.342v20.46c0 .29-.232.525-.517.525h-7.37c-.285 0-.517-.236-.517-.524V34.572h-3.685c-.286 0-.516-.235-.516-.524v-6.165c0-.29.23-.525.516-.525h3.685v-5.942c0-4.143 3.31-7.501 7.393-7.501h6.957c.285 0 .517.235.517.524v6.165zM34.24 0C15.36 0 0 15.583 0 34.736c0 19.152 15.36 34.736 34.24 34.736 18.88 0 34.24-15.584 34.24-34.736C68.48 15.583 53.12 0 34.24 0z" clip-rule="evenodd"/>
    </g>
</svg>
