<?xml version="1.0" encoding="UTF-8"?>
<svg width="17px" height="17px" viewBox="0 0 17 17" version="1.1" xmlns="http://www.w3.org/2000/svg" xmlns:xlink="http://www.w3.org/1999/xlink">
    <!-- Generator: Sketch 53.2 (72643) - https://sketchapp.com -->
    <title>ico_layer2</title>
    <desc>Created with Sketch.</desc>
    <g id="Page-1" stroke="none" stroke-width="1" fill="none" fill-rule="evenodd">
        <g id="academy-커리큘럼" transform="translate(-662.000000, -877.000000)" fill="#25CEB9">
            <g id="ico_layer2" transform="translate(662.000553, 877.964460)">
                <path d="M1.60133258,9.6083958 L1.60133258,6.40573065 L14.4103919,6.40573065 L14.4095912,9.6083958 L1.60133258,9.6083958 Z M14.4119932,1.60173291 L14.4111925,4.80439807 L1.60133258,4.80439807 L1.60133258,1.60173291 L14.4119932,1.60173291 Z M14.4119932,0.000400333144 L1.60133258,0.000400333144 C0.718197661,0.000400333144 0,0.718597994 0,1.60173291 L0,9.6083958 C0,10.4915307 0.718197661,11.2097284 1.60133258,11.2097284 L7.2059966,11.2097284 L7.2059966,14.4123935 L3.20266516,14.4123935 L3.20266516,16.0137261 L12.8106606,16.0137261 L12.8106606,14.4123935 L8.80732918,14.4123935 L8.80732918,11.2097284 L14.4119932,11.2097284 C15.2951281,11.2097284 16.0133258,10.4915307 16.0133258,9.6083958 L16.0133258,1.60173291 C16.0133258,0.718597994 15.2951281,0.000400333144 14.4119932,0.000400333144 L14.4119932,0.000400333144 Z" id="Fill-423"></path>
                <polygon id="Fill-424" points="6.40533031 2.40199887 2.40199887 2.40199887 2.40199887 4.00333145 6.40533031 4.00333145"></polygon>
                <polygon id="Fill-425" points="2.40199887 8.80732918 6.40533031 8.80732918 6.40533031 7.2059966 2.40199887 7.2059966"></polygon>
                <path d="M14.4119932,14.4123935 C13.9700254,14.4123935 13.6113269,14.771092 13.6113269,15.2130598 C13.6113269,15.6558283 13.9700254,16.0137261 14.4119932,16.0137261 C14.853961,16.0137261 15.2126595,15.6558283 15.2126595,15.2130598 C15.2126595,14.771092 14.853961,14.4123935 14.4119932,14.4123935" id="Fill-426"></path>
                <path d="M1.60133258,14.4123935 C1.15936479,14.4123935 0.800666289,14.771092 0.800666289,15.2130598 C0.800666289,15.6558283 1.15936479,16.0137261 1.60133258,16.0137261 C2.04330037,16.0137261 2.40199887,15.6558283 2.40199887,15.2130598 C2.40199887,14.771092 2.04330037,14.4123935 1.60133258,14.4123935" id="Fill-427"></path>
                <path d="M10.4086618,4.00373178 C10.8506295,4.00373178 11.209328,3.64583395 11.209328,3.20306549 C11.209328,2.7610977 10.8506295,2.4023992 10.4086618,2.4023992 C9.96669397,2.4023992 9.60799547,2.7610977 9.60799547,3.20306549 C9.60799547,3.64583395 9.96669397,4.00373178 10.4086618,4.00373178" id="Fill-428"></path>
                <path d="M12.8106606,4.00373178 C13.2526284,4.00373178 13.6113269,3.64583395 13.6113269,3.20306549 C13.6113269,2.7610977 13.2526284,2.4023992 12.8106606,2.4023992 C12.3686928,2.4023992 12.0099943,2.7610977 12.0099943,3.20306549 C12.0099943,3.64583395 12.3686928,4.00373178 12.8106606,4.00373178" id="Fill-429"></path>
                <path d="M10.4086618,7.20639693 C9.96669397,7.20639693 9.60799547,7.56509543 9.60799547,8.00706322 C9.60799547,8.44983168 9.96669397,8.80772951 10.4086618,8.80772951 C10.8506295,8.80772951 11.209328,8.44983168 11.209328,8.00706322 C11.209328,7.56509543 10.8506295,7.20639693 10.4086618,7.20639693" id="Fill-430"></path>
                <path d="M12.8106606,7.20639693 C12.3686928,7.20639693 12.0099943,7.56509543 12.0099943,8.00706322 C12.0099943,8.44983168 12.3686928,8.80772951 12.8106606,8.80772951 C13.2526284,8.80772951 13.6113269,8.44983168 13.6113269,8.00706322 C13.6113269,7.56509543 13.2526284,7.20639693 12.8106606,7.20639693" id="Fill-431"></path>
            </g>
        </g>
    </g>
</svg>