<svg xmlns="http://www.w3.org/2000/svg" width="69" height="70" fill="none" viewBox="0 0 69 70">
    <path fill="#F2A048" fill-rule="evenodd" d="M31.507 29.788c-.399-.225-.768.06-.768.513v10.203c0 .449.358.732.756.52l9.165-4.97c.412-.221.483-.805.074-1.034l-9.227-5.232z" clip-rule="evenodd"/>
    <mask id="prefix__a" width="69" height="69" x="0" y="1" maskUnits="userSpaceOnUse">
        <path fill="#fff" d="M0 1.25h69v68.231H0V1.251z"/>
    </mask>
    <g mask="url(#prefix__a)">
        <path fill="#F2A048" fill-rule="evenodd" d="M55.158 40.842c0 4.838-3.968 8.762-8.86 8.762H23.32c-4.895 0-8.861-3.924-8.861-8.762v-10.65c0-4.84 3.966-8.76 8.86-8.76H46.3c4.891 0 8.86 3.92 8.86 8.76v10.65zM34.501 1.25C15.476 1.25 0 16.554 0 35.365 0 54.177 15.476 69.48 34.5 69.48s34.501-15.304 34.501-34.116c0-18.811-15.477-34.115-34.5-34.115z" clip-rule="evenodd"/>
    </g>
</svg>
