<svg xmlns="http://www.w3.org/2000/svg" width="536" height="515" fill="none" viewBox="0 0 536 515">
    <g clip-path="url(#prefix__clip0)">
        <path fill="url(#prefix__paint0_linear)" d="M327.908.007L45.5 127.83l177.989 387.18 282.409-127.822L327.908.008z" opacity=".5"/>
        <path fill="#fff" d="M325.623 4.486L50.4 129.056 224.456 507.68l275.223-124.571L325.623 4.486z"/>
        <path fill="url(#prefix__paint1_linear)" d="M252.045 25.705L115.511 87.503l15.086 32.817 136.534-61.798-15.086-32.817z"/>
        <path fill="url(#prefix__paint2_linear)" d="M169.03 24.531c-10.538 4.772-15.092 17.32-10.168 28.03 4.923 10.708 17.46 15.522 27.999 10.75 10.538-4.771 15.092-17.32 10.169-28.029-4.924-10.709-17.461-15.522-28-10.75zm14.057 30.577c-2.217 1.068-4.705 1.455-7.145 1.113-2.441-.342-4.723-1.398-6.555-3.033-1.833-1.635-3.133-3.776-3.734-6.147-.601-2.372-.476-4.867.359-7.168s2.342-4.303 4.329-5.75c1.987-1.447 4.363-2.273 6.826-2.374 2.462-.1 4.899.53 6.999 1.81 2.1 1.28 3.768 3.152 4.79 5.377.685 1.445 1.077 3.01 1.153 4.604.076 1.595-.165 3.19-.71 4.691-.545 1.503-1.383 2.884-2.466 4.065-1.083 1.18-2.39 2.138-3.846 2.818v-.006z"/>
        <path fill="#3D8372" d="M250.614 26.38L116.956 86.877l14.423 31.374 133.657-60.496-14.422-31.373z"/>
        <path fill="#3D8372" d="M169.685 25.962c-3.696 1.672-6.809 4.394-8.946 7.822-2.137 3.428-3.201 7.408-3.058 11.436.142 4.028 1.486 7.924 3.86 11.194 2.374 3.27 5.672 5.77 9.478 7.18 3.805 1.41 7.946 1.67 11.9.744 3.954-.925 7.542-2.992 10.311-5.941 2.77-2.949 4.596-6.646 5.247-10.625.652-3.978.1-8.06-1.586-11.726-2.261-4.917-6.397-8.741-11.499-10.633-5.102-1.89-10.752-1.694-15.707.549zm13.439 29.236c-2.131.965-4.503 1.28-6.816.907-2.312-.373-4.461-1.418-6.175-3.003-1.714-1.585-2.915-3.639-3.453-5.902-.538-2.262-.387-4.632.432-6.81.82-2.178 2.272-4.065 4.173-5.424 1.9-1.36 4.165-2.129 6.506-2.21 2.341-.083 4.655.525 6.647 1.747 1.993 1.223 3.576 3.004 4.549 5.118 1.303 2.837 1.418 6.07.318 8.99-1.099 2.92-3.323 5.288-6.181 6.581v.006z"/>
        <path fill="url(#prefix__paint3_linear)" d="M150.455 157.852l-58.928 26.672 26.88 58.471 58.927-26.672-26.879-58.471z"/>
        <path fill="url(#prefix__paint4_linear)" d="M203.921 273.633l-58.927 26.671 26.88 58.471 58.927-26.671-26.88-58.471z"/>
        <path fill="#69F0AE" d="M149.278 160.968l-54.613 24.718 24.911 54.19 54.613-24.718-24.911-54.19z"/>
        <path fill="#3D8372" d="M202.052 275.763l-54.613 24.719 24.912 54.189 54.612-24.718-24.911-54.19z"/>
        <path fill="#E0E0E0" d="M267.755 127.554l-74.858 33.881 2.383 5.184 74.858-33.882-2.383-5.183zM320.077 113.265l-123.601 55.944 2.382 5.184 123.602-55.944-2.383-5.184zM314.939 124.979l-114.895 52.004 2.383 5.183 114.895-52.003-2.383-5.184zM320.531 242.354l-74.857 33.882 2.383 5.183 74.857-33.882-2.383-5.183zM372.852 228.06L249.25 284.005l2.383 5.183 123.601-55.944-2.382-5.184zM367.717 239.78l-114.896 52.003 2.383 5.184 114.895-52.004-2.382-5.183z"/>
        <path fill="url(#prefix__paint5_linear)" d="M120.548 202.8l14.063 4.532 4.628-26.857 6.843 1.857-7.697 33.203-21.21-9.225 3.373-3.51z"/>
        <path fill="#fff" d="M122.342 202.446l12.228 3.936 4.021-23.353 5.948 1.616-6.693 28.871-18.442-8.017 2.938-3.053zM175.444 317.957l12.228 3.936 4.022-23.353 5.947 1.616-6.692 28.87-18.442-8.016 2.937-3.053z"/>
        <path fill="#E0E0E0" d="M410.211 320.666L235.59 399.702l26.55 57.755 174.622-79.036-26.551-57.755z"/>
        <path fill="#3D8372" d="M384.897 366.695c-6.711-1.899-13.579-1.539-15.717 6.075-.72 2.567-.805 6.551-3.579 7.873-4.082 1.947-9.006-1.947-12.549-3.534-6.602-2.956-13.379-.943-17.201 5.271-1.938 3.149-2.767 6.773-3.428 10.36-.284 1.557-.321 3.48-.981 4.946-1.266 2.807-5.226 2.554-7.825 2.446-.569 0-1.15-.066-1.732-.126 2.054-2.808 3.08-6.228 2.907-9.693-.169-5.692-3.894-11.918-10.405-11.22-5.832.601-9.939 6.189-9.284 11.845.557 4.807 3.712 8.533 7.758 10.817-1.987.871-4.106 1.55-5.984 2.452-.877.421-1.728.893-2.55 1.412-5.675-2.716-13.13-3.227-18.236-.457-2.471 1.34-.666 5.325 1.817 3.973 3.888-2.11 8.176-1.581 12.24-.241l.34.12c-.402.511-.757 1.056-1.06 1.629-2.296 4.423 0 11.418 5.584 11.899 7.873.667 8.243-9.657 3.967-13.768-.182-.174-.364-.342-.557-.505 1.768-.847 3.682-1.484 5.372-2.199 1.472-.619 2.873-1.393 4.179-2.308l.302.078c6.015 1.352 15.402 1.773 17.564-5.457 1.854-6.274 2.029-19.597 12.022-18.365 4.076.499 7.42 3.606 11.296 4.73 3.47 1.027 7.486 1.069 10.332-1.467 2.35-2.091 2.877-5.18 3.598-8.065.369-1.49.733-3.269 1.956-4.333 2.211-1.917 5.863-.787 8.328-.09 2.695.757 4.257-3.329 1.526-4.098zm-78.129 50.835c-1.326 1.304-2.731.27-3.44-1.094-.86-1.658-.491-3.293.606-4.753.179-.239.371-.467.575-.685 2.622 1.682 4.766 4.092 2.283 6.532h-.024zm4.651-32.452c2.726-2.512 6.523-1.959 8.146 1.491 1.624 3.449.909 8.317-1.368 11.358-.302.399-.636.772-1 1.117-1.587-.526-3.054-1.357-4.318-2.445-3.222-2.885-5.045-8.216-1.435-11.539l-.025.018z"/>
        <path fill="url(#prefix__paint6_linear)" d="M421.217 133.239l-48.888 18.912c-9.194-.679-28.538-3.155-47.737-12.139-21.373-10-45.86-9.976-66.622.499-47.846 1.136-74.18-4.946-88.231-10.703l3.707-7.548-49.554-19.171L0 47.993V273.81l43.358 19.171 23.257-55.361 51.075 23.438 9.805-24.724 33.535 24.694 2.283 1.905-3.143 3.239c-2.882 3.02-4.488 7.021-4.488 11.181 0 4.159 1.606 8.16 4.488 11.181 1.395 1.463 3.076 2.628 4.94 3.424 1.864.797 3.872 1.207 5.901 1.207 2.03 0 4.038-.41 5.902-1.207 1.864-.796 3.545-1.961 4.939-3.424l-1.72 1.803c-2.882 3.02-4.488 7.021-4.488 11.18 0 4.16 1.606 8.161 4.488 11.181 1.395 1.463 3.076 2.629 4.94 3.425 1.864.796 3.872 1.207 5.901 1.207 2.03 0 4.038-.411 5.902-1.207 1.864-.796 3.545-1.962 4.94-3.425l9.932-10.246-6.819 7.031c-2.882 3.02-4.489 7.022-4.489 11.181 0 4.159 1.607 8.161 4.489 11.181 1.394 1.463 3.075 2.628 4.939 3.425 1.864.796 3.872 1.207 5.902 1.207 2.029 0 4.037-.411 5.901-1.207 1.864-.797 3.545-1.962 4.94-3.425l9.805-10.114-4.124 4.255c-2.015 2.109-3.138 4.905-3.138 7.812s1.123 5.703 3.138 7.813c.974 1.021 2.148 1.834 3.449 2.39 1.302.556 2.704.843 4.121.843 1.418 0 2.82-.287 4.122-.843 1.301-.556 2.475-1.369 3.449-2.39l6.541-6.743c11.235 8.143 20.326 14.086 24.777 15.625 18.551 6.382 18.551-6.4 18.551-6.4 24.777 12.776 37.169-12.777 37.169-12.777 30.973 12.777 30.973-19.171 30.973-19.171 7.74 5.325 13.324 2.885 17.225-1.802 5.311-6.359 5.959-15.331 2.313-22.531l29.604-27.145 12.804 25.974 51.074-23.438 23.257 51.16 34.25-15.174V75.733L421.217 133.24z"/>
        <path fill="#BE7C5E" d="M412.992 251.49l-53.914 47.548-41.93-77.271 95.844-23.774v53.497z"/>
        <path fill="#FDA57D" d="M155.41 126.665s17.303 23.774 119.804 17.83l59.904 89.159 40.143 44.814c6.305 7.043 6.662 17.722.472 24.861-3.761 4.333-9.169 6.611-16.655 1.653 0 0 0 29.718-29.95 17.831 0 0-11.979 23.774-35.939 11.887 0 0 0 11.887-17.969 5.943-17.97-5.943-113.82-83.209-113.82-83.209l-41.929-29.718 35.939-101.051z"/>
        <path fill="#BE7C5E" d="M371.058 156.388s-25.886 0-51.481-11.532c-23.275-10.475-50.378-9.141-71.854 4.609-17.503 11.208-32.669 29.766-32.384 60.415 0 0 23.293 23.774 47.919-23.774h17.97s17.303 59.441 65.894 53.485c48.592-5.955 59.905-11.887 59.905-11.887l-35.969-71.316zM213.794 273.754l-1.944-1.93c-5.254-5.212-13.771-5.212-19.024 0l-13.922 13.815c-5.254 5.213-5.254 13.664 0 18.876l1.944 1.93c5.253 5.212 13.77 5.212 19.023 0l13.923-13.815c5.253-5.213 5.253-13.664 0-18.876z"/>
        <path fill="#BE7C5E" d="M194.487 251.3l-1.944-1.929c-5.253-5.213-13.77-5.213-19.023 0l-13.923 13.815c-5.253 5.212-5.253 13.663 0 18.876l1.944 1.929c5.253 5.212 13.77 5.212 19.023 0l13.923-13.815c5.253-5.212 5.253-13.664 0-18.876zM240.746 288.608l-1.944-1.929c-5.253-5.212-13.77-5.212-19.024 0l-16.916 16.785c-5.253 5.213-5.253 13.664 0 18.876l1.944 1.93c5.254 5.212 13.771 5.212 19.024 0l16.916-16.786c5.253-5.212 5.253-13.663 0-18.876zM254.932 309.289l-1.358-1.347c-3.668-3.64-9.616-3.64-13.285 0l-10.676 10.594c-3.669 3.64-3.669 9.541 0 13.181l1.357 1.347c3.669 3.64 9.617 3.64 13.285 0l10.677-10.593c3.668-3.64 3.668-9.542 0-13.182z"/>
        <path fill="#fff" d="M472.891 263.377l-53.909 23.774-53.915-130.763 47.925-17.83 59.899 124.819zM65.561 233.66l53.909 23.774 53.915-130.763-47.925-17.837L65.562 233.66z"/>
        <path fill="#707070" d="M5.657 55.343l119.804 53.491-77.869 178.317-41.935-17.83V55.342z"/>
        <path fill="#5D708F" d="M532.796 85.06l-119.804 53.498 77.875 178.311 41.929-17.831V85.06z"/>
    </g>
    <defs>
        <linearGradient id="prefix__paint0_linear" x1="364.696" x2="188.985" y1="451.098" y2="62.886" gradientUnits="userSpaceOnUse">
            <stop stop-color="gray" stop-opacity=".25"/>
            <stop offset=".54" stop-color="gray" stop-opacity=".12"/>
            <stop offset="1" stop-color="gray" stop-opacity=".1"/>
        </linearGradient>
        <linearGradient id="prefix__paint1_linear" x1="86154" x2="85260.2" y1="-32795.2" y2="-34770.1" gradientUnits="userSpaceOnUse">
            <stop stop-color="gray" stop-opacity=".25"/>
            <stop offset=".54" stop-color="gray" stop-opacity=".12"/>
            <stop offset="1" stop-color="gray" stop-opacity=".1"/>
        </linearGradient>
        <linearGradient id="prefix__paint2_linear" x1="25460.2" x2="24216.3" y1="-6515.64" y2="-9263.79" gradientUnits="userSpaceOnUse">
            <stop stop-color="gray" stop-opacity=".25"/>
            <stop offset=".54" stop-color="gray" stop-opacity=".12"/>
            <stop offset="1" stop-color="gray" stop-opacity=".1"/>
        </linearGradient>
        <linearGradient id="prefix__paint3_linear" x1="34895.6" x2="32058.2" y1="7784.21" y2="1515.25" gradientUnits="userSpaceOnUse">
            <stop stop-color="gray" stop-opacity=".25"/>
            <stop offset=".54" stop-color="gray" stop-opacity=".12"/>
            <stop offset="1" stop-color="gray" stop-opacity=".1"/>
        </linearGradient>
        <linearGradient id="prefix__paint4_linear" x1="40710.2" x2="37872.5" y1="20249.1" y2="13979.5" gradientUnits="userSpaceOnUse">
            <stop stop-color="gray" stop-opacity=".25"/>
            <stop offset=".54" stop-color="gray" stop-opacity=".12"/>
            <stop offset="1" stop-color="gray" stop-opacity=".1"/>
        </linearGradient>
        <linearGradient id="prefix__paint5_linear" x1="16015.7" x2="15255.8" y1="4665.77" y2="2986.97" gradientUnits="userSpaceOnUse">
            <stop stop-color="gray" stop-opacity=".25"/>
            <stop offset=".54" stop-color="gray" stop-opacity=".12"/>
            <stop offset="1" stop-color="gray" stop-opacity=".1"/>
        </linearGradient>
        <linearGradient id="prefix__paint6_linear" x1="321378" x2="321378" y1="184780" y2="30713.9" gradientUnits="userSpaceOnUse">
            <stop stop-color="gray" stop-opacity=".25"/>
            <stop offset=".54" stop-color="gray" stop-opacity=".12"/>
            <stop offset="1" stop-color="gray" stop-opacity=".1"/>
        </linearGradient>
        <clipPath id="prefix__clip0">
            <path fill="#fff" d="M0 0H536V515H0z"/>
        </clipPath>
    </defs>
</svg>
