<svg xmlns="http://www.w3.org/2000/svg" width="296" height="185" fill="none" viewBox="0 0 296 185">
    <g clip-path="url(#prefix__clip0)">
        <path fill="#255784" d="M72.407 116.319H48.13c-1.39 0-2.515 1.128-2.515 2.519v6.646c0 1.391 1.126 2.519 2.515 2.519h24.276c1.389 0 2.515-1.128 2.515-2.519v-6.646c0-1.391-1.126-2.519-2.515-2.519zM101.713 116.319H77.437c-1.389 0-2.515 1.128-2.515 2.519v6.646c0 1.391 1.126 2.519 2.515 2.519h24.276c1.389 0 2.515-1.128 2.515-2.519v-6.646c0-1.391-1.126-2.519-2.515-2.519z"/>
        <path fill="#000" d="M101.713 116.319H77.437c-1.389 0-2.515 1.128-2.515 2.519v6.646c0 1.391 1.126 2.519 2.515 2.519h24.276c1.389 0 2.515-1.128 2.515-2.519v-6.646c0-1.391-1.126-2.519-2.515-2.519z" opacity=".1"/>
        <path fill="#255784" d="M131.019 116.319h-24.276c-1.389 0-2.515 1.128-2.515 2.519v6.646c0 1.391 1.126 2.519 2.515 2.519h24.276c1.389 0 2.515-1.128 2.515-2.519v-6.646c0-1.391-1.126-2.519-2.515-2.519zM160.326 116.319H136.05c-1.389 0-2.515 1.128-2.515 2.519v6.646c0 1.391 1.126 2.519 2.515 2.519h24.276c1.389 0 2.515-1.128 2.515-2.519v-6.646c0-1.391-1.126-2.519-2.515-2.519z"/>
        <path fill="#000" d="M160.326 116.319H136.05c-1.389 0-2.515 1.128-2.515 2.519v6.646c0 1.391 1.126 2.519 2.515 2.519h24.276c1.389 0 2.515-1.128 2.515-2.519v-6.646c0-1.391-1.126-2.519-2.515-2.519z" opacity=".1"/>
        <path fill="#255784" d="M189.632 116.319h-24.276c-1.389 0-2.515 1.128-2.515 2.519v6.646c0 1.391 1.126 2.519 2.515 2.519h24.276c1.389 0 2.515-1.128 2.515-2.519v-6.646c0-1.391-1.126-2.519-2.515-2.519zM218.939 116.319h-24.276c-1.389 0-2.516 1.128-2.516 2.519v6.646c0 1.391 1.127 2.519 2.516 2.519h24.276c1.389 0 2.515-1.128 2.515-2.519v-6.646c0-1.391-1.126-2.519-2.515-2.519z"/>
        <path fill="#000" d="M218.939 116.319h-24.276c-1.389 0-2.516 1.128-2.516 2.519v6.646c0 1.391 1.127 2.519 2.516 2.519h24.276c1.389 0 2.515-1.128 2.515-2.519v-6.646c0-1.391-1.126-2.519-2.515-2.519z" opacity=".1"/>
        <path fill="#255784" d="M194.662 116.319h24.276c1.389 0 2.516-1.128 2.516-2.519v-6.646c0-1.391-1.127-2.519-2.516-2.519h-24.276c-1.389 0-2.515 1.128-2.515 2.519v6.646c0 1.391 1.126 2.519 2.515 2.519zM165.356 116.319h24.276c1.389 0 2.515-1.128 2.515-2.519v-6.646c0-1.391-1.126-2.519-2.515-2.519h-24.276c-1.389 0-2.515 1.128-2.515 2.519v6.646c0 1.391 1.126 2.519 2.515 2.519z"/>
        <path fill="#000" d="M165.356 116.319h24.276c1.389 0 2.515-1.128 2.515-2.519v-6.646c0-1.391-1.126-2.519-2.515-2.519h-24.276c-1.389 0-2.515 1.128-2.515 2.519v6.646c0 1.391 1.126 2.519 2.515 2.519z" opacity=".1"/>
        <path fill="#255784" d="M136.05 116.319h24.276c1.389 0 2.515-1.128 2.515-2.519v-6.646c0-1.391-1.126-2.519-2.515-2.519H136.05c-1.389 0-2.516 1.128-2.516 2.519v6.646c0 1.391 1.127 2.519 2.516 2.519z"/>
        <path fill="#255784" d="M106.744 116.319h24.275c1.39 0 2.516-1.128 2.516-2.519v-6.646c0-1.391-1.126-2.519-2.516-2.519h-24.275c-1.39 0-2.516 1.128-2.516 2.519v6.646c0 1.391 1.126 2.519 2.516 2.519z"/>
        <path fill="#000" d="M106.744 116.319h24.275c1.39 0 2.516-1.128 2.516-2.519v-6.646c0-1.391-1.126-2.519-2.516-2.519h-24.275c-1.39 0-2.516 1.128-2.516 2.519v6.646c0 1.391 1.126 2.519 2.516 2.519z" opacity=".1"/>
        <path fill="#255784" d="M77.437 116.319h24.276c1.389 0 2.515-1.128 2.515-2.519v-6.646c0-1.391-1.126-2.519-2.515-2.519H77.437c-1.39 0-2.515 1.128-2.515 2.519v6.646c0 1.391 1.126 2.519 2.515 2.519z"/>
        <path fill="#255784" d="M48.13 116.319h24.277c1.389 0 2.515-1.128 2.515-2.519v-6.646c0-1.391-1.126-2.519-2.515-2.519H48.13c-1.39 0-2.516 1.128-2.516 2.519v6.646c0 1.391 1.127 2.519 2.516 2.519z"/>
        <path fill="#000" d="M48.13 116.319h24.277c1.389 0 2.515-1.128 2.515-2.519v-6.646c0-1.391-1.126-2.519-2.515-2.519H48.13c-1.39 0-2.516 1.128-2.516 2.519v6.646c0 1.391 1.127 2.519 2.516 2.519z" opacity=".1"/>
        <path fill="#255784" d="M72.407 92.95H48.13c-1.39 0-2.515 1.128-2.515 2.52v6.645c0 1.392 1.126 2.52 2.515 2.52h24.276c1.389 0 2.515-1.128 2.515-2.52V95.47c0-1.392-1.126-2.52-2.515-2.52zM101.713 92.95H77.437c-1.389 0-2.515 1.128-2.515 2.52v6.645c0 1.392 1.126 2.52 2.515 2.52h24.276c1.389 0 2.515-1.128 2.515-2.52V95.47c0-1.392-1.126-2.52-2.515-2.52z"/>
        <path fill="#000" d="M101.713 92.95H77.437c-1.389 0-2.515 1.128-2.515 2.52v6.645c0 1.392 1.126 2.52 2.515 2.52h24.276c1.389 0 2.515-1.128 2.515-2.52V95.47c0-1.392-1.126-2.52-2.515-2.52z" opacity=".1"/>
        <path fill="#255784" d="M131.019 92.95h-24.276c-1.389 0-2.515 1.128-2.515 2.52v6.645c0 1.392 1.126 2.52 2.515 2.52h24.276c1.389 0 2.515-1.128 2.515-2.52V95.47c0-1.392-1.126-2.52-2.515-2.52zM160.326 92.95H136.05c-1.389 0-2.515 1.128-2.515 2.52v6.645c0 1.392 1.126 2.52 2.515 2.52h24.276c1.389 0 2.515-1.128 2.515-2.52V95.47c0-1.392-1.126-2.52-2.515-2.52z"/>
        <path fill="#000" d="M160.326 92.95H136.05c-1.389 0-2.515 1.128-2.515 2.52v6.645c0 1.392 1.126 2.52 2.515 2.52h24.276c1.389 0 2.515-1.128 2.515-2.52V95.47c0-1.392-1.126-2.52-2.515-2.52z" opacity=".1"/>
        <path fill="#255784" d="M189.632 92.95h-24.276c-1.389 0-2.515 1.128-2.515 2.52v6.645c0 1.392 1.126 2.52 2.515 2.52h24.276c1.389 0 2.515-1.128 2.515-2.52V95.47c0-1.392-1.126-2.52-2.515-2.52zM218.939 92.95h-24.276c-1.389 0-2.516 1.128-2.516 2.52v6.645c0 1.392 1.127 2.52 2.516 2.52h24.276c1.389 0 2.515-1.128 2.515-2.52V95.47c0-1.392-1.126-2.52-2.515-2.52z"/>
        <path fill="#000" d="M218.939 92.95h-24.276c-1.389 0-2.516 1.128-2.516 2.52v6.645c0 1.392 1.127 2.52 2.516 2.52h24.276c1.389 0 2.515-1.128 2.515-2.52V95.47c0-1.392-1.126-2.52-2.515-2.52z" opacity=".1"/>
        <path fill="#255784" d="M194.662 92.95h24.276c1.389 0 2.516-1.128 2.516-2.52v-6.645c0-1.391-1.127-2.52-2.516-2.52h-24.276c-1.389 0-2.515 1.129-2.515 2.52v6.646c0 1.391 1.126 2.52 2.515 2.52zM165.356 92.95h24.276c1.389 0 2.515-1.128 2.515-2.52v-6.645c0-1.391-1.126-2.52-2.515-2.52h-24.276c-1.389 0-2.515 1.129-2.515 2.52v6.646c0 1.391 1.126 2.52 2.515 2.52z"/>
        <path fill="#000" d="M165.356 92.95h24.276c1.389 0 2.515-1.128 2.515-2.52v-6.645c0-1.391-1.126-2.52-2.515-2.52h-24.276c-1.389 0-2.515 1.129-2.515 2.52v6.646c0 1.391 1.126 2.52 2.515 2.52z" opacity=".1"/>
        <path fill="#255784" d="M136.05 92.95h24.276c1.389 0 2.515-1.128 2.515-2.52v-6.645c0-1.391-1.126-2.52-2.515-2.52H136.05c-1.389 0-2.516 1.129-2.516 2.52v6.646c0 1.391 1.127 2.52 2.516 2.52z"/>
        <path fill="#255784" d="M106.744 92.95h24.275c1.39 0 2.516-1.128 2.516-2.52v-6.645c0-1.391-1.126-2.52-2.516-2.52h-24.275c-1.39 0-2.516 1.129-2.516 2.52v6.646c0 1.391 1.126 2.52 2.516 2.52z"/>
        <path fill="#000" d="M106.744 92.95h24.275c1.39 0 2.516-1.128 2.516-2.52v-6.645c0-1.391-1.126-2.52-2.516-2.52h-24.275c-1.39 0-2.516 1.129-2.516 2.52v6.646c0 1.391 1.126 2.52 2.516 2.52z" opacity=".1"/>
        <path fill="#255784" d="M77.437 92.95h24.276c1.389 0 2.515-1.128 2.515-2.52v-6.645c0-1.391-1.126-2.52-2.515-2.52H77.437c-1.39 0-2.515 1.129-2.515 2.52v6.646c0 1.391 1.126 2.52 2.515 2.52z"/>
        <path fill="#255784" d="M48.13 92.95h24.277c1.389 0 2.515-1.128 2.515-2.52v-6.645c0-1.391-1.126-2.52-2.515-2.52H48.13c-1.39 0-2.516 1.129-2.516 2.52v6.646c0 1.391 1.127 2.52 2.516 2.52z"/>
        <path fill="#000" d="M48.13 92.95h24.277c1.389 0 2.515-1.128 2.515-2.52v-6.645c0-1.391-1.126-2.52-2.515-2.52H48.13c-1.39 0-2.516 1.129-2.516 2.52v6.646c0 1.391 1.127 2.52 2.516 2.52z" opacity=".1"/>
        <path fill="#255784" d="M72.407 70.152H48.13c-1.39 0-2.515 1.127-2.515 2.519v6.646c0 1.391 1.126 2.519 2.515 2.519h24.276c1.389 0 2.515-1.128 2.515-2.52v-6.645c0-1.392-1.126-2.52-2.515-2.52zM101.713 70.152H77.437c-1.389 0-2.515 1.127-2.515 2.519v6.646c0 1.391 1.126 2.519 2.515 2.519h24.276c1.389 0 2.515-1.128 2.515-2.52v-6.645c0-1.392-1.126-2.52-2.515-2.52z"/>
        <path fill="#000" d="M101.713 70.152H77.437c-1.389 0-2.515 1.127-2.515 2.519v6.646c0 1.391 1.126 2.519 2.515 2.519h24.276c1.389 0 2.515-1.128 2.515-2.52v-6.645c0-1.392-1.126-2.52-2.515-2.52z" opacity=".1"/>
        <path fill="#255784" d="M131.019 70.152h-24.276c-1.389 0-2.515 1.127-2.515 2.519v6.646c0 1.391 1.126 2.519 2.515 2.519h24.276c1.389 0 2.515-1.128 2.515-2.52v-6.645c0-1.392-1.126-2.52-2.515-2.52zM160.326 70.152H136.05c-1.389 0-2.515 1.127-2.515 2.519v6.646c0 1.391 1.126 2.519 2.515 2.519h24.276c1.389 0 2.515-1.128 2.515-2.52v-6.645c0-1.392-1.126-2.52-2.515-2.52z"/>
        <path fill="#000" d="M160.326 70.152H136.05c-1.389 0-2.515 1.127-2.515 2.519v6.646c0 1.391 1.126 2.519 2.515 2.519h24.276c1.389 0 2.515-1.128 2.515-2.52v-6.645c0-1.392-1.126-2.52-2.515-2.52z" opacity=".1"/>
        <path fill="#255784" d="M189.632 70.152h-24.276c-1.389 0-2.515 1.127-2.515 2.519v6.646c0 1.391 1.126 2.519 2.515 2.519h24.276c1.389 0 2.515-1.128 2.515-2.52v-6.645c0-1.392-1.126-2.52-2.515-2.52zM218.939 70.152h-24.276c-1.389 0-2.516 1.127-2.516 2.519v6.646c0 1.391 1.127 2.519 2.516 2.519h24.276c1.389 0 2.515-1.128 2.515-2.52v-6.645c0-1.392-1.126-2.52-2.515-2.52z"/>
        <path fill="#000" d="M218.939 70.152h-24.276c-1.389 0-2.516 1.127-2.516 2.519v6.646c0 1.391 1.127 2.519 2.516 2.519h24.276c1.389 0 2.515-1.128 2.515-2.52v-6.645c0-1.392-1.126-2.52-2.515-2.52z" opacity=".1"/>
        <path fill="#255784" d="M165.356 70.152h24.276c1.389 0 2.515-1.128 2.515-2.52v-6.646c0-1.39-1.126-2.519-2.515-2.519h-24.276c-1.389 0-2.515 1.128-2.515 2.52v6.645c0 1.392 1.126 2.52 2.515 2.52z"/>
        <path fill="#000" d="M165.356 70.152h24.276c1.389 0 2.515-1.128 2.515-2.52v-6.646c0-1.39-1.126-2.519-2.515-2.519h-24.276c-1.389 0-2.515 1.128-2.515 2.52v6.645c0 1.392 1.126 2.52 2.515 2.52z" opacity=".1"/>
        <path fill="#255784" d="M136.05 70.152h24.276c1.389 0 2.515-1.128 2.515-2.52v-6.646c0-1.39-1.126-2.519-2.515-2.519H136.05c-1.389 0-2.516 1.128-2.516 2.52v6.645c0 1.392 1.127 2.52 2.516 2.52z"/>
        <path fill="#255784" d="M106.744 70.152h24.275c1.39 0 2.516-1.128 2.516-2.52v-6.646c0-1.39-1.126-2.519-2.516-2.519h-24.275c-1.39 0-2.516 1.128-2.516 2.52v6.645c0 1.392 1.126 2.52 2.516 2.52z"/>
        <path fill="#000" d="M106.744 70.152h24.275c1.39 0 2.516-1.128 2.516-2.52v-6.646c0-1.39-1.126-2.519-2.516-2.519h-24.275c-1.39 0-2.516 1.128-2.516 2.52v6.645c0 1.392 1.126 2.52 2.516 2.52z" opacity=".1"/>
        <path fill="#255784" d="M77.437 70.152h24.276c1.389 0 2.515-1.128 2.515-2.52v-6.646c0-1.39-1.126-2.519-2.515-2.519H77.437c-1.39 0-2.515 1.128-2.515 2.52v6.645c0 1.392 1.126 2.52 2.515 2.52z"/>
        <path fill="#255784" d="M48.13 70.152h24.277c1.389 0 2.515-1.128 2.515-2.52v-6.646c0-1.39-1.126-2.519-2.515-2.519H48.13c-1.39 0-2.516 1.128-2.516 2.52v6.645c0 1.392 1.127 2.52 2.516 2.52z"/>
        <path fill="#000" d="M48.13 70.152h24.277c1.389 0 2.515-1.128 2.515-2.52v-6.646c0-1.39-1.126-2.519-2.515-2.519H48.13c-1.39 0-2.516 1.128-2.516 2.52v6.645c0 1.392 1.127 2.52 2.516 2.52z" opacity=".1"/>
        <path fill="#255784" d="M72.407 46.783H48.13c-1.39 0-2.515 1.128-2.515 2.52v6.645c0 1.391 1.126 2.52 2.515 2.52h24.276c1.389 0 2.515-1.129 2.515-2.52v-6.646c0-1.391-1.126-2.519-2.515-2.519zM101.713 46.783H77.437c-1.389 0-2.515 1.128-2.515 2.52v6.645c0 1.391 1.126 2.52 2.515 2.52h24.276c1.389 0 2.515-1.129 2.515-2.52v-6.646c0-1.391-1.126-2.519-2.515-2.519z"/>
        <path fill="#000" d="M101.713 46.783H77.437c-1.389 0-2.515 1.128-2.515 2.52v6.645c0 1.391 1.126 2.52 2.515 2.52h24.276c1.389 0 2.515-1.129 2.515-2.52v-6.646c0-1.391-1.126-2.519-2.515-2.519z" opacity=".1"/>
        <path fill="#255784" d="M160.326 46.783H136.05c-1.389 0-2.515 1.128-2.515 2.52v6.645c0 1.391 1.126 2.52 2.515 2.52h24.276c1.389 0 2.515-1.129 2.515-2.52v-6.646c0-1.391-1.126-2.519-2.515-2.519z"/>
        <path fill="#000" d="M160.326 46.783H136.05c-1.389 0-2.515 1.128-2.515 2.52v6.645c0 1.391 1.126 2.52 2.515 2.52h24.276c1.389 0 2.515-1.129 2.515-2.52v-6.646c0-1.391-1.126-2.519-2.515-2.519z" opacity=".1"/>
        <path fill="#255784" d="M189.632 46.783h-24.276c-1.389 0-2.515 1.128-2.515 2.52v6.645c0 1.391 1.126 2.52 2.515 2.52h24.276c1.389 0 2.515-1.129 2.515-2.52v-6.646c0-1.391-1.126-2.519-2.515-2.519z"/>
        <path fill="url(#prefix__paint0_linear)" d="M218.938 7.857h-26.552c-1.389 0-2.515 1.128-2.515 2.52v7.551c0 1.392 1.126 2.52 2.515 2.52h26.552c1.39 0 2.516-1.128 2.516-2.52v-7.552c0-1.391-1.126-2.519-2.516-2.519z"/>
        <path fill="#255784" d="M193.524 19.994H217.8c1.389 0 2.515-1.128 2.515-2.519V10.83c0-1.391-1.126-2.519-2.515-2.519h-24.276c-1.389 0-2.515 1.128-2.515 2.52v6.645c0 1.391 1.126 2.52 2.515 2.52zM165.356 46.783h24.276c1.389 0 2.515-1.128 2.515-2.52v-6.645c0-1.391-1.126-2.52-2.515-2.52h-24.276c-1.389 0-2.515 1.129-2.515 2.52v6.646c0 1.391 1.126 2.519 2.515 2.519z"/>
        <path fill="#000" d="M165.356 46.783h24.276c1.389 0 2.515-1.128 2.515-2.52v-6.645c0-1.391-1.126-2.52-2.515-2.52h-24.276c-1.389 0-2.515 1.129-2.515 2.52v6.646c0 1.391 1.126 2.519 2.515 2.519z" opacity=".1"/>
        <path fill="#255784" d="M77.437 46.783h24.276c1.389 0 2.515-1.128 2.515-2.52v-6.645c0-1.391-1.126-2.52-2.515-2.52H77.437c-1.39 0-2.515 1.129-2.515 2.52v6.646c0 1.391 1.126 2.519 2.515 2.519z"/>
        <path fill="#F5F5F5" d="M141.979 185c78.413 0 141.98-14.482 141.98-32.346 0-17.864-63.567-32.345-141.98-32.345C63.566 120.309 0 134.79 0 152.654 0 170.518 63.566 185 141.979 185z"/>
        <path stroke="#535461" stroke-miterlimit="10" stroke-width="2" d="M32.422 138.137s2.56-8.666-.478-15.047c-1.288-2.667-1.677-5.682-1.107-8.589.281-1.379.688-2.729 1.215-4.033"/>
        <path fill="#A8C9EF" d="M30.169 106.439c0 1.063 1.92 4.143 1.92 4.143s1.92-3.08 1.92-4.143c0-.511-.202-1-.562-1.361-.36-.36-.849-.563-1.358-.563-.51 0-.998.203-1.358.563-.36.361-.563.85-.563 1.361zM26.993 112.323c.569.892 3.861 2.431 3.861 2.431s-.06-3.63-.637-4.522c-.279-.425-.714-.723-1.21-.828-.497-.105-1.015-.008-1.44.268-.427.276-.726.71-.834 1.207-.107.497-.014 1.016.26 1.444zM27.133 122.378c.947.479 4.552.148 4.552.148s-1.88-3.104-2.828-3.582c-.453-.217-.973-.248-1.449-.086-.475.163-.868.505-1.095.954-.226.45-.267.97-.115 1.449.152.48.485.881.929 1.117h.006zM28.948 129.961c.854.633 4.467.918 4.467.918s-1.331-3.377-2.182-4.01c-.41-.27-.91-.373-1.393-.286-.484.087-.916.356-1.208.752-.292.396-.42.889-.36 1.378.06.488.305.935.685 1.248h-.009zM34.886 114.96c-.76.741-4.305 1.507-4.305 1.507s.868-3.525 1.628-4.275c.18-.176.394-.314.628-.408.235-.093.485-.139.737-.136.253.004.502.057.733.157.232.1.442.245.617.426.176.181.315.395.408.63.093.234.14.485.136.738-.004.253-.057.502-.157.734-.1.232-.244.442-.425.618v.009zM36.898 123.848c-.948.479-4.553.148-4.553.148s1.88-3.103 2.828-3.582c.452-.204.965-.225 1.432-.06.467.166.852.506 1.074.949.223.444.265.956.12 1.43-.146.474-.469.874-.901 1.115zM37.666 132.774c-.854.633-4.467.918-4.467.918s1.331-3.378 2.182-4.01c.41-.271.91-.373 1.393-.286.484.086.916.355 1.208.752.291.396.42.889.36 1.378-.06.488-.305.935-.685 1.248h.009zM169.857 89.023s9.359 9.373 4.075 23.281c-5.284 13.907 9.056 37.047 9.056 37.047s-.153-.022-.438-.074c-19.22-3.411-28.768-25.429-18.082-41.781 3.973-6.082 7.236-13.212 5.389-18.473z"/>
        <path fill="#000" d="M169.857 89.023s9.359 9.373 4.075 23.281c-5.284 13.907 9.056 37.047 9.056 37.047s-.153-.022-.438-.074c-19.22-3.411-28.768-25.429-18.082-41.781 3.973-6.082 7.236-13.212 5.389-18.473z" opacity=".2"/>
        <path stroke="#535461" stroke-miterlimit="10" d="M169.857 89.023s5.284 11.488 0 20.861c-5.283 9.373-.905 35.674 13.14 39.453"/>
        <path fill="#A8C9EF" d="M153.193 126.929s10.678-1.71 11.651 7.883c.973 9.592 20.532 10.912 20.532 10.912l-.367.245c-16.15 10.618-31.583 6.762-29.261-7.336.865-5.241.788-10.51-2.555-11.704z"/>
        <path fill="#F5F5F5" d="M153.193 126.929s10.678-1.71 11.651 7.883c.973 9.592 20.532 10.912 20.532 10.912l-.367.245c-16.15 10.618-31.583 6.762-29.261-7.336.865-5.241.788-10.51-2.555-11.704z" opacity=".2"/>
        <path stroke="#535461" stroke-miterlimit="10" d="M153.193 126.929s8.288 1.821 7.608 9.37c-.68 7.549 12.309 16.598 24.575 9.424"/>
        <path fill="#A8A8A8" d="M234.431 148.992s-15.848-3.174-20.076-7.409c-4.228-4.235-23.246-11.642-25.36-6.35-2.114 5.292-28.527 23.286-10.55 26.461 17.976 3.175 42.263 4.232 47.547 2.117 5.284-2.114 8.439-14.819 8.439-14.819z"/>
        <path fill="#000" d="M178.444 159.728c17.963 3.174 42.264 4.232 47.548 2.117 4.023-1.613 6.828-9.356 7.924-12.961l.529.111s-3.17 12.699-8.453 14.819c-5.284 2.121-29.591 1.058-47.548-2.117-5.184-.918-6.666-3.069-6.108-5.794.418 1.776 2.236 3.141 6.108 3.825z" opacity=".2"/>
        <path fill="url(#prefix__paint1_linear)" d="M266.497 8.028c-.282-.705-.732-1.33-1.311-1.821-4.254-3.882-11.131-2.705-16.412-5.078C247.556.58 246.31-.177 244.99.03c-1.844.285-3.559 2.394-5.167 1.46l.114.35-.114-.06 1.184 3.608c.455 1.385.933 2.81 1.815 3.964-1.306 1.14-2.306 2.591-2.907 4.219-.602 1.627-.787 3.38-.537 5.098.249 1.717.924 3.345 1.964 4.733 1.04 1.388 2.41 2.494 3.987 3.215.056.12.111.242.165.364l.15.063c.351.807.612 1.65.78 2.513-1.369.191-3.756 1.71-6.1 3.945l-4.689-.157c-3.033-.101-5.968-1.101-8.434-2.873l-14.044-10.102c-1 .098-1.943.516-2.689 1.19-1.741-1.817-3.221-3.704-3.095-4.844 0 0-6.527-12.234-8.9-6.118-2.373 6.115 4.45 12.539 4.45 12.539l4.327 5.617c-.171.985-.279 1.98-.324 2.978 5.34 6.119 24.028 11.653 24.028 11.653l2.914.142.017.143c-.179.766-.267 1.55-.262 2.337v.584c.148 9.758 1.483 39.613 1.483 39.613.258-.117.529-.223.802-.322l-.208 2.653s-12.459 1.747-21.655 5.244c-9.196 3.496-9.492 7.574-9.492 7.574v35.982c-2.626 1.351-6.772 3.135-8.9 2.175-2.31-1.032-3.577-.165-3.807.738-.044.179-.044.366 0 .544.019.081.049.158.088.231v.017c.042.076.095.145.157.205.89.875 20.173 8.447 24.623 7.282.137-.036.272-.082.404-.137.042-.017.079-.04.122-.06.043-.02.165-.077.242-.122.077-.046.088-.06.131-.089.042-.028.133-.088.196-.137.063-.048.083-.074.122-.111.04-.037.117-.099.168-.156.051-.057.074-.086.111-.129.037-.042.103-.114.148-.176.046-.063.063-.094.097-.14.034-.046.091-.131.131-.199.04-.069.054-.097.079-.149.026-.051.08-.145.117-.222.037-.077.046-.1.066-.151.02-.051.071-.162.102-.245.031-.083.034-.1.054-.151.02-.051.063-.18.088-.285 0-.049.026-.097.04-.145l.077-.285c0-.046.02-.092.028-.137.023-.109.046-.217.063-.325 0-.04 0-.083.02-.123.02-.116.037-.236.051-.353v-.103c.014-.128.029-.256.04-.384v-.08c.011-.139.02-.278.026-.416v-.057V142.988c-.006-1.738-.197-3.47-.569-5.167l1.118-30.644c5.826.09 11.654-.125 17.458-.644l.638 14.625s0 9.612 3.263 13.981c2.794 3.739 6.021 20.277 6.891 24.971-1.197 2.279-3.491 5.129-7.485 5.032 0 0-7.515-.649-7.091 1.425.012.055.028.108.048.16.024.06.052.118.083.174.031.054.065.108.105.165l.023.034c.043.06.091.123.145.188v.015c.051.059.105.119.165.179l.051.051c.069.069.137.137.217.208 3.855 3.497 26.401 4.079 26.401 4.079v-.08-.083c0-1.012-.148-6.318-1.497-10.313h.313s-3.263-29.422-5.932-32.916c0 0-.709-15.515.89-25.235l.285-.109c7.477-2.798 8.009-9.69 7.238-14.75 1.423.456 2.254.766 2.254.766l-.074-.61.074.029s-.142-.926-.379-2.368c-.534-3.97-1.57-10.907-2.674-14.181-.179-.721-.35-1.337-.507-1.801-.637-1.968-1.074-3.995-1.306-6.05-.302-2.665-.455-5.344-.458-8.026.025-3.582.298-7.16.82-10.704.452-3.095.853-6.617.825-9.076.031-.86-.029-1.72-.179-2.565-.396-1.816-2.146-2.995-3.964-3.748-.116-.048-.236-.088-.355-.134.045-.686.102-1.467.176-2.28.218.152.464.257.724.31.26.053.527.052.787-.002.782-.17 1.343-.823 1.841-1.425 2.629-3.234 5.329-6.606 6.339-10.624.408-1.794.599-3.632.569-5.472v-.302c.049-.688-.023-1.38-.211-2.043z"/>
        <path fill="#F7C4A7" d="M242.56 23.796s3.983 5.985 3.13 8.835c-.854 2.85 9.389 1.14 9.389 1.14s.285-11.115 2.277-13.68c1.991-2.565-14.796 3.705-14.796 3.705zM216.241 27.643s-8.251-6.84-7.966-9.404c0 0-6.26-11.97-8.536-5.985-2.277 5.985 4.268 12.255 4.268 12.255l7.966 10.544 4.268-7.41z"/>
        <path fill="#535461" d="M207.847 134.94s-7.682 4.844-10.812 3.42c-3.129-1.425-4.268.854-3.414 1.709.854.855 19.348 8.265 23.616 7.125 4.268-1.14 2.097-10.476 2.097-10.476l-11.487-1.778zM248.535 155.744s-1.849 7.837-8.251 7.694c0 0-9.674-.855-5.975 2.565s25.323 3.99 25.323 3.99 0-11.685-3.984-14.249c-3.983-2.565-7.113 0-7.113 0z"/>
        <path fill="#575988" d="M236.87 100.457l.853 19.949s0 9.404 3.13 13.679 6.829 25.648 6.829 25.648h10.812s-3.13-28.783-5.691-32.203c0 0-1.138-25.363 2.845-31.063l-18.778 3.99z"/>
        <path fill="#000" d="M236.87 100.457l.853 19.949s0 9.404 3.13 13.679 6.829 25.648 6.829 25.648h10.812s-3.13-28.783-5.691-32.203c0 0-1.138-25.363 2.845-31.063l-18.778 3.99z" opacity=".1"/>
        <path fill="#575988" d="M259.347 82.503s6.544 15.674-5.406 20.234c-11.95 4.559-33.574 3.989-33.574 3.989l-1.138 33.059s-13.373 1.709-13.658-2.565v-36.193s.285-3.99 9.105-7.41c8.821-3.42 20.771-5.13 20.771-5.13l.569-7.41 23.331 1.426z"/>
        <path fill="#000" d="M248.862 30.867c2.273-.252 4.573.073 6.687.946 1.744.735 3.414 1.89 3.801 3.665.45 2.103-.048 6.82-.62 10.812-.916 6.257-1.033 12.605-.347 18.892.284 2.618.697 4.901 1.252 5.919 1.707 3.135 3.414 17.954 3.414 17.954s-18.779-7.125-28.168-2.85c0 0-1.281-29.211-1.423-38.758-.111-7.393 9.247-15.817 12.377-16.102 1.832-.165 1.204-.287 3.027-.478z" opacity=".1"/>
        <path fill="#FF985F" d="M248.862 30.297c2.273-.253 4.573.073 6.687.946 1.744.735 3.414 1.89 3.801 3.665.45 2.103-.048 6.82-.62 10.812-.916 6.257-1.033 12.605-.347 18.892.221 2.009.64 3.992 1.252 5.919 1.28 3.847 3.414 17.953 3.414 17.953s-18.779-7.124-28.168-2.85c0 0-1.281-29.21-1.423-38.757-.111-7.393 9.247-15.817 12.377-16.102 1.832-.165 1.204-.287 3.027-.478z"/>
        <path fill="#000" d="M253.941 46.025l-20.202-1.14s-1.286-9.92 1.631-9.818l19.994.698s4.268 5.13-1.423 10.26z" opacity=".1"/>
        <path fill="#FF985F" d="M253.941 45.455l-23.047-1.14s-17.925-5.415-23.046-11.4c0 0 .284-10.544 5.975-11.114l13.461 9.886c2.352 1.729 5.17 2.708 8.086 2.81l19.994.699s4.268 5.13-1.423 10.259z"/>
        <path fill="#000" d="M254.937 25.079c.339-2.702 1.562-3.6 2.419-4.703 1.991-2.565-14.796 3.705-14.796 3.705.868 1.335 1.629 2.737 2.276 4.192 1.339.618 2.795.938 4.268.938 2.464 0 4.063-2.67 5.833-4.132z" opacity=".1"/>
        <path fill="#F7C4A7" d="M249.104 28.926c5.657 0 10.243-4.593 10.243-10.26 0-5.666-4.586-10.259-10.243-10.259S238.861 13 238.861 18.667c0 5.665 4.586 10.259 10.243 10.259z"/>
        <path fill="#000" d="M242.637 11.476c-1.09-1.194-1.616-2.784-2.111-4.326l-1.138-3.53c1.542.911 3.186-1.14 4.956-1.426 1.266-.202 2.464.539 3.631 1.072 5.064 2.32 11.665 1.168 15.74 4.967.557.483.988 1.094 1.257 1.781.188.648.265 1.322.228 1.995.033 1.799-.145 3.595-.532 5.352-.967 3.93-3.557 7.23-6.08 10.394-.478.6-1.016 1.24-1.767 1.407-1.466.328-2.598-1.256-3.164-2.647-.75-1.843-1.304-3.76-1.651-5.72-.147-.829-.264-1.684-.677-2.416-.882-1.565-3.056-3.047-4.376-4.26-1.32-1.215-3.104-1.317-4.316-2.643z" opacity=".1"/>
        <path fill="#632652" d="M242.637 11.191c-1.09-1.194-1.616-2.784-2.111-4.326l-1.138-3.53c1.542.911 3.186-1.14 4.956-1.426 1.266-.202 2.464.539 3.631 1.072 5.064 2.32 11.665 1.168 15.74 4.967.557.483.988 1.094 1.257 1.781.188.648.265 1.322.228 1.995.033 1.799-.145 3.595-.532 5.352-.967 3.93-3.557 7.23-6.08 10.394-.478.6-1.016 1.24-1.767 1.407-1.466.328-2.598-1.256-3.164-2.647-.75-1.843-1.304-3.76-1.651-5.72-.147-.829-.264-1.684-.677-2.416-.882-1.565-3.056-3.047-4.376-4.26-1.32-1.215-3.104-1.317-4.316-2.643z"/>
        <path fill="#F7C4A7" d="M251.807 21.659c.472 0 .854-.83.854-1.853 0-1.023-.382-1.852-.854-1.852-.471 0-.853.83-.853 1.852 0 1.023.382 1.853.853 1.853z"/>
        <path fill="#000" d="M256.929 69.251s-.569 1.71-3.414 1.425c-2.846-.285-11.097-.855-11.097 0" opacity=".1"/>
        <path fill="#F5F5F5" d="M234.309 165.718c-.513-.473-.769-.855-.828-1.188-.074.37.153.855.828 1.473 3.698 3.42 25.323 3.99 25.323 3.99v-.285c-.14-.003-21.636-.582-25.323-3.99zM217.237 146.624c-4.268 1.14-22.762-6.27-23.616-7.125-.114-.115-.195-.259-.236-.416-.049.171-.053.352-.012.525.041.173.127.332.248.461.854.855 19.348 8.265 23.616 7.125 2.197-.587 2.686-3.343 2.646-5.882-.043 2.365-.614 4.765-2.646 5.312z" opacity=".5"/>
        <path fill="#67647E" d="M142.858 143.558c.114 0 .222-.045.302-.126.08-.08.125-.189.125-.302 0-.113-.045-.222-.125-.302-.08-.08-.188-.125-.302-.125-.113 0-.221.045-.301.125-.08.08-.125.189-.125.302 0 .113.045.222.125.302.08.081.188.126.301.126z"/>
        <path fill="#A8A8A8" d="M26.031 135.997s10.619-.328 13.817-2.61c3.198-2.283 16.332-5.007 17.126-1.348.794 3.659 15.959 18.204 3.96 18.313-11.998.108-27.852-1.87-31.047-3.819-3.196-1.949-3.856-10.536-3.856-10.536z"/>
        <path fill="#000" d="M61.16 149.066c-11.988.097-27.853-1.869-31.049-3.818-2.432-1.485-3.414-6.809-3.724-9.265h-.356s.672 8.578 3.867 10.524c3.195 1.947 19.06 3.93 31.036 3.845 3.46-.029 4.655-1.26 4.59-3.087-.47 1.092-1.79 1.781-4.365 1.801z" opacity=".2"/>
        <path fill="#255784" d="M269.209 163.341h24.276c1.389 0 2.515-1.128 2.515-2.519v-6.646c0-1.391-1.126-2.519-2.515-2.519h-24.276c-1.389 0-2.515 1.128-2.515 2.519v6.646c0 1.391 1.126 2.519 2.515 2.519z"/>
        <path fill="#000" d="M269.209 163.341h24.276c1.389 0 2.515-1.128 2.515-2.519v-6.646c0-1.391-1.126-2.519-2.515-2.519h-24.276c-1.389 0-2.515 1.128-2.515 2.519v6.646c0 1.391 1.126 2.519 2.515 2.519z" opacity=".1"/>
        <path fill="#255784" d="M293.485 140.542h-24.276c-1.389 0-2.515 1.128-2.515 2.52v6.646c0 1.391 1.126 2.519 2.515 2.519h24.276c1.389 0 2.515-1.128 2.515-2.519v-6.646c0-1.392-1.126-2.52-2.515-2.52zM269.209 140.542h24.276c1.389 0 2.515-1.127 2.515-2.519v-6.646c0-1.391-1.126-2.519-2.515-2.519h-24.276c-1.389 0-2.515 1.128-2.515 2.519v6.646c0 1.392 1.126 2.519 2.515 2.519z"/>
        <path fill="#000" d="M269.209 140.542h24.276c1.389 0 2.515-1.127 2.515-2.519v-6.646c0-1.391-1.126-2.519-2.515-2.519h-24.276c-1.389 0-2.515 1.128-2.515 2.519v6.646c0 1.392 1.126 2.519 2.515 2.519z" opacity=".1"/>
    </g>
    <defs>
        <linearGradient id="prefix__paint0_linear" x1="205.662" x2="205.662" y1="20.448" y2="7.857" gradientUnits="userSpaceOnUse">
            <stop stop-color="gray" stop-opacity=".25"/>
            <stop offset=".54" stop-color="gray" stop-opacity=".12"/>
            <stop offset="1" stop-color="gray" stop-opacity=".1"/>
        </linearGradient>
        <linearGradient id="prefix__paint1_linear" x1="66536.4" x2="66536.4" y1="125160" y2="21550.1" gradientUnits="userSpaceOnUse">
            <stop stop-color="gray" stop-opacity=".25"/>
            <stop offset=".54" stop-color="gray" stop-opacity=".12"/>
            <stop offset="1" stop-color="gray" stop-opacity=".1"/>
        </linearGradient>
        <clipPath id="prefix__clip0">
            <path fill="#fff" d="M0 0h296v185H0V0z"/>
        </clipPath>
    </defs>
</svg>
