<svg xmlns="http://www.w3.org/2000/svg" width="331" height="188" fill="none" viewBox="0 0 331 188">
    <g filter="url(#prefix__filter0_d)">
        <path fill="#3F3D56" d="M281.589 34.939h-80.124v-1.642h-36.332v1.642H84.678c-.712 0-1.416.14-2.074.41-.657.271-1.255.668-1.758 1.169-.504.5-.903 1.094-1.175 1.748-.273.654-.413 1.355-.413 2.063v109.113c0 1.43.571 2.801 1.588 3.812 1.016 1.011 2.395 1.579 3.832 1.579H281.59c1.438 0 2.816-.568 3.832-1.579 1.017-1.011 1.588-2.382 1.588-3.812V40.329c0-.708-.14-1.409-.413-2.063-.272-.654-.671-1.248-1.175-1.748-.503-.5-1.1-.898-1.758-1.169-.657-.27-1.362-.41-2.074-.41z"/>
        <path fill="#000" d="M279.741 44.463H86.526v108.4h193.215v-108.4z" opacity=".2"/>
        <path fill="#63B9FF" d="M182.969 41.508c1.094 0 1.981-.882 1.981-1.97 0-1.089-.887-1.971-1.981-1.971-1.095 0-1.982.882-1.982 1.97 0 1.089.887 1.971 1.982 1.971z"/>
        <path fill="#3F3D56" d="M323 166.205H42.646v.761H323v-.761z"/>
        <path fill="#63B9FF" d="M209.532 84.963v-8.02c0-1.292-.256-2.571-.753-3.765s-1.226-2.279-2.145-3.192c-.919-.914-2.009-1.639-3.21-2.133-1.2-.495-2.487-.75-3.786-.75h-8.064c0-1.082-3.498-1.969-7.943-2.053v-9.671c1.394-.175 2.67-.872 3.566-1.949.896-1.077 1.346-2.453 1.258-3.848-.088-1.395-.707-2.704-1.732-3.661-1.025-.957-2.377-1.49-3.783-1.49-1.405 0-2.758.533-3.783 1.49-1.024.957-1.644 2.266-1.732 3.661-.088 1.395.362 2.771 1.258 3.848.897 1.077 2.172 1.774 3.566 1.949v9.671c-4.445.084-7.943.971-7.943 2.054h-9.445c-1.299 0-2.586.254-3.786.749-1.201.494-2.292 1.219-3.21 2.133-.919.913-1.648 1.998-2.145 3.192-.497 1.194-.753 2.473-.753 3.766v8.02c-1.145 0-2.072 3.844-2.072 8.586 0 4.742.927 8.586 2.072 8.586v9.394c0 1.292.256 2.572.753 3.765.497 1.194 1.226 2.279 2.145 3.193.918.913 2.009 1.638 3.21 2.133 1.2.494 2.487.749 3.786.749h34.777c1.299 0 2.586-.255 3.786-.749 1.201-.495 2.291-1.22 3.21-2.133.919-.914 1.648-1.999 2.145-3.193.497-1.193.753-2.473.753-3.765v-9.394c1.145 0 2.072-3.844 2.072-8.586 0-4.742-.927-8.587-2.072-8.587z"/>
        <path fill="#3F3D56" d="M166.842 70.195h30.815c2.325 0 4.555.918 6.199 2.553 1.644 1.635 2.568 3.853 2.568 6.165v30.647c0 2.312-.924 4.53-2.568 6.165-1.644 1.635-3.874 2.554-6.199 2.554h-30.815c-2.325 0-4.555-.919-6.199-2.554-1.645-1.635-2.568-3.853-2.568-6.165V78.913c0-2.312.923-4.53 2.568-6.165 1.644-1.635 3.874-2.553 6.199-2.553z"/>
        <path fill="#63B9FF" d="M171.198 93.034c-1.648-.001-3.228-.653-4.393-1.812-1.166-1.16-1.821-2.73-1.823-4.37 0-.09.036-.178.101-.243.065-.064.153-.1.244-.1.092 0 .18.036.244.1.065.065.102.152.102.243 0 1.458.582 2.855 1.618 3.886 1.036 1.03 2.442 1.61 3.907 1.61 1.466 0 2.871-.58 3.907-1.61 1.037-1.03 1.619-2.428 1.619-3.886 0-.09.036-.178.101-.243.065-.064.153-.1.244-.1.092 0 .18.036.244.1.065.065.102.152.102.243-.002 1.64-.658 3.21-1.823 4.37-1.166 1.159-2.746 1.81-4.394 1.813zM182.249 104.712c-1.281-.001-2.51-.508-3.417-1.41-.906-.901-1.416-2.123-1.417-3.398 0-.091.036-.179.101-.243.064-.064.152-.1.244-.1.091 0 .179.035.244.1.065.064.101.152.101.243 0 1.093.437 2.141 1.214 2.914.777.773 1.831 1.207 2.93 1.207 1.1 0 2.154-.434 2.931-1.207.777-.773 1.214-1.821 1.214-2.914 0-.091.036-.179.101-.243s.152-.1.244-.1.179.035.244.1c.065.064.101.152.101.243-.001 1.275-.511 2.497-1.417 3.398-.907.902-2.136 1.409-3.418 1.41zM193.301 93.034c-1.648-.001-3.228-.653-4.394-1.812-1.165-1.16-1.821-2.73-1.823-4.37 0-.09.037-.178.102-.243.064-.064.152-.1.244-.1.091 0 .179.036.244.1.065.065.101.152.101.243 0 1.458.582 2.855 1.619 3.886 1.036 1.03 2.441 1.61 3.907 1.61 1.465 0 2.871-.58 3.907-1.61 1.036-1.03 1.618-2.428 1.618-3.886 0-.09.037-.178.102-.243.064-.064.152-.1.244-.1.091 0 .179.036.244.1.065.065.101.152.101.243-.002 1.64-.657 3.21-1.823 4.37-1.165 1.159-2.745 1.81-4.393 1.813z"/>
        <path fill="#63B9FF" d="M171.198 90.287c1.717 0 3.108-1.384 3.108-3.091 0-1.707-1.391-3.091-3.108-3.091s-3.108 1.384-3.108 3.09c0 1.708 1.391 3.092 3.108 3.092zM193.301 90.287c1.716 0 3.108-1.384 3.108-3.091 0-1.707-1.392-3.091-3.108-3.091-1.717 0-3.109 1.384-3.109 3.09 0 1.708 1.392 3.092 3.109 3.092zM182.249 102.995c1.526 0 2.763-.615 2.763-1.374 0-.759-1.237-1.374-2.763-1.374-1.526 0-2.763.615-2.763 1.374 0 .759 1.237 1.374 2.763 1.374z"/>
        <path fill="#3F3D56" d="M292.434 150.891h-18.857v-1.351c0-.035-.007-.07-.02-.103-.014-.032-.034-.062-.059-.087-.025-.025-.054-.044-.087-.058-.033-.013-.068-.02-.103-.02h-6.465c-.036 0-.071.007-.103.02-.033.014-.063.033-.088.058-.025.025-.045.055-.058.087-.014.033-.021.068-.021.103v1.351h-4.041v-1.351c0-.035-.006-.07-.02-.103-.014-.032-.033-.062-.058-.087-.025-.025-.055-.044-.088-.058-.032-.013-.068-.02-.103-.02h-6.465c-.035 0-.07.007-.103.02-.033.014-.063.033-.088.058-.025.025-.044.055-.058.087-.014.033-.02.068-.02.103v1.351h-4.041v-1.351c0-.035-.007-.07-.021-.103-.013-.032-.033-.062-.058-.087-.025-.025-.055-.044-.088-.058-.032-.013-.067-.02-.103-.02h-6.465c-.035 0-.07.007-.103.02-.033.014-.062.033-.087.058-.025.025-.045.055-.059.087-.013.033-.02.068-.02.103v1.351h-4.041v-1.351c0-.035-.007-.07-.02-.103-.014-.032-.034-.062-.059-.087-.025-.025-.055-.044-.087-.058-.033-.013-.068-.02-.103-.02h-6.466c-.035 0-.07.007-.103.02-.032.014-.062.033-.087.058-.025.025-.045.055-.058.087-.014.033-.021.068-.021.103v1.351h-4.041v-1.351c0-.035-.007-.07-.02-.103-.014-.032-.034-.062-.059-.087-.025-.025-.054-.044-.087-.058-.033-.013-.068-.02-.103-.02h-6.465c-.036 0-.071.007-.103.02-.033.014-.063.033-.088.058-.025.025-.045.055-.058.087-.014.033-.021.068-.021.103v1.351h-4.04v-1.351c0-.035-.007-.07-.021-.103-.013-.032-.033-.062-.058-.087-.025-.025-.055-.044-.088-.058-.032-.013-.067-.02-.103-.02h-6.465c-.035 0-.07.007-.103.02-.033.014-.062.033-.087.058-.025.025-.045.055-.059.087-.013.033-.02.068-.02.103v1.351h-4.041v-1.351c0-.035-.007-.07-.021-.103-.013-.032-.033-.062-.058-.087-.025-.025-.055-.044-.087-.058-.033-.013-.068-.02-.103-.02h-50.645c-.035 0-.07.007-.103.02-.032.014-.062.033-.087.058-.025.025-.045.055-.058.087-.014.033-.021.068-.021.103v1.351h-4.041v-1.351c0-.035-.007-.07-.02-.103-.014-.032-.034-.062-.059-.087-.025-.025-.054-.044-.087-.058-.033-.013-.068-.02-.103-.02h-6.465c-.036 0-.071.007-.103.02-.033.014-.063.033-.088.058-.025.025-.045.055-.058.087-.014.033-.021.068-.021.103v1.351h-4.04v-1.351c0-.035-.007-.07-.021-.103-.013-.032-.033-.062-.058-.087-.025-.025-.055-.044-.088-.058-.032-.013-.067-.02-.103-.02h-6.465c-.035 0-.07.007-.103.02-.033.014-.062.033-.087.058-.025.025-.045.055-.059.087-.013.033-.02.068-.02.103v1.351h-4.041v-1.351c0-.035-.007-.07-.021-.103-.013-.032-.033-.062-.058-.087-.025-.025-.055-.044-.087-.058-.033-.013-.068-.02-.103-.02h-6.466c-.035 0-.07.007-.103.02-.032.014-.062.033-.087.058-.025.025-.045.055-.059.087-.013.033-.02.068-.02.103v1.351h-4.041v-1.351c0-.035-.007-.07-.02-.103-.014-.032-.034-.062-.059-.087-.025-.025-.054-.044-.087-.058-.033-.013-.068-.02-.103-.02h-6.465c-.036 0-.071.007-.103.02-.033.014-.063.033-.088.058-.025.025-.045.055-.058.087-.014.033-.021.068-.021.103v1.351h-4.041v-1.351c0-.035-.006-.07-.02-.103-.014-.032-.033-.062-.058-.087-.025-.025-.055-.044-.088-.058-.032-.013-.068-.02-.103-.02h-6.465c-.035 0-.07.007-.103.02-.033.014-.063.033-.088.058-.025.025-.044.055-.058.087-.014.033-.02.068-.02.103v1.351h-4.041v-1.351c0-.035-.007-.07-.02-.103-.014-.032-.034-.062-.06-.087-.024-.025-.054-.044-.087-.058-.032-.013-.067-.02-.103-.02h-6.465c-.035 0-.07.007-.103.02-.033.014-.062.033-.087.058-.025.025-.045.055-.059.087-.013.033-.02.068-.02.103v1.351H77.466c-.849 0-1.69.166-2.474.489-.784.323-1.497.797-2.097 1.394-.6.597-1.077 1.306-1.402 2.086-.325.78-.492 1.616-.492 2.461v2.907c0 1.705.681 3.341 1.894 4.547 1.212 1.205 2.856 1.883 4.571 1.883h214.968c1.715 0 3.359-.678 4.572-1.883 1.212-1.206 1.893-2.842 1.893-4.547v-2.907c0-.845-.167-1.681-.492-2.461-.325-.78-.801-1.489-1.401-2.086-.601-.597-1.313-1.071-2.098-1.394-.784-.323-1.625-.489-2.474-.489z"/>
        <path fill="#63B9FF" d="M244.975 120.94H116.081v.761h128.894v-.761z"/>
        <path fill="#D0CDE1" d="M125.261 120.56H93.515c1.016-11.897 1.016-23.859 0-35.756h31.746c-1.748 12.246-1.851 24.184 0 35.756z"/>
        <path fill="#3F3D56" d="M121.053 92.031H98.105v1.522h22.948v-1.522zM121.053 96.976H98.105v1.522h22.948v-1.522zM121.053 101.921H98.105v1.522h22.948v-1.522zM121.053 106.866H98.105v1.522h22.948v-1.522zM121.053 111.811H98.105v1.522h22.948v-1.522z"/>
    </g>
    <defs>
        <filter id="prefix__filter0_d" width="331" height="196" x="0" y="0" color-interpolation-filters="sRGB" filterUnits="userSpaceOnUse">
            <feFlood flood-opacity="0" result="BackgroundImageFix"/>
            <feColorMatrix in="SourceAlpha" values="0 0 0 0 0 0 0 0 0 0 0 0 0 0 0 0 0 0 127 0"/>
            <feOffset dx="4" dy="4"/>
            <feGaussianBlur stdDeviation="2"/>
            <feColorMatrix values="0 0 0 0 0 0 0 0 0 0 0 0 0 0 0 0 0 0 0.25 0"/>
            <feBlend in2="BackgroundImageFix" result="effect1_dropShadow"/>
            <feBlend in="SourceGraphic" in2="effect1_dropShadow" result="shape"/>
        </filter>
    </defs>
</svg>
