<svg xmlns="http://www.w3.org/2000/svg" width="154" height="65" fill="none" viewBox="0 0 154 65">
    <g clip-path="url(#prefix__clip0)">
        <mask id="prefix__a" width="163" height="105" x="0" y="-20" maskUnits="userSpaceOnUse">
            <path fill="#fff" d="M.001-19.186H162.4V84.938H.001V-19.186z"/>
        </mask>
        <g mask="url(#prefix__a)">
            <path fill="#4BB6CC" fill-rule="evenodd" d="M97.716 35.855c-2.75-4.082-7.018-6.878-11.812-7.767-1.575-8.605-9.136-14.984-17.934-14.984-2.643 0-5.271.583-7.67 1.7C56.257 6.59 47.915 1.35 38.714 1.35c-12.261 0-22.624 9.405-23.943 21.553-3.774 1.2-7.115 3.42-9.702 6.46C1.799 33.205 0 38.102 0 43.155 0 54.87 9.492 64.402 21.16 64.402c1.988 0 3.606-1.627 3.606-3.623 0-1.997-1.617-3.62-3.606-3.62-7.69 0-13.947-6.281-13.947-14.002 0-3.332 1.184-6.56 3.337-9.087 2.131-2.504 5.073-4.178 8.287-4.718l3.046-.513-.036-3.098-.007-.207c0-9.34 7.57-16.94 16.873-16.94 7.633 0 14.336 5.164 16.301 12.56l1.472 5.539 4.35-3.714c1.988-1.7 4.522-2.636 7.134-2.636 6.077 0 11.022 4.964 11.022 11.065v3.62h3.605c3.668 0 7.084 1.825 9.142 4.881.54.802 1.358 1.345 2.302 1.53.946.182 1.905-.014 2.705-.554.798-.543 1.338-1.365 1.521-2.314.182-.948-.014-1.914-.551-2.715z" clip-rule="evenodd"/>
            <path fill="#000" fill-rule="evenodd" d="M48.244 46.578c-1.89 0-3.69.815-4.942 2.237-1.163-1.323-2.772-2.112-4.526-2.226-.143-.005-.284-.01-.424-.01-2.379 0-4.597 1.271-5.86 3.542-.498.892-.727 1.907-.727 2.928v10.083h3.31V52.759c0-.826.381-1.617 1.052-2.093 2.65-1.879 5.519-.003 5.519 2.537v9.929h3.31V52.759c0-.826.38-1.617 1.05-2.093 2.655-1.879 5.522-.003 5.522 2.537v9.929h3.314V53.06c0-.854-.15-1.708-.51-2.48-1.175-2.536-3.518-4-6.09-4l.002-.002zm23.948 2.59c-.758-.76-1.638-1.357-2.62-1.772-1.018-.434-2.098-.651-3.21-.651-1.11 0-2.193.218-3.207.65-.984.416-1.866 1.013-2.622 1.773-.757.759-1.35 1.645-1.765 2.632-.431 1.02-.648 2.104-.648 3.22 0 1.117.217 2.2.648 3.221.414.987 1.008 1.87 1.765 2.632.756.76 1.638 1.358 2.621 1.773 1.015.434 2.097.65 3.207.65 1.44 0 2.883-.386 4.126-1.11v-2.748c0-.014-.004-.03-.014-.042-.396-.536-.973-.574-1.347-.271-.24.199-.518.353-.806.467-4.393 1.73-8.532-2.716-6.236-7.141.383-.74.993-1.348 1.73-1.732 3.735-1.944 7.482.75 7.482 4.301v8.112h3.31V55.02c0-1.116-.217-2.2-.648-3.22-.415-.987-1.01-1.873-1.766-2.632zm20.533-2.425h-3.31v9.55c0 1.18-.602 2.291-1.6 2.917-3.234 2.026-6.62-.28-6.62-3.363v-9.104h-3.31v9.104c0 1.006.196 1.983.58 2.9.375.887.91 1.684 1.594 2.366.68.686 1.473 1.222 2.358 1.6.912.388 1.887.584 2.888.584 1 0 1.974-.196 2.888-.584.882-.378 1.677-.914 2.358-1.599.683-.683 1.218-1.48 1.59-2.366.386-.918.584-1.895.584-2.9v-9.105zm19.757-.165c-1.89 0-3.688.815-4.942 2.237-1.162-1.323-2.772-2.112-4.527-2.226-.141-.005-.281-.01-.424-.01-2.38 0-4.599 1.274-5.864 3.55-.492.888-.721 1.903-.721 2.92v10.083h3.31V52.758c0-.827.38-1.619 1.052-2.095 2.652-1.876 5.52 0 5.52 2.54v9.929h3.311V52.758c0-.827.38-1.619 1.05-2.095 2.655-1.876 5.522 0 5.522 2.54v9.929h3.311V53.053c0-.841-.147-1.683-.497-2.45-1.171-2.55-3.521-4.024-6.101-4.024v-.001zm12.602 13.738c-1.674-1.113-3.486.701-2.38 2.386.066.1.156.19.254.257 1.677 1.104 3.477-.704 2.38-2.385-.066-.101-.154-.19-.254-.258zM147 63h4.2V46.2H147V63zM141.663 48.71c-.771-.784-1.67-1.399-2.668-1.827-1.036-.445-2.135-.67-3.269-.67-1.133 0-2.233.223-3.268.671-1.001.427-1.898 1.042-2.668 1.826-.773.781-1.378 1.694-1.799 2.71-.44 1.05-.661 2.167-.661 3.318 0 1.151.221 2.267.661 3.318.421 1.017 1.026 1.927 1.799 2.71.77.782 1.667 1.398 2.668 1.828 1.035.445 2.135.67 3.268.67 1.464 0 2.934-.399 4.201-1.145v-2.834c0-.014-.004-.03-.014-.042-.407-.55-.994-.59-1.376-.274-.242.203-.522.361-.816.477-4.479 1.78-8.69-2.797-6.355-7.355.391-.76 1.014-1.389 1.763-1.782 3.805-2.005 7.62.767 7.62 4.428v8.356h3.374v-8.356c0-1.148-.221-2.268-.661-3.318-.421-1.015-1.029-1.928-1.799-2.71" clip-rule="evenodd"/>
            <mask id="prefix__b" width="9" height="10" x="145" y="34" maskUnits="userSpaceOnUse">
                <path fill="#fff" d="M145.165 34.63h8.375v8.506h-8.375V34.63z"/>
            </mask>
            <g mask="url(#prefix__b)">
                <path fill="#4BB6CC" fill-rule="evenodd" d="M153.541 38.883c0 2.348-1.876 4.253-4.189 4.253-2.314 0-4.187-1.906-4.187-4.253 0-2.348 1.873-4.253 4.187-4.253s4.19 1.904 4.19 4.253" clip-rule="evenodd"/>
            </g>
        </g>
    </g>
    <defs>
        <clipPath id="prefix__clip0">
            <path fill="#fff" d="M0 0H154V64.4H0z"/>
        </clipPath>
    </defs>
</svg>
