<?xml version="1.0" encoding="UTF-8"?>
<svg width="20px" height="19px" viewBox="0 0 20 19" version="1.1" xmlns="http://www.w3.org/2000/svg" xmlns:xlink="http://www.w3.org/1999/xlink">
    <title>Group 10</title>
    <defs>
        <polygon id="path-1" points="0 -5.21280758e-05 19.9399462 -5.21280758e-05 19.9399462 18.1420765 0 18.1420765"></polygon>
    </defs>
    <g id="Page-1" stroke="none" stroke-width="1" fill="none" fill-rule="evenodd">
        <g id="Group-10">
            <g id="Group-3" transform="translate(0.000000, 0.000109)">
                <mask id="mask-2" fill="white">
                    <use xlink:href="#path-1"></use>
                </mask>
                <g id="Clip-2"></g>
                <path d="M16.9898361,15.189071 L15.2908197,5.67530055 C15.2648087,5.52939891 15.127541,5.42874317 14.9831694,5.44535519 C14.8360656,5.46163934 14.726776,5.58928962 14.7334426,5.73715847 C14.7691803,6.54743169 15.0869945,13.6660109 15.1891803,14.1262295 C15.2525683,14.410929 15.3051366,16.2019672 15.3276503,17.437377 L9.97005464,17.5782514 L4.61224044,17.437377 C4.6347541,16.2019672 4.68743169,14.410929 4.75060109,14.1262295 C4.85289617,13.6660109 5.17071038,6.54743169 5.20655738,5.73715847 C5.21311475,5.58928962 5.10382514,5.46163934 4.95672131,5.44535519 C4.81224044,5.42852459 4.67508197,5.52939891 4.64907104,5.67530055 L2.95005464,15.189071 L0.604699454,14.7845902 C1.43005464,9.88590164 2.8104918,2.56240437 3.36163934,1.73540984 C3.90775956,0.916284153 6.01595628,0.630382514 7.01825137,0.571693989 C7.22568306,1.16120219 7.95180328,2.6736612 9.94196721,2.67344262 C9.99464481,2.67344262 10.0486339,2.67245902 10.1030601,2.67027322 L10.1147541,2.67027322 C10.3685246,2.67027322 12.2459016,2.59978142 12.9224044,0.571693989 C13.924918,0.630491803 16.0321311,0.916502732 16.5781421,1.73540984 C17.1292896,2.56240437 18.5097268,9.88590164 19.3351913,14.7845902 L16.9898361,15.189071 Z M9.97147541,1.11147541 C10.1012022,1.11508197 11.2842623,1.13103825 12.2009836,0.83715847 C11.5148634,2.14240437 10.1753005,2.1115847 10.1112568,2.10819672 C10.103388,2.10808743 10.0954098,2.10808743 10.0871038,2.10819672 C8.66404372,2.1673224 7.99409836,1.33617486 7.70120219,0.75704918 C8.20830601,0.920218579 8.98371585,1.11442623 9.80131148,1.11442623 C9.85781421,1.11442623 9.91464481,1.11355191 9.97147541,1.11147541 L9.97147541,1.11147541 Z M19.9360656,14.9676503 C19.7254645,13.7091803 17.855082,2.63715847 17.0460109,1.42360656 C16.1910383,0.141311475 13.0774863,0.0106010929 12.7252459,-5.21280758e-05 C12.7212022,-5.21280758e-05 12.7174863,0.000546448087 12.7135519,0.000546448087 C12.7059016,0.000655737705 12.6982514,0.00109289617 12.6907104,0.0018579235 C12.6793443,0.00284153005 12.668306,0.00459016393 12.657377,0.00677595628 C12.6527869,0.00775956284 12.648306,0.00863387978 12.6437158,0.00983606557 C12.6055738,0.0196721311 12.5708197,0.0368306011 12.5413115,0.0605464481 C11.9469945,0.498907104 10.4900546,0.561857923 9.97704918,0.549398907 C9.97125683,0.549180328 9.96568306,0.549398907 9.95989071,0.549508197 C8.74557377,0.592131148 7.54994536,0.113551913 7.36306011,0.0350819672 C7.32469945,0.0130054645 7.28087432,0.00087431694 7.23398907,0.000546448087 C7.23038251,0.000327868852 7.22688525,0.000218579235 7.22327869,0.000218579235 C7.22021858,0.000327868852 7.21748634,-5.21280758e-05 7.21453552,-5.21280758e-05 C6.86229508,0.0106010929 3.74874317,0.141311475 2.89377049,1.42360656 C2.08469945,2.63715847 0.21442623,13.7091803 0.00382513661,14.9676503 C-0.0216393443,15.1202186 0.0808743169,15.2646995 0.233333333,15.2911475 L3.13005464,15.7906011 C3.28295082,15.8168306 3.42743169,15.715082 3.45442623,15.5629508 L4.4420765,10.0321311 C4.34054645,12.0706011 4.24306011,13.8078689 4.20174863,14.0042623 C4.09868852,14.4680874 4.05038251,17.376612 4.04535519,17.7065574 C4.04284153,17.8606557 4.16502732,17.9878689 4.31901639,17.9919126 L9.87409836,18.1381421 C9.89125683,18.1410929 9.90819672,18.1427322 9.92743169,18.1418579 L9.97005464,18.140765 L10.012459,18.1418579 C10.015082,18.1420928 10.0175956,18.1420928 10.02,18.1420928 C10.0355191,18.1420928 10.050929,18.1406557 10.0659016,18.1381421 L15.6208743,17.9919126 C15.7749727,17.9878689 15.8970492,17.8606557 15.8946448,17.7065574 C15.8895082,17.376612 15.8410929,14.4680874 15.7381421,14.0045902 C15.6968306,13.8080874 15.5993443,12.0706011 15.4978142,10.0320219 L16.4854645,15.5629508 C16.5125683,15.7149727 16.6567213,15.8169399 16.8099454,15.7906011 L19.7065574,15.2911475 C19.8590164,15.2646995 19.9615301,15.1202186 19.9360656,14.9676503 L19.9360656,14.9676503 Z" id="Fill-1" fill="#FFFFFF" mask="url(#mask-2)"></path>
            </g>
            <path d="M8.12360656,7.52374863 C8.01377049,7.41402186 7.83584699,7.41402186 7.72601093,7.52374863 L7.20065574,8.0493224 L6.67519126,7.52374863 C6.56535519,7.41402186 6.38754098,7.41402186 6.27770492,7.52374863 C6.16786885,7.6335847 6.16786885,7.8115082 6.27770492,7.92134426 L6.8031694,8.44669945 L6.27770492,8.97216393 C6.16786885,9.082 6.16786885,9.2599235 6.27770492,9.36975956 C6.33256831,9.42462295 6.40459016,9.45205464 6.47650273,9.45205464 C6.5484153,9.45205464 6.62032787,9.42462295 6.67519126,9.36975956 L7.20065574,8.84418579 L7.72601093,9.36975956 C7.78098361,9.42462295 7.85289617,9.45205464 7.92491803,9.45205464 C7.99672131,9.45205464 8.06863388,9.42462295 8.12360656,9.36975956 C8.23344262,9.2599235 8.23344262,9.082 8.12360656,8.97216393 L7.59814208,8.44669945 L8.12360656,7.92134426 C8.23344262,7.8115082 8.23344262,7.6335847 8.12360656,7.52374863" id="Fill-4" fill="#FFFFFF"></path>
            <path d="M10.8205246,7.52374863 C10.7106885,7.41402186 10.532765,7.41402186 10.422929,7.52374863 L9.89757377,8.0493224 L9.37210929,7.52374863 C9.26227322,7.41402186 9.08434973,7.41402186 8.97451366,7.52374863 C8.86478689,7.6335847 8.86478689,7.8115082 8.97451366,7.92134426 L9.50008743,8.44669945 L8.97451366,8.97216393 C8.86478689,9.082 8.86478689,9.2599235 8.97451366,9.36975956 C9.02948634,9.42462295 9.1015082,9.45205464 9.17342077,9.45205464 C9.24533333,9.45205464 9.31713661,9.42462295 9.37210929,9.36975956 L9.89757377,8.84418579 L10.422929,9.36975956 C10.4779016,9.42462295 10.5497049,9.45205464 10.6217268,9.45205464 C10.6936393,9.45205464 10.7655519,9.42462295 10.8205246,9.36975956 C10.9302514,9.2599235 10.9302514,9.082 10.8205246,8.97216393 L10.2949508,8.44669945 L10.8205246,7.92134426 C10.9302514,7.8115082 10.9302514,7.6335847 10.8205246,7.52374863" id="Fill-6" fill="#FFFFFF"></path>
            <path d="M13.1417596,8.44674317 L13.667224,7.92127869 C13.7769508,7.81155191 13.7769508,7.63351913 13.667224,7.52379235 C13.557388,7.41406557 13.3794645,7.41406557 13.2696284,7.52379235 L12.7442732,8.04914754 L12.218918,7.52379235 C12.109082,7.41406557 11.9311585,7.41406557 11.8214317,7.52379235 C11.7115956,7.63351913 11.7115956,7.81155191 11.8214317,7.92127869 L12.3467869,8.44674317 L11.8214317,8.97220765 C11.7115956,9.08193443 11.7115956,9.25996721 11.8214317,9.36969399 C11.8762951,9.42455738 11.9482077,9.45198907 12.0201202,9.45198907 C12.0921421,9.45198907 12.1640546,9.42455738 12.218918,9.36969399 L12.7442732,8.8443388 L13.2696284,9.36969399 C13.3246011,9.42455738 13.3964044,9.45198907 13.4683169,9.45198907 C13.5402295,9.45198907 13.6122514,9.42455738 13.667224,9.36969399 C13.7769508,9.25996721 13.7769508,9.08193443 13.667224,8.97220765 L13.1417596,8.44674317 Z" id="Fill-8" fill="#FFFFFF"></path>
        </g>
    </g>
</svg>