<?xml version="1.0" encoding="UTF-8"?>
<svg width="20px" height="20px" viewBox="0 0 20 20" version="1.1" xmlns="http://www.w3.org/2000/svg" xmlns:xlink="http://www.w3.org/1999/xlink">
    <title>Group 54</title>
    <defs>
        <polygon id="path-1" points="0 0.109183027 19.6407929 0.109183027 19.6407929 7.45557396 0 7.45557396"></polygon>
        <polygon id="path-3" points="0 5.91715976e-05 12.5952663 5.91715976e-05 12.5952663 11.3986391 0 11.3986391"></polygon>
    </defs>
    <g id="Page-1" stroke="none" stroke-width="1" fill="none" fill-rule="evenodd">
        <g id="Group-54">
            <g id="Group-26" transform="translate(-0.000000, 0.000000)">
                <g id="Group-3" transform="translate(0.000000, 12.477870)">
                    <mask id="mask-2" fill="white">
                        <use xlink:href="#path-1"></use>
                    </mask>
                    <g id="Clip-2"></g>
                    <path d="M19.6407929,7.45557396 L-3.55029586e-05,7.45557396 L-3.55029586e-05,3.89569231 C-3.55029586e-05,3.05723077 0.216177515,2.26776331 0.626236686,1.61415385 C0.863751479,1.23486391 1.15144379,0.908 1.48221302,0.641491124 C1.6676568,0.492852071 1.89215385,0.328591716 2.14197633,0.157704142 C2.26540828,0.0721420118 2.43523077,0.103502959 2.51960947,0.228118343 C2.60457988,0.351550296 2.57321893,0.520781065 2.44919527,0.605633136 C2.21179882,0.768828402 1.99842604,0.924213018 1.8224497,1.06492308 C1.53972781,1.29285207 1.29168047,1.57510059 1.08671006,1.90231953 C0.731325444,2.47001183 0.54304142,3.15936095 0.54304142,3.89569231 L0.54304142,6.91261538 L19.097716,6.91261538 L19.097716,3.89569231 C19.097716,3.15995266 18.909432,2.47060355 18.5541657,1.90231953 C18.3486036,1.57450888 18.1010296,1.29285207 17.8172426,1.06492308 C17.6417396,0.924213018 17.4284852,0.768236686 17.190497,0.605159763 C17.066355,0.520189349 17.0351124,0.35095858 17.1199645,0.227526627 C17.2049349,0.102911243 17.3748757,0.0721420118 17.497716,0.157112426 C17.7480118,0.329183432 17.9725089,0.492852071 18.1574793,0.641491124 C18.4888402,0.907408284 18.7770059,1.23486391 19.0145207,1.61415385 C19.4245799,2.26894675 19.6407929,3.05770414 19.6407929,3.89569231 L19.6407929,7.45557396 Z" id="Fill-1" fill="#FFFFFF" mask="url(#mask-2)"></path>
                </g>
                <path d="M9.8203787,0.54295858 C7.31919527,0.54295858 5.28452071,3.1 5.28452071,6.24260355 C5.28452071,9.3852071 7.31919527,11.9416568 9.8203787,11.9416568 C12.3215621,11.9416568 14.3562367,9.3852071 14.3562367,6.24260355 C14.3562367,3.1 12.3215621,0.54295858 9.8203787,0.54295858 M9.8203787,12.4846154 C7.01978698,12.4846154 4.74144379,9.68461538 4.74144379,6.24260355 C4.74144379,2.8 7.01978698,0 9.8203787,0 C12.6209704,0 14.8993136,2.8 14.8993136,6.24260355 C14.8993136,9.68461538 12.6209704,12.4846154 9.8203787,12.4846154" id="Fill-4" fill="#FFFFFF"></path>
                <path d="M16.3892426,2.82407101 C16.2389467,2.82407101 16.1177633,2.70288757 16.1177633,2.55259172 L16.1177633,0.543005917 L14.1082959,0.543005917 C13.9578817,0.543005917 13.8366982,0.421704142 13.8366982,0.271526627 C13.8366982,0.121230769 13.9578817,4.73372781e-05 14.1082959,4.73372781e-05 L16.6608402,4.73372781e-05 L16.6608402,2.55259172 C16.6608402,2.70288757 16.5396568,2.82407101 16.3892426,2.82407101" id="Fill-6" fill="#FFFFFF"></path>
                <path d="M5.53194083,12.4846391 L2.97939645,12.4846391 L2.97939645,9.93209467 C2.97939645,9.78179882 3.10057988,9.66061538 3.25099408,9.66061538 C3.4011716,9.66061538 3.52247337,9.78179882 3.52247337,9.93209467 L3.52247337,11.9416805 L5.53194083,11.9416805 C5.68235503,11.9416805 5.80353846,12.0629822 5.80353846,12.2131598 C5.80353846,12.3634556 5.68235503,12.4846391 5.53194083,12.4846391" id="Fill-8" fill="#FFFFFF"></path>
                <path d="M16.6608284,12.4846391 L14.108284,12.4846391 C13.9578698,12.4846391 13.8366864,12.3634556 13.8366864,12.2131598 C13.8366864,12.0629822 13.9578698,11.9416805 14.108284,11.9416805 L16.1177515,11.9416805 L16.1177515,9.93209467 C16.1177515,9.78179882 16.2390533,9.66061538 16.3892308,9.66061538 C16.539645,9.66061538 16.6608284,9.78179882 16.6608284,9.93209467 L16.6608284,12.4846391 Z" id="Fill-10" fill="#FFFFFF"></path>
                <path d="M3.25094675,2.82407101 C3.10053254,2.82407101 2.97934911,2.70288757 2.97934911,2.55259172 L2.97934911,4.73372781e-05 L5.53248521,4.73372781e-05 C5.68289941,4.73372781e-05 5.80408284,0.121230769 5.80408284,0.271526627 C5.80408284,0.421704142 5.68289941,0.543005917 5.53248521,0.543005917 L3.52242604,0.543005917 L3.52242604,2.55259172 C3.52242604,2.70288757 3.4012426,2.82407101 3.25094675,2.82407101" id="Fill-12" fill="#FFFFFF"></path>
                <path d="M16.3898225,3.95711243 C16.3552663,3.95711243 16.315503,3.95143195 16.2871006,3.94030769 C16.252426,3.92302959 16.2240237,3.90563314 16.1953846,3.87711243 C16.1440237,3.83143195 16.1150296,3.75711243 16.1150296,3.68835503 C16.1150296,3.6140355 16.1440237,3.54539645 16.1953846,3.49391716 C16.2240237,3.47107692 16.252426,3.44811834 16.2871006,3.43640237 C16.3495858,3.40788166 16.4239053,3.40788166 16.4926627,3.43640237 C16.5272189,3.44811834 16.5557396,3.47107692 16.5786982,3.49391716 C16.6072189,3.52243787 16.624497,3.55084024 16.6413018,3.58551479 C16.6530178,3.6140355 16.6585799,3.65415385 16.6585799,3.68835503 C16.6585799,3.76255621 16.6300592,3.83143195 16.5786982,3.87711243 C16.5272189,3.92859172 16.4585799,3.95711243 16.3898225,3.95711243" id="Fill-14" fill="#FFFFFF"></path>
                <path d="M16.1149941,4.94142012 C16.1149941,4.79230769 16.3470864,4.66662722 16.620546,4.66662722 C16.8940056,4.66662722 17.1149941,4.79230769 17.1149941,4.94142012 C17.1149941,5.09005917 16.8940056,5.21017751 16.620546,5.21017751 C16.3470864,5.21017751 16.1149941,5.09005917 16.1149941,4.94142012 M16.1149941,6.1939645 C16.1149941,6.03976331 16.3470864,5.91976331 16.620546,5.91976331 C16.8940056,5.91976331 17.1149941,6.03976331 17.1149941,6.1939645 C17.1149941,6.34260355 16.8940056,6.46272189 16.620546,6.46272189 C16.3470864,6.46272189 16.1149941,6.34260355 16.1149941,6.1939645 M16.1149941,7.44710059 C16.1149941,7.29230769 16.3470864,7.17230769 16.620546,7.17230769 C16.8940056,7.17230769 17.1149941,7.29230769 17.1149941,7.44710059 C17.1149941,7.59573964 16.8940056,7.71573964 16.620546,7.71573964 C16.3470864,7.71573964 16.1149941,7.59573964 16.1149941,7.44710059" id="Fill-16" fill="#FFFFFF"></path>
                <path d="M16.3898225,8.97456805 C16.315503,8.97456805 16.2468639,8.94604734 16.1953846,8.89409467 C16.1440237,8.84273373 16.1150296,8.77397633 16.1150296,8.70533728 C16.1150296,8.63101775 16.1440237,8.56226036 16.1953846,8.51078107 C16.2982249,8.4136213 16.4814201,8.4136213 16.5786982,8.51078107 C16.6300592,8.56226036 16.6585799,8.63101775 16.6585799,8.70533728 C16.6585799,8.77397633 16.6300592,8.84273373 16.5786982,8.89409467 C16.5272189,8.94604734 16.464142,8.97456805 16.3898225,8.97456805" id="Fill-18" fill="#FFFFFF"></path>
                <path d="M3.24921893,3.95711243 C3.18057988,3.95711243 3.11182249,3.92859172 3.0603432,3.87711243 C3.00850888,3.83143195 2.97998817,3.76255621 2.97998817,3.68835503 C2.97998817,3.6140355 3.00850888,3.54539645 3.0603432,3.49391716 C3.08342012,3.47107692 3.11182249,3.44811834 3.14590533,3.43640237 C3.24921893,3.3967574 3.36945562,3.41959763 3.44377515,3.49391716 C3.49501775,3.54539645 3.52353846,3.6140355 3.52353846,3.68835503 C3.52353846,3.75711243 3.49501775,3.83143195 3.44377515,3.87711243 C3.41513609,3.90563314 3.38614201,3.92302959 3.35205917,3.94030769 C3.32353846,3.95143195 3.28898225,3.95711243 3.24921893,3.95711243" id="Fill-20" fill="#FFFFFF"></path>
                <path d="M2.97994083,4.94142012 C2.97994083,4.79230769 3.20109886,4.66662722 3.47515197,4.66662722 C3.74855206,4.66662722 3.97994083,4.79230769 3.97994083,4.94142012 C3.97994083,5.09005917 3.74855206,5.21017751 3.47515197,5.21017751 C3.20109886,5.21017751 2.97994083,5.09005917 2.97994083,4.94142012 M2.97994083,6.1939645 C2.97994083,6.03976331 3.20109886,5.91976331 3.47515197,5.91976331 C3.74855206,5.91976331 3.97994083,6.03976331 3.97994083,6.1939645 C3.97994083,6.34260355 3.74855206,6.46272189 3.47515197,6.46272189 C3.20109886,6.46272189 2.97994083,6.34260355 2.97994083,6.1939645 M2.97994083,7.44710059 C2.97994083,7.29230769 3.20109886,7.17230769 3.47515197,7.17230769 C3.74855206,7.17230769 3.97994083,7.29230769 3.97994083,7.44710059 C3.97994083,7.59573964 3.74855206,7.71573964 3.47515197,7.71573964 C3.20109886,7.71573964 2.97994083,7.59573964 2.97994083,7.44710059" id="Fill-22" fill="#FFFFFF"></path>
                <path d="M3.24921893,8.97456805 C3.18057988,8.97456805 3.11182249,8.94604734 3.0603432,8.89409467 C3.00850888,8.84273373 2.97998817,8.78001183 2.97998817,8.70533728 C2.97998817,8.63101775 3.00850888,8.56226036 3.0603432,8.51078107 C3.08342012,8.48794083 3.11182249,8.46498225 3.14590533,8.45385799 C3.24921893,8.4136213 3.36945562,8.43646154 3.44377515,8.51078107 C3.49501775,8.56226036 3.52353846,8.63101775 3.52353846,8.70533728 C3.52353846,8.77397633 3.49501775,8.84273373 3.44377515,8.89409467 C3.39229586,8.94604734 3.32353846,8.97456805 3.24921893,8.97456805" id="Fill-24" fill="#FFFFFF"></path>
            </g>
            <g id="Group-3" opacity="0.5" transform="translate(3.550296, 0.591716)">
                <mask id="mask-4" fill="white">
                    <use xlink:href="#path-3"></use>
                </mask>
                <g id="Clip-2"></g>
                <polygon id="Fill-1" fill="#FFFFFF" mask="url(#mask-4)" points="-0.000118343195 11.3986391 12.5952663 11.3986391 12.5952663 5.91715976e-05 -0.000118343195 5.91715976e-05"></polygon>
            </g>
        </g>
    </g>
</svg>