<svg width="19" height="20" viewBox="0 0 19 20" fill="none" xmlns="http://www.w3.org/2000/svg">
<path fill-rule="evenodd" clip-rule="evenodd" d="M4.41494 5.14208C3.12224 5.14208 2.07047 6.19725 2.07047 7.49456C2.07047 8.79175 3.12224 9.84704 4.41494 9.84704C5.70752 9.84704 6.75905 8.79175 6.75905 7.49456C6.75905 6.19725 5.70752 5.14208 4.41494 5.14208ZM4.41494 10.5698C2.72506 10.5698 1.35012 9.19024 1.35012 7.49456C1.35012 5.79877 2.72506 4.41916 4.41494 4.41916C6.1047 4.41916 7.47941 5.79877 7.47941 7.49456C7.47941 9.19024 6.1047 10.5698 4.41494 10.5698Z" fill="white"/>
<path fill-rule="evenodd" clip-rule="evenodd" d="M6.56568 20C6.36674 20 6.20562 19.8382 6.20562 19.6387V17.7361C6.20562 17.7331 6.20562 17.7302 6.20562 17.7271V14.2741C6.20562 14.0746 6.36686 13.9128 6.5658 13.9128C6.76485 13.9128 6.92598 14.0746 6.92598 14.2741V17.7348C6.92598 17.7379 6.92598 17.7409 6.92586 17.7439V19.6387C6.92586 19.8382 6.76474 20 6.56568 20Z" fill="white"/>
<path fill-rule="evenodd" clip-rule="evenodd" d="M2.26374 20C2.06469 20 1.90356 19.8382 1.90356 19.6387V17.7439C1.90345 17.7409 1.90345 17.7379 1.90345 17.7348V14.274C1.90345 14.0745 2.06457 13.9125 2.26362 13.9125C2.46256 13.9125 2.6238 14.0745 2.6238 14.274V17.7271C2.6238 17.7302 2.6238 17.7331 2.6238 17.7361V19.6387C2.6238 19.8382 2.46268 20 2.26374 20Z" fill="white"/>
<path fill-rule="evenodd" clip-rule="evenodd" d="M7.56606 19.0005C6.8225 19.0005 6.21757 18.3843 6.21757 17.6268C6.21757 17.4272 6.37892 17.2655 6.57774 17.2655C6.77668 17.2655 6.93792 17.4272 6.93792 17.6268C6.93792 17.9857 7.21968 18.2776 7.56606 18.2776C7.93946 18.2776 8.10952 17.9403 8.10952 17.6268V14.4773C8.10952 13.0507 6.953 11.8902 5.53143 11.8902H3.29821C1.87675 11.8902 0.72024 13.0507 0.72024 14.4773V17.6268C0.72024 17.9403 0.890295 18.2776 1.2637 18.2776C1.61007 18.2776 1.89183 17.9857 1.89183 17.6268C1.89183 17.4272 2.05307 17.2655 2.2519 17.2655C2.45083 17.2655 2.61207 17.4272 2.61207 17.6268C2.61207 18.3843 2.00725 19.0005 1.2637 19.0005C0.543341 19.0005 0 18.41 0 17.6268V14.4773C0 12.6521 1.47957 11.1673 3.29821 11.1673H5.53143C7.35018 11.1673 8.82976 12.6521 8.82976 14.4773V17.6268C8.82976 18.41 8.28641 19.0005 7.56606 19.0005Z" fill="white"/>
<path fill-rule="evenodd" clip-rule="evenodd" d="M13.3797 8.36357C13.2875 8.36357 13.1954 8.32819 13.1251 8.25764L11.4084 6.53496C11.2677 6.39386 11.2677 6.16488 11.4084 6.02379C11.5492 5.88258 11.7771 5.88258 11.9177 6.02379L13.3797 7.49106L15.9311 4.93055C16.0719 4.78934 16.2998 4.78934 16.4405 4.93055C16.5812 5.07164 16.5812 5.30051 16.4405 5.4416L13.6344 8.25764C13.5641 8.32819 13.4718 8.36357 13.3797 8.36357Z" fill="white"/>
<mask id="mask0" mask-type="alpha" maskUnits="userSpaceOnUse" x="8" y="0" width="11" height="14">
<path d="M8.55228 0H19V13.1323H8.55228V0Z" fill="white"/>
</mask>
<g mask="url(#mask0)">
<path fill-rule="evenodd" clip-rule="evenodd" d="M9.27252 2.77097V7.65811C9.27252 8.63202 9.66147 9.50163 10.3129 9.98463C11.0485 10.5304 13.2356 11.9801 13.4826 12.1437L13.7761 12.338L14.064 12.1475C14.3165 11.9801 16.5038 10.5304 17.2395 9.98486C17.8908 9.50163 18.2796 8.63202 18.2796 7.65811V2.77097C16.421 2.61102 14.4326 1.28414 13.7761 0.811039C13.1195 1.28414 11.1313 2.61102 9.27252 2.77097ZM13.7761 13.1323C13.7071 13.1323 13.638 13.1124 13.5778 13.0726L13.0918 12.751C12.6802 12.4785 10.6196 11.1113 9.88465 10.566C9.05039 9.94726 8.55228 8.86019 8.55228 7.65811V2.42546C8.55228 2.22569 8.71352 2.06399 8.91246 2.06399C10.973 2.06399 13.5299 0.0955638 13.5555 0.0756572C13.6854 -0.0253894 13.8668 -0.0253894 13.9968 0.0756572C14.0224 0.0955638 16.5792 2.06399 18.6398 2.06399C18.8389 2.06399 19 2.22569 19 2.42546V7.65811C19 8.86019 18.5018 9.94726 17.6675 10.5661C16.9325 11.1113 14.8719 12.4785 14.4663 12.747L13.9743 13.0726C13.9142 13.1124 13.8452 13.1323 13.7761 13.1323Z" fill="white"/>
</g>
</svg>
