<?xml version="1.0" encoding="utf-8"?>
<!-- Generator: Adobe Illustrator 24.2.1, SVG Export Plug-In . SVG Version: 6.00 Build 0)  -->
<svg version="1.1" xmlns="http://www.w3.org/2000/svg" xmlns:xlink="http://www.w3.org/1999/xlink" x="0px" y="0px"
	 viewBox="0 0 20.03 20" style="enable-background:new 0 0 20.03 20;" xml:space="preserve">
<style type="text/css">
	.st0{display:none;}
	.st1{display:inline;}
	.st2{fill:#FFFFFF;}
</style>
<g id="레이어_2" class="st0">
	<g class="st1">
		<rect width="20" height="20"/>
	</g>
</g>
<g id="레이어_1">
	<g>
		<path class="st2" d="M18.26,0v1c0.21,0,0.42,0.09,0.58,0.24c0.16,0.16,0.25,0.37,0.25,0.6l-0.03,4.7c0,0.46-0.38,0.83-0.84,0.83
			c-0.46,0-0.83-0.38-0.83-0.84l0-0.23l0.01-2.44l-1.72,1.72l-5.01,5.01c-0.16,0.16-0.37,0.24-0.59,0.24
			c-0.22,0-0.43-0.09-0.59-0.24C9.34,10.43,9.25,10.22,9.25,10c0-0.22,0.09-0.43,0.24-0.59L14.5,4.4l1.72-1.72l-2.44,0.01l-0.24,0
			c-0.46,0-0.83-0.37-0.83-0.83c0-0.46,0.37-0.84,0.83-0.84L18.25,1L18.26,0 M18.26,0c-0.01,0-0.01,0-0.02,0l-4.7,0.03
			c-1.01,0.01-1.83,0.83-1.82,1.84c0.01,1.01,0.83,1.82,1.83,1.82h0.01l0.23,0L8.79,8.7c-0.72,0.72-0.72,1.88,0,2.59
			c0.36,0.36,0.83,0.54,1.3,0.54c0.47,0,0.94-0.18,1.3-0.54l5.01-5.01l0,0.23c-0.01,1.01,0.81,1.84,1.82,1.84h0.01
			c1.01,0,1.83-0.81,1.83-1.82l0.03-4.7c0-0.49-0.19-0.96-0.54-1.31C19.21,0.2,18.74,0,18.26,0L18.26,0z"/>
	</g>
	<g>
		<path class="st2" d="M7.42,1c0.46,0,0.83,0.37,0.83,0.83S7.88,2.67,7.42,2.67H3.75h-1v1v12.66v1h1h12.66h1v-1v-3.66
			c0-0.46,0.37-0.83,0.83-0.83c0.46,0,0.83,0.37,0.83,0.83v5.5c0,0.46-0.37,0.83-0.83,0.83H1.92c-0.46,0-0.83-0.37-0.83-0.83V1.83
			C1.08,1.37,1.46,1,1.92,1H7.42 M7.42,0h-5.5C0.91,0,0.08,0.82,0.08,1.83v16.33c0,1.01,0.82,1.83,1.83,1.83h16.33
			c1.01,0,1.83-0.82,1.83-1.83v-5.5c0-1.01-0.82-1.83-1.83-1.83c-1.01,0-1.83,0.82-1.83,1.83v3.66H3.75V3.67h3.66
			c1.01,0,1.83-0.82,1.83-1.83C9.25,0.82,8.43,0,7.42,0L7.42,0z"/>
	</g>
</g>
</svg>
