<?xml version="1.0" encoding="utf-8"?>
<!-- Generator: Adobe Illustrator 24.2.1, SVG Export Plug-In . SVG Version: 6.00 Build 0)  -->
<svg version="1.1" xmlns="http://www.w3.org/2000/svg" xmlns:xlink="http://www.w3.org/1999/xlink" x="0px" y="0px"
	 viewBox="0 0 20 20" style="enable-background:new 0 0 20 20;" xml:space="preserve">
<style type="text/css">
	.st0{display:none;}
	.st1{display:inline;}
	.st2{fill-rule:evenodd;clip-rule:evenodd;fill:#FFFFFF;}
</style>
<g id="레이어_2" class="st0">
	<g class="st1">
		<rect x="40" width="20" height="20"/>
	</g>
</g>
<g id="레이어_1">
	<g id="Page-1">
		<g id="아바타" transform="translate(-345.000000, -1247.000000)">
			<g id="Group-13" transform="translate(345.000000, 1247.000000)">
				<g id="Clip-6">
				</g>
				<g id="Clip-11">
				</g>
			</g>
		</g>
	</g>
	<g>
		<path class="st2" d="M11.47,6.55c-0.16-0.1-0.37-0.11-0.53-0.02c-0.17,0.09-0.27,0.27-0.27,0.46v5.13c0,0.19,0.11,0.37,0.27,0.46
			c0.08,0.04,0.16,0.06,0.25,0.06c0.1,0,0.2-0.03,0.28-0.08l3.99-2.56c0.15-0.1,0.24-0.26,0.24-0.44c0-0.18-0.09-0.34-0.24-0.44
			L11.47,6.55z M11.71,11.16V7.95l2.5,1.61L11.71,11.16z"/>
		<path class="st2" d="M4.32,11.57L3.74,11.2c-0.04-0.02-0.08-0.04-0.12-0.04c-0.07-0.01-0.15,0-0.21,0.03
			c-0.1,0.06-0.17,0.17-0.17,0.29v3.19c0,0.12,0.07,0.23,0.17,0.29C3.45,14.98,3.51,15,3.56,15c0.02,0,0.04,0,0.06-0.01
			c0.04-0.01,0.08-0.02,0.12-0.05l0.58-0.37l1.91-1.22c0.09-0.06,0.15-0.16,0.15-0.28c0-0.11-0.06-0.21-0.15-0.27L4.32,11.57z
			 M4.32,13.8l-0.43,0.28v-2l0.43,0.28l1.13,0.72L4.32,13.8z"/>
		<path class="st2" d="M18.26,2.1H5.85c-0.96,0-1.74,0.78-1.74,1.74v4.78H1.74c-0.47,0-0.89,0.19-1.2,0.49H0.52v0.01
			C0.2,9.45,0,9.89,0,10.37v5.4c0,0.96,0.78,1.74,1.74,1.74h4.11h1.87h10.54c0.96,0,1.74-0.78,1.74-1.74V3.84
			C20,2.88,19.22,2.1,18.26,2.1z M19.3,15.77c0,0.58-0.47,1.05-1.05,1.05H9.11c0.22-0.29,0.35-0.65,0.35-1.05v-0.11h-0.7v0.11
			c0,0.58-0.47,1.05-1.05,1.05H5.85H4.46H1.74c-0.58,0-1.05-0.47-1.05-1.05v-5.4c0-0.14,0.03-0.26,0.08-0.38h7.91
			c0.05,0.12,0.08,0.25,0.08,0.38v3.15h0.7v-3.15c0-0.49-0.2-0.93-0.52-1.24V9.12H8.92c-0.31-0.3-0.74-0.49-1.2-0.49H4.8V3.84h14.5
			v0c0,0,0,0,0,0V15.77z"/>
		<polygon class="st2" points="10.97,13.6 10.51,13.14 10.37,13.29 10.09,13.57 10.37,13.85 10.67,14.15 10.37,14.15 9.98,14.15 
			9.96,14.15 9.75,14.15 9.46,14.15 9.13,14.15 8.76,14.15 8.25,14.15 8.25,15.03 8.76,15.03 9.46,15.03 9.98,15.03 10.07,15.03 
			10.37,15.03 10.79,15.03 10.44,15.39 10.37,15.46 10.09,15.74 10.37,16.02 10.51,16.16 10.97,15.71 11.34,15.33 12.02,14.65 
			11.34,13.97 		"/>
	</g>
</g>
</svg>
