<svg xmlns="http://www.w3.org/2000/svg" width="62" height="71" viewBox="0 0 62 71">
    <g fill="none" fill-rule="evenodd">
        <path stroke="#344154" stroke-linecap="round" stroke-linejoin="round" stroke-width="1.715" d="M30.251 19.392L32.31 19.392M30.251 23.841L32.31 23.841M30.251 28.288L32.31 28.288M13.695 23.841L15.755 23.841M13.695 28.288L15.755 28.288M27.452 31.089L27.452 33.149M23.003 31.089L23.003 33.149M18.553 31.089L18.553 33.149M27.452 14.532L27.452 16.594M23.003 14.532L23.003 16.594" transform="translate(0 1)"/>
        <g>
            <path fill="#2575F9" d="M22.028 18.804c0 1.974-1.601 3.575-3.576 3.575V27.7h8.897v-8.896h-5.321z" transform="translate(0 1) translate(0 .588)"/>
            <path stroke="#344154" stroke-linecap="round" stroke-linejoin="round" stroke-width="1.715" d="M37.548 43.816l.033-13.351c0-.538.307-1.035.781-1.264.195-.096.41-.144.627-.144.305 0 .61.1.848.285.8.608 1.785.946 2.778.946 1.502 0 2.722-1.228 2.722-2.728v-2.113c0-1.507-1.22-2.73-2.722-2.73-.993 0-1.978.336-2.776.945-.415.317-1.01.373-1.475.142-.484-.238-.783-.722-.783-1.26l-.065-13.456c0-.403-.27-.767-.702-.903-.132-.066-.264-.095-.401-.095l-13.456-.062c-.54 0-1.024-.3-1.26-.785-.24-.48-.18-1.063.146-1.476.608-.798.94-1.778.94-2.773 0-1.503-1.222-2.725-2.727-2.725h-2.112c-1.505 0-2.727 1.222-2.727 2.725 0 .995.332 1.977.938 2.77.324.422.383 1.003.147 1.48-.237.485-.722.784-1.26.784L1.788 8.06c-.517 0-.93.419-.93.928v13.458l.015.116c.036.214.17.398.364.492.231.11.513.08.71-.067.915-.709 2.057-1.095 3.22-1.095 1.902 0 3.454 1.549 3.454 3.455v2.113c0 1.91-1.552 3.459-3.454 3.459-1.163 0-2.305-.387-3.22-1.092-.197-.156-.484-.184-.712-.069-.195.09-.326.27-.36.475L.857 43.816h36.69z" transform="translate(0 1) translate(0 .588)"/>
            <path stroke="#344154" stroke-linecap="round" stroke-linejoin="round" stroke-width="1.715" d="M47.578 23.253h4.554c.509 0 .928.413.928.93l.03 13.252c0 .54.302 1.025.786 1.263.478.237 1.057.175 1.482-.146.788-.608 1.772-.94 2.768-.94 1.504 0 2.724 1.221 2.724 2.727v2.112c0 1.505-1.22 2.727-2.724 2.727-.996 0-1.976-.332-2.772-.94-.415-.329-.996-.387-1.478-.147-.484.237-.786.72-.786 1.26l-.06 13.457c0 .137-.028.269-.095.4-.135.432-.503.702-.904.704l-13.456.062c-.538 0-1.022.301-1.262.785-.227.466-.172 1.06.146 1.475.605.797.944 1.783.944 2.776 0 1.5-1.225 2.723-2.733 2.723H33.56c-1.502 0-2.728-1.223-2.728-2.723 0-.993.336-1.979.944-2.778.186-.24.287-.544.287-.85 0-.215-.047-.43-.146-.625-.227-.473-.722-.783-1.26-.783l-13.351-.031V46.914" transform="translate(0 1) translate(0 .588)"/>
        </g>
    </g>
</svg>
