<svg xmlns="http://www.w3.org/2000/svg" xmlns:xlink="http://www.w3.org/1999/xlink" width="97" height="100" viewBox="0 0 97 100">
    <defs>
        <path id="yw6qnfglea" d="M0 100L96.939 100 96.939 0 0 0z"/>
    </defs>
    <g fill="none" fill-rule="evenodd">
        <g>
            <g transform="translate(-1063.000000, -983.000000) translate(1063.000000, 983.000000)">
                <path fill="#F9D4DC" d="M8.086 22.684C22.884.424 52.96-5.649 75.264 9.121c22.303 14.77 28.387 44.79 13.589 67.052-14.798 22.26-44.875 28.333-67.178 13.563-22.303-14.77-28.387-44.79-13.59-67.052"/>
                <path fill="#FFF" d="M80.202 56.75c-1.763-3.711-5.345-8.882-11.21-7.354l-.003.001c-.018-1.761-.5-3.506-1.506-4.954-1.59-2.293-4.778-4.487-11.04-2.442l-.034.117c-.072-.929-.3-1.841-.735-2.665-1.186-2.244-4.19-4.833-11.782-2.686v-6.87H31.747v28.715S21.02 69.294 22.841 78.184c1.822 8.89 10.121 20.405 10.121 20.405h42.305s6.275-13.132 6.275-24.244V62.83c0-2.1-.438-4.182-1.34-6.08"/>
                <path fill="#42567C" d="M32.963 100c-.44 0-.872-.204-1.148-.587-.346-.48-8.497-11.865-10.359-20.946-1.952-9.525 8.833-20.396 9.293-20.854.553-.55 1.447-.549 1.998.002.552.551.55 1.444 0 1.995-.103.101-10.168 10.256-8.521 18.29 1.74 8.488 9.802 19.753 9.883 19.866.456.632.312 1.514-.322 1.969-.25.179-.538.265-.824.265"/>
                <path fill="#42567C" d="M31.747 75.756c-.78 0-1.413-.632-1.413-1.41V29.896c0-.779.633-1.41 1.413-1.41.781 0 1.414.631 1.414 1.41v44.448c0 .78-.633 1.41-1.414 1.41M43.893 64.24c-.781 0-1.414-.632-1.414-1.41V29.896c0-.779.633-1.41 1.414-1.41.78 0 1.413.631 1.413 1.41V62.83c0 .78-.633 1.41-1.413 1.41"/>
                <path fill="#42567C" d="M56.442 64.24c-.78 0-1.413-.632-1.413-1.41V42.743c0-.974-.21-1.884-.605-2.633-1.846-3.492-6.537-3.008-10.146-1.987-.747.212-1.532-.222-1.745-.972-.213-.75.223-1.53.974-1.743 8.801-2.49 12.184 1.053 13.417 3.385.61 1.153.931 2.52.931 3.95v20.085c0 .78-.632 1.41-1.413 1.41"/>
                <path fill="#42567C" d="M68.992 64.24c-.78 0-1.413-.632-1.413-1.41V49.497c0-1.596-.435-3.067-1.258-4.252-1.872-2.698-5.046-3.339-9.44-1.905-.74.241-1.539-.162-1.782-.902-.243-.74.162-1.537.904-1.78 7.502-2.448 11.14.816 12.643 2.98 1.15 1.66 1.76 3.686 1.76 5.859v13.331c0 .78-.633 1.41-1.414 1.41"/>
                <path fill="#42567C" d="M75.266 100c-.204 0-.41-.044-.607-.137-.704-.336-1.004-1.177-.668-1.88.062-.13 6.137-12.983 6.137-23.638V62.83c0-1.925-.415-3.819-1.203-5.475-1.753-3.69-4.837-7.83-9.576-6.593-.753.197-1.527-.254-1.724-1.009-.198-.753.255-1.524 1.01-1.72 5.16-1.346 9.72 1.537 12.845 8.113.965 2.032 1.475 4.343 1.475 6.684v11.516c0 11.301-6.15 24.304-6.412 24.851-.243.508-.75.804-1.277.804"/>
                <path fill="#F7778A" d="M45.406 29.897H30.212c-1.582 0-2.864-1.28-2.864-2.858V4.27c0-1.579 1.282-2.859 2.864-2.859h15.194c1.581 0 2.863 1.28 2.863 2.859v22.77c0 1.579-1.282 2.858-2.863 2.858"/>
                <path fill="#42567C" d="M30.212 2.821c-.8 0-1.45.65-1.45 1.448v22.77c0 .799.65 1.448 1.45 1.448h15.194c.8 0 1.45-.65 1.45-1.448V4.27c0-.798-.65-1.448-1.45-1.448H30.212zm15.194 28.487H30.212c-2.359 0-4.277-1.915-4.277-4.269V4.27C25.935 1.915 27.853 0 30.212 0h15.194c2.358 0 4.277 1.915 4.277 4.269v22.77c0 2.354-1.919 4.27-4.277 4.27z"/>
                <mask id="c5hpjn8l5b" fill="#fff">
                    <use xlink:href="#yw6qnfglea"/>
                </mask>
                <path fill="#FFF" d="M30.866 20.725L44.628 20.725 44.628 6.988 30.866 6.988z" mask="url(#c5hpjn8l5b)"/>
                <path fill="#FF82C9" d="M39.63 18.953l-.049-.012c-1.024-.254-2.416-.258-3.442-.01l-.151.036c-1.023.247-1.905.951-2.41 1.746h8.399c-.515-.82-1.396-1.525-2.347-1.76" mask="url(#c5hpjn8l5b)"/>
                <path fill="#42567C" d="M34.564 20.253h6.445c-.435-.415-.962-.723-1.49-.854l-.048-.012c-.948-.235-2.273-.239-3.223-.01l-.152.037c-.55.133-1.09.435-1.532.84m7.412.92h-8.398c-.168 0-.323-.092-.404-.239-.08-.147-.075-.326.015-.468.61-.96 1.615-1.688 2.69-1.947l.152-.037c1.097-.264 2.569-.26 3.662.011l.048.012c1.019.253 2.025 1.005 2.626 1.963.09.142.094.32.013.467-.081.147-.236.237-.404.237M37.882 18.169c-.066 0-.132-.003-.198-.009-.332-.03-.662-.143-.98-.339l-.675-.456c-.595-.402-1.024-1.004-1.195-1.671-.22-.109-.4-.312-.447-.604-.07-.438-.13-.674-.173-.846-.052-.204-.093-.366-.093-.64 0-.268.05-.472.15-.626.141-.212.427-.27.64-.13.205.134.267.406.143.616-.003.015-.011.058-.011.14 0 .16.018.234.064.414.046.178.107.42.178.85.207.021.37.182.401.393.005.035.011.07.018.104.096.49.402.941.842 1.238l.659.446c.178.109.372.178.56.195.089.008.18.006.268-.004.152-.017.314-.073.484-.167 0 0 .25-.143.526-.306.5-.295.882-.743 1.077-1.264.047-.123.064-.2.07-.243.03-.207.197-.366.4-.39.072-.432.133-.674.179-.852.046-.18.065-.255.065-.415 0-.053-.003-.09-.007-.112-.14-.145-.171-.37-.065-.551.128-.22.41-.294.63-.165.242.14.364.42.364.828 0 .275-.041.437-.093.641-.044.172-.104.408-.174.846-.047.299-.235.504-.461.611l-.044.126c-.27.716-.792 1.331-1.472 1.732-.285.168-.542.316-.542.316-.283.156-.56.248-.832.28-.085.009-.17.014-.256.014z" mask="url(#c5hpjn8l5b)"/>
                <path fill="#FFD47B" d="M35.787 11.276c.508.553 2.018 1.834 4.403.815l.243.668c.107.294.345.516.639.595l.072.02s1.24-4.649-2.941-5.058c0 0-1.656-.137-2.608 1.091 0 0-2.028-.364-.952 3.82l.004.002c.229.058.466-.06.564-.283l.686-1.556-.11-.114z" mask="url(#c5hpjn8l5b)"/>
                <path fill="#42567C" d="M40.19 11.63c.062 0 .125.013.183.039.116.05.207.146.25.265l.202.553c.071-.722.054-1.81-.508-2.616-.44-.631-1.166-1-2.16-1.097-.005 0-1.415-.094-2.197.915-.105.136-.277.2-.446.171-.018-.002-.257-.027-.443.18-.16.18-.46.754-.137 2.393l.43-.975c-.076-.175-.038-.385.111-.521.188-.173.48-.16.651.028l.091.094.011.011c.541.537 1.82 1.436 3.78.598.058-.025.12-.037.182-.037m.954 2.203c-.04 0-.08-.006-.12-.016l-.072-.02c-.438-.118-.794-.448-.952-.882l-.084-.23c-1.772.585-3.086.002-3.845-.548l-.438.993c-.19.43-.653.657-1.1.544-.163-.042-.295-.17-.336-.333-.497-1.93-.427-3.255.208-3.937.307-.33.688-.443.98-.463 1.103-1.214 2.782-1.09 2.856-1.085 1.283.126 2.235.628 2.836 1.492 1.155 1.663.54 4.042.513 4.143-.032.118-.11.219-.216.28-.07.04-.15.062-.23.062" mask="url(#c5hpjn8l5b)"/>
                <path fill="#42567C" d="M31.427 20.253h12.696V7.581H31.427v12.672zm13.158.92H30.966c-.255 0-.46-.205-.46-.46V7.121c0-.254.205-.46.46-.46h13.619c.254 0 .46.206.46.46v13.592c0 .255-.206.46-.46.46z" mask="url(#c5hpjn8l5b)"/>
                <path fill="#42567C" d="M38.465 16.392l-1.24.019c-.254.003-.463-.2-.467-.453-.004-.255.199-.464.453-.468l1.24-.018c.255-.004.464.198.468.453.004.254-.2.463-.454.467M36.929 14.279l-.865.013c-.255.004-.465-.199-.468-.453-.004-.254.199-.463.453-.467l.866-.013c.254-.004.464.199.468.453.004.254-.2.463-.454.467M39.674 14.237l-.865.013c-.255.004-.465-.199-.469-.453-.003-.254.2-.463.454-.467l.866-.013c.254-.004.464.199.468.453.004.254-.2.463-.454.467" mask="url(#c5hpjn8l5b)"/>
            </g>
        </g>
    </g>
</svg>
