<svg width="61" height="90" xmlns="http://www.w3.org/2000/svg" xmlns:xlink="http://www.w3.org/1999/xlink">
    <defs>
        <path id="a" d="M0 0h47.581v77.867H0z"/>
        <path id="c" d="M0 0h23.358v8.286H0z"/>
        <path id="e" d="M0 0h8.27v13.14H0z"/>
    </defs>
    <g fill="none" fill-rule="evenodd">
        <g>
            <mask id="b" fill="#fff">
                <use xlink:href="#a"/>
            </mask>
            <path d="M22.289 77.867H7.423C3.329 77.867 0 74.537 0 70.445V6.932A6.94 6.94 0 0 1 6.933 0h33.716a6.94 6.94 0 0 1 6.932 6.932v37.353a.99.99 0 0 1-1.98 0V6.932A4.959 4.959 0 0 0 40.65 1.98H6.933A4.959 4.959 0 0 0 1.98 6.932v63.513c0 3 2.441 5.442 5.443 5.442h14.866a.99.99 0 0 1 0 1.98" fill="#344154" mask="url(#b)"/>
        </g>
        <g transform="translate(12.111)">
            <mask id="d" fill="#fff">
                <use xlink:href="#c"/>
            </mask>
            <path d="M19.056 8.286H4.302A4.307 4.307 0 0 1 0 3.983V.99a.99.99 0 1 1 1.98 0v2.993a2.325 2.325 0 0 0 2.322 2.323h14.754a2.326 2.326 0 0 0 2.323-2.323V.99a.99.99 0 1 1 1.98 0v2.993a4.307 4.307 0 0 1-4.303 4.303" fill="#344154" mask="url(#d)"/>
        </g>
        <path d="M50.492 82.158a.99.99 0 0 1-.99-.99c0-6.583 2.399-10.822 5.176-15.73.421-.745.851-1.504 1.282-2.29 2.235-4.074 2.407-9.139 2.409-9.19.016-.545.464-.955 1.018-.96a.99.99 0 0 1 .96 1.017c-.005.225-.181 5.582-2.651 10.085-.436.794-.87 1.56-1.295 2.313-2.64 4.664-4.919 8.693-4.919 14.756a.99.99 0 0 1-.99.99M46.776 46.514h-.034a.989.989 0 0 1-.956-1.023c.041-1.237.087-2.326.127-3.287.196-4.718.213-5.977-.645-6.556-.959-.65-2.04-.206-3.848 1.586a.99.99 0 0 1-1.393-1.406c1.097-1.088 3.67-3.634 6.35-1.82 1.808 1.223 1.734 3 1.514 8.278-.04.957-.086 2.04-.127 3.272a.99.99 0 0 1-.988.956" fill="#344154"/>
        <path d="m53.067 50.192-.034-.001a.989.989 0 0 1-.956-1.023c.041-1.235.087-2.322.127-3.282.197-4.722.214-5.981-.644-6.561-.96-.648-2.04-.205-3.85 1.586a.99.99 0 0 1-1.391-1.407c1.098-1.087 3.67-3.633 6.35-1.819 1.807 1.224 1.733 3.002 1.513 8.283-.04.955-.085 2.038-.127 3.267a.99.99 0 0 1-.988.957" fill="#344154"/>
        <g transform="translate(52.317 41.837)">
            <mask id="f" fill="#fff">
                <use xlink:href="#e"/>
            </mask>
            <path d="M7.042 13.14h-.034a.989.989 0 0 1-.955-1.023c.04-1.237.087-2.326.126-3.287.197-4.718.213-5.977-.645-6.557-.961-.65-2.04-.205-3.847 1.587A.99.99 0 1 1 .294 2.453C1.392 1.366 3.962-1.18 6.644.633c1.807 1.223 1.733 3.001 1.513 8.28-.04.956-.085 2.04-.127 3.27a.99.99 0 0 1-.988.957" fill="#344154" mask="url(#f)"/>
        </g>
        <path d="M54.664 90a.99.99 0 0 1-.99-.99v-5.529c0-.73-.594-1.323-1.323-1.323H26.69c-.73 0-1.324.594-1.324 1.323v5.53a.99.99 0 0 1-1.98 0v-5.53a3.307 3.307 0 0 1 3.304-3.302H52.35a3.306 3.306 0 0 1 3.302 3.302v5.53a.99.99 0 0 1-.99.989" fill="#344154"/>
        <path d="M28.868 82.158a.99.99 0 0 1-.99-.99v-7.607c0-10.856-2.799-14.228-6.674-18.896l-.604-.73c-.162-.217-3.166-4.37-2.81-9.255.166-2.255 1.862-3.946 4.125-4.11 2.246-.17 4.14 1.25 4.624 3.435.092.414.158.855.196 1.309.14 1.693 1.084 3.136 2.523 3.858.766.385 1.66.345 2.391-.106a2.44 2.44 0 0 0 1.166-2.09V24.27a4.203 4.203 0 0 1 4.197-4.197 4.202 4.202 0 0 1 4.198 4.197v18.97a.99.99 0 0 1-1.98 0V24.27a2.22 2.22 0 0 0-2.218-2.218 2.22 2.22 0 0 0-2.217 2.218v22.707c0 1.548-.788 2.96-2.106 3.773a4.405 4.405 0 0 1-4.319.19c-2.06-1.033-3.41-3.075-3.609-5.463a7.637 7.637 0 0 0-.154-1.044c-.334-1.507-1.576-1.967-2.549-1.89-.986.072-2.178.713-2.293 2.282-.303 4.144 2.37 7.859 2.397 7.896l.566.68c3.983 4.799 7.13 8.59 7.13 20.16v7.608a.99.99 0 0 1-.99.99" fill="#344154"/>
        <path d="M51.256 63.502c.361-.638.73-1.296 1.1-1.964a22.07 22.07 0 0 0-4.205 1.056 22.282 22.282 0 0 0-9.99 7.293c-1.236 1.601-2.264 3.409-2.673 5.389-.066.322-.113.646-.148.97h10.666c.906-5.053 3.103-8.95 5.25-12.744" fill="#F7778A"/>
    </g>
</svg>
