<svg width="76" height="80" xmlns="http://www.w3.org/2000/svg" xmlns:xlink="http://www.w3.org/1999/xlink">
    <defs>
        <path id="a" d="M0 0h76.004v80H0z"/>
    </defs>
    <g fill="none" fill-rule="evenodd">
        <path d="M51.652 56.744a.844.844 0 0 1-.844-.844v-7.291c0-1.587-.404-3.072-1.168-4.292a7.164 7.164 0 0 0-1.579-1.796c-2.844-2.287-10.291-6.333-10.366-6.374a.844.844 0 1 1 .805-1.484c.311.17 7.656 4.16 10.619 6.542a8.854 8.854 0 0 1 1.952 2.216c.933 1.49 1.425 3.283 1.425 5.188V55.9a.844.844 0 0 1-.844.844" fill="#344154"/>
        <path d="M51.652 56.744H8.462v-8.135c0-1.905.494-3.698 1.427-5.188a8.838 8.838 0 0 1 1.952-2.216c2.963-2.381 10.308-6.373 10.62-6.542a.844.844 0 0 1 .804 1.484c-.074.04-7.522 4.088-10.367 6.374a7.168 7.168 0 0 0-1.578 1.796c-.765 1.22-1.17 2.705-1.17 4.292v6.447h41.502a.844.844 0 0 1 0 1.688" fill="#344154"/>
        <path d="M30.48 13.75c-5.412 0-9.816 5.56-9.816 12.395S25.068 38.54 30.48 38.54c5.412 0 9.816-5.561 9.816-12.396 0-6.835-4.404-12.395-9.816-12.395m0 26.479c-6.343 0-11.504-6.319-11.504-14.084s5.161-14.083 11.504-14.083 11.504 6.318 11.504 14.083c0 7.765-5.161 14.084-11.504 14.084" fill="#344154"/>
        <path d="M30.48 34.557c-3.162 0-5.833-3.852-5.833-8.412 0-4.56 2.671-8.413 5.833-8.413 3.162 0 5.832 3.853 5.832 8.413 0 4.56-2.67 8.412-5.832 8.412" fill="#F7778A"/>
        <g>
            <mask id="b" fill="#fff">
                <use xlink:href="#a"/>
            </mask>
            <path d="M15.31 1.688C7.8 1.688 1.689 7.799 1.689 15.311v49.38c0 7.51 6.111 13.621 13.623 13.621h30.677c7.511 0 13.622-6.11 13.622-13.622V14.457L72.011 1.688h-56.7zM45.989 80H15.31C6.868 80 0 73.132 0 64.69V15.31C0 6.869 6.868 0 15.31 0h60.694L61.298 15.142V64.69c0 8.442-6.868 15.31-15.31 15.31z" fill="#344154" mask="url(#b)"/>
        </g>
    </g>
</svg>
