<svg xmlns="http://www.w3.org/2000/svg" width="97" height="100" viewBox="0 0 97 100">
    <g fill="none" fill-rule="evenodd">
        <g>
            <g>
                <path fill="#F9D4DC" d="M8.091 24.068C22.9 1.756 52.994-4.33 75.311 10.474 97.63 25.278 103.718 55.367 88.91 77.68 74.1 99.992 44.006 106.079 21.689 91.275-.63 76.47-6.717 46.38 8.09 24.068" transform="translate(-789.000000, -983.000000) translate(789.000000, 983.000000)"/>
                <path fill="#FFF" d="M48.606 94.587c.765.056 1.012.058 1.776.004 2.816-.197 5.514-1.294 7.856-2.994l5.424-4.64c4.099-2.976 8.193-7.331 9.633-12.435.351-1.243.618-2.518.796-3.815 0 0 3.182.03 3.648-3.09 1.425-9.54 2.454-9.954 2.454-14.145 0-4.187-1.44-5.183-3.173-4.1.289-1.075.71-3.317.882-6.426 1.176-21.239-9.297-37.321-29.297-37.321l.001 88.962z" transform="translate(-789.000000, -983.000000) translate(789.000000, 983.000000)"/>
                <path fill="#42567C" d="M49.519 96.044c-.294 0-.586-.015-1.017-.047-.78-.058-1.364-.736-1.306-1.515.058-.779.74-1.357 1.515-1.306.706.053.882.053 1.572.005 2.421-.17 4.868-1.101 7.08-2.696l5.38-4.603c.028-.024.058-.048.088-.07 2.729-1.98 7.54-6.132 9.103-11.673.333-1.182.588-2.402.756-3.624.096-.7.695-1.222 1.401-1.222h.013c.316-.003 1.972-.112 2.236-1.885.694-4.648 1.295-7.155 1.734-8.986.454-1.896.704-2.94.704-4.95 0-2.166-.431-2.974-.594-3.101-.004.012-.148.033-.415.2-.492.307-1.123.283-1.59-.063-.468-.346-.676-.942-.525-1.503.302-1.124.68-3.326.836-6.138.647-11.678-2.328-21.629-8.375-28.019-4.835-5.109-11.581-7.81-19.51-7.81-.78 0-1.414-.632-1.414-1.413s.633-1.414 1.414-1.414c8.725 0 16.182 3.006 21.564 8.694 6.588 6.96 9.835 17.657 9.145 30.119-.107 1.927-.3 3.466-.488 4.596.3.066.544.173.725.273 1.383.767 2.056 2.592 2.056 5.58 0 2.343-.311 3.642-.782 5.607-.427 1.78-1.011 4.22-1.687 8.746-.394 2.638-2.272 3.767-3.813 4.142-.173.991-.397 1.976-.668 2.938-1.787 6.331-7.085 10.95-10.118 13.16l-5.38 4.606-.09.07c-2.652 1.925-5.622 3.052-8.588 3.26-.402.028-.682.042-.962.042" transform="translate(-789.000000, -983.000000) translate(789.000000, 983.000000)"/>
                <path fill="#FFD47B" d="M77.903 42.946c-.03.57-.073 1.112-.124 1.616-.176-.687-1.324-4.154-6.254-4.285-10.607-.278-17.93-3.437-22.918-7.109V5.626c19.999 0 30.474 16.082 29.296 37.32" transform="translate(-789.000000, -983.000000) translate(789.000000, 983.000000)"/>
                <path fill="#42567C" d="M50.021 32.443c5.757 4.037 13 6.197 21.54 6.42 2.14.058 3.793.695 5.013 1.601.137-10.636-2.828-19.666-8.456-25.613-4.545-4.803-10.78-7.478-18.097-7.782v25.374zm27.757 13.534c-.64 0-1.208-.435-1.369-1.064-.133-.52-.995-3.118-4.922-3.223-9.416-.246-17.397-2.73-23.719-7.383-.362-.267-.576-.69-.576-1.139V5.626c0-.78.633-1.414 1.415-1.414 8.726 0 16.183 3.007 21.566 8.695 6.586 6.96 9.832 17.655 9.143 30.114-.031.594-.077 1.158-.13 1.684-.07.682-.617 1.216-1.302 1.267-.035.003-.07.005-.106.005zM71.875 50.53c-.264 0-.531-.073-.769-.227-2.114-1.373-3.3-2.126-5.053-2.907-1.542-.686-5.164-.317-9.476 2.116-.68.385-1.543.144-1.927-.537-.383-.68-.143-1.542.537-1.926 4.565-2.575 9.282-3.452 12.016-2.237 1.945.866 3.27 1.707 5.444 3.12.655.425.84 1.3.415 1.955-.27.417-.724.644-1.187.644" transform="translate(-789.000000, -983.000000) translate(789.000000, 983.000000)"/>
                <path fill="#26C1F8" d="M63.65 51.332c.793.468 1.308 1.348 1.262 2.332-.065 1.416-1.267 2.512-2.684 2.446-1.417-.065-2.512-1.266-2.447-2.683.04-.842.48-1.57 1.128-2.01l2.74-.085z" transform="translate(-789.000000, -983.000000) translate(789.000000, 983.000000)"/>
                <path fill="#42567C" d="M62.29 51.722c-.075.341-.276.656-.589.867-.305.207-.49.535-.507.903-.03.635.464 1.177 1.1 1.206.627.036 1.176-.464 1.205-1.1.02-.428-.197-.83-.567-1.048-.325-.191-.545-.492-.642-.828m.059 5.805c-.062 0-.124-.001-.186-.004-2.193-.101-3.896-1.968-3.795-4.161.058-1.25.712-2.415 1.749-3.116.646-.436 1.526-.267 1.964.38.085.126.148.261.188.4.03-.141.085-.28.163-.412.396-.672 1.263-.896 1.936-.5 1.276.752 2.025 2.137 1.957 3.615-.099 2.131-1.864 3.798-3.976 3.798" transform="translate(-789.000000, -983.000000) translate(789.000000, 983.000000)"/>
                <path fill="#42567C" d="M55.517 55.958c-.39 0-.78-.16-1.059-.476-.518-.584-.464-1.478.12-1.996 2.992-2.651 4.975-3.81 8.816-3.67 2.776.1 4.475 1.271 5.973 2.305.287.198.576.398.873.59.657.423.846 1.298.423 1.954-.423.656-1.298.846-1.955.423-.322-.208-.635-.424-.948-.64-1.35-.931-2.517-1.736-4.468-1.807-2.729-.097-4.008.455-6.837 2.962-.27.238-.605.355-.938.355M48.749 69.273h-.052c-.78-.004-1.41-.641-1.406-1.422.005-.778.637-1.406 1.414-1.406h.044c.943 0 2.258-.213 3.242-1.215.547-.559 1.443-.565 2-.019.558.548.566 1.443.019 2-1.307 1.33-3.175 2.062-5.261 2.062" transform="translate(-789.000000, -983.000000) translate(789.000000, 983.000000)"/>
                <path fill="#FF82C9" d="M48.705 83.831c5.142 0 7.223-3.486 9.315-4.929-2.276-.62-5.47-5.956-9.315-2.93V83.831z" transform="translate(-789.000000, -983.000000) translate(789.000000, 983.000000)"/>
                <path fill="#42567C" d="M48.705 85.246c-.781 0-1.414-.633-1.414-1.414 0-.782.633-1.414 1.414-1.414 3.326 0 5.156-1.702 6.77-3.204l.11-.1c-.271-.208-.543-.428-.819-.652-2.055-1.667-3.284-2.447-4.647-1.735v2.175c0 .782-.632 1.415-1.414 1.415-.781 0-1.414-.633-1.414-1.415v-2.93c0-.435.199-.844.54-1.112 3.546-2.79 6.783-.164 8.717 1.406.67.543 1.429 1.159 1.845 1.272.53.145.93.585 1.021 1.127.093.543-.138 1.09-.59 1.402-.429.295-.889.723-1.422 1.218-1.797 1.672-4.26 3.96-8.697 3.96" transform="translate(-789.000000, -983.000000) translate(789.000000, 983.000000)"/>
                <path fill="#42567C" d="M48.705 78.902c4.123.01 8.03 0 9.315 0h-9.315z" transform="translate(-789.000000, -983.000000) translate(789.000000, 983.000000)"/>
                <path fill="#42567C" d="M52.668 80.32c-1.239 0-2.59 0-3.966-.004-.781-.001-1.413-.636-1.411-1.417.002-.78.635-1.41 1.414-1.41h.003c3.104.006 6.084.003 7.915 0h1.397c.782 0 1.415.632 1.415 1.414 0 .78-.633 1.413-1.415 1.413l-1.393.002c-1.022.001-2.401.003-3.96.003M77.798 46.076c-.662 0-1.243-.454-1.377-1.118-.191-.744.242-1.528.983-1.735.746-.21 1.512.198 1.731.939.052.176.067.283.067.283.11.766-.415 1.495-1.18 1.614-.075.012-.15.017-.224.017" transform="translate(-789.000000, -983.000000) translate(789.000000, 983.000000)"/>
                <path fill="#F7778A" d="M48.607 100c-.782 0-1.414-.633-1.414-1.414V1.414c0-.781.632-1.414 1.414-1.414.781 0 1.414.633 1.414 1.414v97.172c0 .781-.633 1.414-1.414 1.414" transform="translate(-789.000000, -983.000000) translate(789.000000, 983.000000)"/>
                <path fill="#42567C" d="M20.905 42.194c-.651 0-1.179-.527-1.179-1.178V35.96l-.084.11c-.398.515-1.138.61-1.654.212-.515-.398-.61-1.138-.212-1.653l2.196-2.842c.308-.4.835-.558 1.314-.395.477.163.797.611.797 1.115v8.508c0 .65-.527 1.178-1.178 1.178" transform="translate(-789.000000, -983.000000) translate(789.000000, 983.000000)"/>
                <path fill="#42567C" d="M23.105 42.194h-4.396c-.651 0-1.179-.527-1.179-1.178 0-.651.528-1.179 1.179-1.179h4.396c.65 0 1.178.528 1.178 1.179 0 .65-.528 1.178-1.178 1.178M31.229 82.569c-.651 0-1.179-.527-1.179-1.178v-5.056l-.085.11c-.397.516-1.138.611-1.653.213-.515-.398-.61-1.138-.213-1.653l2.197-2.843c.308-.399.836-.557 1.313-.395.477.163.798.612.798 1.116v8.508c0 .65-.527 1.178-1.178 1.178" transform="translate(-789.000000, -983.000000) translate(789.000000, 983.000000)"/>
                <path fill="#42567C" d="M33.428 82.569h-4.396c-.65 0-1.178-.527-1.178-1.178 0-.651.527-1.179 1.178-1.179h4.396c.65 0 1.178.528 1.178 1.179 0 .65-.527 1.178-1.178 1.178M20.903 55.928c-.651 0-1.179-.527-1.179-1.178v-5.054l-.084.11c-.397.514-1.137.61-1.653.212s-.61-1.138-.213-1.653l2.196-2.843c.308-.399.836-.558 1.314-.395.477.163.798.612.798 1.116v8.507c0 .651-.528 1.178-1.179 1.178" transform="translate(-789.000000, -983.000000) translate(789.000000, 983.000000)"/>
                <path fill="#42567C" d="M23.103 55.928h-4.396c-.65 0-1.178-.527-1.178-1.178 0-.65.527-1.178 1.178-1.178h4.396c.65 0 1.178.527 1.178 1.178 0 .651-.527 1.178-1.178 1.178M31.02 55.928c-.652 0-1.18-.527-1.18-1.178v-5.055l-.085.11c-.397.515-1.137.61-1.653.213-.515-.398-.61-1.138-.212-1.653l2.196-2.843c.308-.4.836-.556 1.314-.395.477.163.798.612.798 1.116v8.507c0 .651-.528 1.178-1.179 1.178" transform="translate(-789.000000, -983.000000) translate(789.000000, 983.000000)"/>
                <path fill="#42567C" d="M33.218 55.928h-4.395c-.651 0-1.179-.527-1.179-1.178 0-.65.528-1.178 1.179-1.178h4.395c.651 0 1.179.527 1.179 1.178 0 .651-.528 1.178-1.179 1.178M40.839 55.862c-.651 0-1.179-.528-1.179-1.179V49.63l-.084.11c-.398.514-1.137.61-1.653.212s-.61-1.138-.213-1.653l2.196-2.843c.309-.4.836-.556 1.314-.395.477.163.797.612.797 1.116v8.507c0 .651-.527 1.179-1.178 1.179" transform="translate(-789.000000, -983.000000) translate(789.000000, 983.000000)"/>
                <path fill="#42567C" d="M43.039 55.862h-4.396c-.651 0-1.179-.528-1.179-1.179 0-.65.528-1.178 1.179-1.178h4.396c.65 0 1.178.528 1.178 1.178 0 .651-.527 1.179-1.178 1.179M40.837 68.998c-.65 0-1.179-.527-1.179-1.178v-5.055l-.084.11c-.398.515-1.138.61-1.653.212-.516-.398-.61-1.138-.213-1.653l2.196-2.842c.309-.399.836-.556 1.314-.395.477.163.798.611.798 1.115v8.508c0 .65-.528 1.178-1.179 1.178" transform="translate(-789.000000, -983.000000) translate(789.000000, 983.000000)"/>
                <path fill="#42567C" d="M43.037 68.998H38.64c-.65 0-1.178-.527-1.178-1.178 0-.65.527-1.178 1.178-1.178h4.396c.65 0 1.178.527 1.178 1.178 0 .65-.527 1.178-1.178 1.178M30.798 28.865c-.651 0-1.179-.527-1.179-1.178v-5.054l-.085.11c-.396.514-1.137.61-1.653.212-.515-.398-.61-1.138-.212-1.653l2.196-2.843c.308-.399.835-.558 1.313-.395.477.163.798.611.798 1.115v8.508c0 .651-.527 1.178-1.178 1.178" transform="translate(-789.000000, -983.000000) translate(789.000000, 983.000000)"/>
                <path fill="#42567C" d="M32.997 28.865h-4.395c-.651 0-1.179-.527-1.179-1.178 0-.65.528-1.178 1.179-1.178h4.395c.651 0 1.179.527 1.179 1.178 0 .651-.528 1.178-1.179 1.178M40.756 15.885c-.651 0-1.179-.528-1.179-1.178V9.652l-.084.11c-.398.514-1.137.61-1.653.212s-.61-1.138-.213-1.653l2.196-2.842c.309-.4.836-.558 1.314-.395.477.163.798.61.798 1.115v8.508c0 .65-.528 1.178-1.179 1.178" transform="translate(-789.000000, -983.000000) translate(789.000000, 983.000000)"/>
                <path fill="#42567C" d="M42.956 15.885H38.56c-.65 0-1.178-.528-1.178-1.178 0-.651.527-1.179 1.178-1.179h4.396c.65 0 1.178.528 1.178 1.179 0 .65-.527 1.178-1.178 1.178M30.888 41.973c-.651 0-1.179-.527-1.179-1.178V35.74l-.084.11c-.397.515-1.138.61-1.653.212-.516-.398-.61-1.138-.213-1.653l2.196-2.842c.308-.4.837-.556 1.314-.395.477.163.798.611.798 1.115v8.508c0 .65-.528 1.178-1.179 1.178" transform="translate(-789.000000, -983.000000) translate(789.000000, 983.000000)"/>
                <path fill="#42567C" d="M33.088 41.973h-4.396c-.65 0-1.178-.527-1.178-1.178 0-.651.527-1.179 1.178-1.179h4.396c.65 0 1.178.528 1.178 1.179 0 .65-.527 1.178-1.178 1.178M40.848 33.472c-.313 0-.533.137-.647.231-.236.195-.372.482-.372.788v4.02c0 .31.119.612.326.826.093.097.252.222.475.265.422.08.72-.1.86-.216.24-.198.377-.482.377-.781v-4.02c0-.533-.344-1.003-.802-1.092-.076-.015-.149-.021-.217-.021m-.013 8.507c-.218 0-.438-.021-.656-.063-.654-.128-1.249-.454-1.72-.942-.627-.65-.987-1.548-.987-2.464v-4.02c0-1.012.448-1.962 1.23-2.606.783-.644 1.808-.9 2.815-.704 1.568.306 2.707 1.738 2.707 3.405v4.02c0 1.006-.45 1.953-1.235 2.6-.614.505-1.374.774-2.154.774M40.758 20.157c-.313 0-.533.138-.647.232-.237.194-.372.481-.372.787v4.02c0 .31.118.612.326.826.093.098.251.222.475.266.422.082.72-.1.86-.217.24-.197.377-.482.377-.78v-4.02c0-.534-.345-1.003-.802-1.092-.077-.015-.15-.022-.217-.022m-.013 8.507c-.218 0-.438-.02-.656-.063-.654-.128-1.249-.454-1.72-.942-.627-.65-.987-1.547-.987-2.463v-4.02c0-1.012.448-1.963 1.23-2.606.782-.645 1.808-.902 2.815-.705 1.568.306 2.707 1.738 2.707 3.406v4.02c0 1.005-.45 1.952-1.235 2.6-.614.504-1.374.773-2.154.773M20.903 60.49c-.313 0-.533.138-.647.232-.236.195-.372.482-.372.788v4.02c0 .31.119.612.326.826.136.14.296.23.476.265.415.082.718-.1.859-.216.24-.197.377-.482.377-.781v-4.02c0-.533-.345-1.002-.802-1.092-.076-.015-.149-.021-.217-.021m-.012 8.507c-.219 0-.438-.021-.657-.064-.653-.127-1.247-.452-1.72-.94-.628-.652-.987-1.55-.987-2.465v-4.02c0-1.012.448-1.961 1.23-2.606.782-.644 1.808-.9 2.815-.704 1.569.307 2.707 1.739 2.707 3.405v4.02c0 1.005-.45 1.953-1.235 2.6-.614.505-1.373.774-2.153.774M31.026 60.49c-.313 0-.533.138-.647.232-.236.195-.372.482-.372.788v4.02c0 .31.119.612.326.826.136.14.296.23.476.265.417.08.718-.1.86-.216.239-.197.376-.482.376-.781v-4.02c0-.533-.344-1.002-.802-1.092-.076-.015-.149-.021-.217-.021m-.012 8.507c-.218 0-.438-.021-.656-.064-.654-.127-1.248-.452-1.72-.94-.629-.652-.988-1.55-.988-2.465v-4.02c0-1.012.448-1.961 1.23-2.606.782-.644 1.81-.9 2.815-.704 1.569.307 2.707 1.739 2.707 3.405v4.02c0 1.005-.45 1.953-1.235 2.6-.614.505-1.373.774-2.153.774M40.933 74.061c-.312 0-.533.138-.647.231-.236.195-.372.482-.372.788v4.02c0 .31.119.612.326.826.136.141.296.23.476.266.419.08.718-.1.859-.216.24-.198.377-.482.377-.782v-4.02c0-.533-.344-1.002-.801-1.091-.077-.015-.15-.022-.218-.022m-.013 8.508c-.218 0-.437-.022-.656-.064-.653-.127-1.249-.453-1.72-.942-.628-.65-.987-1.547-.987-2.463v-4.02c0-1.013.449-1.963 1.23-2.606.783-.644 1.808-.902 2.815-.704 1.569.306 2.707 1.737 2.707 3.404v4.02c0 1.006-.45 1.954-1.235 2.6-.614.506-1.374.775-2.154.775M40.756 86.727c-.312 0-.533.138-.647.232-.236.195-.372.482-.372.787v4.02c0 .31.119.612.326.826.093.098.252.222.477.266.42.083.717-.1.858-.216.24-.198.377-.482.377-.781v-4.02c0-.534-.345-1.003-.802-1.093-.076-.014-.149-.02-.217-.02m-.013 8.507c-.218 0-.438-.021-.656-.064-.655-.128-1.25-.454-1.72-.942-.627-.65-.987-1.547-.987-2.463v-4.02c0-1.012.448-1.962 1.23-2.606.782-.644 1.808-.9 2.815-.705 1.569.307 2.707 1.74 2.707 3.406v4.02c0 1.005-.45 1.953-1.235 2.6-.614.505-1.373.774-2.154.774" transform="translate(-789.000000, -983.000000) translate(789.000000, 983.000000)"/>
            </g>
        </g>
    </g>
</svg>
