<svg width="90" height="74" xmlns="http://www.w3.org/2000/svg" xmlns:xlink="http://www.w3.org/1999/xlink">
    <defs>
        <path id="a" d="M0 73.1h90V0H0z"/>
    </defs>
    <g fill="none" fill-rule="evenodd">
        <path d="M77.01 12.828H40.921a1.057 1.057 0 0 1 0-2.113H77.01a1.057 1.057 0 0 1 0 2.113M77.01 20.422H40.921a1.057 1.057 0 0 1 0-2.113H77.01a1.057 1.057 0 0 1 0 2.113M77.01 28.016H40.921a1.057 1.057 0 0 1 0-2.113H77.01a1.057 1.057 0 0 1 0 2.113" fill="#2DACE5"/>
        <path d="M49.078 45.646H12.99a1.057 1.057 0 0 1 0-2.113h36.087a1.057 1.057 0 0 1 0 2.113M49.078 53.24H12.99a1.057 1.057 0 0 1 0-2.113h36.087a1.057 1.057 0 0 1 0 2.113M31.225 2.113c-.651 0-1.18.53-1.18 1.182v32.142c0 .652.529 1.181 1.18 1.181h49.158c.88 0 1.707.343 2.33.967l5.174 5.184V3.295c0-.652-.53-1.182-1.18-1.182H31.224zM90 47.875l-8.781-8.797a1.175 1.175 0 0 0-.836-.347H31.225a3.297 3.297 0 0 1-3.294-3.294V3.295A3.298 3.298 0 0 1 31.225 0h55.481A3.298 3.298 0 0 1 90 3.295v44.58z" fill="#344154"/>
        <mask id="b" fill="#fff">
            <use xlink:href="#a"/>
        </mask>
        <path d="M0 73.1V28.517a3.298 3.298 0 0 1 3.294-3.294h25.694a1.056 1.056 0 1 1 0 2.113H3.294c-.65 0-1.181.53-1.181 1.181v39.474l5.174-5.183a3.268 3.268 0 0 1 2.33-.966h49.158c.651 0 1.18-.53 1.18-1.181V37.675a1.057 1.057 0 0 1 2.114 0v22.987a3.297 3.297 0 0 1-3.294 3.293H9.617a1.17 1.17 0 0 0-.835.347L0 73.099z" fill="#344154" mask="url(#b)"/>
    </g>
</svg>
