<svg width="82" height="90" xmlns="http://www.w3.org/2000/svg" xmlns:xlink="http://www.w3.org/1999/xlink">
    <defs>
        <path id="a" d="M0 0h62.632v14.36H0z"/>
    </defs>
    <g fill="none" fill-rule="evenodd">
        <path d="M.968 47.598A.968.968 0 0 1 0 46.63V36.175a.97.97 0 0 1 .11-.447l10.726-20.574a9.896 9.896 0 0 1 4.221-4.22L35.631.206a1.809 1.809 0 0 1 2.12.325c.563.562.694 1.415.325 2.121L27.351 23.226a9.905 9.905 0 0 1-4.221 4.222L6.675 36.026a.968.968 0 1 1-.895-1.716l16.455-8.579a7.969 7.969 0 0 0 3.4-3.4L36.18 2.103 15.952 12.649a7.974 7.974 0 0 0-3.4 3.4L1.935 36.412V46.63a.968.968 0 0 1-.967.968" fill="#344154"/>
        <path d="M19.717 42.997a3.52 3.52 0 0 1-2.486-1.03l-7.913-7.913a.967.967 0 1 1 1.368-1.368l7.914 7.913a1.57 1.57 0 0 0 1.66.364A35.27 35.27 0 0 0 40.865 20.36a1.571 1.571 0 0 0-.363-1.66l-7.912-7.916a.967.967 0 1 1 1.369-1.368l7.912 7.916a3.512 3.512 0 0 1 .806 3.71A37.208 37.208 0 0 1 20.94 42.774a3.47 3.47 0 0 1-1.224.222" fill="#344154"/>
        <path d="M75.35 65.6H24.908a5.39 5.39 0 0 1-5.385-5.383V45.584a.968.968 0 0 1 1.936 0v14.633a3.452 3.452 0 0 0 3.449 3.448H75.35a3.452 3.452 0 0 0 3.448-3.448V25.041a3.452 3.452 0 0 0-3.448-3.449H45.773a.968.968 0 0 1 0-1.935h29.578a5.39 5.39 0 0 1 5.384 5.384v35.176a5.39 5.39 0 0 1-5.384 5.384" fill="#344154"/>
        <path d="M67.941 72.411H32.316a.968.968 0 0 1-.9-1.324l2.695-6.81a.968.968 0 0 1 1.8.712l-2.172 5.487h32.779l-2.17-5.487a.967.967 0 1 1 1.799-.712l2.694 6.81a.969.969 0 0 1-.9 1.324" fill="#344154"/>
        <g transform="translate(18.813 75.64)">
            <mask id="b" fill="#fff">
                <use xlink:href="#a"/>
            </mask>
            <path d="m6.963 1.935-4.882 8.808c-.283.51-.083.957.015 1.124.099.167.392.557.975.557h56.49c.584 0 .877-.39.975-.557.098-.168.298-.613.015-1.124l-4.882-8.808H6.963zM59.56 14.36H3.071a3.039 3.039 0 0 1-2.642-1.51 3.04 3.04 0 0 1-.04-3.044L5.547.498A.967.967 0 0 1 6.393 0h49.846c.352 0 .676.191.846.498l5.158 9.307a3.038 3.038 0 0 1-.04 3.044 3.04 3.04 0 0 1-2.643 1.51z" fill="#344154" mask="url(#b)"/>
        </g>
        <path fill="#2DACE5" d="M72.482 79.711H27.776l-1.268 2.286h47.241zM24.11 47.858h29.988c.41 0 .741-.332.741-.74V26.083L24.11 47.858z"/>
    </g>
</svg>
