<svg width="106" height="100" xmlns="http://www.w3.org/2000/svg" xmlns:xlink="http://www.w3.org/1999/xlink">
    <defs>
        <path id="a" d="M0 0h105.488v17.474H0z"/>
    </defs>
    <g fill="none" fill-rule="evenodd">
        <g>
            <mask id="b" fill="#fff">
                <use xlink:href="#a"/>
            </mask>
            <path d="M3.274 3.274v8.317a2.612 2.612 0 0 0 2.61 2.609h93.718a2.615 2.615 0 0 0 2.612-2.61V3.275H3.274zm96.328 14.2H5.883A5.889 5.889 0 0 1 0 11.591V1.637C0 .734.734 0 1.637 0h102.215c.903 0 1.637.734 1.637 1.637v9.954a5.892 5.892 0 0 1-5.887 5.883z" fill="#344154" mask="url(#b)"/>
        </g>
        <path d="M19.192 29.663h-4.611a5.436 5.436 0 0 1-5.428-5.428v-8.4a1.639 1.639 0 0 1 3.277 0v8.4c0 1.19.965 2.154 2.151 2.154h4.611c1.186 0 2.151-.965 2.151-2.154v-8.4c0-.902.734-1.636 1.637-1.636s1.637.734 1.637 1.637v8.4a5.434 5.434 0 0 1-5.425 5.427M55.048 29.663H50.44a5.434 5.434 0 0 1-5.428-5.428v-8.4c0-.902.734-1.636 1.637-1.636s1.637.734 1.637 1.637v8.4c0 1.188.965 2.153 2.154 2.153h4.608a2.157 2.157 0 0 0 2.154-2.154v-8.4a1.636 1.636 0 1 1 3.275 0v8.4a5.436 5.436 0 0 1-5.429 5.428M90.906 29.663h-4.612a5.434 5.434 0 0 1-5.425-5.428v-8.4c0-.902.734-1.636 1.637-1.636s1.637.734 1.637 1.637v8.4c0 1.188.965 2.153 2.151 2.153h4.612a2.157 2.157 0 0 0 2.154-2.154v-8.4a1.636 1.636 0 1 1 3.274 0v8.4a5.436 5.436 0 0 1-5.428 5.428" fill="#344154"/>
        <path d="M28.177 57.625c-.458 0-.906-.242-1.148-.669a1.317 1.317 0 0 1 .497-1.8L47.078 44.06a1.315 1.315 0 0 1 1.799.496 1.32 1.32 0 0 1-.496 1.796L28.828 57.452c-.206.117-.43.173-.651.173M52.64 71.75c-.454 0-.899-.237-1.144-.661a1.314 1.314 0 0 1 .483-1.8L74.45 56.315 56.9 46.353a1.323 1.323 0 0 1-.496-1.8 1.318 1.318 0 0 1 1.8-.495l19.552 11.101c.413.23.665.669.668 1.14 0 .473-.251.91-.662 1.148L53.3 71.571c-.207.121-.434.18-.658.18" fill="#F7778A"/>
        <path d="M52.638 100c-.224 0-.452-.059-.658-.18L27.516 85.698a1.319 1.319 0 0 1-.662-1.141V56.305a1.32 1.32 0 0 1 2.64 0v27.49L53.3 97.538c.63.362.847 1.169.482 1.8-.245.423-.69.661-1.144.661" fill="#F7778A"/>
        <path d="M52.64 100c-.454 0-.899-.238-1.144-.662a1.314 1.314 0 0 1 .483-1.799l23.805-13.745v-27.49c0-.727.593-1.32 1.32-1.32.727 0 1.32.593 1.32 1.32v28.252c0 .472-.251.906-.662 1.14L53.3 99.822c-.207.12-.434.179-.658.179M52.64 90.514c-.728 0-1.32-.593-1.32-1.32V70.431c0-.727.592-1.32 1.32-1.32.726 0 1.32.593 1.32 1.32v18.763c0 .727-.594 1.32-1.32 1.32" fill="#F7778A"/>
        <path d="M16.887 32.918a1.266 1.266 0 1 0 .002 2.532 1.266 1.266 0 0 0-.002-2.532m0 3.275c-1.11 0-2.01-.903-2.01-2.01 0-1.106.9-2.01 2.01-2.01 1.106 0 2.01.904 2.01 2.01 0 1.107-.904 2.01-2.01 2.01M16.887 44.212a1.266 1.266 0 1 0 .002 2.531 1.266 1.266 0 0 0-.002-2.531m0 3.274c-1.11 0-2.01-.903-2.01-2.01 0-1.105.9-2.008 2.01-2.008 1.106 0 2.01.903 2.01 2.009 0 1.106-.904 2.01-2.01 2.01M52.928 32.918a1.266 1.266 0 1 0 .001 2.532 1.266 1.266 0 0 0-.001-2.532m0 3.275a2.014 2.014 0 0 1-2.01-2.01c0-1.106.903-2.01 2.01-2.01 1.106 0 2.009.904 2.009 2.01 0 1.107-.903 2.01-2.01 2.01M52.928 44.212a1.266 1.266 0 1 0 .001 2.531 1.266 1.266 0 0 0-.001-2.531m0 3.274a2.014 2.014 0 0 1-2.01-2.01c0-1.105.903-2.008 2.01-2.008 1.106 0 2.009.903 2.009 2.009 0 1.106-.903 2.01-2.01 2.01M88.6 32.918a1.266 1.266 0 1 0 .002 2.532 1.266 1.266 0 0 0-.002-2.532m0 3.275a2.014 2.014 0 0 1-2.01-2.01c0-1.106.903-2.01 2.01-2.01 1.106 0 2.01.904 2.01 2.01 0 1.107-.904 2.01-2.01 2.01M88.6 44.212a1.266 1.266 0 1 0 .002 2.531 1.266 1.266 0 0 0-.002-2.531m0 3.274a2.014 2.014 0 0 1-2.01-2.01c0-1.105.903-2.008 2.01-2.008 1.106 0 2.01.903 2.01 2.009 0 1.106-.904 2.01-2.01 2.01" fill="#344154"/>
    </g>
</svg>
