<svg width="140" height="100" xmlns="http://www.w3.org/2000/svg" xmlns:xlink="http://www.w3.org/1999/xlink">
    <defs>
        <path id="a" d="M0 0h139.516v20.9H0z"/>
        <path id="c" d="M0 2.564h10.316v5.188H0z"/>
    </defs>
    <g fill="none" fill-rule="evenodd">
        <path d="M72.962 32.647c1.816-2.363 4.003-3.673 6.675-4.024 1.279-.175 2.723-.092 4.28.238 2.332.474 4.457 1.423 5.84 2.146 2.383 1.227 4.044 2.486 4.106 2.568a1.85 1.85 0 0 0 2.558-.36 1.84 1.84 0 0 0-.31-2.59 17.415 17.415 0 0 0-1.155-.825l-1.021-.692 1.186-.247c1.517-.32 2.93-.403 4.282-.238 2.682.351 4.88 1.661 6.695 4.024 4.126 5.405 1.568 9.883-.681 13.834l-.186.33c-.557.99-1.093 1.93-1.465 2.827-1.774 4.353-1.97 8.52-2.135 11.853-.217 4.859-.495 5.581-2.125 5.581-2.043 0-5.158-4.972-5.406-13.958 0-.144-.031-.289-.052-.423-.268-2.342-2.218-4.095-4.539-4.095-2.496 0-4.55 2.032-4.58 4.539-.237 8.975-3.343 13.937-5.396 13.937-1.63 0-1.898-.722-2.125-5.581-.154-3.322-.34-7.469-2.125-11.853-.402-.94-.96-1.93-1.547-2.971l-.114-.186c-.753-1.32-1.516-2.703-2.073-4.158-.475 1.682-1.166 3.23-1.899 4.612.258.474.516.939.764 1.372.557.96 1.104 1.95 1.444 2.744 1.537 3.734 1.713 7.386 1.857 10.605.206 4.292.433 9.12 5.818 9.12 4.983 0 8.81-7.376 9.11-17.517 0-.557.371-.898.866-.898.506 0 .877.34.877.805l.031.196c.33 10.11 4.147 17.414 9.089 17.414 5.395 0 5.622-4.839 5.828-9.11.145-3.28.33-6.89 1.847-10.605.34-.784.846-1.712 1.455-2.744 2.383-4.23 6.004-10.574.37-17.92-2.392-3.135-5.467-4.972-9.15-5.436-3.094-.402-6.478.186-10.13 1.754l-.206.093-.196-.093c-3.683-1.578-7.14-2.156-10.131-1.754-3.683.464-6.767 2.3-9.16 5.437-.156.196-.228.382-.362.578.887 1.361 1.537 2.702 1.919 3.982.34-.753.763-1.517 1.372-2.311" fill="#474F59"/>
        <path d="m64.5 46.479-.196.33c-.547.99-1.084 1.93-1.455 2.837-1.774 4.353-1.98 8.51-2.135 11.843-.227 4.859-.496 5.581-2.115 5.581-2.053 0-5.169-4.962-5.416-13.948a1.737 1.737 0 0 0-.062-.37c-.268-2.405-2.208-4.158-4.53-4.158-2.496 0-4.538 2.032-4.57 4.55-.257 8.974-3.373 13.926-5.415 13.926-1.63 0-1.898-.722-2.115-5.581l-.01-.134c-.155-3.301-.372-7.418-2.136-11.699-.392-.96-.949-1.95-1.537-2.991l-.103-.186c-2.249-3.951-4.797-8.429-.67-13.834 1.805-2.363 3.992-3.673 6.684-4.013 1.27-.186 2.724-.103 4.271.227 2.342.474 4.467 1.434 5.84 2.145 2.227 1.146 3.785 2.301 4.064 2.518.412.31.887.464 1.382.381.485-.062.918-.299 1.217-.68.3-.393.444-.877.382-1.362a1.789 1.789 0 0 0-.68-1.238 26.51 26.51 0 0 0-1.166-.836l-.99-.691 1.186-.237c1.526-.32 2.96-.372 4.25-.227 2.692.34 4.89 1.66 6.685 4.013a11.501 11.501 0 0 1 1.372 2.31c.382-1.289 1.031-2.62 1.919-3.982-.134-.196-.207-.381-.351-.577-2.414-3.136-5.499-4.973-9.16-5.437-3.054-.402-6.48.196-10.142 1.754l-.206.093-.206-.093c-3.652-1.548-7.026-2.156-10.12-1.754-3.663.464-6.747 2.3-9.161 5.437-5.643 7.355-2.012 13.72.381 17.92.609 1.041 1.135 1.97 1.445 2.733 1.537 3.724 1.712 7.335 1.867 10.533.227 5.25.804 9.192 5.808 9.192 4.993 0 8.82-7.366 9.109-17.517 0-.547.371-.898.877-.898.505 0 .877.35.877.805l.03.165c.32 10.13 4.148 17.445 9.1 17.445 5.364 0 5.601-4.828 5.797-9.089.155-3.25.32-6.891 1.878-10.636.31-.763.836-1.692 1.444-2.734.238-.433.506-.908.764-1.382-.743-1.383-1.434-2.94-1.909-4.612-.557 1.455-1.32 2.837-2.073 4.158" fill="#F7778A"/>
        <path d="M70.928 37.087c-.196-1.64-.784-3.353-1.868-5.148-1.083 1.795-1.67 3.528-1.867 5.169a8.721 8.721 0 0 1 0 3.105c.289 2.053 1.032 3.92 1.867 5.58.836-1.66 1.579-3.507 1.868-5.55a8.77 8.77 0 0 1 0-3.156M66.573 42.318c.475 1.682 1.166 3.23 1.909 4.612.103-.186.196-.372.299-.557-.774-1.496-1.475-3.157-1.888-4.983-.093.31-.206.619-.32.928M66.84 35.779c.32-1.383.98-2.837 1.918-4.323-.103-.165-.186-.32-.31-.485-.887 1.372-1.536 2.703-1.918 3.982.134.279.216.558.31.826" fill="#F7778A"/>
        <path d="M67.194 37.106c.196-1.64.784-3.363 1.867-5.158a6.498 6.498 0 0 0-.31-.495c-.928 1.486-1.598 2.94-1.908 4.323.145.454.279.897.351 1.33M66.89 41.39c.412 1.816 1.114 3.488 1.888 4.984.103-.196.185-.392.289-.588-.836-1.661-1.579-3.518-1.868-5.571-.082.402-.196.784-.31 1.176" fill="#F7778A"/>
        <path d="M71.587 34.96c-.372-1.289-1.021-2.62-1.919-3.992-.113.165-.196.32-.3.485.93 1.486 1.6 2.94 1.92 4.323.093-.269.175-.537.299-.815M71.23 41.407c-.412 1.816-1.113 3.477-1.877 4.962.104.186.196.372.3.558.732-1.373 1.423-2.92 1.898-4.602a9.666 9.666 0 0 1-.32-.918M66.129 37.055c-.124 1.093-.135 2.156 0 3.167.051.413.144.805.226 1.207.124-.392.227-.784.31-1.176-.144-1.032-.124-2.125.01-3.24a8.301 8.301 0 0 0-.371-1.227c-.093.433-.124.846-.175 1.269M71.992 40.239c.134-1.011.124-2.084 0-3.178-.051-.413-.082-.825-.175-1.258-.145.412-.289.815-.361 1.217.134 1.114.144 2.197 0 3.229.082.402.186.794.31 1.176.082-.392.175-.784.226-1.186" fill="#474F59"/>
        <path d="M71.818 35.806c-.062-.279-.145-.557-.227-.846-.124.278-.217.546-.31.815.104.423.124.835.176 1.248.072-.402.206-.805.36-1.217M71.46 40.253c-.052.392-.144.774-.227 1.155.093.31.196.62.31.919.092-.29.154-.599.226-.898a12.36 12.36 0 0 1-.31-1.176M70.929 40.243c-.29 2.042-1.032 3.889-1.868 5.55.104.185.196.392.29.577.773-1.485 1.474-3.146 1.877-4.962a11.36 11.36 0 0 1-.3-1.165" fill="#474F59"/>
        <path d="M70.928 37.087c.072-.433.206-.867.36-1.31-.32-1.383-.99-2.837-1.918-4.323-.103.165-.206.33-.31.485 1.084 1.795 1.672 3.508 1.868 5.148M66.672 37.01c.052-.413.072-.815.165-1.228-.093-.279-.175-.547-.299-.825-.082.278-.175.557-.237.835.155.413.289.815.371 1.218M66.356 41.43c.073.3.135.598.217.887.114-.31.227-.608.32-.928a10.037 10.037 0 0 1-.227-1.135 12.36 12.36 0 0 1-.31 1.176" fill="#474F59"/>
        <path d="M66.672 37.01c-.134 1.124-.155 2.207-.01 3.25.062.38.144.752.227 1.134.124-.392.237-.784.31-1.176.185-1 .185-2.043 0-3.116a9.343 9.343 0 0 0-.362-1.32c-.093.413-.113.815-.165 1.228M71.23 41.407c.083-.381.176-.763.228-1.155.144-1.032.134-2.115 0-3.23-.052-.412-.072-.824-.176-1.247a7.97 7.97 0 0 0-.35 1.31 8.544 8.544 0 0 0 0 3.157c.072.392.185.784.299 1.165" fill="#474F59"/>
        <g transform="translate(0 76.535)">
            <mask id="b" fill="#fff">
                <use xlink:href="#a"/>
            </mask>
            <path d="m133.52 3.693-.785.856-11.471 12.669H18.256l-.155-.176-12.1-13.349h127.518zM14.572 0H1.833C1.11 0 .46.433.15 1.104a1.862 1.862 0 0 0 .33 1.98L16.07 20.293c.34.382.846.609 1.382.609h104.617c.526 0 1.022-.227 1.362-.609L139.04 3.085a1.84 1.84 0 0 0 .32-1.981c-.3-.67-.95-1.104-1.682-1.104H14.573z" fill="#474F59" mask="url(#b)"/>
        </g>
        <path d="M31.103 3.683h21.489c6.51 0 11.812 5.302 11.812 11.822 0 1.011.835 1.847 1.846 1.847h53.975v58.153h3.693v-60a1.854 1.854 0 0 0-1.857-1.846H67.994l-.073-.434C66.807 5.674 60.215 0 52.591 0H31.104C22.56 0 15.597 6.953 15.597 15.505v60h3.694v-60c0-6.52 5.302-11.822 11.812-11.822" fill="#474F59"/>
        <g transform="translate(117.334 89.684)">
            <mask id="d" fill="#fff">
                <use xlink:href="#c"/>
            </mask>
            <path d="M5.163 7.712h-.01l.01.02v-.02z" fill="#FFF" mask="url(#d)"/>
        </g>
        <path d="M30.508 17.354H53.14a1.862 1.862 0 0 0 1.857-1.857c0-1.01-.835-1.836-1.857-1.836H30.508c-1.022 0-1.857.825-1.857 1.836 0 1.021.835 1.857 1.857 1.857" fill="#474F59"/>
    </g>
</svg>
