<svg xmlns="http://www.w3.org/2000/svg" xmlns:xlink="http://www.w3.org/1999/xlink" width="110" height="100" viewBox="0 0 110 100">
    <defs>
        <path id="dgfhaou7ea" d="M0 0L29.674 0 29.674 27.2 0 27.2z"/>
        <path id="e54ciz2njc" d="M0 0L29.674 0 29.674 27.2 0 27.2z"/>
    </defs>
    <g fill="none" fill-rule="evenodd">
        <g>
            <g>
                <path fill="#FFF" d="M31.698 90.226c5.828-2.472 9.62-9.774 9.327-17.875l25.376.85c-.16 8.095 3.753 15.48 9.622 18.08l-44.325-1.055z" transform="translate(-510.000000, -983.000000) translate(510.000000, 983.000000)"/>
                <path fill="#42567C" d="M48.821 73.834h-.04l-5.795-.194c-.667-.023-1.19-.588-1.168-1.262.022-.675.588-1.214 1.248-1.181l5.795.194c.666.022 1.189.587 1.167 1.262-.022.66-.558 1.181-1.207 1.181m11.59.388h-.042l-5.794-.194c-.667-.023-1.19-.588-1.168-1.262.023-.675.595-1.21 1.248-1.181l5.794.193c.667.023 1.19.588 1.167 1.263-.021.66-.558 1.181-1.206 1.181m6.544 5.825c-.553 0-1.052-.386-1.178-.955-.377-1.704-.575-3.464-.587-5.235-.13-.203-.201-.445-.193-.704.023-.675.556-1.204 1.248-1.18l.198.006c.66.022 1.18.578 1.166 1.247l-.004.454c0 1.651.178 3.293.53 4.877.145.66-.264 1.313-.915 1.46-.088.02-.178.03-.265.03M39.383 83.06c-.155 0-.313-.03-.466-.095-.615-.26-.905-.976-.648-1.599.688-1.663 1.155-3.458 1.39-5.336.083-.67.688-1.148 1.35-1.06.662.085 1.13.697 1.047 1.366-.263 2.098-.787 4.107-1.558 5.973-.194.47-.643.751-1.115.751m33.095 7.097c-.289 0-.579-.104-.81-.317-1.476-1.351-2.747-3.017-3.775-4.95-.316-.594-.097-1.335.49-1.655.587-.32 1.32-.098 1.637.497.897 1.687 1.997 3.132 3.27 4.297.493.452.532 1.225.084 1.726-.238.266-.567.402-.896.402m-40.78 1.292c-.471 0-.92-.282-1.114-.75-.258-.623.032-1.339.647-1.6 1.553-.66 2.97-1.706 4.21-3.113.445-.503 1.207-.548 1.706-.097.497.449.54 1.221.097 1.725-1.482 1.68-3.191 2.938-5.079 3.74-.152.064-.31.095-.467.095" transform="translate(-510.000000, -983.000000) translate(510.000000, 983.000000)"/>
                <path fill="#FFF" d="M78.819 51.338c.6-2.747.977-3.697.977-6.064 0-3.56-1.196-4.408-2.636-3.487.24-.914.591-2.82.733-5.465.98-18.283-8.644-31.736-24.346-31.736-16.256 0-28.468 13.565-24.345 31.736.585 2.58.493 4.551.733 5.465-1.44-.92-2.637-.073-2.637 3.487 0 2.367.377 3.317.977 6.064H78.82z" transform="translate(-510.000000, -983.000000) translate(510.000000, 983.000000)"/>
                <path fill="#42567C" d="M78.82 52.805c-.103 0-.208-.011-.314-.035-.781-.174-1.275-.957-1.102-1.748.133-.608.254-1.129.364-1.597.373-1.594.579-2.472.579-4.151 0-1.396-.205-2.041-.325-2.3-.026.014-.055.032-.088.053-.503.321-1.152.299-1.632-.058s-.696-.975-.543-1.558c.249-.949.56-2.805.686-5.168.522-9.724-2.027-18.109-7.176-23.608-4.031-4.307-9.468-6.583-15.722-6.583-7.62 0-14.493 3.179-18.856 8.722-4.45 5.653-5.899 13.19-4.077 21.22.375 1.653.49 3.07.573 4.103.044.553.086 1.075.149 1.313.153.583-.063 1.201-.543 1.559-.48.357-1.128.38-1.632.058-.033-.021-.063-.039-.089-.053-.12.258-.325.904-.325 2.3 0 1.678.206 2.556.579 4.149.11.468.232.99.365 1.599.173.79-.32 1.574-1.103 1.748-.78.174-1.555-.325-1.728-1.115-.13-.593-.248-1.1-.355-1.556-.395-1.688-.657-2.804-.657-4.825 0-2.654.61-4.283 1.86-4.98.147-.082.337-.169.567-.23-.078-.948-.187-2.096-.486-3.413-2.023-8.92-.378-17.338 4.634-23.705C37.34 6.701 45.04 3.12 53.547 3.12c7.07 0 13.234 2.593 17.827 7.498 5.702 6.09 8.53 15.247 7.965 25.784-.08 1.52-.225 2.76-.371 3.707.164.055.304.121.417.184 1.252.698 1.86 2.327 1.86 4.981 0 2.022-.26 3.138-.656 4.827-.107.455-.226.962-.355 1.554-.15.684-.748 1.15-1.413 1.15" transform="translate(-510.000000, -983.000000) translate(510.000000, 983.000000)"/>
                <path fill="#FFD47B" d="M77.891 36.323v.067c-.66-.998-2.006-2.207-4.722-2.274-19.718-.525-26.146-12.66-27.642-15.57-.243-.473-.368-.98-.385-1.504l-.284-10.614.284 11.155C43.454 29.008 33.29 34.369 29.78 35.9c-.225.093-.4.33-.534.625-.009-.067-.026-.135-.042-.202-4.121-18.174 8.09-31.738 24.348-31.738 15.698 0 25.318 13.454 24.34 31.738" transform="translate(-510.000000, -983.000000) translate(510.000000, 983.000000)"/>
                <path fill="#42567C" d="M46.325 7.058l.266 9.944c.01.305.085.601.223.87 4.801 9.335 13.928 14.446 26.393 14.778 1.349.033 2.433.31 3.302.712-.082-8.498-2.61-15.783-7.244-20.732-4.03-4.304-9.464-6.579-15.714-6.579-2.51 0-4.94.345-7.226 1.007zm-2.874 1.03c-3.446 1.488-6.452 3.757-8.757 6.684-4.095 5.2-5.648 11.995-4.453 19.302 3.738-1.83 11.955-6.902 13.45-16.584l-.24-9.402zM30.376 37.236l-.023.01.023-.01zm-1.127.718c-.07 0-.14-.005-.21-.016-.64-.101-1.155-.585-1.233-1.237-2.039-8.97-.392-17.39 4.62-23.756C37.343 6.7 45.043 3.118 53.551 3.118c7.066 0 13.227 2.592 17.818 7.495 5.696 6.082 8.526 15.226 7.972 25.749v.028c0 .646-.418 1.216-1.028 1.403-.611.19-1.271-.05-1.626-.587-.686-1.036-1.882-1.583-3.554-1.624-12.28-.327-21.928-5.24-27.486-13.916-3.188 9.422-11.933 14.08-15.094 15.492-.259.48-.77.796-1.304.796z" transform="translate(-510.000000, -983.000000) translate(510.000000, 983.000000)"/>
                <path fill="#FFF" d="M28.275 51.338c.304 1.39.664 3.24 1.062 5.964.387 2.654 3.032 2.628 3.032 2.628.036.27.077.54.122.809.939 5.581 4.937 10.387 9.348 13.293l5.43 4.107c1.782 1.174 3.777 1.94 5.847 2.098.635.048 1.273.05 1.908.004 2.34-.168 4.582-1.1 6.528-2.547l4.507-3.946c3.406-2.53 6.809-6.234 8.006-10.574.291-1.057.513-2.141.66-3.244 0 0 2.645.026 3.032-2.628.398-2.725.758-4.574 1.062-5.964H28.275z" transform="translate(-510.000000, -983.000000) translate(510.000000, 983.000000)"/>
                <path fill="#42567C" d="M28.84 55.435c-.573 0-1.082-.414-1.187-1.006-.202-1.136-.388-2.054-.557-2.827-.144-.659.267-1.312.919-1.457.65-.146 1.296.27 1.44.93.175.799.368 1.748.576 2.923.117.664-.32 1.299-.976 1.418-.072.013-.144.02-.215.02M32.981 64.017c-.513 0-.99-.334-1.152-.857-.22-.71-.394-1.433-.517-2.15-.817-.211-1.78-.686-2.439-1.624-.386-.55-.258-1.312.286-1.703.542-.392 1.297-.262 1.684.289.5.712 1.5.736 1.514.736h.012c.604 0 1.115.451 1.197 1.058.034.257.073.512.115.767.107.631.26 1.27.453 1.897.2.644-.155 1.329-.791 1.53-.12.04-.242.057-.362.057M40.226 74.09c-.258 0-.52-.083-.74-.256-1.766-1.39-3.313-2.98-4.6-4.726-.398-.541-.287-1.307.248-1.71.534-.404 1.29-.292 1.69.25 1.156 1.57 2.55 3.002 4.145 4.256.527.414.621 1.182.212 1.715-.238.31-.595.472-.955.472m26.832.103c-.354 0-.704-.156-.942-.456-.418-.526-.336-1.295.184-1.718 1.635-1.331 3.029-2.774 4.143-4.29.397-.54 1.154-.655 1.69-.25.535.402.646 1.168.248 1.71-1.236 1.68-2.772 3.274-4.567 4.734-.223.182-.49.27-.756.27m-16.421 6.784c-.118 0-.238-.018-.357-.054-1.258-.393-2.493-.985-3.67-1.76l-2.075-1.567c-.534-.404-.643-1.17-.243-1.71s1.155-.651 1.69-.247l2.01 1.52c.925.607 1.956 1.102 3 1.427.637.2.995.884.798 1.528-.16.526-.637.863-1.153.863m6.173.207c-.548 0-1.043-.379-1.175-.94-.154-.657.248-1.316.897-1.471 1.496-.359 2.944-1.053 4.305-2.065l.658-.58c.504-.442 1.266-.387 1.703.124.437.51.382 1.282-.123 1.724l-.732.641c-1.7 1.268-3.442 2.1-5.254 2.534-.093.022-.187.033-.28.033M74.163 64.03c-.101 0-.204-.013-.307-.04-.645-.17-1.031-.84-.862-1.492.23-.891.41-1.81.535-2.733.081-.606.593-1.057 1.197-1.057h.011c-.002 0 1.012-.02 1.515-.737.386-.55 1.14-.68 1.684-.288.544.39.672 1.153.285 1.704-.658.937-1.62 1.412-2.439 1.622-.121.712-.272 1.418-.451 2.109-.142.549-.632.913-1.168.913M78.254 55.435c-.07 0-.143-.006-.215-.019-.656-.12-1.093-.754-.976-1.418.209-1.175.402-2.124.577-2.923.143-.66.789-1.075 1.44-.93.651.145 1.063.798.919 1.457-.17.773-.356 1.69-.558 2.827-.104.592-.613 1.006-1.187 1.006" transform="translate(-510.000000, -983.000000) translate(510.000000, 983.000000)"/>
                <path fill="#FFF" d="M59.648 40.915c3.434-1.982 6.999-2.73 8.93-1.85 1.512.688 2.515 1.334 4.361 2.561l-13.291-.711z" transform="translate(-510.000000, -983.000000) translate(510.000000, 983.000000)"/>
                <path fill="#42567C" d="M72.938 42.848c-.227 0-.457-.065-.662-.2-1.896-1.261-2.806-1.837-4.194-2.47-1.27-.578-4.265-.262-7.836 1.798-.579.335-1.317.13-1.648-.456-.33-.586-.128-1.332.451-1.667 3.805-2.196 7.74-2.944 10.025-1.903 1.621.738 2.722 1.454 4.529 2.654.557.371.712 1.129.346 1.693-.232.357-.618.551-1.01.551" transform="translate(-510.000000, -983.000000) translate(510.000000, 983.000000)"/>
                <path fill="#26C1F8" d="M65.998 43.243c.68.362 1.144 1.087 1.15 1.924.007 1.206-.942 2.19-2.121 2.197-1.179.008-2.14-.964-2.148-2.17-.004-.716.33-1.355.849-1.756l2.27-.195z" transform="translate(-510.000000, -983.000000) translate(510.000000, 983.000000)"/>
                <path fill="#42567C" d="M64.897 43.745c-.065.255-.212.49-.436.664-.24.185-.376.468-.374.778.002.26.101.502.28.683.175.176.404.272.647.272h.006c.51-.003.923-.437.92-.967-.003-.36-.196-.686-.505-.85-.248-.133-.431-.34-.538-.58zm.116 4.841c-.888 0-1.722-.35-2.352-.987-.633-.639-.984-1.49-.99-2.397-.006-1.067.488-2.09 1.323-2.735.53-.41 1.289-.307 1.693.228.058.076.105.157.143.24.023-.088.056-.176.1-.262.311-.597 1.042-.824 1.632-.51 1.098.585 1.785 1.733 1.793 2.996.012 1.878-1.477 3.415-3.32 3.427h-.022z" transform="translate(-510.000000, -983.000000) translate(510.000000, 983.000000)"/>
                <path fill="#FFF" d="M48.23 40.47c-3.434-1.982-6.999-2.73-8.93-1.85-1.512.688-2.515 1.334-4.361 2.56l13.292-.71z" transform="translate(-510.000000, -983.000000) translate(510.000000, 983.000000)"/>
                <path fill="#42567C" d="M34.94 42.403c-.393 0-.779-.194-1.01-.551-.367-.564-.212-1.322.345-1.693 1.808-1.2 2.91-1.916 4.53-2.654 2.284-1.04 6.22-.293 10.024 1.903.58.334.781 1.08.451 1.667-.33.586-1.068.79-1.648.456-3.571-2.061-6.567-2.376-7.836-1.798-1.457.664-2.44 1.303-4.194 2.47-.204.135-.434.2-.662.2" transform="translate(-510.000000, -983.000000) translate(510.000000, 983.000000)"/>
                <path fill="#26C1F8" d="M41.496 43.51c-.66.397-1.087 1.146-1.05 1.982.055 1.205 1.054 2.137 2.231 2.08 1.178-.055 2.088-1.076 2.034-2.28-.033-.717-.399-1.337-.938-1.71l-2.277-.072z" transform="translate(-510.000000, -983.000000) translate(510.000000, 983.000000)"/>
                <path fill="#42567C" d="M42.622 43.952c-.094.245-.267.462-.508.607-.3.182-.477.518-.46.878.01.26.121.5.31.674.18.166.415.247.656.241.512-.024.908-.475.884-1.005-.014-.309-.165-.584-.413-.757-.231-.16-.39-.387-.469-.638m-.048 4.845c-.829 0-1.619-.309-2.238-.88-.665-.614-1.055-1.455-1.096-2.369-.057-1.262.57-2.445 1.638-3.088.57-.347 1.314-.156 1.656.424.048.082.086.168.113.256.033-.086.076-.17.13-.248.377-.558 1.13-.698 1.679-.318.867.6 1.413 1.596 1.46 2.662.085 1.875-1.343 3.471-3.183 3.558l-.159.003" transform="translate(-510.000000, -983.000000) translate(510.000000, 983.000000)"/>
                <path fill="#42567C" d="M48.254 47.463c-.287 0-.575-.103-.806-.312-2.383-2.162-3.46-2.507-5.697-2.508h-.002c-1.508 0-2.476.692-3.598 1.492-.277.198-.553.395-.837.582-.558.367-1.306.209-1.67-.357-.365-.566-.207-1.323.352-1.691.258-.17.51-.35.763-.531 1.273-.908 2.716-1.939 4.99-1.939h.002c2.992 0 4.632.704 7.31 3.132.496.45.538 1.223.093 1.726-.238.27-.568.406-.9.406" transform="translate(-510.000000, -983.000000) translate(510.000000, 983.000000)"/>
                <path fill="#FFF" d="M53.684 57.564c-1.478-.009-2.882-.553-3.564-1.27l3.564 1.27z" transform="translate(-510.000000, -983.000000) translate(510.000000, 983.000000)"/>
                <path fill="#42567C" d="M53.684 58.786h-.007c-1.749-.01-3.487-.656-4.428-1.645-.462-.487-.447-1.26.033-1.728.482-.467 1.246-.454 1.708.033.418.44 1.48.889 2.701.896.667.004 1.204.554 1.2 1.229-.003.672-.543 1.215-1.207 1.215" transform="translate(-510.000000, -983.000000) translate(510.000000, 983.000000)"/>
                <path fill="#FFF" d="M57.253 56.17c-.972 1.013-2.298 1.401-3.57 1.394l3.57-1.394z" transform="translate(-510.000000, -983.000000) translate(510.000000, 983.000000)"/>
                <path fill="#42567C" d="M53.72 58.786h-.043c-.667-.004-1.205-.554-1.2-1.23.003-.672.543-1.214 1.207-1.214h.037c.776 0 1.857-.18 2.665-1.023.465-.484 1.23-.496 1.708-.026.48.47.49 1.244.026 1.728-1.093 1.139-2.654 1.765-4.4 1.765" transform="translate(-510.000000, -983.000000) translate(510.000000, 983.000000)"/>
                <path fill="#FF82C9" d="M54.12 66.955c3.425.008 6.672 0 7.74 0-1.74 1.226-3.468 4.191-7.74 4.191-4.273 0-6.003-2.965-7.742-4.191 2.386.107 4.315.008 7.741 0" transform="translate(-510.000000, -983.000000) translate(510.000000, 983.000000)"/>
                <path fill="#42567C" d="M49.634 68.222c1.107.92 2.462 1.702 4.485 1.702 2.054 0 3.42-.805 4.536-1.744-1.33-.001-2.913 0-4.536-.003-1.17.003-2.166.016-3.064.028-.499.007-.968.013-1.421.017m4.485 4.146c-3.704 0-5.756-1.952-7.254-3.378-.442-.42-.824-.783-1.177-1.033-.442-.31-.626-.88-.454-1.394.172-.516.66-.866 1.198-.829 1.532.069 2.882.05 4.59.027.908-.012 1.912-.025 3.095-.028h.005c2.578.007 5.055.004 6.577 0h1.16c.528 0 .995.346 1.153.856.158.509-.029 1.063-.461 1.368-.354.25-.735.613-1.178 1.034-1.497 1.425-3.55 3.377-7.254 3.377" transform="translate(-510.000000, -983.000000) translate(510.000000, 983.000000)"/>
                <path fill="#FF82C9" d="M54.12 64.462c3.194-2.573 5.848 1.965 7.74 2.493 0 0-3.868.48-7.738.48-3.87 0-7.743-.48-7.743-.48 1.891-.528 4.545-5.066 7.74-2.493" transform="translate(-510.000000, -983.000000) translate(510.000000, 983.000000)"/>
                <path fill="#42567C" d="M49.784 66.044c2.571.183 6.105.183 8.67 0-1.5-1.172-2.44-1.545-3.583-.626-.44.354-1.064.354-1.504 0-1.14-.917-2.082-.547-3.583.626m4.338 2.613c-3.9 0-7.73-.47-7.89-.49-.573-.07-1.016-.54-1.058-1.122-.043-.582.327-1.113.883-1.268.337-.094.965-.616 1.52-1.075 1.479-1.23 3.87-3.215 6.542-1.71 2.673-1.505 5.064.481 6.543 1.71.554.46 1.182.98 1.52 1.075.555.155.925.686.882 1.268-.042.581-.485 1.052-1.057 1.123-.16.02-3.986.489-7.885.489M77.891 37.861c-.8 0-1.45-.652-1.45-1.462v-.008c0-.81.65-1.467 1.45-1.467.8 0 1.45.656 1.45 1.467 0 .81-.65 1.47-1.45 1.47M28.225 100H4.354C1.954 100 0 98.023 0 95.593V74.267c0-.81.649-1.467 1.45-1.467.8 0 1.449.657 1.449 1.467v21.326c0 .813.652 1.474 1.455 1.474h23.87c.801 0 1.45.657 1.45 1.466 0 .81-.649 1.467-1.45 1.467M105.647 100H81.775c-.8 0-1.449-.656-1.449-1.467 0-.81.649-1.466 1.45-1.466h23.87c.803 0 1.455-.661 1.455-1.474V74.267c0-.81.649-1.467 1.45-1.467.8 0 1.449.657 1.449 1.467v21.326c0 2.43-1.953 4.407-4.353 4.407" transform="translate(-510.000000, -983.000000) translate(510.000000, 983.000000)"/>
                <g transform="translate(-510.000000, -983.000000) translate(510.000000, 983.000000) translate(80.325962, -0.000000)">
                    <mask id="lz0vtrqgab" fill="#fff">
                        <use xlink:href="#dgfhaou7ea"/>
                    </mask>
                    <path fill="#42567C" d="M28.225 27.2c-.801 0-1.45-.657-1.45-1.467V4.407c0-.813-.652-1.474-1.454-1.474H1.449C.65 2.933 0 2.276 0 1.466S.649 0 1.45 0h23.87c2.401 0 4.354 1.977 4.354 4.407v21.326c0 .81-.649 1.467-1.45 1.467" mask="url(#lz0vtrqgab)"/>
                </g>
                <g transform="translate(-510.000000, -983.000000) translate(510.000000, 983.000000) translate(0.000000, -0.000000)">
                    <mask id="fv43bhufid" fill="#fff">
                        <use xlink:href="#e54ciz2njc"/>
                    </mask>
                    <path fill="#42567C" d="M1.45 27.2C.648 27.2 0 26.543 0 25.733V4.407C0 1.977 1.953 0 4.354 0h23.87c.801 0 1.45.656 1.45 1.466 0 .81-.649 1.467-1.45 1.467H4.355c-.803 0-1.455.661-1.455 1.474v21.326c0 .81-.649 1.467-1.45 1.467" mask="url(#fv43bhufid)"/>
                </g>
                <path fill="#5B368F" d="M2.908 53.175H105.33 2.908z" transform="translate(-510.000000, -983.000000) translate(510.000000, 983.000000)"/>
                <path fill="#F7778A" d="M105.33 54.642H2.909c-.8 0-1.45-.657-1.45-1.467s.65-1.466 1.45-1.466h102.423c.8 0 1.449.656 1.449 1.466 0 .81-.649 1.467-1.45 1.467" transform="translate(-510.000000, -983.000000) translate(510.000000, 983.000000)"/>
                <path fill="#42567C" d="M59.344 47.463c-.331 0-.661-.137-.9-.407-.445-.502-.403-1.275.094-1.725 2.634-2.387 4.319-3.44 7.396-3.32 2.218.081 3.567 1.1 4.757 1.998.3.227.599.454.911.66.56.368.717 1.125.353 1.69-.364.567-1.112.726-1.67.358-.357-.235-.697-.49-1.039-.749-1.038-.784-1.935-1.461-3.4-1.516-2.119-.07-3.19.426-5.696 2.7-.23.208-.519.311-.806.311" transform="translate(-510.000000, -983.000000) translate(510.000000, 983.000000)"/>
            </g>
        </g>
    </g>
</svg>
