<svg width="129" height="100" xmlns="http://www.w3.org/2000/svg" xmlns:xlink="http://www.w3.org/1999/xlink">
    <defs>
        <path id="a" d="M0 0h67.905v67.902H0z"/>
        <path id="c" d="M1.484 0H9.1v10.584H1.484z"/>
        <path id="e" d="M1.487 0h7.61v10.584h-7.61z"/>
        <path id="g" d="M0 0h89.474v100H0z"/>
    </defs>
    <g fill="none" fill-rule="evenodd">
        <g transform="translate(59.286 10.293)">
            <mask id="b" fill="#fff">
                <use xlink:href="#a"/>
            </mask>
            <path d="m28.884 13.53 1.514-9.527.402-.042a28.378 28.378 0 0 1 6.287 0l.402.042.075.403 1.45 9.134c.105.698.603 1.27 1.27 1.503.815.264 1.672.614 2.55 1.058a1.91 1.91 0 0 0 1.97-.148l7.81-5.694.307.264a29.56 29.56 0 0 1 4.456 4.456l.254.307-5.673 7.811a1.913 1.913 0 0 0-.159 1.97 23.49 23.49 0 0 1 1.08 2.55c.212.677.783 1.154 1.492 1.27l9.537 1.524.042.392a31.366 31.366 0 0 1 0 6.319l-.042.391-.402.064-9.135 1.45c-.709.116-1.28.603-1.492 1.27a22.207 22.207 0 0 1-1.08 2.561 1.875 1.875 0 0 0 .16 1.948l5.683 7.822-.265.317a30.06 30.06 0 0 1-4.456 4.456l-.307.254-.328-.243-7.483-5.44c-.571-.413-1.344-.498-1.98-.16-.835.424-1.703.784-2.56 1.08-.657.212-1.133.794-1.25 1.482L37.49 63.92l-.402.042a34.3 34.3 0 0 1-3.133.148c-1.058 0-2.117-.052-3.154-.148l-.402-.042-.074-.402-1.45-9.145a1.91 1.91 0 0 0-1.27-1.492 20.541 20.541 0 0 1-2.53-1.059 1.882 1.882 0 0 0-1.99.159l-7.822 5.673-.306-.254a31.038 31.038 0 0 1-4.446-4.456l-.264-.317.254-.329 5.419-7.493a1.85 1.85 0 0 0 .158-1.958 23.074 23.074 0 0 1-1.069-2.551 1.849 1.849 0 0 0-1.481-1.27L3.98 37.513l-.032-.391a28.132 28.132 0 0 1-.17-3.165c0-1.08.053-2.128.17-3.154l.032-.392.412-.074 9.135-1.45a1.832 1.832 0 0 0 1.481-1.27c.297-.836.646-1.694 1.07-2.55a1.867 1.867 0 0 0-.16-1.97l-5.672-7.81.264-.308a30.506 30.506 0 0 1 4.446-4.456l.306-.264.329.254 7.493 5.43c.582.412 1.344.476 1.958.158a21.88 21.88 0 0 1 2.572-1.069 1.947 1.947 0 0 0 1.27-1.503zm-3.831-1.578c-.074.032-.159.053-.244.085l-.412.17-.233-.18-7.8-5.653a1.874 1.874 0 0 0-2.223.01 33.39 33.39 0 0 0-7.78 7.802 1.874 1.874 0 0 0 0 2.212l5.843 8.033-.127.286c-.053.095-.096.212-.138.307l-.095.296-.318.053-9.504 1.514a1.936 1.936 0 0 0-1.588 1.556A34.836 34.836 0 0 0 0 33.957c0 1.895.148 3.747.434 5.504.148.815.783 1.45 1.588 1.566l9.832 1.567.096.307c.031.105.074.2.127.307l.127.275-.19.254-5.653 7.79a1.874 1.874 0 0 0 0 2.222 34.174 34.174 0 0 0 7.78 7.79 1.874 1.874 0 0 0 2.222-.01l8.034-5.832.91.392.053.285 1.513 9.505c.127.804.762 1.44 1.567 1.588 3.64.582 7.398.582 11.018-.01a1.887 1.887 0 0 0 1.556-1.578l1.566-9.79.9-.403.244.19 7.79 5.663c.677.477 1.555.487 2.222 0a33.756 33.756 0 0 0 7.78-7.79 1.874 1.874 0 0 0 0-2.222l-5.832-8.044.127-.275c.053-.106.095-.202.127-.307l.095-.307 9.833-1.567a1.864 1.864 0 0 0 1.577-1.556 33.53 33.53 0 0 0 .466-5.514c0-1.82-.16-3.673-.466-5.514a1.91 1.91 0 0 0-1.588-1.567l-9.811-1.556-.096-.296c-.042-.095-.084-.212-.137-.307l-.127-.286.19-.243 5.652-7.79a1.89 1.89 0 0 0 0-2.212 33.036 33.036 0 0 0-7.79-7.801 1.874 1.874 0 0 0-2.222 0l-8.023 5.832-.91-.381-.053-.286-1.514-9.526A1.841 1.841 0 0 0 39.458.468a32.697 32.697 0 0 0-11.029 0c-.614.117-1.1.561-1.354 1.143-.053.127-.16.233-.191.37l-.032.096-1.545 9.748-.254.127z" fill="#F7778A" mask="url(#b)"/>
        </g>
        <g transform="translate(118.091 43.9)">
            <mask id="d" fill="#fff">
                <use xlink:href="#c"/>
            </mask>
            <path fill="#FFF" mask="url(#d)" d="M6.782 5.557v-.53h-.01z"/>
        </g>
        <path d="m86.279 11.977-.106.296c.031-.137.137-.243.19-.37-.01.042-.074.032-.084.074" fill="#FFF"/>
        <g transform="translate(118.094 44.426)">
            <mask id="f" fill="#fff">
                <use xlink:href="#e"/>
            </mask>
            <path fill="#FFF" mask="url(#f)" d="M6.78 5.557v-.53z"/>
        </g>
        <g>
            <mask id="h" fill="#fff">
                <use xlink:href="#g"/>
            </mask>
            <path d="m78.805 81.033-.01.233C78.317 91.628 77.841 96.2 71.64 96.2c-7.41 0-14.11-15.59-14.628-34.039 0-.158-.042-.317-.074-.465-.35-4.276-3.884-7.568-8.065-7.568-4.435 0-8.076 3.62-8.108 8.054-.571 21.01-8.044 34.018-14.627 34.018-6.192 0-6.658-4.572-7.134-14.934-.36-7.451-.794-16.702-4.7-26.164-.93-2.244-2.296-4.647-3.62-6.965C5.203 38.495-1 27.583 9.342 14.077 13.786 8.245 19.438 4.87 26.106 4.022c5.144-.624 10.944.19 17.2 2.477a64.077 64.077 0 0 1 5.8 2.476c5.472 2.668 9.483 5.525 10.954 6.626.89.72 2.096.572 2.731-.254.646-.815.498-2.01-.317-2.667-.815-.635-3.779-2.847-8.066-5.229l-.995-.571 1.07-.392c6.255-2.286 12.013-3.07 17.178-2.466 5.324.677 10.023 2.995 13.981 6.89.043-.042.106-.042.149-.084.444-.561 1.016-1.006 1.757-1.122a33.86 33.86 0 0 1 1.926-.265C84.69 4.201 78.858 1.111 72.137.254c-6.943-.9-14.68.593-23.02 4.318l-.212.096-.223-.096C40.321.836 32.584-.646 25.651.254c-7.716.984-14.215 4.858-19.316 11.505-11.886 15.527-4.403 28.662 1.058 38.252l.18.296c1.26 2.244 2.456 4.35 3.218 6.245 3.672 8.87 4.085 17.76 4.413 24.904.477 9.96.879 18.544 10.934 18.544 9.896 0 17.813-16.204 18.427-37.69 0-2.467 1.926-4.404 4.308-4.404a4.323 4.323 0 0 1 4.318 4.319c0 .137.021.264.042.402C53.932 83.954 61.838 100 71.64 100c10.065 0 10.467-8.584 10.944-18.501.19-4.223.423-8.69 1.217-13.4l-.127-.794-4.043 2.932c-.487 3.863-.667 7.536-.826 10.796" fill="#474F59" mask="url(#h)"/>
        </g>
        <path d="M85.786 10.823c.445-.56 1.048-.994 1.768-1.121-.74.127-1.323.56-1.768 1.121" fill="#474F59"/>
        <path d="M93.235 34.965c5.112 0 9.282 4.17 9.282 9.282 0 5.123-4.17 9.293-9.282 9.293-5.123 0-9.293-4.17-9.293-9.293 0-5.112 4.17-9.282 9.293-9.282m0 22.365c7.207 0 13.071-5.864 13.071-13.083 0-7.207-5.864-13.071-13.071-13.071-7.219 0-13.083 5.864-13.083 13.071 0 7.219 5.864 13.083 13.083 13.083" fill="#F7778A"/>
    </g>
</svg>
