<svg width="121" height="100" xmlns="http://www.w3.org/2000/svg" xmlns:xlink="http://www.w3.org/1999/xlink">
    <defs>
        <path id="a" d="M0 0h121v100H0z"/>
        <path id="c" d="M0 0h98.667v73.994H0z"/>
    </defs>
    <g fill="none" fill-rule="evenodd">
        <mask id="b" fill="#fff">
            <use xlink:href="#a"/>
        </mask>
        <g mask="url(#b)">
            <path d="M89.956 71.989a1.438 1.438 0 0 1-1.437-1.437c0-.793.644-1.437 1.437-1.437a2.947 2.947 0 0 0 2.943-2.943 2.948 2.948 0 0 0-2.943-2.947 2.957 2.957 0 0 0-2.771 1.94 1.433 1.433 0 0 1-1.84.855 1.436 1.436 0 0 1-.859-1.842 5.842 5.842 0 0 1 5.47-3.827c3.21 0 5.817 2.61 5.817 5.82a5.823 5.823 0 0 1-5.817 5.818" fill="#344154"/>
            <path d="M89.956 80.754a5.84 5.84 0 0 1-5.47-3.83 1.437 1.437 0 0 1 .86-1.842 1.441 1.441 0 0 1 1.839.86 2.962 2.962 0 0 0 2.77 1.938 2.945 2.945 0 0 0 0-5.89 1.439 1.439 0 0 1 0-2.877 5.826 5.826 0 0 1 5.818 5.82c0 3.21-2.607 5.821-5.817 5.821M101.45 77.88h2.483c2.3 0 4.169-1.87 4.169-4.169v-6.316c0-2.3-1.87-4.17-4.169-4.17h-2.483V77.88zm2.483 2.874h-5.357V60.352h5.357a7.05 7.05 0 0 1 7.043 7.043v6.316a7.05 7.05 0 0 1-7.043 7.043z" fill="#344154"/>
            <path d="M115.61 89.214H79.766a5.528 5.528 0 0 1-5.52-5.521v-8.849c0-.792.644-1.437 1.436-1.437.793 0 1.437.645 1.437 1.437v8.849a2.65 2.65 0 0 0 2.647 2.647h35.846a2.652 2.652 0 0 0 2.647-2.647v-8.849c0-.792.644-1.437 1.437-1.437s1.437.645 1.437 1.437v8.849a5.528 5.528 0 0 1-5.521 5.52M75.68 63.225a1.438 1.438 0 0 1-1.436-1.437v-8.383h8.38a1.439 1.439 0 1 1 0 2.877h-5.506v5.506c0 .793-.645 1.437-1.437 1.437M119.695 63.225a1.438 1.438 0 0 1-1.437-1.437v-5.506h-5.506a1.44 1.44 0 1 1 0-2.877h8.38v8.383c0 .793-.644 1.437-1.437 1.437" fill="#344154"/>
            <path d="M49.335 46.476a1.435 1.435 0 0 1-.72-2.68l14.872-8.59-14.152-8.034-16.339 9.275a1.441 1.441 0 0 1-1.96-.542 1.441 1.441 0 0 1 .541-1.96l17.048-9.678a1.446 1.446 0 0 1 1.418 0l17.047 9.678c.448.254.723.732.727 1.247.003.514-.273.992-.717 1.249l-17.048 9.84c-.226.131-.471.195-.717.195" fill="#F7778A"/>
            <path d="M49.332 66.158c-.245 0-.49-.063-.717-.193l-17.047-9.841a1.432 1.432 0 0 1-.72-1.243V35.195c0-.792.645-1.437 1.437-1.437.793 0 1.437.645 1.437 1.437v18.857l16.33 9.426a1.435 1.435 0 0 1-.72 2.68" fill="#F7778A"/>
            <path d="M49.335 66.158a1.435 1.435 0 0 1-.72-2.68l16.328-9.426V35.195c0-.792.644-1.437 1.437-1.437.792 0 1.436.645 1.436 1.437v19.686c0 .514-.272.989-.716 1.243l-17.048 9.84c-.226.131-.471.194-.717.194M49.334 59.55a1.438 1.438 0 0 1-1.437-1.437V45.038c0-.793.644-1.437 1.437-1.437s1.437.644 1.437 1.437v13.075c0 .793-.644 1.437-1.437 1.437" fill="#F7778A"/>
            <g transform="translate(0 8)">
                <mask id="d" fill="#fff">
                    <use xlink:href="#c"/>
                </mask>
                <path d="M70.178 73.994H8.573c-4.726 0-8.574-3.845-8.574-8.574V8.573C0 3.845 3.847 0 8.573 0H90.19c4.682.051 8.476 3.875 8.476 8.573v31.741a1.436 1.436 0 1 1-2.874 0V8.574c0-3.144-2.557-5.7-5.7-5.7H8.573c-3.14 0-5.7 2.556-5.7 5.7V65.42c0 3.143 2.56 5.7 5.7 5.7h61.605c.793 0 1.437.644 1.437 1.437 0 .792-.644 1.437-1.437 1.437" fill="#344154" mask="url(#d)"/>
            </g>
            <path d="M73.547 93H20.546c-.475 0-.92-.236-1.19-.63a1.44 1.44 0 0 1-.144-1.336l4.353-11.006a1.443 1.443 0 0 1 1.866-.808 1.442 1.442 0 0 1 .808 1.867l-3.579 9.039h50.887c.793 0 1.437.644 1.437 1.437S74.34 93 73.547 93" fill="#344154"/>
        </g>
    </g>
</svg>
