<svg width="70" height="80" xmlns="http://www.w3.org/2000/svg" xmlns:xlink="http://www.w3.org/1999/xlink">
    <defs>
        <path id="a" d="M0 80h69.364V0H0z"/>
    </defs>
    <g fill="none" fill-rule="evenodd">
        <path d="M40.693 80H7.242C3.248 80 0 76.752 0 72.759V7.035A7.044 7.044 0 0 1 7.036 0h33.722a7.043 7.043 0 0 1 7.035 7.035v16.963a.84.84 0 0 1-1.68 0V7.035a5.361 5.361 0 0 0-5.355-5.355H7.036A5.361 5.361 0 0 0 1.68 7.035V72.76a5.567 5.567 0 0 0 5.562 5.56h33.451a5.426 5.426 0 0 0 5.42-5.418v-3.143a.84.84 0 0 1 1.68 0V72.9c0 3.914-3.185 7.099-7.1 7.099" fill="#344154"/>
        <path d="M31.355 8.057H16.437c-2.31 0-4.19-1.88-4.19-4.19V.84a.84.84 0 0 1 1.68 0v3.027a2.513 2.513 0 0 0 2.51 2.51h14.918a2.513 2.513 0 0 0 2.51-2.51V.84a.84.84 0 0 1 1.68 0v3.027c0 2.31-1.88 4.19-4.19 4.19" fill="#344154"/>
        <mask id="b" fill="#fff">
            <use xlink:href="#a"/>
        </mask>
        <path d="M18.226 63.444h41.478V32.755H18.226v30.69zm-1.68 1.68h44.838V31.075H16.546v34.05z" fill="#344154" mask="url(#b)"/>
        <path fill="#344154" mask="url(#b)" d="M69.364 57.207h-8.82v-1.68h7.14v-30.69H26.205v7.08h-1.68v-8.76h44.839z"/>
        <path d="M30.088 35.601h-9.017v9.017a13.245 13.245 0 0 0 9.017-9.017" fill="#F7778A" mask="url(#b)"/>
        <path d="M17.386 54.094v-1.68c4.474 0 8.754-1.513 12.052-4.259 1.739-1.448 3.333-3.222 4.738-5.273l.694-1.011 5.86 8.558 10.296-13.984.665.994c.068.1 6.793 10.146 9.53 13.884l-1.354.993c-2.245-3.064-7.125-10.3-8.906-12.95L40.681 53.33l-5.827-8.508c-1.314 1.765-2.771 3.317-4.342 4.624-3.598 2.998-8.26 4.648-13.126 4.648" fill="#344154" mask="url(#b)"/>
        <path d="M43.672 54.065c-1.504 2.043-4.575 1.99-6.008-.103l-3.05-4.456c-.732.76-1.493 1.47-2.28 2.127-3.186 2.652-7.092 4.376-11.263 5.019v3.947H56.86V53.01c-1.67-2.34-4.096-5.893-6-8.706l-7.187 9.76z" fill="#F7778A" mask="url(#b)"/>
    </g>
</svg>
