<svg width="90" height="83" xmlns="http://www.w3.org/2000/svg" xmlns:xlink="http://www.w3.org/1999/xlink">
    <defs>
        <path id="a" d="M0 0h90v35.528H0z"/>
    </defs>
    <g fill="none" fill-rule="evenodd">
        <g>
            <mask id="b" fill="#fff">
                <use xlink:href="#a"/>
            </mask>
            <path d="M1.146 35.528A1.147 1.147 0 0 1 0 34.382V14.027c0-.5.325-.943.802-1.093L39.436.779a16.742 16.742 0 0 1 10.095 0l38.633 12.155A2.58 2.58 0 0 1 90 15.436c0 1.169-.721 2.15-1.836 2.5L49.53 30.09a16.742 16.742 0 0 1-10.095 0L8.537 20.37a1.146 1.146 0 1 1 .688-2.187l30.9 9.72c2.851.898 5.865.898 8.718 0L87.477 15.75c.153-.048.23-.153.23-.314.001-.16-.078-.266-.23-.315L48.843 2.966a14.456 14.456 0 0 0-8.719 0L2.293 14.868v19.514c0 .633-.514 1.146-1.147 1.146" fill="#344154" mask="url(#b)"/>
        </g>
        <path d="M44.583 50.652c-7.752 0-15.504-.796-23.208-2.387l-.956-.198a7.304 7.304 0 0 1-5.806-7.126V21.716a1.147 1.147 0 0 1 2.293 0v19.225a5.004 5.004 0 0 0 3.976 4.881l.957.198c15.366 3.174 30.935 3.117 46.278-.168a5.01 5.01 0 0 0 3.94-4.872l.004-19.264a1.147 1.147 0 0 1 2.293 0L74.35 40.98c0 3.408-2.42 6.4-5.752 7.114a114.545 114.545 0 0 1-24.015 2.558" fill="#344154"/>
        <path d="M44.583 50.652c-7.752 0-15.504-.796-23.208-2.387l-.956-.198a7.304 7.304 0 0 1-5.806-7.126V21.716a1.147 1.147 0 0 1 2.293 0v19.225a5.004 5.004 0 0 0 3.976 4.881l.957.198c15.366 3.174 30.935 3.117 46.278-.168a5.01 5.01 0 0 0 3.94-4.872l.004-19.264a1.147 1.147 0 0 1 2.293 0L74.35 40.98c0 3.408-2.42 6.4-5.752 7.114a114.545 114.545 0 0 1-24.015 2.558M49.57 82.036h-9.14c-.51 0-.959-.337-1.1-.828l-.428-1.481c-.78-2.705-2.619-5.003-5.176-6.473l-.088-.05c-2.538-1.475-5.434-1.913-8.17-1.235l-1.498.371a1.143 1.143 0 0 1-1.268-.54l-4.57-7.913c-.255-.443-.187-1 .168-1.369l1.07-1.111c1.953-2.03 3.024-4.757 3.016-7.68v-.11a1.146 1.146 0 1 1 2.293 0v.106c.009 3.52-1.29 6.813-3.656 9.274l-.474.49 3.707 6.42.661-.163c3.312-.822 6.815-.299 9.862 1.471l.088.05c3.077 1.77 5.293 4.548 6.238 7.826l.188.653h7.414l.19-.657c.945-3.277 3.156-6.053 6.225-7.816l.066-.038c3.072-1.783 6.583-2.308 9.893-1.49l.663.164 3.707-6.42-.472-.49c-2.366-2.457-3.664-5.765-3.657-9.314v-.105a1.147 1.147 0 0 1 2.292 0v.107c-.006 2.955 1.066 5.695 3.018 7.723l1.069 1.11c.354.368.422.926.166 1.369L67.298 71.8a1.142 1.142 0 0 1-1.268.54l-1.5-.371c-2.734-.68-5.638-.236-8.18 1.24l-.071.041c-2.566 1.474-4.4 3.77-5.18 6.473l-.428 1.485c-.142.49-.591.828-1.101.828" fill="#344154"/>
        <path d="M45 65.843c-6.835 0-12.397-5.561-12.397-12.397a1.147 1.147 0 0 1 2.292 0c0 5.57 4.534 10.104 10.105 10.104 5.572 0 10.105-4.533 10.105-10.104a1.147 1.147 0 0 1 2.293 0c0 6.836-5.562 12.397-12.398 12.397" fill="#344154"/>
        <path d="m21.462 43.014.956.197a109.46 109.46 0 0 0 22.167 2.279c7.665 0 15.326-.814 22.932-2.443a2.126 2.126 0 0 0 1.673-2.068l.001-6.439c-7.654 1.606-15.987 2.49-24.707 2.49-8.722 0-17.056-.884-24.71-2.49v6.401c0 1 .71 1.871 1.688 2.073" fill="#2DACE5"/>
    </g>
</svg>
