<svg xmlns="http://www.w3.org/2000/svg" xmlns:xlink="http://www.w3.org/1999/xlink" width="21" height="30" viewBox="0 0 21 30">
    <defs>
        <path id="prefix__a" d="M0.001 0L20.625 0 20.625 30 0.001 30z"/>
    </defs>
    <g fill="none" fill-rule="evenodd">
        <mask id="prefix__b" fill="#fff">
            <use xlink:href="#prefix__a"/>
        </mask>
        <path fill="#7D71D1" d="M4.688 15V5.625C4.688 2.519 7.207 0 10.313 0c3.105 0 5.624 2.519 5.624 5.625V15c0 3.106-2.518 5.625-5.624 5.625-3.107 0-5.626-2.519-5.626-5.625m15.938-2.813V15c0 5.209-3.884 9.52-8.906 10.209v1.979H15c.518 0 .937.419.937.937v.938c0 .518-.42.937-.938.937H5.625c-.518 0-.936-.419-.936-.937v-.938c0-.518.418-.937.937-.937h3.281v-2.001C3.748 24.475.002 19.793.002 14.541v-2.354c0-.518.418-.937.937-.937h.937c.518 0 .938.419.938.937v2.479c0 3.915 2.853 7.417 6.75 7.798 4.47.435 8.25-3.081 8.25-7.464v-2.813c0-.518.419-.937.938-.937h.936c.518 0 .938.419.938.937" mask="url(#prefix__b)"/>
    </g>
</svg>
