<svg xmlns="http://www.w3.org/2000/svg" width="86" height="12" viewBox="0 0 86 12">
    <defs>
        <style>
            .cls-1{fill:#002b49}.cls-2{fill:#1054b2}
        </style>
    </defs>
    <g id="logo_maumdata_86x12px" transform="translate(-138 -47)">
        <g id="그룹_2618" transform="translate(85.1 -25.28)">
            <path id="패스_4054" d="M60.56 76.28a3.025 3.025 0 0 0-2.3 1.069 3 3 0 0 0-2.1-1.064c-.067 0-.132-.006-.2-.006a3.091 3.091 0 0 0-2.725 1.694 2.931 2.931 0 0 0-.339 1.4V84.2h1.537v-4.962a1.232 1.232 0 0 1 .489-1 1.557 1.557 0 0 1 2.566 1.214V84.2h1.537v-4.962a1.232 1.232 0 0 1 .489-1 1.557 1.557 0 0 1 2.566 1.214V84.2h1.54v-4.82a2.884 2.884 0 0 0-.236-1.186 3.093 3.093 0 0 0-2.824-1.914z" class="cls-1"/>
            <path id="패스_4055" d="M105.027 77.721a3.816 3.816 0 0 0-1.217-.85 3.73 3.73 0 0 0-2.983 0 3.817 3.817 0 0 0-1.217.85 3.907 3.907 0 0 0-.82 1.258 4.1 4.1 0 0 0 0 3.083 4 4 0 0 0 .82 1.258 3.816 3.816 0 0 0 1.217.85 3.713 3.713 0 0 0 1.491.311 3.753 3.753 0 0 0 1.918-.531v-1.312a.041.041 0 0 0-.005-.019.421.421 0 0 0-.626-.131 1.354 1.354 0 0 1-.373.222 2.367 2.367 0 0 1-2.9-3.417 1.927 1.927 0 0 1 .8-.828 2.318 2.318 0 0 1 3.477 2.058V84.4h1.537v-3.879a4.076 4.076 0 0 0-.3-1.542 3.99 3.99 0 0 0-.819-1.258z" class="cls-1" transform="translate(-33.552 -.205)"/>
            <path id="패스_4056" d="M139.565 76.57h-1.54v4.569a1.656 1.656 0 0 1-.742 1.394 1.939 1.939 0 0 1-3.077-1.608V76.57h-1.536v4.355a3.66 3.66 0 0 0 .271 1.389 3.572 3.572 0 0 0 .739 1.133 3.442 3.442 0 0 0 1.1.764 3.344 3.344 0 0 0 2.682 0 3.442 3.442 0 0 0 1.1-.764 3.572 3.572 0 0 0 .739-1.133 3.639 3.639 0 0 0 .271-1.389V76.57z" class="cls-1" transform="translate(-58.699 -.212)"/>
            <path id="패스_4057" d="M171.655 76.28a3.015 3.015 0 0 0-2.295 1.069 3 3 0 0 0-2.1-1.064c-.067 0-.132-.006-.2-.006a3.09 3.09 0 0 0-2.725 1.7 2.957 2.957 0 0 0-.336 1.4V84.2h1.537v-4.962a1.241 1.241 0 0 1 .489-1 1.558 1.558 0 0 1 2.566 1.214V84.2h1.537v-4.964a1.232 1.232 0 0 1 .489-1 1.556 1.556 0 0 1 2.563 1.214v4.75h1.537v-4.823a2.867 2.867 0 0 0-.231-1.172 3.091 3.091 0 0 0-2.831-1.925z" class="cls-1" transform="translate(-81.818)"/>
        </g>
        <g id="그룹_2619" transform="translate(62.678 -103.731)">
            <path id="패스_4058" d="M126.3 150.991a3.939 3.939 0 0 1 2.031 1.522 5.363 5.363 0 0 1 .849 1.938 9.36 9.36 0 0 1 .227 1.987 8.019 8.019 0 0 1-.955 4.054 4.3 4.3 0 0 1-4 2.239h-5.137v-12h5.137a6.229 6.229 0 0 1 1.848.26zm-4.565 1.824v7.832h2.3a2.483 2.483 0 0 0 2.461-1.75 6.2 6.2 0 0 0 .381-2.288 5.66 5.66 0 0 0-.571-2.813 2.4 2.4 0 0 0-2.271-.981z" class="cls-2"/>
            <path id="패스_4059" d="M150.724 150.731h2.817l4.216 12h-2.7l-.786-2.467h-4.388l-.808 2.467h-2.6zm-.164 7.465h3.051l-1.505-4.722z" class="cls-2" transform="translate(-16.048)"/>
            <path id="패스_4060" d="M182 150.731v2.125h-3.565v9.875h-2.506v-9.875h-3.581v-2.125z" class="cls-2" transform="translate(-31.341)"/>
            <path id="패스_4061" d="M198.689 150.731h2.817l4.216 12h-2.7l-.786-2.467h-4.388l-.808 2.467h-2.6zm-.164 7.465h3.051l-1.505-4.722z" class="cls-2" transform="translate(-44.4)"/>
        </g>
    </g>
</svg>
