<svg xmlns="http://www.w3.org/2000/svg" width="76" height="76" viewBox="0 0 76 76">
    <defs>
        <clipPath id="qh7mpd5sta">
            <path data-name="사각형 122" style="fill:#d34e81" d="M0 0h76v76H0z"/>
        </clipPath>
    </defs>
    <g data-name="그룹 3486">
        <g data-name="그룹 27" style="clip-path:url(#qh7mpd5sta)">
            <path data-name="패스 40" d="M75.78 34.211a40.075 40.075 0 0 0-1.2-6.528A41.832 41.832 0 0 0 72 21.047a38.252 38.252 0 0 0-9.1-11.734 37.083 37.083 0 0 0-10.6-6.524A34.525 34.525 0 0 0 43.767.416a38.364 38.364 0 0 0-21.088 2.822 37.2 37.2 0 0 0-12.535 8.972 38.344 38.344 0 0 0-7.009 10.712A39.755 39.755 0 0 0 .121 35.186 34 34 0 0 0 .4 43.115a36.982 36.982 0 0 0 1.72 7.2A22.014 22.014 0 0 1 3.6 57.2a28.377 28.377 0 0 1-.439 5.152C2.508 66.3 1.712 70.217.993 74.148c-.143.781-.015.955.766.812 1.213-.222 2.419-.484 3.636-.683 2.041-.334 4.066-.762 6.1-1.118a31.543 31.543 0 0 1 6.49-.787 20.8 20.8 0 0 1 3.607.278c2.54.525 4.912 1.593 7.435 2.171a46.046 46.046 0 0 0 7.753 1.139 36.922 36.922 0 0 0 11.436-1.412A35.162 35.162 0 0 0 58.689 69.8a38.279 38.279 0 0 0 11.8-12.177 37.679 37.679 0 0 0 5.291-23.412" style="fill:#d34e81"/>
        </g>
    </g>
    <path data-name="패스 4398" d="M5.657 0 0 1.677v2.479L3.354 3.2v14.424h3.355V0z" transform="translate(17.706 11.388)" style="fill:#fff"/>
    <path data-name="패스 4400" d="M11.99-12.738v-2.178H1.254V1.1h3.718v-7.3h6.182v-2.138H4.972v-4.4zM25.938 1.1v-3.63c0-2.992-.924-3.476-2.244-4.07a3.688 3.688 0 0 0 2.354-3.784c0-1.386-.66-4.532-4.906-4.532h-7.634V1.1h3.806v-6.27H19.8c2.442 0 2.816 1.056 2.816 3.234a5.735 5.735 0 0 1-.44 3.036zm-8.624-8.976v-4.268H20.5c1.958 0 2.332 1.276 2.332 2.09 0 1.584-.836 2.178-2.574 2.178zm21.586-4.51v-2.53H27.984V1.078H38.9v-2.4h-7.286v-4.97h6.006V-8.47h-6.006v-3.916zm12.98 0v-2.53H40.964V1.078h10.912v-2.4h-7.282v-4.97H50.6V-8.47h-6.006v-3.916z" transform="translate(11.998 46.988)" style="fill:#fff"/>
    <path data-name="패스 4401" d="m4.851-6.1-1.4 1.584-1.426-1.595H.513V.45h1.512v-4.833l1.4 1.242 1.426-1.251V.45h1.341V-6.1zm5.49 6.55a1.849 1.849 0 0 0 1.8-1.764v-2.853a1.91 1.91 0 0 0-2.052-1.944h-.918a2 2 0 0 0-2.133 1.953v2.817A1.823 1.823 0 0 0 9.009.45zM9.288-.63a.813.813 0 0 1-.918-.891v-2.538a.883.883 0 0 1 .99-.855h.5a.837.837 0 0 1 .945.846v2.547a.85.85 0 0 1-.954.891zM14.58.45v-4.1l2.313 4.1h1.386v-6.561h-1.314v4.545L14.58-6.111h-1.593V.45zm4.275-6.561v1.386h2.2V.45h1.4v-5.175h2.088v-1.386zM26.7-2.5H29V.45h1.224v-6.561h-1.217V-3.5H26.7v-2.61h-1.581V.45H26.7z" transform="translate(27.489 27.993)" style="fill:#fff"/>
    <path data-name="패스 4399" d="M4.746 0v-7.868h2.786v-1.6H.28v1.6h2.758V0zm5.586-7.868h1.428c1.274-.014 2.072.28 2.072 1.2 0 1.022-.938 1.232-2.226 1.232h-1.274zm3.584 2.982A2.2 2.2 0 0 0 15.582-6.9c0-1.862-1.456-2.562-3.71-2.562H8.624V0h1.708v-3.836h1.932c.966 0 1.33.448 1.414 1.526A15.578 15.578 0 0 0 14.042 0h1.82a8.466 8.466 0 0 1-.518-2.884 1.972 1.972 0 0 0-1.428-1.974zM19.474 0v-9.464h-1.708V0zm8.064 0h1.876L25.9-9.464h-1.442L20.986 0h1.806l.77-2.254h3.206zm-2.38-6.944 1.078 3.108h-2.142zM37.212 0v-1.526h-4.718v-7.938h-1.708V0z" transform="translate(19.998 61.982)" style="fill:#fff"/>
</svg>
